<svg width="3123px" height="849px"
 viewBox="0.00 0.00 2342.00 637.00" xmlns="http://www.w3.org/2000/svg" xmlns:xlink="http://www.w3.org/1999/xlink">
<g id="graph0" class="graph" transform="scale(1.000022500562514 1.000022500562514) rotate(0) translate(4 633)">
<title>Automaton</title>
<polygon fill="white" stroke="none" points="-4,4 -4,-633 2338,-633 2338,4 -4,4"/>
<!-- 0 -->
<g id="node1" class="node"><title>0</title>
<ellipse fill="none" stroke="black" cx="109" cy="-264" rx="18" ry="18"/>
</g>
<!-- 1 -->
<g id="node2" class="node"><title>1</title>
<ellipse fill="none" stroke="black" cx="227" cy="-264" rx="18" ry="18"/>
</g>
<!-- 0&#45;&gt;1 -->
<g id="edge1" class="edge"><title>0&#45;&gt;1</title>
<path fill="none" stroke="black" d="M127.116,-264C145.964,-264 176.531,-264 198.696,-264"/>
<polygon fill="black" stroke="black" points="198.814,-267.5 208.814,-264 198.814,-260.5 198.814,-267.5"/>
<text text-anchor="middle" x="168" y="-267.8" font-family="Times,serif" font-size="14.00">u0001</text>
</g>
<!-- 2 -->
<g id="node3" class="node"><title>2</title>
<ellipse fill="none" stroke="black" cx="345" cy="-264" rx="18" ry="18"/>
</g>
<!-- 1&#45;&gt;2 -->
<g id="edge2" class="edge"><title>1&#45;&gt;2</title>
<path fill="none" stroke="black" d="M245.116,-264C263.964,-264 294.531,-264 316.696,-264"/>
<polygon fill="black" stroke="black" points="316.814,-267.5 326.814,-264 316.814,-260.5 316.814,-267.5"/>
<text text-anchor="middle" x="286" y="-267.8" font-family="Times,serif" font-size="14.00">u0003</text>
</g>
<!-- 3 -->
<g id="node4" class="node"><title>3</title>
<ellipse fill="none" stroke="black" cx="462" cy="-264" rx="18" ry="18"/>
</g>
<!-- 2&#45;&gt;3 -->
<g id="edge3" class="edge"><title>2&#45;&gt;3</title>
<path fill="none" stroke="black" d="M363.466,-264C382.064,-264 411.756,-264 433.499,-264"/>
<polygon fill="black" stroke="black" points="433.746,-267.5 443.746,-264 433.746,-260.5 433.746,-267.5"/>
<text text-anchor="middle" x="403.5" y="-267.8" font-family="Times,serif" font-size="14.00">u000e</text>
</g>
<!-- 4 -->
<g id="node5" class="node"><title>4</title>
<ellipse fill="none" stroke="black" cx="576" cy="-264" rx="18" ry="18"/>
</g>
<!-- 3&#45;&gt;4 -->
<g id="edge4" class="edge"><title>3&#45;&gt;4</title>
<path fill="none" stroke="black" d="M480.01,-264C497.937,-264 526.445,-264 547.558,-264"/>
<polygon fill="black" stroke="black" points="547.83,-267.5 557.83,-264 547.829,-260.5 547.83,-267.5"/>
<text text-anchor="middle" x="519" y="-267.8" font-family="Times,serif" font-size="14.00">u000f</text>
</g>
<!-- 5 -->
<g id="node6" class="node"><title>5</title>
<ellipse fill="none" stroke="black" cx="694" cy="-264" rx="18" ry="18"/>
</g>
<!-- 4&#45;&gt;5 -->
<g id="edge5" class="edge"><title>4&#45;&gt;5</title>
<path fill="none" stroke="black" d="M594.116,-264C612.964,-264 643.531,-264 665.696,-264"/>
<polygon fill="black" stroke="black" points="665.814,-267.5 675.814,-264 665.814,-260.5 665.814,-267.5"/>
<text text-anchor="middle" x="635" y="-267.8" font-family="Times,serif" font-size="14.00">u0002</text>
</g>
<!-- 6 -->
<g id="node7" class="node"><title>6</title>
<ellipse fill="none" stroke="black" cx="945" cy="-255" rx="18" ry="18"/>
</g>
<!-- 5&#45;&gt;6 -->
<g id="edge6" class="edge"><title>5&#45;&gt;6</title>
<path fill="none" stroke="black" d="M711.634,-268.024C717.411,-269.236 723.957,-270.402 730,-271 769.037,-274.865 874.575,-271.789 904,-267 908.634,-266.246 913.482,-265.105 918.14,-263.823"/>
<polygon fill="black" stroke="black" points="919.317,-267.123 927.877,-260.881 917.292,-260.423 919.317,-267.123"/>
<text text-anchor="middle" x="817" y="-275.8" font-family="Times,serif" font-size="14.00">u000d</text>
</g>
<!-- 8 -->
<g id="node9" class="node"><title>8</title>
<ellipse fill="none" stroke="black" cx="1196" cy="-255" rx="18" ry="18"/>
</g>
<!-- 5&#45;&gt;8 -->
<g id="edge8" class="edge"><title>5&#45;&gt;8</title>
<path fill="none" stroke="black" d="M707.614,-276.038C728.424,-294.577 772.036,-328 816,-328 816,-328 816,-328 1074,-328 1115.04,-328 1154.11,-296.831 1176.26,-275.227"/>
<polygon fill="black" stroke="black" points="1178.82,-277.62 1183.37,-268.051 1173.84,-272.694 1178.82,-277.62"/>
<text text-anchor="middle" x="945" y="-331.8" font-family="Times,serif" font-size="14.00">u0006</text>
</g>
<!-- 7 -->
<g id="node22" class="node"><title>7</title>
<ellipse fill="none" stroke="black" cx="817" cy="-177" rx="18" ry="18"/>
</g>
<!-- 5&#45;&gt;7 -->
<g id="edge7" class="edge"><title>5&#45;&gt;7</title>
<path fill="none" stroke="black" d="M705.29,-249.924C711.763,-241.704 720.643,-231.506 730,-224 748.701,-208.998 772.87,-196.272 790.822,-187.861"/>
<polygon fill="black" stroke="black" points="792.43,-190.974 800.081,-183.645 789.53,-184.604 792.43,-190.974"/>
<text text-anchor="middle" x="753" y="-227.8" font-family="Times,serif" font-size="14.00">u000c</text>
</g>
<!-- 9 -->
<g id="node24" class="node"><title>9</title>
<ellipse fill="none" stroke="black" cx="817" cy="-231" rx="18" ry="18"/>
</g>
<!-- 5&#45;&gt;9 -->
<g id="edge9" class="edge"><title>5&#45;&gt;9</title>
<path fill="none" stroke="black" d="M711.825,-259.411C731.962,-253.919 765.922,-244.658 789.574,-238.207"/>
<polygon fill="black" stroke="black" points="790.592,-241.557 799.318,-235.55 788.75,-234.804 790.592,-241.557"/>
<text text-anchor="middle" x="753" y="-258.8" font-family="Times,serif" font-size="14.00">u0000</text>
</g>
<!-- 10 -->
<g id="node8" class="node"><title>10</title>
<ellipse fill="none" stroke="black" cx="1073" cy="-194" rx="18" ry="18"/>
</g>
<!-- 6&#45;&gt;10 -->
<g id="edge10" class="edge"><title>6&#45;&gt;10</title>
<path fill="none" stroke="black" d="M959.459,-243.826C966.946,-237.983 976.624,-231.022 986,-226 1005.25,-215.688 1028.55,-207.243 1046.03,-201.623"/>
<polygon fill="black" stroke="black" points="1047.08,-204.964 1055.59,-198.648 1045,-198.281 1047.08,-204.964"/>
<text text-anchor="middle" x="1009" y="-229.8" font-family="Times,serif" font-size="14.00">u000c</text>
</g>
<!-- 6&#45;&gt;8 -->
<g id="edge11" class="edge"><title>6&#45;&gt;8</title>
<path fill="none" stroke="black" d="M963.115,-255C1005.58,-255 1116.08,-255 1167.69,-255"/>
<polygon fill="black" stroke="black" points="1167.77,-258.5 1177.77,-255 1167.77,-251.5 1167.77,-258.5"/>
<text text-anchor="middle" x="1073" y="-258.8" font-family="Times,serif" font-size="14.00">u0006</text>
</g>
<!-- 10&#45;&gt;8 -->
<g id="edge12" class="edge"><title>10&#45;&gt;8</title>
<path fill="none" stroke="black" d="M1090.57,-198.363C1108.45,-203.47 1137.38,-212.926 1160,-226 1165.04,-228.912 1170.08,-232.553 1174.7,-236.262"/>
<polygon fill="black" stroke="black" points="1172.59,-239.063 1182.48,-242.866 1177.12,-233.726 1172.59,-239.063"/>
<text text-anchor="middle" x="1137" y="-229.8" font-family="Times,serif" font-size="14.00">u0006</text>
</g>
<!-- 12 -->
<g id="node10" class="node"><title>12</title>
<ellipse fill="none" stroke="black" cx="1314" cy="-255" rx="18" ry="18"/>
</g>
<!-- 8&#45;&gt;12 -->
<g id="edge13" class="edge"><title>8&#45;&gt;12</title>
<path fill="none" stroke="black" d="M1214.12,-255C1232.96,-255 1263.53,-255 1285.7,-255"/>
<polygon fill="black" stroke="black" points="1285.81,-258.5 1295.81,-255 1285.81,-251.5 1285.81,-258.5"/>
<text text-anchor="middle" x="1255" y="-258.8" font-family="Times,serif" font-size="14.00">u0004</text>
</g>
<!-- 13 -->
<g id="node11" class="node"><title>13</title>
<ellipse fill="none" stroke="black" cx="1432" cy="-255" rx="18" ry="18"/>
</g>
<!-- 12&#45;&gt;13 -->
<g id="edge14" class="edge"><title>12&#45;&gt;13</title>
<path fill="none" stroke="black" d="M1332.12,-255C1350.96,-255 1381.53,-255 1403.7,-255"/>
<polygon fill="black" stroke="black" points="1403.81,-258.5 1413.81,-255 1403.81,-251.5 1403.81,-258.5"/>
<text text-anchor="middle" x="1373" y="-258.8" font-family="Times,serif" font-size="14.00">u0005</text>
</g>
<!-- 14 -->
<g id="node12" class="node"><title>14</title>
<ellipse fill="none" stroke="black" cx="2067" cy="-284" rx="18" ry="18"/>
</g>
<!-- 13&#45;&gt;14 -->
<g id="edge15" class="edge"><title>13&#45;&gt;14</title>
<path fill="none" stroke="black" d="M1450.07,-257.792C1479.67,-262.477 1542.5,-271.73 1596,-275 1616.41,-276.247 1621.66,-277.086 1642,-275 1679.03,-271.202 1686.97,-261.798 1724,-258 1806.1,-249.579 1867.56,-252.056 2026,-275 2030.36,-275.631 2034.95,-276.483 2039.4,-277.412"/>
<polygon fill="black" stroke="black" points="2038.85,-280.875 2049.37,-279.652 2040.38,-274.045 2038.85,-280.875"/>
<text text-anchor="middle" x="1747" y="-261.8" font-family="Times,serif" font-size="14.00">u0009</text>
</g>
<!-- 17 -->
<g id="node14" class="node"><title>17</title>
<ellipse fill="none" stroke="black" cx="2312" cy="-399" rx="18" ry="18"/>
<ellipse fill="none" stroke="black" cx="2312" cy="-399" rx="22" ry="22"/>
</g>
<!-- 13&#45;&gt;17 -->
<g id="edge18" class="edge"><title>13&#45;&gt;17</title>
<path fill="none" stroke="black" d="M1435.03,-272.803C1443.78,-345.242 1481.16,-614 1554,-614 1554,-614 1554,-614 2191,-614 2273.67,-614 2299.92,-491.307 2307.81,-431.291"/>
<polygon fill="black" stroke="black" points="2311.31,-431.549 2309.04,-421.199 2304.36,-430.701 2311.31,-431.549"/>
<text text-anchor="middle" x="1875" y="-617.8" font-family="Times,serif" font-size="14.00">u0007</text>
</g>
<!-- 15 -->
<g id="node15" class="node"><title>15</title>
<ellipse fill="none" stroke="black" cx="1811" cy="-162" rx="18" ry="18"/>
</g>
<!-- 13&#45;&gt;15 -->
<g id="edge16" class="edge"><title>13&#45;&gt;15</title>
<path fill="none" stroke="black" d="M1449.61,-250.979C1479.03,-243.914 1542.27,-228.978 1596,-218 1644.68,-208.053 1657.14,-207.023 1706,-198 1734.46,-192.745 1742.94,-196.273 1770,-186 1775.82,-183.79 1781.75,-180.743 1787.2,-177.561"/>
<polygon fill="black" stroke="black" points="1789.18,-180.456 1795.82,-172.203 1785.48,-174.512 1789.18,-180.456"/>
<text text-anchor="middle" x="1619" y="-221.8" font-family="Times,serif" font-size="14.00">u0008</text>
</g>
<!-- 16 -->
<g id="node17" class="node"><title>16</title>
<ellipse fill="none" stroke="black" cx="1555" cy="-119" rx="18" ry="18"/>
</g>
<!-- 13&#45;&gt;16 -->
<g id="edge17" class="edge"><title>13&#45;&gt;16</title>
<path fill="none" stroke="black" d="M1434.19,-236.741C1436.68,-213.372 1444.36,-173.043 1468,-149 1483.55,-133.187 1507.88,-125.696 1526.69,-122.155"/>
<polygon fill="black" stroke="black" points="1527.44,-125.579 1536.76,-120.53 1526.33,-118.669 1527.44,-125.579"/>
<text text-anchor="middle" x="1491" y="-152.8" font-family="Times,serif" font-size="14.00">u0011</text>
</g>
<!-- 19 -->
<g id="node20" class="node"><title>19</title>
<ellipse fill="none" stroke="black" cx="1683" cy="-171" rx="18" ry="18"/>
</g>
<!-- 13&#45;&gt;19 -->
<g id="edge20" class="edge"><title>13&#45;&gt;19</title>
<path fill="none" stroke="black" d="M1440.89,-238.82C1446.89,-228.199 1456.14,-214.865 1468,-207 1526.04,-168.518 1611.83,-166.838 1655.04,-168.878"/>
<polygon fill="black" stroke="black" points="1654.88,-172.375 1665.06,-169.457 1655.28,-165.386 1654.88,-172.375"/>
<text text-anchor="middle" x="1555" y="-183.8" font-family="Times,serif" font-size="14.00">u000b</text>
</g>
<!-- 18 -->
<g id="node21" class="node"><title>18</title>
<ellipse fill="none" stroke="black" cx="1555" cy="-427" rx="18" ry="18"/>
</g>
<!-- 13&#45;&gt;18 -->
<g id="edge19" class="edge"><title>13&#45;&gt;18</title>
<path fill="none" stroke="black" d="M1443.11,-269.369C1464.05,-299.141 1512.35,-367.793 1537.73,-403.878"/>
<polygon fill="black" stroke="black" points="1535.05,-406.142 1543.66,-412.308 1540.77,-402.115 1535.05,-406.142"/>
<text text-anchor="middle" x="1491" y="-369.8" font-family="Times,serif" font-size="14.00">u0010</text>
</g>
<!-- 20 -->
<g id="node13" class="node"><title>20</title>
<ellipse fill="none" stroke="black" cx="2190" cy="-319" rx="18" ry="18"/>
</g>
<!-- 14&#45;&gt;20 -->
<g id="edge21" class="edge"><title>14&#45;&gt;20</title>
<path fill="none" stroke="black" d="M2084.82,-288.867C2104.96,-294.691 2138.92,-304.515 2162.57,-311.356"/>
<polygon fill="black" stroke="black" points="2161.74,-314.758 2172.32,-314.175 2163.68,-308.034 2161.74,-314.758"/>
<text text-anchor="middle" x="2131" y="-311.8" font-family="Times,serif" font-size="14.00">u000a</text>
</g>
<!-- 20&#45;&gt;17 -->
<g id="edge22" class="edge"><title>20&#45;&gt;17</title>
<path fill="none" stroke="black" d="M2205.85,-327.877C2222.27,-337.796 2249.38,-354.503 2272,-370 2276.61,-373.159 2281.45,-376.626 2286.08,-380.028"/>
<polygon fill="black" stroke="black" points="2284.01,-382.846 2294.12,-386.005 2288.19,-377.229 2284.01,-382.846"/>
<text text-anchor="middle" x="2249" y="-373.8" font-family="Times,serif" font-size="14.00">u0007</text>
</g>
<!-- 15&#45;&gt;14 -->
<g id="edge23" class="edge"><title>15&#45;&gt;14</title>
<path fill="none" stroke="black" d="M1829.04,-159.171C1868.59,-153.625 1967.69,-145.736 2026,-194 2044.96,-209.69 2055.24,-236.182 2060.61,-256.372"/>
<polygon fill="black" stroke="black" points="2057.25,-257.362 2062.99,-266.266 2064.06,-255.724 2057.25,-257.362"/>
<text text-anchor="middle" x="1939" y="-166.8" font-family="Times,serif" font-size="14.00">u0009</text>
</g>
<!-- 15&#45;&gt;17 -->
<g id="edge24" class="edge"><title>15&#45;&gt;17</title>
<path fill="none" stroke="black" d="M1826.95,-153.298C1850,-140.734 1895.93,-119 1938,-119 1938,-119 1938,-119 2191,-119 2297.61,-119 2310.73,-292.62 2311.49,-366.427"/>
<polygon fill="black" stroke="black" points="2307.99,-366.571 2311.52,-376.56 2314.99,-366.549 2307.99,-366.571"/>
<text text-anchor="middle" x="2067" y="-122.8" font-family="Times,serif" font-size="14.00">u0007</text>
</g>
<!-- 21 -->
<g id="node16" class="node"><title>21</title>
<ellipse fill="none" stroke="black" cx="1939" cy="-398" rx="18" ry="18"/>
</g>
<!-- 15&#45;&gt;21 -->
<g id="edge25" class="edge"><title>15&#45;&gt;21</title>
<path fill="none" stroke="black" d="M1812.97,-180.041C1815.36,-207.784 1823.59,-261.241 1852,-295 1866.72,-312.488 1882.32,-301.369 1898,-318 1911.93,-332.776 1906.9,-341.846 1916,-360 1918.37,-364.734 1921.08,-369.697 1923.76,-374.416"/>
<polygon fill="black" stroke="black" points="1920.74,-376.185 1928.8,-383.066 1926.79,-372.663 1920.74,-376.185"/>
<text text-anchor="middle" x="1875" y="-321.8" font-family="Times,serif" font-size="14.00">u0010</text>
</g>
<!-- 21&#45;&gt;14 -->
<g id="edge26" class="edge"><title>21&#45;&gt;14</title>
<path fill="none" stroke="black" d="M1953.73,-387.634C1961.3,-382.116 1970.97,-375.379 1980,-370 1999.64,-358.303 2009.03,-362.317 2026,-347 2037.65,-336.484 2047.23,-321.816 2054.09,-309.278"/>
<polygon fill="black" stroke="black" points="2057.3,-310.699 2058.8,-300.211 2051.08,-307.474 2057.3,-310.699"/>
<text text-anchor="middle" x="2003" y="-373.8" font-family="Times,serif" font-size="14.00">u0009</text>
</g>
<!-- 21&#45;&gt;17 -->
<g id="edge27" class="edge"><title>21&#45;&gt;17</title>
<path fill="none" stroke="black" d="M1957.4,-398.047C2015.56,-398.204 2203.85,-398.711 2279.3,-398.915"/>
<polygon fill="black" stroke="black" points="2279.58,-402.415 2289.59,-398.942 2279.6,-395.415 2279.58,-402.415"/>
<text text-anchor="middle" x="2131" y="-401.8" font-family="Times,serif" font-size="14.00">u0007</text>
</g>
<!-- 16&#45;&gt;14 -->
<g id="edge28" class="edge"><title>16&#45;&gt;14</title>
<path fill="none" stroke="black" d="M1572.65,-115.291C1622.67,-104.789 1775.7,-77.3482 1898,-105 1959.47,-118.898 1984.14,-118.891 2026,-166 2048.48,-191.297 2058.42,-229.744 2062.76,-255.821"/>
<polygon fill="black" stroke="black" points="2059.31,-256.453 2064.25,-265.828 2066.23,-255.422 2059.31,-256.453"/>
<text text-anchor="middle" x="1811" y="-99.8" font-family="Times,serif" font-size="14.00">u0009</text>
</g>
<!-- 16&#45;&gt;17 -->
<g id="edge30" class="edge"><title>16&#45;&gt;17</title>
<path fill="none" stroke="black" d="M1563.55,-102.951C1580.06,-70.4692 1622.72,-0 1682,-0 1682,-0 1682,-0 2191,-0 2232.85,-0 2249.3,-12.8431 2272,-48 2305.74,-100.272 2310.5,-290.271 2311.02,-366.767"/>
<polygon fill="black" stroke="black" points="2307.52,-366.798 2311.06,-376.781 2314.52,-366.765 2307.52,-366.798"/>
<text text-anchor="middle" x="1939" y="-3.8" font-family="Times,serif" font-size="14.00">u0007</text>
</g>
<!-- 16&#45;&gt;15 -->
<g id="edge29" class="edge"><title>16&#45;&gt;15</title>
<path fill="none" stroke="black" d="M1573.27,-118.81C1601.35,-118.801 1658.56,-120.028 1706,-129 1733.51,-134.203 1763.93,-144.399 1784.72,-152.088"/>
<polygon fill="black" stroke="black" points="1783.51,-155.371 1794.1,-155.628 1785.98,-148.822 1783.51,-155.371"/>
<text text-anchor="middle" x="1683" y="-132.8" font-family="Times,serif" font-size="14.00">u0008</text>
</g>
<!-- 22 -->
<g id="node18" class="node"><title>22</title>
<ellipse fill="none" stroke="black" cx="1683" cy="-349" rx="18" ry="18"/>
</g>
<!-- 16&#45;&gt;22 -->
<g id="edge31" class="edge"><title>16&#45;&gt;22</title>
<path fill="none" stroke="black" d="M1566.12,-133.565C1570.32,-140.165 1574.91,-148.219 1578,-156 1591.59,-190.281 1580.4,-203.584 1596,-237 1612.83,-273.047 1642.88,-308.396 1662.62,-329.449"/>
<polygon fill="black" stroke="black" points="1660.2,-331.978 1669.64,-336.789 1665.26,-327.142 1660.2,-331.978"/>
<text text-anchor="middle" x="1619" y="-306.8" font-family="Times,serif" font-size="14.00">u0010</text>
</g>
<!-- 16&#45;&gt;19 -->
<g id="edge32" class="edge"><title>16&#45;&gt;19</title>
<path fill="none" stroke="black" d="M1572.48,-123.847C1590.03,-129.214 1618.46,-138.508 1642,-149 1647.34,-151.379 1652.92,-154.214 1658.16,-157.043"/>
<polygon fill="black" stroke="black" points="1656.67,-160.217 1667.11,-162.032 1660.08,-154.104 1656.67,-160.217"/>
<text text-anchor="middle" x="1619" y="-152.8" font-family="Times,serif" font-size="14.00">u000b</text>
</g>
<!-- 22&#45;&gt;14 -->
<g id="edge33" class="edge"><title>22&#45;&gt;14</title>
<path fill="none" stroke="black" d="M1692.28,-333.024C1699.17,-321.401 1710.08,-306.302 1724,-298 1790.94,-258.061 1820.07,-274.146 1898,-276 1947.57,-277.18 2005.29,-280.314 2038.55,-282.291"/>
<polygon fill="black" stroke="black" points="2038.65,-285.803 2048.84,-282.913 2039.07,-278.816 2038.65,-285.803"/>
<text text-anchor="middle" x="1875" y="-279.8" font-family="Times,serif" font-size="14.00">u0009</text>
</g>
<!-- 22&#45;&gt;17 -->
<g id="edge35" class="edge"><title>22&#45;&gt;17</title>
<path fill="none" stroke="black" d="M1690.4,-365.447C1694.81,-376.824 1700.79,-392.319 1706,-406 1714.1,-427.295 1705.27,-441.022 1724,-454 1730.96,-458.82 1652.96,-465.48 2090,-441 2170.97,-436.465 2195.97,-456.214 2272,-428 2277.34,-426.018 2282.57,-423.066 2287.39,-419.792"/>
<polygon fill="black" stroke="black" points="2289.63,-422.488 2295.53,-413.692 2285.43,-416.886 2289.63,-422.488"/>
<text text-anchor="middle" x="2003" y="-449.8" font-family="Times,serif" font-size="14.00">u0007</text>
</g>
<!-- 22&#45;&gt;21 -->
<g id="edge34" class="edge"><title>22&#45;&gt;21</title>
<path fill="none" stroke="black" d="M1701.34,-347.94C1729.53,-346.631 1786.88,-345.7 1834,-356 1862.41,-362.211 1893.07,-375.469 1913.68,-385.439"/>
<polygon fill="black" stroke="black" points="1912.16,-388.589 1922.67,-389.887 1915.26,-382.315 1912.16,-388.589"/>
<text text-anchor="middle" x="1811" y="-359.8" font-family="Times,serif" font-size="14.00">u0008</text>
</g>
<!-- 23 -->
<g id="node19" class="node"><title>23</title>
<ellipse fill="none" stroke="black" cx="1811" cy="-398" rx="18" ry="18"/>
</g>
<!-- 22&#45;&gt;23 -->
<g id="edge36" class="edge"><title>22&#45;&gt;23</title>
<path fill="none" stroke="black" d="M1700.25,-354.797C1717.61,-361.046 1745.88,-371.391 1770,-381 1774.74,-382.89 1779.78,-384.969 1784.61,-387.005"/>
<polygon fill="black" stroke="black" points="1783.54,-390.351 1794.11,-391.049 1786.28,-383.91 1783.54,-390.351"/>
<text text-anchor="middle" x="1747" y="-384.8" font-family="Times,serif" font-size="14.00">u000b</text>
</g>
<!-- 23&#45;&gt;14 -->
<g id="edge37" class="edge"><title>23&#45;&gt;14</title>
<path fill="none" stroke="black" d="M1827.89,-390.869C1870.74,-371.636 1988.96,-318.578 2040.93,-295.251"/>
<polygon fill="black" stroke="black" points="2042.43,-298.416 2050.12,-291.129 2039.56,-292.03 2042.43,-298.416"/>
<text text-anchor="middle" x="1939" y="-353.8" font-family="Times,serif" font-size="14.00">u0009</text>
</g>
<!-- 23&#45;&gt;17 -->
<g id="edge39" class="edge"><title>23&#45;&gt;17</title>
<path fill="none" stroke="black" d="M1827.12,-406.591C1834.42,-410.367 1843.44,-414.502 1852,-417 1879.52,-425.029 1887.39,-423.219 1916,-425 1974.91,-428.667 2063.5,-420.803 2154,-417 2206.45,-414.796 2220.38,-421.503 2272,-412 2275.06,-411.437 2278.21,-410.688 2281.33,-409.834"/>
<polygon fill="black" stroke="black" points="2282.51,-413.131 2291.04,-406.843 2280.45,-406.441 2282.51,-413.131"/>
<text text-anchor="middle" x="2067" y="-425.8" font-family="Times,serif" font-size="14.00">u0007</text>
</g>
<!-- 23&#45;&gt;21 -->
<g id="edge38" class="edge"><title>23&#45;&gt;21</title>
<path fill="none" stroke="black" d="M1829.26,-398C1850.27,-398 1886.03,-398 1910.77,-398"/>
<polygon fill="black" stroke="black" points="1910.95,-401.5 1920.95,-398 1910.95,-394.5 1910.95,-401.5"/>
<text text-anchor="middle" x="1875" y="-401.8" font-family="Times,serif" font-size="14.00">u0008</text>
</g>
<!-- 19&#45;&gt;14 -->
<g id="edge40" class="edge"><title>19&#45;&gt;14</title>
<path fill="none" stroke="black" d="M1700.64,-175.994C1707.79,-178.03 1716.26,-180.3 1724,-182 1856.88,-211.188 1909.28,-162.1 2026,-232 2037.03,-238.608 2046.12,-249.504 2052.82,-259.62"/>
<polygon fill="black" stroke="black" points="2049.87,-261.5 2058.09,-268.181 2055.83,-257.83 2049.87,-261.5"/>
<text text-anchor="middle" x="1875" y="-196.8" font-family="Times,serif" font-size="14.00">u0009</text>
</g>
<!-- 19&#45;&gt;17 -->
<g id="edge42" class="edge"><title>19&#45;&gt;17</title>
<path fill="none" stroke="black" d="M1699.56,-163.936C1758.9,-137.102 1969.34,-43 2002,-43 2002,-43 2002,-43 2191,-43 2241.6,-43 2249.27,-77.7966 2272,-123 2293.22,-165.197 2304.76,-303.521 2309.04,-366.838"/>
<polygon fill="black" stroke="black" points="2305.56,-367.291 2309.71,-377.04 2312.54,-366.832 2305.56,-367.291"/>
<text text-anchor="middle" x="2003" y="-51.8" font-family="Times,serif" font-size="14.00">u0007</text>
</g>
<!-- 19&#45;&gt;15 -->
<g id="edge41" class="edge"><title>19&#45;&gt;15</title>
<path fill="none" stroke="black" d="M1701.12,-169.131C1708.19,-168.399 1716.49,-167.594 1724,-167 1743.57,-165.453 1765.68,-164.178 1782.58,-163.303"/>
<polygon fill="black" stroke="black" points="1783.04,-166.784 1792.85,-162.787 1782.69,-159.793 1783.04,-166.784"/>
<text text-anchor="middle" x="1747" y="-170.8" font-family="Times,serif" font-size="14.00">u0008</text>
</g>
<!-- 19&#45;&gt;23 -->
<g id="edge43" class="edge"><title>19&#45;&gt;23</title>
<path fill="none" stroke="black" d="M1689.37,-188.13C1696.17,-208.832 1708.83,-244.441 1724,-273 1734.96,-293.645 1772.06,-345.744 1793.79,-375.762"/>
<polygon fill="black" stroke="black" points="1791.02,-377.916 1799.73,-383.954 1796.69,-373.805 1791.02,-377.916"/>
<text text-anchor="middle" x="1747" y="-342.8" font-family="Times,serif" font-size="14.00">u0010</text>
</g>
<!-- 18&#45;&gt;14 -->
<g id="edge44" class="edge"><title>18&#45;&gt;14</title>
<path fill="none" stroke="black" d="M1571.13,-435.517C1599.84,-451.148 1664.68,-483.922 1724,-496 1855.61,-522.796 1922.98,-593.182 2026,-507 2027.88,-505.43 2051.03,-371.406 2061.23,-311.913"/>
<polygon fill="black" stroke="black" points="2064.74,-312.168 2062.97,-301.721 2057.84,-310.987 2064.74,-312.168"/>
<text text-anchor="middle" x="1811" y="-531.8" font-family="Times,serif" font-size="14.00">u0009</text>
</g>
<!-- 18&#45;&gt;17 -->
<g id="edge47" class="edge"><title>18&#45;&gt;17</title>
<path fill="none" stroke="black" d="M1561.6,-443.8C1575.44,-481.786 1615.06,-571 1682,-571 1682,-571 1682,-571 2191,-571 2258.81,-571 2291.47,-479.956 2304.23,-430.346"/>
<polygon fill="black" stroke="black" points="2307.68,-430.982 2306.66,-420.436 2300.88,-429.317 2307.68,-430.982"/>
<text text-anchor="middle" x="1939" y="-574.8" font-family="Times,serif" font-size="14.00">u0007</text>
</g>
<!-- 18&#45;&gt;21 -->
<g id="edge45" class="edge"><title>18&#45;&gt;21</title>
<path fill="none" stroke="black" d="M1573.07,-430.132C1580.14,-431.28 1588.44,-432.436 1596,-433 1701.54,-440.872 1728.62,-434.869 1834,-425 1862.54,-422.327 1870.48,-425.029 1898,-417 1903.22,-415.478 1908.6,-413.348 1913.67,-411.061"/>
<polygon fill="black" stroke="black" points="1915.41,-414.106 1922.88,-406.591 1912.35,-407.808 1915.41,-414.106"/>
<text text-anchor="middle" x="1747" y="-438.8" font-family="Times,serif" font-size="14.00">u0008</text>
</g>
<!-- 18&#45;&gt;22 -->
<g id="edge46" class="edge"><title>18&#45;&gt;22</title>
<path fill="none" stroke="black" d="M1565.01,-411.43C1572.13,-400.385 1583.02,-385.983 1596,-377 1613.7,-364.749 1637.11,-357.59 1655.03,-353.582"/>
<polygon fill="black" stroke="black" points="1655.77,-357.003 1664.87,-351.571 1654.37,-350.145 1655.77,-357.003"/>
<text text-anchor="middle" x="1619" y="-380.8" font-family="Times,serif" font-size="14.00">u0011</text>
</g>
<!-- 18&#45;&gt;23 -->
<g id="edge48" class="edge"><title>18&#45;&gt;23</title>
<path fill="none" stroke="black" d="M1573.06,-425.052C1616.26,-420.12 1730.25,-407.105 1782.79,-401.107"/>
<polygon fill="black" stroke="black" points="1783.48,-404.551 1793.01,-399.939 1782.68,-397.596 1783.48,-404.551"/>
<text text-anchor="middle" x="1683" y="-417.8" font-family="Times,serif" font-size="14.00">u000b</text>
</g>
<!-- 7&#45;&gt;10 -->
<g id="edge49" class="edge"><title>7&#45;&gt;10</title>
<path fill="none" stroke="black" d="M835.06,-178.142C878.259,-181.033 992.254,-188.663 1044.79,-192.179"/>
<polygon fill="black" stroke="black" points="1044.8,-195.687 1055.01,-192.863 1045.27,-188.703 1044.8,-195.687"/>
<text text-anchor="middle" x="945" y="-190.8" font-family="Times,serif" font-size="14.00">u000d</text>
</g>
<!-- 11 -->
<g id="node23" class="node"><title>11</title>
<ellipse fill="none" stroke="black" cx="945" cy="-132" rx="18" ry="18"/>
</g>
<!-- 7&#45;&gt;11 -->
<g id="edge50" class="edge"><title>7&#45;&gt;11</title>
<path fill="none" stroke="black" d="M832.774,-167.753C840.146,-163.434 849.322,-158.487 858,-155 877.239,-147.269 899.932,-141.325 917.174,-137.417"/>
<polygon fill="black" stroke="black" points="918.101,-140.798 927.127,-135.25 916.611,-133.958 918.101,-140.798"/>
<text text-anchor="middle" x="881" y="-158.8" font-family="Times,serif" font-size="14.00">u0000</text>
</g>
<!-- 11&#45;&gt;10 -->
<g id="edge51" class="edge"><title>11&#45;&gt;10</title>
<path fill="none" stroke="black" d="M963.068,-134.561C981.106,-137.8 1009.94,-144.524 1032,-157 1039.64,-161.322 1047,-167.373 1053.28,-173.332"/>
<polygon fill="black" stroke="black" points="1051.06,-176.064 1060.59,-180.693 1056.02,-171.132 1051.06,-176.064"/>
<text text-anchor="middle" x="1009" y="-160.8" font-family="Times,serif" font-size="14.00">u000d</text>
</g>
<!-- 9&#45;&gt;6 -->
<g id="edge52" class="edge"><title>9&#45;&gt;6</title>
<path fill="none" stroke="black" d="M834.732,-234.187C855.819,-238.204 892.318,-245.156 917.284,-249.911"/>
<polygon fill="black" stroke="black" points="916.721,-253.367 927.199,-251.8 918.031,-246.49 916.721,-253.367"/>
<text text-anchor="middle" x="881" y="-251.8" font-family="Times,serif" font-size="14.00">u000d</text>
</g>
<!-- 9&#45;&gt;11 -->
<g id="edge53" class="edge"><title>9&#45;&gt;11</title>
<path fill="none" stroke="black" d="M833.008,-222.462C850.751,-212.057 880.799,-193.445 904,-174 911.544,-167.678 919.159,-160.06 925.69,-153.058"/>
<polygon fill="black" stroke="black" points="928.661,-154.992 932.791,-145.235 923.478,-150.287 928.661,-154.992"/>
<text text-anchor="middle" x="881" y="-210.8" font-family="Times,serif" font-size="14.00">u000c</text>
</g>
<!-- initial -->
<g id="node25" class="node"><title>initial</title>
</g>
<!-- initial&#45;&gt;0 -->
<g id="edge54" class="edge"><title>initial&#45;&gt;0</title>
<path fill="none" stroke="black" d="M54.195,-264C62.6538,-264 72.0513,-264 80.5951,-264"/>
<polygon fill="black" stroke="black" points="80.8257,-267.5 90.8257,-264 80.8257,-260.5 80.8257,-267.5"/>
</g>
</g>
</svg>
