<svg width="2427px" height="227px"
 viewBox="0.00 0.00 1820.00 170.61" xmlns="http://www.w3.org/2000/svg" xmlns:xlink="http://www.w3.org/1999/xlink">
<g id="graph0" class="graph" transform="scale(1.000022500562514 1.000022500562514) rotate(0) translate(4 166.612)">
<title>Automaton</title>
<polygon fill="white" stroke="none" points="-4,4 -4,-166.612 1816,-166.612 1816,4 -4,4"/>
<!-- 0 -->
<g id="node1" class="node"><title>0</title>
<ellipse fill="none" stroke="black" cx="109" cy="-107.612" rx="18" ry="18"/>
</g>
<!-- 1 -->
<g id="node2" class="node"><title>1</title>
<ellipse fill="none" stroke="black" cx="227" cy="-107.612" rx="18" ry="18"/>
</g>
<!-- 0&#45;&gt;1 -->
<g id="edge1" class="edge"><title>0&#45;&gt;1</title>
<path fill="none" stroke="black" d="M127.116,-107.612C145.964,-107.612 176.531,-107.612 198.696,-107.612"/>
<polygon fill="black" stroke="black" points="198.814,-111.112 208.814,-107.612 198.814,-104.112 198.814,-111.112"/>
<text text-anchor="middle" x="168" y="-111.412" font-family="Times,serif" font-size="14.00">u0001</text>
</g>
<!-- 2 -->
<g id="node3" class="node"><title>2</title>
<ellipse fill="none" stroke="black" cx="345" cy="-107.612" rx="18" ry="18"/>
</g>
<!-- 1&#45;&gt;2 -->
<g id="edge2" class="edge"><title>1&#45;&gt;2</title>
<path fill="none" stroke="black" d="M245.116,-107.612C263.964,-107.612 294.531,-107.612 316.696,-107.612"/>
<polygon fill="black" stroke="black" points="316.814,-111.112 326.814,-107.612 316.814,-104.112 316.814,-111.112"/>
<text text-anchor="middle" x="286" y="-111.412" font-family="Times,serif" font-size="14.00">u0003</text>
</g>
<!-- 3 -->
<g id="node4" class="node"><title>3</title>
<ellipse fill="none" stroke="black" cx="462" cy="-107.612" rx="18" ry="18"/>
</g>
<!-- 2&#45;&gt;3 -->
<g id="edge3" class="edge"><title>2&#45;&gt;3</title>
<path fill="none" stroke="black" d="M363.466,-107.612C382.064,-107.612 411.756,-107.612 433.499,-107.612"/>
<polygon fill="black" stroke="black" points="433.746,-111.112 443.746,-107.612 433.746,-104.112 433.746,-111.112"/>
<text text-anchor="middle" x="403.5" y="-111.412" font-family="Times,serif" font-size="14.00">u000e</text>
</g>
<!-- 4 -->
<g id="node5" class="node"><title>4</title>
<ellipse fill="none" stroke="black" cx="576" cy="-107.612" rx="18" ry="18"/>
</g>
<!-- 3&#45;&gt;4 -->
<g id="edge4" class="edge"><title>3&#45;&gt;4</title>
<path fill="none" stroke="black" d="M480.01,-107.612C497.937,-107.612 526.445,-107.612 547.558,-107.612"/>
<polygon fill="black" stroke="black" points="547.83,-111.112 557.83,-107.612 547.829,-104.112 547.83,-111.112"/>
<text text-anchor="middle" x="519" y="-111.412" font-family="Times,serif" font-size="14.00">u000f</text>
</g>
<!-- 5 -->
<g id="node6" class="node"><title>5</title>
<ellipse fill="none" stroke="black" cx="694" cy="-107.612" rx="18" ry="18"/>
</g>
<!-- 4&#45;&gt;5 -->
<g id="edge5" class="edge"><title>4&#45;&gt;5</title>
<path fill="none" stroke="black" d="M594.116,-107.612C612.964,-107.612 643.531,-107.612 665.696,-107.612"/>
<polygon fill="black" stroke="black" points="665.814,-111.112 675.814,-107.612 665.814,-104.112 665.814,-111.112"/>
<text text-anchor="middle" x="635" y="-111.412" font-family="Times,serif" font-size="14.00">u0002</text>
</g>
<!-- 6 -->
<g id="node7" class="node"><title>6</title>
<ellipse fill="none" stroke="black" cx="945" cy="-131.612" rx="18" ry="18"/>
</g>
<!-- 5&#45;&gt;6 -->
<g id="edge6" class="edge"><title>5&#45;&gt;6</title>
<path fill="none" stroke="black" d="M709.44,-117.03C715.551,-120.59 722.891,-124.328 730,-126.612 803.938,-150.366 827.038,-153.001 904,-142.612 908.622,-141.988 913.464,-140.976 918.12,-139.812"/>
<polygon fill="black" stroke="black" points="919.156,-143.157 927.858,-137.114 917.286,-136.412 919.156,-143.157"/>
<text text-anchor="middle" x="817" y="-151.412" font-family="Times,serif" font-size="14.00">u000d</text>
</g>
<!-- 7 -->
<g id="node15" class="node"><title>7</title>
<ellipse fill="none" stroke="black" cx="817" cy="-53.6121" rx="18" ry="18"/>
</g>
<!-- 5&#45;&gt;7 -->
<g id="edge7" class="edge"><title>5&#45;&gt;7</title>
<path fill="none" stroke="black" d="M710.144,-98.9153C716.236,-95.5427 723.375,-91.7465 730,-88.6121 749.976,-79.1608 773.22,-69.7948 790.504,-63.1333"/>
<polygon fill="black" stroke="black" points="791.824,-66.3758 799.921,-59.5433 789.33,-59.8349 791.824,-66.3758"/>
<text text-anchor="middle" x="753" y="-92.4121" font-family="Times,serif" font-size="14.00">u000c</text>
</g>
<!-- 8 -->
<g id="node17" class="node"><title>8</title>
<ellipse fill="none" stroke="black" cx="817" cy="-107.612" rx="18" ry="18"/>
</g>
<!-- 5&#45;&gt;8 -->
<g id="edge8" class="edge"><title>5&#45;&gt;8</title>
<path fill="none" stroke="black" d="M712.08,-107.612C731.965,-107.612 765.077,-107.612 788.577,-107.612"/>
<polygon fill="black" stroke="black" points="788.615,-111.112 798.615,-107.612 788.615,-104.112 788.615,-111.112"/>
<text text-anchor="middle" x="753" y="-111.412" font-family="Times,serif" font-size="14.00">u0000</text>
</g>
<!-- 9 -->
<g id="node8" class="node"><title>9</title>
<ellipse fill="none" stroke="black" cx="1068" cy="-75.6121" rx="18" ry="18"/>
</g>
<!-- 6&#45;&gt;9 -->
<g id="edge9" class="edge"><title>6&#45;&gt;9</title>
<path fill="none" stroke="black" d="M962.046,-125.22C979.469,-118.162 1008.02,-106.25 1032,-94.6121 1035.5,-92.9122 1039.16,-91.0408 1042.73,-89.1557"/>
<polygon fill="black" stroke="black" points="1044.69,-92.0746 1051.82,-84.2415 1041.36,-85.9162 1044.69,-92.0746"/>
<text text-anchor="middle" x="1009" y="-117.412" font-family="Times,serif" font-size="14.00">u000c</text>
</g>
<!-- 11 -->
<g id="node9" class="node"><title>11</title>
<ellipse fill="none" stroke="black" cx="1186" cy="-75.6121" rx="18" ry="18"/>
</g>
<!-- 9&#45;&gt;11 -->
<g id="edge10" class="edge"><title>9&#45;&gt;11</title>
<path fill="none" stroke="black" d="M1086.12,-75.6121C1104.96,-75.6121 1135.53,-75.6121 1157.7,-75.6121"/>
<polygon fill="black" stroke="black" points="1157.81,-79.1122 1167.81,-75.6121 1157.81,-72.1122 1157.81,-79.1122"/>
<text text-anchor="middle" x="1127" y="-79.4121" font-family="Times,serif" font-size="14.00">u0006</text>
</g>
<!-- 12 -->
<g id="node10" class="node"><title>12</title>
<ellipse fill="none" stroke="black" cx="1304" cy="-75.6121" rx="18" ry="18"/>
</g>
<!-- 11&#45;&gt;12 -->
<g id="edge11" class="edge"><title>11&#45;&gt;12</title>
<path fill="none" stroke="black" d="M1204.12,-75.6121C1222.96,-75.6121 1253.53,-75.6121 1275.7,-75.6121"/>
<polygon fill="black" stroke="black" points="1275.81,-79.1122 1285.81,-75.6121 1275.81,-72.1122 1275.81,-79.1122"/>
<text text-anchor="middle" x="1245" y="-79.4121" font-family="Times,serif" font-size="14.00">u0004</text>
</g>
<!-- 13 -->
<g id="node11" class="node"><title>13</title>
<ellipse fill="none" stroke="black" cx="1422" cy="-75.6121" rx="18" ry="18"/>
</g>
<!-- 12&#45;&gt;13 -->
<g id="edge12" class="edge"><title>12&#45;&gt;13</title>
<path fill="none" stroke="black" d="M1322.12,-75.6121C1340.96,-75.6121 1371.53,-75.6121 1393.7,-75.6121"/>
<polygon fill="black" stroke="black" points="1393.81,-79.1122 1403.81,-75.6121 1393.81,-72.1122 1393.81,-79.1122"/>
<text text-anchor="middle" x="1363" y="-79.4121" font-family="Times,serif" font-size="14.00">u0005</text>
</g>
<!-- 14 -->
<g id="node12" class="node"><title>14</title>
<ellipse fill="none" stroke="black" cx="1540" cy="-44.6121" rx="18" ry="18"/>
</g>
<!-- 13&#45;&gt;14 -->
<g id="edge13" class="edge"><title>13&#45;&gt;14</title>
<path fill="none" stroke="black" d="M1438.82,-68.6065C1444.76,-66.1596 1451.61,-63.5445 1458,-61.6121 1475.66,-56.2722 1495.97,-52.0129 1511.84,-49.0933"/>
<polygon fill="black" stroke="black" points="1512.79,-52.4793 1522.03,-47.2892 1511.57,-45.5865 1512.79,-52.4793"/>
<text text-anchor="middle" x="1481" y="-65.4121" font-family="Times,serif" font-size="14.00">u0008</text>
</g>
<!-- 15 -->
<g id="node13" class="node"><title>15</title>
<ellipse fill="none" stroke="black" cx="1790" cy="-44.6121" rx="18" ry="18"/>
<ellipse fill="none" stroke="black" cx="1790" cy="-44.6121" rx="22" ry="22"/>
</g>
<!-- 13&#45;&gt;15 -->
<g id="edge14" class="edge"><title>13&#45;&gt;15</title>
<path fill="none" stroke="black" d="M1440.09,-76.198C1445.78,-76.3673 1452.16,-76.5288 1458,-76.6121 1478.44,-76.9041 1483.56,-76.8929 1504,-76.6121 1613.48,-75.1086 1645.05,-94.7989 1750,-63.6121 1753.68,-62.518 1757.44,-61.1057 1761.11,-59.5455"/>
<polygon fill="black" stroke="black" points="1762.88,-62.5837 1770.46,-55.1869 1759.92,-56.239 1762.88,-62.5837"/>
<text text-anchor="middle" x="1599" y="-85.4121" font-family="Times,serif" font-size="14.00">u0007</text>
</g>
<!-- 14&#45;&gt;15 -->
<g id="edge15" class="edge"><title>14&#45;&gt;15</title>
<path fill="none" stroke="black" d="M1556.15,-35.9002C1575.05,-25.5765 1608.71,-8.97409 1640,-2.61212 1683.25,6.18326 1732.33,-13.5905 1761.96,-28.8982"/>
<polygon fill="black" stroke="black" points="1760.4,-32.0314 1770.86,-33.6694 1763.7,-25.8613 1760.4,-32.0314"/>
<text text-anchor="middle" x="1663" y="-6.41212" font-family="Times,serif" font-size="14.00">u0007</text>
</g>
<!-- 16 -->
<g id="node14" class="node"><title>16</title>
<ellipse fill="none" stroke="black" cx="1663" cy="-44.6121" rx="18" ry="18"/>
</g>
<!-- 14&#45;&gt;16 -->
<g id="edge16" class="edge"><title>14&#45;&gt;16</title>
<path fill="none" stroke="black" d="M1558.08,-44.6121C1577.96,-44.6121 1611.08,-44.6121 1634.58,-44.6121"/>
<polygon fill="black" stroke="black" points="1634.62,-48.1122 1644.62,-44.6121 1634.62,-41.1122 1634.62,-48.1122"/>
<text text-anchor="middle" x="1599" y="-48.4121" font-family="Times,serif" font-size="14.00">u0010</text>
</g>
<!-- 16&#45;&gt;15 -->
<g id="edge17" class="edge"><title>16&#45;&gt;15</title>
<path fill="none" stroke="black" d="M1681.12,-44.6121C1700.81,-44.6121 1733.53,-44.6121 1757.78,-44.6121"/>
<polygon fill="black" stroke="black" points="1757.92,-48.1122 1767.92,-44.6121 1757.92,-41.1122 1757.92,-48.1122"/>
<text text-anchor="middle" x="1727" y="-48.4121" font-family="Times,serif" font-size="14.00">u0007</text>
</g>
<!-- 7&#45;&gt;9 -->
<g id="edge18" class="edge"><title>7&#45;&gt;9</title>
<path fill="none" stroke="black" d="M834.325,-47.9029C862.01,-39.0064 919.856,-23.8221 968,-33.6121 994.764,-39.0546 1023.27,-51.9913 1042.78,-62.0803"/>
<polygon fill="black" stroke="black" points="1041.38,-65.2982 1051.85,-66.9002 1044.66,-59.1168 1041.38,-65.2982"/>
<text text-anchor="middle" x="945" y="-37.4121" font-family="Times,serif" font-size="14.00">u000d</text>
</g>
<!-- 10 -->
<g id="node16" class="node"><title>10</title>
<ellipse fill="none" stroke="black" cx="945" cy="-75.6121" rx="18" ry="18"/>
</g>
<!-- 7&#45;&gt;10 -->
<g id="edge19" class="edge"><title>7&#45;&gt;10</title>
<path fill="none" stroke="black" d="M835.085,-52.191C852.641,-51.1967 880.632,-50.9144 904,-56.6121 909.28,-57.8995 914.694,-59.9245 919.765,-62.1817"/>
<polygon fill="black" stroke="black" points="918.448,-65.4335 928.97,-66.6755 921.519,-59.1431 918.448,-65.4335"/>
<text text-anchor="middle" x="881" y="-60.4121" font-family="Times,serif" font-size="14.00">u0000</text>
</g>
<!-- 10&#45;&gt;9 -->
<g id="edge20" class="edge"><title>10&#45;&gt;9</title>
<path fill="none" stroke="black" d="M963.08,-75.6121C982.965,-75.6121 1016.08,-75.6121 1039.58,-75.6121"/>
<polygon fill="black" stroke="black" points="1039.62,-79.1122 1049.62,-75.6121 1039.62,-72.1122 1039.62,-79.1122"/>
<text text-anchor="middle" x="1009" y="-79.4121" font-family="Times,serif" font-size="14.00">u000d</text>
</g>
<!-- 8&#45;&gt;6 -->
<g id="edge21" class="edge"><title>8&#45;&gt;6</title>
<path fill="none" stroke="black" d="M834.732,-110.799C855.819,-114.816 892.318,-121.768 917.284,-126.523"/>
<polygon fill="black" stroke="black" points="916.721,-129.979 927.199,-128.412 918.031,-123.103 916.721,-129.979"/>
<text text-anchor="middle" x="881" y="-127.412" font-family="Times,serif" font-size="14.00">u000d</text>
</g>
<!-- 8&#45;&gt;10 -->
<g id="edge22" class="edge"><title>8&#45;&gt;10</title>
<path fill="none" stroke="black" d="M834.282,-102.474C841.515,-100.257 850.153,-97.6995 858,-95.6121 877.751,-90.3584 900.256,-85.1522 917.289,-81.369"/>
<polygon fill="black" stroke="black" points="918.098,-84.7748 927.114,-79.2097 916.596,-77.938 918.098,-84.7748"/>
<text text-anchor="middle" x="881" y="-99.4121" font-family="Times,serif" font-size="14.00">u000c</text>
</g>
<!-- initial -->
<g id="node18" class="node"><title>initial</title>
</g>
<!-- initial&#45;&gt;0 -->
<g id="edge23" class="edge"><title>initial&#45;&gt;0</title>
<path fill="none" stroke="black" d="M54.195,-107.612C62.6538,-107.612 72.0513,-107.612 80.5951,-107.612"/>
<polygon fill="black" stroke="black" points="80.8257,-111.112 90.8257,-107.612 80.8257,-104.112 80.8257,-111.112"/>
</g>
</g>
</svg>
