<svg width="820px" height="108px"
 viewBox="0.00 0.00 615.00 81.00" xmlns="http://www.w3.org/2000/svg" xmlns:xlink="http://www.w3.org/1999/xlink">
<g id="graph0" class="graph" transform="scale(1.000022500562514 1.000022500562514) rotate(0) translate(4 77)">
<title>Automaton</title>
<polygon fill="white" stroke="none" points="-4,4 -4,-77 611,-77 611,4 -4,4"/>
<!-- 0 -->
<g id="node1" class="node"><title>0</title>
<ellipse fill="none" stroke="black" cx="109" cy="-22" rx="18" ry="18"/>
</g>
<!-- 1 -->
<g id="node2" class="node"><title>1</title>
<ellipse fill="none" stroke="black" cx="227" cy="-22" rx="18" ry="18"/>
</g>
<!-- 0&#45;&gt;1 -->
<g id="edge1" class="edge"><title>0&#45;&gt;1</title>
<path fill="none" stroke="black" d="M127.116,-22C145.964,-22 176.531,-22 198.696,-22"/>
<polygon fill="black" stroke="black" points="198.814,-25.5001 208.814,-22 198.814,-18.5001 198.814,-25.5001"/>
<text text-anchor="middle" x="168" y="-25.8" font-family="Times,serif" font-size="14.00">u0000</text>
</g>
<!-- 2 -->
<g id="node3" class="node"><title>2</title>
<ellipse fill="none" stroke="black" cx="345" cy="-22" rx="18" ry="18"/>
</g>
<!-- 1&#45;&gt;2 -->
<g id="edge2" class="edge"><title>1&#45;&gt;2</title>
<path fill="none" stroke="black" d="M245.116,-22C263.964,-22 294.531,-22 316.696,-22"/>
<polygon fill="black" stroke="black" points="316.814,-25.5001 326.814,-22 316.814,-18.5001 316.814,-25.5001"/>
<text text-anchor="middle" x="286" y="-25.8" font-family="Times,serif" font-size="14.00">u0002</text>
</g>
<!-- 2&#45;&gt;2 -->
<g id="edge3" class="edge"><title>2&#45;&gt;2</title>
<path fill="none" stroke="black" d="M335.187,-37.1666C332.213,-47.6641 335.484,-58 345,-58 351.245,-58 354.8,-53.5487 355.666,-47.5216"/>
<polygon fill="black" stroke="black" points="359.122,-46.8455 354.813,-37.1666 352.146,-47.4202 359.122,-46.8455"/>
<text text-anchor="middle" x="345" y="-61.8" font-family="Times,serif" font-size="14.00">u0002</text>
</g>
<!-- 3 -->
<g id="node4" class="node"><title>3</title>
<ellipse fill="none" stroke="black" cx="463" cy="-22" rx="18" ry="18"/>
</g>
<!-- 2&#45;&gt;3 -->
<g id="edge4" class="edge"><title>2&#45;&gt;3</title>
<path fill="none" stroke="black" d="M363.116,-22C381.964,-22 412.531,-22 434.696,-22"/>
<polygon fill="black" stroke="black" points="434.814,-25.5001 444.814,-22 434.814,-18.5001 434.814,-25.5001"/>
<text text-anchor="middle" x="404" y="-25.8" font-family="Times,serif" font-size="14.00">u0001</text>
</g>
<!-- 4 -->
<g id="node5" class="node"><title>4</title>
<ellipse fill="none" stroke="black" cx="585" cy="-22" rx="18" ry="18"/>
<ellipse fill="none" stroke="black" cx="585" cy="-22" rx="22" ry="22"/>
</g>
<!-- 3&#45;&gt;4 -->
<g id="edge5" class="edge"><title>3&#45;&gt;4</title>
<path fill="none" stroke="black" d="M481.193,-22C499.767,-22 529.762,-22 552.57,-22"/>
<polygon fill="black" stroke="black" points="552.793,-25.5001 562.792,-22 552.792,-18.5001 552.793,-25.5001"/>
<text text-anchor="middle" x="522" y="-25.8" font-family="Times,serif" font-size="14.00">u0003</text>
</g>
<!-- initial -->
<g id="node6" class="node"><title>initial</title>
</g>
<!-- initial&#45;&gt;0 -->
<g id="edge6" class="edge"><title>initial&#45;&gt;0</title>
<path fill="none" stroke="black" d="M54.195,-22C62.6538,-22 72.0513,-22 80.5951,-22"/>
<polygon fill="black" stroke="black" points="80.8257,-25.5001 90.8257,-22 80.8257,-18.5001 80.8257,-25.5001"/>
</g>
</g>
</svg>
