<svg width="1148px" height="212px"
 viewBox="0.00 0.00 861.00 159.00" xmlns="http://www.w3.org/2000/svg" xmlns:xlink="http://www.w3.org/1999/xlink">
<g id="graph0" class="graph" transform="scale(1.000022500562514 1.000022500562514) rotate(0) translate(4 155)">
<title>Automaton</title>
<polygon fill="white" stroke="none" points="-4,4 -4,-155 857,-155 857,4 -4,4"/>
<!-- 0 -->
<g id="node1" class="node"><title>0</title>
<ellipse fill="none" stroke="black" cx="109" cy="-49" rx="18" ry="18"/>
</g>
<!-- 1 -->
<g id="node2" class="node"><title>1</title>
<ellipse fill="none" stroke="black" cx="227" cy="-49" rx="18" ry="18"/>
</g>
<!-- 0&#45;&gt;1 -->
<g id="edge1" class="edge"><title>0&#45;&gt;1</title>
<path fill="none" stroke="black" d="M127.116,-49C145.964,-49 176.531,-49 198.696,-49"/>
<polygon fill="black" stroke="black" points="198.814,-52.5001 208.814,-49 198.814,-45.5001 198.814,-52.5001"/>
<text text-anchor="middle" x="168" y="-52.8" font-family="Times,serif" font-size="14.00">u0002</text>
</g>
<!-- 2 -->
<g id="node3" class="node"><title>2</title>
<ellipse fill="none" stroke="black" cx="345" cy="-49" rx="18" ry="18"/>
</g>
<!-- 1&#45;&gt;2 -->
<g id="edge2" class="edge"><title>1&#45;&gt;2</title>
<path fill="none" stroke="black" d="M245.116,-49C263.964,-49 294.531,-49 316.696,-49"/>
<polygon fill="black" stroke="black" points="316.814,-52.5001 326.814,-49 316.814,-45.5001 316.814,-52.5001"/>
<text text-anchor="middle" x="286" y="-52.8" font-family="Times,serif" font-size="14.00">u0001</text>
</g>
<!-- 3 -->
<g id="node4" class="node"><title>3</title>
<ellipse fill="none" stroke="black" cx="463" cy="-49" rx="18" ry="18"/>
</g>
<!-- 2&#45;&gt;3 -->
<g id="edge3" class="edge"><title>2&#45;&gt;3</title>
<path fill="none" stroke="black" d="M363.116,-49C381.964,-49 412.531,-49 434.696,-49"/>
<polygon fill="black" stroke="black" points="434.814,-52.5001 444.814,-49 434.814,-45.5001 434.814,-52.5001"/>
<text text-anchor="middle" x="404" y="-52.8" font-family="Times,serif" font-size="14.00">u0000</text>
</g>
<!-- 4 -->
<g id="node5" class="node"><title>4</title>
<ellipse fill="none" stroke="black" cx="709" cy="-49" rx="18" ry="18"/>
</g>
<!-- 3&#45;&gt;4 -->
<g id="edge4" class="edge"><title>3&#45;&gt;4</title>
<path fill="none" stroke="black" d="M481.158,-49C522.896,-49 630.011,-49 680.67,-49"/>
<polygon fill="black" stroke="black" points="680.861,-52.5001 690.861,-49 680.861,-45.5001 680.861,-52.5001"/>
<text text-anchor="middle" x="586" y="-52.8" font-family="Times,serif" font-size="14.00">u0004</text>
</g>
<!-- 5 -->
<g id="node6" class="node"><title>5</title>
<ellipse fill="none" stroke="black" cx="831" cy="-22" rx="18" ry="18"/>
<ellipse fill="none" stroke="black" cx="831" cy="-22" rx="22" ry="22"/>
</g>
<!-- 3&#45;&gt;5 -->
<g id="edge5" class="edge"><title>3&#45;&gt;5</title>
<path fill="none" stroke="black" d="M481.024,-46.2753C518.724,-40.3957 612.16,-26.6722 691,-22 727.954,-19.81 770.532,-20.2446 798.724,-20.9447"/>
<polygon fill="black" stroke="black" points="798.69,-24.445 808.783,-21.2211 798.883,-17.4477 798.69,-24.445"/>
<text text-anchor="middle" x="650" y="-31.8" font-family="Times,serif" font-size="14.00">u0003</text>
</g>
<!-- 6 -->
<g id="node7" class="node"><title>6</title>
<ellipse fill="none" stroke="black" cx="586" cy="-100" rx="18" ry="18"/>
</g>
<!-- 3&#45;&gt;6 -->
<g id="edge6" class="edge"><title>3&#45;&gt;6</title>
<path fill="none" stroke="black" d="M479.819,-55.6674C500.2,-64.2579 535.867,-79.2912 559.952,-89.4427"/>
<polygon fill="black" stroke="black" points="558.603,-92.6722 569.177,-93.331 561.322,-86.2217 558.603,-92.6722"/>
<text text-anchor="middle" x="522" y="-85.8" font-family="Times,serif" font-size="14.00">u0005</text>
</g>
<!-- 4&#45;&gt;4 -->
<g id="edge8" class="edge"><title>4&#45;&gt;4</title>
<path fill="none" stroke="black" d="M699.187,-64.1666C696.213,-74.6641 699.484,-85 709,-85 715.245,-85 718.8,-80.5487 719.666,-74.5216"/>
<polygon fill="black" stroke="black" points="723.122,-73.8455 718.813,-64.1666 716.146,-74.4202 723.122,-73.8455"/>
<text text-anchor="middle" x="709" y="-88.8" font-family="Times,serif" font-size="14.00">u0005</text>
</g>
<!-- 4&#45;&gt;5 -->
<g id="edge7" class="edge"><title>4&#45;&gt;5</title>
<path fill="none" stroke="black" d="M726.685,-45.2458C745.45,-41.0238 776.317,-34.0787 799.435,-28.8772"/>
<polygon fill="black" stroke="black" points="800.452,-32.236 809.439,-26.6261 798.915,-25.4067 800.452,-32.236"/>
<text text-anchor="middle" x="768" y="-45.8" font-family="Times,serif" font-size="14.00">u0003</text>
</g>
<!-- 6&#45;&gt;4 -->
<g id="edge9" class="edge"><title>6&#45;&gt;4</title>
<path fill="none" stroke="black" d="M602.819,-93.3326C623.2,-84.7421 658.867,-69.7088 682.952,-59.5573"/>
<polygon fill="black" stroke="black" points="684.322,-62.7783 692.177,-55.669 681.603,-56.3278 684.322,-62.7783"/>
<text text-anchor="middle" x="650" y="-85.8" font-family="Times,serif" font-size="14.00">u0004</text>
</g>
<!-- 6&#45;&gt;6 -->
<g id="edge10" class="edge"><title>6&#45;&gt;6</title>
<path fill="none" stroke="black" d="M575.292,-114.792C571.806,-125.417 575.375,-136 586,-136 593.139,-136 597.092,-131.222 597.861,-124.865"/>
<polygon fill="black" stroke="black" points="601.322,-124.329 596.708,-114.792 594.368,-125.125 601.322,-124.329"/>
<text text-anchor="middle" x="586" y="-139.8" font-family="Times,serif" font-size="14.00">u0005</text>
</g>
<!-- initial -->
<g id="node8" class="node"><title>initial</title>
</g>
<!-- initial&#45;&gt;0 -->
<g id="edge11" class="edge"><title>initial&#45;&gt;0</title>
<path fill="none" stroke="black" d="M54.195,-49C62.6538,-49 72.0513,-49 80.5951,-49"/>
<polygon fill="black" stroke="black" points="80.8257,-52.5001 90.8257,-49 80.8257,-45.5001 80.8257,-52.5001"/>
</g>
</g>
</svg>
