<svg width="1148px" height="112px"
 viewBox="0.00 0.00 861.00 84.00" xmlns="http://www.w3.org/2000/svg" xmlns:xlink="http://www.w3.org/1999/xlink">
<g id="graph0" class="graph" transform="scale(1.000022500562514 1.000022500562514) rotate(0) translate(4 80)">
<title>Automaton</title>
<polygon fill="white" stroke="none" points="-4,4 -4,-80 857,-80 857,4 -4,4"/>
<!-- 0 -->
<g id="node1" class="node"><title>0</title>
<ellipse fill="none" stroke="black" cx="109" cy="-57" rx="18" ry="18"/>
</g>
<!-- 1 -->
<g id="node2" class="node"><title>1</title>
<ellipse fill="none" stroke="black" cx="227" cy="-57" rx="18" ry="18"/>
</g>
<!-- 0&#45;&gt;1 -->
<g id="edge1" class="edge"><title>0&#45;&gt;1</title>
<path fill="none" stroke="black" d="M127.116,-57C145.964,-57 176.531,-57 198.696,-57"/>
<polygon fill="black" stroke="black" points="198.814,-60.5001 208.814,-57 198.814,-53.5001 198.814,-60.5001"/>
<text text-anchor="middle" x="168" y="-60.8" font-family="Times,serif" font-size="14.00">u0005</text>
</g>
<!-- 2 -->
<g id="node3" class="node"><title>2</title>
<ellipse fill="none" stroke="black" cx="345" cy="-57" rx="18" ry="18"/>
</g>
<!-- 1&#45;&gt;2 -->
<g id="edge2" class="edge"><title>1&#45;&gt;2</title>
<path fill="none" stroke="black" d="M245.116,-57C263.964,-57 294.531,-57 316.696,-57"/>
<polygon fill="black" stroke="black" points="316.814,-60.5001 326.814,-57 316.814,-53.5001 316.814,-60.5001"/>
<text text-anchor="middle" x="286" y="-60.8" font-family="Times,serif" font-size="14.00">u0002</text>
</g>
<!-- 3 -->
<g id="node4" class="node"><title>3</title>
<ellipse fill="none" stroke="black" cx="463" cy="-57" rx="18" ry="18"/>
</g>
<!-- 2&#45;&gt;3 -->
<g id="edge3" class="edge"><title>2&#45;&gt;3</title>
<path fill="none" stroke="black" d="M363.116,-57C381.964,-57 412.531,-57 434.696,-57"/>
<polygon fill="black" stroke="black" points="434.814,-60.5001 444.814,-57 434.814,-53.5001 434.814,-60.5001"/>
<text text-anchor="middle" x="404" y="-60.8" font-family="Times,serif" font-size="14.00">u0000</text>
</g>
<!-- 4 -->
<g id="node5" class="node"><title>4</title>
<ellipse fill="none" stroke="black" cx="581" cy="-57" rx="18" ry="18"/>
</g>
<!-- 3&#45;&gt;4 -->
<g id="edge4" class="edge"><title>3&#45;&gt;4</title>
<path fill="none" stroke="black" d="M481.116,-57C499.964,-57 530.531,-57 552.696,-57"/>
<polygon fill="black" stroke="black" points="552.814,-60.5001 562.814,-57 552.814,-53.5001 552.814,-60.5001"/>
<text text-anchor="middle" x="522" y="-60.8" font-family="Times,serif" font-size="14.00">u0004</text>
</g>
<!-- 5 -->
<g id="node6" class="node"><title>5</title>
<ellipse fill="none" stroke="black" cx="831" cy="-51" rx="18" ry="18"/>
<ellipse fill="none" stroke="black" cx="831" cy="-51" rx="22" ry="22"/>
</g>
<!-- 4&#45;&gt;5 -->
<g id="edge5" class="edge"><title>4&#45;&gt;5</title>
<path fill="none" stroke="black" d="M599.113,-58.1617C634.849,-60.35 719.981,-64.323 791,-58 793.578,-57.7705 796.241,-57.4572 798.907,-57.0898"/>
<polygon fill="black" stroke="black" points="799.722,-60.5041 809.042,-55.4668 798.615,-53.5921 799.722,-60.5041"/>
<text text-anchor="middle" x="704" y="-64.8" font-family="Times,serif" font-size="14.00">u0003</text>
</g>
<!-- 6 -->
<g id="node7" class="node"><title>6</title>
<ellipse fill="none" stroke="black" cx="704" cy="-18" rx="18" ry="18"/>
</g>
<!-- 4&#45;&gt;6 -->
<g id="edge6" class="edge"><title>4&#45;&gt;6</title>
<path fill="none" stroke="black" d="M597.907,-50.2565C603.85,-47.838 610.689,-45.1739 617,-43 636.722,-36.207 659.392,-29.6681 676.503,-24.9825"/>
<polygon fill="black" stroke="black" points="677.622,-28.3058 686.363,-22.3188 675.796,-21.548 677.622,-28.3058"/>
<text text-anchor="middle" x="640" y="-46.8" font-family="Times,serif" font-size="14.00">u0001</text>
</g>
<!-- 6&#45;&gt;5 -->
<g id="edge7" class="edge"><title>6&#45;&gt;5</title>
<path fill="none" stroke="black" d="M721.599,-22.3821C741.473,-27.6287 775.146,-36.5185 799.698,-43.0004"/>
<polygon fill="black" stroke="black" points="799.034,-46.4448 809.596,-45.6133 800.821,-39.6766 799.034,-46.4448"/>
<text text-anchor="middle" x="768" y="-44.8" font-family="Times,serif" font-size="14.00">u0003</text>
</g>
<!-- initial -->
<g id="node8" class="node"><title>initial</title>
</g>
<!-- initial&#45;&gt;0 -->
<g id="edge8" class="edge"><title>initial&#45;&gt;0</title>
<path fill="none" stroke="black" d="M54.195,-57C62.6538,-57 72.0513,-57 80.5951,-57"/>
<polygon fill="black" stroke="black" points="80.8257,-60.5001 90.8257,-57 80.8257,-53.5001 80.8257,-60.5001"/>
</g>
</g>
</svg>
