<svg width="833px" height="105px"
 viewBox="0.00 0.00 625.00 79.00" xmlns="http://www.w3.org/2000/svg" xmlns:xlink="http://www.w3.org/1999/xlink">
<g id="graph0" class="graph" transform="scale(1.000022500562514 1.000022500562514) rotate(0) translate(4 75)">
<title>Automaton</title>
<polygon fill="white" stroke="none" points="-4,4 -4,-75 621,-75 621,4 -4,4"/>
<!-- 0 -->
<g id="node1" class="node"><title>0</title>
<ellipse fill="none" stroke="black" cx="109" cy="-18" rx="18" ry="18"/>
</g>
<!-- 1 -->
<g id="node2" class="node"><title>1</title>
<ellipse fill="none" stroke="black" cx="227" cy="-18" rx="18" ry="18"/>
</g>
<!-- 0&#45;&gt;1 -->
<g id="edge1" class="edge"><title>0&#45;&gt;1</title>
<path fill="none" stroke="black" d="M127.116,-18C145.964,-18 176.531,-18 198.696,-18"/>
<polygon fill="black" stroke="black" points="198.814,-21.5001 208.814,-18 198.814,-14.5001 198.814,-21.5001"/>
<text text-anchor="middle" x="168" y="-21.8" font-family="Times,serif" font-size="14.00">u0000</text>
</g>
<!-- 2 -->
<g id="node3" class="node"><title>2</title>
<ellipse fill="none" stroke="black" cx="350" cy="-53" rx="18" ry="18"/>
</g>
<!-- 1&#45;&gt;2 -->
<g id="edge2" class="edge"><title>1&#45;&gt;2</title>
<path fill="none" stroke="black" d="M244.825,-22.8666C264.962,-28.6915 298.922,-38.5148 322.574,-45.3561"/>
<polygon fill="black" stroke="black" points="321.74,-48.7582 332.318,-48.1747 323.685,-42.0338 321.74,-48.7582"/>
<text text-anchor="middle" x="286" y="-43.8" font-family="Times,serif" font-size="14.00">u0002</text>
</g>
<!-- 3 -->
<g id="node4" class="node"><title>3</title>
<ellipse fill="none" stroke="black" cx="473" cy="-23" rx="18" ry="18"/>
</g>
<!-- 1&#45;&gt;3 -->
<g id="edge3" class="edge"><title>1&#45;&gt;3</title>
<path fill="none" stroke="black" d="M244.973,-15.987C272.055,-13.0439 326.711,-8.20483 373,-11 397.351,-12.4704 424.889,-15.9577 444.727,-18.796"/>
<polygon fill="black" stroke="black" points="444.485,-22.298 454.888,-20.2892 445.503,-15.3723 444.485,-22.298"/>
<text text-anchor="middle" x="350" y="-14.8" font-family="Times,serif" font-size="14.00">u0001</text>
</g>
<!-- 2&#45;&gt;3 -->
<g id="edge4" class="edge"><title>2&#45;&gt;3</title>
<path fill="none" stroke="black" d="M367.825,-48.8286C387.962,-43.8359 421.922,-35.4159 445.574,-29.5519"/>
<polygon fill="black" stroke="black" points="446.455,-32.9396 455.318,-27.1359 444.77,-26.1454 446.455,-32.9396"/>
<text text-anchor="middle" x="414" y="-45.8" font-family="Times,serif" font-size="14.00">u0001</text>
</g>
<!-- 4 -->
<g id="node5" class="node"><title>4</title>
<ellipse fill="none" stroke="black" cx="595" cy="-23" rx="18" ry="18"/>
<ellipse fill="none" stroke="black" cx="595" cy="-23" rx="22" ry="22"/>
</g>
<!-- 3&#45;&gt;4 -->
<g id="edge5" class="edge"><title>3&#45;&gt;4</title>
<path fill="none" stroke="black" d="M491.193,-23C509.767,-23 539.762,-23 562.57,-23"/>
<polygon fill="black" stroke="black" points="562.793,-26.5001 572.792,-23 562.792,-19.5001 562.793,-26.5001"/>
<text text-anchor="middle" x="532" y="-26.8" font-family="Times,serif" font-size="14.00">u0003</text>
</g>
<!-- initial -->
<g id="node6" class="node"><title>initial</title>
</g>
<!-- initial&#45;&gt;0 -->
<g id="edge6" class="edge"><title>initial&#45;&gt;0</title>
<path fill="none" stroke="black" d="M54.195,-18C62.6538,-18 72.0513,-18 80.5951,-18"/>
<polygon fill="black" stroke="black" points="80.8257,-21.5001 90.8257,-18 80.8257,-14.5001 80.8257,-21.5001"/>
</g>
</g>
</svg>
