<svg width="2229px" height="137px"
 viewBox="0.00 0.00 1672.00 103.00" xmlns="http://www.w3.org/2000/svg" xmlns:xlink="http://www.w3.org/1999/xlink">
<g id="graph0" class="graph" transform="scale(1.000022500562514 1.000022500562514) rotate(0) translate(4 99)">
<title>Automaton</title>
<polygon fill="white" stroke="none" points="-4,4 -4,-99 1668,-99 1668,4 -4,4"/>
<!-- 0 -->
<g id="node1" class="node"><title>0</title>
<ellipse fill="none" stroke="black" cx="109" cy="-41" rx="18" ry="18"/>
</g>
<!-- 1 -->
<g id="node2" class="node"><title>1</title>
<ellipse fill="none" stroke="black" cx="227" cy="-41" rx="18" ry="18"/>
</g>
<!-- 0&#45;&gt;1 -->
<g id="edge1" class="edge"><title>0&#45;&gt;1</title>
<path fill="none" stroke="black" d="M127.116,-41C145.964,-41 176.531,-41 198.696,-41"/>
<polygon fill="black" stroke="black" points="198.814,-44.5001 208.814,-41 198.814,-37.5001 198.814,-44.5001"/>
<text text-anchor="middle" x="168" y="-44.8" font-family="Times,serif" font-size="14.00">u0001</text>
</g>
<!-- 2 -->
<g id="node3" class="node"><title>2</title>
<ellipse fill="none" stroke="black" cx="345" cy="-41" rx="18" ry="18"/>
</g>
<!-- 1&#45;&gt;2 -->
<g id="edge2" class="edge"><title>1&#45;&gt;2</title>
<path fill="none" stroke="black" d="M245.116,-41C263.964,-41 294.531,-41 316.696,-41"/>
<polygon fill="black" stroke="black" points="316.814,-44.5001 326.814,-41 316.814,-37.5001 316.814,-44.5001"/>
<text text-anchor="middle" x="286" y="-44.8" font-family="Times,serif" font-size="14.00">u0003</text>
</g>
<!-- 3 -->
<g id="node4" class="node"><title>3</title>
<ellipse fill="none" stroke="black" cx="462" cy="-41" rx="18" ry="18"/>
</g>
<!-- 2&#45;&gt;3 -->
<g id="edge3" class="edge"><title>2&#45;&gt;3</title>
<path fill="none" stroke="black" d="M363.466,-41C382.064,-41 411.756,-41 433.499,-41"/>
<polygon fill="black" stroke="black" points="433.746,-44.5001 443.746,-41 433.746,-37.5001 433.746,-44.5001"/>
<text text-anchor="middle" x="403.5" y="-44.8" font-family="Times,serif" font-size="14.00">u000e</text>
</g>
<!-- 4 -->
<g id="node5" class="node"><title>4</title>
<ellipse fill="none" stroke="black" cx="576" cy="-41" rx="18" ry="18"/>
</g>
<!-- 3&#45;&gt;4 -->
<g id="edge4" class="edge"><title>3&#45;&gt;4</title>
<path fill="none" stroke="black" d="M480.01,-41C497.937,-41 526.445,-41 547.558,-41"/>
<polygon fill="black" stroke="black" points="547.83,-44.5001 557.83,-41 547.829,-37.5001 547.83,-44.5001"/>
<text text-anchor="middle" x="519" y="-44.8" font-family="Times,serif" font-size="14.00">u000f</text>
</g>
<!-- 5 -->
<g id="node6" class="node"><title>5</title>
<ellipse fill="none" stroke="black" cx="694" cy="-41" rx="18" ry="18"/>
</g>
<!-- 4&#45;&gt;5 -->
<g id="edge5" class="edge"><title>4&#45;&gt;5</title>
<path fill="none" stroke="black" d="M594.116,-41C612.964,-41 643.531,-41 665.696,-41"/>
<polygon fill="black" stroke="black" points="665.814,-44.5001 675.814,-41 665.814,-37.5001 665.814,-44.5001"/>
<text text-anchor="middle" x="635" y="-44.8" font-family="Times,serif" font-size="14.00">u0002</text>
</g>
<!-- 6 -->
<g id="node7" class="node"><title>6</title>
<ellipse fill="none" stroke="black" cx="812" cy="-72" rx="18" ry="18"/>
</g>
<!-- 5&#45;&gt;6 -->
<g id="edge6" class="edge"><title>5&#45;&gt;6</title>
<path fill="none" stroke="black" d="M711.62,-45.4415C730.657,-50.5289 762.103,-58.9327 784.523,-64.9243"/>
<polygon fill="black" stroke="black" points="783.846,-68.3662 794.411,-67.5667 785.654,-61.6035 783.846,-68.3662"/>
<text text-anchor="middle" x="753" y="-64.8" font-family="Times,serif" font-size="14.00">u000d</text>
</g>
<!-- 7 -->
<g id="node15" class="node"><title>7</title>
<ellipse fill="none" stroke="black" cx="812" cy="-18" rx="18" ry="18"/>
</g>
<!-- 5&#45;&gt;7 -->
<g id="edge7" class="edge"><title>5&#45;&gt;7</title>
<path fill="none" stroke="black" d="M711.278,-35.9131C717.141,-34.197 723.831,-32.3712 730,-31 747.735,-27.0579 767.908,-23.8166 783.685,-21.5565"/>
<polygon fill="black" stroke="black" points="784.396,-24.9915 793.821,-20.152 783.436,-18.0577 784.396,-24.9915"/>
<text text-anchor="middle" x="753" y="-34.8" font-family="Times,serif" font-size="14.00">u000c</text>
</g>
<!-- 8 -->
<g id="node8" class="node"><title>8</title>
<ellipse fill="none" stroke="black" cx="930" cy="-47" rx="18" ry="18"/>
</g>
<!-- 6&#45;&gt;8 -->
<g id="edge8" class="edge"><title>6&#45;&gt;8</title>
<path fill="none" stroke="black" d="M830.116,-68.3112C849.158,-64.2073 880.163,-57.5253 902.379,-52.7373"/>
<polygon fill="black" stroke="black" points="903.153,-56.151 912.191,-50.6227 901.678,-49.3081 903.153,-56.151"/>
<text text-anchor="middle" x="871" y="-66.8" font-family="Times,serif" font-size="14.00">u000c</text>
</g>
<!-- 9 -->
<g id="node9" class="node"><title>9</title>
<ellipse fill="none" stroke="black" cx="1048" cy="-47" rx="18" ry="18"/>
</g>
<!-- 8&#45;&gt;9 -->
<g id="edge9" class="edge"><title>8&#45;&gt;9</title>
<path fill="none" stroke="black" d="M948.116,-47C966.964,-47 997.531,-47 1019.7,-47"/>
<polygon fill="black" stroke="black" points="1019.81,-50.5001 1029.81,-47 1019.81,-43.5001 1019.81,-50.5001"/>
<text text-anchor="middle" x="989" y="-50.8" font-family="Times,serif" font-size="14.00">u0006</text>
</g>
<!-- 10 -->
<g id="node10" class="node"><title>10</title>
<ellipse fill="none" stroke="black" cx="1166" cy="-47" rx="18" ry="18"/>
</g>
<!-- 9&#45;&gt;10 -->
<g id="edge10" class="edge"><title>9&#45;&gt;10</title>
<path fill="none" stroke="black" d="M1066.12,-47C1084.96,-47 1115.53,-47 1137.7,-47"/>
<polygon fill="black" stroke="black" points="1137.81,-50.5001 1147.81,-47 1137.81,-43.5001 1137.81,-50.5001"/>
<text text-anchor="middle" x="1107" y="-50.8" font-family="Times,serif" font-size="14.00">u0004</text>
</g>
<!-- 11 -->
<g id="node11" class="node"><title>11</title>
<ellipse fill="none" stroke="black" cx="1284" cy="-47" rx="18" ry="18"/>
</g>
<!-- 10&#45;&gt;11 -->
<g id="edge11" class="edge"><title>10&#45;&gt;11</title>
<path fill="none" stroke="black" d="M1184.12,-47C1202.96,-47 1233.53,-47 1255.7,-47"/>
<polygon fill="black" stroke="black" points="1255.81,-50.5001 1265.81,-47 1255.81,-43.5001 1255.81,-50.5001"/>
<text text-anchor="middle" x="1225" y="-50.8" font-family="Times,serif" font-size="14.00">u0005</text>
</g>
<!-- 12 -->
<g id="node12" class="node"><title>12</title>
<ellipse fill="none" stroke="black" cx="1402" cy="-77" rx="18" ry="18"/>
</g>
<!-- 11&#45;&gt;12 -->
<g id="edge12" class="edge"><title>11&#45;&gt;12</title>
<path fill="none" stroke="black" d="M1301.62,-51.2983C1320.66,-56.2216 1352.1,-64.3543 1374.52,-70.1525"/>
<polygon fill="black" stroke="black" points="1373.85,-73.5943 1384.41,-72.7097 1375.61,-66.8173 1373.85,-73.5943"/>
<text text-anchor="middle" x="1343" y="-70.8" font-family="Times,serif" font-size="14.00">u0008</text>
</g>
<!-- 13 -->
<g id="node14" class="node"><title>13</title>
<ellipse fill="none" stroke="black" cx="1642" cy="-50" rx="18" ry="18"/>
<ellipse fill="none" stroke="black" cx="1642" cy="-50" rx="22" ry="22"/>
</g>
<!-- 11&#45;&gt;13 -->
<g id="edge13" class="edge"><title>11&#45;&gt;13</title>
<path fill="none" stroke="black" d="M1302.17,-47.1447C1358.19,-47.6167 1536.18,-49.1167 1609.24,-49.7324"/>
<polygon fill="black" stroke="black" points="1609.6,-53.2354 1619.63,-49.8199 1609.66,-46.2357 1609.6,-53.2354"/>
<text text-anchor="middle" x="1461" y="-51.8" font-family="Times,serif" font-size="14.00">u0007</text>
</g>
<!-- 14 -->
<g id="node13" class="node"><title>14</title>
<ellipse fill="none" stroke="black" cx="1520" cy="-77" rx="18" ry="18"/>
</g>
<!-- 12&#45;&gt;14 -->
<g id="edge14" class="edge"><title>12&#45;&gt;14</title>
<path fill="none" stroke="black" d="M1420.12,-77C1438.96,-77 1469.53,-77 1491.7,-77"/>
<polygon fill="black" stroke="black" points="1491.81,-80.5001 1501.81,-77 1491.81,-73.5001 1491.81,-80.5001"/>
<text text-anchor="middle" x="1461" y="-80.8" font-family="Times,serif" font-size="14.00">u0010</text>
</g>
<!-- 14&#45;&gt;13 -->
<g id="edge15" class="edge"><title>14&#45;&gt;13</title>
<path fill="none" stroke="black" d="M1537.69,-73.2458C1556.45,-69.0238 1587.32,-62.0787 1610.43,-56.8772"/>
<polygon fill="black" stroke="black" points="1611.45,-60.236 1620.44,-54.6261 1609.92,-53.4067 1611.45,-60.236"/>
<text text-anchor="middle" x="1579" y="-72.8" font-family="Times,serif" font-size="14.00">u0007</text>
</g>
<!-- 7&#45;&gt;8 -->
<g id="edge16" class="edge"><title>7&#45;&gt;8</title>
<path fill="none" stroke="black" d="M829.856,-21.306C846.312,-24.6367 872.014,-30.1137 894,-36 896.884,-36.7721 899.885,-37.6303 902.864,-38.5171"/>
<polygon fill="black" stroke="black" points="902.116,-41.9491 912.704,-41.5591 904.184,-35.2615 902.116,-41.9491"/>
<text text-anchor="middle" x="871" y="-39.8" font-family="Times,serif" font-size="14.00">u000d</text>
</g>
<!-- initial -->
<g id="node16" class="node"><title>initial</title>
</g>
<!-- initial&#45;&gt;0 -->
<g id="edge17" class="edge"><title>initial&#45;&gt;0</title>
<path fill="none" stroke="black" d="M54.195,-41C62.6538,-41 72.0513,-41 80.5951,-41"/>
<polygon fill="black" stroke="black" points="80.8257,-44.5001 90.8257,-41 80.8257,-37.5001 80.8257,-44.5001"/>
</g>
</g>
</svg>
