<svg width="2092px" height="131px"
 viewBox="0.00 0.00 1569.00 98.00" xmlns="http://www.w3.org/2000/svg" xmlns:xlink="http://www.w3.org/1999/xlink">
<g id="graph0" class="graph" transform="scale(1.000022500562514 1.000022500562514) rotate(0) translate(4 94)">
<title>Automaton</title>
<polygon fill="white" stroke="none" points="-4,4 -4,-94 1565,-94 1565,4 -4,4"/>
<!-- 0 -->
<g id="node1" class="node"><title>0</title>
<ellipse fill="none" stroke="black" cx="109" cy="-41" rx="18" ry="18"/>
</g>
<!-- 1 -->
<g id="node2" class="node"><title>1</title>
<ellipse fill="none" stroke="black" cx="227" cy="-41" rx="18" ry="18"/>
</g>
<!-- 0&#45;&gt;1 -->
<g id="edge1" class="edge"><title>0&#45;&gt;1</title>
<path fill="none" stroke="black" d="M127.116,-41C145.964,-41 176.531,-41 198.696,-41"/>
<polygon fill="black" stroke="black" points="198.814,-44.5001 208.814,-41 198.814,-37.5001 198.814,-44.5001"/>
<text text-anchor="middle" x="168" y="-44.8" font-family="Times,serif" font-size="14.00">u0006</text>
</g>
<!-- 2 -->
<g id="node3" class="node"><title>2</title>
<ellipse fill="none" stroke="black" cx="345" cy="-41" rx="18" ry="18"/>
</g>
<!-- 1&#45;&gt;2 -->
<g id="edge2" class="edge"><title>1&#45;&gt;2</title>
<path fill="none" stroke="black" d="M245.116,-41C263.964,-41 294.531,-41 316.696,-41"/>
<polygon fill="black" stroke="black" points="316.814,-44.5001 326.814,-41 316.814,-37.5001 316.814,-44.5001"/>
<text text-anchor="middle" x="286" y="-44.8" font-family="Times,serif" font-size="14.00">u0005</text>
</g>
<!-- 3 -->
<g id="node4" class="node"><title>3</title>
<ellipse fill="none" stroke="black" cx="463" cy="-41" rx="18" ry="18"/>
</g>
<!-- 2&#45;&gt;3 -->
<g id="edge3" class="edge"><title>2&#45;&gt;3</title>
<path fill="none" stroke="black" d="M363.116,-41C381.964,-41 412.531,-41 434.696,-41"/>
<polygon fill="black" stroke="black" points="434.814,-44.5001 444.814,-41 434.814,-37.5001 434.814,-44.5001"/>
<text text-anchor="middle" x="404" y="-44.8" font-family="Times,serif" font-size="14.00">u0004</text>
</g>
<!-- 4 -->
<g id="node5" class="node"><title>4</title>
<ellipse fill="none" stroke="black" cx="581" cy="-41" rx="18" ry="18"/>
</g>
<!-- 3&#45;&gt;4 -->
<g id="edge4" class="edge"><title>3&#45;&gt;4</title>
<path fill="none" stroke="black" d="M481.116,-41C499.964,-41 530.531,-41 552.696,-41"/>
<polygon fill="black" stroke="black" points="552.814,-44.5001 562.814,-41 552.814,-37.5001 552.814,-44.5001"/>
<text text-anchor="middle" x="522" y="-44.8" font-family="Times,serif" font-size="14.00">u0003</text>
</g>
<!-- 5 -->
<g id="node6" class="node"><title>5</title>
<ellipse fill="none" stroke="black" cx="699" cy="-41" rx="18" ry="18"/>
</g>
<!-- 4&#45;&gt;5 -->
<g id="edge5" class="edge"><title>4&#45;&gt;5</title>
<path fill="none" stroke="black" d="M599.116,-41C617.964,-41 648.531,-41 670.696,-41"/>
<polygon fill="black" stroke="black" points="670.814,-44.5001 680.814,-41 670.814,-37.5001 670.814,-44.5001"/>
<text text-anchor="middle" x="640" y="-44.8" font-family="Times,serif" font-size="14.00">u0000</text>
</g>
<!-- 6 -->
<g id="node7" class="node"><title>6</title>
<ellipse fill="none" stroke="black" cx="817" cy="-41" rx="18" ry="18"/>
</g>
<!-- 5&#45;&gt;6 -->
<g id="edge6" class="edge"><title>5&#45;&gt;6</title>
<path fill="none" stroke="black" d="M717.116,-41C735.964,-41 766.531,-41 788.696,-41"/>
<polygon fill="black" stroke="black" points="788.814,-44.5001 798.814,-41 788.814,-37.5001 788.814,-44.5001"/>
<text text-anchor="middle" x="758" y="-44.8" font-family="Times,serif" font-size="14.00">u0001</text>
</g>
<!-- 7 -->
<g id="node8" class="node"><title>7</title>
<ellipse fill="none" stroke="black" cx="935" cy="-41" rx="18" ry="18"/>
</g>
<!-- 6&#45;&gt;7 -->
<g id="edge7" class="edge"><title>6&#45;&gt;7</title>
<path fill="none" stroke="black" d="M835.116,-41C853.964,-41 884.531,-41 906.696,-41"/>
<polygon fill="black" stroke="black" points="906.814,-44.5001 916.814,-41 906.814,-37.5001 906.814,-44.5001"/>
<text text-anchor="middle" x="876" y="-44.8" font-family="Times,serif" font-size="14.00">u0002</text>
</g>
<!-- 8 -->
<g id="node9" class="node"><title>8</title>
<ellipse fill="none" stroke="black" cx="1053" cy="-41" rx="18" ry="18"/>
</g>
<!-- 7&#45;&gt;8 -->
<g id="edge8" class="edge"><title>7&#45;&gt;8</title>
<path fill="none" stroke="black" d="M953.116,-41C971.964,-41 1002.53,-41 1024.7,-41"/>
<polygon fill="black" stroke="black" points="1024.81,-44.5001 1034.81,-41 1024.81,-37.5001 1024.81,-44.5001"/>
<text text-anchor="middle" x="994" y="-44.8" font-family="Times,serif" font-size="14.00">u0007</text>
</g>
<!-- 9 -->
<g id="node10" class="node"><title>9</title>
<ellipse fill="none" stroke="black" cx="1171" cy="-41" rx="18" ry="18"/>
</g>
<!-- 8&#45;&gt;9 -->
<g id="edge9" class="edge"><title>8&#45;&gt;9</title>
<path fill="none" stroke="black" d="M1071.12,-41C1089.96,-41 1120.53,-41 1142.7,-41"/>
<polygon fill="black" stroke="black" points="1142.81,-44.5001 1152.81,-41 1142.81,-37.5001 1142.81,-44.5001"/>
<text text-anchor="middle" x="1112" y="-44.8" font-family="Times,serif" font-size="14.00">u0008</text>
</g>
<!-- 10 -->
<g id="node11" class="node"><title>10</title>
<ellipse fill="none" stroke="black" cx="1289" cy="-72" rx="18" ry="18"/>
</g>
<!-- 9&#45;&gt;10 -->
<g id="edge10" class="edge"><title>9&#45;&gt;10</title>
<path fill="none" stroke="black" d="M1188.62,-45.4415C1207.66,-50.5289 1239.1,-58.9327 1261.52,-64.9243"/>
<polygon fill="black" stroke="black" points="1260.85,-68.3662 1271.41,-67.5667 1262.65,-61.6035 1260.85,-68.3662"/>
<text text-anchor="middle" x="1230" y="-64.8" font-family="Times,serif" font-size="14.00">u000b</text>
</g>
<!-- 11 -->
<g id="node14" class="node"><title>11</title>
<ellipse fill="none" stroke="black" cx="1289" cy="-18" rx="18" ry="18"/>
</g>
<!-- 9&#45;&gt;11 -->
<g id="edge11" class="edge"><title>9&#45;&gt;11</title>
<path fill="none" stroke="black" d="M1188.28,-35.9131C1194.14,-34.197 1200.83,-32.3712 1207,-31 1224.74,-27.0579 1244.91,-23.8166 1260.68,-21.5565"/>
<polygon fill="black" stroke="black" points="1261.4,-24.9915 1270.82,-20.152 1260.44,-18.0577 1261.4,-24.9915"/>
<text text-anchor="middle" x="1230" y="-34.8" font-family="Times,serif" font-size="14.00">u000a</text>
</g>
<!-- 12 -->
<g id="node12" class="node"><title>12</title>
<ellipse fill="none" stroke="black" cx="1539" cy="-65" rx="18" ry="18"/>
<ellipse fill="none" stroke="black" cx="1539" cy="-65" rx="22" ry="22"/>
</g>
<!-- 10&#45;&gt;12 -->
<g id="edge12" class="edge"><title>10&#45;&gt;12</title>
<path fill="none" stroke="black" d="M1307.11,-73.0247C1342.85,-74.9392 1427.98,-78.3229 1499,-72 1501.58,-71.7705 1504.24,-71.4572 1506.91,-71.0898"/>
<polygon fill="black" stroke="black" points="1507.72,-74.5041 1517.04,-69.4668 1506.61,-67.5921 1507.72,-74.5041"/>
<text text-anchor="middle" x="1412" y="-78.8" font-family="Times,serif" font-size="14.00">u0009</text>
</g>
<!-- 13 -->
<g id="node13" class="node"><title>13</title>
<ellipse fill="none" stroke="black" cx="1412" cy="-32" rx="18" ry="18"/>
</g>
<!-- 10&#45;&gt;13 -->
<g id="edge13" class="edge"><title>10&#45;&gt;13</title>
<path fill="none" stroke="black" d="M1305.87,-64.7145C1311.81,-62.1166 1318.65,-59.2735 1325,-57 1344.64,-49.9671 1367.31,-43.4397 1384.45,-38.8194"/>
<polygon fill="black" stroke="black" points="1385.55,-42.147 1394.32,-36.2016 1383.76,-35.3807 1385.55,-42.147"/>
<text text-anchor="middle" x="1348" y="-60.8" font-family="Times,serif" font-size="14.00">u000a</text>
</g>
<!-- 13&#45;&gt;12 -->
<g id="edge14" class="edge"><title>13&#45;&gt;12</title>
<path fill="none" stroke="black" d="M1429.6,-36.3821C1449.47,-41.6287 1483.15,-50.5185 1507.7,-57.0004"/>
<polygon fill="black" stroke="black" points="1507.03,-60.4448 1517.6,-59.6133 1508.82,-53.6766 1507.03,-60.4448"/>
<text text-anchor="middle" x="1476" y="-57.8" font-family="Times,serif" font-size="14.00">u0009</text>
</g>
<!-- 11&#45;&gt;13 -->
<g id="edge15" class="edge"><title>11&#45;&gt;13</title>
<path fill="none" stroke="black" d="M1307.2,-16.7226C1323.68,-15.8477 1349.21,-15.4106 1371,-19 1375.67,-19.7686 1380.53,-20.9801 1385.19,-22.3612"/>
<polygon fill="black" stroke="black" points="1384.34,-25.7634 1394.93,-25.5496 1386.52,-19.1111 1384.34,-25.7634"/>
<text text-anchor="middle" x="1348" y="-22.8" font-family="Times,serif" font-size="14.00">u000b</text>
</g>
<!-- initial -->
<g id="node15" class="node"><title>initial</title>
</g>
<!-- initial&#45;&gt;0 -->
<g id="edge16" class="edge"><title>initial&#45;&gt;0</title>
<path fill="none" stroke="black" d="M54.195,-41C62.6538,-41 72.0513,-41 80.5951,-41"/>
<polygon fill="black" stroke="black" points="80.8257,-44.5001 90.8257,-41 80.8257,-37.5001 80.8257,-44.5001"/>
</g>
</g>
</svg>
