<svg width="2557px" height="465px"
 viewBox="0.00 0.00 1918.00 348.93" xmlns="http://www.w3.org/2000/svg" xmlns:xlink="http://www.w3.org/1999/xlink">
<g id="graph0" class="graph" transform="scale(1.000022500562514 1.000022500562514) rotate(0) translate(4 344.925)">
<title>Automaton</title>
<polygon fill="white" stroke="none" points="-4,4 -4,-344.925 1914,-344.925 1914,4 -4,4"/>
<!-- 0 -->
<g id="node1" class="node"><title>0</title>
<ellipse fill="none" stroke="black" cx="109" cy="-197.925" rx="18" ry="18"/>
</g>
<!-- 1 -->
<g id="node2" class="node"><title>1</title>
<ellipse fill="none" stroke="black" cx="227" cy="-197.925" rx="18" ry="18"/>
</g>
<!-- 0&#45;&gt;1 -->
<g id="edge1" class="edge"><title>0&#45;&gt;1</title>
<path fill="none" stroke="black" d="M127.116,-197.925C145.964,-197.925 176.531,-197.925 198.696,-197.925"/>
<polygon fill="black" stroke="black" points="198.814,-201.426 208.814,-197.925 198.814,-194.426 198.814,-201.426"/>
<text text-anchor="middle" x="168" y="-201.725" font-family="Times,serif" font-size="14.00">u0001</text>
</g>
<!-- 2 -->
<g id="node3" class="node"><title>2</title>
<ellipse fill="none" stroke="black" cx="345" cy="-197.925" rx="18" ry="18"/>
</g>
<!-- 1&#45;&gt;2 -->
<g id="edge2" class="edge"><title>1&#45;&gt;2</title>
<path fill="none" stroke="black" d="M245.116,-197.925C263.964,-197.925 294.531,-197.925 316.696,-197.925"/>
<polygon fill="black" stroke="black" points="316.814,-201.426 326.814,-197.925 316.814,-194.426 316.814,-201.426"/>
<text text-anchor="middle" x="286" y="-201.725" font-family="Times,serif" font-size="14.00">u0003</text>
</g>
<!-- 3 -->
<g id="node4" class="node"><title>3</title>
<ellipse fill="none" stroke="black" cx="462" cy="-197.925" rx="18" ry="18"/>
</g>
<!-- 2&#45;&gt;3 -->
<g id="edge3" class="edge"><title>2&#45;&gt;3</title>
<path fill="none" stroke="black" d="M363.466,-197.925C382.064,-197.925 411.756,-197.925 433.499,-197.925"/>
<polygon fill="black" stroke="black" points="433.746,-201.426 443.746,-197.925 433.746,-194.426 433.746,-201.426"/>
<text text-anchor="middle" x="403.5" y="-201.725" font-family="Times,serif" font-size="14.00">u000e</text>
</g>
<!-- 4 -->
<g id="node5" class="node"><title>4</title>
<ellipse fill="none" stroke="black" cx="576" cy="-197.925" rx="18" ry="18"/>
</g>
<!-- 3&#45;&gt;4 -->
<g id="edge4" class="edge"><title>3&#45;&gt;4</title>
<path fill="none" stroke="black" d="M480.01,-197.925C497.937,-197.925 526.445,-197.925 547.558,-197.925"/>
<polygon fill="black" stroke="black" points="547.83,-201.426 557.83,-197.925 547.829,-194.426 547.83,-201.426"/>
<text text-anchor="middle" x="519" y="-201.725" font-family="Times,serif" font-size="14.00">u000f</text>
</g>
<!-- 5 -->
<g id="node6" class="node"><title>5</title>
<ellipse fill="none" stroke="black" cx="694" cy="-197.925" rx="18" ry="18"/>
</g>
<!-- 4&#45;&gt;5 -->
<g id="edge5" class="edge"><title>4&#45;&gt;5</title>
<path fill="none" stroke="black" d="M594.116,-197.925C612.964,-197.925 643.531,-197.925 665.696,-197.925"/>
<polygon fill="black" stroke="black" points="665.814,-201.426 675.814,-197.925 665.814,-194.426 665.814,-201.426"/>
<text text-anchor="middle" x="635" y="-201.725" font-family="Times,serif" font-size="14.00">u0002</text>
</g>
<!-- 6 -->
<g id="node7" class="node"><title>6</title>
<ellipse fill="none" stroke="black" cx="812" cy="-230.925" rx="18" ry="18"/>
</g>
<!-- 5&#45;&gt;6 -->
<g id="edge6" class="edge"><title>5&#45;&gt;6</title>
<path fill="none" stroke="black" d="M711.62,-202.654C730.657,-208.069 762.103,-217.015 784.523,-223.393"/>
<polygon fill="black" stroke="black" points="783.835,-226.836 794.411,-226.206 785.75,-220.103 783.835,-226.836"/>
<text text-anchor="middle" x="753" y="-223.725" font-family="Times,serif" font-size="14.00">u000d</text>
</g>
<!-- 8 -->
<g id="node9" class="node"><title>8</title>
<ellipse fill="none" stroke="black" cx="1186" cy="-139.925" rx="18" ry="18"/>
</g>
<!-- 5&#45;&gt;8 -->
<g id="edge8" class="edge"><title>5&#45;&gt;8</title>
<path fill="none" stroke="black" d="M701.021,-214.659C714.701,-249.355 751.62,-325.925 811,-325.925 811,-325.925 811,-325.925 1064,-325.925 1138.6,-325.925 1169.58,-219.485 1180.24,-167.644"/>
<polygon fill="black" stroke="black" points="1183.69,-168.244 1182.16,-157.76 1176.82,-166.908 1183.69,-168.244"/>
<text text-anchor="middle" x="935" y="-329.725" font-family="Times,serif" font-size="14.00">u0006</text>
</g>
<!-- 7 -->
<g id="node17" class="node"><title>7</title>
<ellipse fill="none" stroke="black" cx="812" cy="-154.925" rx="18" ry="18"/>
</g>
<!-- 5&#45;&gt;7 -->
<g id="edge7" class="edge"><title>5&#45;&gt;7</title>
<path fill="none" stroke="black" d="M711.129,-191.946C730.24,-184.862 762.337,-172.964 784.977,-164.572"/>
<polygon fill="black" stroke="black" points="786.474,-167.75 794.634,-160.992 784.041,-161.186 786.474,-167.75"/>
<text text-anchor="middle" x="753" y="-188.725" font-family="Times,serif" font-size="14.00">u000c</text>
</g>
<!-- 9 -->
<g id="node19" class="node"><title>9</title>
<ellipse fill="none" stroke="black" cx="812" cy="-53.9255" rx="18" ry="18"/>
</g>
<!-- 5&#45;&gt;9 -->
<g id="edge9" class="edge"><title>5&#45;&gt;9</title>
<path fill="none" stroke="black" d="M705.153,-183.446C712.003,-173.816 721.34,-160.959 730,-149.925 750.852,-123.358 776.12,-93.8001 792.829,-74.5937"/>
<polygon fill="black" stroke="black" points="795.488,-76.8699 799.428,-67.035 790.215,-72.2662 795.488,-76.8699"/>
<text text-anchor="middle" x="753" y="-153.725" font-family="Times,serif" font-size="14.00">u0000</text>
</g>
<!-- 10 -->
<g id="node8" class="node"><title>10</title>
<ellipse fill="none" stroke="black" cx="935" cy="-197.925" rx="18" ry="18"/>
</g>
<!-- 6&#45;&gt;10 -->
<g id="edge10" class="edge"><title>6&#45;&gt;10</title>
<path fill="none" stroke="black" d="M829.99,-233.176C846.77,-234.741 872.908,-235.393 894,-227.925 900.927,-225.473 907.647,-221.362 913.539,-216.957"/>
<polygon fill="black" stroke="black" points="915.974,-219.488 921.508,-210.453 911.548,-214.065 915.974,-219.488"/>
<text text-anchor="middle" x="871" y="-237.725" font-family="Times,serif" font-size="14.00">u000c</text>
</g>
<!-- 6&#45;&gt;8 -->
<g id="edge11" class="edge"><title>6&#45;&gt;8</title>
<path fill="none" stroke="black" d="M826.432,-241.864C832.611,-246.21 840.276,-250.7 848,-252.925 867.645,-258.587 873.634,-254.715 894,-252.925 980.328,-245.341 1002.25,-241.216 1086,-218.925 1115.21,-211.151 1126.47,-214.898 1150,-195.925 1160.08,-187.799 1168.08,-175.946 1173.87,-165.235"/>
<polygon fill="black" stroke="black" points="1177.02,-166.746 1178.38,-156.238 1170.77,-163.604 1177.02,-166.746"/>
<text text-anchor="middle" x="999" y="-246.725" font-family="Times,serif" font-size="14.00">u0006</text>
</g>
<!-- 11 -->
<g id="node16" class="node"><title>11</title>
<ellipse fill="none" stroke="black" cx="935" cy="-94.9255" rx="18" ry="18"/>
</g>
<!-- 6&#45;&gt;11 -->
<g id="edge12" class="edge"><title>6&#45;&gt;11</title>
<path fill="none" stroke="black" d="M827.321,-221.153C833.536,-217.117 840.984,-212.546 848,-208.925 867.656,-198.781 878.306,-205.513 894,-189.925 912.465,-171.586 922.86,-143.425 928.394,-122.519"/>
<polygon fill="black" stroke="black" points="931.837,-123.171 930.798,-112.627 925.035,-121.518 931.837,-123.171"/>
<text text-anchor="middle" x="871" y="-212.725" font-family="Times,serif" font-size="14.00">u0000</text>
</g>
<!-- 10&#45;&gt;8 -->
<g id="edge13" class="edge"><title>10&#45;&gt;8</title>
<path fill="none" stroke="black" d="M952.914,-199.681C990.567,-202.823 1083.24,-206.262 1150,-172.925 1156.08,-169.89 1161.83,-165.449 1166.85,-160.804"/>
<polygon fill="black" stroke="black" points="1169.52,-163.078 1174.07,-153.509 1164.55,-158.154 1169.52,-163.078"/>
<text text-anchor="middle" x="1063" y="-203.725" font-family="Times,serif" font-size="14.00">u0006</text>
</g>
<!-- 14 -->
<g id="node15" class="node"><title>14</title>
<ellipse fill="none" stroke="black" cx="1063" cy="-112.925" rx="18" ry="18"/>
</g>
<!-- 10&#45;&gt;14 -->
<g id="edge14" class="edge"><title>10&#45;&gt;14</title>
<path fill="none" stroke="black" d="M951.889,-190.753C975.04,-180.243 1015.96,-161.413 1022,-156.925 1030.4,-150.686 1038.42,-142.492 1045.04,-134.867"/>
<polygon fill="black" stroke="black" points="1047.93,-136.865 1051.63,-126.937 1042.55,-132.391 1047.93,-136.865"/>
<text text-anchor="middle" x="999" y="-182.725" font-family="Times,serif" font-size="14.00">u0000</text>
</g>
<!-- 13 -->
<g id="node10" class="node"><title>13</title>
<ellipse fill="none" stroke="black" cx="1304" cy="-139.925" rx="18" ry="18"/>
</g>
<!-- 8&#45;&gt;13 -->
<g id="edge15" class="edge"><title>8&#45;&gt;13</title>
<path fill="none" stroke="black" d="M1204.12,-139.925C1222.96,-139.925 1253.53,-139.925 1275.7,-139.925"/>
<polygon fill="black" stroke="black" points="1275.81,-143.426 1285.81,-139.925 1275.81,-136.426 1275.81,-143.426"/>
<text text-anchor="middle" x="1245" y="-143.725" font-family="Times,serif" font-size="14.00">u0004</text>
</g>
<!-- 15 -->
<g id="node11" class="node"><title>15</title>
<ellipse fill="none" stroke="black" cx="1422" cy="-139.925" rx="18" ry="18"/>
</g>
<!-- 13&#45;&gt;15 -->
<g id="edge16" class="edge"><title>13&#45;&gt;15</title>
<path fill="none" stroke="black" d="M1322.12,-139.925C1340.96,-139.925 1371.53,-139.925 1393.7,-139.925"/>
<polygon fill="black" stroke="black" points="1393.81,-143.426 1403.81,-139.925 1393.81,-136.426 1393.81,-143.426"/>
<text text-anchor="middle" x="1363" y="-143.725" font-family="Times,serif" font-size="14.00">u0005</text>
</g>
<!-- 16 -->
<g id="node12" class="node"><title>16</title>
<ellipse fill="none" stroke="black" cx="1569.5" cy="-53.9255" rx="18" ry="18"/>
</g>
<!-- 15&#45;&gt;16 -->
<g id="edge17" class="edge"><title>15&#45;&gt;16</title>
<path fill="none" stroke="black" d="M1429.82,-123.47C1435.62,-111.404 1445.08,-95.5175 1458,-85.9255 1482.61,-67.6474 1517.43,-59.7838 1541.38,-56.4169"/>
<polygon fill="black" stroke="black" points="1542.04,-59.8619 1551.53,-55.1651 1541.18,-52.9145 1542.04,-59.8619"/>
<text text-anchor="middle" x="1481" y="-89.7255" font-family="Times,serif" font-size="14.00">u0009</text>
</g>
<!-- 17 -->
<g id="node13" class="node"><title>17</title>
<ellipse fill="none" stroke="black" cx="1766" cy="-99.9255" rx="18" ry="18"/>
</g>
<!-- 15&#45;&gt;17 -->
<g id="edge18" class="edge"><title>15&#45;&gt;17</title>
<path fill="none" stroke="black" d="M1432.02,-155.144C1438.15,-164 1447.11,-174.464 1458,-179.925 1566.05,-234.131 1630.32,-248.314 1730,-179.925 1747.32,-168.041 1756.15,-145.582 1760.6,-127.479"/>
<polygon fill="black" stroke="black" points="1764.02,-128.212 1762.7,-117.701 1757.18,-126.744 1764.02,-128.212"/>
<text text-anchor="middle" x="1569.5" y="-229.725" font-family="Times,serif" font-size="14.00">u0008</text>
</g>
<!-- 15&#45;&gt;17 -->
<g id="edge19" class="edge"><title>15&#45;&gt;17</title>
<path fill="none" stroke="black" d="M1440.07,-143.062C1487.86,-151.07 1626.25,-168.937 1730,-128.925 1735.52,-126.796 1740.81,-123.425 1745.53,-119.723"/>
<polygon fill="black" stroke="black" points="1748.12,-122.114 1753.34,-112.898 1743.51,-116.844 1748.12,-122.114"/>
<text text-anchor="middle" x="1569.5" y="-158.725" font-family="Times,serif" font-size="14.00">u0010&#45;u0011</text>
</g>
<!-- 15&#45;&gt;17 -->
<g id="edge20" class="edge"><title>15&#45;&gt;17</title>
<path fill="none" stroke="black" d="M1439.96,-137.942C1495.12,-131.491 1669.74,-111.067 1737.63,-103.126"/>
<polygon fill="black" stroke="black" points="1738.41,-106.559 1747.94,-101.921 1737.6,-99.6065 1738.41,-106.559"/>
<text text-anchor="middle" x="1569.5" y="-131.725" font-family="Times,serif" font-size="14.00">u000a&#45;u000b</text>
</g>
<!-- 16&#45;&gt;17 -->
<g id="edge21" class="edge"><title>16&#45;&gt;17</title>
<path fill="none" stroke="black" d="M1587.51,-56.2937C1616.94,-60.6219 1679.11,-70.7805 1730,-85.9255 1733.2,-86.8775 1736.51,-88.0058 1739.77,-89.2024"/>
<polygon fill="black" stroke="black" points="1738.6,-92.5036 1749.19,-92.8891 1741.15,-85.9851 1738.6,-92.5036"/>
<text text-anchor="middle" x="1682.5" y="-89.7255" font-family="Times,serif" font-size="14.00">u0010&#45;u0011</text>
</g>
<!-- 16&#45;&gt;17 -->
<g id="edge22" class="edge"><title>16&#45;&gt;17</title>
<path fill="none" stroke="black" d="M1586.65,-47.9089C1616.9,-37.7147 1683.23,-20.5039 1730,-45.9255 1741.16,-51.9913 1749.31,-63.3204 1754.92,-74.0412"/>
<polygon fill="black" stroke="black" points="1751.79,-75.6012 1759.22,-83.1584 1758.12,-72.62 1751.79,-75.6012"/>
<text text-anchor="middle" x="1682.5" y="-49.7255" font-family="Times,serif" font-size="14.00">u000a</text>
</g>
<!-- 17&#45;&gt;16 -->
<g id="edge23" class="edge"><title>17&#45;&gt;16</title>
<path fill="none" stroke="black" d="M1763.4,-81.7838C1760.52,-61.3542 1752.47,-29.0405 1730,-13.9255 1694.97,9.64055 1675.61,-2.3564 1635,-13.9255 1619.3,-18.3995 1603.68,-27.915 1591.75,-36.5427"/>
<polygon fill="black" stroke="black" points="1589.63,-33.7593 1583.76,-42.5834 1593.85,-39.342 1589.63,-33.7593"/>
<text text-anchor="middle" x="1682.5" y="-17.7255" font-family="Times,serif" font-size="14.00">u0009</text>
</g>
<!-- 17&#45;&gt;17 -->
<g id="edge24" class="edge"><title>17&#45;&gt;17</title>
<path fill="none" stroke="black" d="M1762.52,-117.707C1761.93,-127.24 1763.09,-135.925 1766,-135.925 1767.77,-135.925 1768.89,-132.7 1769.37,-128.024"/>
<polygon fill="black" stroke="black" points="1772.87,-127.743 1769.48,-117.707 1765.87,-127.67 1772.87,-127.743"/>
<text text-anchor="middle" x="1766" y="-139.725" font-family="Times,serif" font-size="14.00">u0008</text>
</g>
<!-- 17&#45;&gt;17 -->
<g id="edge25" class="edge"><title>17&#45;&gt;17</title>
<path fill="none" stroke="black" d="M1760.34,-117.067C1757.02,-134.51 1758.9,-153.925 1766,-153.925 1771.71,-153.925 1774.05,-141.354 1773.01,-127.354"/>
<polygon fill="black" stroke="black" points="1776.43,-126.525 1771.66,-117.067 1769.49,-127.438 1776.43,-126.525"/>
<text text-anchor="middle" x="1766" y="-157.725" font-family="Times,serif" font-size="14.00">u0010&#45;u0011</text>
</g>
<!-- 17&#45;&gt;17 -->
<g id="edge27" class="edge"><title>17&#45;&gt;17</title>
<path fill="none" stroke="black" d="M1759.06,-116.557C1752.08,-141.145 1754.39,-171.925 1766,-171.925 1776.07,-171.925 1779.15,-148.778 1775.23,-126.595"/>
<polygon fill="black" stroke="black" points="1778.58,-125.528 1772.94,-116.557 1771.75,-127.086 1778.58,-125.528"/>
<text text-anchor="middle" x="1766" y="-175.725" font-family="Times,serif" font-size="14.00">u000a&#45;u000b</text>
</g>
<!-- 18 -->
<g id="node14" class="node"><title>18</title>
<ellipse fill="none" stroke="black" cx="1888" cy="-99.9255" rx="18" ry="18"/>
<ellipse fill="none" stroke="black" cx="1888" cy="-99.9255" rx="22" ry="22"/>
</g>
<!-- 17&#45;&gt;18 -->
<g id="edge26" class="edge"><title>17&#45;&gt;18</title>
<path fill="none" stroke="black" d="M1784.19,-99.9255C1802.77,-99.9255 1832.76,-99.9255 1855.57,-99.9255"/>
<polygon fill="black" stroke="black" points="1855.79,-103.426 1865.79,-99.9255 1855.79,-96.4256 1855.79,-103.426"/>
<text text-anchor="middle" x="1825" y="-103.725" font-family="Times,serif" font-size="14.00">u0007</text>
</g>
<!-- 14&#45;&gt;8 -->
<g id="edge28" class="edge"><title>14&#45;&gt;8</title>
<path fill="none" stroke="black" d="M1080.9,-115.837C1098.31,-118.936 1126.18,-124.179 1150,-129.925 1152.88,-130.62 1155.88,-131.396 1158.86,-132.199"/>
<polygon fill="black" stroke="black" points="1158.12,-135.628 1168.69,-134.962 1160.01,-128.889 1158.12,-135.628"/>
<text text-anchor="middle" x="1127" y="-133.725" font-family="Times,serif" font-size="14.00">u0006</text>
</g>
<!-- 11&#45;&gt;8 -->
<g id="edge30" class="edge"><title>11&#45;&gt;8</title>
<path fill="none" stroke="black" d="M951.674,-87.7848C979.35,-76.1884 1038.45,-55.9886 1086,-70.9255 1116.82,-80.6053 1146.42,-103.654 1165.1,-120.457"/>
<polygon fill="black" stroke="black" points="1162.93,-123.215 1172.64,-127.443 1167.68,-118.08 1162.93,-123.215"/>
<text text-anchor="middle" x="1063" y="-74.7255" font-family="Times,serif" font-size="14.00">u0006</text>
</g>
<!-- 11&#45;&gt;14 -->
<g id="edge29" class="edge"><title>11&#45;&gt;14</title>
<path fill="none" stroke="black" d="M953.212,-96.1308C970.63,-97.4901 998.298,-100.033 1022,-103.925 1026.35,-104.639 1030.93,-105.534 1035.38,-106.48"/>
<polygon fill="black" stroke="black" points="1034.82,-109.943 1045.35,-108.721 1036.36,-103.113 1034.82,-109.943"/>
<text text-anchor="middle" x="999" y="-107.725" font-family="Times,serif" font-size="14.00">u000c</text>
</g>
<!-- 7&#45;&gt;10 -->
<g id="edge31" class="edge"><title>7&#45;&gt;10</title>
<path fill="none" stroke="black" d="M829.87,-157.666C846.558,-160.705 872.629,-166.341 894,-174.925 899.714,-177.221 905.604,-180.212 911.048,-183.273"/>
<polygon fill="black" stroke="black" points="909.291,-186.301 919.68,-188.382 912.857,-180.277 909.291,-186.301"/>
<text text-anchor="middle" x="871" y="-178.725" font-family="Times,serif" font-size="14.00">u000d</text>
</g>
<!-- 7&#45;&gt;8 -->
<g id="edge32" class="edge"><title>7&#45;&gt;8</title>
<path fill="none" stroke="black" d="M830.085,-152.552C859.715,-148.57 922.582,-140.704 976,-137.925 996.417,-136.864 1001.59,-136.795 1022,-137.925 1030.04,-138.371 1031.99,-139.167 1040,-139.925 1068.4,-142.612 1075.49,-143.813 1104,-144.925 1124.43,-145.722 1129.61,-146.375 1150,-144.925 1152.57,-144.743 1155.24,-144.485 1157.91,-144.183"/>
<polygon fill="black" stroke="black" points="1158.51,-147.634 1167.96,-142.854 1157.59,-140.694 1158.51,-147.634"/>
<text text-anchor="middle" x="999" y="-141.725" font-family="Times,serif" font-size="14.00">u0006</text>
</g>
<!-- 12 -->
<g id="node18" class="node"><title>12</title>
<ellipse fill="none" stroke="black" cx="935" cy="-37.9255" rx="18" ry="18"/>
</g>
<!-- 7&#45;&gt;12 -->
<g id="edge33" class="edge"><title>7&#45;&gt;12</title>
<path fill="none" stroke="black" d="M822.702,-140.026C829.09,-131.056 838.085,-119.872 848,-111.925 865.836,-97.6306 876.294,-103.381 894,-88.9255 896.914,-86.5466 907.696,-72.7396 917.332,-60.0915"/>
<polygon fill="black" stroke="black" points="920.154,-62.1628 923.405,-52.079 914.575,-57.9346 920.154,-62.1628"/>
<text text-anchor="middle" x="871" y="-115.725" font-family="Times,serif" font-size="14.00">u0000</text>
</g>
<!-- 12&#45;&gt;8 -->
<g id="edge35" class="edge"><title>12&#45;&gt;8</title>
<path fill="none" stroke="black" d="M953.073,-35.28C993.132,-30.1134 1094,-23.3103 1150,-74.9255 1161.42,-85.4462 1169.86,-100.563 1175.6,-113.571"/>
<polygon fill="black" stroke="black" points="1172.43,-115.068 1179.46,-122.996 1178.91,-112.415 1172.43,-115.068"/>
<text text-anchor="middle" x="1063" y="-45.7255" font-family="Times,serif" font-size="14.00">u0006</text>
</g>
<!-- 12&#45;&gt;14 -->
<g id="edge34" class="edge"><title>12&#45;&gt;14</title>
<path fill="none" stroke="black" d="M952.137,-44.4474C969.886,-51.926 998.949,-65.0834 1022,-79.9255 1028.66,-84.2143 1035.47,-89.454 1041.54,-94.484"/>
<polygon fill="black" stroke="black" points="1039.39,-97.258 1049.27,-101.104 1043.95,-91.9412 1039.39,-97.258"/>
<text text-anchor="middle" x="999" y="-83.7255" font-family="Times,serif" font-size="14.00">u000d</text>
</g>
<!-- 9&#45;&gt;8 -->
<g id="edge38" class="edge"><title>9&#45;&gt;8</title>
<path fill="none" stroke="black" d="M826.275,-42.7808C832.544,-37.967 840.324,-32.6068 848,-28.9255 918.022,4.65845 945.08,-2.23401 1022,-12.9255 1080.08,-20.9984 1106.36,-5.7596 1150,-44.9255 1169.14,-62.0988 1177.83,-90.6657 1181.77,-111.997"/>
<polygon fill="black" stroke="black" points="1178.35,-112.778 1183.38,-122.1 1185.26,-111.673 1178.35,-112.778"/>
<text text-anchor="middle" x="999" y="-16.7255" font-family="Times,serif" font-size="14.00">u0006</text>
</g>
<!-- 9&#45;&gt;11 -->
<g id="edge36" class="edge"><title>9&#45;&gt;11</title>
<path fill="none" stroke="black" d="M829.801,-56.8436C846.436,-60.017 872.468,-65.7528 894,-73.9255 899.408,-75.9781 905.02,-78.5909 910.269,-81.2708"/>
<polygon fill="black" stroke="black" points="908.737,-84.4207 919.204,-86.0606 912.044,-78.2512 908.737,-84.4207"/>
<text text-anchor="middle" x="871" y="-77.7255" font-family="Times,serif" font-size="14.00">u000d</text>
</g>
<!-- 9&#45;&gt;12 -->
<g id="edge37" class="edge"><title>9&#45;&gt;12</title>
<path fill="none" stroke="black" d="M827.717,-44.3831C833.75,-41.0085 840.96,-37.6295 848,-35.9255 867.17,-31.2848 889.45,-31.9647 906.528,-33.7105"/>
<polygon fill="black" stroke="black" points="906.567,-37.2406 916.915,-34.9664 907.408,-30.2912 906.567,-37.2406"/>
<text text-anchor="middle" x="871" y="-39.7255" font-family="Times,serif" font-size="14.00">u000c</text>
</g>
<!-- initial -->
<g id="node20" class="node"><title>initial</title>
</g>
<!-- initial&#45;&gt;0 -->
<g id="edge39" class="edge"><title>initial&#45;&gt;0</title>
<path fill="none" stroke="black" d="M54.195,-197.925C62.6538,-197.925 72.0513,-197.925 80.5951,-197.925"/>
<polygon fill="black" stroke="black" points="80.8257,-201.426 90.8257,-197.925 80.8257,-194.426 80.8257,-201.426"/>
</g>
</g>
</svg>
