<svg width="1135px" height="175px"
 viewBox="0.00 0.00 851.00 131.00" xmlns="http://www.w3.org/2000/svg" xmlns:xlink="http://www.w3.org/1999/xlink">
<g id="graph0" class="graph" transform="scale(1.000022500562514 1.000022500562514) rotate(0) translate(4 127)">
<title>Automaton</title>
<polygon fill="white" stroke="none" points="-4,4 -4,-127 847,-127 847,4 -4,4"/>
<!-- 0 -->
<g id="node1" class="node"><title>0</title>
<ellipse fill="none" stroke="black" cx="109" cy="-49" rx="18" ry="18"/>
</g>
<!-- 1 -->
<g id="node2" class="node"><title>1</title>
<ellipse fill="none" stroke="black" cx="227" cy="-49" rx="18" ry="18"/>
</g>
<!-- 0&#45;&gt;1 -->
<g id="edge1" class="edge"><title>0&#45;&gt;1</title>
<path fill="none" stroke="black" d="M127.116,-49C145.964,-49 176.531,-49 198.696,-49"/>
<polygon fill="black" stroke="black" points="198.814,-52.5001 208.814,-49 198.814,-45.5001 198.814,-52.5001"/>
<text text-anchor="middle" x="168" y="-52.8" font-family="Times,serif" font-size="14.00">u0000</text>
</g>
<!-- 2 -->
<g id="node3" class="node"><title>2</title>
<ellipse fill="none" stroke="black" cx="345" cy="-49" rx="18" ry="18"/>
</g>
<!-- 1&#45;&gt;2 -->
<g id="edge2" class="edge"><title>1&#45;&gt;2</title>
<path fill="none" stroke="black" d="M245.116,-49C263.964,-49 294.531,-49 316.696,-49"/>
<polygon fill="black" stroke="black" points="316.814,-52.5001 326.814,-49 316.814,-45.5001 316.814,-52.5001"/>
<text text-anchor="middle" x="286" y="-52.8" font-family="Times,serif" font-size="14.00">u0001</text>
</g>
<!-- 3 -->
<g id="node4" class="node"><title>3</title>
<ellipse fill="none" stroke="black" cx="463" cy="-105" rx="18" ry="18"/>
</g>
<!-- 2&#45;&gt;3 -->
<g id="edge3" class="edge"><title>2&#45;&gt;3</title>
<path fill="none" stroke="black" d="M361.644,-56.5524C381.124,-65.9566 414.621,-82.1273 437.513,-93.1789"/>
<polygon fill="black" stroke="black" points="436.076,-96.3716 446.604,-97.5672 439.12,-90.0678 436.076,-96.3716"/>
<text text-anchor="middle" x="404" y="-89.8" font-family="Times,serif" font-size="14.00">u0004</text>
</g>
<!-- 4 -->
<g id="node8" class="node"><title>4</title>
<ellipse fill="none" stroke="black" cx="463" cy="-18" rx="18" ry="18"/>
</g>
<!-- 2&#45;&gt;4 -->
<g id="edge4" class="edge"><title>2&#45;&gt;4</title>
<path fill="none" stroke="black" d="M362.62,-44.5585C381.657,-39.4711 413.103,-31.0673 435.523,-25.0757"/>
<polygon fill="black" stroke="black" points="436.654,-28.3965 445.411,-22.4333 434.846,-21.6338 436.654,-28.3965"/>
<text text-anchor="middle" x="404" y="-42.8" font-family="Times,serif" font-size="14.00">u0005</text>
</g>
<!-- 5 -->
<g id="node5" class="node"><title>5</title>
<ellipse fill="none" stroke="black" cx="581" cy="-67" rx="18" ry="18"/>
</g>
<!-- 3&#45;&gt;5 -->
<g id="edge5" class="edge"><title>3&#45;&gt;5</title>
<path fill="none" stroke="black" d="M480.62,-99.5555C499.851,-93.2555 531.748,-82.8067 554.209,-75.4489"/>
<polygon fill="black" stroke="black" points="555.371,-78.7511 563.785,-72.3119 553.192,-72.0989 555.371,-78.7511"/>
<text text-anchor="middle" x="522" y="-95.8" font-family="Times,serif" font-size="14.00">u0005</text>
</g>
<!-- 5&#45;&gt;5 -->
<g id="edge7" class="edge"><title>5&#45;&gt;5</title>
<path fill="none" stroke="black" d="M571.187,-82.1666C568.213,-92.6641 571.484,-103 581,-103 587.245,-103 590.8,-98.5487 591.666,-92.5216"/>
<polygon fill="black" stroke="black" points="595.122,-91.8455 590.813,-82.1666 588.146,-92.4202 595.122,-91.8455"/>
<text text-anchor="middle" x="581" y="-106.8" font-family="Times,serif" font-size="14.00">u0005</text>
</g>
<!-- 6 -->
<g id="node6" class="node"><title>6</title>
<ellipse fill="none" stroke="black" cx="699" cy="-67" rx="18" ry="18"/>
</g>
<!-- 5&#45;&gt;6 -->
<g id="edge6" class="edge"><title>5&#45;&gt;6</title>
<path fill="none" stroke="black" d="M599.116,-67C617.964,-67 648.531,-67 670.696,-67"/>
<polygon fill="black" stroke="black" points="670.814,-70.5001 680.814,-67 670.814,-63.5001 670.814,-70.5001"/>
<text text-anchor="middle" x="640" y="-70.8" font-family="Times,serif" font-size="14.00">u0003</text>
</g>
<!-- 7 -->
<g id="node7" class="node"><title>7</title>
<ellipse fill="none" stroke="black" cx="821" cy="-67" rx="18" ry="18"/>
<ellipse fill="none" stroke="black" cx="821" cy="-67" rx="22" ry="22"/>
</g>
<!-- 6&#45;&gt;7 -->
<g id="edge8" class="edge"><title>6&#45;&gt;7</title>
<path fill="none" stroke="black" d="M717.193,-67C735.767,-67 765.762,-67 788.57,-67"/>
<polygon fill="black" stroke="black" points="788.793,-70.5001 798.792,-67 788.792,-63.5001 788.793,-70.5001"/>
<text text-anchor="middle" x="758" y="-70.8" font-family="Times,serif" font-size="14.00">u0002</text>
</g>
<!-- 4&#45;&gt;5 -->
<g id="edge9" class="edge"><title>4&#45;&gt;5</title>
<path fill="none" stroke="black" d="M480.129,-24.8132C499.435,-32.9681 531.992,-46.7207 554.666,-56.2985"/>
<polygon fill="black" stroke="black" points="553.434,-59.5775 564.008,-60.2446 556.158,-53.1292 553.434,-59.5775"/>
<text text-anchor="middle" x="522" y="-54.8" font-family="Times,serif" font-size="14.00">u0004</text>
</g>
<!-- 4&#45;&gt;4 -->
<g id="edge10" class="edge"><title>4&#45;&gt;4</title>
<path fill="none" stroke="black" d="M453.187,-33.1666C450.213,-43.6641 453.484,-54 463,-54 469.245,-54 472.8,-49.5487 473.666,-43.5216"/>
<polygon fill="black" stroke="black" points="477.122,-42.8455 472.813,-33.1666 470.146,-43.4202 477.122,-42.8455"/>
<text text-anchor="middle" x="463" y="-57.8" font-family="Times,serif" font-size="14.00">u0005</text>
</g>
<!-- initial -->
<g id="node9" class="node"><title>initial</title>
</g>
<!-- initial&#45;&gt;0 -->
<g id="edge11" class="edge"><title>initial&#45;&gt;0</title>
<path fill="none" stroke="black" d="M54.195,-49C62.6538,-49 72.0513,-49 80.5951,-49"/>
<polygon fill="black" stroke="black" points="80.8257,-52.5001 90.8257,-49 80.8257,-45.5001 80.8257,-52.5001"/>
</g>
</g>
</svg>
