<svg width="1148px" height="218px"
 viewBox="0.00 0.00 861.00 163.48" xmlns="http://www.w3.org/2000/svg" xmlns:xlink="http://www.w3.org/1999/xlink">
<g id="graph0" class="graph" transform="scale(1.000022500562514 1.000022500562514) rotate(0) translate(4 159.481)">
<title>Automaton</title>
<polygon fill="white" stroke="none" points="-4,4 -4,-159.481 857,-159.481 857,4 -4,4"/>
<!-- 0 -->
<g id="node1" class="node"><title>0</title>
<ellipse fill="none" stroke="black" cx="109" cy="-131.481" rx="18" ry="18"/>
</g>
<!-- 1 -->
<g id="node2" class="node"><title>1</title>
<ellipse fill="none" stroke="black" cx="227" cy="-131.481" rx="18" ry="18"/>
</g>
<!-- 0&#45;&gt;1 -->
<g id="edge1" class="edge"><title>0&#45;&gt;1</title>
<path fill="none" stroke="black" d="M127.116,-131.481C145.964,-131.481 176.531,-131.481 198.696,-131.481"/>
<polygon fill="black" stroke="black" points="198.814,-134.981 208.814,-131.481 198.814,-127.981 198.814,-134.981"/>
<text text-anchor="middle" x="168" y="-135.281" font-family="Times,serif" font-size="14.00">u0000</text>
</g>
<!-- 2 -->
<g id="node3" class="node"><title>2</title>
<ellipse fill="none" stroke="black" cx="831" cy="-111.481" rx="18" ry="18"/>
<ellipse fill="none" stroke="black" cx="831" cy="-111.481" rx="22" ry="22"/>
</g>
<!-- 1&#45;&gt;2 -->
<g id="edge2" class="edge"><title>1&#45;&gt;2</title>
<path fill="none" stroke="black" d="M244.874,-133.614C267.424,-136.275 308.651,-140.481 344,-140.481 344,-140.481 344,-140.481 710,-140.481 741.694,-140.481 776.813,-130.805 800.824,-122.631"/>
<polygon fill="black" stroke="black" points="802.128,-125.882 810.392,-119.252 799.798,-119.282 802.128,-125.882"/>
<text text-anchor="middle" x="522" y="-144.281" font-family="Times,serif" font-size="14.00">u0002</text>
</g>
<!-- 3 -->
<g id="node4" class="node"><title>3</title>
<ellipse fill="none" stroke="black" cx="345" cy="-54.4809" rx="18" ry="18"/>
</g>
<!-- 1&#45;&gt;3 -->
<g id="edge3" class="edge"><title>1&#45;&gt;3</title>
<path fill="none" stroke="black" d="M242.691,-121.729C262.39,-108.653 297.572,-85.2992 320.851,-69.8471"/>
<polygon fill="black" stroke="black" points="323.032,-72.6003 329.428,-64.1538 319.161,-66.7682 323.032,-72.6003"/>
<text text-anchor="middle" x="286" y="-111.281" font-family="Times,serif" font-size="14.00">u0001</text>
</g>
<!-- 4 -->
<g id="node5" class="node"><title>4</title>
<ellipse fill="none" stroke="black" cx="463" cy="-37.4809" rx="18" ry="18"/>
</g>
<!-- 3&#45;&gt;4 -->
<g id="edge4" class="edge"><title>3&#45;&gt;4</title>
<path fill="none" stroke="black" d="M362.657,-50.2654C368.437,-48.9117 374.977,-47.5004 381,-46.4809 398.796,-43.4685 418.968,-41.2236 434.731,-39.7292"/>
<polygon fill="black" stroke="black" points="435.21,-43.2002 444.855,-38.8143 434.58,-36.2286 435.21,-43.2002"/>
<text text-anchor="middle" x="404" y="-50.2809" font-family="Times,serif" font-size="14.00">u0004</text>
</g>
<!-- 5 -->
<g id="node7" class="node"><title>5</title>
<ellipse fill="none" stroke="black" cx="709" cy="-69.4809" rx="18" ry="18"/>
</g>
<!-- 3&#45;&gt;5 -->
<g id="edge5" class="edge"><title>3&#45;&gt;5</title>
<path fill="none" stroke="black" d="M360.74,-45.4498C379.501,-34.5528 413.292,-16.8956 445,-10.4809 516.489,3.98176 539,4.01022 609,-16.4809 636.943,-24.6607 665.977,-41.3347 685.318,-53.808"/>
<polygon fill="black" stroke="black" points="683.463,-56.7768 693.736,-59.3678 687.321,-50.9359 683.463,-56.7768"/>
<text text-anchor="middle" x="522" y="-6.28086" font-family="Times,serif" font-size="14.00">u0003</text>
</g>
<!-- 6 -->
<g id="node8" class="node"><title>6</title>
<ellipse fill="none" stroke="black" cx="463" cy="-91.4809" rx="18" ry="18"/>
</g>
<!-- 3&#45;&gt;6 -->
<g id="edge6" class="edge"><title>3&#45;&gt;6</title>
<path fill="none" stroke="black" d="M362.62,-59.7821C381.743,-65.8816 413.388,-75.9753 435.827,-83.1326"/>
<polygon fill="black" stroke="black" points="434.82,-86.4851 445.411,-86.1895 436.947,-79.8161 434.82,-86.4851"/>
<text text-anchor="middle" x="404" y="-84.2809" font-family="Times,serif" font-size="14.00">u0005</text>
</g>
<!-- 7 -->
<g id="node6" class="node"><title>7</title>
<ellipse fill="none" stroke="black" cx="586" cy="-43.4809" rx="18" ry="18"/>
</g>
<!-- 4&#45;&gt;7 -->
<g id="edge7" class="edge"><title>4&#45;&gt;7</title>
<path fill="none" stroke="black" d="M480.634,-33.4567C486.411,-32.2453 492.957,-31.0793 499,-30.4809 519.345,-28.4663 524.807,-27.2819 545,-30.4809 549.67,-31.2207 554.536,-32.4179 559.201,-33.7938"/>
<polygon fill="black" stroke="black" points="558.344,-37.196 568.937,-36.9831 560.523,-30.5438 558.344,-37.196"/>
<text text-anchor="middle" x="522" y="-34.2809" font-family="Times,serif" font-size="14.00">u0005</text>
</g>
<!-- 7&#45;&gt;5 -->
<g id="edge8" class="edge"><title>7&#45;&gt;5</title>
<path fill="none" stroke="black" d="M603.825,-47.096C623.872,-51.4037 657.618,-58.655 681.255,-63.734"/>
<polygon fill="black" stroke="black" points="680.806,-67.2174 691.318,-65.8964 682.277,-60.3736 680.806,-67.2174"/>
<text text-anchor="middle" x="650" y="-66.2809" font-family="Times,serif" font-size="14.00">u0003</text>
</g>
<!-- 5&#45;&gt;2 -->
<g id="edge9" class="edge"><title>5&#45;&gt;2</title>
<path fill="none" stroke="black" d="M726.184,-75.1452C745.216,-81.8065 777.182,-92.9945 800.625,-101.2"/>
<polygon fill="black" stroke="black" points="799.493,-104.511 810.088,-104.512 801.805,-97.9045 799.493,-104.511"/>
<text text-anchor="middle" x="768" y="-101.281" font-family="Times,serif" font-size="14.00">u0002</text>
</g>
<!-- 6&#45;&gt;7 -->
<g id="edge10" class="edge"><title>6&#45;&gt;7</title>
<path fill="none" stroke="black" d="M477.745,-81.0733C483.982,-76.7201 491.605,-71.8915 499,-68.4809 517.942,-59.7446 540.649,-53.2991 557.973,-49.1427"/>
<polygon fill="black" stroke="black" points="559.015,-52.4946 567.982,-46.8505 557.453,-45.6712 559.015,-52.4946"/>
<text text-anchor="middle" x="522" y="-72.2809" font-family="Times,serif" font-size="14.00">u0004</text>
</g>
<!-- 6&#45;&gt;5 -->
<g id="edge11" class="edge"><title>6&#45;&gt;5</title>
<path fill="none" stroke="black" d="M480.987,-92.2752C516.837,-93.6017 602.712,-94.9296 673,-81.4809 676.056,-80.8961 679.209,-80.1031 682.312,-79.2015"/>
<polygon fill="black" stroke="black" points="683.461,-82.5081 691.878,-76.0734 681.285,-75.8548 683.461,-82.5081"/>
<text text-anchor="middle" x="586" y="-96.2809" font-family="Times,serif" font-size="14.00">u0003</text>
</g>
<!-- initial -->
<g id="node9" class="node"><title>initial</title>
</g>
<!-- initial&#45;&gt;0 -->
<g id="edge12" class="edge"><title>initial&#45;&gt;0</title>
<path fill="none" stroke="black" d="M54.195,-131.481C62.6538,-131.481 72.0513,-131.481 80.5951,-131.481"/>
<polygon fill="black" stroke="black" points="80.8257,-134.981 90.8257,-131.481 80.8257,-127.981 80.8257,-134.981"/>
</g>
</g>
</svg>
