<svg width="991px" height="141px"
 viewBox="0.00 0.00 743.00 106.00" xmlns="http://www.w3.org/2000/svg" xmlns:xlink="http://www.w3.org/1999/xlink">
<g id="graph0" class="graph" transform="scale(1.000022500562514 1.000022500562514) rotate(0) translate(4 102)">
<title>Automaton</title>
<polygon fill="white" stroke="none" points="-4,4 -4,-102 739,-102 739,4 -4,4"/>
<!-- 0 -->
<g id="node1" class="node"><title>0</title>
<ellipse fill="none" stroke="black" cx="109" cy="-56" rx="18" ry="18"/>
</g>
<!-- 1 -->
<g id="node2" class="node"><title>1</title>
<ellipse fill="none" stroke="black" cx="227" cy="-56" rx="18" ry="18"/>
</g>
<!-- 0&#45;&gt;1 -->
<g id="edge1" class="edge"><title>0&#45;&gt;1</title>
<path fill="none" stroke="black" d="M127.116,-56C145.964,-56 176.531,-56 198.696,-56"/>
<polygon fill="black" stroke="black" points="198.814,-59.5001 208.814,-56 198.814,-52.5001 198.814,-59.5001"/>
<text text-anchor="middle" x="168" y="-59.8" font-family="Times,serif" font-size="14.00">u0000</text>
</g>
<!-- 2 -->
<g id="node3" class="node"><title>2</title>
<ellipse fill="none" stroke="black" cx="345" cy="-56" rx="18" ry="18"/>
</g>
<!-- 1&#45;&gt;2 -->
<g id="edge2" class="edge"><title>1&#45;&gt;2</title>
<path fill="none" stroke="black" d="M245.116,-56C263.964,-56 294.531,-56 316.696,-56"/>
<polygon fill="black" stroke="black" points="316.814,-59.5001 326.814,-56 316.814,-52.5001 316.814,-59.5001"/>
<text text-anchor="middle" x="286" y="-59.8" font-family="Times,serif" font-size="14.00">u0001</text>
</g>
<!-- 3 -->
<g id="node4" class="node"><title>3</title>
<ellipse fill="none" stroke="black" cx="591" cy="-76" rx="18" ry="18"/>
</g>
<!-- 2&#45;&gt;3 -->
<g id="edge3" class="edge"><title>2&#45;&gt;3</title>
<path fill="none" stroke="black" d="M362.254,-61.6074C368.114,-63.4962 374.809,-65.5023 381,-67 456.289,-85.2141 477.558,-78.7113 555,-77 557.553,-76.9436 560.21,-76.8788 562.868,-76.8098"/>
<polygon fill="black" stroke="black" points="563.012,-80.3073 572.911,-76.5325 562.818,-73.31 563.012,-80.3073"/>
<text text-anchor="middle" x="468" y="-82.8" font-family="Times,serif" font-size="14.00">u0003</text>
</g>
<!-- 4 -->
<g id="node6" class="node"><title>4</title>
<ellipse fill="none" stroke="black" cx="468" cy="-18" rx="18" ry="18"/>
</g>
<!-- 2&#45;&gt;4 -->
<g id="edge4" class="edge"><title>2&#45;&gt;4</title>
<path fill="none" stroke="black" d="M362.611,-52.0842C379.103,-48.0574 405.028,-41.3511 427,-34 431.801,-32.3937 436.86,-30.5183 441.704,-28.6284"/>
<polygon fill="black" stroke="black" points="443.224,-31.7895 451.195,-24.8102 440.612,-25.2952 443.224,-31.7895"/>
<text text-anchor="middle" x="404" y="-51.8" font-family="Times,serif" font-size="14.00">u0005</text>
</g>
<!-- 5 -->
<g id="node5" class="node"><title>5</title>
<ellipse fill="none" stroke="black" cx="713" cy="-76" rx="18" ry="18"/>
<ellipse fill="none" stroke="black" cx="713" cy="-76" rx="22" ry="22"/>
</g>
<!-- 3&#45;&gt;5 -->
<g id="edge5" class="edge"><title>3&#45;&gt;5</title>
<path fill="none" stroke="black" d="M609.193,-76C627.767,-76 657.762,-76 680.57,-76"/>
<polygon fill="black" stroke="black" points="680.793,-79.5001 690.792,-76 680.792,-72.5001 680.793,-79.5001"/>
<text text-anchor="middle" x="650" y="-79.8" font-family="Times,serif" font-size="14.00">u0002</text>
</g>
<!-- 4&#45;&gt;2 -->
<g id="edge6" class="edge"><title>4&#45;&gt;2</title>
<path fill="none" stroke="black" d="M450.611,-13.2191C432.64,-8.90735 403.385,-4.67714 381,-15 372.993,-18.6927 366.138,-25.2209 360.673,-31.9972"/>
<polygon fill="black" stroke="black" points="357.535,-30.3643 354.511,-40.5186 363.207,-34.4661 357.535,-30.3643"/>
<text text-anchor="middle" x="404" y="-18.8" font-family="Times,serif" font-size="14.00">u0004</text>
</g>
<!-- 4&#45;&gt;3 -->
<g id="edge7" class="edge"><title>4&#45;&gt;3</title>
<path fill="none" stroke="black" d="M484.819,-25.5825C505.313,-35.4061 541.262,-52.6379 565.35,-64.1845"/>
<polygon fill="black" stroke="black" points="564.03,-67.4327 574.56,-68.599 567.055,-61.1204 564.03,-67.4327"/>
<text text-anchor="middle" x="532" y="-61.8" font-family="Times,serif" font-size="14.00">u0003</text>
</g>
<!-- 4&#45;&gt;4 -->
<g id="edge8" class="edge"><title>4&#45;&gt;4</title>
<path fill="none" stroke="black" d="M457.292,-32.7917C453.806,-43.4165 457.375,-54 468,-54 475.139,-54 479.092,-49.2224 479.861,-42.8647"/>
<polygon fill="black" stroke="black" points="483.322,-42.3288 478.708,-32.7917 476.368,-43.1248 483.322,-42.3288"/>
<text text-anchor="middle" x="468" y="-57.8" font-family="Times,serif" font-size="14.00">u0005</text>
</g>
<!-- initial -->
<g id="node7" class="node"><title>initial</title>
</g>
<!-- initial&#45;&gt;0 -->
<g id="edge9" class="edge"><title>initial&#45;&gt;0</title>
<path fill="none" stroke="black" d="M54.195,-56C62.6538,-56 72.0513,-56 80.5951,-56"/>
<polygon fill="black" stroke="black" points="80.8257,-59.5001 90.8257,-56 80.8257,-52.5001 80.8257,-59.5001"/>
</g>
</g>
</svg>
