<svg width="1148px" height="131px"
 viewBox="0.00 0.00 861.00 98.00" xmlns="http://www.w3.org/2000/svg" xmlns:xlink="http://www.w3.org/1999/xlink">
<g id="graph0" class="graph" transform="scale(1.000022500562514 1.000022500562514) rotate(0) translate(4 94)">
<title>Automaton</title>
<polygon fill="white" stroke="none" points="-4,4 -4,-94 857,-94 857,4 -4,4"/>
<!-- 0 -->
<g id="node1" class="node"><title>0</title>
<ellipse fill="none" stroke="black" cx="109" cy="-41" rx="18" ry="18"/>
</g>
<!-- 1 -->
<g id="node2" class="node"><title>1</title>
<ellipse fill="none" stroke="black" cx="227" cy="-41" rx="18" ry="18"/>
</g>
<!-- 0&#45;&gt;1 -->
<g id="edge1" class="edge"><title>0&#45;&gt;1</title>
<path fill="none" stroke="black" d="M127.116,-41C145.964,-41 176.531,-41 198.696,-41"/>
<polygon fill="black" stroke="black" points="198.814,-44.5001 208.814,-41 198.814,-37.5001 198.814,-44.5001"/>
<text text-anchor="middle" x="168" y="-44.8" font-family="Times,serif" font-size="14.00">u0000</text>
</g>
<!-- 2 -->
<g id="node3" class="node"><title>2</title>
<ellipse fill="none" stroke="black" cx="345" cy="-41" rx="18" ry="18"/>
</g>
<!-- 1&#45;&gt;2 -->
<g id="edge2" class="edge"><title>1&#45;&gt;2</title>
<path fill="none" stroke="black" d="M245.116,-41C263.964,-41 294.531,-41 316.696,-41"/>
<polygon fill="black" stroke="black" points="316.814,-44.5001 326.814,-41 316.814,-37.5001 316.814,-44.5001"/>
<text text-anchor="middle" x="286" y="-44.8" font-family="Times,serif" font-size="14.00">u0001</text>
</g>
<!-- 3 -->
<g id="node4" class="node"><title>3</title>
<ellipse fill="none" stroke="black" cx="463" cy="-72" rx="18" ry="18"/>
</g>
<!-- 2&#45;&gt;3 -->
<g id="edge3" class="edge"><title>2&#45;&gt;3</title>
<path fill="none" stroke="black" d="M362.62,-45.4415C381.657,-50.5289 413.103,-58.9327 435.523,-64.9243"/>
<polygon fill="black" stroke="black" points="434.846,-68.3662 445.411,-67.5667 436.654,-61.6035 434.846,-68.3662"/>
<text text-anchor="middle" x="404" y="-64.8" font-family="Times,serif" font-size="14.00">u0004</text>
</g>
<!-- 4 -->
<g id="node8" class="node"><title>4</title>
<ellipse fill="none" stroke="black" cx="463" cy="-18" rx="18" ry="18"/>
</g>
<!-- 2&#45;&gt;4 -->
<g id="edge4" class="edge"><title>2&#45;&gt;4</title>
<path fill="none" stroke="black" d="M362.278,-35.9131C368.141,-34.197 374.831,-32.3712 381,-31 398.735,-27.0579 418.908,-23.8166 434.685,-21.5565"/>
<polygon fill="black" stroke="black" points="435.396,-24.9915 444.821,-20.152 434.436,-18.0577 435.396,-24.9915"/>
<text text-anchor="middle" x="404" y="-34.8" font-family="Times,serif" font-size="14.00">u0005</text>
</g>
<!-- 5 -->
<g id="node5" class="node"><title>5</title>
<ellipse fill="none" stroke="black" cx="586" cy="-52" rx="18" ry="18"/>
</g>
<!-- 3&#45;&gt;5 -->
<g id="edge5" class="edge"><title>3&#45;&gt;5</title>
<path fill="none" stroke="black" d="M480.825,-69.2191C500.759,-65.9241 534.239,-60.3902 557.856,-56.4867"/>
<polygon fill="black" stroke="black" points="558.633,-59.9058 567.928,-54.8218 557.491,-52.9995 558.633,-59.9058"/>
<text text-anchor="middle" x="522" y="-69.8" font-family="Times,serif" font-size="14.00">u0005</text>
</g>
<!-- 6 -->
<g id="node6" class="node"><title>6</title>
<ellipse fill="none" stroke="black" cx="709" cy="-22" rx="18" ry="18"/>
</g>
<!-- 5&#45;&gt;6 -->
<g id="edge6" class="edge"><title>5&#45;&gt;6</title>
<path fill="none" stroke="black" d="M603.825,-47.8286C623.962,-42.8359 657.922,-34.4159 681.574,-28.5519"/>
<polygon fill="black" stroke="black" points="682.455,-31.9396 691.318,-26.1359 680.77,-25.1454 682.455,-31.9396"/>
<text text-anchor="middle" x="650" y="-44.8" font-family="Times,serif" font-size="14.00">u0003</text>
</g>
<!-- 7 -->
<g id="node7" class="node"><title>7</title>
<ellipse fill="none" stroke="black" cx="831" cy="-22" rx="18" ry="18"/>
<ellipse fill="none" stroke="black" cx="831" cy="-22" rx="22" ry="22"/>
</g>
<!-- 6&#45;&gt;7 -->
<g id="edge7" class="edge"><title>6&#45;&gt;7</title>
<path fill="none" stroke="black" d="M727.193,-22C745.767,-22 775.762,-22 798.57,-22"/>
<polygon fill="black" stroke="black" points="798.793,-25.5001 808.792,-22 798.792,-18.5001 798.793,-25.5001"/>
<text text-anchor="middle" x="768" y="-25.8" font-family="Times,serif" font-size="14.00">u0002</text>
</g>
<!-- 4&#45;&gt;5 -->
<g id="edge8" class="edge"><title>4&#45;&gt;5</title>
<path fill="none" stroke="black" d="M480.48,-22.3402C496.871,-26.6892 522.722,-33.6342 545,-40 549.514,-41.2898 554.303,-42.6949 558.94,-44.0743"/>
<polygon fill="black" stroke="black" points="558.097,-47.4754 568.681,-46.9986 560.109,-40.771 558.097,-47.4754"/>
<text text-anchor="middle" x="522" y="-43.8" font-family="Times,serif" font-size="14.00">u0004</text>
</g>
<!-- 4&#45;&gt;6 -->
<g id="edge9" class="edge"><title>4&#45;&gt;6</title>
<path fill="none" stroke="black" d="M480.969,-15.794C508.046,-12.56 562.694,-7.20384 609,-10 633.351,-11.4704 660.889,-14.9577 680.727,-17.796"/>
<polygon fill="black" stroke="black" points="680.485,-21.298 690.888,-19.2892 681.503,-14.3723 680.485,-21.298"/>
<text text-anchor="middle" x="586" y="-13.8" font-family="Times,serif" font-size="14.00">u0003</text>
</g>
<!-- initial -->
<g id="node9" class="node"><title>initial</title>
</g>
<!-- initial&#45;&gt;0 -->
<g id="edge10" class="edge"><title>initial&#45;&gt;0</title>
<path fill="none" stroke="black" d="M54.195,-41C62.6538,-41 72.0513,-41 80.5951,-41"/>
<polygon fill="black" stroke="black" points="80.8257,-44.5001 90.8257,-41 80.8257,-37.5001 80.8257,-44.5001"/>
</g>
</g>
</svg>
