<svg width="2795px" height="447px"
 viewBox="0.00 0.00 2096.00 335.35" xmlns="http://www.w3.org/2000/svg" xmlns:xlink="http://www.w3.org/1999/xlink">
<g id="graph0" class="graph" transform="scale(1.000022500562514 1.000022500562514) rotate(0) translate(4 331.347)">
<title>Automaton</title>
<polygon fill="white" stroke="none" points="-4,4 -4,-331.347 2092,-331.347 2092,4 -4,4"/>
<!-- 0 -->
<g id="node1" class="node"><title>0</title>
<ellipse fill="none" stroke="black" cx="109" cy="-217.347" rx="18" ry="18"/>
</g>
<!-- 1 -->
<g id="node2" class="node"><title>1</title>
<ellipse fill="none" stroke="black" cx="227" cy="-217.347" rx="18" ry="18"/>
</g>
<!-- 0&#45;&gt;1 -->
<g id="edge1" class="edge"><title>0&#45;&gt;1</title>
<path fill="none" stroke="black" d="M127.116,-217.347C145.964,-217.347 176.531,-217.347 198.696,-217.347"/>
<polygon fill="black" stroke="black" points="198.814,-220.847 208.814,-217.347 198.814,-213.847 198.814,-220.847"/>
<text text-anchor="middle" x="168" y="-221.147" font-family="Times,serif" font-size="14.00">u0001</text>
</g>
<!-- 2 -->
<g id="node3" class="node"><title>2</title>
<ellipse fill="none" stroke="black" cx="345" cy="-217.347" rx="18" ry="18"/>
</g>
<!-- 1&#45;&gt;2 -->
<g id="edge2" class="edge"><title>1&#45;&gt;2</title>
<path fill="none" stroke="black" d="M245.116,-217.347C263.964,-217.347 294.531,-217.347 316.696,-217.347"/>
<polygon fill="black" stroke="black" points="316.814,-220.847 326.814,-217.347 316.814,-213.847 316.814,-220.847"/>
<text text-anchor="middle" x="286" y="-221.147" font-family="Times,serif" font-size="14.00">u0003</text>
</g>
<!-- 3 -->
<g id="node4" class="node"><title>3</title>
<ellipse fill="none" stroke="black" cx="462" cy="-217.347" rx="18" ry="18"/>
</g>
<!-- 2&#45;&gt;3 -->
<g id="edge3" class="edge"><title>2&#45;&gt;3</title>
<path fill="none" stroke="black" d="M363.466,-217.347C382.064,-217.347 411.756,-217.347 433.499,-217.347"/>
<polygon fill="black" stroke="black" points="433.746,-220.847 443.746,-217.347 433.746,-213.847 433.746,-220.847"/>
<text text-anchor="middle" x="403.5" y="-221.147" font-family="Times,serif" font-size="14.00">u000e</text>
</g>
<!-- 4 -->
<g id="node5" class="node"><title>4</title>
<ellipse fill="none" stroke="black" cx="576" cy="-217.347" rx="18" ry="18"/>
</g>
<!-- 3&#45;&gt;4 -->
<g id="edge4" class="edge"><title>3&#45;&gt;4</title>
<path fill="none" stroke="black" d="M480.01,-217.347C497.937,-217.347 526.445,-217.347 547.558,-217.347"/>
<polygon fill="black" stroke="black" points="547.83,-220.847 557.83,-217.347 547.829,-213.847 547.83,-220.847"/>
<text text-anchor="middle" x="519" y="-221.147" font-family="Times,serif" font-size="14.00">u000f</text>
</g>
<!-- 5 -->
<g id="node6" class="node"><title>5</title>
<ellipse fill="none" stroke="black" cx="694" cy="-217.347" rx="18" ry="18"/>
</g>
<!-- 4&#45;&gt;5 -->
<g id="edge5" class="edge"><title>4&#45;&gt;5</title>
<path fill="none" stroke="black" d="M594.116,-217.347C612.964,-217.347 643.531,-217.347 665.696,-217.347"/>
<polygon fill="black" stroke="black" points="665.814,-220.847 675.814,-217.347 665.814,-213.847 665.814,-220.847"/>
<text text-anchor="middle" x="635" y="-221.147" font-family="Times,serif" font-size="14.00">u0002</text>
</g>
<!-- 6 -->
<g id="node7" class="node"><title>6</title>
<ellipse fill="none" stroke="black" cx="945" cy="-227.347" rx="18" ry="18"/>
</g>
<!-- 5&#45;&gt;6 -->
<g id="edge6" class="edge"><title>5&#45;&gt;6</title>
<path fill="none" stroke="black" d="M711.607,-221.913C717.382,-223.294 723.933,-224.634 730,-225.347 796.757,-233.195 876.035,-230.95 916.798,-228.957"/>
<polygon fill="black" stroke="black" points="917.196,-232.441 926.999,-228.424 916.83,-225.451 917.196,-232.441"/>
<text text-anchor="middle" x="817" y="-234.147" font-family="Times,serif" font-size="14.00">u000d</text>
</g>
<!-- 8 -->
<g id="node9" class="node"><title>8</title>
<ellipse fill="none" stroke="black" cx="1196" cy="-159.347" rx="18" ry="18"/>
</g>
<!-- 5&#45;&gt;8 -->
<g id="edge8" class="edge"><title>5&#45;&gt;8</title>
<path fill="none" stroke="black" d="M707.068,-230.186C727.439,-250.395 770.86,-287.347 816,-287.347 816,-287.347 816,-287.347 1074,-287.347 1129.72,-287.347 1167.42,-222.498 1184.53,-185.116"/>
<polygon fill="black" stroke="black" points="1187.79,-186.382 1188.62,-175.819 1181.39,-183.563 1187.79,-186.382"/>
<text text-anchor="middle" x="945" y="-291.147" font-family="Times,serif" font-size="14.00">u0006</text>
</g>
<!-- 7 -->
<g id="node20" class="node"><title>7</title>
<ellipse fill="none" stroke="black" cx="817" cy="-92.3471" rx="18" ry="18"/>
</g>
<!-- 5&#45;&gt;7 -->
<g id="edge7" class="edge"><title>5&#45;&gt;7</title>
<path fill="none" stroke="black" d="M705.984,-203.407C712.704,-195.074 721.599,-184.384 730,-175.347 751.44,-152.284 777.683,-127.397 795.499,-110.953"/>
<polygon fill="black" stroke="black" points="798.043,-113.369 803.045,-104.029 793.31,-108.212 798.043,-113.369"/>
<text text-anchor="middle" x="753" y="-179.147" font-family="Times,serif" font-size="14.00">u000c</text>
</g>
<!-- 9 -->
<g id="node22" class="node"><title>9</title>
<ellipse fill="none" stroke="black" cx="817" cy="-180.347" rx="18" ry="18"/>
</g>
<!-- 5&#45;&gt;9 -->
<g id="edge9" class="edge"><title>5&#45;&gt;9</title>
<path fill="none" stroke="black" d="M711.319,-212.357C731.435,-206.206 765.882,-195.673 789.739,-188.377"/>
<polygon fill="black" stroke="black" points="791.014,-191.647 799.554,-185.376 788.967,-184.953 791.014,-191.647"/>
<text text-anchor="middle" x="753" y="-211.147" font-family="Times,serif" font-size="14.00">u0000</text>
</g>
<!-- 10 -->
<g id="node8" class="node"><title>10</title>
<ellipse fill="none" stroke="black" cx="1073" cy="-84.3471" rx="18" ry="18"/>
</g>
<!-- 6&#45;&gt;10 -->
<g id="edge10" class="edge"><title>6&#45;&gt;10</title>
<path fill="none" stroke="black" d="M962.487,-222.614C984.734,-215.907 1022.67,-203.242 1032,-192.347 1054.59,-165.987 1035.93,-148.079 1050,-116.347 1051.47,-113.042 1053.28,-109.718 1055.24,-106.527"/>
<polygon fill="black" stroke="black" points="1058.28,-108.27 1060.95,-98.0156 1052.47,-104.37 1058.28,-108.27"/>
<text text-anchor="middle" x="1009" y="-219.147" font-family="Times,serif" font-size="14.00">u000c</text>
</g>
<!-- 6&#45;&gt;8 -->
<g id="edge11" class="edge"><title>6&#45;&gt;8</title>
<path fill="none" stroke="black" d="M962.891,-229.602C980.292,-231.536 1008.16,-233.548 1032,-230.347 1090.45,-222.5 1109.21,-225.325 1160,-195.347 1166.36,-191.596 1172.33,-186.389 1177.49,-181.1"/>
<polygon fill="black" stroke="black" points="1180.3,-183.215 1184.41,-173.45 1175.1,-178.521 1180.3,-183.215"/>
<text text-anchor="middle" x="1073" y="-231.147" font-family="Times,serif" font-size="14.00">u0006</text>
</g>
<!-- 10&#45;&gt;8 -->
<g id="edge12" class="edge"><title>10&#45;&gt;8</title>
<path fill="none" stroke="black" d="M1090.97,-85.9157C1109.45,-88.3419 1139.14,-94.4095 1160,-109.347 1169.05,-115.825 1176.56,-125.4 1182.28,-134.443"/>
<polygon fill="black" stroke="black" points="1179.31,-136.309 1187.38,-143.173 1185.35,-132.774 1179.31,-136.309"/>
<text text-anchor="middle" x="1137" y="-113.147" font-family="Times,serif" font-size="14.00">u0006</text>
</g>
<!-- 12 -->
<g id="node10" class="node"><title>12</title>
<ellipse fill="none" stroke="black" cx="1314" cy="-159.347" rx="18" ry="18"/>
</g>
<!-- 8&#45;&gt;12 -->
<g id="edge13" class="edge"><title>8&#45;&gt;12</title>
<path fill="none" stroke="black" d="M1214.12,-159.347C1232.96,-159.347 1263.53,-159.347 1285.7,-159.347"/>
<polygon fill="black" stroke="black" points="1285.81,-162.847 1295.81,-159.347 1285.81,-155.847 1285.81,-162.847"/>
<text text-anchor="middle" x="1255" y="-163.147" font-family="Times,serif" font-size="14.00">u0004</text>
</g>
<!-- 13 -->
<g id="node11" class="node"><title>13</title>
<ellipse fill="none" stroke="black" cx="1432" cy="-159.347" rx="18" ry="18"/>
</g>
<!-- 12&#45;&gt;13 -->
<g id="edge14" class="edge"><title>12&#45;&gt;13</title>
<path fill="none" stroke="black" d="M1332.12,-159.347C1350.96,-159.347 1381.53,-159.347 1403.7,-159.347"/>
<polygon fill="black" stroke="black" points="1403.81,-162.847 1413.81,-159.347 1403.81,-155.847 1403.81,-162.847"/>
<text text-anchor="middle" x="1373" y="-163.147" font-family="Times,serif" font-size="14.00">u0005</text>
</g>
<!-- 13&#45;&gt;13 -->
<g id="edge19" class="edge"><title>13&#45;&gt;13</title>
<path fill="none" stroke="black" d="M1422.19,-174.514C1419.21,-185.011 1422.48,-195.347 1432,-195.347 1438.24,-195.347 1441.8,-190.896 1442.67,-184.869"/>
<polygon fill="black" stroke="black" points="1446.12,-184.193 1441.81,-174.514 1439.15,-184.767 1446.12,-184.193"/>
<text text-anchor="middle" x="1432" y="-199.147" font-family="Times,serif" font-size="14.00">u000a</text>
</g>
<!-- 14 -->
<g id="node12" class="node"><title>14</title>
<ellipse fill="none" stroke="black" cx="1555" cy="-247.347" rx="18" ry="18"/>
</g>
<!-- 13&#45;&gt;14 -->
<g id="edge15" class="edge"><title>13&#45;&gt;14</title>
<path fill="none" stroke="black" d="M1443.31,-173.393C1449.8,-181.602 1458.68,-191.799 1468,-199.347 1486.73,-214.506 1510.89,-227.52 1528.84,-236.157"/>
<polygon fill="black" stroke="black" points="1527.55,-239.42 1538.09,-240.491 1530.52,-233.08 1527.55,-239.42"/>
<text text-anchor="middle" x="1491" y="-231.147" font-family="Times,serif" font-size="14.00">u0008</text>
</g>
<!-- 15 -->
<g id="node17" class="node"><title>15</title>
<ellipse fill="none" stroke="black" cx="1555" cy="-47.3471" rx="18" ry="18"/>
</g>
<!-- 13&#45;&gt;15 -->
<g id="edge16" class="edge"><title>13&#45;&gt;15</title>
<path fill="none" stroke="black" d="M1441.03,-143.493C1447.33,-132.043 1456.89,-116.667 1468,-105.347 1486.27,-86.7448 1511.37,-70.6341 1529.75,-60.1457"/>
<polygon fill="black" stroke="black" points="1531.62,-63.1058 1538.67,-55.19 1528.22,-56.9866 1531.62,-63.1058"/>
<text text-anchor="middle" x="1491" y="-109.147" font-family="Times,serif" font-size="14.00">u0011</text>
</g>
<!-- 16 -->
<g id="node18" class="node"><title>16</title>
<ellipse fill="none" stroke="black" cx="1683" cy="-66.3471" rx="18" ry="18"/>
</g>
<!-- 13&#45;&gt;16 -->
<g id="edge17" class="edge"><title>13&#45;&gt;16</title>
<path fill="none" stroke="black" d="M1449.72,-163.799C1487.68,-172.864 1581.77,-189.329 1642,-148.347 1660.34,-135.867 1670.59,-112.497 1676.1,-93.8895"/>
<polygon fill="black" stroke="black" points="1679.51,-94.7054 1678.71,-84.1412 1672.75,-92.9012 1679.51,-94.7054"/>
<text text-anchor="middle" x="1555" y="-179.147" font-family="Times,serif" font-size="14.00">u0010</text>
</g>
<!-- 13&#45;&gt;16 -->
<g id="edge18" class="edge"><title>13&#45;&gt;16</title>
<path fill="none" stroke="black" d="M1450.11,-157.772C1494.08,-153.475 1609.77,-140.505 1642,-120.347 1653.25,-113.314 1662.39,-101.877 1669.09,-91.3345"/>
<polygon fill="black" stroke="black" points="1672.27,-92.8267 1674.33,-82.4338 1666.24,-89.2744 1672.27,-92.8267"/>
<text text-anchor="middle" x="1555" y="-152.147" font-family="Times,serif" font-size="14.00">u000b</text>
</g>
<!-- 14&#45;&gt;14 -->
<g id="edge23" class="edge"><title>14&#45;&gt;14</title>
<path fill="none" stroke="black" d="M1544.29,-262.139C1540.81,-272.764 1544.38,-283.347 1555,-283.347 1562.14,-283.347 1566.09,-278.57 1566.86,-272.212"/>
<polygon fill="black" stroke="black" points="1570.32,-271.676 1565.71,-262.139 1563.37,-272.472 1570.32,-271.676"/>
<text text-anchor="middle" x="1555" y="-287.147" font-family="Times,serif" font-size="14.00">u000a</text>
</g>
<!-- 17 -->
<g id="node13" class="node"><title>17</title>
<ellipse fill="none" stroke="black" cx="1683" cy="-186.347" rx="18" ry="18"/>
</g>
<!-- 14&#45;&gt;17 -->
<g id="edge20" class="edge"><title>14&#45;&gt;17</title>
<path fill="none" stroke="black" d="M1571.45,-239.867C1592.89,-229.486 1631.91,-210.598 1657.39,-198.263"/>
<polygon fill="black" stroke="black" points="1658.95,-201.396 1666.42,-193.888 1655.9,-195.095 1658.95,-201.396"/>
<text text-anchor="middle" x="1619" y="-231.147" font-family="Times,serif" font-size="14.00">u0011</text>
</g>
<!-- 18 -->
<g id="node14" class="node"><title>18</title>
<ellipse fill="none" stroke="black" cx="1811" cy="-243.347" rx="18" ry="18"/>
</g>
<!-- 14&#45;&gt;18 -->
<g id="edge21" class="edge"><title>14&#45;&gt;18</title>
<path fill="none" stroke="black" d="M1566.13,-261.791C1573.34,-270.819 1583.87,-281.759 1596,-287.347 1640.45,-307.823 1657.1,-294.254 1706,-292.347 1734.51,-291.235 1744.38,-299.898 1770,-287.347 1779.63,-282.628 1788.04,-274.492 1794.62,-266.489"/>
<polygon fill="black" stroke="black" points="1797.54,-268.428 1800.8,-258.346 1791.97,-264.197 1797.54,-268.428"/>
<text text-anchor="middle" x="1683" y="-300.147" font-family="Times,serif" font-size="14.00">u0010</text>
</g>
<!-- 14&#45;&gt;18 -->
<g id="edge22" class="edge"><title>14&#45;&gt;18</title>
<path fill="none" stroke="black" d="M1573.04,-250.08C1609.43,-255.459 1697.35,-266.01 1770,-255.347 1774.64,-254.665 1779.5,-253.561 1784.16,-252.291"/>
<polygon fill="black" stroke="black" points="1785.34,-255.592 1793.9,-249.347 1783.31,-248.891 1785.34,-255.592"/>
<text text-anchor="middle" x="1683" y="-263.147" font-family="Times,serif" font-size="14.00">u000b</text>
</g>
<!-- 17&#45;&gt;17 -->
<g id="edge25" class="edge"><title>17&#45;&gt;17</title>
<path fill="none" stroke="black" d="M1672.29,-201.139C1668.81,-211.764 1672.38,-222.347 1683,-222.347 1690.14,-222.347 1694.09,-217.57 1694.86,-211.212"/>
<polygon fill="black" stroke="black" points="1698.32,-210.676 1693.71,-201.139 1691.37,-211.472 1698.32,-210.676"/>
<text text-anchor="middle" x="1683" y="-226.147" font-family="Times,serif" font-size="14.00">u000a</text>
</g>
<!-- 17&#45;&gt;18 -->
<g id="edge24" class="edge"><title>17&#45;&gt;18</title>
<path fill="none" stroke="black" d="M1701.06,-187.714C1719.1,-189.736 1747.92,-194.644 1770,-206.347 1777.76,-210.46 1785.15,-216.453 1791.42,-222.424"/>
<polygon fill="black" stroke="black" points="1789.19,-225.156 1798.7,-229.831 1794.19,-220.247 1789.19,-225.156"/>
<text text-anchor="middle" x="1747" y="-210.147" font-family="Times,serif" font-size="14.00">u000b</text>
</g>
<!-- 18&#45;&gt;17 -->
<g id="edge27" class="edge"><title>18&#45;&gt;17</title>
<path fill="none" stroke="black" d="M1793,-241.38C1775.02,-238.769 1746.23,-233.05 1724,-221.347 1716.54,-217.418 1709.3,-211.832 1703.09,-206.274"/>
<polygon fill="black" stroke="black" points="1705.48,-203.72 1695.82,-199.375 1700.66,-208.798 1705.48,-203.72"/>
<text text-anchor="middle" x="1747" y="-240.147" font-family="Times,serif" font-size="14.00">u0011</text>
</g>
<!-- 18&#45;&gt;18 -->
<g id="edge29" class="edge"><title>18&#45;&gt;18</title>
<path fill="none" stroke="black" d="M1805.29,-260.757C1804.22,-270.435 1806.12,-279.347 1811,-279.347 1814.05,-279.347 1815.93,-275.866 1816.66,-270.892"/>
<polygon fill="black" stroke="black" points="1820.16,-270.775 1816.71,-260.757 1813.16,-270.738 1820.16,-270.775"/>
<text text-anchor="middle" x="1811" y="-283.147" font-family="Times,serif" font-size="14.00">u0010</text>
</g>
<!-- 18&#45;&gt;18 -->
<g id="edge30" class="edge"><title>18&#45;&gt;18</title>
<path fill="none" stroke="black" d="M1802.09,-259.102C1795.97,-276.886 1798.94,-297.347 1811,-297.347 1820.9,-297.347 1824.67,-283.578 1822.33,-268.813"/>
<polygon fill="black" stroke="black" points="1825.72,-267.958 1819.91,-259.102 1818.93,-269.651 1825.72,-267.958"/>
<text text-anchor="middle" x="1811" y="-301.147" font-family="Times,serif" font-size="14.00">u000a&#45;u000b</text>
</g>
<!-- 21 -->
<g id="node15" class="node"><title>21</title>
<ellipse fill="none" stroke="black" cx="1939" cy="-189.347" rx="18" ry="18"/>
</g>
<!-- 18&#45;&gt;21 -->
<g id="edge26" class="edge"><title>18&#45;&gt;21</title>
<path fill="none" stroke="black" d="M1828.9,-241.185C1846.8,-238.411 1875.52,-232.558 1898,-221.347 1905,-217.855 1911.92,-212.982 1917.98,-208.091"/>
<polygon fill="black" stroke="black" points="1920.32,-210.697 1925.64,-201.537 1915.77,-205.378 1920.32,-210.697"/>
<text text-anchor="middle" x="1875" y="-240.147" font-family="Times,serif" font-size="14.00">u0009</text>
</g>
<!-- 20 -->
<g id="node16" class="node"><title>20</title>
<ellipse fill="none" stroke="black" cx="2066" cy="-137.347" rx="18" ry="18"/>
<ellipse fill="none" stroke="black" cx="2066" cy="-137.347" rx="22" ry="22"/>
</g>
<!-- 18&#45;&gt;20 -->
<g id="edge28" class="edge"><title>18&#45;&gt;20</title>
<path fill="none" stroke="black" d="M1822.55,-257.398C1829.79,-265.804 1840.2,-275.725 1852,-280.347 1871.04,-287.802 1878.07,-284.919 1898,-280.347 1965.29,-264.909 1979.96,-243.792 2026,-192.347 2033.75,-183.688 2041.35,-173.474 2047.76,-164.213"/>
<polygon fill="black" stroke="black" points="2050.81,-165.954 2053.5,-155.707 2045,-162.038 2050.81,-165.954"/>
<text text-anchor="middle" x="1939" y="-279.147" font-family="Times,serif" font-size="14.00">u0007</text>
</g>
<!-- 21&#45;&gt;17 -->
<g id="edge31" class="edge"><title>21&#45;&gt;17</title>
<path fill="none" stroke="black" d="M1920.89,-187.781C1913.81,-187.206 1905.52,-186.629 1898,-186.347 1831,-183.838 1752.12,-184.866 1711.41,-185.692"/>
<polygon fill="black" stroke="black" points="1711.13,-182.197 1701.21,-185.911 1711.28,-189.195 1711.13,-182.197"/>
<text text-anchor="middle" x="1811" y="-189.147" font-family="Times,serif" font-size="14.00">u0011</text>
</g>
<!-- 21&#45;&gt;18 -->
<g id="edge33" class="edge"><title>21&#45;&gt;18</title>
<path fill="none" stroke="black" d="M1920.87,-188.8C1902.78,-188.916 1873.9,-191.115 1852,-202.347 1843.35,-206.783 1835.47,-213.809 1829.04,-220.801"/>
<polygon fill="black" stroke="black" points="1826.02,-218.954 1822.19,-228.835 1831.35,-223.494 1826.02,-218.954"/>
<text text-anchor="middle" x="1875" y="-206.147" font-family="Times,serif" font-size="14.00">u0010</text>
</g>
<!-- 21&#45;&gt;18 -->
<g id="edge34" class="edge"><title>21&#45;&gt;18</title>
<path fill="none" stroke="black" d="M1933.01,-206.39C1927.36,-222.252 1916.44,-244.958 1898,-255.347 1879.36,-265.848 1854.95,-261.016 1836.9,-254.626"/>
<polygon fill="black" stroke="black" points="1837.94,-251.274 1827.36,-250.895 1835.4,-257.794 1837.94,-251.274"/>
<text text-anchor="middle" x="1875" y="-265.147" font-family="Times,serif" font-size="14.00">u000b</text>
</g>
<!-- 21&#45;&gt;21 -->
<g id="edge35" class="edge"><title>21&#45;&gt;21</title>
<path fill="none" stroke="black" d="M1928.29,-204.139C1924.81,-214.764 1928.38,-225.347 1939,-225.347 1946.14,-225.347 1950.09,-220.57 1950.86,-214.212"/>
<polygon fill="black" stroke="black" points="1954.32,-213.676 1949.71,-204.139 1947.37,-214.472 1954.32,-213.676"/>
<text text-anchor="middle" x="1939" y="-229.147" font-family="Times,serif" font-size="14.00">u000a</text>
</g>
<!-- 21&#45;&gt;20 -->
<g id="edge32" class="edge"><title>21&#45;&gt;20</title>
<path fill="none" stroke="black" d="M1955.83,-182.761C1975.9,-174.414 2010.88,-159.862 2035.83,-149.481"/>
<polygon fill="black" stroke="black" points="2037.29,-152.664 2045.18,-145.591 2034.61,-146.201 2037.29,-152.664"/>
<text text-anchor="middle" x="2003" y="-177.147" font-family="Times,serif" font-size="14.00">u0007</text>
</g>
<!-- 15&#45;&gt;17 -->
<g id="edge36" class="edge"><title>15&#45;&gt;17</title>
<path fill="none" stroke="black" d="M1567.63,-60.1747C1589.46,-84.2563 1636.75,-136.426 1663.17,-165.576"/>
<polygon fill="black" stroke="black" points="1660.72,-168.087 1670.03,-173.145 1665.91,-163.385 1660.72,-168.087"/>
<text text-anchor="middle" x="1619" y="-146.147" font-family="Times,serif" font-size="14.00">u0008</text>
</g>
<!-- 15&#45;&gt;15 -->
<g id="edge38" class="edge"><title>15&#45;&gt;15</title>
<path fill="none" stroke="black" d="M1544.29,-62.1387C1540.81,-72.7636 1544.38,-83.3471 1555,-83.3471 1562.14,-83.3471 1566.09,-78.5695 1566.86,-72.2118"/>
<polygon fill="black" stroke="black" points="1570.32,-71.6759 1565.71,-62.1387 1563.37,-72.4719 1570.32,-71.6759"/>
<text text-anchor="middle" x="1555" y="-87.1471" font-family="Times,serif" font-size="14.00">u000a</text>
</g>
<!-- 15&#45;&gt;16 -->
<g id="edge37" class="edge"><title>15&#45;&gt;16</title>
<path fill="none" stroke="black" d="M1571.06,-38.7484C1578.34,-35.0705 1587.36,-31.2009 1596,-29.3471 1615.99,-25.0567 1622.96,-21.8926 1642,-29.3471 1650.3,-32.5969 1657.91,-38.4665 1664.21,-44.5871"/>
<polygon fill="black" stroke="black" points="1662.05,-47.4012 1671.45,-52.2961 1667.15,-42.6099 1662.05,-47.4012"/>
<text text-anchor="middle" x="1619" y="-33.1471" font-family="Times,serif" font-size="14.00">u000b</text>
</g>
<!-- 16&#45;&gt;18 -->
<g id="edge40" class="edge"><title>16&#45;&gt;18</title>
<path fill="none" stroke="black" d="M1694.23,-80.7865C1702.14,-91.7954 1713.49,-107.243 1724,-120.347 1743.52,-144.675 1751.95,-147.907 1770,-173.347 1780.2,-187.725 1790.04,-204.897 1797.41,-218.635"/>
<polygon fill="black" stroke="black" points="1794.34,-220.304 1802.1,-227.52 1800.53,-217.042 1794.34,-220.304"/>
<text text-anchor="middle" x="1747" y="-177.147" font-family="Times,serif" font-size="14.00">u0008</text>
</g>
<!-- 16&#45;&gt;20 -->
<g id="edge42" class="edge"><title>16&#45;&gt;20</title>
<path fill="none" stroke="black" d="M1699.15,-74.8345C1706.46,-78.5877 1715.47,-82.7339 1724,-85.3471 1834.73,-119.283 1972.76,-131.621 2033.66,-135.627"/>
<polygon fill="black" stroke="black" points="2033.57,-139.128 2043.77,-136.261 2034.01,-132.142 2033.57,-139.128"/>
<text text-anchor="middle" x="1875" y="-126.147" font-family="Times,serif" font-size="14.00">u0007</text>
</g>
<!-- 16&#45;&gt;15 -->
<g id="edge41" class="edge"><title>16&#45;&gt;15</title>
<path fill="none" stroke="black" d="M1664.87,-63.7646C1643.86,-60.5962 1607.98,-55.1861 1583.19,-51.447"/>
<polygon fill="black" stroke="black" points="1583.4,-47.9398 1572.99,-49.9095 1582.36,-54.8615 1583.4,-47.9398"/>
<text text-anchor="middle" x="1619" y="-64.1471" font-family="Times,serif" font-size="14.00">u0011</text>
</g>
<!-- 16&#45;&gt;16 -->
<g id="edge43" class="edge"><title>16&#45;&gt;16</title>
<path fill="none" stroke="black" d="M1677.29,-83.757C1676.22,-93.435 1678.12,-102.347 1683,-102.347 1686.05,-102.347 1687.93,-98.8658 1688.66,-93.892"/>
<polygon fill="black" stroke="black" points="1692.16,-93.7754 1688.71,-83.757 1685.16,-93.7383 1692.16,-93.7754"/>
<text text-anchor="middle" x="1683" y="-106.147" font-family="Times,serif" font-size="14.00">u0010</text>
</g>
<!-- 16&#45;&gt;16 -->
<g id="edge44" class="edge"><title>16&#45;&gt;16</title>
<path fill="none" stroke="black" d="M1674.09,-82.1017C1667.97,-99.8856 1670.94,-120.347 1683,-120.347 1692.9,-120.347 1696.67,-106.578 1694.33,-91.8134"/>
<polygon fill="black" stroke="black" points="1697.72,-90.958 1691.91,-82.1017 1690.93,-92.6514 1697.72,-90.958"/>
<text text-anchor="middle" x="1683" y="-124.147" font-family="Times,serif" font-size="14.00">u000a&#45;u000b</text>
</g>
<!-- 19 -->
<g id="node19" class="node"><title>19</title>
<ellipse fill="none" stroke="black" cx="1811" cy="-30.3471" rx="18" ry="18"/>
</g>
<!-- 16&#45;&gt;19 -->
<g id="edge39" class="edge"><title>16&#45;&gt;19</title>
<path fill="none" stroke="black" d="M1701.03,-66.9618C1718.78,-67.0586 1747.15,-65.6636 1770,-57.3471 1776.41,-55.0156 1782.78,-51.4382 1788.5,-47.6425"/>
<polygon fill="black" stroke="black" points="1790.77,-50.3217 1796.85,-41.646 1786.69,-44.6358 1790.77,-50.3217"/>
<text text-anchor="middle" x="1747" y="-70.1471" font-family="Times,serif" font-size="14.00">u0009</text>
</g>
<!-- 19&#45;&gt;21 -->
<g id="edge45" class="edge"><title>19&#45;&gt;21</title>
<path fill="none" stroke="black" d="M1827.99,-36.4339C1850.04,-45.1048 1888.16,-61.1958 1898,-72.3471 1920.22,-97.5299 1930.22,-135.629 1934.64,-161.452"/>
<polygon fill="black" stroke="black" points="1931.18,-162.01 1936.16,-171.361 1938.1,-160.945 1931.18,-162.01"/>
<text text-anchor="middle" x="1875" y="-76.1471" font-family="Times,serif" font-size="14.00">u0008</text>
</g>
<!-- 19&#45;&gt;20 -->
<g id="edge47" class="edge"><title>19&#45;&gt;20</title>
<path fill="none" stroke="black" d="M1829,-32.0779C1867.23,-36.6587 1961.64,-51.883 2026,-95.3471 2032.96,-100.046 2039.57,-106.21 2045.3,-112.363"/>
<polygon fill="black" stroke="black" points="2042.82,-114.844 2052.05,-120.039 2048.07,-110.22 2042.82,-114.844"/>
<text text-anchor="middle" x="1939" y="-66.1471" font-family="Times,serif" font-size="14.00">u0007</text>
</g>
<!-- 19&#45;&gt;15 -->
<g id="edge46" class="edge"><title>19&#45;&gt;15</title>
<path fill="none" stroke="black" d="M1796.99,-18.6386C1789.63,-12.816 1779.93,-6.38628 1770,-3.34708 1750.45,2.6336 1744.39,-1.92011 1724,-3.34708 1666.69,-7.35686 1649.81,-1.21472 1596,-21.3471 1589.79,-23.6709 1583.55,-27.0843 1577.91,-30.6783"/>
<polygon fill="black" stroke="black" points="1575.9,-27.8097 1569.63,-36.3443 1579.86,-33.5874 1575.9,-27.8097"/>
<text text-anchor="middle" x="1683" y="-10.1471" font-family="Times,serif" font-size="14.00">u0011</text>
</g>
<!-- 19&#45;&gt;16 -->
<g id="edge48" class="edge"><title>19&#45;&gt;16</title>
<path fill="none" stroke="black" d="M1792.95,-29.4056C1775.19,-28.9972 1746.8,-29.9777 1724,-38.3471 1717.52,-40.7237 1711.12,-44.4185 1705.41,-48.3535"/>
<polygon fill="black" stroke="black" points="1702.99,-45.7921 1697.07,-54.5795 1707.17,-51.401 1702.99,-45.7921"/>
<text text-anchor="middle" x="1747" y="-42.1471" font-family="Times,serif" font-size="14.00">u0010</text>
</g>
<!-- 19&#45;&gt;16 -->
<g id="edge49" class="edge"><title>19&#45;&gt;16</title>
<path fill="none" stroke="black" d="M1795.25,-21.3615C1777.49,-11.8006 1747.16,0.448419 1724,-11.3471 1711.67,-17.6256 1702.25,-29.6811 1695.65,-40.9089"/>
<polygon fill="black" stroke="black" points="1692.42,-39.5337 1690.78,-50.0006 1698.59,-42.8419 1692.42,-39.5337"/>
<text text-anchor="middle" x="1747" y="-15.1471" font-family="Times,serif" font-size="14.00">u000b</text>
</g>
<!-- 19&#45;&gt;19 -->
<g id="edge50" class="edge"><title>19&#45;&gt;19</title>
<path fill="none" stroke="black" d="M1800.29,-45.1387C1796.81,-55.7636 1800.38,-66.3471 1811,-66.3471 1818.14,-66.3471 1822.09,-61.5695 1822.86,-55.2118"/>
<polygon fill="black" stroke="black" points="1826.32,-54.6759 1821.71,-45.1387 1819.37,-55.4719 1826.32,-54.6759"/>
<text text-anchor="middle" x="1811" y="-70.1471" font-family="Times,serif" font-size="14.00">u000a</text>
</g>
<!-- 7&#45;&gt;10 -->
<g id="edge51" class="edge"><title>7&#45;&gt;10</title>
<path fill="none" stroke="black" d="M835.287,-91.1149C855.915,-89.6989 891.455,-87.4313 922,-86.3471 964.885,-84.8249 1014.7,-84.4336 1044.77,-84.3481"/>
<polygon fill="black" stroke="black" points="1044.9,-87.8479 1054.9,-84.3289 1044.89,-80.8479 1044.9,-87.8479"/>
<text text-anchor="middle" x="945" y="-90.1471" font-family="Times,serif" font-size="14.00">u000d</text>
</g>
<!-- 7&#45;&gt;8 -->
<g id="edge52" class="edge"><title>7&#45;&gt;8</title>
<path fill="none" stroke="black" d="M834.164,-86.4778C877.197,-71.6746 997.951,-35.5071 1096,-57.3471 1126.66,-64.1771 1137.63,-65.2913 1160,-87.3471 1172.62,-99.7948 1181.36,-117.714 1186.94,-132.562"/>
<polygon fill="black" stroke="black" points="1183.72,-133.953 1190.32,-142.246 1190.33,-131.651 1183.72,-133.953"/>
<text text-anchor="middle" x="1009" y="-57.1471" font-family="Times,serif" font-size="14.00">u0006</text>
</g>
<!-- 11 -->
<g id="node21" class="node"><title>11</title>
<ellipse fill="none" stroke="black" cx="945" cy="-128.347" rx="18" ry="18"/>
</g>
<!-- 7&#45;&gt;11 -->
<g id="edge53" class="edge"><title>7&#45;&gt;11</title>
<path fill="none" stroke="black" d="M835.128,-94.4551C852.718,-96.9145 880.735,-101.655 904,-109.347 909.16,-111.053 914.52,-113.265 919.576,-115.575"/>
<polygon fill="black" stroke="black" points="918.266,-118.829 928.793,-120.027 921.311,-112.526 918.266,-118.829"/>
<text text-anchor="middle" x="881" y="-113.147" font-family="Times,serif" font-size="14.00">u0000</text>
</g>
<!-- 11&#45;&gt;10 -->
<g id="edge54" class="edge"><title>11&#45;&gt;10</title>
<path fill="none" stroke="black" d="M961.325,-120.358C968.669,-116.713 977.664,-112.515 986,-109.347 1005.5,-101.937 1028.18,-95.4276 1045.35,-90.9101"/>
<polygon fill="black" stroke="black" points="1046.44,-94.244 1055.25,-88.3644 1044.7,-87.4645 1046.44,-94.244"/>
<text text-anchor="middle" x="1009" y="-113.147" font-family="Times,serif" font-size="14.00">u000d</text>
</g>
<!-- 11&#45;&gt;8 -->
<g id="edge55" class="edge"><title>11&#45;&gt;8</title>
<path fill="none" stroke="black" d="M963.115,-130.478C1005.69,-135.778 1116.61,-149.588 1168.06,-155.994"/>
<polygon fill="black" stroke="black" points="1167.74,-159.48 1178.09,-157.242 1168.6,-152.534 1167.74,-159.48"/>
<text text-anchor="middle" x="1073" y="-151.147" font-family="Times,serif" font-size="14.00">u0006</text>
</g>
<!-- 9&#45;&gt;6 -->
<g id="edge56" class="edge"><title>9&#45;&gt;6</title>
<path fill="none" stroke="black" d="M834.284,-185.67C851.666,-191.434 879.958,-201.056 904,-210.347 908.764,-212.188 913.805,-214.244 918.644,-216.272"/>
<polygon fill="black" stroke="black" points="917.566,-219.618 928.138,-220.32 920.312,-213.179 917.566,-219.618"/>
<text text-anchor="middle" x="881" y="-214.147" font-family="Times,serif" font-size="14.00">u000d</text>
</g>
<!-- 9&#45;&gt;8 -->
<g id="edge58" class="edge"><title>9&#45;&gt;8</title>
<path fill="none" stroke="black" d="M835.171,-179.623C865.575,-178.344 930.873,-175.604 986,-173.347 1063.33,-170.181 1083.15,-175.52 1160,-166.347 1162.73,-166.021 1165.57,-165.597 1168.39,-165.12"/>
<polygon fill="black" stroke="black" points="1169.18,-168.534 1178.35,-163.233 1167.87,-161.656 1169.18,-168.534"/>
<text text-anchor="middle" x="1009" y="-177.147" font-family="Times,serif" font-size="14.00">u0006</text>
</g>
<!-- 9&#45;&gt;11 -->
<g id="edge57" class="edge"><title>9&#45;&gt;11</title>
<path fill="none" stroke="black" d="M830.231,-167.634C837.642,-160.647 847.642,-152.397 858,-147.347 876.439,-138.358 899.17,-133.572 916.631,-131.053"/>
<polygon fill="black" stroke="black" points="917.261,-134.501 926.736,-129.76 916.373,-127.558 917.261,-134.501"/>
<text text-anchor="middle" x="881" y="-151.147" font-family="Times,serif" font-size="14.00">u000c</text>
</g>
<!-- initial -->
<g id="node23" class="node"><title>initial</title>
</g>
<!-- initial&#45;&gt;0 -->
<g id="edge59" class="edge"><title>initial&#45;&gt;0</title>
<path fill="none" stroke="black" d="M54.195,-217.347C62.6538,-217.347 72.0513,-217.347 80.5951,-217.347"/>
<polygon fill="black" stroke="black" points="80.8257,-220.847 90.8257,-217.347 80.8257,-213.847 80.8257,-220.847"/>
</g>
</g>
</svg>
