<svg width="1148px" height="124px"
 viewBox="0.00 0.00 861.00 93.00" xmlns="http://www.w3.org/2000/svg" xmlns:xlink="http://www.w3.org/1999/xlink">
<g id="graph0" class="graph" transform="scale(1.000022500562514 1.000022500562514) rotate(0) translate(4 89)">
<title>Automaton</title>
<polygon fill="white" stroke="none" points="-4,4 -4,-89 857,-89 857,4 -4,4"/>
<!-- 0 -->
<g id="node1" class="node"><title>0</title>
<ellipse fill="none" stroke="black" cx="109" cy="-34" rx="18" ry="18"/>
</g>
<!-- 1 -->
<g id="node2" class="node"><title>1</title>
<ellipse fill="none" stroke="black" cx="227" cy="-34" rx="18" ry="18"/>
</g>
<!-- 0&#45;&gt;1 -->
<g id="edge1" class="edge"><title>0&#45;&gt;1</title>
<path fill="none" stroke="black" d="M127.116,-34C145.964,-34 176.531,-34 198.696,-34"/>
<polygon fill="black" stroke="black" points="198.814,-37.5001 208.814,-34 198.814,-30.5001 198.814,-37.5001"/>
<text text-anchor="middle" x="168" y="-37.8" font-family="Times,serif" font-size="14.00">u0000</text>
</g>
<!-- 2 -->
<g id="node3" class="node"><title>2</title>
<ellipse fill="none" stroke="black" cx="345" cy="-34" rx="18" ry="18"/>
</g>
<!-- 1&#45;&gt;2 -->
<g id="edge2" class="edge"><title>1&#45;&gt;2</title>
<path fill="none" stroke="black" d="M245.116,-34C263.964,-34 294.531,-34 316.696,-34"/>
<polygon fill="black" stroke="black" points="316.814,-37.5001 326.814,-34 316.814,-30.5001 316.814,-37.5001"/>
<text text-anchor="middle" x="286" y="-37.8" font-family="Times,serif" font-size="14.00">u0001</text>
</g>
<!-- 3 -->
<g id="node4" class="node"><title>3</title>
<ellipse fill="none" stroke="black" cx="463" cy="-34" rx="18" ry="18"/>
</g>
<!-- 2&#45;&gt;3 -->
<g id="edge3" class="edge"><title>2&#45;&gt;3</title>
<path fill="none" stroke="black" d="M363.116,-34C381.964,-34 412.531,-34 434.696,-34"/>
<polygon fill="black" stroke="black" points="434.814,-37.5001 444.814,-34 434.814,-30.5001 434.814,-37.5001"/>
<text text-anchor="middle" x="404" y="-37.8" font-family="Times,serif" font-size="14.00">u0005</text>
</g>
<!-- 3&#45;&gt;3 -->
<g id="edge6" class="edge"><title>3&#45;&gt;3</title>
<path fill="none" stroke="black" d="M453.187,-49.1666C450.213,-59.6641 453.484,-70 463,-70 469.245,-70 472.8,-65.5487 473.666,-59.5216"/>
<polygon fill="black" stroke="black" points="477.122,-58.8455 472.813,-49.1666 470.146,-59.4202 477.122,-58.8455"/>
<text text-anchor="middle" x="463" y="-73.8" font-family="Times,serif" font-size="14.00">u0005</text>
</g>
<!-- 4 -->
<g id="node5" class="node"><title>4</title>
<ellipse fill="none" stroke="black" cx="586" cy="-52" rx="18" ry="18"/>
</g>
<!-- 3&#45;&gt;4 -->
<g id="edge4" class="edge"><title>3&#45;&gt;4</title>
<path fill="none" stroke="black" d="M479.202,-42.5768C485.182,-45.5103 492.228,-48.4429 499,-50 518.223,-54.4201 540.5,-54.8118 557.565,-54.1553"/>
<polygon fill="black" stroke="black" points="558.141,-57.6297 567.941,-53.6042 557.77,-50.6395 558.141,-57.6297"/>
<text text-anchor="middle" x="522" y="-57.8" font-family="Times,serif" font-size="14.00">u0004</text>
</g>
<!-- 5 -->
<g id="node6" class="node"><title>5</title>
<ellipse fill="none" stroke="black" cx="709" cy="-22" rx="18" ry="18"/>
</g>
<!-- 3&#45;&gt;5 -->
<g id="edge5" class="edge"><title>3&#45;&gt;5</title>
<path fill="none" stroke="black" d="M480.324,-29.1056C486.191,-27.4077 492.872,-25.5441 499,-24 527.235,-16.8858 534.052,-13.1292 563,-10 583.326,-7.80282 588.593,-8.76771 609,-10 633.351,-11.4704 660.889,-14.9577 680.727,-17.796"/>
<polygon fill="black" stroke="black" points="680.485,-21.298 690.888,-19.2892 681.503,-14.3723 680.485,-21.298"/>
<text text-anchor="middle" x="586" y="-13.8" font-family="Times,serif" font-size="14.00">u0003</text>
</g>
<!-- 4&#45;&gt;3 -->
<g id="edge8" class="edge"><title>4&#45;&gt;3</title>
<path fill="none" stroke="black" d="M570.495,-42.2034C563.187,-37.8503 553.986,-33.2155 545,-31 527.349,-26.6483 506.885,-27.4526 490.943,-29.3174"/>
<polygon fill="black" stroke="black" points="490.146,-25.894 480.718,-30.7274 491.102,-32.8284 490.146,-25.894"/>
<text text-anchor="middle" x="522" y="-34.8" font-family="Times,serif" font-size="14.00">u0005</text>
</g>
<!-- 4&#45;&gt;5 -->
<g id="edge7" class="edge"><title>4&#45;&gt;5</title>
<path fill="none" stroke="black" d="M603.825,-47.8286C623.962,-42.8359 657.922,-34.4159 681.574,-28.5519"/>
<polygon fill="black" stroke="black" points="682.455,-31.9396 691.318,-26.1359 680.77,-25.1454 682.455,-31.9396"/>
<text text-anchor="middle" x="650" y="-44.8" font-family="Times,serif" font-size="14.00">u0003</text>
</g>
<!-- 6 -->
<g id="node7" class="node"><title>6</title>
<ellipse fill="none" stroke="black" cx="831" cy="-22" rx="18" ry="18"/>
<ellipse fill="none" stroke="black" cx="831" cy="-22" rx="22" ry="22"/>
</g>
<!-- 5&#45;&gt;6 -->
<g id="edge9" class="edge"><title>5&#45;&gt;6</title>
<path fill="none" stroke="black" d="M727.193,-22C745.767,-22 775.762,-22 798.57,-22"/>
<polygon fill="black" stroke="black" points="798.793,-25.5001 808.792,-22 798.792,-18.5001 798.793,-25.5001"/>
<text text-anchor="middle" x="768" y="-25.8" font-family="Times,serif" font-size="14.00">u0002</text>
</g>
<!-- initial -->
<g id="node8" class="node"><title>initial</title>
</g>
<!-- initial&#45;&gt;0 -->
<g id="edge10" class="edge"><title>initial&#45;&gt;0</title>
<path fill="none" stroke="black" d="M54.195,-34C62.6538,-34 72.0513,-34 80.5951,-34"/>
<polygon fill="black" stroke="black" points="80.8257,-37.5001 90.8257,-34 80.8257,-30.5001 80.8257,-37.5001"/>
</g>
</g>
</svg>
