<svg width="2739px" height="649px"
 viewBox="0.00 0.00 2054.00 486.78" xmlns="http://www.w3.org/2000/svg" xmlns:xlink="http://www.w3.org/1999/xlink">
<g id="graph0" class="graph" transform="scale(1.000022500562514 1.000022500562514) rotate(0) translate(4 482.781)">
<title>Automaton</title>
<polygon fill="white" stroke="none" points="-4,4 -4,-482.781 2050,-482.781 2050,4 -4,4"/>
<!-- 0 -->
<g id="node1" class="node"><title>0</title>
<ellipse fill="none" stroke="black" cx="109" cy="-392.781" rx="18" ry="18"/>
</g>
<!-- 1 -->
<g id="node2" class="node"><title>1</title>
<ellipse fill="none" stroke="black" cx="227" cy="-392.781" rx="18" ry="18"/>
</g>
<!-- 0&#45;&gt;1 -->
<g id="edge1" class="edge"><title>0&#45;&gt;1</title>
<path fill="none" stroke="black" d="M127.116,-392.781C145.964,-392.781 176.531,-392.781 198.696,-392.781"/>
<polygon fill="black" stroke="black" points="198.814,-396.281 208.814,-392.781 198.814,-389.281 198.814,-396.281"/>
<text text-anchor="middle" x="168" y="-396.581" font-family="Times,serif" font-size="14.00">u0001</text>
</g>
<!-- 2 -->
<g id="node3" class="node"><title>2</title>
<ellipse fill="none" stroke="black" cx="345" cy="-392.781" rx="18" ry="18"/>
</g>
<!-- 1&#45;&gt;2 -->
<g id="edge2" class="edge"><title>1&#45;&gt;2</title>
<path fill="none" stroke="black" d="M245.116,-392.781C263.964,-392.781 294.531,-392.781 316.696,-392.781"/>
<polygon fill="black" stroke="black" points="316.814,-396.281 326.814,-392.781 316.814,-389.281 316.814,-396.281"/>
<text text-anchor="middle" x="286" y="-396.581" font-family="Times,serif" font-size="14.00">u0003</text>
</g>
<!-- 3 -->
<g id="node4" class="node"><title>3</title>
<ellipse fill="none" stroke="black" cx="462" cy="-392.781" rx="18" ry="18"/>
</g>
<!-- 2&#45;&gt;3 -->
<g id="edge3" class="edge"><title>2&#45;&gt;3</title>
<path fill="none" stroke="black" d="M363.466,-392.781C382.064,-392.781 411.756,-392.781 433.499,-392.781"/>
<polygon fill="black" stroke="black" points="433.746,-396.281 443.746,-392.781 433.746,-389.281 433.746,-396.281"/>
<text text-anchor="middle" x="403.5" y="-396.581" font-family="Times,serif" font-size="14.00">u000e</text>
</g>
<!-- 4 -->
<g id="node5" class="node"><title>4</title>
<ellipse fill="none" stroke="black" cx="576" cy="-392.781" rx="18" ry="18"/>
</g>
<!-- 3&#45;&gt;4 -->
<g id="edge4" class="edge"><title>3&#45;&gt;4</title>
<path fill="none" stroke="black" d="M480.01,-392.781C497.937,-392.781 526.445,-392.781 547.558,-392.781"/>
<polygon fill="black" stroke="black" points="547.83,-396.281 557.83,-392.781 547.829,-389.281 547.83,-396.281"/>
<text text-anchor="middle" x="519" y="-396.581" font-family="Times,serif" font-size="14.00">u000f</text>
</g>
<!-- 5 -->
<g id="node6" class="node"><title>5</title>
<ellipse fill="none" stroke="black" cx="694" cy="-392.781" rx="18" ry="18"/>
</g>
<!-- 4&#45;&gt;5 -->
<g id="edge5" class="edge"><title>4&#45;&gt;5</title>
<path fill="none" stroke="black" d="M594.116,-392.781C612.964,-392.781 643.531,-392.781 665.696,-392.781"/>
<polygon fill="black" stroke="black" points="665.814,-396.281 675.814,-392.781 665.814,-389.281 665.814,-396.281"/>
<text text-anchor="middle" x="635" y="-396.581" font-family="Times,serif" font-size="14.00">u0002</text>
</g>
<!-- 6 -->
<g id="node7" class="node"><title>6</title>
<ellipse fill="none" stroke="black" cx="945" cy="-403.781" rx="18" ry="18"/>
</g>
<!-- 5&#45;&gt;6 -->
<g id="edge6" class="edge"><title>5&#45;&gt;6</title>
<path fill="none" stroke="black" d="M711.573,-397.919C717.346,-399.474 723.904,-400.98 730,-401.781 796.645,-410.529 875.97,-407.911 916.769,-405.623"/>
<polygon fill="black" stroke="black" points="917.208,-409.103 926.98,-405.011 916.789,-402.116 917.208,-409.103"/>
<text text-anchor="middle" x="817" y="-411.581" font-family="Times,serif" font-size="14.00">u000d</text>
</g>
<!-- 8 -->
<g id="node9" class="node"><title>8</title>
<ellipse fill="none" stroke="black" cx="1196" cy="-335.781" rx="18" ry="18"/>
</g>
<!-- 5&#45;&gt;8 -->
<g id="edge8" class="edge"><title>5&#45;&gt;8</title>
<path fill="none" stroke="black" d="M707.032,-405.803C727.35,-426.3 770.697,-463.781 816,-463.781 816,-463.781 816,-463.781 1074,-463.781 1129.72,-463.781 1167.42,-398.931 1184.53,-361.55"/>
<polygon fill="black" stroke="black" points="1187.79,-362.815 1188.62,-352.252 1181.39,-359.997 1187.79,-362.815"/>
<text text-anchor="middle" x="945" y="-467.581" font-family="Times,serif" font-size="14.00">u0006</text>
</g>
<!-- 7 -->
<g id="node18" class="node"><title>7</title>
<ellipse fill="none" stroke="black" cx="817" cy="-268.781" rx="18" ry="18"/>
</g>
<!-- 5&#45;&gt;7 -->
<g id="edge7" class="edge"><title>5&#45;&gt;7</title>
<path fill="none" stroke="black" d="M706.031,-379.201C712.768,-371.077 721.663,-360.642 730,-351.781 751.577,-328.845 777.794,-303.934 795.567,-287.45"/>
<polygon fill="black" stroke="black" points="798.116,-289.861 803.092,-280.507 793.369,-284.716 798.116,-289.861"/>
<text text-anchor="middle" x="753" y="-355.581" font-family="Times,serif" font-size="14.00">u000c</text>
</g>
<!-- 9 -->
<g id="node20" class="node"><title>9</title>
<ellipse fill="none" stroke="black" cx="817" cy="-357.781" rx="18" ry="18"/>
</g>
<!-- 5&#45;&gt;9 -->
<g id="edge9" class="edge"><title>5&#45;&gt;9</title>
<path fill="none" stroke="black" d="M711.825,-387.914C731.962,-382.089 765.922,-372.266 789.574,-365.425"/>
<polygon fill="black" stroke="black" points="790.685,-368.747 799.318,-362.606 788.74,-362.022 790.685,-368.747"/>
<text text-anchor="middle" x="753" y="-386.581" font-family="Times,serif" font-size="14.00">u0000</text>
</g>
<!-- 10 -->
<g id="node8" class="node"><title>10</title>
<ellipse fill="none" stroke="black" cx="1073" cy="-260.781" rx="18" ry="18"/>
</g>
<!-- 6&#45;&gt;10 -->
<g id="edge10" class="edge"><title>6&#45;&gt;10</title>
<path fill="none" stroke="black" d="M962.487,-399.047C984.734,-392.341 1022.67,-379.675 1032,-368.781 1054.59,-342.421 1035.93,-324.512 1050,-292.781 1051.47,-289.476 1053.28,-286.151 1055.24,-282.961"/>
<polygon fill="black" stroke="black" points="1058.28,-284.704 1060.95,-274.449 1052.47,-280.804 1058.28,-284.704"/>
<text text-anchor="middle" x="1009" y="-395.581" font-family="Times,serif" font-size="14.00">u000c</text>
</g>
<!-- 6&#45;&gt;8 -->
<g id="edge11" class="edge"><title>6&#45;&gt;8</title>
<path fill="none" stroke="black" d="M962.891,-406.036C980.292,-407.969 1008.16,-409.981 1032,-406.781 1090.45,-398.933 1109.21,-401.758 1160,-371.781 1166.36,-368.03 1172.33,-362.823 1177.49,-357.533"/>
<polygon fill="black" stroke="black" points="1180.3,-359.649 1184.41,-349.884 1175.1,-354.954 1180.3,-359.649"/>
<text text-anchor="middle" x="1073" y="-407.581" font-family="Times,serif" font-size="14.00">u0006</text>
</g>
<!-- 10&#45;&gt;8 -->
<g id="edge12" class="edge"><title>10&#45;&gt;8</title>
<path fill="none" stroke="black" d="M1090.97,-262.349C1109.45,-264.775 1139.14,-270.843 1160,-285.781 1169.05,-292.259 1176.56,-301.834 1182.28,-310.876"/>
<polygon fill="black" stroke="black" points="1179.31,-312.742 1187.38,-319.606 1185.35,-309.207 1179.31,-312.742"/>
<text text-anchor="middle" x="1137" y="-289.581" font-family="Times,serif" font-size="14.00">u0006</text>
</g>
<!-- 12 -->
<g id="node10" class="node"><title>12</title>
<ellipse fill="none" stroke="black" cx="1314" cy="-335.781" rx="18" ry="18"/>
</g>
<!-- 8&#45;&gt;12 -->
<g id="edge13" class="edge"><title>8&#45;&gt;12</title>
<path fill="none" stroke="black" d="M1214.12,-335.781C1232.96,-335.781 1263.53,-335.781 1285.7,-335.781"/>
<polygon fill="black" stroke="black" points="1285.81,-339.281 1295.81,-335.781 1285.81,-332.281 1285.81,-339.281"/>
<text text-anchor="middle" x="1255" y="-339.581" font-family="Times,serif" font-size="14.00">u0004</text>
</g>
<!-- 13 -->
<g id="node11" class="node"><title>13</title>
<ellipse fill="none" stroke="black" cx="1432" cy="-335.781" rx="18" ry="18"/>
</g>
<!-- 12&#45;&gt;13 -->
<g id="edge14" class="edge"><title>12&#45;&gt;13</title>
<path fill="none" stroke="black" d="M1332.12,-335.781C1350.96,-335.781 1381.53,-335.781 1403.7,-335.781"/>
<polygon fill="black" stroke="black" points="1403.81,-339.281 1413.81,-335.781 1403.81,-332.281 1403.81,-339.281"/>
<text text-anchor="middle" x="1373" y="-339.581" font-family="Times,serif" font-size="14.00">u0005</text>
</g>
<!-- 14 -->
<g id="node12" class="node"><title>14</title>
<ellipse fill="none" stroke="black" cx="1579" cy="-274.781" rx="18" ry="18"/>
</g>
<!-- 13&#45;&gt;14 -->
<g id="edge15" class="edge"><title>13&#45;&gt;14</title>
<path fill="none" stroke="black" d="M1445.37,-323.387C1451.69,-317.645 1459.77,-311.142 1468,-306.781 1494.55,-292.706 1528.07,-284.099 1551.09,-279.408"/>
<polygon fill="black" stroke="black" points="1552.01,-282.795 1561.17,-277.468 1550.69,-275.921 1552.01,-282.795"/>
<text text-anchor="middle" x="1491" y="-310.581" font-family="Times,serif" font-size="14.00">u0009</text>
</g>
<!-- 15 -->
<g id="node13" class="node"><title>15</title>
<ellipse fill="none" stroke="black" cx="1726" cy="-293.781" rx="18" ry="18"/>
</g>
<!-- 13&#45;&gt;15 -->
<g id="edge16" class="edge"><title>13&#45;&gt;15</title>
<path fill="none" stroke="black" d="M1448.86,-342.959C1491.39,-361.04 1610.13,-403.775 1690,-356.781 1703.23,-348.994 1711.82,-334.195 1717.18,-320.897"/>
<polygon fill="black" stroke="black" points="1720.59,-321.756 1720.67,-311.161 1714,-319.394 1720.59,-321.756"/>
<text text-anchor="middle" x="1579" y="-382.581" font-family="Times,serif" font-size="14.00">u0008</text>
</g>
<!-- 13&#45;&gt;15 -->
<g id="edge17" class="edge"><title>13&#45;&gt;15</title>
<path fill="none" stroke="black" d="M1443.76,-349.899C1450.14,-357.496 1458.76,-366.556 1468,-372.781 1526.97,-412.5 1555.57,-407.496 1626,-397.781 1655.27,-393.743 1667.97,-399.468 1690,-379.781 1706.84,-364.737 1715.73,-340.412 1720.33,-321.464"/>
<polygon fill="black" stroke="black" points="1723.77,-322.098 1722.46,-311.584 1716.93,-320.618 1723.77,-322.098"/>
<text text-anchor="middle" x="1579" y="-407.581" font-family="Times,serif" font-size="14.00">u0011</text>
</g>
<!-- 13&#45;&gt;15 -->
<g id="edge19" class="edge"><title>13&#45;&gt;15</title>
<path fill="none" stroke="black" d="M1450.02,-336.807C1491.92,-338.809 1603,-340.909 1690,-313.781 1693.95,-312.55 1697.93,-310.823 1701.74,-308.894"/>
<polygon fill="black" stroke="black" points="1703.68,-311.814 1710.67,-303.849 1700.24,-305.719 1703.68,-311.814"/>
<text text-anchor="middle" x="1579" y="-341.581" font-family="Times,serif" font-size="14.00">u000a&#45;u000b</text>
</g>
<!-- 16 -->
<g id="node17" class="node"><title>16</title>
<ellipse fill="none" stroke="black" cx="1726" cy="-68.7807" rx="18" ry="18"/>
</g>
<!-- 13&#45;&gt;16 -->
<g id="edge18" class="edge"><title>13&#45;&gt;16</title>
<path fill="none" stroke="black" d="M1442.17,-320.586C1448.74,-310.263 1458.14,-296.577 1468,-285.781 1545.51,-200.919 1655.74,-118.28 1702.57,-84.6057"/>
<polygon fill="black" stroke="black" points="1704.71,-87.3799 1710.81,-78.7174 1700.64,-81.685 1704.71,-87.3799"/>
<text text-anchor="middle" x="1579" y="-225.581" font-family="Times,serif" font-size="14.00">u0010</text>
</g>
<!-- 14&#45;&gt;15 -->
<g id="edge20" class="edge"><title>14&#45;&gt;15</title>
<path fill="none" stroke="black" d="M1593.17,-263.652C1614.47,-247.08 1657.4,-219.711 1690,-237.781 1701.67,-244.25 1709.97,-256.415 1715.54,-267.758"/>
<polygon fill="black" stroke="black" points="1712.36,-269.215 1719.6,-276.95 1718.76,-266.388 1712.36,-269.215"/>
<text text-anchor="middle" x="1667" y="-241.581" font-family="Times,serif" font-size="14.00">u0011</text>
</g>
<!-- 14&#45;&gt;15 -->
<g id="edge22" class="edge"><title>14&#45;&gt;15</title>
<path fill="none" stroke="black" d="M1596.39,-279.88C1609.21,-283.624 1627.56,-288.447 1644,-290.781 1661.77,-293.303 1681.95,-294.057 1697.71,-294.178"/>
<polygon fill="black" stroke="black" points="1697.84,-297.678 1707.84,-294.175 1697.84,-290.678 1697.84,-297.678"/>
<text text-anchor="middle" x="1667" y="-298.581" font-family="Times,serif" font-size="14.00">u000a</text>
</g>
<!-- 17 -->
<g id="node16" class="node"><title>17</title>
<ellipse fill="none" stroke="black" cx="2024" cy="-68.7807" rx="18" ry="18"/>
</g>
<!-- 14&#45;&gt;17 -->
<g id="edge21" class="edge"><title>14&#45;&gt;17</title>
<path fill="none" stroke="black" d="M1594.04,-264.468C1612.03,-251.283 1641.25,-229.997 1644,-228.781 1693.04,-207.118 1708.9,-211.162 1762,-203.781 1786.49,-200.377 1964.5,-203.978 1984,-188.781 2011.88,-167.049 2020.11,-125.028 2022.38,-96.9348"/>
<polygon fill="black" stroke="black" points="2025.88,-97.1148 2022.99,-86.9211 2018.89,-96.6906 2025.88,-97.1148"/>
<text text-anchor="middle" x="1809" y="-207.581" font-family="Times,serif" font-size="14.00">u0010</text>
</g>
<!-- 15&#45;&gt;14 -->
<g id="edge23" class="edge"><title>15&#45;&gt;14</title>
<path fill="none" stroke="black" d="M1711.57,-282.842C1705.39,-278.496 1697.72,-274.007 1690,-271.781 1662.43,-263.834 1629.34,-266.246 1606.7,-269.596"/>
<polygon fill="black" stroke="black" points="1606.1,-266.148 1596.8,-271.221 1607.23,-273.056 1606.1,-266.148"/>
<text text-anchor="middle" x="1667" y="-275.581" font-family="Times,serif" font-size="14.00">u0009</text>
</g>
<!-- 15&#45;&gt;15 -->
<g id="edge24" class="edge"><title>15&#45;&gt;15</title>
<path fill="none" stroke="black" d="M1722.52,-311.562C1721.93,-321.096 1723.09,-329.781 1726,-329.781 1727.77,-329.781 1728.89,-326.556 1729.37,-321.879"/>
<polygon fill="black" stroke="black" points="1732.87,-321.599 1729.48,-311.562 1725.87,-321.525 1732.87,-321.599"/>
<text text-anchor="middle" x="1726" y="-333.581" font-family="Times,serif" font-size="14.00">u0008</text>
</g>
<!-- 15&#45;&gt;15 -->
<g id="edge25" class="edge"><title>15&#45;&gt;15</title>
<path fill="none" stroke="black" d="M1720.34,-310.922C1717.02,-328.366 1718.9,-347.781 1726,-347.781 1731.71,-347.781 1734.05,-335.209 1733.01,-321.209"/>
<polygon fill="black" stroke="black" points="1736.43,-320.381 1731.66,-310.922 1729.49,-321.294 1736.43,-320.381"/>
<text text-anchor="middle" x="1726" y="-351.581" font-family="Times,serif" font-size="14.00">u0011</text>
</g>
<!-- 15&#45;&gt;15 -->
<g id="edge28" class="edge"><title>15&#45;&gt;15</title>
<path fill="none" stroke="black" d="M1719.06,-310.413C1712.08,-335.001 1714.39,-365.781 1726,-365.781 1736.07,-365.781 1739.15,-342.634 1735.23,-320.45"/>
<polygon fill="black" stroke="black" points="1738.58,-319.383 1732.94,-310.413 1731.75,-320.941 1738.58,-319.383"/>
<text text-anchor="middle" x="1726" y="-369.581" font-family="Times,serif" font-size="14.00">u000a&#45;u000b</text>
</g>
<!-- 18 -->
<g id="node14" class="node"><title>18</title>
<ellipse fill="none" stroke="black" cx="2024" cy="-222.781" rx="18" ry="18"/>
<ellipse fill="none" stroke="black" cx="2024" cy="-222.781" rx="22" ry="22"/>
</g>
<!-- 15&#45;&gt;18 -->
<g id="edge26" class="edge"><title>15&#45;&gt;18</title>
<path fill="none" stroke="black" d="M1744.26,-291.899C1769.14,-289.006 1816.46,-282.836 1856,-273.781 1904.87,-262.589 1960.3,-244.572 1993.41,-233.219"/>
<polygon fill="black" stroke="black" points="1994.64,-236.5 2002.94,-229.925 1992.35,-229.885 1994.64,-236.5"/>
<text text-anchor="middle" x="1897" y="-273.581" font-family="Times,serif" font-size="14.00">u0007</text>
</g>
<!-- 19 -->
<g id="node15" class="node"><title>19</title>
<ellipse fill="none" stroke="black" cx="1897" cy="-58.7807" rx="18" ry="18"/>
</g>
<!-- 15&#45;&gt;19 -->
<g id="edge27" class="edge"><title>15&#45;&gt;19</title>
<path fill="none" stroke="black" d="M1738.19,-280.087C1744.57,-272.974 1753.06,-264.581 1762,-258.781 1799.53,-234.43 1826.43,-256.351 1856,-222.781 1889.53,-184.714 1896.01,-123.148 1896.68,-87.2639"/>
<polygon fill="black" stroke="black" points="1900.18,-87.0224 1896.73,-77.0063 1893.18,-86.99 1900.18,-87.0224"/>
<text text-anchor="middle" x="1809" y="-262.581" font-family="Times,serif" font-size="14.00">u0010</text>
</g>
<!-- 19&#45;&gt;18 -->
<g id="edge32" class="edge"><title>19&#45;&gt;18</title>
<path fill="none" stroke="black" d="M1908.66,-72.7632C1929.72,-100.398 1976.95,-162.36 2003.65,-197.393"/>
<polygon fill="black" stroke="black" points="2001.12,-199.85 2009.97,-205.682 2006.69,-195.607 2001.12,-199.85"/>
<text text-anchor="middle" x="1961" y="-173.581" font-family="Times,serif" font-size="14.00">u0007</text>
</g>
<!-- 19&#45;&gt;19 -->
<g id="edge30" class="edge"><title>19&#45;&gt;19</title>
<path fill="none" stroke="black" d="M1893.17,-76.5624C1892.51,-86.0956 1893.79,-94.7807 1897,-94.7807 1898.96,-94.7807 1900.19,-91.5556 1900.72,-86.8788"/>
<polygon fill="black" stroke="black" points="1904.22,-86.6024 1900.83,-76.5624 1897.22,-86.521 1904.22,-86.6024"/>
<text text-anchor="middle" x="1897" y="-98.5807" font-family="Times,serif" font-size="14.00">u0008</text>
</g>
<!-- 19&#45;&gt;19 -->
<g id="edge31" class="edge"><title>19&#45;&gt;19</title>
<path fill="none" stroke="black" d="M1890.76,-75.9224C1887.09,-93.3656 1889.17,-112.781 1897,-112.781 1903.3,-112.781 1905.88,-100.209 1904.74,-86.2094"/>
<polygon fill="black" stroke="black" points="1908.14,-85.3159 1903.24,-75.9224 1901.22,-86.3215 1908.14,-85.3159"/>
<text text-anchor="middle" x="1897" y="-116.581" font-family="Times,serif" font-size="14.00">u0011</text>
</g>
<!-- 19&#45;&gt;19 -->
<g id="edge33" class="edge"><title>19&#45;&gt;19</title>
<path fill="none" stroke="black" d="M1889.34,-75.4127C1881.64,-100.001 1884.19,-130.781 1897,-130.781 1908.16,-130.781 1911.54,-107.425 1907.13,-85.1508"/>
<polygon fill="black" stroke="black" points="1910.51,-84.2457 1904.66,-75.4127 1903.72,-85.9662 1910.51,-84.2457"/>
<text text-anchor="middle" x="1897" y="-134.581" font-family="Times,serif" font-size="14.00">u000a&#45;u000b</text>
</g>
<!-- 19&#45;&gt;17 -->
<g id="edge29" class="edge"><title>19&#45;&gt;17</title>
<path fill="none" stroke="black" d="M1911.08,-70.0616C1918.46,-75.6704 1928.15,-81.8617 1938,-84.7807 1957.6,-90.5913 1963.94,-88.7353 1984,-84.7807 1988.65,-83.864 1993.44,-82.3875 1998.01,-80.693"/>
<polygon fill="black" stroke="black" points="1999.59,-83.8245 2007.5,-76.7679 1996.92,-77.356 1999.59,-83.8245"/>
<text text-anchor="middle" x="1961" y="-92.5807" font-family="Times,serif" font-size="14.00">u0009</text>
</g>
<!-- 17&#45;&gt;19 -->
<g id="edge34" class="edge"><title>17&#45;&gt;19</title>
<path fill="none" stroke="black" d="M2005.69,-67.3956C1984.86,-65.7296 1949.66,-62.9132 1925.19,-60.9561"/>
<polygon fill="black" stroke="black" points="1925.37,-57.4588 1915.12,-60.1502 1924.81,-64.4365 1925.37,-57.4588"/>
<text text-anchor="middle" x="1961" y="-69.5807" font-family="Times,serif" font-size="14.00">u0011</text>
</g>
<!-- 17&#45;&gt;19 -->
<g id="edge35" class="edge"><title>17&#45;&gt;19</title>
<path fill="none" stroke="black" d="M2009.52,-57.4079C2002.41,-52.1571 1993.26,-46.4943 1984,-43.7807 1964.38,-38.0322 1958.12,-40.1329 1938,-43.7807 1933.06,-44.6764 1927.94,-46.1471 1923.07,-47.8261"/>
<polygon fill="black" stroke="black" points="1921.68,-44.6099 1913.59,-51.4476 1924.18,-51.1492 1921.68,-44.6099"/>
<text text-anchor="middle" x="1961" y="-47.5807" font-family="Times,serif" font-size="14.00">u000a</text>
</g>
<!-- 16&#45;&gt;19 -->
<g id="edge37" class="edge"><title>16&#45;&gt;19</title>
<path fill="none" stroke="black" d="M1736.42,-54.018C1742.58,-45.7969 1751.44,-36.3266 1762,-31.7807 1800.37,-15.2586 1816.05,-19.5593 1856,-31.7807 1862.52,-33.7751 1868.94,-37.2298 1874.66,-41.0148"/>
<polygon fill="black" stroke="black" points="1872.84,-44.0219 1882.99,-47.0721 1876.96,-38.3603 1872.84,-44.0219"/>
<text text-anchor="middle" x="1809" y="-35.5807" font-family="Times,serif" font-size="14.00">u0008</text>
</g>
<!-- 16&#45;&gt;19 -->
<g id="edge38" class="edge"><title>16&#45;&gt;19</title>
<path fill="none" stroke="black" d="M1742.18,-77.4408C1748.16,-80.3846 1755.21,-83.3024 1762,-84.7807 1802.82,-93.6689 1815.95,-96.6545 1856,-84.7807 1862.46,-82.8651 1868.86,-79.5402 1874.58,-75.8956"/>
<polygon fill="black" stroke="black" points="1876.73,-78.6613 1882.92,-70.0616 1872.72,-72.9252 1876.73,-78.6613"/>
<text text-anchor="middle" x="1809" y="-96.5807" font-family="Times,serif" font-size="14.00">u0011</text>
</g>
<!-- 16&#45;&gt;19 -->
<g id="edge39" class="edge"><title>16&#45;&gt;19</title>
<path fill="none" stroke="black" d="M1744.08,-67.2019C1749.78,-66.706 1756.16,-66.1834 1762,-65.7807 1798.77,-63.2453 1841.27,-61.1702 1868.37,-59.9548"/>
<polygon fill="black" stroke="black" points="1868.81,-63.4392 1878.64,-59.5025 1868.5,-56.4459 1868.81,-63.4392"/>
<text text-anchor="middle" x="1809" y="-69.5807" font-family="Times,serif" font-size="14.00">u000a&#45;u000b</text>
</g>
<!-- 16&#45;&gt;17 -->
<g id="edge36" class="edge"><title>16&#45;&gt;17</title>
<path fill="none" stroke="black" d="M1733.4,-52.2092C1738.98,-40.275 1748.35,-25.0465 1762,-17.7807 1823.99,15.2148 1850.58,-6.18643 1920,-16.7807 1949.46,-21.2766 1957.78,-22.6241 1984,-36.7807 1990.52,-40.3028 1997,-44.9948 2002.74,-49.6979"/>
<polygon fill="black" stroke="black" points="2000.7,-52.5626 2010.56,-56.4612 2005.29,-47.2701 2000.7,-52.5626"/>
<text text-anchor="middle" x="1897" y="-20.5807" font-family="Times,serif" font-size="14.00">u0009</text>
</g>
<!-- 7&#45;&gt;10 -->
<g id="edge40" class="edge"><title>7&#45;&gt;10</title>
<path fill="none" stroke="black" d="M835.287,-267.548C855.915,-266.132 891.455,-263.865 922,-262.781 964.885,-261.258 1014.7,-260.867 1044.77,-260.782"/>
<polygon fill="black" stroke="black" points="1044.9,-264.282 1054.9,-260.762 1044.89,-257.282 1044.9,-264.282"/>
<text text-anchor="middle" x="945" y="-266.581" font-family="Times,serif" font-size="14.00">u000d</text>
</g>
<!-- 7&#45;&gt;8 -->
<g id="edge41" class="edge"><title>7&#45;&gt;8</title>
<path fill="none" stroke="black" d="M834.164,-262.911C877.197,-248.108 997.951,-211.941 1096,-233.781 1126.66,-240.611 1137.63,-241.725 1160,-263.781 1172.62,-276.228 1181.36,-294.148 1186.94,-308.996"/>
<polygon fill="black" stroke="black" points="1183.72,-310.387 1190.32,-318.679 1190.33,-308.084 1183.72,-310.387"/>
<text text-anchor="middle" x="1009" y="-233.581" font-family="Times,serif" font-size="14.00">u0006</text>
</g>
<!-- 11 -->
<g id="node19" class="node"><title>11</title>
<ellipse fill="none" stroke="black" cx="945" cy="-304.781" rx="18" ry="18"/>
</g>
<!-- 7&#45;&gt;11 -->
<g id="edge42" class="edge"><title>7&#45;&gt;11</title>
<path fill="none" stroke="black" d="M835.128,-270.889C852.718,-273.348 880.735,-278.089 904,-285.781 909.16,-287.487 914.52,-289.699 919.576,-292.008"/>
<polygon fill="black" stroke="black" points="918.266,-295.262 928.793,-296.46 921.311,-288.959 918.266,-295.262"/>
<text text-anchor="middle" x="881" y="-289.581" font-family="Times,serif" font-size="14.00">u0000</text>
</g>
<!-- 11&#45;&gt;10 -->
<g id="edge43" class="edge"><title>11&#45;&gt;10</title>
<path fill="none" stroke="black" d="M961.325,-296.791C968.669,-293.147 977.664,-288.949 986,-285.781 1005.5,-278.37 1028.18,-271.861 1045.35,-267.344"/>
<polygon fill="black" stroke="black" points="1046.44,-270.678 1055.25,-264.798 1044.7,-263.898 1046.44,-270.678"/>
<text text-anchor="middle" x="1009" y="-289.581" font-family="Times,serif" font-size="14.00">u000d</text>
</g>
<!-- 11&#45;&gt;8 -->
<g id="edge44" class="edge"><title>11&#45;&gt;8</title>
<path fill="none" stroke="black" d="M963.115,-306.911C1005.69,-312.211 1116.61,-326.021 1168.06,-332.427"/>
<polygon fill="black" stroke="black" points="1167.74,-335.914 1178.09,-333.676 1168.6,-328.967 1167.74,-335.914"/>
<text text-anchor="middle" x="1073" y="-327.581" font-family="Times,serif" font-size="14.00">u0006</text>
</g>
<!-- 9&#45;&gt;6 -->
<g id="edge45" class="edge"><title>9&#45;&gt;6</title>
<path fill="none" stroke="black" d="M834.299,-362.866C851.694,-368.388 879.995,-377.648 904,-386.781 908.774,-388.597 913.819,-390.641 918.659,-392.666"/>
<polygon fill="black" stroke="black" points="917.581,-396.011 928.153,-396.715 920.328,-389.572 917.581,-396.011"/>
<text text-anchor="middle" x="881" y="-390.581" font-family="Times,serif" font-size="14.00">u000d</text>
</g>
<!-- 9&#45;&gt;8 -->
<g id="edge47" class="edge"><title>9&#45;&gt;8</title>
<path fill="none" stroke="black" d="M835.169,-356.921C865.571,-355.409 930.866,-352.202 986,-349.781 1063.32,-346.384 1083.15,-351.954 1160,-342.781 1162.73,-342.455 1165.57,-342.031 1168.39,-341.553"/>
<polygon fill="black" stroke="black" points="1169.18,-344.967 1178.35,-339.666 1167.87,-338.09 1169.18,-344.967"/>
<text text-anchor="middle" x="1009" y="-353.581" font-family="Times,serif" font-size="14.00">u0006</text>
</g>
<!-- 9&#45;&gt;11 -->
<g id="edge46" class="edge"><title>9&#45;&gt;11</title>
<path fill="none" stroke="black" d="M829.819,-345.009C837.239,-337.736 847.388,-329.051 858,-323.781 876.486,-314.6 899.387,-309.818 916.908,-307.349"/>
<polygon fill="black" stroke="black" points="917.542,-310.797 927.035,-306.092 916.68,-303.851 917.542,-310.797"/>
<text text-anchor="middle" x="881" y="-327.581" font-family="Times,serif" font-size="14.00">u000c</text>
</g>
<!-- initial -->
<g id="node21" class="node"><title>initial</title>
</g>
<!-- initial&#45;&gt;0 -->
<g id="edge48" class="edge"><title>initial&#45;&gt;0</title>
<path fill="none" stroke="black" d="M54.195,-392.781C62.6538,-392.781 72.0513,-392.781 80.5951,-392.781"/>
<polygon fill="black" stroke="black" points="80.8257,-396.281 90.8257,-392.781 80.8257,-389.281 80.8257,-396.281"/>
</g>
</g>
</svg>
