<svg width="2104px" height="219px"
 viewBox="0.00 0.00 1578.00 164.00" xmlns="http://www.w3.org/2000/svg" xmlns:xlink="http://www.w3.org/1999/xlink">
<g id="graph0" class="graph" transform="scale(1.000022500562514 1.000022500562514) rotate(0) translate(4 160)">
<title>Automaton</title>
<polygon fill="white" stroke="none" points="-4,4 -4,-160 1574,-160 1574,4 -4,4"/>
<!-- 0 -->
<g id="node1" class="node"><title>0</title>
<ellipse fill="none" stroke="black" cx="109" cy="-105" rx="18" ry="18"/>
</g>
<!-- 1 -->
<g id="node2" class="node"><title>1</title>
<ellipse fill="none" stroke="black" cx="227" cy="-105" rx="18" ry="18"/>
</g>
<!-- 0&#45;&gt;1 -->
<g id="edge1" class="edge"><title>0&#45;&gt;1</title>
<path fill="none" stroke="black" d="M127.116,-105C145.964,-105 176.531,-105 198.696,-105"/>
<polygon fill="black" stroke="black" points="198.814,-108.5 208.814,-105 198.814,-101.5 198.814,-108.5"/>
<text text-anchor="middle" x="168" y="-108.8" font-family="Times,serif" font-size="14.00">u0006</text>
</g>
<!-- 2 -->
<g id="node3" class="node"><title>2</title>
<ellipse fill="none" stroke="black" cx="345" cy="-105" rx="18" ry="18"/>
</g>
<!-- 1&#45;&gt;2 -->
<g id="edge2" class="edge"><title>1&#45;&gt;2</title>
<path fill="none" stroke="black" d="M245.116,-105C263.964,-105 294.531,-105 316.696,-105"/>
<polygon fill="black" stroke="black" points="316.814,-108.5 326.814,-105 316.814,-101.5 316.814,-108.5"/>
<text text-anchor="middle" x="286" y="-108.8" font-family="Times,serif" font-size="14.00">u0005</text>
</g>
<!-- 3 -->
<g id="node4" class="node"><title>3</title>
<ellipse fill="none" stroke="black" cx="463" cy="-105" rx="18" ry="18"/>
</g>
<!-- 2&#45;&gt;3 -->
<g id="edge3" class="edge"><title>2&#45;&gt;3</title>
<path fill="none" stroke="black" d="M363.116,-105C381.964,-105 412.531,-105 434.696,-105"/>
<polygon fill="black" stroke="black" points="434.814,-108.5 444.814,-105 434.814,-101.5 434.814,-108.5"/>
<text text-anchor="middle" x="404" y="-108.8" font-family="Times,serif" font-size="14.00">u0004</text>
</g>
<!-- 4 -->
<g id="node5" class="node"><title>4</title>
<ellipse fill="none" stroke="black" cx="581" cy="-105" rx="18" ry="18"/>
</g>
<!-- 3&#45;&gt;4 -->
<g id="edge4" class="edge"><title>3&#45;&gt;4</title>
<path fill="none" stroke="black" d="M481.116,-105C499.964,-105 530.531,-105 552.696,-105"/>
<polygon fill="black" stroke="black" points="552.814,-108.5 562.814,-105 552.814,-101.5 552.814,-108.5"/>
<text text-anchor="middle" x="522" y="-108.8" font-family="Times,serif" font-size="14.00">u0003</text>
</g>
<!-- 5 -->
<g id="node6" class="node"><title>5</title>
<ellipse fill="none" stroke="black" cx="699" cy="-105" rx="18" ry="18"/>
</g>
<!-- 4&#45;&gt;5 -->
<g id="edge5" class="edge"><title>4&#45;&gt;5</title>
<path fill="none" stroke="black" d="M599.116,-105C617.964,-105 648.531,-105 670.696,-105"/>
<polygon fill="black" stroke="black" points="670.814,-108.5 680.814,-105 670.814,-101.5 670.814,-108.5"/>
<text text-anchor="middle" x="640" y="-108.8" font-family="Times,serif" font-size="14.00">u0000</text>
</g>
<!-- 6 -->
<g id="node7" class="node"><title>6</title>
<ellipse fill="none" stroke="black" cx="817" cy="-105" rx="18" ry="18"/>
</g>
<!-- 5&#45;&gt;6 -->
<g id="edge6" class="edge"><title>5&#45;&gt;6</title>
<path fill="none" stroke="black" d="M717.116,-105C735.964,-105 766.531,-105 788.696,-105"/>
<polygon fill="black" stroke="black" points="788.814,-108.5 798.814,-105 788.814,-101.5 788.814,-108.5"/>
<text text-anchor="middle" x="758" y="-108.8" font-family="Times,serif" font-size="14.00">u0001</text>
</g>
<!-- 7 -->
<g id="node8" class="node"><title>7</title>
<ellipse fill="none" stroke="black" cx="935" cy="-105" rx="18" ry="18"/>
</g>
<!-- 6&#45;&gt;7 -->
<g id="edge7" class="edge"><title>6&#45;&gt;7</title>
<path fill="none" stroke="black" d="M835.116,-105C853.964,-105 884.531,-105 906.696,-105"/>
<polygon fill="black" stroke="black" points="906.814,-108.5 916.814,-105 906.814,-101.5 906.814,-108.5"/>
<text text-anchor="middle" x="876" y="-108.8" font-family="Times,serif" font-size="14.00">u0002</text>
</g>
<!-- 8 -->
<g id="node9" class="node"><title>8</title>
<ellipse fill="none" stroke="black" cx="1053" cy="-105" rx="18" ry="18"/>
</g>
<!-- 7&#45;&gt;8 -->
<g id="edge8" class="edge"><title>7&#45;&gt;8</title>
<path fill="none" stroke="black" d="M953.116,-105C971.964,-105 1002.53,-105 1024.7,-105"/>
<polygon fill="black" stroke="black" points="1024.81,-108.5 1034.81,-105 1024.81,-101.5 1024.81,-108.5"/>
<text text-anchor="middle" x="994" y="-108.8" font-family="Times,serif" font-size="14.00">u0007</text>
</g>
<!-- 9 -->
<g id="node10" class="node"><title>9</title>
<ellipse fill="none" stroke="black" cx="1171" cy="-105" rx="18" ry="18"/>
</g>
<!-- 8&#45;&gt;9 -->
<g id="edge9" class="edge"><title>8&#45;&gt;9</title>
<path fill="none" stroke="black" d="M1071.12,-105C1089.96,-105 1120.53,-105 1142.7,-105"/>
<polygon fill="black" stroke="black" points="1142.81,-108.5 1152.81,-105 1142.81,-101.5 1142.81,-108.5"/>
<text text-anchor="middle" x="1112" y="-108.8" font-family="Times,serif" font-size="14.00">u0008</text>
</g>
<!-- 9&#45;&gt;9 -->
<g id="edge13" class="edge"><title>9&#45;&gt;9</title>
<path fill="none" stroke="black" d="M1161.19,-120.167C1158.21,-130.664 1161.48,-141 1171,-141 1177.24,-141 1180.8,-136.549 1181.67,-130.522"/>
<polygon fill="black" stroke="black" points="1185.12,-129.846 1180.81,-120.167 1178.15,-130.42 1185.12,-129.846"/>
<text text-anchor="middle" x="1171" y="-144.8" font-family="Times,serif" font-size="14.00">u000a</text>
</g>
<!-- 10 -->
<g id="node11" class="node"><title>10</title>
<ellipse fill="none" stroke="black" cx="1548" cy="-69" rx="18" ry="18"/>
<ellipse fill="none" stroke="black" cx="1548" cy="-69" rx="22" ry="22"/>
</g>
<!-- 9&#45;&gt;10 -->
<g id="edge10" class="edge"><title>9&#45;&gt;10</title>
<path fill="none" stroke="black" d="M1188.29,-110.302C1231.05,-123.404 1349.72,-154.458 1444,-129 1473.06,-121.152 1502.36,-102.849 1522.23,-88.5066"/>
<polygon fill="black" stroke="black" points="1524.46,-91.2138 1530.41,-82.4466 1520.29,-85.5906 1524.46,-91.2138"/>
<text text-anchor="middle" x="1357" y="-141.8" font-family="Times,serif" font-size="14.00">u0009</text>
</g>
<!-- 11 -->
<g id="node12" class="node"><title>11</title>
<ellipse fill="none" stroke="black" cx="1421" cy="-69" rx="18" ry="18"/>
</g>
<!-- 9&#45;&gt;11 -->
<g id="edge11" class="edge"><title>9&#45;&gt;11</title>
<path fill="none" stroke="black" d="M1189.05,-102.526C1231.45,-96.3708 1341.93,-80.3333 1393.17,-72.8944"/>
<polygon fill="black" stroke="black" points="1393.77,-76.3445 1403.16,-71.4441 1392.76,-69.4171 1393.77,-76.3445"/>
<text text-anchor="middle" x="1293.5" y="-94.8" font-family="Times,serif" font-size="14.00">u000c</text>
</g>
<!-- 12 -->
<g id="node13" class="node"><title>12</title>
<ellipse fill="none" stroke="black" cx="1293.5" cy="-18" rx="18" ry="18"/>
</g>
<!-- 9&#45;&gt;12 -->
<g id="edge12" class="edge"><title>9&#45;&gt;12</title>
<path fill="none" stroke="black" d="M1185.05,-93.6779C1191.54,-88.1888 1199.55,-81.5906 1207,-76 1227.64,-60.5017 1252.1,-44.099 1269.55,-32.7065"/>
<polygon fill="black" stroke="black" points="1271.5,-35.6149 1277.99,-27.237 1267.69,-29.7419 1271.5,-35.6149"/>
<text text-anchor="middle" x="1230" y="-79.8" font-family="Times,serif" font-size="14.00">u000b</text>
</g>
<!-- 11&#45;&gt;10 -->
<g id="edge14" class="edge"><title>11&#45;&gt;10</title>
<path fill="none" stroke="black" d="M1439.12,-69C1458.81,-69 1491.53,-69 1515.78,-69"/>
<polygon fill="black" stroke="black" points="1515.92,-72.5001 1525.92,-69 1515.92,-65.5001 1515.92,-72.5001"/>
<text text-anchor="middle" x="1485" y="-72.8" font-family="Times,serif" font-size="14.00">u0009</text>
</g>
<!-- 11&#45;&gt;11 -->
<g id="edge15" class="edge"><title>11&#45;&gt;11</title>
<path fill="none" stroke="black" d="M1410.29,-83.7917C1406.81,-94.4165 1410.38,-105 1421,-105 1428.14,-105 1432.09,-100.222 1432.86,-93.8647"/>
<polygon fill="black" stroke="black" points="1436.32,-93.3288 1431.71,-83.7917 1429.37,-94.1248 1436.32,-93.3288"/>
<text text-anchor="middle" x="1421" y="-108.8" font-family="Times,serif" font-size="14.00">u000a</text>
</g>
<!-- 12&#45;&gt;10 -->
<g id="edge16" class="edge"><title>12&#45;&gt;10</title>
<path fill="none" stroke="black" d="M1311.8,-17.2308C1339.91,-16.3819 1397.09,-16.3308 1444,-27 1470.38,-32.9998 1498.73,-45.0087 1518.99,-54.6543"/>
<polygon fill="black" stroke="black" points="1517.73,-57.93 1528.25,-59.1628 1520.79,-51.6369 1517.73,-57.93"/>
<text text-anchor="middle" x="1421" y="-30.8" font-family="Times,serif" font-size="14.00">u0009</text>
</g>
<!-- 12&#45;&gt;11 -->
<g id="edge17" class="edge"><title>12&#45;&gt;11</title>
<path fill="none" stroke="black" d="M1310.39,-24.4592C1331.59,-33.0723 1369.35,-48.419 1394.54,-58.6541"/>
<polygon fill="black" stroke="black" points="1393.26,-61.9098 1403.84,-62.4322 1395.89,-55.4249 1393.26,-61.9098"/>
<text text-anchor="middle" x="1357" y="-56.8" font-family="Times,serif" font-size="14.00">u000c</text>
</g>
<!-- 12&#45;&gt;12 -->
<g id="edge18" class="edge"><title>12&#45;&gt;12</title>
<path fill="none" stroke="black" d="M1283.13,-32.7917C1279.75,-43.4165 1283.21,-54 1293.5,-54 1300.42,-54 1304.25,-49.2224 1304.99,-42.8647"/>
<polygon fill="black" stroke="black" points="1308.45,-42.345 1303.87,-32.7917 1301.5,-43.1165 1308.45,-42.345"/>
<text text-anchor="middle" x="1293.5" y="-57.8" font-family="Times,serif" font-size="14.00">u000a</text>
</g>
<!-- initial -->
<g id="node14" class="node"><title>initial</title>
</g>
<!-- initial&#45;&gt;0 -->
<g id="edge19" class="edge"><title>initial&#45;&gt;0</title>
<path fill="none" stroke="black" d="M54.195,-105C62.6538,-105 72.0513,-105 80.5951,-105"/>
<polygon fill="black" stroke="black" points="80.8257,-108.5 90.8257,-105 80.8257,-101.5 80.8257,-108.5"/>
</g>
</g>
</svg>
