<svg width="1921px" height="70px"
 viewBox="0.00 0.00 1441.00 52.77" xmlns="http://www.w3.org/2000/svg" xmlns:xlink="http://www.w3.org/1999/xlink">
<g id="graph0" class="graph" transform="scale(1.000022500562514 1.000022500562514) rotate(0) translate(4 48.7738)">
<title>Automaton</title>
<polygon fill="white" stroke="none" points="-4,4 -4,-48.7738 1437,-48.7738 1437,4 -4,4"/>
<!-- 0 -->
<g id="node1" class="node"><title>0</title>
<ellipse fill="none" stroke="black" cx="109" cy="-22.7738" rx="18" ry="18"/>
</g>
<!-- 1 -->
<g id="node2" class="node"><title>1</title>
<ellipse fill="none" stroke="black" cx="227" cy="-22.7738" rx="18" ry="18"/>
</g>
<!-- 0&#45;&gt;1 -->
<g id="edge1" class="edge"><title>0&#45;&gt;1</title>
<path fill="none" stroke="black" d="M127.116,-22.7738C145.964,-22.7738 176.531,-22.7738 198.696,-22.7738"/>
<polygon fill="black" stroke="black" points="198.814,-26.2739 208.814,-22.7738 198.814,-19.2739 198.814,-26.2739"/>
<text text-anchor="middle" x="168" y="-26.5738" font-family="Times,serif" font-size="14.00">u0006</text>
</g>
<!-- 2 -->
<g id="node3" class="node"><title>2</title>
<ellipse fill="none" stroke="black" cx="345" cy="-22.7738" rx="18" ry="18"/>
</g>
<!-- 1&#45;&gt;2 -->
<g id="edge2" class="edge"><title>1&#45;&gt;2</title>
<path fill="none" stroke="black" d="M245.116,-22.7738C263.964,-22.7738 294.531,-22.7738 316.696,-22.7738"/>
<polygon fill="black" stroke="black" points="316.814,-26.2739 326.814,-22.7738 316.814,-19.2739 316.814,-26.2739"/>
<text text-anchor="middle" x="286" y="-26.5738" font-family="Times,serif" font-size="14.00">u0005</text>
</g>
<!-- 3 -->
<g id="node4" class="node"><title>3</title>
<ellipse fill="none" stroke="black" cx="463" cy="-22.7738" rx="18" ry="18"/>
</g>
<!-- 2&#45;&gt;3 -->
<g id="edge3" class="edge"><title>2&#45;&gt;3</title>
<path fill="none" stroke="black" d="M363.116,-22.7738C381.964,-22.7738 412.531,-22.7738 434.696,-22.7738"/>
<polygon fill="black" stroke="black" points="434.814,-26.2739 444.814,-22.7738 434.814,-19.2739 434.814,-26.2739"/>
<text text-anchor="middle" x="404" y="-26.5738" font-family="Times,serif" font-size="14.00">u0004</text>
</g>
<!-- 4 -->
<g id="node5" class="node"><title>4</title>
<ellipse fill="none" stroke="black" cx="581" cy="-22.7738" rx="18" ry="18"/>
</g>
<!-- 3&#45;&gt;4 -->
<g id="edge4" class="edge"><title>3&#45;&gt;4</title>
<path fill="none" stroke="black" d="M481.116,-22.7738C499.964,-22.7738 530.531,-22.7738 552.696,-22.7738"/>
<polygon fill="black" stroke="black" points="552.814,-26.2739 562.814,-22.7738 552.814,-19.2739 552.814,-26.2739"/>
<text text-anchor="middle" x="522" y="-26.5738" font-family="Times,serif" font-size="14.00">u0003</text>
</g>
<!-- 5 -->
<g id="node6" class="node"><title>5</title>
<ellipse fill="none" stroke="black" cx="699" cy="-22.7738" rx="18" ry="18"/>
</g>
<!-- 4&#45;&gt;5 -->
<g id="edge5" class="edge"><title>4&#45;&gt;5</title>
<path fill="none" stroke="black" d="M599.116,-22.7738C617.964,-22.7738 648.531,-22.7738 670.696,-22.7738"/>
<polygon fill="black" stroke="black" points="670.814,-26.2739 680.814,-22.7738 670.814,-19.2739 670.814,-26.2739"/>
<text text-anchor="middle" x="640" y="-26.5738" font-family="Times,serif" font-size="14.00">u0000</text>
</g>
<!-- 6 -->
<g id="node7" class="node"><title>6</title>
<ellipse fill="none" stroke="black" cx="817" cy="-22.7738" rx="18" ry="18"/>
</g>
<!-- 5&#45;&gt;6 -->
<g id="edge6" class="edge"><title>5&#45;&gt;6</title>
<path fill="none" stroke="black" d="M717.116,-22.7738C735.964,-22.7738 766.531,-22.7738 788.696,-22.7738"/>
<polygon fill="black" stroke="black" points="788.814,-26.2739 798.814,-22.7738 788.814,-19.2739 788.814,-26.2739"/>
<text text-anchor="middle" x="758" y="-26.5738" font-family="Times,serif" font-size="14.00">u0001</text>
</g>
<!-- 7 -->
<g id="node8" class="node"><title>7</title>
<ellipse fill="none" stroke="black" cx="935" cy="-22.7738" rx="18" ry="18"/>
</g>
<!-- 6&#45;&gt;7 -->
<g id="edge7" class="edge"><title>6&#45;&gt;7</title>
<path fill="none" stroke="black" d="M835.116,-22.7738C853.964,-22.7738 884.531,-22.7738 906.696,-22.7738"/>
<polygon fill="black" stroke="black" points="906.814,-26.2739 916.814,-22.7738 906.814,-19.2739 906.814,-26.2739"/>
<text text-anchor="middle" x="876" y="-26.5738" font-family="Times,serif" font-size="14.00">u0002</text>
</g>
<!-- 8 -->
<g id="node9" class="node"><title>8</title>
<ellipse fill="none" stroke="black" cx="1053" cy="-22.7738" rx="18" ry="18"/>
</g>
<!-- 7&#45;&gt;8 -->
<g id="edge8" class="edge"><title>7&#45;&gt;8</title>
<path fill="none" stroke="black" d="M953.116,-22.7738C971.964,-22.7738 1002.53,-22.7738 1024.7,-22.7738"/>
<polygon fill="black" stroke="black" points="1024.81,-26.2739 1034.81,-22.7738 1024.81,-19.2739 1024.81,-26.2739"/>
<text text-anchor="middle" x="994" y="-26.5738" font-family="Times,serif" font-size="14.00">u0007</text>
</g>
<!-- 9 -->
<g id="node10" class="node"><title>9</title>
<ellipse fill="none" stroke="black" cx="1171" cy="-22.7738" rx="18" ry="18"/>
</g>
<!-- 8&#45;&gt;9 -->
<g id="edge9" class="edge"><title>8&#45;&gt;9</title>
<path fill="none" stroke="black" d="M1071.12,-22.7738C1089.96,-22.7738 1120.53,-22.7738 1142.7,-22.7738"/>
<polygon fill="black" stroke="black" points="1142.81,-26.2739 1152.81,-22.7738 1142.81,-19.2739 1142.81,-26.2739"/>
<text text-anchor="middle" x="1112" y="-26.5738" font-family="Times,serif" font-size="14.00">u0008</text>
</g>
<!-- 10 -->
<g id="node11" class="node"><title>10</title>
<ellipse fill="none" stroke="black" cx="1289" cy="-22.7738" rx="18" ry="18"/>
</g>
<!-- 9&#45;&gt;10 -->
<g id="edge10" class="edge"><title>9&#45;&gt;10</title>
<path fill="none" stroke="black" d="M1189.12,-22.7738C1207.96,-22.7738 1238.53,-22.7738 1260.7,-22.7738"/>
<polygon fill="black" stroke="black" points="1260.81,-26.2739 1270.81,-22.7738 1260.81,-19.2739 1260.81,-26.2739"/>
<text text-anchor="middle" x="1230" y="-26.5738" font-family="Times,serif" font-size="14.00">u000a</text>
</g>
<!-- 10&#45;&gt;9 -->
<g id="edge12" class="edge"><title>10&#45;&gt;9</title>
<path fill="none" stroke="black" d="M1273.69,-12.9081C1267.6,-9.28031 1260.24,-5.61156 1253,-3.77378 1233.18,1.25793 1226.82,1.25793 1207,-3.77378 1203.04,-4.77882 1199.05,-6.33145 1195.24,-8.1255"/>
<polygon fill="black" stroke="black" points="1193.48,-5.10223 1186.31,-12.9081 1196.78,-11.2734 1193.48,-5.10223"/>
<text text-anchor="middle" x="1230" y="-7.57378" font-family="Times,serif" font-size="14.00">u000b</text>
</g>
<!-- 11 -->
<g id="node12" class="node"><title>11</title>
<ellipse fill="none" stroke="black" cx="1411" cy="-22.7738" rx="18" ry="18"/>
<ellipse fill="none" stroke="black" cx="1411" cy="-22.7738" rx="22" ry="22"/>
</g>
<!-- 10&#45;&gt;11 -->
<g id="edge11" class="edge"><title>10&#45;&gt;11</title>
<path fill="none" stroke="black" d="M1307.19,-22.7738C1325.77,-22.7738 1355.76,-22.7738 1378.57,-22.7738"/>
<polygon fill="black" stroke="black" points="1378.79,-26.2739 1388.79,-22.7738 1378.79,-19.2739 1378.79,-26.2739"/>
<text text-anchor="middle" x="1348" y="-26.5738" font-family="Times,serif" font-size="14.00">u0009</text>
</g>
<!-- initial -->
<g id="node13" class="node"><title>initial</title>
</g>
<!-- initial&#45;&gt;0 -->
<g id="edge13" class="edge"><title>initial&#45;&gt;0</title>
<path fill="none" stroke="black" d="M54.195,-22.7738C62.6538,-22.7738 72.0513,-22.7738 80.5951,-22.7738"/>
<polygon fill="black" stroke="black" points="80.8257,-26.2739 90.8257,-22.7738 80.8257,-19.2739 80.8257,-26.2739"/>
</g>
</g>
</svg>
