<svg width="1600px" height="152px"
 viewBox="0.00 0.00 1200.00 114.00" xmlns="http://www.w3.org/2000/svg" xmlns:xlink="http://www.w3.org/1999/xlink">
<g id="graph0" class="graph" transform="scale(1.000022500562514 1.000022500562514) rotate(0) translate(4 110)">
<title>Automaton</title>
<polygon fill="white" stroke="none" points="-4,4 -4,-110 1196,-110 1196,4 -4,4"/>
<!-- 0 -->
<g id="node1" class="node"><title>0</title>
<ellipse fill="none" stroke="black" cx="109" cy="-22" rx="18" ry="18"/>
</g>
<!-- 1 -->
<g id="node2" class="node"><title>1</title>
<ellipse fill="none" stroke="black" cx="227" cy="-22" rx="18" ry="18"/>
</g>
<!-- 0&#45;&gt;1 -->
<g id="edge1" class="edge"><title>0&#45;&gt;1</title>
<path fill="none" stroke="black" d="M127.116,-22C145.964,-22 176.531,-22 198.696,-22"/>
<polygon fill="black" stroke="black" points="198.814,-25.5001 208.814,-22 198.814,-18.5001 198.814,-25.5001"/>
<text text-anchor="middle" x="168" y="-25.8" font-family="Times,serif" font-size="14.00">u0001</text>
</g>
<!-- 2 -->
<g id="node3" class="node"><title>2</title>
<ellipse fill="none" stroke="black" cx="345" cy="-22" rx="18" ry="18"/>
</g>
<!-- 1&#45;&gt;2 -->
<g id="edge2" class="edge"><title>1&#45;&gt;2</title>
<path fill="none" stroke="black" d="M245.116,-22C263.964,-22 294.531,-22 316.696,-22"/>
<polygon fill="black" stroke="black" points="316.814,-25.5001 326.814,-22 316.814,-18.5001 316.814,-25.5001"/>
<text text-anchor="middle" x="286" y="-25.8" font-family="Times,serif" font-size="14.00">u0003</text>
</g>
<!-- 3 -->
<g id="node4" class="node"><title>3</title>
<ellipse fill="none" stroke="black" cx="462" cy="-22" rx="18" ry="18"/>
</g>
<!-- 2&#45;&gt;3 -->
<g id="edge3" class="edge"><title>2&#45;&gt;3</title>
<path fill="none" stroke="black" d="M363.466,-22C382.064,-22 411.756,-22 433.499,-22"/>
<polygon fill="black" stroke="black" points="433.746,-25.5001 443.746,-22 433.746,-18.5001 433.746,-25.5001"/>
<text text-anchor="middle" x="403.5" y="-25.8" font-family="Times,serif" font-size="14.00">u000e</text>
</g>
<!-- 4 -->
<g id="node5" class="node"><title>4</title>
<ellipse fill="none" stroke="black" cx="576" cy="-22" rx="18" ry="18"/>
</g>
<!-- 3&#45;&gt;4 -->
<g id="edge4" class="edge"><title>3&#45;&gt;4</title>
<path fill="none" stroke="black" d="M480.01,-22C497.937,-22 526.445,-22 547.558,-22"/>
<polygon fill="black" stroke="black" points="547.83,-25.5001 557.83,-22 547.829,-18.5001 547.83,-25.5001"/>
<text text-anchor="middle" x="519" y="-25.8" font-family="Times,serif" font-size="14.00">u000f</text>
</g>
<!-- 5 -->
<g id="node6" class="node"><title>5</title>
<ellipse fill="none" stroke="black" cx="694" cy="-22" rx="18" ry="18"/>
</g>
<!-- 4&#45;&gt;5 -->
<g id="edge5" class="edge"><title>4&#45;&gt;5</title>
<path fill="none" stroke="black" d="M594.116,-22C612.964,-22 643.531,-22 665.696,-22"/>
<polygon fill="black" stroke="black" points="665.814,-25.5001 675.814,-22 665.814,-18.5001 665.814,-25.5001"/>
<text text-anchor="middle" x="635" y="-25.8" font-family="Times,serif" font-size="14.00">u0002</text>
</g>
<!-- 5&#45;&gt;5 -->
<g id="edge6" class="edge"><title>5&#45;&gt;5</title>
<path fill="none" stroke="black" d="M688.823,-39.4099C687.856,-49.0879 689.582,-58 694,-58 696.761,-58 698.471,-54.5187 699.129,-49.5449"/>
<polygon fill="black" stroke="black" points="702.629,-49.4266 699.177,-39.4099 695.629,-49.393 702.629,-49.4266"/>
<text text-anchor="middle" x="694" y="-61.8" font-family="Times,serif" font-size="14.00">u000c&#45;u000d</text>
</g>
<!-- 5&#45;&gt;5 -->
<g id="edge8" class="edge"><title>5&#45;&gt;5</title>
<path fill="none" stroke="black" d="M685.759,-38.3083C680.435,-55.9604 683.182,-76 694,-76 702.79,-76 706.251,-62.7707 704.384,-48.3416"/>
<polygon fill="black" stroke="black" points="707.753,-47.3562 702.241,-38.3083 700.907,-48.8189 707.753,-47.3562"/>
<text text-anchor="middle" x="694" y="-79.8" font-family="Times,serif" font-size="14.00">u0000</text>
</g>
<!-- 6 -->
<g id="node7" class="node"><title>6</title>
<ellipse fill="none" stroke="black" cx="812" cy="-22" rx="18" ry="18"/>
</g>
<!-- 5&#45;&gt;6 -->
<g id="edge7" class="edge"><title>5&#45;&gt;6</title>
<path fill="none" stroke="black" d="M712.116,-22C730.964,-22 761.531,-22 783.696,-22"/>
<polygon fill="black" stroke="black" points="783.814,-25.5001 793.814,-22 783.814,-18.5001 783.814,-25.5001"/>
<text text-anchor="middle" x="753" y="-25.8" font-family="Times,serif" font-size="14.00">u0006</text>
</g>
<!-- 7 -->
<g id="node8" class="node"><title>7</title>
<ellipse fill="none" stroke="black" cx="930" cy="-22" rx="18" ry="18"/>
</g>
<!-- 6&#45;&gt;7 -->
<g id="edge9" class="edge"><title>6&#45;&gt;7</title>
<path fill="none" stroke="black" d="M830.116,-22C848.964,-22 879.531,-22 901.696,-22"/>
<polygon fill="black" stroke="black" points="901.814,-25.5001 911.814,-22 901.814,-18.5001 901.814,-25.5001"/>
<text text-anchor="middle" x="871" y="-25.8" font-family="Times,serif" font-size="14.00">u0004</text>
</g>
<!-- 8 -->
<g id="node9" class="node"><title>8</title>
<ellipse fill="none" stroke="black" cx="1048" cy="-22" rx="18" ry="18"/>
</g>
<!-- 7&#45;&gt;8 -->
<g id="edge10" class="edge"><title>7&#45;&gt;8</title>
<path fill="none" stroke="black" d="M948.116,-22C966.964,-22 997.531,-22 1019.7,-22"/>
<polygon fill="black" stroke="black" points="1019.81,-25.5001 1029.81,-22 1019.81,-18.5001 1019.81,-25.5001"/>
<text text-anchor="middle" x="989" y="-25.8" font-family="Times,serif" font-size="14.00">u0005</text>
</g>
<!-- 8&#45;&gt;8 -->
<g id="edge11" class="edge"><title>8&#45;&gt;8</title>
<path fill="none" stroke="black" d="M1042.82,-39.4099C1041.86,-49.0879 1043.58,-58 1048,-58 1050.76,-58 1052.47,-54.5187 1053.13,-49.5449"/>
<polygon fill="black" stroke="black" points="1056.63,-49.4266 1053.18,-39.4099 1049.63,-49.393 1056.63,-49.4266"/>
<text text-anchor="middle" x="1048" y="-61.8" font-family="Times,serif" font-size="14.00">u0010&#45;u0011</text>
</g>
<!-- 8&#45;&gt;8 -->
<g id="edge13" class="edge"><title>8&#45;&gt;8</title>
<path fill="none" stroke="black" d="M1039.76,-38.3083C1034.43,-55.9604 1037.18,-76 1048,-76 1056.79,-76 1060.25,-62.7707 1058.38,-48.3416"/>
<polygon fill="black" stroke="black" points="1061.75,-47.3562 1056.24,-38.3083 1054.91,-48.8189 1061.75,-47.3562"/>
<text text-anchor="middle" x="1048" y="-79.8" font-family="Times,serif" font-size="14.00">u0008&#45;u000b</text>
</g>
<!-- 9 -->
<g id="node10" class="node"><title>9</title>
<ellipse fill="none" stroke="black" cx="1170" cy="-22" rx="18" ry="18"/>
<ellipse fill="none" stroke="black" cx="1170" cy="-22" rx="22" ry="22"/>
</g>
<!-- 8&#45;&gt;9 -->
<g id="edge12" class="edge"><title>8&#45;&gt;9</title>
<path fill="none" stroke="black" d="M1066.19,-22C1084.77,-22 1114.76,-22 1137.57,-22"/>
<polygon fill="black" stroke="black" points="1137.79,-25.5001 1147.79,-22 1137.79,-18.5001 1137.79,-25.5001"/>
<text text-anchor="middle" x="1107" y="-25.8" font-family="Times,serif" font-size="14.00">u0007</text>
</g>
<!-- initial -->
<g id="node11" class="node"><title>initial</title>
</g>
<!-- initial&#45;&gt;0 -->
<g id="edge14" class="edge"><title>initial&#45;&gt;0</title>
<path fill="none" stroke="black" d="M54.195,-22C62.6538,-22 72.0513,-22 80.5951,-22"/>
<polygon fill="black" stroke="black" points="80.8257,-25.5001 90.8257,-22 80.8257,-18.5001 80.8257,-25.5001"/>
</g>
</g>
</svg>
