<svg width="1600px" height="284px"
 viewBox="0.00 0.00 1200.00 213.00" xmlns="http://www.w3.org/2000/svg" xmlns:xlink="http://www.w3.org/1999/xlink">
<g id="graph0" class="graph" transform="scale(1.000022500562514 1.000022500562514) rotate(0) translate(4 209)">
<title>Automaton</title>
<polygon fill="white" stroke="none" points="-4,4 -4,-209 1196,-209 1196,4 -4,4"/>
<!-- 0 -->
<g id="node1" class="node"><title>0</title>
<ellipse fill="none" stroke="black" cx="109" cy="-22" rx="18" ry="18"/>
</g>
<!-- 1 -->
<g id="node2" class="node"><title>1</title>
<ellipse fill="none" stroke="black" cx="227" cy="-22" rx="18" ry="18"/>
</g>
<!-- 0&#45;&gt;1 -->
<g id="edge1" class="edge"><title>0&#45;&gt;1</title>
<path fill="none" stroke="black" d="M127.116,-22C145.964,-22 176.531,-22 198.696,-22"/>
<polygon fill="black" stroke="black" points="198.814,-25.5001 208.814,-22 198.814,-18.5001 198.814,-25.5001"/>
<text text-anchor="middle" x="168" y="-25.8" font-family="Times,serif" font-size="14.00">u0005</text>
</g>
<!-- 2 -->
<g id="node3" class="node"><title>2</title>
<ellipse fill="none" stroke="black" cx="344" cy="-22" rx="18" ry="18"/>
</g>
<!-- 1&#45;&gt;2 -->
<g id="edge2" class="edge"><title>1&#45;&gt;2</title>
<path fill="none" stroke="black" d="M245.466,-22C264.064,-22 293.756,-22 315.499,-22"/>
<polygon fill="black" stroke="black" points="315.746,-25.5001 325.746,-22 315.746,-18.5001 315.746,-25.5001"/>
<text text-anchor="middle" x="285.5" y="-25.8" font-family="Times,serif" font-size="14.00">u000c</text>
</g>
<!-- 3 -->
<g id="node4" class="node"><title>3</title>
<ellipse fill="none" stroke="black" cx="462" cy="-22" rx="18" ry="18"/>
</g>
<!-- 2&#45;&gt;3 -->
<g id="edge3" class="edge"><title>2&#45;&gt;3</title>
<path fill="none" stroke="black" d="M362.116,-22C380.964,-22 411.531,-22 433.696,-22"/>
<polygon fill="black" stroke="black" points="433.814,-25.5001 443.814,-22 433.814,-18.5001 433.814,-25.5001"/>
<text text-anchor="middle" x="403" y="-25.8" font-family="Times,serif" font-size="14.00">u0001</text>
</g>
<!-- 4 -->
<g id="node5" class="node"><title>4</title>
<ellipse fill="none" stroke="black" cx="580" cy="-22" rx="18" ry="18"/>
</g>
<!-- 3&#45;&gt;4 -->
<g id="edge4" class="edge"><title>3&#45;&gt;4</title>
<path fill="none" stroke="black" d="M480.116,-22C498.964,-22 529.531,-22 551.696,-22"/>
<polygon fill="black" stroke="black" points="551.814,-25.5001 561.814,-22 551.814,-18.5001 551.814,-25.5001"/>
<text text-anchor="middle" x="521" y="-25.8" font-family="Times,serif" font-size="14.00">u0008</text>
</g>
<!-- 5 -->
<g id="node6" class="node"><title>5</title>
<ellipse fill="none" stroke="black" cx="698" cy="-22" rx="18" ry="18"/>
</g>
<!-- 4&#45;&gt;5 -->
<g id="edge5" class="edge"><title>4&#45;&gt;5</title>
<path fill="none" stroke="black" d="M598.116,-22C616.964,-22 647.531,-22 669.696,-22"/>
<polygon fill="black" stroke="black" points="669.814,-25.5001 679.814,-22 669.814,-18.5001 669.814,-25.5001"/>
<text text-anchor="middle" x="639" y="-25.8" font-family="Times,serif" font-size="14.00">u0009</text>
</g>
<!-- 5&#45;&gt;5 -->
<g id="edge7" class="edge"><title>5&#45;&gt;5</title>
<path fill="none" stroke="black" d="M692.823,-39.4099C691.856,-49.0879 693.582,-58 698,-58 700.761,-58 702.471,-54.5187 703.129,-49.5449"/>
<polygon fill="black" stroke="black" points="706.629,-49.4266 703.177,-39.4099 699.629,-49.393 706.629,-49.4266"/>
<text text-anchor="middle" x="698" y="-61.8" font-family="Times,serif" font-size="14.00">u0002&#45;u0003</text>
</g>
<!-- 5&#45;&gt;5 -->
<g id="edge8" class="edge"><title>5&#45;&gt;5</title>
<path fill="none" stroke="black" d="M689.759,-38.3083C684.435,-55.9604 687.182,-76 698,-76 706.79,-76 710.251,-62.7707 708.384,-48.3416"/>
<polygon fill="black" stroke="black" points="711.753,-47.3562 706.241,-38.3083 704.907,-48.8189 711.753,-47.3562"/>
<text text-anchor="middle" x="698" y="-79.8" font-family="Times,serif" font-size="14.00">u0000</text>
</g>
<!-- 6 -->
<g id="node7" class="node"><title>6</title>
<ellipse fill="none" stroke="black" cx="816" cy="-22" rx="18" ry="18"/>
</g>
<!-- 5&#45;&gt;6 -->
<g id="edge6" class="edge"><title>5&#45;&gt;6</title>
<path fill="none" stroke="black" d="M716.116,-22C734.964,-22 765.531,-22 787.696,-22"/>
<polygon fill="black" stroke="black" points="787.814,-25.5001 797.814,-22 787.814,-18.5001 787.814,-25.5001"/>
<text text-anchor="middle" x="757" y="-25.8" font-family="Times,serif" font-size="14.00">u000d</text>
</g>
<!-- 7 -->
<g id="node8" class="node"><title>7</title>
<ellipse fill="none" stroke="black" cx="934" cy="-22" rx="18" ry="18"/>
</g>
<!-- 6&#45;&gt;7 -->
<g id="edge9" class="edge"><title>6&#45;&gt;7</title>
<path fill="none" stroke="black" d="M834.116,-22C852.964,-22 883.531,-22 905.696,-22"/>
<polygon fill="black" stroke="black" points="905.814,-25.5001 915.814,-22 905.814,-18.5001 905.814,-25.5001"/>
<text text-anchor="middle" x="875" y="-25.8" font-family="Times,serif" font-size="14.00">u0011</text>
</g>
<!-- 8 -->
<g id="node9" class="node"><title>8</title>
<ellipse fill="none" stroke="black" cx="1048" cy="-22" rx="18" ry="18"/>
</g>
<!-- 7&#45;&gt;8 -->
<g id="edge10" class="edge"><title>7&#45;&gt;8</title>
<path fill="none" stroke="black" d="M952.01,-22C969.937,-22 998.445,-22 1019.56,-22"/>
<polygon fill="black" stroke="black" points="1019.83,-25.5001 1029.83,-22 1019.83,-18.5001 1019.83,-25.5001"/>
<text text-anchor="middle" x="991" y="-25.8" font-family="Times,serif" font-size="14.00">u000f</text>
</g>
<!-- 8&#45;&gt;8 -->
<g id="edge11" class="edge"><title>8&#45;&gt;8</title>
<path fill="none" stroke="black" d="M1045.97,-40.1527C1045.66,-49.5391 1046.34,-58 1048,-58 1049.01,-58 1049.66,-54.8581 1049.94,-50.2796"/>
<polygon fill="black" stroke="black" points="1053.44,-50.1823 1050.03,-40.1527 1046.44,-50.1224 1053.44,-50.1823"/>
<text text-anchor="middle" x="1048" y="-61.8" font-family="Times,serif" font-size="14.00">u0004</text>
</g>
<!-- 8&#45;&gt;8 -->
<g id="edge12" class="edge"><title>8&#45;&gt;8</title>
<path fill="none" stroke="black" d="M1044.66,-39.6991C1042.82,-56.9958 1043.93,-76 1048,-76 1051.27,-76 1052.63,-63.6944 1052.08,-49.875"/>
<polygon fill="black" stroke="black" points="1055.56,-49.4181 1051.34,-39.6991 1048.57,-49.9272 1055.56,-49.4181"/>
<text text-anchor="middle" x="1048" y="-79.8" font-family="Times,serif" font-size="14.00">u0010</text>
</g>
<!-- 8&#45;&gt;8 -->
<g id="edge13" class="edge"><title>8&#45;&gt;8</title>
<path fill="none" stroke="black" d="M1043.81,-39.7154C1039.97,-64.1143 1041.37,-94 1048,-94 1053.75,-94 1055.56,-71.5255 1053.44,-49.6443"/>
<polygon fill="black" stroke="black" points="1056.92,-49.1998 1052.19,-39.7154 1049.97,-50.0742 1056.92,-49.1998"/>
<text text-anchor="middle" x="1048" y="-97.8" font-family="Times,serif" font-size="14.00">u0006&#45;u0007</text>
</g>
<!-- 8&#45;&gt;8 -->
<g id="edge15" class="edge"><title>8&#45;&gt;8</title>
<path fill="none" stroke="black" d="M1043.22,-39.6705C1037.13,-70.8525 1038.72,-112 1048,-112 1056.3,-112 1058.45,-79.0744 1054.45,-49.8093"/>
<polygon fill="black" stroke="black" points="1057.86,-48.9689 1052.78,-39.6705 1050.95,-50.1063 1057.86,-48.9689"/>
<text text-anchor="middle" x="1048" y="-115.8" font-family="Times,serif" font-size="14.00">u000a</text>
</g>
<!-- 8&#45;&gt;8 -->
<g id="edge16" class="edge"><title>8&#45;&gt;8</title>
<path fill="none" stroke="black" d="M1042.87,-39.2809C1034.28,-77.0676 1036,-130 1048,-130 1058.97,-130 1061.35,-85.7744 1055.12,-49.3151"/>
<polygon fill="black" stroke="black" points="1058.51,-48.4119 1053.13,-39.2809 1051.64,-49.7699 1058.51,-48.4119"/>
<text text-anchor="middle" x="1048" y="-133.8" font-family="Times,serif" font-size="14.00">u000e</text>
</g>
<!-- 9 -->
<g id="node10" class="node"><title>9</title>
<ellipse fill="none" stroke="black" cx="1170" cy="-22" rx="18" ry="18"/>
<ellipse fill="none" stroke="black" cx="1170" cy="-22" rx="22" ry="22"/>
</g>
<!-- 8&#45;&gt;9 -->
<g id="edge14" class="edge"><title>8&#45;&gt;9</title>
<path fill="none" stroke="black" d="M1066.19,-22C1084.77,-22 1114.76,-22 1137.57,-22"/>
<polygon fill="black" stroke="black" points="1137.79,-25.5001 1147.79,-22 1137.79,-18.5001 1137.79,-25.5001"/>
<text text-anchor="middle" x="1107" y="-25.8" font-family="Times,serif" font-size="14.00">u000b</text>
</g>
<!-- initial -->
<g id="node11" class="node"><title>initial</title>
</g>
<!-- initial&#45;&gt;0 -->
<g id="edge17" class="edge"><title>initial&#45;&gt;0</title>
<path fill="none" stroke="black" d="M54.195,-22C62.6538,-22 72.0513,-22 80.5951,-22"/>
<polygon fill="black" stroke="black" points="80.8257,-25.5001 90.8257,-22 80.8257,-18.5001 80.8257,-25.5001"/>
</g>
</g>
</svg>
