<svg width="820px" height="188px"
 viewBox="0.00 0.00 615.00 141.00" xmlns="http://www.w3.org/2000/svg" xmlns:xlink="http://www.w3.org/1999/xlink">
<g id="graph0" class="graph" transform="scale(1.000022500562514 1.000022500562514) rotate(0) translate(4 137)">
<title>Automaton</title>
<polygon fill="white" stroke="none" points="-4,4 -4,-137 611,-137 611,4 -4,4"/>
<!-- 0 -->
<g id="node1" class="node"><title>0</title>
<ellipse fill="none" stroke="black" cx="109" cy="-19" rx="18" ry="18"/>
</g>
<!-- 1 -->
<g id="node2" class="node"><title>1</title>
<ellipse fill="none" stroke="black" cx="227" cy="-19" rx="18" ry="18"/>
</g>
<!-- 0&#45;&gt;1 -->
<g id="edge1" class="edge"><title>0&#45;&gt;1</title>
<path fill="none" stroke="black" d="M127.116,-19C145.964,-19 176.531,-19 198.696,-19"/>
<polygon fill="black" stroke="black" points="198.814,-22.5001 208.814,-19 198.814,-15.5001 198.814,-22.5001"/>
<text text-anchor="middle" x="168" y="-22.8" font-family="Times,serif" font-size="14.00">u0005</text>
</g>
<!-- 2 -->
<g id="node3" class="node"><title>2</title>
<ellipse fill="none" stroke="black" cx="345" cy="-49" rx="18" ry="18"/>
</g>
<!-- 1&#45;&gt;2 -->
<g id="edge2" class="edge"><title>1&#45;&gt;2</title>
<path fill="none" stroke="black" d="M244.62,-23.2983C263.657,-28.2216 295.103,-36.3543 317.523,-42.1525"/>
<polygon fill="black" stroke="black" points="316.853,-45.5943 327.411,-44.7097 318.606,-38.8173 316.853,-45.5943"/>
<text text-anchor="middle" x="286" y="-42.8" font-family="Times,serif" font-size="14.00">u0004</text>
</g>
<!-- 3 -->
<g id="node5" class="node"><title>3</title>
<ellipse fill="none" stroke="black" cx="585" cy="-22" rx="18" ry="18"/>
<ellipse fill="none" stroke="black" cx="585" cy="-22" rx="22" ry="22"/>
</g>
<!-- 1&#45;&gt;3 -->
<g id="edge3" class="edge"><title>1&#45;&gt;3</title>
<path fill="none" stroke="black" d="M245.171,-19.1447C301.185,-19.6167 479.184,-21.1167 552.241,-21.7324"/>
<polygon fill="black" stroke="black" points="552.602,-25.2354 562.632,-21.8199 552.662,-18.2357 552.602,-25.2354"/>
<text text-anchor="middle" x="404" y="-23.8" font-family="Times,serif" font-size="14.00">u0000</text>
</g>
<!-- 2&#45;&gt;2 -->
<g id="edge4" class="edge"><title>2&#45;&gt;2</title>
<path fill="none" stroke="black" d="M339.823,-66.4099C338.856,-76.0879 340.582,-85 345,-85 347.761,-85 349.471,-81.5187 350.129,-76.5449"/>
<polygon fill="black" stroke="black" points="353.629,-76.4266 350.177,-66.4099 346.629,-76.393 353.629,-76.4266"/>
<text text-anchor="middle" x="345" y="-88.8" font-family="Times,serif" font-size="14.00">u0003</text>
</g>
<!-- 2&#45;&gt;2 -->
<g id="edge6" class="edge"><title>2&#45;&gt;2</title>
<path fill="none" stroke="black" d="M336.759,-65.3083C331.435,-82.9604 334.182,-103 345,-103 353.79,-103 357.251,-89.7707 355.384,-75.3416"/>
<polygon fill="black" stroke="black" points="358.753,-74.3562 353.241,-65.3083 351.907,-75.8189 358.753,-74.3562"/>
<text text-anchor="middle" x="345" y="-106.8" font-family="Times,serif" font-size="14.00">u0001</text>
</g>
<!-- 4 -->
<g id="node4" class="node"><title>4</title>
<ellipse fill="none" stroke="black" cx="463" cy="-49" rx="18" ry="18"/>
</g>
<!-- 2&#45;&gt;4 -->
<g id="edge5" class="edge"><title>2&#45;&gt;4</title>
<path fill="none" stroke="black" d="M363.116,-49C381.964,-49 412.531,-49 434.696,-49"/>
<polygon fill="black" stroke="black" points="434.814,-52.5001 444.814,-49 434.814,-45.5001 434.814,-52.5001"/>
<text text-anchor="middle" x="404" y="-52.8" font-family="Times,serif" font-size="14.00">u0002</text>
</g>
<!-- 4&#45;&gt;3 -->
<g id="edge7" class="edge"><title>4&#45;&gt;3</title>
<path fill="none" stroke="black" d="M480.685,-45.2458C499.45,-41.0238 530.317,-34.0787 553.435,-28.8772"/>
<polygon fill="black" stroke="black" points="554.452,-32.236 563.439,-26.6261 552.915,-25.4067 554.452,-32.236"/>
<text text-anchor="middle" x="522" y="-44.8" font-family="Times,serif" font-size="14.00">u0000</text>
</g>
<!-- initial -->
<g id="node6" class="node"><title>initial</title>
</g>
<!-- initial&#45;&gt;0 -->
<g id="edge8" class="edge"><title>initial&#45;&gt;0</title>
<path fill="none" stroke="black" d="M54.195,-19C62.6538,-19 72.0513,-19 80.5951,-19"/>
<polygon fill="black" stroke="black" points="80.8257,-22.5001 90.8257,-19 80.8257,-15.5001 80.8257,-22.5001"/>
</g>
</g>
</svg>
