<svg width="820px" height="141px"
 viewBox="0.00 0.00 615.00 106.00" xmlns="http://www.w3.org/2000/svg" xmlns:xlink="http://www.w3.org/1999/xlink">
<g id="graph0" class="graph" transform="scale(1.000022500562514 1.000022500562514) rotate(0) translate(4 102)">
<title>Automaton</title>
<polygon fill="white" stroke="none" points="-4,4 -4,-102 611,-102 611,4 -4,4"/>
<!-- 0 -->
<g id="node1" class="node"><title>0</title>
<ellipse fill="none" stroke="black" cx="109" cy="-77" rx="18" ry="18"/>
</g>
<!-- 1 -->
<g id="node2" class="node"><title>1</title>
<ellipse fill="none" stroke="black" cx="227" cy="-77" rx="18" ry="18"/>
</g>
<!-- 0&#45;&gt;1 -->
<g id="edge1" class="edge"><title>0&#45;&gt;1</title>
<path fill="none" stroke="black" d="M127.116,-77C145.964,-77 176.531,-77 198.696,-77"/>
<polygon fill="black" stroke="black" points="198.814,-80.5001 208.814,-77 198.814,-73.5001 198.814,-80.5001"/>
<text text-anchor="middle" x="168" y="-80.8" font-family="Times,serif" font-size="14.00">u0000</text>
</g>
<!-- 2 -->
<g id="node3" class="node"><title>2</title>
<ellipse fill="none" stroke="black" cx="585" cy="-76" rx="18" ry="18"/>
<ellipse fill="none" stroke="black" cx="585" cy="-76" rx="22" ry="22"/>
</g>
<!-- 1&#45;&gt;2 -->
<g id="edge2" class="edge"><title>1&#45;&gt;2</title>
<path fill="none" stroke="black" d="M245.119,-77.5106C287.914,-78.7583 403.003,-81.9374 499,-83 519.443,-83.2263 524.636,-84.813 545,-83 547.578,-82.7705 550.241,-82.4572 552.907,-82.0898"/>
<polygon fill="black" stroke="black" points="553.722,-85.5041 563.042,-80.4668 552.615,-78.5921 553.722,-85.5041"/>
<text text-anchor="middle" x="404" y="-84.8" font-family="Times,serif" font-size="14.00">u0002</text>
</g>
<!-- 3 -->
<g id="node4" class="node"><title>3</title>
<ellipse fill="none" stroke="black" cx="345" cy="-18" rx="18" ry="18"/>
</g>
<!-- 1&#45;&gt;3 -->
<g id="edge3" class="edge"><title>1&#45;&gt;3</title>
<path fill="none" stroke="black" d="M243.644,-69.043C263.124,-59.135 296.621,-42.098 319.513,-30.4544"/>
<polygon fill="black" stroke="black" points="321.277,-33.4842 328.604,-25.8309 318.104,-27.2448 321.277,-33.4842"/>
<text text-anchor="middle" x="286" y="-61.8" font-family="Times,serif" font-size="14.00">u0001</text>
</g>
<!-- 3&#45;&gt;3 -->
<g id="edge5" class="edge"><title>3&#45;&gt;3</title>
<path fill="none" stroke="black" d="M335.187,-33.1666C332.213,-43.6641 335.484,-54 345,-54 351.245,-54 354.8,-49.5487 355.666,-43.5216"/>
<polygon fill="black" stroke="black" points="359.122,-42.8455 354.813,-33.1666 352.146,-43.4202 359.122,-42.8455"/>
<text text-anchor="middle" x="345" y="-57.8" font-family="Times,serif" font-size="14.00">u0004&#45;u0005</text>
</g>
<!-- 4 -->
<g id="node5" class="node"><title>4</title>
<ellipse fill="none" stroke="black" cx="463" cy="-43" rx="18" ry="18"/>
</g>
<!-- 3&#45;&gt;4 -->
<g id="edge4" class="edge"><title>3&#45;&gt;4</title>
<path fill="none" stroke="black" d="M363.116,-21.6888C382.158,-25.7927 413.163,-32.4747 435.379,-37.2627"/>
<polygon fill="black" stroke="black" points="434.678,-40.6919 445.191,-39.3773 436.153,-33.849 434.678,-40.6919"/>
<text text-anchor="middle" x="404" y="-38.8" font-family="Times,serif" font-size="14.00">u0003</text>
</g>
<!-- 4&#45;&gt;2 -->
<g id="edge6" class="edge"><title>4&#45;&gt;2</title>
<path fill="none" stroke="black" d="M480.685,-47.5885C499.535,-52.772 530.595,-61.3137 553.746,-67.6803"/>
<polygon fill="black" stroke="black" points="552.869,-71.0689 563.439,-70.3459 554.725,-64.3195 552.869,-71.0689"/>
<text text-anchor="middle" x="522" y="-68.8" font-family="Times,serif" font-size="14.00">u0002</text>
</g>
<!-- initial -->
<g id="node6" class="node"><title>initial</title>
</g>
<!-- initial&#45;&gt;0 -->
<g id="edge7" class="edge"><title>initial&#45;&gt;0</title>
<path fill="none" stroke="black" d="M54.195,-77C62.6538,-77 72.0513,-77 80.5951,-77"/>
<polygon fill="black" stroke="black" points="80.8257,-80.5001 90.8257,-77 80.8257,-73.5001 80.8257,-80.5001"/>
</g>
</g>
</svg>
