<svg width="2717px" height="189px"
 viewBox="0.00 0.00 2038.00 142.00" xmlns="http://www.w3.org/2000/svg" xmlns:xlink="http://www.w3.org/1999/xlink">
<g id="graph0" class="graph" transform="scale(1.000022500562514 1.000022500562514) rotate(0) translate(4 138)">
<title>Automaton</title>
<polygon fill="white" stroke="none" points="-4,4 -4,-138 2034,-138 2034,4 -4,4"/>
<!-- 0 -->
<g id="node1" class="node"><title>0</title>
<ellipse fill="none" stroke="black" cx="109" cy="-97" rx="18" ry="18"/>
</g>
<!-- 1 -->
<g id="node2" class="node"><title>1</title>
<ellipse fill="none" stroke="black" cx="227" cy="-97" rx="18" ry="18"/>
</g>
<!-- 0&#45;&gt;1 -->
<g id="edge1" class="edge"><title>0&#45;&gt;1</title>
<path fill="none" stroke="black" d="M127.116,-97C145.964,-97 176.531,-97 198.696,-97"/>
<polygon fill="black" stroke="black" points="198.814,-100.5 208.814,-97 198.814,-93.5001 198.814,-100.5"/>
<text text-anchor="middle" x="168" y="-100.8" font-family="Times,serif" font-size="14.00">u0006</text>
</g>
<!-- 2 -->
<g id="node3" class="node"><title>2</title>
<ellipse fill="none" stroke="black" cx="345" cy="-97" rx="18" ry="18"/>
</g>
<!-- 1&#45;&gt;2 -->
<g id="edge2" class="edge"><title>1&#45;&gt;2</title>
<path fill="none" stroke="black" d="M245.116,-97C263.964,-97 294.531,-97 316.696,-97"/>
<polygon fill="black" stroke="black" points="316.814,-100.5 326.814,-97 316.814,-93.5001 316.814,-100.5"/>
<text text-anchor="middle" x="286" y="-100.8" font-family="Times,serif" font-size="14.00">u0005</text>
</g>
<!-- 3 -->
<g id="node4" class="node"><title>3</title>
<ellipse fill="none" stroke="black" cx="463" cy="-97" rx="18" ry="18"/>
</g>
<!-- 2&#45;&gt;3 -->
<g id="edge3" class="edge"><title>2&#45;&gt;3</title>
<path fill="none" stroke="black" d="M363.116,-97C381.964,-97 412.531,-97 434.696,-97"/>
<polygon fill="black" stroke="black" points="434.814,-100.5 444.814,-97 434.814,-93.5001 434.814,-100.5"/>
<text text-anchor="middle" x="404" y="-100.8" font-family="Times,serif" font-size="14.00">u0004</text>
</g>
<!-- 4 -->
<g id="node5" class="node"><title>4</title>
<ellipse fill="none" stroke="black" cx="581" cy="-97" rx="18" ry="18"/>
</g>
<!-- 3&#45;&gt;4 -->
<g id="edge4" class="edge"><title>3&#45;&gt;4</title>
<path fill="none" stroke="black" d="M481.116,-97C499.964,-97 530.531,-97 552.696,-97"/>
<polygon fill="black" stroke="black" points="552.814,-100.5 562.814,-97 552.814,-93.5001 552.814,-100.5"/>
<text text-anchor="middle" x="522" y="-100.8" font-family="Times,serif" font-size="14.00">u0003</text>
</g>
<!-- 5 -->
<g id="node6" class="node"><title>5</title>
<ellipse fill="none" stroke="black" cx="699" cy="-97" rx="18" ry="18"/>
</g>
<!-- 4&#45;&gt;5 -->
<g id="edge5" class="edge"><title>4&#45;&gt;5</title>
<path fill="none" stroke="black" d="M599.116,-97C617.964,-97 648.531,-97 670.696,-97"/>
<polygon fill="black" stroke="black" points="670.814,-100.5 680.814,-97 670.814,-93.5001 670.814,-100.5"/>
<text text-anchor="middle" x="640" y="-100.8" font-family="Times,serif" font-size="14.00">u0000</text>
</g>
<!-- 6 -->
<g id="node7" class="node"><title>6</title>
<ellipse fill="none" stroke="black" cx="817" cy="-97" rx="18" ry="18"/>
</g>
<!-- 5&#45;&gt;6 -->
<g id="edge6" class="edge"><title>5&#45;&gt;6</title>
<path fill="none" stroke="black" d="M717.116,-97C735.964,-97 766.531,-97 788.696,-97"/>
<polygon fill="black" stroke="black" points="788.814,-100.5 798.814,-97 788.814,-93.5001 788.814,-100.5"/>
<text text-anchor="middle" x="758" y="-100.8" font-family="Times,serif" font-size="14.00">u0001</text>
</g>
<!-- 7 -->
<g id="node8" class="node"><title>7</title>
<ellipse fill="none" stroke="black" cx="935" cy="-97" rx="18" ry="18"/>
</g>
<!-- 6&#45;&gt;7 -->
<g id="edge7" class="edge"><title>6&#45;&gt;7</title>
<path fill="none" stroke="black" d="M835.116,-97C853.964,-97 884.531,-97 906.696,-97"/>
<polygon fill="black" stroke="black" points="906.814,-100.5 916.814,-97 906.814,-93.5001 906.814,-100.5"/>
<text text-anchor="middle" x="876" y="-100.8" font-family="Times,serif" font-size="14.00">u0002</text>
</g>
<!-- 8 -->
<g id="node9" class="node"><title>8</title>
<ellipse fill="none" stroke="black" cx="1053" cy="-97" rx="18" ry="18"/>
</g>
<!-- 7&#45;&gt;8 -->
<g id="edge8" class="edge"><title>7&#45;&gt;8</title>
<path fill="none" stroke="black" d="M953.116,-97C971.964,-97 1002.53,-97 1024.7,-97"/>
<polygon fill="black" stroke="black" points="1024.81,-100.5 1034.81,-97 1024.81,-93.5001 1024.81,-100.5"/>
<text text-anchor="middle" x="994" y="-100.8" font-family="Times,serif" font-size="14.00">u0007</text>
</g>
<!-- 9 -->
<g id="node10" class="node"><title>9</title>
<ellipse fill="none" stroke="black" cx="1171" cy="-97" rx="18" ry="18"/>
</g>
<!-- 8&#45;&gt;9 -->
<g id="edge9" class="edge"><title>8&#45;&gt;9</title>
<path fill="none" stroke="black" d="M1071.12,-97C1089.96,-97 1120.53,-97 1142.7,-97"/>
<polygon fill="black" stroke="black" points="1142.81,-100.5 1152.81,-97 1142.81,-93.5001 1142.81,-100.5"/>
<text text-anchor="middle" x="1112" y="-100.8" font-family="Times,serif" font-size="14.00">u0008</text>
</g>
<!-- 10 -->
<g id="node11" class="node"><title>10</title>
<ellipse fill="none" stroke="black" cx="1347.5" cy="-116" rx="18" ry="18"/>
</g>
<!-- 9&#45;&gt;10 -->
<g id="edge10" class="edge"><title>9&#45;&gt;10</title>
<path fill="none" stroke="black" d="M1189.05,-98.8564C1219.28,-102.148 1282.53,-109.034 1318.99,-113.005"/>
<polygon fill="black" stroke="black" points="1319.06,-116.533 1329.38,-114.136 1319.82,-109.574 1319.06,-116.533"/>
<text text-anchor="middle" x="1230" y="-108.8" font-family="Times,serif" font-size="14.00">u000b</text>
</g>
<!-- 11 -->
<g id="node14" class="node"><title>11</title>
<ellipse fill="none" stroke="black" cx="1289" cy="-70" rx="18" ry="18"/>
</g>
<!-- 9&#45;&gt;11 -->
<g id="edge11" class="edge"><title>9&#45;&gt;11</title>
<path fill="none" stroke="black" d="M1186.82,-87.856C1192.87,-84.5362 1200.07,-81.0908 1207,-79 1224.39,-73.7567 1244.71,-71.5089 1260.64,-70.5708"/>
<polygon fill="black" stroke="black" points="1261.05,-74.0559 1270.89,-70.1098 1260.74,-67.063 1261.05,-74.0559"/>
<text text-anchor="middle" x="1230" y="-82.8" font-family="Times,serif" font-size="14.00">u000a</text>
</g>
<!-- 12 -->
<g id="node12" class="node"><title>12</title>
<ellipse fill="none" stroke="black" cx="1886" cy="-97" rx="18" ry="18"/>
</g>
<!-- 10&#45;&gt;12 -->
<g id="edge12" class="edge"><title>10&#45;&gt;12</title>
<path fill="none" stroke="black" d="M1365.72,-116C1388.29,-116 1429.11,-116 1464,-116 1464,-116 1464,-116 1770,-116 1800.71,-116 1835.42,-109.323 1858.6,-103.885"/>
<polygon fill="black" stroke="black" points="1859.49,-107.27 1868.38,-101.503 1857.84,-100.469 1859.49,-107.27"/>
<text text-anchor="middle" x="1593" y="-119.8" font-family="Times,serif" font-size="14.00">u000b</text>
</g>
<!-- 15 -->
<g id="node13" class="node"><title>15</title>
<ellipse fill="none" stroke="black" cx="2008" cy="-97" rx="18" ry="18"/>
<ellipse fill="none" stroke="black" cx="2008" cy="-97" rx="22" ry="22"/>
</g>
<!-- 12&#45;&gt;15 -->
<g id="edge13" class="edge"><title>12&#45;&gt;15</title>
<path fill="none" stroke="black" d="M1904.19,-97C1922.77,-97 1952.76,-97 1975.57,-97"/>
<polygon fill="black" stroke="black" points="1975.79,-100.5 1985.79,-97 1975.79,-93.5001 1975.79,-100.5"/>
<text text-anchor="middle" x="1945" y="-100.8" font-family="Times,serif" font-size="14.00">u0009</text>
</g>
<!-- 13 -->
<g id="node15" class="node"><title>13</title>
<ellipse fill="none" stroke="black" cx="1769" cy="-70" rx="18" ry="18"/>
</g>
<!-- 11&#45;&gt;13 -->
<g id="edge14" class="edge"><title>11&#45;&gt;13</title>
<path fill="none" stroke="black" d="M1307.14,-70.4841C1329.61,-71.076 1370.26,-72 1405,-72 1405,-72 1405,-72 1653,-72 1682.99,-72 1717.38,-71.3114 1740.68,-70.7423"/>
<polygon fill="black" stroke="black" points="1740.95,-74.2368 1750.86,-70.4841 1740.77,-67.2391 1740.95,-74.2368"/>
<text text-anchor="middle" x="1529" y="-75.8" font-family="Times,serif" font-size="14.00">u000b</text>
</g>
<!-- 14 -->
<g id="node16" class="node"><title>14</title>
<ellipse fill="none" stroke="black" cx="1406" cy="-22" rx="18" ry="18"/>
</g>
<!-- 11&#45;&gt;14 -->
<g id="edge15" class="edge"><title>11&#45;&gt;14</title>
<path fill="none" stroke="black" d="M1302.79,-58.1308C1309.08,-52.8392 1317.01,-46.9273 1325,-43 1341.65,-34.8162 1361.87,-29.5443 1377.81,-26.3294"/>
<polygon fill="black" stroke="black" points="1378.88,-29.6908 1388.07,-24.4219 1377.6,-22.8087 1378.88,-29.6908"/>
<text text-anchor="middle" x="1347.5" y="-46.8" font-family="Times,serif" font-size="14.00">u000a</text>
</g>
<!-- 13&#45;&gt;12 -->
<g id="edge16" class="edge"><title>13&#45;&gt;12</title>
<path fill="none" stroke="black" d="M1786.93,-73.246C1803.18,-76.4433 1828.37,-81.6179 1850,-87 1852.87,-87.7152 1855.87,-88.5038 1858.85,-89.3148"/>
<polygon fill="black" stroke="black" points="1858.11,-92.7429 1868.68,-92.0852 1860,-86.005 1858.11,-92.7429"/>
<text text-anchor="middle" x="1827.5" y="-90.8" font-family="Times,serif" font-size="14.00">u000a</text>
</g>
<!-- 16 -->
<g id="node17" class="node"><title>16</title>
<ellipse fill="none" stroke="black" cx="1529" cy="-18" rx="18" ry="18"/>
</g>
<!-- 14&#45;&gt;16 -->
<g id="edge17" class="edge"><title>14&#45;&gt;16</title>
<path fill="none" stroke="black" d="M1424.08,-21.4354C1444.08,-20.7743 1477.45,-19.6709 1500.98,-18.8933"/>
<polygon fill="black" stroke="black" points="1501.13,-22.3903 1511.01,-18.5617 1500.9,-15.3942 1501.13,-22.3903"/>
<text text-anchor="middle" x="1465" y="-24.8" font-family="Times,serif" font-size="14.00">u000b</text>
</g>
<!-- 17 -->
<g id="node18" class="node"><title>17</title>
<ellipse fill="none" stroke="black" cx="1652" cy="-24" rx="18" ry="18"/>
</g>
<!-- 16&#45;&gt;17 -->
<g id="edge18" class="edge"><title>16&#45;&gt;17</title>
<path fill="none" stroke="black" d="M1547.08,-18.8469C1567.08,-19.8386 1600.45,-21.4936 1623.98,-22.66"/>
<polygon fill="black" stroke="black" points="1623.85,-26.1577 1634.01,-23.1574 1624.19,-19.1663 1623.85,-26.1577"/>
<text text-anchor="middle" x="1593" y="-26.8" font-family="Times,serif" font-size="14.00">u000c</text>
</g>
<!-- 17&#45;&gt;13 -->
<g id="edge19" class="edge"><title>17&#45;&gt;13</title>
<path fill="none" stroke="black" d="M1669.93,-25.907C1686.61,-28.2645 1712.51,-33.227 1733,-43 1737.9,-45.3358 1742.76,-48.4402 1747.23,-51.7107"/>
<polygon fill="black" stroke="black" points="1745.24,-54.5978 1755.26,-58.0462 1749.57,-49.1032 1745.24,-54.5978"/>
<text text-anchor="middle" x="1710.5" y="-46.8" font-family="Times,serif" font-size="14.00">u000c</text>
</g>
<!-- initial -->
<g id="node19" class="node"><title>initial</title>
</g>
<!-- initial&#45;&gt;0 -->
<g id="edge20" class="edge"><title>initial&#45;&gt;0</title>
<path fill="none" stroke="black" d="M54.195,-97C62.6538,-97 72.0513,-97 80.5951,-97"/>
<polygon fill="black" stroke="black" points="80.8257,-100.5 90.8257,-97 80.8257,-93.5001 80.8257,-100.5"/>
</g>
</g>
</svg>
