<svg width="3185px" height="203px"
 viewBox="0.00 0.00 2389.00 152.00" xmlns="http://www.w3.org/2000/svg" xmlns:xlink="http://www.w3.org/1999/xlink">
<g id="graph0" class="graph" transform="scale(1.000022500562514 1.000022500562514) rotate(0) translate(4 148)">
<title>Automaton</title>
<polygon fill="white" stroke="none" points="-4,4 -4,-148 2385,-148 2385,4 -4,4"/>
<!-- 0 -->
<g id="node1" class="node"><title>0</title>
<ellipse fill="none" stroke="black" cx="109" cy="-52" rx="18" ry="18"/>
</g>
<!-- 1 -->
<g id="node2" class="node"><title>1</title>
<ellipse fill="none" stroke="black" cx="227" cy="-52" rx="18" ry="18"/>
</g>
<!-- 0&#45;&gt;1 -->
<g id="edge1" class="edge"><title>0&#45;&gt;1</title>
<path fill="none" stroke="black" d="M127.116,-52C145.964,-52 176.531,-52 198.696,-52"/>
<polygon fill="black" stroke="black" points="198.814,-55.5001 208.814,-52 198.814,-48.5001 198.814,-55.5001"/>
<text text-anchor="middle" x="168" y="-55.8" font-family="Times,serif" font-size="14.00">u0001</text>
</g>
<!-- 2 -->
<g id="node3" class="node"><title>2</title>
<ellipse fill="none" stroke="black" cx="345" cy="-52" rx="18" ry="18"/>
</g>
<!-- 1&#45;&gt;2 -->
<g id="edge2" class="edge"><title>1&#45;&gt;2</title>
<path fill="none" stroke="black" d="M245.116,-52C263.964,-52 294.531,-52 316.696,-52"/>
<polygon fill="black" stroke="black" points="316.814,-55.5001 326.814,-52 316.814,-48.5001 316.814,-55.5001"/>
<text text-anchor="middle" x="286" y="-55.8" font-family="Times,serif" font-size="14.00">u0003</text>
</g>
<!-- 3 -->
<g id="node4" class="node"><title>3</title>
<ellipse fill="none" stroke="black" cx="462" cy="-52" rx="18" ry="18"/>
</g>
<!-- 2&#45;&gt;3 -->
<g id="edge3" class="edge"><title>2&#45;&gt;3</title>
<path fill="none" stroke="black" d="M363.466,-52C382.064,-52 411.756,-52 433.499,-52"/>
<polygon fill="black" stroke="black" points="433.746,-55.5001 443.746,-52 433.746,-48.5001 433.746,-55.5001"/>
<text text-anchor="middle" x="403.5" y="-55.8" font-family="Times,serif" font-size="14.00">u000e</text>
</g>
<!-- 4 -->
<g id="node5" class="node"><title>4</title>
<ellipse fill="none" stroke="black" cx="576" cy="-52" rx="18" ry="18"/>
</g>
<!-- 3&#45;&gt;4 -->
<g id="edge4" class="edge"><title>3&#45;&gt;4</title>
<path fill="none" stroke="black" d="M480.01,-52C497.937,-52 526.445,-52 547.558,-52"/>
<polygon fill="black" stroke="black" points="547.83,-55.5001 557.83,-52 547.829,-48.5001 547.83,-55.5001"/>
<text text-anchor="middle" x="519" y="-55.8" font-family="Times,serif" font-size="14.00">u000f</text>
</g>
<!-- 5 -->
<g id="node6" class="node"><title>5</title>
<ellipse fill="none" stroke="black" cx="694" cy="-52" rx="18" ry="18"/>
</g>
<!-- 4&#45;&gt;5 -->
<g id="edge5" class="edge"><title>4&#45;&gt;5</title>
<path fill="none" stroke="black" d="M594.116,-52C612.964,-52 643.531,-52 665.696,-52"/>
<polygon fill="black" stroke="black" points="665.814,-55.5001 675.814,-52 665.814,-48.5001 665.814,-55.5001"/>
<text text-anchor="middle" x="635" y="-55.8" font-family="Times,serif" font-size="14.00">u0002</text>
</g>
<!-- 6 -->
<g id="node7" class="node"><title>6</title>
<ellipse fill="none" stroke="black" cx="870.5" cy="-71" rx="18" ry="18"/>
</g>
<!-- 5&#45;&gt;6 -->
<g id="edge6" class="edge"><title>5&#45;&gt;6</title>
<path fill="none" stroke="black" d="M712.05,-53.8564C742.282,-57.1482 805.527,-64.0345 841.991,-68.0047"/>
<polygon fill="black" stroke="black" points="842.061,-71.533 852.381,-69.1361 842.819,-64.5741 842.061,-71.533"/>
<text text-anchor="middle" x="753" y="-63.8" font-family="Times,serif" font-size="14.00">u000c</text>
</g>
<!-- 7 -->
<g id="node18" class="node"><title>7</title>
<ellipse fill="none" stroke="black" cx="812" cy="-25" rx="18" ry="18"/>
</g>
<!-- 5&#45;&gt;7 -->
<g id="edge7" class="edge"><title>5&#45;&gt;7</title>
<path fill="none" stroke="black" d="M709.825,-42.856C715.873,-39.5362 723.065,-36.0908 730,-34 747.391,-28.7567 767.708,-26.5089 783.645,-25.5708"/>
<polygon fill="black" stroke="black" points="784.055,-29.0559 793.887,-25.1098 783.74,-22.063 784.055,-29.0559"/>
<text text-anchor="middle" x="753" y="-37.8" font-family="Times,serif" font-size="14.00">u0000</text>
</g>
<!-- 8 -->
<g id="node8" class="node"><title>8</title>
<ellipse fill="none" stroke="black" cx="1637" cy="-72" rx="18" ry="18"/>
</g>
<!-- 6&#45;&gt;8 -->
<g id="edge8" class="edge"><title>6&#45;&gt;8</title>
<path fill="none" stroke="black" d="M888.72,-71C911.29,-71 952.109,-71 987,-71 987,-71 987,-71 1520,-71 1550.25,-71 1584.94,-71.3443 1608.44,-71.6288"/>
<polygon fill="black" stroke="black" points="1608.66,-75.1318 1618.71,-71.7579 1608.75,-68.1323 1608.66,-75.1318"/>
<text text-anchor="middle" x="1224" y="-74.8" font-family="Times,serif" font-size="14.00">u000d</text>
</g>
<!-- 10 -->
<g id="node9" class="node"><title>10</title>
<ellipse fill="none" stroke="black" cx="1755" cy="-126" rx="18" ry="18"/>
</g>
<!-- 8&#45;&gt;10 -->
<g id="edge9" class="edge"><title>8&#45;&gt;10</title>
<path fill="none" stroke="black" d="M1653.18,-80.6241C1659.28,-83.9867 1666.41,-87.795 1673,-91 1691.37,-99.9319 1712.57,-109.054 1728.68,-115.745"/>
<polygon fill="black" stroke="black" points="1727.4,-119.002 1737.98,-119.574 1730.06,-112.53 1727.4,-119.002"/>
<text text-anchor="middle" x="1696" y="-114.8" font-family="Times,serif" font-size="14.00">u000c</text>
</g>
<!-- 11 -->
<g id="node14" class="node"><title>11</title>
<ellipse fill="none" stroke="black" cx="1755" cy="-72" rx="18" ry="18"/>
</g>
<!-- 8&#45;&gt;11 -->
<g id="edge10" class="edge"><title>8&#45;&gt;11</title>
<path fill="none" stroke="black" d="M1655.12,-72C1673.96,-72 1704.53,-72 1726.7,-72"/>
<polygon fill="black" stroke="black" points="1726.81,-75.5001 1736.81,-72 1726.81,-68.5001 1726.81,-75.5001"/>
<text text-anchor="middle" x="1696" y="-75.8" font-family="Times,serif" font-size="14.00">u0006</text>
</g>
<!-- 13 -->
<g id="node10" class="node"><title>13</title>
<ellipse fill="none" stroke="black" cx="1873" cy="-126" rx="18" ry="18"/>
</g>
<!-- 10&#45;&gt;13 -->
<g id="edge11" class="edge"><title>10&#45;&gt;13</title>
<path fill="none" stroke="black" d="M1773.12,-126C1791.96,-126 1822.53,-126 1844.7,-126"/>
<polygon fill="black" stroke="black" points="1844.81,-129.5 1854.81,-126 1844.81,-122.5 1844.81,-129.5"/>
<text text-anchor="middle" x="1814" y="-129.8" font-family="Times,serif" font-size="14.00">u0006</text>
</g>
<!-- 16 -->
<g id="node11" class="node"><title>16</title>
<ellipse fill="none" stroke="black" cx="2050" cy="-126" rx="18" ry="18"/>
</g>
<!-- 13&#45;&gt;16 -->
<g id="edge12" class="edge"><title>13&#45;&gt;16</title>
<path fill="none" stroke="black" d="M1891.1,-126C1921.42,-126 1984.84,-126 2021.41,-126"/>
<polygon fill="black" stroke="black" points="2021.83,-129.5 2031.83,-126 2021.83,-122.5 2021.83,-129.5"/>
<text text-anchor="middle" x="1932" y="-129.8" font-family="Times,serif" font-size="14.00">u0004</text>
</g>
<!-- 19 -->
<g id="node12" class="node"><title>19</title>
<ellipse fill="none" stroke="black" cx="2237" cy="-72" rx="18" ry="18"/>
</g>
<!-- 16&#45;&gt;19 -->
<g id="edge13" class="edge"><title>16&#45;&gt;19</title>
<path fill="none" stroke="black" d="M2068.08,-123.545C2096.39,-119.142 2154.51,-108.675 2201,-91 2204.82,-89.5489 2208.74,-87.756 2212.51,-85.8564"/>
<polygon fill="black" stroke="black" points="2214.29,-88.8726 2221.43,-81.0479 2210.97,-82.7102 2214.29,-88.8726"/>
<text text-anchor="middle" x="2114" y="-122.8" font-family="Times,serif" font-size="14.00">u0005</text>
</g>
<!-- 22 -->
<g id="node13" class="node"><title>22</title>
<ellipse fill="none" stroke="black" cx="2359" cy="-72" rx="18" ry="18"/>
<ellipse fill="none" stroke="black" cx="2359" cy="-72" rx="22" ry="22"/>
</g>
<!-- 19&#45;&gt;22 -->
<g id="edge14" class="edge"><title>19&#45;&gt;22</title>
<path fill="none" stroke="black" d="M2255.19,-72C2273.77,-72 2303.76,-72 2326.57,-72"/>
<polygon fill="black" stroke="black" points="2326.79,-75.5001 2336.79,-72 2326.79,-68.5001 2326.79,-75.5001"/>
<text text-anchor="middle" x="2296" y="-75.8" font-family="Times,serif" font-size="14.00">u0007</text>
</g>
<!-- 14 -->
<g id="node15" class="node"><title>14</title>
<ellipse fill="none" stroke="black" cx="1873" cy="-72" rx="18" ry="18"/>
</g>
<!-- 11&#45;&gt;14 -->
<g id="edge15" class="edge"><title>11&#45;&gt;14</title>
<path fill="none" stroke="black" d="M1773.12,-72C1791.96,-72 1822.53,-72 1844.7,-72"/>
<polygon fill="black" stroke="black" points="1844.81,-75.5001 1854.81,-72 1844.81,-68.5001 1844.81,-75.5001"/>
<text text-anchor="middle" x="1814" y="-75.8" font-family="Times,serif" font-size="14.00">u0004</text>
</g>
<!-- 17 -->
<g id="node16" class="node"><title>17</title>
<ellipse fill="none" stroke="black" cx="1991" cy="-72" rx="18" ry="18"/>
</g>
<!-- 14&#45;&gt;17 -->
<g id="edge16" class="edge"><title>14&#45;&gt;17</title>
<path fill="none" stroke="black" d="M1891.12,-72C1909.96,-72 1940.53,-72 1962.7,-72"/>
<polygon fill="black" stroke="black" points="1962.81,-75.5001 1972.81,-72 1962.81,-68.5001 1962.81,-75.5001"/>
<text text-anchor="middle" x="1932" y="-75.8" font-family="Times,serif" font-size="14.00">u0005</text>
</g>
<!-- 20 -->
<g id="node17" class="node"><title>20</title>
<ellipse fill="none" stroke="black" cx="2114" cy="-72" rx="18" ry="18"/>
</g>
<!-- 17&#45;&gt;20 -->
<g id="edge17" class="edge"><title>17&#45;&gt;20</title>
<path fill="none" stroke="black" d="M2009.08,-72C2028.96,-72 2062.08,-72 2085.58,-72"/>
<polygon fill="black" stroke="black" points="2085.62,-75.5001 2095.62,-72 2085.62,-68.5001 2085.62,-75.5001"/>
<text text-anchor="middle" x="2050" y="-75.8" font-family="Times,serif" font-size="14.00">u0008</text>
</g>
<!-- 20&#45;&gt;19 -->
<g id="edge18" class="edge"><title>20&#45;&gt;19</title>
<path fill="none" stroke="black" d="M2132.08,-72C2151.96,-72 2185.08,-72 2208.58,-72"/>
<polygon fill="black" stroke="black" points="2208.62,-75.5001 2218.62,-72 2208.62,-68.5001 2208.62,-75.5001"/>
<text text-anchor="middle" x="2178" y="-75.8" font-family="Times,serif" font-size="14.00">u0010</text>
</g>
<!-- 9 -->
<g id="node19" class="node"><title>9</title>
<ellipse fill="none" stroke="black" cx="929" cy="-25" rx="18" ry="18"/>
</g>
<!-- 7&#45;&gt;9 -->
<g id="edge19" class="edge"><title>7&#45;&gt;9</title>
<path fill="none" stroke="black" d="M830.466,-25C849.064,-25 878.756,-25 900.499,-25"/>
<polygon fill="black" stroke="black" points="900.746,-28.5001 910.746,-25 900.746,-21.5001 900.746,-28.5001"/>
<text text-anchor="middle" x="870.5" y="-28.8" font-family="Times,serif" font-size="14.00">u000c</text>
</g>
<!-- 12 -->
<g id="node20" class="node"><title>12</title>
<ellipse fill="none" stroke="black" cx="1047" cy="-25" rx="18" ry="18"/>
</g>
<!-- 9&#45;&gt;12 -->
<g id="edge20" class="edge"><title>9&#45;&gt;12</title>
<path fill="none" stroke="black" d="M947.116,-25C965.964,-25 996.531,-25 1018.7,-25"/>
<polygon fill="black" stroke="black" points="1018.81,-28.5001 1028.81,-25 1018.81,-21.5001 1018.81,-28.5001"/>
<text text-anchor="middle" x="988" y="-28.8" font-family="Times,serif" font-size="14.00">u0000</text>
</g>
<!-- 15 -->
<g id="node21" class="node"><title>15</title>
<ellipse fill="none" stroke="black" cx="1165" cy="-25" rx="18" ry="18"/>
</g>
<!-- 12&#45;&gt;15 -->
<g id="edge21" class="edge"><title>12&#45;&gt;15</title>
<path fill="none" stroke="black" d="M1065.12,-25C1083.96,-25 1114.53,-25 1136.7,-25"/>
<polygon fill="black" stroke="black" points="1136.81,-28.5001 1146.81,-25 1136.81,-21.5001 1136.81,-28.5001"/>
<text text-anchor="middle" x="1106" y="-28.8" font-family="Times,serif" font-size="14.00">u000d</text>
</g>
<!-- 18 -->
<g id="node22" class="node"><title>18</title>
<ellipse fill="none" stroke="black" cx="1283" cy="-25" rx="18" ry="18"/>
</g>
<!-- 15&#45;&gt;18 -->
<g id="edge22" class="edge"><title>15&#45;&gt;18</title>
<path fill="none" stroke="black" d="M1183.12,-25C1201.96,-25 1232.53,-25 1254.7,-25"/>
<polygon fill="black" stroke="black" points="1254.81,-28.5001 1264.81,-25 1254.81,-21.5001 1254.81,-28.5001"/>
<text text-anchor="middle" x="1224" y="-28.8" font-family="Times,serif" font-size="14.00">u000d</text>
</g>
<!-- 21 -->
<g id="node23" class="node"><title>21</title>
<ellipse fill="none" stroke="black" cx="1401" cy="-25" rx="18" ry="18"/>
</g>
<!-- 18&#45;&gt;21 -->
<g id="edge23" class="edge"><title>18&#45;&gt;21</title>
<path fill="none" stroke="black" d="M1301.12,-25C1319.96,-25 1350.53,-25 1372.7,-25"/>
<polygon fill="black" stroke="black" points="1372.81,-28.5001 1382.81,-25 1372.81,-21.5001 1372.81,-28.5001"/>
<text text-anchor="middle" x="1342" y="-28.8" font-family="Times,serif" font-size="14.00">u000d</text>
</g>
<!-- 23 -->
<g id="node24" class="node"><title>23</title>
<ellipse fill="none" stroke="black" cx="1519" cy="-21" rx="18" ry="18"/>
</g>
<!-- 21&#45;&gt;23 -->
<g id="edge24" class="edge"><title>21&#45;&gt;23</title>
<path fill="none" stroke="black" d="M1419.12,-24.4098C1437.96,-23.7599 1468.53,-22.7058 1490.7,-21.9415"/>
<polygon fill="black" stroke="black" points="1490.94,-25.4353 1500.81,-21.5926 1490.7,-18.4394 1490.94,-25.4353"/>
<text text-anchor="middle" x="1460" y="-27.8" font-family="Times,serif" font-size="14.00">u000d</text>
</g>
<!-- 24 -->
<g id="node25" class="node"><title>24</title>
<ellipse fill="none" stroke="black" cx="1637" cy="-18" rx="18" ry="18"/>
</g>
<!-- 23&#45;&gt;24 -->
<g id="edge25" class="edge"><title>23&#45;&gt;24</title>
<path fill="none" stroke="black" d="M1537.12,-20.5573C1555.96,-20.0699 1586.53,-19.2794 1608.7,-18.7061"/>
<polygon fill="black" stroke="black" points="1608.91,-22.2019 1618.81,-18.4445 1608.73,-15.2043 1608.91,-22.2019"/>
<text text-anchor="middle" x="1578" y="-24.8" font-family="Times,serif" font-size="14.00">u000d</text>
</g>
<!-- 25 -->
<g id="node26" class="node"><title>25</title>
<ellipse fill="none" stroke="black" cx="1755" cy="-18" rx="18" ry="18"/>
</g>
<!-- 24&#45;&gt;25 -->
<g id="edge26" class="edge"><title>24&#45;&gt;25</title>
<path fill="none" stroke="black" d="M1655.12,-18C1673.96,-18 1704.53,-18 1726.7,-18"/>
<polygon fill="black" stroke="black" points="1726.81,-21.5001 1736.81,-18 1726.81,-14.5001 1726.81,-21.5001"/>
<text text-anchor="middle" x="1696" y="-21.8" font-family="Times,serif" font-size="14.00">u000c</text>
</g>
<!-- 26 -->
<g id="node27" class="node"><title>26</title>
<ellipse fill="none" stroke="black" cx="1873" cy="-18" rx="18" ry="18"/>
</g>
<!-- 25&#45;&gt;26 -->
<g id="edge27" class="edge"><title>25&#45;&gt;26</title>
<path fill="none" stroke="black" d="M1773.12,-18C1791.96,-18 1822.53,-18 1844.7,-18"/>
<polygon fill="black" stroke="black" points="1844.81,-21.5001 1854.81,-18 1844.81,-14.5001 1844.81,-21.5001"/>
<text text-anchor="middle" x="1814" y="-21.8" font-family="Times,serif" font-size="14.00">u0006</text>
</g>
<!-- 27 -->
<g id="node28" class="node"><title>27</title>
<ellipse fill="none" stroke="black" cx="1991" cy="-18" rx="18" ry="18"/>
</g>
<!-- 26&#45;&gt;27 -->
<g id="edge28" class="edge"><title>26&#45;&gt;27</title>
<path fill="none" stroke="black" d="M1891.12,-18C1909.96,-18 1940.53,-18 1962.7,-18"/>
<polygon fill="black" stroke="black" points="1962.81,-21.5001 1972.81,-18 1962.81,-14.5001 1962.81,-21.5001"/>
<text text-anchor="middle" x="1932" y="-21.8" font-family="Times,serif" font-size="14.00">u0004</text>
</g>
<!-- 28 -->
<g id="node29" class="node"><title>28</title>
<ellipse fill="none" stroke="black" cx="2114" cy="-18" rx="18" ry="18"/>
</g>
<!-- 27&#45;&gt;28 -->
<g id="edge29" class="edge"><title>27&#45;&gt;28</title>
<path fill="none" stroke="black" d="M2009.08,-18C2028.96,-18 2062.08,-18 2085.58,-18"/>
<polygon fill="black" stroke="black" points="2085.62,-21.5001 2095.62,-18 2085.62,-14.5001 2085.62,-21.5001"/>
<text text-anchor="middle" x="2050" y="-21.8" font-family="Times,serif" font-size="14.00">u0005</text>
</g>
<!-- 28&#45;&gt;19 -->
<g id="edge30" class="edge"><title>28&#45;&gt;19</title>
<path fill="none" stroke="black" d="M2131.08,-23.9312C2148.53,-30.5096 2177.1,-41.6937 2201,-53 2204.52,-54.6651 2208.18,-56.5171 2211.76,-58.3931"/>
<polygon fill="black" stroke="black" points="2210.39,-61.633 2220.86,-63.3032 2213.72,-55.4731 2210.39,-61.633"/>
<text text-anchor="middle" x="2178" y="-56.8" font-family="Times,serif" font-size="14.00">u0008</text>
</g>
<!-- initial -->
<g id="node30" class="node"><title>initial</title>
</g>
<!-- initial&#45;&gt;0 -->
<g id="edge31" class="edge"><title>initial&#45;&gt;0</title>
<path fill="none" stroke="black" d="M54.195,-52C62.6538,-52 72.0513,-52 80.5951,-52"/>
<polygon fill="black" stroke="black" points="80.8257,-55.5001 90.8257,-52 80.8257,-48.5001 80.8257,-55.5001"/>
</g>
</g>
</svg>
