<svg width="1620px" height="168px"
 viewBox="0.00 0.00 1215.00 126.00" xmlns="http://www.w3.org/2000/svg" xmlns:xlink="http://www.w3.org/1999/xlink">
<g id="graph0" class="graph" transform="scale(1.000022500562514 1.000022500562514) rotate(0) translate(4 122)">
<title>Automaton</title>
<polygon fill="white" stroke="none" points="-4,4 -4,-122 1211,-122 1211,4 -4,4"/>
<!-- 0 -->
<g id="node1" class="node"><title>0</title>
<ellipse fill="none" stroke="black" cx="109" cy="-49" rx="18" ry="18"/>
</g>
<!-- 1 -->
<g id="node2" class="node"><title>1</title>
<ellipse fill="none" stroke="black" cx="227" cy="-49" rx="18" ry="18"/>
</g>
<!-- 0&#45;&gt;1 -->
<g id="edge1" class="edge"><title>0&#45;&gt;1</title>
<path fill="none" stroke="black" d="M127.116,-49C145.964,-49 176.531,-49 198.696,-49"/>
<polygon fill="black" stroke="black" points="198.814,-52.5001 208.814,-49 198.814,-45.5001 198.814,-52.5001"/>
<text text-anchor="middle" x="168" y="-52.8" font-family="Times,serif" font-size="14.00">u0000</text>
</g>
<!-- 2 -->
<g id="node3" class="node"><title>2</title>
<ellipse fill="none" stroke="black" cx="345" cy="-49" rx="18" ry="18"/>
</g>
<!-- 1&#45;&gt;2 -->
<g id="edge2" class="edge"><title>1&#45;&gt;2</title>
<path fill="none" stroke="black" d="M245.116,-49C263.964,-49 294.531,-49 316.696,-49"/>
<polygon fill="black" stroke="black" points="316.814,-52.5001 326.814,-49 316.814,-45.5001 316.814,-52.5001"/>
<text text-anchor="middle" x="286" y="-52.8" font-family="Times,serif" font-size="14.00">u0001</text>
</g>
<!-- 3 -->
<g id="node4" class="node"><title>3</title>
<ellipse fill="none" stroke="black" cx="463" cy="-49" rx="18" ry="18"/>
</g>
<!-- 2&#45;&gt;3 -->
<g id="edge3" class="edge"><title>2&#45;&gt;3</title>
<path fill="none" stroke="black" d="M363.116,-49C381.964,-49 412.531,-49 434.696,-49"/>
<polygon fill="black" stroke="black" points="434.814,-52.5001 444.814,-49 434.814,-45.5001 434.814,-52.5001"/>
<text text-anchor="middle" x="404" y="-52.8" font-family="Times,serif" font-size="14.00">u0005</text>
</g>
<!-- 4 -->
<g id="node5" class="node"><title>4</title>
<ellipse fill="none" stroke="black" cx="945" cy="-49" rx="18" ry="18"/>
</g>
<!-- 3&#45;&gt;4 -->
<g id="edge4" class="edge"><title>3&#45;&gt;4</title>
<path fill="none" stroke="black" d="M481.295,-49C503.962,-49 544.958,-49 580,-49 580,-49 580,-49 828,-49 858.251,-49 892.939,-49 916.442,-49"/>
<polygon fill="black" stroke="black" points="916.706,-52.5001 926.705,-49 916.705,-45.5001 916.706,-52.5001"/>
<text text-anchor="middle" x="704" y="-52.8" font-family="Times,serif" font-size="14.00">u0004</text>
</g>
<!-- 5 -->
<g id="node6" class="node"><title>5</title>
<ellipse fill="none" stroke="black" cx="1063" cy="-22" rx="18" ry="18"/>
</g>
<!-- 3&#45;&gt;5 -->
<g id="edge5" class="edge"><title>3&#45;&gt;5</title>
<path fill="none" stroke="black" d="M478.29,-39.2446C499.497,-25.7417 541.004,-3 580,-3 580,-3 580,-3 946,-3 976.97,-3 1011.99,-9.67691 1035.37,-15.1145"/>
<polygon fill="black" stroke="black" points="1034.69,-18.5523 1045.24,-17.4973 1036.34,-11.7478 1034.69,-18.5523"/>
<text text-anchor="middle" x="768" y="-6.8" font-family="Times,serif" font-size="14.00">u0003</text>
</g>
<!-- 6 -->
<g id="node8" class="node"><title>6</title>
<ellipse fill="none" stroke="black" cx="581" cy="-97" rx="18" ry="18"/>
</g>
<!-- 3&#45;&gt;6 -->
<g id="edge6" class="edge"><title>3&#45;&gt;6</title>
<path fill="none" stroke="black" d="M480.129,-55.6742C499.435,-63.6626 531.992,-77.1345 554.666,-86.5169"/>
<polygon fill="black" stroke="black" points="553.429,-89.793 564.008,-90.3825 556.106,-83.3248 553.429,-89.793"/>
<text text-anchor="middle" x="522" y="-84.8" font-family="Times,serif" font-size="14.00">u0005</text>
</g>
<!-- 4&#45;&gt;5 -->
<g id="edge7" class="edge"><title>4&#45;&gt;5</title>
<path fill="none" stroke="black" d="M962.62,-45.1316C981.657,-40.7006 1013.1,-33.3812 1035.52,-28.1627"/>
<polygon fill="black" stroke="black" points="1036.46,-31.5372 1045.41,-25.8613 1034.88,-24.7195 1036.46,-31.5372"/>
<text text-anchor="middle" x="1004" y="-44.8" font-family="Times,serif" font-size="14.00">u0003</text>
</g>
<!-- 7 -->
<g id="node7" class="node"><title>7</title>
<ellipse fill="none" stroke="black" cx="1185" cy="-22" rx="18" ry="18"/>
<ellipse fill="none" stroke="black" cx="1185" cy="-22" rx="22" ry="22"/>
</g>
<!-- 5&#45;&gt;7 -->
<g id="edge8" class="edge"><title>5&#45;&gt;7</title>
<path fill="none" stroke="black" d="M1081.19,-22C1099.77,-22 1129.76,-22 1152.57,-22"/>
<polygon fill="black" stroke="black" points="1152.79,-25.5001 1162.79,-22 1152.79,-18.5001 1152.79,-25.5001"/>
<text text-anchor="middle" x="1122" y="-25.8" font-family="Times,serif" font-size="14.00">u0002</text>
</g>
<!-- 8 -->
<g id="node9" class="node"><title>8</title>
<ellipse fill="none" stroke="black" cx="704" cy="-100" rx="18" ry="18"/>
</g>
<!-- 6&#45;&gt;8 -->
<g id="edge9" class="edge"><title>6&#45;&gt;8</title>
<path fill="none" stroke="black" d="M599.08,-97.4235C618.965,-97.9165 652.077,-98.7375 675.577,-99.3201"/>
<polygon fill="black" stroke="black" points="675.532,-102.82 685.615,-99.569 675.705,-95.8221 675.532,-102.82"/>
<text text-anchor="middle" x="640" y="-101.8" font-family="Times,serif" font-size="14.00">u0004</text>
</g>
<!-- 9 -->
<g id="node10" class="node"><title>9</title>
<ellipse fill="none" stroke="black" cx="827" cy="-96" rx="18" ry="18"/>
</g>
<!-- 8&#45;&gt;9 -->
<g id="edge10" class="edge"><title>8&#45;&gt;9</title>
<path fill="none" stroke="black" d="M722.08,-99.4354C742.078,-98.7743 775.454,-97.6709 798.976,-96.8933"/>
<polygon fill="black" stroke="black" points="799.128,-100.39 809.007,-96.5617 798.897,-93.3942 799.128,-100.39"/>
<text text-anchor="middle" x="768" y="-101.8" font-family="Times,serif" font-size="14.00">u0005</text>
</g>
<!-- 9&#45;&gt;4 -->
<g id="edge11" class="edge"><title>9&#45;&gt;4</title>
<path fill="none" stroke="black" d="M844.129,-89.4649C863.435,-81.6429 895.992,-68.4516 918.666,-59.2647"/>
<polygon fill="black" stroke="black" points="920.054,-62.4788 928.008,-55.4796 917.425,-55.9911 920.054,-62.4788"/>
<text text-anchor="middle" x="886" y="-83.8" font-family="Times,serif" font-size="14.00">u0005</text>
</g>
<!-- initial -->
<g id="node11" class="node"><title>initial</title>
</g>
<!-- initial&#45;&gt;0 -->
<g id="edge12" class="edge"><title>initial&#45;&gt;0</title>
<path fill="none" stroke="black" d="M54.195,-49C62.6538,-49 72.0513,-49 80.5951,-49"/>
<polygon fill="black" stroke="black" points="80.8257,-52.5001 90.8257,-49 80.8257,-45.5001 80.8257,-52.5001"/>
</g>
</g>
</svg>
