<svg width="3528px" height="504px"
 viewBox="0.00 0.00 2646.00 378.00" xmlns="http://www.w3.org/2000/svg" xmlns:xlink="http://www.w3.org/1999/xlink">
<g id="graph0" class="graph" transform="scale(1.000022500562514 1.000022500562514) rotate(0) translate(4 374)">
<title>Automaton</title>
<polygon fill="white" stroke="none" points="-4,4 -4,-374 2642,-374 2642,4 -4,4"/>
<!-- 0 -->
<g id="node1" class="node"><title>0</title>
<ellipse fill="none" stroke="black" cx="109" cy="-185" rx="18" ry="18"/>
</g>
<!-- 1 -->
<g id="node2" class="node"><title>1</title>
<ellipse fill="none" stroke="black" cx="227" cy="-185" rx="18" ry="18"/>
</g>
<!-- 0&#45;&gt;1 -->
<g id="edge1" class="edge"><title>0&#45;&gt;1</title>
<path fill="none" stroke="black" d="M127.116,-185C145.964,-185 176.531,-185 198.696,-185"/>
<polygon fill="black" stroke="black" points="198.814,-188.5 208.814,-185 198.814,-181.5 198.814,-188.5"/>
<text text-anchor="middle" x="168" y="-188.8" font-family="Times,serif" font-size="14.00">u0005</text>
</g>
<!-- 2 -->
<g id="node3" class="node"><title>2</title>
<ellipse fill="none" stroke="black" cx="344" cy="-185" rx="18" ry="18"/>
</g>
<!-- 1&#45;&gt;2 -->
<g id="edge2" class="edge"><title>1&#45;&gt;2</title>
<path fill="none" stroke="black" d="M245.466,-185C264.064,-185 293.756,-185 315.499,-185"/>
<polygon fill="black" stroke="black" points="315.746,-188.5 325.746,-185 315.746,-181.5 315.746,-188.5"/>
<text text-anchor="middle" x="285.5" y="-188.8" font-family="Times,serif" font-size="14.00">u000c</text>
</g>
<!-- 3 -->
<g id="node4" class="node"><title>3</title>
<ellipse fill="none" stroke="black" cx="462" cy="-185" rx="18" ry="18"/>
</g>
<!-- 2&#45;&gt;3 -->
<g id="edge3" class="edge"><title>2&#45;&gt;3</title>
<path fill="none" stroke="black" d="M362.116,-185C380.964,-185 411.531,-185 433.696,-185"/>
<polygon fill="black" stroke="black" points="433.814,-188.5 443.814,-185 433.814,-181.5 433.814,-188.5"/>
<text text-anchor="middle" x="403" y="-188.8" font-family="Times,serif" font-size="14.00">u0001</text>
</g>
<!-- 4 -->
<g id="node5" class="node"><title>4</title>
<ellipse fill="none" stroke="black" cx="580" cy="-185" rx="18" ry="18"/>
</g>
<!-- 3&#45;&gt;4 -->
<g id="edge4" class="edge"><title>3&#45;&gt;4</title>
<path fill="none" stroke="black" d="M480.116,-185C498.964,-185 529.531,-185 551.696,-185"/>
<polygon fill="black" stroke="black" points="551.814,-188.5 561.814,-185 551.814,-181.5 551.814,-188.5"/>
<text text-anchor="middle" x="521" y="-188.8" font-family="Times,serif" font-size="14.00">u0008</text>
</g>
<!-- 5 -->
<g id="node6" class="node"><title>5</title>
<ellipse fill="none" stroke="black" cx="698" cy="-185" rx="18" ry="18"/>
</g>
<!-- 4&#45;&gt;5 -->
<g id="edge5" class="edge"><title>4&#45;&gt;5</title>
<path fill="none" stroke="black" d="M598.116,-185C616.964,-185 647.531,-185 669.696,-185"/>
<polygon fill="black" stroke="black" points="669.814,-188.5 679.814,-185 669.814,-181.5 669.814,-188.5"/>
<text text-anchor="middle" x="639" y="-188.8" font-family="Times,serif" font-size="14.00">u0009</text>
</g>
<!-- 6 -->
<g id="node7" class="node"><title>6</title>
<ellipse fill="none" stroke="black" cx="816" cy="-267" rx="18" ry="18"/>
</g>
<!-- 5&#45;&gt;6 -->
<g id="edge6" class="edge"><title>5&#45;&gt;6</title>
<path fill="none" stroke="black" d="M713.224,-195.055C732.965,-209.01 768.883,-234.4 792.34,-250.982"/>
<polygon fill="black" stroke="black" points="790.474,-253.949 800.66,-256.863 794.514,-248.233 790.474,-253.949"/>
<text text-anchor="middle" x="757" y="-243.8" font-family="Times,serif" font-size="14.00">u0003</text>
</g>
<!-- 7 -->
<g id="node27" class="node"><title>7</title>
<ellipse fill="none" stroke="black" cx="1304" cy="-185" rx="18" ry="18"/>
</g>
<!-- 5&#45;&gt;7 -->
<g id="edge7" class="edge"><title>5&#45;&gt;7</title>
<path fill="none" stroke="black" d="M716.295,-185C738.962,-185 779.958,-185 815,-185 815,-185 815,-185 1184,-185 1215.35,-185 1251.35,-185 1275.47,-185"/>
<polygon fill="black" stroke="black" points="1275.66,-188.5 1285.66,-185 1275.66,-181.5 1275.66,-188.5"/>
<text text-anchor="middle" x="993" y="-188.8" font-family="Times,serif" font-size="14.00">u0002</text>
</g>
<!-- 8 -->
<g id="node44" class="node"><title>8</title>
<ellipse fill="none" stroke="black" cx="816" cy="-126" rx="18" ry="18"/>
</g>
<!-- 5&#45;&gt;8 -->
<g id="edge8" class="edge"><title>5&#45;&gt;8</title>
<path fill="none" stroke="black" d="M711.515,-172.861C717.868,-167.178 725.935,-160.654 734,-156 751.155,-146.102 772.168,-138.432 788.492,-133.326"/>
<polygon fill="black" stroke="black" points="789.879,-136.564 798.455,-130.343 787.871,-129.859 789.879,-136.564"/>
<text text-anchor="middle" x="757" y="-159.8" font-family="Times,serif" font-size="14.00">u0000</text>
</g>
<!-- 9 -->
<g id="node8" class="node"><title>9</title>
<ellipse fill="none" stroke="black" cx="934" cy="-244" rx="18" ry="18"/>
</g>
<!-- 6&#45;&gt;9 -->
<g id="edge9" class="edge"><title>6&#45;&gt;9</title>
<path fill="none" stroke="black" d="M833.278,-261.913C839.141,-260.197 845.831,-258.371 852,-257 869.735,-253.058 889.908,-249.817 905.685,-247.557"/>
<polygon fill="black" stroke="black" points="906.396,-250.991 915.821,-246.152 905.436,-244.058 906.396,-250.991"/>
<text text-anchor="middle" x="875" y="-260.8" font-family="Times,serif" font-size="14.00">u0003</text>
</g>
<!-- 10 -->
<g id="node18" class="node"><title>10</title>
<ellipse fill="none" stroke="black" cx="934" cy="-352" rx="18" ry="18"/>
</g>
<!-- 6&#45;&gt;10 -->
<g id="edge10" class="edge"><title>6&#45;&gt;10</title>
<path fill="none" stroke="black" d="M827.698,-281.022C834.18,-288.946 842.93,-298.696 852,-306 869.268,-319.905 891.271,-332.109 907.985,-340.447"/>
<polygon fill="black" stroke="black" points="906.615,-343.672 917.139,-344.892 909.673,-337.375 906.615,-343.672"/>
<text text-anchor="middle" x="875" y="-337.8" font-family="Times,serif" font-size="14.00">u0002</text>
</g>
<!-- 11 -->
<g id="node23" class="node"><title>11</title>
<ellipse fill="none" stroke="black" cx="934" cy="-298" rx="18" ry="18"/>
</g>
<!-- 6&#45;&gt;11 -->
<g id="edge11" class="edge"><title>6&#45;&gt;11</title>
<path fill="none" stroke="black" d="M833.62,-271.442C852.657,-276.529 884.103,-284.933 906.523,-290.924"/>
<polygon fill="black" stroke="black" points="905.846,-294.366 916.411,-293.567 907.654,-287.603 905.846,-294.366"/>
<text text-anchor="middle" x="875" y="-290.8" font-family="Times,serif" font-size="14.00">u0000</text>
</g>
<!-- 16 -->
<g id="node9" class="node"><title>16</title>
<ellipse fill="none" stroke="black" cx="1057" cy="-244" rx="18" ry="18"/>
</g>
<!-- 9&#45;&gt;16 -->
<g id="edge12" class="edge"><title>9&#45;&gt;16</title>
<path fill="none" stroke="black" d="M952.08,-244C971.965,-244 1005.08,-244 1028.58,-244"/>
<polygon fill="black" stroke="black" points="1028.62,-247.5 1038.62,-244 1028.62,-240.5 1028.62,-247.5"/>
<text text-anchor="middle" x="993" y="-247.8" font-family="Times,serif" font-size="14.00">u000d</text>
</g>
<!-- 23 -->
<g id="node10" class="node"><title>23</title>
<ellipse fill="none" stroke="black" cx="1183" cy="-244" rx="18" ry="18"/>
</g>
<!-- 16&#45;&gt;23 -->
<g id="edge13" class="edge"><title>16&#45;&gt;23</title>
<path fill="none" stroke="black" d="M1075.24,-244C1095.79,-244 1130.37,-244 1154.59,-244"/>
<polygon fill="black" stroke="black" points="1154.9,-247.5 1164.9,-244 1154.9,-240.5 1154.9,-247.5"/>
<text text-anchor="middle" x="1121" y="-247.8" font-family="Times,serif" font-size="14.00">u0011</text>
</g>
<!-- 30 -->
<g id="node11" class="node"><title>30</title>
<ellipse fill="none" stroke="black" cx="1304" cy="-244" rx="18" ry="18"/>
</g>
<!-- 23&#45;&gt;30 -->
<g id="edge14" class="edge"><title>23&#45;&gt;30</title>
<path fill="none" stroke="black" d="M1201.05,-244C1220.58,-244 1252.84,-244 1275.84,-244"/>
<polygon fill="black" stroke="black" points="1275.98,-247.5 1285.98,-244 1275.98,-240.5 1275.98,-247.5"/>
<text text-anchor="middle" x="1245" y="-247.8" font-family="Times,serif" font-size="14.00">u000f</text>
</g>
<!-- 38 -->
<g id="node12" class="node"><title>38</title>
<ellipse fill="none" stroke="black" cx="1422" cy="-288" rx="18" ry="18"/>
</g>
<!-- 30&#45;&gt;38 -->
<g id="edge15" class="edge"><title>30&#45;&gt;38</title>
<path fill="none" stroke="black" d="M1321.36,-248.767C1337.89,-253.741 1364.04,-262.05 1386,-271 1389.35,-272.367 1392.84,-273.907 1396.25,-275.488"/>
<polygon fill="black" stroke="black" points="1394.99,-278.763 1405.52,-279.941 1398.02,-272.454 1394.99,-278.763"/>
<text text-anchor="middle" x="1363" y="-274.8" font-family="Times,serif" font-size="14.00">u000e</text>
</g>
<!-- 45 -->
<g id="node13" class="node"><title>45</title>
<ellipse fill="none" stroke="black" cx="1540" cy="-288" rx="18" ry="18"/>
</g>
<!-- 38&#45;&gt;45 -->
<g id="edge16" class="edge"><title>38&#45;&gt;45</title>
<path fill="none" stroke="black" d="M1440.12,-288C1458.96,-288 1489.53,-288 1511.7,-288"/>
<polygon fill="black" stroke="black" points="1511.81,-291.5 1521.81,-288 1511.81,-284.5 1511.81,-291.5"/>
<text text-anchor="middle" x="1481" y="-291.8" font-family="Times,serif" font-size="14.00">u0006</text>
</g>
<!-- 52 -->
<g id="node14" class="node"><title>52</title>
<ellipse fill="none" stroke="black" cx="1658" cy="-288" rx="18" ry="18"/>
</g>
<!-- 45&#45;&gt;52 -->
<g id="edge17" class="edge"><title>45&#45;&gt;52</title>
<path fill="none" stroke="black" d="M1558.12,-288C1576.96,-288 1607.53,-288 1629.7,-288"/>
<polygon fill="black" stroke="black" points="1629.81,-291.5 1639.81,-288 1629.81,-284.5 1629.81,-291.5"/>
<text text-anchor="middle" x="1599" y="-291.8" font-family="Times,serif" font-size="14.00">u0004</text>
</g>
<!-- 46 -->
<g id="node15" class="node"><title>46</title>
<ellipse fill="none" stroke="black" cx="1776" cy="-288" rx="18" ry="18"/>
</g>
<!-- 52&#45;&gt;46 -->
<g id="edge18" class="edge"><title>52&#45;&gt;46</title>
<path fill="none" stroke="black" d="M1676.12,-288C1694.96,-288 1725.53,-288 1747.7,-288"/>
<polygon fill="black" stroke="black" points="1747.81,-291.5 1757.81,-288 1747.81,-284.5 1747.81,-291.5"/>
<text text-anchor="middle" x="1717" y="-291.8" font-family="Times,serif" font-size="14.00">u0010</text>
</g>
<!-- 53 -->
<g id="node16" class="node"><title>53</title>
<ellipse fill="none" stroke="black" cx="2494" cy="-160" rx="18" ry="18"/>
</g>
<!-- 46&#45;&gt;53 -->
<g id="edge19" class="edge"><title>46&#45;&gt;53</title>
<path fill="none" stroke="black" d="M1794.27,-286.063C1816.91,-283.696 1857.88,-280 1893,-280 1893,-280 1893,-280 2377,-280 2428.91,-280 2464.98,-221.229 2481.95,-185.946"/>
<polygon fill="black" stroke="black" points="2485.21,-187.231 2486.23,-176.685 2478.86,-184.295 2485.21,-187.231"/>
<text text-anchor="middle" x="2135" y="-283.8" font-family="Times,serif" font-size="14.00">u0004</text>
</g>
<!-- 59 -->
<g id="node17" class="node"><title>59</title>
<ellipse fill="none" stroke="black" cx="2616" cy="-160" rx="18" ry="18"/>
<ellipse fill="none" stroke="black" cx="2616" cy="-160" rx="22" ry="22"/>
</g>
<!-- 53&#45;&gt;59 -->
<g id="edge20" class="edge"><title>53&#45;&gt;59</title>
<path fill="none" stroke="black" d="M2512.19,-160C2530.77,-160 2560.76,-160 2583.57,-160"/>
<polygon fill="black" stroke="black" points="2583.79,-163.5 2593.79,-160 2583.79,-156.5 2583.79,-163.5"/>
<text text-anchor="middle" x="2553" y="-163.8" font-family="Times,serif" font-size="14.00">u000b</text>
</g>
<!-- 17 -->
<g id="node19" class="node"><title>17</title>
<ellipse fill="none" stroke="black" cx="1057" cy="-352" rx="18" ry="18"/>
</g>
<!-- 10&#45;&gt;17 -->
<g id="edge21" class="edge"><title>10&#45;&gt;17</title>
<path fill="none" stroke="black" d="M952.08,-352C971.965,-352 1005.08,-352 1028.58,-352"/>
<polygon fill="black" stroke="black" points="1028.62,-355.5 1038.62,-352 1028.62,-348.5 1028.62,-355.5"/>
<text text-anchor="middle" x="993" y="-355.8" font-family="Times,serif" font-size="14.00">u0002</text>
</g>
<!-- 24 -->
<g id="node20" class="node"><title>24</title>
<ellipse fill="none" stroke="black" cx="1183" cy="-352" rx="18" ry="18"/>
</g>
<!-- 17&#45;&gt;24 -->
<g id="edge22" class="edge"><title>17&#45;&gt;24</title>
<path fill="none" stroke="black" d="M1075.24,-352C1095.79,-352 1130.37,-352 1154.59,-352"/>
<polygon fill="black" stroke="black" points="1154.9,-355.5 1164.9,-352 1154.9,-348.5 1154.9,-355.5"/>
<text text-anchor="middle" x="1121" y="-355.8" font-family="Times,serif" font-size="14.00">u000d</text>
</g>
<!-- 31 -->
<g id="node21" class="node"><title>31</title>
<ellipse fill="none" stroke="black" cx="1304" cy="-352" rx="18" ry="18"/>
</g>
<!-- 24&#45;&gt;31 -->
<g id="edge23" class="edge"><title>24&#45;&gt;31</title>
<path fill="none" stroke="black" d="M1201.05,-352C1220.58,-352 1252.84,-352 1275.84,-352"/>
<polygon fill="black" stroke="black" points="1275.98,-355.5 1285.98,-352 1275.98,-348.5 1275.98,-355.5"/>
<text text-anchor="middle" x="1245" y="-355.8" font-family="Times,serif" font-size="14.00">u0011</text>
</g>
<!-- 39 -->
<g id="node22" class="node"><title>39</title>
<ellipse fill="none" stroke="black" cx="1422" cy="-342" rx="18" ry="18"/>
</g>
<!-- 31&#45;&gt;39 -->
<g id="edge24" class="edge"><title>31&#45;&gt;39</title>
<path fill="none" stroke="black" d="M1322.12,-350.524C1340.96,-348.9 1371.53,-346.265 1393.7,-344.354"/>
<polygon fill="black" stroke="black" points="1394.15,-347.828 1403.81,-343.482 1393.55,-340.853 1394.15,-347.828"/>
<text text-anchor="middle" x="1363" y="-351.8" font-family="Times,serif" font-size="14.00">u000f</text>
</g>
<!-- 39&#45;&gt;46 -->
<g id="edge25" class="edge"><title>39&#45;&gt;46</title>
<path fill="none" stroke="black" d="M1440.19,-340.273C1481.08,-336.143 1587.36,-325.269 1676,-315 1704.48,-311.701 1712.71,-315.768 1740,-307 1743.89,-305.751 1747.84,-304.067 1751.63,-302.215"/>
<polygon fill="black" stroke="black" points="1753.41,-305.234 1760.56,-297.418 1750.09,-299.068 1753.41,-305.234"/>
<text text-anchor="middle" x="1599" y="-329.8" font-family="Times,serif" font-size="14.00">u0004</text>
</g>
<!-- 18 -->
<g id="node24" class="node"><title>18</title>
<ellipse fill="none" stroke="black" cx="1057" cy="-298" rx="18" ry="18"/>
</g>
<!-- 11&#45;&gt;18 -->
<g id="edge26" class="edge"><title>11&#45;&gt;18</title>
<path fill="none" stroke="black" d="M952.08,-298C971.965,-298 1005.08,-298 1028.58,-298"/>
<polygon fill="black" stroke="black" points="1028.62,-301.5 1038.62,-298 1028.62,-294.5 1028.62,-301.5"/>
<text text-anchor="middle" x="993" y="-301.8" font-family="Times,serif" font-size="14.00">u000d</text>
</g>
<!-- 25 -->
<g id="node25" class="node"><title>25</title>
<ellipse fill="none" stroke="black" cx="1183" cy="-298" rx="18" ry="18"/>
</g>
<!-- 18&#45;&gt;25 -->
<g id="edge27" class="edge"><title>18&#45;&gt;25</title>
<path fill="none" stroke="black" d="M1075.24,-298C1095.79,-298 1130.37,-298 1154.59,-298"/>
<polygon fill="black" stroke="black" points="1154.9,-301.5 1164.9,-298 1154.9,-294.5 1154.9,-301.5"/>
<text text-anchor="middle" x="1121" y="-301.8" font-family="Times,serif" font-size="14.00">u0011</text>
</g>
<!-- 32 -->
<g id="node26" class="node"><title>32</title>
<ellipse fill="none" stroke="black" cx="1304" cy="-298" rx="18" ry="18"/>
</g>
<!-- 25&#45;&gt;32 -->
<g id="edge28" class="edge"><title>25&#45;&gt;32</title>
<path fill="none" stroke="black" d="M1201.05,-298C1220.58,-298 1252.84,-298 1275.84,-298"/>
<polygon fill="black" stroke="black" points="1275.98,-301.5 1285.98,-298 1275.98,-294.5 1275.98,-301.5"/>
<text text-anchor="middle" x="1245" y="-301.8" font-family="Times,serif" font-size="14.00">u000f</text>
</g>
<!-- 32&#45;&gt;39 -->
<g id="edge29" class="edge"><title>32&#45;&gt;39</title>
<path fill="none" stroke="black" d="M1321.31,-303.127C1337.78,-308.427 1363.9,-317.152 1386,-326 1389.33,-327.332 1392.79,-328.807 1396.2,-330.309"/>
<polygon fill="black" stroke="black" points="1394.91,-333.565 1405.46,-334.508 1397.8,-327.19 1394.91,-333.565"/>
<text text-anchor="middle" x="1363" y="-329.8" font-family="Times,serif" font-size="14.00">u0010</text>
</g>
<!-- 12 -->
<g id="node28" class="node"><title>12</title>
<ellipse fill="none" stroke="black" cx="1422" cy="-180" rx="18" ry="18"/>
</g>
<!-- 7&#45;&gt;12 -->
<g id="edge30" class="edge"><title>7&#45;&gt;12</title>
<path fill="none" stroke="black" d="M1322.12,-184.262C1340.96,-183.45 1371.53,-182.132 1393.7,-181.177"/>
<polygon fill="black" stroke="black" points="1393.97,-184.668 1403.81,-180.741 1393.67,-177.675 1393.97,-184.668"/>
<text text-anchor="middle" x="1363" y="-187.8" font-family="Times,serif" font-size="14.00">u000d</text>
</g>
<!-- 13 -->
<g id="node37" class="node"><title>13</title>
<ellipse fill="none" stroke="black" cx="1422" cy="-234" rx="18" ry="18"/>
</g>
<!-- 7&#45;&gt;13 -->
<g id="edge31" class="edge"><title>7&#45;&gt;13</title>
<path fill="none" stroke="black" d="M1320.16,-193.254C1326.25,-196.451 1333.39,-200.045 1340,-203 1358.04,-211.063 1378.88,-219.007 1394.9,-224.834"/>
<polygon fill="black" stroke="black" points="1394.06,-228.252 1404.65,-228.338 1396.42,-221.664 1394.06,-228.252"/>
<text text-anchor="middle" x="1363" y="-224.8" font-family="Times,serif" font-size="14.00">u0000</text>
</g>
<!-- 19 -->
<g id="node29" class="node"><title>19</title>
<ellipse fill="none" stroke="black" cx="1540" cy="-180" rx="18" ry="18"/>
</g>
<!-- 12&#45;&gt;19 -->
<g id="edge32" class="edge"><title>12&#45;&gt;19</title>
<path fill="none" stroke="black" d="M1440.12,-180C1458.96,-180 1489.53,-180 1511.7,-180"/>
<polygon fill="black" stroke="black" points="1511.81,-183.5 1521.81,-180 1511.81,-176.5 1511.81,-183.5"/>
<text text-anchor="middle" x="1481" y="-183.8" font-family="Times,serif" font-size="14.00">u0011</text>
</g>
<!-- 26 -->
<g id="node30" class="node"><title>26</title>
<ellipse fill="none" stroke="black" cx="1658" cy="-180" rx="18" ry="18"/>
</g>
<!-- 19&#45;&gt;26 -->
<g id="edge33" class="edge"><title>19&#45;&gt;26</title>
<path fill="none" stroke="black" d="M1558.12,-180C1576.96,-180 1607.53,-180 1629.7,-180"/>
<polygon fill="black" stroke="black" points="1629.81,-183.5 1639.81,-180 1629.81,-176.5 1629.81,-183.5"/>
<text text-anchor="middle" x="1599" y="-183.8" font-family="Times,serif" font-size="14.00">u000f</text>
</g>
<!-- 33 -->
<g id="node31" class="node"><title>33</title>
<ellipse fill="none" stroke="black" cx="1776" cy="-180" rx="18" ry="18"/>
</g>
<!-- 26&#45;&gt;33 -->
<g id="edge34" class="edge"><title>26&#45;&gt;33</title>
<path fill="none" stroke="black" d="M1676.12,-180C1694.96,-180 1725.53,-180 1747.7,-180"/>
<polygon fill="black" stroke="black" points="1747.81,-183.5 1757.81,-180 1747.81,-176.5 1747.81,-183.5"/>
<text text-anchor="middle" x="1717" y="-183.8" font-family="Times,serif" font-size="14.00">u0004</text>
</g>
<!-- 40 -->
<g id="node32" class="node"><title>40</title>
<ellipse fill="none" stroke="black" cx="1894" cy="-180" rx="18" ry="18"/>
</g>
<!-- 33&#45;&gt;40 -->
<g id="edge35" class="edge"><title>33&#45;&gt;40</title>
<path fill="none" stroke="black" d="M1794.12,-180C1812.96,-180 1843.53,-180 1865.7,-180"/>
<polygon fill="black" stroke="black" points="1865.81,-183.5 1875.81,-180 1865.81,-176.5 1865.81,-183.5"/>
<text text-anchor="middle" x="1835" y="-183.8" font-family="Times,serif" font-size="14.00">u000e</text>
</g>
<!-- 47 -->
<g id="node33" class="node"><title>47</title>
<ellipse fill="none" stroke="black" cx="2012" cy="-180" rx="18" ry="18"/>
</g>
<!-- 40&#45;&gt;47 -->
<g id="edge36" class="edge"><title>40&#45;&gt;47</title>
<path fill="none" stroke="black" d="M1912.12,-180C1930.96,-180 1961.53,-180 1983.7,-180"/>
<polygon fill="black" stroke="black" points="1983.81,-183.5 1993.81,-180 1983.81,-176.5 1983.81,-183.5"/>
<text text-anchor="middle" x="1953" y="-183.8" font-family="Times,serif" font-size="14.00">u000a</text>
</g>
<!-- 54 -->
<g id="node34" class="node"><title>54</title>
<ellipse fill="none" stroke="black" cx="2135" cy="-180" rx="18" ry="18"/>
</g>
<!-- 47&#45;&gt;54 -->
<g id="edge37" class="edge"><title>47&#45;&gt;54</title>
<path fill="none" stroke="black" d="M2030.08,-180C2049.96,-180 2083.08,-180 2106.58,-180"/>
<polygon fill="black" stroke="black" points="2106.62,-183.5 2116.62,-180 2106.62,-176.5 2106.62,-183.5"/>
<text text-anchor="middle" x="2071" y="-183.8" font-family="Times,serif" font-size="14.00">u0010</text>
</g>
<!-- 60 -->
<g id="node35" class="node"><title>60</title>
<ellipse fill="none" stroke="black" cx="2258" cy="-180" rx="18" ry="18"/>
</g>
<!-- 54&#45;&gt;60 -->
<g id="edge38" class="edge"><title>54&#45;&gt;60</title>
<path fill="none" stroke="black" d="M2153.08,-180C2172.96,-180 2206.08,-180 2229.58,-180"/>
<polygon fill="black" stroke="black" points="2229.62,-183.5 2239.62,-180 2229.62,-176.5 2229.62,-183.5"/>
<text text-anchor="middle" x="2199" y="-183.8" font-family="Times,serif" font-size="14.00">u000e</text>
</g>
<!-- 64 -->
<g id="node36" class="node"><title>64</title>
<ellipse fill="none" stroke="black" cx="2376" cy="-160" rx="18" ry="18"/>
</g>
<!-- 60&#45;&gt;64 -->
<g id="edge39" class="edge"><title>60&#45;&gt;64</title>
<path fill="none" stroke="black" d="M2276.12,-177.049C2295.07,-173.781 2325.88,-168.469 2348.08,-164.642"/>
<polygon fill="black" stroke="black" points="2348.93,-168.046 2358.19,-162.898 2347.74,-161.148 2348.93,-168.046"/>
<text text-anchor="middle" x="2317" y="-177.8" font-family="Times,serif" font-size="14.00">u0006</text>
</g>
<!-- 64&#45;&gt;53 -->
<g id="edge40" class="edge"><title>64&#45;&gt;53</title>
<path fill="none" stroke="black" d="M2394.12,-160C2412.96,-160 2443.53,-160 2465.7,-160"/>
<polygon fill="black" stroke="black" points="2465.81,-163.5 2475.81,-160 2465.81,-156.5 2465.81,-163.5"/>
<text text-anchor="middle" x="2435" y="-163.8" font-family="Times,serif" font-size="14.00">u000e</text>
</g>
<!-- 20 -->
<g id="node38" class="node"><title>20</title>
<ellipse fill="none" stroke="black" cx="1540" cy="-234" rx="18" ry="18"/>
</g>
<!-- 13&#45;&gt;20 -->
<g id="edge41" class="edge"><title>13&#45;&gt;20</title>
<path fill="none" stroke="black" d="M1440.12,-234C1458.96,-234 1489.53,-234 1511.7,-234"/>
<polygon fill="black" stroke="black" points="1511.81,-237.5 1521.81,-234 1511.81,-230.5 1511.81,-237.5"/>
<text text-anchor="middle" x="1481" y="-237.8" font-family="Times,serif" font-size="14.00">u0002</text>
</g>
<!-- 27 -->
<g id="node39" class="node"><title>27</title>
<ellipse fill="none" stroke="black" cx="1658" cy="-234" rx="18" ry="18"/>
</g>
<!-- 20&#45;&gt;27 -->
<g id="edge42" class="edge"><title>20&#45;&gt;27</title>
<path fill="none" stroke="black" d="M1558.12,-234C1576.96,-234 1607.53,-234 1629.7,-234"/>
<polygon fill="black" stroke="black" points="1629.81,-237.5 1639.81,-234 1629.81,-230.5 1629.81,-237.5"/>
<text text-anchor="middle" x="1599" y="-237.8" font-family="Times,serif" font-size="14.00">u0000</text>
</g>
<!-- 34 -->
<g id="node40" class="node"><title>34</title>
<ellipse fill="none" stroke="black" cx="1776" cy="-234" rx="18" ry="18"/>
</g>
<!-- 27&#45;&gt;34 -->
<g id="edge43" class="edge"><title>27&#45;&gt;34</title>
<path fill="none" stroke="black" d="M1676.12,-234C1694.96,-234 1725.53,-234 1747.7,-234"/>
<polygon fill="black" stroke="black" points="1747.81,-237.5 1757.81,-234 1747.81,-230.5 1747.81,-237.5"/>
<text text-anchor="middle" x="1717" y="-237.8" font-family="Times,serif" font-size="14.00">u0003</text>
</g>
<!-- 41 -->
<g id="node41" class="node"><title>41</title>
<ellipse fill="none" stroke="black" cx="1894" cy="-234" rx="18" ry="18"/>
</g>
<!-- 34&#45;&gt;41 -->
<g id="edge44" class="edge"><title>34&#45;&gt;41</title>
<path fill="none" stroke="black" d="M1794.12,-234C1812.96,-234 1843.53,-234 1865.7,-234"/>
<polygon fill="black" stroke="black" points="1865.81,-237.5 1875.81,-234 1865.81,-230.5 1865.81,-237.5"/>
<text text-anchor="middle" x="1835" y="-237.8" font-family="Times,serif" font-size="14.00">u000d</text>
</g>
<!-- 48 -->
<g id="node42" class="node"><title>48</title>
<ellipse fill="none" stroke="black" cx="2012" cy="-234" rx="18" ry="18"/>
</g>
<!-- 41&#45;&gt;48 -->
<g id="edge45" class="edge"><title>41&#45;&gt;48</title>
<path fill="none" stroke="black" d="M1912.12,-234C1930.96,-234 1961.53,-234 1983.7,-234"/>
<polygon fill="black" stroke="black" points="1983.81,-237.5 1993.81,-234 1983.81,-230.5 1983.81,-237.5"/>
<text text-anchor="middle" x="1953" y="-237.8" font-family="Times,serif" font-size="14.00">u0011</text>
</g>
<!-- 55 -->
<g id="node43" class="node"><title>55</title>
<ellipse fill="none" stroke="black" cx="2199" cy="-228" rx="18" ry="18"/>
</g>
<!-- 48&#45;&gt;55 -->
<g id="edge46" class="edge"><title>48&#45;&gt;55</title>
<path fill="none" stroke="black" d="M2030.07,-233.446C2062.29,-232.401 2132.27,-230.132 2170.95,-228.877"/>
<polygon fill="black" stroke="black" points="2171.09,-232.375 2180.97,-228.552 2170.86,-225.378 2171.09,-232.375"/>
<text text-anchor="middle" x="2071" y="-235.8" font-family="Times,serif" font-size="14.00">u000f</text>
</g>
<!-- 55&#45;&gt;53 -->
<g id="edge47" class="edge"><title>55&#45;&gt;53</title>
<path fill="none" stroke="black" d="M2217.08,-226.594C2259.13,-222.744 2370.61,-210.161 2458,-179 2461.85,-177.629 2465.78,-175.879 2469.56,-173.998"/>
<polygon fill="black" stroke="black" points="2471.34,-177.015 2478.48,-169.194 2468.02,-170.851 2471.34,-177.015"/>
<text text-anchor="middle" x="2317" y="-219.8" font-family="Times,serif" font-size="14.00">u000a</text>
</g>
<!-- 14 -->
<g id="node45" class="node"><title>14</title>
<ellipse fill="none" stroke="black" cx="993" cy="-74" rx="18" ry="18"/>
</g>
<!-- 8&#45;&gt;14 -->
<g id="edge48" class="edge"><title>8&#45;&gt;14</title>
<path fill="none" stroke="black" d="M831.573,-116.96C837.704,-113.459 845.023,-109.661 852,-107 889.86,-92.558 935.974,-83.1657 964.666,-78.224"/>
<polygon fill="black" stroke="black" points="965.465,-81.6392 974.756,-76.5467 964.318,-74.7339 965.465,-81.6392"/>
<text text-anchor="middle" x="875" y="-110.8" font-family="Times,serif" font-size="14.00">u000d</text>
</g>
<!-- 15 -->
<g id="node62" class="node"><title>15</title>
<ellipse fill="none" stroke="black" cx="934" cy="-126" rx="18" ry="18"/>
</g>
<!-- 8&#45;&gt;15 -->
<g id="edge49" class="edge"><title>8&#45;&gt;15</title>
<path fill="none" stroke="black" d="M834.116,-126C852.964,-126 883.531,-126 905.696,-126"/>
<polygon fill="black" stroke="black" points="905.814,-129.5 915.814,-126 905.814,-122.5 905.814,-129.5"/>
<text text-anchor="middle" x="875" y="-129.8" font-family="Times,serif" font-size="14.00">u0003</text>
</g>
<!-- 21 -->
<g id="node46" class="node"><title>21</title>
<ellipse fill="none" stroke="black" cx="1121" cy="-72" rx="18" ry="18"/>
</g>
<!-- 14&#45;&gt;21 -->
<g id="edge50" class="edge"><title>14&#45;&gt;21</title>
<path fill="none" stroke="black" d="M1011.26,-73.7261C1032.27,-73.3925 1068.03,-72.8249 1092.77,-72.4321"/>
<polygon fill="black" stroke="black" points="1093.01,-75.929 1102.95,-72.2706 1092.9,-68.9298 1093.01,-75.929"/>
<text text-anchor="middle" x="1057" y="-77.8" font-family="Times,serif" font-size="14.00">u0011</text>
</g>
<!-- 28 -->
<g id="node47" class="node"><title>28</title>
<ellipse fill="none" stroke="black" cx="1304" cy="-72" rx="18" ry="18"/>
</g>
<!-- 21&#45;&gt;28 -->
<g id="edge51" class="edge"><title>21&#45;&gt;28</title>
<path fill="none" stroke="black" d="M1139.03,-72C1170.43,-72 1237.69,-72 1275.58,-72"/>
<polygon fill="black" stroke="black" points="1275.89,-75.5001 1285.89,-72 1275.89,-68.5001 1275.89,-75.5001"/>
<text text-anchor="middle" x="1183" y="-75.8" font-family="Times,serif" font-size="14.00">u000f</text>
</g>
<!-- 35 -->
<g id="node48" class="node"><title>35</title>
<ellipse fill="none" stroke="black" cx="1422" cy="-72" rx="18" ry="18"/>
</g>
<!-- 28&#45;&gt;35 -->
<g id="edge52" class="edge"><title>28&#45;&gt;35</title>
<path fill="none" stroke="black" d="M1322.12,-72C1340.96,-72 1371.53,-72 1393.7,-72"/>
<polygon fill="black" stroke="black" points="1393.81,-75.5001 1403.81,-72 1393.81,-68.5001 1393.81,-75.5001"/>
<text text-anchor="middle" x="1363" y="-75.8" font-family="Times,serif" font-size="14.00">u000a</text>
</g>
<!-- 36 -->
<g id="node57" class="node"><title>36</title>
<ellipse fill="none" stroke="black" cx="1422" cy="-18" rx="18" ry="18"/>
</g>
<!-- 28&#45;&gt;36 -->
<g id="edge53" class="edge"><title>28&#45;&gt;36</title>
<path fill="none" stroke="black" d="M1320.18,-63.3759C1326.28,-60.0133 1333.41,-56.205 1340,-53 1358.37,-44.0681 1379.57,-34.9462 1395.68,-28.2551"/>
<polygon fill="black" stroke="black" points="1397.06,-31.4704 1404.98,-24.4264 1394.4,-24.9976 1397.06,-31.4704"/>
<text text-anchor="middle" x="1363" y="-56.8" font-family="Times,serif" font-size="14.00">u000e</text>
</g>
<!-- 42 -->
<g id="node49" class="node"><title>42</title>
<ellipse fill="none" stroke="black" cx="1540" cy="-72" rx="18" ry="18"/>
</g>
<!-- 35&#45;&gt;42 -->
<g id="edge54" class="edge"><title>35&#45;&gt;42</title>
<path fill="none" stroke="black" d="M1440.12,-72C1458.96,-72 1489.53,-72 1511.7,-72"/>
<polygon fill="black" stroke="black" points="1511.81,-75.5001 1521.81,-72 1511.81,-68.5001 1511.81,-75.5001"/>
<text text-anchor="middle" x="1481" y="-75.8" font-family="Times,serif" font-size="14.00">u000e</text>
</g>
<!-- 49 -->
<g id="node50" class="node"><title>49</title>
<ellipse fill="none" stroke="black" cx="1658" cy="-72" rx="18" ry="18"/>
</g>
<!-- 42&#45;&gt;49 -->
<g id="edge55" class="edge"><title>42&#45;&gt;49</title>
<path fill="none" stroke="black" d="M1558.12,-72C1576.96,-72 1607.53,-72 1629.7,-72"/>
<polygon fill="black" stroke="black" points="1629.81,-75.5001 1639.81,-72 1629.81,-68.5001 1629.81,-75.5001"/>
<text text-anchor="middle" x="1599" y="-75.8" font-family="Times,serif" font-size="14.00">u0010</text>
</g>
<!-- 56 -->
<g id="node51" class="node"><title>56</title>
<ellipse fill="none" stroke="black" cx="1776" cy="-72" rx="18" ry="18"/>
</g>
<!-- 49&#45;&gt;56 -->
<g id="edge56" class="edge"><title>49&#45;&gt;56</title>
<path fill="none" stroke="black" d="M1676.12,-72C1694.96,-72 1725.53,-72 1747.7,-72"/>
<polygon fill="black" stroke="black" points="1747.81,-75.5001 1757.81,-72 1747.81,-68.5001 1747.81,-75.5001"/>
<text text-anchor="middle" x="1717" y="-75.8" font-family="Times,serif" font-size="14.00">u0006</text>
</g>
<!-- 61 -->
<g id="node52" class="node"><title>61</title>
<ellipse fill="none" stroke="black" cx="1894" cy="-72" rx="18" ry="18"/>
</g>
<!-- 56&#45;&gt;61 -->
<g id="edge57" class="edge"><title>56&#45;&gt;61</title>
<path fill="none" stroke="black" d="M1794.12,-72C1812.96,-72 1843.53,-72 1865.7,-72"/>
<polygon fill="black" stroke="black" points="1865.81,-75.5001 1875.81,-72 1865.81,-68.5001 1865.81,-75.5001"/>
<text text-anchor="middle" x="1835" y="-75.8" font-family="Times,serif" font-size="14.00">u000a</text>
</g>
<!-- 65 -->
<g id="node53" class="node"><title>65</title>
<ellipse fill="none" stroke="black" cx="2012" cy="-72" rx="18" ry="18"/>
</g>
<!-- 61&#45;&gt;65 -->
<g id="edge58" class="edge"><title>61&#45;&gt;65</title>
<path fill="none" stroke="black" d="M1912.12,-72C1930.96,-72 1961.53,-72 1983.7,-72"/>
<polygon fill="black" stroke="black" points="1983.81,-75.5001 1993.81,-72 1983.81,-68.5001 1983.81,-75.5001"/>
<text text-anchor="middle" x="1953" y="-75.8" font-family="Times,serif" font-size="14.00">u0007</text>
</g>
<!-- 67 -->
<g id="node54" class="node"><title>67</title>
<ellipse fill="none" stroke="black" cx="2135" cy="-72" rx="18" ry="18"/>
</g>
<!-- 65&#45;&gt;67 -->
<g id="edge59" class="edge"><title>65&#45;&gt;67</title>
<path fill="none" stroke="black" d="M2030.08,-72C2049.96,-72 2083.08,-72 2106.58,-72"/>
<polygon fill="black" stroke="black" points="2106.62,-75.5001 2116.62,-72 2106.62,-68.5001 2106.62,-75.5001"/>
<text text-anchor="middle" x="2071" y="-75.8" font-family="Times,serif" font-size="14.00">u000e</text>
</g>
<!-- 69 -->
<g id="node55" class="node"><title>69</title>
<ellipse fill="none" stroke="black" cx="2258" cy="-72" rx="18" ry="18"/>
</g>
<!-- 67&#45;&gt;69 -->
<g id="edge60" class="edge"><title>67&#45;&gt;69</title>
<path fill="none" stroke="black" d="M2153.08,-72C2172.96,-72 2206.08,-72 2229.58,-72"/>
<polygon fill="black" stroke="black" points="2229.62,-75.5001 2239.62,-72 2229.62,-68.5001 2229.62,-75.5001"/>
<text text-anchor="middle" x="2199" y="-75.8" font-family="Times,serif" font-size="14.00">u0007</text>
</g>
<!-- 71 -->
<g id="node56" class="node"><title>71</title>
<ellipse fill="none" stroke="black" cx="2376" cy="-95" rx="18" ry="18"/>
</g>
<!-- 69&#45;&gt;71 -->
<g id="edge61" class="edge"><title>69&#45;&gt;71</title>
<path fill="none" stroke="black" d="M2276.12,-75.3937C2295.16,-79.1693 2326.16,-85.3167 2348.38,-89.7217"/>
<polygon fill="black" stroke="black" points="2347.7,-93.1553 2358.19,-91.6671 2349.06,-86.289 2347.7,-93.1553"/>
<text text-anchor="middle" x="2317" y="-91.8" font-family="Times,serif" font-size="14.00">u0006</text>
</g>
<!-- 71&#45;&gt;53 -->
<g id="edge62" class="edge"><title>71&#45;&gt;53</title>
<path fill="none" stroke="black" d="M2392.16,-103.498C2411.7,-114.446 2445.9,-133.606 2468.99,-146.545"/>
<polygon fill="black" stroke="black" points="2467.4,-149.665 2477.83,-151.5 2470.82,-143.559 2467.4,-149.665"/>
<text text-anchor="middle" x="2435" y="-142.8" font-family="Times,serif" font-size="14.00">u0007</text>
</g>
<!-- 43 -->
<g id="node58" class="node"><title>43</title>
<ellipse fill="none" stroke="black" cx="1540" cy="-18" rx="18" ry="18"/>
</g>
<!-- 36&#45;&gt;43 -->
<g id="edge63" class="edge"><title>36&#45;&gt;43</title>
<path fill="none" stroke="black" d="M1440.12,-18C1458.96,-18 1489.53,-18 1511.7,-18"/>
<polygon fill="black" stroke="black" points="1511.81,-21.5001 1521.81,-18 1511.81,-14.5001 1511.81,-21.5001"/>
<text text-anchor="middle" x="1481" y="-21.8" font-family="Times,serif" font-size="14.00">u0010</text>
</g>
<!-- 50 -->
<g id="node59" class="node"><title>50</title>
<ellipse fill="none" stroke="black" cx="1658" cy="-18" rx="18" ry="18"/>
</g>
<!-- 43&#45;&gt;50 -->
<g id="edge64" class="edge"><title>43&#45;&gt;50</title>
<path fill="none" stroke="black" d="M1558.12,-18C1576.96,-18 1607.53,-18 1629.7,-18"/>
<polygon fill="black" stroke="black" points="1629.81,-21.5001 1639.81,-18 1629.81,-14.5001 1629.81,-21.5001"/>
<text text-anchor="middle" x="1599" y="-21.8" font-family="Times,serif" font-size="14.00">u000e</text>
</g>
<!-- 57 -->
<g id="node60" class="node"><title>57</title>
<ellipse fill="none" stroke="black" cx="1776" cy="-18" rx="18" ry="18"/>
</g>
<!-- 50&#45;&gt;57 -->
<g id="edge65" class="edge"><title>50&#45;&gt;57</title>
<path fill="none" stroke="black" d="M1676.12,-18C1694.96,-18 1725.53,-18 1747.7,-18"/>
<polygon fill="black" stroke="black" points="1747.81,-21.5001 1757.81,-18 1747.81,-14.5001 1747.81,-21.5001"/>
<text text-anchor="middle" x="1717" y="-21.8" font-family="Times,serif" font-size="14.00">u0006</text>
</g>
<!-- 62 -->
<g id="node61" class="node"><title>62</title>
<ellipse fill="none" stroke="black" cx="1953" cy="-24" rx="18" ry="18"/>
</g>
<!-- 57&#45;&gt;62 -->
<g id="edge66" class="edge"><title>57&#45;&gt;62</title>
<path fill="none" stroke="black" d="M1794.1,-18.5862C1824.42,-19.6258 1887.84,-21.8004 1924.41,-23.0541"/>
<polygon fill="black" stroke="black" points="1924.72,-26.5666 1934.83,-23.4114 1924.96,-19.5707 1924.72,-26.5666"/>
<text text-anchor="middle" x="1835" y="-24.8" font-family="Times,serif" font-size="14.00">u0010</text>
</g>
<!-- 62&#45;&gt;53 -->
<g id="edge67" class="edge"><title>62&#45;&gt;53</title>
<path fill="none" stroke="black" d="M1971.29,-24.4841C1993.96,-25.076 2034.95,-26 2070,-26 2070,-26 2070,-26 2377,-26 2433.33,-26 2468.41,-94.5225 2483.83,-133.567"/>
<polygon fill="black" stroke="black" points="2480.6,-134.915 2487.42,-143.029 2487.15,-132.437 2480.6,-134.915"/>
<text text-anchor="middle" x="2199" y="-29.8" font-family="Times,serif" font-size="14.00">u0006</text>
</g>
<!-- 22 -->
<g id="node63" class="node"><title>22</title>
<ellipse fill="none" stroke="black" cx="1057" cy="-126" rx="18" ry="18"/>
</g>
<!-- 15&#45;&gt;22 -->
<g id="edge68" class="edge"><title>15&#45;&gt;22</title>
<path fill="none" stroke="black" d="M952.08,-126C971.965,-126 1005.08,-126 1028.58,-126"/>
<polygon fill="black" stroke="black" points="1028.62,-129.5 1038.62,-126 1028.62,-122.5 1028.62,-129.5"/>
<text text-anchor="middle" x="993" y="-129.8" font-family="Times,serif" font-size="14.00">u000d</text>
</g>
<!-- 29 -->
<g id="node64" class="node"><title>29</title>
<ellipse fill="none" stroke="black" cx="1183" cy="-126" rx="18" ry="18"/>
</g>
<!-- 22&#45;&gt;29 -->
<g id="edge69" class="edge"><title>22&#45;&gt;29</title>
<path fill="none" stroke="black" d="M1075.24,-126C1095.79,-126 1130.37,-126 1154.59,-126"/>
<polygon fill="black" stroke="black" points="1154.9,-129.5 1164.9,-126 1154.9,-122.5 1154.9,-129.5"/>
<text text-anchor="middle" x="1121" y="-129.8" font-family="Times,serif" font-size="14.00">u0011</text>
</g>
<!-- 37 -->
<g id="node65" class="node"><title>37</title>
<ellipse fill="none" stroke="black" cx="1304" cy="-126" rx="18" ry="18"/>
</g>
<!-- 29&#45;&gt;37 -->
<g id="edge70" class="edge"><title>29&#45;&gt;37</title>
<path fill="none" stroke="black" d="M1201.05,-126C1220.58,-126 1252.84,-126 1275.84,-126"/>
<polygon fill="black" stroke="black" points="1275.98,-129.5 1285.98,-126 1275.98,-122.5 1275.98,-129.5"/>
<text text-anchor="middle" x="1245" y="-129.8" font-family="Times,serif" font-size="14.00">u000f</text>
</g>
<!-- 44 -->
<g id="node66" class="node"><title>44</title>
<ellipse fill="none" stroke="black" cx="1422" cy="-126" rx="18" ry="18"/>
</g>
<!-- 37&#45;&gt;44 -->
<g id="edge71" class="edge"><title>37&#45;&gt;44</title>
<path fill="none" stroke="black" d="M1322.12,-126C1340.96,-126 1371.53,-126 1393.7,-126"/>
<polygon fill="black" stroke="black" points="1393.81,-129.5 1403.81,-126 1393.81,-122.5 1393.81,-129.5"/>
<text text-anchor="middle" x="1363" y="-129.8" font-family="Times,serif" font-size="14.00">u0006</text>
</g>
<!-- 51 -->
<g id="node67" class="node"><title>51</title>
<ellipse fill="none" stroke="black" cx="1540" cy="-126" rx="18" ry="18"/>
</g>
<!-- 44&#45;&gt;51 -->
<g id="edge72" class="edge"><title>44&#45;&gt;51</title>
<path fill="none" stroke="black" d="M1440.12,-126C1458.96,-126 1489.53,-126 1511.7,-126"/>
<polygon fill="black" stroke="black" points="1511.81,-129.5 1521.81,-126 1511.81,-122.5 1511.81,-129.5"/>
<text text-anchor="middle" x="1481" y="-129.8" font-family="Times,serif" font-size="14.00">u000a</text>
</g>
<!-- 58 -->
<g id="node68" class="node"><title>58</title>
<ellipse fill="none" stroke="black" cx="1658" cy="-126" rx="18" ry="18"/>
</g>
<!-- 51&#45;&gt;58 -->
<g id="edge73" class="edge"><title>51&#45;&gt;58</title>
<path fill="none" stroke="black" d="M1558.12,-126C1576.96,-126 1607.53,-126 1629.7,-126"/>
<polygon fill="black" stroke="black" points="1629.81,-129.5 1639.81,-126 1629.81,-122.5 1629.81,-129.5"/>
<text text-anchor="middle" x="1599" y="-129.8" font-family="Times,serif" font-size="14.00">u000a</text>
</g>
<!-- 63 -->
<g id="node69" class="node"><title>63</title>
<ellipse fill="none" stroke="black" cx="1776" cy="-126" rx="18" ry="18"/>
</g>
<!-- 58&#45;&gt;63 -->
<g id="edge74" class="edge"><title>58&#45;&gt;63</title>
<path fill="none" stroke="black" d="M1676.12,-126C1694.96,-126 1725.53,-126 1747.7,-126"/>
<polygon fill="black" stroke="black" points="1747.81,-129.5 1757.81,-126 1747.81,-122.5 1747.81,-129.5"/>
<text text-anchor="middle" x="1717" y="-129.8" font-family="Times,serif" font-size="14.00">u0007</text>
</g>
<!-- 66 -->
<g id="node70" class="node"><title>66</title>
<ellipse fill="none" stroke="black" cx="1894" cy="-126" rx="18" ry="18"/>
</g>
<!-- 63&#45;&gt;66 -->
<g id="edge75" class="edge"><title>63&#45;&gt;66</title>
<path fill="none" stroke="black" d="M1794.12,-126C1812.96,-126 1843.53,-126 1865.7,-126"/>
<polygon fill="black" stroke="black" points="1865.81,-129.5 1875.81,-126 1865.81,-122.5 1865.81,-129.5"/>
<text text-anchor="middle" x="1835" y="-129.8" font-family="Times,serif" font-size="14.00">u0007</text>
</g>
<!-- 68 -->
<g id="node71" class="node"><title>68</title>
<ellipse fill="none" stroke="black" cx="2012" cy="-126" rx="18" ry="18"/>
</g>
<!-- 66&#45;&gt;68 -->
<g id="edge76" class="edge"><title>66&#45;&gt;68</title>
<path fill="none" stroke="black" d="M1912.12,-126C1930.96,-126 1961.53,-126 1983.7,-126"/>
<polygon fill="black" stroke="black" points="1983.81,-129.5 1993.81,-126 1983.81,-122.5 1983.81,-129.5"/>
<text text-anchor="middle" x="1953" y="-129.8" font-family="Times,serif" font-size="14.00">u000a</text>
</g>
<!-- 70 -->
<g id="node72" class="node"><title>70</title>
<ellipse fill="none" stroke="black" cx="2135" cy="-126" rx="18" ry="18"/>
</g>
<!-- 68&#45;&gt;70 -->
<g id="edge77" class="edge"><title>68&#45;&gt;70</title>
<path fill="none" stroke="black" d="M2030.08,-126C2049.96,-126 2083.08,-126 2106.58,-126"/>
<polygon fill="black" stroke="black" points="2106.62,-129.5 2116.62,-126 2106.62,-122.5 2106.62,-129.5"/>
<text text-anchor="middle" x="2071" y="-129.8" font-family="Times,serif" font-size="14.00">u0006</text>
</g>
<!-- 72 -->
<g id="node73" class="node"><title>72</title>
<ellipse fill="none" stroke="black" cx="2258" cy="-126" rx="18" ry="18"/>
</g>
<!-- 70&#45;&gt;72 -->
<g id="edge78" class="edge"><title>70&#45;&gt;72</title>
<path fill="none" stroke="black" d="M2153.08,-126C2172.96,-126 2206.08,-126 2229.58,-126"/>
<polygon fill="black" stroke="black" points="2229.62,-129.5 2239.62,-126 2229.62,-122.5 2229.62,-129.5"/>
<text text-anchor="middle" x="2199" y="-129.8" font-family="Times,serif" font-size="14.00">u000a</text>
</g>
<!-- 72&#45;&gt;64 -->
<g id="edge79" class="edge"><title>72&#45;&gt;64</title>
<path fill="none" stroke="black" d="M2275.53,-130.154C2291.97,-134.362 2317.85,-141.203 2340,-148 2342.97,-148.913 2346.08,-149.91 2349.15,-150.926"/>
<polygon fill="black" stroke="black" points="2348.1,-154.264 2358.69,-154.162 2350.34,-147.635 2348.1,-154.264"/>
<text text-anchor="middle" x="2317" y="-151.8" font-family="Times,serif" font-size="14.00">u0010</text>
</g>
<!-- initial -->
<g id="node74" class="node"><title>initial</title>
</g>
<!-- initial&#45;&gt;0 -->
<g id="edge80" class="edge"><title>initial&#45;&gt;0</title>
<path fill="none" stroke="black" d="M54.195,-185C62.6538,-185 72.0513,-185 80.5951,-185"/>
<polygon fill="black" stroke="black" points="80.8257,-188.5 90.8257,-185 80.8257,-181.5 80.8257,-188.5"/>
</g>
</g>
</svg>
