<svg width="3635px" height="271px"
 viewBox="0.00 0.00 2726.00 203.00" xmlns="http://www.w3.org/2000/svg" xmlns:xlink="http://www.w3.org/1999/xlink">
<g id="graph0" class="graph" transform="scale(1.000022500562514 1.000022500562514) rotate(0) translate(4 199)">
<title>Automaton</title>
<polygon fill="white" stroke="none" points="-4,4 -4,-199 2722,-199 2722,4 -4,4"/>
<!-- 0 -->
<g id="node1" class="node"><title>0</title>
<ellipse fill="none" stroke="black" cx="109" cy="-100" rx="18" ry="18"/>
</g>
<!-- 1 -->
<g id="node2" class="node"><title>1</title>
<ellipse fill="none" stroke="black" cx="227" cy="-100" rx="18" ry="18"/>
</g>
<!-- 0&#45;&gt;1 -->
<g id="edge1" class="edge"><title>0&#45;&gt;1</title>
<path fill="none" stroke="black" d="M127.116,-100C145.964,-100 176.531,-100 198.696,-100"/>
<polygon fill="black" stroke="black" points="198.814,-103.5 208.814,-100 198.814,-96.5001 198.814,-103.5"/>
<text text-anchor="middle" x="168" y="-103.8" font-family="Times,serif" font-size="14.00">u0005</text>
</g>
<!-- 2 -->
<g id="node3" class="node"><title>2</title>
<ellipse fill="none" stroke="black" cx="344" cy="-100" rx="18" ry="18"/>
</g>
<!-- 1&#45;&gt;2 -->
<g id="edge2" class="edge"><title>1&#45;&gt;2</title>
<path fill="none" stroke="black" d="M245.466,-100C264.064,-100 293.756,-100 315.499,-100"/>
<polygon fill="black" stroke="black" points="315.746,-103.5 325.746,-100 315.746,-96.5001 315.746,-103.5"/>
<text text-anchor="middle" x="285.5" y="-103.8" font-family="Times,serif" font-size="14.00">u000c</text>
</g>
<!-- 3 -->
<g id="node4" class="node"><title>3</title>
<ellipse fill="none" stroke="black" cx="462" cy="-100" rx="18" ry="18"/>
</g>
<!-- 2&#45;&gt;3 -->
<g id="edge3" class="edge"><title>2&#45;&gt;3</title>
<path fill="none" stroke="black" d="M362.116,-100C380.964,-100 411.531,-100 433.696,-100"/>
<polygon fill="black" stroke="black" points="433.814,-103.5 443.814,-100 433.814,-96.5001 433.814,-103.5"/>
<text text-anchor="middle" x="403" y="-103.8" font-family="Times,serif" font-size="14.00">u0001</text>
</g>
<!-- 4 -->
<g id="node5" class="node"><title>4</title>
<ellipse fill="none" stroke="black" cx="580" cy="-100" rx="18" ry="18"/>
</g>
<!-- 3&#45;&gt;4 -->
<g id="edge4" class="edge"><title>3&#45;&gt;4</title>
<path fill="none" stroke="black" d="M480.116,-100C498.964,-100 529.531,-100 551.696,-100"/>
<polygon fill="black" stroke="black" points="551.814,-103.5 561.814,-100 551.814,-96.5001 551.814,-103.5"/>
<text text-anchor="middle" x="521" y="-103.8" font-family="Times,serif" font-size="14.00">u0008</text>
</g>
<!-- 5 -->
<g id="node6" class="node"><title>5</title>
<ellipse fill="none" stroke="black" cx="698" cy="-100" rx="18" ry="18"/>
</g>
<!-- 4&#45;&gt;5 -->
<g id="edge5" class="edge"><title>4&#45;&gt;5</title>
<path fill="none" stroke="black" d="M598.116,-100C616.964,-100 647.531,-100 669.696,-100"/>
<polygon fill="black" stroke="black" points="669.814,-103.5 679.814,-100 669.814,-96.5001 669.814,-103.5"/>
<text text-anchor="middle" x="639" y="-103.8" font-family="Times,serif" font-size="14.00">u0009</text>
</g>
<!-- 6 -->
<g id="node7" class="node"><title>6</title>
<ellipse fill="none" stroke="black" cx="1304.5" cy="-123" rx="18" ry="18"/>
</g>
<!-- 5&#45;&gt;6 -->
<g id="edge6" class="edge"><title>5&#45;&gt;6</title>
<path fill="none" stroke="black" d="M715.764,-104.503C738.194,-110.121 779.287,-119 815,-119 815,-119 815,-119 1184,-119 1215.68,-119 1252.06,-120.422 1276.28,-121.57"/>
<polygon fill="black" stroke="black" points="1276.33,-125.077 1286.49,-122.072 1276.67,-118.085 1276.33,-125.077"/>
<text text-anchor="middle" x="993" y="-122.8" font-family="Times,serif" font-size="14.00">u0002</text>
</g>
<!-- 7 -->
<g id="node26" class="node"><title>7</title>
<ellipse fill="none" stroke="black" cx="816" cy="-69" rx="18" ry="18"/>
</g>
<!-- 5&#45;&gt;7 -->
<g id="edge7" class="edge"><title>5&#45;&gt;7</title>
<path fill="none" stroke="black" d="M715.711,-95.1347C721.495,-93.4749 728.025,-91.6279 734,-90 751.994,-85.0977 772.31,-79.8313 788.094,-75.7987"/>
<polygon fill="black" stroke="black" points="789.386,-79.0817 798.214,-73.2236 787.66,-72.2978 789.386,-79.0817"/>
<text text-anchor="middle" x="757" y="-93.8" font-family="Times,serif" font-size="14.00">u0000</text>
</g>
<!-- 8 -->
<g id="node8" class="node"><title>8</title>
<ellipse fill="none" stroke="black" cx="1431.5" cy="-123" rx="18" ry="18"/>
</g>
<!-- 6&#45;&gt;8 -->
<g id="edge8" class="edge"><title>6&#45;&gt;8</title>
<path fill="none" stroke="black" d="M1322.62,-123C1343.35,-123 1378.55,-123 1403.08,-123"/>
<polygon fill="black" stroke="black" points="1403.19,-126.5 1413.19,-123 1403.19,-119.5 1403.19,-126.5"/>
<text text-anchor="middle" x="1368" y="-126.8" font-family="Times,serif" font-size="14.00">u000d</text>
</g>
<!-- 9 -->
<g id="node19" class="node"><title>9</title>
<ellipse fill="none" stroke="black" cx="1495" cy="-175" rx="18" ry="18"/>
</g>
<!-- 6&#45;&gt;9 -->
<g id="edge9" class="edge"><title>6&#45;&gt;9</title>
<path fill="none" stroke="black" d="M1320.53,-131.242C1327.77,-134.942 1336.66,-139.113 1345,-142 1386.48,-156.353 1436.67,-165.949 1466.92,-170.934"/>
<polygon fill="black" stroke="black" points="1466.69,-174.441 1477.12,-172.562 1467.79,-167.528 1466.69,-174.441"/>
<text text-anchor="middle" x="1368" y="-158.8" font-family="Times,serif" font-size="14.00">u0000</text>
</g>
<!-- 12 -->
<g id="node9" class="node"><title>12</title>
<ellipse fill="none" stroke="black" cx="1559" cy="-123" rx="18" ry="18"/>
</g>
<!-- 8&#45;&gt;12 -->
<g id="edge10" class="edge"><title>8&#45;&gt;12</title>
<path fill="none" stroke="black" d="M1449.69,-123C1470.51,-123 1505.84,-123 1530.47,-123"/>
<polygon fill="black" stroke="black" points="1530.62,-126.5 1540.62,-123 1530.62,-119.5 1530.62,-126.5"/>
<text text-anchor="middle" x="1495" y="-126.8" font-family="Times,serif" font-size="14.00">u0011</text>
</g>
<!-- 16 -->
<g id="node10" class="node"><title>16</title>
<ellipse fill="none" stroke="black" cx="1686" cy="-123" rx="18" ry="18"/>
</g>
<!-- 12&#45;&gt;16 -->
<g id="edge11" class="edge"><title>12&#45;&gt;16</title>
<path fill="none" stroke="black" d="M1577.12,-123C1597.85,-123 1633.05,-123 1657.58,-123"/>
<polygon fill="black" stroke="black" points="1657.69,-126.5 1667.69,-123 1657.69,-119.5 1657.69,-126.5"/>
<text text-anchor="middle" x="1622.5" y="-126.8" font-family="Times,serif" font-size="14.00">u000f</text>
</g>
<!-- 20 -->
<g id="node11" class="node"><title>20</title>
<ellipse fill="none" stroke="black" cx="1814" cy="-123" rx="18" ry="18"/>
</g>
<!-- 16&#45;&gt;20 -->
<g id="edge12" class="edge"><title>16&#45;&gt;20</title>
<path fill="none" stroke="black" d="M1704.26,-123C1725.27,-123 1761.03,-123 1785.77,-123"/>
<polygon fill="black" stroke="black" points="1785.95,-126.5 1795.95,-123 1785.95,-119.5 1785.95,-126.5"/>
<text text-anchor="middle" x="1750" y="-126.8" font-family="Times,serif" font-size="14.00">u0004</text>
</g>
<!-- 24 -->
<g id="node12" class="node"><title>24</title>
<ellipse fill="none" stroke="black" cx="1942" cy="-123" rx="18" ry="18"/>
</g>
<!-- 20&#45;&gt;24 -->
<g id="edge13" class="edge"><title>20&#45;&gt;24</title>
<path fill="none" stroke="black" d="M1832.26,-123C1853.27,-123 1889.03,-123 1913.77,-123"/>
<polygon fill="black" stroke="black" points="1913.95,-126.5 1923.95,-123 1913.95,-119.5 1913.95,-126.5"/>
<text text-anchor="middle" x="1878" y="-126.8" font-family="Times,serif" font-size="14.00">u000e</text>
</g>
<!-- 28 -->
<g id="node13" class="node"><title>28</title>
<ellipse fill="none" stroke="black" cx="2069" cy="-123" rx="18" ry="18"/>
</g>
<!-- 24&#45;&gt;28 -->
<g id="edge14" class="edge"><title>24&#45;&gt;28</title>
<path fill="none" stroke="black" d="M1960.12,-123C1980.85,-123 2016.05,-123 2040.58,-123"/>
<polygon fill="black" stroke="black" points="2040.69,-126.5 2050.69,-123 2040.69,-119.5 2040.69,-126.5"/>
<text text-anchor="middle" x="2005.5" y="-126.8" font-family="Times,serif" font-size="14.00">u000a</text>
</g>
<!-- 32 -->
<g id="node14" class="node"><title>32</title>
<ellipse fill="none" stroke="black" cx="2197" cy="-123" rx="18" ry="18"/>
</g>
<!-- 28&#45;&gt;32 -->
<g id="edge15" class="edge"><title>28&#45;&gt;32</title>
<path fill="none" stroke="black" d="M2087.26,-123C2108.27,-123 2144.03,-123 2168.77,-123"/>
<polygon fill="black" stroke="black" points="2168.95,-126.5 2178.95,-123 2168.95,-119.5 2168.95,-126.5"/>
<text text-anchor="middle" x="2133" y="-126.8" font-family="Times,serif" font-size="14.00">u0010</text>
</g>
<!-- 36 -->
<g id="node15" class="node"><title>36</title>
<ellipse fill="none" stroke="black" cx="2324" cy="-123" rx="18" ry="18"/>
</g>
<!-- 32&#45;&gt;36 -->
<g id="edge16" class="edge"><title>32&#45;&gt;36</title>
<path fill="none" stroke="black" d="M2215.12,-123C2235.85,-123 2271.05,-123 2295.58,-123"/>
<polygon fill="black" stroke="black" points="2295.69,-126.5 2305.69,-123 2295.69,-119.5 2295.69,-126.5"/>
<text text-anchor="middle" x="2260.5" y="-126.8" font-family="Times,serif" font-size="14.00">u000e</text>
</g>
<!-- 40 -->
<g id="node16" class="node"><title>40</title>
<ellipse fill="none" stroke="black" cx="2452" cy="-111" rx="18" ry="18"/>
</g>
<!-- 36&#45;&gt;40 -->
<g id="edge17" class="edge"><title>36&#45;&gt;40</title>
<path fill="none" stroke="black" d="M2341.99,-121.382C2362.94,-119.387 2398.81,-115.97 2423.65,-113.604"/>
<polygon fill="black" stroke="black" points="2424.25,-117.063 2433.87,-112.631 2423.59,-110.095 2424.25,-117.063"/>
<text text-anchor="middle" x="2388" y="-122.8" font-family="Times,serif" font-size="14.00">u0006</text>
</g>
<!-- 37 -->
<g id="node17" class="node"><title>37</title>
<ellipse fill="none" stroke="black" cx="2574" cy="-111" rx="18" ry="18"/>
</g>
<!-- 40&#45;&gt;37 -->
<g id="edge18" class="edge"><title>40&#45;&gt;37</title>
<path fill="none" stroke="black" d="M2470.19,-111C2489.89,-111 2522.42,-111 2545.61,-111"/>
<polygon fill="black" stroke="black" points="2545.84,-114.5 2555.84,-111 2545.84,-107.5 2545.84,-114.5"/>
<text text-anchor="middle" x="2515.5" y="-114.8" font-family="Times,serif" font-size="14.00">u000e</text>
</g>
<!-- 41 -->
<g id="node18" class="node"><title>41</title>
<ellipse fill="none" stroke="black" cx="2696" cy="-111" rx="18" ry="18"/>
<ellipse fill="none" stroke="black" cx="2696" cy="-111" rx="22" ry="22"/>
</g>
<!-- 37&#45;&gt;41 -->
<g id="edge19" class="edge"><title>37&#45;&gt;41</title>
<path fill="none" stroke="black" d="M2592.19,-111C2610.77,-111 2640.76,-111 2663.57,-111"/>
<polygon fill="black" stroke="black" points="2663.79,-114.5 2673.79,-111 2663.79,-107.5 2663.79,-114.5"/>
<text text-anchor="middle" x="2633" y="-114.8" font-family="Times,serif" font-size="14.00">u000b</text>
</g>
<!-- 13 -->
<g id="node20" class="node"><title>13</title>
<ellipse fill="none" stroke="black" cx="1622.5" cy="-177" rx="18" ry="18"/>
</g>
<!-- 9&#45;&gt;13 -->
<g id="edge20" class="edge"><title>9&#45;&gt;13</title>
<path fill="none" stroke="black" d="M1513.19,-175.274C1534.01,-175.606 1569.34,-176.169 1593.97,-176.561"/>
<polygon fill="black" stroke="black" points="1594.06,-180.063 1604.12,-176.723 1594.17,-173.064 1594.06,-180.063"/>
<text text-anchor="middle" x="1559" y="-179.8" font-family="Times,serif" font-size="14.00">u0002</text>
</g>
<!-- 17 -->
<g id="node21" class="node"><title>17</title>
<ellipse fill="none" stroke="black" cx="1750" cy="-177" rx="18" ry="18"/>
</g>
<!-- 13&#45;&gt;17 -->
<g id="edge21" class="edge"><title>13&#45;&gt;17</title>
<path fill="none" stroke="black" d="M1640.69,-177C1661.51,-177 1696.84,-177 1721.47,-177"/>
<polygon fill="black" stroke="black" points="1721.62,-180.5 1731.62,-177 1721.62,-173.5 1721.62,-180.5"/>
<text text-anchor="middle" x="1686" y="-180.8" font-family="Times,serif" font-size="14.00">u0000</text>
</g>
<!-- 21 -->
<g id="node22" class="node"><title>21</title>
<ellipse fill="none" stroke="black" cx="1878" cy="-177" rx="18" ry="18"/>
</g>
<!-- 17&#45;&gt;21 -->
<g id="edge22" class="edge"><title>17&#45;&gt;21</title>
<path fill="none" stroke="black" d="M1768.26,-177C1789.27,-177 1825.03,-177 1849.77,-177"/>
<polygon fill="black" stroke="black" points="1849.95,-180.5 1859.95,-177 1849.95,-173.5 1849.95,-180.5"/>
<text text-anchor="middle" x="1814" y="-180.8" font-family="Times,serif" font-size="14.00">u0003</text>
</g>
<!-- 25 -->
<g id="node23" class="node"><title>25</title>
<ellipse fill="none" stroke="black" cx="2005.5" cy="-177" rx="18" ry="18"/>
</g>
<!-- 21&#45;&gt;25 -->
<g id="edge23" class="edge"><title>21&#45;&gt;25</title>
<path fill="none" stroke="black" d="M1896.19,-177C1917.01,-177 1952.34,-177 1976.97,-177"/>
<polygon fill="black" stroke="black" points="1977.12,-180.5 1987.12,-177 1977.12,-173.5 1977.12,-180.5"/>
<text text-anchor="middle" x="1942" y="-180.8" font-family="Times,serif" font-size="14.00">u000d</text>
</g>
<!-- 29 -->
<g id="node24" class="node"><title>29</title>
<ellipse fill="none" stroke="black" cx="2133" cy="-177" rx="18" ry="18"/>
</g>
<!-- 25&#45;&gt;29 -->
<g id="edge24" class="edge"><title>25&#45;&gt;29</title>
<path fill="none" stroke="black" d="M2023.69,-177C2044.51,-177 2079.84,-177 2104.47,-177"/>
<polygon fill="black" stroke="black" points="2104.62,-180.5 2114.62,-177 2104.62,-173.5 2104.62,-180.5"/>
<text text-anchor="middle" x="2069" y="-180.8" font-family="Times,serif" font-size="14.00">u0011</text>
</g>
<!-- 33 -->
<g id="node25" class="node"><title>33</title>
<ellipse fill="none" stroke="black" cx="2260.5" cy="-173" rx="18" ry="18"/>
</g>
<!-- 29&#45;&gt;33 -->
<g id="edge25" class="edge"><title>29&#45;&gt;33</title>
<path fill="none" stroke="black" d="M2151.19,-176.452C2172.01,-175.789 2207.34,-174.662 2231.97,-173.877"/>
<polygon fill="black" stroke="black" points="2232.23,-177.371 2242.12,-173.554 2232.01,-170.374 2232.23,-177.371"/>
<text text-anchor="middle" x="2197" y="-178.8" font-family="Times,serif" font-size="14.00">u000f</text>
</g>
<!-- 33&#45;&gt;37 -->
<g id="edge26" class="edge"><title>33&#45;&gt;37</title>
<path fill="none" stroke="black" d="M2278.49,-172.371C2322.51,-170.315 2443.42,-161.954 2538,-130 2541.87,-128.693 2545.82,-126.978 2549.6,-125.112"/>
<polygon fill="black" stroke="black" points="2551.38,-128.13 2558.53,-120.312 2548.06,-121.965 2551.38,-128.13"/>
<text text-anchor="middle" x="2388" y="-168.8" font-family="Times,serif" font-size="14.00">u000a</text>
</g>
<!-- 10 -->
<g id="node27" class="node"><title>10</title>
<ellipse fill="none" stroke="black" cx="993" cy="-19" rx="18" ry="18"/>
</g>
<!-- 7&#45;&gt;10 -->
<g id="edge27" class="edge"><title>7&#45;&gt;10</title>
<path fill="none" stroke="black" d="M831.555,-59.9125C837.683,-56.4039 845.005,-52.6139 852,-50 889.84,-35.8593 935.959,-27.1899 964.658,-22.7371"/>
<polygon fill="black" stroke="black" points="965.375,-26.169 974.751,-21.2344 964.344,-19.2453 965.375,-26.169"/>
<text text-anchor="middle" x="875" y="-53.8" font-family="Times,serif" font-size="14.00">u000d</text>
</g>
<!-- 11 -->
<g id="node39" class="node"><title>11</title>
<ellipse fill="none" stroke="black" cx="934" cy="-69" rx="18" ry="18"/>
</g>
<!-- 7&#45;&gt;11 -->
<g id="edge28" class="edge"><title>7&#45;&gt;11</title>
<path fill="none" stroke="black" d="M834.116,-69C852.964,-69 883.531,-69 905.696,-69"/>
<polygon fill="black" stroke="black" points="905.814,-72.5001 915.814,-69 905.814,-65.5001 905.814,-72.5001"/>
<text text-anchor="middle" x="875" y="-72.8" font-family="Times,serif" font-size="14.00">u0003</text>
</g>
<!-- 14 -->
<g id="node28" class="node"><title>14</title>
<ellipse fill="none" stroke="black" cx="1121" cy="-18" rx="18" ry="18"/>
</g>
<!-- 10&#45;&gt;14 -->
<g id="edge29" class="edge"><title>10&#45;&gt;14</title>
<path fill="none" stroke="black" d="M1011.26,-18.8631C1032.27,-18.6962 1068.03,-18.4125 1092.77,-18.2161"/>
<polygon fill="black" stroke="black" points="1092.98,-21.7146 1102.95,-18.1353 1092.93,-14.7149 1092.98,-21.7146"/>
<text text-anchor="middle" x="1057" y="-22.8" font-family="Times,serif" font-size="14.00">u0011</text>
</g>
<!-- 18 -->
<g id="node29" class="node"><title>18</title>
<ellipse fill="none" stroke="black" cx="1243" cy="-18" rx="18" ry="18"/>
</g>
<!-- 14&#45;&gt;18 -->
<g id="edge30" class="edge"><title>14&#45;&gt;18</title>
<path fill="none" stroke="black" d="M1139.19,-18C1158.89,-18 1191.42,-18 1214.61,-18"/>
<polygon fill="black" stroke="black" points="1214.84,-21.5001 1224.84,-18 1214.84,-14.5001 1214.84,-21.5001"/>
<text text-anchor="middle" x="1183" y="-21.8" font-family="Times,serif" font-size="14.00">u000f</text>
</g>
<!-- 22 -->
<g id="node30" class="node"><title>22</title>
<ellipse fill="none" stroke="black" cx="1368" cy="-18" rx="18" ry="18"/>
</g>
<!-- 18&#45;&gt;22 -->
<g id="edge31" class="edge"><title>18&#45;&gt;22</title>
<path fill="none" stroke="black" d="M1261.1,-18C1281.37,-18 1315.4,-18 1339.41,-18"/>
<polygon fill="black" stroke="black" points="1339.65,-21.5001 1349.65,-18 1339.65,-14.5001 1339.65,-21.5001"/>
<text text-anchor="middle" x="1304.5" y="-21.8" font-family="Times,serif" font-size="14.00">u000a</text>
</g>
<!-- 26 -->
<g id="node31" class="node"><title>26</title>
<ellipse fill="none" stroke="black" cx="1495" cy="-18" rx="18" ry="18"/>
</g>
<!-- 22&#45;&gt;26 -->
<g id="edge32" class="edge"><title>22&#45;&gt;26</title>
<path fill="none" stroke="black" d="M1386.12,-18C1406.85,-18 1442.05,-18 1466.58,-18"/>
<polygon fill="black" stroke="black" points="1466.69,-21.5001 1476.69,-18 1466.69,-14.5001 1466.69,-21.5001"/>
<text text-anchor="middle" x="1431.5" y="-21.8" font-family="Times,serif" font-size="14.00">u000e</text>
</g>
<!-- 30 -->
<g id="node32" class="node"><title>30</title>
<ellipse fill="none" stroke="black" cx="1622.5" cy="-18" rx="18" ry="18"/>
</g>
<!-- 26&#45;&gt;30 -->
<g id="edge33" class="edge"><title>26&#45;&gt;30</title>
<path fill="none" stroke="black" d="M1513.19,-18C1534.01,-18 1569.34,-18 1593.97,-18"/>
<polygon fill="black" stroke="black" points="1594.12,-21.5001 1604.12,-18 1594.12,-14.5001 1594.12,-21.5001"/>
<text text-anchor="middle" x="1559" y="-21.8" font-family="Times,serif" font-size="14.00">u0010</text>
</g>
<!-- 34 -->
<g id="node33" class="node"><title>34</title>
<ellipse fill="none" stroke="black" cx="1750" cy="-18" rx="18" ry="18"/>
</g>
<!-- 30&#45;&gt;34 -->
<g id="edge34" class="edge"><title>30&#45;&gt;34</title>
<path fill="none" stroke="black" d="M1640.69,-18C1661.51,-18 1696.84,-18 1721.47,-18"/>
<polygon fill="black" stroke="black" points="1721.62,-21.5001 1731.62,-18 1721.62,-14.5001 1721.62,-21.5001"/>
<text text-anchor="middle" x="1686" y="-21.8" font-family="Times,serif" font-size="14.00">u0006</text>
</g>
<!-- 38 -->
<g id="node34" class="node"><title>38</title>
<ellipse fill="none" stroke="black" cx="1878" cy="-18" rx="18" ry="18"/>
</g>
<!-- 34&#45;&gt;38 -->
<g id="edge35" class="edge"><title>34&#45;&gt;38</title>
<path fill="none" stroke="black" d="M1768.26,-18C1789.27,-18 1825.03,-18 1849.77,-18"/>
<polygon fill="black" stroke="black" points="1849.95,-21.5001 1859.95,-18 1849.95,-14.5001 1849.95,-21.5001"/>
<text text-anchor="middle" x="1814" y="-21.8" font-family="Times,serif" font-size="14.00">u000a</text>
</g>
<!-- 42 -->
<g id="node35" class="node"><title>42</title>
<ellipse fill="none" stroke="black" cx="2005.5" cy="-18" rx="18" ry="18"/>
</g>
<!-- 38&#45;&gt;42 -->
<g id="edge36" class="edge"><title>38&#45;&gt;42</title>
<path fill="none" stroke="black" d="M1896.19,-18C1917.01,-18 1952.34,-18 1976.97,-18"/>
<polygon fill="black" stroke="black" points="1977.12,-21.5001 1987.12,-18 1977.12,-14.5001 1977.12,-21.5001"/>
<text text-anchor="middle" x="1942" y="-21.8" font-family="Times,serif" font-size="14.00">u0007</text>
</g>
<!-- 44 -->
<g id="node36" class="node"><title>44</title>
<ellipse fill="none" stroke="black" cx="2133" cy="-18" rx="18" ry="18"/>
</g>
<!-- 42&#45;&gt;44 -->
<g id="edge37" class="edge"><title>42&#45;&gt;44</title>
<path fill="none" stroke="black" d="M2023.69,-18C2044.51,-18 2079.84,-18 2104.47,-18"/>
<polygon fill="black" stroke="black" points="2104.62,-21.5001 2114.62,-18 2104.62,-14.5001 2104.62,-21.5001"/>
<text text-anchor="middle" x="2069" y="-21.8" font-family="Times,serif" font-size="14.00">u000e</text>
</g>
<!-- 46 -->
<g id="node37" class="node"><title>46</title>
<ellipse fill="none" stroke="black" cx="2260.5" cy="-18" rx="18" ry="18"/>
</g>
<!-- 44&#45;&gt;46 -->
<g id="edge38" class="edge"><title>44&#45;&gt;46</title>
<path fill="none" stroke="black" d="M2151.19,-18C2172.01,-18 2207.34,-18 2231.97,-18"/>
<polygon fill="black" stroke="black" points="2232.12,-21.5001 2242.12,-18 2232.12,-14.5001 2232.12,-21.5001"/>
<text text-anchor="middle" x="2197" y="-21.8" font-family="Times,serif" font-size="14.00">u0007</text>
</g>
<!-- 48 -->
<g id="node38" class="node"><title>48</title>
<ellipse fill="none" stroke="black" cx="2388" cy="-25" rx="18" ry="18"/>
</g>
<!-- 46&#45;&gt;48 -->
<g id="edge39" class="edge"><title>46&#45;&gt;48</title>
<path fill="none" stroke="black" d="M2278.69,-18.9586C2299.62,-20.1263 2335.24,-22.1128 2359.88,-23.4875"/>
<polygon fill="black" stroke="black" points="2359.84,-26.9905 2370.02,-24.0529 2360.23,-20.0014 2359.84,-26.9905"/>
<text text-anchor="middle" x="2324" y="-26.8" font-family="Times,serif" font-size="14.00">u0006</text>
</g>
<!-- 48&#45;&gt;37 -->
<g id="edge40" class="edge"><title>48&#45;&gt;37</title>
<path fill="none" stroke="black" d="M2404.69,-32.3323C2436.6,-47.2473 2509.31,-81.2299 2547.88,-99.2599"/>
<polygon fill="black" stroke="black" points="2546.81,-102.623 2557.35,-103.686 2549.77,-96.2812 2546.81,-102.623"/>
<text text-anchor="middle" x="2452" y="-68.8" font-family="Times,serif" font-size="14.00">u0007</text>
</g>
<!-- 15 -->
<g id="node40" class="node"><title>15</title>
<ellipse fill="none" stroke="black" cx="1057" cy="-69" rx="18" ry="18"/>
</g>
<!-- 11&#45;&gt;15 -->
<g id="edge41" class="edge"><title>11&#45;&gt;15</title>
<path fill="none" stroke="black" d="M952.08,-69C971.965,-69 1005.08,-69 1028.58,-69"/>
<polygon fill="black" stroke="black" points="1028.62,-72.5001 1038.62,-69 1028.62,-65.5001 1028.62,-72.5001"/>
<text text-anchor="middle" x="993" y="-72.8" font-family="Times,serif" font-size="14.00">u000d</text>
</g>
<!-- 19 -->
<g id="node41" class="node"><title>19</title>
<ellipse fill="none" stroke="black" cx="1183" cy="-69" rx="18" ry="18"/>
</g>
<!-- 15&#45;&gt;19 -->
<g id="edge42" class="edge"><title>15&#45;&gt;19</title>
<path fill="none" stroke="black" d="M1075.24,-69C1095.79,-69 1130.37,-69 1154.59,-69"/>
<polygon fill="black" stroke="black" points="1154.9,-72.5001 1164.9,-69 1154.9,-65.5001 1154.9,-72.5001"/>
<text text-anchor="middle" x="1121" y="-72.8" font-family="Times,serif" font-size="14.00">u0011</text>
</g>
<!-- 23 -->
<g id="node42" class="node"><title>23</title>
<ellipse fill="none" stroke="black" cx="1304.5" cy="-69" rx="18" ry="18"/>
</g>
<!-- 19&#45;&gt;23 -->
<g id="edge43" class="edge"><title>19&#45;&gt;23</title>
<path fill="none" stroke="black" d="M1201.12,-69C1220.73,-69 1253.13,-69 1276.22,-69"/>
<polygon fill="black" stroke="black" points="1276.41,-72.5001 1286.41,-69 1276.41,-65.5001 1276.41,-72.5001"/>
<text text-anchor="middle" x="1243" y="-72.8" font-family="Times,serif" font-size="14.00">u000f</text>
</g>
<!-- 27 -->
<g id="node43" class="node"><title>27</title>
<ellipse fill="none" stroke="black" cx="1431.5" cy="-69" rx="18" ry="18"/>
</g>
<!-- 23&#45;&gt;27 -->
<g id="edge44" class="edge"><title>23&#45;&gt;27</title>
<path fill="none" stroke="black" d="M1322.62,-69C1343.35,-69 1378.55,-69 1403.08,-69"/>
<polygon fill="black" stroke="black" points="1403.19,-72.5001 1413.19,-69 1403.19,-65.5001 1403.19,-72.5001"/>
<text text-anchor="middle" x="1368" y="-72.8" font-family="Times,serif" font-size="14.00">u0006</text>
</g>
<!-- 31 -->
<g id="node44" class="node"><title>31</title>
<ellipse fill="none" stroke="black" cx="1559" cy="-69" rx="18" ry="18"/>
</g>
<!-- 27&#45;&gt;31 -->
<g id="edge45" class="edge"><title>27&#45;&gt;31</title>
<path fill="none" stroke="black" d="M1449.69,-69C1470.51,-69 1505.84,-69 1530.47,-69"/>
<polygon fill="black" stroke="black" points="1530.62,-72.5001 1540.62,-69 1530.62,-65.5001 1530.62,-72.5001"/>
<text text-anchor="middle" x="1495" y="-72.8" font-family="Times,serif" font-size="14.00">u000a</text>
</g>
<!-- 35 -->
<g id="node45" class="node"><title>35</title>
<ellipse fill="none" stroke="black" cx="1686" cy="-69" rx="18" ry="18"/>
</g>
<!-- 31&#45;&gt;35 -->
<g id="edge46" class="edge"><title>31&#45;&gt;35</title>
<path fill="none" stroke="black" d="M1577.12,-69C1597.85,-69 1633.05,-69 1657.58,-69"/>
<polygon fill="black" stroke="black" points="1657.69,-72.5001 1667.69,-69 1657.69,-65.5001 1657.69,-72.5001"/>
<text text-anchor="middle" x="1622.5" y="-72.8" font-family="Times,serif" font-size="14.00">u000a</text>
</g>
<!-- 39 -->
<g id="node46" class="node"><title>39</title>
<ellipse fill="none" stroke="black" cx="1814" cy="-69" rx="18" ry="18"/>
</g>
<!-- 35&#45;&gt;39 -->
<g id="edge47" class="edge"><title>35&#45;&gt;39</title>
<path fill="none" stroke="black" d="M1704.26,-69C1725.27,-69 1761.03,-69 1785.77,-69"/>
<polygon fill="black" stroke="black" points="1785.95,-72.5001 1795.95,-69 1785.95,-65.5001 1785.95,-72.5001"/>
<text text-anchor="middle" x="1750" y="-72.8" font-family="Times,serif" font-size="14.00">u0007</text>
</g>
<!-- 43 -->
<g id="node47" class="node"><title>43</title>
<ellipse fill="none" stroke="black" cx="1942" cy="-69" rx="18" ry="18"/>
</g>
<!-- 39&#45;&gt;43 -->
<g id="edge48" class="edge"><title>39&#45;&gt;43</title>
<path fill="none" stroke="black" d="M1832.26,-69C1853.27,-69 1889.03,-69 1913.77,-69"/>
<polygon fill="black" stroke="black" points="1913.95,-72.5001 1923.95,-69 1913.95,-65.5001 1913.95,-72.5001"/>
<text text-anchor="middle" x="1878" y="-72.8" font-family="Times,serif" font-size="14.00">u0007</text>
</g>
<!-- 45 -->
<g id="node48" class="node"><title>45</title>
<ellipse fill="none" stroke="black" cx="2069" cy="-69" rx="18" ry="18"/>
</g>
<!-- 43&#45;&gt;45 -->
<g id="edge49" class="edge"><title>43&#45;&gt;45</title>
<path fill="none" stroke="black" d="M1960.12,-69C1980.85,-69 2016.05,-69 2040.58,-69"/>
<polygon fill="black" stroke="black" points="2040.69,-72.5001 2050.69,-69 2040.69,-65.5001 2040.69,-72.5001"/>
<text text-anchor="middle" x="2005.5" y="-72.8" font-family="Times,serif" font-size="14.00">u000a</text>
</g>
<!-- 47 -->
<g id="node49" class="node"><title>47</title>
<ellipse fill="none" stroke="black" cx="2197" cy="-69" rx="18" ry="18"/>
</g>
<!-- 45&#45;&gt;47 -->
<g id="edge50" class="edge"><title>45&#45;&gt;47</title>
<path fill="none" stroke="black" d="M2087.26,-69C2108.27,-69 2144.03,-69 2168.77,-69"/>
<polygon fill="black" stroke="black" points="2168.95,-72.5001 2178.95,-69 2168.95,-65.5001 2168.95,-72.5001"/>
<text text-anchor="middle" x="2133" y="-72.8" font-family="Times,serif" font-size="14.00">u0006</text>
</g>
<!-- 49 -->
<g id="node50" class="node"><title>49</title>
<ellipse fill="none" stroke="black" cx="2324" cy="-69" rx="18" ry="18"/>
</g>
<!-- 47&#45;&gt;49 -->
<g id="edge51" class="edge"><title>47&#45;&gt;49</title>
<path fill="none" stroke="black" d="M2215.12,-69C2235.85,-69 2271.05,-69 2295.58,-69"/>
<polygon fill="black" stroke="black" points="2295.69,-72.5001 2305.69,-69 2295.69,-65.5001 2295.69,-72.5001"/>
<text text-anchor="middle" x="2260.5" y="-72.8" font-family="Times,serif" font-size="14.00">u000a</text>
</g>
<!-- 49&#45;&gt;40 -->
<g id="edge52" class="edge"><title>49&#45;&gt;40</title>
<path fill="none" stroke="black" d="M2341.62,-73.5621C2359.05,-78.4515 2387.15,-86.6436 2411,-95 2415.78,-96.6742 2420.83,-98.5817 2425.67,-100.482"/>
<polygon fill="black" stroke="black" points="2424.58,-103.816 2435.16,-104.295 2427.18,-97.32 2424.58,-103.816"/>
<text text-anchor="middle" x="2388" y="-98.8" font-family="Times,serif" font-size="14.00">u0010</text>
</g>
<!-- initial -->
<g id="node51" class="node"><title>initial</title>
</g>
<!-- initial&#45;&gt;0 -->
<g id="edge53" class="edge"><title>initial&#45;&gt;0</title>
<path fill="none" stroke="black" d="M54.195,-100C62.6538,-100 72.0513,-100 80.5951,-100"/>
<polygon fill="black" stroke="black" points="80.8257,-103.5 90.8257,-100 80.8257,-96.5001 80.8257,-103.5"/>
</g>
</g>
</svg>
