<svg width="2105px" height="283px"
 viewBox="0.00 0.00 1579.00 212.00" xmlns="http://www.w3.org/2000/svg" xmlns:xlink="http://www.w3.org/1999/xlink">
<g id="graph0" class="graph" transform="scale(1.000022500562514 1.000022500562514) rotate(0) translate(4 208)">
<title>Automaton</title>
<polygon fill="white" stroke="none" points="-4,4 -4,-208 1575,-208 1575,4 -4,4"/>
<!-- 0 -->
<g id="node1" class="node"><title>0</title>
<ellipse fill="none" stroke="black" cx="109" cy="-146" rx="18" ry="18"/>
</g>
<!-- 1 -->
<g id="node2" class="node"><title>1</title>
<ellipse fill="none" stroke="black" cx="227" cy="-146" rx="18" ry="18"/>
</g>
<!-- 0&#45;&gt;1 -->
<g id="edge1" class="edge"><title>0&#45;&gt;1</title>
<path fill="none" stroke="black" d="M127.116,-146C145.964,-146 176.531,-146 198.696,-146"/>
<polygon fill="black" stroke="black" points="198.814,-149.5 208.814,-146 198.814,-142.5 198.814,-149.5"/>
<text text-anchor="middle" x="168" y="-149.8" font-family="Times,serif" font-size="14.00">u0002</text>
</g>
<!-- 2 -->
<g id="node3" class="node"><title>2</title>
<ellipse fill="none" stroke="black" cx="345" cy="-146" rx="18" ry="18"/>
</g>
<!-- 1&#45;&gt;2 -->
<g id="edge2" class="edge"><title>1&#45;&gt;2</title>
<path fill="none" stroke="black" d="M245.116,-146C263.964,-146 294.531,-146 316.696,-146"/>
<polygon fill="black" stroke="black" points="316.814,-149.5 326.814,-146 316.814,-142.5 316.814,-149.5"/>
<text text-anchor="middle" x="286" y="-149.8" font-family="Times,serif" font-size="14.00">u0001</text>
</g>
<!-- 3 -->
<g id="node4" class="node"><title>3</title>
<ellipse fill="none" stroke="black" cx="463" cy="-146" rx="18" ry="18"/>
</g>
<!-- 2&#45;&gt;3 -->
<g id="edge3" class="edge"><title>2&#45;&gt;3</title>
<path fill="none" stroke="black" d="M363.116,-146C381.964,-146 412.531,-146 434.696,-146"/>
<polygon fill="black" stroke="black" points="434.814,-149.5 444.814,-146 434.814,-142.5 434.814,-149.5"/>
<text text-anchor="middle" x="404" y="-149.8" font-family="Times,serif" font-size="14.00">u0000</text>
</g>
<!-- 4 -->
<g id="node5" class="node"><title>4</title>
<ellipse fill="none" stroke="black" cx="1427" cy="-97" rx="18" ry="18"/>
</g>
<!-- 3&#45;&gt;4 -->
<g id="edge4" class="edge"><title>3&#45;&gt;4</title>
<path fill="none" stroke="black" d="M481.295,-146C503.962,-146 544.958,-146 580,-146 580,-146 580,-146 1310,-146 1344.59,-146 1380.73,-127.287 1403.29,-112.989"/>
<polygon fill="black" stroke="black" points="1405.37,-115.81 1411.8,-107.392 1401.53,-109.961 1405.37,-115.81"/>
<text text-anchor="middle" x="940" y="-149.8" font-family="Times,serif" font-size="14.00">u0004</text>
</g>
<!-- 5 -->
<g id="node6" class="node"><title>5</title>
<ellipse fill="none" stroke="black" cx="1549" cy="-67" rx="18" ry="18"/>
<ellipse fill="none" stroke="black" cx="1549" cy="-67" rx="22" ry="22"/>
</g>
<!-- 3&#45;&gt;5 -->
<g id="edge5" class="edge"><title>3&#45;&gt;5</title>
<path fill="none" stroke="black" d="M478.736,-155.33C500.159,-167.977 541.554,-189 580,-189 580,-189 580,-189 1428,-189 1479.82,-189 1516.73,-132.37 1534.99,-96.2754"/>
<polygon fill="black" stroke="black" points="1538.21,-97.6687 1539.44,-87.1458 1531.91,-94.6033 1538.21,-97.6687"/>
<text text-anchor="middle" x="1004" y="-192.8" font-family="Times,serif" font-size="14.00">u0003</text>
</g>
<!-- 6 -->
<g id="node7" class="node"><title>6</title>
<ellipse fill="none" stroke="black" cx="581" cy="-96" rx="18" ry="18"/>
</g>
<!-- 3&#45;&gt;6 -->
<g id="edge6" class="edge"><title>3&#45;&gt;6</title>
<path fill="none" stroke="black" d="M476.32,-133.501C482.626,-127.733 490.71,-121.24 499,-117 515.976,-108.317 536.836,-103.018 553.135,-99.9146"/>
<polygon fill="black" stroke="black" points="553.85,-103.343 563.101,-98.1791 552.649,-96.4467 553.85,-103.343"/>
<text text-anchor="middle" x="522" y="-120.8" font-family="Times,serif" font-size="14.00">u0005</text>
</g>
<!-- 4&#45;&gt;5 -->
<g id="edge7" class="edge"><title>4&#45;&gt;5</title>
<path fill="none" stroke="black" d="M1444.69,-92.8286C1463.45,-88.1375 1494.32,-80.4207 1517.43,-74.6414"/>
<polygon fill="black" stroke="black" points="1518.59,-77.9611 1527.44,-72.1401 1516.89,-71.1701 1518.59,-77.9611"/>
<text text-anchor="middle" x="1486" y="-92.8" font-family="Times,serif" font-size="14.00">u0003</text>
</g>
<!-- 7 -->
<g id="node8" class="node"><title>7</title>
<ellipse fill="none" stroke="black" cx="699" cy="-66" rx="18" ry="18"/>
</g>
<!-- 6&#45;&gt;7 -->
<g id="edge8" class="edge"><title>6&#45;&gt;7</title>
<path fill="none" stroke="black" d="M598.62,-91.7017C617.657,-86.7784 649.103,-78.6457 671.523,-72.8475"/>
<polygon fill="black" stroke="black" points="672.606,-76.1827 681.411,-70.2903 670.853,-69.4057 672.606,-76.1827"/>
<text text-anchor="middle" x="640" y="-90.8" font-family="Times,serif" font-size="14.00">u0004</text>
</g>
<!-- 7&#45;&gt;5 -->
<g id="edge9" class="edge"><title>7&#45;&gt;5</title>
<path fill="none" stroke="black" d="M712.249,-53.2745C732.093,-34.0957 773.366,-0 816,-0 816,-0 816,-0 1428,-0 1465.61,-0 1502.41,-25.4057 1525.13,-44.9283"/>
<polygon fill="black" stroke="black" points="1523.04,-47.7578 1532.84,-51.7967 1527.7,-42.5312 1523.04,-47.7578"/>
<text text-anchor="middle" x="1122" y="-3.8" font-family="Times,serif" font-size="14.00">u0003</text>
</g>
<!-- 8 -->
<g id="node9" class="node"><title>8</title>
<ellipse fill="none" stroke="black" cx="817" cy="-66" rx="18" ry="18"/>
</g>
<!-- 7&#45;&gt;8 -->
<g id="edge10" class="edge"><title>7&#45;&gt;8</title>
<path fill="none" stroke="black" d="M717.116,-66C735.964,-66 766.531,-66 788.696,-66"/>
<polygon fill="black" stroke="black" points="788.814,-69.5001 798.814,-66 788.814,-62.5001 788.814,-69.5001"/>
<text text-anchor="middle" x="758" y="-69.8" font-family="Times,serif" font-size="14.00">u0005</text>
</g>
<!-- 8&#45;&gt;5 -->
<g id="edge11" class="edge"><title>8&#45;&gt;5</title>
<path fill="none" stroke="black" d="M834.69,-61.4617C857.897,-55.5609 901.313,-46 939,-46 939,-46 939,-46 1428,-46 1458.77,-46 1493.32,-52.7811 1517.41,-58.6366"/>
<polygon fill="black" stroke="black" points="1516.83,-62.0981 1527.38,-61.1503 1518.54,-55.3107 1516.83,-62.0981"/>
<text text-anchor="middle" x="1186" y="-49.8" font-family="Times,serif" font-size="14.00">u0003</text>
</g>
<!-- 9 -->
<g id="node10" class="node"><title>9</title>
<ellipse fill="none" stroke="black" cx="940" cy="-92" rx="18" ry="18"/>
</g>
<!-- 8&#45;&gt;9 -->
<g id="edge12" class="edge"><title>8&#45;&gt;9</title>
<path fill="none" stroke="black" d="M834.825,-69.6152C854.872,-73.9228 888.618,-81.1742 912.255,-86.2532"/>
<polygon fill="black" stroke="black" points="911.806,-89.7365 922.318,-88.4155 913.277,-82.8927 911.806,-89.7365"/>
<text text-anchor="middle" x="876" y="-86.8" font-family="Times,serif" font-size="14.00">u0005</text>
</g>
<!-- 10 -->
<g id="node11" class="node"><title>10</title>
<ellipse fill="none" stroke="black" cx="1063" cy="-94" rx="18" ry="18"/>
</g>
<!-- 9&#45;&gt;10 -->
<g id="edge13" class="edge"><title>9&#45;&gt;10</title>
<path fill="none" stroke="black" d="M958.08,-92.2823C977.965,-92.611 1011.08,-93.1583 1034.58,-93.5467"/>
<polygon fill="black" stroke="black" points="1034.56,-97.0468 1044.62,-93.7127 1034.67,-90.0478 1034.56,-97.0468"/>
<text text-anchor="middle" x="1004" y="-97.8" font-family="Times,serif" font-size="14.00">u0005</text>
</g>
<!-- 11 -->
<g id="node12" class="node"><title>11</title>
<ellipse fill="none" stroke="black" cx="1186" cy="-97" rx="18" ry="18"/>
</g>
<!-- 10&#45;&gt;11 -->
<g id="edge14" class="edge"><title>10&#45;&gt;11</title>
<path fill="none" stroke="black" d="M1081.08,-94.4235C1100.96,-94.9165 1134.08,-95.7375 1157.58,-96.3201"/>
<polygon fill="black" stroke="black" points="1157.53,-99.8199 1167.62,-96.569 1157.71,-92.8221 1157.53,-99.8199"/>
<text text-anchor="middle" x="1122" y="-99.8" font-family="Times,serif" font-size="14.00">u0004</text>
</g>
<!-- 12 -->
<g id="node13" class="node"><title>12</title>
<ellipse fill="none" stroke="black" cx="1309" cy="-97" rx="18" ry="18"/>
</g>
<!-- 11&#45;&gt;12 -->
<g id="edge15" class="edge"><title>11&#45;&gt;12</title>
<path fill="none" stroke="black" d="M1204.08,-97C1223.96,-97 1257.08,-97 1280.58,-97"/>
<polygon fill="black" stroke="black" points="1280.62,-100.5 1290.62,-97 1280.62,-93.5001 1280.62,-100.5"/>
<text text-anchor="middle" x="1250" y="-100.8" font-family="Times,serif" font-size="14.00">u0005</text>
</g>
<!-- 12&#45;&gt;4 -->
<g id="edge16" class="edge"><title>12&#45;&gt;4</title>
<path fill="none" stroke="black" d="M1327.12,-97C1345.96,-97 1376.53,-97 1398.7,-97"/>
<polygon fill="black" stroke="black" points="1398.81,-100.5 1408.81,-97 1398.81,-93.5001 1398.81,-100.5"/>
<text text-anchor="middle" x="1368" y="-100.8" font-family="Times,serif" font-size="14.00">u0004</text>
</g>
<!-- initial -->
<g id="node14" class="node"><title>initial</title>
</g>
<!-- initial&#45;&gt;0 -->
<g id="edge17" class="edge"><title>initial&#45;&gt;0</title>
<path fill="none" stroke="black" d="M54.195,-146C62.6538,-146 72.0513,-146 80.5951,-146"/>
<polygon fill="black" stroke="black" points="80.8257,-149.5 90.8257,-146 80.8257,-142.5 80.8257,-149.5"/>
</g>
</g>
</svg>
