<svg width="2105px" height="221px"
 viewBox="0.00 0.00 1579.00 166.00" xmlns="http://www.w3.org/2000/svg" xmlns:xlink="http://www.w3.org/1999/xlink">
<g id="graph0" class="graph" transform="scale(1.000022500562514 1.000022500562514) rotate(0) translate(4 162)">
<title>Automaton</title>
<polygon fill="white" stroke="none" points="-4,4 -4,-162 1575,-162 1575,4 -4,4"/>
<!-- 0 -->
<g id="node1" class="node"><title>0</title>
<ellipse fill="none" stroke="black" cx="109" cy="-100" rx="18" ry="18"/>
</g>
<!-- 1 -->
<g id="node2" class="node"><title>1</title>
<ellipse fill="none" stroke="black" cx="227" cy="-100" rx="18" ry="18"/>
</g>
<!-- 0&#45;&gt;1 -->
<g id="edge1" class="edge"><title>0&#45;&gt;1</title>
<path fill="none" stroke="black" d="M127.116,-100C145.964,-100 176.531,-100 198.696,-100"/>
<polygon fill="black" stroke="black" points="198.814,-103.5 208.814,-100 198.814,-96.5001 198.814,-103.5"/>
<text text-anchor="middle" x="168" y="-103.8" font-family="Times,serif" font-size="14.00">u0002</text>
</g>
<!-- 2 -->
<g id="node3" class="node"><title>2</title>
<ellipse fill="none" stroke="black" cx="345" cy="-100" rx="18" ry="18"/>
</g>
<!-- 1&#45;&gt;2 -->
<g id="edge2" class="edge"><title>1&#45;&gt;2</title>
<path fill="none" stroke="black" d="M245.116,-100C263.964,-100 294.531,-100 316.696,-100"/>
<polygon fill="black" stroke="black" points="316.814,-103.5 326.814,-100 316.814,-96.5001 316.814,-103.5"/>
<text text-anchor="middle" x="286" y="-103.8" font-family="Times,serif" font-size="14.00">u0001</text>
</g>
<!-- 3 -->
<g id="node4" class="node"><title>3</title>
<ellipse fill="none" stroke="black" cx="463" cy="-100" rx="18" ry="18"/>
</g>
<!-- 2&#45;&gt;3 -->
<g id="edge3" class="edge"><title>2&#45;&gt;3</title>
<path fill="none" stroke="black" d="M363.116,-100C381.964,-100 412.531,-100 434.696,-100"/>
<polygon fill="black" stroke="black" points="434.814,-103.5 444.814,-100 434.814,-96.5001 434.814,-103.5"/>
<text text-anchor="middle" x="404" y="-103.8" font-family="Times,serif" font-size="14.00">u0000</text>
</g>
<!-- 4 -->
<g id="node5" class="node"><title>4</title>
<ellipse fill="none" stroke="black" cx="1427" cy="-83" rx="18" ry="18"/>
</g>
<!-- 3&#45;&gt;4 -->
<g id="edge4" class="edge"><title>3&#45;&gt;4</title>
<path fill="none" stroke="black" d="M481.295,-100C503.962,-100 544.958,-100 580,-100 580,-100 580,-100 1310,-100 1340.89,-100 1375.92,-94.0259 1399.33,-89.1607"/>
<polygon fill="black" stroke="black" points="1400.17,-92.5593 1409.21,-87.0288 1398.69,-85.7168 1400.17,-92.5593"/>
<text text-anchor="middle" x="940" y="-103.8" font-family="Times,serif" font-size="14.00">u0004</text>
</g>
<!-- 5 -->
<g id="node6" class="node"><title>5</title>
<ellipse fill="none" stroke="black" cx="1549" cy="-83" rx="18" ry="18"/>
<ellipse fill="none" stroke="black" cx="1549" cy="-83" rx="22" ry="22"/>
</g>
<!-- 3&#45;&gt;5 -->
<g id="edge5" class="edge"><title>3&#45;&gt;5</title>
<path fill="none" stroke="black" d="M478.736,-109.33C500.159,-121.977 541.554,-143 580,-143 580,-143 580,-143 1428,-143 1464.14,-143 1500.56,-120.955 1523.64,-103.59"/>
<polygon fill="black" stroke="black" points="1526.07,-106.13 1531.8,-97.2192 1521.77,-100.612 1526.07,-106.13"/>
<text text-anchor="middle" x="1004" y="-146.8" font-family="Times,serif" font-size="14.00">u0003</text>
</g>
<!-- 6 -->
<g id="node7" class="node"><title>6</title>
<ellipse fill="none" stroke="black" cx="581" cy="-53" rx="18" ry="18"/>
</g>
<!-- 3&#45;&gt;6 -->
<g id="edge6" class="edge"><title>3&#45;&gt;6</title>
<path fill="none" stroke="black" d="M476.256,-87.3737C482.547,-81.5759 490.637,-75.0946 499,-71 515.875,-62.7379 536.581,-58.2223 552.833,-55.7802"/>
<polygon fill="black" stroke="black" points="553.334,-59.2445 562.786,-54.4563 552.411,-52.3056 553.334,-59.2445"/>
<text text-anchor="middle" x="522" y="-74.8" font-family="Times,serif" font-size="14.00">u0005</text>
</g>
<!-- 4&#45;&gt;5 -->
<g id="edge7" class="edge"><title>4&#45;&gt;5</title>
<path fill="none" stroke="black" d="M1445.19,-83C1463.77,-83 1493.76,-83 1516.57,-83"/>
<polygon fill="black" stroke="black" points="1516.79,-86.5001 1526.79,-83 1516.79,-79.5001 1516.79,-86.5001"/>
<text text-anchor="middle" x="1486" y="-86.8" font-family="Times,serif" font-size="14.00">u0003</text>
</g>
<!-- 7 -->
<g id="node8" class="node"><title>7</title>
<ellipse fill="none" stroke="black" cx="699" cy="-47" rx="18" ry="18"/>
</g>
<!-- 6&#45;&gt;7 -->
<g id="edge8" class="edge"><title>6&#45;&gt;7</title>
<path fill="none" stroke="black" d="M599.116,-52.1147C617.964,-51.1398 648.531,-49.5588 670.696,-48.4123"/>
<polygon fill="black" stroke="black" points="671.008,-51.9009 680.814,-47.889 670.646,-44.9103 671.008,-51.9009"/>
<text text-anchor="middle" x="640" y="-55.8" font-family="Times,serif" font-size="14.00">u0004</text>
</g>
<!-- 8 -->
<g id="node9" class="node"><title>8</title>
<ellipse fill="none" stroke="black" cx="817" cy="-46" rx="18" ry="18"/>
</g>
<!-- 7&#45;&gt;8 -->
<g id="edge9" class="edge"><title>7&#45;&gt;8</title>
<path fill="none" stroke="black" d="M717.116,-46.8524C735.964,-46.69 766.531,-46.4265 788.696,-46.2354"/>
<polygon fill="black" stroke="black" points="788.844,-49.7343 798.814,-46.1482 788.784,-42.7346 788.844,-49.7343"/>
<text text-anchor="middle" x="758" y="-50.8" font-family="Times,serif" font-size="14.00">u0005</text>
</g>
<!-- 8&#45;&gt;5 -->
<g id="edge10" class="edge"><title>8&#45;&gt;5</title>
<path fill="none" stroke="black" d="M832.597,-36.4688C854.678,-22.9951 898.323,-0 939,-0 939,-0 939,-0 1428,-0 1469.19,-0 1506.47,-33.4912 1528.19,-57.9249"/>
<polygon fill="black" stroke="black" points="1525.78,-60.487 1534.94,-65.8023 1531.09,-55.9318 1525.78,-60.487"/>
<text text-anchor="middle" x="1186" y="-3.8" font-family="Times,serif" font-size="14.00">u0003</text>
</g>
<!-- 9 -->
<g id="node10" class="node"><title>9</title>
<ellipse fill="none" stroke="black" cx="940" cy="-46" rx="18" ry="18"/>
</g>
<!-- 8&#45;&gt;9 -->
<g id="edge11" class="edge"><title>8&#45;&gt;9</title>
<path fill="none" stroke="black" d="M835.08,-46C854.965,-46 888.077,-46 911.577,-46"/>
<polygon fill="black" stroke="black" points="911.615,-49.5001 921.615,-46 911.615,-42.5001 911.615,-49.5001"/>
<text text-anchor="middle" x="876" y="-49.8" font-family="Times,serif" font-size="14.00">u0005</text>
</g>
<!-- 10 -->
<g id="node11" class="node"><title>10</title>
<ellipse fill="none" stroke="black" cx="1063" cy="-50" rx="18" ry="18"/>
</g>
<!-- 9&#45;&gt;10 -->
<g id="edge12" class="edge"><title>9&#45;&gt;10</title>
<path fill="none" stroke="black" d="M958.08,-46.5646C978.078,-47.2257 1011.45,-48.3291 1034.98,-49.1067"/>
<polygon fill="black" stroke="black" points="1034.9,-52.6058 1045.01,-49.4383 1035.13,-45.6097 1034.9,-52.6058"/>
<text text-anchor="middle" x="1004" y="-52.8" font-family="Times,serif" font-size="14.00">u0005</text>
</g>
<!-- 11 -->
<g id="node12" class="node"><title>11</title>
<ellipse fill="none" stroke="black" cx="1186" cy="-52" rx="18" ry="18"/>
</g>
<!-- 10&#45;&gt;11 -->
<g id="edge13" class="edge"><title>10&#45;&gt;11</title>
<path fill="none" stroke="black" d="M1081.08,-50.2823C1100.96,-50.611 1134.08,-51.1583 1157.58,-51.5467"/>
<polygon fill="black" stroke="black" points="1157.56,-55.0468 1167.62,-51.7127 1157.67,-48.0478 1157.56,-55.0468"/>
<text text-anchor="middle" x="1122" y="-55.8" font-family="Times,serif" font-size="14.00">u0004</text>
</g>
<!-- 12 -->
<g id="node13" class="node"><title>12</title>
<ellipse fill="none" stroke="black" cx="1309" cy="-53" rx="18" ry="18"/>
</g>
<!-- 11&#45;&gt;12 -->
<g id="edge14" class="edge"><title>11&#45;&gt;12</title>
<path fill="none" stroke="black" d="M1204.08,-52.1412C1223.96,-52.3055 1257.08,-52.5792 1280.58,-52.7734"/>
<polygon fill="black" stroke="black" points="1280.59,-56.2735 1290.62,-52.8563 1280.64,-49.2737 1280.59,-56.2735"/>
<text text-anchor="middle" x="1250" y="-56.8" font-family="Times,serif" font-size="14.00">u0005</text>
</g>
<!-- 12&#45;&gt;4 -->
<g id="edge15" class="edge"><title>12&#45;&gt;4</title>
<path fill="none" stroke="black" d="M1326.89,-56.1816C1343.37,-59.4201 1369.09,-64.8307 1391,-71 1393.99,-71.8434 1397.11,-72.7972 1400.19,-73.7894"/>
<polygon fill="black" stroke="black" points="1399.14,-77.1296 1409.74,-77.0023 1401.38,-70.4953 1399.14,-77.1296"/>
<text text-anchor="middle" x="1368" y="-74.8" font-family="Times,serif" font-size="14.00">u0004</text>
</g>
<!-- initial -->
<g id="node14" class="node"><title>initial</title>
</g>
<!-- initial&#45;&gt;0 -->
<g id="edge16" class="edge"><title>initial&#45;&gt;0</title>
<path fill="none" stroke="black" d="M54.195,-100C62.6538,-100 72.0513,-100 80.5951,-100"/>
<polygon fill="black" stroke="black" points="80.8257,-103.5 90.8257,-100 80.8257,-96.5001 80.8257,-103.5"/>
</g>
</g>
</svg>
