<svg width="3339px" height="131px"
 viewBox="0.00 0.00 2504.00 98.00" xmlns="http://www.w3.org/2000/svg" xmlns:xlink="http://www.w3.org/1999/xlink">
<g id="graph0" class="graph" transform="scale(1.000022500562514 1.000022500562514) rotate(0) translate(4 94)">
<title>Automaton</title>
<polygon fill="white" stroke="none" points="-4,4 -4,-94 2500,-94 2500,4 -4,4"/>
<!-- 0 -->
<g id="node1" class="node"><title>0</title>
<ellipse fill="none" stroke="black" cx="109" cy="-41" rx="18" ry="18"/>
</g>
<!-- 1 -->
<g id="node2" class="node"><title>1</title>
<ellipse fill="none" stroke="black" cx="227" cy="-41" rx="18" ry="18"/>
</g>
<!-- 0&#45;&gt;1 -->
<g id="edge1" class="edge"><title>0&#45;&gt;1</title>
<path fill="none" stroke="black" d="M127.116,-41C145.964,-41 176.531,-41 198.696,-41"/>
<polygon fill="black" stroke="black" points="198.814,-44.5001 208.814,-41 198.814,-37.5001 198.814,-44.5001"/>
<text text-anchor="middle" x="168" y="-44.8" font-family="Times,serif" font-size="14.00">u0005</text>
</g>
<!-- 2 -->
<g id="node3" class="node"><title>2</title>
<ellipse fill="none" stroke="black" cx="344" cy="-41" rx="18" ry="18"/>
</g>
<!-- 1&#45;&gt;2 -->
<g id="edge2" class="edge"><title>1&#45;&gt;2</title>
<path fill="none" stroke="black" d="M245.466,-41C264.064,-41 293.756,-41 315.499,-41"/>
<polygon fill="black" stroke="black" points="315.746,-44.5001 325.746,-41 315.746,-37.5001 315.746,-44.5001"/>
<text text-anchor="middle" x="285.5" y="-44.8" font-family="Times,serif" font-size="14.00">u000c</text>
</g>
<!-- 3 -->
<g id="node4" class="node"><title>3</title>
<ellipse fill="none" stroke="black" cx="462" cy="-41" rx="18" ry="18"/>
</g>
<!-- 2&#45;&gt;3 -->
<g id="edge3" class="edge"><title>2&#45;&gt;3</title>
<path fill="none" stroke="black" d="M362.116,-41C380.964,-41 411.531,-41 433.696,-41"/>
<polygon fill="black" stroke="black" points="433.814,-44.5001 443.814,-41 433.814,-37.5001 433.814,-44.5001"/>
<text text-anchor="middle" x="403" y="-44.8" font-family="Times,serif" font-size="14.00">u0001</text>
</g>
<!-- 4 -->
<g id="node5" class="node"><title>4</title>
<ellipse fill="none" stroke="black" cx="580" cy="-41" rx="18" ry="18"/>
</g>
<!-- 3&#45;&gt;4 -->
<g id="edge4" class="edge"><title>3&#45;&gt;4</title>
<path fill="none" stroke="black" d="M480.116,-41C498.964,-41 529.531,-41 551.696,-41"/>
<polygon fill="black" stroke="black" points="551.814,-44.5001 561.814,-41 551.814,-37.5001 551.814,-44.5001"/>
<text text-anchor="middle" x="521" y="-44.8" font-family="Times,serif" font-size="14.00">u0008</text>
</g>
<!-- 5 -->
<g id="node6" class="node"><title>5</title>
<ellipse fill="none" stroke="black" cx="698" cy="-41" rx="18" ry="18"/>
</g>
<!-- 4&#45;&gt;5 -->
<g id="edge5" class="edge"><title>4&#45;&gt;5</title>
<path fill="none" stroke="black" d="M598.116,-41C616.964,-41 647.531,-41 669.696,-41"/>
<polygon fill="black" stroke="black" points="669.814,-44.5001 679.814,-41 669.814,-37.5001 669.814,-44.5001"/>
<text text-anchor="middle" x="639" y="-44.8" font-family="Times,serif" font-size="14.00">u0009</text>
</g>
<!-- 6 -->
<g id="node7" class="node"><title>6</title>
<ellipse fill="none" stroke="black" cx="816" cy="-72" rx="18" ry="18"/>
</g>
<!-- 5&#45;&gt;6 -->
<g id="edge6" class="edge"><title>5&#45;&gt;6</title>
<path fill="none" stroke="black" d="M715.62,-45.4415C734.657,-50.5289 766.103,-58.9327 788.523,-64.9243"/>
<polygon fill="black" stroke="black" points="787.846,-68.3662 798.411,-67.5667 789.654,-61.6035 787.846,-68.3662"/>
<text text-anchor="middle" x="757" y="-64.8" font-family="Times,serif" font-size="14.00">u0002</text>
</g>
<!-- 7 -->
<g id="node19" class="node"><title>7</title>
<ellipse fill="none" stroke="black" cx="816" cy="-18" rx="18" ry="18"/>
</g>
<!-- 5&#45;&gt;7 -->
<g id="edge7" class="edge"><title>5&#45;&gt;7</title>
<path fill="none" stroke="black" d="M715.278,-35.9131C721.141,-34.197 727.831,-32.3712 734,-31 751.735,-27.0579 771.908,-23.8166 787.685,-21.5565"/>
<polygon fill="black" stroke="black" points="788.396,-24.9915 797.821,-20.152 787.436,-18.0577 788.396,-24.9915"/>
<text text-anchor="middle" x="757" y="-34.8" font-family="Times,serif" font-size="14.00">u0000</text>
</g>
<!-- 8 -->
<g id="node8" class="node"><title>8</title>
<ellipse fill="none" stroke="black" cx="934" cy="-72" rx="18" ry="18"/>
</g>
<!-- 6&#45;&gt;8 -->
<g id="edge8" class="edge"><title>6&#45;&gt;8</title>
<path fill="none" stroke="black" d="M834.116,-72C852.964,-72 883.531,-72 905.696,-72"/>
<polygon fill="black" stroke="black" points="905.814,-75.5001 915.814,-72 905.814,-68.5001 905.814,-75.5001"/>
<text text-anchor="middle" x="875" y="-75.8" font-family="Times,serif" font-size="14.00">u000d</text>
</g>
<!-- 10 -->
<g id="node9" class="node"><title>10</title>
<ellipse fill="none" stroke="black" cx="1052" cy="-72" rx="18" ry="18"/>
</g>
<!-- 8&#45;&gt;10 -->
<g id="edge9" class="edge"><title>8&#45;&gt;10</title>
<path fill="none" stroke="black" d="M952.116,-72C970.964,-72 1001.53,-72 1023.7,-72"/>
<polygon fill="black" stroke="black" points="1023.81,-75.5001 1033.81,-72 1023.81,-68.5001 1023.81,-75.5001"/>
<text text-anchor="middle" x="993" y="-75.8" font-family="Times,serif" font-size="14.00">u0011</text>
</g>
<!-- 12 -->
<g id="node10" class="node"><title>12</title>
<ellipse fill="none" stroke="black" cx="1166" cy="-72" rx="18" ry="18"/>
</g>
<!-- 10&#45;&gt;12 -->
<g id="edge10" class="edge"><title>10&#45;&gt;12</title>
<path fill="none" stroke="black" d="M1070.01,-72C1087.94,-72 1116.44,-72 1137.56,-72"/>
<polygon fill="black" stroke="black" points="1137.83,-75.5001 1147.83,-72 1137.83,-68.5001 1137.83,-75.5001"/>
<text text-anchor="middle" x="1109" y="-75.8" font-family="Times,serif" font-size="14.00">u000f</text>
</g>
<!-- 14 -->
<g id="node11" class="node"><title>14</title>
<ellipse fill="none" stroke="black" cx="1284" cy="-72" rx="18" ry="18"/>
</g>
<!-- 12&#45;&gt;14 -->
<g id="edge11" class="edge"><title>12&#45;&gt;14</title>
<path fill="none" stroke="black" d="M1184.12,-72C1202.96,-72 1233.53,-72 1255.7,-72"/>
<polygon fill="black" stroke="black" points="1255.81,-75.5001 1265.81,-72 1255.81,-68.5001 1255.81,-75.5001"/>
<text text-anchor="middle" x="1225" y="-75.8" font-family="Times,serif" font-size="14.00">u0004</text>
</g>
<!-- 16 -->
<g id="node12" class="node"><title>16</title>
<ellipse fill="none" stroke="black" cx="1401" cy="-72" rx="18" ry="18"/>
</g>
<!-- 14&#45;&gt;16 -->
<g id="edge12" class="edge"><title>14&#45;&gt;16</title>
<path fill="none" stroke="black" d="M1302.47,-72C1321.06,-72 1350.76,-72 1372.5,-72"/>
<polygon fill="black" stroke="black" points="1372.75,-75.5001 1382.75,-72 1372.75,-68.5001 1372.75,-75.5001"/>
<text text-anchor="middle" x="1342.5" y="-75.8" font-family="Times,serif" font-size="14.00">u000e</text>
</g>
<!-- 18 -->
<g id="node13" class="node"><title>18</title>
<ellipse fill="none" stroke="black" cx="1519" cy="-72" rx="18" ry="18"/>
</g>
<!-- 16&#45;&gt;18 -->
<g id="edge13" class="edge"><title>16&#45;&gt;18</title>
<path fill="none" stroke="black" d="M1419.12,-72C1437.96,-72 1468.53,-72 1490.7,-72"/>
<polygon fill="black" stroke="black" points="1490.81,-75.5001 1500.81,-72 1490.81,-68.5001 1490.81,-75.5001"/>
<text text-anchor="middle" x="1460" y="-75.8" font-family="Times,serif" font-size="14.00">u000a</text>
</g>
<!-- 20 -->
<g id="node14" class="node"><title>20</title>
<ellipse fill="none" stroke="black" cx="1637" cy="-72" rx="18" ry="18"/>
</g>
<!-- 18&#45;&gt;20 -->
<g id="edge14" class="edge"><title>18&#45;&gt;20</title>
<path fill="none" stroke="black" d="M1537.12,-72C1555.96,-72 1586.53,-72 1608.7,-72"/>
<polygon fill="black" stroke="black" points="1608.81,-75.5001 1618.81,-72 1608.81,-68.5001 1608.81,-75.5001"/>
<text text-anchor="middle" x="1578" y="-75.8" font-family="Times,serif" font-size="14.00">u0010</text>
</g>
<!-- 22 -->
<g id="node15" class="node"><title>22</title>
<ellipse fill="none" stroke="black" cx="1754" cy="-72" rx="18" ry="18"/>
</g>
<!-- 20&#45;&gt;22 -->
<g id="edge15" class="edge"><title>20&#45;&gt;22</title>
<path fill="none" stroke="black" d="M1655.47,-72C1674.06,-72 1703.76,-72 1725.5,-72"/>
<polygon fill="black" stroke="black" points="1725.75,-75.5001 1735.75,-72 1725.75,-68.5001 1725.75,-75.5001"/>
<text text-anchor="middle" x="1695.5" y="-75.8" font-family="Times,serif" font-size="14.00">u000e</text>
</g>
<!-- 24 -->
<g id="node16" class="node"><title>24</title>
<ellipse fill="none" stroke="black" cx="1930.5" cy="-72" rx="18" ry="18"/>
</g>
<!-- 22&#45;&gt;24 -->
<g id="edge16" class="edge"><title>22&#45;&gt;24</title>
<path fill="none" stroke="black" d="M1772.05,-72C1802.28,-72 1865.53,-72 1901.99,-72"/>
<polygon fill="black" stroke="black" points="1902.38,-75.5001 1912.38,-72 1902.38,-68.5001 1902.38,-75.5001"/>
<text text-anchor="middle" x="1813" y="-75.8" font-family="Times,serif" font-size="14.00">u0006</text>
</g>
<!-- 26 -->
<g id="node17" class="node"><title>26</title>
<ellipse fill="none" stroke="black" cx="2352" cy="-52" rx="18" ry="18"/>
</g>
<!-- 24&#45;&gt;26 -->
<g id="edge17" class="edge"><title>24&#45;&gt;26</title>
<path fill="none" stroke="black" d="M1948.72,-72C1971.29,-72 2012.11,-72 2047,-72 2047,-72 2047,-72 2235,-72 2266.01,-72 2301.02,-64.9717 2324.39,-59.2479"/>
<polygon fill="black" stroke="black" points="2325.42,-62.5967 2334.25,-56.7397 2323.7,-55.8127 2325.42,-62.5967"/>
<text text-anchor="middle" x="2111.5" y="-75.8" font-family="Times,serif" font-size="14.00">u000e</text>
</g>
<!-- 28 -->
<g id="node18" class="node"><title>28</title>
<ellipse fill="none" stroke="black" cx="2474" cy="-52" rx="18" ry="18"/>
<ellipse fill="none" stroke="black" cx="2474" cy="-52" rx="22" ry="22"/>
</g>
<!-- 26&#45;&gt;28 -->
<g id="edge18" class="edge"><title>26&#45;&gt;28</title>
<path fill="none" stroke="black" d="M2370.19,-52C2388.77,-52 2418.76,-52 2441.57,-52"/>
<polygon fill="black" stroke="black" points="2441.79,-55.5001 2451.79,-52 2441.79,-48.5001 2441.79,-55.5001"/>
<text text-anchor="middle" x="2411" y="-55.8" font-family="Times,serif" font-size="14.00">u000b</text>
</g>
<!-- 9 -->
<g id="node20" class="node"><title>9</title>
<ellipse fill="none" stroke="black" cx="934" cy="-18" rx="18" ry="18"/>
</g>
<!-- 7&#45;&gt;9 -->
<g id="edge19" class="edge"><title>7&#45;&gt;9</title>
<path fill="none" stroke="black" d="M834.116,-18C852.964,-18 883.531,-18 905.696,-18"/>
<polygon fill="black" stroke="black" points="905.814,-21.5001 915.814,-18 905.814,-14.5001 905.814,-21.5001"/>
<text text-anchor="middle" x="875" y="-21.8" font-family="Times,serif" font-size="14.00">u000d</text>
</g>
<!-- 11 -->
<g id="node21" class="node"><title>11</title>
<ellipse fill="none" stroke="black" cx="1052" cy="-18" rx="18" ry="18"/>
</g>
<!-- 9&#45;&gt;11 -->
<g id="edge20" class="edge"><title>9&#45;&gt;11</title>
<path fill="none" stroke="black" d="M952.116,-18C970.964,-18 1001.53,-18 1023.7,-18"/>
<polygon fill="black" stroke="black" points="1023.81,-21.5001 1033.81,-18 1023.81,-14.5001 1023.81,-21.5001"/>
<text text-anchor="middle" x="993" y="-21.8" font-family="Times,serif" font-size="14.00">u0011</text>
</g>
<!-- 13 -->
<g id="node22" class="node"><title>13</title>
<ellipse fill="none" stroke="black" cx="1166" cy="-18" rx="18" ry="18"/>
</g>
<!-- 11&#45;&gt;13 -->
<g id="edge21" class="edge"><title>11&#45;&gt;13</title>
<path fill="none" stroke="black" d="M1070.01,-18C1087.94,-18 1116.44,-18 1137.56,-18"/>
<polygon fill="black" stroke="black" points="1137.83,-21.5001 1147.83,-18 1137.83,-14.5001 1137.83,-21.5001"/>
<text text-anchor="middle" x="1109" y="-21.8" font-family="Times,serif" font-size="14.00">u000f</text>
</g>
<!-- 15 -->
<g id="node23" class="node"><title>15</title>
<ellipse fill="none" stroke="black" cx="1284" cy="-18" rx="18" ry="18"/>
</g>
<!-- 13&#45;&gt;15 -->
<g id="edge22" class="edge"><title>13&#45;&gt;15</title>
<path fill="none" stroke="black" d="M1184.12,-18C1202.96,-18 1233.53,-18 1255.7,-18"/>
<polygon fill="black" stroke="black" points="1255.81,-21.5001 1265.81,-18 1255.81,-14.5001 1255.81,-21.5001"/>
<text text-anchor="middle" x="1225" y="-21.8" font-family="Times,serif" font-size="14.00">u000a</text>
</g>
<!-- 17 -->
<g id="node24" class="node"><title>17</title>
<ellipse fill="none" stroke="black" cx="1401" cy="-18" rx="18" ry="18"/>
</g>
<!-- 15&#45;&gt;17 -->
<g id="edge23" class="edge"><title>15&#45;&gt;17</title>
<path fill="none" stroke="black" d="M1302.47,-18C1321.06,-18 1350.76,-18 1372.5,-18"/>
<polygon fill="black" stroke="black" points="1372.75,-21.5001 1382.75,-18 1372.75,-14.5001 1372.75,-21.5001"/>
<text text-anchor="middle" x="1342.5" y="-21.8" font-family="Times,serif" font-size="14.00">u000e</text>
</g>
<!-- 19 -->
<g id="node25" class="node"><title>19</title>
<ellipse fill="none" stroke="black" cx="1519" cy="-18" rx="18" ry="18"/>
</g>
<!-- 17&#45;&gt;19 -->
<g id="edge24" class="edge"><title>17&#45;&gt;19</title>
<path fill="none" stroke="black" d="M1419.12,-18C1437.96,-18 1468.53,-18 1490.7,-18"/>
<polygon fill="black" stroke="black" points="1490.81,-21.5001 1500.81,-18 1490.81,-14.5001 1490.81,-21.5001"/>
<text text-anchor="middle" x="1460" y="-21.8" font-family="Times,serif" font-size="14.00">u0010</text>
</g>
<!-- 21 -->
<g id="node26" class="node"><title>21</title>
<ellipse fill="none" stroke="black" cx="1637" cy="-18" rx="18" ry="18"/>
</g>
<!-- 19&#45;&gt;21 -->
<g id="edge25" class="edge"><title>19&#45;&gt;21</title>
<path fill="none" stroke="black" d="M1537.12,-18C1555.96,-18 1586.53,-18 1608.7,-18"/>
<polygon fill="black" stroke="black" points="1608.81,-21.5001 1618.81,-18 1608.81,-14.5001 1608.81,-21.5001"/>
<text text-anchor="middle" x="1578" y="-21.8" font-family="Times,serif" font-size="14.00">u0006</text>
</g>
<!-- 23 -->
<g id="node27" class="node"><title>23</title>
<ellipse fill="none" stroke="black" cx="1754" cy="-18" rx="18" ry="18"/>
</g>
<!-- 21&#45;&gt;23 -->
<g id="edge26" class="edge"><title>21&#45;&gt;23</title>
<path fill="none" stroke="black" d="M1655.47,-18C1674.06,-18 1703.76,-18 1725.5,-18"/>
<polygon fill="black" stroke="black" points="1725.75,-21.5001 1735.75,-18 1725.75,-14.5001 1725.75,-21.5001"/>
<text text-anchor="middle" x="1695.5" y="-21.8" font-family="Times,serif" font-size="14.00">u000a</text>
</g>
<!-- 25 -->
<g id="node28" class="node"><title>25</title>
<ellipse fill="none" stroke="black" cx="1872" cy="-18" rx="18" ry="18"/>
</g>
<!-- 23&#45;&gt;25 -->
<g id="edge27" class="edge"><title>23&#45;&gt;25</title>
<path fill="none" stroke="black" d="M1772.12,-18C1790.96,-18 1821.53,-18 1843.7,-18"/>
<polygon fill="black" stroke="black" points="1843.81,-21.5001 1853.81,-18 1843.81,-14.5001 1843.81,-21.5001"/>
<text text-anchor="middle" x="1813" y="-21.8" font-family="Times,serif" font-size="14.00">u0007</text>
</g>
<!-- 27 -->
<g id="node29" class="node"><title>27</title>
<ellipse fill="none" stroke="black" cx="1989" cy="-18" rx="18" ry="18"/>
</g>
<!-- 25&#45;&gt;27 -->
<g id="edge28" class="edge"><title>25&#45;&gt;27</title>
<path fill="none" stroke="black" d="M1890.47,-18C1909.06,-18 1938.76,-18 1960.5,-18"/>
<polygon fill="black" stroke="black" points="1960.75,-21.5001 1970.75,-18 1960.75,-14.5001 1960.75,-21.5001"/>
<text text-anchor="middle" x="1930.5" y="-21.8" font-family="Times,serif" font-size="14.00">u000e</text>
</g>
<!-- 29 -->
<g id="node30" class="node"><title>29</title>
<ellipse fill="none" stroke="black" cx="2111.5" cy="-18" rx="18" ry="18"/>
</g>
<!-- 27&#45;&gt;29 -->
<g id="edge29" class="edge"><title>27&#45;&gt;29</title>
<path fill="none" stroke="black" d="M2007.01,-18C2026.72,-18 2059.49,-18 2082.87,-18"/>
<polygon fill="black" stroke="black" points="2083.19,-21.5001 2093.19,-18 2083.19,-14.5001 2083.19,-21.5001"/>
<text text-anchor="middle" x="2048" y="-21.8" font-family="Times,serif" font-size="14.00">u0007</text>
</g>
<!-- 30 -->
<g id="node31" class="node"><title>30</title>
<ellipse fill="none" stroke="black" cx="2234" cy="-24" rx="18" ry="18"/>
</g>
<!-- 29&#45;&gt;30 -->
<g id="edge30" class="edge"><title>29&#45;&gt;30</title>
<path fill="none" stroke="black" d="M2129.51,-18.8469C2149.31,-19.833 2182.29,-21.4749 2205.69,-22.6402"/>
<polygon fill="black" stroke="black" points="2205.53,-26.1362 2215.69,-23.138 2205.87,-19.1449 2205.53,-26.1362"/>
<text text-anchor="middle" x="2175" y="-26.8" font-family="Times,serif" font-size="14.00">u0006</text>
</g>
<!-- 30&#45;&gt;26 -->
<g id="edge31" class="edge"><title>30&#45;&gt;26</title>
<path fill="none" stroke="black" d="M2251.78,-27.8262C2268.18,-31.5914 2293.84,-37.552 2316,-43 2318.71,-43.6651 2321.53,-44.3702 2324.34,-45.0816"/>
<polygon fill="black" stroke="black" points="2323.73,-48.5379 2334.28,-47.6243 2325.46,-41.7561 2323.73,-48.5379"/>
<text text-anchor="middle" x="2293" y="-46.8" font-family="Times,serif" font-size="14.00">u0007</text>
</g>
<!-- initial -->
<g id="node32" class="node"><title>initial</title>
</g>
<!-- initial&#45;&gt;0 -->
<g id="edge32" class="edge"><title>initial&#45;&gt;0</title>
<path fill="none" stroke="black" d="M54.195,-41C62.6538,-41 72.0513,-41 80.5951,-41"/>
<polygon fill="black" stroke="black" points="80.8257,-44.5001 90.8257,-41 80.8257,-37.5001 80.8257,-44.5001"/>
</g>
</g>
</svg>
