<svg width="1647px" height="404px"
 viewBox="0.00 0.00 1235.00 303.00" xmlns="http://www.w3.org/2000/svg" xmlns:xlink="http://www.w3.org/1999/xlink">
<g id="graph0" class="graph" transform="scale(1.000022500562514 1.000022500562514) rotate(0) translate(4 299)">
<title>Automaton</title>
<polygon fill="white" stroke="none" points="-4,4 -4,-299 1231,-299 1231,4 -4,4"/>
<!-- 0 -->
<g id="node1" class="node"><title>0</title>
<ellipse fill="none" stroke="black" cx="109" cy="-18" rx="18" ry="18"/>
</g>
<!-- 1 -->
<g id="node2" class="node"><title>1</title>
<ellipse fill="none" stroke="black" cx="227" cy="-18" rx="18" ry="18"/>
</g>
<!-- 0&#45;&gt;1 -->
<g id="edge1" class="edge"><title>0&#45;&gt;1</title>
<path fill="none" stroke="black" d="M127.116,-18C145.964,-18 176.531,-18 198.696,-18"/>
<polygon fill="black" stroke="black" points="198.814,-21.5001 208.814,-18 198.814,-14.5001 198.814,-21.5001"/>
<text text-anchor="middle" x="168" y="-21.8" font-family="Times,serif" font-size="14.00">u0000</text>
</g>
<!-- 2 -->
<g id="node3" class="node"><title>2</title>
<ellipse fill="none" stroke="black" cx="345" cy="-48" rx="18" ry="18"/>
</g>
<!-- 1&#45;&gt;2 -->
<g id="edge2" class="edge"><title>1&#45;&gt;2</title>
<path fill="none" stroke="black" d="M244.62,-22.2983C263.657,-27.2216 295.103,-35.3543 317.523,-41.1525"/>
<polygon fill="black" stroke="black" points="316.853,-44.5943 327.411,-43.7097 318.606,-37.8173 316.853,-44.5943"/>
<text text-anchor="middle" x="286" y="-41.8" font-family="Times,serif" font-size="14.00">u0002</text>
</g>
<!-- 3 -->
<g id="node9" class="node"><title>3</title>
<ellipse fill="none" stroke="black" cx="1083" cy="-137" rx="18" ry="18"/>
</g>
<!-- 1&#45;&gt;3 -->
<g id="edge3" class="edge"><title>1&#45;&gt;3</title>
<path fill="none" stroke="black" d="M244.805,-14.2082C267.28,-9.47681 308.423,-2 344,-2 344,-2 344,-2 961,-2 1005.9,-2 1017.7,-20.9793 1047,-55 1060.55,-70.7349 1069.51,-92.4975 1074.97,-109.649"/>
<polygon fill="black" stroke="black" points="1071.73,-111.042 1077.93,-119.637 1078.44,-109.055 1071.73,-111.042"/>
<text text-anchor="middle" x="640" y="-5.8" font-family="Times,serif" font-size="14.00">u0001</text>
</g>
<!-- 4 -->
<g id="node4" class="node"><title>4</title>
<ellipse fill="none" stroke="black" cx="463" cy="-94" rx="18" ry="18"/>
</g>
<!-- 2&#45;&gt;4 -->
<g id="edge4" class="edge"><title>2&#45;&gt;4</title>
<path fill="none" stroke="black" d="M362.024,-54.4264C367.98,-56.8106 374.797,-59.5341 381,-62 399.441,-69.331 420.265,-77.5563 436.18,-83.8318"/>
<polygon fill="black" stroke="black" points="435.268,-87.2346 445.855,-87.6452 437.835,-80.7222 435.268,-87.2346"/>
<text text-anchor="middle" x="404" y="-82.8" font-family="Times,serif" font-size="14.00">u0002</text>
</g>
<!-- 2&#45;&gt;3 -->
<g id="edge5" class="edge"><title>2&#45;&gt;3</title>
<path fill="none" stroke="black" d="M363.295,-48C385.962,-48 426.958,-48 462,-48 462,-48 462,-48 961,-48 1005.71,-48 1044.8,-87.9173 1065.75,-114.286"/>
<polygon fill="black" stroke="black" points="1063.04,-116.498 1071.9,-122.303 1068.59,-112.238 1063.04,-116.498"/>
<text text-anchor="middle" x="704" y="-51.8" font-family="Times,serif" font-size="14.00">u0001</text>
</g>
<!-- 6 -->
<g id="node5" class="node"><title>6</title>
<ellipse fill="none" stroke="black" cx="581" cy="-137" rx="18" ry="18"/>
</g>
<!-- 4&#45;&gt;6 -->
<g id="edge6" class="edge"><title>4&#45;&gt;6</title>
<path fill="none" stroke="black" d="M480.129,-99.979C499.24,-107.063 531.337,-118.961 553.977,-127.354"/>
<polygon fill="black" stroke="black" points="553.041,-130.739 563.634,-130.933 555.474,-124.176 553.041,-130.739"/>
<text text-anchor="middle" x="522" y="-126.8" font-family="Times,serif" font-size="14.00">u0002</text>
</g>
<!-- 4&#45;&gt;3 -->
<g id="edge7" class="edge"><title>4&#45;&gt;3</title>
<path fill="none" stroke="black" d="M481.291,-93.2738C503.955,-92.3859 544.947,-91 580,-91 580,-91 580,-91 961,-91 996.752,-91 1034.8,-108.763 1058.48,-122.213"/>
<polygon fill="black" stroke="black" points="1057.01,-125.411 1067.4,-127.469 1060.56,-119.379 1057.01,-125.411"/>
<text text-anchor="middle" x="768" y="-94.8" font-family="Times,serif" font-size="14.00">u0001</text>
</g>
<!-- 7 -->
<g id="node6" class="node"><title>7</title>
<ellipse fill="none" stroke="black" cx="704" cy="-183" rx="18" ry="18"/>
</g>
<!-- 6&#45;&gt;7 -->
<g id="edge8" class="edge"><title>6&#45;&gt;7</title>
<path fill="none" stroke="black" d="M597.998,-143.494C603.951,-145.885 610.772,-148.596 617,-151 637.061,-158.743 659.877,-167.218 676.965,-173.499"/>
<polygon fill="black" stroke="black" points="676.195,-176.945 686.788,-177.101 678.604,-170.372 676.195,-176.945"/>
<text text-anchor="middle" x="640" y="-170.8" font-family="Times,serif" font-size="14.00">u0002</text>
</g>
<!-- 6&#45;&gt;3 -->
<g id="edge9" class="edge"><title>6&#45;&gt;3</title>
<path fill="none" stroke="black" d="M599.232,-137C622.701,-137 666.028,-137 703,-137 703,-137 703,-137 961,-137 993.206,-137 1030.23,-137 1054.76,-137"/>
<polygon fill="black" stroke="black" points="1054.77,-140.5 1064.77,-137 1054.77,-133.5 1054.77,-140.5"/>
<text text-anchor="middle" x="832" y="-140.8" font-family="Times,serif" font-size="14.00">u0001</text>
</g>
<!-- 8 -->
<g id="node7" class="node"><title>8</title>
<ellipse fill="none" stroke="black" cx="832" cy="-226" rx="18" ry="18"/>
</g>
<!-- 7&#45;&gt;8 -->
<g id="edge10" class="edge"><title>7&#45;&gt;8</title>
<path fill="none" stroke="black" d="M721.214,-188.533C742.478,-195.79 780.033,-208.606 805.218,-217.201"/>
<polygon fill="black" stroke="black" points="804.253,-220.57 814.848,-220.488 806.514,-213.945 804.253,-220.57"/>
<text text-anchor="middle" x="768" y="-215.8" font-family="Times,serif" font-size="14.00">u0002</text>
</g>
<!-- 7&#45;&gt;3 -->
<g id="edge11" class="edge"><title>7&#45;&gt;3</title>
<path fill="none" stroke="black" d="M722.006,-183.119C772.391,-183.108 924.976,-180.461 1047,-151 1050.24,-150.217 1053.59,-149.19 1056.86,-148.048"/>
<polygon fill="black" stroke="black" points="1058.22,-151.272 1066.29,-144.403 1055.7,-144.743 1058.22,-151.272"/>
<text text-anchor="middle" x="896" y="-179.8" font-family="Times,serif" font-size="14.00">u0001</text>
</g>
<!-- 9 -->
<g id="node8" class="node"><title>9</title>
<ellipse fill="none" stroke="black" cx="960" cy="-277" rx="18" ry="18"/>
</g>
<!-- 8&#45;&gt;9 -->
<g id="edge12" class="edge"><title>8&#45;&gt;9</title>
<path fill="none" stroke="black" d="M848.958,-232.459C870.354,-241.12 908.57,-256.588 933.855,-266.822"/>
<polygon fill="black" stroke="black" points="932.589,-270.086 943.172,-270.593 935.215,-263.597 932.589,-270.086"/>
<text text-anchor="middle" x="896" y="-263.8" font-family="Times,serif" font-size="14.00">u0002</text>
</g>
<!-- 8&#45;&gt;3 -->
<g id="edge13" class="edge"><title>8&#45;&gt;3</title>
<path fill="none" stroke="black" d="M849.955,-227.998C888.49,-231.643 984.175,-235.546 1047,-194 1058.2,-186.594 1066.42,-174.25 1072.07,-162.94"/>
<polygon fill="black" stroke="black" points="1075.27,-164.365 1076.22,-153.813 1068.9,-161.467 1075.27,-164.365"/>
<text text-anchor="middle" x="960" y="-231.8" font-family="Times,serif" font-size="14.00">u0001</text>
</g>
<!-- 9&#45;&gt;3 -->
<g id="edge14" class="edge"><title>9&#45;&gt;3</title>
<path fill="none" stroke="black" d="M977.93,-273.998C997.221,-269.721 1028.47,-260.053 1047,-240 1066.14,-219.286 1074.86,-187.685 1078.81,-164.95"/>
<polygon fill="black" stroke="black" points="1082.29,-165.308 1080.34,-154.894 1075.37,-164.251 1082.29,-165.308"/>
<text text-anchor="middle" x="1024" y="-270.8" font-family="Times,serif" font-size="14.00">u0001</text>
</g>
<!-- 5 -->
<g id="node10" class="node"><title>5</title>
<ellipse fill="none" stroke="black" cx="1205" cy="-137" rx="18" ry="18"/>
<ellipse fill="none" stroke="black" cx="1205" cy="-137" rx="22" ry="22"/>
</g>
<!-- 3&#45;&gt;5 -->
<g id="edge15" class="edge"><title>3&#45;&gt;5</title>
<path fill="none" stroke="black" d="M1101.19,-137C1119.77,-137 1149.76,-137 1172.57,-137"/>
<polygon fill="black" stroke="black" points="1172.79,-140.5 1182.79,-137 1172.79,-133.5 1172.79,-140.5"/>
<text text-anchor="middle" x="1142" y="-140.8" font-family="Times,serif" font-size="14.00">u0003</text>
</g>
<!-- initial -->
<g id="node11" class="node"><title>initial</title>
</g>
<!-- initial&#45;&gt;0 -->
<g id="edge16" class="edge"><title>initial&#45;&gt;0</title>
<path fill="none" stroke="black" d="M54.195,-18C62.6538,-18 72.0513,-18 80.5951,-18"/>
<polygon fill="black" stroke="black" points="80.8257,-21.5001 90.8257,-18 80.8257,-14.5001 80.8257,-21.5001"/>
</g>
</g>
</svg>
