<svg width="3191px" height="107px"
 viewBox="0.00 0.00 2393.00 80.00" xmlns="http://www.w3.org/2000/svg" xmlns:xlink="http://www.w3.org/1999/xlink">
<g id="graph0" class="graph" transform="scale(1.000022500562514 1.000022500562514) rotate(0) translate(4 76)">
<title>Automaton</title>
<polygon fill="white" stroke="none" points="-4,4 -4,-76 2389,-76 2389,4 -4,4"/>
<!-- 0 -->
<g id="node1" class="node"><title>0</title>
<ellipse fill="none" stroke="black" cx="109" cy="-19" rx="18" ry="18"/>
</g>
<!-- 1 -->
<g id="node2" class="node"><title>1</title>
<ellipse fill="none" stroke="black" cx="227" cy="-19" rx="18" ry="18"/>
</g>
<!-- 0&#45;&gt;1 -->
<g id="edge1" class="edge"><title>0&#45;&gt;1</title>
<path fill="none" stroke="black" d="M127.116,-19C145.964,-19 176.531,-19 198.696,-19"/>
<polygon fill="black" stroke="black" points="198.814,-22.5001 208.814,-19 198.814,-15.5001 198.814,-22.5001"/>
<text text-anchor="middle" x="168" y="-22.8" font-family="Times,serif" font-size="14.00">u0007</text>
</g>
<!-- 2 -->
<g id="node3" class="node"><title>2</title>
<ellipse fill="none" stroke="black" cx="345" cy="-19" rx="18" ry="18"/>
</g>
<!-- 1&#45;&gt;2 -->
<g id="edge2" class="edge"><title>1&#45;&gt;2</title>
<path fill="none" stroke="black" d="M245.116,-19C263.964,-19 294.531,-19 316.696,-19"/>
<polygon fill="black" stroke="black" points="316.814,-22.5001 326.814,-19 316.814,-15.5001 316.814,-22.5001"/>
<text text-anchor="middle" x="286" y="-22.8" font-family="Times,serif" font-size="14.00">u0009</text>
</g>
<!-- 3 -->
<g id="node4" class="node"><title>3</title>
<ellipse fill="none" stroke="black" cx="462" cy="-19" rx="18" ry="18"/>
</g>
<!-- 2&#45;&gt;3 -->
<g id="edge3" class="edge"><title>2&#45;&gt;3</title>
<path fill="none" stroke="black" d="M363.466,-19C382.064,-19 411.756,-19 433.499,-19"/>
<polygon fill="black" stroke="black" points="433.746,-22.5001 443.746,-19 433.746,-15.5001 433.746,-22.5001"/>
<text text-anchor="middle" x="403.5" y="-22.8" font-family="Times,serif" font-size="14.00">u000a</text>
</g>
<!-- 4 -->
<g id="node5" class="node"><title>4</title>
<ellipse fill="none" stroke="black" cx="580" cy="-19" rx="18" ry="18"/>
</g>
<!-- 3&#45;&gt;4 -->
<g id="edge4" class="edge"><title>3&#45;&gt;4</title>
<path fill="none" stroke="black" d="M480.116,-19C498.964,-19 529.531,-19 551.696,-19"/>
<polygon fill="black" stroke="black" points="551.814,-22.5001 561.814,-19 551.814,-15.5001 551.814,-22.5001"/>
<text text-anchor="middle" x="521" y="-22.8" font-family="Times,serif" font-size="14.00">u000b</text>
</g>
<!-- 5 -->
<g id="node6" class="node"><title>5</title>
<ellipse fill="none" stroke="black" cx="698" cy="-19" rx="18" ry="18"/>
</g>
<!-- 4&#45;&gt;5 -->
<g id="edge5" class="edge"><title>4&#45;&gt;5</title>
<path fill="none" stroke="black" d="M598.116,-19C616.964,-19 647.531,-19 669.696,-19"/>
<polygon fill="black" stroke="black" points="669.814,-22.5001 679.814,-19 669.814,-15.5001 669.814,-22.5001"/>
<text text-anchor="middle" x="639" y="-22.8" font-family="Times,serif" font-size="14.00">u0005</text>
</g>
<!-- 6 -->
<g id="node7" class="node"><title>6</title>
<ellipse fill="none" stroke="black" cx="816" cy="-19" rx="18" ry="18"/>
</g>
<!-- 5&#45;&gt;6 -->
<g id="edge6" class="edge"><title>5&#45;&gt;6</title>
<path fill="none" stroke="black" d="M716.116,-19C734.964,-19 765.531,-19 787.696,-19"/>
<polygon fill="black" stroke="black" points="787.814,-22.5001 797.814,-19 787.814,-15.5001 787.814,-22.5001"/>
<text text-anchor="middle" x="757" y="-22.8" font-family="Times,serif" font-size="14.00">u0001</text>
</g>
<!-- 7 -->
<g id="node8" class="node"><title>7</title>
<ellipse fill="none" stroke="black" cx="934" cy="-19" rx="18" ry="18"/>
</g>
<!-- 6&#45;&gt;7 -->
<g id="edge7" class="edge"><title>6&#45;&gt;7</title>
<path fill="none" stroke="black" d="M834.116,-19C852.964,-19 883.531,-19 905.696,-19"/>
<polygon fill="black" stroke="black" points="905.814,-22.5001 915.814,-19 905.814,-15.5001 905.814,-22.5001"/>
<text text-anchor="middle" x="875" y="-22.8" font-family="Times,serif" font-size="14.00">u0003</text>
</g>
<!-- 8 -->
<g id="node9" class="node"><title>8</title>
<ellipse fill="none" stroke="black" cx="1051" cy="-19" rx="18" ry="18"/>
</g>
<!-- 7&#45;&gt;8 -->
<g id="edge8" class="edge"><title>7&#45;&gt;8</title>
<path fill="none" stroke="black" d="M952.466,-19C971.064,-19 1000.76,-19 1022.5,-19"/>
<polygon fill="black" stroke="black" points="1022.75,-22.5001 1032.75,-19 1022.75,-15.5001 1022.75,-22.5001"/>
<text text-anchor="middle" x="992.5" y="-22.8" font-family="Times,serif" font-size="14.00">u000c</text>
</g>
<!-- 9 -->
<g id="node10" class="node"><title>9</title>
<ellipse fill="none" stroke="black" cx="1169" cy="-19" rx="18" ry="18"/>
</g>
<!-- 8&#45;&gt;9 -->
<g id="edge9" class="edge"><title>8&#45;&gt;9</title>
<path fill="none" stroke="black" d="M1069.12,-19C1087.96,-19 1118.53,-19 1140.7,-19"/>
<polygon fill="black" stroke="black" points="1140.81,-22.5001 1150.81,-19 1140.81,-15.5001 1140.81,-22.5001"/>
<text text-anchor="middle" x="1110" y="-22.8" font-family="Times,serif" font-size="14.00">u0002</text>
</g>
<!-- 10 -->
<g id="node11" class="node"><title>10</title>
<ellipse fill="none" stroke="black" cx="1287" cy="-49" rx="18" ry="18"/>
</g>
<!-- 9&#45;&gt;10 -->
<g id="edge10" class="edge"><title>9&#45;&gt;10</title>
<path fill="none" stroke="black" d="M1186.62,-23.2983C1205.66,-28.2216 1237.1,-36.3543 1259.52,-42.1525"/>
<polygon fill="black" stroke="black" points="1258.85,-45.5943 1269.41,-44.7097 1260.61,-38.8173 1258.85,-45.5943"/>
<text text-anchor="middle" x="1228" y="-42.8" font-family="Times,serif" font-size="14.00">u0004</text>
</g>
<!-- 11 -->
<g id="node20" class="node"><title>11</title>
<ellipse fill="none" stroke="black" cx="2363" cy="-22" rx="18" ry="18"/>
<ellipse fill="none" stroke="black" cx="2363" cy="-22" rx="22" ry="22"/>
</g>
<!-- 9&#45;&gt;11 -->
<g id="edge11" class="edge"><title>9&#45;&gt;11</title>
<path fill="none" stroke="black" d="M1186.81,-15.2082C1209.28,-10.4768 1250.42,-3 1286,-3 1286,-3 1286,-3 2242,-3 2272.68,-3 2307.25,-9.13531 2331.37,-14.4331"/>
<polygon fill="black" stroke="black" points="2330.82,-17.8974 2341.35,-16.7074 2332.37,-11.0724 2330.82,-17.8974"/>
<text text-anchor="middle" x="1764" y="-6.8" font-family="Times,serif" font-size="14.00">u0000</text>
</g>
<!-- 12 -->
<g id="node12" class="node"><title>12</title>
<ellipse fill="none" stroke="black" cx="1405" cy="-49" rx="18" ry="18"/>
</g>
<!-- 10&#45;&gt;12 -->
<g id="edge12" class="edge"><title>10&#45;&gt;12</title>
<path fill="none" stroke="black" d="M1305.12,-49C1323.96,-49 1354.53,-49 1376.7,-49"/>
<polygon fill="black" stroke="black" points="1376.81,-52.5001 1386.81,-49 1376.81,-45.5001 1376.81,-52.5001"/>
<text text-anchor="middle" x="1346" y="-52.8" font-family="Times,serif" font-size="14.00">u0008</text>
</g>
<!-- 13 -->
<g id="node13" class="node"><title>13</title>
<ellipse fill="none" stroke="black" cx="1523" cy="-49" rx="18" ry="18"/>
</g>
<!-- 12&#45;&gt;13 -->
<g id="edge13" class="edge"><title>12&#45;&gt;13</title>
<path fill="none" stroke="black" d="M1423.12,-49C1441.96,-49 1472.53,-49 1494.7,-49"/>
<polygon fill="black" stroke="black" points="1494.81,-52.5001 1504.81,-49 1494.81,-45.5001 1494.81,-52.5001"/>
<text text-anchor="middle" x="1464" y="-52.8" font-family="Times,serif" font-size="14.00">u0008</text>
</g>
<!-- 14 -->
<g id="node14" class="node"><title>14</title>
<ellipse fill="none" stroke="black" cx="1641" cy="-51" rx="18" ry="18"/>
</g>
<!-- 13&#45;&gt;14 -->
<g id="edge14" class="edge"><title>13&#45;&gt;14</title>
<path fill="none" stroke="black" d="M1541.12,-49.2951C1559.96,-49.6201 1590.53,-50.1471 1612.7,-50.5292"/>
<polygon fill="black" stroke="black" points="1612.75,-54.0307 1622.81,-50.7037 1612.88,-47.0317 1612.75,-54.0307"/>
<text text-anchor="middle" x="1582" y="-53.8" font-family="Times,serif" font-size="14.00">u0004</text>
</g>
<!-- 15 -->
<g id="node15" class="node"><title>15</title>
<ellipse fill="none" stroke="black" cx="1764" cy="-54" rx="18" ry="18"/>
</g>
<!-- 14&#45;&gt;15 -->
<g id="edge15" class="edge"><title>14&#45;&gt;15</title>
<path fill="none" stroke="black" d="M1659.08,-51.4235C1678.96,-51.9165 1712.08,-52.7375 1735.58,-53.3201"/>
<polygon fill="black" stroke="black" points="1735.53,-56.8199 1745.62,-53.569 1735.71,-49.8221 1735.53,-56.8199"/>
<text text-anchor="middle" x="1700" y="-55.8" font-family="Times,serif" font-size="14.00">u0004</text>
</g>
<!-- 16 -->
<g id="node16" class="node"><title>16</title>
<ellipse fill="none" stroke="black" cx="1887" cy="-51" rx="18" ry="18"/>
</g>
<!-- 15&#45;&gt;16 -->
<g id="edge16" class="edge"><title>15&#45;&gt;16</title>
<path fill="none" stroke="black" d="M1782.08,-53.5765C1801.96,-53.0835 1835.08,-52.2625 1858.58,-51.6799"/>
<polygon fill="black" stroke="black" points="1858.71,-55.1779 1868.62,-51.431 1858.53,-48.1801 1858.71,-55.1779"/>
<text text-anchor="middle" x="1828" y="-55.8" font-family="Times,serif" font-size="14.00">u0006</text>
</g>
<!-- 17 -->
<g id="node17" class="node"><title>17</title>
<ellipse fill="none" stroke="black" cx="2005" cy="-49" rx="18" ry="18"/>
</g>
<!-- 16&#45;&gt;17 -->
<g id="edge17" class="edge"><title>16&#45;&gt;17</title>
<path fill="none" stroke="black" d="M1905.12,-50.7049C1923.96,-50.3799 1954.53,-49.8529 1976.7,-49.4708"/>
<polygon fill="black" stroke="black" points="1976.88,-52.9683 1986.81,-49.2963 1976.75,-45.9693 1976.88,-52.9683"/>
<text text-anchor="middle" x="1946" y="-53.8" font-family="Times,serif" font-size="14.00">u0004</text>
</g>
<!-- 18 -->
<g id="node18" class="node"><title>18</title>
<ellipse fill="none" stroke="black" cx="2123" cy="-49" rx="18" ry="18"/>
</g>
<!-- 17&#45;&gt;18 -->
<g id="edge18" class="edge"><title>17&#45;&gt;18</title>
<path fill="none" stroke="black" d="M2023.12,-49C2041.96,-49 2072.53,-49 2094.7,-49"/>
<polygon fill="black" stroke="black" points="2094.81,-52.5001 2104.81,-49 2094.81,-45.5001 2094.81,-52.5001"/>
<text text-anchor="middle" x="2064" y="-52.8" font-family="Times,serif" font-size="14.00">u0008</text>
</g>
<!-- 19 -->
<g id="node19" class="node"><title>19</title>
<ellipse fill="none" stroke="black" cx="2241" cy="-49" rx="18" ry="18"/>
</g>
<!-- 18&#45;&gt;19 -->
<g id="edge19" class="edge"><title>18&#45;&gt;19</title>
<path fill="none" stroke="black" d="M2141.12,-49C2159.96,-49 2190.53,-49 2212.7,-49"/>
<polygon fill="black" stroke="black" points="2212.81,-52.5001 2222.81,-49 2212.81,-45.5001 2212.81,-52.5001"/>
<text text-anchor="middle" x="2182" y="-52.8" font-family="Times,serif" font-size="14.00">u0006</text>
</g>
<!-- 19&#45;&gt;11 -->
<g id="edge20" class="edge"><title>19&#45;&gt;11</title>
<path fill="none" stroke="black" d="M2258.69,-45.2458C2277.45,-41.0238 2308.32,-34.0787 2331.43,-28.8772"/>
<polygon fill="black" stroke="black" points="2332.45,-32.236 2341.44,-26.6261 2330.92,-25.4067 2332.45,-32.236"/>
<text text-anchor="middle" x="2300" y="-44.8" font-family="Times,serif" font-size="14.00">u0000</text>
</g>
<!-- initial -->
<g id="node21" class="node"><title>initial</title>
</g>
<!-- initial&#45;&gt;0 -->
<g id="edge21" class="edge"><title>initial&#45;&gt;0</title>
<path fill="none" stroke="black" d="M54.195,-19C62.6538,-19 72.0513,-19 80.5951,-19"/>
<polygon fill="black" stroke="black" points="80.8257,-22.5001 90.8257,-19 80.8257,-15.5001 80.8257,-22.5001"/>
</g>
</g>
</svg>
