<svg width="2775px" height="485px"
 viewBox="0.00 0.00 2081.00 364.00" xmlns="http://www.w3.org/2000/svg" xmlns:xlink="http://www.w3.org/1999/xlink">
<g id="graph0" class="graph" transform="scale(1.000022500562514 1.000022500562514) rotate(0) translate(4 360)">
<title>Automaton</title>
<polygon fill="white" stroke="none" points="-4,4 -4,-360 2077,-360 2077,4 -4,4"/>
<!-- 0 -->
<g id="node1" class="node"><title>0</title>
<ellipse fill="none" stroke="black" cx="109" cy="-107" rx="18" ry="18"/>
</g>
<!-- 1 -->
<g id="node2" class="node"><title>1</title>
<ellipse fill="none" stroke="black" cx="227" cy="-107" rx="18" ry="18"/>
</g>
<!-- 0&#45;&gt;1 -->
<g id="edge1" class="edge"><title>0&#45;&gt;1</title>
<path fill="none" stroke="black" d="M127.116,-107C145.964,-107 176.531,-107 198.696,-107"/>
<polygon fill="black" stroke="black" points="198.814,-110.5 208.814,-107 198.814,-103.5 198.814,-110.5"/>
<text text-anchor="middle" x="168" y="-110.8" font-family="Times,serif" font-size="14.00">u0005</text>
</g>
<!-- 2 -->
<g id="node3" class="node"><title>2</title>
<ellipse fill="none" stroke="black" cx="345" cy="-107" rx="18" ry="18"/>
</g>
<!-- 1&#45;&gt;2 -->
<g id="edge2" class="edge"><title>1&#45;&gt;2</title>
<path fill="none" stroke="black" d="M245.116,-107C263.964,-107 294.531,-107 316.696,-107"/>
<polygon fill="black" stroke="black" points="316.814,-110.5 326.814,-107 316.814,-103.5 316.814,-110.5"/>
<text text-anchor="middle" x="286" y="-110.8" font-family="Times,serif" font-size="14.00">u0002</text>
</g>
<!-- 3 -->
<g id="node4" class="node"><title>3</title>
<ellipse fill="none" stroke="black" cx="463" cy="-197" rx="18" ry="18"/>
</g>
<!-- 2&#45;&gt;3 -->
<g id="edge3" class="edge"><title>2&#45;&gt;3</title>
<path fill="none" stroke="black" d="M359.762,-117.678C379.646,-133.104 416.606,-161.781 440.217,-180.1"/>
<polygon fill="black" stroke="black" points="438.209,-182.972 448.256,-186.336 442.5,-177.441 438.209,-182.972"/>
<text text-anchor="middle" x="404" y="-170.8" font-family="Times,serif" font-size="14.00">u0002</text>
</g>
<!-- 4 -->
<g id="node21" class="node"><title>4</title>
<ellipse fill="none" stroke="black" cx="522" cy="-88" rx="18" ry="18"/>
</g>
<!-- 2&#45;&gt;4 -->
<g id="edge4" class="edge"><title>2&#45;&gt;4</title>
<path fill="none" stroke="black" d="M363.098,-105.144C393.496,-101.843 457.17,-94.9301 493.694,-90.9647"/>
<polygon fill="black" stroke="black" points="494.526,-94.395 504.09,-89.836 493.77,-87.4359 494.526,-94.395"/>
<text text-anchor="middle" x="404" y="-106.8" font-family="Times,serif" font-size="14.00">u0000</text>
</g>
<!-- 5 -->
<g id="node5" class="node"><title>5</title>
<ellipse fill="none" stroke="black" cx="586" cy="-248" rx="18" ry="18"/>
</g>
<!-- 3&#45;&gt;5 -->
<g id="edge5" class="edge"><title>3&#45;&gt;5</title>
<path fill="none" stroke="black" d="M479.819,-203.667C500.2,-212.258 535.867,-227.291 559.952,-237.443"/>
<polygon fill="black" stroke="black" points="558.603,-240.672 569.177,-241.331 561.322,-234.222 558.603,-240.672"/>
<text text-anchor="middle" x="522" y="-233.8" font-family="Times,serif" font-size="14.00">u0002</text>
</g>
<!-- 6 -->
<g id="node20" class="node"><title>6</title>
<ellipse fill="none" stroke="black" cx="709" cy="-235" rx="18" ry="18"/>
</g>
<!-- 3&#45;&gt;6 -->
<g id="edge6" class="edge"><title>3&#45;&gt;6</title>
<path fill="none" stroke="black" d="M481.11,-196.834C508.38,-196.845 563.288,-197.99 609,-206 634.388,-210.449 662.518,-219.061 682.284,-225.749"/>
<polygon fill="black" stroke="black" points="681.205,-229.079 691.8,-229.039 683.492,-222.463 681.205,-229.079"/>
<text text-anchor="middle" x="586" y="-209.8" font-family="Times,serif" font-size="14.00">u0000</text>
</g>
<!-- 8 -->
<g id="node6" class="node"><title>8</title>
<ellipse fill="none" stroke="black" cx="709" cy="-289" rx="18" ry="18"/>
</g>
<!-- 5&#45;&gt;8 -->
<g id="edge7" class="edge"><title>5&#45;&gt;8</title>
<path fill="none" stroke="black" d="M603.329,-253.777C610.571,-256.323 619.202,-259.336 627,-262 645.296,-268.251 665.974,-275.141 681.859,-280.396"/>
<polygon fill="black" stroke="black" points="680.938,-283.778 691.531,-283.59 683.133,-277.131 680.938,-283.778"/>
<text text-anchor="middle" x="650" y="-279.8" font-family="Times,serif" font-size="14.00">u0002</text>
</g>
<!-- 5&#45;&gt;6 -->
<g id="edge8" class="edge"><title>5&#45;&gt;6</title>
<path fill="none" stroke="black" d="M604.08,-246.165C624.078,-244.016 657.454,-240.431 680.976,-237.903"/>
<polygon fill="black" stroke="black" points="681.438,-241.374 691.007,-236.826 680.69,-234.414 681.438,-241.374"/>
<text text-anchor="middle" x="650" y="-246.8" font-family="Times,serif" font-size="14.00">u0000</text>
</g>
<!-- 12 -->
<g id="node7" class="node"><title>12</title>
<ellipse fill="none" stroke="black" cx="827" cy="-333" rx="18" ry="18"/>
</g>
<!-- 8&#45;&gt;12 -->
<g id="edge9" class="edge"><title>8&#45;&gt;12</title>
<path fill="none" stroke="black" d="M725.483,-297.059C731.498,-300.046 738.494,-303.349 745,-306 763.017,-313.342 783.851,-320.253 799.877,-325.244"/>
<polygon fill="black" stroke="black" points="799.05,-328.651 809.637,-328.233 801.1,-321.958 799.05,-328.651"/>
<text text-anchor="middle" x="768" y="-325.8" font-family="Times,serif" font-size="14.00">u0002</text>
</g>
<!-- 13 -->
<g id="node18" class="node"><title>13</title>
<ellipse fill="none" stroke="black" cx="886" cy="-287" rx="18" ry="18"/>
</g>
<!-- 8&#45;&gt;13 -->
<g id="edge10" class="edge"><title>8&#45;&gt;13</title>
<path fill="none" stroke="black" d="M727.081,-287.828C732.778,-287.49 739.16,-287.167 745,-287 784.036,-285.886 829.22,-286.17 857.458,-286.536"/>
<polygon fill="black" stroke="black" points="857.704,-290.04 867.753,-286.684 857.804,-283.041 857.704,-290.04"/>
<text text-anchor="middle" x="768" y="-290.8" font-family="Times,serif" font-size="14.00">u0000</text>
</g>
<!-- 15 -->
<g id="node8" class="node"><title>15</title>
<ellipse fill="none" stroke="black" cx="945" cy="-333" rx="18" ry="18"/>
</g>
<!-- 12&#45;&gt;15 -->
<g id="edge11" class="edge"><title>12&#45;&gt;15</title>
<path fill="none" stroke="black" d="M845.116,-333C863.964,-333 894.531,-333 916.696,-333"/>
<polygon fill="black" stroke="black" points="916.814,-336.5 926.814,-333 916.814,-329.5 916.814,-336.5"/>
<text text-anchor="middle" x="886" y="-336.8" font-family="Times,serif" font-size="14.00">u0000</text>
</g>
<!-- 18 -->
<g id="node9" class="node"><title>18</title>
<ellipse fill="none" stroke="black" cx="1063" cy="-333" rx="18" ry="18"/>
</g>
<!-- 15&#45;&gt;18 -->
<g id="edge12" class="edge"><title>15&#45;&gt;18</title>
<path fill="none" stroke="black" d="M963.116,-333C981.964,-333 1012.53,-333 1034.7,-333"/>
<polygon fill="black" stroke="black" points="1034.81,-336.5 1044.81,-333 1034.81,-329.5 1034.81,-336.5"/>
<text text-anchor="middle" x="1004" y="-336.8" font-family="Times,serif" font-size="14.00">u0004</text>
</g>
<!-- 19 -->
<g id="node10" class="node"><title>19</title>
<ellipse fill="none" stroke="black" cx="1181" cy="-335" rx="18" ry="18"/>
</g>
<!-- 18&#45;&gt;19 -->
<g id="edge13" class="edge"><title>18&#45;&gt;19</title>
<path fill="none" stroke="black" d="M1081.12,-333.295C1099.96,-333.62 1130.53,-334.147 1152.7,-334.529"/>
<polygon fill="black" stroke="black" points="1152.75,-338.031 1162.81,-334.704 1152.88,-331.032 1152.75,-338.031"/>
<text text-anchor="middle" x="1122" y="-337.8" font-family="Times,serif" font-size="14.00">u0001</text>
</g>
<!-- 20 -->
<g id="node11" class="node"><title>20</title>
<ellipse fill="none" stroke="black" cx="1304" cy="-338" rx="18" ry="18"/>
</g>
<!-- 19&#45;&gt;20 -->
<g id="edge14" class="edge"><title>19&#45;&gt;20</title>
<path fill="none" stroke="black" d="M1199.08,-335.423C1218.96,-335.916 1252.08,-336.737 1275.58,-337.32"/>
<polygon fill="black" stroke="black" points="1275.53,-340.82 1285.62,-337.569 1275.71,-333.822 1275.53,-340.82"/>
<text text-anchor="middle" x="1240" y="-339.8" font-family="Times,serif" font-size="14.00">u0001</text>
</g>
<!-- 21 -->
<g id="node12" class="node"><title>21</title>
<ellipse fill="none" stroke="black" cx="1427" cy="-335" rx="18" ry="18"/>
</g>
<!-- 20&#45;&gt;21 -->
<g id="edge15" class="edge"><title>20&#45;&gt;21</title>
<path fill="none" stroke="black" d="M1322.08,-337.577C1341.96,-337.084 1375.08,-336.263 1398.58,-335.68"/>
<polygon fill="black" stroke="black" points="1398.71,-339.178 1408.62,-335.431 1398.53,-332.18 1398.71,-339.178"/>
<text text-anchor="middle" x="1368" y="-339.8" font-family="Times,serif" font-size="14.00">u0001</text>
</g>
<!-- 22 -->
<g id="node13" class="node"><title>22</title>
<ellipse fill="none" stroke="black" cx="1545" cy="-333" rx="18" ry="18"/>
</g>
<!-- 21&#45;&gt;22 -->
<g id="edge16" class="edge"><title>21&#45;&gt;22</title>
<path fill="none" stroke="black" d="M1445.12,-334.705C1463.96,-334.38 1494.53,-333.853 1516.7,-333.471"/>
<polygon fill="black" stroke="black" points="1516.88,-336.968 1526.81,-333.296 1516.75,-329.969 1516.88,-336.968"/>
<text text-anchor="middle" x="1486" y="-337.8" font-family="Times,serif" font-size="14.00">u0001</text>
</g>
<!-- 23 -->
<g id="node14" class="node"><title>23</title>
<ellipse fill="none" stroke="black" cx="1668" cy="-333" rx="18" ry="18"/>
</g>
<!-- 22&#45;&gt;23 -->
<g id="edge17" class="edge"><title>22&#45;&gt;23</title>
<path fill="none" stroke="black" d="M1563.08,-333C1582.96,-333 1616.08,-333 1639.58,-333"/>
<polygon fill="black" stroke="black" points="1639.62,-336.5 1649.62,-333 1639.62,-329.5 1639.62,-336.5"/>
<text text-anchor="middle" x="1604" y="-336.8" font-family="Times,serif" font-size="14.00">u0001</text>
</g>
<!-- 24 -->
<g id="node15" class="node"><title>24</title>
<ellipse fill="none" stroke="black" cx="1796" cy="-304" rx="18" ry="18"/>
</g>
<!-- 23&#45;&gt;24 -->
<g id="edge18" class="edge"><title>23&#45;&gt;24</title>
<path fill="none" stroke="black" d="M1685.73,-329.149C1706.82,-324.296 1743.32,-315.895 1768.28,-310.149"/>
<polygon fill="black" stroke="black" points="1769.24,-313.521 1778.2,-307.867 1767.67,-306.699 1769.24,-313.521"/>
<text text-anchor="middle" x="1732" y="-326.8" font-family="Times,serif" font-size="14.00">u0001</text>
</g>
<!-- 9 -->
<g id="node16" class="node"><title>9</title>
<ellipse fill="none" stroke="black" cx="1924" cy="-230" rx="18" ry="18"/>
</g>
<!-- 24&#45;&gt;9 -->
<g id="edge19" class="edge"><title>24&#45;&gt;9</title>
<path fill="none" stroke="black" d="M1811.95,-295.221C1833.55,-282.536 1873.69,-258.958 1899.34,-243.896"/>
<polygon fill="black" stroke="black" points="1901.22,-246.85 1908.07,-238.768 1897.68,-240.814 1901.22,-246.85"/>
<text text-anchor="middle" x="1860" y="-283.8" font-family="Times,serif" font-size="14.00">u0001</text>
</g>
<!-- 10 -->
<g id="node17" class="node"><title>10</title>
<ellipse fill="none" stroke="black" cx="2051" cy="-108" rx="18" ry="18"/>
<ellipse fill="none" stroke="black" cx="2051" cy="-108" rx="22" ry="22"/>
</g>
<!-- 9&#45;&gt;10 -->
<g id="edge20" class="edge"><title>9&#45;&gt;10</title>
<path fill="none" stroke="black" d="M1941.49,-225.298C1960.36,-219.186 1991.22,-206.88 2011,-187 2024.4,-173.531 2033.98,-154.533 2040.29,-138.542"/>
<polygon fill="black" stroke="black" points="2043.61,-139.644 2043.8,-129.051 2037.05,-137.215 2043.61,-139.644"/>
<text text-anchor="middle" x="1988" y="-219.8" font-family="Times,serif" font-size="14.00">u0003</text>
</g>
<!-- 16 -->
<g id="node19" class="node"><title>16</title>
<ellipse fill="none" stroke="black" cx="1796" cy="-184" rx="18" ry="18"/>
</g>
<!-- 13&#45;&gt;16 -->
<g id="edge21" class="edge"><title>13&#45;&gt;16</title>
<path fill="none" stroke="black" d="M904.295,-287C926.962,-287 967.958,-287 1003,-287 1003,-287 1003,-287 1669,-287 1718.89,-287 1759.9,-238 1780.55,-207.594"/>
<polygon fill="black" stroke="black" points="1783.49,-209.479 1786.05,-199.198 1777.64,-205.64 1783.49,-209.479"/>
<text text-anchor="middle" x="1304" y="-290.8" font-family="Times,serif" font-size="14.00">u0004</text>
</g>
<!-- 16&#45;&gt;9 -->
<g id="edge23" class="edge"><title>16&#45;&gt;9</title>
<path fill="none" stroke="black" d="M1813.91,-187.161C1831.57,-190.772 1859.86,-197.444 1883,-207 1888.69,-209.35 1894.57,-212.363 1900.02,-215.428"/>
<polygon fill="black" stroke="black" points="1898.26,-218.457 1908.65,-220.529 1901.82,-212.43 1898.26,-218.457"/>
<text text-anchor="middle" x="1860" y="-210.8" font-family="Times,serif" font-size="14.00">u0001</text>
</g>
<!-- 16&#45;&gt;10 -->
<g id="edge22" class="edge"><title>16&#45;&gt;10</title>
<path fill="none" stroke="black" d="M1814.01,-183.435C1851.45,-181.599 1943.1,-173.82 2011,-141 2016.87,-138.163 2022.58,-134.235 2027.75,-130.076"/>
<polygon fill="black" stroke="black" points="2030.09,-132.672 2035.35,-123.474 2025.51,-127.386 2030.09,-132.672"/>
<text text-anchor="middle" x="1924" y="-176.8" font-family="Times,serif" font-size="14.00">u0003</text>
</g>
<!-- 6&#45;&gt;9 -->
<g id="edge24" class="edge"><title>6&#45;&gt;9</title>
<path fill="none" stroke="black" d="M727.294,-235.242C749.961,-235.538 790.957,-236 826,-236 826,-236 826,-236 1797,-236 1831.11,-236 1870.35,-233.779 1895.86,-232.04"/>
<polygon fill="black" stroke="black" points="1896.16,-235.527 1905.89,-231.332 1895.67,-228.544 1896.16,-235.527"/>
<text text-anchor="middle" x="1304" y="-239.8" font-family="Times,serif" font-size="14.00">u0004</text>
</g>
<!-- 7 -->
<g id="node22" class="node"><title>7</title>
<ellipse fill="none" stroke="black" cx="1304" cy="-67" rx="18" ry="18"/>
</g>
<!-- 4&#45;&gt;7 -->
<g id="edge25" class="edge"><title>4&#45;&gt;7</title>
<path fill="none" stroke="black" d="M540.119,-88C564.357,-88 610.062,-88 649,-88 649,-88 649,-88 1182,-88 1214.87,-88 1252.04,-80.3824 1276.4,-74.3231"/>
<polygon fill="black" stroke="black" points="1277.52,-77.6513 1286.32,-71.7652 1275.77,-70.873 1277.52,-77.6513"/>
<text text-anchor="middle" x="886" y="-91.8" font-family="Times,serif" font-size="14.00">u0004</text>
</g>
<!-- 7&#45;&gt;10 -->
<g id="edge26" class="edge"><title>7&#45;&gt;10</title>
<path fill="none" stroke="black" d="M1317.18,-54.7112C1337.7,-35.3688 1381.34,-0 1426,-0 1426,-0 1426,-0 1925,-0 1968.77,-0 1979.02,-18.107 2011,-48 2020.64,-57.0147 2029,-68.8819 2035.48,-79.681"/>
<polygon fill="black" stroke="black" points="2032.46,-81.4654 2040.46,-88.415 2038.54,-77.9952 2032.46,-81.4654"/>
<text text-anchor="middle" x="1668" y="-3.8" font-family="Times,serif" font-size="14.00">u0003</text>
</g>
<!-- 11 -->
<g id="node23" class="node"><title>11</title>
<ellipse fill="none" stroke="black" cx="1427" cy="-67" rx="18" ry="18"/>
</g>
<!-- 7&#45;&gt;11 -->
<g id="edge27" class="edge"><title>7&#45;&gt;11</title>
<path fill="none" stroke="black" d="M1322.08,-67C1341.96,-67 1375.08,-67 1398.58,-67"/>
<polygon fill="black" stroke="black" points="1398.62,-70.5001 1408.62,-67 1398.62,-63.5001 1398.62,-70.5001"/>
<text text-anchor="middle" x="1368" y="-70.8" font-family="Times,serif" font-size="14.00">u0001</text>
</g>
<!-- 11&#45;&gt;10 -->
<g id="edge28" class="edge"><title>11&#45;&gt;10</title>
<path fill="none" stroke="black" d="M1444.3,-61.4336C1466.55,-54.3438 1507.8,-43 1544,-43 1544,-43 1544,-43 1925,-43 1963.95,-43 2002.8,-68.1457 2026.61,-87.157"/>
<polygon fill="black" stroke="black" points="2024.45,-89.9051 2034.38,-93.5744 2028.9,-84.5078 2024.45,-89.9051"/>
<text text-anchor="middle" x="1732" y="-46.8" font-family="Times,serif" font-size="14.00">u0003</text>
</g>
<!-- 14 -->
<g id="node24" class="node"><title>14</title>
<ellipse fill="none" stroke="black" cx="1545" cy="-89" rx="18" ry="18"/>
</g>
<!-- 11&#45;&gt;14 -->
<g id="edge29" class="edge"><title>11&#45;&gt;14</title>
<path fill="none" stroke="black" d="M1445.12,-70.2462C1464.07,-73.8413 1494.88,-79.6846 1517.08,-83.8939"/>
<polygon fill="black" stroke="black" points="1516.71,-87.3873 1527.19,-85.812 1518.02,-80.5099 1516.71,-87.3873"/>
<text text-anchor="middle" x="1486" y="-85.8" font-family="Times,serif" font-size="14.00">u0001</text>
</g>
<!-- 14&#45;&gt;10 -->
<g id="edge30" class="edge"><title>14&#45;&gt;10</title>
<path fill="none" stroke="black" d="M1563.23,-89C1586.7,-89 1630.03,-89 1667,-89 1667,-89 1667,-89 1925,-89 1957.46,-89 1994.13,-95.3396 2019.31,-100.695"/>
<polygon fill="black" stroke="black" points="2018.84,-104.174 2029.36,-102.908 2020.34,-97.3382 2018.84,-104.174"/>
<text text-anchor="middle" x="1796" y="-92.8" font-family="Times,serif" font-size="14.00">u0003</text>
</g>
<!-- 17 -->
<g id="node25" class="node"><title>17</title>
<ellipse fill="none" stroke="black" cx="1668" cy="-135" rx="18" ry="18"/>
</g>
<!-- 14&#45;&gt;17 -->
<g id="edge31" class="edge"><title>14&#45;&gt;17</title>
<path fill="none" stroke="black" d="M1562,-95.4939C1567.95,-97.8855 1574.77,-100.596 1581,-103 1601.06,-110.743 1623.88,-119.218 1640.96,-125.499"/>
<polygon fill="black" stroke="black" points="1640.19,-128.945 1650.79,-129.101 1642.6,-122.372 1640.19,-128.945"/>
<text text-anchor="middle" x="1604" y="-122.8" font-family="Times,serif" font-size="14.00">u0001</text>
</g>
<!-- 17&#45;&gt;10 -->
<g id="edge32" class="edge"><title>17&#45;&gt;10</title>
<path fill="none" stroke="black" d="M1686.36,-133.77C1745.87,-129.553 1942.15,-115.643 2018.87,-110.206"/>
<polygon fill="black" stroke="black" points="2019.15,-113.695 2028.88,-109.497 2018.66,-106.712 2019.15,-113.695"/>
<text text-anchor="middle" x="1860" y="-126.8" font-family="Times,serif" font-size="14.00">u0003</text>
</g>
<!-- 17&#45;&gt;16 -->
<g id="edge33" class="edge"><title>17&#45;&gt;16</title>
<path fill="none" stroke="black" d="M1684.96,-141.206C1706.24,-149.481 1744.15,-164.226 1769.44,-174.06"/>
<polygon fill="black" stroke="black" points="1768.18,-177.327 1778.77,-177.69 1770.72,-170.803 1768.18,-177.327"/>
<text text-anchor="middle" x="1732" y="-171.8" font-family="Times,serif" font-size="14.00">u0001</text>
</g>
<!-- initial -->
<g id="node26" class="node"><title>initial</title>
</g>
<!-- initial&#45;&gt;0 -->
<g id="edge34" class="edge"><title>initial&#45;&gt;0</title>
<path fill="none" stroke="black" d="M54.195,-107C62.6538,-107 72.0513,-107 80.5951,-107"/>
<polygon fill="black" stroke="black" points="80.8257,-110.5 90.8257,-107 80.8257,-103.5 80.8257,-110.5"/>
</g>
</g>
</svg>
