<svg width="2460px" height="697px"
 viewBox="0.00 0.00 1845.00 523.00" xmlns="http://www.w3.org/2000/svg" xmlns:xlink="http://www.w3.org/1999/xlink">
<g id="graph0" class="graph" transform="scale(1.000022500562514 1.000022500562514) rotate(0) translate(4 519)">
<title>Automaton</title>
<polygon fill="white" stroke="none" points="-4,4 -4,-519 1841,-519 1841,4 -4,4"/>
<!-- 0 -->
<g id="node1" class="node"><title>0</title>
<ellipse fill="none" stroke="black" cx="109" cy="-392" rx="18" ry="18"/>
</g>
<!-- 1 -->
<g id="node2" class="node"><title>1</title>
<ellipse fill="none" stroke="black" cx="227" cy="-392" rx="18" ry="18"/>
</g>
<!-- 0&#45;&gt;1 -->
<g id="edge1" class="edge"><title>0&#45;&gt;1</title>
<path fill="none" stroke="black" d="M127.116,-392C145.964,-392 176.531,-392 198.696,-392"/>
<polygon fill="black" stroke="black" points="198.814,-395.5 208.814,-392 198.814,-388.5 198.814,-395.5"/>
<text text-anchor="middle" x="168" y="-395.8" font-family="Times,serif" font-size="14.00">u0000</text>
</g>
<!-- 2 -->
<g id="node3" class="node"><title>2</title>
<ellipse fill="none" stroke="black" cx="345" cy="-392" rx="18" ry="18"/>
</g>
<!-- 1&#45;&gt;2 -->
<g id="edge2" class="edge"><title>1&#45;&gt;2</title>
<path fill="none" stroke="black" d="M245.116,-392C263.964,-392 294.531,-392 316.696,-392"/>
<polygon fill="black" stroke="black" points="316.814,-395.5 326.814,-392 316.814,-388.5 316.814,-395.5"/>
<text text-anchor="middle" x="286" y="-395.8" font-family="Times,serif" font-size="14.00">u0001</text>
</g>
<!-- 3 -->
<g id="node4" class="node"><title>3</title>
<ellipse fill="none" stroke="black" cx="463" cy="-392" rx="18" ry="18"/>
</g>
<!-- 2&#45;&gt;3 -->
<g id="edge3" class="edge"><title>2&#45;&gt;3</title>
<path fill="none" stroke="black" d="M363.116,-392C381.964,-392 412.531,-392 434.696,-392"/>
<polygon fill="black" stroke="black" points="434.814,-395.5 444.814,-392 434.814,-388.5 434.814,-395.5"/>
<text text-anchor="middle" x="404" y="-395.8" font-family="Times,serif" font-size="14.00">u0004</text>
</g>
<!-- 4 -->
<g id="node10" class="node"><title>4</title>
<ellipse fill="none" stroke="black" cx="1693" cy="-305" rx="18" ry="18"/>
</g>
<!-- 2&#45;&gt;4 -->
<g id="edge4" class="edge"><title>2&#45;&gt;4</title>
<path fill="none" stroke="black" d="M353.723,-407.936C369.527,-437.978 408.619,-500 462,-500 462,-500 462,-500 1576,-500 1652.81,-500 1679.91,-386.858 1688.46,-332.939"/>
<polygon fill="black" stroke="black" points="1691.93,-333.4 1689.94,-322.996 1685.01,-332.375 1691.93,-333.4"/>
<text text-anchor="middle" x="1014" y="-503.8" font-family="Times,serif" font-size="14.00">u0003</text>
</g>
<!-- 5 -->
<g id="node17" class="node"><title>5</title>
<ellipse fill="none" stroke="black" cx="463" cy="-112" rx="18" ry="18"/>
</g>
<!-- 2&#45;&gt;5 -->
<g id="edge5" class="edge"><title>2&#45;&gt;5</title>
<path fill="none" stroke="black" d="M352.738,-375.736C372.079,-329.051 427.884,-194.349 451.376,-137.644"/>
<polygon fill="black" stroke="black" points="454.649,-138.887 455.243,-128.309 448.182,-136.208 454.649,-138.887"/>
<text text-anchor="middle" x="404" y="-305.8" font-family="Times,serif" font-size="14.00">u0005</text>
</g>
<!-- 6 -->
<g id="node5" class="node"><title>6</title>
<ellipse fill="none" stroke="black" cx="581" cy="-392" rx="18" ry="18"/>
</g>
<!-- 3&#45;&gt;6 -->
<g id="edge6" class="edge"><title>3&#45;&gt;6</title>
<path fill="none" stroke="black" d="M481.116,-392C499.964,-392 530.531,-392 552.696,-392"/>
<polygon fill="black" stroke="black" points="552.814,-395.5 562.814,-392 552.814,-388.5 552.814,-395.5"/>
<text text-anchor="middle" x="522" y="-395.8" font-family="Times,serif" font-size="14.00">u0004</text>
</g>
<!-- 7 -->
<g id="node8" class="node"><title>7</title>
<ellipse fill="none" stroke="black" cx="1452" cy="-261" rx="18" ry="18"/>
</g>
<!-- 3&#45;&gt;7 -->
<g id="edge8" class="edge"><title>3&#45;&gt;7</title>
<path fill="none" stroke="black" d="M468.2,-374.634C479.088,-334.359 512.219,-238 580,-238 580,-238 580,-238 887,-238 1119.9,-238 1183.05,-196.21 1411,-244 1416.22,-245.094 1421.61,-246.881 1426.67,-248.893"/>
<polygon fill="black" stroke="black" points="1425.32,-252.121 1435.88,-252.92 1428.12,-245.707 1425.32,-252.121"/>
<text text-anchor="middle" x="950" y="-241.8" font-family="Times,serif" font-size="14.00">u0005</text>
</g>
<!-- 3&#45;&gt;4 -->
<g id="edge7" class="edge"><title>3&#45;&gt;4</title>
<path fill="none" stroke="black" d="M476.286,-404.533C496.181,-423.421 537.523,-457 580,-457 580,-457 580,-457 1576,-457 1620.54,-457 1630.02,-433.439 1657,-398 1671.79,-378.568 1680.93,-352.19 1686.14,-332.489"/>
<polygon fill="black" stroke="black" points="1689.58,-333.141 1688.58,-322.593 1682.79,-331.465 1689.58,-333.141"/>
<text text-anchor="middle" x="1078" y="-460.8" font-family="Times,serif" font-size="14.00">u0003</text>
</g>
<!-- 11 -->
<g id="node6" class="node"><title>11</title>
<ellipse fill="none" stroke="black" cx="699" cy="-365" rx="18" ry="18"/>
</g>
<!-- 6&#45;&gt;11 -->
<g id="edge9" class="edge"><title>6&#45;&gt;11</title>
<path fill="none" stroke="black" d="M598.317,-387.077C604.183,-385.376 610.865,-383.518 617,-382 634.906,-377.569 655.222,-373.307 671.029,-370.159"/>
<polygon fill="black" stroke="black" points="672.028,-373.53 681.166,-368.169 670.679,-366.661 672.028,-373.53"/>
<text text-anchor="middle" x="640" y="-385.8" font-family="Times,serif" font-size="14.00">u0004</text>
</g>
<!-- 6&#45;&gt;4 -->
<g id="edge10" class="edge"><title>6&#45;&gt;4</title>
<path fill="none" stroke="black" d="M598.764,-396.503C621.194,-402.121 662.287,-411 698,-411 698,-411 698,-411 1576,-411 1623.72,-411 1660.38,-361.519 1678.82,-330.171"/>
<polygon fill="black" stroke="black" points="1682.07,-331.527 1683.95,-321.099 1675.98,-328.081 1682.07,-331.527"/>
<text text-anchor="middle" x="1142" y="-414.8" font-family="Times,serif" font-size="14.00">u0003</text>
</g>
<!-- 15 -->
<g id="node7" class="node"><title>15</title>
<ellipse fill="none" stroke="black" cx="822" cy="-365" rx="18" ry="18"/>
</g>
<!-- 11&#45;&gt;15 -->
<g id="edge11" class="edge"><title>11&#45;&gt;15</title>
<path fill="none" stroke="black" d="M717.08,-365C736.965,-365 770.077,-365 793.577,-365"/>
<polygon fill="black" stroke="black" points="793.615,-368.5 803.615,-365 793.615,-361.5 793.615,-368.5"/>
<text text-anchor="middle" x="758" y="-368.8" font-family="Times,serif" font-size="14.00">u0004</text>
</g>
<!-- 15&#45;&gt;7 -->
<g id="edge12" class="edge"><title>15&#45;&gt;7</title>
<path fill="none" stroke="black" d="M840.097,-366.775C864.309,-369.132 909.984,-373 949,-373 949,-373 949,-373 1325,-373 1377.21,-373 1417.84,-318.615 1437.68,-285.64"/>
<polygon fill="black" stroke="black" points="1440.94,-286.98 1442.93,-276.573 1434.89,-283.468 1440.94,-286.98"/>
<text text-anchor="middle" x="1142" y="-376.8" font-family="Times,serif" font-size="14.00">u0004</text>
</g>
<!-- 18 -->
<g id="node12" class="node"><title>18</title>
<ellipse fill="none" stroke="black" cx="950" cy="-327" rx="18" ry="18"/>
</g>
<!-- 15&#45;&gt;18 -->
<g id="edge13" class="edge"><title>15&#45;&gt;18</title>
<path fill="none" stroke="black" d="M837.731,-355.957C845.092,-351.783 854.273,-347.08 863,-344 882.135,-337.246 904.666,-332.916 921.865,-330.317"/>
<polygon fill="black" stroke="black" points="922.393,-333.777 931.806,-328.916 921.416,-326.846 922.393,-333.777"/>
<text text-anchor="middle" x="886" y="-347.8" font-family="Times,serif" font-size="14.00">u0005</text>
</g>
<!-- 12 -->
<g id="node9" class="node"><title>12</title>
<ellipse fill="none" stroke="black" cx="1575" cy="-261" rx="18" ry="18"/>
</g>
<!-- 7&#45;&gt;12 -->
<g id="edge14" class="edge"><title>7&#45;&gt;12</title>
<path fill="none" stroke="black" d="M1470.08,-261C1489.96,-261 1523.08,-261 1546.58,-261"/>
<polygon fill="black" stroke="black" points="1546.62,-264.5 1556.62,-261 1546.62,-257.5 1546.62,-264.5"/>
<text text-anchor="middle" x="1516" y="-264.8" font-family="Times,serif" font-size="14.00">u0004</text>
</g>
<!-- 12&#45;&gt;4 -->
<g id="edge15" class="edge"><title>12&#45;&gt;4</title>
<path fill="none" stroke="black" d="M1592.13,-267.118C1611.35,-274.408 1643.7,-286.679 1666.36,-295.275"/>
<polygon fill="black" stroke="black" points="1665.42,-298.66 1676.01,-298.934 1667.9,-292.115 1665.42,-298.66"/>
<text text-anchor="middle" x="1634" y="-294.8" font-family="Times,serif" font-size="14.00">u0003</text>
</g>
<!-- 8 -->
<g id="node11" class="node"><title>8</title>
<ellipse fill="none" stroke="black" cx="1815" cy="-305" rx="18" ry="18"/>
<ellipse fill="none" stroke="black" cx="1815" cy="-305" rx="22" ry="22"/>
</g>
<!-- 4&#45;&gt;8 -->
<g id="edge16" class="edge"><title>4&#45;&gt;8</title>
<path fill="none" stroke="black" d="M1711.19,-305C1729.77,-305 1759.76,-305 1782.57,-305"/>
<polygon fill="black" stroke="black" points="1782.79,-308.5 1792.79,-305 1782.79,-301.5 1782.79,-308.5"/>
<text text-anchor="middle" x="1752" y="-308.8" font-family="Times,serif" font-size="14.00">u0002</text>
</g>
<!-- 18&#45;&gt;4 -->
<g id="edge18" class="edge"><title>18&#45;&gt;4</title>
<path fill="none" stroke="black" d="M968.116,-327.666C992.35,-328.55 1038.05,-330 1077,-330 1077,-330 1077,-330 1576,-330 1607.44,-330 1642.63,-321.114 1665.91,-313.937"/>
<polygon fill="black" stroke="black" points="1667.26,-317.18 1675.72,-310.798 1665.13,-310.514 1667.26,-317.18"/>
<text text-anchor="middle" x="1324" y="-333.8" font-family="Times,serif" font-size="14.00">u0003</text>
</g>
<!-- 20 -->
<g id="node13" class="node"><title>20</title>
<ellipse fill="none" stroke="black" cx="1078" cy="-282" rx="18" ry="18"/>
</g>
<!-- 18&#45;&gt;20 -->
<g id="edge17" class="edge"><title>18&#45;&gt;20</title>
<path fill="none" stroke="black" d="M964.745,-316.297C972.16,-310.994 981.681,-304.906 991,-301 1009.92,-293.07 1032.63,-288.234 1049.96,-285.426"/>
<polygon fill="black" stroke="black" points="1050.6,-288.869 1059.97,-283.931 1049.56,-281.946 1050.6,-288.869"/>
<text text-anchor="middle" x="1014" y="-304.8" font-family="Times,serif" font-size="14.00">u0004</text>
</g>
<!-- 22 -->
<g id="node14" class="node"><title>22</title>
<ellipse fill="none" stroke="black" cx="1201" cy="-277" rx="18" ry="18"/>
</g>
<!-- 20&#45;&gt;22 -->
<g id="edge19" class="edge"><title>20&#45;&gt;22</title>
<path fill="none" stroke="black" d="M1096.08,-281.294C1116.08,-280.468 1149.45,-279.089 1172.98,-278.117"/>
<polygon fill="black" stroke="black" points="1173.16,-281.612 1183.01,-277.702 1172.87,-274.618 1173.16,-281.612"/>
<text text-anchor="middle" x="1142" y="-284.8" font-family="Times,serif" font-size="14.00">u0004</text>
</g>
<!-- 24 -->
<g id="node15" class="node"><title>24</title>
<ellipse fill="none" stroke="black" cx="1324" cy="-276" rx="18" ry="18"/>
</g>
<!-- 22&#45;&gt;24 -->
<g id="edge20" class="edge"><title>22&#45;&gt;24</title>
<path fill="none" stroke="black" d="M1219.08,-276.859C1238.96,-276.695 1272.08,-276.421 1295.58,-276.227"/>
<polygon fill="black" stroke="black" points="1295.64,-279.726 1305.62,-276.144 1295.59,-272.727 1295.64,-279.726"/>
<text text-anchor="middle" x="1260" y="-280.8" font-family="Times,serif" font-size="14.00">u0004</text>
</g>
<!-- 17 -->
<g id="node16" class="node"><title>17</title>
<ellipse fill="none" stroke="black" cx="1452" cy="-207" rx="18" ry="18"/>
</g>
<!-- 24&#45;&gt;17 -->
<g id="edge21" class="edge"><title>24&#45;&gt;17</title>
<path fill="none" stroke="black" d="M1340.45,-267.539C1362.01,-255.733 1401.33,-234.199 1426.8,-220.252"/>
<polygon fill="black" stroke="black" points="1428.73,-223.187 1435.82,-215.314 1425.37,-217.048 1428.73,-223.187"/>
<text text-anchor="middle" x="1388" y="-257.8" font-family="Times,serif" font-size="14.00">u0004</text>
</g>
<!-- 17&#45;&gt;12 -->
<g id="edge22" class="edge"><title>17&#45;&gt;12</title>
<path fill="none" stroke="black" d="M1469.08,-212.931C1486.53,-219.51 1515.1,-230.694 1539,-242 1542.52,-243.665 1546.18,-245.517 1549.76,-247.393"/>
<polygon fill="black" stroke="black" points="1548.39,-250.633 1558.86,-252.303 1551.72,-244.473 1548.39,-250.633"/>
<text text-anchor="middle" x="1516" y="-245.8" font-family="Times,serif" font-size="14.00">u0005</text>
</g>
<!-- 5&#45;&gt;4 -->
<g id="edge24" class="edge"><title>5&#45;&gt;4</title>
<path fill="none" stroke="black" d="M471.322,-95.9531C486.68,-64.9841 525.412,-0 580,-0 580,-0 580,-0 1576,-0 1619.02,-0 1633.98,-16.6574 1657,-53 1680.26,-89.7185 1688.44,-218.927 1690.98,-276.708"/>
<polygon fill="black" stroke="black" points="1687.5,-277.099 1691.41,-286.946 1694.49,-276.81 1687.5,-277.099"/>
<text text-anchor="middle" x="1078" y="-3.8" font-family="Times,serif" font-size="14.00">u0003</text>
</g>
<!-- 9 -->
<g id="node18" class="node"><title>9</title>
<ellipse fill="none" stroke="black" cx="581" cy="-138" rx="18" ry="18"/>
</g>
<!-- 5&#45;&gt;9 -->
<g id="edge23" class="edge"><title>5&#45;&gt;9</title>
<path fill="none" stroke="black" d="M480.62,-115.725C499.549,-119.968 530.746,-126.96 553.14,-131.98"/>
<polygon fill="black" stroke="black" points="552.51,-135.425 563.034,-134.197 554.041,-128.595 552.51,-135.425"/>
<text text-anchor="middle" x="522" y="-133.8" font-family="Times,serif" font-size="14.00">u0004</text>
</g>
<!-- 10 -->
<g id="node25" class="node"><title>10</title>
<ellipse fill="none" stroke="black" cx="1201" cy="-92" rx="18" ry="18"/>
</g>
<!-- 5&#45;&gt;10 -->
<g id="edge25" class="edge"><title>5&#45;&gt;10</title>
<path fill="none" stroke="black" d="M480.749,-107.26C503.162,-101.346 544.237,-92 580,-92 580,-92 580,-92 1079,-92 1111.21,-92 1148.23,-92 1172.76,-92"/>
<polygon fill="black" stroke="black" points="1172.77,-95.5001 1182.77,-92 1172.77,-88.5001 1172.77,-95.5001"/>
<text text-anchor="middle" x="822" y="-95.8" font-family="Times,serif" font-size="14.00">u0005</text>
</g>
<!-- 9&#45;&gt;4 -->
<g id="edge27" class="edge"><title>9&#45;&gt;4</title>
<path fill="none" stroke="black" d="M599.295,-138C621.962,-138 662.958,-138 698,-138 698,-138 698,-138 1576,-138 1643.11,-138 1674.52,-230.108 1686.24,-277.514"/>
<polygon fill="black" stroke="black" points="1682.88,-278.507 1688.57,-287.444 1689.69,-276.909 1682.88,-278.507"/>
<text text-anchor="middle" x="1142" y="-141.8" font-family="Times,serif" font-size="14.00">u0003</text>
</g>
<!-- 13 -->
<g id="node19" class="node"><title>13</title>
<ellipse fill="none" stroke="black" cx="699" cy="-184" rx="18" ry="18"/>
</g>
<!-- 9&#45;&gt;13 -->
<g id="edge26" class="edge"><title>9&#45;&gt;13</title>
<path fill="none" stroke="black" d="M598.024,-144.426C603.98,-146.811 610.797,-149.534 617,-152 635.441,-159.331 656.265,-167.556 672.18,-173.832"/>
<polygon fill="black" stroke="black" points="671.268,-177.235 681.855,-177.645 673.835,-170.722 671.268,-177.235"/>
<text text-anchor="middle" x="640" y="-173.8" font-family="Times,serif" font-size="14.00">u0004</text>
</g>
<!-- 16 -->
<g id="node20" class="node"><title>16</title>
<ellipse fill="none" stroke="black" cx="822" cy="-184" rx="18" ry="18"/>
</g>
<!-- 13&#45;&gt;16 -->
<g id="edge28" class="edge"><title>13&#45;&gt;16</title>
<path fill="none" stroke="black" d="M717.08,-184C736.965,-184 770.077,-184 793.577,-184"/>
<polygon fill="black" stroke="black" points="793.615,-187.5 803.615,-184 793.615,-180.5 793.615,-187.5"/>
<text text-anchor="middle" x="758" y="-187.8" font-family="Times,serif" font-size="14.00">u0005</text>
</g>
<!-- 19 -->
<g id="node21" class="node"><title>19</title>
<ellipse fill="none" stroke="black" cx="950" cy="-184" rx="18" ry="18"/>
</g>
<!-- 16&#45;&gt;19 -->
<g id="edge29" class="edge"><title>16&#45;&gt;19</title>
<path fill="none" stroke="black" d="M840.256,-184C861.274,-184 897.031,-184 921.775,-184"/>
<polygon fill="black" stroke="black" points="921.953,-187.5 931.953,-184 921.953,-180.5 921.953,-187.5"/>
<text text-anchor="middle" x="886" y="-187.8" font-family="Times,serif" font-size="14.00">u0005</text>
</g>
<!-- 21 -->
<g id="node22" class="node"><title>21</title>
<ellipse fill="none" stroke="black" cx="1078" cy="-184" rx="18" ry="18"/>
</g>
<!-- 19&#45;&gt;21 -->
<g id="edge30" class="edge"><title>19&#45;&gt;21</title>
<path fill="none" stroke="black" d="M968.256,-184C989.274,-184 1025.03,-184 1049.77,-184"/>
<polygon fill="black" stroke="black" points="1049.95,-187.5 1059.95,-184 1049.95,-180.5 1049.95,-187.5"/>
<text text-anchor="middle" x="1014" y="-187.8" font-family="Times,serif" font-size="14.00">u0005</text>
</g>
<!-- 23 -->
<g id="node23" class="node"><title>23</title>
<ellipse fill="none" stroke="black" cx="1201" cy="-184" rx="18" ry="18"/>
</g>
<!-- 21&#45;&gt;23 -->
<g id="edge31" class="edge"><title>21&#45;&gt;23</title>
<path fill="none" stroke="black" d="M1096.08,-184C1115.96,-184 1149.08,-184 1172.58,-184"/>
<polygon fill="black" stroke="black" points="1172.62,-187.5 1182.62,-184 1172.62,-180.5 1172.62,-187.5"/>
<text text-anchor="middle" x="1142" y="-187.8" font-family="Times,serif" font-size="14.00">u0005</text>
</g>
<!-- 25 -->
<g id="node24" class="node"><title>25</title>
<ellipse fill="none" stroke="black" cx="1324" cy="-184" rx="18" ry="18"/>
</g>
<!-- 23&#45;&gt;25 -->
<g id="edge32" class="edge"><title>23&#45;&gt;25</title>
<path fill="none" stroke="black" d="M1219.08,-184C1238.96,-184 1272.08,-184 1295.58,-184"/>
<polygon fill="black" stroke="black" points="1295.62,-187.5 1305.62,-184 1295.62,-180.5 1295.62,-187.5"/>
<text text-anchor="middle" x="1260" y="-187.8" font-family="Times,serif" font-size="14.00">u0005</text>
</g>
<!-- 25&#45;&gt;7 -->
<g id="edge33" class="edge"><title>25&#45;&gt;7</title>
<path fill="none" stroke="black" d="M1342.2,-183.283C1360.88,-183.372 1390.76,-186.138 1411,-201 1424.47,-210.887 1419.68,-220.132 1429,-234 1430.29,-235.917 1431.68,-237.862 1433.12,-239.786"/>
<polygon fill="black" stroke="black" points="1430.59,-242.229 1439.53,-247.916 1436.09,-237.896 1430.59,-242.229"/>
<text text-anchor="middle" x="1388" y="-204.8" font-family="Times,serif" font-size="14.00">u0004</text>
</g>
<!-- 10&#45;&gt;4 -->
<g id="edge35" class="edge"><title>10&#45;&gt;4</title>
<path fill="none" stroke="black" d="M1216.6,-82.4688C1238.68,-68.9951 1282.32,-46 1323,-46 1323,-46 1323,-46 1576,-46 1676.11,-46 1690.38,-209.162 1692.01,-276.48"/>
<polygon fill="black" stroke="black" points="1688.51,-276.846 1692.17,-286.788 1695.51,-276.732 1688.51,-276.846"/>
<text text-anchor="middle" x="1452" y="-49.8" font-family="Times,serif" font-size="14.00">u0003</text>
</g>
<!-- 14 -->
<g id="node26" class="node"><title>14</title>
<ellipse fill="none" stroke="black" cx="1324" cy="-92" rx="18" ry="18"/>
</g>
<!-- 10&#45;&gt;14 -->
<g id="edge34" class="edge"><title>10&#45;&gt;14</title>
<path fill="none" stroke="black" d="M1219.08,-92C1238.96,-92 1272.08,-92 1295.58,-92"/>
<polygon fill="black" stroke="black" points="1295.62,-95.5001 1305.62,-92 1295.62,-88.5001 1295.62,-95.5001"/>
<text text-anchor="middle" x="1260" y="-95.8" font-family="Times,serif" font-size="14.00">u0004</text>
</g>
<!-- 14&#45;&gt;17 -->
<g id="edge36" class="edge"><title>14&#45;&gt;17</title>
<path fill="none" stroke="black" d="M1338.36,-103.162C1355.48,-117.58 1385.95,-143.606 1411,-167 1417.91,-173.456 1425.29,-180.716 1431.79,-187.262"/>
<polygon fill="black" stroke="black" points="1429.44,-189.863 1438.96,-194.526 1434.43,-184.948 1429.44,-189.863"/>
<text text-anchor="middle" x="1388" y="-170.8" font-family="Times,serif" font-size="14.00">u0005</text>
</g>
<!-- initial -->
<g id="node27" class="node"><title>initial</title>
</g>
<!-- initial&#45;&gt;0 -->
<g id="edge37" class="edge"><title>initial&#45;&gt;0</title>
<path fill="none" stroke="black" d="M54.195,-392C62.6538,-392 72.0513,-392 80.5951,-392"/>
<polygon fill="black" stroke="black" points="80.8257,-395.5 90.8257,-392 80.8257,-388.5 80.8257,-395.5"/>
</g>
</g>
</svg>
