<svg width="2732px" height="368px"
 viewBox="0.00 0.00 2049.00 276.00" xmlns="http://www.w3.org/2000/svg" xmlns:xlink="http://www.w3.org/1999/xlink">
<g id="graph0" class="graph" transform="scale(1.000022500562514 1.000022500562514) rotate(0) translate(4 272)">
<title>Automaton</title>
<polygon fill="white" stroke="none" points="-4,4 -4,-272 2045,-272 2045,4 -4,4"/>
<!-- 0 -->
<g id="node1" class="node"><title>0</title>
<ellipse fill="none" stroke="black" cx="109" cy="-138" rx="18" ry="18"/>
</g>
<!-- 1 -->
<g id="node2" class="node"><title>1</title>
<ellipse fill="none" stroke="black" cx="227" cy="-138" rx="18" ry="18"/>
</g>
<!-- 0&#45;&gt;1 -->
<g id="edge1" class="edge"><title>0&#45;&gt;1</title>
<path fill="none" stroke="black" d="M127.116,-138C145.964,-138 176.531,-138 198.696,-138"/>
<polygon fill="black" stroke="black" points="198.814,-141.5 208.814,-138 198.814,-134.5 198.814,-141.5"/>
<text text-anchor="middle" x="168" y="-141.8" font-family="Times,serif" font-size="14.00">u0006</text>
</g>
<!-- 2 -->
<g id="node3" class="node"><title>2</title>
<ellipse fill="none" stroke="black" cx="345" cy="-138" rx="18" ry="18"/>
</g>
<!-- 1&#45;&gt;2 -->
<g id="edge2" class="edge"><title>1&#45;&gt;2</title>
<path fill="none" stroke="black" d="M245.116,-138C263.964,-138 294.531,-138 316.696,-138"/>
<polygon fill="black" stroke="black" points="316.814,-141.5 326.814,-138 316.814,-134.5 316.814,-141.5"/>
<text text-anchor="middle" x="286" y="-141.8" font-family="Times,serif" font-size="14.00">u0005</text>
</g>
<!-- 3 -->
<g id="node4" class="node"><title>3</title>
<ellipse fill="none" stroke="black" cx="463" cy="-138" rx="18" ry="18"/>
</g>
<!-- 2&#45;&gt;3 -->
<g id="edge3" class="edge"><title>2&#45;&gt;3</title>
<path fill="none" stroke="black" d="M363.116,-138C381.964,-138 412.531,-138 434.696,-138"/>
<polygon fill="black" stroke="black" points="434.814,-141.5 444.814,-138 434.814,-134.5 434.814,-141.5"/>
<text text-anchor="middle" x="404" y="-141.8" font-family="Times,serif" font-size="14.00">u0004</text>
</g>
<!-- 4 -->
<g id="node5" class="node"><title>4</title>
<ellipse fill="none" stroke="black" cx="581" cy="-138" rx="18" ry="18"/>
</g>
<!-- 3&#45;&gt;4 -->
<g id="edge4" class="edge"><title>3&#45;&gt;4</title>
<path fill="none" stroke="black" d="M481.116,-138C499.964,-138 530.531,-138 552.696,-138"/>
<polygon fill="black" stroke="black" points="552.814,-141.5 562.814,-138 552.814,-134.5 552.814,-141.5"/>
<text text-anchor="middle" x="522" y="-141.8" font-family="Times,serif" font-size="14.00">u0003</text>
</g>
<!-- 5 -->
<g id="node6" class="node"><title>5</title>
<ellipse fill="none" stroke="black" cx="699" cy="-138" rx="18" ry="18"/>
</g>
<!-- 4&#45;&gt;5 -->
<g id="edge5" class="edge"><title>4&#45;&gt;5</title>
<path fill="none" stroke="black" d="M599.116,-138C617.964,-138 648.531,-138 670.696,-138"/>
<polygon fill="black" stroke="black" points="670.814,-141.5 680.814,-138 670.814,-134.5 670.814,-141.5"/>
<text text-anchor="middle" x="640" y="-141.8" font-family="Times,serif" font-size="14.00">u0000</text>
</g>
<!-- 6 -->
<g id="node7" class="node"><title>6</title>
<ellipse fill="none" stroke="black" cx="817" cy="-138" rx="18" ry="18"/>
</g>
<!-- 5&#45;&gt;6 -->
<g id="edge6" class="edge"><title>5&#45;&gt;6</title>
<path fill="none" stroke="black" d="M717.116,-138C735.964,-138 766.531,-138 788.696,-138"/>
<polygon fill="black" stroke="black" points="788.814,-141.5 798.814,-138 788.814,-134.5 788.814,-141.5"/>
<text text-anchor="middle" x="758" y="-141.8" font-family="Times,serif" font-size="14.00">u0001</text>
</g>
<!-- 7 -->
<g id="node8" class="node"><title>7</title>
<ellipse fill="none" stroke="black" cx="935" cy="-138" rx="18" ry="18"/>
</g>
<!-- 6&#45;&gt;7 -->
<g id="edge7" class="edge"><title>6&#45;&gt;7</title>
<path fill="none" stroke="black" d="M835.116,-138C853.964,-138 884.531,-138 906.696,-138"/>
<polygon fill="black" stroke="black" points="906.814,-141.5 916.814,-138 906.814,-134.5 906.814,-141.5"/>
<text text-anchor="middle" x="876" y="-141.8" font-family="Times,serif" font-size="14.00">u0002</text>
</g>
<!-- 8 -->
<g id="node9" class="node"><title>8</title>
<ellipse fill="none" stroke="black" cx="1053" cy="-138" rx="18" ry="18"/>
</g>
<!-- 7&#45;&gt;8 -->
<g id="edge8" class="edge"><title>7&#45;&gt;8</title>
<path fill="none" stroke="black" d="M953.116,-138C971.964,-138 1002.53,-138 1024.7,-138"/>
<polygon fill="black" stroke="black" points="1024.81,-141.5 1034.81,-138 1024.81,-134.5 1024.81,-141.5"/>
<text text-anchor="middle" x="994" y="-141.8" font-family="Times,serif" font-size="14.00">u0007</text>
</g>
<!-- 9 -->
<g id="node10" class="node"><title>9</title>
<ellipse fill="none" stroke="black" cx="1171" cy="-138" rx="18" ry="18"/>
</g>
<!-- 8&#45;&gt;9 -->
<g id="edge9" class="edge"><title>8&#45;&gt;9</title>
<path fill="none" stroke="black" d="M1071.12,-138C1089.96,-138 1120.53,-138 1142.7,-138"/>
<polygon fill="black" stroke="black" points="1142.81,-141.5 1152.81,-138 1142.81,-134.5 1142.81,-141.5"/>
<text text-anchor="middle" x="1112" y="-141.8" font-family="Times,serif" font-size="14.00">u0008</text>
</g>
<!-- 10 -->
<g id="node11" class="node"><title>10</title>
<ellipse fill="none" stroke="black" cx="1529" cy="-193" rx="18" ry="18"/>
</g>
<!-- 9&#45;&gt;10 -->
<g id="edge10" class="edge"><title>9&#45;&gt;10</title>
<path fill="none" stroke="black" d="M1189.17,-140.653C1246.39,-149.493 1430.89,-177.997 1500.8,-188.798"/>
<polygon fill="black" stroke="black" points="1500.58,-192.306 1511,-190.374 1501.65,-185.388 1500.58,-192.306"/>
<text text-anchor="middle" x="1347" y="-171.8" font-family="Times,serif" font-size="14.00">u000b</text>
</g>
<!-- 11 -->
<g id="node16" class="node"><title>11</title>
<ellipse fill="none" stroke="black" cx="1288" cy="-81" rx="18" ry="18"/>
</g>
<!-- 9&#45;&gt;11 -->
<g id="edge11" class="edge"><title>9&#45;&gt;11</title>
<path fill="none" stroke="black" d="M1187.51,-130.313C1206.71,-120.794 1239.66,-104.464 1262.35,-93.2201"/>
<polygon fill="black" stroke="black" points="1263.96,-96.3245 1271.37,-88.7475 1260.85,-90.0526 1263.96,-96.3245"/>
<text text-anchor="middle" x="1229.5" y="-123.8" font-family="Times,serif" font-size="14.00">u000a</text>
</g>
<!-- 12 -->
<g id="node12" class="node"><title>12</title>
<ellipse fill="none" stroke="black" cx="2019" cy="-229" rx="18" ry="18"/>
<ellipse fill="none" stroke="black" cx="2019" cy="-229" rx="22" ry="22"/>
</g>
<!-- 10&#45;&gt;12 -->
<g id="edge12" class="edge"><title>10&#45;&gt;12</title>
<path fill="none" stroke="black" d="M1542.97,-204.569C1563.9,-222.004 1607.14,-253 1650,-253 1650,-253 1650,-253 1898,-253 1929.23,-253 1964.16,-245.087 1988.25,-238.348"/>
<polygon fill="black" stroke="black" points="1989.23,-241.706 1997.86,-235.558 1987.28,-234.983 1989.23,-241.706"/>
<text text-anchor="middle" x="1774" y="-256.8" font-family="Times,serif" font-size="14.00">u0009</text>
</g>
<!-- 13 -->
<g id="node13" class="node"><title>13</title>
<ellipse fill="none" stroke="black" cx="1897" cy="-188" rx="18" ry="18"/>
</g>
<!-- 10&#45;&gt;13 -->
<g id="edge13" class="edge"><title>10&#45;&gt;13</title>
<path fill="none" stroke="black" d="M1547.26,-193.861C1596.39,-196.126 1741.2,-201.514 1861,-193 1863.57,-192.817 1866.24,-192.56 1868.91,-192.257"/>
<polygon fill="black" stroke="black" points="1869.51,-195.709 1878.96,-190.928 1868.59,-188.769 1869.51,-195.709"/>
<text text-anchor="middle" x="1710" y="-200.8" font-family="Times,serif" font-size="14.00">u000b</text>
</g>
<!-- 14 -->
<g id="node14" class="node"><title>14</title>
<ellipse fill="none" stroke="black" cx="1651" cy="-161" rx="18" ry="18"/>
</g>
<!-- 10&#45;&gt;14 -->
<g id="edge14" class="edge"><title>10&#45;&gt;14</title>
<path fill="none" stroke="black" d="M1545.78,-186.462C1553.06,-183.603 1561.88,-180.37 1570,-178 1587.39,-172.924 1607.31,-168.685 1622.92,-165.71"/>
<polygon fill="black" stroke="black" points="1623.76,-169.114 1632.96,-163.858 1622.49,-162.231 1623.76,-169.114"/>
<text text-anchor="middle" x="1592.5" y="-181.8" font-family="Times,serif" font-size="14.00">u000a</text>
</g>
<!-- 13&#45;&gt;12 -->
<g id="edge15" class="edge"><title>13&#45;&gt;12</title>
<path fill="none" stroke="black" d="M1914.18,-193.529C1933.02,-199.965 1964.52,-210.729 1987.9,-218.715"/>
<polygon fill="black" stroke="black" points="1987.08,-222.133 1997.67,-222.054 1989.34,-215.509 1987.08,-222.133"/>
<text text-anchor="middle" x="1956" y="-217.8" font-family="Times,serif" font-size="14.00">u0009</text>
</g>
<!-- 18 -->
<g id="node15" class="node"><title>18</title>
<ellipse fill="none" stroke="black" cx="1774" cy="-161" rx="18" ry="18"/>
</g>
<!-- 14&#45;&gt;18 -->
<g id="edge16" class="edge"><title>14&#45;&gt;18</title>
<path fill="none" stroke="black" d="M1669.08,-161C1688.96,-161 1722.08,-161 1745.58,-161"/>
<polygon fill="black" stroke="black" points="1745.62,-164.5 1755.62,-161 1745.62,-157.5 1745.62,-164.5"/>
<text text-anchor="middle" x="1710" y="-164.8" font-family="Times,serif" font-size="14.00">u000c</text>
</g>
<!-- 18&#45;&gt;13 -->
<g id="edge17" class="edge"><title>18&#45;&gt;13</title>
<path fill="none" stroke="black" d="M1791.9,-163.912C1809.31,-167.011 1837.18,-172.253 1861,-178 1863.88,-178.695 1866.88,-179.47 1869.86,-180.274"/>
<polygon fill="black" stroke="black" points="1869.12,-183.702 1879.69,-183.037 1871.01,-176.963 1869.12,-183.702"/>
<text text-anchor="middle" x="1838" y="-181.8" font-family="Times,serif" font-size="14.00">u000b</text>
</g>
<!-- 15 -->
<g id="node17" class="node"><title>15</title>
<ellipse fill="none" stroke="black" cx="1465" cy="-113" rx="18" ry="18"/>
</g>
<!-- 11&#45;&gt;15 -->
<g id="edge18" class="edge"><title>11&#45;&gt;15</title>
<path fill="none" stroke="black" d="M1305.78,-84.0683C1336.15,-89.621 1400.45,-101.38 1437.05,-108.071"/>
<polygon fill="black" stroke="black" points="1436.55,-111.538 1447.01,-109.894 1437.81,-104.652 1436.55,-111.538"/>
<text text-anchor="middle" x="1347" y="-99.8" font-family="Times,serif" font-size="14.00">u000c</text>
</g>
<!-- 16 -->
<g id="node18" class="node"><title>16</title>
<ellipse fill="none" stroke="black" cx="1774" cy="-90" rx="18" ry="18"/>
</g>
<!-- 11&#45;&gt;16 -->
<g id="edge19" class="edge"><title>11&#45;&gt;16</title>
<path fill="none" stroke="black" d="M1305.87,-78.8671C1328.42,-76.2057 1369.65,-72 1405,-72 1405,-72 1405,-72 1652,-72 1684.75,-72 1721.94,-78.5293 1746.34,-83.723"/>
<polygon fill="black" stroke="black" points="1745.76,-87.179 1756.28,-85.9155 1747.27,-80.3434 1745.76,-87.179"/>
<text text-anchor="middle" x="1529" y="-75.8" font-family="Times,serif" font-size="14.00">u000b</text>
</g>
<!-- 17 -->
<g id="node19" class="node"><title>17</title>
<ellipse fill="none" stroke="black" cx="1406" cy="-24" rx="18" ry="18"/>
</g>
<!-- 11&#45;&gt;17 -->
<g id="edge20" class="edge"><title>11&#45;&gt;17</title>
<path fill="none" stroke="black" d="M1299.06,-66.3412C1305.34,-58.2883 1314.09,-48.7883 1324,-43 1340.37,-33.4417 1361.25,-28.6901 1377.71,-26.3289"/>
<polygon fill="black" stroke="black" points="1378.29,-29.7837 1387.79,-25.096 1377.44,-22.8354 1378.29,-29.7837"/>
<text text-anchor="middle" x="1347" y="-46.8" font-family="Times,serif" font-size="14.00">u000a</text>
</g>
<!-- 15&#45;&gt;16 -->
<g id="edge21" class="edge"><title>15&#45;&gt;16</title>
<path fill="none" stroke="black" d="M1483.39,-111.698C1534.36,-107.879 1683.74,-96.6873 1745.64,-92.0497"/>
<polygon fill="black" stroke="black" points="1746.09,-95.5256 1755.81,-91.2882 1745.57,-88.5452 1746.09,-95.5256"/>
<text text-anchor="middle" x="1592.5" y="-109.8" font-family="Times,serif" font-size="14.00">u000a</text>
</g>
<!-- 16&#45;&gt;13 -->
<g id="edge22" class="edge"><title>16&#45;&gt;13</title>
<path fill="none" stroke="black" d="M1790.08,-98.8172C1807.89,-109.568 1838,-128.815 1861,-149 1867.02,-154.281 1873.03,-160.54 1878.34,-166.48"/>
<polygon fill="black" stroke="black" points="1875.88,-168.985 1885.06,-174.261 1881.17,-164.407 1875.88,-168.985"/>
<text text-anchor="middle" x="1838" y="-152.8" font-family="Times,serif" font-size="14.00">u000a</text>
</g>
<!-- 19 -->
<g id="node20" class="node"><title>19</title>
<ellipse fill="none" stroke="black" cx="1529" cy="-18" rx="18" ry="18"/>
</g>
<!-- 17&#45;&gt;19 -->
<g id="edge23" class="edge"><title>17&#45;&gt;19</title>
<path fill="none" stroke="black" d="M1424.08,-23.1531C1444.08,-22.1614 1477.45,-20.5064 1500.98,-19.34"/>
<polygon fill="black" stroke="black" points="1501.19,-22.8337 1511.01,-18.8426 1500.85,-15.8423 1501.19,-22.8337"/>
<text text-anchor="middle" x="1465" y="-26.8" font-family="Times,serif" font-size="14.00">u000b</text>
</g>
<!-- 20 -->
<g id="node21" class="node"><title>20</title>
<ellipse fill="none" stroke="black" cx="1651" cy="-24" rx="18" ry="18"/>
</g>
<!-- 19&#45;&gt;20 -->
<g id="edge24" class="edge"><title>19&#45;&gt;20</title>
<path fill="none" stroke="black" d="M1547.19,-18.8597C1566.89,-19.8443 1599.42,-21.4709 1622.61,-22.6305"/>
<polygon fill="black" stroke="black" points="1622.68,-26.1381 1632.84,-23.1419 1623.03,-19.1468 1622.68,-26.1381"/>
<text text-anchor="middle" x="1592.5" y="-26.8" font-family="Times,serif" font-size="14.00">u000c</text>
</g>
<!-- 20&#45;&gt;16 -->
<g id="edge25" class="edge"><title>20&#45;&gt;16</title>
<path fill="none" stroke="black" d="M1668.98,-24.9019C1686.23,-26.4924 1713.15,-30.8836 1733,-43 1742.6,-48.8617 1751.06,-57.8217 1757.69,-66.3523"/>
<polygon fill="black" stroke="black" points="1754.98,-68.5774 1763.69,-74.6092 1760.64,-64.4621 1754.98,-68.5774"/>
<text text-anchor="middle" x="1710" y="-46.8" font-family="Times,serif" font-size="14.00">u000c</text>
</g>
<!-- initial -->
<g id="node22" class="node"><title>initial</title>
</g>
<!-- initial&#45;&gt;0 -->
<g id="edge26" class="edge"><title>initial&#45;&gt;0</title>
<path fill="none" stroke="black" d="M54.195,-138C62.6538,-138 72.0513,-138 80.5951,-138"/>
<polygon fill="black" stroke="black" points="80.8257,-141.5 90.8257,-138 80.8257,-134.5 80.8257,-141.5"/>
</g>
</g>
</svg>
