<svg width="2316px" height="1388px"
 viewBox="0.00 0.00 1737.00 1041.00" xmlns="http://www.w3.org/2000/svg" xmlns:xlink="http://www.w3.org/1999/xlink">
<g id="graph0" class="graph" transform="scale(1.000022500562514 1.000022500562514) rotate(0) translate(4 1037)">
<title>Automaton</title>
<polygon fill="white" stroke="none" points="-4,4 -4,-1037 1733,-1037 1733,4 -4,4"/>
<!-- 0 -->
<g id="node1" class="node"><title>0</title>
<ellipse fill="none" stroke="black" cx="109" cy="-888" rx="18" ry="18"/>
</g>
<!-- 1 -->
<g id="node2" class="node"><title>1</title>
<ellipse fill="none" stroke="black" cx="227" cy="-888" rx="18" ry="18"/>
</g>
<!-- 0&#45;&gt;1 -->
<g id="edge1" class="edge"><title>0&#45;&gt;1</title>
<path fill="none" stroke="black" d="M127.116,-888C145.964,-888 176.531,-888 198.696,-888"/>
<polygon fill="black" stroke="black" points="198.814,-891.5 208.814,-888 198.814,-884.5 198.814,-891.5"/>
<text text-anchor="middle" x="168" y="-891.8" font-family="Times,serif" font-size="14.00">u0004</text>
</g>
<!-- 2 -->
<g id="node3" class="node"><title>2</title>
<ellipse fill="none" stroke="black" cx="345" cy="-888" rx="18" ry="18"/>
</g>
<!-- 1&#45;&gt;2 -->
<g id="edge2" class="edge"><title>1&#45;&gt;2</title>
<path fill="none" stroke="black" d="M245.116,-888C263.964,-888 294.531,-888 316.696,-888"/>
<polygon fill="black" stroke="black" points="316.814,-891.5 326.814,-888 316.814,-884.5 316.814,-891.5"/>
<text text-anchor="middle" x="286" y="-891.8" font-family="Times,serif" font-size="14.00">u0005</text>
</g>
<!-- 3 -->
<g id="node4" class="node"><title>3</title>
<ellipse fill="none" stroke="black" cx="591" cy="-888" rx="18" ry="18"/>
</g>
<!-- 2&#45;&gt;3 -->
<g id="edge3" class="edge"><title>2&#45;&gt;3</title>
<path fill="none" stroke="black" d="M363.158,-888C404.896,-888 512.011,-888 562.67,-888"/>
<polygon fill="black" stroke="black" points="562.861,-891.5 572.861,-888 562.861,-884.5 562.861,-891.5"/>
<text text-anchor="middle" x="468" y="-891.8" font-family="Times,serif" font-size="14.00">u0003</text>
</g>
<!-- 4 -->
<g id="node10" class="node"><title>4</title>
<ellipse fill="none" stroke="black" cx="1585" cy="-653" rx="18" ry="18"/>
</g>
<!-- 2&#45;&gt;4 -->
<g id="edge4" class="edge"><title>2&#45;&gt;4</title>
<path fill="none" stroke="black" d="M352.308,-904.729C366.757,-939.84 405.797,-1018 467,-1018 467,-1018 467,-1018 1463,-1018 1511.45,-1018 1525.22,-993.217 1549,-951 1574.74,-905.305 1581.64,-747.14 1583.41,-681.695"/>
<polygon fill="black" stroke="black" points="1586.92,-681.391 1583.67,-671.307 1579.93,-681.217 1586.92,-681.391"/>
<text text-anchor="middle" x="950" y="-1021.8" font-family="Times,serif" font-size="14.00">u0002</text>
</g>
<!-- 5 -->
<g id="node22" class="node"><title>5</title>
<ellipse fill="none" stroke="black" cx="468" cy="-377" rx="18" ry="18"/>
</g>
<!-- 2&#45;&gt;5 -->
<g id="edge5" class="edge"><title>2&#45;&gt;5</title>
<path fill="none" stroke="black" d="M350.095,-870.705C367.905,-795.492 438.703,-496.5 460.548,-404.249"/>
<polygon fill="black" stroke="black" points="464.007,-404.828 462.906,-394.29 457.196,-403.215 464.007,-404.828"/>
<text text-anchor="middle" x="404" y="-741.8" font-family="Times,serif" font-size="14.00">u0001</text>
</g>
<!-- 6 -->
<g id="node5" class="node"><title>6</title>
<ellipse fill="none" stroke="black" cx="709" cy="-732" rx="18" ry="18"/>
</g>
<!-- 3&#45;&gt;6 -->
<g id="edge6" class="edge"><title>3&#45;&gt;6</title>
<path fill="none" stroke="black" d="M602.499,-873.881C622.686,-846.733 667.06,-787.057 691.332,-754.415"/>
<polygon fill="black" stroke="black" points="694.45,-756.088 697.608,-745.975 688.833,-751.911 694.45,-756.088"/>
<text text-anchor="middle" x="650" y="-841.8" font-family="Times,serif" font-size="14.00">u0003</text>
</g>
<!-- 3&#45;&gt;4 -->
<g id="edge7" class="edge"><title>3&#45;&gt;4</title>
<path fill="none" stroke="black" d="M602.021,-902.249C620.175,-926.215 661.006,-972 708,-972 708,-972 708,-972 1463,-972 1509.86,-972 1524.73,-951.088 1549,-911 1572.14,-872.777 1580.41,-739.727 1582.98,-681.104"/>
<polygon fill="black" stroke="black" points="1586.48,-681.2 1583.4,-671.064 1579.49,-680.911 1586.48,-681.2"/>
<text text-anchor="middle" x="1078" y="-975.8" font-family="Times,serif" font-size="14.00">u0002</text>
</g>
<!-- 7 -->
<g id="node16" class="node"><title>7</title>
<ellipse fill="none" stroke="black" cx="950" cy="-888" rx="18" ry="18"/>
</g>
<!-- 3&#45;&gt;7 -->
<g id="edge8" class="edge"><title>3&#45;&gt;7</title>
<path fill="none" stroke="black" d="M609.219,-888C666.597,-888 851.615,-888 921.725,-888"/>
<polygon fill="black" stroke="black" points="921.954,-891.5 931.954,-888 921.954,-884.5 921.954,-891.5"/>
<text text-anchor="middle" x="768" y="-891.8" font-family="Times,serif" font-size="14.00">u0001</text>
</g>
<!-- 11 -->
<g id="node6" class="node"><title>11</title>
<ellipse fill="none" stroke="black" cx="1078" cy="-638" rx="18" ry="18"/>
</g>
<!-- 6&#45;&gt;11 -->
<g id="edge9" class="edge"><title>6&#45;&gt;11</title>
<path fill="none" stroke="black" d="M726.723,-727.717C784.876,-712.822 978.63,-663.196 1050.16,-644.874"/>
<polygon fill="black" stroke="black" points="1051.36,-648.18 1060.18,-642.308 1049.62,-641.399 1051.36,-648.18"/>
<text text-anchor="middle" x="886" y="-696.8" font-family="Times,serif" font-size="14.00">u0003</text>
</g>
<!-- 6&#45;&gt;4 -->
<g id="edge10" class="edge"><title>6&#45;&gt;4</title>
<path fill="none" stroke="black" d="M726.264,-737.198C792.788,-757.984 1050.98,-834 1269,-834 1269,-834 1269,-834 1463,-834 1535.87,-834 1567.61,-731.351 1578.84,-680.658"/>
<polygon fill="black" stroke="black" points="1582.3,-681.19 1580.93,-670.685 1575.45,-679.753 1582.3,-681.19"/>
<text text-anchor="middle" x="1142" y="-832.8" font-family="Times,serif" font-size="14.00">u0002</text>
</g>
<!-- 12 -->
<g id="node12" class="node"><title>12</title>
<ellipse fill="none" stroke="black" cx="827" cy="-549" rx="18" ry="18"/>
</g>
<!-- 6&#45;&gt;12 -->
<g id="edge11" class="edge"><title>6&#45;&gt;12</title>
<path fill="none" stroke="black" d="M719.493,-717.024C739.595,-685.311 786.603,-611.153 810.885,-572.845"/>
<polygon fill="black" stroke="black" points="814.141,-574.246 816.539,-563.926 808.229,-570.498 814.141,-574.246"/>
<text text-anchor="middle" x="768" y="-676.8" font-family="Times,serif" font-size="14.00">u0001</text>
</g>
<!-- 19 -->
<g id="node7" class="node"><title>19</title>
<ellipse fill="none" stroke="black" cx="1206" cy="-605" rx="18" ry="18"/>
</g>
<!-- 11&#45;&gt;19 -->
<g id="edge12" class="edge"><title>11&#45;&gt;19</title>
<path fill="none" stroke="black" d="M1095.21,-631.834C1102.43,-629.215 1111.07,-626.254 1119,-624 1138.61,-618.424 1161.12,-613.502 1178.19,-610.066"/>
<polygon fill="black" stroke="black" points="1178.91,-613.492 1188.04,-608.126 1177.56,-606.624 1178.91,-613.492"/>
<text text-anchor="middle" x="1142" y="-627.8" font-family="Times,serif" font-size="14.00">u0003</text>
</g>
<!-- 20 -->
<g id="node8" class="node"><title>20</title>
<ellipse fill="none" stroke="black" cx="1334" cy="-457" rx="18" ry="18"/>
</g>
<!-- 11&#45;&gt;20 -->
<g id="edge14" class="edge"><title>11&#45;&gt;20</title>
<path fill="none" stroke="black" d="M1093.03,-627.667C1112.91,-613.07 1150.5,-585.663 1183,-563 1203.22,-548.899 1212.16,-550.006 1229,-532 1239.88,-520.364 1235.44,-511.962 1247,-501 1256.45,-492.044 1286.06,-477.771 1307.9,-467.923"/>
<polygon fill="black" stroke="black" points="1309.58,-471.007 1317.3,-463.744 1306.74,-464.612 1309.58,-471.007"/>
<text text-anchor="middle" x="1206" y="-566.8" font-family="Times,serif" font-size="14.00">u0001</text>
</g>
<!-- 11&#45;&gt;4 -->
<g id="edge13" class="edge"><title>11&#45;&gt;4</title>
<path fill="none" stroke="black" d="M1091.7,-650.119C1119.37,-676.512 1182.64,-736.855 1183,-737 1217.08,-750.626 1226.12,-767.131 1421,-726 1480.45,-713.453 1495.38,-706.568 1549,-678 1553.46,-675.623 1558.01,-672.756 1562.29,-669.823"/>
<polygon fill="black" stroke="black" points="1564.51,-672.536 1570.58,-663.848 1560.42,-666.857 1564.51,-672.536"/>
<text text-anchor="middle" x="1334" y="-750.8" font-family="Times,serif" font-size="14.00">u0002</text>
</g>
<!-- 19&#45;&gt;20 -->
<g id="edge15" class="edge"><title>19&#45;&gt;20</title>
<path fill="none" stroke="black" d="M1217.71,-591.172C1221.61,-585.713 1225.84,-579.258 1229,-573 1240.03,-551.171 1230.87,-539.383 1247,-521 1262.08,-503.818 1274.54,-511.479 1293,-498 1300.74,-492.352 1308.31,-485.15 1314.75,-478.364"/>
<polygon fill="black" stroke="black" points="1317.59,-480.453 1321.74,-470.706 1312.41,-475.736 1317.59,-480.453"/>
<text text-anchor="middle" x="1270" y="-524.8" font-family="Times,serif" font-size="14.00">u0003</text>
</g>
<!-- 19&#45;&gt;4 -->
<g id="edge16" class="edge"><title>19&#45;&gt;4</title>
<path fill="none" stroke="black" d="M1214.85,-620.956C1219.2,-629.988 1224.6,-641.537 1229,-652 1237.84,-673.001 1228.27,-687.022 1247,-700 1263.8,-711.645 1272.62,-701.635 1293,-700 1344.37,-695.878 1495.03,-669.15 1556.95,-657.938"/>
<polygon fill="black" stroke="black" points="1557.89,-661.325 1567.1,-656.095 1556.64,-654.438 1557.89,-661.325"/>
<text text-anchor="middle" x="1398" y="-692.8" font-family="Times,serif" font-size="14.00">u0002</text>
</g>
<!-- 27 -->
<g id="node9" class="node"><title>27</title>
<ellipse fill="none" stroke="black" cx="1462" cy="-626" rx="18" ry="18"/>
</g>
<!-- 20&#45;&gt;27 -->
<g id="edge17" class="edge"><title>20&#45;&gt;27</title>
<path fill="none" stroke="black" d="M1345.53,-471.118C1367.45,-500.518 1418.13,-568.502 1444.46,-603.811"/>
<polygon fill="black" stroke="black" points="1441.81,-606.116 1450.59,-612.041 1447.42,-601.932 1441.81,-606.116"/>
<text text-anchor="middle" x="1398" y="-575.8" font-family="Times,serif" font-size="14.00">u0001</text>
</g>
<!-- 27&#45;&gt;4 -->
<g id="edge18" class="edge"><title>27&#45;&gt;4</title>
<path fill="none" stroke="black" d="M1479.9,-628.912C1497.31,-632.011 1525.18,-637.253 1549,-643 1551.88,-643.695 1554.88,-644.47 1557.86,-645.274"/>
<polygon fill="black" stroke="black" points="1557.12,-648.702 1567.69,-648.037 1559.01,-641.963 1557.12,-648.702"/>
<text text-anchor="middle" x="1526" y="-646.8" font-family="Times,serif" font-size="14.00">u0002</text>
</g>
<!-- 8 -->
<g id="node11" class="node"><title>8</title>
<ellipse fill="none" stroke="black" cx="1707" cy="-653" rx="18" ry="18"/>
<ellipse fill="none" stroke="black" cx="1707" cy="-653" rx="22" ry="22"/>
</g>
<!-- 4&#45;&gt;8 -->
<g id="edge19" class="edge"><title>4&#45;&gt;8</title>
<path fill="none" stroke="black" d="M1603.19,-653C1621.77,-653 1651.76,-653 1674.57,-653"/>
<polygon fill="black" stroke="black" points="1674.79,-656.5 1684.79,-653 1674.79,-649.5 1674.79,-656.5"/>
<text text-anchor="middle" x="1644" y="-656.8" font-family="Times,serif" font-size="14.00">u0000</text>
</g>
<!-- 21 -->
<g id="node13" class="node"><title>21</title>
<ellipse fill="none" stroke="black" cx="950" cy="-379" rx="18" ry="18"/>
</g>
<!-- 12&#45;&gt;21 -->
<g id="edge20" class="edge"><title>12&#45;&gt;21</title>
<path fill="none" stroke="black" d="M838.108,-534.798C859.053,-505.372 907.349,-437.518 932.734,-401.853"/>
<polygon fill="black" stroke="black" points="935.717,-403.698 938.664,-393.522 930.014,-399.639 935.717,-403.698"/>
<text text-anchor="middle" x="886" y="-502.8" font-family="Times,serif" font-size="14.00">u0001</text>
</g>
<!-- 28 -->
<g id="node14" class="node"><title>28</title>
<ellipse fill="none" stroke="black" cx="1078" cy="-374" rx="18" ry="18"/>
</g>
<!-- 21&#45;&gt;28 -->
<g id="edge21" class="edge"><title>21&#45;&gt;28</title>
<path fill="none" stroke="black" d="M967.993,-378.326C988.941,-377.494 1024.81,-376.071 1049.65,-375.085"/>
<polygon fill="black" stroke="black" points="1050.02,-378.573 1059.87,-374.68 1049.74,-371.579 1050.02,-378.573"/>
<text text-anchor="middle" x="1014" y="-381.8" font-family="Times,serif" font-size="14.00">u0003</text>
</g>
<!-- 24 -->
<g id="node15" class="node"><title>24</title>
<ellipse fill="none" stroke="black" cx="1206" cy="-303" rx="18" ry="18"/>
</g>
<!-- 28&#45;&gt;24 -->
<g id="edge22" class="edge"><title>28&#45;&gt;24</title>
<path fill="none" stroke="black" d="M1096.08,-372.789C1114.39,-370.806 1143.7,-365.603 1165,-352 1170.75,-348.326 1180.35,-336.666 1188.7,-325.642"/>
<polygon fill="black" stroke="black" points="1191.61,-327.595 1194.76,-317.479 1185.99,-323.422 1191.61,-327.595"/>
<text text-anchor="middle" x="1142" y="-372.8" font-family="Times,serif" font-size="14.00">u0003</text>
</g>
<!-- 24&#45;&gt;20 -->
<g id="edge23" class="edge"><title>24&#45;&gt;20</title>
<path fill="none" stroke="black" d="M1212.82,-319.659C1221.25,-343.17 1236.94,-384.608 1247,-397 1256.18,-408.304 1287.46,-428.907 1309.65,-442.775"/>
<polygon fill="black" stroke="black" points="1307.87,-445.792 1318.21,-448.082 1311.56,-439.841 1307.87,-445.792"/>
<text text-anchor="middle" x="1270" y="-434.8" font-family="Times,serif" font-size="14.00">u0003</text>
</g>
<!-- 7&#45;&gt;4 -->
<g id="edge25" class="edge"><title>7&#45;&gt;4</title>
<path fill="none" stroke="black" d="M966.236,-896.236C973.561,-899.934 982.564,-904.106 991,-907 1028.03,-919.701 1037.86,-926 1077,-926 1077,-926 1077,-926 1463,-926 1507.21,-926 1524.04,-912.492 1549,-876 1570.37,-844.755 1579.42,-733.67 1582.57,-681.042"/>
<polygon fill="black" stroke="black" points="1586.07,-681.225 1583.14,-671.042 1579.08,-680.827 1586.07,-681.225"/>
<text text-anchor="middle" x="1270" y="-929.8" font-family="Times,serif" font-size="14.00">u0002</text>
</g>
<!-- 13 -->
<g id="node17" class="node"><title>13</title>
<ellipse fill="none" stroke="black" cx="1142" cy="-884" rx="18" ry="18"/>
</g>
<!-- 7&#45;&gt;13 -->
<g id="edge24" class="edge"><title>7&#45;&gt;13</title>
<path fill="none" stroke="black" d="M968.196,-887.638C1001.33,-886.94 1074.25,-885.405 1113.95,-884.569"/>
<polygon fill="black" stroke="black" points="1114.06,-888.068 1123.98,-884.358 1113.91,-881.07 1114.06,-888.068"/>
<text text-anchor="middle" x="1014" y="-891.8" font-family="Times,serif" font-size="14.00">u0003</text>
</g>
<!-- 14 -->
<g id="node19" class="node"><title>14</title>
<ellipse fill="none" stroke="black" cx="1078" cy="-753" rx="18" ry="18"/>
</g>
<!-- 7&#45;&gt;14 -->
<g id="edge26" class="edge"><title>7&#45;&gt;14</title>
<path fill="none" stroke="black" d="M963.081,-875.056C985.057,-851.51 1031.72,-801.511 1058,-773.36"/>
<polygon fill="black" stroke="black" points="1060.87,-775.407 1065.14,-765.708 1055.76,-770.631 1060.87,-775.407"/>
<text text-anchor="middle" x="1014" y="-848.8" font-family="Times,serif" font-size="14.00">u0001</text>
</g>
<!-- 22 -->
<g id="node18" class="node"><title>22</title>
<ellipse fill="none" stroke="black" cx="1334" cy="-880" rx="18" ry="18"/>
</g>
<!-- 13&#45;&gt;22 -->
<g id="edge27" class="edge"><title>13&#45;&gt;22</title>
<path fill="none" stroke="black" d="M1160.2,-883.638C1193.33,-882.94 1266.25,-881.405 1305.95,-880.569"/>
<polygon fill="black" stroke="black" points="1306.06,-884.068 1315.98,-880.358 1305.91,-877.07 1306.06,-884.068"/>
<text text-anchor="middle" x="1206" y="-887.8" font-family="Times,serif" font-size="14.00">u0001</text>
</g>
<!-- 22&#45;&gt;27 -->
<g id="edge29" class="edge"><title>22&#45;&gt;27</title>
<path fill="none" stroke="black" d="M1342.88,-864.111C1364.14,-821.258 1422.78,-703.041 1448.56,-651.068"/>
<polygon fill="black" stroke="black" points="1451.81,-652.397 1453.12,-641.883 1445.54,-649.286 1451.81,-652.397"/>
<text text-anchor="middle" x="1398" y="-801.8" font-family="Times,serif" font-size="14.00">u0001</text>
</g>
<!-- 22&#45;&gt;4 -->
<g id="edge28" class="edge"><title>22&#45;&gt;4</title>
<path fill="none" stroke="black" d="M1351.98,-883.336C1392.29,-890.175 1494.43,-901 1549,-848 1572.34,-825.331 1580.3,-729.666 1582.86,-681.279"/>
<polygon fill="black" stroke="black" points="1586.36,-681.322 1583.36,-671.163 1579.37,-680.981 1586.36,-681.322"/>
<text text-anchor="middle" x="1462" y="-891.8" font-family="Times,serif" font-size="14.00">u0002</text>
</g>
<!-- 14&#45;&gt;4 -->
<g id="edge31" class="edge"><title>14&#45;&gt;4</title>
<path fill="none" stroke="black" d="M1096.08,-755.954C1103.15,-757.075 1111.45,-758.259 1119,-759 1175.68,-764.565 1190.08,-763.222 1247,-765 1275.43,-765.888 1282.55,-765.778 1311,-766 1331.44,-766.16 1336.75,-768.794 1357,-766 1415.54,-757.924 1429.09,-749.151 1485,-730 1514.05,-720.05 1525.08,-723.248 1549,-704 1557.78,-696.931 1565.25,-687.081 1571,-677.921"/>
<polygon fill="black" stroke="black" points="1574.13,-679.515 1576.17,-669.119 1568.09,-675.972 1574.13,-679.515"/>
<text text-anchor="middle" x="1334" y="-771.8" font-family="Times,serif" font-size="14.00">u0002</text>
</g>
<!-- 23 -->
<g id="node20" class="node"><title>23</title>
<ellipse fill="none" stroke="black" cx="1206" cy="-710" rx="18" ry="18"/>
</g>
<!-- 14&#45;&gt;23 -->
<g id="edge30" class="edge"><title>14&#45;&gt;23</title>
<path fill="none" stroke="black" d="M1095.21,-747.467C1116.48,-740.21 1154.03,-727.394 1179.22,-718.799"/>
<polygon fill="black" stroke="black" points="1180.51,-722.055 1188.85,-715.512 1178.25,-715.43 1180.51,-722.055"/>
<text text-anchor="middle" x="1142" y="-743.8" font-family="Times,serif" font-size="14.00">u0003</text>
</g>
<!-- 17 -->
<g id="node21" class="node"><title>17</title>
<ellipse fill="none" stroke="black" cx="1334" cy="-626" rx="18" ry="18"/>
</g>
<!-- 14&#45;&gt;17 -->
<g id="edge32" class="edge"><title>14&#45;&gt;17</title>
<path fill="none" stroke="black" d="M1090.9,-740.384C1109.05,-721.86 1145.52,-687.403 1183,-668 1184.41,-667.271 1264.25,-645.071 1306.86,-633.249"/>
<polygon fill="black" stroke="black" points="1307.87,-636.6 1316.57,-630.554 1306,-629.854 1307.87,-636.6"/>
<text text-anchor="middle" x="1206" y="-671.8" font-family="Times,serif" font-size="14.00">u0001</text>
</g>
<!-- 23&#45;&gt;17 -->
<g id="edge33" class="edge"><title>23&#45;&gt;17</title>
<path fill="none" stroke="black" d="M1222.53,-702.653C1240.25,-693.978 1269.78,-678.613 1293,-662 1299.95,-657.031 1307.03,-651.021 1313.27,-645.347"/>
<polygon fill="black" stroke="black" points="1315.74,-647.831 1320.65,-638.443 1310.95,-642.721 1315.74,-647.831"/>
<text text-anchor="middle" x="1270" y="-693.8" font-family="Times,serif" font-size="14.00">u0003</text>
</g>
<!-- 17&#45;&gt;27 -->
<g id="edge34" class="edge"><title>17&#45;&gt;27</title>
<path fill="none" stroke="black" d="M1352.26,-626C1373.27,-626 1409.03,-626 1433.77,-626"/>
<polygon fill="black" stroke="black" points="1433.95,-629.5 1443.95,-626 1433.95,-622.5 1433.95,-629.5"/>
<text text-anchor="middle" x="1398" y="-629.8" font-family="Times,serif" font-size="14.00">u0003</text>
</g>
<!-- 5&#45;&gt;4 -->
<g id="edge36" class="edge"><title>5&#45;&gt;4</title>
<path fill="none" stroke="black" d="M470.798,-358.817C478.739,-283.509 513.699,-0 590,-0 590,-0 590,-0 1463,-0 1506.56,-0 1525.71,-10.1921 1549,-47 1580.12,-96.1783 1583.59,-511.68 1583.96,-624.712"/>
<polygon fill="black" stroke="black" points="1580.46,-624.983 1583.99,-634.973 1587.46,-624.964 1580.46,-624.983"/>
<text text-anchor="middle" x="1014" y="-3.8" font-family="Times,serif" font-size="14.00">u0002</text>
</g>
<!-- 9 -->
<g id="node23" class="node"><title>9</title>
<ellipse fill="none" stroke="black" cx="591" cy="-242" rx="18" ry="18"/>
</g>
<!-- 5&#45;&gt;9 -->
<g id="edge35" class="edge"><title>5&#45;&gt;9</title>
<path fill="none" stroke="black" d="M480.602,-364.056C501.598,-340.63 546.063,-291.021 571.364,-262.792"/>
<polygon fill="black" stroke="black" points="574.187,-264.886 578.255,-255.104 568.975,-260.214 574.187,-264.886"/>
<text text-anchor="middle" x="532" y="-333.8" font-family="Times,serif" font-size="14.00">u0003</text>
</g>
<!-- 10 -->
<g id="node32" class="node"><title>10</title>
<ellipse fill="none" stroke="black" cx="1078" cy="-446" rx="18" ry="18"/>
</g>
<!-- 5&#45;&gt;10 -->
<g id="edge37" class="edge"><title>5&#45;&gt;10</title>
<path fill="none" stroke="black" d="M482.605,-387.866C504.086,-403.895 547.772,-432 590,-432 590,-432 590,-432 951,-432 985.28,-432 1024.49,-437.182 1049.94,-441.241"/>
<polygon fill="black" stroke="black" points="1049.51,-444.718 1059.95,-442.893 1050.65,-437.811 1049.51,-444.718"/>
<text text-anchor="middle" x="768" y="-435.8" font-family="Times,serif" font-size="14.00">u0001</text>
</g>
<!-- 9&#45;&gt;4 -->
<g id="edge39" class="edge"><title>9&#45;&gt;4</title>
<path fill="none" stroke="black" d="M594.031,-223.912C600.58,-175.391 625.755,-46 708,-46 708,-46 708,-46 1463,-46 1506.14,-46 1525.52,-54.8092 1549,-91 1578.19,-135.997 1583.05,-516.871 1583.85,-624.674"/>
<polygon fill="black" stroke="black" points="1580.35,-624.814 1583.92,-634.79 1587.35,-624.767 1580.35,-624.814"/>
<text text-anchor="middle" x="1078" y="-49.8" font-family="Times,serif" font-size="14.00">u0002</text>
</g>
<!-- 15 -->
<g id="node24" class="node"><title>15</title>
<ellipse fill="none" stroke="black" cx="950" cy="-265" rx="18" ry="18"/>
</g>
<!-- 9&#45;&gt;15 -->
<g id="edge38" class="edge"><title>9&#45;&gt;15</title>
<path fill="none" stroke="black" d="M609.083,-243.545C614.78,-244.039 621.161,-244.568 627,-245 736.185,-253.069 866.362,-260.476 921.819,-263.528"/>
<polygon fill="black" stroke="black" points="921.709,-267.027 931.886,-264.079 922.092,-260.037 921.709,-267.027"/>
<text text-anchor="middle" x="768" y="-259.8" font-family="Times,serif" font-size="14.00">u0003</text>
</g>
<!-- 16 -->
<g id="node27" class="node"><title>16</title>
<ellipse fill="none" stroke="black" cx="709" cy="-192" rx="18" ry="18"/>
</g>
<!-- 9&#45;&gt;16 -->
<g id="edge40" class="edge"><title>9&#45;&gt;16</title>
<path fill="none" stroke="black" d="M608.129,-235.048C627.435,-226.726 659.992,-212.693 682.666,-202.92"/>
<polygon fill="black" stroke="black" points="684.21,-206.066 692.008,-198.893 681.439,-199.637 684.21,-206.066"/>
<text text-anchor="middle" x="650" y="-229.8" font-family="Times,serif" font-size="14.00">u0001</text>
</g>
<!-- 15&#45;&gt;4 -->
<g id="edge42" class="edge"><title>15&#45;&gt;4</title>
<path fill="none" stroke="black" d="M963.17,-252.71C966.845,-248.376 970.551,-243.263 973,-238 991.128,-199.037 960.563,-173.336 991,-143 1018.54,-115.555 1038.12,-127 1077,-127 1077,-127 1077,-127 1463,-127 1522.64,-127 1526.38,-174.822 1549,-230 1578.43,-301.775 1583.13,-541.614 1583.87,-624.519"/>
<polygon fill="black" stroke="black" points="1580.37,-624.734 1583.94,-634.707 1587.37,-624.681 1580.37,-624.734"/>
<text text-anchor="middle" x="1270" y="-130.8" font-family="Times,serif" font-size="14.00">u0002</text>
</g>
<!-- 15&#45;&gt;24 -->
<g id="edge41" class="edge"><title>15&#45;&gt;24</title>
<path fill="none" stroke="black" d="M966.123,-273.591C973.423,-277.367 982.439,-281.502 991,-284 1056.08,-302.989 1136.62,-304.592 1177.86,-303.924"/>
<polygon fill="black" stroke="black" points="1178.02,-307.422 1187.94,-303.702 1177.87,-300.423 1178.02,-307.422"/>
<text text-anchor="middle" x="1078" y="-305.8" font-family="Times,serif" font-size="14.00">u0003</text>
</g>
<!-- 25 -->
<g id="node25" class="node"><title>25</title>
<ellipse fill="none" stroke="black" cx="1078" cy="-265" rx="18" ry="18"/>
</g>
<!-- 15&#45;&gt;25 -->
<g id="edge43" class="edge"><title>15&#45;&gt;25</title>
<path fill="none" stroke="black" d="M968.256,-265C989.274,-265 1025.03,-265 1049.77,-265"/>
<polygon fill="black" stroke="black" points="1049.95,-268.5 1059.95,-265 1049.95,-261.5 1049.95,-268.5"/>
<text text-anchor="middle" x="1014" y="-268.8" font-family="Times,serif" font-size="14.00">u0001</text>
</g>
<!-- 25&#45;&gt;4 -->
<g id="edge45" class="edge"><title>25&#45;&gt;4</title>
<path fill="none" stroke="black" d="M1090.13,-251.638C1100.65,-239.135 1115.37,-222.076 1119,-220 1152.82,-200.652 1166.04,-203 1205,-203 1205,-203 1205,-203 1463,-203 1550.82,-203 1576.71,-526.666 1582.55,-625.002"/>
<polygon fill="black" stroke="black" points="1579.06,-625.297 1583.13,-635.082 1586.05,-624.899 1579.06,-625.297"/>
<text text-anchor="middle" x="1334" y="-206.8" font-family="Times,serif" font-size="14.00">u0002</text>
</g>
<!-- 29 -->
<g id="node26" class="node"><title>29</title>
<ellipse fill="none" stroke="black" cx="1206" cy="-395" rx="18" ry="18"/>
</g>
<!-- 25&#45;&gt;29 -->
<g id="edge44" class="edge"><title>25&#45;&gt;29</title>
<path fill="none" stroke="black" d="M1093.59,-274.332C1111.73,-286.4 1142.99,-308.765 1165,-333 1175.19,-344.223 1184.51,-358.322 1191.58,-370.237"/>
<polygon fill="black" stroke="black" points="1188.73,-372.301 1196.75,-379.229 1194.8,-368.815 1188.73,-372.301"/>
<text text-anchor="middle" x="1142" y="-336.8" font-family="Times,serif" font-size="14.00">u0003</text>
</g>
<!-- 29&#45;&gt;17 -->
<g id="edge46" class="edge"><title>29&#45;&gt;17</title>
<path fill="none" stroke="black" d="M1219.26,-407.246C1222.95,-411.578 1226.63,-416.7 1229,-422 1249.92,-468.833 1215.23,-495.726 1247,-536 1260.7,-553.367 1276.44,-540.336 1293,-555 1306.6,-567.04 1316.62,-584.859 1323.23,-599.633"/>
<polygon fill="black" stroke="black" points="1320.17,-601.395 1327.26,-609.267 1326.63,-598.691 1320.17,-601.395"/>
<text text-anchor="middle" x="1270" y="-558.8" font-family="Times,serif" font-size="14.00">u0001</text>
</g>
<!-- 16&#45;&gt;20 -->
<g id="edge47" class="edge"><title>16&#45;&gt;20</title>
<path fill="none" stroke="black" d="M726.243,-185.738C748.427,-177.762 789.608,-165 826,-165 826,-165 826,-165 1143,-165 1253.05,-165 1248.77,-261.234 1293,-362 1303.23,-385.303 1314.44,-412.032 1322.38,-431.19"/>
<polygon fill="black" stroke="black" points="1319.16,-432.556 1326.21,-440.46 1325.63,-429.881 1319.16,-432.556"/>
<text text-anchor="middle" x="1014" y="-168.8" font-family="Times,serif" font-size="14.00">u0003</text>
</g>
<!-- 16&#45;&gt;4 -->
<g id="edge48" class="edge"><title>16&#45;&gt;4</title>
<path fill="none" stroke="black" d="M718.174,-176.357C734.485,-147.543 774.021,-89 826,-89 826,-89 826,-89 1463,-89 1506.35,-89 1525.48,-98.5898 1549,-135 1575.63,-176.228 1582.28,-522.289 1583.67,-624.613"/>
<polygon fill="black" stroke="black" points="1580.18,-624.847 1583.81,-634.801 1587.18,-624.757 1580.18,-624.847"/>
<text text-anchor="middle" x="1142" y="-92.8" font-family="Times,serif" font-size="14.00">u0002</text>
</g>
<!-- 26 -->
<g id="node28" class="node"><title>26</title>
<ellipse fill="none" stroke="black" cx="827" cy="-211" rx="18" ry="18"/>
</g>
<!-- 16&#45;&gt;26 -->
<g id="edge49" class="edge"><title>16&#45;&gt;26</title>
<path fill="none" stroke="black" d="M727.116,-194.804C746.072,-197.908 776.882,-202.955 799.077,-206.59"/>
<polygon fill="black" stroke="black" points="798.756,-210.084 809.191,-208.247 799.888,-203.176 798.756,-210.084"/>
<text text-anchor="middle" x="768" y="-208.8" font-family="Times,serif" font-size="14.00">u0001</text>
</g>
<!-- 30 -->
<g id="node29" class="node"><title>30</title>
<ellipse fill="none" stroke="black" cx="950" cy="-211" rx="18" ry="18"/>
</g>
<!-- 26&#45;&gt;30 -->
<g id="edge50" class="edge"><title>26&#45;&gt;30</title>
<path fill="none" stroke="black" d="M845.08,-211C864.965,-211 898.077,-211 921.577,-211"/>
<polygon fill="black" stroke="black" points="921.615,-214.5 931.615,-211 921.615,-207.5 921.615,-214.5"/>
<text text-anchor="middle" x="886" y="-214.8" font-family="Times,serif" font-size="14.00">u0003</text>
</g>
<!-- 31 -->
<g id="node30" class="node"><title>31</title>
<ellipse fill="none" stroke="black" cx="1078" cy="-211" rx="18" ry="18"/>
</g>
<!-- 30&#45;&gt;31 -->
<g id="edge51" class="edge"><title>30&#45;&gt;31</title>
<path fill="none" stroke="black" d="M968.256,-211C989.274,-211 1025.03,-211 1049.77,-211"/>
<polygon fill="black" stroke="black" points="1049.95,-214.5 1059.95,-211 1049.95,-207.5 1049.95,-214.5"/>
<text text-anchor="middle" x="1014" y="-214.8" font-family="Times,serif" font-size="14.00">u0001</text>
</g>
<!-- 32 -->
<g id="node31" class="node"><title>32</title>
<ellipse fill="none" stroke="black" cx="1206" cy="-249" rx="18" ry="18"/>
</g>
<!-- 31&#45;&gt;32 -->
<g id="edge52" class="edge"><title>31&#45;&gt;32</title>
<path fill="none" stroke="black" d="M1095.47,-215.968C1116.7,-222.369 1153.84,-233.57 1178.92,-241.134"/>
<polygon fill="black" stroke="black" points="1177.94,-244.494 1188.52,-244.031 1179.96,-237.793 1177.94,-244.494"/>
<text text-anchor="middle" x="1142" y="-240.8" font-family="Times,serif" font-size="14.00">u0001</text>
</g>
<!-- 32&#45;&gt;20 -->
<g id="edge53" class="edge"><title>32&#45;&gt;20</title>
<path fill="none" stroke="black" d="M1219.32,-261.6C1222.91,-265.878 1226.53,-270.879 1229,-276 1245.37,-310.011 1222.79,-330.041 1247,-359 1261.19,-375.97 1276.77,-362.973 1293,-378 1308.13,-392.011 1318.39,-413.033 1324.73,-429.869"/>
<polygon fill="black" stroke="black" points="1321.56,-431.43 1328.17,-439.712 1328.17,-429.117 1321.56,-431.43"/>
<text text-anchor="middle" x="1270" y="-381.8" font-family="Times,serif" font-size="14.00">u0001</text>
</g>
<!-- 10&#45;&gt;4 -->
<g id="edge55" class="edge"><title>10&#45;&gt;4</title>
<path fill="none" stroke="black" d="M1094.09,-437.376C1111.91,-426.849 1142.03,-407.969 1165,-388 1174.02,-380.154 1173.12,-374.736 1183,-368 1247.45,-324.059 1284.19,-316.994 1357,-345 1467.6,-387.545 1492.34,-425.922 1549,-530 1565.51,-560.335 1574.88,-599.223 1579.69,-625.067"/>
<polygon fill="black" stroke="black" points="1576.25,-625.706 1581.43,-634.95 1583.14,-624.495 1576.25,-625.706"/>
<text text-anchor="middle" x="1334" y="-348.8" font-family="Times,serif" font-size="14.00">u0002</text>
</g>
<!-- 10&#45;&gt;17 -->
<g id="edge54" class="edge"><title>10&#45;&gt;17</title>
<path fill="none" stroke="black" d="M1094.04,-454.66C1101.47,-458.841 1110.62,-463.84 1119,-468 1166.93,-491.806 1195.79,-475.033 1229,-517 1255.67,-550.697 1216.22,-582.009 1247,-612 1262.29,-626.896 1286.85,-629.624 1305.81,-629.073"/>
<polygon fill="black" stroke="black" points="1306.18,-632.558 1315.95,-628.462 1305.76,-625.57 1306.18,-632.558"/>
<text text-anchor="middle" x="1206" y="-520.8" font-family="Times,serif" font-size="14.00">u0003</text>
</g>
<!-- 18 -->
<g id="node33" class="node"><title>18</title>
<ellipse fill="none" stroke="black" cx="1206" cy="-449" rx="18" ry="18"/>
</g>
<!-- 10&#45;&gt;18 -->
<g id="edge56" class="edge"><title>10&#45;&gt;18</title>
<path fill="none" stroke="black" d="M1096.26,-446.411C1117.27,-446.911 1153.03,-447.763 1177.77,-448.352"/>
<polygon fill="black" stroke="black" points="1177.87,-451.855 1187.95,-448.594 1178.04,-444.857 1177.87,-451.855"/>
<text text-anchor="middle" x="1142" y="-452.8" font-family="Times,serif" font-size="14.00">u0001</text>
</g>
<!-- 18&#45;&gt;20 -->
<g id="edge59" class="edge"><title>18&#45;&gt;20</title>
<path fill="none" stroke="black" d="M1223.99,-450.079C1244.94,-451.409 1280.81,-453.686 1305.65,-455.264"/>
<polygon fill="black" stroke="black" points="1305.67,-458.772 1315.87,-455.913 1306.12,-451.786 1305.67,-458.772"/>
<text text-anchor="middle" x="1270" y="-458.8" font-family="Times,serif" font-size="14.00">u0001</text>
</g>
<!-- 18&#45;&gt;4 -->
<g id="edge58" class="edge"><title>18&#45;&gt;4</title>
<path fill="none" stroke="black" d="M1219.17,-436.326C1222.76,-432.044 1226.41,-427.059 1229,-422 1243.05,-394.553 1222.53,-373.762 1247,-355 1263.22,-342.56 1274.16,-347.064 1293,-355 1429.32,-412.417 1533.58,-568.343 1569.98,-628.691"/>
<polygon fill="black" stroke="black" points="1567.12,-630.72 1575.24,-637.526 1573.14,-627.142 1567.12,-630.72"/>
<text text-anchor="middle" x="1398" y="-443.8" font-family="Times,serif" font-size="14.00">u0002</text>
</g>
<!-- 18&#45;&gt;17 -->
<g id="edge57" class="edge"><title>18&#45;&gt;17</title>
<path fill="none" stroke="black" d="M1218.19,-462.608C1222.15,-468.039 1226.29,-474.533 1229,-481 1245.27,-519.83 1221.55,-540.463 1247,-574 1260.82,-592.208 1273.46,-585.141 1293,-597 1298.97,-600.621 1305.18,-604.871 1310.88,-608.983"/>
<polygon fill="black" stroke="black" points="1309.19,-612.086 1319.32,-615.222 1313.36,-606.46 1309.19,-612.086"/>
<text text-anchor="middle" x="1270" y="-600.8" font-family="Times,serif" font-size="14.00">u0003</text>
</g>
<!-- initial -->
<g id="node34" class="node"><title>initial</title>
</g>
<!-- initial&#45;&gt;0 -->
<g id="edge60" class="edge"><title>initial&#45;&gt;0</title>
<path fill="none" stroke="black" d="M54.195,-888C62.6538,-888 72.0513,-888 80.5951,-888"/>
<polygon fill="black" stroke="black" points="80.8257,-891.5 90.8257,-888 80.8257,-884.5 80.8257,-891.5"/>
</g>
</g>
</svg>
