<svg width="1647px" height="347px"
 viewBox="0.00 0.00 1235.00 260.00" xmlns="http://www.w3.org/2000/svg" xmlns:xlink="http://www.w3.org/1999/xlink">
<g id="graph0" class="graph" transform="scale(1.000022500562514 1.000022500562514) rotate(0) translate(4 256)">
<title>Automaton</title>
<polygon fill="white" stroke="none" points="-4,4 -4,-256 1231,-256 1231,4 -4,4"/>
<!-- 0 -->
<g id="node1" class="node"><title>0</title>
<ellipse fill="none" stroke="black" cx="109" cy="-18" rx="18" ry="18"/>
</g>
<!-- 1 -->
<g id="node2" class="node"><title>1</title>
<ellipse fill="none" stroke="black" cx="227" cy="-18" rx="18" ry="18"/>
</g>
<!-- 0&#45;&gt;1 -->
<g id="edge1" class="edge"><title>0&#45;&gt;1</title>
<path fill="none" stroke="black" d="M127.116,-18C145.964,-18 176.531,-18 198.696,-18"/>
<polygon fill="black" stroke="black" points="198.814,-21.5001 208.814,-18 198.814,-14.5001 198.814,-21.5001"/>
<text text-anchor="middle" x="168" y="-21.8" font-family="Times,serif" font-size="14.00">u0000</text>
</g>
<!-- 2 -->
<g id="node3" class="node"><title>2</title>
<ellipse fill="none" stroke="black" cx="345" cy="-48" rx="18" ry="18"/>
</g>
<!-- 1&#45;&gt;2 -->
<g id="edge2" class="edge"><title>1&#45;&gt;2</title>
<path fill="none" stroke="black" d="M244.62,-22.2983C263.657,-27.2216 295.103,-35.3543 317.523,-41.1525"/>
<polygon fill="black" stroke="black" points="316.853,-44.5943 327.411,-43.7097 318.606,-37.8173 316.853,-44.5943"/>
<text text-anchor="middle" x="286" y="-41.8" font-family="Times,serif" font-size="14.00">u0002</text>
</g>
<!-- 3 -->
<g id="node9" class="node"><title>3</title>
<ellipse fill="none" stroke="black" cx="1083" cy="-114" rx="18" ry="18"/>
</g>
<!-- 1&#45;&gt;3 -->
<g id="edge3" class="edge"><title>1&#45;&gt;3</title>
<path fill="none" stroke="black" d="M244.805,-14.2082C267.28,-9.47681 308.423,-2 344,-2 344,-2 344,-2 961,-2 1005.44,-2 1015.8,-21.3529 1047,-53 1056.91,-63.054 1065.01,-76.4698 1070.91,-88.1597"/>
<polygon fill="black" stroke="black" points="1067.88,-89.9392 1075.34,-97.4615 1074.2,-86.9284 1067.88,-89.9392"/>
<text text-anchor="middle" x="640" y="-5.8" font-family="Times,serif" font-size="14.00">u0001</text>
</g>
<!-- 4 -->
<g id="node4" class="node"><title>4</title>
<ellipse fill="none" stroke="black" cx="463" cy="-94" rx="18" ry="18"/>
</g>
<!-- 2&#45;&gt;4 -->
<g id="edge4" class="edge"><title>2&#45;&gt;4</title>
<path fill="none" stroke="black" d="M362.024,-54.4264C367.98,-56.8106 374.797,-59.5341 381,-62 399.441,-69.331 420.265,-77.5563 436.18,-83.8318"/>
<polygon fill="black" stroke="black" points="435.268,-87.2346 445.855,-87.6452 437.835,-80.7222 435.268,-87.2346"/>
<text text-anchor="middle" x="404" y="-82.8" font-family="Times,serif" font-size="14.00">u0002</text>
</g>
<!-- 2&#45;&gt;3 -->
<g id="edge5" class="edge"><title>2&#45;&gt;3</title>
<path fill="none" stroke="black" d="M363.295,-48C385.962,-48 426.958,-48 462,-48 462,-48 462,-48 961,-48 1000.43,-48 1039.23,-75.3399 1061.87,-94.827"/>
<polygon fill="black" stroke="black" points="1059.66,-97.5455 1069.46,-101.586 1064.32,-92.3197 1059.66,-97.5455"/>
<text text-anchor="middle" x="704" y="-51.8" font-family="Times,serif" font-size="14.00">u0001</text>
</g>
<!-- 6 -->
<g id="node5" class="node"><title>6</title>
<ellipse fill="none" stroke="black" cx="581" cy="-137" rx="18" ry="18"/>
</g>
<!-- 4&#45;&gt;6 -->
<g id="edge6" class="edge"><title>4&#45;&gt;6</title>
<path fill="none" stroke="black" d="M480.129,-99.979C499.24,-107.063 531.337,-118.961 553.977,-127.354"/>
<polygon fill="black" stroke="black" points="553.041,-130.739 563.634,-130.933 555.474,-124.176 553.041,-130.739"/>
<text text-anchor="middle" x="522" y="-126.8" font-family="Times,serif" font-size="14.00">u0002</text>
</g>
<!-- 4&#45;&gt;3 -->
<g id="edge7" class="edge"><title>4&#45;&gt;3</title>
<path fill="none" stroke="black" d="M481.291,-93.2738C503.955,-92.3859 544.947,-91 580,-91 580,-91 580,-91 961,-91 993.969,-91 1031.12,-99.343 1055.45,-105.979"/>
<polygon fill="black" stroke="black" points="1054.78,-109.427 1065.36,-108.781 1056.69,-102.692 1054.78,-109.427"/>
<text text-anchor="middle" x="768" y="-94.8" font-family="Times,serif" font-size="14.00">u0001</text>
</g>
<!-- 7 -->
<g id="node6" class="node"><title>7</title>
<ellipse fill="none" stroke="black" cx="704" cy="-185" rx="18" ry="18"/>
</g>
<!-- 6&#45;&gt;7 -->
<g id="edge8" class="edge"><title>6&#45;&gt;7</title>
<path fill="none" stroke="black" d="M598.025,-143.426C603.981,-145.81 610.797,-148.533 617,-151 637.328,-159.084 660.38,-168.194 677.498,-174.949"/>
<polygon fill="black" stroke="black" points="676.238,-178.214 686.825,-178.628 678.807,-171.702 676.238,-178.214"/>
<text text-anchor="middle" x="640" y="-171.8" font-family="Times,serif" font-size="14.00">u0002</text>
</g>
<!-- 6&#45;&gt;3 -->
<g id="edge9" class="edge"><title>6&#45;&gt;3</title>
<path fill="none" stroke="black" d="M599.232,-137C622.701,-137 666.028,-137 703,-137 703,-137 703,-137 961,-137 993.969,-137 1031.12,-128.657 1055.45,-122.021"/>
<polygon fill="black" stroke="black" points="1056.69,-125.308 1065.36,-119.219 1054.78,-118.573 1056.69,-125.308"/>
<text text-anchor="middle" x="832" y="-140.8" font-family="Times,serif" font-size="14.00">u0001</text>
</g>
<!-- 8 -->
<g id="node7" class="node"><title>8</title>
<ellipse fill="none" stroke="black" cx="832" cy="-188" rx="18" ry="18"/>
</g>
<!-- 7&#45;&gt;8 -->
<g id="edge10" class="edge"><title>7&#45;&gt;8</title>
<path fill="none" stroke="black" d="M722.256,-185.411C743.274,-185.911 779.031,-186.763 803.775,-187.352"/>
<polygon fill="black" stroke="black" points="803.872,-190.855 813.953,-187.594 804.039,-183.857 803.872,-190.855"/>
<text text-anchor="middle" x="768" y="-190.8" font-family="Times,serif" font-size="14.00">u0002</text>
</g>
<!-- 9 -->
<g id="node8" class="node"><title>9</title>
<ellipse fill="none" stroke="black" cx="960" cy="-234" rx="18" ry="18"/>
</g>
<!-- 8&#45;&gt;9 -->
<g id="edge11" class="edge"><title>8&#45;&gt;9</title>
<path fill="none" stroke="black" d="M849.214,-193.92C870.478,-201.683 908.033,-215.393 933.218,-224.587"/>
<polygon fill="black" stroke="black" points="932.254,-227.961 942.848,-228.103 934.655,-221.386 932.254,-227.961"/>
<text text-anchor="middle" x="896" y="-222.8" font-family="Times,serif" font-size="14.00">u0002</text>
</g>
<!-- 8&#45;&gt;3 -->
<g id="edge12" class="edge"><title>8&#45;&gt;3</title>
<path fill="none" stroke="black" d="M850.269,-188.587C888.241,-189.147 980.875,-186.456 1047,-151 1053.86,-147.323 1060.14,-141.802 1065.42,-136.139"/>
<polygon fill="black" stroke="black" points="1068.13,-138.359 1071.98,-128.489 1062.82,-133.804 1068.13,-138.359"/>
<text text-anchor="middle" x="960" y="-186.8" font-family="Times,serif" font-size="14.00">u0001</text>
</g>
<!-- 9&#45;&gt;3 -->
<g id="edge13" class="edge"><title>9&#45;&gt;3</title>
<path fill="none" stroke="black" d="M978.022,-230.678C997.105,-226.139 1027.88,-216.263 1047,-197 1062.01,-181.878 1070.96,-159.34 1076.04,-141.564"/>
<polygon fill="black" stroke="black" points="1079.47,-142.3 1078.61,-131.741 1072.7,-140.532 1079.47,-142.3"/>
<text text-anchor="middle" x="1024" y="-226.8" font-family="Times,serif" font-size="14.00">u0001</text>
</g>
<!-- 5 -->
<g id="node10" class="node"><title>5</title>
<ellipse fill="none" stroke="black" cx="1205" cy="-114" rx="18" ry="18"/>
<ellipse fill="none" stroke="black" cx="1205" cy="-114" rx="22" ry="22"/>
</g>
<!-- 3&#45;&gt;5 -->
<g id="edge14" class="edge"><title>3&#45;&gt;5</title>
<path fill="none" stroke="black" d="M1101.19,-114C1119.77,-114 1149.76,-114 1172.57,-114"/>
<polygon fill="black" stroke="black" points="1172.79,-117.5 1182.79,-114 1172.79,-110.5 1172.79,-117.5"/>
<text text-anchor="middle" x="1142" y="-117.8" font-family="Times,serif" font-size="14.00">u0003</text>
</g>
<!-- initial -->
<g id="node11" class="node"><title>initial</title>
</g>
<!-- initial&#45;&gt;0 -->
<g id="edge15" class="edge"><title>initial&#45;&gt;0</title>
<path fill="none" stroke="black" d="M54.195,-18C62.6538,-18 72.0513,-18 80.5951,-18"/>
<polygon fill="black" stroke="black" points="80.8257,-21.5001 90.8257,-18 80.8257,-14.5001 80.8257,-21.5001"/>
</g>
</g>
</svg>
