<svg width="1292px" height="103px"
 viewBox="0.00 0.00 969.00 77.00" xmlns="http://www.w3.org/2000/svg" xmlns:xlink="http://www.w3.org/1999/xlink">
<g id="graph0" class="graph" transform="scale(1.000022500562514 1.000022500562514) rotate(0) translate(4 73)">
<title>Automaton</title>
<polygon fill="white" stroke="none" points="-4,4 -4,-73 965,-73 965,4 -4,4"/>
<!-- 0 -->
<g id="node1" class="node"><title>0</title>
<ellipse fill="none" stroke="black" cx="109" cy="-49" rx="18" ry="18"/>
</g>
<!-- 1 -->
<g id="node2" class="node"><title>1</title>
<ellipse fill="none" stroke="black" cx="227" cy="-49" rx="18" ry="18"/>
</g>
<!-- 0&#45;&gt;1 -->
<g id="edge1" class="edge"><title>0&#45;&gt;1</title>
<path fill="none" stroke="black" d="M127.116,-49C145.964,-49 176.531,-49 198.696,-49"/>
<polygon fill="black" stroke="black" points="198.814,-52.5001 208.814,-49 198.814,-45.5001 198.814,-52.5001"/>
<text text-anchor="middle" x="168" y="-52.8" font-family="Times,serif" font-size="14.00">u0000</text>
</g>
<!-- 2 -->
<g id="node3" class="node"><title>2</title>
<ellipse fill="none" stroke="black" cx="345" cy="-49" rx="18" ry="18"/>
</g>
<!-- 1&#45;&gt;2 -->
<g id="edge2" class="edge"><title>1&#45;&gt;2</title>
<path fill="none" stroke="black" d="M245.116,-49C263.964,-49 294.531,-49 316.696,-49"/>
<polygon fill="black" stroke="black" points="316.814,-52.5001 326.814,-49 316.814,-45.5001 316.814,-52.5001"/>
<text text-anchor="middle" x="286" y="-52.8" font-family="Times,serif" font-size="14.00">u0004</text>
</g>
<!-- 3 -->
<g id="node4" class="node"><title>3</title>
<ellipse fill="none" stroke="black" cx="463" cy="-49" rx="18" ry="18"/>
</g>
<!-- 2&#45;&gt;3 -->
<g id="edge3" class="edge"><title>2&#45;&gt;3</title>
<path fill="none" stroke="black" d="M363.116,-49C381.964,-49 412.531,-49 434.696,-49"/>
<polygon fill="black" stroke="black" points="434.814,-52.5001 444.814,-49 434.814,-45.5001 434.814,-52.5001"/>
<text text-anchor="middle" x="404" y="-52.8" font-family="Times,serif" font-size="14.00">u0005</text>
</g>
<!-- 4 -->
<g id="node5" class="node"><title>4</title>
<ellipse fill="none" stroke="black" cx="817" cy="-45" rx="18" ry="18"/>
</g>
<!-- 3&#45;&gt;4 -->
<g id="edge4" class="edge"><title>3&#45;&gt;4</title>
<path fill="none" stroke="black" d="M481.211,-49.9481C528.911,-52.3829 666.815,-58.1149 781,-50 783.572,-49.8172 786.241,-49.5599 788.908,-49.2573"/>
<polygon fill="black" stroke="black" points="789.507,-52.7086 798.962,-47.9285 788.59,-45.769 789.507,-52.7086"/>
<text text-anchor="middle" x="640" y="-57.8" font-family="Times,serif" font-size="14.00">u0002</text>
</g>
<!-- 5 -->
<g id="node7" class="node"><title>5</title>
<ellipse fill="none" stroke="black" cx="581" cy="-18" rx="18" ry="18"/>
</g>
<!-- 3&#45;&gt;5 -->
<g id="edge5" class="edge"><title>3&#45;&gt;5</title>
<path fill="none" stroke="black" d="M479.822,-41.9944C485.756,-39.5475 492.61,-36.9324 499,-35 516.656,-29.6601 536.973,-25.4008 552.843,-22.4812"/>
<polygon fill="black" stroke="black" points="553.795,-25.8671 563.031,-20.6771 552.574,-18.9744 553.795,-25.8671"/>
<text text-anchor="middle" x="522" y="-38.8" font-family="Times,serif" font-size="14.00">u0001</text>
</g>
<!-- 6 -->
<g id="node6" class="node"><title>6</title>
<ellipse fill="none" stroke="black" cx="939" cy="-45" rx="18" ry="18"/>
<ellipse fill="none" stroke="black" cx="939" cy="-45" rx="22" ry="22"/>
</g>
<!-- 4&#45;&gt;6 -->
<g id="edge6" class="edge"><title>4&#45;&gt;6</title>
<path fill="none" stroke="black" d="M835.193,-45C853.767,-45 883.762,-45 906.57,-45"/>
<polygon fill="black" stroke="black" points="906.793,-48.5001 916.792,-45 906.792,-41.5001 906.793,-48.5001"/>
<text text-anchor="middle" x="876" y="-48.8" font-family="Times,serif" font-size="14.00">u0003</text>
</g>
<!-- 7 -->
<g id="node8" class="node"><title>7</title>
<ellipse fill="none" stroke="black" cx="699" cy="-18" rx="18" ry="18"/>
</g>
<!-- 5&#45;&gt;7 -->
<g id="edge7" class="edge"><title>5&#45;&gt;7</title>
<path fill="none" stroke="black" d="M599.116,-18C617.964,-18 648.531,-18 670.696,-18"/>
<polygon fill="black" stroke="black" points="670.814,-21.5001 680.814,-18 670.814,-14.5001 670.814,-21.5001"/>
<text text-anchor="middle" x="640" y="-21.8" font-family="Times,serif" font-size="14.00">u0001</text>
</g>
<!-- 7&#45;&gt;4 -->
<g id="edge8" class="edge"><title>7&#45;&gt;4</title>
<path fill="none" stroke="black" d="M716.834,-21.1689C733.273,-24.349 758.962,-29.5465 781,-35 783.876,-35.7116 786.872,-36.4979 789.847,-37.3076"/>
<polygon fill="black" stroke="black" points="789.109,-40.7357 799.683,-40.0767 791.006,-33.9977 789.109,-40.7357"/>
<text text-anchor="middle" x="758" y="-38.8" font-family="Times,serif" font-size="14.00">u0002</text>
</g>
<!-- initial -->
<g id="node9" class="node"><title>initial</title>
</g>
<!-- initial&#45;&gt;0 -->
<g id="edge9" class="edge"><title>initial&#45;&gt;0</title>
<path fill="none" stroke="black" d="M54.195,-49C62.6538,-49 72.0513,-49 80.5951,-49"/>
<polygon fill="black" stroke="black" points="80.8257,-52.5001 90.8257,-49 80.8257,-45.5001 80.8257,-52.5001"/>
</g>
</g>
</svg>
