<svg width="1135px" height="100px"
 viewBox="0.00 0.00 851.00 75.00" xmlns="http://www.w3.org/2000/svg" xmlns:xlink="http://www.w3.org/1999/xlink">
<g id="graph0" class="graph" transform="scale(1.000022500562514 1.000022500562514) rotate(0) translate(4 71)">
<title>Automaton</title>
<polygon fill="white" stroke="none" points="-4,4 -4,-71 847,-71 847,4 -4,4"/>
<!-- 0 -->
<g id="node1" class="node"><title>0</title>
<ellipse fill="none" stroke="black" cx="109" cy="-19" rx="18" ry="18"/>
</g>
<!-- 1 -->
<g id="node2" class="node"><title>1</title>
<ellipse fill="none" stroke="black" cx="227" cy="-19" rx="18" ry="18"/>
</g>
<!-- 0&#45;&gt;1 -->
<g id="edge1" class="edge"><title>0&#45;&gt;1</title>
<path fill="none" stroke="black" d="M127.116,-19C145.964,-19 176.531,-19 198.696,-19"/>
<polygon fill="black" stroke="black" points="198.814,-22.5001 208.814,-19 198.814,-15.5001 198.814,-22.5001"/>
<text text-anchor="middle" x="168" y="-22.8" font-family="Times,serif" font-size="14.00">u0000</text>
</g>
<!-- 2 -->
<g id="node3" class="node"><title>2</title>
<ellipse fill="none" stroke="black" cx="345" cy="-19" rx="18" ry="18"/>
</g>
<!-- 1&#45;&gt;2 -->
<g id="edge2" class="edge"><title>1&#45;&gt;2</title>
<path fill="none" stroke="black" d="M245.116,-19C263.964,-19 294.531,-19 316.696,-19"/>
<polygon fill="black" stroke="black" points="316.814,-22.5001 326.814,-19 316.814,-15.5001 316.814,-22.5001"/>
<text text-anchor="middle" x="286" y="-22.8" font-family="Times,serif" font-size="14.00">u0002</text>
</g>
<!-- 3 -->
<g id="node4" class="node"><title>3</title>
<ellipse fill="none" stroke="black" cx="463" cy="-19" rx="18" ry="18"/>
</g>
<!-- 2&#45;&gt;3 -->
<g id="edge3" class="edge"><title>2&#45;&gt;3</title>
<path fill="none" stroke="black" d="M363.116,-19C381.964,-19 412.531,-19 434.696,-19"/>
<polygon fill="black" stroke="black" points="434.814,-22.5001 444.814,-19 434.814,-15.5001 434.814,-22.5001"/>
<text text-anchor="middle" x="404" y="-22.8" font-family="Times,serif" font-size="14.00">u0001</text>
</g>
<!-- 4 -->
<g id="node5" class="node"><title>4</title>
<ellipse fill="none" stroke="black" cx="581" cy="-49" rx="18" ry="18"/>
</g>
<!-- 3&#45;&gt;4 -->
<g id="edge4" class="edge"><title>3&#45;&gt;4</title>
<path fill="none" stroke="black" d="M480.62,-23.2983C499.657,-28.2216 531.103,-36.3543 553.523,-42.1525"/>
<polygon fill="black" stroke="black" points="552.853,-45.5943 563.411,-44.7097 554.606,-38.8173 552.853,-45.5943"/>
<text text-anchor="middle" x="522" y="-42.8" font-family="Times,serif" font-size="14.00">u0004</text>
</g>
<!-- 5 -->
<g id="node7" class="node"><title>5</title>
<ellipse fill="none" stroke="black" cx="821" cy="-22" rx="18" ry="18"/>
<ellipse fill="none" stroke="black" cx="821" cy="-22" rx="22" ry="22"/>
</g>
<!-- 3&#45;&gt;5 -->
<g id="edge5" class="edge"><title>3&#45;&gt;5</title>
<path fill="none" stroke="black" d="M481.171,-19.1447C537.185,-19.6167 715.184,-21.1167 788.241,-21.7324"/>
<polygon fill="black" stroke="black" points="788.602,-25.2354 798.632,-21.8199 788.662,-18.2357 788.602,-25.2354"/>
<text text-anchor="middle" x="640" y="-23.8" font-family="Times,serif" font-size="14.00">u0003</text>
</g>
<!-- 6 -->
<g id="node6" class="node"><title>6</title>
<ellipse fill="none" stroke="black" cx="699" cy="-49" rx="18" ry="18"/>
</g>
<!-- 4&#45;&gt;6 -->
<g id="edge6" class="edge"><title>4&#45;&gt;6</title>
<path fill="none" stroke="black" d="M599.116,-49C617.964,-49 648.531,-49 670.696,-49"/>
<polygon fill="black" stroke="black" points="670.814,-52.5001 680.814,-49 670.814,-45.5001 670.814,-52.5001"/>
<text text-anchor="middle" x="640" y="-52.8" font-family="Times,serif" font-size="14.00">u0004</text>
</g>
<!-- 6&#45;&gt;5 -->
<g id="edge7" class="edge"><title>6&#45;&gt;5</title>
<path fill="none" stroke="black" d="M716.685,-45.2458C735.45,-41.0238 766.317,-34.0787 789.435,-28.8772"/>
<polygon fill="black" stroke="black" points="790.452,-32.236 799.439,-26.6261 788.915,-25.4067 790.452,-32.236"/>
<text text-anchor="middle" x="758" y="-44.8" font-family="Times,serif" font-size="14.00">u0003</text>
</g>
<!-- initial -->
<g id="node8" class="node"><title>initial</title>
</g>
<!-- initial&#45;&gt;0 -->
<g id="edge8" class="edge"><title>initial&#45;&gt;0</title>
<path fill="none" stroke="black" d="M54.195,-19C62.6538,-19 72.0513,-19 80.5951,-19"/>
<polygon fill="black" stroke="black" points="80.8257,-22.5001 90.8257,-19 80.8257,-15.5001 80.8257,-22.5001"/>
</g>
</g>
</svg>
