<svg width="2788px" height="617px"
 viewBox="0.00 0.00 2091.00 463.00" xmlns="http://www.w3.org/2000/svg" xmlns:xlink="http://www.w3.org/1999/xlink">
<g id="graph0" class="graph" transform="scale(1.000022500562514 1.000022500562514) rotate(0) translate(4 459)">
<title>Automaton</title>
<polygon fill="white" stroke="none" points="-4,4 -4,-459 2087,-459 2087,4 -4,4"/>
<!-- 0 -->
<g id="node1" class="node"><title>0</title>
<ellipse fill="none" stroke="black" cx="109" cy="-175" rx="18" ry="18"/>
</g>
<!-- 1 -->
<g id="node2" class="node"><title>1</title>
<ellipse fill="none" stroke="black" cx="227" cy="-175" rx="18" ry="18"/>
</g>
<!-- 0&#45;&gt;1 -->
<g id="edge1" class="edge"><title>0&#45;&gt;1</title>
<path fill="none" stroke="black" d="M127.116,-175C145.964,-175 176.531,-175 198.696,-175"/>
<polygon fill="black" stroke="black" points="198.814,-178.5 208.814,-175 198.814,-171.5 198.814,-178.5"/>
<text text-anchor="middle" x="168" y="-178.8" font-family="Times,serif" font-size="14.00">u0005</text>
</g>
<!-- 2 -->
<g id="node3" class="node"><title>2</title>
<ellipse fill="none" stroke="black" cx="345" cy="-175" rx="18" ry="18"/>
</g>
<!-- 1&#45;&gt;2 -->
<g id="edge2" class="edge"><title>1&#45;&gt;2</title>
<path fill="none" stroke="black" d="M245.116,-175C263.964,-175 294.531,-175 316.696,-175"/>
<polygon fill="black" stroke="black" points="316.814,-178.5 326.814,-175 316.814,-171.5 316.814,-178.5"/>
<text text-anchor="middle" x="286" y="-178.8" font-family="Times,serif" font-size="14.00">u0002</text>
</g>
<!-- 3 -->
<g id="node4" class="node"><title>3</title>
<ellipse fill="none" stroke="black" cx="463" cy="-202" rx="18" ry="18"/>
</g>
<!-- 2&#45;&gt;3 -->
<g id="edge3" class="edge"><title>2&#45;&gt;3</title>
<path fill="none" stroke="black" d="M362.62,-178.868C381.657,-183.299 413.103,-190.619 435.523,-195.837"/>
<polygon fill="black" stroke="black" points="434.878,-199.281 445.411,-198.139 436.465,-192.463 434.878,-199.281"/>
<text text-anchor="middle" x="404" y="-196.8" font-family="Times,serif" font-size="14.00">u0002</text>
</g>
<!-- 4 -->
<g id="node25" class="node"><title>4</title>
<ellipse fill="none" stroke="black" cx="522" cy="-156" rx="18" ry="18"/>
</g>
<!-- 2&#45;&gt;4 -->
<g id="edge4" class="edge"><title>2&#45;&gt;4</title>
<path fill="none" stroke="black" d="M362.171,-169C368.023,-167.074 374.734,-165.145 381,-164 419.478,-156.966 464.805,-155.61 493.226,-155.576"/>
<polygon fill="black" stroke="black" points="493.579,-159.077 503.595,-155.622 493.61,-152.077 493.579,-159.077"/>
<text text-anchor="middle" x="404" y="-167.8" font-family="Times,serif" font-size="14.00">u0000</text>
</g>
<!-- 5 -->
<g id="node5" class="node"><title>5</title>
<ellipse fill="none" stroke="black" cx="581" cy="-202" rx="18" ry="18"/>
</g>
<!-- 3&#45;&gt;5 -->
<g id="edge5" class="edge"><title>3&#45;&gt;5</title>
<path fill="none" stroke="black" d="M481.116,-202C499.964,-202 530.531,-202 552.696,-202"/>
<polygon fill="black" stroke="black" points="552.814,-205.5 562.814,-202 552.814,-198.5 552.814,-205.5"/>
<text text-anchor="middle" x="522" y="-205.8" font-family="Times,serif" font-size="14.00">u0002</text>
</g>
<!-- 6 -->
<g id="node22" class="node"><title>6</title>
<ellipse fill="none" stroke="black" cx="640" cy="-326" rx="18" ry="18"/>
</g>
<!-- 3&#45;&gt;6 -->
<g id="edge6" class="edge"><title>3&#45;&gt;6</title>
<path fill="none" stroke="black" d="M478.025,-211.938C508.232,-233.342 579.671,-283.961 616.372,-309.966"/>
<polygon fill="black" stroke="black" points="614.725,-313.089 624.908,-316.015 618.772,-307.378 614.725,-313.089"/>
<text text-anchor="middle" x="522" y="-261.8" font-family="Times,serif" font-size="14.00">u0000</text>
</g>
<!-- 8 -->
<g id="node6" class="node"><title>8</title>
<ellipse fill="none" stroke="black" cx="704" cy="-247" rx="18" ry="18"/>
</g>
<!-- 5&#45;&gt;8 -->
<g id="edge7" class="edge"><title>5&#45;&gt;8</title>
<path fill="none" stroke="black" d="M598.319,-208.069C618.638,-215.626 653.579,-228.62 677.458,-237.501"/>
<polygon fill="black" stroke="black" points="676.347,-240.822 686.94,-241.027 678.787,-234.261 676.347,-240.822"/>
<text text-anchor="middle" x="640" y="-234.8" font-family="Times,serif" font-size="14.00">u0002</text>
</g>
<!-- 9 -->
<g id="node20" class="node"><title>9</title>
<ellipse fill="none" stroke="black" cx="827" cy="-196" rx="18" ry="18"/>
</g>
<!-- 5&#45;&gt;9 -->
<g id="edge8" class="edge"><title>5&#45;&gt;9</title>
<path fill="none" stroke="black" d="M599.158,-201.578C640.896,-200.552 748.011,-197.918 798.67,-196.672"/>
<polygon fill="black" stroke="black" points="798.95,-200.166 808.861,-196.421 798.778,-193.168 798.95,-200.166"/>
<text text-anchor="middle" x="704" y="-202.8" font-family="Times,serif" font-size="14.00">u0000</text>
</g>
<!-- 13 -->
<g id="node7" class="node"><title>13</title>
<ellipse fill="none" stroke="black" cx="827" cy="-276" rx="18" ry="18"/>
</g>
<!-- 8&#45;&gt;13 -->
<g id="edge9" class="edge"><title>8&#45;&gt;13</title>
<path fill="none" stroke="black" d="M721.825,-251.032C741.962,-255.859 775.922,-263.998 799.574,-269.666"/>
<polygon fill="black" stroke="black" points="798.778,-273.075 809.318,-272.002 800.41,-266.268 798.778,-273.075"/>
<text text-anchor="middle" x="768" y="-270.8" font-family="Times,serif" font-size="14.00">u0002</text>
</g>
<!-- 8&#45;&gt;9 -->
<g id="edge10" class="edge"><title>8&#45;&gt;9</title>
<path fill="none" stroke="black" d="M720.819,-240.333C741.2,-231.742 776.867,-216.709 800.952,-206.557"/>
<polygon fill="black" stroke="black" points="802.322,-209.778 810.177,-202.669 799.603,-203.328 802.322,-209.778"/>
<text text-anchor="middle" x="768" y="-232.8" font-family="Times,serif" font-size="14.00">u0000</text>
</g>
<!-- 17 -->
<g id="node8" class="node"><title>17</title>
<ellipse fill="none" stroke="black" cx="945" cy="-331" rx="18" ry="18"/>
</g>
<!-- 13&#45;&gt;17 -->
<g id="edge11" class="edge"><title>13&#45;&gt;17</title>
<path fill="none" stroke="black" d="M843.196,-284.589C849.295,-287.947 856.426,-291.761 863,-295 881.405,-304.068 902.61,-313.455 918.706,-320.37"/>
<polygon fill="black" stroke="black" points="917.425,-323.629 927.997,-324.331 920.17,-317.189 917.425,-323.629"/>
<text text-anchor="middle" x="886" y="-319.8" font-family="Times,serif" font-size="14.00">u0002</text>
</g>
<!-- 18 -->
<g id="node12" class="node"><title>18</title>
<ellipse fill="none" stroke="black" cx="945" cy="-276" rx="18" ry="18"/>
</g>
<!-- 13&#45;&gt;18 -->
<g id="edge12" class="edge"><title>13&#45;&gt;18</title>
<path fill="none" stroke="black" d="M845.116,-276C863.964,-276 894.531,-276 916.696,-276"/>
<polygon fill="black" stroke="black" points="916.814,-279.5 926.814,-276 916.814,-272.5 916.814,-279.5"/>
<text text-anchor="middle" x="886" y="-279.8" font-family="Times,serif" font-size="14.00">u0000</text>
</g>
<!-- 22 -->
<g id="node9" class="node"><title>22</title>
<ellipse fill="none" stroke="black" cx="1122" cy="-336" rx="18" ry="18"/>
</g>
<!-- 17&#45;&gt;22 -->
<g id="edge13" class="edge"><title>17&#45;&gt;22</title>
<path fill="none" stroke="black" d="M963.098,-331.489C993.418,-332.355 1056.84,-334.167 1093.41,-335.212"/>
<polygon fill="black" stroke="black" points="1093.74,-338.722 1103.83,-335.509 1093.94,-331.725 1093.74,-338.722"/>
<text text-anchor="middle" x="1004" y="-336.8" font-family="Times,serif" font-size="14.00">u0000</text>
</g>
<!-- 19 -->
<g id="node10" class="node"><title>19</title>
<ellipse fill="none" stroke="black" cx="1934" cy="-287" rx="18" ry="18"/>
</g>
<!-- 22&#45;&gt;19 -->
<g id="edge14" class="edge"><title>22&#45;&gt;19</title>
<path fill="none" stroke="black" d="M1140.29,-336.484C1162.96,-337.076 1203.95,-338 1239,-338 1239,-338 1239,-338 1487,-338 1639.37,-338 1677.35,-328.789 1829,-314 1857.53,-311.218 1865.48,-314.029 1893,-306 1898.22,-304.478 1903.6,-302.348 1908.67,-300.061"/>
<polygon fill="black" stroke="black" points="1910.41,-303.106 1917.88,-295.591 1907.35,-296.808 1910.41,-303.106"/>
<text text-anchor="middle" x="1486" y="-341.8" font-family="Times,serif" font-size="14.00">u0004</text>
</g>
<!-- 11 -->
<g id="node11" class="node"><title>11</title>
<ellipse fill="none" stroke="black" cx="2061" cy="-178" rx="18" ry="18"/>
<ellipse fill="none" stroke="black" cx="2061" cy="-178" rx="22" ry="22"/>
</g>
<!-- 19&#45;&gt;11 -->
<g id="edge15" class="edge"><title>19&#45;&gt;11</title>
<path fill="none" stroke="black" d="M1952.1,-284.448C1970.97,-280.842 2001.28,-272.617 2021,-255 2034.75,-242.716 2044.29,-224.452 2050.5,-208.794"/>
<polygon fill="black" stroke="black" points="2053.94,-209.564 2054.1,-198.97 2047.37,-207.153 2053.94,-209.564"/>
<text text-anchor="middle" x="1998" y="-281.8" font-family="Times,serif" font-size="14.00">u0003</text>
</g>
<!-- 23 -->
<g id="node13" class="node"><title>23</title>
<ellipse fill="none" stroke="black" cx="1063" cy="-276" rx="18" ry="18"/>
</g>
<!-- 18&#45;&gt;23 -->
<g id="edge16" class="edge"><title>18&#45;&gt;23</title>
<path fill="none" stroke="black" d="M963.116,-276C981.964,-276 1012.53,-276 1034.7,-276"/>
<polygon fill="black" stroke="black" points="1034.81,-279.5 1044.81,-276 1034.81,-272.5 1034.81,-279.5"/>
<text text-anchor="middle" x="1004" y="-279.8" font-family="Times,serif" font-size="14.00">u0004</text>
</g>
<!-- 23&#45;&gt;11 -->
<g id="edge17" class="edge"><title>23&#45;&gt;11</title>
<path fill="none" stroke="black" d="M1079.32,-268.232C1101.1,-257.921 1142.56,-241 1180,-241 1180,-241 1180,-241 1935,-241 1973.31,-241 2011.84,-217.111 2035.79,-198.754"/>
<polygon fill="black" stroke="black" points="2038.27,-201.254 2043.92,-192.296 2033.92,-195.771 2038.27,-201.254"/>
<text text-anchor="middle" x="1550" y="-244.8" font-family="Times,serif" font-size="14.00">u0003</text>
</g>
<!-- 25 -->
<g id="node14" class="node"><title>25</title>
<ellipse fill="none" stroke="black" cx="1181" cy="-288" rx="18" ry="18"/>
</g>
<!-- 23&#45;&gt;25 -->
<g id="edge18" class="edge"><title>23&#45;&gt;25</title>
<path fill="none" stroke="black" d="M1081.12,-277.771C1099.96,-279.72 1130.53,-282.882 1152.7,-285.175"/>
<polygon fill="black" stroke="black" points="1152.51,-288.674 1162.81,-286.222 1153.23,-281.712 1152.51,-288.674"/>
<text text-anchor="middle" x="1122" y="-287.8" font-family="Times,serif" font-size="14.00">u0001</text>
</g>
<!-- 26 -->
<g id="node15" class="node"><title>26</title>
<ellipse fill="none" stroke="black" cx="1304" cy="-290" rx="18" ry="18"/>
</g>
<!-- 25&#45;&gt;26 -->
<g id="edge19" class="edge"><title>25&#45;&gt;26</title>
<path fill="none" stroke="black" d="M1199.08,-288.282C1218.96,-288.611 1252.08,-289.158 1275.58,-289.547"/>
<polygon fill="black" stroke="black" points="1275.56,-293.047 1285.62,-289.713 1275.67,-286.048 1275.56,-293.047"/>
<text text-anchor="middle" x="1240" y="-292.8" font-family="Times,serif" font-size="14.00">u0001</text>
</g>
<!-- 27 -->
<g id="node16" class="node"><title>27</title>
<ellipse fill="none" stroke="black" cx="1427" cy="-292" rx="18" ry="18"/>
</g>
<!-- 26&#45;&gt;27 -->
<g id="edge20" class="edge"><title>26&#45;&gt;27</title>
<path fill="none" stroke="black" d="M1322.08,-290.282C1341.96,-290.611 1375.08,-291.158 1398.58,-291.547"/>
<polygon fill="black" stroke="black" points="1398.56,-295.047 1408.62,-291.713 1398.67,-288.048 1398.56,-295.047"/>
<text text-anchor="middle" x="1368" y="-294.8" font-family="Times,serif" font-size="14.00">u0001</text>
</g>
<!-- 28 -->
<g id="node17" class="node"><title>28</title>
<ellipse fill="none" stroke="black" cx="1550" cy="-292" rx="18" ry="18"/>
</g>
<!-- 27&#45;&gt;28 -->
<g id="edge21" class="edge"><title>27&#45;&gt;28</title>
<path fill="none" stroke="black" d="M1445.08,-292C1464.96,-292 1498.08,-292 1521.58,-292"/>
<polygon fill="black" stroke="black" points="1521.62,-295.5 1531.62,-292 1521.62,-288.5 1521.62,-295.5"/>
<text text-anchor="middle" x="1486" y="-295.8" font-family="Times,serif" font-size="14.00">u0001</text>
</g>
<!-- 20 -->
<g id="node18" class="node"><title>20</title>
<ellipse fill="none" stroke="black" cx="1678" cy="-288" rx="18" ry="18"/>
</g>
<!-- 28&#45;&gt;20 -->
<g id="edge22" class="edge"><title>28&#45;&gt;20</title>
<path fill="none" stroke="black" d="M1567.99,-291.461C1588.94,-290.796 1624.81,-289.657 1649.65,-288.868"/>
<polygon fill="black" stroke="black" points="1649.99,-292.359 1659.87,-288.544 1649.77,-285.363 1649.99,-292.359"/>
<text text-anchor="middle" x="1614" y="-293.8" font-family="Times,serif" font-size="14.00">u0001</text>
</g>
<!-- 24 -->
<g id="node19" class="node"><title>24</title>
<ellipse fill="none" stroke="black" cx="1806" cy="-287" rx="18" ry="18"/>
</g>
<!-- 20&#45;&gt;24 -->
<g id="edge23" class="edge"><title>20&#45;&gt;24</title>
<path fill="none" stroke="black" d="M1696.26,-287.863C1717.27,-287.696 1753.03,-287.412 1777.77,-287.216"/>
<polygon fill="black" stroke="black" points="1777.98,-290.715 1787.95,-287.135 1777.93,-283.715 1777.98,-290.715"/>
<text text-anchor="middle" x="1742" y="-290.8" font-family="Times,serif" font-size="14.00">u0001</text>
</g>
<!-- 24&#45;&gt;19 -->
<g id="edge24" class="edge"><title>24&#45;&gt;19</title>
<path fill="none" stroke="black" d="M1824.26,-287C1845.27,-287 1881.03,-287 1905.77,-287"/>
<polygon fill="black" stroke="black" points="1905.95,-290.5 1915.95,-287 1905.95,-283.5 1905.95,-290.5"/>
<text text-anchor="middle" x="1870" y="-290.8" font-family="Times,serif" font-size="14.00">u0001</text>
</g>
<!-- 14 -->
<g id="node21" class="node"><title>14</title>
<ellipse fill="none" stroke="black" cx="1806" cy="-178" rx="18" ry="18"/>
</g>
<!-- 9&#45;&gt;14 -->
<g id="edge25" class="edge"><title>9&#45;&gt;14</title>
<path fill="none" stroke="black" d="M845.294,-195.758C867.961,-195.462 908.957,-195 944,-195 944,-195 944,-195 1679,-195 1713.38,-195 1752.56,-188.707 1777.98,-183.779"/>
<polygon fill="black" stroke="black" points="1778.86,-187.172 1787.98,-181.773 1777.49,-180.309 1778.86,-187.172"/>
<text text-anchor="middle" x="1304" y="-198.8" font-family="Times,serif" font-size="14.00">u0004</text>
</g>
<!-- 14&#45;&gt;19 -->
<g id="edge27" class="edge"><title>14&#45;&gt;19</title>
<path fill="none" stroke="black" d="M1820.48,-189.665C1842.37,-208.596 1885.78,-246.153 1911.82,-268.677"/>
<polygon fill="black" stroke="black" points="1909.76,-271.523 1919.61,-275.419 1914.34,-266.229 1909.76,-271.523"/>
<text text-anchor="middle" x="1870" y="-254.8" font-family="Times,serif" font-size="14.00">u0001</text>
</g>
<!-- 14&#45;&gt;11 -->
<g id="edge26" class="edge"><title>14&#45;&gt;11</title>
<path fill="none" stroke="black" d="M1824.39,-178C1866.59,-178 1974.88,-178 2028.69,-178"/>
<polygon fill="black" stroke="black" points="2028.99,-181.5 2038.99,-178 2028.99,-174.5 2028.99,-181.5"/>
<text text-anchor="middle" x="1934" y="-181.8" font-family="Times,serif" font-size="14.00">u0003</text>
</g>
<!-- 10 -->
<g id="node23" class="node"><title>10</title>
<ellipse fill="none" stroke="black" cx="1427" cy="-390" rx="18" ry="18"/>
</g>
<!-- 6&#45;&gt;10 -->
<g id="edge28" class="edge"><title>6&#45;&gt;10</title>
<path fill="none" stroke="black" d="M655.359,-336.076C677.984,-350.939 723.814,-377 767,-377 767,-377 767,-377 1305,-377 1337.58,-377 1374.8,-381.716 1399.26,-385.467"/>
<polygon fill="black" stroke="black" points="1398.8,-388.937 1409.23,-387.05 1399.9,-382.024 1398.8,-388.937"/>
<text text-anchor="middle" x="1004" y="-380.8" font-family="Times,serif" font-size="14.00">u0004</text>
</g>
<!-- 10&#45;&gt;11 -->
<g id="edge29" class="edge"><title>10&#45;&gt;11</title>
<path fill="none" stroke="black" d="M1442.12,-400.118C1463.93,-414.728 1507.63,-440 1549,-440 1549,-440 1549,-440 1935,-440 2035.67,-440 2055.34,-280.494 2059.13,-210.393"/>
<polygon fill="black" stroke="black" points="2062.63,-210.489 2059.59,-200.338 2055.63,-210.165 2062.63,-210.489"/>
<text text-anchor="middle" x="1742" y="-443.8" font-family="Times,serif" font-size="14.00">u0003</text>
</g>
<!-- 15 -->
<g id="node24" class="node"><title>15</title>
<ellipse fill="none" stroke="black" cx="1550" cy="-390" rx="18" ry="18"/>
</g>
<!-- 10&#45;&gt;15 -->
<g id="edge30" class="edge"><title>10&#45;&gt;15</title>
<path fill="none" stroke="black" d="M1445.08,-390C1464.96,-390 1498.08,-390 1521.58,-390"/>
<polygon fill="black" stroke="black" points="1521.62,-393.5 1531.62,-390 1521.62,-386.5 1521.62,-393.5"/>
<text text-anchor="middle" x="1486" y="-393.8" font-family="Times,serif" font-size="14.00">u0001</text>
</g>
<!-- 15&#45;&gt;11 -->
<g id="edge31" class="edge"><title>15&#45;&gt;11</title>
<path fill="none" stroke="black" d="M1568.1,-391.554C1592.32,-393.616 1638,-397 1677,-397 1677,-397 1677,-397 1935,-397 2020.08,-397 2048.02,-270.802 2056.54,-210.002"/>
<polygon fill="black" stroke="black" points="2060.05,-210.169 2057.88,-199.799 2053.11,-209.261 2060.05,-210.169"/>
<text text-anchor="middle" x="1806" y="-400.8" font-family="Times,serif" font-size="14.00">u0003</text>
</g>
<!-- 15&#45;&gt;20 -->
<g id="edge32" class="edge"><title>15&#45;&gt;20</title>
<path fill="none" stroke="black" d="M1564.48,-379.084C1586.37,-361.369 1629.78,-326.224 1655.82,-305.146"/>
<polygon fill="black" stroke="black" points="1658.04,-307.85 1663.61,-298.837 1653.64,-302.409 1658.04,-307.85"/>
<text text-anchor="middle" x="1614" y="-360.8" font-family="Times,serif" font-size="14.00">u0001</text>
</g>
<!-- 7 -->
<g id="node26" class="node"><title>7</title>
<ellipse fill="none" stroke="black" cx="1304" cy="-65" rx="18" ry="18"/>
</g>
<!-- 4&#45;&gt;7 -->
<g id="edge33" class="edge"><title>4&#45;&gt;7</title>
<path fill="none" stroke="black" d="M538.291,-148.01C560.047,-137.405 601.466,-120 639,-120 639,-120 639,-120 1182,-120 1219.44,-120 1258.04,-97.9018 1281.27,-81.72"/>
<polygon fill="black" stroke="black" points="1283.33,-84.5531 1289.4,-75.8662 1279.24,-78.8746 1283.33,-84.5531"/>
<text text-anchor="middle" x="886" y="-123.8" font-family="Times,serif" font-size="14.00">u0004</text>
</g>
<!-- 7&#45;&gt;11 -->
<g id="edge34" class="edge"><title>7&#45;&gt;11</title>
<path fill="none" stroke="black" d="M1317.58,-52.774C1338.34,-33.9451 1381.88,-0 1426,-0 1426,-0 1426,-0 1935,-0 1978.99,-0 1993.57,-14.6077 2021,-49 2043.38,-77.06 2052.94,-117.812 2057.01,-145.969"/>
<polygon fill="black" stroke="black" points="2053.57,-146.622 2058.32,-156.092 2060.51,-145.726 2053.57,-146.622"/>
<text text-anchor="middle" x="1678" y="-3.8" font-family="Times,serif" font-size="14.00">u0003</text>
</g>
<!-- 12 -->
<g id="node27" class="node"><title>12</title>
<ellipse fill="none" stroke="black" cx="1427" cy="-65" rx="18" ry="18"/>
</g>
<!-- 7&#45;&gt;12 -->
<g id="edge35" class="edge"><title>7&#45;&gt;12</title>
<path fill="none" stroke="black" d="M1322.08,-65C1341.96,-65 1375.08,-65 1398.58,-65"/>
<polygon fill="black" stroke="black" points="1398.62,-68.5001 1408.62,-65 1398.62,-61.5001 1398.62,-68.5001"/>
<text text-anchor="middle" x="1368" y="-68.8" font-family="Times,serif" font-size="14.00">u0001</text>
</g>
<!-- 12&#45;&gt;11 -->
<g id="edge36" class="edge"><title>12&#45;&gt;11</title>
<path fill="none" stroke="black" d="M1444.66,-60.0079C1467.83,-53.5169 1511.21,-43 1549,-43 1549,-43 1549,-43 1935,-43 1980.13,-43 1990.92,-63.3509 2021,-97 2034.01,-111.551 2043.61,-131.213 2050.04,-147.521"/>
<polygon fill="black" stroke="black" points="2046.86,-149.016 2053.63,-157.166 2053.42,-146.574 2046.86,-149.016"/>
<text text-anchor="middle" x="1742" y="-46.8" font-family="Times,serif" font-size="14.00">u0003</text>
</g>
<!-- 16 -->
<g id="node28" class="node"><title>16</title>
<ellipse fill="none" stroke="black" cx="1550" cy="-89" rx="18" ry="18"/>
</g>
<!-- 12&#45;&gt;16 -->
<g id="edge37" class="edge"><title>12&#45;&gt;16</title>
<path fill="none" stroke="black" d="M1444.82,-68.3371C1464.76,-72.291 1498.24,-78.9318 1521.86,-83.616"/>
<polygon fill="black" stroke="black" points="1521.44,-87.1013 1531.93,-85.6139 1522.8,-80.2351 1521.44,-87.1013"/>
<text text-anchor="middle" x="1486" y="-84.8" font-family="Times,serif" font-size="14.00">u0001</text>
</g>
<!-- 16&#45;&gt;11 -->
<g id="edge38" class="edge"><title>16&#45;&gt;11</title>
<path fill="none" stroke="black" d="M1568.12,-89C1592.36,-89 1638.06,-89 1677,-89 1677,-89 1677,-89 1935,-89 1979.18,-89 2018.58,-126.352 2040.85,-152.66"/>
<polygon fill="black" stroke="black" points="2038.15,-154.894 2047.2,-160.416 2043.57,-150.461 2038.15,-154.894"/>
<text text-anchor="middle" x="1806" y="-92.8" font-family="Times,serif" font-size="14.00">u0003</text>
</g>
<!-- 21 -->
<g id="node29" class="node"><title>21</title>
<ellipse fill="none" stroke="black" cx="1678" cy="-135" rx="18" ry="18"/>
</g>
<!-- 16&#45;&gt;21 -->
<g id="edge39" class="edge"><title>16&#45;&gt;21</title>
<path fill="none" stroke="black" d="M1567.21,-94.9195C1588.48,-102.683 1626.03,-116.393 1651.22,-125.587"/>
<polygon fill="black" stroke="black" points="1650.25,-128.961 1660.85,-129.103 1652.65,-122.386 1650.25,-128.961"/>
<text text-anchor="middle" x="1614" y="-124.8" font-family="Times,serif" font-size="14.00">u0001</text>
</g>
<!-- 21&#45;&gt;11 -->
<g id="edge40" class="edge"><title>21&#45;&gt;11</title>
<path fill="none" stroke="black" d="M1696.1,-136.768C1723.96,-139.659 1780.85,-145.618 1829,-151 1900.55,-158.997 1984.49,-168.952 2028.85,-174.258"/>
<polygon fill="black" stroke="black" points="2028.64,-177.758 2038.99,-175.472 2029.47,-170.808 2028.64,-177.758"/>
<text text-anchor="middle" x="1870" y="-162.8" font-family="Times,serif" font-size="14.00">u0003</text>
</g>
<!-- 21&#45;&gt;14 -->
<g id="edge41" class="edge"><title>21&#45;&gt;14</title>
<path fill="none" stroke="black" d="M1695.21,-140.533C1716.48,-147.79 1754.03,-160.606 1779.22,-169.201"/>
<polygon fill="black" stroke="black" points="1778.25,-172.57 1788.85,-172.488 1780.51,-165.945 1778.25,-172.57"/>
<text text-anchor="middle" x="1742" y="-168.8" font-family="Times,serif" font-size="14.00">u0001</text>
</g>
<!-- initial -->
<g id="node30" class="node"><title>initial</title>
</g>
<!-- initial&#45;&gt;0 -->
<g id="edge42" class="edge"><title>initial&#45;&gt;0</title>
<path fill="none" stroke="black" d="M54.195,-175C62.6538,-175 72.0513,-175 80.5951,-175"/>
<polygon fill="black" stroke="black" points="80.8257,-178.5 90.8257,-175 80.8257,-171.5 80.8257,-178.5"/>
</g>
</g>
</svg>
