<svg width="1961px" height="471px"
 viewBox="0.00 0.00 1471.00 353.00" xmlns="http://www.w3.org/2000/svg" xmlns:xlink="http://www.w3.org/1999/xlink">
<g id="graph0" class="graph" transform="scale(1.000022500562514 1.000022500562514) rotate(0) translate(4 349)">
<title>Automaton</title>
<polygon fill="white" stroke="none" points="-4,4 -4,-349 1467,-349 1467,4 -4,4"/>
<!-- 0 -->
<g id="node1" class="node"><title>0</title>
<ellipse fill="none" stroke="black" cx="109" cy="-118" rx="18" ry="18"/>
</g>
<!-- 1 -->
<g id="node2" class="node"><title>1</title>
<ellipse fill="none" stroke="black" cx="227" cy="-118" rx="18" ry="18"/>
</g>
<!-- 0&#45;&gt;1 -->
<g id="edge1" class="edge"><title>0&#45;&gt;1</title>
<path fill="none" stroke="black" d="M127.116,-118C145.964,-118 176.531,-118 198.696,-118"/>
<polygon fill="black" stroke="black" points="198.814,-121.5 208.814,-118 198.814,-114.5 198.814,-121.5"/>
<text text-anchor="middle" x="168" y="-121.8" font-family="Times,serif" font-size="14.00">u0002</text>
</g>
<!-- 2 -->
<g id="node3" class="node"><title>2</title>
<ellipse fill="none" stroke="black" cx="345" cy="-118" rx="18" ry="18"/>
</g>
<!-- 1&#45;&gt;2 -->
<g id="edge2" class="edge"><title>1&#45;&gt;2</title>
<path fill="none" stroke="black" d="M245.116,-118C263.964,-118 294.531,-118 316.696,-118"/>
<polygon fill="black" stroke="black" points="316.814,-121.5 326.814,-118 316.814,-114.5 316.814,-121.5"/>
<text text-anchor="middle" x="286" y="-121.8" font-family="Times,serif" font-size="14.00">u0005</text>
</g>
<!-- 3 -->
<g id="node4" class="node"><title>3</title>
<ellipse fill="none" stroke="black" cx="591" cy="-181" rx="18" ry="18"/>
</g>
<!-- 2&#45;&gt;3 -->
<g id="edge3" class="edge"><title>2&#45;&gt;3</title>
<path fill="none" stroke="black" d="M362.771,-122.33C404.487,-133.101 513.186,-161.167 563.605,-174.185"/>
<polygon fill="black" stroke="black" points="562.877,-177.612 573.434,-176.723 564.627,-170.834 562.877,-177.612"/>
<text text-anchor="middle" x="468" y="-157.8" font-family="Times,serif" font-size="14.00">u0005</text>
</g>
<!-- 4 -->
<g id="node15" class="node"><title>4</title>
<ellipse fill="none" stroke="black" cx="468" cy="-79" rx="18" ry="18"/>
</g>
<!-- 2&#45;&gt;4 -->
<g id="edge4" class="edge"><title>2&#45;&gt;4</title>
<path fill="none" stroke="black" d="M362.319,-112.74C382.435,-106.256 416.882,-95.1538 440.739,-87.4644"/>
<polygon fill="black" stroke="black" points="442.109,-90.7 450.554,-84.3009 439.962,-84.0375 442.109,-90.7"/>
<text text-anchor="middle" x="404" y="-110.8" font-family="Times,serif" font-size="14.00">u0000</text>
</g>
<!-- 5 -->
<g id="node5" class="node"><title>5</title>
<ellipse fill="none" stroke="black" cx="709" cy="-181" rx="18" ry="18"/>
</g>
<!-- 3&#45;&gt;5 -->
<g id="edge5" class="edge"><title>3&#45;&gt;5</title>
<path fill="none" stroke="black" d="M609.116,-181C627.964,-181 658.531,-181 680.696,-181"/>
<polygon fill="black" stroke="black" points="680.814,-184.5 690.814,-181 680.814,-177.5 680.814,-184.5"/>
<text text-anchor="middle" x="650" y="-184.8" font-family="Times,serif" font-size="14.00">u0005</text>
</g>
<!-- 6 -->
<g id="node10" class="node"><title>6</title>
<ellipse fill="none" stroke="black" cx="709" cy="-246" rx="18" ry="18"/>
</g>
<!-- 3&#45;&gt;6 -->
<g id="edge6" class="edge"><title>3&#45;&gt;6</title>
<path fill="none" stroke="black" d="M607.165,-189.498C626.704,-200.446 660.898,-219.606 683.987,-232.545"/>
<polygon fill="black" stroke="black" points="682.397,-235.665 692.831,-237.5 685.818,-229.559 682.397,-235.665"/>
<text text-anchor="middle" x="650" y="-227.8" font-family="Times,serif" font-size="14.00">u0000</text>
</g>
<!-- 8 -->
<g id="node6" class="node"><title>8</title>
<ellipse fill="none" stroke="black" cx="827" cy="-181" rx="18" ry="18"/>
</g>
<!-- 5&#45;&gt;8 -->
<g id="edge7" class="edge"><title>5&#45;&gt;8</title>
<path fill="none" stroke="black" d="M727.116,-181C745.964,-181 776.531,-181 798.696,-181"/>
<polygon fill="black" stroke="black" points="798.814,-184.5 808.814,-181 798.814,-177.5 798.814,-184.5"/>
<text text-anchor="middle" x="768" y="-184.8" font-family="Times,serif" font-size="14.00">u0005</text>
</g>
<!-- 12 -->
<g id="node7" class="node"><title>12</title>
<ellipse fill="none" stroke="black" cx="1004" cy="-181" rx="18" ry="18"/>
</g>
<!-- 8&#45;&gt;12 -->
<g id="edge8" class="edge"><title>8&#45;&gt;12</title>
<path fill="none" stroke="black" d="M845.098,-181C875.418,-181 938.844,-181 975.412,-181"/>
<polygon fill="black" stroke="black" points="975.832,-184.5 985.832,-181 975.832,-177.5 975.832,-184.5"/>
<text text-anchor="middle" x="886" y="-184.8" font-family="Times,serif" font-size="14.00">u0000</text>
</g>
<!-- 15 -->
<g id="node8" class="node"><title>15</title>
<ellipse fill="none" stroke="black" cx="1319" cy="-168" rx="18" ry="18"/>
</g>
<!-- 12&#45;&gt;15 -->
<g id="edge9" class="edge"><title>12&#45;&gt;15</title>
<path fill="none" stroke="black" d="M1022.15,-179.233C1052.51,-176.203 1117.75,-170.134 1173,-168 1213.82,-166.423 1261.15,-166.845 1290.34,-167.366"/>
<polygon fill="black" stroke="black" points="1290.52,-170.87 1300.58,-167.566 1290.65,-163.871 1290.52,-170.87"/>
<text text-anchor="middle" x="1132" y="-174.8" font-family="Times,serif" font-size="14.00">u0001</text>
</g>
<!-- 10 -->
<g id="node9" class="node"><title>10</title>
<ellipse fill="none" stroke="black" cx="1441" cy="-168" rx="18" ry="18"/>
<ellipse fill="none" stroke="black" cx="1441" cy="-168" rx="22" ry="22"/>
</g>
<!-- 15&#45;&gt;10 -->
<g id="edge10" class="edge"><title>15&#45;&gt;10</title>
<path fill="none" stroke="black" d="M1337.19,-168C1355.77,-168 1385.76,-168 1408.57,-168"/>
<polygon fill="black" stroke="black" points="1408.79,-171.5 1418.79,-168 1408.79,-164.5 1408.79,-171.5"/>
<text text-anchor="middle" x="1378" y="-171.8" font-family="Times,serif" font-size="14.00">u0004</text>
</g>
<!-- 9 -->
<g id="node11" class="node"><title>9</title>
<ellipse fill="none" stroke="black" cx="827" cy="-262" rx="18" ry="18"/>
</g>
<!-- 6&#45;&gt;9 -->
<g id="edge11" class="edge"><title>6&#45;&gt;9</title>
<path fill="none" stroke="black" d="M727.116,-248.361C745.964,-250.961 776.531,-255.177 798.696,-258.234"/>
<polygon fill="black" stroke="black" points="798.429,-261.73 808.814,-259.629 799.386,-254.796 798.429,-261.73"/>
<text text-anchor="middle" x="768" y="-259.8" font-family="Times,serif" font-size="14.00">u0001</text>
</g>
<!-- 9&#45;&gt;10 -->
<g id="edge12" class="edge"><title>9&#45;&gt;10</title>
<path fill="none" stroke="black" d="M839.853,-274.79C859.466,-294.488 900.813,-330 944,-330 944,-330 944,-330 1320,-330 1384.56,-330 1418.39,-245.887 1432.25,-198.879"/>
<polygon fill="black" stroke="black" points="1435.64,-199.753 1434.98,-189.179 1428.9,-197.855 1435.64,-199.753"/>
<text text-anchor="middle" x="1132" y="-333.8" font-family="Times,serif" font-size="14.00">u0004</text>
</g>
<!-- 13 -->
<g id="node12" class="node"><title>13</title>
<ellipse fill="none" stroke="black" cx="945" cy="-262" rx="18" ry="18"/>
</g>
<!-- 9&#45;&gt;13 -->
<g id="edge13" class="edge"><title>9&#45;&gt;13</title>
<path fill="none" stroke="black" d="M845.116,-262C863.964,-262 894.531,-262 916.696,-262"/>
<polygon fill="black" stroke="black" points="916.814,-265.5 926.814,-262 916.814,-258.5 916.814,-265.5"/>
<text text-anchor="middle" x="886" y="-265.8" font-family="Times,serif" font-size="14.00">u0003</text>
</g>
<!-- 13&#45;&gt;10 -->
<g id="edge14" class="edge"><title>13&#45;&gt;10</title>
<path fill="none" stroke="black" d="M962.22,-267.548C985.234,-274.914 1028.82,-287 1067,-287 1067,-287 1067,-287 1320,-287 1370.82,-287 1407.81,-232.52 1426.41,-197.285"/>
<polygon fill="black" stroke="black" points="1429.76,-198.419 1431.17,-187.918 1423.52,-195.249 1429.76,-198.419"/>
<text text-anchor="middle" x="1196" y="-290.8" font-family="Times,serif" font-size="14.00">u0004</text>
</g>
<!-- 16 -->
<g id="node13" class="node"><title>16</title>
<ellipse fill="none" stroke="black" cx="1068" cy="-241" rx="18" ry="18"/>
</g>
<!-- 13&#45;&gt;16 -->
<g id="edge15" class="edge"><title>13&#45;&gt;16</title>
<path fill="none" stroke="black" d="M962.825,-259.08C982.759,-255.62 1016.24,-249.81 1039.86,-245.711"/>
<polygon fill="black" stroke="black" points="1040.67,-249.121 1049.93,-243.963 1039.48,-242.224 1040.67,-249.121"/>
<text text-anchor="middle" x="1004" y="-258.8" font-family="Times,serif" font-size="14.00">u0003</text>
</g>
<!-- 16&#45;&gt;10 -->
<g id="edge16" class="edge"><title>16&#45;&gt;10</title>
<path fill="none" stroke="black" d="M1086.04,-240.151C1135.78,-237.27 1284.66,-225.77 1401,-187 1404.64,-185.786 1408.38,-184.301 1412.04,-182.702"/>
<polygon fill="black" stroke="black" points="1413.82,-185.732 1421.38,-178.31 1410.84,-179.398 1413.82,-185.732"/>
<text text-anchor="middle" x="1260" y="-226.8" font-family="Times,serif" font-size="14.00">u0004</text>
</g>
<!-- 18 -->
<g id="node14" class="node"><title>18</title>
<ellipse fill="none" stroke="black" cx="1196" cy="-195" rx="18" ry="18"/>
</g>
<!-- 16&#45;&gt;18 -->
<g id="edge17" class="edge"><title>16&#45;&gt;18</title>
<path fill="none" stroke="black" d="M1082.16,-229.212C1089.56,-223.189 1099.25,-216.252 1109,-212 1127.72,-203.838 1150.43,-199.562 1167.82,-197.341"/>
<polygon fill="black" stroke="black" points="1168.33,-200.806 1177.87,-196.206 1167.54,-193.85 1168.33,-200.806"/>
<text text-anchor="middle" x="1132" y="-215.8" font-family="Times,serif" font-size="14.00">u0003</text>
</g>
<!-- 18&#45;&gt;15 -->
<g id="edge18" class="edge"><title>18&#45;&gt;15</title>
<path fill="none" stroke="black" d="M1213.82,-191.246C1233.87,-186.772 1267.62,-179.242 1291.26,-173.968"/>
<polygon fill="black" stroke="black" points="1292.32,-177.316 1301.32,-171.722 1290.8,-170.484 1292.32,-177.316"/>
<text text-anchor="middle" x="1260" y="-188.8" font-family="Times,serif" font-size="14.00">u0003</text>
</g>
<!-- 7 -->
<g id="node16" class="node"><title>7</title>
<ellipse fill="none" stroke="black" cx="591" cy="-66" rx="18" ry="18"/>
</g>
<!-- 4&#45;&gt;7 -->
<g id="edge19" class="edge"><title>4&#45;&gt;7</title>
<path fill="none" stroke="black" d="M486.08,-77.165C506.078,-75.0164 539.454,-71.4306 562.976,-68.9034"/>
<polygon fill="black" stroke="black" points="563.438,-72.374 573.007,-67.8257 562.69,-65.414 563.438,-72.374"/>
<text text-anchor="middle" x="532" y="-78.8" font-family="Times,serif" font-size="14.00">u0001</text>
</g>
<!-- 7&#45;&gt;10 -->
<g id="edge20" class="edge"><title>7&#45;&gt;10</title>
<path fill="none" stroke="black" d="M604.249,-53.2745C624.093,-34.0957 665.366,-0 708,-0 708,-0 708,-0 1320,-0 1362.07,-0 1374.82,-16.0662 1401,-49 1421.1,-74.2772 1431,-110.283 1435.78,-136.059"/>
<polygon fill="black" stroke="black" points="1432.35,-136.799 1437.47,-146.075 1439.25,-135.631 1432.35,-136.799"/>
<text text-anchor="middle" x="1004" y="-3.8" font-family="Times,serif" font-size="14.00">u0004</text>
</g>
<!-- 11 -->
<g id="node17" class="node"><title>11</title>
<ellipse fill="none" stroke="black" cx="709" cy="-66" rx="18" ry="18"/>
</g>
<!-- 7&#45;&gt;11 -->
<g id="edge21" class="edge"><title>7&#45;&gt;11</title>
<path fill="none" stroke="black" d="M609.116,-66C627.964,-66 658.531,-66 680.696,-66"/>
<polygon fill="black" stroke="black" points="680.814,-69.5001 690.814,-66 680.814,-62.5001 680.814,-69.5001"/>
<text text-anchor="middle" x="650" y="-69.8" font-family="Times,serif" font-size="14.00">u0003</text>
</g>
<!-- 11&#45;&gt;10 -->
<g id="edge22" class="edge"><title>11&#45;&gt;10</title>
<path fill="none" stroke="black" d="M726.749,-61.2603C749.162,-55.346 790.237,-46 826,-46 826,-46 826,-46 1320,-46 1361.85,-46 1372.16,-63.6809 1401,-94 1412.87,-106.482 1422.12,-123.285 1428.62,-137.725"/>
<polygon fill="black" stroke="black" points="1425.54,-139.433 1432.68,-147.262 1431.98,-136.69 1425.54,-139.433"/>
<text text-anchor="middle" x="1068" y="-49.8" font-family="Times,serif" font-size="14.00">u0004</text>
</g>
<!-- 14 -->
<g id="node18" class="node"><title>14</title>
<ellipse fill="none" stroke="black" cx="827" cy="-92" rx="18" ry="18"/>
</g>
<!-- 11&#45;&gt;14 -->
<g id="edge23" class="edge"><title>11&#45;&gt;14</title>
<path fill="none" stroke="black" d="M726.62,-69.7252C745.549,-73.9678 776.746,-80.9604 799.14,-85.9797"/>
<polygon fill="black" stroke="black" points="798.51,-89.4253 809.034,-88.1972 800.041,-82.5947 798.51,-89.4253"/>
<text text-anchor="middle" x="768" y="-87.8" font-family="Times,serif" font-size="14.00">u0003</text>
</g>
<!-- 14&#45;&gt;10 -->
<g id="edge24" class="edge"><title>14&#45;&gt;10</title>
<path fill="none" stroke="black" d="M845.291,-91.2738C867.955,-90.3859 908.947,-89 944,-89 944,-89 944,-89 1320,-89 1360.34,-89 1397.6,-120.526 1419.57,-143.747"/>
<polygon fill="black" stroke="black" points="1417.09,-146.222 1426.42,-151.246 1422.26,-141.502 1417.09,-146.222"/>
<text text-anchor="middle" x="1132" y="-92.8" font-family="Times,serif" font-size="14.00">u0004</text>
</g>
<!-- 17 -->
<g id="node19" class="node"><title>17</title>
<ellipse fill="none" stroke="black" cx="945" cy="-135" rx="18" ry="18"/>
</g>
<!-- 14&#45;&gt;17 -->
<g id="edge25" class="edge"><title>14&#45;&gt;17</title>
<path fill="none" stroke="black" d="M844.129,-97.979C863.24,-105.063 895.337,-116.961 917.977,-125.354"/>
<polygon fill="black" stroke="black" points="917.041,-128.739 927.634,-128.933 919.474,-122.176 917.041,-128.739"/>
<text text-anchor="middle" x="886" y="-124.8" font-family="Times,serif" font-size="14.00">u0003</text>
</g>
<!-- 19 -->
<g id="node20" class="node"><title>19</title>
<ellipse fill="none" stroke="black" cx="1068" cy="-135" rx="18" ry="18"/>
</g>
<!-- 17&#45;&gt;19 -->
<g id="edge26" class="edge"><title>17&#45;&gt;19</title>
<path fill="none" stroke="black" d="M963.08,-135C982.965,-135 1016.08,-135 1039.58,-135"/>
<polygon fill="black" stroke="black" points="1039.62,-138.5 1049.62,-135 1039.62,-131.5 1039.62,-138.5"/>
<text text-anchor="middle" x="1004" y="-138.8" font-family="Times,serif" font-size="14.00">u0003</text>
</g>
<!-- 19&#45;&gt;18 -->
<g id="edge27" class="edge"><title>19&#45;&gt;18</title>
<path fill="none" stroke="black" d="M1085.65,-130.867C1103.85,-127.29 1133.3,-124.333 1155,-136 1168.29,-143.145 1177.99,-156.867 1184.51,-169.28"/>
<polygon fill="black" stroke="black" points="1181.4,-170.886 1188.88,-178.387 1187.71,-167.857 1181.4,-170.886"/>
<text text-anchor="middle" x="1132" y="-139.8" font-family="Times,serif" font-size="14.00">u0003</text>
</g>
<!-- initial -->
<g id="node21" class="node"><title>initial</title>
</g>
<!-- initial&#45;&gt;0 -->
<g id="edge28" class="edge"><title>initial&#45;&gt;0</title>
<path fill="none" stroke="black" d="M54.195,-118C62.6538,-118 72.0513,-118 80.5951,-118"/>
<polygon fill="black" stroke="black" points="80.8257,-121.5 90.8257,-118 80.8257,-114.5 80.8257,-121.5"/>
</g>
</g>
</svg>
