<svg width="1620px" height="337px"
 viewBox="0.00 0.00 1215.00 253.00" xmlns="http://www.w3.org/2000/svg" xmlns:xlink="http://www.w3.org/1999/xlink">
<g id="graph0" class="graph" transform="scale(1.000022500562514 1.000022500562514) rotate(0) translate(4 249)">
<title>Automaton</title>
<polygon fill="white" stroke="none" points="-4,4 -4,-249 1211,-249 1211,4 -4,4"/>
<!-- 0 -->
<g id="node1" class="node"><title>0</title>
<ellipse fill="none" stroke="black" cx="109" cy="-164" rx="18" ry="18"/>
</g>
<!-- 1 -->
<g id="node2" class="node"><title>1</title>
<ellipse fill="none" stroke="black" cx="227" cy="-164" rx="18" ry="18"/>
</g>
<!-- 0&#45;&gt;1 -->
<g id="edge1" class="edge"><title>0&#45;&gt;1</title>
<path fill="none" stroke="black" d="M127.116,-164C145.964,-164 176.531,-164 198.696,-164"/>
<polygon fill="black" stroke="black" points="198.814,-167.5 208.814,-164 198.814,-160.5 198.814,-167.5"/>
<text text-anchor="middle" x="168" y="-167.8" font-family="Times,serif" font-size="14.00">u0000</text>
</g>
<!-- 2 -->
<g id="node3" class="node"><title>2</title>
<ellipse fill="none" stroke="black" cx="345" cy="-164" rx="18" ry="18"/>
</g>
<!-- 1&#45;&gt;2 -->
<g id="edge2" class="edge"><title>1&#45;&gt;2</title>
<path fill="none" stroke="black" d="M245.116,-164C263.964,-164 294.531,-164 316.696,-164"/>
<polygon fill="black" stroke="black" points="316.814,-167.5 326.814,-164 316.814,-160.5 316.814,-167.5"/>
<text text-anchor="middle" x="286" y="-167.8" font-family="Times,serif" font-size="14.00">u0001</text>
</g>
<!-- 3 -->
<g id="node4" class="node"><title>3</title>
<ellipse fill="none" stroke="black" cx="704" cy="-164" rx="18" ry="18"/>
</g>
<!-- 2&#45;&gt;3 -->
<g id="edge3" class="edge"><title>2&#45;&gt;3</title>
<path fill="none" stroke="black" d="M363.219,-164C420.597,-164 605.615,-164 675.725,-164"/>
<polygon fill="black" stroke="black" points="675.954,-167.5 685.954,-164 675.954,-160.5 675.954,-167.5"/>
<text text-anchor="middle" x="522" y="-167.8" font-family="Times,serif" font-size="14.00">u0004</text>
</g>
<!-- 4 -->
<g id="node5" class="node"><title>4</title>
<ellipse fill="none" stroke="black" cx="1063" cy="-165" rx="18" ry="18"/>
</g>
<!-- 2&#45;&gt;4 -->
<g id="edge4" class="edge"><title>2&#45;&gt;4</title>
<path fill="none" stroke="black" d="M358.249,-176.725C378.093,-195.904 419.366,-230 462,-230 462,-230 462,-230 946,-230 983.665,-230 1020.44,-203.598 1042.16,-184.447"/>
<polygon fill="black" stroke="black" points="1044.7,-186.865 1049.71,-177.533 1039.97,-181.701 1044.7,-186.865"/>
<text text-anchor="middle" x="704" y="-233.8" font-family="Times,serif" font-size="14.00">u0003</text>
</g>
<!-- 5 -->
<g id="node9" class="node"><title>5</title>
<ellipse fill="none" stroke="black" cx="463" cy="-65" rx="18" ry="18"/>
</g>
<!-- 2&#45;&gt;5 -->
<g id="edge5" class="edge"><title>2&#45;&gt;5</title>
<path fill="none" stroke="black" d="M359.307,-152.643C379.323,-135.561 417.358,-103.1 441.1,-82.8373"/>
<polygon fill="black" stroke="black" points="443.514,-85.3781 448.849,-76.2241 438.97,-80.0536 443.514,-85.3781"/>
<text text-anchor="middle" x="404" y="-135.8" font-family="Times,serif" font-size="14.00">u0005</text>
</g>
<!-- 3&#45;&gt;4 -->
<g id="edge6" class="edge"><title>3&#45;&gt;4</title>
<path fill="none" stroke="black" d="M721.063,-170.498C728.257,-173.072 736.923,-175.72 745,-177 765.193,-180.199 770.558,-177.346 791,-177 895.934,-175.222 922.337,-176.742 1027,-169 1029.56,-168.811 1032.22,-168.576 1034.89,-168.315"/>
<polygon fill="black" stroke="black" points="1035.37,-171.783 1044.94,-167.227 1034.62,-164.824 1035.37,-171.783"/>
<text text-anchor="middle" x="886" y="-179.8" font-family="Times,serif" font-size="14.00">u0003</text>
</g>
<!-- 6 -->
<g id="node7" class="node"><title>6</title>
<ellipse fill="none" stroke="black" cx="827" cy="-146" rx="18" ry="18"/>
</g>
<!-- 3&#45;&gt;6 -->
<g id="edge7" class="edge"><title>3&#45;&gt;6</title>
<path fill="none" stroke="black" d="M722.08,-161.459C742.078,-158.484 775.454,-153.519 798.976,-150.02"/>
<polygon fill="black" stroke="black" points="799.631,-153.461 809.007,-148.528 798.601,-146.537 799.631,-153.461"/>
<text text-anchor="middle" x="768" y="-161.8" font-family="Times,serif" font-size="14.00">u0005</text>
</g>
<!-- 7 -->
<g id="node6" class="node"><title>7</title>
<ellipse fill="none" stroke="black" cx="1185" cy="-165" rx="18" ry="18"/>
<ellipse fill="none" stroke="black" cx="1185" cy="-165" rx="22" ry="22"/>
</g>
<!-- 4&#45;&gt;7 -->
<g id="edge8" class="edge"><title>4&#45;&gt;7</title>
<path fill="none" stroke="black" d="M1081.19,-165C1099.77,-165 1129.76,-165 1152.57,-165"/>
<polygon fill="black" stroke="black" points="1152.79,-168.5 1162.79,-165 1152.79,-161.5 1152.79,-168.5"/>
<text text-anchor="middle" x="1122" y="-168.8" font-family="Times,serif" font-size="14.00">u0002</text>
</g>
<!-- 8 -->
<g id="node8" class="node"><title>8</title>
<ellipse fill="none" stroke="black" cx="945" cy="-117" rx="18" ry="18"/>
</g>
<!-- 6&#45;&gt;8 -->
<g id="edge9" class="edge"><title>6&#45;&gt;8</title>
<path fill="none" stroke="black" d="M844.62,-141.845C863.657,-137.086 895.103,-129.224 917.523,-123.619"/>
<polygon fill="black" stroke="black" points="918.558,-126.968 927.411,-121.147 916.861,-120.177 918.558,-126.968"/>
<text text-anchor="middle" x="886" y="-140.8" font-family="Times,serif" font-size="14.00">u0004</text>
</g>
<!-- 8&#45;&gt;4 -->
<g id="edge10" class="edge"><title>8&#45;&gt;4</title>
<path fill="none" stroke="black" d="M962.129,-123.674C981.435,-131.663 1013.99,-145.135 1036.67,-154.517"/>
<polygon fill="black" stroke="black" points="1035.43,-157.793 1046.01,-158.382 1038.11,-151.325 1035.43,-157.793"/>
<text text-anchor="middle" x="1004" y="-153.8" font-family="Times,serif" font-size="14.00">u0003</text>
</g>
<!-- 5&#45;&gt;4 -->
<g id="edge12" class="edge"><title>5&#45;&gt;4</title>
<path fill="none" stroke="black" d="M476.286,-52.4673C496.181,-33.5791 537.523,-0 580,-0 580,-0 580,-0 946,-0 1012.41,-0 1044.09,-90.5604 1056.05,-137.499"/>
<polygon fill="black" stroke="black" points="1052.67,-138.446 1058.43,-147.342 1059.48,-136.799 1052.67,-138.446"/>
<text text-anchor="middle" x="768" y="-3.8" font-family="Times,serif" font-size="14.00">u0003</text>
</g>
<!-- 5&#45;&gt;8 -->
<g id="edge11" class="edge"><title>5&#45;&gt;8</title>
<path fill="none" stroke="black" d="M480.764,-60.4973C503.194,-54.8787 544.287,-46 580,-46 580,-46 580,-46 828,-46 866.904,-46 903.782,-75.4111 925.125,-96.3745"/>
<polygon fill="black" stroke="black" points="922.759,-98.9598 932.261,-103.645 927.755,-94.0567 922.759,-98.9598"/>
<text text-anchor="middle" x="704" y="-49.8" font-family="Times,serif" font-size="14.00">u0004</text>
</g>
<!-- 9 -->
<g id="node10" class="node"><title>9</title>
<ellipse fill="none" stroke="black" cx="581" cy="-94" rx="18" ry="18"/>
</g>
<!-- 5&#45;&gt;9 -->
<g id="edge13" class="edge"><title>5&#45;&gt;9</title>
<path fill="none" stroke="black" d="M480.62,-69.155C499.657,-73.9142 531.103,-81.7758 553.523,-87.3808"/>
<polygon fill="black" stroke="black" points="552.861,-90.8228 563.411,-89.8527 554.558,-84.0318 552.861,-90.8228"/>
<text text-anchor="middle" x="522" y="-88.8" font-family="Times,serif" font-size="14.00">u0005</text>
</g>
<!-- 10 -->
<g id="node11" class="node"><title>10</title>
<ellipse fill="none" stroke="black" cx="704" cy="-97" rx="18" ry="18"/>
</g>
<!-- 9&#45;&gt;10 -->
<g id="edge14" class="edge"><title>9&#45;&gt;10</title>
<path fill="none" stroke="black" d="M599.08,-94.4235C618.965,-94.9165 652.077,-95.7375 675.577,-96.3201"/>
<polygon fill="black" stroke="black" points="675.532,-99.8199 685.615,-96.569 675.705,-92.8221 675.532,-99.8199"/>
<text text-anchor="middle" x="640" y="-99.8" font-family="Times,serif" font-size="14.00">u0004</text>
</g>
<!-- 11 -->
<g id="node12" class="node"><title>11</title>
<ellipse fill="none" stroke="black" cx="827" cy="-92" rx="18" ry="18"/>
</g>
<!-- 10&#45;&gt;11 -->
<g id="edge15" class="edge"><title>10&#45;&gt;11</title>
<path fill="none" stroke="black" d="M722.08,-96.2942C742.078,-95.4679 775.454,-94.0887 798.976,-93.1167"/>
<polygon fill="black" stroke="black" points="799.16,-96.6122 809.007,-92.7022 798.871,-89.6181 799.16,-96.6122"/>
<text text-anchor="middle" x="768" y="-99.8" font-family="Times,serif" font-size="14.00">u0005</text>
</g>
<!-- 11&#45;&gt;8 -->
<g id="edge16" class="edge"><title>11&#45;&gt;8</title>
<path fill="none" stroke="black" d="M845.049,-92.3281C861.648,-93.011 887.453,-95.0432 909,-101 912.453,-101.955 915.996,-103.211 919.438,-104.602"/>
<polygon fill="black" stroke="black" points="918.16,-107.864 928.719,-108.735 921.007,-101.469 918.16,-107.864"/>
<text text-anchor="middle" x="886" y="-104.8" font-family="Times,serif" font-size="14.00">u0005</text>
</g>
<!-- initial -->
<g id="node13" class="node"><title>initial</title>
</g>
<!-- initial&#45;&gt;0 -->
<g id="edge17" class="edge"><title>initial&#45;&gt;0</title>
<path fill="none" stroke="black" d="M54.195,-164C62.6538,-164 72.0513,-164 80.5951,-164"/>
<polygon fill="black" stroke="black" points="80.8257,-167.5 90.8257,-164 80.8257,-160.5 80.8257,-167.5"/>
</g>
</g>
</svg>
