<svg width="1463px" height="177px"
 viewBox="0.00 0.00 1097.00 133.00" xmlns="http://www.w3.org/2000/svg" xmlns:xlink="http://www.w3.org/1999/xlink">
<g id="graph0" class="graph" transform="scale(1.000022500562514 1.000022500562514) rotate(0) translate(4 129)">
<title>Automaton</title>
<polygon fill="white" stroke="none" points="-4,4 -4,-129 1093,-129 1093,4 -4,4"/>
<!-- 0 -->
<g id="node1" class="node"><title>0</title>
<ellipse fill="none" stroke="black" cx="109" cy="-95" rx="18" ry="18"/>
</g>
<!-- 1 -->
<g id="node2" class="node"><title>1</title>
<ellipse fill="none" stroke="black" cx="227" cy="-95" rx="18" ry="18"/>
</g>
<!-- 0&#45;&gt;1 -->
<g id="edge1" class="edge"><title>0&#45;&gt;1</title>
<path fill="none" stroke="black" d="M127.116,-95C145.964,-95 176.531,-95 198.696,-95"/>
<polygon fill="black" stroke="black" points="198.814,-98.5001 208.814,-95 198.814,-91.5001 198.814,-98.5001"/>
<text text-anchor="middle" x="168" y="-98.8" font-family="Times,serif" font-size="14.00">u0005</text>
</g>
<!-- 2 -->
<g id="node3" class="node"><title>2</title>
<ellipse fill="none" stroke="black" cx="345" cy="-95" rx="18" ry="18"/>
</g>
<!-- 1&#45;&gt;2 -->
<g id="edge2" class="edge"><title>1&#45;&gt;2</title>
<path fill="none" stroke="black" d="M245.116,-95C263.964,-95 294.531,-95 316.696,-95"/>
<polygon fill="black" stroke="black" points="316.814,-98.5001 326.814,-95 316.814,-91.5001 316.814,-98.5001"/>
<text text-anchor="middle" x="286" y="-98.8" font-family="Times,serif" font-size="14.00">u0002</text>
</g>
<!-- 3 -->
<g id="node4" class="node"><title>3</title>
<ellipse fill="none" stroke="black" cx="463" cy="-95" rx="18" ry="18"/>
</g>
<!-- 2&#45;&gt;3 -->
<g id="edge3" class="edge"><title>2&#45;&gt;3</title>
<path fill="none" stroke="black" d="M363.116,-95C381.964,-95 412.531,-95 434.696,-95"/>
<polygon fill="black" stroke="black" points="434.814,-98.5001 444.814,-95 434.814,-91.5001 434.814,-98.5001"/>
<text text-anchor="middle" x="404" y="-98.8" font-family="Times,serif" font-size="14.00">u0000</text>
</g>
<!-- 4 -->
<g id="node5" class="node"><title>4</title>
<ellipse fill="none" stroke="black" cx="581" cy="-95" rx="18" ry="18"/>
</g>
<!-- 3&#45;&gt;4 -->
<g id="edge4" class="edge"><title>3&#45;&gt;4</title>
<path fill="none" stroke="black" d="M481.116,-95C499.964,-95 530.531,-95 552.696,-95"/>
<polygon fill="black" stroke="black" points="552.814,-98.5001 562.814,-95 552.814,-91.5001 552.814,-98.5001"/>
<text text-anchor="middle" x="522" y="-98.8" font-family="Times,serif" font-size="14.00">u0004</text>
</g>
<!-- 5 -->
<g id="node6" class="node"><title>5</title>
<ellipse fill="none" stroke="black" cx="1067" cy="-64" rx="18" ry="18"/>
<ellipse fill="none" stroke="black" cx="1067" cy="-64" rx="22" ry="22"/>
</g>
<!-- 4&#45;&gt;5 -->
<g id="edge5" class="edge"><title>4&#45;&gt;5</title>
<path fill="none" stroke="black" d="M598.817,-98.5548C621.305,-102.99 662.464,-110 698,-110 698,-110 698,-110 946,-110 979.879,-110 1015.79,-93.8165 1039.4,-80.6477"/>
<polygon fill="black" stroke="black" points="1041.21,-83.6426 1048.11,-75.6077 1037.71,-77.5823 1041.21,-83.6426"/>
<text text-anchor="middle" x="822" y="-113.8" font-family="Times,serif" font-size="14.00">u0003</text>
</g>
<!-- 6 -->
<g id="node7" class="node"><title>6</title>
<ellipse fill="none" stroke="black" cx="699" cy="-64" rx="18" ry="18"/>
</g>
<!-- 4&#45;&gt;6 -->
<g id="edge6" class="edge"><title>4&#45;&gt;6</title>
<path fill="none" stroke="black" d="M597.822,-87.9944C603.756,-85.5475 610.61,-82.9324 617,-81 634.656,-75.6601 654.973,-71.4008 670.843,-68.4812"/>
<polygon fill="black" stroke="black" points="671.795,-71.8671 681.031,-66.6771 670.574,-64.9744 671.795,-71.8671"/>
<text text-anchor="middle" x="640" y="-84.8" font-family="Times,serif" font-size="14.00">u0001</text>
</g>
<!-- 6&#45;&gt;5 -->
<g id="edge7" class="edge"><title>6&#45;&gt;5</title>
<path fill="none" stroke="black" d="M717.162,-64C774.545,-64 960.298,-64 1034.73,-64"/>
<polygon fill="black" stroke="black" points="1034.88,-67.5001 1044.88,-64 1034.88,-60.5001 1034.88,-67.5001"/>
<text text-anchor="middle" x="886" y="-67.8" font-family="Times,serif" font-size="14.00">u0003</text>
</g>
<!-- 7 -->
<g id="node8" class="node"><title>7</title>
<ellipse fill="none" stroke="black" cx="822" cy="-18" rx="18" ry="18"/>
</g>
<!-- 6&#45;&gt;7 -->
<g id="edge8" class="edge"><title>6&#45;&gt;7</title>
<path fill="none" stroke="black" d="M712.215,-51.2878C718.496,-45.4696 726.589,-38.996 735,-35 753.442,-26.2379 776.173,-21.9907 793.633,-19.9326"/>
<polygon fill="black" stroke="black" points="794.139,-23.3994 803.738,-18.9133 793.437,-16.4347 794.139,-23.3994"/>
<text text-anchor="middle" x="758" y="-38.8" font-family="Times,serif" font-size="14.00">u0001</text>
</g>
<!-- 8 -->
<g id="node9" class="node"><title>8</title>
<ellipse fill="none" stroke="black" cx="945" cy="-18" rx="18" ry="18"/>
</g>
<!-- 7&#45;&gt;8 -->
<g id="edge9" class="edge"><title>7&#45;&gt;8</title>
<path fill="none" stroke="black" d="M840.08,-18C859.965,-18 893.077,-18 916.577,-18"/>
<polygon fill="black" stroke="black" points="916.615,-21.5001 926.615,-18 916.615,-14.5001 916.615,-21.5001"/>
<text text-anchor="middle" x="886" y="-21.8" font-family="Times,serif" font-size="14.00">u0001</text>
</g>
<!-- 8&#45;&gt;5 -->
<g id="edge10" class="edge"><title>8&#45;&gt;5</title>
<path fill="none" stroke="black" d="M963.102,-19.4319C979.967,-21.333 1006.17,-25.6188 1027,-35 1032.1,-37.2953 1037.17,-40.3448 1041.88,-43.6044"/>
<polygon fill="black" stroke="black" points="1039.81,-46.4223 1049.92,-49.5811 1043.99,-40.8052 1039.81,-46.4223"/>
<text text-anchor="middle" x="1004" y="-38.8" font-family="Times,serif" font-size="14.00">u0003</text>
</g>
<!-- initial -->
<g id="node10" class="node"><title>initial</title>
</g>
<!-- initial&#45;&gt;0 -->
<g id="edge11" class="edge"><title>initial&#45;&gt;0</title>
<path fill="none" stroke="black" d="M54.195,-95C62.6538,-95 72.0513,-95 80.5951,-95"/>
<polygon fill="black" stroke="black" points="80.8257,-98.5001 90.8257,-95 80.8257,-91.5001 80.8257,-98.5001"/>
</g>
</g>
</svg>
