<svg width="3519px" height="424px"
 viewBox="0.00 0.00 2639.00 318.00" xmlns="http://www.w3.org/2000/svg" xmlns:xlink="http://www.w3.org/1999/xlink">
<g id="graph0" class="graph" transform="scale(1.000022500562514 1.000022500562514) rotate(0) translate(4 314)">
<title>Automaton</title>
<polygon fill="white" stroke="none" points="-4,4 -4,-314 2635,-314 2635,4 -4,4"/>
<!-- 0 -->
<g id="node1" class="node"><title>0</title>
<ellipse fill="none" stroke="black" cx="109" cy="-126" rx="18" ry="18"/>
</g>
<!-- 1 -->
<g id="node2" class="node"><title>1</title>
<ellipse fill="none" stroke="black" cx="227" cy="-126" rx="18" ry="18"/>
</g>
<!-- 0&#45;&gt;1 -->
<g id="edge1" class="edge"><title>0&#45;&gt;1</title>
<path fill="none" stroke="black" d="M127.116,-126C145.964,-126 176.531,-126 198.696,-126"/>
<polygon fill="black" stroke="black" points="198.814,-129.5 208.814,-126 198.814,-122.5 198.814,-129.5"/>
<text text-anchor="middle" x="168" y="-129.8" font-family="Times,serif" font-size="14.00">u0005</text>
</g>
<!-- 2 -->
<g id="node3" class="node"><title>2</title>
<ellipse fill="none" stroke="black" cx="344" cy="-126" rx="18" ry="18"/>
</g>
<!-- 1&#45;&gt;2 -->
<g id="edge2" class="edge"><title>1&#45;&gt;2</title>
<path fill="none" stroke="black" d="M245.466,-126C264.064,-126 293.756,-126 315.499,-126"/>
<polygon fill="black" stroke="black" points="315.746,-129.5 325.746,-126 315.746,-122.5 315.746,-129.5"/>
<text text-anchor="middle" x="285.5" y="-129.8" font-family="Times,serif" font-size="14.00">u000c</text>
</g>
<!-- 3 -->
<g id="node4" class="node"><title>3</title>
<ellipse fill="none" stroke="black" cx="462" cy="-126" rx="18" ry="18"/>
</g>
<!-- 2&#45;&gt;3 -->
<g id="edge3" class="edge"><title>2&#45;&gt;3</title>
<path fill="none" stroke="black" d="M362.116,-126C380.964,-126 411.531,-126 433.696,-126"/>
<polygon fill="black" stroke="black" points="433.814,-129.5 443.814,-126 433.814,-122.5 433.814,-129.5"/>
<text text-anchor="middle" x="403" y="-129.8" font-family="Times,serif" font-size="14.00">u0001</text>
</g>
<!-- 4 -->
<g id="node5" class="node"><title>4</title>
<ellipse fill="none" stroke="black" cx="580" cy="-126" rx="18" ry="18"/>
</g>
<!-- 3&#45;&gt;4 -->
<g id="edge4" class="edge"><title>3&#45;&gt;4</title>
<path fill="none" stroke="black" d="M480.116,-126C498.964,-126 529.531,-126 551.696,-126"/>
<polygon fill="black" stroke="black" points="551.814,-129.5 561.814,-126 551.814,-122.5 551.814,-129.5"/>
<text text-anchor="middle" x="521" y="-129.8" font-family="Times,serif" font-size="14.00">u0008</text>
</g>
<!-- 5 -->
<g id="node6" class="node"><title>5</title>
<ellipse fill="none" stroke="black" cx="698" cy="-126" rx="18" ry="18"/>
</g>
<!-- 4&#45;&gt;5 -->
<g id="edge5" class="edge"><title>4&#45;&gt;5</title>
<path fill="none" stroke="black" d="M598.116,-126C616.964,-126 647.531,-126 669.696,-126"/>
<polygon fill="black" stroke="black" points="669.814,-129.5 679.814,-126 669.814,-122.5 669.814,-129.5"/>
<text text-anchor="middle" x="639" y="-129.8" font-family="Times,serif" font-size="14.00">u0009</text>
</g>
<!-- 6 -->
<g id="node7" class="node"><title>6</title>
<ellipse fill="none" stroke="black" cx="816" cy="-207" rx="18" ry="18"/>
</g>
<!-- 5&#45;&gt;6 -->
<g id="edge6" class="edge"><title>5&#45;&gt;6</title>
<path fill="none" stroke="black" d="M713.224,-135.932C732.965,-149.717 768.883,-174.798 792.34,-191.177"/>
<polygon fill="black" stroke="black" points="790.457,-194.131 800.66,-196.987 794.465,-188.392 790.457,-194.131"/>
<text text-anchor="middle" x="757" y="-183.8" font-family="Times,serif" font-size="14.00">u0003</text>
</g>
<!-- 7 -->
<g id="node27" class="node"><title>7</title>
<ellipse fill="none" stroke="black" cx="1288" cy="-126" rx="18" ry="18"/>
</g>
<!-- 5&#45;&gt;7 -->
<g id="edge7" class="edge"><title>5&#45;&gt;7</title>
<path fill="none" stroke="black" d="M716.295,-126C738.962,-126 779.958,-126 815,-126 815,-126 815,-126 1171,-126 1201.25,-126 1235.94,-126 1259.44,-126"/>
<polygon fill="black" stroke="black" points="1259.71,-129.5 1269.71,-126 1259.71,-122.5 1259.71,-129.5"/>
<text text-anchor="middle" x="993" y="-129.8" font-family="Times,serif" font-size="14.00">u0002</text>
</g>
<!-- 8 -->
<g id="node44" class="node"><title>8</title>
<ellipse fill="none" stroke="black" cx="816" cy="-72" rx="18" ry="18"/>
</g>
<!-- 5&#45;&gt;8 -->
<g id="edge8" class="edge"><title>5&#45;&gt;8</title>
<path fill="none" stroke="black" d="M711.406,-113.665C717.733,-107.936 725.809,-101.429 734,-97 750.992,-87.8133 771.852,-81.4751 788.147,-77.4794"/>
<polygon fill="black" stroke="black" points="789.15,-80.8402 798.11,-75.1856 787.579,-74.0186 789.15,-80.8402"/>
<text text-anchor="middle" x="757" y="-100.8" font-family="Times,serif" font-size="14.00">u0000</text>
</g>
<!-- 9 -->
<g id="node8" class="node"><title>9</title>
<ellipse fill="none" stroke="black" cx="934" cy="-292" rx="18" ry="18"/>
</g>
<!-- 6&#45;&gt;9 -->
<g id="edge9" class="edge"><title>6&#45;&gt;9</title>
<path fill="none" stroke="black" d="M827.698,-221.022C834.18,-228.946 842.93,-238.696 852,-246 869.268,-259.905 891.271,-272.109 907.985,-280.447"/>
<polygon fill="black" stroke="black" points="906.615,-283.672 917.139,-284.892 909.673,-277.375 906.615,-283.672"/>
<text text-anchor="middle" x="875" y="-277.8" font-family="Times,serif" font-size="14.00">u0003</text>
</g>
<!-- 10 -->
<g id="node18" class="node"><title>10</title>
<ellipse fill="none" stroke="black" cx="934" cy="-238" rx="18" ry="18"/>
</g>
<!-- 6&#45;&gt;10 -->
<g id="edge10" class="edge"><title>6&#45;&gt;10</title>
<path fill="none" stroke="black" d="M833.62,-211.442C852.657,-216.529 884.103,-224.933 906.523,-230.924"/>
<polygon fill="black" stroke="black" points="905.846,-234.366 916.411,-233.567 907.654,-227.603 905.846,-234.366"/>
<text text-anchor="middle" x="875" y="-230.8" font-family="Times,serif" font-size="14.00">u0002</text>
</g>
<!-- 11 -->
<g id="node23" class="node"><title>11</title>
<ellipse fill="none" stroke="black" cx="934" cy="-184" rx="18" ry="18"/>
</g>
<!-- 6&#45;&gt;11 -->
<g id="edge11" class="edge"><title>6&#45;&gt;11</title>
<path fill="none" stroke="black" d="M833.278,-201.913C839.141,-200.197 845.831,-198.371 852,-197 869.735,-193.058 889.908,-189.817 905.685,-187.557"/>
<polygon fill="black" stroke="black" points="906.396,-190.991 915.821,-186.152 905.436,-184.058 906.396,-190.991"/>
<text text-anchor="middle" x="875" y="-200.8" font-family="Times,serif" font-size="14.00">u0000</text>
</g>
<!-- 16 -->
<g id="node9" class="node"><title>16</title>
<ellipse fill="none" stroke="black" cx="1052" cy="-292" rx="18" ry="18"/>
</g>
<!-- 9&#45;&gt;16 -->
<g id="edge12" class="edge"><title>9&#45;&gt;16</title>
<path fill="none" stroke="black" d="M952.116,-292C970.964,-292 1001.53,-292 1023.7,-292"/>
<polygon fill="black" stroke="black" points="1023.81,-295.5 1033.81,-292 1023.81,-288.5 1023.81,-295.5"/>
<text text-anchor="middle" x="993" y="-295.8" font-family="Times,serif" font-size="14.00">u000d</text>
</g>
<!-- 23 -->
<g id="node10" class="node"><title>23</title>
<ellipse fill="none" stroke="black" cx="1170" cy="-292" rx="18" ry="18"/>
</g>
<!-- 16&#45;&gt;23 -->
<g id="edge13" class="edge"><title>16&#45;&gt;23</title>
<path fill="none" stroke="black" d="M1070.12,-292C1088.96,-292 1119.53,-292 1141.7,-292"/>
<polygon fill="black" stroke="black" points="1141.81,-295.5 1151.81,-292 1141.81,-288.5 1141.81,-295.5"/>
<text text-anchor="middle" x="1111" y="-295.8" font-family="Times,serif" font-size="14.00">u0011</text>
</g>
<!-- 30 -->
<g id="node11" class="node"><title>30</title>
<ellipse fill="none" stroke="black" cx="1288" cy="-292" rx="18" ry="18"/>
</g>
<!-- 23&#45;&gt;30 -->
<g id="edge14" class="edge"><title>23&#45;&gt;30</title>
<path fill="none" stroke="black" d="M1188.12,-292C1206.96,-292 1237.53,-292 1259.7,-292"/>
<polygon fill="black" stroke="black" points="1259.81,-295.5 1269.81,-292 1259.81,-288.5 1259.81,-295.5"/>
<text text-anchor="middle" x="1229" y="-295.8" font-family="Times,serif" font-size="14.00">u000f</text>
</g>
<!-- 37 -->
<g id="node12" class="node"><title>37</title>
<ellipse fill="none" stroke="black" cx="1406" cy="-288" rx="18" ry="18"/>
</g>
<!-- 30&#45;&gt;37 -->
<g id="edge15" class="edge"><title>30&#45;&gt;37</title>
<path fill="none" stroke="black" d="M1306.12,-291.41C1324.96,-290.76 1355.53,-289.706 1377.7,-288.942"/>
<polygon fill="black" stroke="black" points="1377.94,-292.435 1387.81,-288.593 1377.7,-285.439 1377.94,-292.435"/>
<text text-anchor="middle" x="1347" y="-293.8" font-family="Times,serif" font-size="14.00">u000e</text>
</g>
<!-- 43 -->
<g id="node13" class="node"><title>43</title>
<ellipse fill="none" stroke="black" cx="1524" cy="-283" rx="18" ry="18"/>
</g>
<!-- 37&#45;&gt;43 -->
<g id="edge16" class="edge"><title>37&#45;&gt;43</title>
<path fill="none" stroke="black" d="M1424.12,-287.262C1442.96,-286.45 1473.53,-285.132 1495.7,-284.177"/>
<polygon fill="black" stroke="black" points="1495.97,-287.668 1505.81,-283.741 1495.67,-280.675 1495.97,-287.668"/>
<text text-anchor="middle" x="1465" y="-289.8" font-family="Times,serif" font-size="14.00">u0006</text>
</g>
<!-- 49 -->
<g id="node14" class="node"><title>49</title>
<ellipse fill="none" stroke="black" cx="1642" cy="-280" rx="18" ry="18"/>
</g>
<!-- 43&#45;&gt;49 -->
<g id="edge17" class="edge"><title>43&#45;&gt;49</title>
<path fill="none" stroke="black" d="M1542.12,-282.557C1560.96,-282.07 1591.53,-281.279 1613.7,-280.706"/>
<polygon fill="black" stroke="black" points="1613.91,-284.202 1623.81,-280.444 1613.73,-277.204 1613.91,-284.202"/>
<text text-anchor="middle" x="1583" y="-285.8" font-family="Times,serif" font-size="14.00">u0004</text>
</g>
<!-- 44 -->
<g id="node15" class="node"><title>44</title>
<ellipse fill="none" stroke="black" cx="1760" cy="-234" rx="18" ry="18"/>
</g>
<!-- 49&#45;&gt;44 -->
<g id="edge18" class="edge"><title>49&#45;&gt;44</title>
<path fill="none" stroke="black" d="M1659.14,-273.645C1675.5,-267.203 1701.52,-256.937 1724,-248 1727.1,-246.767 1730.36,-245.47 1733.58,-244.183"/>
<polygon fill="black" stroke="black" points="1734.99,-247.389 1742.98,-240.426 1732.39,-240.889 1734.99,-247.389"/>
<text text-anchor="middle" x="1701" y="-268.8" font-family="Times,serif" font-size="14.00">u0010</text>
</g>
<!-- 50 -->
<g id="node16" class="node"><title>50</title>
<ellipse fill="none" stroke="black" cx="2487" cy="-153" rx="18" ry="18"/>
</g>
<!-- 44&#45;&gt;50 -->
<g id="edge19" class="edge"><title>44&#45;&gt;50</title>
<path fill="none" stroke="black" d="M1778.27,-232.063C1800.91,-229.696 1841.88,-226 1877,-226 1877,-226 1877,-226 2366,-226 2406.79,-226 2445.51,-194.831 2467.45,-173.227"/>
<polygon fill="black" stroke="black" points="2469.98,-175.642 2474.48,-166.051 2464.98,-170.741 2469.98,-175.642"/>
<text text-anchor="middle" x="2119" y="-229.8" font-family="Times,serif" font-size="14.00">u0004</text>
</g>
<!-- 55 -->
<g id="node17" class="node"><title>55</title>
<ellipse fill="none" stroke="black" cx="2609" cy="-153" rx="18" ry="18"/>
<ellipse fill="none" stroke="black" cx="2609" cy="-153" rx="22" ry="22"/>
</g>
<!-- 50&#45;&gt;55 -->
<g id="edge20" class="edge"><title>50&#45;&gt;55</title>
<path fill="none" stroke="black" d="M2505.19,-153C2523.77,-153 2553.76,-153 2576.57,-153"/>
<polygon fill="black" stroke="black" points="2576.79,-156.5 2586.79,-153 2576.79,-149.5 2576.79,-156.5"/>
<text text-anchor="middle" x="2546" y="-156.8" font-family="Times,serif" font-size="14.00">u000b</text>
</g>
<!-- 17 -->
<g id="node19" class="node"><title>17</title>
<ellipse fill="none" stroke="black" cx="1052" cy="-238" rx="18" ry="18"/>
</g>
<!-- 10&#45;&gt;17 -->
<g id="edge21" class="edge"><title>10&#45;&gt;17</title>
<path fill="none" stroke="black" d="M952.116,-238C970.964,-238 1001.53,-238 1023.7,-238"/>
<polygon fill="black" stroke="black" points="1023.81,-241.5 1033.81,-238 1023.81,-234.5 1023.81,-241.5"/>
<text text-anchor="middle" x="993" y="-241.8" font-family="Times,serif" font-size="14.00">u0002</text>
</g>
<!-- 24 -->
<g id="node20" class="node"><title>24</title>
<ellipse fill="none" stroke="black" cx="1170" cy="-238" rx="18" ry="18"/>
</g>
<!-- 17&#45;&gt;24 -->
<g id="edge22" class="edge"><title>17&#45;&gt;24</title>
<path fill="none" stroke="black" d="M1070.12,-238C1088.96,-238 1119.53,-238 1141.7,-238"/>
<polygon fill="black" stroke="black" points="1141.81,-241.5 1151.81,-238 1141.81,-234.5 1141.81,-241.5"/>
<text text-anchor="middle" x="1111" y="-241.8" font-family="Times,serif" font-size="14.00">u000d</text>
</g>
<!-- 31 -->
<g id="node21" class="node"><title>31</title>
<ellipse fill="none" stroke="black" cx="1288" cy="-238" rx="18" ry="18"/>
</g>
<!-- 24&#45;&gt;31 -->
<g id="edge23" class="edge"><title>24&#45;&gt;31</title>
<path fill="none" stroke="black" d="M1188.12,-238C1206.96,-238 1237.53,-238 1259.7,-238"/>
<polygon fill="black" stroke="black" points="1259.81,-241.5 1269.81,-238 1259.81,-234.5 1259.81,-241.5"/>
<text text-anchor="middle" x="1229" y="-241.8" font-family="Times,serif" font-size="14.00">u0011</text>
</g>
<!-- 38 -->
<g id="node22" class="node"><title>38</title>
<ellipse fill="none" stroke="black" cx="1406" cy="-234" rx="18" ry="18"/>
</g>
<!-- 31&#45;&gt;38 -->
<g id="edge24" class="edge"><title>31&#45;&gt;38</title>
<path fill="none" stroke="black" d="M1306.12,-237.41C1324.96,-236.76 1355.53,-235.706 1377.7,-234.942"/>
<polygon fill="black" stroke="black" points="1377.94,-238.435 1387.81,-234.593 1377.7,-231.439 1377.94,-238.435"/>
<text text-anchor="middle" x="1347" y="-239.8" font-family="Times,serif" font-size="14.00">u000f</text>
</g>
<!-- 38&#45;&gt;44 -->
<g id="edge25" class="edge"><title>38&#45;&gt;44</title>
<path fill="none" stroke="black" d="M1424.46,-234C1481.47,-234 1662.53,-234 1731.74,-234"/>
<polygon fill="black" stroke="black" points="1731.85,-237.5 1741.85,-234 1731.85,-230.5 1731.85,-237.5"/>
<text text-anchor="middle" x="1583" y="-237.8" font-family="Times,serif" font-size="14.00">u0004</text>
</g>
<!-- 18 -->
<g id="node24" class="node"><title>18</title>
<ellipse fill="none" stroke="black" cx="1052" cy="-184" rx="18" ry="18"/>
</g>
<!-- 11&#45;&gt;18 -->
<g id="edge26" class="edge"><title>11&#45;&gt;18</title>
<path fill="none" stroke="black" d="M952.116,-184C970.964,-184 1001.53,-184 1023.7,-184"/>
<polygon fill="black" stroke="black" points="1023.81,-187.5 1033.81,-184 1023.81,-180.5 1023.81,-187.5"/>
<text text-anchor="middle" x="993" y="-187.8" font-family="Times,serif" font-size="14.00">u000d</text>
</g>
<!-- 25 -->
<g id="node25" class="node"><title>25</title>
<ellipse fill="none" stroke="black" cx="1170" cy="-184" rx="18" ry="18"/>
</g>
<!-- 18&#45;&gt;25 -->
<g id="edge27" class="edge"><title>18&#45;&gt;25</title>
<path fill="none" stroke="black" d="M1070.12,-184C1088.96,-184 1119.53,-184 1141.7,-184"/>
<polygon fill="black" stroke="black" points="1141.81,-187.5 1151.81,-184 1141.81,-180.5 1141.81,-187.5"/>
<text text-anchor="middle" x="1111" y="-187.8" font-family="Times,serif" font-size="14.00">u0011</text>
</g>
<!-- 32 -->
<g id="node26" class="node"><title>32</title>
<ellipse fill="none" stroke="black" cx="1288" cy="-184" rx="18" ry="18"/>
</g>
<!-- 25&#45;&gt;32 -->
<g id="edge28" class="edge"><title>25&#45;&gt;32</title>
<path fill="none" stroke="black" d="M1188.12,-184C1206.96,-184 1237.53,-184 1259.7,-184"/>
<polygon fill="black" stroke="black" points="1259.81,-187.5 1269.81,-184 1259.81,-180.5 1259.81,-187.5"/>
<text text-anchor="middle" x="1229" y="-187.8" font-family="Times,serif" font-size="14.00">u000f</text>
</g>
<!-- 32&#45;&gt;38 -->
<g id="edge29" class="edge"><title>32&#45;&gt;38</title>
<path fill="none" stroke="black" d="M1305.33,-189.911C1321.83,-196.008 1347.97,-206.011 1370,-216 1373.5,-217.589 1377.16,-219.349 1380.73,-221.13"/>
<polygon fill="black" stroke="black" points="1379.33,-224.344 1389.83,-225.783 1382.52,-218.112 1379.33,-224.344"/>
<text text-anchor="middle" x="1347" y="-219.8" font-family="Times,serif" font-size="14.00">u0010</text>
</g>
<!-- 12 -->
<g id="node28" class="node"><title>12</title>
<ellipse fill="none" stroke="black" cx="1406" cy="-126" rx="18" ry="18"/>
</g>
<!-- 7&#45;&gt;12 -->
<g id="edge30" class="edge"><title>7&#45;&gt;12</title>
<path fill="none" stroke="black" d="M1306.12,-126C1324.96,-126 1355.53,-126 1377.7,-126"/>
<polygon fill="black" stroke="black" points="1377.81,-129.5 1387.81,-126 1377.81,-122.5 1377.81,-129.5"/>
<text text-anchor="middle" x="1347" y="-129.8" font-family="Times,serif" font-size="14.00">u000d</text>
</g>
<!-- 13 -->
<g id="node37" class="node"><title>13</title>
<ellipse fill="none" stroke="black" cx="1406" cy="-180" rx="18" ry="18"/>
</g>
<!-- 7&#45;&gt;13 -->
<g id="edge31" class="edge"><title>7&#45;&gt;13</title>
<path fill="none" stroke="black" d="M1304.64,-133.283C1324.02,-142.301 1357.25,-157.771 1380.13,-168.423"/>
<polygon fill="black" stroke="black" points="1378.69,-171.613 1389.23,-172.66 1381.64,-165.267 1378.69,-171.613"/>
<text text-anchor="middle" x="1347" y="-165.8" font-family="Times,serif" font-size="14.00">u0000</text>
</g>
<!-- 19 -->
<g id="node29" class="node"><title>19</title>
<ellipse fill="none" stroke="black" cx="1524" cy="-126" rx="18" ry="18"/>
</g>
<!-- 12&#45;&gt;19 -->
<g id="edge32" class="edge"><title>12&#45;&gt;19</title>
<path fill="none" stroke="black" d="M1424.12,-126C1442.96,-126 1473.53,-126 1495.7,-126"/>
<polygon fill="black" stroke="black" points="1495.81,-129.5 1505.81,-126 1495.81,-122.5 1495.81,-129.5"/>
<text text-anchor="middle" x="1465" y="-129.8" font-family="Times,serif" font-size="14.00">u0011</text>
</g>
<!-- 26 -->
<g id="node30" class="node"><title>26</title>
<ellipse fill="none" stroke="black" cx="1642" cy="-126" rx="18" ry="18"/>
</g>
<!-- 19&#45;&gt;26 -->
<g id="edge33" class="edge"><title>19&#45;&gt;26</title>
<path fill="none" stroke="black" d="M1542.12,-126C1560.96,-126 1591.53,-126 1613.7,-126"/>
<polygon fill="black" stroke="black" points="1613.81,-129.5 1623.81,-126 1613.81,-122.5 1613.81,-129.5"/>
<text text-anchor="middle" x="1583" y="-129.8" font-family="Times,serif" font-size="14.00">u000f</text>
</g>
<!-- 33 -->
<g id="node31" class="node"><title>33</title>
<ellipse fill="none" stroke="black" cx="1760" cy="-126" rx="18" ry="18"/>
</g>
<!-- 26&#45;&gt;33 -->
<g id="edge34" class="edge"><title>26&#45;&gt;33</title>
<path fill="none" stroke="black" d="M1660.12,-126C1678.96,-126 1709.53,-126 1731.7,-126"/>
<polygon fill="black" stroke="black" points="1731.81,-129.5 1741.81,-126 1731.81,-122.5 1731.81,-129.5"/>
<text text-anchor="middle" x="1701" y="-129.8" font-family="Times,serif" font-size="14.00">u0004</text>
</g>
<!-- 39 -->
<g id="node32" class="node"><title>39</title>
<ellipse fill="none" stroke="black" cx="1878" cy="-126" rx="18" ry="18"/>
</g>
<!-- 33&#45;&gt;39 -->
<g id="edge35" class="edge"><title>33&#45;&gt;39</title>
<path fill="none" stroke="black" d="M1778.12,-126C1796.96,-126 1827.53,-126 1849.7,-126"/>
<polygon fill="black" stroke="black" points="1849.81,-129.5 1859.81,-126 1849.81,-122.5 1849.81,-129.5"/>
<text text-anchor="middle" x="1819" y="-129.8" font-family="Times,serif" font-size="14.00">u000e</text>
</g>
<!-- 45 -->
<g id="node33" class="node"><title>45</title>
<ellipse fill="none" stroke="black" cx="1996" cy="-126" rx="18" ry="18"/>
</g>
<!-- 39&#45;&gt;45 -->
<g id="edge36" class="edge"><title>39&#45;&gt;45</title>
<path fill="none" stroke="black" d="M1896.12,-126C1914.96,-126 1945.53,-126 1967.7,-126"/>
<polygon fill="black" stroke="black" points="1967.81,-129.5 1977.81,-126 1967.81,-122.5 1967.81,-129.5"/>
<text text-anchor="middle" x="1937" y="-129.8" font-family="Times,serif" font-size="14.00">u000a</text>
</g>
<!-- 51 -->
<g id="node34" class="node"><title>51</title>
<ellipse fill="none" stroke="black" cx="2119" cy="-126" rx="18" ry="18"/>
</g>
<!-- 45&#45;&gt;51 -->
<g id="edge37" class="edge"><title>45&#45;&gt;51</title>
<path fill="none" stroke="black" d="M2014.08,-126C2033.96,-126 2067.08,-126 2090.58,-126"/>
<polygon fill="black" stroke="black" points="2090.62,-129.5 2100.62,-126 2090.62,-122.5 2090.62,-129.5"/>
<text text-anchor="middle" x="2055" y="-129.8" font-family="Times,serif" font-size="14.00">u0010</text>
</g>
<!-- 56 -->
<g id="node35" class="node"><title>56</title>
<ellipse fill="none" stroke="black" cx="2242" cy="-126" rx="18" ry="18"/>
</g>
<!-- 51&#45;&gt;56 -->
<g id="edge38" class="edge"><title>51&#45;&gt;56</title>
<path fill="none" stroke="black" d="M2137.08,-126C2156.96,-126 2190.08,-126 2213.58,-126"/>
<polygon fill="black" stroke="black" points="2213.62,-129.5 2223.62,-126 2213.62,-122.5 2213.62,-129.5"/>
<text text-anchor="middle" x="2183" y="-129.8" font-family="Times,serif" font-size="14.00">u000e</text>
</g>
<!-- 59 -->
<g id="node36" class="node"><title>59</title>
<ellipse fill="none" stroke="black" cx="2365" cy="-126" rx="18" ry="18"/>
</g>
<!-- 56&#45;&gt;59 -->
<g id="edge39" class="edge"><title>56&#45;&gt;59</title>
<path fill="none" stroke="black" d="M2260.08,-126C2279.96,-126 2313.08,-126 2336.58,-126"/>
<polygon fill="black" stroke="black" points="2336.62,-129.5 2346.62,-126 2336.62,-122.5 2336.62,-129.5"/>
<text text-anchor="middle" x="2301" y="-129.8" font-family="Times,serif" font-size="14.00">u0006</text>
</g>
<!-- 59&#45;&gt;50 -->
<g id="edge40" class="edge"><title>59&#45;&gt;50</title>
<path fill="none" stroke="black" d="M2382.98,-129.372C2400.17,-132.839 2427.5,-138.493 2451,-144 2453.71,-144.636 2456.54,-145.322 2459.35,-146.021"/>
<polygon fill="black" stroke="black" points="2458.75,-149.478 2469.3,-148.55 2460.47,-142.694 2458.75,-149.478"/>
<text text-anchor="middle" x="2428.5" y="-147.8" font-family="Times,serif" font-size="14.00">u000e</text>
</g>
<!-- 20 -->
<g id="node38" class="node"><title>20</title>
<ellipse fill="none" stroke="black" cx="1524" cy="-180" rx="18" ry="18"/>
</g>
<!-- 13&#45;&gt;20 -->
<g id="edge41" class="edge"><title>13&#45;&gt;20</title>
<path fill="none" stroke="black" d="M1424.12,-180C1442.96,-180 1473.53,-180 1495.7,-180"/>
<polygon fill="black" stroke="black" points="1495.81,-183.5 1505.81,-180 1495.81,-176.5 1495.81,-183.5"/>
<text text-anchor="middle" x="1465" y="-183.8" font-family="Times,serif" font-size="14.00">u0002</text>
</g>
<!-- 27 -->
<g id="node39" class="node"><title>27</title>
<ellipse fill="none" stroke="black" cx="1642" cy="-180" rx="18" ry="18"/>
</g>
<!-- 20&#45;&gt;27 -->
<g id="edge42" class="edge"><title>20&#45;&gt;27</title>
<path fill="none" stroke="black" d="M1542.12,-180C1560.96,-180 1591.53,-180 1613.7,-180"/>
<polygon fill="black" stroke="black" points="1613.81,-183.5 1623.81,-180 1613.81,-176.5 1613.81,-183.5"/>
<text text-anchor="middle" x="1583" y="-183.8" font-family="Times,serif" font-size="14.00">u0000</text>
</g>
<!-- 34 -->
<g id="node40" class="node"><title>34</title>
<ellipse fill="none" stroke="black" cx="1760" cy="-180" rx="18" ry="18"/>
</g>
<!-- 27&#45;&gt;34 -->
<g id="edge43" class="edge"><title>27&#45;&gt;34</title>
<path fill="none" stroke="black" d="M1660.12,-180C1678.96,-180 1709.53,-180 1731.7,-180"/>
<polygon fill="black" stroke="black" points="1731.81,-183.5 1741.81,-180 1731.81,-176.5 1731.81,-183.5"/>
<text text-anchor="middle" x="1701" y="-183.8" font-family="Times,serif" font-size="14.00">u0003</text>
</g>
<!-- 40 -->
<g id="node41" class="node"><title>40</title>
<ellipse fill="none" stroke="black" cx="1878" cy="-180" rx="18" ry="18"/>
</g>
<!-- 34&#45;&gt;40 -->
<g id="edge44" class="edge"><title>34&#45;&gt;40</title>
<path fill="none" stroke="black" d="M1778.12,-180C1796.96,-180 1827.53,-180 1849.7,-180"/>
<polygon fill="black" stroke="black" points="1849.81,-183.5 1859.81,-180 1849.81,-176.5 1849.81,-183.5"/>
<text text-anchor="middle" x="1819" y="-183.8" font-family="Times,serif" font-size="14.00">u000d</text>
</g>
<!-- 46 -->
<g id="node42" class="node"><title>46</title>
<ellipse fill="none" stroke="black" cx="1996" cy="-180" rx="18" ry="18"/>
</g>
<!-- 40&#45;&gt;46 -->
<g id="edge45" class="edge"><title>40&#45;&gt;46</title>
<path fill="none" stroke="black" d="M1896.12,-180C1914.96,-180 1945.53,-180 1967.7,-180"/>
<polygon fill="black" stroke="black" points="1967.81,-183.5 1977.81,-180 1967.81,-176.5 1967.81,-183.5"/>
<text text-anchor="middle" x="1937" y="-183.8" font-family="Times,serif" font-size="14.00">u0011</text>
</g>
<!-- 52 -->
<g id="node43" class="node"><title>52</title>
<ellipse fill="none" stroke="black" cx="2183" cy="-174" rx="18" ry="18"/>
</g>
<!-- 46&#45;&gt;52 -->
<g id="edge46" class="edge"><title>46&#45;&gt;52</title>
<path fill="none" stroke="black" d="M2014.07,-179.446C2046.29,-178.401 2116.27,-176.132 2154.95,-174.877"/>
<polygon fill="black" stroke="black" points="2155.09,-178.375 2164.97,-174.552 2154.86,-171.378 2155.09,-178.375"/>
<text text-anchor="middle" x="2055" y="-181.8" font-family="Times,serif" font-size="14.00">u000f</text>
</g>
<!-- 52&#45;&gt;50 -->
<g id="edge47" class="edge"><title>52&#45;&gt;50</title>
<path fill="none" stroke="black" d="M2201.24,-173.71C2243.78,-172.846 2357.12,-169.649 2451,-159 2453.57,-158.708 2456.24,-158.351 2458.91,-157.957"/>
<polygon fill="black" stroke="black" points="2459.66,-161.381 2468.97,-156.32 2458.53,-154.472 2459.66,-161.381"/>
<text text-anchor="middle" x="2301" y="-174.8" font-family="Times,serif" font-size="14.00">u000a</text>
</g>
<!-- 14 -->
<g id="node45" class="node"><title>14</title>
<ellipse fill="none" stroke="black" cx="934" cy="-18" rx="18" ry="18"/>
</g>
<!-- 8&#45;&gt;14 -->
<g id="edge48" class="edge"><title>8&#45;&gt;14</title>
<path fill="none" stroke="black" d="M832.179,-63.3759C838.276,-60.0133 845.409,-56.205 852,-53 870.368,-44.0681 891.575,-34.9462 907.68,-28.2551"/>
<polygon fill="black" stroke="black" points="909.064,-31.4704 916.979,-24.4264 906.399,-24.9976 909.064,-31.4704"/>
<text text-anchor="middle" x="875" y="-56.8" font-family="Times,serif" font-size="14.00">u000d</text>
</g>
<!-- 15 -->
<g id="node57" class="node"><title>15</title>
<ellipse fill="none" stroke="black" cx="934" cy="-72" rx="18" ry="18"/>
</g>
<!-- 8&#45;&gt;15 -->
<g id="edge49" class="edge"><title>8&#45;&gt;15</title>
<path fill="none" stroke="black" d="M834.116,-72C852.964,-72 883.531,-72 905.696,-72"/>
<polygon fill="black" stroke="black" points="905.814,-75.5001 915.814,-72 905.814,-68.5001 905.814,-75.5001"/>
<text text-anchor="middle" x="875" y="-75.8" font-family="Times,serif" font-size="14.00">u0003</text>
</g>
<!-- 21 -->
<g id="node46" class="node"><title>21</title>
<ellipse fill="none" stroke="black" cx="1052" cy="-18" rx="18" ry="18"/>
</g>
<!-- 14&#45;&gt;21 -->
<g id="edge50" class="edge"><title>14&#45;&gt;21</title>
<path fill="none" stroke="black" d="M952.116,-18C970.964,-18 1001.53,-18 1023.7,-18"/>
<polygon fill="black" stroke="black" points="1023.81,-21.5001 1033.81,-18 1023.81,-14.5001 1023.81,-21.5001"/>
<text text-anchor="middle" x="993" y="-21.8" font-family="Times,serif" font-size="14.00">u0011</text>
</g>
<!-- 28 -->
<g id="node47" class="node"><title>28</title>
<ellipse fill="none" stroke="black" cx="1170" cy="-18" rx="18" ry="18"/>
</g>
<!-- 21&#45;&gt;28 -->
<g id="edge51" class="edge"><title>21&#45;&gt;28</title>
<path fill="none" stroke="black" d="M1070.12,-18C1088.96,-18 1119.53,-18 1141.7,-18"/>
<polygon fill="black" stroke="black" points="1141.81,-21.5001 1151.81,-18 1141.81,-14.5001 1141.81,-21.5001"/>
<text text-anchor="middle" x="1111" y="-21.8" font-family="Times,serif" font-size="14.00">u000f</text>
</g>
<!-- 35 -->
<g id="node48" class="node"><title>35</title>
<ellipse fill="none" stroke="black" cx="1288" cy="-18" rx="18" ry="18"/>
</g>
<!-- 28&#45;&gt;35 -->
<g id="edge52" class="edge"><title>28&#45;&gt;35</title>
<path fill="none" stroke="black" d="M1188.12,-18C1206.96,-18 1237.53,-18 1259.7,-18"/>
<polygon fill="black" stroke="black" points="1259.81,-21.5001 1269.81,-18 1259.81,-14.5001 1259.81,-21.5001"/>
<text text-anchor="middle" x="1229" y="-21.8" font-family="Times,serif" font-size="14.00">u000a</text>
</g>
<!-- 41 -->
<g id="node49" class="node"><title>41</title>
<ellipse fill="none" stroke="black" cx="1406" cy="-18" rx="18" ry="18"/>
</g>
<!-- 35&#45;&gt;41 -->
<g id="edge53" class="edge"><title>35&#45;&gt;41</title>
<path fill="none" stroke="black" d="M1306.12,-18C1324.96,-18 1355.53,-18 1377.7,-18"/>
<polygon fill="black" stroke="black" points="1377.81,-21.5001 1387.81,-18 1377.81,-14.5001 1377.81,-21.5001"/>
<text text-anchor="middle" x="1347" y="-21.8" font-family="Times,serif" font-size="14.00">u000e</text>
</g>
<!-- 47 -->
<g id="node50" class="node"><title>47</title>
<ellipse fill="none" stroke="black" cx="1524" cy="-18" rx="18" ry="18"/>
</g>
<!-- 41&#45;&gt;47 -->
<g id="edge54" class="edge"><title>41&#45;&gt;47</title>
<path fill="none" stroke="black" d="M1424.12,-18C1442.96,-18 1473.53,-18 1495.7,-18"/>
<polygon fill="black" stroke="black" points="1495.81,-21.5001 1505.81,-18 1495.81,-14.5001 1495.81,-21.5001"/>
<text text-anchor="middle" x="1465" y="-21.8" font-family="Times,serif" font-size="14.00">u0010</text>
</g>
<!-- 53 -->
<g id="node51" class="node"><title>53</title>
<ellipse fill="none" stroke="black" cx="1642" cy="-18" rx="18" ry="18"/>
</g>
<!-- 47&#45;&gt;53 -->
<g id="edge55" class="edge"><title>47&#45;&gt;53</title>
<path fill="none" stroke="black" d="M1542.12,-18C1560.96,-18 1591.53,-18 1613.7,-18"/>
<polygon fill="black" stroke="black" points="1613.81,-21.5001 1623.81,-18 1613.81,-14.5001 1613.81,-21.5001"/>
<text text-anchor="middle" x="1583" y="-21.8" font-family="Times,serif" font-size="14.00">u0006</text>
</g>
<!-- 57 -->
<g id="node52" class="node"><title>57</title>
<ellipse fill="none" stroke="black" cx="1760" cy="-18" rx="18" ry="18"/>
</g>
<!-- 53&#45;&gt;57 -->
<g id="edge56" class="edge"><title>53&#45;&gt;57</title>
<path fill="none" stroke="black" d="M1660.12,-18C1678.96,-18 1709.53,-18 1731.7,-18"/>
<polygon fill="black" stroke="black" points="1731.81,-21.5001 1741.81,-18 1731.81,-14.5001 1731.81,-21.5001"/>
<text text-anchor="middle" x="1701" y="-21.8" font-family="Times,serif" font-size="14.00">u000a</text>
</g>
<!-- 60 -->
<g id="node53" class="node"><title>60</title>
<ellipse fill="none" stroke="black" cx="1878" cy="-18" rx="18" ry="18"/>
</g>
<!-- 57&#45;&gt;60 -->
<g id="edge57" class="edge"><title>57&#45;&gt;60</title>
<path fill="none" stroke="black" d="M1778.12,-18C1796.96,-18 1827.53,-18 1849.7,-18"/>
<polygon fill="black" stroke="black" points="1849.81,-21.5001 1859.81,-18 1849.81,-14.5001 1849.81,-21.5001"/>
<text text-anchor="middle" x="1819" y="-21.8" font-family="Times,serif" font-size="14.00">u0007</text>
</g>
<!-- 62 -->
<g id="node54" class="node"><title>62</title>
<ellipse fill="none" stroke="black" cx="1996" cy="-18" rx="18" ry="18"/>
</g>
<!-- 60&#45;&gt;62 -->
<g id="edge58" class="edge"><title>60&#45;&gt;62</title>
<path fill="none" stroke="black" d="M1896.12,-18C1914.96,-18 1945.53,-18 1967.7,-18"/>
<polygon fill="black" stroke="black" points="1967.81,-21.5001 1977.81,-18 1967.81,-14.5001 1967.81,-21.5001"/>
<text text-anchor="middle" x="1937" y="-21.8" font-family="Times,serif" font-size="14.00">u000e</text>
</g>
<!-- 64 -->
<g id="node55" class="node"><title>64</title>
<ellipse fill="none" stroke="black" cx="2119" cy="-18" rx="18" ry="18"/>
</g>
<!-- 62&#45;&gt;64 -->
<g id="edge59" class="edge"><title>62&#45;&gt;64</title>
<path fill="none" stroke="black" d="M2014.08,-18C2033.96,-18 2067.08,-18 2090.58,-18"/>
<polygon fill="black" stroke="black" points="2090.62,-21.5001 2100.62,-18 2090.62,-14.5001 2090.62,-21.5001"/>
<text text-anchor="middle" x="2055" y="-21.8" font-family="Times,serif" font-size="14.00">u0007</text>
</g>
<!-- 66 -->
<g id="node56" class="node"><title>66</title>
<ellipse fill="none" stroke="black" cx="2301" cy="-29" rx="18" ry="18"/>
</g>
<!-- 64&#45;&gt;66 -->
<g id="edge60" class="edge"><title>64&#45;&gt;66</title>
<path fill="none" stroke="black" d="M2137.26,-19.0547C2168.57,-20.9684 2234.98,-25.0265 2272.57,-27.3235"/>
<polygon fill="black" stroke="black" points="2272.6,-30.8319 2282.79,-27.9485 2273.03,-23.8449 2272.6,-30.8319"/>
<text text-anchor="middle" x="2183" y="-27.8" font-family="Times,serif" font-size="14.00">u0006</text>
</g>
<!-- 66&#45;&gt;50 -->
<g id="edge61" class="edge"><title>66&#45;&gt;50</title>
<path fill="none" stroke="black" d="M2316.74,-38.146C2333.97,-48.9041 2363.28,-67.4045 2388,-84 2414.22,-101.601 2443.79,-122.582 2463.53,-136.75"/>
<polygon fill="black" stroke="black" points="2461.69,-139.743 2471.86,-142.744 2465.78,-134.062 2461.69,-139.743"/>
<text text-anchor="middle" x="2365" y="-87.8" font-family="Times,serif" font-size="14.00">u0007</text>
</g>
<!-- 22 -->
<g id="node58" class="node"><title>22</title>
<ellipse fill="none" stroke="black" cx="1052" cy="-72" rx="18" ry="18"/>
</g>
<!-- 15&#45;&gt;22 -->
<g id="edge62" class="edge"><title>15&#45;&gt;22</title>
<path fill="none" stroke="black" d="M952.116,-72C970.964,-72 1001.53,-72 1023.7,-72"/>
<polygon fill="black" stroke="black" points="1023.81,-75.5001 1033.81,-72 1023.81,-68.5001 1023.81,-75.5001"/>
<text text-anchor="middle" x="993" y="-75.8" font-family="Times,serif" font-size="14.00">u000d</text>
</g>
<!-- 29 -->
<g id="node59" class="node"><title>29</title>
<ellipse fill="none" stroke="black" cx="1170" cy="-72" rx="18" ry="18"/>
</g>
<!-- 22&#45;&gt;29 -->
<g id="edge63" class="edge"><title>22&#45;&gt;29</title>
<path fill="none" stroke="black" d="M1070.12,-72C1088.96,-72 1119.53,-72 1141.7,-72"/>
<polygon fill="black" stroke="black" points="1141.81,-75.5001 1151.81,-72 1141.81,-68.5001 1141.81,-75.5001"/>
<text text-anchor="middle" x="1111" y="-75.8" font-family="Times,serif" font-size="14.00">u0011</text>
</g>
<!-- 36 -->
<g id="node60" class="node"><title>36</title>
<ellipse fill="none" stroke="black" cx="1288" cy="-72" rx="18" ry="18"/>
</g>
<!-- 29&#45;&gt;36 -->
<g id="edge64" class="edge"><title>29&#45;&gt;36</title>
<path fill="none" stroke="black" d="M1188.12,-72C1206.96,-72 1237.53,-72 1259.7,-72"/>
<polygon fill="black" stroke="black" points="1259.81,-75.5001 1269.81,-72 1259.81,-68.5001 1259.81,-75.5001"/>
<text text-anchor="middle" x="1229" y="-75.8" font-family="Times,serif" font-size="14.00">u000f</text>
</g>
<!-- 42 -->
<g id="node61" class="node"><title>42</title>
<ellipse fill="none" stroke="black" cx="1406" cy="-72" rx="18" ry="18"/>
</g>
<!-- 36&#45;&gt;42 -->
<g id="edge65" class="edge"><title>36&#45;&gt;42</title>
<path fill="none" stroke="black" d="M1306.12,-72C1324.96,-72 1355.53,-72 1377.7,-72"/>
<polygon fill="black" stroke="black" points="1377.81,-75.5001 1387.81,-72 1377.81,-68.5001 1377.81,-75.5001"/>
<text text-anchor="middle" x="1347" y="-75.8" font-family="Times,serif" font-size="14.00">u0006</text>
</g>
<!-- 48 -->
<g id="node62" class="node"><title>48</title>
<ellipse fill="none" stroke="black" cx="1524" cy="-72" rx="18" ry="18"/>
</g>
<!-- 42&#45;&gt;48 -->
<g id="edge66" class="edge"><title>42&#45;&gt;48</title>
<path fill="none" stroke="black" d="M1424.12,-72C1442.96,-72 1473.53,-72 1495.7,-72"/>
<polygon fill="black" stroke="black" points="1495.81,-75.5001 1505.81,-72 1495.81,-68.5001 1495.81,-75.5001"/>
<text text-anchor="middle" x="1465" y="-75.8" font-family="Times,serif" font-size="14.00">u000a</text>
</g>
<!-- 54 -->
<g id="node63" class="node"><title>54</title>
<ellipse fill="none" stroke="black" cx="1642" cy="-72" rx="18" ry="18"/>
</g>
<!-- 48&#45;&gt;54 -->
<g id="edge67" class="edge"><title>48&#45;&gt;54</title>
<path fill="none" stroke="black" d="M1542.12,-72C1560.96,-72 1591.53,-72 1613.7,-72"/>
<polygon fill="black" stroke="black" points="1613.81,-75.5001 1623.81,-72 1613.81,-68.5001 1613.81,-75.5001"/>
<text text-anchor="middle" x="1583" y="-75.8" font-family="Times,serif" font-size="14.00">u000a</text>
</g>
<!-- 58 -->
<g id="node64" class="node"><title>58</title>
<ellipse fill="none" stroke="black" cx="1760" cy="-72" rx="18" ry="18"/>
</g>
<!-- 54&#45;&gt;58 -->
<g id="edge68" class="edge"><title>54&#45;&gt;58</title>
<path fill="none" stroke="black" d="M1660.12,-72C1678.96,-72 1709.53,-72 1731.7,-72"/>
<polygon fill="black" stroke="black" points="1731.81,-75.5001 1741.81,-72 1731.81,-68.5001 1731.81,-75.5001"/>
<text text-anchor="middle" x="1701" y="-75.8" font-family="Times,serif" font-size="14.00">u0007</text>
</g>
<!-- 61 -->
<g id="node65" class="node"><title>61</title>
<ellipse fill="none" stroke="black" cx="1878" cy="-72" rx="18" ry="18"/>
</g>
<!-- 58&#45;&gt;61 -->
<g id="edge69" class="edge"><title>58&#45;&gt;61</title>
<path fill="none" stroke="black" d="M1778.12,-72C1796.96,-72 1827.53,-72 1849.7,-72"/>
<polygon fill="black" stroke="black" points="1849.81,-75.5001 1859.81,-72 1849.81,-68.5001 1849.81,-75.5001"/>
<text text-anchor="middle" x="1819" y="-75.8" font-family="Times,serif" font-size="14.00">u0007</text>
</g>
<!-- 63 -->
<g id="node66" class="node"><title>63</title>
<ellipse fill="none" stroke="black" cx="1996" cy="-72" rx="18" ry="18"/>
</g>
<!-- 61&#45;&gt;63 -->
<g id="edge70" class="edge"><title>61&#45;&gt;63</title>
<path fill="none" stroke="black" d="M1896.12,-72C1914.96,-72 1945.53,-72 1967.7,-72"/>
<polygon fill="black" stroke="black" points="1967.81,-75.5001 1977.81,-72 1967.81,-68.5001 1967.81,-75.5001"/>
<text text-anchor="middle" x="1937" y="-75.8" font-family="Times,serif" font-size="14.00">u000a</text>
</g>
<!-- 65 -->
<g id="node67" class="node"><title>65</title>
<ellipse fill="none" stroke="black" cx="2119" cy="-72" rx="18" ry="18"/>
</g>
<!-- 63&#45;&gt;65 -->
<g id="edge71" class="edge"><title>63&#45;&gt;65</title>
<path fill="none" stroke="black" d="M2014.08,-72C2033.96,-72 2067.08,-72 2090.58,-72"/>
<polygon fill="black" stroke="black" points="2090.62,-75.5001 2100.62,-72 2090.62,-68.5001 2090.62,-75.5001"/>
<text text-anchor="middle" x="2055" y="-75.8" font-family="Times,serif" font-size="14.00">u0006</text>
</g>
<!-- 67 -->
<g id="node68" class="node"><title>67</title>
<ellipse fill="none" stroke="black" cx="2242" cy="-72" rx="18" ry="18"/>
</g>
<!-- 65&#45;&gt;67 -->
<g id="edge72" class="edge"><title>65&#45;&gt;67</title>
<path fill="none" stroke="black" d="M2137.08,-72C2156.96,-72 2190.08,-72 2213.58,-72"/>
<polygon fill="black" stroke="black" points="2213.62,-75.5001 2223.62,-72 2213.62,-68.5001 2213.62,-75.5001"/>
<text text-anchor="middle" x="2183" y="-75.8" font-family="Times,serif" font-size="14.00">u000a</text>
</g>
<!-- 67&#45;&gt;59 -->
<g id="edge73" class="edge"><title>67&#45;&gt;59</title>
<path fill="none" stroke="black" d="M2258.9,-78.6749C2275.29,-85.5981 2301.54,-96.8158 2324,-107 2328.95,-109.244 2334.22,-111.697 2339.25,-114.073"/>
<polygon fill="black" stroke="black" points="2337.95,-117.333 2348.48,-118.472 2340.96,-111.013 2337.95,-117.333"/>
<text text-anchor="middle" x="2301" y="-110.8" font-family="Times,serif" font-size="14.00">u0010</text>
</g>
<!-- initial -->
<g id="node69" class="node"><title>initial</title>
</g>
<!-- initial&#45;&gt;0 -->
<g id="edge74" class="edge"><title>initial&#45;&gt;0</title>
<path fill="none" stroke="black" d="M54.195,-126C62.6538,-126 72.0513,-126 80.5951,-126"/>
<polygon fill="black" stroke="black" points="80.8257,-129.5 90.8257,-126 80.8257,-122.5 80.8257,-129.5"/>
</g>
</g>
</svg>
