<svg width="1633px" height="401px"
 viewBox="0.00 0.00 1225.00 301.00" xmlns="http://www.w3.org/2000/svg" xmlns:xlink="http://www.w3.org/1999/xlink">
<g id="graph0" class="graph" transform="scale(1.000022500562514 1.000022500562514) rotate(0) translate(4 297)">
<title>Automaton</title>
<polygon fill="white" stroke="none" points="-4,4 -4,-297 1221,-297 1221,4 -4,4"/>
<!-- 0 -->
<g id="node1" class="node"><title>0</title>
<ellipse fill="none" stroke="black" cx="109" cy="-84" rx="18" ry="18"/>
</g>
<!-- 1 -->
<g id="node2" class="node"><title>1</title>
<ellipse fill="none" stroke="black" cx="227" cy="-84" rx="18" ry="18"/>
</g>
<!-- 0&#45;&gt;1 -->
<g id="edge1" class="edge"><title>0&#45;&gt;1</title>
<path fill="none" stroke="black" d="M127.116,-84C145.964,-84 176.531,-84 198.696,-84"/>
<polygon fill="black" stroke="black" points="198.814,-87.5001 208.814,-84 198.814,-80.5001 198.814,-87.5001"/>
<text text-anchor="middle" x="168" y="-87.8" font-family="Times,serif" font-size="14.00">u0000</text>
</g>
<!-- 2 -->
<g id="node3" class="node"><title>2</title>
<ellipse fill="none" stroke="black" cx="345" cy="-84" rx="18" ry="18"/>
</g>
<!-- 1&#45;&gt;2 -->
<g id="edge2" class="edge"><title>1&#45;&gt;2</title>
<path fill="none" stroke="black" d="M245.116,-84C263.964,-84 294.531,-84 316.696,-84"/>
<polygon fill="black" stroke="black" points="316.814,-87.5001 326.814,-84 316.814,-80.5001 316.814,-87.5001"/>
<text text-anchor="middle" x="286" y="-87.8" font-family="Times,serif" font-size="14.00">u0001</text>
</g>
<!-- 3 -->
<g id="node4" class="node"><title>3</title>
<ellipse fill="none" stroke="black" cx="704" cy="-84" rx="18" ry="18"/>
</g>
<!-- 2&#45;&gt;3 -->
<g id="edge3" class="edge"><title>2&#45;&gt;3</title>
<path fill="none" stroke="black" d="M363.219,-84C420.597,-84 605.615,-84 675.725,-84"/>
<polygon fill="black" stroke="black" points="675.954,-87.5001 685.954,-84 675.954,-80.5001 675.954,-87.5001"/>
<text text-anchor="middle" x="522" y="-87.8" font-family="Times,serif" font-size="14.00">u0004</text>
</g>
<!-- 4 -->
<g id="node6" class="node"><title>4</title>
<ellipse fill="none" stroke="black" cx="1073" cy="-70" rx="18" ry="18"/>
</g>
<!-- 2&#45;&gt;4 -->
<g id="edge4" class="edge"><title>2&#45;&gt;4</title>
<path fill="none" stroke="black" d="M356.021,-69.7505C374.175,-45.785 415.006,-0 462,-0 462,-0 462,-0 956,-0 994.755,-0 1031.68,-28.9969 1053.07,-49.665"/>
<polygon fill="black" stroke="black" points="1050.68,-52.2275 1060.22,-56.8335 1055.64,-47.2828 1050.68,-52.2275"/>
<text text-anchor="middle" x="704" y="-3.8" font-family="Times,serif" font-size="14.00">u0003</text>
</g>
<!-- 5 -->
<g id="node9" class="node"><title>5</title>
<ellipse fill="none" stroke="black" cx="463" cy="-226" rx="18" ry="18"/>
</g>
<!-- 2&#45;&gt;5 -->
<g id="edge5" class="edge"><title>2&#45;&gt;5</title>
<path fill="none" stroke="black" d="M357.123,-97.6156C377.251,-122.256 419.879,-174.438 444.134,-204.13"/>
<polygon fill="black" stroke="black" points="441.704,-206.687 450.741,-212.217 447.125,-202.258 441.704,-206.687"/>
<text text-anchor="middle" x="404" y="-183.8" font-family="Times,serif" font-size="14.00">u0005</text>
</g>
<!-- 6 -->
<g id="node5" class="node"><title>6</title>
<ellipse fill="none" stroke="black" cx="955" cy="-135" rx="18" ry="18"/>
</g>
<!-- 3&#45;&gt;6 -->
<g id="edge6" class="edge"><title>3&#45;&gt;6</title>
<path fill="none" stroke="black" d="M722.371,-83.1475C750.602,-82.1816 808.014,-81.9698 855,-93 881.589,-99.2419 910.117,-112.064 929.686,-121.909"/>
<polygon fill="black" stroke="black" points="928.292,-125.128 938.785,-126.597 931.499,-118.905 928.292,-125.128"/>
<text text-anchor="middle" x="832" y="-96.8" font-family="Times,serif" font-size="14.00">u0004</text>
</g>
<!-- 3&#45;&gt;4 -->
<g id="edge7" class="edge"><title>3&#45;&gt;4</title>
<path fill="none" stroke="black" d="M722.093,-81.4938C729.167,-80.5529 737.463,-79.5734 745,-79 855.957,-70.5582 988.624,-69.7665 1044.77,-69.8597"/>
<polygon fill="black" stroke="black" points="1044.94,-73.3601 1054.95,-69.8881 1044.96,-66.3601 1044.94,-73.3601"/>
<text text-anchor="middle" x="896" y="-76.8" font-family="Times,serif" font-size="14.00">u0003</text>
</g>
<!-- 7 -->
<g id="node8" class="node"><title>7</title>
<ellipse fill="none" stroke="black" cx="832" cy="-135" rx="18" ry="18"/>
</g>
<!-- 3&#45;&gt;7 -->
<g id="edge8" class="edge"><title>3&#45;&gt;7</title>
<path fill="none" stroke="black" d="M720.958,-90.4592C742.354,-99.1196 780.57,-114.588 805.855,-124.822"/>
<polygon fill="black" stroke="black" points="804.589,-128.086 815.172,-128.593 807.215,-121.597 804.589,-128.086"/>
<text text-anchor="middle" x="768" y="-121.8" font-family="Times,serif" font-size="14.00">u0005</text>
</g>
<!-- 6&#45;&gt;4 -->
<g id="edge9" class="edge"><title>6&#45;&gt;4</title>
<path fill="none" stroke="black" d="M971.165,-126.502C990.704,-115.554 1024.9,-96.3936 1047.99,-83.4554"/>
<polygon fill="black" stroke="black" points="1049.82,-86.4414 1056.83,-78.4997 1046.4,-80.3347 1049.82,-86.4414"/>
<text text-anchor="middle" x="1014" y="-116.8" font-family="Times,serif" font-size="14.00">u0003</text>
</g>
<!-- 8 -->
<g id="node7" class="node"><title>8</title>
<ellipse fill="none" stroke="black" cx="1195" cy="-70" rx="18" ry="18"/>
<ellipse fill="none" stroke="black" cx="1195" cy="-70" rx="22" ry="22"/>
</g>
<!-- 4&#45;&gt;8 -->
<g id="edge10" class="edge"><title>4&#45;&gt;8</title>
<path fill="none" stroke="black" d="M1091.19,-70C1109.77,-70 1139.76,-70 1162.57,-70"/>
<polygon fill="black" stroke="black" points="1162.79,-73.5001 1172.79,-70 1162.79,-66.5001 1162.79,-73.5001"/>
<text text-anchor="middle" x="1132" y="-73.8" font-family="Times,serif" font-size="14.00">u0002</text>
</g>
<!-- 7&#45;&gt;6 -->
<g id="edge11" class="edge"><title>7&#45;&gt;6</title>
<path fill="none" stroke="black" d="M850.08,-135C869.965,-135 903.077,-135 926.577,-135"/>
<polygon fill="black" stroke="black" points="926.615,-138.5 936.615,-135 926.615,-131.5 926.615,-138.5"/>
<text text-anchor="middle" x="896" y="-138.8" font-family="Times,serif" font-size="14.00">u0004</text>
</g>
<!-- 5&#45;&gt;6 -->
<g id="edge12" class="edge"><title>5&#45;&gt;6</title>
<path fill="none" stroke="black" d="M480.874,-228.133C503.424,-230.794 544.651,-235 580,-235 580,-235 580,-235 833,-235 875.734,-235 887.497,-220.874 919,-192 928.667,-183.14 936.616,-171.006 942.481,-160.21"/>
<polygon fill="black" stroke="black" points="945.66,-161.681 947.09,-151.183 939.425,-158.497 945.66,-161.681"/>
<text text-anchor="middle" x="704" y="-238.8" font-family="Times,serif" font-size="14.00">u0004</text>
</g>
<!-- 5&#45;&gt;4 -->
<g id="edge13" class="edge"><title>5&#45;&gt;4</title>
<path fill="none" stroke="black" d="M477.749,-236.774C498.606,-252.006 540.054,-278 580,-278 580,-278 580,-278 956,-278 1037.38,-278 1062.19,-155.058 1069.32,-98.2116"/>
<polygon fill="black" stroke="black" points="1072.81,-98.4301 1070.48,-88.0948 1065.86,-97.6276 1072.81,-98.4301"/>
<text text-anchor="middle" x="768" y="-281.8" font-family="Times,serif" font-size="14.00">u0003</text>
</g>
<!-- 9 -->
<g id="node10" class="node"><title>9</title>
<ellipse fill="none" stroke="black" cx="581" cy="-187" rx="18" ry="18"/>
</g>
<!-- 5&#45;&gt;9 -->
<g id="edge14" class="edge"><title>5&#45;&gt;9</title>
<path fill="none" stroke="black" d="M478.516,-216.45C484.638,-212.759 491.966,-208.767 499,-206 516.365,-199.169 536.831,-194.394 552.847,-191.339"/>
<polygon fill="black" stroke="black" points="553.905,-194.705 563.13,-189.495 552.67,-187.815 553.905,-194.705"/>
<text text-anchor="middle" x="522" y="-209.8" font-family="Times,serif" font-size="14.00">u0005</text>
</g>
<!-- 10 -->
<g id="node11" class="node"><title>10</title>
<ellipse fill="none" stroke="black" cx="704" cy="-181" rx="18" ry="18"/>
</g>
<!-- 9&#45;&gt;10 -->
<g id="edge15" class="edge"><title>9&#45;&gt;10</title>
<path fill="none" stroke="black" d="M599.08,-186.153C619.078,-185.161 652.454,-183.506 675.976,-182.34"/>
<polygon fill="black" stroke="black" points="676.193,-185.834 686.007,-181.843 675.846,-178.842 676.193,-185.834"/>
<text text-anchor="middle" x="640" y="-188.8" font-family="Times,serif" font-size="14.00">u0004</text>
</g>
<!-- 11 -->
<g id="node12" class="node"><title>11</title>
<ellipse fill="none" stroke="black" cx="832" cy="-189" rx="18" ry="18"/>
</g>
<!-- 10&#45;&gt;11 -->
<g id="edge16" class="edge"><title>10&#45;&gt;11</title>
<path fill="none" stroke="black" d="M721.993,-182.079C742.941,-183.409 778.811,-185.686 803.654,-187.264"/>
<polygon fill="black" stroke="black" points="803.672,-190.772 813.874,-187.913 804.116,-183.786 803.672,-190.772"/>
<text text-anchor="middle" x="768" y="-189.8" font-family="Times,serif" font-size="14.00">u0005</text>
</g>
<!-- 11&#45;&gt;6 -->
<g id="edge17" class="edge"><title>11&#45;&gt;6</title>
<path fill="none" stroke="black" d="M849.079,-183.069C866.53,-176.49 895.103,-165.306 919,-154 922.519,-152.335 926.184,-150.483 929.76,-148.607"/>
<polygon fill="black" stroke="black" points="931.719,-151.527 938.856,-143.697 928.394,-145.367 931.719,-151.527"/>
<text text-anchor="middle" x="896" y="-176.8" font-family="Times,serif" font-size="14.00">u0005</text>
</g>
<!-- initial -->
<g id="node13" class="node"><title>initial</title>
</g>
<!-- initial&#45;&gt;0 -->
<g id="edge18" class="edge"><title>initial&#45;&gt;0</title>
<path fill="none" stroke="black" d="M54.195,-84C62.6538,-84 72.0513,-84 80.5951,-84"/>
<polygon fill="black" stroke="black" points="80.8257,-87.5001 90.8257,-84 80.8257,-80.5001 80.8257,-87.5001"/>
</g>
</g>
</svg>
