<svg width="2487px" height="636px"
 viewBox="0.00 0.00 1865.00 477.00" xmlns="http://www.w3.org/2000/svg" xmlns:xlink="http://www.w3.org/1999/xlink">
<g id="graph0" class="graph" transform="scale(1.000022500562514 1.000022500562514) rotate(0) translate(4 473)">
<title>Automaton</title>
<polygon fill="white" stroke="none" points="-4,4 -4,-473 1861,-473 1861,4 -4,4"/>
<!-- 0 -->
<g id="node1" class="node"><title>0</title>
<ellipse fill="none" stroke="black" cx="109" cy="-424" rx="18" ry="18"/>
</g>
<!-- 1 -->
<g id="node2" class="node"><title>1</title>
<ellipse fill="none" stroke="black" cx="227" cy="-424" rx="18" ry="18"/>
</g>
<!-- 0&#45;&gt;1 -->
<g id="edge1" class="edge"><title>0&#45;&gt;1</title>
<path fill="none" stroke="black" d="M127.116,-424C145.964,-424 176.531,-424 198.696,-424"/>
<polygon fill="black" stroke="black" points="198.814,-427.5 208.814,-424 198.814,-420.5 198.814,-427.5"/>
<text text-anchor="middle" x="168" y="-427.8" font-family="Times,serif" font-size="14.00">u0000</text>
</g>
<!-- 2 -->
<g id="node3" class="node"><title>2</title>
<ellipse fill="none" stroke="black" cx="1835" cy="-401" rx="18" ry="18"/>
<ellipse fill="none" stroke="black" cx="1835" cy="-401" rx="22" ry="22"/>
</g>
<!-- 1&#45;&gt;2 -->
<g id="edge2" class="edge"><title>1&#45;&gt;2</title>
<path fill="none" stroke="black" d="M243.803,-430.807C265.823,-439.659 307.181,-454 344,-454 344,-454 344,-454 1714,-454 1748.94,-454 1785.09,-434.969 1808.46,-419.715"/>
<polygon fill="black" stroke="black" points="1810.44,-422.602 1816.76,-414.101 1806.52,-416.804 1810.44,-422.602"/>
<text text-anchor="middle" x="1024" y="-457.8" font-family="Times,serif" font-size="14.00">u0002</text>
</g>
<!-- 3 -->
<g id="node4" class="node"><title>3</title>
<ellipse fill="none" stroke="black" cx="345" cy="-393" rx="18" ry="18"/>
</g>
<!-- 1&#45;&gt;3 -->
<g id="edge3" class="edge"><title>1&#45;&gt;3</title>
<path fill="none" stroke="black" d="M244.62,-419.558C263.657,-414.471 295.103,-406.067 317.523,-400.076"/>
<polygon fill="black" stroke="black" points="318.654,-403.397 327.411,-397.433 316.846,-396.634 318.654,-403.397"/>
<text text-anchor="middle" x="286" y="-417.8" font-family="Times,serif" font-size="14.00">u0001</text>
</g>
<!-- 4 -->
<g id="node5" class="node"><title>4</title>
<ellipse fill="none" stroke="black" cx="463" cy="-133" rx="18" ry="18"/>
</g>
<!-- 3&#45;&gt;4 -->
<g id="edge4" class="edge"><title>3&#45;&gt;4</title>
<path fill="none" stroke="black" d="M353.256,-376.736C372.827,-332.87 426.816,-211.861 450.551,-158.66"/>
<polygon fill="black" stroke="black" points="453.868,-159.816 454.746,-149.258 447.476,-156.964 453.868,-159.816"/>
<text text-anchor="middle" x="404" y="-312.8" font-family="Times,serif" font-size="14.00">u0004</text>
</g>
<!-- 5 -->
<g id="node12" class="node"><title>5</title>
<ellipse fill="none" stroke="black" cx="1713" cy="-272" rx="18" ry="18"/>
</g>
<!-- 3&#45;&gt;5 -->
<g id="edge5" class="edge"><title>3&#45;&gt;5</title>
<path fill="none" stroke="black" d="M362.318,-398.334C384.588,-405.129 425.866,-416 462,-416 462,-416 462,-416 1596,-416 1639.77,-416 1649.75,-394.244 1677,-360 1691.19,-342.173 1700.27,-317.86 1705.62,-299.307"/>
<polygon fill="black" stroke="black" points="1709.06,-299.972 1708.28,-289.407 1702.3,-298.155 1709.06,-299.972"/>
<text text-anchor="middle" x="1024" y="-419.8" font-family="Times,serif" font-size="14.00">u0003</text>
</g>
<!-- 6 -->
<g id="node21" class="node"><title>6</title>
<ellipse fill="none" stroke="black" cx="960" cy="-341" rx="18" ry="18"/>
</g>
<!-- 3&#45;&gt;6 -->
<g id="edge6" class="edge"><title>3&#45;&gt;6</title>
<path fill="none" stroke="black" d="M360.706,-383.453C382.094,-370.512 423.445,-349 462,-349 462,-349 462,-349 833,-349 867.139,-349 906.376,-346.039 931.872,-343.72"/>
<polygon fill="black" stroke="black" points="932.275,-347.197 941.903,-342.775 931.619,-340.228 932.275,-347.197"/>
<text text-anchor="middle" x="640" y="-352.8" font-family="Times,serif" font-size="14.00">u0005</text>
</g>
<!-- 7 -->
<g id="node6" class="node"><title>7</title>
<ellipse fill="none" stroke="black" cx="640" cy="-158" rx="18" ry="18"/>
</g>
<!-- 4&#45;&gt;7 -->
<g id="edge7" class="edge"><title>4&#45;&gt;7</title>
<path fill="none" stroke="black" d="M481.098,-135.443C511.627,-139.804 575.72,-148.96 612.164,-154.166"/>
<polygon fill="black" stroke="black" points="611.695,-157.635 622.09,-155.584 612.685,-150.705 611.695,-157.635"/>
<text text-anchor="middle" x="522" y="-148.8" font-family="Times,serif" font-size="14.00">u0004</text>
</g>
<!-- 4&#45;&gt;5 -->
<g id="edge8" class="edge"><title>4&#45;&gt;5</title>
<path fill="none" stroke="black" d="M469.623,-116.155C482.754,-80.367 519.029,-0 580,-0 580,-0 580,-0 1596,-0 1637.18,-0 1653.46,-11.2057 1677,-45 1699.07,-76.6841 1707.78,-190.334 1710.71,-243.808"/>
<polygon fill="black" stroke="black" points="1707.22,-244.151 1711.24,-253.957 1714.21,-243.789 1707.22,-244.151"/>
<text text-anchor="middle" x="1088" y="-3.8" font-family="Times,serif" font-size="14.00">u0003</text>
</g>
<!-- 8 -->
<g id="node13" class="node"><title>8</title>
<ellipse fill="none" stroke="black" cx="581" cy="-94" rx="18" ry="18"/>
</g>
<!-- 4&#45;&gt;8 -->
<g id="edge9" class="edge"><title>4&#45;&gt;8</title>
<path fill="none" stroke="black" d="M479.468,-125.315C485.48,-122.491 492.479,-119.4 499,-117 516.893,-110.413 537.579,-104.568 553.568,-100.418"/>
<polygon fill="black" stroke="black" points="554.487,-103.796 563.32,-97.9456 552.766,-97.0109 554.487,-103.796"/>
<text text-anchor="middle" x="522" y="-120.8" font-family="Times,serif" font-size="14.00">u0005</text>
</g>
<!-- 11 -->
<g id="node7" class="node"><title>11</title>
<ellipse fill="none" stroke="black" cx="768" cy="-177" rx="18" ry="18"/>
</g>
<!-- 7&#45;&gt;11 -->
<g id="edge10" class="edge"><title>7&#45;&gt;11</title>
<path fill="none" stroke="black" d="M657.993,-160.562C678.941,-163.721 714.811,-169.13 739.654,-172.876"/>
<polygon fill="black" stroke="black" points="739.464,-176.387 749.874,-174.417 740.508,-169.465 739.464,-176.387"/>
<text text-anchor="middle" x="704" y="-174.8" font-family="Times,serif" font-size="14.00">u0005</text>
</g>
<!-- 15 -->
<g id="node8" class="node"><title>15</title>
<ellipse fill="none" stroke="black" cx="896" cy="-192" rx="18" ry="18"/>
</g>
<!-- 11&#45;&gt;15 -->
<g id="edge11" class="edge"><title>11&#45;&gt;15</title>
<path fill="none" stroke="black" d="M785.993,-179.023C806.941,-181.517 842.811,-185.787 867.654,-188.744"/>
<polygon fill="black" stroke="black" points="867.53,-192.254 877.874,-189.961 868.358,-185.304 867.53,-192.254"/>
<text text-anchor="middle" x="832" y="-191.8" font-family="Times,serif" font-size="14.00">u0004</text>
</g>
<!-- 19 -->
<g id="node9" class="node"><title>19</title>
<ellipse fill="none" stroke="black" cx="1024" cy="-193" rx="18" ry="18"/>
</g>
<!-- 15&#45;&gt;19 -->
<g id="edge12" class="edge"><title>15&#45;&gt;19</title>
<path fill="none" stroke="black" d="M914.256,-192.137C935.274,-192.304 971.031,-192.588 995.775,-192.784"/>
<polygon fill="black" stroke="black" points="995.925,-196.285 1005.95,-192.865 995.981,-189.285 995.925,-196.285"/>
<text text-anchor="middle" x="960" y="-196.8" font-family="Times,serif" font-size="14.00">u0005</text>
</g>
<!-- 21 -->
<g id="node10" class="node"><title>21</title>
<ellipse fill="none" stroke="black" cx="1472" cy="-164" rx="18" ry="18"/>
</g>
<!-- 19&#45;&gt;21 -->
<g id="edge13" class="edge"><title>19&#45;&gt;21</title>
<path fill="none" stroke="black" d="M1041.99,-194.793C1079.8,-197.993 1172.75,-201.442 1239,-167 1249.61,-161.484 1246.11,-151.95 1257,-147 1282.9,-135.224 1292.55,-146.222 1321,-146 1341.44,-145.84 1346.63,-144.25 1367,-146 1393.43,-148.27 1423.22,-153.729 1444.13,-158.044"/>
<polygon fill="black" stroke="black" points="1443.67,-161.526 1454.18,-160.173 1445.13,-154.678 1443.67,-161.526"/>
<text text-anchor="middle" x="1216" y="-188.8" font-family="Times,serif" font-size="14.00">u0005</text>
</g>
<!-- 17 -->
<g id="node11" class="node"><title>17</title>
<ellipse fill="none" stroke="black" cx="1595" cy="-218" rx="18" ry="18"/>
</g>
<!-- 21&#45;&gt;17 -->
<g id="edge14" class="edge"><title>21&#45;&gt;17</title>
<path fill="none" stroke="black" d="M1489.08,-169.931C1506.53,-176.51 1535.1,-187.694 1559,-199 1562.52,-200.665 1566.18,-202.517 1569.76,-204.393"/>
<polygon fill="black" stroke="black" points="1568.39,-207.633 1578.86,-209.303 1571.72,-201.473 1568.39,-207.633"/>
<text text-anchor="middle" x="1536" y="-202.8" font-family="Times,serif" font-size="14.00">u0005</text>
</g>
<!-- 17&#45;&gt;5 -->
<g id="edge15" class="edge"><title>17&#45;&gt;5</title>
<path fill="none" stroke="black" d="M1612.89,-221.186C1629.82,-224.835 1656.29,-231.801 1677,-243 1682.12,-245.768 1687.19,-249.348 1691.82,-253.042"/>
<polygon fill="black" stroke="black" points="1689.71,-255.841 1699.59,-259.665 1694.25,-250.514 1689.71,-255.841"/>
<text text-anchor="middle" x="1654" y="-246.8" font-family="Times,serif" font-size="14.00">u0003</text>
</g>
<!-- 5&#45;&gt;2 -->
<g id="edge16" class="edge"><title>5&#45;&gt;2</title>
<path fill="none" stroke="black" d="M1725.94,-284.841C1746.02,-306.418 1786.79,-350.254 1812.12,-377.474"/>
<polygon fill="black" stroke="black" points="1809.75,-380.074 1819.13,-385.012 1814.88,-375.306 1809.75,-380.074"/>
<text text-anchor="middle" x="1772" y="-359.8" font-family="Times,serif" font-size="14.00">u0002</text>
</g>
<!-- 8&#45;&gt;5 -->
<g id="edge17" class="edge"><title>8&#45;&gt;5</title>
<path fill="none" stroke="black" d="M596.086,-83.6794C617.856,-68.777 661.51,-43 703,-43 703,-43 703,-43 1596,-43 1638.78,-43 1652.93,-59.6356 1677,-95 1707.88,-140.368 1712.89,-206.543 1712.97,-243.794"/>
<polygon fill="black" stroke="black" points="1709.47,-243.899 1712.87,-253.932 1716.47,-243.967 1709.47,-243.899"/>
<text text-anchor="middle" x="1152" y="-46.8" font-family="Times,serif" font-size="14.00">u0003</text>
</g>
<!-- 12 -->
<g id="node14" class="node"><title>12</title>
<ellipse fill="none" stroke="black" cx="704" cy="-94" rx="18" ry="18"/>
</g>
<!-- 8&#45;&gt;12 -->
<g id="edge18" class="edge"><title>8&#45;&gt;12</title>
<path fill="none" stroke="black" d="M599.08,-94C618.965,-94 652.077,-94 675.577,-94"/>
<polygon fill="black" stroke="black" points="675.615,-97.5001 685.615,-94 675.615,-90.5001 675.615,-97.5001"/>
<text text-anchor="middle" x="640" y="-97.8" font-family="Times,serif" font-size="14.00">u0005</text>
</g>
<!-- 12&#45;&gt;5 -->
<g id="edge20" class="edge"><title>12&#45;&gt;5</title>
<path fill="none" stroke="black" d="M722.111,-92.8903C746.338,-91.4173 792.032,-89 831,-89 831,-89 831,-89 1596,-89 1668.52,-89 1697.6,-192.783 1707.54,-244.037"/>
<polygon fill="black" stroke="black" points="1704.14,-244.91 1709.38,-254.12 1711.03,-243.654 1704.14,-244.91"/>
<text text-anchor="middle" x="1216" y="-92.8" font-family="Times,serif" font-size="14.00">u0003</text>
</g>
<!-- 16 -->
<g id="node15" class="node"><title>16</title>
<ellipse fill="none" stroke="black" cx="832" cy="-135" rx="18" ry="18"/>
</g>
<!-- 12&#45;&gt;16 -->
<g id="edge19" class="edge"><title>12&#45;&gt;16</title>
<path fill="none" stroke="black" d="M721.214,-99.2761C742.361,-106.157 779.621,-118.281 804.801,-126.475"/>
<polygon fill="black" stroke="black" points="803.856,-129.848 814.448,-129.614 806.022,-123.191 803.856,-129.848"/>
<text text-anchor="middle" x="768" y="-125.8" font-family="Times,serif" font-size="14.00">u0004</text>
</g>
<!-- 20 -->
<g id="node16" class="node"><title>20</title>
<ellipse fill="none" stroke="black" cx="960" cy="-138" rx="18" ry="18"/>
</g>
<!-- 16&#45;&gt;20 -->
<g id="edge21" class="edge"><title>16&#45;&gt;20</title>
<path fill="none" stroke="black" d="M850.256,-135.411C871.274,-135.911 907.031,-136.763 931.775,-137.352"/>
<polygon fill="black" stroke="black" points="931.872,-140.855 941.953,-137.594 932.039,-133.857 931.872,-140.855"/>
<text text-anchor="middle" x="896" y="-141.8" font-family="Times,serif" font-size="14.00">u0005</text>
</g>
<!-- 22 -->
<g id="node17" class="node"><title>22</title>
<ellipse fill="none" stroke="black" cx="1088" cy="-140" rx="18" ry="18"/>
</g>
<!-- 20&#45;&gt;22 -->
<g id="edge22" class="edge"><title>20&#45;&gt;22</title>
<path fill="none" stroke="black" d="M978.256,-138.274C999.274,-138.608 1035.03,-139.175 1059.77,-139.568"/>
<polygon fill="black" stroke="black" points="1059.9,-143.07 1069.95,-139.729 1060.01,-136.071 1059.9,-143.07"/>
<text text-anchor="middle" x="1024" y="-143.8" font-family="Times,serif" font-size="14.00">u0004</text>
</g>
<!-- 23 -->
<g id="node18" class="node"><title>23</title>
<ellipse fill="none" stroke="black" cx="1216" cy="-140" rx="18" ry="18"/>
</g>
<!-- 22&#45;&gt;23 -->
<g id="edge23" class="edge"><title>22&#45;&gt;23</title>
<path fill="none" stroke="black" d="M1106.26,-140C1127.27,-140 1163.03,-140 1187.77,-140"/>
<polygon fill="black" stroke="black" points="1187.95,-143.5 1197.95,-140 1187.95,-136.5 1187.95,-143.5"/>
<text text-anchor="middle" x="1152" y="-143.8" font-family="Times,serif" font-size="14.00">u0005</text>
</g>
<!-- 24 -->
<g id="node19" class="node"><title>24</title>
<ellipse fill="none" stroke="black" cx="1344" cy="-173" rx="18" ry="18"/>
</g>
<!-- 23&#45;&gt;24 -->
<g id="edge24" class="edge"><title>23&#45;&gt;24</title>
<path fill="none" stroke="black" d="M1233.73,-144.382C1254.82,-149.905 1291.32,-159.464 1316.28,-166.003"/>
<polygon fill="black" stroke="black" points="1315.64,-169.452 1326.2,-168.6 1317.41,-162.68 1315.64,-169.452"/>
<text text-anchor="middle" x="1280" y="-166.8" font-family="Times,serif" font-size="14.00">u0004</text>
</g>
<!-- 13 -->
<g id="node20" class="node"><title>13</title>
<ellipse fill="none" stroke="black" cx="1472" cy="-218" rx="18" ry="18"/>
</g>
<!-- 24&#45;&gt;13 -->
<g id="edge25" class="edge"><title>24&#45;&gt;13</title>
<path fill="none" stroke="black" d="M1362.28,-171.751C1380.24,-171.137 1408.78,-172.116 1431,-182 1438.92,-185.524 1446.36,-191.225 1452.62,-197.061"/>
<polygon fill="black" stroke="black" points="1450.34,-199.735 1459.87,-204.371 1455.31,-194.806 1450.34,-199.735"/>
<text text-anchor="middle" x="1408" y="-185.8" font-family="Times,serif" font-size="14.00">u0005</text>
</g>
<!-- 13&#45;&gt;17 -->
<g id="edge26" class="edge"><title>13&#45;&gt;17</title>
<path fill="none" stroke="black" d="M1490.08,-218C1509.96,-218 1543.08,-218 1566.58,-218"/>
<polygon fill="black" stroke="black" points="1566.62,-221.5 1576.62,-218 1566.62,-214.5 1566.62,-221.5"/>
<text text-anchor="middle" x="1536" y="-221.8" font-family="Times,serif" font-size="14.00">u0004</text>
</g>
<!-- 6&#45;&gt;5 -->
<g id="edge28" class="edge"><title>6&#45;&gt;5</title>
<path fill="none" stroke="black" d="M976.98,-347.786C1000.59,-357.18 1046.38,-373 1087,-373 1087,-373 1087,-373 1596,-373 1642.46,-373 1679.35,-326.341 1698.22,-296.449"/>
<polygon fill="black" stroke="black" points="1701.29,-298.145 1703.49,-287.781 1695.3,-294.51 1701.29,-298.145"/>
<text text-anchor="middle" x="1344" y="-376.8" font-family="Times,serif" font-size="14.00">u0003</text>
</g>
<!-- 9 -->
<g id="node22" class="node"><title>9</title>
<ellipse fill="none" stroke="black" cx="1344" cy="-319" rx="18" ry="18"/>
</g>
<!-- 6&#45;&gt;9 -->
<g id="edge27" class="edge"><title>6&#45;&gt;9</title>
<path fill="none" stroke="black" d="M978.406,-339.998C1039.08,-336.504 1241.54,-324.844 1315.58,-320.579"/>
<polygon fill="black" stroke="black" points="1316.15,-324.052 1325.93,-319.983 1315.74,-317.064 1316.15,-324.052"/>
<text text-anchor="middle" x="1152" y="-335.8" font-family="Times,serif" font-size="14.00">u0004</text>
</g>
<!-- 10 -->
<g id="node23" class="node"><title>10</title>
<ellipse fill="none" stroke="black" cx="1088" cy="-273" rx="18" ry="18"/>
</g>
<!-- 6&#45;&gt;10 -->
<g id="edge29" class="edge"><title>6&#45;&gt;10</title>
<path fill="none" stroke="black" d="M970.932,-326.339C978.197,-316.679 988.874,-304.478 1001,-297 1019,-285.898 1042.25,-279.813 1060.03,-276.55"/>
<polygon fill="black" stroke="black" points="1060.75,-279.979 1070.05,-274.901 1059.61,-273.072 1060.75,-279.979"/>
<text text-anchor="middle" x="1024" y="-300.8" font-family="Times,serif" font-size="14.00">u0005</text>
</g>
<!-- 9&#45;&gt;5 -->
<g id="edge30" class="edge"><title>9&#45;&gt;5</title>
<path fill="none" stroke="black" d="M1362.21,-318.982C1411.83,-318.57 1559.12,-314.82 1677,-286 1680.24,-285.207 1683.58,-284.175 1686.85,-283.03"/>
<polygon fill="black" stroke="black" points="1688.22,-286.254 1696.28,-279.382 1685.69,-279.725 1688.22,-286.254"/>
<text text-anchor="middle" x="1536" y="-315.8" font-family="Times,serif" font-size="14.00">u0003</text>
</g>
<!-- 9&#45;&gt;13 -->
<g id="edge31" class="edge"><title>9&#45;&gt;13</title>
<path fill="none" stroke="black" d="M1358.48,-308.191C1380.25,-290.742 1423.33,-256.213 1449.41,-235.307"/>
<polygon fill="black" stroke="black" points="1451.62,-238.023 1457.23,-229.037 1447.24,-232.561 1451.62,-238.023"/>
<text text-anchor="middle" x="1408" y="-290.8" font-family="Times,serif" font-size="14.00">u0005</text>
</g>
<!-- 14 -->
<g id="node24" class="node"><title>14</title>
<ellipse fill="none" stroke="black" cx="1216" cy="-273" rx="18" ry="18"/>
</g>
<!-- 10&#45;&gt;14 -->
<g id="edge32" class="edge"><title>10&#45;&gt;14</title>
<path fill="none" stroke="black" d="M1106.26,-273C1127.27,-273 1163.03,-273 1187.77,-273"/>
<polygon fill="black" stroke="black" points="1187.95,-276.5 1197.95,-273 1187.95,-269.5 1187.95,-276.5"/>
<text text-anchor="middle" x="1152" y="-276.8" font-family="Times,serif" font-size="14.00">u0004</text>
</g>
<!-- 14&#45;&gt;5 -->
<g id="edge33" class="edge"><title>14&#45;&gt;5</title>
<path fill="none" stroke="black" d="M1234.04,-272.966C1307.07,-272.818 1594.02,-272.238 1684.51,-272.056"/>
<polygon fill="black" stroke="black" points="1684.78,-275.555 1694.78,-272.035 1684.77,-268.555 1684.78,-275.555"/>
<text text-anchor="middle" x="1472" y="-276.8" font-family="Times,serif" font-size="14.00">u0003</text>
</g>
<!-- 18 -->
<g id="node25" class="node"><title>18</title>
<ellipse fill="none" stroke="black" cx="1344" cy="-227" rx="18" ry="18"/>
</g>
<!-- 14&#45;&gt;18 -->
<g id="edge34" class="edge"><title>14&#45;&gt;18</title>
<path fill="none" stroke="black" d="M1230.16,-261.212C1237.56,-255.189 1247.25,-248.252 1257,-244 1275.72,-235.838 1298.43,-231.562 1315.82,-229.341"/>
<polygon fill="black" stroke="black" points="1316.33,-232.806 1325.87,-228.206 1315.54,-225.85 1316.33,-232.806"/>
<text text-anchor="middle" x="1280" y="-247.8" font-family="Times,serif" font-size="14.00">u0005</text>
</g>
<!-- 18&#45;&gt;21 -->
<g id="edge35" class="edge"><title>18&#45;&gt;21</title>
<path fill="none" stroke="black" d="M1361.58,-223.09C1379.46,-218.456 1408.4,-209.721 1431,-197 1437.9,-193.114 1444.79,-188 1450.85,-182.962"/>
<polygon fill="black" stroke="black" points="1453.3,-185.472 1458.53,-176.26 1448.69,-180.197 1453.3,-185.472"/>
<text text-anchor="middle" x="1408" y="-220.8" font-family="Times,serif" font-size="14.00">u0004</text>
</g>
<!-- initial -->
<g id="node26" class="node"><title>initial</title>
</g>
<!-- initial&#45;&gt;0 -->
<g id="edge36" class="edge"><title>initial&#45;&gt;0</title>
<path fill="none" stroke="black" d="M54.195,-424C62.6538,-424 72.0513,-424 80.5951,-424"/>
<polygon fill="black" stroke="black" points="80.8257,-427.5 90.8257,-424 80.8257,-420.5 80.8257,-427.5"/>
</g>
</g>
</svg>
