<svg width="1961px" height="412px"
 viewBox="0.00 0.00 1471.00 309.00" xmlns="http://www.w3.org/2000/svg" xmlns:xlink="http://www.w3.org/1999/xlink">
<g id="graph0" class="graph" transform="scale(1.000022500562514 1.000022500562514) rotate(0) translate(4 305)">
<title>Automaton</title>
<polygon fill="white" stroke="none" points="-4,4 -4,-305 1467,-305 1467,4 -4,4"/>
<!-- 0 -->
<g id="node1" class="node"><title>0</title>
<ellipse fill="none" stroke="black" cx="109" cy="-246" rx="18" ry="18"/>
</g>
<!-- 1 -->
<g id="node2" class="node"><title>1</title>
<ellipse fill="none" stroke="black" cx="227" cy="-246" rx="18" ry="18"/>
</g>
<!-- 0&#45;&gt;1 -->
<g id="edge1" class="edge"><title>0&#45;&gt;1</title>
<path fill="none" stroke="black" d="M127.116,-246C145.964,-246 176.531,-246 198.696,-246"/>
<polygon fill="black" stroke="black" points="198.814,-249.5 208.814,-246 198.814,-242.5 198.814,-249.5"/>
<text text-anchor="middle" x="168" y="-249.8" font-family="Times,serif" font-size="14.00">u0000</text>
</g>
<!-- 2 -->
<g id="node3" class="node"><title>2</title>
<ellipse fill="none" stroke="black" cx="1441" cy="-243" rx="18" ry="18"/>
<ellipse fill="none" stroke="black" cx="1441" cy="-243" rx="22" ry="22"/>
</g>
<!-- 1&#45;&gt;2 -->
<g id="edge2" class="edge"><title>1&#45;&gt;2</title>
<path fill="none" stroke="black" d="M242.821,-254.679C264.348,-266.444 305.868,-286 344,-286 344,-286 344,-286 1320,-286 1353.26,-286 1388.83,-271.179 1412.53,-258.94"/>
<polygon fill="black" stroke="black" points="1414.45,-261.881 1421.61,-254.074 1411.15,-255.711 1414.45,-261.881"/>
<text text-anchor="middle" x="832" y="-289.8" font-family="Times,serif" font-size="14.00">u0002</text>
</g>
<!-- 3 -->
<g id="node4" class="node"><title>3</title>
<ellipse fill="none" stroke="black" cx="345" cy="-211" rx="18" ry="18"/>
</g>
<!-- 1&#45;&gt;3 -->
<g id="edge3" class="edge"><title>1&#45;&gt;3</title>
<path fill="none" stroke="black" d="M244.62,-240.985C263.743,-235.216 295.388,-225.667 317.827,-218.897"/>
<polygon fill="black" stroke="black" points="318.848,-222.245 327.411,-216.005 316.826,-215.543 318.848,-222.245"/>
<text text-anchor="middle" x="286" y="-238.8" font-family="Times,serif" font-size="14.00">u0001</text>
</g>
<!-- 4 -->
<g id="node5" class="node"><title>4</title>
<ellipse fill="none" stroke="black" cx="463" cy="-46" rx="18" ry="18"/>
</g>
<!-- 3&#45;&gt;4 -->
<g id="edge4" class="edge"><title>3&#45;&gt;4</title>
<path fill="none" stroke="black" d="M355.639,-196.037C362.577,-185.359 372.221,-170.698 381,-158 402.805,-126.459 428.947,-90.6579 445.517,-68.2026"/>
<polygon fill="black" stroke="black" points="448.445,-70.1285 451.577,-60.007 442.817,-65.9667 448.445,-70.1285"/>
<text text-anchor="middle" x="404" y="-161.8" font-family="Times,serif" font-size="14.00">u0004</text>
</g>
<!-- 5 -->
<g id="node12" class="node"><title>5</title>
<ellipse fill="none" stroke="black" cx="1319" cy="-169" rx="18" ry="18"/>
</g>
<!-- 3&#45;&gt;5 -->
<g id="edge5" class="edge"><title>3&#45;&gt;5</title>
<path fill="none" stroke="black" d="M362.3,-216.566C384.55,-223.656 425.805,-235 462,-235 462,-235 462,-235 1202,-235 1239.8,-235 1276.54,-208.192 1298.21,-188.746"/>
<polygon fill="black" stroke="black" points="1300.82,-191.102 1305.75,-181.725 1296.05,-185.979 1300.82,-191.102"/>
<text text-anchor="middle" x="832" y="-238.8" font-family="Times,serif" font-size="14.00">u0003</text>
</g>
<!-- 6 -->
<g id="node13" class="node"><title>6</title>
<ellipse fill="none" stroke="black" cx="832" cy="-181" rx="18" ry="18"/>
</g>
<!-- 3&#45;&gt;6 -->
<g id="edge6" class="edge"><title>3&#45;&gt;6</title>
<path fill="none" stroke="black" d="M362.3,-205.434C384.55,-198.344 425.805,-187 462,-187 462,-187 462,-187 710,-187 742.246,-187 779.266,-184.848 803.777,-183.122"/>
<polygon fill="black" stroke="black" points="804.062,-186.61 813.781,-182.392 803.553,-179.629 804.062,-186.61"/>
<text text-anchor="middle" x="586" y="-190.8" font-family="Times,serif" font-size="14.00">u0005</text>
</g>
<!-- 7 -->
<g id="node6" class="node"><title>7</title>
<ellipse fill="none" stroke="black" cx="586" cy="-46" rx="18" ry="18"/>
</g>
<!-- 4&#45;&gt;7 -->
<g id="edge7" class="edge"><title>4&#45;&gt;7</title>
<path fill="none" stroke="black" d="M481.08,-46C500.965,-46 534.077,-46 557.577,-46"/>
<polygon fill="black" stroke="black" points="557.615,-49.5001 567.615,-46 557.615,-42.5001 557.615,-49.5001"/>
<text text-anchor="middle" x="522" y="-49.8" font-family="Times,serif" font-size="14.00">u0004</text>
</g>
<!-- 4&#45;&gt;5 -->
<g id="edge8" class="edge"><title>4&#45;&gt;5</title>
<path fill="none" stroke="black" d="M478.597,-36.4688C500.678,-22.9951 544.323,-0 585,-0 585,-0 585,-0 1202,-0 1269.66,-0 1300.8,-93.211 1312.35,-141.185"/>
<polygon fill="black" stroke="black" points="1309.01,-142.262 1314.64,-151.233 1315.83,-140.706 1309.01,-142.262"/>
<text text-anchor="middle" x="896" y="-3.8" font-family="Times,serif" font-size="14.00">u0003</text>
</g>
<!-- 9 -->
<g id="node7" class="node"><title>9</title>
<ellipse fill="none" stroke="black" cx="709" cy="-46" rx="18" ry="18"/>
</g>
<!-- 7&#45;&gt;9 -->
<g id="edge9" class="edge"><title>7&#45;&gt;9</title>
<path fill="none" stroke="black" d="M604.08,-46C623.965,-46 657.077,-46 680.577,-46"/>
<polygon fill="black" stroke="black" points="680.615,-49.5001 690.615,-46 680.615,-42.5001 680.615,-49.5001"/>
<text text-anchor="middle" x="650" y="-49.8" font-family="Times,serif" font-size="14.00">u0005</text>
</g>
<!-- 11 -->
<g id="node8" class="node"><title>11</title>
<ellipse fill="none" stroke="black" cx="832" cy="-46" rx="18" ry="18"/>
</g>
<!-- 9&#45;&gt;11 -->
<g id="edge10" class="edge"><title>9&#45;&gt;11</title>
<path fill="none" stroke="black" d="M727.08,-46C746.965,-46 780.077,-46 803.577,-46"/>
<polygon fill="black" stroke="black" points="803.615,-49.5001 813.615,-46 803.615,-42.5001 803.615,-49.5001"/>
<text text-anchor="middle" x="768" y="-49.8" font-family="Times,serif" font-size="14.00">u0004</text>
</g>
<!-- 13 -->
<g id="node9" class="node"><title>13</title>
<ellipse fill="none" stroke="black" cx="955" cy="-46" rx="18" ry="18"/>
</g>
<!-- 11&#45;&gt;13 -->
<g id="edge11" class="edge"><title>11&#45;&gt;13</title>
<path fill="none" stroke="black" d="M850.08,-46C869.965,-46 903.077,-46 926.577,-46"/>
<polygon fill="black" stroke="black" points="926.615,-49.5001 936.615,-46 926.615,-42.5001 926.615,-49.5001"/>
<text text-anchor="middle" x="896" y="-49.8" font-family="Times,serif" font-size="14.00">u0005</text>
</g>
<!-- 14 -->
<g id="node10" class="node"><title>14</title>
<ellipse fill="none" stroke="black" cx="1078" cy="-46" rx="18" ry="18"/>
</g>
<!-- 13&#45;&gt;14 -->
<g id="edge12" class="edge"><title>13&#45;&gt;14</title>
<path fill="none" stroke="black" d="M973.08,-46C992.965,-46 1026.08,-46 1049.58,-46"/>
<polygon fill="black" stroke="black" points="1049.62,-49.5001 1059.62,-46 1049.62,-42.5001 1049.62,-49.5001"/>
<text text-anchor="middle" x="1014" y="-49.8" font-family="Times,serif" font-size="14.00">u0005</text>
</g>
<!-- 12 -->
<g id="node11" class="node"><title>12</title>
<ellipse fill="none" stroke="black" cx="1201" cy="-100" rx="18" ry="18"/>
</g>
<!-- 14&#45;&gt;12 -->
<g id="edge13" class="edge"><title>14&#45;&gt;12</title>
<path fill="none" stroke="black" d="M1095.08,-51.9312C1112.53,-58.5096 1141.1,-69.6937 1165,-81 1168.52,-82.6651 1172.18,-84.5171 1175.76,-86.3931"/>
<polygon fill="black" stroke="black" points="1174.39,-89.633 1184.86,-91.3032 1177.72,-83.4731 1174.39,-89.633"/>
<text text-anchor="middle" x="1142" y="-84.8" font-family="Times,serif" font-size="14.00">u0005</text>
</g>
<!-- 12&#45;&gt;5 -->
<g id="edge14" class="edge"><title>12&#45;&gt;5</title>
<path fill="none" stroke="black" d="M1219.26,-99.9476C1236.72,-100.686 1263.81,-104.079 1283,-117 1292.71,-123.541 1300.45,-133.771 1306.14,-143.433"/>
<polygon fill="black" stroke="black" points="1303.15,-145.252 1310.99,-152.383 1309.31,-141.922 1303.15,-145.252"/>
<text text-anchor="middle" x="1260" y="-120.8" font-family="Times,serif" font-size="14.00">u0003</text>
</g>
<!-- 5&#45;&gt;2 -->
<g id="edge15" class="edge"><title>5&#45;&gt;2</title>
<path fill="none" stroke="black" d="M1334.71,-178.074C1354.14,-190.052 1388.7,-211.364 1412.91,-226.294"/>
<polygon fill="black" stroke="black" points="1411.28,-229.401 1421.63,-231.67 1414.95,-223.442 1411.28,-229.401"/>
<text text-anchor="middle" x="1378" y="-220.8" font-family="Times,serif" font-size="14.00">u0002</text>
</g>
<!-- 6&#45;&gt;5 -->
<g id="edge17" class="edge"><title>6&#45;&gt;5</title>
<path fill="none" stroke="black" d="M850.188,-183.551C873.606,-186.801 916.875,-192 954,-192 954,-192 954,-192 1202,-192 1233.34,-192 1268.54,-183.825 1291.86,-177.222"/>
<polygon fill="black" stroke="black" points="1293.08,-180.513 1301.68,-174.334 1291.1,-173.797 1293.08,-180.513"/>
<text text-anchor="middle" x="1078" y="-195.8" font-family="Times,serif" font-size="14.00">u0003</text>
</g>
<!-- 8 -->
<g id="node14" class="node"><title>8</title>
<ellipse fill="none" stroke="black" cx="955" cy="-146" rx="18" ry="18"/>
</g>
<!-- 6&#45;&gt;8 -->
<g id="edge16" class="edge"><title>6&#45;&gt;8</title>
<path fill="none" stroke="black" d="M848.268,-173.193C855.6,-169.688 864.601,-165.736 873,-163 890.539,-157.287 910.857,-153.029 926.755,-150.203"/>
<polygon fill="black" stroke="black" points="927.692,-153.595 936.968,-148.475 926.524,-146.693 927.692,-153.595"/>
<text text-anchor="middle" x="896" y="-166.8" font-family="Times,serif" font-size="14.00">u0004</text>
</g>
<!-- 8&#45;&gt;5 -->
<g id="edge18" class="edge"><title>8&#45;&gt;5</title>
<path fill="none" stroke="black" d="M972.974,-147.078C1030.56,-150.737 1218.85,-162.7 1290.23,-167.235"/>
<polygon fill="black" stroke="black" points="1290.44,-170.756 1300.64,-167.897 1290.88,-163.77 1290.44,-170.756"/>
<text text-anchor="middle" x="1142" y="-163.8" font-family="Times,serif" font-size="14.00">u0003</text>
</g>
<!-- 10 -->
<g id="node15" class="node"><title>10</title>
<ellipse fill="none" stroke="black" cx="1078" cy="-100" rx="18" ry="18"/>
</g>
<!-- 8&#45;&gt;10 -->
<g id="edge19" class="edge"><title>8&#45;&gt;10</title>
<path fill="none" stroke="black" d="M968.215,-133.288C974.496,-127.47 982.589,-120.996 991,-117 1009.44,-108.238 1032.17,-103.991 1049.63,-101.933"/>
<polygon fill="black" stroke="black" points="1050.14,-105.399 1059.74,-100.913 1049.44,-98.4347 1050.14,-105.399"/>
<text text-anchor="middle" x="1014" y="-120.8" font-family="Times,serif" font-size="14.00">u0005</text>
</g>
<!-- 10&#45;&gt;12 -->
<g id="edge20" class="edge"><title>10&#45;&gt;12</title>
<path fill="none" stroke="black" d="M1096.08,-100C1115.96,-100 1149.08,-100 1172.58,-100"/>
<polygon fill="black" stroke="black" points="1172.62,-103.5 1182.62,-100 1172.62,-96.5001 1172.62,-103.5"/>
<text text-anchor="middle" x="1142" y="-103.8" font-family="Times,serif" font-size="14.00">u0004</text>
</g>
<!-- initial -->
<g id="node16" class="node"><title>initial</title>
</g>
<!-- initial&#45;&gt;0 -->
<g id="edge21" class="edge"><title>initial&#45;&gt;0</title>
<path fill="none" stroke="black" d="M54.195,-246C62.6538,-246 72.0513,-246 80.5951,-246"/>
<polygon fill="black" stroke="black" points="80.8257,-249.5 90.8257,-246 80.8257,-242.5 80.8257,-249.5"/>
</g>
</g>
</svg>
