<svg width="2447px" height="1008px"
 viewBox="0.00 0.00 1835.00 756.00" xmlns="http://www.w3.org/2000/svg" xmlns:xlink="http://www.w3.org/1999/xlink">
<g id="graph0" class="graph" transform="scale(1.000022500562514 1.000022500562514) rotate(0) translate(4 752)">
<title>Automaton</title>
<polygon fill="white" stroke="none" points="-4,4 -4,-752 1831,-752 1831,4 -4,4"/>
<!-- 0 -->
<g id="node1" class="node"><title>0</title>
<ellipse fill="none" stroke="black" cx="109" cy="-633" rx="18" ry="18"/>
</g>
<!-- 1 -->
<g id="node2" class="node"><title>1</title>
<ellipse fill="none" stroke="black" cx="227" cy="-633" rx="18" ry="18"/>
</g>
<!-- 0&#45;&gt;1 -->
<g id="edge1" class="edge"><title>0&#45;&gt;1</title>
<path fill="none" stroke="black" d="M127.116,-633C145.964,-633 176.531,-633 198.696,-633"/>
<polygon fill="black" stroke="black" points="198.814,-636.5 208.814,-633 198.814,-629.5 198.814,-636.5"/>
<text text-anchor="middle" x="168" y="-636.8" font-family="Times,serif" font-size="14.00">u0000</text>
</g>
<!-- 2 -->
<g id="node3" class="node"><title>2</title>
<ellipse fill="none" stroke="black" cx="345" cy="-633" rx="18" ry="18"/>
</g>
<!-- 1&#45;&gt;2 -->
<g id="edge2" class="edge"><title>1&#45;&gt;2</title>
<path fill="none" stroke="black" d="M245.116,-633C263.964,-633 294.531,-633 316.696,-633"/>
<polygon fill="black" stroke="black" points="316.814,-636.5 326.814,-633 316.814,-629.5 316.814,-636.5"/>
<text text-anchor="middle" x="286" y="-636.8" font-family="Times,serif" font-size="14.00">u0001</text>
</g>
<!-- 3 -->
<g id="node4" class="node"><title>3</title>
<ellipse fill="none" stroke="black" cx="463" cy="-633" rx="18" ry="18"/>
</g>
<!-- 2&#45;&gt;3 -->
<g id="edge3" class="edge"><title>2&#45;&gt;3</title>
<path fill="none" stroke="black" d="M363.116,-633C381.964,-633 412.531,-633 434.696,-633"/>
<polygon fill="black" stroke="black" points="434.814,-636.5 444.814,-633 434.814,-629.5 434.814,-636.5"/>
<text text-anchor="middle" x="404" y="-636.8" font-family="Times,serif" font-size="14.00">u0004</text>
</g>
<!-- 4 -->
<g id="node10" class="node"><title>4</title>
<ellipse fill="none" stroke="black" cx="1683" cy="-519" rx="18" ry="18"/>
</g>
<!-- 2&#45;&gt;4 -->
<g id="edge4" class="edge"><title>2&#45;&gt;4</title>
<path fill="none" stroke="black" d="M354.553,-648.625C371.224,-676.75 410.949,-733 462,-733 462,-733 462,-733 1566,-733 1610.8,-733 1622.51,-710.514 1647,-673 1672.18,-634.428 1679.39,-580.155 1681.36,-547.404"/>
<polygon fill="black" stroke="black" points="1684.87,-547.331 1681.85,-537.175 1677.88,-546.997 1684.87,-547.331"/>
<text text-anchor="middle" x="994" y="-736.8" font-family="Times,serif" font-size="14.00">u0003</text>
</g>
<!-- 5 -->
<g id="node20" class="node"><title>5</title>
<ellipse fill="none" stroke="black" cx="463" cy="-194" rx="18" ry="18"/>
</g>
<!-- 2&#45;&gt;5 -->
<g id="edge5" class="edge"><title>2&#45;&gt;5</title>
<path fill="none" stroke="black" d="M350.547,-615.791C368.284,-548.665 432.915,-304.073 454.742,-221.468"/>
<polygon fill="black" stroke="black" points="458.187,-222.13 457.358,-211.567 451.419,-220.341 458.187,-222.13"/>
<text text-anchor="middle" x="404" y="-495.8" font-family="Times,serif" font-size="14.00">u0005</text>
</g>
<!-- 6 -->
<g id="node5" class="node"><title>6</title>
<ellipse fill="none" stroke="black" cx="581" cy="-633" rx="18" ry="18"/>
</g>
<!-- 3&#45;&gt;6 -->
<g id="edge6" class="edge"><title>3&#45;&gt;6</title>
<path fill="none" stroke="black" d="M481.116,-633C499.964,-633 530.531,-633 552.696,-633"/>
<polygon fill="black" stroke="black" points="552.814,-636.5 562.814,-633 552.814,-629.5 552.814,-636.5"/>
<text text-anchor="middle" x="522" y="-636.8" font-family="Times,serif" font-size="14.00">u0004</text>
</g>
<!-- 3&#45;&gt;4 -->
<g id="edge7" class="edge"><title>3&#45;&gt;4</title>
<path fill="none" stroke="black" d="M477.237,-644.535C497.76,-661.19 539.161,-690 580,-690 580,-690 580,-690 1566,-690 1609.51,-690 1621.23,-670.067 1647,-635 1666.18,-608.894 1674.95,-572.219 1678.89,-547.138"/>
<polygon fill="black" stroke="black" points="1682.37,-547.555 1680.3,-537.164 1675.44,-546.575 1682.37,-547.555"/>
<text text-anchor="middle" x="1058" y="-693.8" font-family="Times,serif" font-size="14.00">u0003</text>
</g>
<!-- 7 -->
<g id="node17" class="node"><title>7</title>
<ellipse fill="none" stroke="black" cx="640" cy="-560" rx="18" ry="18"/>
</g>
<!-- 3&#45;&gt;7 -->
<g id="edge8" class="edge"><title>3&#45;&gt;7</title>
<path fill="none" stroke="black" d="M479.115,-624.24C485.203,-620.859 492.347,-617.073 499,-614 537.966,-596 584.768,-578.801 613.177,-568.828"/>
<polygon fill="black" stroke="black" points="614.469,-572.085 622.763,-565.493 612.168,-565.474 614.469,-572.085"/>
<text text-anchor="middle" x="522" y="-617.8" font-family="Times,serif" font-size="14.00">u0005</text>
</g>
<!-- 11 -->
<g id="node6" class="node"><title>11</title>
<ellipse fill="none" stroke="black" cx="699" cy="-601" rx="18" ry="18"/>
</g>
<!-- 6&#45;&gt;11 -->
<g id="edge9" class="edge"><title>6&#45;&gt;11</title>
<path fill="none" stroke="black" d="M597.43,-625.605C603.438,-622.934 610.444,-620.07 617,-618 634.59,-612.445 654.907,-608.187 670.793,-605.321"/>
<polygon fill="black" stroke="black" points="671.736,-608.71 680.995,-603.561 670.546,-601.812 671.736,-608.71"/>
<text text-anchor="middle" x="640" y="-621.8" font-family="Times,serif" font-size="14.00">u0004</text>
</g>
<!-- 6&#45;&gt;4 -->
<g id="edge10" class="edge"><title>6&#45;&gt;4</title>
<path fill="none" stroke="black" d="M599.251,-633.688C661.164,-636.096 878.002,-644 1057,-644 1057,-644 1057,-644 1566,-644 1606.55,-644 1619.48,-631.788 1647,-602 1661.46,-586.347 1670.44,-563.843 1675.68,-546.216"/>
<polygon fill="black" stroke="black" points="1679.08,-547.059 1678.35,-536.489 1672.33,-545.208 1679.08,-547.059"/>
<text text-anchor="middle" x="1122" y="-647.8" font-family="Times,serif" font-size="14.00">u0003</text>
</g>
<!-- 17 -->
<g id="node7" class="node"><title>17</title>
<ellipse fill="none" stroke="black" cx="817" cy="-447" rx="18" ry="18"/>
</g>
<!-- 11&#45;&gt;17 -->
<g id="edge11" class="edge"><title>11&#45;&gt;17</title>
<path fill="none" stroke="black" d="M710.499,-587.062C730.584,-560.397 774.612,-501.946 798.963,-469.618"/>
<polygon fill="black" stroke="black" points="802.052,-471.334 805.273,-461.241 796.461,-467.123 802.052,-471.334"/>
<text text-anchor="middle" x="758" y="-555.8" font-family="Times,serif" font-size="14.00">u0004</text>
</g>
<!-- 11&#45;&gt;4 -->
<g id="edge12" class="edge"><title>11&#45;&gt;4</title>
<path fill="none" stroke="black" d="M717.295,-601C739.962,-601 780.958,-601 816,-601 816,-601 816,-601 1566,-601 1603.68,-601 1617.23,-599.092 1647,-576 1657.43,-567.908 1665.5,-555.76 1671.25,-544.756"/>
<polygon fill="black" stroke="black" points="1674.52,-546.039 1675.7,-535.511 1668.21,-543 1674.52,-546.039"/>
<text text-anchor="middle" x="1186" y="-604.8" font-family="Times,serif" font-size="14.00">u0003</text>
</g>
<!-- 23 -->
<g id="node8" class="node"><title>23</title>
<ellipse fill="none" stroke="black" cx="1442" cy="-361" rx="18" ry="18"/>
</g>
<!-- 17&#45;&gt;23 -->
<g id="edge13" class="edge"><title>17&#45;&gt;23</title>
<path fill="none" stroke="black" d="M830.249,-434.275C850.093,-415.096 891.366,-381 934,-381 934,-381 934,-381 1315,-381 1349.69,-381 1389.1,-373.514 1414.46,-367.701"/>
<polygon fill="black" stroke="black" points="1415.5,-371.053 1424.42,-365.34 1413.88,-364.242 1415.5,-371.053"/>
<text text-anchor="middle" x="1122" y="-384.8" font-family="Times,serif" font-size="14.00">u0004</text>
</g>
<!-- 24 -->
<g id="node12" class="node"><title>24</title>
<ellipse fill="none" stroke="black" cx="935" cy="-447" rx="18" ry="18"/>
</g>
<!-- 17&#45;&gt;24 -->
<g id="edge14" class="edge"><title>17&#45;&gt;24</title>
<path fill="none" stroke="black" d="M835.116,-447C853.964,-447 884.531,-447 906.696,-447"/>
<polygon fill="black" stroke="black" points="906.814,-450.5 916.814,-447 906.814,-443.5 906.814,-450.5"/>
<text text-anchor="middle" x="876" y="-450.8" font-family="Times,serif" font-size="14.00">u0005</text>
</g>
<!-- 14 -->
<g id="node9" class="node"><title>14</title>
<ellipse fill="none" stroke="black" cx="1565" cy="-262" rx="18" ry="18"/>
</g>
<!-- 23&#45;&gt;14 -->
<g id="edge15" class="edge"><title>23&#45;&gt;14</title>
<path fill="none" stroke="black" d="M1456.41,-350.027C1477.31,-332.93 1517.82,-299.785 1542.73,-279.403"/>
<polygon fill="black" stroke="black" points="1545.01,-282.063 1550.53,-273.022 1540.57,-276.646 1545.01,-282.063"/>
<text text-anchor="middle" x="1506" y="-330.8" font-family="Times,serif" font-size="14.00">u0004</text>
</g>
<!-- 14&#45;&gt;4 -->
<g id="edge16" class="edge"><title>14&#45;&gt;4</title>
<path fill="none" stroke="black" d="M1573.26,-278.077C1592.83,-321.436 1646.82,-441.049 1670.55,-493.636"/>
<polygon fill="black" stroke="black" points="1667.44,-495.255 1674.75,-502.93 1673.82,-492.375 1667.44,-495.255"/>
<text text-anchor="middle" x="1624" y="-439.8" font-family="Times,serif" font-size="14.00">u0003</text>
</g>
<!-- 8 -->
<g id="node11" class="node"><title>8</title>
<ellipse fill="none" stroke="black" cx="1805" cy="-519" rx="18" ry="18"/>
<ellipse fill="none" stroke="black" cx="1805" cy="-519" rx="22" ry="22"/>
</g>
<!-- 4&#45;&gt;8 -->
<g id="edge17" class="edge"><title>4&#45;&gt;8</title>
<path fill="none" stroke="black" d="M1701.19,-519C1719.77,-519 1749.76,-519 1772.57,-519"/>
<polygon fill="black" stroke="black" points="1772.79,-522.5 1782.79,-519 1772.79,-515.5 1772.79,-522.5"/>
<text text-anchor="middle" x="1742" y="-522.8" font-family="Times,serif" font-size="14.00">u0002</text>
</g>
<!-- 24&#45;&gt;4 -->
<g id="edge19" class="edge"><title>24&#45;&gt;4</title>
<path fill="none" stroke="black" d="M951.354,-455.02C957.352,-457.885 964.371,-460.916 971,-463 1057.89,-490.31 1285.92,-519 1377,-519 1377,-519 1377,-519 1566,-519 1596.25,-519 1630.94,-519 1654.44,-519"/>
<polygon fill="black" stroke="black" points="1654.71,-522.5 1664.71,-519 1654.71,-515.5 1654.71,-522.5"/>
<text text-anchor="middle" x="1314" y="-521.8" font-family="Times,serif" font-size="14.00">u0003</text>
</g>
<!-- 26 -->
<g id="node13" class="node"><title>26</title>
<ellipse fill="none" stroke="black" cx="1058" cy="-435" rx="18" ry="18"/>
</g>
<!-- 24&#45;&gt;26 -->
<g id="edge18" class="edge"><title>24&#45;&gt;26</title>
<path fill="none" stroke="black" d="M953.08,-445.306C973.078,-443.323 1006.45,-440.013 1029.98,-437.68"/>
<polygon fill="black" stroke="black" points="1030.4,-441.155 1040.01,-436.685 1029.71,-434.189 1030.4,-441.155"/>
<text text-anchor="middle" x="994" y="-447.8" font-family="Times,serif" font-size="14.00">u0004</text>
</g>
<!-- 28 -->
<g id="node14" class="node"><title>28</title>
<ellipse fill="none" stroke="black" cx="1186" cy="-335" rx="18" ry="18"/>
</g>
<!-- 26&#45;&gt;28 -->
<g id="edge20" class="edge"><title>26&#45;&gt;28</title>
<path fill="none" stroke="black" d="M1075.84,-431.477C1094.48,-426.878 1124.58,-417.296 1145,-400 1157.53,-389.387 1167.3,-373.817 1174.05,-360.577"/>
<polygon fill="black" stroke="black" points="1177.26,-361.982 1178.43,-351.452 1170.95,-358.956 1177.26,-361.982"/>
<text text-anchor="middle" x="1122" y="-427.8" font-family="Times,serif" font-size="14.00">u0004</text>
</g>
<!-- 30 -->
<g id="node15" class="node"><title>30</title>
<ellipse fill="none" stroke="black" cx="1314" cy="-335" rx="18" ry="18"/>
</g>
<!-- 28&#45;&gt;30 -->
<g id="edge21" class="edge"><title>28&#45;&gt;30</title>
<path fill="none" stroke="black" d="M1204.26,-335C1225.27,-335 1261.03,-335 1285.77,-335"/>
<polygon fill="black" stroke="black" points="1285.95,-338.5 1295.95,-335 1285.95,-331.5 1285.95,-338.5"/>
<text text-anchor="middle" x="1250" y="-338.8" font-family="Times,serif" font-size="14.00">u0004</text>
</g>
<!-- 21 -->
<g id="node16" class="node"><title>21</title>
<ellipse fill="none" stroke="black" cx="1442" cy="-189" rx="18" ry="18"/>
</g>
<!-- 30&#45;&gt;21 -->
<g id="edge22" class="edge"><title>30&#45;&gt;21</title>
<path fill="none" stroke="black" d="M1326.52,-321.395C1334.49,-311.993 1345.36,-299.212 1355,-288 1378.35,-260.841 1405.48,-229.674 1422.93,-209.682"/>
<polygon fill="black" stroke="black" points="1425.61,-211.93 1429.55,-202.095 1420.34,-207.326 1425.61,-211.93"/>
<text text-anchor="middle" x="1378" y="-291.8" font-family="Times,serif" font-size="14.00">u0004</text>
</g>
<!-- 21&#45;&gt;14 -->
<g id="edge23" class="edge"><title>21&#45;&gt;14</title>
<path fill="none" stroke="black" d="M1460.04,-188.513C1478.58,-188.803 1508.33,-191.745 1529,-206 1539.73,-213.4 1547.83,-225.272 1553.53,-236.185"/>
<polygon fill="black" stroke="black" points="1550.45,-237.87 1557.91,-245.392 1556.77,-234.859 1550.45,-237.87"/>
<text text-anchor="middle" x="1506" y="-209.8" font-family="Times,serif" font-size="14.00">u0005</text>
</g>
<!-- 12 -->
<g id="node18" class="node"><title>12</title>
<ellipse fill="none" stroke="black" cx="1186" cy="-471" rx="18" ry="18"/>
</g>
<!-- 7&#45;&gt;12 -->
<g id="edge24" class="edge"><title>7&#45;&gt;12</title>
<path fill="none" stroke="black" d="M658.385,-560.495C689.833,-561.347 758.266,-563 816,-563 816,-563 816,-563 1059,-563 1097.8,-563 1113.7,-570.927 1145,-548 1161.4,-535.984 1171.63,-515.232 1177.63,-498.297"/>
<polygon fill="black" stroke="black" points="1181.1,-498.95 1180.84,-488.358 1174.44,-496.799 1181.1,-498.95"/>
<text text-anchor="middle" x="876" y="-566.8" font-family="Times,serif" font-size="14.00">u0004</text>
</g>
<!-- 12&#45;&gt;4 -->
<g id="edge25" class="edge"><title>12&#45;&gt;4</title>
<path fill="none" stroke="black" d="M1204.12,-471.444C1228.35,-472.033 1274.06,-473 1313,-473 1313,-473 1313,-473 1566,-473 1600.27,-473 1636.49,-490.567 1659.15,-503.99"/>
<polygon fill="black" stroke="black" points="1657.36,-506.994 1667.71,-509.245 1661.02,-501.029 1657.36,-506.994"/>
<text text-anchor="middle" x="1442" y="-476.8" font-family="Times,serif" font-size="14.00">u0003</text>
</g>
<!-- 18 -->
<g id="node19" class="node"><title>18</title>
<ellipse fill="none" stroke="black" cx="1314" cy="-427" rx="18" ry="18"/>
</g>
<!-- 12&#45;&gt;18 -->
<g id="edge26" class="edge"><title>12&#45;&gt;18</title>
<path fill="none" stroke="black" d="M1200.65,-459.78C1208.04,-454.244 1217.56,-447.928 1227,-444 1245.85,-436.153 1268.56,-431.862 1285.91,-429.555"/>
<polygon fill="black" stroke="black" points="1286.42,-433.019 1295.94,-428.36 1285.59,-426.068 1286.42,-433.019"/>
<text text-anchor="middle" x="1250" y="-447.8" font-family="Times,serif" font-size="14.00">u0005</text>
</g>
<!-- 18&#45;&gt;23 -->
<g id="edge27" class="edge"><title>18&#45;&gt;23</title>
<path fill="none" stroke="black" d="M1331.61,-422.692C1349.51,-417.632 1378.46,-408.216 1401,-395 1407.92,-390.943 1414.81,-385.657 1420.87,-380.468"/>
<polygon fill="black" stroke="black" points="1423.44,-382.859 1428.55,-373.574 1418.77,-377.65 1423.44,-382.859"/>
<text text-anchor="middle" x="1378" y="-419.8" font-family="Times,serif" font-size="14.00">u0005</text>
</g>
<!-- 5&#45;&gt;4 -->
<g id="edge29" class="edge"><title>5&#45;&gt;4</title>
<path fill="none" stroke="black" d="M466.096,-176.097C472.813,-128.07 498.376,-0 580,-0 580,-0 580,-0 1566,-0 1609.27,-0 1625.17,-16.6465 1647,-54 1669.03,-91.6877 1678.78,-395.952 1681.31,-490.843"/>
<polygon fill="black" stroke="black" points="1677.81,-490.949 1681.57,-500.854 1684.81,-490.767 1677.81,-490.949"/>
<text text-anchor="middle" x="1058" y="-3.8" font-family="Times,serif" font-size="14.00">u0003</text>
</g>
<!-- 9 -->
<g id="node21" class="node"><title>9</title>
<ellipse fill="none" stroke="black" cx="581" cy="-260" rx="18" ry="18"/>
</g>
<!-- 5&#45;&gt;9 -->
<g id="edge28" class="edge"><title>5&#45;&gt;9</title>
<path fill="none" stroke="black" d="M479.165,-202.628C498.704,-213.746 532.898,-233.2 555.987,-246.338"/>
<polygon fill="black" stroke="black" points="554.409,-249.466 564.831,-251.37 557.871,-243.382 554.409,-249.466"/>
<text text-anchor="middle" x="522" y="-242.8" font-family="Times,serif" font-size="14.00">u0004</text>
</g>
<!-- 10 -->
<g id="node28" class="node"><title>10</title>
<ellipse fill="none" stroke="black" cx="1058" cy="-158" rx="18" ry="18"/>
</g>
<!-- 5&#45;&gt;10 -->
<g id="edge30" class="edge"><title>5&#45;&gt;10</title>
<path fill="none" stroke="black" d="M479.781,-186.966C501.775,-177.819 543.103,-163 580,-163 580,-163 580,-163 936,-163 968.234,-163 1005.26,-161.207 1029.77,-159.768"/>
<polygon fill="black" stroke="black" points="1030.01,-163.26 1039.78,-159.16 1029.58,-156.273 1030.01,-163.26"/>
<text text-anchor="middle" x="758" y="-166.8" font-family="Times,serif" font-size="14.00">u0005</text>
</g>
<!-- 9&#45;&gt;14 -->
<g id="edge33" class="edge"><title>9&#45;&gt;14</title>
<path fill="none" stroke="black" d="M598.282,-254.202C620.51,-246.816 661.742,-235 698,-235 698,-235 698,-235 1443,-235 1476.52,-235 1514.04,-244.994 1538.29,-252.821"/>
<polygon fill="black" stroke="black" points="1537.22,-256.155 1547.82,-256.008 1539.44,-249.517 1537.22,-256.155"/>
<text text-anchor="middle" x="1058" y="-238.8" font-family="Times,serif" font-size="14.00">u0005</text>
</g>
<!-- 9&#45;&gt;4 -->
<g id="edge32" class="edge"><title>9&#45;&gt;4</title>
<path fill="none" stroke="black" d="M591.65,-274.546C618.853,-314.228 700.618,-424.672 799,-474 915.143,-532.234 1247.08,-562 1377,-562 1377,-562 1377,-562 1566,-562 1599.64,-562 1635.54,-545.904 1658.34,-533.408"/>
<polygon fill="black" stroke="black" points="1660.3,-536.317 1667.26,-528.33 1656.84,-530.233 1660.3,-536.317"/>
<text text-anchor="middle" x="1122" y="-550.8" font-family="Times,serif" font-size="14.00">u0003</text>
</g>
<!-- 13 -->
<g id="node22" class="node"><title>13</title>
<ellipse fill="none" stroke="black" cx="699" cy="-282" rx="18" ry="18"/>
</g>
<!-- 9&#45;&gt;13 -->
<g id="edge31" class="edge"><title>9&#45;&gt;13</title>
<path fill="none" stroke="black" d="M599.116,-263.246C618.072,-266.841 648.882,-272.685 671.077,-276.894"/>
<polygon fill="black" stroke="black" points="670.714,-280.387 681.191,-278.812 672.018,-273.51 670.714,-280.387"/>
<text text-anchor="middle" x="640" y="-278.8" font-family="Times,serif" font-size="14.00">u0004</text>
</g>
<!-- 19 -->
<g id="node23" class="node"><title>19</title>
<ellipse fill="none" stroke="black" cx="817" cy="-285" rx="18" ry="18"/>
</g>
<!-- 13&#45;&gt;19 -->
<g id="edge34" class="edge"><title>13&#45;&gt;19</title>
<path fill="none" stroke="black" d="M717.116,-282.443C735.964,-282.93 766.531,-283.721 788.696,-284.294"/>
<polygon fill="black" stroke="black" points="788.726,-287.796 798.814,-284.556 788.907,-280.798 788.726,-287.796"/>
<text text-anchor="middle" x="758" y="-288.8" font-family="Times,serif" font-size="14.00">u0005</text>
</g>
<!-- 25 -->
<g id="node24" class="node"><title>25</title>
<ellipse fill="none" stroke="black" cx="935" cy="-286" rx="18" ry="18"/>
</g>
<!-- 19&#45;&gt;25 -->
<g id="edge35" class="edge"><title>19&#45;&gt;25</title>
<path fill="none" stroke="black" d="M835.116,-285.148C853.964,-285.31 884.531,-285.574 906.696,-285.765"/>
<polygon fill="black" stroke="black" points="906.784,-289.265 916.814,-285.852 906.844,-282.266 906.784,-289.265"/>
<text text-anchor="middle" x="876" y="-289.8" font-family="Times,serif" font-size="14.00">u0005</text>
</g>
<!-- 27 -->
<g id="node25" class="node"><title>27</title>
<ellipse fill="none" stroke="black" cx="1058" cy="-286" rx="18" ry="18"/>
</g>
<!-- 25&#45;&gt;27 -->
<g id="edge36" class="edge"><title>25&#45;&gt;27</title>
<path fill="none" stroke="black" d="M953.08,-286C972.965,-286 1006.08,-286 1029.58,-286"/>
<polygon fill="black" stroke="black" points="1029.62,-289.5 1039.62,-286 1029.62,-282.5 1029.62,-289.5"/>
<text text-anchor="middle" x="994" y="-289.8" font-family="Times,serif" font-size="14.00">u0005</text>
</g>
<!-- 29 -->
<g id="node26" class="node"><title>29</title>
<ellipse fill="none" stroke="black" cx="1186" cy="-281" rx="18" ry="18"/>
</g>
<!-- 27&#45;&gt;29 -->
<g id="edge37" class="edge"><title>27&#45;&gt;29</title>
<path fill="none" stroke="black" d="M1075.99,-285.326C1096.94,-284.494 1132.81,-283.071 1157.65,-282.085"/>
<polygon fill="black" stroke="black" points="1158.02,-285.573 1167.87,-281.68 1157.74,-278.579 1158.02,-285.573"/>
<text text-anchor="middle" x="1122" y="-288.8" font-family="Times,serif" font-size="14.00">u0005</text>
</g>
<!-- 31 -->
<g id="node27" class="node"><title>31</title>
<ellipse fill="none" stroke="black" cx="1314" cy="-281" rx="18" ry="18"/>
</g>
<!-- 29&#45;&gt;31 -->
<g id="edge38" class="edge"><title>29&#45;&gt;31</title>
<path fill="none" stroke="black" d="M1204.26,-281C1225.27,-281 1261.03,-281 1285.77,-281"/>
<polygon fill="black" stroke="black" points="1285.95,-284.5 1295.95,-281 1285.95,-277.5 1285.95,-284.5"/>
<text text-anchor="middle" x="1250" y="-284.8" font-family="Times,serif" font-size="14.00">u0005</text>
</g>
<!-- 31&#45;&gt;23 -->
<g id="edge39" class="edge"><title>31&#45;&gt;23</title>
<path fill="none" stroke="black" d="M1329.95,-290.491C1351.66,-304.278 1392.13,-329.968 1417.75,-346.239"/>
<polygon fill="black" stroke="black" points="1416.14,-349.363 1426.46,-351.768 1419.89,-343.453 1416.14,-349.363"/>
<text text-anchor="middle" x="1378" y="-339.8" font-family="Times,serif" font-size="14.00">u0004</text>
</g>
<!-- 10&#45;&gt;4 -->
<g id="edge41" class="edge"><title>10&#45;&gt;4</title>
<path fill="none" stroke="black" d="M1066.51,-141.816C1082.95,-109.061 1125.49,-38 1185,-38 1185,-38 1185,-38 1566,-38 1659.76,-38 1677.96,-387.749 1681.29,-490.772"/>
<polygon fill="black" stroke="black" points="1677.8,-491.132 1681.6,-501.022 1684.8,-490.922 1677.8,-491.132"/>
<text text-anchor="middle" x="1378" y="-41.8" font-family="Times,serif" font-size="14.00">u0003</text>
</g>
<!-- 15 -->
<g id="node29" class="node"><title>15</title>
<ellipse fill="none" stroke="black" cx="1186" cy="-135" rx="18" ry="18"/>
</g>
<!-- 10&#45;&gt;15 -->
<g id="edge40" class="edge"><title>10&#45;&gt;15</title>
<path fill="none" stroke="black" d="M1075.1,-151.405C1082.3,-148.707 1090.96,-145.802 1099,-144 1118.35,-139.664 1140.62,-137.407 1157.65,-136.237"/>
<polygon fill="black" stroke="black" points="1158.23,-139.709 1168,-135.615 1157.81,-132.721 1158.23,-139.709"/>
<text text-anchor="middle" x="1122" y="-147.8" font-family="Times,serif" font-size="14.00">u0004</text>
</g>
<!-- 16 -->
<g id="node31" class="node"><title>16</title>
<ellipse fill="none" stroke="black" cx="1186" cy="-189" rx="18" ry="18"/>
</g>
<!-- 10&#45;&gt;16 -->
<g id="edge42" class="edge"><title>10&#45;&gt;16</title>
<path fill="none" stroke="black" d="M1075.73,-162.117C1096.82,-167.305 1133.32,-176.285 1158.28,-182.427"/>
<polygon fill="black" stroke="black" points="1157.65,-185.876 1168.2,-184.866 1159.32,-179.079 1157.65,-185.876"/>
<text text-anchor="middle" x="1122" y="-182.8" font-family="Times,serif" font-size="14.00">u0005</text>
</g>
<!-- 15&#45;&gt;21 -->
<g id="edge44" class="edge"><title>15&#45;&gt;21</title>
<path fill="none" stroke="black" d="M1204.36,-134.695C1232.57,-134.574 1289.96,-135.896 1337,-147 1365.3,-153.682 1395.98,-166.862 1416.63,-176.684"/>
<polygon fill="black" stroke="black" points="1415.11,-179.837 1425.63,-181.059 1418.17,-173.541 1415.11,-179.837"/>
<text text-anchor="middle" x="1314" y="-150.8" font-family="Times,serif" font-size="14.00">u0005</text>
</g>
<!-- 20 -->
<g id="node30" class="node"><title>20</title>
<ellipse fill="none" stroke="black" cx="1314" cy="-84" rx="18" ry="18"/>
</g>
<!-- 15&#45;&gt;20 -->
<g id="edge43" class="edge"><title>15&#45;&gt;20</title>
<path fill="none" stroke="black" d="M1200.85,-124.546C1208.3,-119.311 1217.81,-113.209 1227,-109 1245.96,-100.311 1268.67,-93.8634 1285.99,-89.694"/>
<polygon fill="black" stroke="black" points="1287.03,-93.0454 1295.99,-87.3928 1285.46,-86.2235 1287.03,-93.0454"/>
<text text-anchor="middle" x="1250" y="-112.8" font-family="Times,serif" font-size="14.00">u0004</text>
</g>
<!-- 20&#45;&gt;4 -->
<g id="edge45" class="edge"><title>20&#45;&gt;4</title>
<path fill="none" stroke="black" d="M1331.96,-82.7505C1349.66,-82.0011 1377.98,-82.3797 1401,-90 1465.14,-111.234 1478.03,-127.656 1529,-172 1598.39,-232.366 1613.99,-256.156 1647,-342 1666.41,-392.475 1675.56,-455.368 1679.46,-490.976"/>
<polygon fill="black" stroke="black" points="1676,-491.519 1680.51,-501.106 1682.96,-490.799 1676,-491.519"/>
<text text-anchor="middle" x="1506" y="-175.8" font-family="Times,serif" font-size="14.00">u0003</text>
</g>
<!-- 20&#45;&gt;21 -->
<g id="edge46" class="edge"><title>20&#45;&gt;21</title>
<path fill="none" stroke="black" d="M1332.06,-85.2119C1350.89,-87.3693 1381.16,-93.3623 1401,-110 1417.05,-123.46 1427.35,-144.972 1433.47,-162.152"/>
<polygon fill="black" stroke="black" points="1430.15,-163.268 1436.6,-171.672 1436.8,-161.079 1430.15,-163.268"/>
<text text-anchor="middle" x="1378" y="-113.8" font-family="Times,serif" font-size="14.00">u0005</text>
</g>
<!-- 22 -->
<g id="node32" class="node"><title>22</title>
<ellipse fill="none" stroke="black" cx="1314" cy="-189" rx="18" ry="18"/>
</g>
<!-- 16&#45;&gt;22 -->
<g id="edge47" class="edge"><title>16&#45;&gt;22</title>
<path fill="none" stroke="black" d="M1204.26,-189C1225.27,-189 1261.03,-189 1285.77,-189"/>
<polygon fill="black" stroke="black" points="1285.95,-192.5 1295.95,-189 1285.95,-185.5 1285.95,-192.5"/>
<text text-anchor="middle" x="1250" y="-192.8" font-family="Times,serif" font-size="14.00">u0005</text>
</g>
<!-- 22&#45;&gt;21 -->
<g id="edge48" class="edge"><title>22&#45;&gt;21</title>
<path fill="none" stroke="black" d="M1332.26,-189C1353.27,-189 1389.03,-189 1413.77,-189"/>
<polygon fill="black" stroke="black" points="1413.95,-192.5 1423.95,-189 1413.95,-185.5 1413.95,-192.5"/>
<text text-anchor="middle" x="1378" y="-192.8" font-family="Times,serif" font-size="14.00">u0005</text>
</g>
<!-- initial -->
<g id="node33" class="node"><title>initial</title>
</g>
<!-- initial&#45;&gt;0 -->
<g id="edge49" class="edge"><title>initial&#45;&gt;0</title>
<path fill="none" stroke="black" d="M54.195,-633C62.6538,-633 72.0513,-633 80.5951,-633"/>
<polygon fill="black" stroke="black" points="80.8257,-636.5 90.8257,-633 80.8257,-629.5 80.8257,-636.5"/>
</g>
</g>
</svg>
