<svg width="2248px" height="129px"
 viewBox="0.00 0.00 1686.00 97.00" xmlns="http://www.w3.org/2000/svg" xmlns:xlink="http://www.w3.org/1999/xlink">
<g id="graph0" class="graph" transform="scale(1.000022500562514 1.000022500562514) rotate(0) translate(4 93)">
<title>Automaton</title>
<polygon fill="white" stroke="none" points="-4,4 -4,-93 1682,-93 1682,4 -4,4"/>
<!-- 0 -->
<g id="node1" class="node"><title>0</title>
<ellipse fill="none" stroke="black" cx="109" cy="-47" rx="18" ry="18"/>
</g>
<!-- 1 -->
<g id="node2" class="node"><title>1</title>
<ellipse fill="none" stroke="black" cx="227" cy="-47" rx="18" ry="18"/>
</g>
<!-- 0&#45;&gt;1 -->
<g id="edge1" class="edge"><title>0&#45;&gt;1</title>
<path fill="none" stroke="black" d="M127.116,-47C145.964,-47 176.531,-47 198.696,-47"/>
<polygon fill="black" stroke="black" points="198.814,-50.5001 208.814,-47 198.814,-43.5001 198.814,-50.5001"/>
<text text-anchor="middle" x="168" y="-50.8" font-family="Times,serif" font-size="14.00">u0006</text>
</g>
<!-- 2 -->
<g id="node3" class="node"><title>2</title>
<ellipse fill="none" stroke="black" cx="345" cy="-47" rx="18" ry="18"/>
</g>
<!-- 1&#45;&gt;2 -->
<g id="edge2" class="edge"><title>1&#45;&gt;2</title>
<path fill="none" stroke="black" d="M245.116,-47C263.964,-47 294.531,-47 316.696,-47"/>
<polygon fill="black" stroke="black" points="316.814,-50.5001 326.814,-47 316.814,-43.5001 316.814,-50.5001"/>
<text text-anchor="middle" x="286" y="-50.8" font-family="Times,serif" font-size="14.00">u0005</text>
</g>
<!-- 3 -->
<g id="node4" class="node"><title>3</title>
<ellipse fill="none" stroke="black" cx="463" cy="-47" rx="18" ry="18"/>
</g>
<!-- 2&#45;&gt;3 -->
<g id="edge3" class="edge"><title>2&#45;&gt;3</title>
<path fill="none" stroke="black" d="M363.116,-47C381.964,-47 412.531,-47 434.696,-47"/>
<polygon fill="black" stroke="black" points="434.814,-50.5001 444.814,-47 434.814,-43.5001 434.814,-50.5001"/>
<text text-anchor="middle" x="404" y="-50.8" font-family="Times,serif" font-size="14.00">u0004</text>
</g>
<!-- 4 -->
<g id="node5" class="node"><title>4</title>
<ellipse fill="none" stroke="black" cx="581" cy="-47" rx="18" ry="18"/>
</g>
<!-- 3&#45;&gt;4 -->
<g id="edge4" class="edge"><title>3&#45;&gt;4</title>
<path fill="none" stroke="black" d="M481.116,-47C499.964,-47 530.531,-47 552.696,-47"/>
<polygon fill="black" stroke="black" points="552.814,-50.5001 562.814,-47 552.814,-43.5001 552.814,-50.5001"/>
<text text-anchor="middle" x="522" y="-50.8" font-family="Times,serif" font-size="14.00">u0003</text>
</g>
<!-- 5 -->
<g id="node6" class="node"><title>5</title>
<ellipse fill="none" stroke="black" cx="699" cy="-47" rx="18" ry="18"/>
</g>
<!-- 4&#45;&gt;5 -->
<g id="edge5" class="edge"><title>4&#45;&gt;5</title>
<path fill="none" stroke="black" d="M599.116,-47C617.964,-47 648.531,-47 670.696,-47"/>
<polygon fill="black" stroke="black" points="670.814,-50.5001 680.814,-47 670.814,-43.5001 670.814,-50.5001"/>
<text text-anchor="middle" x="640" y="-50.8" font-family="Times,serif" font-size="14.00">u0000</text>
</g>
<!-- 6 -->
<g id="node7" class="node"><title>6</title>
<ellipse fill="none" stroke="black" cx="817" cy="-47" rx="18" ry="18"/>
</g>
<!-- 5&#45;&gt;6 -->
<g id="edge6" class="edge"><title>5&#45;&gt;6</title>
<path fill="none" stroke="black" d="M717.116,-47C735.964,-47 766.531,-47 788.696,-47"/>
<polygon fill="black" stroke="black" points="788.814,-50.5001 798.814,-47 788.814,-43.5001 788.814,-50.5001"/>
<text text-anchor="middle" x="758" y="-50.8" font-family="Times,serif" font-size="14.00">u0001</text>
</g>
<!-- 7 -->
<g id="node8" class="node"><title>7</title>
<ellipse fill="none" stroke="black" cx="935" cy="-47" rx="18" ry="18"/>
</g>
<!-- 6&#45;&gt;7 -->
<g id="edge7" class="edge"><title>6&#45;&gt;7</title>
<path fill="none" stroke="black" d="M835.116,-47C853.964,-47 884.531,-47 906.696,-47"/>
<polygon fill="black" stroke="black" points="906.814,-50.5001 916.814,-47 906.814,-43.5001 906.814,-50.5001"/>
<text text-anchor="middle" x="876" y="-50.8" font-family="Times,serif" font-size="14.00">u0002</text>
</g>
<!-- 8 -->
<g id="node9" class="node"><title>8</title>
<ellipse fill="none" stroke="black" cx="1053" cy="-47" rx="18" ry="18"/>
</g>
<!-- 7&#45;&gt;8 -->
<g id="edge8" class="edge"><title>7&#45;&gt;8</title>
<path fill="none" stroke="black" d="M953.116,-47C971.964,-47 1002.53,-47 1024.7,-47"/>
<polygon fill="black" stroke="black" points="1024.81,-50.5001 1034.81,-47 1024.81,-43.5001 1024.81,-50.5001"/>
<text text-anchor="middle" x="994" y="-50.8" font-family="Times,serif" font-size="14.00">u0007</text>
</g>
<!-- 9 -->
<g id="node10" class="node"><title>9</title>
<ellipse fill="none" stroke="black" cx="1171" cy="-47" rx="18" ry="18"/>
</g>
<!-- 8&#45;&gt;9 -->
<g id="edge9" class="edge"><title>8&#45;&gt;9</title>
<path fill="none" stroke="black" d="M1071.12,-47C1089.96,-47 1120.53,-47 1142.7,-47"/>
<polygon fill="black" stroke="black" points="1142.81,-50.5001 1152.81,-47 1142.81,-43.5001 1142.81,-50.5001"/>
<text text-anchor="middle" x="1112" y="-50.8" font-family="Times,serif" font-size="14.00">u0008</text>
</g>
<!-- 10 -->
<g id="node11" class="node"><title>10</title>
<ellipse fill="none" stroke="black" cx="1348" cy="-71" rx="18" ry="18"/>
</g>
<!-- 9&#45;&gt;10 -->
<g id="edge10" class="edge"><title>9&#45;&gt;10</title>
<path fill="none" stroke="black" d="M1189.1,-49.3449C1219.63,-53.5317 1283.72,-62.3215 1320.16,-67.3197"/>
<polygon fill="black" stroke="black" points="1319.71,-70.7896 1330.09,-68.6809 1320.66,-63.8546 1319.71,-70.7896"/>
<text text-anchor="middle" x="1230" y="-60.8" font-family="Times,serif" font-size="14.00">u000b</text>
</g>
<!-- 11 -->
<g id="node14" class="node"><title>11</title>
<ellipse fill="none" stroke="black" cx="1289" cy="-20" rx="18" ry="18"/>
</g>
<!-- 9&#45;&gt;11 -->
<g id="edge11" class="edge"><title>9&#45;&gt;11</title>
<path fill="none" stroke="black" d="M1187.77,-39.8283C1193.7,-37.3634 1200.57,-34.7794 1207,-33 1224.62,-28.1263 1244.94,-24.8715 1260.82,-22.8375"/>
<polygon fill="black" stroke="black" points="1261.5,-26.2811 1271.01,-21.6196 1260.67,-19.3306 1261.5,-26.2811"/>
<text text-anchor="middle" x="1230" y="-36.8" font-family="Times,serif" font-size="14.00">u000a</text>
</g>
<!-- 12 -->
<g id="node12" class="node"><title>12</title>
<ellipse fill="none" stroke="black" cx="1534" cy="-51" rx="18" ry="18"/>
</g>
<!-- 10&#45;&gt;12 -->
<g id="edge12" class="edge"><title>10&#45;&gt;12</title>
<path fill="none" stroke="black" d="M1366.05,-70.1259C1393.81,-68.5656 1450.45,-64.8085 1498,-58 1500.72,-57.61 1503.56,-57.1447 1506.38,-56.6419"/>
<polygon fill="black" stroke="black" points="1507.17,-60.053 1516.33,-54.7243 1505.85,-53.1794 1507.17,-60.053"/>
<text text-anchor="middle" x="1412" y="-71.8" font-family="Times,serif" font-size="14.00">u000b</text>
</g>
<!-- 14 -->
<g id="node13" class="node"><title>14</title>
<ellipse fill="none" stroke="black" cx="1656" cy="-51" rx="18" ry="18"/>
<ellipse fill="none" stroke="black" cx="1656" cy="-51" rx="22" ry="22"/>
</g>
<!-- 12&#45;&gt;14 -->
<g id="edge13" class="edge"><title>12&#45;&gt;14</title>
<path fill="none" stroke="black" d="M1552.19,-51C1570.77,-51 1600.76,-51 1623.57,-51"/>
<polygon fill="black" stroke="black" points="1623.79,-54.5001 1633.79,-51 1623.79,-47.5001 1623.79,-54.5001"/>
<text text-anchor="middle" x="1593" y="-54.8" font-family="Times,serif" font-size="14.00">u0009</text>
</g>
<!-- 13 -->
<g id="node15" class="node"><title>13</title>
<ellipse fill="none" stroke="black" cx="1412" cy="-18" rx="18" ry="18"/>
</g>
<!-- 11&#45;&gt;13 -->
<g id="edge14" class="edge"><title>11&#45;&gt;13</title>
<path fill="none" stroke="black" d="M1307.08,-19.7177C1326.96,-19.389 1360.08,-18.8417 1383.58,-18.4533"/>
<polygon fill="black" stroke="black" points="1383.67,-21.9522 1393.62,-18.2873 1383.56,-14.9532 1383.67,-21.9522"/>
<text text-anchor="middle" x="1348" y="-23.8" font-family="Times,serif" font-size="14.00">u000b</text>
</g>
<!-- 13&#45;&gt;12 -->
<g id="edge15" class="edge"><title>13&#45;&gt;12</title>
<path fill="none" stroke="black" d="M1429.69,-22.5885C1449.66,-28.0805 1483.34,-37.3425 1506.79,-43.7929"/>
<polygon fill="black" stroke="black" points="1505.89,-47.1735 1516.46,-46.4505 1507.74,-40.4241 1505.89,-47.1735"/>
<text text-anchor="middle" x="1475.5" y="-45.8" font-family="Times,serif" font-size="14.00">u000a</text>
</g>
<!-- initial -->
<g id="node16" class="node"><title>initial</title>
</g>
<!-- initial&#45;&gt;0 -->
<g id="edge16" class="edge"><title>initial&#45;&gt;0</title>
<path fill="none" stroke="black" d="M54.195,-47C62.6538,-47 72.0513,-47 80.5951,-47"/>
<polygon fill="black" stroke="black" points="80.8257,-50.5001 90.8257,-47 80.8257,-43.5001 80.8257,-50.5001"/>
</g>
</g>
</svg>
