<svg width="3589px" height="631px"
 viewBox="0.00 0.00 2692.00 473.00" xmlns="http://www.w3.org/2000/svg" xmlns:xlink="http://www.w3.org/1999/xlink">
<g id="graph0" class="graph" transform="scale(1.000022500562514 1.000022500562514) rotate(0) translate(4 469)">
<title>Automaton</title>
<polygon fill="white" stroke="none" points="-4,4 -4,-469 2688,-469 2688,4 -4,4"/>
<!-- 0 -->
<g id="node1" class="node"><title>0</title>
<ellipse fill="none" stroke="black" cx="109" cy="-211" rx="18" ry="18"/>
</g>
<!-- 1 -->
<g id="node2" class="node"><title>1</title>
<ellipse fill="none" stroke="black" cx="227" cy="-211" rx="18" ry="18"/>
</g>
<!-- 0&#45;&gt;1 -->
<g id="edge1" class="edge"><title>0&#45;&gt;1</title>
<path fill="none" stroke="black" d="M127.116,-211C145.964,-211 176.531,-211 198.696,-211"/>
<polygon fill="black" stroke="black" points="198.814,-214.5 208.814,-211 198.814,-207.5 198.814,-214.5"/>
<text text-anchor="middle" x="168" y="-214.8" font-family="Times,serif" font-size="14.00">u0005</text>
</g>
<!-- 2 -->
<g id="node3" class="node"><title>2</title>
<ellipse fill="none" stroke="black" cx="344" cy="-211" rx="18" ry="18"/>
</g>
<!-- 1&#45;&gt;2 -->
<g id="edge2" class="edge"><title>1&#45;&gt;2</title>
<path fill="none" stroke="black" d="M245.466,-211C264.064,-211 293.756,-211 315.499,-211"/>
<polygon fill="black" stroke="black" points="315.746,-214.5 325.746,-211 315.746,-207.5 315.746,-214.5"/>
<text text-anchor="middle" x="285.5" y="-214.8" font-family="Times,serif" font-size="14.00">u000c</text>
</g>
<!-- 3 -->
<g id="node4" class="node"><title>3</title>
<ellipse fill="none" stroke="black" cx="462" cy="-211" rx="18" ry="18"/>
</g>
<!-- 2&#45;&gt;3 -->
<g id="edge3" class="edge"><title>2&#45;&gt;3</title>
<path fill="none" stroke="black" d="M362.116,-211C380.964,-211 411.531,-211 433.696,-211"/>
<polygon fill="black" stroke="black" points="433.814,-214.5 443.814,-211 433.814,-207.5 433.814,-214.5"/>
<text text-anchor="middle" x="403" y="-214.8" font-family="Times,serif" font-size="14.00">u0001</text>
</g>
<!-- 4 -->
<g id="node5" class="node"><title>4</title>
<ellipse fill="none" stroke="black" cx="580" cy="-211" rx="18" ry="18"/>
</g>
<!-- 3&#45;&gt;4 -->
<g id="edge4" class="edge"><title>3&#45;&gt;4</title>
<path fill="none" stroke="black" d="M480.116,-211C498.964,-211 529.531,-211 551.696,-211"/>
<polygon fill="black" stroke="black" points="551.814,-214.5 561.814,-211 551.814,-207.5 551.814,-214.5"/>
<text text-anchor="middle" x="521" y="-214.8" font-family="Times,serif" font-size="14.00">u0008</text>
</g>
<!-- 5 -->
<g id="node6" class="node"><title>5</title>
<ellipse fill="none" stroke="black" cx="698" cy="-211" rx="18" ry="18"/>
</g>
<!-- 4&#45;&gt;5 -->
<g id="edge5" class="edge"><title>4&#45;&gt;5</title>
<path fill="none" stroke="black" d="M598.116,-211C616.964,-211 647.531,-211 669.696,-211"/>
<polygon fill="black" stroke="black" points="669.814,-214.5 679.814,-211 669.814,-207.5 669.814,-214.5"/>
<text text-anchor="middle" x="639" y="-214.8" font-family="Times,serif" font-size="14.00">u0009</text>
</g>
<!-- 6 -->
<g id="node7" class="node"><title>6</title>
<ellipse fill="none" stroke="black" cx="1412" cy="-339" rx="18" ry="18"/>
</g>
<!-- 5&#45;&gt;6 -->
<g id="edge6" class="edge"><title>5&#45;&gt;6</title>
<path fill="none" stroke="black" d="M712.237,-222.535C732.76,-239.19 774.161,-268 815,-268 815,-268 815,-268 1295,-268 1333.9,-268 1370.78,-297.411 1392.13,-318.374"/>
<polygon fill="black" stroke="black" points="1389.76,-320.96 1399.26,-325.645 1394.75,-316.057 1389.76,-320.96"/>
<text text-anchor="middle" x="1057" y="-271.8" font-family="Times,serif" font-size="14.00">u0003</text>
</g>
<!-- 7 -->
<g id="node30" class="node"><title>7</title>
<ellipse fill="none" stroke="black" cx="1294" cy="-211" rx="18" ry="18"/>
</g>
<!-- 5&#45;&gt;7 -->
<g id="edge7" class="edge"><title>5&#45;&gt;7</title>
<path fill="none" stroke="black" d="M716.295,-211C738.962,-211 779.958,-211 815,-211 815,-211 815,-211 1181,-211 1209.91,-211 1243.01,-211 1265.69,-211"/>
<polygon fill="black" stroke="black" points="1265.92,-214.5 1275.92,-211 1265.92,-207.5 1265.92,-214.5"/>
<text text-anchor="middle" x="993" y="-214.8" font-family="Times,serif" font-size="14.00">u0002</text>
</g>
<!-- 8 -->
<g id="node46" class="node"><title>8</title>
<ellipse fill="none" stroke="black" cx="816" cy="-126" rx="18" ry="18"/>
</g>
<!-- 5&#45;&gt;8 -->
<g id="edge8" class="edge"><title>5&#45;&gt;8</title>
<path fill="none" stroke="black" d="M712.077,-199.707C718.562,-194.224 726.578,-187.623 734,-182 753.085,-167.539 775.533,-152.139 791.951,-141.156"/>
<polygon fill="black" stroke="black" points="794.004,-143.994 800.392,-135.543 790.127,-138.165 794.004,-143.994"/>
<text text-anchor="middle" x="757" y="-185.8" font-family="Times,serif" font-size="14.00">u0000</text>
</g>
<!-- 9 -->
<g id="node8" class="node"><title>9</title>
<ellipse fill="none" stroke="black" cx="1535" cy="-285" rx="18" ry="18"/>
</g>
<!-- 6&#45;&gt;9 -->
<g id="edge9" class="edge"><title>6&#45;&gt;9</title>
<path fill="none" stroke="black" d="M1428.14,-330.303C1434.24,-326.931 1441.38,-323.134 1448,-320 1467.98,-310.549 1491.22,-301.183 1508.5,-294.521"/>
<polygon fill="black" stroke="black" points="1509.82,-297.764 1517.92,-290.931 1507.33,-291.223 1509.82,-297.764"/>
<text text-anchor="middle" x="1471" y="-323.8" font-family="Times,serif" font-size="14.00">u000d</text>
</g>
<!-- 10 -->
<g id="node13" class="node"><title>10</title>
<ellipse fill="none" stroke="black" cx="1535" cy="-339" rx="18" ry="18"/>
</g>
<!-- 6&#45;&gt;10 -->
<g id="edge10" class="edge"><title>6&#45;&gt;10</title>
<path fill="none" stroke="black" d="M1430.08,-339C1449.96,-339 1483.08,-339 1506.58,-339"/>
<polygon fill="black" stroke="black" points="1506.62,-342.5 1516.62,-339 1506.62,-335.5 1506.62,-342.5"/>
<text text-anchor="middle" x="1471" y="-342.8" font-family="Times,serif" font-size="14.00">u0003</text>
</g>
<!-- 11 -->
<g id="node21" class="node"><title>11</title>
<ellipse fill="none" stroke="black" cx="1535" cy="-447" rx="18" ry="18"/>
</g>
<!-- 6&#45;&gt;11 -->
<g id="edge11" class="edge"><title>6&#45;&gt;11</title>
<path fill="none" stroke="black" d="M1420.27,-355.192C1426.37,-367.468 1436,-384.186 1448,-396 1465.72,-413.448 1490.54,-427.338 1508.96,-436.189"/>
<polygon fill="black" stroke="black" points="1507.65,-439.44 1518.2,-440.465 1510.59,-433.088 1507.65,-439.44"/>
<text text-anchor="middle" x="1471" y="-430.8" font-family="Times,serif" font-size="14.00">u0002</text>
</g>
<!-- 12 -->
<g id="node26" class="node"><title>12</title>
<ellipse fill="none" stroke="black" cx="1535" cy="-393" rx="18" ry="18"/>
</g>
<!-- 6&#45;&gt;12 -->
<g id="edge12" class="edge"><title>6&#45;&gt;12</title>
<path fill="none" stroke="black" d="M1428.14,-347.697C1434.24,-351.069 1441.38,-354.866 1448,-358 1467.98,-367.451 1491.22,-376.817 1508.5,-383.479"/>
<polygon fill="black" stroke="black" points="1507.33,-386.777 1517.92,-387.069 1509.82,-380.236 1507.33,-386.777"/>
<text text-anchor="middle" x="1471" y="-380.8" font-family="Times,serif" font-size="14.00">u0000</text>
</g>
<!-- 17 -->
<g id="node9" class="node"><title>17</title>
<ellipse fill="none" stroke="black" cx="1727" cy="-285" rx="18" ry="18"/>
</g>
<!-- 9&#45;&gt;17 -->
<g id="edge13" class="edge"><title>9&#45;&gt;17</title>
<path fill="none" stroke="black" d="M1553.2,-285C1586.33,-285 1659.25,-285 1698.95,-285"/>
<polygon fill="black" stroke="black" points="1698.98,-288.5 1708.98,-285 1698.98,-281.5 1698.98,-288.5"/>
<text text-anchor="middle" x="1599" y="-288.8" font-family="Times,serif" font-size="14.00">u0011</text>
</g>
<!-- 25 -->
<g id="node10" class="node"><title>25</title>
<ellipse fill="none" stroke="black" cx="2417" cy="-227" rx="18" ry="18"/>
</g>
<!-- 17&#45;&gt;25 -->
<g id="edge14" class="edge"><title>17&#45;&gt;25</title>
<path fill="none" stroke="black" d="M1745.12,-285C1769.36,-285 1815.06,-285 1854,-285 1854,-285 1854,-285 2295,-285 2333.01,-285 2371.72,-261.441 2394.8,-244.353"/>
<polygon fill="black" stroke="black" points="2397.04,-247.046 2402.84,-238.183 2392.78,-241.491 2397.04,-247.046"/>
<text text-anchor="middle" x="2047" y="-288.8" font-family="Times,serif" font-size="14.00">u000f</text>
</g>
<!-- 33 -->
<g id="node11" class="node"><title>33</title>
<ellipse fill="none" stroke="black" cx="2540" cy="-180" rx="18" ry="18"/>
</g>
<!-- 25&#45;&gt;33 -->
<g id="edge15" class="edge"><title>25&#45;&gt;33</title>
<path fill="none" stroke="black" d="M2434.19,-220.864C2451.5,-214.288 2479.73,-203.51 2504,-194 2507.11,-192.782 2510.37,-191.494 2513.59,-190.212"/>
<polygon fill="black" stroke="black" points="2515,-193.419 2522.99,-186.46 2512.4,-186.918 2515,-193.419"/>
<text text-anchor="middle" x="2481" y="-214.8" font-family="Times,serif" font-size="14.00">u000e</text>
</g>
<!-- 42 -->
<g id="node12" class="node"><title>42</title>
<ellipse fill="none" stroke="black" cx="2662" cy="-180" rx="18" ry="18"/>
<ellipse fill="none" stroke="black" cx="2662" cy="-180" rx="22" ry="22"/>
</g>
<!-- 33&#45;&gt;42 -->
<g id="edge16" class="edge"><title>33&#45;&gt;42</title>
<path fill="none" stroke="black" d="M2558.19,-180C2576.77,-180 2606.76,-180 2629.57,-180"/>
<polygon fill="black" stroke="black" points="2629.79,-183.5 2639.79,-180 2629.79,-176.5 2629.79,-183.5"/>
<text text-anchor="middle" x="2599" y="-183.8" font-family="Times,serif" font-size="14.00">u000b</text>
</g>
<!-- 18 -->
<g id="node14" class="node"><title>18</title>
<ellipse fill="none" stroke="black" cx="1663" cy="-339" rx="18" ry="18"/>
</g>
<!-- 10&#45;&gt;18 -->
<g id="edge17" class="edge"><title>10&#45;&gt;18</title>
<path fill="none" stroke="black" d="M1553.26,-339C1574.27,-339 1610.03,-339 1634.77,-339"/>
<polygon fill="black" stroke="black" points="1634.95,-342.5 1644.95,-339 1634.95,-335.5 1634.95,-342.5"/>
<text text-anchor="middle" x="1599" y="-342.8" font-family="Times,serif" font-size="14.00">u000d</text>
</g>
<!-- 26 -->
<g id="node15" class="node"><title>26</title>
<ellipse fill="none" stroke="black" cx="1791" cy="-339" rx="18" ry="18"/>
</g>
<!-- 18&#45;&gt;26 -->
<g id="edge18" class="edge"><title>18&#45;&gt;26</title>
<path fill="none" stroke="black" d="M1681.26,-339C1702.27,-339 1738.03,-339 1762.77,-339"/>
<polygon fill="black" stroke="black" points="1762.95,-342.5 1772.95,-339 1762.95,-335.5 1762.95,-342.5"/>
<text text-anchor="middle" x="1727" y="-342.8" font-family="Times,serif" font-size="14.00">u0011</text>
</g>
<!-- 34 -->
<g id="node16" class="node"><title>34</title>
<ellipse fill="none" stroke="black" cx="1919" cy="-339" rx="18" ry="18"/>
</g>
<!-- 26&#45;&gt;34 -->
<g id="edge19" class="edge"><title>26&#45;&gt;34</title>
<path fill="none" stroke="black" d="M1809.26,-339C1830.27,-339 1866.03,-339 1890.77,-339"/>
<polygon fill="black" stroke="black" points="1890.95,-342.5 1900.95,-339 1890.95,-335.5 1890.95,-342.5"/>
<text text-anchor="middle" x="1855" y="-342.8" font-family="Times,serif" font-size="14.00">u000f</text>
</g>
<!-- 43 -->
<g id="node17" class="node"><title>43</title>
<ellipse fill="none" stroke="black" cx="2047" cy="-339" rx="18" ry="18"/>
</g>
<!-- 34&#45;&gt;43 -->
<g id="edge20" class="edge"><title>34&#45;&gt;43</title>
<path fill="none" stroke="black" d="M1937.26,-339C1958.27,-339 1994.03,-339 2018.77,-339"/>
<polygon fill="black" stroke="black" points="2018.95,-342.5 2028.95,-339 2018.95,-335.5 2018.95,-342.5"/>
<text text-anchor="middle" x="1983" y="-342.8" font-family="Times,serif" font-size="14.00">u000e</text>
</g>
<!-- 50 -->
<g id="node18" class="node"><title>50</title>
<ellipse fill="none" stroke="black" cx="2173" cy="-339" rx="18" ry="18"/>
</g>
<!-- 43&#45;&gt;50 -->
<g id="edge21" class="edge"><title>43&#45;&gt;50</title>
<path fill="none" stroke="black" d="M2065.24,-339C2085.79,-339 2120.37,-339 2144.59,-339"/>
<polygon fill="black" stroke="black" points="2144.9,-342.5 2154.9,-339 2144.9,-335.5 2144.9,-342.5"/>
<text text-anchor="middle" x="2111" y="-342.8" font-family="Times,serif" font-size="14.00">u0006</text>
</g>
<!-- 57 -->
<g id="node19" class="node"><title>57</title>
<ellipse fill="none" stroke="black" cx="2294" cy="-339" rx="18" ry="18"/>
</g>
<!-- 50&#45;&gt;57 -->
<g id="edge22" class="edge"><title>50&#45;&gt;57</title>
<path fill="none" stroke="black" d="M2191.05,-339C2210.58,-339 2242.84,-339 2265.84,-339"/>
<polygon fill="black" stroke="black" points="2265.98,-342.5 2275.98,-339 2265.98,-335.5 2265.98,-342.5"/>
<text text-anchor="middle" x="2235" y="-342.8" font-family="Times,serif" font-size="14.00">u0004</text>
</g>
<!-- 51 -->
<g id="node20" class="node"><title>51</title>
<ellipse fill="none" stroke="black" cx="2417" cy="-339" rx="18" ry="18"/>
</g>
<!-- 57&#45;&gt;51 -->
<g id="edge23" class="edge"><title>57&#45;&gt;51</title>
<path fill="none" stroke="black" d="M2312.08,-339C2331.96,-339 2365.08,-339 2388.58,-339"/>
<polygon fill="black" stroke="black" points="2388.62,-342.5 2398.62,-339 2388.62,-335.5 2388.62,-342.5"/>
<text text-anchor="middle" x="2353" y="-342.8" font-family="Times,serif" font-size="14.00">u0010</text>
</g>
<!-- 51&#45;&gt;33 -->
<g id="edge24" class="edge"><title>51&#45;&gt;33</title>
<path fill="none" stroke="black" d="M2429.12,-325.43C2445.76,-305.003 2477.97,-265.011 2504,-230 2510.48,-221.291 2517.37,-211.547 2523.32,-202.991"/>
<polygon fill="black" stroke="black" points="2526.31,-204.816 2529.11,-194.597 2520.55,-200.84 2526.31,-204.816"/>
<text text-anchor="middle" x="2481" y="-289.8" font-family="Times,serif" font-size="14.00">u0004</text>
</g>
<!-- 19 -->
<g id="node22" class="node"><title>19</title>
<ellipse fill="none" stroke="black" cx="1663" cy="-447" rx="18" ry="18"/>
</g>
<!-- 11&#45;&gt;19 -->
<g id="edge25" class="edge"><title>11&#45;&gt;19</title>
<path fill="none" stroke="black" d="M1553.26,-447C1574.27,-447 1610.03,-447 1634.77,-447"/>
<polygon fill="black" stroke="black" points="1634.95,-450.5 1644.95,-447 1634.95,-443.5 1634.95,-450.5"/>
<text text-anchor="middle" x="1599" y="-450.8" font-family="Times,serif" font-size="14.00">u0002</text>
</g>
<!-- 27 -->
<g id="node23" class="node"><title>27</title>
<ellipse fill="none" stroke="black" cx="1791" cy="-447" rx="18" ry="18"/>
</g>
<!-- 19&#45;&gt;27 -->
<g id="edge26" class="edge"><title>19&#45;&gt;27</title>
<path fill="none" stroke="black" d="M1681.26,-447C1702.27,-447 1738.03,-447 1762.77,-447"/>
<polygon fill="black" stroke="black" points="1762.95,-450.5 1772.95,-447 1762.95,-443.5 1762.95,-450.5"/>
<text text-anchor="middle" x="1727" y="-450.8" font-family="Times,serif" font-size="14.00">u000d</text>
</g>
<!-- 35 -->
<g id="node24" class="node"><title>35</title>
<ellipse fill="none" stroke="black" cx="1919" cy="-447" rx="18" ry="18"/>
</g>
<!-- 27&#45;&gt;35 -->
<g id="edge27" class="edge"><title>27&#45;&gt;35</title>
<path fill="none" stroke="black" d="M1809.26,-447C1830.27,-447 1866.03,-447 1890.77,-447"/>
<polygon fill="black" stroke="black" points="1890.95,-450.5 1900.95,-447 1890.95,-443.5 1890.95,-450.5"/>
<text text-anchor="middle" x="1855" y="-450.8" font-family="Times,serif" font-size="14.00">u0011</text>
</g>
<!-- 44 -->
<g id="node25" class="node"><title>44</title>
<ellipse fill="none" stroke="black" cx="2047" cy="-393" rx="18" ry="18"/>
</g>
<!-- 35&#45;&gt;44 -->
<g id="edge28" class="edge"><title>35&#45;&gt;44</title>
<path fill="none" stroke="black" d="M1935.96,-440.818C1953.32,-434.025 1981.81,-422.658 2006,-412 2010.97,-409.809 2016.25,-407.379 2021.28,-405.01"/>
<polygon fill="black" stroke="black" points="2023,-408.069 2030.52,-400.606 2019.99,-401.751 2023,-408.069"/>
<text text-anchor="middle" x="1983" y="-433.8" font-family="Times,serif" font-size="14.00">u000f</text>
</g>
<!-- 44&#45;&gt;51 -->
<g id="edge29" class="edge"><title>44&#45;&gt;51</title>
<path fill="none" stroke="black" d="M2065,-391.395C2106.97,-387.403 2218.84,-376.585 2312,-366 2340.48,-362.764 2348.48,-366.029 2376,-358 2381.22,-356.478 2386.6,-354.348 2391.67,-352.061"/>
<polygon fill="black" stroke="black" points="2393.41,-355.106 2400.88,-347.591 2390.35,-348.808 2393.41,-355.106"/>
<text text-anchor="middle" x="2235" y="-379.8" font-family="Times,serif" font-size="14.00">u0004</text>
</g>
<!-- 20 -->
<g id="node27" class="node"><title>20</title>
<ellipse fill="none" stroke="black" cx="1663" cy="-393" rx="18" ry="18"/>
</g>
<!-- 12&#45;&gt;20 -->
<g id="edge30" class="edge"><title>12&#45;&gt;20</title>
<path fill="none" stroke="black" d="M1553.26,-393C1574.27,-393 1610.03,-393 1634.77,-393"/>
<polygon fill="black" stroke="black" points="1634.95,-396.5 1644.95,-393 1634.95,-389.5 1634.95,-396.5"/>
<text text-anchor="middle" x="1599" y="-396.8" font-family="Times,serif" font-size="14.00">u000d</text>
</g>
<!-- 28 -->
<g id="node28" class="node"><title>28</title>
<ellipse fill="none" stroke="black" cx="1791" cy="-393" rx="18" ry="18"/>
</g>
<!-- 20&#45;&gt;28 -->
<g id="edge31" class="edge"><title>20&#45;&gt;28</title>
<path fill="none" stroke="black" d="M1681.26,-393C1702.27,-393 1738.03,-393 1762.77,-393"/>
<polygon fill="black" stroke="black" points="1762.95,-396.5 1772.95,-393 1762.95,-389.5 1762.95,-396.5"/>
<text text-anchor="middle" x="1727" y="-396.8" font-family="Times,serif" font-size="14.00">u0011</text>
</g>
<!-- 36 -->
<g id="node29" class="node"><title>36</title>
<ellipse fill="none" stroke="black" cx="1919" cy="-393" rx="18" ry="18"/>
</g>
<!-- 28&#45;&gt;36 -->
<g id="edge32" class="edge"><title>28&#45;&gt;36</title>
<path fill="none" stroke="black" d="M1809.26,-393C1830.27,-393 1866.03,-393 1890.77,-393"/>
<polygon fill="black" stroke="black" points="1890.95,-396.5 1900.95,-393 1890.95,-389.5 1890.95,-396.5"/>
<text text-anchor="middle" x="1855" y="-396.8" font-family="Times,serif" font-size="14.00">u000f</text>
</g>
<!-- 36&#45;&gt;44 -->
<g id="edge33" class="edge"><title>36&#45;&gt;44</title>
<path fill="none" stroke="black" d="M1937.26,-393C1958.27,-393 1994.03,-393 2018.77,-393"/>
<polygon fill="black" stroke="black" points="2018.95,-396.5 2028.95,-393 2018.95,-389.5 2018.95,-396.5"/>
<text text-anchor="middle" x="1983" y="-396.8" font-family="Times,serif" font-size="14.00">u0010</text>
</g>
<!-- 13 -->
<g id="node31" class="node"><title>13</title>
<ellipse fill="none" stroke="black" cx="1412" cy="-228" rx="18" ry="18"/>
</g>
<!-- 7&#45;&gt;13 -->
<g id="edge34" class="edge"><title>7&#45;&gt;13</title>
<path fill="none" stroke="black" d="M1312.12,-213.508C1330.96,-216.271 1361.53,-220.75 1383.7,-223.998"/>
<polygon fill="black" stroke="black" points="1383.41,-227.494 1393.81,-225.481 1384.43,-220.568 1383.41,-227.494"/>
<text text-anchor="middle" x="1353" y="-225.8" font-family="Times,serif" font-size="14.00">u000d</text>
</g>
<!-- 14 -->
<g id="node39" class="node"><title>14</title>
<ellipse fill="none" stroke="black" cx="1471" cy="-180" rx="18" ry="18"/>
</g>
<!-- 7&#45;&gt;14 -->
<g id="edge35" class="edge"><title>7&#45;&gt;14</title>
<path fill="none" stroke="black" d="M1310.74,-203.694C1316.66,-201.215 1323.53,-198.656 1330,-197 1368.49,-187.145 1414.43,-182.953 1442.92,-181.205"/>
<polygon fill="black" stroke="black" points="1443.14,-184.698 1452.93,-180.647 1442.75,-177.709 1443.14,-184.698"/>
<text text-anchor="middle" x="1353" y="-200.8" font-family="Times,serif" font-size="14.00">u0000</text>
</g>
<!-- 21 -->
<g id="node32" class="node"><title>21</title>
<ellipse fill="none" stroke="black" cx="1535" cy="-231" rx="18" ry="18"/>
</g>
<!-- 13&#45;&gt;21 -->
<g id="edge36" class="edge"><title>13&#45;&gt;21</title>
<path fill="none" stroke="black" d="M1430.08,-228.423C1449.96,-228.916 1483.08,-229.737 1506.58,-230.32"/>
<polygon fill="black" stroke="black" points="1506.53,-233.82 1516.62,-230.569 1506.71,-226.822 1506.53,-233.82"/>
<text text-anchor="middle" x="1471" y="-232.8" font-family="Times,serif" font-size="14.00">u0011</text>
</g>
<!-- 29 -->
<g id="node33" class="node"><title>29</title>
<ellipse fill="none" stroke="black" cx="1663" cy="-231" rx="18" ry="18"/>
</g>
<!-- 21&#45;&gt;29 -->
<g id="edge37" class="edge"><title>21&#45;&gt;29</title>
<path fill="none" stroke="black" d="M1553.26,-231C1574.27,-231 1610.03,-231 1634.77,-231"/>
<polygon fill="black" stroke="black" points="1634.95,-234.5 1644.95,-231 1634.95,-227.5 1634.95,-234.5"/>
<text text-anchor="middle" x="1599" y="-234.8" font-family="Times,serif" font-size="14.00">u000f</text>
</g>
<!-- 37 -->
<g id="node34" class="node"><title>37</title>
<ellipse fill="none" stroke="black" cx="1791" cy="-231" rx="18" ry="18"/>
</g>
<!-- 29&#45;&gt;37 -->
<g id="edge38" class="edge"><title>29&#45;&gt;37</title>
<path fill="none" stroke="black" d="M1681.26,-231C1702.27,-231 1738.03,-231 1762.77,-231"/>
<polygon fill="black" stroke="black" points="1762.95,-234.5 1772.95,-231 1762.95,-227.5 1762.95,-234.5"/>
<text text-anchor="middle" x="1727" y="-234.8" font-family="Times,serif" font-size="14.00">u0004</text>
</g>
<!-- 45 -->
<g id="node35" class="node"><title>45</title>
<ellipse fill="none" stroke="black" cx="1919" cy="-231" rx="18" ry="18"/>
</g>
<!-- 37&#45;&gt;45 -->
<g id="edge39" class="edge"><title>37&#45;&gt;45</title>
<path fill="none" stroke="black" d="M1809.26,-231C1830.27,-231 1866.03,-231 1890.77,-231"/>
<polygon fill="black" stroke="black" points="1890.95,-234.5 1900.95,-231 1890.95,-227.5 1890.95,-234.5"/>
<text text-anchor="middle" x="1855" y="-234.8" font-family="Times,serif" font-size="14.00">u000e</text>
</g>
<!-- 52 -->
<g id="node36" class="node"><title>52</title>
<ellipse fill="none" stroke="black" cx="2047" cy="-231" rx="18" ry="18"/>
</g>
<!-- 45&#45;&gt;52 -->
<g id="edge40" class="edge"><title>45&#45;&gt;52</title>
<path fill="none" stroke="black" d="M1937.26,-231C1958.27,-231 1994.03,-231 2018.77,-231"/>
<polygon fill="black" stroke="black" points="2018.95,-234.5 2028.95,-231 2018.95,-227.5 2018.95,-234.5"/>
<text text-anchor="middle" x="1983" y="-234.8" font-family="Times,serif" font-size="14.00">u000a</text>
</g>
<!-- 58 -->
<g id="node37" class="node"><title>58</title>
<ellipse fill="none" stroke="black" cx="2173" cy="-231" rx="18" ry="18"/>
</g>
<!-- 52&#45;&gt;58 -->
<g id="edge41" class="edge"><title>52&#45;&gt;58</title>
<path fill="none" stroke="black" d="M2065.24,-231C2085.79,-231 2120.37,-231 2144.59,-231"/>
<polygon fill="black" stroke="black" points="2144.9,-234.5 2154.9,-231 2144.9,-227.5 2144.9,-234.5"/>
<text text-anchor="middle" x="2111" y="-234.8" font-family="Times,serif" font-size="14.00">u0010</text>
</g>
<!-- 63 -->
<g id="node38" class="node"><title>63</title>
<ellipse fill="none" stroke="black" cx="2294" cy="-228" rx="18" ry="18"/>
</g>
<!-- 58&#45;&gt;63 -->
<g id="edge42" class="edge"><title>58&#45;&gt;63</title>
<path fill="none" stroke="black" d="M2191.05,-230.57C2210.58,-230.078 2242.84,-229.265 2265.84,-228.685"/>
<polygon fill="black" stroke="black" points="2266.07,-232.18 2275.98,-228.429 2265.9,-225.182 2266.07,-232.18"/>
<text text-anchor="middle" x="2235" y="-233.8" font-family="Times,serif" font-size="14.00">u000e</text>
</g>
<!-- 63&#45;&gt;25 -->
<g id="edge43" class="edge"><title>63&#45;&gt;25</title>
<path fill="none" stroke="black" d="M2312.08,-227.859C2331.96,-227.695 2365.08,-227.421 2388.58,-227.227"/>
<polygon fill="black" stroke="black" points="2388.64,-230.726 2398.62,-227.144 2388.59,-223.727 2388.64,-230.726"/>
<text text-anchor="middle" x="2353" y="-230.8" font-family="Times,serif" font-size="14.00">u0006</text>
</g>
<!-- 22 -->
<g id="node40" class="node"><title>22</title>
<ellipse fill="none" stroke="black" cx="1599" cy="-180" rx="18" ry="18"/>
</g>
<!-- 14&#45;&gt;22 -->
<g id="edge44" class="edge"><title>14&#45;&gt;22</title>
<path fill="none" stroke="black" d="M1489.26,-180C1510.27,-180 1546.03,-180 1570.77,-180"/>
<polygon fill="black" stroke="black" points="1570.95,-183.5 1580.95,-180 1570.95,-176.5 1570.95,-183.5"/>
<text text-anchor="middle" x="1535" y="-183.8" font-family="Times,serif" font-size="14.00">u0002</text>
</g>
<!-- 30 -->
<g id="node41" class="node"><title>30</title>
<ellipse fill="none" stroke="black" cx="1727" cy="-180" rx="18" ry="18"/>
</g>
<!-- 22&#45;&gt;30 -->
<g id="edge45" class="edge"><title>22&#45;&gt;30</title>
<path fill="none" stroke="black" d="M1617.26,-180C1638.27,-180 1674.03,-180 1698.77,-180"/>
<polygon fill="black" stroke="black" points="1698.95,-183.5 1708.95,-180 1698.95,-176.5 1698.95,-183.5"/>
<text text-anchor="middle" x="1663" y="-183.8" font-family="Times,serif" font-size="14.00">u0000</text>
</g>
<!-- 38 -->
<g id="node42" class="node"><title>38</title>
<ellipse fill="none" stroke="black" cx="1855" cy="-180" rx="18" ry="18"/>
</g>
<!-- 30&#45;&gt;38 -->
<g id="edge46" class="edge"><title>30&#45;&gt;38</title>
<path fill="none" stroke="black" d="M1745.26,-180C1766.27,-180 1802.03,-180 1826.77,-180"/>
<polygon fill="black" stroke="black" points="1826.95,-183.5 1836.95,-180 1826.95,-176.5 1826.95,-183.5"/>
<text text-anchor="middle" x="1791" y="-183.8" font-family="Times,serif" font-size="14.00">u0003</text>
</g>
<!-- 46 -->
<g id="node43" class="node"><title>46</title>
<ellipse fill="none" stroke="black" cx="1983" cy="-180" rx="18" ry="18"/>
</g>
<!-- 38&#45;&gt;46 -->
<g id="edge47" class="edge"><title>38&#45;&gt;46</title>
<path fill="none" stroke="black" d="M1873.26,-180C1894.27,-180 1930.03,-180 1954.77,-180"/>
<polygon fill="black" stroke="black" points="1954.95,-183.5 1964.95,-180 1954.95,-176.5 1954.95,-183.5"/>
<text text-anchor="middle" x="1919" y="-183.8" font-family="Times,serif" font-size="14.00">u000d</text>
</g>
<!-- 53 -->
<g id="node44" class="node"><title>53</title>
<ellipse fill="none" stroke="black" cx="2111" cy="-180" rx="18" ry="18"/>
</g>
<!-- 46&#45;&gt;53 -->
<g id="edge48" class="edge"><title>46&#45;&gt;53</title>
<path fill="none" stroke="black" d="M2001.26,-180C2022.27,-180 2058.03,-180 2082.77,-180"/>
<polygon fill="black" stroke="black" points="2082.95,-183.5 2092.95,-180 2082.95,-176.5 2082.95,-183.5"/>
<text text-anchor="middle" x="2047" y="-183.8" font-family="Times,serif" font-size="14.00">u0011</text>
</g>
<!-- 59 -->
<g id="node45" class="node"><title>59</title>
<ellipse fill="none" stroke="black" cx="2235" cy="-180" rx="18" ry="18"/>
</g>
<!-- 53&#45;&gt;59 -->
<g id="edge49" class="edge"><title>53&#45;&gt;59</title>
<path fill="none" stroke="black" d="M2129.22,-180C2149.38,-180 2183.04,-180 2206.75,-180"/>
<polygon fill="black" stroke="black" points="2206.87,-183.5 2216.87,-180 2206.87,-176.5 2206.87,-183.5"/>
<text text-anchor="middle" x="2173" y="-183.8" font-family="Times,serif" font-size="14.00">u000f</text>
</g>
<!-- 59&#45;&gt;33 -->
<g id="edge50" class="edge"><title>59&#45;&gt;33</title>
<path fill="none" stroke="black" d="M2253.16,-180C2303.35,-180 2450.21,-180 2511.57,-180"/>
<polygon fill="black" stroke="black" points="2511.65,-183.5 2521.65,-180 2511.65,-176.5 2511.65,-183.5"/>
<text text-anchor="middle" x="2353" y="-183.8" font-family="Times,serif" font-size="14.00">u000a</text>
</g>
<!-- 15 -->
<g id="node47" class="node"><title>15</title>
<ellipse fill="none" stroke="black" cx="993" cy="-75" rx="18" ry="18"/>
</g>
<!-- 8&#45;&gt;15 -->
<g id="edge51" class="edge"><title>8&#45;&gt;15</title>
<path fill="none" stroke="black" d="M831.564,-116.936C837.693,-113.431 845.014,-109.638 852,-107 889.85,-92.7089 935.966,-83.678 964.662,-78.9806"/>
<polygon fill="black" stroke="black" points="965.42,-82.4045 974.753,-77.3906 964.33,-75.4898 965.42,-82.4045"/>
<text text-anchor="middle" x="875" y="-110.8" font-family="Times,serif" font-size="14.00">u000d</text>
</g>
<!-- 16 -->
<g id="node64" class="node"><title>16</title>
<ellipse fill="none" stroke="black" cx="934" cy="-126" rx="18" ry="18"/>
</g>
<!-- 8&#45;&gt;16 -->
<g id="edge52" class="edge"><title>8&#45;&gt;16</title>
<path fill="none" stroke="black" d="M834.116,-126C852.964,-126 883.531,-126 905.696,-126"/>
<polygon fill="black" stroke="black" points="905.814,-129.5 915.814,-126 905.814,-122.5 905.814,-129.5"/>
<text text-anchor="middle" x="875" y="-129.8" font-family="Times,serif" font-size="14.00">u0003</text>
</g>
<!-- 23 -->
<g id="node48" class="node"><title>23</title>
<ellipse fill="none" stroke="black" cx="1180" cy="-72" rx="18" ry="18"/>
</g>
<!-- 15&#45;&gt;23 -->
<g id="edge53" class="edge"><title>15&#45;&gt;23</title>
<path fill="none" stroke="black" d="M1011.07,-74.7231C1043.29,-74.2007 1113.27,-73.0659 1151.95,-72.4387"/>
<polygon fill="black" stroke="black" points="1152.03,-75.938 1161.97,-72.2762 1151.91,-68.9389 1152.03,-75.938"/>
<text text-anchor="middle" x="1057" y="-78.8" font-family="Times,serif" font-size="14.00">u0011</text>
</g>
<!-- 31 -->
<g id="node49" class="node"><title>31</title>
<ellipse fill="none" stroke="black" cx="1294" cy="-72" rx="18" ry="18"/>
</g>
<!-- 23&#45;&gt;31 -->
<g id="edge54" class="edge"><title>23&#45;&gt;31</title>
<path fill="none" stroke="black" d="M1198.01,-72C1215.94,-72 1244.44,-72 1265.56,-72"/>
<polygon fill="black" stroke="black" points="1265.83,-75.5001 1275.83,-72 1265.83,-68.5001 1265.83,-75.5001"/>
<text text-anchor="middle" x="1237" y="-75.8" font-family="Times,serif" font-size="14.00">u000f</text>
</g>
<!-- 39 -->
<g id="node50" class="node"><title>39</title>
<ellipse fill="none" stroke="black" cx="1412" cy="-72" rx="18" ry="18"/>
</g>
<!-- 31&#45;&gt;39 -->
<g id="edge55" class="edge"><title>31&#45;&gt;39</title>
<path fill="none" stroke="black" d="M1312.12,-72C1330.96,-72 1361.53,-72 1383.7,-72"/>
<polygon fill="black" stroke="black" points="1383.81,-75.5001 1393.81,-72 1383.81,-68.5001 1383.81,-75.5001"/>
<text text-anchor="middle" x="1353" y="-75.8" font-family="Times,serif" font-size="14.00">u000a</text>
</g>
<!-- 40 -->
<g id="node59" class="node"><title>40</title>
<ellipse fill="none" stroke="black" cx="1412" cy="-18" rx="18" ry="18"/>
</g>
<!-- 31&#45;&gt;40 -->
<g id="edge56" class="edge"><title>31&#45;&gt;40</title>
<path fill="none" stroke="black" d="M1310.18,-63.3759C1316.28,-60.0133 1323.41,-56.205 1330,-53 1348.37,-44.0681 1369.57,-34.9462 1385.68,-28.2551"/>
<polygon fill="black" stroke="black" points="1387.06,-31.4704 1394.98,-24.4264 1384.4,-24.9976 1387.06,-31.4704"/>
<text text-anchor="middle" x="1353" y="-56.8" font-family="Times,serif" font-size="14.00">u000e</text>
</g>
<!-- 47 -->
<g id="node51" class="node"><title>47</title>
<ellipse fill="none" stroke="black" cx="1535" cy="-72" rx="18" ry="18"/>
</g>
<!-- 39&#45;&gt;47 -->
<g id="edge57" class="edge"><title>39&#45;&gt;47</title>
<path fill="none" stroke="black" d="M1430.08,-72C1449.96,-72 1483.08,-72 1506.58,-72"/>
<polygon fill="black" stroke="black" points="1506.62,-75.5001 1516.62,-72 1506.62,-68.5001 1506.62,-75.5001"/>
<text text-anchor="middle" x="1471" y="-75.8" font-family="Times,serif" font-size="14.00">u000e</text>
</g>
<!-- 54 -->
<g id="node52" class="node"><title>54</title>
<ellipse fill="none" stroke="black" cx="1663" cy="-72" rx="18" ry="18"/>
</g>
<!-- 47&#45;&gt;54 -->
<g id="edge58" class="edge"><title>47&#45;&gt;54</title>
<path fill="none" stroke="black" d="M1553.26,-72C1574.27,-72 1610.03,-72 1634.77,-72"/>
<polygon fill="black" stroke="black" points="1634.95,-75.5001 1644.95,-72 1634.95,-68.5001 1634.95,-75.5001"/>
<text text-anchor="middle" x="1599" y="-75.8" font-family="Times,serif" font-size="14.00">u0010</text>
</g>
<!-- 60 -->
<g id="node53" class="node"><title>60</title>
<ellipse fill="none" stroke="black" cx="1791" cy="-72" rx="18" ry="18"/>
</g>
<!-- 54&#45;&gt;60 -->
<g id="edge59" class="edge"><title>54&#45;&gt;60</title>
<path fill="none" stroke="black" d="M1681.26,-72C1702.27,-72 1738.03,-72 1762.77,-72"/>
<polygon fill="black" stroke="black" points="1762.95,-75.5001 1772.95,-72 1762.95,-68.5001 1762.95,-75.5001"/>
<text text-anchor="middle" x="1727" y="-75.8" font-family="Times,serif" font-size="14.00">u0006</text>
</g>
<!-- 64 -->
<g id="node54" class="node"><title>64</title>
<ellipse fill="none" stroke="black" cx="1919" cy="-72" rx="18" ry="18"/>
</g>
<!-- 60&#45;&gt;64 -->
<g id="edge60" class="edge"><title>60&#45;&gt;64</title>
<path fill="none" stroke="black" d="M1809.26,-72C1830.27,-72 1866.03,-72 1890.77,-72"/>
<polygon fill="black" stroke="black" points="1890.95,-75.5001 1900.95,-72 1890.95,-68.5001 1890.95,-75.5001"/>
<text text-anchor="middle" x="1855" y="-75.8" font-family="Times,serif" font-size="14.00">u000a</text>
</g>
<!-- 67 -->
<g id="node55" class="node"><title>67</title>
<ellipse fill="none" stroke="black" cx="2047" cy="-72" rx="18" ry="18"/>
</g>
<!-- 64&#45;&gt;67 -->
<g id="edge61" class="edge"><title>64&#45;&gt;67</title>
<path fill="none" stroke="black" d="M1937.26,-72C1958.27,-72 1994.03,-72 2018.77,-72"/>
<polygon fill="black" stroke="black" points="2018.95,-75.5001 2028.95,-72 2018.95,-68.5001 2018.95,-75.5001"/>
<text text-anchor="middle" x="1983" y="-75.8" font-family="Times,serif" font-size="14.00">u0007</text>
</g>
<!-- 69 -->
<g id="node56" class="node"><title>69</title>
<ellipse fill="none" stroke="black" cx="2173" cy="-72" rx="18" ry="18"/>
</g>
<!-- 67&#45;&gt;69 -->
<g id="edge62" class="edge"><title>67&#45;&gt;69</title>
<path fill="none" stroke="black" d="M2065.24,-72C2085.79,-72 2120.37,-72 2144.59,-72"/>
<polygon fill="black" stroke="black" points="2144.9,-75.5001 2154.9,-72 2144.9,-68.5001 2144.9,-75.5001"/>
<text text-anchor="middle" x="2111" y="-75.8" font-family="Times,serif" font-size="14.00">u000e</text>
</g>
<!-- 71 -->
<g id="node57" class="node"><title>71</title>
<ellipse fill="none" stroke="black" cx="2294" cy="-77" rx="18" ry="18"/>
</g>
<!-- 69&#45;&gt;71 -->
<g id="edge63" class="edge"><title>69&#45;&gt;71</title>
<path fill="none" stroke="black" d="M2191.05,-72.7164C2210.58,-73.5369 2242.84,-74.8924 2265.84,-75.8588"/>
<polygon fill="black" stroke="black" points="2265.84,-79.362 2275.98,-76.285 2266.14,-72.3681 2265.84,-79.362"/>
<text text-anchor="middle" x="2235" y="-79.8" font-family="Times,serif" font-size="14.00">u0007</text>
</g>
<!-- 73 -->
<g id="node58" class="node"><title>73</title>
<ellipse fill="none" stroke="black" cx="2417" cy="-120" rx="18" ry="18"/>
</g>
<!-- 71&#45;&gt;73 -->
<g id="edge64" class="edge"><title>71&#45;&gt;73</title>
<path fill="none" stroke="black" d="M2311.69,-81.1335C2328.25,-85.4213 2354.22,-92.6595 2376,-101 2381.08,-102.944 2386.4,-105.263 2391.44,-107.601"/>
<polygon fill="black" stroke="black" points="2390.14,-110.857 2400.67,-112.03 2393.17,-104.547 2390.14,-110.857"/>
<text text-anchor="middle" x="2353" y="-104.8" font-family="Times,serif" font-size="14.00">u0006</text>
</g>
<!-- 73&#45;&gt;33 -->
<g id="edge65" class="edge"><title>73&#45;&gt;33</title>
<path fill="none" stroke="black" d="M2434.58,-124.132C2452.46,-128.999 2481.4,-138.091 2504,-151 2509.05,-153.886 2514.1,-157.517 2518.72,-161.222"/>
<polygon fill="black" stroke="black" points="2516.62,-164.023 2526.5,-167.83 2521.15,-158.688 2516.62,-164.023"/>
<text text-anchor="middle" x="2481" y="-154.8" font-family="Times,serif" font-size="14.00">u0007</text>
</g>
<!-- 48 -->
<g id="node60" class="node"><title>48</title>
<ellipse fill="none" stroke="black" cx="1535" cy="-18" rx="18" ry="18"/>
</g>
<!-- 40&#45;&gt;48 -->
<g id="edge66" class="edge"><title>40&#45;&gt;48</title>
<path fill="none" stroke="black" d="M1430.08,-18C1449.96,-18 1483.08,-18 1506.58,-18"/>
<polygon fill="black" stroke="black" points="1506.62,-21.5001 1516.62,-18 1506.62,-14.5001 1506.62,-21.5001"/>
<text text-anchor="middle" x="1471" y="-21.8" font-family="Times,serif" font-size="14.00">u0010</text>
</g>
<!-- 55 -->
<g id="node61" class="node"><title>55</title>
<ellipse fill="none" stroke="black" cx="1663" cy="-18" rx="18" ry="18"/>
</g>
<!-- 48&#45;&gt;55 -->
<g id="edge67" class="edge"><title>48&#45;&gt;55</title>
<path fill="none" stroke="black" d="M1553.26,-18C1574.27,-18 1610.03,-18 1634.77,-18"/>
<polygon fill="black" stroke="black" points="1634.95,-21.5001 1644.95,-18 1634.95,-14.5001 1634.95,-21.5001"/>
<text text-anchor="middle" x="1599" y="-21.8" font-family="Times,serif" font-size="14.00">u000e</text>
</g>
<!-- 61 -->
<g id="node62" class="node"><title>61</title>
<ellipse fill="none" stroke="black" cx="1791" cy="-18" rx="18" ry="18"/>
</g>
<!-- 55&#45;&gt;61 -->
<g id="edge68" class="edge"><title>55&#45;&gt;61</title>
<path fill="none" stroke="black" d="M1681.26,-18C1702.27,-18 1738.03,-18 1762.77,-18"/>
<polygon fill="black" stroke="black" points="1762.95,-21.5001 1772.95,-18 1762.95,-14.5001 1762.95,-21.5001"/>
<text text-anchor="middle" x="1727" y="-21.8" font-family="Times,serif" font-size="14.00">u0006</text>
</g>
<!-- 65 -->
<g id="node63" class="node"><title>65</title>
<ellipse fill="none" stroke="black" cx="2353" cy="-27" rx="18" ry="18"/>
</g>
<!-- 61&#45;&gt;65 -->
<g id="edge69" class="edge"><title>61&#45;&gt;65</title>
<path fill="none" stroke="black" d="M1809.12,-18.4439C1833.35,-19.0331 1879.06,-20 1918,-20 1918,-20 1918,-20 2236,-20 2266.31,-20 2300.98,-22.41 2324.47,-24.4019"/>
<polygon fill="black" stroke="black" points="2324.46,-27.9141 2334.73,-25.3055 2325.07,-20.9411 2324.46,-27.9141"/>
<text text-anchor="middle" x="2047" y="-23.8" font-family="Times,serif" font-size="14.00">u0010</text>
</g>
<!-- 65&#45;&gt;33 -->
<g id="edge70" class="edge"><title>65&#45;&gt;33</title>
<path fill="none" stroke="black" d="M2369.73,-34.5117C2399.08,-49.1353 2462.91,-83.8956 2504,-128 2511.79,-136.36 2519.08,-146.611 2524.96,-155.794"/>
<polygon fill="black" stroke="black" points="2522.12,-157.845 2530.35,-164.512 2528.07,-154.165 2522.12,-157.845"/>
<text text-anchor="middle" x="2417" y="-78.8" font-family="Times,serif" font-size="14.00">u0006</text>
</g>
<!-- 24 -->
<g id="node65" class="node"><title>24</title>
<ellipse fill="none" stroke="black" cx="1057" cy="-126" rx="18" ry="18"/>
</g>
<!-- 16&#45;&gt;24 -->
<g id="edge71" class="edge"><title>16&#45;&gt;24</title>
<path fill="none" stroke="black" d="M952.08,-126C971.965,-126 1005.08,-126 1028.58,-126"/>
<polygon fill="black" stroke="black" points="1028.62,-129.5 1038.62,-126 1028.62,-122.5 1028.62,-129.5"/>
<text text-anchor="middle" x="993" y="-129.8" font-family="Times,serif" font-size="14.00">u000d</text>
</g>
<!-- 32 -->
<g id="node66" class="node"><title>32</title>
<ellipse fill="none" stroke="black" cx="1180" cy="-126" rx="18" ry="18"/>
</g>
<!-- 24&#45;&gt;32 -->
<g id="edge72" class="edge"><title>24&#45;&gt;32</title>
<path fill="none" stroke="black" d="M1075.08,-126C1094.96,-126 1128.08,-126 1151.58,-126"/>
<polygon fill="black" stroke="black" points="1151.62,-129.5 1161.62,-126 1151.62,-122.5 1151.62,-129.5"/>
<text text-anchor="middle" x="1121" y="-129.8" font-family="Times,serif" font-size="14.00">u0011</text>
</g>
<!-- 41 -->
<g id="node67" class="node"><title>41</title>
<ellipse fill="none" stroke="black" cx="1294" cy="-126" rx="18" ry="18"/>
</g>
<!-- 32&#45;&gt;41 -->
<g id="edge73" class="edge"><title>32&#45;&gt;41</title>
<path fill="none" stroke="black" d="M1198.01,-126C1215.94,-126 1244.44,-126 1265.56,-126"/>
<polygon fill="black" stroke="black" points="1265.83,-129.5 1275.83,-126 1265.83,-122.5 1265.83,-129.5"/>
<text text-anchor="middle" x="1237" y="-129.8" font-family="Times,serif" font-size="14.00">u000f</text>
</g>
<!-- 49 -->
<g id="node68" class="node"><title>49</title>
<ellipse fill="none" stroke="black" cx="1412" cy="-126" rx="18" ry="18"/>
</g>
<!-- 41&#45;&gt;49 -->
<g id="edge74" class="edge"><title>41&#45;&gt;49</title>
<path fill="none" stroke="black" d="M1312.12,-126C1330.96,-126 1361.53,-126 1383.7,-126"/>
<polygon fill="black" stroke="black" points="1383.81,-129.5 1393.81,-126 1383.81,-122.5 1383.81,-129.5"/>
<text text-anchor="middle" x="1353" y="-129.8" font-family="Times,serif" font-size="14.00">u0006</text>
</g>
<!-- 56 -->
<g id="node69" class="node"><title>56</title>
<ellipse fill="none" stroke="black" cx="1535" cy="-126" rx="18" ry="18"/>
</g>
<!-- 49&#45;&gt;56 -->
<g id="edge75" class="edge"><title>49&#45;&gt;56</title>
<path fill="none" stroke="black" d="M1430.08,-126C1449.96,-126 1483.08,-126 1506.58,-126"/>
<polygon fill="black" stroke="black" points="1506.62,-129.5 1516.62,-126 1506.62,-122.5 1506.62,-129.5"/>
<text text-anchor="middle" x="1471" y="-129.8" font-family="Times,serif" font-size="14.00">u000a</text>
</g>
<!-- 62 -->
<g id="node70" class="node"><title>62</title>
<ellipse fill="none" stroke="black" cx="1663" cy="-126" rx="18" ry="18"/>
</g>
<!-- 56&#45;&gt;62 -->
<g id="edge76" class="edge"><title>56&#45;&gt;62</title>
<path fill="none" stroke="black" d="M1553.26,-126C1574.27,-126 1610.03,-126 1634.77,-126"/>
<polygon fill="black" stroke="black" points="1634.95,-129.5 1644.95,-126 1634.95,-122.5 1634.95,-129.5"/>
<text text-anchor="middle" x="1599" y="-129.8" font-family="Times,serif" font-size="14.00">u000a</text>
</g>
<!-- 66 -->
<g id="node71" class="node"><title>66</title>
<ellipse fill="none" stroke="black" cx="1791" cy="-126" rx="18" ry="18"/>
</g>
<!-- 62&#45;&gt;66 -->
<g id="edge77" class="edge"><title>62&#45;&gt;66</title>
<path fill="none" stroke="black" d="M1681.26,-126C1702.27,-126 1738.03,-126 1762.77,-126"/>
<polygon fill="black" stroke="black" points="1762.95,-129.5 1772.95,-126 1762.95,-122.5 1762.95,-129.5"/>
<text text-anchor="middle" x="1727" y="-129.8" font-family="Times,serif" font-size="14.00">u0007</text>
</g>
<!-- 68 -->
<g id="node72" class="node"><title>68</title>
<ellipse fill="none" stroke="black" cx="1919" cy="-126" rx="18" ry="18"/>
</g>
<!-- 66&#45;&gt;68 -->
<g id="edge78" class="edge"><title>66&#45;&gt;68</title>
<path fill="none" stroke="black" d="M1809.26,-126C1830.27,-126 1866.03,-126 1890.77,-126"/>
<polygon fill="black" stroke="black" points="1890.95,-129.5 1900.95,-126 1890.95,-122.5 1890.95,-129.5"/>
<text text-anchor="middle" x="1855" y="-129.8" font-family="Times,serif" font-size="14.00">u0007</text>
</g>
<!-- 70 -->
<g id="node73" class="node"><title>70</title>
<ellipse fill="none" stroke="black" cx="2047" cy="-126" rx="18" ry="18"/>
</g>
<!-- 68&#45;&gt;70 -->
<g id="edge79" class="edge"><title>68&#45;&gt;70</title>
<path fill="none" stroke="black" d="M1937.26,-126C1958.27,-126 1994.03,-126 2018.77,-126"/>
<polygon fill="black" stroke="black" points="2018.95,-129.5 2028.95,-126 2018.95,-122.5 2018.95,-129.5"/>
<text text-anchor="middle" x="1983" y="-129.8" font-family="Times,serif" font-size="14.00">u000a</text>
</g>
<!-- 72 -->
<g id="node74" class="node"><title>72</title>
<ellipse fill="none" stroke="black" cx="2173" cy="-126" rx="18" ry="18"/>
</g>
<!-- 70&#45;&gt;72 -->
<g id="edge80" class="edge"><title>70&#45;&gt;72</title>
<path fill="none" stroke="black" d="M2065.24,-126C2085.79,-126 2120.37,-126 2144.59,-126"/>
<polygon fill="black" stroke="black" points="2144.9,-129.5 2154.9,-126 2144.9,-122.5 2144.9,-129.5"/>
<text text-anchor="middle" x="2111" y="-129.8" font-family="Times,serif" font-size="14.00">u0006</text>
</g>
<!-- 74 -->
<g id="node75" class="node"><title>74</title>
<ellipse fill="none" stroke="black" cx="2294" cy="-133" rx="18" ry="18"/>
</g>
<!-- 72&#45;&gt;74 -->
<g id="edge81" class="edge"><title>72&#45;&gt;74</title>
<path fill="none" stroke="black" d="M2191.05,-127.003C2210.58,-128.152 2242.84,-130.049 2265.84,-131.402"/>
<polygon fill="black" stroke="black" points="2265.79,-134.906 2275.98,-131.999 2266.2,-127.918 2265.79,-134.906"/>
<text text-anchor="middle" x="2235" y="-134.8" font-family="Times,serif" font-size="14.00">u000a</text>
</g>
<!-- 74&#45;&gt;25 -->
<g id="edge82" class="edge"><title>74&#45;&gt;25</title>
<path fill="none" stroke="black" d="M2311.89,-130.653C2329.55,-129.133 2357.26,-129.494 2376,-143 2394.46,-156.309 2404.72,-180.416 2410.21,-199.401"/>
<polygon fill="black" stroke="black" points="2406.89,-200.525 2412.79,-209.321 2413.66,-198.762 2406.89,-200.525"/>
<text text-anchor="middle" x="2353" y="-146.8" font-family="Times,serif" font-size="14.00">u0010</text>
</g>
<!-- initial -->
<g id="node76" class="node"><title>initial</title>
</g>
<!-- initial&#45;&gt;0 -->
<g id="edge83" class="edge"><title>initial&#45;&gt;0</title>
<path fill="none" stroke="black" d="M54.195,-211C62.6538,-211 72.0513,-211 80.5951,-211"/>
<polygon fill="black" stroke="black" points="80.8257,-214.5 90.8257,-211 80.8257,-207.5 80.8257,-214.5"/>
</g>
</g>
</svg>
