<svg width="2460px" height="956px"
 viewBox="0.00 0.00 1845.00 717.00" xmlns="http://www.w3.org/2000/svg" xmlns:xlink="http://www.w3.org/1999/xlink">
<g id="graph0" class="graph" transform="scale(1.000022500562514 1.000022500562514) rotate(0) translate(4 713)">
<title>Automaton</title>
<polygon fill="white" stroke="none" points="-4,4 -4,-713 1841,-713 1841,4 -4,4"/>
<!-- 0 -->
<g id="node1" class="node"><title>0</title>
<ellipse fill="none" stroke="black" cx="109" cy="-664" rx="18" ry="18"/>
</g>
<!-- 1 -->
<g id="node2" class="node"><title>1</title>
<ellipse fill="none" stroke="black" cx="227" cy="-664" rx="18" ry="18"/>
</g>
<!-- 0&#45;&gt;1 -->
<g id="edge1" class="edge"><title>0&#45;&gt;1</title>
<path fill="none" stroke="black" d="M127.116,-664C145.964,-664 176.531,-664 198.696,-664"/>
<polygon fill="black" stroke="black" points="198.814,-667.5 208.814,-664 198.814,-660.5 198.814,-667.5"/>
<text text-anchor="middle" x="168" y="-667.8" font-family="Times,serif" font-size="14.00">u0000</text>
</g>
<!-- 2 -->
<g id="node3" class="node"><title>2</title>
<ellipse fill="none" stroke="black" cx="1815" cy="-634" rx="18" ry="18"/>
<ellipse fill="none" stroke="black" cx="1815" cy="-634" rx="22" ry="22"/>
</g>
<!-- 1&#45;&gt;2 -->
<g id="edge2" class="edge"><title>1&#45;&gt;2</title>
<path fill="none" stroke="black" d="M243.803,-670.807C265.823,-679.659 307.181,-694 344,-694 344,-694 344,-694 1694,-694 1730.14,-694 1766.56,-671.955 1789.64,-654.59"/>
<polygon fill="black" stroke="black" points="1792.07,-657.13 1797.8,-648.219 1787.77,-651.612 1792.07,-657.13"/>
<text text-anchor="middle" x="1004" y="-697.8" font-family="Times,serif" font-size="14.00">u0002</text>
</g>
<!-- 3 -->
<g id="node4" class="node"><title>3</title>
<ellipse fill="none" stroke="black" cx="345" cy="-633" rx="18" ry="18"/>
</g>
<!-- 1&#45;&gt;3 -->
<g id="edge3" class="edge"><title>1&#45;&gt;3</title>
<path fill="none" stroke="black" d="M244.62,-659.558C263.657,-654.471 295.103,-646.067 317.523,-640.076"/>
<polygon fill="black" stroke="black" points="318.654,-643.397 327.411,-637.433 316.846,-636.634 318.654,-643.397"/>
<text text-anchor="middle" x="286" y="-657.8" font-family="Times,serif" font-size="14.00">u0001</text>
</g>
<!-- 4 -->
<g id="node5" class="node"><title>4</title>
<ellipse fill="none" stroke="black" cx="463" cy="-367" rx="18" ry="18"/>
</g>
<!-- 3&#45;&gt;4 -->
<g id="edge4" class="edge"><title>3&#45;&gt;4</title>
<path fill="none" stroke="black" d="M353.082,-616.761C372.577,-572.056 427.155,-446.903 450.82,-392.637"/>
<polygon fill="black" stroke="black" points="454.074,-393.93 454.864,-383.365 447.658,-391.132 454.074,-393.93"/>
<text text-anchor="middle" x="404" y="-550.8" font-family="Times,serif" font-size="14.00">u0004</text>
</g>
<!-- 5 -->
<g id="node9" class="node"><title>5</title>
<ellipse fill="none" stroke="black" cx="1693" cy="-483" rx="18" ry="18"/>
</g>
<!-- 3&#45;&gt;5 -->
<g id="edge5" class="edge"><title>3&#45;&gt;5</title>
<path fill="none" stroke="black" d="M362.318,-638.334C384.588,-645.129 425.866,-656 462,-656 462,-656 462,-656 1576,-656 1621.07,-656 1631.03,-631.833 1657,-595 1674.89,-569.619 1683.89,-534.751 1688.24,-510.695"/>
<polygon fill="black" stroke="black" points="1691.7,-511.229 1689.88,-500.792 1684.79,-510.086 1691.7,-511.229"/>
<text text-anchor="middle" x="1004" y="-659.8" font-family="Times,serif" font-size="14.00">u0003</text>
</g>
<!-- 6 -->
<g id="node22" class="node"><title>6</title>
<ellipse fill="none" stroke="black" cx="945" cy="-589" rx="18" ry="18"/>
</g>
<!-- 3&#45;&gt;6 -->
<g id="edge6" class="edge"><title>3&#45;&gt;6</title>
<path fill="none" stroke="black" d="M362.764,-628.497C385.194,-622.879 426.287,-614 462,-614 462,-614 462,-614 828,-614 859.443,-614 894.625,-605.114 917.912,-597.937"/>
<polygon fill="black" stroke="black" points="919.261,-601.18 927.718,-594.798 917.127,-594.514 919.261,-601.18"/>
<text text-anchor="middle" x="640" y="-617.8" font-family="Times,serif" font-size="14.00">u0005</text>
</g>
<!-- 7 -->
<g id="node6" class="node"><title>7</title>
<ellipse fill="none" stroke="black" cx="945" cy="-307" rx="18" ry="18"/>
</g>
<!-- 4&#45;&gt;7 -->
<g id="edge7" class="edge"><title>4&#45;&gt;7</title>
<path fill="none" stroke="black" d="M480.779,-362.734C503.224,-357.411 544.335,-349 580,-349 580,-349 580,-349 828,-349 861.546,-349 897.465,-333.279 920.297,-321.073"/>
<polygon fill="black" stroke="black" points="922.189,-324.026 929.235,-316.113 918.793,-317.905 922.189,-324.026"/>
<text text-anchor="middle" x="704" y="-352.8" font-family="Times,serif" font-size="14.00">u0004</text>
</g>
<!-- 4&#45;&gt;5 -->
<g id="edge8" class="edge"><title>4&#45;&gt;5</title>
<path fill="none" stroke="black" d="M474.021,-381.249C492.175,-405.215 533.006,-451 580,-451 580,-451 580,-451 1005,-451 1137.06,-451 1169.11,-470.205 1301,-477 1437.52,-484.034 1601.17,-483.715 1664.82,-483.258"/>
<polygon fill="black" stroke="black" points="1664.86,-486.758 1674.83,-483.179 1664.81,-479.758 1664.86,-486.758"/>
<text text-anchor="middle" x="1068" y="-458.8" font-family="Times,serif" font-size="14.00">u0003</text>
</g>
<!-- 8 -->
<g id="node15" class="node"><title>8</title>
<ellipse fill="none" stroke="black" cx="581" cy="-67" rx="18" ry="18"/>
</g>
<!-- 4&#45;&gt;8 -->
<g id="edge9" class="edge"><title>4&#45;&gt;8</title>
<path fill="none" stroke="black" d="M470.402,-350.443C489.574,-300.861 546.636,-153.287 569.928,-93.0476"/>
<polygon fill="black" stroke="black" points="573.276,-94.0948 573.618,-83.5055 566.747,-91.5702 573.276,-94.0948"/>
<text text-anchor="middle" x="522" y="-273.8" font-family="Times,serif" font-size="14.00">u0005</text>
</g>
<!-- 11 -->
<g id="node7" class="node"><title>11</title>
<ellipse fill="none" stroke="black" cx="1452" cy="-206" rx="18" ry="18"/>
</g>
<!-- 7&#45;&gt;11 -->
<g id="edge10" class="edge"><title>7&#45;&gt;11</title>
<path fill="none" stroke="black" d="M954.359,-291.507C971.376,-262.299 1013.04,-202 1067,-202 1067,-202 1067,-202 1325,-202 1359.09,-202 1398.34,-203.481 1423.85,-204.64"/>
<polygon fill="black" stroke="black" points="1423.73,-208.139 1433.89,-205.112 1424.06,-201.146 1423.73,-208.139"/>
<text text-anchor="middle" x="1196" y="-205.8" font-family="Times,serif" font-size="14.00">u0004</text>
</g>
<!-- 12 -->
<g id="node10" class="node"><title>12</title>
<ellipse fill="none" stroke="black" cx="1068" cy="-307" rx="18" ry="18"/>
</g>
<!-- 7&#45;&gt;12 -->
<g id="edge11" class="edge"><title>7&#45;&gt;12</title>
<path fill="none" stroke="black" d="M963.08,-307C982.965,-307 1016.08,-307 1039.58,-307"/>
<polygon fill="black" stroke="black" points="1039.62,-310.5 1049.62,-307 1039.62,-303.5 1039.62,-310.5"/>
<text text-anchor="middle" x="1004" y="-310.8" font-family="Times,serif" font-size="14.00">u0005</text>
</g>
<!-- 15 -->
<g id="node8" class="node"><title>15</title>
<ellipse fill="none" stroke="black" cx="1575" cy="-234" rx="18" ry="18"/>
</g>
<!-- 11&#45;&gt;15 -->
<g id="edge12" class="edge"><title>11&#45;&gt;15</title>
<path fill="none" stroke="black" d="M1469.93,-208.783C1487.36,-211.78 1515.26,-216.942 1539,-223 1541.89,-223.738 1544.9,-224.575 1547.88,-225.449"/>
<polygon fill="black" stroke="black" points="1547.14,-228.882 1557.72,-228.478 1549.2,-222.192 1547.14,-228.882"/>
<text text-anchor="middle" x="1516" y="-226.8" font-family="Times,serif" font-size="14.00">u0004</text>
</g>
<!-- 15&#45;&gt;5 -->
<g id="edge13" class="edge"><title>15&#45;&gt;5</title>
<path fill="none" stroke="black" d="M1585.79,-248.812C1602.19,-274.076 1635.49,-327.48 1657,-376 1668.69,-402.377 1678.54,-433.913 1684.78,-455.888"/>
<polygon fill="black" stroke="black" points="1681.42,-456.853 1687.47,-465.55 1688.16,-454.978 1681.42,-456.853"/>
<text text-anchor="middle" x="1634" y="-379.8" font-family="Times,serif" font-size="14.00">u0003</text>
</g>
<!-- 5&#45;&gt;2 -->
<g id="edge14" class="edge"><title>5&#45;&gt;2</title>
<path fill="none" stroke="black" d="M1704.86,-496.667C1724.99,-521.991 1768.35,-576.555 1793.94,-608.761"/>
<polygon fill="black" stroke="black" points="1791.39,-611.172 1800.35,-616.823 1796.87,-606.817 1791.39,-611.172"/>
<text text-anchor="middle" x="1752" y="-584.8" font-family="Times,serif" font-size="14.00">u0002</text>
</g>
<!-- 12&#45;&gt;5 -->
<g id="edge16" class="edge"><title>12&#45;&gt;5</title>
<path fill="none" stroke="black" d="M1085.22,-312.757C1092.44,-315.194 1101.09,-317.94 1109,-320 1351.75,-383.176 1434.01,-340.134 1657,-455 1661.89,-457.519 1666.75,-460.782 1671.22,-464.185"/>
<polygon fill="black" stroke="black" points="1669.29,-467.127 1679.25,-470.746 1673.72,-461.707 1669.29,-467.127"/>
<text text-anchor="middle" x="1388" y="-375.8" font-family="Times,serif" font-size="14.00">u0003</text>
</g>
<!-- 16 -->
<g id="node11" class="node"><title>16</title>
<ellipse fill="none" stroke="black" cx="1196" cy="-253" rx="18" ry="18"/>
</g>
<!-- 12&#45;&gt;16 -->
<g id="edge15" class="edge"><title>12&#45;&gt;16</title>
<path fill="none" stroke="black" d="M1082.32,-295.549C1089.76,-289.625 1099.45,-282.675 1109,-278 1127.85,-268.775 1150.73,-262.327 1168.15,-258.293"/>
<polygon fill="black" stroke="black" points="1169.19,-261.649 1178.21,-256.09 1167.69,-254.811 1169.19,-261.649"/>
<text text-anchor="middle" x="1132" y="-281.8" font-family="Times,serif" font-size="14.00">u0004</text>
</g>
<!-- 17 -->
<g id="node14" class="node"><title>17</title>
<ellipse fill="none" stroke="black" cx="1324" cy="-302" rx="18" ry="18"/>
</g>
<!-- 12&#45;&gt;17 -->
<g id="edge17" class="edge"><title>12&#45;&gt;17</title>
<path fill="none" stroke="black" d="M1086.06,-306.664C1129.16,-305.816 1242.71,-303.581 1295.41,-302.543"/>
<polygon fill="black" stroke="black" points="1295.75,-306.037 1305.68,-302.341 1295.61,-299.039 1295.75,-306.037"/>
<text text-anchor="middle" x="1196" y="-308.8" font-family="Times,serif" font-size="14.00">u0005</text>
</g>
<!-- 20 -->
<g id="node12" class="node"><title>20</title>
<ellipse fill="none" stroke="black" cx="1324" cy="-248" rx="18" ry="18"/>
</g>
<!-- 16&#45;&gt;20 -->
<g id="edge18" class="edge"><title>16&#45;&gt;20</title>
<path fill="none" stroke="black" d="M1213.99,-252.326C1234.94,-251.494 1270.81,-250.071 1295.65,-249.085"/>
<polygon fill="black" stroke="black" points="1296.02,-252.573 1305.87,-248.68 1295.74,-245.579 1296.02,-252.573"/>
<text text-anchor="middle" x="1260" y="-255.8" font-family="Times,serif" font-size="14.00">u0005</text>
</g>
<!-- 19 -->
<g id="node13" class="node"><title>19</title>
<ellipse fill="none" stroke="black" cx="1452" cy="-261" rx="18" ry="18"/>
</g>
<!-- 20&#45;&gt;19 -->
<g id="edge19" class="edge"><title>20&#45;&gt;19</title>
<path fill="none" stroke="black" d="M1341.99,-249.753C1362.94,-251.915 1398.81,-255.615 1423.65,-258.179"/>
<polygon fill="black" stroke="black" points="1423.57,-261.688 1433.87,-259.233 1424.29,-254.725 1423.57,-261.688"/>
<text text-anchor="middle" x="1388" y="-260.8" font-family="Times,serif" font-size="14.00">u0005</text>
</g>
<!-- 19&#45;&gt;15 -->
<g id="edge20" class="edge"><title>19&#45;&gt;15</title>
<path fill="none" stroke="black" d="M1469.82,-257.246C1489.87,-252.772 1523.62,-245.242 1547.26,-239.968"/>
<polygon fill="black" stroke="black" points="1548.32,-243.316 1557.32,-237.722 1546.8,-236.484 1548.32,-243.316"/>
<text text-anchor="middle" x="1516" y="-255.8" font-family="Times,serif" font-size="14.00">u0005</text>
</g>
<!-- 17&#45;&gt;19 -->
<g id="edge21" class="edge"><title>17&#45;&gt;19</title>
<path fill="none" stroke="black" d="M1341.59,-297.333C1358.98,-292.358 1387.06,-284.097 1411,-276 1415.67,-274.42 1420.62,-272.648 1425.38,-270.891"/>
<polygon fill="black" stroke="black" points="1426.61,-274.167 1434.74,-267.372 1424.15,-267.614 1426.61,-274.167"/>
<text text-anchor="middle" x="1388" y="-294.8" font-family="Times,serif" font-size="14.00">u0004</text>
</g>
<!-- 8&#45;&gt;5 -->
<g id="edge22" class="edge"><title>8&#45;&gt;5</title>
<path fill="none" stroke="black" d="M594.175,-54.7112C614.7,-35.3688 658.337,-0 703,-0 703,-0 703,-0 1576,-0 1622.44,-0 1635.33,-24.9268 1657,-66 1692.68,-133.647 1693.35,-372.089 1692.46,-454.629"/>
<polygon fill="black" stroke="black" points="1688.96,-454.731 1692.33,-464.774 1695.95,-454.818 1688.96,-454.731"/>
<text text-anchor="middle" x="1132" y="-3.8" font-family="Times,serif" font-size="14.00">u0003</text>
</g>
<!-- 13 -->
<g id="node16" class="node"><title>13</title>
<ellipse fill="none" stroke="black" cx="704" cy="-67" rx="18" ry="18"/>
</g>
<!-- 8&#45;&gt;13 -->
<g id="edge23" class="edge"><title>8&#45;&gt;13</title>
<path fill="none" stroke="black" d="M599.08,-67C618.965,-67 652.077,-67 675.577,-67"/>
<polygon fill="black" stroke="black" points="675.615,-70.5001 685.615,-67 675.615,-63.5001 675.615,-70.5001"/>
<text text-anchor="middle" x="640" y="-70.8" font-family="Times,serif" font-size="14.00">u0005</text>
</g>
<!-- 13&#45;&gt;5 -->
<g id="edge25" class="edge"><title>13&#45;&gt;5</title>
<path fill="none" stroke="black" d="M721.675,-62.2348C744.865,-56.0389 788.262,-46 826,-46 826,-46 826,-46 1576,-46 1660.94,-46 1685.17,-358.288 1690.63,-454.878"/>
<polygon fill="black" stroke="black" points="1687.14,-455.258 1691.18,-465.054 1694.13,-454.88 1687.14,-455.258"/>
<text text-anchor="middle" x="1196" y="-49.8" font-family="Times,serif" font-size="14.00">u0003</text>
</g>
<!-- 18 -->
<g id="node17" class="node"><title>18</title>
<ellipse fill="none" stroke="black" cx="827" cy="-97" rx="18" ry="18"/>
</g>
<!-- 13&#45;&gt;18 -->
<g id="edge24" class="edge"><title>13&#45;&gt;18</title>
<path fill="none" stroke="black" d="M721.825,-71.1714C741.962,-76.1641 775.922,-84.5841 799.574,-90.4481"/>
<polygon fill="black" stroke="black" points="798.77,-93.8546 809.318,-92.8641 800.455,-87.0604 798.77,-93.8546"/>
<text text-anchor="middle" x="768" y="-92.8" font-family="Times,serif" font-size="14.00">u0004</text>
</g>
<!-- 18&#45;&gt;15 -->
<g id="edge26" class="edge"><title>18&#45;&gt;15</title>
<path fill="none" stroke="black" d="M845.295,-97C867.962,-97 908.958,-97 944,-97 944,-97 944,-97 1453,-97 1511.51,-97 1548.5,-168.063 1564.62,-207.828"/>
<polygon fill="black" stroke="black" points="1561.38,-209.152 1568.27,-217.201 1567.91,-206.613 1561.38,-209.152"/>
<text text-anchor="middle" x="1196" y="-100.8" font-family="Times,serif" font-size="14.00">u0004</text>
</g>
<!-- 21 -->
<g id="node18" class="node"><title>21</title>
<ellipse fill="none" stroke="black" cx="945" cy="-145" rx="18" ry="18"/>
</g>
<!-- 18&#45;&gt;21 -->
<g id="edge27" class="edge"><title>18&#45;&gt;21</title>
<path fill="none" stroke="black" d="M844.129,-103.674C863.435,-111.663 895.992,-125.135 918.666,-134.517"/>
<polygon fill="black" stroke="black" points="917.429,-137.793 928.008,-138.382 920.106,-131.325 917.429,-137.793"/>
<text text-anchor="middle" x="886" y="-133.8" font-family="Times,serif" font-size="14.00">u0005</text>
</g>
<!-- 22 -->
<g id="node19" class="node"><title>22</title>
<ellipse fill="none" stroke="black" cx="1068" cy="-147" rx="18" ry="18"/>
</g>
<!-- 21&#45;&gt;22 -->
<g id="edge28" class="edge"><title>21&#45;&gt;22</title>
<path fill="none" stroke="black" d="M963.08,-145.282C982.965,-145.611 1016.08,-146.158 1039.58,-146.547"/>
<polygon fill="black" stroke="black" points="1039.56,-150.047 1049.62,-146.713 1039.67,-143.048 1039.56,-150.047"/>
<text text-anchor="middle" x="1004" y="-150.8" font-family="Times,serif" font-size="14.00">u0004</text>
</g>
<!-- 23 -->
<g id="node20" class="node"><title>23</title>
<ellipse fill="none" stroke="black" cx="1196" cy="-148" rx="18" ry="18"/>
</g>
<!-- 22&#45;&gt;23 -->
<g id="edge29" class="edge"><title>22&#45;&gt;23</title>
<path fill="none" stroke="black" d="M1086.26,-147.137C1107.27,-147.304 1143.03,-147.588 1167.77,-147.784"/>
<polygon fill="black" stroke="black" points="1167.93,-151.285 1177.95,-147.865 1167.98,-144.285 1167.93,-151.285"/>
<text text-anchor="middle" x="1132" y="-151.8" font-family="Times,serif" font-size="14.00">u0005</text>
</g>
<!-- 24 -->
<g id="node21" class="node"><title>24</title>
<ellipse fill="none" stroke="black" cx="1324" cy="-154" rx="18" ry="18"/>
</g>
<!-- 23&#45;&gt;24 -->
<g id="edge30" class="edge"><title>23&#45;&gt;24</title>
<path fill="none" stroke="black" d="M1213.99,-148.809C1234.94,-149.807 1270.81,-151.515 1295.65,-152.698"/>
<polygon fill="black" stroke="black" points="1295.72,-156.205 1305.87,-153.184 1296.05,-149.213 1295.72,-156.205"/>
<text text-anchor="middle" x="1260" y="-156.8" font-family="Times,serif" font-size="14.00">u0004</text>
</g>
<!-- 24&#45;&gt;11 -->
<g id="edge31" class="edge"><title>24&#45;&gt;11</title>
<path fill="none" stroke="black" d="M1342.26,-155.413C1360.21,-157.42 1388.73,-162.145 1411,-173 1418.12,-176.472 1425.07,-181.456 1431.13,-186.503"/>
<polygon fill="black" stroke="black" points="1428.97,-189.263 1438.77,-193.287 1433.62,-184.03 1428.97,-189.263"/>
<text text-anchor="middle" x="1388" y="-176.8" font-family="Times,serif" font-size="14.00">u0005</text>
</g>
<!-- 6&#45;&gt;5 -->
<g id="edge33" class="edge"><title>6&#45;&gt;5</title>
<path fill="none" stroke="black" d="M962.237,-594.326C985.272,-601.397 1028.88,-613 1067,-613 1067,-613 1067,-613 1576,-613 1631.12,-613 1666.54,-547.137 1682.38,-509.172"/>
<polygon fill="black" stroke="black" points="1685.7,-510.314 1686.16,-499.729 1679.2,-507.714 1685.7,-510.314"/>
<text text-anchor="middle" x="1324" y="-616.8" font-family="Times,serif" font-size="14.00">u0003</text>
</g>
<!-- 9 -->
<g id="node23" class="node"><title>9</title>
<ellipse fill="none" stroke="black" cx="1324" cy="-394" rx="18" ry="18"/>
</g>
<!-- 6&#45;&gt;9 -->
<g id="edge32" class="edge"><title>6&#45;&gt;9</title>
<path fill="none" stroke="black" d="M961.246,-581.114C1019.27,-551.103 1226.64,-443.843 1298.37,-406.738"/>
<polygon fill="black" stroke="black" points="1300.29,-409.687 1307.56,-401.984 1297.07,-403.469 1300.29,-409.687"/>
<text text-anchor="middle" x="1132" y="-506.8" font-family="Times,serif" font-size="14.00">u0004</text>
</g>
<!-- 10 -->
<g id="node24" class="node"><title>10</title>
<ellipse fill="none" stroke="black" cx="1068" cy="-567" rx="18" ry="18"/>
</g>
<!-- 6&#45;&gt;10 -->
<g id="edge34" class="edge"><title>6&#45;&gt;10</title>
<path fill="none" stroke="black" d="M962.825,-585.941C982.759,-582.317 1016.24,-576.229 1039.86,-571.935"/>
<polygon fill="black" stroke="black" points="1040.72,-575.336 1049.93,-570.104 1039.46,-568.449 1040.72,-575.336"/>
<text text-anchor="middle" x="1004" y="-586.8" font-family="Times,serif" font-size="14.00">u0005</text>
</g>
<!-- 9&#45;&gt;11 -->
<g id="edge36" class="edge"><title>9&#45;&gt;11</title>
<path fill="none" stroke="black" d="M1334.87,-379.243C1342.42,-368.537 1353.46,-354.054 1365,-343 1383.17,-325.593 1396.99,-330.9 1411,-310 1430.33,-281.166 1413.92,-265.268 1429,-234 1430.13,-231.661 1431.48,-229.336 1432.95,-227.083"/>
<polygon fill="black" stroke="black" points="1435.88,-229.006 1438.98,-218.876 1430.24,-224.859 1435.88,-229.006"/>
<text text-anchor="middle" x="1388" y="-346.8" font-family="Times,serif" font-size="14.00">u0005</text>
</g>
<!-- 9&#45;&gt;5 -->
<g id="edge35" class="edge"><title>9&#45;&gt;5</title>
<path fill="none" stroke="black" d="M1337.67,-406.07C1345.07,-412.425 1354.92,-419.759 1365,-424 1486.04,-474.917 1530.33,-434.393 1657,-469 1660.22,-469.88 1663.55,-470.964 1666.81,-472.138"/>
<polygon fill="black" stroke="black" points="1665.64,-475.44 1676.23,-475.807 1668.18,-468.917 1665.64,-475.44"/>
<text text-anchor="middle" x="1516" y="-456.8" font-family="Times,serif" font-size="14.00">u0003</text>
</g>
<!-- 10&#45;&gt;5 -->
<g id="edge38" class="edge"><title>10&#45;&gt;5</title>
<path fill="none" stroke="black" d="M1086.28,-567.268C1152.36,-568.069 1395.26,-568.965 1593,-543 1621.87,-539.209 1632.45,-544.66 1657,-529 1665.45,-523.61 1672.63,-515.424 1678.25,-507.444"/>
<polygon fill="black" stroke="black" points="1681.22,-509.303 1683.72,-499.008 1675.35,-505.494 1681.22,-509.303"/>
<text text-anchor="middle" x="1388" y="-566.8" font-family="Times,serif" font-size="14.00">u0003</text>
</g>
<!-- 14 -->
<g id="node25" class="node"><title>14</title>
<ellipse fill="none" stroke="black" cx="1196" cy="-520" rx="18" ry="18"/>
</g>
<!-- 10&#45;&gt;14 -->
<g id="edge37" class="edge"><title>10&#45;&gt;14</title>
<path fill="none" stroke="black" d="M1082.18,-555.255C1089.59,-549.245 1099.27,-542.306 1109,-538 1127.71,-529.715 1150.43,-525.17 1167.82,-522.721"/>
<polygon fill="black" stroke="black" points="1168.39,-526.177 1177.87,-521.452 1167.51,-519.232 1168.39,-526.177"/>
<text text-anchor="middle" x="1132" y="-541.8" font-family="Times,serif" font-size="14.00">u0004</text>
</g>
<!-- 14&#45;&gt;5 -->
<g id="edge40" class="edge"><title>14&#45;&gt;5</title>
<path fill="none" stroke="black" d="M1214.09,-521.997C1238.3,-524.649 1283.96,-529 1323,-529 1323,-529 1323,-529 1576,-529 1610.27,-529 1646.49,-511.433 1669.15,-498.01"/>
<polygon fill="black" stroke="black" points="1671.02,-500.971 1677.71,-492.755 1667.36,-495.006 1671.02,-500.971"/>
<text text-anchor="middle" x="1452" y="-532.8" font-family="Times,serif" font-size="14.00">u0003</text>
</g>
<!-- 14&#45;&gt;19 -->
<g id="edge39" class="edge"><title>14&#45;&gt;19</title>
<path fill="none" stroke="black" d="M1212.94,-512.893C1242.62,-498.984 1306.99,-465.593 1347,-421 1358.68,-407.98 1353.08,-398.805 1365,-386 1381.31,-368.48 1395.44,-376.189 1411,-358 1428.22,-337.868 1438.78,-309.305 1444.7,-288.388"/>
<polygon fill="black" stroke="black" points="1448.13,-289.081 1447.31,-278.518 1441.37,-287.292 1448.13,-289.081"/>
<text text-anchor="middle" x="1324" y="-464.8" font-family="Times,serif" font-size="14.00">u0004</text>
</g>
<!-- 14&#45;&gt;17 -->
<g id="edge41" class="edge"><title>14&#45;&gt;17</title>
<path fill="none" stroke="black" d="M1202.52,-503.157C1209.36,-483.186 1221.98,-449.185 1237,-422 1257.31,-385.234 1286.86,-346.365 1305.49,-323.152"/>
<polygon fill="black" stroke="black" points="1308.25,-325.312 1311.83,-315.341 1302.81,-320.903 1308.25,-325.312"/>
<text text-anchor="middle" x="1260" y="-425.8" font-family="Times,serif" font-size="14.00">u0005</text>
</g>
<!-- initial -->
<g id="node26" class="node"><title>initial</title>
</g>
<!-- initial&#45;&gt;0 -->
<g id="edge42" class="edge"><title>initial&#45;&gt;0</title>
<path fill="none" stroke="black" d="M54.195,-664C62.6538,-664 72.0513,-664 80.5951,-664"/>
<polygon fill="black" stroke="black" points="80.8257,-667.5 90.8257,-664 80.8257,-660.5 80.8257,-667.5"/>
</g>
</g>
</svg>
