<svg width="3653px" height="681px"
 viewBox="0.00 0.00 2740.00 511.00" xmlns="http://www.w3.org/2000/svg" xmlns:xlink="http://www.w3.org/1999/xlink">
<g id="graph0" class="graph" transform="scale(1.000022500562514 1.000022500562514) rotate(0) translate(4 507)">
<title>Automaton</title>
<polygon fill="white" stroke="none" points="-4,4 -4,-507 2736,-507 2736,4 -4,4"/>
<!-- 0 -->
<g id="node1" class="node"><title>0</title>
<ellipse fill="none" stroke="black" cx="109" cy="-205" rx="18" ry="18"/>
</g>
<!-- 1 -->
<g id="node2" class="node"><title>1</title>
<ellipse fill="none" stroke="black" cx="227" cy="-205" rx="18" ry="18"/>
</g>
<!-- 0&#45;&gt;1 -->
<g id="edge1" class="edge"><title>0&#45;&gt;1</title>
<path fill="none" stroke="black" d="M127.116,-205C145.964,-205 176.531,-205 198.696,-205"/>
<polygon fill="black" stroke="black" points="198.814,-208.5 208.814,-205 198.814,-201.5 198.814,-208.5"/>
<text text-anchor="middle" x="168" y="-208.8" font-family="Times,serif" font-size="14.00">u0005</text>
</g>
<!-- 2 -->
<g id="node3" class="node"><title>2</title>
<ellipse fill="none" stroke="black" cx="344" cy="-205" rx="18" ry="18"/>
</g>
<!-- 1&#45;&gt;2 -->
<g id="edge2" class="edge"><title>1&#45;&gt;2</title>
<path fill="none" stroke="black" d="M245.466,-205C264.064,-205 293.756,-205 315.499,-205"/>
<polygon fill="black" stroke="black" points="315.746,-208.5 325.746,-205 315.746,-201.5 315.746,-208.5"/>
<text text-anchor="middle" x="285.5" y="-208.8" font-family="Times,serif" font-size="14.00">u000c</text>
</g>
<!-- 3 -->
<g id="node4" class="node"><title>3</title>
<ellipse fill="none" stroke="black" cx="462" cy="-205" rx="18" ry="18"/>
</g>
<!-- 2&#45;&gt;3 -->
<g id="edge3" class="edge"><title>2&#45;&gt;3</title>
<path fill="none" stroke="black" d="M362.116,-205C380.964,-205 411.531,-205 433.696,-205"/>
<polygon fill="black" stroke="black" points="433.814,-208.5 443.814,-205 433.814,-201.5 433.814,-208.5"/>
<text text-anchor="middle" x="403" y="-208.8" font-family="Times,serif" font-size="14.00">u0001</text>
</g>
<!-- 4 -->
<g id="node5" class="node"><title>4</title>
<ellipse fill="none" stroke="black" cx="580" cy="-205" rx="18" ry="18"/>
</g>
<!-- 3&#45;&gt;4 -->
<g id="edge4" class="edge"><title>3&#45;&gt;4</title>
<path fill="none" stroke="black" d="M480.116,-205C498.964,-205 529.531,-205 551.696,-205"/>
<polygon fill="black" stroke="black" points="551.814,-208.5 561.814,-205 551.814,-201.5 551.814,-208.5"/>
<text text-anchor="middle" x="521" y="-208.8" font-family="Times,serif" font-size="14.00">u0008</text>
</g>
<!-- 5 -->
<g id="node6" class="node"><title>5</title>
<ellipse fill="none" stroke="black" cx="698" cy="-205" rx="18" ry="18"/>
</g>
<!-- 4&#45;&gt;5 -->
<g id="edge5" class="edge"><title>4&#45;&gt;5</title>
<path fill="none" stroke="black" d="M598.116,-205C616.964,-205 647.531,-205 669.696,-205"/>
<polygon fill="black" stroke="black" points="669.814,-208.5 679.814,-205 669.814,-201.5 669.814,-208.5"/>
<text text-anchor="middle" x="639" y="-208.8" font-family="Times,serif" font-size="14.00">u0009</text>
</g>
<!-- 6 -->
<g id="node7" class="node"><title>6</title>
<ellipse fill="none" stroke="black" cx="944" cy="-334" rx="18" ry="18"/>
</g>
<!-- 5&#45;&gt;6 -->
<g id="edge6" class="edge"><title>5&#45;&gt;6</title>
<path fill="none" stroke="black" d="M714.263,-213.07C755.344,-234.788 868.52,-294.623 918.606,-321.103"/>
<polygon fill="black" stroke="black" points="917.266,-324.354 927.742,-325.934 920.538,-318.165 917.266,-324.354"/>
<text text-anchor="middle" x="821" y="-283.8" font-family="Times,serif" font-size="14.00">u0003</text>
</g>
<!-- 7 -->
<g id="node39" class="node"><title>7</title>
<ellipse fill="none" stroke="black" cx="1323" cy="-205" rx="18" ry="18"/>
</g>
<!-- 5&#45;&gt;7 -->
<g id="edge7" class="edge"><title>5&#45;&gt;7</title>
<path fill="none" stroke="black" d="M716.232,-205C739.701,-205 783.028,-205 820,-205 820,-205 820,-205 1196,-205 1230.07,-205 1269.32,-205 1294.84,-205"/>
<polygon fill="black" stroke="black" points="1294.88,-208.5 1304.88,-205 1294.88,-201.5 1294.88,-208.5"/>
<text text-anchor="middle" x="1003" y="-208.8" font-family="Times,serif" font-size="14.00">u0002</text>
</g>
<!-- 8 -->
<g id="node55" class="node"><title>8</title>
<ellipse fill="none" stroke="black" cx="821" cy="-126" rx="18" ry="18"/>
</g>
<!-- 5&#45;&gt;8 -->
<g id="edge8" class="edge"><title>5&#45;&gt;8</title>
<path fill="none" stroke="black" d="M711.89,-193.45C718.331,-187.907 726.364,-181.329 734,-176 753.957,-162.074 777.999,-148.33 795.583,-138.787"/>
<polygon fill="black" stroke="black" points="797.46,-141.752 804.62,-133.943 794.153,-135.582 797.46,-141.752"/>
<text text-anchor="middle" x="757" y="-179.8" font-family="Times,serif" font-size="14.00">u0000</text>
</g>
<!-- 9 -->
<g id="node8" class="node"><title>9</title>
<ellipse fill="none" stroke="black" cx="1067" cy="-286" rx="18" ry="18"/>
</g>
<!-- 6&#45;&gt;9 -->
<g id="edge9" class="edge"><title>6&#45;&gt;9</title>
<path fill="none" stroke="black" d="M954.933,-319.346C961.16,-311.378 969.91,-302.128 980,-297 998.113,-287.795 1021.04,-285.239 1038.66,-284.879"/>
<polygon fill="black" stroke="black" points="1038.85,-288.379 1048.86,-284.899 1038.86,-281.38 1038.85,-288.379"/>
<text text-anchor="middle" x="1003" y="-300.8" font-family="Times,serif" font-size="14.00">u000d</text>
</g>
<!-- 10 -->
<g id="node13" class="node"><title>10</title>
<ellipse fill="none" stroke="black" cx="1067" cy="-431" rx="18" ry="18"/>
</g>
<!-- 6&#45;&gt;10 -->
<g id="edge10" class="edge"><title>6&#45;&gt;10</title>
<path fill="none" stroke="black" d="M951.296,-350.71C957.025,-363.966 966.635,-382.171 980,-394 996.968,-409.018 1020.96,-418.652 1039.29,-424.312"/>
<polygon fill="black" stroke="black" points="1038.5,-427.726 1049.08,-427.127 1040.43,-420.999 1038.5,-427.726"/>
<text text-anchor="middle" x="1003" y="-422.8" font-family="Times,serif" font-size="14.00">u0003</text>
</g>
<!-- 11 -->
<g id="node31" class="node"><title>11</title>
<ellipse fill="none" stroke="black" cx="1131" cy="-378" rx="18" ry="18"/>
</g>
<!-- 6&#45;&gt;11 -->
<g id="edge11" class="edge"><title>6&#45;&gt;11</title>
<path fill="none" stroke="black" d="M959.488,-343.273C965.606,-346.81 972.939,-350.572 980,-353 1021.36,-367.223 1072,-373.507 1102.59,-376.171"/>
<polygon fill="black" stroke="black" points="1102.66,-379.687 1112.9,-376.997 1103.21,-372.71 1102.66,-379.687"/>
<text text-anchor="middle" x="1003" y="-367.8" font-family="Times,serif" font-size="14.00">u0002</text>
</g>
<!-- 12 -->
<g id="node35" class="node"><title>12</title>
<ellipse fill="none" stroke="black" cx="1131" cy="-334" rx="18" ry="18"/>
</g>
<!-- 6&#45;&gt;12 -->
<g id="edge12" class="edge"><title>6&#45;&gt;12</title>
<path fill="none" stroke="black" d="M962.073,-334C994.287,-334 1064.27,-334 1102.95,-334"/>
<polygon fill="black" stroke="black" points="1102.97,-337.5 1112.97,-334 1102.97,-330.5 1102.97,-337.5"/>
<text text-anchor="middle" x="1003" y="-337.8" font-family="Times,serif" font-size="14.00">u0000</text>
</g>
<!-- 17 -->
<g id="node9" class="node"><title>17</title>
<ellipse fill="none" stroke="black" cx="1259" cy="-285" rx="18" ry="18"/>
</g>
<!-- 9&#45;&gt;17 -->
<g id="edge13" class="edge"><title>9&#45;&gt;17</title>
<path fill="none" stroke="black" d="M1085.2,-285.909C1118.33,-285.735 1191.25,-285.351 1230.95,-285.142"/>
<polygon fill="black" stroke="black" points="1231,-288.642 1240.98,-285.09 1230.96,-281.642 1231,-288.642"/>
<text text-anchor="middle" x="1131" y="-288.8" font-family="Times,serif" font-size="14.00">u0011</text>
</g>
<!-- 26 -->
<g id="node10" class="node"><title>26</title>
<ellipse fill="none" stroke="black" cx="2465" cy="-227" rx="18" ry="18"/>
</g>
<!-- 17&#45;&gt;26 -->
<g id="edge14" class="edge"><title>17&#45;&gt;26</title>
<path fill="none" stroke="black" d="M1277.12,-285C1301.36,-285 1347.06,-285 1386,-285 1386,-285 1386,-285 2343,-285 2381.01,-285 2419.72,-261.441 2442.8,-244.353"/>
<polygon fill="black" stroke="black" points="2445.04,-247.046 2450.84,-238.183 2440.78,-241.491 2445.04,-247.046"/>
<text text-anchor="middle" x="1835" y="-288.8" font-family="Times,serif" font-size="14.00">u000f</text>
</g>
<!-- 35 -->
<g id="node11" class="node"><title>35</title>
<ellipse fill="none" stroke="black" cx="2588" cy="-180" rx="18" ry="18"/>
</g>
<!-- 26&#45;&gt;35 -->
<g id="edge15" class="edge"><title>26&#45;&gt;35</title>
<path fill="none" stroke="black" d="M2482.19,-220.864C2499.5,-214.288 2527.73,-203.51 2552,-194 2555.11,-192.782 2558.37,-191.494 2561.59,-190.212"/>
<polygon fill="black" stroke="black" points="2563,-193.419 2570.99,-186.46 2560.4,-186.918 2563,-193.419"/>
<text text-anchor="middle" x="2529" y="-214.8" font-family="Times,serif" font-size="14.00">u000e</text>
</g>
<!-- 45 -->
<g id="node12" class="node"><title>45</title>
<ellipse fill="none" stroke="black" cx="2710" cy="-180" rx="18" ry="18"/>
<ellipse fill="none" stroke="black" cx="2710" cy="-180" rx="22" ry="22"/>
</g>
<!-- 35&#45;&gt;45 -->
<g id="edge16" class="edge"><title>35&#45;&gt;45</title>
<path fill="none" stroke="black" d="M2606.19,-180C2624.77,-180 2654.76,-180 2677.57,-180"/>
<polygon fill="black" stroke="black" points="2677.79,-183.5 2687.79,-180 2677.79,-176.5 2677.79,-183.5"/>
<text text-anchor="middle" x="2647" y="-183.8" font-family="Times,serif" font-size="14.00">u000b</text>
</g>
<!-- 18 -->
<g id="node14" class="node"><title>18</title>
<ellipse fill="none" stroke="black" cx="1259" cy="-483" rx="18" ry="18"/>
</g>
<!-- 10&#45;&gt;18 -->
<g id="edge17" class="edge"><title>10&#45;&gt;18</title>
<path fill="none" stroke="black" d="M1083.23,-439.239C1090.56,-442.938 1099.56,-447.11 1108,-450 1149.79,-464.313 1200.3,-473.921 1230.75,-478.919"/>
<polygon fill="black" stroke="black" points="1230.59,-482.436 1241.01,-480.552 1231.69,-475.523 1230.59,-482.436"/>
<text text-anchor="middle" x="1131" y="-465.8" font-family="Times,serif" font-size="14.00">u000d</text>
</g>
<!-- 19 -->
<g id="node21" class="node"><title>19</title>
<ellipse fill="none" stroke="black" cx="1195" cy="-431" rx="18" ry="18"/>
</g>
<!-- 10&#45;&gt;19 -->
<g id="edge18" class="edge"><title>10&#45;&gt;19</title>
<path fill="none" stroke="black" d="M1085.26,-431C1106.27,-431 1142.03,-431 1166.77,-431"/>
<polygon fill="black" stroke="black" points="1166.95,-434.5 1176.95,-431 1166.95,-427.5 1166.95,-434.5"/>
<text text-anchor="middle" x="1131" y="-434.8" font-family="Times,serif" font-size="14.00">u0003</text>
</g>
<!-- 27 -->
<g id="node15" class="node"><title>27</title>
<ellipse fill="none" stroke="black" cx="1387" cy="-485" rx="18" ry="18"/>
</g>
<!-- 18&#45;&gt;27 -->
<g id="edge19" class="edge"><title>18&#45;&gt;27</title>
<path fill="none" stroke="black" d="M1277.26,-483.274C1298.27,-483.608 1334.03,-484.175 1358.77,-484.568"/>
<polygon fill="black" stroke="black" points="1358.9,-488.07 1368.95,-484.729 1359.01,-481.071 1358.9,-488.07"/>
<text text-anchor="middle" x="1323" y="-487.8" font-family="Times,serif" font-size="14.00">u0011</text>
</g>
<!-- 36 -->
<g id="node16" class="node"><title>36</title>
<ellipse fill="none" stroke="black" cx="1515" cy="-485" rx="18" ry="18"/>
</g>
<!-- 27&#45;&gt;36 -->
<g id="edge20" class="edge"><title>27&#45;&gt;36</title>
<path fill="none" stroke="black" d="M1405.26,-485C1426.27,-485 1462.03,-485 1486.77,-485"/>
<polygon fill="black" stroke="black" points="1486.95,-488.5 1496.95,-485 1486.95,-481.5 1486.95,-488.5"/>
<text text-anchor="middle" x="1451" y="-488.8" font-family="Times,serif" font-size="14.00">u000f</text>
</g>
<!-- 46 -->
<g id="node17" class="node"><title>46</title>
<ellipse fill="none" stroke="black" cx="1643" cy="-485" rx="18" ry="18"/>
</g>
<!-- 36&#45;&gt;46 -->
<g id="edge21" class="edge"><title>36&#45;&gt;46</title>
<path fill="none" stroke="black" d="M1533.26,-485C1554.27,-485 1590.03,-485 1614.77,-485"/>
<polygon fill="black" stroke="black" points="1614.95,-488.5 1624.95,-485 1614.95,-481.5 1614.95,-488.5"/>
<text text-anchor="middle" x="1579" y="-488.8" font-family="Times,serif" font-size="14.00">u000e</text>
</g>
<!-- 54 -->
<g id="node18" class="node"><title>54</title>
<ellipse fill="none" stroke="black" cx="1771" cy="-484" rx="18" ry="18"/>
</g>
<!-- 46&#45;&gt;54 -->
<g id="edge22" class="edge"><title>46&#45;&gt;54</title>
<path fill="none" stroke="black" d="M1661.26,-484.863C1682.27,-484.696 1718.03,-484.412 1742.77,-484.216"/>
<polygon fill="black" stroke="black" points="1742.98,-487.715 1752.95,-484.135 1742.93,-480.715 1742.98,-487.715"/>
<text text-anchor="middle" x="1707" y="-487.8" font-family="Times,serif" font-size="14.00">u0006</text>
</g>
<!-- 62 -->
<g id="node19" class="node"><title>62</title>
<ellipse fill="none" stroke="black" cx="1899" cy="-479" rx="18" ry="18"/>
</g>
<!-- 54&#45;&gt;62 -->
<g id="edge23" class="edge"><title>54&#45;&gt;62</title>
<path fill="none" stroke="black" d="M1788.99,-483.326C1809.94,-482.494 1845.81,-481.071 1870.65,-480.085"/>
<polygon fill="black" stroke="black" points="1871.02,-483.573 1880.87,-479.68 1870.74,-476.579 1871.02,-483.573"/>
<text text-anchor="middle" x="1835" y="-485.8" font-family="Times,serif" font-size="14.00">u0004</text>
</g>
<!-- 56 -->
<g id="node20" class="node"><title>56</title>
<ellipse fill="none" stroke="black" cx="2465" cy="-380" rx="18" ry="18"/>
</g>
<!-- 62&#45;&gt;56 -->
<g id="edge24" class="edge"><title>62&#45;&gt;56</title>
<path fill="none" stroke="black" d="M1917.11,-478.112C1941.34,-476.934 1987.04,-475 2026,-475 2026,-475 2026,-475 2343,-475 2389.27,-475 2428.33,-431.49 2448.75,-403.361"/>
<polygon fill="black" stroke="black" points="2451.84,-405.044 2454.71,-394.844 2446.11,-401.031 2451.84,-405.044"/>
<text text-anchor="middle" x="2155" y="-478.8" font-family="Times,serif" font-size="14.00">u0010</text>
</g>
<!-- 56&#45;&gt;35 -->
<g id="edge25" class="edge"><title>56&#45;&gt;35</title>
<path fill="none" stroke="black" d="M2475.09,-364.967C2495.94,-330.509 2547.32,-245.588 2572.55,-203.886"/>
<polygon fill="black" stroke="black" points="2575.62,-205.575 2577.8,-195.207 2569.63,-201.951 2575.62,-205.575"/>
<text text-anchor="middle" x="2529" y="-312.8" font-family="Times,serif" font-size="14.00">u0004</text>
</g>
<!-- 28 -->
<g id="node22" class="node"><title>28</title>
<ellipse fill="none" stroke="black" cx="1323" cy="-431" rx="18" ry="18"/>
</g>
<!-- 19&#45;&gt;28 -->
<g id="edge26" class="edge"><title>19&#45;&gt;28</title>
<path fill="none" stroke="black" d="M1213.26,-431C1234.27,-431 1270.03,-431 1294.77,-431"/>
<polygon fill="black" stroke="black" points="1294.95,-434.5 1304.95,-431 1294.95,-427.5 1294.95,-434.5"/>
<text text-anchor="middle" x="1259" y="-434.8" font-family="Times,serif" font-size="14.00">u0002</text>
</g>
<!-- 37 -->
<g id="node23" class="node"><title>37</title>
<ellipse fill="none" stroke="black" cx="1451" cy="-431" rx="18" ry="18"/>
</g>
<!-- 28&#45;&gt;37 -->
<g id="edge27" class="edge"><title>28&#45;&gt;37</title>
<path fill="none" stroke="black" d="M1341.26,-431C1362.27,-431 1398.03,-431 1422.77,-431"/>
<polygon fill="black" stroke="black" points="1422.95,-434.5 1432.95,-431 1422.95,-427.5 1422.95,-434.5"/>
<text text-anchor="middle" x="1387" y="-434.8" font-family="Times,serif" font-size="14.00">u0003</text>
</g>
<!-- 47 -->
<g id="node24" class="node"><title>47</title>
<ellipse fill="none" stroke="black" cx="1579" cy="-431" rx="18" ry="18"/>
</g>
<!-- 37&#45;&gt;47 -->
<g id="edge28" class="edge"><title>37&#45;&gt;47</title>
<path fill="none" stroke="black" d="M1469.26,-431C1490.27,-431 1526.03,-431 1550.77,-431"/>
<polygon fill="black" stroke="black" points="1550.95,-434.5 1560.95,-431 1550.95,-427.5 1550.95,-434.5"/>
<text text-anchor="middle" x="1515" y="-434.8" font-family="Times,serif" font-size="14.00">u0000</text>
</g>
<!-- 55 -->
<g id="node25" class="node"><title>55</title>
<ellipse fill="none" stroke="black" cx="1707" cy="-431" rx="18" ry="18"/>
</g>
<!-- 47&#45;&gt;55 -->
<g id="edge29" class="edge"><title>47&#45;&gt;55</title>
<path fill="none" stroke="black" d="M1597.26,-431C1618.27,-431 1654.03,-431 1678.77,-431"/>
<polygon fill="black" stroke="black" points="1678.95,-434.5 1688.95,-431 1678.95,-427.5 1678.95,-434.5"/>
<text text-anchor="middle" x="1643" y="-434.8" font-family="Times,serif" font-size="14.00">u0003</text>
</g>
<!-- 63 -->
<g id="node26" class="node"><title>63</title>
<ellipse fill="none" stroke="black" cx="1835" cy="-427" rx="18" ry="18"/>
</g>
<!-- 55&#45;&gt;63 -->
<g id="edge30" class="edge"><title>55&#45;&gt;63</title>
<path fill="none" stroke="black" d="M1724.99,-430.461C1745.94,-429.796 1781.81,-428.657 1806.65,-427.868"/>
<polygon fill="black" stroke="black" points="1806.99,-431.359 1816.87,-427.544 1806.77,-424.363 1806.99,-431.359"/>
<text text-anchor="middle" x="1771" y="-432.8" font-family="Times,serif" font-size="14.00">u0002</text>
</g>
<!-- 69 -->
<g id="node27" class="node"><title>69</title>
<ellipse fill="none" stroke="black" cx="1963" cy="-426" rx="18" ry="18"/>
</g>
<!-- 63&#45;&gt;69 -->
<g id="edge31" class="edge"><title>63&#45;&gt;69</title>
<path fill="none" stroke="black" d="M1853.26,-426.863C1874.27,-426.696 1910.03,-426.412 1934.77,-426.216"/>
<polygon fill="black" stroke="black" points="1934.98,-429.715 1944.95,-426.135 1934.93,-422.715 1934.98,-429.715"/>
<text text-anchor="middle" x="1899" y="-429.8" font-family="Times,serif" font-size="14.00">u000d</text>
</g>
<!-- 74 -->
<g id="node28" class="node"><title>74</title>
<ellipse fill="none" stroke="black" cx="2091" cy="-426" rx="18" ry="18"/>
</g>
<!-- 69&#45;&gt;74 -->
<g id="edge32" class="edge"><title>69&#45;&gt;74</title>
<path fill="none" stroke="black" d="M1981.26,-426C2002.27,-426 2038.03,-426 2062.77,-426"/>
<polygon fill="black" stroke="black" points="2062.95,-429.5 2072.95,-426 2062.95,-422.5 2062.95,-429.5"/>
<text text-anchor="middle" x="2027" y="-429.8" font-family="Times,serif" font-size="14.00">u0011</text>
</g>
<!-- 77 -->
<g id="node29" class="node"><title>77</title>
<ellipse fill="none" stroke="black" cx="2219" cy="-426" rx="18" ry="18"/>
</g>
<!-- 74&#45;&gt;77 -->
<g id="edge33" class="edge"><title>74&#45;&gt;77</title>
<path fill="none" stroke="black" d="M2109.26,-426C2130.27,-426 2166.03,-426 2190.77,-426"/>
<polygon fill="black" stroke="black" points="2190.95,-429.5 2200.95,-426 2190.95,-422.5 2190.95,-429.5"/>
<text text-anchor="middle" x="2155" y="-429.8" font-family="Times,serif" font-size="14.00">u000f</text>
</g>
<!-- 48 -->
<g id="node30" class="node"><title>48</title>
<ellipse fill="none" stroke="black" cx="2342" cy="-380" rx="18" ry="18"/>
</g>
<!-- 77&#45;&gt;48 -->
<g id="edge34" class="edge"><title>77&#45;&gt;48</title>
<path fill="none" stroke="black" d="M2236.21,-420.101C2253.53,-413.767 2281.77,-403.35 2306,-394 2309.11,-392.798 2312.38,-391.52 2315.6,-390.242"/>
<polygon fill="black" stroke="black" points="2317.01,-393.45 2325,-386.494 2314.42,-386.948 2317.01,-393.45"/>
<text text-anchor="middle" x="2283" y="-413.8" font-family="Times,serif" font-size="14.00">u0006</text>
</g>
<!-- 48&#45;&gt;56 -->
<g id="edge35" class="edge"><title>48&#45;&gt;56</title>
<path fill="none" stroke="black" d="M2360.08,-380C2379.96,-380 2413.08,-380 2436.58,-380"/>
<polygon fill="black" stroke="black" points="2436.62,-383.5 2446.62,-380 2436.62,-376.5 2436.62,-383.5"/>
<text text-anchor="middle" x="2401" y="-383.8" font-family="Times,serif" font-size="14.00">u0004</text>
</g>
<!-- 20 -->
<g id="node32" class="node"><title>20</title>
<ellipse fill="none" stroke="black" cx="1259" cy="-380" rx="18" ry="18"/>
</g>
<!-- 11&#45;&gt;20 -->
<g id="edge36" class="edge"><title>11&#45;&gt;20</title>
<path fill="none" stroke="black" d="M1149.26,-378.274C1170.27,-378.608 1206.03,-379.175 1230.77,-379.568"/>
<polygon fill="black" stroke="black" points="1230.9,-383.07 1240.95,-379.729 1231.01,-376.071 1230.9,-383.07"/>
<text text-anchor="middle" x="1195" y="-382.8" font-family="Times,serif" font-size="14.00">u0002</text>
</g>
<!-- 29 -->
<g id="node33" class="node"><title>29</title>
<ellipse fill="none" stroke="black" cx="1387" cy="-380" rx="18" ry="18"/>
</g>
<!-- 20&#45;&gt;29 -->
<g id="edge37" class="edge"><title>20&#45;&gt;29</title>
<path fill="none" stroke="black" d="M1277.26,-380C1298.27,-380 1334.03,-380 1358.77,-380"/>
<polygon fill="black" stroke="black" points="1358.95,-383.5 1368.95,-380 1358.95,-376.5 1358.95,-383.5"/>
<text text-anchor="middle" x="1323" y="-383.8" font-family="Times,serif" font-size="14.00">u000d</text>
</g>
<!-- 38 -->
<g id="node34" class="node"><title>38</title>
<ellipse fill="none" stroke="black" cx="2027" cy="-380" rx="18" ry="18"/>
</g>
<!-- 29&#45;&gt;38 -->
<g id="edge38" class="edge"><title>29&#45;&gt;38</title>
<path fill="none" stroke="black" d="M1405.12,-380C1429.36,-380 1475.06,-380 1514,-380 1514,-380 1514,-380 1900,-380 1934.07,-380 1973.32,-380 1998.84,-380"/>
<polygon fill="black" stroke="black" points="1998.88,-383.5 2008.88,-380 1998.88,-376.5 1998.88,-383.5"/>
<text text-anchor="middle" x="1707" y="-383.8" font-family="Times,serif" font-size="14.00">u0011</text>
</g>
<!-- 38&#45;&gt;48 -->
<g id="edge39" class="edge"><title>38&#45;&gt;48</title>
<path fill="none" stroke="black" d="M2045.27,-380C2096.9,-380 2250.34,-380 2313.43,-380"/>
<polygon fill="black" stroke="black" points="2313.78,-383.5 2323.78,-380 2313.78,-376.5 2313.78,-383.5"/>
<text text-anchor="middle" x="2155" y="-383.8" font-family="Times,serif" font-size="14.00">u000f</text>
</g>
<!-- 21 -->
<g id="node36" class="node"><title>21</title>
<ellipse fill="none" stroke="black" cx="1387" cy="-334" rx="18" ry="18"/>
</g>
<!-- 12&#45;&gt;21 -->
<g id="edge40" class="edge"><title>12&#45;&gt;21</title>
<path fill="none" stroke="black" d="M1149.06,-334C1192.16,-334 1305.71,-334 1358.41,-334"/>
<polygon fill="black" stroke="black" points="1358.68,-337.5 1368.68,-334 1358.68,-330.5 1358.68,-337.5"/>
<text text-anchor="middle" x="1259" y="-337.8" font-family="Times,serif" font-size="14.00">u000d</text>
</g>
<!-- 30 -->
<g id="node37" class="node"><title>30</title>
<ellipse fill="none" stroke="black" cx="1515" cy="-334" rx="18" ry="18"/>
</g>
<!-- 21&#45;&gt;30 -->
<g id="edge41" class="edge"><title>21&#45;&gt;30</title>
<path fill="none" stroke="black" d="M1405.26,-334C1426.27,-334 1462.03,-334 1486.77,-334"/>
<polygon fill="black" stroke="black" points="1486.95,-337.5 1496.95,-334 1486.95,-330.5 1486.95,-337.5"/>
<text text-anchor="middle" x="1451" y="-337.8" font-family="Times,serif" font-size="14.00">u0011</text>
</g>
<!-- 39 -->
<g id="node38" class="node"><title>39</title>
<ellipse fill="none" stroke="black" cx="2155" cy="-336" rx="18" ry="18"/>
</g>
<!-- 30&#45;&gt;39 -->
<g id="edge42" class="edge"><title>30&#45;&gt;39</title>
<path fill="none" stroke="black" d="M1533.06,-334.053C1620.52,-334.328 2018.58,-335.575 2126.78,-335.915"/>
<polygon fill="black" stroke="black" points="2126.87,-339.415 2136.88,-335.946 2126.89,-332.415 2126.87,-339.415"/>
<text text-anchor="middle" x="1835" y="-338.8" font-family="Times,serif" font-size="14.00">u000f</text>
</g>
<!-- 39&#45;&gt;48 -->
<g id="edge43" class="edge"><title>39&#45;&gt;48</title>
<path fill="none" stroke="black" d="M2172.94,-338.171C2201.05,-342.042 2258.89,-351.149 2306,-366 2309.18,-367.003 2312.49,-368.163 2315.74,-369.376"/>
<polygon fill="black" stroke="black" points="2314.57,-372.676 2325.15,-373.075 2317.13,-366.161 2314.57,-372.676"/>
<text text-anchor="middle" x="2219" y="-352.8" font-family="Times,serif" font-size="14.00">u0010</text>
</g>
<!-- 13 -->
<g id="node40" class="node"><title>13</title>
<ellipse fill="none" stroke="black" cx="1451" cy="-230" rx="18" ry="18"/>
</g>
<!-- 7&#45;&gt;13 -->
<g id="edge44" class="edge"><title>7&#45;&gt;13</title>
<path fill="none" stroke="black" d="M1340.73,-208.32C1361.82,-212.504 1398.32,-219.746 1423.28,-224.699"/>
<polygon fill="black" stroke="black" points="1422.71,-228.153 1433.2,-226.666 1424.07,-221.287 1422.71,-228.153"/>
<text text-anchor="middle" x="1387" y="-224.8" font-family="Times,serif" font-size="14.00">u000d</text>
</g>
<!-- 14 -->
<g id="node48" class="node"><title>14</title>
<ellipse fill="none" stroke="black" cx="1515" cy="-181" rx="18" ry="18"/>
</g>
<!-- 7&#45;&gt;14 -->
<g id="edge45" class="edge"><title>7&#45;&gt;14</title>
<path fill="none" stroke="black" d="M1340.58,-199.712C1347.72,-197.626 1356.2,-195.398 1364,-194 1406.39,-186.399 1456.35,-183.197 1486.58,-181.88"/>
<polygon fill="black" stroke="black" points="1486.92,-185.37 1496.77,-181.476 1486.64,-178.375 1486.92,-185.37"/>
<text text-anchor="middle" x="1387" y="-197.8" font-family="Times,serif" font-size="14.00">u0000</text>
</g>
<!-- 22 -->
<g id="node41" class="node"><title>22</title>
<ellipse fill="none" stroke="black" cx="1579" cy="-231" rx="18" ry="18"/>
</g>
<!-- 13&#45;&gt;22 -->
<g id="edge46" class="edge"><title>13&#45;&gt;22</title>
<path fill="none" stroke="black" d="M1469.26,-230.137C1490.27,-230.304 1526.03,-230.588 1550.77,-230.784"/>
<polygon fill="black" stroke="black" points="1550.93,-234.285 1560.95,-230.865 1550.98,-227.285 1550.93,-234.285"/>
<text text-anchor="middle" x="1515" y="-233.8" font-family="Times,serif" font-size="14.00">u0011</text>
</g>
<!-- 31 -->
<g id="node42" class="node"><title>31</title>
<ellipse fill="none" stroke="black" cx="1707" cy="-231" rx="18" ry="18"/>
</g>
<!-- 22&#45;&gt;31 -->
<g id="edge47" class="edge"><title>22&#45;&gt;31</title>
<path fill="none" stroke="black" d="M1597.26,-231C1618.27,-231 1654.03,-231 1678.77,-231"/>
<polygon fill="black" stroke="black" points="1678.95,-234.5 1688.95,-231 1678.95,-227.5 1678.95,-234.5"/>
<text text-anchor="middle" x="1643" y="-234.8" font-family="Times,serif" font-size="14.00">u000f</text>
</g>
<!-- 40 -->
<g id="node43" class="node"><title>40</title>
<ellipse fill="none" stroke="black" cx="1835" cy="-231" rx="18" ry="18"/>
</g>
<!-- 31&#45;&gt;40 -->
<g id="edge48" class="edge"><title>31&#45;&gt;40</title>
<path fill="none" stroke="black" d="M1725.26,-231C1746.27,-231 1782.03,-231 1806.77,-231"/>
<polygon fill="black" stroke="black" points="1806.95,-234.5 1816.95,-231 1806.95,-227.5 1806.95,-234.5"/>
<text text-anchor="middle" x="1771" y="-234.8" font-family="Times,serif" font-size="14.00">u0004</text>
</g>
<!-- 49 -->
<g id="node44" class="node"><title>49</title>
<ellipse fill="none" stroke="black" cx="1963" cy="-231" rx="18" ry="18"/>
</g>
<!-- 40&#45;&gt;49 -->
<g id="edge49" class="edge"><title>40&#45;&gt;49</title>
<path fill="none" stroke="black" d="M1853.26,-231C1874.27,-231 1910.03,-231 1934.77,-231"/>
<polygon fill="black" stroke="black" points="1934.95,-234.5 1944.95,-231 1934.95,-227.5 1934.95,-234.5"/>
<text text-anchor="middle" x="1899" y="-234.8" font-family="Times,serif" font-size="14.00">u000e</text>
</g>
<!-- 57 -->
<g id="node45" class="node"><title>57</title>
<ellipse fill="none" stroke="black" cx="2091" cy="-231" rx="18" ry="18"/>
</g>
<!-- 49&#45;&gt;57 -->
<g id="edge50" class="edge"><title>49&#45;&gt;57</title>
<path fill="none" stroke="black" d="M1981.26,-231C2002.27,-231 2038.03,-231 2062.77,-231"/>
<polygon fill="black" stroke="black" points="2062.95,-234.5 2072.95,-231 2062.95,-227.5 2062.95,-234.5"/>
<text text-anchor="middle" x="2027" y="-234.8" font-family="Times,serif" font-size="14.00">u000a</text>
</g>
<!-- 64 -->
<g id="node46" class="node"><title>64</title>
<ellipse fill="none" stroke="black" cx="2219" cy="-231" rx="18" ry="18"/>
</g>
<!-- 57&#45;&gt;64 -->
<g id="edge51" class="edge"><title>57&#45;&gt;64</title>
<path fill="none" stroke="black" d="M2109.26,-231C2130.27,-231 2166.03,-231 2190.77,-231"/>
<polygon fill="black" stroke="black" points="2190.95,-234.5 2200.95,-231 2190.95,-227.5 2190.95,-234.5"/>
<text text-anchor="middle" x="2155" y="-234.8" font-family="Times,serif" font-size="14.00">u0010</text>
</g>
<!-- 70 -->
<g id="node47" class="node"><title>70</title>
<ellipse fill="none" stroke="black" cx="2342" cy="-228" rx="18" ry="18"/>
</g>
<!-- 64&#45;&gt;70 -->
<g id="edge52" class="edge"><title>64&#45;&gt;70</title>
<path fill="none" stroke="black" d="M2237.08,-230.577C2256.96,-230.084 2290.08,-229.263 2313.58,-228.68"/>
<polygon fill="black" stroke="black" points="2313.71,-232.178 2323.62,-228.431 2313.53,-225.18 2313.71,-232.178"/>
<text text-anchor="middle" x="2283" y="-232.8" font-family="Times,serif" font-size="14.00">u000e</text>
</g>
<!-- 70&#45;&gt;26 -->
<g id="edge53" class="edge"><title>70&#45;&gt;26</title>
<path fill="none" stroke="black" d="M2360.08,-227.859C2379.96,-227.695 2413.08,-227.421 2436.58,-227.227"/>
<polygon fill="black" stroke="black" points="2436.64,-230.726 2446.62,-227.144 2436.59,-223.727 2436.64,-230.726"/>
<text text-anchor="middle" x="2401" y="-230.8" font-family="Times,serif" font-size="14.00">u0006</text>
</g>
<!-- 23 -->
<g id="node49" class="node"><title>23</title>
<ellipse fill="none" stroke="black" cx="1643" cy="-180" rx="18" ry="18"/>
</g>
<!-- 14&#45;&gt;23 -->
<g id="edge54" class="edge"><title>14&#45;&gt;23</title>
<path fill="none" stroke="black" d="M1533.26,-180.863C1554.27,-180.696 1590.03,-180.412 1614.77,-180.216"/>
<polygon fill="black" stroke="black" points="1614.98,-183.715 1624.95,-180.135 1614.93,-176.715 1614.98,-183.715"/>
<text text-anchor="middle" x="1579" y="-184.8" font-family="Times,serif" font-size="14.00">u0002</text>
</g>
<!-- 32 -->
<g id="node50" class="node"><title>32</title>
<ellipse fill="none" stroke="black" cx="1771" cy="-180" rx="18" ry="18"/>
</g>
<!-- 23&#45;&gt;32 -->
<g id="edge55" class="edge"><title>23&#45;&gt;32</title>
<path fill="none" stroke="black" d="M1661.26,-180C1682.27,-180 1718.03,-180 1742.77,-180"/>
<polygon fill="black" stroke="black" points="1742.95,-183.5 1752.95,-180 1742.95,-176.5 1742.95,-183.5"/>
<text text-anchor="middle" x="1707" y="-183.8" font-family="Times,serif" font-size="14.00">u0000</text>
</g>
<!-- 41 -->
<g id="node51" class="node"><title>41</title>
<ellipse fill="none" stroke="black" cx="1899" cy="-180" rx="18" ry="18"/>
</g>
<!-- 32&#45;&gt;41 -->
<g id="edge56" class="edge"><title>32&#45;&gt;41</title>
<path fill="none" stroke="black" d="M1789.26,-180C1810.27,-180 1846.03,-180 1870.77,-180"/>
<polygon fill="black" stroke="black" points="1870.95,-183.5 1880.95,-180 1870.95,-176.5 1870.95,-183.5"/>
<text text-anchor="middle" x="1835" y="-183.8" font-family="Times,serif" font-size="14.00">u0003</text>
</g>
<!-- 50 -->
<g id="node52" class="node"><title>50</title>
<ellipse fill="none" stroke="black" cx="2027" cy="-180" rx="18" ry="18"/>
</g>
<!-- 41&#45;&gt;50 -->
<g id="edge57" class="edge"><title>41&#45;&gt;50</title>
<path fill="none" stroke="black" d="M1917.26,-180C1938.27,-180 1974.03,-180 1998.77,-180"/>
<polygon fill="black" stroke="black" points="1998.95,-183.5 2008.95,-180 1998.95,-176.5 1998.95,-183.5"/>
<text text-anchor="middle" x="1963" y="-183.8" font-family="Times,serif" font-size="14.00">u000d</text>
</g>
<!-- 58 -->
<g id="node53" class="node"><title>58</title>
<ellipse fill="none" stroke="black" cx="2155" cy="-180" rx="18" ry="18"/>
</g>
<!-- 50&#45;&gt;58 -->
<g id="edge58" class="edge"><title>50&#45;&gt;58</title>
<path fill="none" stroke="black" d="M2045.26,-180C2066.27,-180 2102.03,-180 2126.77,-180"/>
<polygon fill="black" stroke="black" points="2126.95,-183.5 2136.95,-180 2126.95,-176.5 2126.95,-183.5"/>
<text text-anchor="middle" x="2091" y="-183.8" font-family="Times,serif" font-size="14.00">u0011</text>
</g>
<!-- 65 -->
<g id="node54" class="node"><title>65</title>
<ellipse fill="none" stroke="black" cx="2283" cy="-180" rx="18" ry="18"/>
</g>
<!-- 58&#45;&gt;65 -->
<g id="edge59" class="edge"><title>58&#45;&gt;65</title>
<path fill="none" stroke="black" d="M2173.26,-180C2194.27,-180 2230.03,-180 2254.77,-180"/>
<polygon fill="black" stroke="black" points="2254.95,-183.5 2264.95,-180 2254.95,-176.5 2254.95,-183.5"/>
<text text-anchor="middle" x="2219" y="-183.8" font-family="Times,serif" font-size="14.00">u000f</text>
</g>
<!-- 65&#45;&gt;35 -->
<g id="edge60" class="edge"><title>65&#45;&gt;35</title>
<path fill="none" stroke="black" d="M2301.16,-180C2351.35,-180 2498.21,-180 2559.57,-180"/>
<polygon fill="black" stroke="black" points="2559.65,-183.5 2569.65,-180 2559.65,-176.5 2559.65,-183.5"/>
<text text-anchor="middle" x="2401" y="-183.8" font-family="Times,serif" font-size="14.00">u000a</text>
</g>
<!-- 15 -->
<g id="node56" class="node"><title>15</title>
<ellipse fill="none" stroke="black" cx="1003" cy="-75" rx="18" ry="18"/>
</g>
<!-- 8&#45;&gt;15 -->
<g id="edge61" class="edge"><title>8&#45;&gt;15</title>
<path fill="none" stroke="black" d="M837.245,-117.792C844.572,-114.1 853.575,-109.924 862,-107 900.221,-93.7339 946.238,-84.4285 974.811,-79.3929"/>
<polygon fill="black" stroke="black" points="975.59,-82.8106 984.855,-77.6726 974.408,-75.911 975.59,-82.8106"/>
<text text-anchor="middle" x="885" y="-110.8" font-family="Times,serif" font-size="14.00">u000d</text>
</g>
<!-- 16 -->
<g id="node73" class="node"><title>16</title>
<ellipse fill="none" stroke="black" cx="944" cy="-126" rx="18" ry="18"/>
</g>
<!-- 8&#45;&gt;16 -->
<g id="edge62" class="edge"><title>8&#45;&gt;16</title>
<path fill="none" stroke="black" d="M839.08,-126C858.965,-126 892.077,-126 915.577,-126"/>
<polygon fill="black" stroke="black" points="915.615,-129.5 925.615,-126 915.615,-122.5 915.615,-129.5"/>
<text text-anchor="middle" x="885" y="-129.8" font-family="Times,serif" font-size="14.00">u0003</text>
</g>
<!-- 24 -->
<g id="node57" class="node"><title>24</title>
<ellipse fill="none" stroke="black" cx="1195" cy="-72" rx="18" ry="18"/>
</g>
<!-- 15&#45;&gt;24 -->
<g id="edge63" class="edge"><title>15&#45;&gt;24</title>
<path fill="none" stroke="black" d="M1021.2,-74.7285C1054.33,-74.2053 1127.25,-73.0539 1166.95,-72.427"/>
<polygon fill="black" stroke="black" points="1167.04,-75.9263 1176.98,-72.2687 1166.93,-68.9272 1167.04,-75.9263"/>
<text text-anchor="middle" x="1067" y="-78.8" font-family="Times,serif" font-size="14.00">u0011</text>
</g>
<!-- 33 -->
<g id="node58" class="node"><title>33</title>
<ellipse fill="none" stroke="black" cx="1323" cy="-72" rx="18" ry="18"/>
</g>
<!-- 24&#45;&gt;33 -->
<g id="edge64" class="edge"><title>24&#45;&gt;33</title>
<path fill="none" stroke="black" d="M1213.26,-72C1234.27,-72 1270.03,-72 1294.77,-72"/>
<polygon fill="black" stroke="black" points="1294.95,-75.5001 1304.95,-72 1294.95,-68.5001 1294.95,-75.5001"/>
<text text-anchor="middle" x="1259" y="-75.8" font-family="Times,serif" font-size="14.00">u000f</text>
</g>
<!-- 42 -->
<g id="node59" class="node"><title>42</title>
<ellipse fill="none" stroke="black" cx="1451" cy="-72" rx="18" ry="18"/>
</g>
<!-- 33&#45;&gt;42 -->
<g id="edge65" class="edge"><title>33&#45;&gt;42</title>
<path fill="none" stroke="black" d="M1341.26,-72C1362.27,-72 1398.03,-72 1422.77,-72"/>
<polygon fill="black" stroke="black" points="1422.95,-75.5001 1432.95,-72 1422.95,-68.5001 1422.95,-75.5001"/>
<text text-anchor="middle" x="1387" y="-75.8" font-family="Times,serif" font-size="14.00">u000a</text>
</g>
<!-- 43 -->
<g id="node68" class="node"><title>43</title>
<ellipse fill="none" stroke="black" cx="1451" cy="-18" rx="18" ry="18"/>
</g>
<!-- 33&#45;&gt;43 -->
<g id="edge66" class="edge"><title>33&#45;&gt;43</title>
<path fill="none" stroke="black" d="M1339.48,-64.3939C1346.86,-60.8337 1355.84,-56.5955 1364,-53 1384.22,-44.0903 1407.45,-34.6859 1424.66,-27.8717"/>
<polygon fill="black" stroke="black" points="1426.01,-31.1021 1434.04,-24.1823 1423.45,-24.5886 1426.01,-31.1021"/>
<text text-anchor="middle" x="1387" y="-56.8" font-family="Times,serif" font-size="14.00">u000e</text>
</g>
<!-- 51 -->
<g id="node60" class="node"><title>51</title>
<ellipse fill="none" stroke="black" cx="1579" cy="-72" rx="18" ry="18"/>
</g>
<!-- 42&#45;&gt;51 -->
<g id="edge67" class="edge"><title>42&#45;&gt;51</title>
<path fill="none" stroke="black" d="M1469.26,-72C1490.27,-72 1526.03,-72 1550.77,-72"/>
<polygon fill="black" stroke="black" points="1550.95,-75.5001 1560.95,-72 1550.95,-68.5001 1550.95,-75.5001"/>
<text text-anchor="middle" x="1515" y="-75.8" font-family="Times,serif" font-size="14.00">u000e</text>
</g>
<!-- 59 -->
<g id="node61" class="node"><title>59</title>
<ellipse fill="none" stroke="black" cx="1707" cy="-72" rx="18" ry="18"/>
</g>
<!-- 51&#45;&gt;59 -->
<g id="edge68" class="edge"><title>51&#45;&gt;59</title>
<path fill="none" stroke="black" d="M1597.26,-72C1618.27,-72 1654.03,-72 1678.77,-72"/>
<polygon fill="black" stroke="black" points="1678.95,-75.5001 1688.95,-72 1678.95,-68.5001 1678.95,-75.5001"/>
<text text-anchor="middle" x="1643" y="-75.8" font-family="Times,serif" font-size="14.00">u0010</text>
</g>
<!-- 66 -->
<g id="node62" class="node"><title>66</title>
<ellipse fill="none" stroke="black" cx="1835" cy="-72" rx="18" ry="18"/>
</g>
<!-- 59&#45;&gt;66 -->
<g id="edge69" class="edge"><title>59&#45;&gt;66</title>
<path fill="none" stroke="black" d="M1725.26,-72C1746.27,-72 1782.03,-72 1806.77,-72"/>
<polygon fill="black" stroke="black" points="1806.95,-75.5001 1816.95,-72 1806.95,-68.5001 1806.95,-75.5001"/>
<text text-anchor="middle" x="1771" y="-75.8" font-family="Times,serif" font-size="14.00">u0006</text>
</g>
<!-- 71 -->
<g id="node63" class="node"><title>71</title>
<ellipse fill="none" stroke="black" cx="1963" cy="-72" rx="18" ry="18"/>
</g>
<!-- 66&#45;&gt;71 -->
<g id="edge70" class="edge"><title>66&#45;&gt;71</title>
<path fill="none" stroke="black" d="M1853.26,-72C1874.27,-72 1910.03,-72 1934.77,-72"/>
<polygon fill="black" stroke="black" points="1934.95,-75.5001 1944.95,-72 1934.95,-68.5001 1934.95,-75.5001"/>
<text text-anchor="middle" x="1899" y="-75.8" font-family="Times,serif" font-size="14.00">u000a</text>
</g>
<!-- 75 -->
<g id="node64" class="node"><title>75</title>
<ellipse fill="none" stroke="black" cx="2091" cy="-72" rx="18" ry="18"/>
</g>
<!-- 71&#45;&gt;75 -->
<g id="edge71" class="edge"><title>71&#45;&gt;75</title>
<path fill="none" stroke="black" d="M1981.26,-72C2002.27,-72 2038.03,-72 2062.77,-72"/>
<polygon fill="black" stroke="black" points="2062.95,-75.5001 2072.95,-72 2062.95,-68.5001 2062.95,-75.5001"/>
<text text-anchor="middle" x="2027" y="-75.8" font-family="Times,serif" font-size="14.00">u0007</text>
</g>
<!-- 78 -->
<g id="node65" class="node"><title>78</title>
<ellipse fill="none" stroke="black" cx="2219" cy="-72" rx="18" ry="18"/>
</g>
<!-- 75&#45;&gt;78 -->
<g id="edge72" class="edge"><title>75&#45;&gt;78</title>
<path fill="none" stroke="black" d="M2109.26,-72C2130.27,-72 2166.03,-72 2190.77,-72"/>
<polygon fill="black" stroke="black" points="2190.95,-75.5001 2200.95,-72 2190.95,-68.5001 2190.95,-75.5001"/>
<text text-anchor="middle" x="2155" y="-75.8" font-family="Times,serif" font-size="14.00">u000e</text>
</g>
<!-- 80 -->
<g id="node66" class="node"><title>80</title>
<ellipse fill="none" stroke="black" cx="2342" cy="-74" rx="18" ry="18"/>
</g>
<!-- 78&#45;&gt;80 -->
<g id="edge73" class="edge"><title>78&#45;&gt;80</title>
<path fill="none" stroke="black" d="M2237.08,-72.2823C2256.96,-72.611 2290.08,-73.1583 2313.58,-73.5467"/>
<polygon fill="black" stroke="black" points="2313.56,-77.0468 2323.62,-73.7127 2313.67,-70.0478 2313.56,-77.0468"/>
<text text-anchor="middle" x="2283" y="-77.8" font-family="Times,serif" font-size="14.00">u0007</text>
</g>
<!-- 82 -->
<g id="node67" class="node"><title>82</title>
<ellipse fill="none" stroke="black" cx="2465" cy="-120" rx="18" ry="18"/>
</g>
<!-- 80&#45;&gt;82 -->
<g id="edge74" class="edge"><title>80&#45;&gt;82</title>
<path fill="none" stroke="black" d="M2359.71,-78.5512C2376.27,-83.252 2402.25,-91.1346 2424,-100 2429.08,-102.072 2434.41,-104.525 2439.45,-106.99"/>
<polygon fill="black" stroke="black" points="2438.17,-110.264 2448.68,-111.649 2441.33,-104.016 2438.17,-110.264"/>
<text text-anchor="middle" x="2401" y="-103.8" font-family="Times,serif" font-size="14.00">u0006</text>
</g>
<!-- 82&#45;&gt;35 -->
<g id="edge75" class="edge"><title>82&#45;&gt;35</title>
<path fill="none" stroke="black" d="M2482.58,-124.132C2500.46,-128.999 2529.4,-138.091 2552,-151 2557.05,-153.886 2562.1,-157.517 2566.72,-161.222"/>
<polygon fill="black" stroke="black" points="2564.62,-164.023 2574.5,-167.83 2569.15,-158.688 2564.62,-164.023"/>
<text text-anchor="middle" x="2529" y="-154.8" font-family="Times,serif" font-size="14.00">u0007</text>
</g>
<!-- 52 -->
<g id="node69" class="node"><title>52</title>
<ellipse fill="none" stroke="black" cx="1579" cy="-18" rx="18" ry="18"/>
</g>
<!-- 43&#45;&gt;52 -->
<g id="edge76" class="edge"><title>43&#45;&gt;52</title>
<path fill="none" stroke="black" d="M1469.26,-18C1490.27,-18 1526.03,-18 1550.77,-18"/>
<polygon fill="black" stroke="black" points="1550.95,-21.5001 1560.95,-18 1550.95,-14.5001 1550.95,-21.5001"/>
<text text-anchor="middle" x="1515" y="-21.8" font-family="Times,serif" font-size="14.00">u0010</text>
</g>
<!-- 60 -->
<g id="node70" class="node"><title>60</title>
<ellipse fill="none" stroke="black" cx="1707" cy="-18" rx="18" ry="18"/>
</g>
<!-- 52&#45;&gt;60 -->
<g id="edge77" class="edge"><title>52&#45;&gt;60</title>
<path fill="none" stroke="black" d="M1597.26,-18C1618.27,-18 1654.03,-18 1678.77,-18"/>
<polygon fill="black" stroke="black" points="1678.95,-21.5001 1688.95,-18 1678.95,-14.5001 1678.95,-21.5001"/>
<text text-anchor="middle" x="1643" y="-21.8" font-family="Times,serif" font-size="14.00">u000e</text>
</g>
<!-- 67 -->
<g id="node71" class="node"><title>67</title>
<ellipse fill="none" stroke="black" cx="1835" cy="-18" rx="18" ry="18"/>
</g>
<!-- 60&#45;&gt;67 -->
<g id="edge78" class="edge"><title>60&#45;&gt;67</title>
<path fill="none" stroke="black" d="M1725.26,-18C1746.27,-18 1782.03,-18 1806.77,-18"/>
<polygon fill="black" stroke="black" points="1806.95,-21.5001 1816.95,-18 1806.95,-14.5001 1806.95,-21.5001"/>
<text text-anchor="middle" x="1771" y="-21.8" font-family="Times,serif" font-size="14.00">u0006</text>
</g>
<!-- 72 -->
<g id="node72" class="node"><title>72</title>
<ellipse fill="none" stroke="black" cx="2401" cy="-26" rx="18" ry="18"/>
</g>
<!-- 67&#45;&gt;72 -->
<g id="edge79" class="edge"><title>67&#45;&gt;72</title>
<path fill="none" stroke="black" d="M1853.12,-18.4439C1877.35,-19.0331 1923.06,-20 1962,-20 1962,-20 1962,-20 2284,-20 2314.29,-20 2348.97,-22.0657 2372.46,-23.773"/>
<polygon fill="black" stroke="black" points="2372.48,-27.2845 2382.72,-24.5476 2373.01,-20.3044 2372.48,-27.2845"/>
<text text-anchor="middle" x="2091" y="-23.8" font-family="Times,serif" font-size="14.00">u0010</text>
</g>
<!-- 72&#45;&gt;35 -->
<g id="edge80" class="edge"><title>72&#45;&gt;35</title>
<path fill="none" stroke="black" d="M2417.71,-33.6423C2447.02,-48.5045 2510.78,-83.759 2552,-128 2559.79,-136.36 2567.08,-146.611 2572.96,-155.794"/>
<polygon fill="black" stroke="black" points="2570.12,-157.845 2578.35,-164.512 2576.07,-154.165 2570.12,-157.845"/>
<text text-anchor="middle" x="2465" y="-78.8" font-family="Times,serif" font-size="14.00">u0006</text>
</g>
<!-- 25 -->
<g id="node74" class="node"><title>25</title>
<ellipse fill="none" stroke="black" cx="1067" cy="-126" rx="18" ry="18"/>
</g>
<!-- 16&#45;&gt;25 -->
<g id="edge81" class="edge"><title>16&#45;&gt;25</title>
<path fill="none" stroke="black" d="M962.08,-126C981.965,-126 1015.08,-126 1038.58,-126"/>
<polygon fill="black" stroke="black" points="1038.62,-129.5 1048.62,-126 1038.62,-122.5 1038.62,-129.5"/>
<text text-anchor="middle" x="1003" y="-129.8" font-family="Times,serif" font-size="14.00">u000d</text>
</g>
<!-- 34 -->
<g id="node75" class="node"><title>34</title>
<ellipse fill="none" stroke="black" cx="1195" cy="-126" rx="18" ry="18"/>
</g>
<!-- 25&#45;&gt;34 -->
<g id="edge82" class="edge"><title>25&#45;&gt;34</title>
<path fill="none" stroke="black" d="M1085.26,-126C1106.27,-126 1142.03,-126 1166.77,-126"/>
<polygon fill="black" stroke="black" points="1166.95,-129.5 1176.95,-126 1166.95,-122.5 1166.95,-129.5"/>
<text text-anchor="middle" x="1131" y="-129.8" font-family="Times,serif" font-size="14.00">u0011</text>
</g>
<!-- 44 -->
<g id="node76" class="node"><title>44</title>
<ellipse fill="none" stroke="black" cx="1323" cy="-126" rx="18" ry="18"/>
</g>
<!-- 34&#45;&gt;44 -->
<g id="edge83" class="edge"><title>34&#45;&gt;44</title>
<path fill="none" stroke="black" d="M1213.26,-126C1234.27,-126 1270.03,-126 1294.77,-126"/>
<polygon fill="black" stroke="black" points="1294.95,-129.5 1304.95,-126 1294.95,-122.5 1294.95,-129.5"/>
<text text-anchor="middle" x="1259" y="-129.8" font-family="Times,serif" font-size="14.00">u000f</text>
</g>
<!-- 53 -->
<g id="node77" class="node"><title>53</title>
<ellipse fill="none" stroke="black" cx="1451" cy="-126" rx="18" ry="18"/>
</g>
<!-- 44&#45;&gt;53 -->
<g id="edge84" class="edge"><title>44&#45;&gt;53</title>
<path fill="none" stroke="black" d="M1341.26,-126C1362.27,-126 1398.03,-126 1422.77,-126"/>
<polygon fill="black" stroke="black" points="1422.95,-129.5 1432.95,-126 1422.95,-122.5 1422.95,-129.5"/>
<text text-anchor="middle" x="1387" y="-129.8" font-family="Times,serif" font-size="14.00">u0006</text>
</g>
<!-- 61 -->
<g id="node78" class="node"><title>61</title>
<ellipse fill="none" stroke="black" cx="1579" cy="-126" rx="18" ry="18"/>
</g>
<!-- 53&#45;&gt;61 -->
<g id="edge85" class="edge"><title>53&#45;&gt;61</title>
<path fill="none" stroke="black" d="M1469.26,-126C1490.27,-126 1526.03,-126 1550.77,-126"/>
<polygon fill="black" stroke="black" points="1550.95,-129.5 1560.95,-126 1550.95,-122.5 1550.95,-129.5"/>
<text text-anchor="middle" x="1515" y="-129.8" font-family="Times,serif" font-size="14.00">u000a</text>
</g>
<!-- 68 -->
<g id="node79" class="node"><title>68</title>
<ellipse fill="none" stroke="black" cx="1707" cy="-126" rx="18" ry="18"/>
</g>
<!-- 61&#45;&gt;68 -->
<g id="edge86" class="edge"><title>61&#45;&gt;68</title>
<path fill="none" stroke="black" d="M1597.26,-126C1618.27,-126 1654.03,-126 1678.77,-126"/>
<polygon fill="black" stroke="black" points="1678.95,-129.5 1688.95,-126 1678.95,-122.5 1678.95,-129.5"/>
<text text-anchor="middle" x="1643" y="-129.8" font-family="Times,serif" font-size="14.00">u000a</text>
</g>
<!-- 73 -->
<g id="node80" class="node"><title>73</title>
<ellipse fill="none" stroke="black" cx="1835" cy="-126" rx="18" ry="18"/>
</g>
<!-- 68&#45;&gt;73 -->
<g id="edge87" class="edge"><title>68&#45;&gt;73</title>
<path fill="none" stroke="black" d="M1725.26,-126C1746.27,-126 1782.03,-126 1806.77,-126"/>
<polygon fill="black" stroke="black" points="1806.95,-129.5 1816.95,-126 1806.95,-122.5 1806.95,-129.5"/>
<text text-anchor="middle" x="1771" y="-129.8" font-family="Times,serif" font-size="14.00">u0007</text>
</g>
<!-- 76 -->
<g id="node81" class="node"><title>76</title>
<ellipse fill="none" stroke="black" cx="1963" cy="-126" rx="18" ry="18"/>
</g>
<!-- 73&#45;&gt;76 -->
<g id="edge88" class="edge"><title>73&#45;&gt;76</title>
<path fill="none" stroke="black" d="M1853.26,-126C1874.27,-126 1910.03,-126 1934.77,-126"/>
<polygon fill="black" stroke="black" points="1934.95,-129.5 1944.95,-126 1934.95,-122.5 1934.95,-129.5"/>
<text text-anchor="middle" x="1899" y="-129.8" font-family="Times,serif" font-size="14.00">u0007</text>
</g>
<!-- 79 -->
<g id="node82" class="node"><title>79</title>
<ellipse fill="none" stroke="black" cx="2091" cy="-126" rx="18" ry="18"/>
</g>
<!-- 76&#45;&gt;79 -->
<g id="edge89" class="edge"><title>76&#45;&gt;79</title>
<path fill="none" stroke="black" d="M1981.26,-126C2002.27,-126 2038.03,-126 2062.77,-126"/>
<polygon fill="black" stroke="black" points="2062.95,-129.5 2072.95,-126 2062.95,-122.5 2062.95,-129.5"/>
<text text-anchor="middle" x="2027" y="-129.8" font-family="Times,serif" font-size="14.00">u000a</text>
</g>
<!-- 81 -->
<g id="node83" class="node"><title>81</title>
<ellipse fill="none" stroke="black" cx="2219" cy="-126" rx="18" ry="18"/>
</g>
<!-- 79&#45;&gt;81 -->
<g id="edge90" class="edge"><title>79&#45;&gt;81</title>
<path fill="none" stroke="black" d="M2109.26,-126C2130.27,-126 2166.03,-126 2190.77,-126"/>
<polygon fill="black" stroke="black" points="2190.95,-129.5 2200.95,-126 2190.95,-122.5 2190.95,-129.5"/>
<text text-anchor="middle" x="2155" y="-129.8" font-family="Times,serif" font-size="14.00">u0006</text>
</g>
<!-- 83 -->
<g id="node84" class="node"><title>83</title>
<ellipse fill="none" stroke="black" cx="2342" cy="-132" rx="18" ry="18"/>
</g>
<!-- 81&#45;&gt;83 -->
<g id="edge91" class="edge"><title>81&#45;&gt;83</title>
<path fill="none" stroke="black" d="M2237.08,-126.847C2257.08,-127.839 2290.45,-129.494 2313.98,-130.66"/>
<polygon fill="black" stroke="black" points="2313.85,-134.158 2324.01,-131.157 2314.19,-127.166 2313.85,-134.158"/>
<text text-anchor="middle" x="2283" y="-134.8" font-family="Times,serif" font-size="14.00">u000a</text>
</g>
<!-- 83&#45;&gt;26 -->
<g id="edge92" class="edge"><title>83&#45;&gt;26</title>
<path fill="none" stroke="black" d="M2359.91,-129.9C2377.59,-128.63 2405.32,-129.359 2424,-143 2442.38,-156.421 2452.65,-180.516 2458.16,-199.469"/>
<polygon fill="black" stroke="black" points="2454.83,-200.584 2460.76,-209.369 2461.61,-198.808 2454.83,-200.584"/>
<text text-anchor="middle" x="2401" y="-146.8" font-family="Times,serif" font-size="14.00">u0010</text>
</g>
<!-- initial -->
<g id="node85" class="node"><title>initial</title>
</g>
<!-- initial&#45;&gt;0 -->
<g id="edge93" class="edge"><title>initial&#45;&gt;0</title>
<path fill="none" stroke="black" d="M54.195,-205C62.6538,-205 72.0513,-205 80.5951,-205"/>
<polygon fill="black" stroke="black" points="80.8257,-208.5 90.8257,-205 80.8257,-201.5 80.8257,-208.5"/>
</g>
</g>
</svg>
