<svg width="2420px" height="499px"
 viewBox="0.00 0.00 1815.00 374.00" xmlns="http://www.w3.org/2000/svg" xmlns:xlink="http://www.w3.org/1999/xlink">
<g id="graph0" class="graph" transform="scale(1.000022500562514 1.000022500562514) rotate(0) translate(4 370)">
<title>Automaton</title>
<polygon fill="white" stroke="none" points="-4,4 -4,-370 1811,-370 1811,4 -4,4"/>
<!-- 0 -->
<g id="node1" class="node"><title>0</title>
<ellipse fill="none" stroke="black" cx="109" cy="-18" rx="18" ry="18"/>
</g>
<!-- 1 -->
<g id="node2" class="node"><title>1</title>
<ellipse fill="none" stroke="black" cx="227" cy="-18" rx="18" ry="18"/>
</g>
<!-- 0&#45;&gt;1 -->
<g id="edge1" class="edge"><title>0&#45;&gt;1</title>
<path fill="none" stroke="black" d="M127.116,-18C145.964,-18 176.531,-18 198.696,-18"/>
<polygon fill="black" stroke="black" points="198.814,-21.5001 208.814,-18 198.814,-14.5001 198.814,-21.5001"/>
<text text-anchor="middle" x="168" y="-21.8" font-family="Times,serif" font-size="14.00">u0005</text>
</g>
<!-- 2 -->
<g id="node3" class="node"><title>2</title>
<ellipse fill="none" stroke="black" cx="345" cy="-264" rx="18" ry="18"/>
</g>
<!-- 1&#45;&gt;2 -->
<g id="edge2" class="edge"><title>1&#45;&gt;2</title>
<path fill="none" stroke="black" d="M235.611,-34.1407C255.363,-76.0288 308.375,-188.45 332.162,-238.896"/>
<polygon fill="black" stroke="black" points="329.081,-240.568 336.512,-248.12 335.412,-237.582 329.081,-240.568"/>
<text text-anchor="middle" x="286" y="-187.8" font-family="Times,serif" font-size="14.00">u0004</text>
</g>
<!-- 3 -->
<g id="node7" class="node"><title>3</title>
<ellipse fill="none" stroke="black" cx="1785" cy="-71" rx="18" ry="18"/>
<ellipse fill="none" stroke="black" cx="1785" cy="-71" rx="22" ry="22"/>
</g>
<!-- 1&#45;&gt;3 -->
<g id="edge3" class="edge"><title>1&#45;&gt;3</title>
<path fill="none" stroke="black" d="M244.805,-14.2082C267.28,-9.47681 308.423,-2 344,-2 344,-2 344,-2 1664,-2 1702.05,-2 1738.94,-28.3941 1761.54,-48.5336"/>
<polygon fill="black" stroke="black" points="1759.2,-51.1336 1768.92,-55.3428 1763.95,-45.9891 1759.2,-51.1336"/>
<text text-anchor="middle" x="1004" y="-5.8" font-family="Times,serif" font-size="14.00">u0000</text>
</g>
<!-- 4 -->
<g id="node4" class="node"><title>4</title>
<ellipse fill="none" stroke="black" cx="463" cy="-163" rx="18" ry="18"/>
</g>
<!-- 2&#45;&gt;4 -->
<g id="edge4" class="edge"><title>2&#45;&gt;4</title>
<path fill="none" stroke="black" d="M359.307,-252.414C379.323,-234.986 417.358,-201.87 441.1,-181.198"/>
<polygon fill="black" stroke="black" points="443.605,-183.657 448.849,-174.451 439.008,-178.378 443.605,-183.657"/>
<text text-anchor="middle" x="404" y="-234.8" font-family="Times,serif" font-size="14.00">u0003</text>
</g>
<!-- 5 -->
<g id="node6" class="node"><title>5</title>
<ellipse fill="none" stroke="black" cx="1663" cy="-247" rx="18" ry="18"/>
</g>
<!-- 2&#45;&gt;5 -->
<g id="edge5" class="edge"><title>2&#45;&gt;5</title>
<path fill="none" stroke="black" d="M355.901,-278.758C373.869,-303.58 414.422,-351 462,-351 462,-351 462,-351 1546,-351 1587.18,-351 1597.47,-334.705 1627,-306 1636.81,-296.466 1644.86,-283.613 1650.76,-272.337"/>
<polygon fill="black" stroke="black" points="1653.91,-273.859 1655.2,-263.343 1647.63,-270.761 1653.91,-273.859"/>
<text text-anchor="middle" x="1004" y="-354.8" font-family="Times,serif" font-size="14.00">u0002</text>
</g>
<!-- 6 -->
<g id="node16" class="node"><title>6</title>
<ellipse fill="none" stroke="black" cx="1063" cy="-267" rx="18" ry="18"/>
</g>
<!-- 2&#45;&gt;6 -->
<g id="edge6" class="edge"><title>2&#45;&gt;6</title>
<path fill="none" stroke="black" d="M363.291,-264.726C385.955,-265.614 426.947,-267 462,-267 462,-267 462,-267 946,-267 976.251,-267 1010.94,-267 1034.44,-267"/>
<polygon fill="black" stroke="black" points="1034.71,-270.5 1044.71,-267 1034.71,-263.5 1034.71,-270.5"/>
<text text-anchor="middle" x="704" y="-270.8" font-family="Times,serif" font-size="14.00">u0001</text>
</g>
<!-- 7 -->
<g id="node5" class="node"><title>7</title>
<ellipse fill="none" stroke="black" cx="1545" cy="-150" rx="18" ry="18"/>
</g>
<!-- 4&#45;&gt;7 -->
<g id="edge7" class="edge"><title>4&#45;&gt;7</title>
<path fill="none" stroke="black" d="M470.43,-146.412C484.654,-112.838 522.175,-40 580,-40 580,-40 580,-40 1423,-40 1473.39,-40 1512.07,-92.8706 1531.05,-125.303"/>
<polygon fill="black" stroke="black" points="1528.13,-127.248 1536.09,-134.24 1534.23,-123.81 1528.13,-127.248"/>
<text text-anchor="middle" x="1004" y="-43.8" font-family="Times,serif" font-size="14.00">u0003</text>
</g>
<!-- 8 -->
<g id="node8" class="node"><title>8</title>
<ellipse fill="none" stroke="black" cx="581" cy="-163" rx="18" ry="18"/>
</g>
<!-- 4&#45;&gt;8 -->
<g id="edge8" class="edge"><title>4&#45;&gt;8</title>
<path fill="none" stroke="black" d="M481.116,-163C499.964,-163 530.531,-163 552.696,-163"/>
<polygon fill="black" stroke="black" points="552.814,-166.5 562.814,-163 552.814,-159.5 552.814,-166.5"/>
<text text-anchor="middle" x="522" y="-166.8" font-family="Times,serif" font-size="14.00">u0001</text>
</g>
<!-- 7&#45;&gt;5 -->
<g id="edge9" class="edge"><title>7&#45;&gt;5</title>
<path fill="none" stroke="black" d="M1562.02,-156.211C1579.45,-163.544 1607.45,-177.049 1627,-195 1635.42,-202.728 1642.82,-212.864 1648.62,-222.133"/>
<polygon fill="black" stroke="black" points="1645.76,-224.172 1653.87,-230.992 1651.78,-220.605 1645.76,-224.172"/>
<text text-anchor="middle" x="1604" y="-198.8" font-family="Times,serif" font-size="14.00">u0002</text>
</g>
<!-- 5&#45;&gt;3 -->
<g id="edge10" class="edge"><title>5&#45;&gt;3</title>
<path fill="none" stroke="black" d="M1673.82,-232.597C1694.03,-202.955 1740.53,-134.76 1766.19,-97.1255"/>
<polygon fill="black" stroke="black" points="1769.19,-98.9332 1771.93,-88.6992 1763.41,-94.9898 1769.19,-98.9332"/>
<text text-anchor="middle" x="1722" y="-197.8" font-family="Times,serif" font-size="14.00">u0000</text>
</g>
<!-- 8&#45;&gt;5 -->
<g id="edge12" class="edge"><title>8&#45;&gt;5</title>
<path fill="none" stroke="black" d="M595.158,-174.183C616.38,-191.037 660.136,-221 703,-221 703,-221 703,-221 1123,-221 1227.01,-221 1252.99,-224 1357,-224 1357,-224 1357,-224 1546,-224 1577.34,-224 1612.54,-232.175 1635.86,-238.778"/>
<polygon fill="black" stroke="black" points="1635.1,-242.203 1645.68,-241.666 1637.08,-235.487 1635.1,-242.203"/>
<text text-anchor="middle" x="1122" y="-224.8" font-family="Times,serif" font-size="14.00">u0002</text>
</g>
<!-- 10 -->
<g id="node9" class="node"><title>10</title>
<ellipse fill="none" stroke="black" cx="704" cy="-138" rx="18" ry="18"/>
</g>
<!-- 8&#45;&gt;10 -->
<g id="edge11" class="edge"><title>8&#45;&gt;10</title>
<path fill="none" stroke="black" d="M598.825,-159.524C618.872,-155.382 652.618,-148.409 676.255,-143.526"/>
<polygon fill="black" stroke="black" points="677.233,-146.898 686.318,-141.447 675.817,-140.042 677.233,-146.898"/>
<text text-anchor="middle" x="640" y="-158.8" font-family="Times,serif" font-size="14.00">u0003</text>
</g>
<!-- 12 -->
<g id="node10" class="node"><title>12</title>
<ellipse fill="none" stroke="black" cx="827" cy="-132" rx="18" ry="18"/>
</g>
<!-- 10&#45;&gt;12 -->
<g id="edge13" class="edge"><title>10&#45;&gt;12</title>
<path fill="none" stroke="black" d="M722.08,-137.153C742.078,-136.161 775.454,-134.506 798.976,-133.34"/>
<polygon fill="black" stroke="black" points="799.193,-136.834 809.007,-132.843 798.846,-129.842 799.193,-136.834"/>
<text text-anchor="middle" x="768" y="-138.8" font-family="Times,serif" font-size="14.00">u0003</text>
</g>
<!-- 13 -->
<g id="node11" class="node"><title>13</title>
<ellipse fill="none" stroke="black" cx="1422" cy="-123" rx="18" ry="18"/>
</g>
<!-- 12&#45;&gt;13 -->
<g id="edge14" class="edge"><title>12&#45;&gt;13</title>
<path fill="none" stroke="black" d="M845.295,-132C867.962,-132 908.958,-132 944,-132 944,-132 944,-132 1241,-132 1295.3,-132 1358.7,-127.864 1393.91,-125.199"/>
<polygon fill="black" stroke="black" points="1394.19,-128.688 1403.89,-124.426 1393.65,-121.709 1394.19,-128.688"/>
<text text-anchor="middle" x="1122" y="-135.8" font-family="Times,serif" font-size="14.00">u0003</text>
</g>
<!-- 15 -->
<g id="node12" class="node"><title>15</title>
<ellipse fill="none" stroke="black" cx="945" cy="-86" rx="18" ry="18"/>
</g>
<!-- 12&#45;&gt;15 -->
<g id="edge15" class="edge"><title>12&#45;&gt;15</title>
<path fill="none" stroke="black" d="M840.235,-119.331C846.521,-113.523 854.613,-107.045 863,-103 879.88,-94.8584 900.586,-90.6 916.837,-88.3814"/>
<polygon fill="black" stroke="black" points="917.272,-91.8545 926.788,-87.1977 916.445,-84.9035 917.272,-91.8545"/>
<text text-anchor="middle" x="886" y="-106.8" font-family="Times,serif" font-size="14.00">u0001</text>
</g>
<!-- 13&#45;&gt;7 -->
<g id="edge16" class="edge"><title>13&#45;&gt;7</title>
<path fill="none" stroke="black" d="M1440.05,-124.409C1457.57,-126.128 1485.54,-129.626 1509,-136 1512.22,-136.875 1515.55,-137.957 1518.81,-139.129"/>
<polygon fill="black" stroke="black" points="1517.65,-142.432 1528.23,-142.796 1520.18,-135.908 1517.65,-142.432"/>
<text text-anchor="middle" x="1486" y="-139.8" font-family="Times,serif" font-size="14.00">u0001</text>
</g>
<!-- 16 -->
<g id="node13" class="node"><title>16</title>
<ellipse fill="none" stroke="black" cx="1063" cy="-86" rx="18" ry="18"/>
</g>
<!-- 15&#45;&gt;16 -->
<g id="edge17" class="edge"><title>15&#45;&gt;16</title>
<path fill="none" stroke="black" d="M963.116,-86C981.964,-86 1012.53,-86 1034.7,-86"/>
<polygon fill="black" stroke="black" points="1034.81,-89.5001 1044.81,-86 1034.81,-82.5001 1034.81,-89.5001"/>
<text text-anchor="middle" x="1004" y="-89.8" font-family="Times,serif" font-size="14.00">u0003</text>
</g>
<!-- 17 -->
<g id="node14" class="node"><title>17</title>
<ellipse fill="none" stroke="black" cx="1181" cy="-86" rx="18" ry="18"/>
</g>
<!-- 16&#45;&gt;17 -->
<g id="edge18" class="edge"><title>16&#45;&gt;17</title>
<path fill="none" stroke="black" d="M1081.12,-86C1099.96,-86 1130.53,-86 1152.7,-86"/>
<polygon fill="black" stroke="black" points="1152.81,-89.5001 1162.81,-86 1152.81,-82.5001 1152.81,-89.5001"/>
<text text-anchor="middle" x="1122" y="-89.8" font-family="Times,serif" font-size="14.00">u0001</text>
</g>
<!-- 18 -->
<g id="node15" class="node"><title>18</title>
<ellipse fill="none" stroke="black" cx="1299" cy="-86" rx="18" ry="18"/>
</g>
<!-- 17&#45;&gt;18 -->
<g id="edge19" class="edge"><title>17&#45;&gt;18</title>
<path fill="none" stroke="black" d="M1199.12,-86C1217.96,-86 1248.53,-86 1270.7,-86"/>
<polygon fill="black" stroke="black" points="1270.81,-89.5001 1280.81,-86 1270.81,-82.5001 1270.81,-89.5001"/>
<text text-anchor="middle" x="1240" y="-89.8" font-family="Times,serif" font-size="14.00">u0001</text>
</g>
<!-- 18&#45;&gt;13 -->
<g id="edge20" class="edge"><title>18&#45;&gt;13</title>
<path fill="none" stroke="black" d="M1317.03,-85.1402C1333.84,-84.8701 1359.99,-86.0246 1381,-94 1387.79,-96.5775 1394.46,-100.622 1400.35,-104.881"/>
<polygon fill="black" stroke="black" points="1398.31,-107.728 1408.35,-111.128 1402.62,-102.213 1398.31,-107.728"/>
<text text-anchor="middle" x="1358" y="-97.8" font-family="Times,serif" font-size="14.00">u0003</text>
</g>
<!-- 6&#45;&gt;5 -->
<g id="edge22" class="edge"><title>6&#45;&gt;5</title>
<path fill="none" stroke="black" d="M1078.29,-276.755C1099.5,-290.258 1141,-313 1180,-313 1180,-313 1180,-313 1546,-313 1583.8,-313 1620.54,-286.192 1642.21,-266.746"/>
<polygon fill="black" stroke="black" points="1644.82,-269.102 1649.75,-259.725 1640.05,-263.979 1644.82,-269.102"/>
<text text-anchor="middle" x="1358" y="-316.8" font-family="Times,serif" font-size="14.00">u0002</text>
</g>
<!-- 9 -->
<g id="node17" class="node"><title>9</title>
<ellipse fill="none" stroke="black" cx="1181" cy="-267" rx="18" ry="18"/>
</g>
<!-- 6&#45;&gt;9 -->
<g id="edge21" class="edge"><title>6&#45;&gt;9</title>
<path fill="none" stroke="black" d="M1081.12,-267C1099.96,-267 1130.53,-267 1152.7,-267"/>
<polygon fill="black" stroke="black" points="1152.81,-270.5 1162.81,-267 1152.81,-263.5 1152.81,-270.5"/>
<text text-anchor="middle" x="1122" y="-270.8" font-family="Times,serif" font-size="14.00">u0003</text>
</g>
<!-- 9&#45;&gt;5 -->
<g id="edge24" class="edge"><title>9&#45;&gt;5</title>
<path fill="none" stroke="black" d="M1199.29,-267.726C1221.95,-268.614 1262.95,-270 1298,-270 1298,-270 1298,-270 1546,-270 1577.34,-270 1612.54,-261.825 1635.86,-255.222"/>
<polygon fill="black" stroke="black" points="1637.08,-258.513 1645.68,-252.334 1635.1,-251.797 1637.08,-258.513"/>
<text text-anchor="middle" x="1422" y="-273.8" font-family="Times,serif" font-size="14.00">u0002</text>
</g>
<!-- 11 -->
<g id="node18" class="node"><title>11</title>
<ellipse fill="none" stroke="black" cx="1299" cy="-178" rx="18" ry="18"/>
</g>
<!-- 9&#45;&gt;11 -->
<g id="edge23" class="edge"><title>9&#45;&gt;11</title>
<path fill="none" stroke="black" d="M1195.76,-256.441C1215.65,-241.186 1252.61,-212.828 1276.22,-194.713"/>
<polygon fill="black" stroke="black" points="1278.45,-197.409 1284.26,-188.545 1274.19,-191.856 1278.45,-197.409"/>
<text text-anchor="middle" x="1240" y="-241.8" font-family="Times,serif" font-size="14.00">u0003</text>
</g>
<!-- 11&#45;&gt;13 -->
<g id="edge25" class="edge"><title>11&#45;&gt;13</title>
<path fill="none" stroke="black" d="M1315.16,-169.337C1321.25,-165.969 1328.39,-162.167 1335,-159 1355.01,-149.41 1378.25,-139.767 1395.53,-132.878"/>
<polygon fill="black" stroke="black" points="1396.92,-136.09 1404.94,-129.162 1394.35,-129.58 1396.92,-136.09"/>
<text text-anchor="middle" x="1358" y="-162.8" font-family="Times,serif" font-size="14.00">u0003</text>
</g>
<!-- 14 -->
<g id="node19" class="node"><title>14</title>
<ellipse fill="none" stroke="black" cx="1422" cy="-178" rx="18" ry="18"/>
</g>
<!-- 11&#45;&gt;14 -->
<g id="edge26" class="edge"><title>11&#45;&gt;14</title>
<path fill="none" stroke="black" d="M1317.08,-178C1336.96,-178 1370.08,-178 1393.58,-178"/>
<polygon fill="black" stroke="black" points="1393.62,-181.5 1403.62,-178 1393.62,-174.5 1393.62,-181.5"/>
<text text-anchor="middle" x="1358" y="-181.8" font-family="Times,serif" font-size="14.00">u0001</text>
</g>
<!-- 14&#45;&gt;7 -->
<g id="edge27" class="edge"><title>14&#45;&gt;7</title>
<path fill="none" stroke="black" d="M1439.82,-174.107C1459.96,-169.447 1493.92,-161.588 1517.57,-156.115"/>
<polygon fill="black" stroke="black" points="1518.36,-159.525 1527.32,-153.86 1516.79,-152.705 1518.36,-159.525"/>
<text text-anchor="middle" x="1486" y="-171.8" font-family="Times,serif" font-size="14.00">u0003</text>
</g>
<!-- initial -->
<g id="node20" class="node"><title>initial</title>
</g>
<!-- initial&#45;&gt;0 -->
<g id="edge28" class="edge"><title>initial&#45;&gt;0</title>
<path fill="none" stroke="black" d="M54.195,-18C62.6538,-18 72.0513,-18 80.5951,-18"/>
<polygon fill="black" stroke="black" points="80.8257,-21.5001 90.8257,-18 80.8257,-14.5001 80.8257,-21.5001"/>
</g>
</g>
</svg>
