<svg width="1135px" height="100px"
 viewBox="0.00 0.00 851.00 75.00" xmlns="http://www.w3.org/2000/svg" xmlns:xlink="http://www.w3.org/1999/xlink">
<g id="graph0" class="graph" transform="scale(1.000022500562514 1.000022500562514) rotate(0) translate(4 71)">
<title>Automaton</title>
<polygon fill="white" stroke="none" points="-4,4 -4,-71 847,-71 847,4 -4,4"/>
<!-- 0 -->
<g id="node1" class="node"><title>0</title>
<ellipse fill="none" stroke="black" cx="109" cy="-19" rx="18" ry="18"/>
</g>
<!-- 1 -->
<g id="node2" class="node"><title>1</title>
<ellipse fill="none" stroke="black" cx="227" cy="-19" rx="18" ry="18"/>
</g>
<!-- 0&#45;&gt;1 -->
<g id="edge1" class="edge"><title>0&#45;&gt;1</title>
<path fill="none" stroke="black" d="M127.116,-19C145.964,-19 176.531,-19 198.696,-19"/>
<polygon fill="black" stroke="black" points="198.814,-22.5001 208.814,-19 198.814,-15.5001 198.814,-22.5001"/>
<text text-anchor="middle" x="168" y="-22.8" font-family="Times,serif" font-size="14.00">u0005</text>
</g>
<!-- 2 -->
<g id="node3" class="node"><title>2</title>
<ellipse fill="none" stroke="black" cx="345" cy="-49" rx="18" ry="18"/>
</g>
<!-- 1&#45;&gt;2 -->
<g id="edge2" class="edge"><title>1&#45;&gt;2</title>
<path fill="none" stroke="black" d="M244.62,-23.2983C263.657,-28.2216 295.103,-36.3543 317.523,-42.1525"/>
<polygon fill="black" stroke="black" points="316.853,-45.5943 327.411,-44.7097 318.606,-38.8173 316.853,-45.5943"/>
<text text-anchor="middle" x="286" y="-42.8" font-family="Times,serif" font-size="14.00">u0004</text>
</g>
<!-- 3 -->
<g id="node7" class="node"><title>3</title>
<ellipse fill="none" stroke="black" cx="821" cy="-22" rx="18" ry="18"/>
<ellipse fill="none" stroke="black" cx="821" cy="-22" rx="22" ry="22"/>
</g>
<!-- 1&#45;&gt;3 -->
<g id="edge3" class="edge"><title>1&#45;&gt;3</title>
<path fill="none" stroke="black" d="M244.805,-15.2082C267.28,-10.4768 308.423,-3 344,-3 344,-3 344,-3 700,-3 730.684,-3 765.245,-9.13531 789.368,-14.4331"/>
<polygon fill="black" stroke="black" points="788.818,-17.8974 799.346,-16.7074 790.374,-11.0724 788.818,-17.8974"/>
<text text-anchor="middle" x="522" y="-6.8" font-family="Times,serif" font-size="14.00">u0000</text>
</g>
<!-- 4 -->
<g id="node4" class="node"><title>4</title>
<ellipse fill="none" stroke="black" cx="463" cy="-49" rx="18" ry="18"/>
</g>
<!-- 2&#45;&gt;4 -->
<g id="edge4" class="edge"><title>2&#45;&gt;4</title>
<path fill="none" stroke="black" d="M363.116,-49C381.964,-49 412.531,-49 434.696,-49"/>
<polygon fill="black" stroke="black" points="434.814,-52.5001 444.814,-49 434.814,-45.5001 434.814,-52.5001"/>
<text text-anchor="middle" x="404" y="-52.8" font-family="Times,serif" font-size="14.00">u0003</text>
</g>
<!-- 5 -->
<g id="node5" class="node"><title>5</title>
<ellipse fill="none" stroke="black" cx="581" cy="-49" rx="18" ry="18"/>
</g>
<!-- 4&#45;&gt;5 -->
<g id="edge5" class="edge"><title>4&#45;&gt;5</title>
<path fill="none" stroke="black" d="M481.116,-49C499.964,-49 530.531,-49 552.696,-49"/>
<polygon fill="black" stroke="black" points="552.814,-52.5001 562.814,-49 552.814,-45.5001 552.814,-52.5001"/>
<text text-anchor="middle" x="522" y="-52.8" font-family="Times,serif" font-size="14.00">u0003</text>
</g>
<!-- 6 -->
<g id="node6" class="node"><title>6</title>
<ellipse fill="none" stroke="black" cx="699" cy="-49" rx="18" ry="18"/>
</g>
<!-- 5&#45;&gt;6 -->
<g id="edge6" class="edge"><title>5&#45;&gt;6</title>
<path fill="none" stroke="black" d="M599.116,-49C617.964,-49 648.531,-49 670.696,-49"/>
<polygon fill="black" stroke="black" points="670.814,-52.5001 680.814,-49 670.814,-45.5001 670.814,-52.5001"/>
<text text-anchor="middle" x="640" y="-52.8" font-family="Times,serif" font-size="14.00">u0002</text>
</g>
<!-- 6&#45;&gt;3 -->
<g id="edge7" class="edge"><title>6&#45;&gt;3</title>
<path fill="none" stroke="black" d="M716.685,-45.2458C735.45,-41.0238 766.317,-34.0787 789.435,-28.8772"/>
<polygon fill="black" stroke="black" points="790.452,-32.236 799.439,-26.6261 788.915,-25.4067 790.452,-32.236"/>
<text text-anchor="middle" x="758" y="-44.8" font-family="Times,serif" font-size="14.00">u0000</text>
</g>
<!-- initial -->
<g id="node8" class="node"><title>initial</title>
</g>
<!-- initial&#45;&gt;0 -->
<g id="edge8" class="edge"><title>initial&#45;&gt;0</title>
<path fill="none" stroke="black" d="M54.195,-19C62.6538,-19 72.0513,-19 80.5951,-19"/>
<polygon fill="black" stroke="black" points="80.8257,-22.5001 90.8257,-19 80.8257,-15.5001 80.8257,-22.5001"/>
</g>
</g>
</svg>
