<svg width="2289px" height="875px"
 viewBox="0.00 0.00 1717.00 656.00" xmlns="http://www.w3.org/2000/svg" xmlns:xlink="http://www.w3.org/1999/xlink">
<g id="graph0" class="graph" transform="scale(1.000022500562514 1.000022500562514) rotate(0) translate(4 652)">
<title>Automaton</title>
<polygon fill="white" stroke="none" points="-4,4 -4,-652 1713,-652 1713,4 -4,4"/>
<!-- 0 -->
<g id="node1" class="node"><title>0</title>
<ellipse fill="none" stroke="black" cx="109" cy="-498" rx="18" ry="18"/>
</g>
<!-- 1 -->
<g id="node2" class="node"><title>1</title>
<ellipse fill="none" stroke="black" cx="227" cy="-498" rx="18" ry="18"/>
</g>
<!-- 0&#45;&gt;1 -->
<g id="edge1" class="edge"><title>0&#45;&gt;1</title>
<path fill="none" stroke="black" d="M127.116,-498C145.964,-498 176.531,-498 198.696,-498"/>
<polygon fill="black" stroke="black" points="198.814,-501.5 208.814,-498 198.814,-494.5 198.814,-501.5"/>
<text text-anchor="middle" x="168" y="-501.8" font-family="Times,serif" font-size="14.00">u0004</text>
</g>
<!-- 2 -->
<g id="node3" class="node"><title>2</title>
<ellipse fill="none" stroke="black" cx="345" cy="-498" rx="18" ry="18"/>
</g>
<!-- 1&#45;&gt;2 -->
<g id="edge2" class="edge"><title>1&#45;&gt;2</title>
<path fill="none" stroke="black" d="M245.116,-498C263.964,-498 294.531,-498 316.696,-498"/>
<polygon fill="black" stroke="black" points="316.814,-501.5 326.814,-498 316.814,-494.5 316.814,-501.5"/>
<text text-anchor="middle" x="286" y="-501.8" font-family="Times,serif" font-size="14.00">u0005</text>
</g>
<!-- 3 -->
<g id="node4" class="node"><title>3</title>
<ellipse fill="none" stroke="black" cx="940" cy="-498" rx="18" ry="18"/>
</g>
<!-- 2&#45;&gt;3 -->
<g id="edge3" class="edge"><title>2&#45;&gt;3</title>
<path fill="none" stroke="black" d="M363.295,-498C385.962,-498 426.958,-498 462,-498 462,-498 462,-498 818,-498 850.206,-498 887.234,-498 911.758,-498"/>
<polygon fill="black" stroke="black" points="911.768,-501.5 921.768,-498 911.768,-494.5 911.768,-501.5"/>
<text text-anchor="middle" x="640" y="-501.8" font-family="Times,serif" font-size="14.00">u0003</text>
</g>
<!-- 4 -->
<g id="node7" class="node"><title>4</title>
<ellipse fill="none" stroke="black" cx="1565" cy="-358" rx="18" ry="18"/>
</g>
<!-- 2&#45;&gt;4 -->
<g id="edge4" class="edge"><title>2&#45;&gt;4</title>
<path fill="none" stroke="black" d="M351.448,-514.825C364.341,-551.014 400.352,-633 462,-633 462,-633 462,-633 1443,-633 1549.94,-633 1563.2,-456.602 1564.24,-386.362"/>
<polygon fill="black" stroke="black" points="1567.74,-386.068 1564.31,-376.044 1560.74,-386.018 1567.74,-386.068"/>
<text text-anchor="middle" x="940" y="-636.8" font-family="Times,serif" font-size="14.00">u0002</text>
</g>
<!-- 5 -->
<g id="node14" class="node"><title>5</title>
<ellipse fill="none" stroke="black" cx="463" cy="-207" rx="18" ry="18"/>
</g>
<!-- 2&#45;&gt;5 -->
<g id="edge5" class="edge"><title>2&#45;&gt;5</title>
<path fill="none" stroke="black" d="M352.569,-481.521C371.824,-433.216 428.241,-291.689 451.643,-232.982"/>
<polygon fill="black" stroke="black" points="454.907,-234.244 455.359,-223.659 448.405,-231.652 454.907,-234.244"/>
<text text-anchor="middle" x="404" y="-407.8" font-family="Times,serif" font-size="14.00">u0001</text>
</g>
<!-- 6 -->
<g id="node5" class="node"><title>6</title>
<ellipse fill="none" stroke="black" cx="1068" cy="-409" rx="18" ry="18"/>
</g>
<!-- 3&#45;&gt;6 -->
<g id="edge6" class="edge"><title>3&#45;&gt;6</title>
<path fill="none" stroke="black" d="M955.454,-487.791C977.195,-472.433 1018.51,-443.251 1044.3,-425.036"/>
<polygon fill="black" stroke="black" points="1046.57,-427.719 1052.71,-419.09 1042.53,-422.001 1046.57,-427.719"/>
<text text-anchor="middle" x="1004" y="-473.8" font-family="Times,serif" font-size="14.00">u0003</text>
</g>
<!-- 3&#45;&gt;4 -->
<g id="edge7" class="edge"><title>3&#45;&gt;4</title>
<path fill="none" stroke="black" d="M950.456,-512.732C969.161,-539.868 1013.72,-595 1067,-595 1067,-595 1067,-595 1443,-595 1535.8,-595 1557.47,-449.073 1562.49,-386.231"/>
<polygon fill="black" stroke="black" points="1565.99,-386.427 1563.21,-376.203 1559.01,-385.929 1565.99,-386.427"/>
<text text-anchor="middle" x="1250" y="-598.8" font-family="Times,serif" font-size="14.00">u0002</text>
</g>
<!-- 7 -->
<g id="node11" class="node"><title>7</title>
<ellipse fill="none" stroke="black" cx="1068" cy="-498" rx="18" ry="18"/>
</g>
<!-- 3&#45;&gt;7 -->
<g id="edge8" class="edge"><title>3&#45;&gt;7</title>
<path fill="none" stroke="black" d="M958.256,-498C979.274,-498 1015.03,-498 1039.77,-498"/>
<polygon fill="black" stroke="black" points="1039.95,-501.5 1049.95,-498 1039.95,-494.5 1039.95,-501.5"/>
<text text-anchor="middle" x="1004" y="-501.8" font-family="Times,serif" font-size="14.00">u0001</text>
</g>
<!-- 11 -->
<g id="node6" class="node"><title>11</title>
<ellipse fill="none" stroke="black" cx="1191" cy="-308" rx="18" ry="18"/>
</g>
<!-- 6&#45;&gt;11 -->
<g id="edge9" class="edge"><title>6&#45;&gt;11</title>
<path fill="none" stroke="black" d="M1082.41,-397.805C1103.31,-380.363 1143.82,-346.548 1168.73,-325.755"/>
<polygon fill="black" stroke="black" points="1171.09,-328.34 1176.53,-319.245 1166.61,-322.966 1171.09,-328.34"/>
<text text-anchor="middle" x="1132" y="-377.8" font-family="Times,serif" font-size="14.00">u0003</text>
</g>
<!-- 6&#45;&gt;4 -->
<g id="edge10" class="edge"><title>6&#45;&gt;4</title>
<path fill="none" stroke="black" d="M1085.47,-413.359C1134.27,-425.592 1282.13,-457.72 1401,-432 1453.85,-420.564 1510.16,-390.488 1540.81,-372.393"/>
<polygon fill="black" stroke="black" points="1542.69,-375.345 1549.47,-367.196 1539.09,-369.343 1542.69,-375.345"/>
<text text-anchor="middle" x="1314" y="-445.8" font-family="Times,serif" font-size="14.00">u0002</text>
</g>
<!-- 11&#45;&gt;4 -->
<g id="edge11" class="edge"><title>11&#45;&gt;4</title>
<path fill="none" stroke="black" d="M1209.13,-308.125C1259.19,-308.85 1409.23,-313.6 1529,-344 1532.24,-344.821 1535.57,-345.871 1538.84,-347.025"/>
<polygon fill="black" stroke="black" points="1537.68,-350.329 1548.27,-350.679 1540.21,-343.802 1537.68,-350.329"/>
<text text-anchor="middle" x="1378" y="-324.8" font-family="Times,serif" font-size="14.00">u0002</text>
</g>
<!-- 16 -->
<g id="node9" class="node"><title>16</title>
<ellipse fill="none" stroke="black" cx="1314" cy="-211" rx="18" ry="18"/>
</g>
<!-- 11&#45;&gt;16 -->
<g id="edge12" class="edge"><title>11&#45;&gt;16</title>
<path fill="none" stroke="black" d="M1196.27,-290.618C1201.11,-274.495 1210.54,-250.952 1227,-237 1236,-229.372 1264.38,-221.682 1286.11,-216.666"/>
<polygon fill="black" stroke="black" points="1287.12,-220.025 1296.12,-214.43 1285.6,-213.193 1287.12,-220.025"/>
<text text-anchor="middle" x="1250" y="-240.8" font-family="Times,serif" font-size="14.00">u0001</text>
</g>
<!-- 8 -->
<g id="node8" class="node"><title>8</title>
<ellipse fill="none" stroke="black" cx="1687" cy="-358" rx="18" ry="18"/>
<ellipse fill="none" stroke="black" cx="1687" cy="-358" rx="22" ry="22"/>
</g>
<!-- 4&#45;&gt;8 -->
<g id="edge13" class="edge"><title>4&#45;&gt;8</title>
<path fill="none" stroke="black" d="M1583.19,-358C1601.77,-358 1631.76,-358 1654.57,-358"/>
<polygon fill="black" stroke="black" points="1654.79,-361.5 1664.79,-358 1654.79,-354.5 1654.79,-361.5"/>
<text text-anchor="middle" x="1624" y="-361.8" font-family="Times,serif" font-size="14.00">u0000</text>
</g>
<!-- 13 -->
<g id="node10" class="node"><title>13</title>
<ellipse fill="none" stroke="black" cx="1442" cy="-266" rx="18" ry="18"/>
</g>
<!-- 16&#45;&gt;13 -->
<g id="edge14" class="edge"><title>16&#45;&gt;13</title>
<path fill="none" stroke="black" d="M1331.7,-214.955C1349.42,-219.489 1378,-227.769 1401,-239 1407.03,-241.943 1413.2,-245.687 1418.83,-249.441"/>
<polygon fill="black" stroke="black" points="1416.94,-252.39 1427.14,-255.238 1420.94,-246.648 1416.94,-252.39"/>
<text text-anchor="middle" x="1378" y="-242.8" font-family="Times,serif" font-size="14.00">u0001</text>
</g>
<!-- 13&#45;&gt;4 -->
<g id="edge15" class="edge"><title>13&#45;&gt;4</title>
<path fill="none" stroke="black" d="M1460.04,-265.048C1478.86,-264.895 1509.11,-267.417 1529,-283 1543.84,-294.632 1552.67,-314.051 1557.74,-330.215"/>
<polygon fill="black" stroke="black" points="1554.49,-331.57 1560.56,-340.252 1561.23,-329.678 1554.49,-331.57"/>
<text text-anchor="middle" x="1506" y="-286.8" font-family="Times,serif" font-size="14.00">u0002</text>
</g>
<!-- 7&#45;&gt;4 -->
<g id="edge17" class="edge"><title>7&#45;&gt;4</title>
<path fill="none" stroke="black" d="M1082.64,-508.669C1104.16,-524.406 1147.9,-552 1190,-552 1190,-552 1190,-552 1443,-552 1490.91,-552 1502.17,-526.698 1529,-487 1549.65,-456.447 1558.15,-414.12 1561.62,-386.408"/>
<polygon fill="black" stroke="black" points="1565.13,-386.533 1562.76,-376.207 1558.18,-385.758 1565.13,-386.533"/>
<text text-anchor="middle" x="1314" y="-555.8" font-family="Times,serif" font-size="14.00">u0002</text>
</g>
<!-- 7&#45;&gt;13 -->
<g id="edge18" class="edge"><title>7&#45;&gt;13</title>
<path fill="none" stroke="black" d="M1085.72,-493.656C1144.24,-478.447 1336.35,-428.493 1337,-428 1349.68,-418.357 1345.97,-410.126 1355,-397 1373.45,-370.179 1382.96,-367.1 1401,-340 1411.42,-324.343 1421.48,-305.711 1428.91,-291.059"/>
<polygon fill="black" stroke="black" points="1432.05,-292.589 1433.38,-282.078 1425.79,-289.467 1432.05,-292.589"/>
<text text-anchor="middle" x="1250" y="-460.8" font-family="Times,serif" font-size="14.00">u0001</text>
</g>
<!-- 12 -->
<g id="node12" class="node"><title>12</title>
<ellipse fill="none" stroke="black" cx="1191" cy="-498" rx="18" ry="18"/>
</g>
<!-- 7&#45;&gt;12 -->
<g id="edge16" class="edge"><title>7&#45;&gt;12</title>
<path fill="none" stroke="black" d="M1086.08,-498C1105.96,-498 1139.08,-498 1162.58,-498"/>
<polygon fill="black" stroke="black" points="1162.62,-501.5 1172.62,-498 1162.62,-494.5 1162.62,-501.5"/>
<text text-anchor="middle" x="1132" y="-501.8" font-family="Times,serif" font-size="14.00">u0003</text>
</g>
<!-- 17 -->
<g id="node13" class="node"><title>17</title>
<ellipse fill="none" stroke="black" cx="1314" cy="-498" rx="18" ry="18"/>
</g>
<!-- 12&#45;&gt;17 -->
<g id="edge19" class="edge"><title>12&#45;&gt;17</title>
<path fill="none" stroke="black" d="M1209.08,-498C1228.96,-498 1262.08,-498 1285.58,-498"/>
<polygon fill="black" stroke="black" points="1285.62,-501.5 1295.62,-498 1285.62,-494.5 1285.62,-501.5"/>
<text text-anchor="middle" x="1250" y="-501.8" font-family="Times,serif" font-size="14.00">u0001</text>
</g>
<!-- 17&#45;&gt;4 -->
<g id="edge20" class="edge"><title>17&#45;&gt;4</title>
<path fill="none" stroke="black" d="M1332.11,-500.29C1371.82,-504.596 1471.24,-509.446 1529,-460 1550.46,-441.629 1558.78,-409.478 1562,-386.174"/>
<polygon fill="black" stroke="black" points="1565.48,-386.504 1563.14,-376.171 1558.53,-385.707 1565.48,-386.504"/>
<text text-anchor="middle" x="1442" y="-503.8" font-family="Times,serif" font-size="14.00">u0002</text>
</g>
<!-- 17&#45;&gt;13 -->
<g id="edge21" class="edge"><title>17&#45;&gt;13</title>
<path fill="none" stroke="black" d="M1327.61,-486.05C1346.16,-467.831 1380.78,-431.278 1401,-394 1418.54,-361.659 1429.67,-320.472 1435.61,-293.684"/>
<polygon fill="black" stroke="black" points="1439.05,-294.341 1437.71,-283.831 1432.21,-292.883 1439.05,-294.341"/>
<text text-anchor="middle" x="1378" y="-459.8" font-family="Times,serif" font-size="14.00">u0001</text>
</g>
<!-- 5&#45;&gt;4 -->
<g id="edge23" class="edge"><title>5&#45;&gt;4</title>
<path fill="none" stroke="black" d="M465.549,-188.992C470.96,-138.63 493.695,-0 580,-0 580,-0 580,-0 1443,-0 1488.13,-0 1504.94,-15.8182 1529,-54 1557.71,-99.5548 1562.9,-263.582 1563.81,-329.892"/>
<polygon fill="black" stroke="black" points="1560.32,-330.061 1563.93,-340.02 1567.32,-329.981 1560.32,-330.061"/>
<text text-anchor="middle" x="1004" y="-3.8" font-family="Times,serif" font-size="14.00">u0002</text>
</g>
<!-- 9 -->
<g id="node15" class="node"><title>9</title>
<ellipse fill="none" stroke="black" cx="581" cy="-131" rx="18" ry="18"/>
</g>
<!-- 5&#45;&gt;9 -->
<g id="edge22" class="edge"><title>5&#45;&gt;9</title>
<path fill="none" stroke="black" d="M478.691,-197.375C498.39,-184.469 533.572,-161.418 556.851,-146.167"/>
<polygon fill="black" stroke="black" points="558.981,-148.955 565.428,-140.547 555.145,-143.1 558.981,-148.955"/>
<text text-anchor="middle" x="522" y="-186.8" font-family="Times,serif" font-size="14.00">u0003</text>
</g>
<!-- 10 -->
<g id="node21" class="node"><title>10</title>
<ellipse fill="none" stroke="black" cx="1068" cy="-285" rx="18" ry="18"/>
</g>
<!-- 5&#45;&gt;10 -->
<g id="edge24" class="edge"><title>5&#45;&gt;10</title>
<path fill="none" stroke="black" d="M476.832,-218.657C497.143,-235.851 538.653,-266 580,-266 580,-266 580,-266 941,-266 975.649,-266 1015.06,-273.112 1040.44,-278.634"/>
<polygon fill="black" stroke="black" points="1039.88,-282.095 1050.41,-280.877 1041.42,-275.266 1039.88,-282.095"/>
<text text-anchor="middle" x="758" y="-269.8" font-family="Times,serif" font-size="14.00">u0001</text>
</g>
<!-- 9&#45;&gt;4 -->
<g id="edge26" class="edge"><title>9&#45;&gt;4</title>
<path fill="none" stroke="black" d="M591.981,-116.581C610.074,-92.33 650.813,-46 698,-46 698,-46 698,-46 1443,-46 1498.33,-46 1504.46,-86.4135 1529,-136 1560.67,-199.993 1564.95,-285.932 1564.81,-329.746"/>
<polygon fill="black" stroke="black" points="1561.31,-329.899 1564.69,-339.938 1568.31,-329.978 1561.31,-329.899"/>
<text text-anchor="middle" x="1068" y="-49.8" font-family="Times,serif" font-size="14.00">u0002</text>
</g>
<!-- 9&#45;&gt;13 -->
<g id="edge25" class="edge"><title>9&#45;&gt;13</title>
<path fill="none" stroke="black" d="M596.765,-121.887C618.224,-109.534 659.661,-89 698,-89 698,-89 698,-89 1251,-89 1339.12,-89 1403.44,-192.192 1428.94,-240.992"/>
<polygon fill="black" stroke="black" points="1425.86,-242.657 1433.51,-249.98 1432.09,-239.481 1425.86,-242.657"/>
<text text-anchor="middle" x="1004" y="-92.8" font-family="Times,serif" font-size="14.00">u0003</text>
</g>
<!-- 14 -->
<g id="node16" class="node"><title>14</title>
<ellipse fill="none" stroke="black" cx="699" cy="-160" rx="18" ry="18"/>
</g>
<!-- 9&#45;&gt;14 -->
<g id="edge27" class="edge"><title>9&#45;&gt;14</title>
<path fill="none" stroke="black" d="M598.62,-135.155C617.657,-139.914 649.103,-147.776 671.523,-153.381"/>
<polygon fill="black" stroke="black" points="670.861,-156.823 681.411,-155.853 672.558,-150.032 670.861,-156.823"/>
<text text-anchor="middle" x="640" y="-154.8" font-family="Times,serif" font-size="14.00">u0001</text>
</g>
<!-- 14&#45;&gt;4 -->
<g id="edge29" class="edge"><title>14&#45;&gt;4</title>
<path fill="none" stroke="black" d="M715.734,-152.512C737.674,-142.775 778.94,-127 816,-127 816,-127 816,-127 1443,-127 1533.54,-127 1556.46,-267.98 1562.16,-329.668"/>
<polygon fill="black" stroke="black" points="1558.69,-330.199 1563.01,-339.874 1565.67,-329.618 1558.69,-330.199"/>
<text text-anchor="middle" x="1132" y="-130.8" font-family="Times,serif" font-size="14.00">u0002</text>
</g>
<!-- 14&#45;&gt;16 -->
<g id="edge28" class="edge"><title>14&#45;&gt;16</title>
<path fill="none" stroke="black" d="M712.832,-171.657C733.143,-188.851 774.653,-219 816,-219 816,-219 816,-219 1133,-219 1187.29,-219 1250.69,-215.323 1285.9,-212.955"/>
<polygon fill="black" stroke="black" points="1286.15,-216.447 1295.89,-212.268 1285.67,-209.463 1286.15,-216.447"/>
<text text-anchor="middle" x="1004" y="-222.8" font-family="Times,serif" font-size="14.00">u0003</text>
</g>
<!-- 18 -->
<g id="node17" class="node"><title>18</title>
<ellipse fill="none" stroke="black" cx="817" cy="-173" rx="18" ry="18"/>
</g>
<!-- 14&#45;&gt;18 -->
<g id="edge30" class="edge"><title>14&#45;&gt;18</title>
<path fill="none" stroke="black" d="M717.116,-161.918C735.964,-164.03 766.531,-167.456 788.696,-169.94"/>
<polygon fill="black" stroke="black" points="788.486,-173.438 798.814,-171.074 789.266,-166.482 788.486,-173.438"/>
<text text-anchor="middle" x="758" y="-172.8" font-family="Times,serif" font-size="14.00">u0001</text>
</g>
<!-- 19 -->
<g id="node18" class="node"><title>19</title>
<ellipse fill="none" stroke="black" cx="940" cy="-173" rx="18" ry="18"/>
</g>
<!-- 18&#45;&gt;19 -->
<g id="edge31" class="edge"><title>18&#45;&gt;19</title>
<path fill="none" stroke="black" d="M835.08,-173C854.965,-173 888.077,-173 911.577,-173"/>
<polygon fill="black" stroke="black" points="911.615,-176.5 921.615,-173 911.615,-169.5 911.615,-176.5"/>
<text text-anchor="middle" x="876" y="-176.8" font-family="Times,serif" font-size="14.00">u0003</text>
</g>
<!-- 20 -->
<g id="node19" class="node"><title>20</title>
<ellipse fill="none" stroke="black" cx="1068" cy="-173" rx="18" ry="18"/>
</g>
<!-- 19&#45;&gt;20 -->
<g id="edge32" class="edge"><title>19&#45;&gt;20</title>
<path fill="none" stroke="black" d="M958.256,-173C979.274,-173 1015.03,-173 1039.77,-173"/>
<polygon fill="black" stroke="black" points="1039.95,-176.5 1049.95,-173 1039.95,-169.5 1039.95,-176.5"/>
<text text-anchor="middle" x="1004" y="-176.8" font-family="Times,serif" font-size="14.00">u0001</text>
</g>
<!-- 21 -->
<g id="node20" class="node"><title>21</title>
<ellipse fill="none" stroke="black" cx="1191" cy="-173" rx="18" ry="18"/>
</g>
<!-- 20&#45;&gt;21 -->
<g id="edge33" class="edge"><title>20&#45;&gt;21</title>
<path fill="none" stroke="black" d="M1086.08,-173C1105.96,-173 1139.08,-173 1162.58,-173"/>
<polygon fill="black" stroke="black" points="1162.62,-176.5 1172.62,-173 1162.62,-169.5 1162.62,-176.5"/>
<text text-anchor="middle" x="1132" y="-176.8" font-family="Times,serif" font-size="14.00">u0001</text>
</g>
<!-- 21&#45;&gt;16 -->
<g id="edge34" class="edge"><title>21&#45;&gt;16</title>
<path fill="none" stroke="black" d="M1209.09,-171.4C1225.94,-170.473 1252.13,-170.802 1273,-179 1280.28,-181.862 1287.29,-186.537 1293.34,-191.441"/>
<polygon fill="black" stroke="black" points="1291.12,-194.152 1300.95,-198.122 1295.74,-188.893 1291.12,-194.152"/>
<text text-anchor="middle" x="1250" y="-182.8" font-family="Times,serif" font-size="14.00">u0001</text>
</g>
<!-- 10&#45;&gt;11 -->
<g id="edge37" class="edge"><title>10&#45;&gt;11</title>
<path fill="none" stroke="black" d="M1086.05,-285.402C1103.57,-286.135 1131.54,-288.199 1155,-294 1158.24,-294.801 1161.58,-295.839 1164.85,-296.987"/>
<polygon fill="black" stroke="black" points="1163.69,-300.291 1174.28,-300.636 1166.21,-293.763 1163.69,-300.291"/>
<text text-anchor="middle" x="1132" y="-297.8" font-family="Times,serif" font-size="14.00">u0001</text>
</g>
<!-- 10&#45;&gt;4 -->
<g id="edge36" class="edge"><title>10&#45;&gt;4</title>
<path fill="none" stroke="black" d="M1074.68,-301.803C1080.67,-316.609 1091.68,-337.29 1109,-347 1182.53,-388.227 1449.58,-368.371 1536.47,-360.616"/>
<polygon fill="black" stroke="black" points="1536.96,-364.086 1546.6,-359.693 1536.33,-357.114 1536.96,-364.086"/>
<text text-anchor="middle" x="1314" y="-376.8" font-family="Times,serif" font-size="14.00">u0002</text>
</g>
<!-- 15 -->
<g id="node22" class="node"><title>15</title>
<ellipse fill="none" stroke="black" cx="1250" cy="-279" rx="18" ry="18"/>
</g>
<!-- 10&#45;&gt;15 -->
<g id="edge35" class="edge"><title>10&#45;&gt;15</title>
<path fill="none" stroke="black" d="M1084.54,-277.181C1091.78,-273.962 1100.63,-270.612 1109,-269 1147.83,-261.523 1193.68,-267.542 1222.06,-272.953"/>
<polygon fill="black" stroke="black" points="1221.53,-276.417 1232.02,-274.967 1222.91,-269.556 1221.53,-276.417"/>
<text text-anchor="middle" x="1132" y="-272.8" font-family="Times,serif" font-size="14.00">u0003</text>
</g>
<!-- 15&#45;&gt;13 -->
<g id="edge38" class="edge"><title>15&#45;&gt;13</title>
<path fill="none" stroke="black" d="M1268.2,-277.823C1301.33,-275.556 1374.25,-270.567 1413.95,-267.851"/>
<polygon fill="black" stroke="black" points="1414.24,-271.339 1423.98,-267.165 1413.76,-264.355 1414.24,-271.339"/>
<text text-anchor="middle" x="1314" y="-280.8" font-family="Times,serif" font-size="14.00">u0003</text>
</g>
<!-- initial -->
<g id="node23" class="node"><title>initial</title>
</g>
<!-- initial&#45;&gt;0 -->
<g id="edge39" class="edge"><title>initial&#45;&gt;0</title>
<path fill="none" stroke="black" d="M54.195,-498C62.6538,-498 72.0513,-498 80.5951,-498"/>
<polygon fill="black" stroke="black" points="80.8257,-501.5 90.8257,-498 80.8257,-494.5 80.8257,-501.5"/>
</g>
</g>
</svg>
