<svg width="2617px" height="517px"
 viewBox="0.00 0.00 1963.00 388.00" xmlns="http://www.w3.org/2000/svg" xmlns:xlink="http://www.w3.org/1999/xlink">
<g id="graph0" class="graph" transform="scale(1.000022500562514 1.000022500562514) rotate(0) translate(4 384)">
<title>Automaton</title>
<polygon fill="white" stroke="none" points="-4,4 -4,-384 1959,-384 1959,4 -4,4"/>
<!-- 0 -->
<g id="node1" class="node"><title>0</title>
<ellipse fill="none" stroke="black" cx="109" cy="-18" rx="18" ry="18"/>
</g>
<!-- 1 -->
<g id="node2" class="node"><title>1</title>
<ellipse fill="none" stroke="black" cx="227" cy="-18" rx="18" ry="18"/>
</g>
<!-- 0&#45;&gt;1 -->
<g id="edge1" class="edge"><title>0&#45;&gt;1</title>
<path fill="none" stroke="black" d="M127.116,-18C145.964,-18 176.531,-18 198.696,-18"/>
<polygon fill="black" stroke="black" points="198.814,-21.5001 208.814,-18 198.814,-14.5001 198.814,-21.5001"/>
<text text-anchor="middle" x="168" y="-21.8" font-family="Times,serif" font-size="14.00">u0000</text>
</g>
<!-- 2 -->
<g id="node3" class="node"><title>2</title>
<ellipse fill="none" stroke="black" cx="345" cy="-18" rx="18" ry="18"/>
</g>
<!-- 1&#45;&gt;2 -->
<g id="edge2" class="edge"><title>1&#45;&gt;2</title>
<path fill="none" stroke="black" d="M245.116,-18C263.964,-18 294.531,-18 316.696,-18"/>
<polygon fill="black" stroke="black" points="316.814,-21.5001 326.814,-18 316.814,-14.5001 316.814,-21.5001"/>
<text text-anchor="middle" x="286" y="-21.8" font-family="Times,serif" font-size="14.00">u0002</text>
</g>
<!-- 3 -->
<g id="node4" class="node"><title>3</title>
<ellipse fill="none" stroke="black" cx="463" cy="-18" rx="18" ry="18"/>
</g>
<!-- 2&#45;&gt;3 -->
<g id="edge3" class="edge"><title>2&#45;&gt;3</title>
<path fill="none" stroke="black" d="M363.116,-18C381.964,-18 412.531,-18 434.696,-18"/>
<polygon fill="black" stroke="black" points="434.814,-21.5001 444.814,-18 434.814,-14.5001 434.814,-21.5001"/>
<text text-anchor="middle" x="404" y="-21.8" font-family="Times,serif" font-size="14.00">u0001</text>
</g>
<!-- 4 -->
<g id="node5" class="node"><title>4</title>
<ellipse fill="none" stroke="black" cx="581" cy="-48" rx="18" ry="18"/>
</g>
<!-- 3&#45;&gt;4 -->
<g id="edge4" class="edge"><title>3&#45;&gt;4</title>
<path fill="none" stroke="black" d="M480.62,-22.2983C499.657,-27.2216 531.103,-35.3543 553.523,-41.1525"/>
<polygon fill="black" stroke="black" points="552.853,-44.5943 563.411,-43.7097 554.606,-37.8173 552.853,-44.5943"/>
<text text-anchor="middle" x="522" y="-41.8" font-family="Times,serif" font-size="14.00">u0004</text>
</g>
<!-- 5 -->
<g id="node16" class="node"><title>5</title>
<ellipse fill="none" stroke="black" cx="1933" cy="-180" rx="18" ry="18"/>
<ellipse fill="none" stroke="black" cx="1933" cy="-180" rx="22" ry="22"/>
</g>
<!-- 3&#45;&gt;5 -->
<g id="edge5" class="edge"><title>3&#45;&gt;5</title>
<path fill="none" stroke="black" d="M480.805,-14.2082C503.28,-9.47681 544.423,-2 580,-2 580,-2 580,-2 1812,-2 1853.4,-2 1867.27,-15.5701 1893,-48 1916.02,-77.0076 1925.46,-119.267 1929.33,-148.104"/>
<polygon fill="black" stroke="black" points="1925.86,-148.556 1930.51,-158.072 1932.81,-147.728 1925.86,-148.556"/>
<text text-anchor="middle" x="1176" y="-5.8" font-family="Times,serif" font-size="14.00">u0003</text>
</g>
<!-- 6 -->
<g id="node6" class="node"><title>6</title>
<ellipse fill="none" stroke="black" cx="699" cy="-91" rx="18" ry="18"/>
</g>
<!-- 4&#45;&gt;6 -->
<g id="edge6" class="edge"><title>4&#45;&gt;6</title>
<path fill="none" stroke="black" d="M598.129,-53.979C617.24,-61.0631 649.337,-72.9611 671.977,-81.3537"/>
<polygon fill="black" stroke="black" points="671.041,-84.7391 681.634,-84.9332 673.474,-78.1756 671.041,-84.7391"/>
<text text-anchor="middle" x="640" y="-80.8" font-family="Times,serif" font-size="14.00">u0004</text>
</g>
<!-- 4&#45;&gt;5 -->
<g id="edge7" class="edge"><title>4&#45;&gt;5</title>
<path fill="none" stroke="black" d="M599.291,-47.2738C621.955,-46.3859 662.947,-45 698,-45 698,-45 698,-45 1812,-45 1854.54,-45 1864.89,-64.0668 1893,-96 1906.59,-111.436 1916.33,-132.415 1922.68,-149.546"/>
<polygon fill="black" stroke="black" points="1919.43,-150.834 1926.03,-159.116 1926.03,-148.521 1919.43,-150.834"/>
<text text-anchor="middle" x="1240" y="-48.8" font-family="Times,serif" font-size="14.00">u0003</text>
</g>
<!-- 7 -->
<g id="node7" class="node"><title>7</title>
<ellipse fill="none" stroke="black" cx="817" cy="-137" rx="18" ry="18"/>
</g>
<!-- 6&#45;&gt;7 -->
<g id="edge8" class="edge"><title>6&#45;&gt;7</title>
<path fill="none" stroke="black" d="M716.024,-97.4264C721.98,-99.8106 728.797,-102.534 735,-105 753.441,-112.331 774.265,-120.556 790.18,-126.832"/>
<polygon fill="black" stroke="black" points="789.268,-130.235 799.855,-130.645 791.835,-123.722 789.268,-130.235"/>
<text text-anchor="middle" x="758" y="-125.8" font-family="Times,serif" font-size="14.00">u0004</text>
</g>
<!-- 6&#45;&gt;5 -->
<g id="edge9" class="edge"><title>6&#45;&gt;5</title>
<path fill="none" stroke="black" d="M717.295,-91C739.962,-91 780.958,-91 816,-91 816,-91 816,-91 1812,-91 1854.6,-91 1891.93,-127.627 1913.21,-153.887"/>
<polygon fill="black" stroke="black" points="1910.63,-156.267 1919.55,-161.99 1916.15,-151.956 1910.63,-156.267"/>
<text text-anchor="middle" x="1304" y="-94.8" font-family="Times,serif" font-size="14.00">u0003</text>
</g>
<!-- 8 -->
<g id="node8" class="node"><title>8</title>
<ellipse fill="none" stroke="black" cx="935" cy="-180" rx="18" ry="18"/>
</g>
<!-- 7&#45;&gt;8 -->
<g id="edge10" class="edge"><title>7&#45;&gt;8</title>
<path fill="none" stroke="black" d="M834.129,-142.979C853.24,-150.063 885.337,-161.961 907.977,-170.354"/>
<polygon fill="black" stroke="black" points="907.041,-173.739 917.634,-173.933 909.474,-167.176 907.041,-173.739"/>
<text text-anchor="middle" x="876" y="-169.8" font-family="Times,serif" font-size="14.00">u0004</text>
</g>
<!-- 7&#45;&gt;5 -->
<g id="edge11" class="edge"><title>7&#45;&gt;5</title>
<path fill="none" stroke="black" d="M835.291,-136.274C857.955,-135.386 898.947,-134 934,-134 934,-134 934,-134 1812,-134 1845.88,-134 1881.79,-150.183 1905.4,-163.352"/>
<polygon fill="black" stroke="black" points="1903.71,-166.418 1914.11,-168.392 1907.21,-160.357 1903.71,-166.418"/>
<text text-anchor="middle" x="1368" y="-137.8" font-family="Times,serif" font-size="14.00">u0003</text>
</g>
<!-- 9 -->
<g id="node9" class="node"><title>9</title>
<ellipse fill="none" stroke="black" cx="1053" cy="-226" rx="18" ry="18"/>
</g>
<!-- 8&#45;&gt;9 -->
<g id="edge12" class="edge"><title>8&#45;&gt;9</title>
<path fill="none" stroke="black" d="M952.024,-186.426C957.98,-188.811 964.797,-191.534 971,-194 989.441,-201.331 1010.26,-209.556 1026.18,-215.832"/>
<polygon fill="black" stroke="black" points="1025.27,-219.235 1035.86,-219.645 1027.84,-212.722 1025.27,-219.235"/>
<text text-anchor="middle" x="994" y="-214.8" font-family="Times,serif" font-size="14.00">u0004</text>
</g>
<!-- 8&#45;&gt;5 -->
<g id="edge13" class="edge"><title>8&#45;&gt;5</title>
<path fill="none" stroke="black" d="M953.295,-180C975.962,-180 1016.96,-180 1052,-180 1052,-180 1052,-180 1812,-180 1842.13,-180 1876.5,-180 1900.72,-180"/>
<polygon fill="black" stroke="black" points="1900.76,-183.5 1910.76,-180 1900.76,-176.5 1900.76,-183.5"/>
<text text-anchor="middle" x="1432" y="-183.8" font-family="Times,serif" font-size="14.00">u0003</text>
</g>
<!-- 10 -->
<g id="node10" class="node"><title>10</title>
<ellipse fill="none" stroke="black" cx="1176" cy="-269" rx="18" ry="18"/>
</g>
<!-- 9&#45;&gt;10 -->
<g id="edge14" class="edge"><title>9&#45;&gt;10</title>
<path fill="none" stroke="black" d="M1070.32,-231.799C1090.53,-238.98 1125.19,-251.299 1149.06,-259.781"/>
<polygon fill="black" stroke="black" points="1147.96,-263.105 1158.55,-263.155 1150.3,-256.509 1147.96,-263.105"/>
<text text-anchor="middle" x="1112" y="-256.8" font-family="Times,serif" font-size="14.00">u0004</text>
</g>
<!-- 9&#45;&gt;5 -->
<g id="edge15" class="edge"><title>9&#45;&gt;5</title>
<path fill="none" stroke="black" d="M1071.23,-225.304C1094.69,-224.418 1138.02,-223 1175,-223 1175,-223 1175,-223 1369,-223 1481.9,-223 1510.1,-219 1623,-219 1623,-219 1623,-219 1812,-219 1844.73,-219 1880.13,-205.715 1903.94,-194.652"/>
<polygon fill="black" stroke="black" points="1905.59,-197.741 1913.08,-190.247 1902.55,-191.435 1905.59,-197.741"/>
<text text-anchor="middle" x="1496" y="-224.8" font-family="Times,serif" font-size="14.00">u0003</text>
</g>
<!-- 11 -->
<g id="node11" class="node"><title>11</title>
<ellipse fill="none" stroke="black" cx="1304" cy="-311" rx="18" ry="18"/>
</g>
<!-- 10&#45;&gt;11 -->
<g id="edge16" class="edge"><title>10&#45;&gt;11</title>
<path fill="none" stroke="black" d="M1193.21,-274.405C1214.36,-281.454 1251.62,-293.874 1276.8,-302.267"/>
<polygon fill="black" stroke="black" points="1275.85,-305.641 1286.45,-305.483 1278.07,-299 1275.85,-305.641"/>
<text text-anchor="middle" x="1240" y="-300.8" font-family="Times,serif" font-size="14.00">u0004</text>
</g>
<!-- 10&#45;&gt;5 -->
<g id="edge17" class="edge"><title>10&#45;&gt;5</title>
<path fill="none" stroke="black" d="M1194.11,-268.112C1218.34,-266.934 1264.04,-265 1303,-265 1303,-265 1303,-265 1812,-265 1850.71,-265 1862.33,-256.62 1893,-233 1901.98,-226.08 1909.87,-216.556 1916.15,-207.49"/>
<polygon fill="black" stroke="black" points="1919.13,-209.324 1921.67,-199.037 1913.27,-205.498 1919.13,-209.324"/>
<text text-anchor="middle" x="1560" y="-268.8" font-family="Times,serif" font-size="14.00">u0003</text>
</g>
<!-- 12 -->
<g id="node12" class="node"><title>12</title>
<ellipse fill="none" stroke="black" cx="1432" cy="-311" rx="18" ry="18"/>
</g>
<!-- 11&#45;&gt;12 -->
<g id="edge18" class="edge"><title>11&#45;&gt;12</title>
<path fill="none" stroke="black" d="M1322.26,-311C1343.27,-311 1379.03,-311 1403.77,-311"/>
<polygon fill="black" stroke="black" points="1403.95,-314.5 1413.95,-311 1403.95,-307.5 1403.95,-314.5"/>
<text text-anchor="middle" x="1368" y="-314.8" font-family="Times,serif" font-size="14.00">u0004</text>
</g>
<!-- 13 -->
<g id="node13" class="node"><title>13</title>
<ellipse fill="none" stroke="black" cx="1560" cy="-359" rx="18" ry="18"/>
</g>
<!-- 12&#45;&gt;13 -->
<g id="edge19" class="edge"><title>12&#45;&gt;13</title>
<path fill="none" stroke="black" d="M1448.96,-317.079C1470.14,-325.15 1507.82,-339.502 1533.1,-349.135"/>
<polygon fill="black" stroke="black" points="1532.18,-352.529 1542.77,-352.819 1534.67,-345.988 1532.18,-352.529"/>
<text text-anchor="middle" x="1496" y="-346.8" font-family="Times,serif" font-size="14.00">u0004</text>
</g>
<!-- 12&#45;&gt;5 -->
<g id="edge20" class="edge"><title>12&#45;&gt;5</title>
<path fill="none" stroke="black" d="M1450.12,-311C1474.36,-311 1520.06,-311 1559,-311 1559,-311 1559,-311 1812,-311 1850.71,-311 1865.64,-306.384 1893,-279 1911.18,-260.806 1921.12,-233.122 1926.4,-211.65"/>
<polygon fill="black" stroke="black" points="1929.87,-212.201 1928.64,-201.678 1923.04,-210.669 1929.87,-212.201"/>
<text text-anchor="middle" x="1688" y="-314.8" font-family="Times,serif" font-size="14.00">u0003</text>
</g>
<!-- 14 -->
<g id="node14" class="node"><title>14</title>
<ellipse fill="none" stroke="black" cx="1688" cy="-362" rx="18" ry="18"/>
</g>
<!-- 13&#45;&gt;14 -->
<g id="edge21" class="edge"><title>13&#45;&gt;14</title>
<path fill="none" stroke="black" d="M1578.26,-359.411C1599.27,-359.911 1635.03,-360.763 1659.77,-361.352"/>
<polygon fill="black" stroke="black" points="1659.87,-364.855 1669.95,-361.594 1660.04,-357.857 1659.87,-364.855"/>
<text text-anchor="middle" x="1624" y="-364.8" font-family="Times,serif" font-size="14.00">u0004</text>
</g>
<!-- 15 -->
<g id="node15" class="node"><title>15</title>
<ellipse fill="none" stroke="black" cx="1811" cy="-358" rx="18" ry="18"/>
</g>
<!-- 14&#45;&gt;15 -->
<g id="edge22" class="edge"><title>14&#45;&gt;15</title>
<path fill="none" stroke="black" d="M1706.08,-361.435C1726.08,-360.774 1759.45,-359.671 1782.98,-358.893"/>
<polygon fill="black" stroke="black" points="1783.13,-362.39 1793.01,-358.562 1782.9,-355.394 1783.13,-362.39"/>
<text text-anchor="middle" x="1752" y="-363.8" font-family="Times,serif" font-size="14.00">u0004</text>
</g>
<!-- 15&#45;&gt;5 -->
<g id="edge23" class="edge"><title>15&#45;&gt;5</title>
<path fill="none" stroke="black" d="M1829.14,-355.575C1847.56,-352.061 1876.42,-343.781 1893,-325 1920.67,-293.662 1928.98,-244.684 1931.32,-212.465"/>
<polygon fill="black" stroke="black" points="1934.83,-212.414 1931.91,-202.231 1927.84,-212.014 1934.83,-212.414"/>
<text text-anchor="middle" x="1870" y="-353.8" font-family="Times,serif" font-size="14.00">u0003</text>
</g>
<!-- initial -->
<g id="node17" class="node"><title>initial</title>
</g>
<!-- initial&#45;&gt;0 -->
<g id="edge24" class="edge"><title>initial&#45;&gt;0</title>
<path fill="none" stroke="black" d="M54.195,-18C62.6538,-18 72.0513,-18 80.5951,-18"/>
<polygon fill="black" stroke="black" points="80.8257,-21.5001 90.8257,-18 80.8257,-14.5001 80.8257,-21.5001"/>
</g>
</g>
</svg>
