<svg width="1305px" height="157px"
 viewBox="0.00 0.00 979.00 118.00" xmlns="http://www.w3.org/2000/svg" xmlns:xlink="http://www.w3.org/1999/xlink">
<g id="graph0" class="graph" transform="scale(1.000022500562514 1.000022500562514) rotate(0) translate(4 114)">
<title>Automaton</title>
<polygon fill="white" stroke="none" points="-4,4 -4,-114 975,-114 975,4 -4,4"/>
<!-- 0 -->
<g id="node1" class="node"><title>0</title>
<ellipse fill="none" stroke="black" cx="109" cy="-46" rx="18" ry="18"/>
</g>
<!-- 1 -->
<g id="node2" class="node"><title>1</title>
<ellipse fill="none" stroke="black" cx="227" cy="-46" rx="18" ry="18"/>
</g>
<!-- 0&#45;&gt;1 -->
<g id="edge1" class="edge"><title>0&#45;&gt;1</title>
<path fill="none" stroke="black" d="M127.116,-46C145.964,-46 176.531,-46 198.696,-46"/>
<polygon fill="black" stroke="black" points="198.814,-49.5001 208.814,-46 198.814,-42.5001 198.814,-49.5001"/>
<text text-anchor="middle" x="168" y="-49.8" font-family="Times,serif" font-size="14.00">u0002</text>
</g>
<!-- 2 -->
<g id="node3" class="node"><title>2</title>
<ellipse fill="none" stroke="black" cx="345" cy="-46" rx="18" ry="18"/>
</g>
<!-- 1&#45;&gt;2 -->
<g id="edge2" class="edge"><title>1&#45;&gt;2</title>
<path fill="none" stroke="black" d="M245.116,-46C263.964,-46 294.531,-46 316.696,-46"/>
<polygon fill="black" stroke="black" points="316.814,-49.5001 326.814,-46 316.814,-42.5001 316.814,-49.5001"/>
<text text-anchor="middle" x="286" y="-49.8" font-family="Times,serif" font-size="14.00">u0001</text>
</g>
<!-- 3 -->
<g id="node4" class="node"><title>3</title>
<ellipse fill="none" stroke="black" cx="463" cy="-46" rx="18" ry="18"/>
</g>
<!-- 2&#45;&gt;3 -->
<g id="edge3" class="edge"><title>2&#45;&gt;3</title>
<path fill="none" stroke="black" d="M363.116,-46C381.964,-46 412.531,-46 434.696,-46"/>
<polygon fill="black" stroke="black" points="434.814,-49.5001 444.814,-46 434.814,-42.5001 434.814,-49.5001"/>
<text text-anchor="middle" x="404" y="-49.8" font-family="Times,serif" font-size="14.00">u0000</text>
</g>
<!-- 4 -->
<g id="node5" class="node"><title>4</title>
<ellipse fill="none" stroke="black" cx="827" cy="-49" rx="18" ry="18"/>
</g>
<!-- 3&#45;&gt;4 -->
<g id="edge4" class="edge"><title>3&#45;&gt;4</title>
<path fill="none" stroke="black" d="M481.46,-46.1447C539.642,-46.6269 727.251,-48.1816 798.343,-48.7708"/>
<polygon fill="black" stroke="black" points="798.686,-52.2737 808.715,-48.8568 798.745,-45.2739 798.686,-52.2737"/>
<text text-anchor="middle" x="640" y="-50.8" font-family="Times,serif" font-size="14.00">u0004</text>
</g>
<!-- 5 -->
<g id="node6" class="node"><title>5</title>
<ellipse fill="none" stroke="black" cx="949" cy="-22" rx="18" ry="18"/>
<ellipse fill="none" stroke="black" cx="949" cy="-22" rx="22" ry="22"/>
</g>
<!-- 3&#45;&gt;5 -->
<g id="edge5" class="edge"><title>3&#45;&gt;5</title>
<path fill="none" stroke="black" d="M478.736,-36.6696C500.159,-24.023 541.554,-3 580,-3 580,-3 580,-3 828,-3 858.684,-3 893.245,-9.13531 917.368,-14.4331"/>
<polygon fill="black" stroke="black" points="916.818,-17.8974 927.346,-16.7074 918.374,-11.0724 916.818,-17.8974"/>
<text text-anchor="middle" x="704" y="-6.8" font-family="Times,serif" font-size="14.00">u0003</text>
</g>
<!-- 6 -->
<g id="node7" class="node"><title>6</title>
<ellipse fill="none" stroke="black" cx="581" cy="-92" rx="18" ry="18"/>
</g>
<!-- 3&#45;&gt;6 -->
<g id="edge6" class="edge"><title>3&#45;&gt;6</title>
<path fill="none" stroke="black" d="M480.024,-52.4264C485.98,-54.8106 492.797,-57.5341 499,-60 517.441,-67.331 538.265,-75.5563 554.18,-81.8318"/>
<polygon fill="black" stroke="black" points="553.268,-85.2346 563.855,-85.6452 555.835,-78.7222 553.268,-85.2346"/>
<text text-anchor="middle" x="522" y="-80.8" font-family="Times,serif" font-size="14.00">u0005</text>
</g>
<!-- 4&#45;&gt;5 -->
<g id="edge7" class="edge"><title>4&#45;&gt;5</title>
<path fill="none" stroke="black" d="M844.685,-45.2458C863.45,-41.0238 894.317,-34.0787 917.435,-28.8772"/>
<polygon fill="black" stroke="black" points="918.452,-32.236 927.439,-26.6261 916.915,-25.4067 918.452,-32.236"/>
<text text-anchor="middle" x="886" y="-45.8" font-family="Times,serif" font-size="14.00">u0003</text>
</g>
<!-- 7 -->
<g id="node8" class="node"><title>7</title>
<ellipse fill="none" stroke="black" cx="704" cy="-92" rx="18" ry="18"/>
</g>
<!-- 6&#45;&gt;7 -->
<g id="edge8" class="edge"><title>6&#45;&gt;7</title>
<path fill="none" stroke="black" d="M599.08,-92C618.965,-92 652.077,-92 675.577,-92"/>
<polygon fill="black" stroke="black" points="675.615,-95.5001 685.615,-92 675.615,-88.5001 675.615,-95.5001"/>
<text text-anchor="middle" x="640" y="-95.8" font-family="Times,serif" font-size="14.00">u0004</text>
</g>
<!-- 7&#45;&gt;4 -->
<g id="edge9" class="edge"><title>7&#45;&gt;4</title>
<path fill="none" stroke="black" d="M721.319,-86.2008C741.526,-79.0198 776.191,-66.7008 800.059,-58.2187"/>
<polygon fill="black" stroke="black" points="801.303,-61.4912 809.554,-54.8446 798.959,-54.8953 801.303,-61.4912"/>
<text text-anchor="middle" x="768" y="-79.8" font-family="Times,serif" font-size="14.00">u0005</text>
</g>
<!-- initial -->
<g id="node9" class="node"><title>initial</title>
</g>
<!-- initial&#45;&gt;0 -->
<g id="edge10" class="edge"><title>initial&#45;&gt;0</title>
<path fill="none" stroke="black" d="M54.195,-46C62.6538,-46 72.0513,-46 80.5951,-46"/>
<polygon fill="black" stroke="black" points="80.8257,-49.5001 90.8257,-46 80.8257,-42.5001 80.8257,-49.5001"/>
</g>
</g>
</svg>
