<svg width="1791px" height="188px"
 viewBox="0.00 0.00 1343.00 140.85" xmlns="http://www.w3.org/2000/svg" xmlns:xlink="http://www.w3.org/1999/xlink">
<g id="graph0" class="graph" transform="scale(1.000022500562514 1.000022500562514) rotate(0) translate(4 136.85)">
<title>Automaton</title>
<polygon fill="white" stroke="none" points="-4,4 -4,-136.85 1339,-136.85 1339,4 -4,4"/>
<!-- 0 -->
<g id="node1" class="node"><title>0</title>
<ellipse fill="none" stroke="black" cx="109" cy="-50.8504" rx="18" ry="18"/>
</g>
<!-- 1 -->
<g id="node2" class="node"><title>1</title>
<ellipse fill="none" stroke="black" cx="227" cy="-50.8504" rx="18" ry="18"/>
</g>
<!-- 0&#45;&gt;1 -->
<g id="edge1" class="edge"><title>0&#45;&gt;1</title>
<path fill="none" stroke="black" d="M127.116,-50.8504C145.964,-50.8504 176.531,-50.8504 198.696,-50.8504"/>
<polygon fill="black" stroke="black" points="198.814,-54.3505 208.814,-50.8504 198.814,-47.3505 198.814,-54.3505"/>
<text text-anchor="middle" x="168" y="-54.6504" font-family="Times,serif" font-size="14.00">u0002</text>
</g>
<!-- 2 -->
<g id="node3" class="node"><title>2</title>
<ellipse fill="none" stroke="black" cx="345" cy="-50.8504" rx="18" ry="18"/>
</g>
<!-- 1&#45;&gt;2 -->
<g id="edge2" class="edge"><title>1&#45;&gt;2</title>
<path fill="none" stroke="black" d="M245.116,-50.8504C263.964,-50.8504 294.531,-50.8504 316.696,-50.8504"/>
<polygon fill="black" stroke="black" points="316.814,-54.3505 326.814,-50.8504 316.814,-47.3505 316.814,-54.3505"/>
<text text-anchor="middle" x="286" y="-54.6504" font-family="Times,serif" font-size="14.00">u0005</text>
</g>
<!-- 3 -->
<g id="node4" class="node"><title>3</title>
<ellipse fill="none" stroke="black" cx="463" cy="-77.8504" rx="18" ry="18"/>
</g>
<!-- 2&#45;&gt;3 -->
<g id="edge3" class="edge"><title>2&#45;&gt;3</title>
<path fill="none" stroke="black" d="M362.62,-54.7189C381.657,-59.1498 413.103,-66.4692 435.523,-71.6877"/>
<polygon fill="black" stroke="black" points="434.878,-75.131 445.411,-73.9891 436.465,-68.3132 434.878,-75.131"/>
<text text-anchor="middle" x="404" y="-72.6504" font-family="Times,serif" font-size="14.00">u0005</text>
</g>
<!-- 4 -->
<g id="node12" class="node"><title>4</title>
<ellipse fill="none" stroke="black" cx="522" cy="-31.8504" rx="18" ry="18"/>
</g>
<!-- 2&#45;&gt;4 -->
<g id="edge4" class="edge"><title>2&#45;&gt;4</title>
<path fill="none" stroke="black" d="M362.171,-44.8504C368.023,-42.9247 374.734,-40.9957 381,-39.8504 419.478,-32.8169 464.805,-31.4609 493.226,-31.4263"/>
<polygon fill="black" stroke="black" points="493.579,-34.9278 503.595,-31.4722 493.61,-27.9279 493.579,-34.9278"/>
<text text-anchor="middle" x="404" y="-43.6504" font-family="Times,serif" font-size="14.00">u0000</text>
</g>
<!-- 5 -->
<g id="node5" class="node"><title>5</title>
<ellipse fill="none" stroke="black" cx="581" cy="-79.8504" rx="18" ry="18"/>
</g>
<!-- 3&#45;&gt;5 -->
<g id="edge5" class="edge"><title>3&#45;&gt;5</title>
<path fill="none" stroke="black" d="M481.116,-78.1455C499.964,-78.4705 530.531,-78.9975 552.696,-79.3796"/>
<polygon fill="black" stroke="black" points="552.755,-82.8811 562.814,-79.5541 552.875,-75.8821 552.755,-82.8811"/>
<text text-anchor="middle" x="522" y="-82.6504" font-family="Times,serif" font-size="14.00">u0000</text>
</g>
<!-- 7 -->
<g id="node6" class="node"><title>7</title>
<ellipse fill="none" stroke="black" cx="704" cy="-83.8504" rx="18" ry="18"/>
</g>
<!-- 5&#45;&gt;7 -->
<g id="edge6" class="edge"><title>5&#45;&gt;7</title>
<path fill="none" stroke="black" d="M599.08,-80.415C619.078,-81.0761 652.454,-82.1795 675.976,-82.9571"/>
<polygon fill="black" stroke="black" points="675.897,-86.4563 686.007,-83.2887 676.128,-79.4601 675.897,-86.4563"/>
<text text-anchor="middle" x="640" y="-85.6504" font-family="Times,serif" font-size="14.00">u0001</text>
</g>
<!-- 10 -->
<g id="node7" class="node"><title>10</title>
<ellipse fill="none" stroke="black" cx="827" cy="-84.8504" rx="18" ry="18"/>
</g>
<!-- 7&#45;&gt;10 -->
<g id="edge7" class="edge"><title>7&#45;&gt;10</title>
<path fill="none" stroke="black" d="M722.08,-83.9916C741.965,-84.1559 775.077,-84.4296 798.577,-84.6238"/>
<polygon fill="black" stroke="black" points="798.587,-88.1239 808.615,-84.7067 798.645,-81.1241 798.587,-88.1239"/>
<text text-anchor="middle" x="768" y="-87.6504" font-family="Times,serif" font-size="14.00">u0003</text>
</g>
<!-- 12 -->
<g id="node8" class="node"><title>12</title>
<ellipse fill="none" stroke="black" cx="945" cy="-89.8504" rx="18" ry="18"/>
</g>
<!-- 10&#45;&gt;12 -->
<g id="edge8" class="edge"><title>10&#45;&gt;12</title>
<path fill="none" stroke="black" d="M845.116,-85.5882C863.964,-86.4006 894.531,-87.7181 916.696,-88.6735"/>
<polygon fill="black" stroke="black" points="916.672,-92.1756 926.814,-89.1096 916.974,-85.1821 916.672,-92.1756"/>
<text text-anchor="middle" x="886" y="-91.6504" font-family="Times,serif" font-size="14.00">u0003</text>
</g>
<!-- 8 -->
<g id="node9" class="node"><title>8</title>
<ellipse fill="none" stroke="black" cx="1313" cy="-47.8504" rx="18" ry="18"/>
<ellipse fill="none" stroke="black" cx="1313" cy="-47.8504" rx="22" ry="22"/>
</g>
<!-- 12&#45;&gt;8 -->
<g id="edge9" class="edge"><title>12&#45;&gt;8</title>
<path fill="none" stroke="black" d="M960.44,-99.2688C966.551,-102.828 973.891,-106.566 981,-108.85 1008.29,-117.618 1016.39,-115.069 1045,-116.85 1117.94,-121.392 1137.15,-118.209 1209,-104.85 1238.05,-99.4494 1247.5,-101.782 1273,-86.8504 1279.7,-82.9249 1286.07,-77.5708 1291.65,-72.0879"/>
<polygon fill="black" stroke="black" points="1294.37,-74.3122 1298.72,-64.6532 1289.29,-69.489 1294.37,-74.3122"/>
<text text-anchor="middle" x="1122" y="-121.65" font-family="Times,serif" font-size="14.00">u0004</text>
</g>
<!-- 13 -->
<g id="node10" class="node"><title>13</title>
<ellipse fill="none" stroke="black" cx="1063" cy="-89.8504" rx="18" ry="18"/>
</g>
<!-- 12&#45;&gt;13 -->
<g id="edge10" class="edge"><title>12&#45;&gt;13</title>
<path fill="none" stroke="black" d="M963.116,-89.8504C981.964,-89.8504 1012.53,-89.8504 1034.7,-89.8504"/>
<polygon fill="black" stroke="black" points="1034.81,-93.3505 1044.81,-89.8504 1034.81,-86.3505 1034.81,-93.3505"/>
<text text-anchor="middle" x="1004" y="-93.6504" font-family="Times,serif" font-size="14.00">u0003</text>
</g>
<!-- 11 -->
<g id="node11" class="node"><title>11</title>
<ellipse fill="none" stroke="black" cx="1186" cy="-77.8504" rx="18" ry="18"/>
</g>
<!-- 13&#45;&gt;11 -->
<g id="edge11" class="edge"><title>13&#45;&gt;11</title>
<path fill="none" stroke="black" d="M1081.08,-88.1566C1101.08,-86.1733 1134.45,-82.8632 1157.98,-80.5304"/>
<polygon fill="black" stroke="black" points="1158.4,-84.0055 1168.01,-79.5356 1157.71,-77.0397 1158.4,-84.0055"/>
<text text-anchor="middle" x="1122" y="-89.6504" font-family="Times,serif" font-size="14.00">u0003</text>
</g>
<!-- 11&#45;&gt;8 -->
<g id="edge12" class="edge"><title>11&#45;&gt;8</title>
<path fill="none" stroke="black" d="M1203.6,-73.8666C1223.36,-69.1249 1256.75,-61.1099 1281.27,-55.2264"/>
<polygon fill="black" stroke="black" points="1282.26,-58.5883 1291.16,-52.8512 1280.62,-51.7816 1282.26,-58.5883"/>
<text text-anchor="middle" x="1250" y="-71.6504" font-family="Times,serif" font-size="14.00">u0004</text>
</g>
<!-- 6 -->
<g id="node13" class="node"><title>6</title>
<ellipse fill="none" stroke="black" cx="945" cy="-31.8504" rx="18" ry="18"/>
</g>
<!-- 4&#45;&gt;6 -->
<g id="edge13" class="edge"><title>4&#45;&gt;6</title>
<path fill="none" stroke="black" d="M540.295,-31.8504C562.962,-31.8504 603.958,-31.8504 639,-31.8504 639,-31.8504 639,-31.8504 828,-31.8504 858.251,-31.8504 892.939,-31.8504 916.442,-31.8504"/>
<polygon fill="black" stroke="black" points="916.706,-35.3505 926.705,-31.8504 916.705,-28.3505 916.706,-35.3505"/>
<text text-anchor="middle" x="704" y="-35.6504" font-family="Times,serif" font-size="14.00">u0001</text>
</g>
<!-- 6&#45;&gt;8 -->
<g id="edge14" class="edge"><title>6&#45;&gt;8</title>
<path fill="none" stroke="black" d="M962.191,-25.9995C981.572,-19.3334 1015.16,-8.84671 1045,-4.85041 1146.25,8.70825 1174.02,-8.59578 1273,-33.8504 1276.21,-34.6685 1279.52,-35.6447 1282.8,-36.6956"/>
<polygon fill="black" stroke="black" points="1281.79,-40.0505 1292.39,-39.9897 1284.07,-33.4303 1281.79,-40.0505"/>
<text text-anchor="middle" x="1122" y="-6.65041" font-family="Times,serif" font-size="14.00">u0004</text>
</g>
<!-- 9 -->
<g id="node14" class="node"><title>9</title>
<ellipse fill="none" stroke="black" cx="1063" cy="-31.8504" rx="18" ry="18"/>
</g>
<!-- 6&#45;&gt;9 -->
<g id="edge15" class="edge"><title>6&#45;&gt;9</title>
<path fill="none" stroke="black" d="M963.116,-31.8504C981.964,-31.8504 1012.53,-31.8504 1034.7,-31.8504"/>
<polygon fill="black" stroke="black" points="1034.81,-35.3505 1044.81,-31.8504 1034.81,-28.3505 1034.81,-35.3505"/>
<text text-anchor="middle" x="1004" y="-35.6504" font-family="Times,serif" font-size="14.00">u0003</text>
</g>
<!-- 9&#45;&gt;8 -->
<g id="edge16" class="edge"><title>9&#45;&gt;8</title>
<path fill="none" stroke="black" d="M1081.43,-31.8344C1108.69,-31.9214 1163.03,-32.5452 1209,-35.8504 1233.31,-37.5986 1260.72,-40.8544 1281.15,-43.534"/>
<polygon fill="black" stroke="black" points="1280.76,-47.0138 1291.14,-44.8717 1281.69,-40.0757 1280.76,-47.0138"/>
<text text-anchor="middle" x="1186" y="-39.6504" font-family="Times,serif" font-size="14.00">u0004</text>
</g>
<!-- 9&#45;&gt;11 -->
<g id="edge17" class="edge"><title>9&#45;&gt;11</title>
<path fill="none" stroke="black" d="M1080.32,-38.0542C1100.64,-45.7791 1135.58,-59.0621 1159.46,-68.1402"/>
<polygon fill="black" stroke="black" points="1158.35,-71.4629 1168.94,-71.7449 1160.84,-64.9198 1158.35,-71.4629"/>
<text text-anchor="middle" x="1122" y="-64.6504" font-family="Times,serif" font-size="14.00">u0003</text>
</g>
<!-- initial -->
<g id="node15" class="node"><title>initial</title>
</g>
<!-- initial&#45;&gt;0 -->
<g id="edge18" class="edge"><title>initial&#45;&gt;0</title>
<path fill="none" stroke="black" d="M54.195,-50.8504C62.6538,-50.8504 72.0513,-50.8504 80.5951,-50.8504"/>
<polygon fill="black" stroke="black" points="80.8257,-54.3505 90.8257,-50.8504 80.8257,-47.3505 80.8257,-54.3505"/>
</g>
</g>
</svg>
