<svg width="4588px" height="519px"
 viewBox="0.00 0.00 3441.00 389.00" xmlns="http://www.w3.org/2000/svg" xmlns:xlink="http://www.w3.org/1999/xlink">
<g id="graph0" class="graph" transform="scale(1.000022500562514 1.000022500562514) rotate(0) translate(4 385)">
<title>Automaton</title>
<polygon fill="white" stroke="none" points="-4,4 -4,-385 3437,-385 3437,4 -4,4"/>
<!-- 0 -->
<g id="node1" class="node"><title>0</title>
<ellipse fill="none" stroke="black" cx="109" cy="-191" rx="18" ry="18"/>
</g>
<!-- 1 -->
<g id="node2" class="node"><title>1</title>
<ellipse fill="none" stroke="black" cx="227" cy="-191" rx="18" ry="18"/>
</g>
<!-- 0&#45;&gt;1 -->
<g id="edge1" class="edge"><title>0&#45;&gt;1</title>
<path fill="none" stroke="black" d="M127.116,-191C145.964,-191 176.531,-191 198.696,-191"/>
<polygon fill="black" stroke="black" points="198.814,-194.5 208.814,-191 198.814,-187.5 198.814,-194.5"/>
<text text-anchor="middle" x="168" y="-194.8" font-family="Times,serif" font-size="14.00">u0001</text>
</g>
<!-- 2 -->
<g id="node3" class="node"><title>2</title>
<ellipse fill="none" stroke="black" cx="345" cy="-191" rx="18" ry="18"/>
</g>
<!-- 1&#45;&gt;2 -->
<g id="edge2" class="edge"><title>1&#45;&gt;2</title>
<path fill="none" stroke="black" d="M245.116,-191C263.964,-191 294.531,-191 316.696,-191"/>
<polygon fill="black" stroke="black" points="316.814,-194.5 326.814,-191 316.814,-187.5 316.814,-194.5"/>
<text text-anchor="middle" x="286" y="-194.8" font-family="Times,serif" font-size="14.00">u0003</text>
</g>
<!-- 3 -->
<g id="node4" class="node"><title>3</title>
<ellipse fill="none" stroke="black" cx="462" cy="-191" rx="18" ry="18"/>
</g>
<!-- 2&#45;&gt;3 -->
<g id="edge3" class="edge"><title>2&#45;&gt;3</title>
<path fill="none" stroke="black" d="M363.466,-191C382.064,-191 411.756,-191 433.499,-191"/>
<polygon fill="black" stroke="black" points="433.746,-194.5 443.746,-191 433.746,-187.5 433.746,-194.5"/>
<text text-anchor="middle" x="403.5" y="-194.8" font-family="Times,serif" font-size="14.00">u000e</text>
</g>
<!-- 4 -->
<g id="node5" class="node"><title>4</title>
<ellipse fill="none" stroke="black" cx="576" cy="-191" rx="18" ry="18"/>
</g>
<!-- 3&#45;&gt;4 -->
<g id="edge4" class="edge"><title>3&#45;&gt;4</title>
<path fill="none" stroke="black" d="M480.01,-191C497.937,-191 526.445,-191 547.558,-191"/>
<polygon fill="black" stroke="black" points="547.83,-194.5 557.83,-191 547.829,-187.5 547.83,-194.5"/>
<text text-anchor="middle" x="519" y="-194.8" font-family="Times,serif" font-size="14.00">u000f</text>
</g>
<!-- 5 -->
<g id="node6" class="node"><title>5</title>
<ellipse fill="none" stroke="black" cx="694" cy="-191" rx="18" ry="18"/>
</g>
<!-- 4&#45;&gt;5 -->
<g id="edge5" class="edge"><title>4&#45;&gt;5</title>
<path fill="none" stroke="black" d="M594.116,-191C612.964,-191 643.531,-191 665.696,-191"/>
<polygon fill="black" stroke="black" points="665.814,-194.5 675.814,-191 665.814,-187.5 665.814,-194.5"/>
<text text-anchor="middle" x="635" y="-194.8" font-family="Times,serif" font-size="14.00">u0002</text>
</g>
<!-- 6 -->
<g id="node7" class="node"><title>6</title>
<ellipse fill="none" stroke="black" cx="812" cy="-258" rx="18" ry="18"/>
</g>
<!-- 5&#45;&gt;6 -->
<g id="edge6" class="edge"><title>5&#45;&gt;6</title>
<path fill="none" stroke="black" d="M706.215,-204.657C712.602,-211.759 721.092,-220.153 730,-226 746.853,-237.062 768.123,-245.281 784.637,-250.618"/>
<polygon fill="black" stroke="black" points="783.636,-253.972 794.223,-253.569 785.695,-247.282 783.636,-253.972"/>
<text text-anchor="middle" x="753" y="-250.8" font-family="Times,serif" font-size="14.00">u000d</text>
</g>
<!-- 7 -->
<g id="node13" class="node"><title>7</title>
<ellipse fill="none" stroke="black" cx="2315" cy="-215" rx="18" ry="18"/>
</g>
<!-- 5&#45;&gt;7 -->
<g id="edge7" class="edge"><title>5&#45;&gt;7</title>
<path fill="none" stroke="black" d="M711.351,-195.871C733.659,-202.074 774.979,-212 811,-212 811,-212 811,-212 2198,-212 2228.26,-212 2262.95,-213.033 2286.45,-213.887"/>
<polygon fill="black" stroke="black" points="2286.58,-217.394 2296.71,-214.274 2286.85,-210.399 2286.58,-217.394"/>
<text text-anchor="middle" x="1499.5" y="-215.8" font-family="Times,serif" font-size="14.00">u000c</text>
</g>
<!-- 8 -->
<g id="node29" class="node"><title>8</title>
<ellipse fill="none" stroke="black" cx="871" cy="-165" rx="18" ry="18"/>
</g>
<!-- 5&#45;&gt;8 -->
<g id="edge8" class="edge"><title>5&#45;&gt;8</title>
<path fill="none" stroke="black" d="M711.667,-186.844C717.448,-185.495 723.986,-184.071 730,-183 768.935,-176.064 814.417,-170.72 842.719,-167.717"/>
<polygon fill="black" stroke="black" points="843.091,-171.197 852.676,-166.682 842.367,-164.234 843.091,-171.197"/>
<text text-anchor="middle" x="753" y="-186.8" font-family="Times,serif" font-size="14.00">u0006</text>
</g>
<!-- 9 -->
<g id="node37" class="node"><title>9</title>
<ellipse fill="none" stroke="black" cx="812" cy="-72" rx="18" ry="18"/>
</g>
<!-- 5&#45;&gt;9 -->
<g id="edge9" class="edge"><title>5&#45;&gt;9</title>
<path fill="none" stroke="black" d="M702.884,-175.26C709.247,-163.443 718.939,-147.256 730,-135 747.177,-115.966 770.64,-98.4229 787.893,-86.7095"/>
<polygon fill="black" stroke="black" points="789.888,-89.586 796.283,-81.1385 786.016,-83.7545 789.888,-89.586"/>
<text text-anchor="middle" x="753" y="-138.8" font-family="Times,serif" font-size="14.00">u0000</text>
</g>
<!-- 10 -->
<g id="node8" class="node"><title>10</title>
<ellipse fill="none" stroke="black" cx="930" cy="-258" rx="18" ry="18"/>
</g>
<!-- 6&#45;&gt;10 -->
<g id="edge10" class="edge"><title>6&#45;&gt;10</title>
<path fill="none" stroke="black" d="M830.116,-258C848.964,-258 879.531,-258 901.696,-258"/>
<polygon fill="black" stroke="black" points="901.814,-261.5 911.814,-258 901.814,-254.5 901.814,-261.5"/>
<text text-anchor="middle" x="871" y="-261.8" font-family="Times,serif" font-size="14.00">u0006</text>
</g>
<!-- 16 -->
<g id="node9" class="node"><title>16</title>
<ellipse fill="none" stroke="black" cx="1053" cy="-316" rx="18" ry="18"/>
</g>
<!-- 10&#45;&gt;16 -->
<g id="edge11" class="edge"><title>10&#45;&gt;16</title>
<path fill="none" stroke="black" d="M946.819,-265.582C967.313,-275.406 1003.26,-292.638 1027.35,-304.184"/>
<polygon fill="black" stroke="black" points="1026.03,-307.433 1036.56,-308.599 1029.06,-301.12 1026.03,-307.433"/>
<text text-anchor="middle" x="989" y="-298.8" font-family="Times,serif" font-size="14.00">u0004</text>
</g>
<!-- 23 -->
<g id="node10" class="node"><title>23</title>
<ellipse fill="none" stroke="black" cx="1245" cy="-359" rx="18" ry="18"/>
</g>
<!-- 16&#45;&gt;23 -->
<g id="edge12" class="edge"><title>16&#45;&gt;23</title>
<path fill="none" stroke="black" d="M1070.86,-319.816C1103.96,-327.307 1177.66,-343.986 1217.39,-352.978"/>
<polygon fill="black" stroke="black" points="1216.65,-356.399 1227.18,-355.193 1218.2,-349.572 1216.65,-356.399"/>
<text text-anchor="middle" x="1117" y="-337.8" font-family="Times,serif" font-size="14.00">u0005</text>
</g>
<!-- 30 -->
<g id="node11" class="node"><title>30</title>
<ellipse fill="none" stroke="black" cx="3289" cy="-269" rx="18" ry="18"/>
</g>
<!-- 23&#45;&gt;30 -->
<g id="edge13" class="edge"><title>23&#45;&gt;30</title>
<path fill="none" stroke="black" d="M1263.03,-360.554C1287.16,-362.616 1332.66,-366 1371.5,-366 1371.5,-366 1371.5,-366 3167,-366 3213.85,-366 3252.91,-321.188 3273.13,-292.481"/>
<polygon fill="black" stroke="black" points="3276.06,-294.394 3278.79,-284.156 3270.27,-290.46 3276.06,-294.394"/>
<text text-anchor="middle" x="2256" y="-369.8" font-family="Times,serif" font-size="14.00">u000b</text>
</g>
<!-- 38 -->
<g id="node12" class="node"><title>38</title>
<ellipse fill="none" stroke="black" cx="3411" cy="-269" rx="18" ry="18"/>
<ellipse fill="none" stroke="black" cx="3411" cy="-269" rx="22" ry="22"/>
</g>
<!-- 30&#45;&gt;38 -->
<g id="edge14" class="edge"><title>30&#45;&gt;38</title>
<path fill="none" stroke="black" d="M3307.19,-269C3325.77,-269 3355.76,-269 3378.57,-269"/>
<polygon fill="black" stroke="black" points="3378.79,-272.5 3388.79,-269 3378.79,-265.5 3378.79,-272.5"/>
<text text-anchor="middle" x="3348" y="-272.8" font-family="Times,serif" font-size="14.00">u0007</text>
</g>
<!-- 11 -->
<g id="node14" class="node"><title>11</title>
<ellipse fill="none" stroke="black" cx="2669" cy="-269" rx="18" ry="18"/>
</g>
<!-- 7&#45;&gt;11 -->
<g id="edge15" class="edge"><title>7&#45;&gt;11</title>
<path fill="none" stroke="black" d="M2330.44,-224.418C2336.55,-227.978 2343.89,-231.716 2351,-234 2378.29,-242.768 2386.52,-238.701 2415,-242 2497.06,-251.506 2594.24,-261.532 2640.66,-266.245"/>
<polygon fill="black" stroke="black" points="2640.51,-269.748 2650.81,-267.273 2641.21,-262.784 2640.51,-269.748"/>
<text text-anchor="middle" x="2492" y="-256.8" font-family="Times,serif" font-size="14.00">u000d</text>
</g>
<!-- 12 -->
<g id="node22" class="node"><title>12</title>
<ellipse fill="none" stroke="black" cx="2433" cy="-215" rx="18" ry="18"/>
</g>
<!-- 7&#45;&gt;12 -->
<g id="edge16" class="edge"><title>7&#45;&gt;12</title>
<path fill="none" stroke="black" d="M2333.12,-215C2351.96,-215 2382.53,-215 2404.7,-215"/>
<polygon fill="black" stroke="black" points="2404.81,-218.5 2414.81,-215 2404.81,-211.5 2404.81,-218.5"/>
<text text-anchor="middle" x="2374" y="-218.8" font-family="Times,serif" font-size="14.00">u0000</text>
</g>
<!-- 17 -->
<g id="node15" class="node"><title>17</title>
<ellipse fill="none" stroke="black" cx="2846" cy="-319" rx="18" ry="18"/>
</g>
<!-- 11&#45;&gt;17 -->
<g id="edge17" class="edge"><title>11&#45;&gt;17</title>
<path fill="none" stroke="black" d="M2684.55,-278.088C2690.68,-281.596 2698.01,-285.386 2705,-288 2742.84,-302.141 2788.96,-310.81 2817.66,-315.263"/>
<polygon fill="black" stroke="black" points="2817.34,-318.755 2827.75,-316.766 2818.38,-311.831 2817.34,-318.755"/>
<text text-anchor="middle" x="2728" y="-304.8" font-family="Times,serif" font-size="14.00">u000c</text>
</g>
<!-- 18 -->
<g id="node18" class="node"><title>18</title>
<ellipse fill="none" stroke="black" cx="2787" cy="-269" rx="18" ry="18"/>
</g>
<!-- 11&#45;&gt;18 -->
<g id="edge18" class="edge"><title>11&#45;&gt;18</title>
<path fill="none" stroke="black" d="M2687.12,-269C2705.96,-269 2736.53,-269 2758.7,-269"/>
<polygon fill="black" stroke="black" points="2758.81,-272.5 2768.81,-269 2758.81,-265.5 2758.81,-272.5"/>
<text text-anchor="middle" x="2728" y="-272.8" font-family="Times,serif" font-size="14.00">u0006</text>
</g>
<!-- 24 -->
<g id="node16" class="node"><title>24</title>
<ellipse fill="none" stroke="black" cx="2974" cy="-323" rx="18" ry="18"/>
</g>
<!-- 17&#45;&gt;24 -->
<g id="edge19" class="edge"><title>17&#45;&gt;24</title>
<path fill="none" stroke="black" d="M2863.99,-319.539C2884.94,-320.204 2920.81,-321.343 2945.65,-322.132"/>
<polygon fill="black" stroke="black" points="2945.77,-325.637 2955.87,-322.456 2945.99,-318.641 2945.77,-325.637"/>
<text text-anchor="middle" x="2910" y="-324.8" font-family="Times,serif" font-size="14.00">u0006</text>
</g>
<!-- 31 -->
<g id="node17" class="node"><title>31</title>
<ellipse fill="none" stroke="black" cx="3102" cy="-323" rx="18" ry="18"/>
</g>
<!-- 24&#45;&gt;31 -->
<g id="edge20" class="edge"><title>24&#45;&gt;31</title>
<path fill="none" stroke="black" d="M2992.26,-323C3013.27,-323 3049.03,-323 3073.77,-323"/>
<polygon fill="black" stroke="black" points="3073.95,-326.5 3083.95,-323 3073.95,-319.5 3073.95,-326.5"/>
<text text-anchor="middle" x="3038" y="-326.8" font-family="Times,serif" font-size="14.00">u0004</text>
</g>
<!-- 31&#45;&gt;30 -->
<g id="edge21" class="edge"><title>31&#45;&gt;30</title>
<path fill="none" stroke="black" d="M3120.08,-320.545C3148.39,-316.142 3206.51,-305.675 3253,-288 3256.82,-286.549 3260.74,-284.756 3264.51,-282.856"/>
<polygon fill="black" stroke="black" points="3266.29,-285.873 3273.43,-278.048 3262.97,-279.71 3266.29,-285.873"/>
<text text-anchor="middle" x="3166" y="-319.8" font-family="Times,serif" font-size="14.00">u0005</text>
</g>
<!-- 25 -->
<g id="node19" class="node"><title>25</title>
<ellipse fill="none" stroke="black" cx="2910" cy="-269" rx="18" ry="18"/>
</g>
<!-- 18&#45;&gt;25 -->
<g id="edge22" class="edge"><title>18&#45;&gt;25</title>
<path fill="none" stroke="black" d="M2805.08,-269C2824.96,-269 2858.08,-269 2881.58,-269"/>
<polygon fill="black" stroke="black" points="2881.62,-272.5 2891.62,-269 2881.62,-265.5 2881.62,-272.5"/>
<text text-anchor="middle" x="2846" y="-272.8" font-family="Times,serif" font-size="14.00">u0004</text>
</g>
<!-- 32 -->
<g id="node20" class="node"><title>32</title>
<ellipse fill="none" stroke="black" cx="3038" cy="-269" rx="18" ry="18"/>
</g>
<!-- 25&#45;&gt;32 -->
<g id="edge23" class="edge"><title>25&#45;&gt;32</title>
<path fill="none" stroke="black" d="M2928.26,-269C2949.27,-269 2985.03,-269 3009.77,-269"/>
<polygon fill="black" stroke="black" points="3009.95,-272.5 3019.95,-269 3009.95,-265.5 3009.95,-272.5"/>
<text text-anchor="middle" x="2974" y="-272.8" font-family="Times,serif" font-size="14.00">u0005</text>
</g>
<!-- 39 -->
<g id="node21" class="node"><title>39</title>
<ellipse fill="none" stroke="black" cx="3166" cy="-269" rx="18" ry="18"/>
</g>
<!-- 32&#45;&gt;39 -->
<g id="edge24" class="edge"><title>32&#45;&gt;39</title>
<path fill="none" stroke="black" d="M3056.26,-269C3077.27,-269 3113.03,-269 3137.77,-269"/>
<polygon fill="black" stroke="black" points="3137.95,-272.5 3147.95,-269 3137.95,-265.5 3137.95,-272.5"/>
<text text-anchor="middle" x="3102" y="-272.8" font-family="Times,serif" font-size="14.00">u0008</text>
</g>
<!-- 39&#45;&gt;30 -->
<g id="edge25" class="edge"><title>39&#45;&gt;30</title>
<path fill="none" stroke="black" d="M3184.08,-269C3203.96,-269 3237.08,-269 3260.58,-269"/>
<polygon fill="black" stroke="black" points="3260.62,-272.5 3270.62,-269 3260.62,-265.5 3260.62,-272.5"/>
<text text-anchor="middle" x="3230" y="-272.8" font-family="Times,serif" font-size="14.00">u0010</text>
</g>
<!-- 19 -->
<g id="node23" class="node"><title>19</title>
<ellipse fill="none" stroke="black" cx="2551" cy="-215" rx="18" ry="18"/>
</g>
<!-- 12&#45;&gt;19 -->
<g id="edge26" class="edge"><title>12&#45;&gt;19</title>
<path fill="none" stroke="black" d="M2451.12,-215C2469.96,-215 2500.53,-215 2522.7,-215"/>
<polygon fill="black" stroke="black" points="2522.81,-218.5 2532.81,-215 2522.81,-211.5 2522.81,-218.5"/>
<text text-anchor="middle" x="2492" y="-218.8" font-family="Times,serif" font-size="14.00">u0000</text>
</g>
<!-- 26 -->
<g id="node24" class="node"><title>26</title>
<ellipse fill="none" stroke="black" cx="2669" cy="-215" rx="18" ry="18"/>
</g>
<!-- 19&#45;&gt;26 -->
<g id="edge27" class="edge"><title>19&#45;&gt;26</title>
<path fill="none" stroke="black" d="M2569.12,-215C2587.96,-215 2618.53,-215 2640.7,-215"/>
<polygon fill="black" stroke="black" points="2640.81,-218.5 2650.81,-215 2640.81,-211.5 2640.81,-218.5"/>
<text text-anchor="middle" x="2610" y="-218.8" font-family="Times,serif" font-size="14.00">u0006</text>
</g>
<!-- 33 -->
<g id="node25" class="node"><title>33</title>
<ellipse fill="none" stroke="black" cx="2787" cy="-215" rx="18" ry="18"/>
</g>
<!-- 26&#45;&gt;33 -->
<g id="edge28" class="edge"><title>26&#45;&gt;33</title>
<path fill="none" stroke="black" d="M2687.12,-215C2705.96,-215 2736.53,-215 2758.7,-215"/>
<polygon fill="black" stroke="black" points="2758.81,-218.5 2768.81,-215 2758.81,-211.5 2758.81,-218.5"/>
<text text-anchor="middle" x="2728" y="-218.8" font-family="Times,serif" font-size="14.00">u0004</text>
</g>
<!-- 40 -->
<g id="node26" class="node"><title>40</title>
<ellipse fill="none" stroke="black" cx="2910" cy="-215" rx="18" ry="18"/>
</g>
<!-- 33&#45;&gt;40 -->
<g id="edge29" class="edge"><title>33&#45;&gt;40</title>
<path fill="none" stroke="black" d="M2805.08,-215C2824.96,-215 2858.08,-215 2881.58,-215"/>
<polygon fill="black" stroke="black" points="2881.62,-218.5 2891.62,-215 2881.62,-211.5 2881.62,-218.5"/>
<text text-anchor="middle" x="2846" y="-218.8" font-family="Times,serif" font-size="14.00">u0005</text>
</g>
<!-- 45 -->
<g id="node27" class="node"><title>45</title>
<ellipse fill="none" stroke="black" cx="3038" cy="-215" rx="18" ry="18"/>
</g>
<!-- 40&#45;&gt;45 -->
<g id="edge30" class="edge"><title>40&#45;&gt;45</title>
<path fill="none" stroke="black" d="M2928.26,-215C2949.27,-215 2985.03,-215 3009.77,-215"/>
<polygon fill="black" stroke="black" points="3009.95,-218.5 3019.95,-215 3009.95,-211.5 3009.95,-218.5"/>
<text text-anchor="middle" x="2974" y="-218.8" font-family="Times,serif" font-size="14.00">u0009</text>
</g>
<!-- 42 -->
<g id="node28" class="node"><title>42</title>
<ellipse fill="none" stroke="black" cx="3166" cy="-215" rx="18" ry="18"/>
</g>
<!-- 45&#45;&gt;42 -->
<g id="edge31" class="edge"><title>45&#45;&gt;42</title>
<path fill="none" stroke="black" d="M3056.26,-215C3077.27,-215 3113.03,-215 3137.77,-215"/>
<polygon fill="black" stroke="black" points="3137.95,-218.5 3147.95,-215 3137.95,-211.5 3137.95,-218.5"/>
<text text-anchor="middle" x="3102" y="-218.8" font-family="Times,serif" font-size="14.00">u0011</text>
</g>
<!-- 42&#45;&gt;30 -->
<g id="edge32" class="edge"><title>42&#45;&gt;30</title>
<path fill="none" stroke="black" d="M3183.08,-220.931C3200.53,-227.51 3229.1,-238.694 3253,-250 3256.52,-251.665 3260.18,-253.517 3263.76,-255.393"/>
<polygon fill="black" stroke="black" points="3262.39,-258.633 3272.86,-260.303 3265.72,-252.473 3262.39,-258.633"/>
<text text-anchor="middle" x="3230" y="-253.8" font-family="Times,serif" font-size="14.00">u000a</text>
</g>
<!-- 13 -->
<g id="node30" class="node"><title>13</title>
<ellipse fill="none" stroke="black" cx="2315" cy="-161" rx="18" ry="18"/>
</g>
<!-- 8&#45;&gt;13 -->
<g id="edge33" class="edge"><title>8&#45;&gt;13</title>
<path fill="none" stroke="black" d="M889.294,-164.758C911.961,-164.462 952.957,-164 988,-164 988,-164 988,-164 2198,-164 2228.26,-164 2262.95,-162.967 2286.45,-162.113"/>
<polygon fill="black" stroke="black" points="2286.85,-165.601 2296.71,-161.726 2286.58,-158.606 2286.85,-165.601"/>
<text text-anchor="middle" x="1563" y="-167.8" font-family="Times,serif" font-size="14.00">u0004</text>
</g>
<!-- 20 -->
<g id="node31" class="node"><title>20</title>
<ellipse fill="none" stroke="black" cx="2433" cy="-161" rx="18" ry="18"/>
</g>
<!-- 13&#45;&gt;20 -->
<g id="edge34" class="edge"><title>13&#45;&gt;20</title>
<path fill="none" stroke="black" d="M2333.12,-161C2351.96,-161 2382.53,-161 2404.7,-161"/>
<polygon fill="black" stroke="black" points="2404.81,-164.5 2414.81,-161 2404.81,-157.5 2404.81,-164.5"/>
<text text-anchor="middle" x="2374" y="-164.8" font-family="Times,serif" font-size="14.00">u0005</text>
</g>
<!-- 27 -->
<g id="node32" class="node"><title>27</title>
<ellipse fill="none" stroke="black" cx="2551" cy="-161" rx="18" ry="18"/>
</g>
<!-- 20&#45;&gt;27 -->
<g id="edge35" class="edge"><title>20&#45;&gt;27</title>
<path fill="none" stroke="black" d="M2451.12,-161C2469.96,-161 2500.53,-161 2522.7,-161"/>
<polygon fill="black" stroke="black" points="2522.81,-164.5 2532.81,-161 2522.81,-157.5 2522.81,-164.5"/>
<text text-anchor="middle" x="2492" y="-164.8" font-family="Times,serif" font-size="14.00">u0010</text>
</g>
<!-- 34 -->
<g id="node33" class="node"><title>34</title>
<ellipse fill="none" stroke="black" cx="2669" cy="-161" rx="18" ry="18"/>
</g>
<!-- 27&#45;&gt;34 -->
<g id="edge36" class="edge"><title>27&#45;&gt;34</title>
<path fill="none" stroke="black" d="M2569.12,-161C2587.96,-161 2618.53,-161 2640.7,-161"/>
<polygon fill="black" stroke="black" points="2640.81,-164.5 2650.81,-161 2640.81,-157.5 2640.81,-164.5"/>
<text text-anchor="middle" x="2610" y="-164.8" font-family="Times,serif" font-size="14.00">u0010</text>
</g>
<!-- 35 -->
<g id="node36" class="node"><title>35</title>
<ellipse fill="none" stroke="black" cx="2728" cy="-112" rx="18" ry="18"/>
</g>
<!-- 27&#45;&gt;35 -->
<g id="edge37" class="edge"><title>27&#45;&gt;35</title>
<path fill="none" stroke="black" d="M2566.55,-151.889C2572.67,-148.376 2580,-144.59 2587,-142 2624.83,-128.009 2670.95,-119.701 2699.65,-115.493"/>
<polygon fill="black" stroke="black" points="2700.33,-118.933 2709.75,-114.078 2699.36,-112.001 2700.33,-118.933"/>
<text text-anchor="middle" x="2610" y="-145.8" font-family="Times,serif" font-size="14.00">u000b</text>
</g>
<!-- 41 -->
<g id="node34" class="node"><title>41</title>
<ellipse fill="none" stroke="black" cx="2787" cy="-161" rx="18" ry="18"/>
</g>
<!-- 34&#45;&gt;41 -->
<g id="edge38" class="edge"><title>34&#45;&gt;41</title>
<path fill="none" stroke="black" d="M2687.12,-161C2705.96,-161 2736.53,-161 2758.7,-161"/>
<polygon fill="black" stroke="black" points="2758.81,-164.5 2768.81,-161 2758.81,-157.5 2758.81,-164.5"/>
<text text-anchor="middle" x="2728" y="-164.8" font-family="Times,serif" font-size="14.00">u0011</text>
</g>
<!-- 46 -->
<g id="node35" class="node"><title>46</title>
<ellipse fill="none" stroke="black" cx="2910" cy="-161" rx="18" ry="18"/>
</g>
<!-- 41&#45;&gt;46 -->
<g id="edge39" class="edge"><title>41&#45;&gt;46</title>
<path fill="none" stroke="black" d="M2805.08,-161C2824.96,-161 2858.08,-161 2881.58,-161"/>
<polygon fill="black" stroke="black" points="2881.62,-164.5 2891.62,-161 2881.62,-157.5 2881.62,-164.5"/>
<text text-anchor="middle" x="2846" y="-164.8" font-family="Times,serif" font-size="14.00">u0011</text>
</g>
<!-- 46&#45;&gt;32 -->
<g id="edge40" class="edge"><title>46&#45;&gt;32</title>
<path fill="none" stroke="black" d="M2928.1,-163.801C2947.26,-167.781 2978.09,-176.837 2997,-196 3012.42,-211.628 3003.93,-223.04 3015,-242 3016.16,-243.994 3017.47,-245.994 3018.85,-247.954"/>
<polygon fill="black" stroke="black" points="3016.29,-250.36 3025.16,-256.145 3021.83,-246.087 3016.29,-250.36"/>
<text text-anchor="middle" x="2974" y="-199.8" font-family="Times,serif" font-size="14.00">u000b</text>
</g>
<!-- 35&#45;&gt;42 -->
<g id="edge41" class="edge"><title>35&#45;&gt;42</title>
<path fill="none" stroke="black" d="M2746.29,-111.516C2768.96,-110.924 2809.95,-110 2845,-110 2845,-110 2845,-110 3039,-110 3089.28,-110 3130.14,-159.951 3150.66,-190.948"/>
<polygon fill="black" stroke="black" points="3147.79,-192.966 3156.13,-199.507 3153.69,-189.196 3147.79,-192.966"/>
<text text-anchor="middle" x="2910" y="-113.8" font-family="Times,serif" font-size="14.00">u0009</text>
</g>
<!-- 14 -->
<g id="node38" class="node"><title>14</title>
<ellipse fill="none" stroke="black" cx="989" cy="-72" rx="18" ry="18"/>
</g>
<!-- 9&#45;&gt;14 -->
<g id="edge42" class="edge"><title>9&#45;&gt;14</title>
<path fill="none" stroke="black" d="M830.098,-72C860.418,-72 923.844,-72 960.412,-72"/>
<polygon fill="black" stroke="black" points="960.832,-75.5001 970.832,-72 960.832,-68.5001 960.832,-75.5001"/>
<text text-anchor="middle" x="871" y="-75.8" font-family="Times,serif" font-size="14.00">u000c</text>
</g>
<!-- 15 -->
<g id="node49" class="node"><title>15</title>
<ellipse fill="none" stroke="black" cx="930" cy="-24" rx="18" ry="18"/>
</g>
<!-- 9&#45;&gt;15 -->
<g id="edge43" class="edge"><title>9&#45;&gt;15</title>
<path fill="none" stroke="black" d="M822.948,-57.3751C829.18,-49.4169 837.93,-40.1669 848,-35 864.572,-26.4968 885.443,-23.8213 901.848,-23.2329"/>
<polygon fill="black" stroke="black" points="901.939,-26.7321 911.894,-23.1074 901.851,-19.7327 901.939,-26.7321"/>
<text text-anchor="middle" x="871" y="-38.8" font-family="Times,serif" font-size="14.00">u0006</text>
</g>
<!-- 21 -->
<g id="node39" class="node"><title>21</title>
<ellipse fill="none" stroke="black" cx="1117" cy="-72" rx="18" ry="18"/>
</g>
<!-- 14&#45;&gt;21 -->
<g id="edge44" class="edge"><title>14&#45;&gt;21</title>
<path fill="none" stroke="black" d="M1007.26,-72C1028.27,-72 1064.03,-72 1088.77,-72"/>
<polygon fill="black" stroke="black" points="1088.95,-75.5001 1098.95,-72 1088.95,-68.5001 1088.95,-75.5001"/>
<text text-anchor="middle" x="1053" y="-75.8" font-family="Times,serif" font-size="14.00">u0000</text>
</g>
<!-- 28 -->
<g id="node40" class="node"><title>28</title>
<ellipse fill="none" stroke="black" cx="1245" cy="-72" rx="18" ry="18"/>
</g>
<!-- 21&#45;&gt;28 -->
<g id="edge45" class="edge"><title>21&#45;&gt;28</title>
<path fill="none" stroke="black" d="M1135.26,-72C1156.27,-72 1192.03,-72 1216.77,-72"/>
<polygon fill="black" stroke="black" points="1216.95,-75.5001 1226.95,-72 1216.95,-68.5001 1216.95,-75.5001"/>
<text text-anchor="middle" x="1181" y="-75.8" font-family="Times,serif" font-size="14.00">u000d</text>
</g>
<!-- 36 -->
<g id="node41" class="node"><title>36</title>
<ellipse fill="none" stroke="black" cx="1372.5" cy="-72" rx="18" ry="18"/>
</g>
<!-- 28&#45;&gt;36 -->
<g id="edge46" class="edge"><title>28&#45;&gt;36</title>
<path fill="none" stroke="black" d="M1263.19,-72C1284.01,-72 1319.34,-72 1343.97,-72"/>
<polygon fill="black" stroke="black" points="1344.12,-75.5001 1354.12,-72 1344.12,-68.5001 1344.12,-75.5001"/>
<text text-anchor="middle" x="1309" y="-75.8" font-family="Times,serif" font-size="14.00">u000d</text>
</g>
<!-- 43 -->
<g id="node42" class="node"><title>43</title>
<ellipse fill="none" stroke="black" cx="1499.5" cy="-72" rx="18" ry="18"/>
</g>
<!-- 36&#45;&gt;43 -->
<g id="edge47" class="edge"><title>36&#45;&gt;43</title>
<path fill="none" stroke="black" d="M1390.62,-72C1411.35,-72 1446.55,-72 1471.08,-72"/>
<polygon fill="black" stroke="black" points="1471.19,-75.5001 1481.19,-72 1471.19,-68.5001 1471.19,-75.5001"/>
<text text-anchor="middle" x="1436" y="-75.8" font-family="Times,serif" font-size="14.00">u000d</text>
</g>
<!-- 47 -->
<g id="node43" class="node"><title>47</title>
<ellipse fill="none" stroke="black" cx="1627" cy="-72" rx="18" ry="18"/>
</g>
<!-- 43&#45;&gt;47 -->
<g id="edge48" class="edge"><title>43&#45;&gt;47</title>
<path fill="none" stroke="black" d="M1517.69,-72C1538.51,-72 1573.84,-72 1598.47,-72"/>
<polygon fill="black" stroke="black" points="1598.62,-75.5001 1608.62,-72 1598.62,-68.5001 1598.62,-75.5001"/>
<text text-anchor="middle" x="1563" y="-75.8" font-family="Times,serif" font-size="14.00">u000d</text>
</g>
<!-- 49 -->
<g id="node44" class="node"><title>49</title>
<ellipse fill="none" stroke="black" cx="1755" cy="-72" rx="18" ry="18"/>
</g>
<!-- 47&#45;&gt;49 -->
<g id="edge49" class="edge"><title>47&#45;&gt;49</title>
<path fill="none" stroke="black" d="M1645.26,-72C1666.27,-72 1702.03,-72 1726.77,-72"/>
<polygon fill="black" stroke="black" points="1726.95,-75.5001 1736.95,-72 1726.95,-68.5001 1726.95,-75.5001"/>
<text text-anchor="middle" x="1691" y="-75.8" font-family="Times,serif" font-size="14.00">u000d</text>
</g>
<!-- 51 -->
<g id="node45" class="node"><title>51</title>
<ellipse fill="none" stroke="black" cx="1882" cy="-72" rx="18" ry="18"/>
</g>
<!-- 49&#45;&gt;51 -->
<g id="edge50" class="edge"><title>49&#45;&gt;51</title>
<path fill="none" stroke="black" d="M1773.12,-72C1793.85,-72 1829.05,-72 1853.58,-72"/>
<polygon fill="black" stroke="black" points="1853.69,-75.5001 1863.69,-72 1853.69,-68.5001 1853.69,-75.5001"/>
<text text-anchor="middle" x="1818.5" y="-75.8" font-family="Times,serif" font-size="14.00">u000c</text>
</g>
<!-- 53 -->
<g id="node46" class="node"><title>53</title>
<ellipse fill="none" stroke="black" cx="2010" cy="-72" rx="18" ry="18"/>
</g>
<!-- 51&#45;&gt;53 -->
<g id="edge51" class="edge"><title>51&#45;&gt;53</title>
<path fill="none" stroke="black" d="M1900.26,-72C1921.27,-72 1957.03,-72 1981.77,-72"/>
<polygon fill="black" stroke="black" points="1981.95,-75.5001 1991.95,-72 1981.95,-68.5001 1981.95,-75.5001"/>
<text text-anchor="middle" x="1946" y="-75.8" font-family="Times,serif" font-size="14.00">u0006</text>
</g>
<!-- 55 -->
<g id="node47" class="node"><title>55</title>
<ellipse fill="none" stroke="black" cx="2138" cy="-68" rx="18" ry="18"/>
</g>
<!-- 53&#45;&gt;55 -->
<g id="edge52" class="edge"><title>53&#45;&gt;55</title>
<path fill="none" stroke="black" d="M2027.99,-71.4605C2048.94,-70.7955 2084.81,-69.6568 2109.65,-68.8681"/>
<polygon fill="black" stroke="black" points="2109.99,-72.3593 2119.87,-68.5437 2109.77,-65.3628 2109.99,-72.3593"/>
<text text-anchor="middle" x="2074" y="-74.8" font-family="Times,serif" font-size="14.00">u0004</text>
</g>
<!-- 57 -->
<g id="node48" class="node"><title>57</title>
<ellipse fill="none" stroke="black" cx="3166" cy="-64" rx="18" ry="18"/>
</g>
<!-- 55&#45;&gt;57 -->
<g id="edge53" class="edge"><title>55&#45;&gt;57</title>
<path fill="none" stroke="black" d="M2156.29,-67.0317C2178.95,-65.8479 2219.94,-64 2255,-64 2255,-64 2255,-64 3039,-64 3073.07,-64 3112.32,-64 3137.84,-64"/>
<polygon fill="black" stroke="black" points="3137.88,-67.5001 3147.88,-64 3137.88,-60.5001 3137.88,-67.5001"/>
<text text-anchor="middle" x="2610" y="-67.8" font-family="Times,serif" font-size="14.00">u0005</text>
</g>
<!-- 57&#45;&gt;30 -->
<g id="edge54" class="edge"><title>57&#45;&gt;30</title>
<path fill="none" stroke="black" d="M3175.9,-79.0741C3196.7,-114.319 3248.66,-202.352 3273.86,-245.039"/>
<polygon fill="black" stroke="black" points="3270.99,-247.071 3279.09,-253.904 3277.02,-243.513 3270.99,-247.071"/>
<text text-anchor="middle" x="3230" y="-211.8" font-family="Times,serif" font-size="14.00">u0008</text>
</g>
<!-- 22 -->
<g id="node50" class="node"><title>22</title>
<ellipse fill="none" stroke="black" cx="1053" cy="-18" rx="18" ry="18"/>
</g>
<!-- 15&#45;&gt;22 -->
<g id="edge55" class="edge"><title>15&#45;&gt;22</title>
<path fill="none" stroke="black" d="M948.08,-23.1531C968.078,-22.1614 1001.45,-20.5064 1024.98,-19.34"/>
<polygon fill="black" stroke="black" points="1025.19,-22.8337 1035.01,-18.8426 1024.85,-15.8423 1025.19,-22.8337"/>
<text text-anchor="middle" x="989" y="-26.8" font-family="Times,serif" font-size="14.00">u0004</text>
</g>
<!-- 29 -->
<g id="node51" class="node"><title>29</title>
<ellipse fill="none" stroke="black" cx="1181" cy="-18" rx="18" ry="18"/>
</g>
<!-- 22&#45;&gt;29 -->
<g id="edge56" class="edge"><title>22&#45;&gt;29</title>
<path fill="none" stroke="black" d="M1071.26,-18C1092.27,-18 1128.03,-18 1152.77,-18"/>
<polygon fill="black" stroke="black" points="1152.95,-21.5001 1162.95,-18 1152.95,-14.5001 1152.95,-21.5001"/>
<text text-anchor="middle" x="1117" y="-21.8" font-family="Times,serif" font-size="14.00">u0005</text>
</g>
<!-- 37 -->
<g id="node52" class="node"><title>37</title>
<ellipse fill="none" stroke="black" cx="1309" cy="-18" rx="18" ry="18"/>
</g>
<!-- 29&#45;&gt;37 -->
<g id="edge57" class="edge"><title>29&#45;&gt;37</title>
<path fill="none" stroke="black" d="M1199.26,-18C1220.27,-18 1256.03,-18 1280.77,-18"/>
<polygon fill="black" stroke="black" points="1280.95,-21.5001 1290.95,-18 1280.95,-14.5001 1280.95,-21.5001"/>
<text text-anchor="middle" x="1245" y="-21.8" font-family="Times,serif" font-size="14.00">u0011</text>
</g>
<!-- 44 -->
<g id="node53" class="node"><title>44</title>
<ellipse fill="none" stroke="black" cx="1436" cy="-18" rx="18" ry="18"/>
</g>
<!-- 37&#45;&gt;44 -->
<g id="edge58" class="edge"><title>37&#45;&gt;44</title>
<path fill="none" stroke="black" d="M1327.12,-18C1347.85,-18 1383.05,-18 1407.58,-18"/>
<polygon fill="black" stroke="black" points="1407.69,-21.5001 1417.69,-18 1407.69,-14.5001 1407.69,-21.5001"/>
<text text-anchor="middle" x="1372.5" y="-21.8" font-family="Times,serif" font-size="14.00">u000a</text>
</g>
<!-- 48 -->
<g id="node54" class="node"><title>48</title>
<ellipse fill="none" stroke="black" cx="1563" cy="-18" rx="18" ry="18"/>
</g>
<!-- 44&#45;&gt;48 -->
<g id="edge59" class="edge"><title>44&#45;&gt;48</title>
<path fill="none" stroke="black" d="M1454.12,-18C1474.85,-18 1510.05,-18 1534.58,-18"/>
<polygon fill="black" stroke="black" points="1534.69,-21.5001 1544.69,-18 1534.69,-14.5001 1534.69,-21.5001"/>
<text text-anchor="middle" x="1499.5" y="-21.8" font-family="Times,serif" font-size="14.00">u000a</text>
</g>
<!-- 50 -->
<g id="node55" class="node"><title>50</title>
<ellipse fill="none" stroke="black" cx="1691" cy="-18" rx="18" ry="18"/>
</g>
<!-- 48&#45;&gt;50 -->
<g id="edge60" class="edge"><title>48&#45;&gt;50</title>
<path fill="none" stroke="black" d="M1581.26,-18C1602.27,-18 1638.03,-18 1662.77,-18"/>
<polygon fill="black" stroke="black" points="1662.95,-21.5001 1672.95,-18 1662.95,-14.5001 1662.95,-21.5001"/>
<text text-anchor="middle" x="1627" y="-21.8" font-family="Times,serif" font-size="14.00">u000b</text>
</g>
<!-- 52 -->
<g id="node56" class="node"><title>52</title>
<ellipse fill="none" stroke="black" cx="1818.5" cy="-18" rx="18" ry="18"/>
</g>
<!-- 50&#45;&gt;52 -->
<g id="edge61" class="edge"><title>50&#45;&gt;52</title>
<path fill="none" stroke="black" d="M1709.19,-18C1730.01,-18 1765.34,-18 1789.97,-18"/>
<polygon fill="black" stroke="black" points="1790.12,-21.5001 1800.12,-18 1790.12,-14.5001 1790.12,-21.5001"/>
<text text-anchor="middle" x="1755" y="-21.8" font-family="Times,serif" font-size="14.00">u0010</text>
</g>
<!-- 54 -->
<g id="node57" class="node"><title>54</title>
<ellipse fill="none" stroke="black" cx="1946" cy="-18" rx="18" ry="18"/>
</g>
<!-- 52&#45;&gt;54 -->
<g id="edge62" class="edge"><title>52&#45;&gt;54</title>
<path fill="none" stroke="black" d="M1836.69,-18C1857.51,-18 1892.84,-18 1917.47,-18"/>
<polygon fill="black" stroke="black" points="1917.62,-21.5001 1927.62,-18 1917.62,-14.5001 1917.62,-21.5001"/>
<text text-anchor="middle" x="1882" y="-21.8" font-family="Times,serif" font-size="14.00">u0009</text>
</g>
<!-- 56 -->
<g id="node58" class="node"><title>56</title>
<ellipse fill="none" stroke="black" cx="2074" cy="-18" rx="18" ry="18"/>
</g>
<!-- 54&#45;&gt;56 -->
<g id="edge63" class="edge"><title>54&#45;&gt;56</title>
<path fill="none" stroke="black" d="M1964.26,-18C1985.27,-18 2021.03,-18 2045.77,-18"/>
<polygon fill="black" stroke="black" points="2045.95,-21.5001 2055.95,-18 2045.95,-14.5001 2045.95,-21.5001"/>
<text text-anchor="middle" x="2010" y="-21.8" font-family="Times,serif" font-size="14.00">u0011</text>
</g>
<!-- 58 -->
<g id="node59" class="node"><title>58</title>
<ellipse fill="none" stroke="black" cx="2197" cy="-18" rx="18" ry="18"/>
</g>
<!-- 56&#45;&gt;58 -->
<g id="edge64" class="edge"><title>56&#45;&gt;58</title>
<path fill="none" stroke="black" d="M2092.08,-18C2111.96,-18 2145.08,-18 2168.58,-18"/>
<polygon fill="black" stroke="black" points="2168.62,-21.5001 2178.62,-18 2168.62,-14.5001 2168.62,-21.5001"/>
<text text-anchor="middle" x="2138" y="-21.8" font-family="Times,serif" font-size="14.00">u000b</text>
</g>
<!-- 59 -->
<g id="node60" class="node"><title>59</title>
<ellipse fill="none" stroke="black" cx="2315" cy="-18" rx="18" ry="18"/>
</g>
<!-- 58&#45;&gt;59 -->
<g id="edge65" class="edge"><title>58&#45;&gt;59</title>
<path fill="none" stroke="black" d="M2215.12,-18C2233.96,-18 2264.53,-18 2286.7,-18"/>
<polygon fill="black" stroke="black" points="2286.81,-21.5001 2296.81,-18 2286.81,-14.5001 2286.81,-21.5001"/>
<text text-anchor="middle" x="2256" y="-21.8" font-family="Times,serif" font-size="14.00">u0010</text>
</g>
<!-- 60 -->
<g id="node61" class="node"><title>60</title>
<ellipse fill="none" stroke="black" cx="2433" cy="-18" rx="18" ry="18"/>
</g>
<!-- 59&#45;&gt;60 -->
<g id="edge66" class="edge"><title>59&#45;&gt;60</title>
<path fill="none" stroke="black" d="M2333.12,-18C2351.96,-18 2382.53,-18 2404.7,-18"/>
<polygon fill="black" stroke="black" points="2404.81,-21.5001 2414.81,-18 2404.81,-14.5001 2404.81,-21.5001"/>
<text text-anchor="middle" x="2374" y="-21.8" font-family="Times,serif" font-size="14.00">u0009</text>
</g>
<!-- 61 -->
<g id="node62" class="node"><title>61</title>
<ellipse fill="none" stroke="black" cx="2551" cy="-18" rx="18" ry="18"/>
</g>
<!-- 60&#45;&gt;61 -->
<g id="edge67" class="edge"><title>60&#45;&gt;61</title>
<path fill="none" stroke="black" d="M2451.12,-18C2469.96,-18 2500.53,-18 2522.7,-18"/>
<polygon fill="black" stroke="black" points="2522.81,-21.5001 2532.81,-18 2522.81,-14.5001 2522.81,-21.5001"/>
<text text-anchor="middle" x="2492" y="-21.8" font-family="Times,serif" font-size="14.00">u000a</text>
</g>
<!-- 62 -->
<g id="node63" class="node"><title>62</title>
<ellipse fill="none" stroke="black" cx="2669" cy="-18" rx="18" ry="18"/>
</g>
<!-- 61&#45;&gt;62 -->
<g id="edge68" class="edge"><title>61&#45;&gt;62</title>
<path fill="none" stroke="black" d="M2569.12,-18C2587.96,-18 2618.53,-18 2640.7,-18"/>
<polygon fill="black" stroke="black" points="2640.81,-21.5001 2650.81,-18 2640.81,-14.5001 2640.81,-21.5001"/>
<text text-anchor="middle" x="2610" y="-21.8" font-family="Times,serif" font-size="14.00">u0008</text>
</g>
<!-- 63 -->
<g id="node64" class="node"><title>63</title>
<ellipse fill="none" stroke="black" cx="2787" cy="-18" rx="18" ry="18"/>
</g>
<!-- 62&#45;&gt;63 -->
<g id="edge69" class="edge"><title>62&#45;&gt;63</title>
<path fill="none" stroke="black" d="M2687.12,-18C2705.96,-18 2736.53,-18 2758.7,-18"/>
<polygon fill="black" stroke="black" points="2758.81,-21.5001 2768.81,-18 2758.81,-14.5001 2758.81,-21.5001"/>
<text text-anchor="middle" x="2728" y="-21.8" font-family="Times,serif" font-size="14.00">u0008</text>
</g>
<!-- 64 -->
<g id="node65" class="node"><title>64</title>
<ellipse fill="none" stroke="black" cx="2910" cy="-18" rx="18" ry="18"/>
</g>
<!-- 63&#45;&gt;64 -->
<g id="edge70" class="edge"><title>63&#45;&gt;64</title>
<path fill="none" stroke="black" d="M2805.08,-18C2824.96,-18 2858.08,-18 2881.58,-18"/>
<polygon fill="black" stroke="black" points="2881.62,-21.5001 2891.62,-18 2881.62,-14.5001 2881.62,-21.5001"/>
<text text-anchor="middle" x="2846" y="-21.8" font-family="Times,serif" font-size="14.00">u000b</text>
</g>
<!-- 65 -->
<g id="node66" class="node"><title>65</title>
<ellipse fill="none" stroke="black" cx="3038" cy="-18" rx="18" ry="18"/>
</g>
<!-- 64&#45;&gt;65 -->
<g id="edge71" class="edge"><title>64&#45;&gt;65</title>
<path fill="none" stroke="black" d="M2928.26,-18C2949.27,-18 2985.03,-18 3009.77,-18"/>
<polygon fill="black" stroke="black" points="3009.95,-21.5001 3019.95,-18 3009.95,-14.5001 3009.95,-21.5001"/>
<text text-anchor="middle" x="2974" y="-21.8" font-family="Times,serif" font-size="14.00">u000b</text>
</g>
<!-- 65&#45;&gt;57 -->
<g id="edge72" class="edge"><title>65&#45;&gt;57</title>
<path fill="none" stroke="black" d="M3056.13,-19.2065C3073.96,-20.9545 3102.4,-25.1442 3125,-35 3131.55,-37.8566 3138.07,-41.9253 3143.89,-46.1147"/>
<polygon fill="black" stroke="black" points="3141.77,-48.9004 3151.84,-52.2117 3146.04,-43.3471 3141.77,-48.9004"/>
<text text-anchor="middle" x="3102" y="-38.8" font-family="Times,serif" font-size="14.00">u000a</text>
</g>
<!-- initial -->
<g id="node67" class="node"><title>initial</title>
</g>
<!-- initial&#45;&gt;0 -->
<g id="edge73" class="edge"><title>initial&#45;&gt;0</title>
<path fill="none" stroke="black" d="M54.195,-191C62.6538,-191 72.0513,-191 80.5951,-191"/>
<polygon fill="black" stroke="black" points="80.8257,-194.5 90.8257,-191 80.8257,-187.5 80.8257,-194.5"/>
</g>
</g>
</svg>
