<svg width="2233px" height="69px"
 viewBox="0.00 0.00 1675.00 52.00" xmlns="http://www.w3.org/2000/svg" xmlns:xlink="http://www.w3.org/1999/xlink">
<g id="graph0" class="graph" transform="scale(1.000022500562514 1.000022500562514) rotate(0) translate(4 48)">
<title>Automaton</title>
<polygon fill="white" stroke="none" points="-4,4 -4,-48 1671,-48 1671,4 -4,4"/>
<!-- 0 -->
<g id="node1" class="node"><title>0</title>
<ellipse fill="none" stroke="black" cx="109" cy="-22" rx="18" ry="18"/>
</g>
<!-- 1 -->
<g id="node2" class="node"><title>1</title>
<ellipse fill="none" stroke="black" cx="227" cy="-22" rx="18" ry="18"/>
</g>
<!-- 0&#45;&gt;1 -->
<g id="edge1" class="edge"><title>0&#45;&gt;1</title>
<path fill="none" stroke="black" d="M127.116,-22C145.964,-22 176.531,-22 198.696,-22"/>
<polygon fill="black" stroke="black" points="198.814,-25.5001 208.814,-22 198.814,-18.5001 198.814,-25.5001"/>
<text text-anchor="middle" x="168" y="-25.8" font-family="Times,serif" font-size="14.00">u0006</text>
</g>
<!-- 2 -->
<g id="node3" class="node"><title>2</title>
<ellipse fill="none" stroke="black" cx="345" cy="-22" rx="18" ry="18"/>
</g>
<!-- 1&#45;&gt;2 -->
<g id="edge2" class="edge"><title>1&#45;&gt;2</title>
<path fill="none" stroke="black" d="M245.116,-22C263.964,-22 294.531,-22 316.696,-22"/>
<polygon fill="black" stroke="black" points="316.814,-25.5001 326.814,-22 316.814,-18.5001 316.814,-25.5001"/>
<text text-anchor="middle" x="286" y="-25.8" font-family="Times,serif" font-size="14.00">u0005</text>
</g>
<!-- 3 -->
<g id="node4" class="node"><title>3</title>
<ellipse fill="none" stroke="black" cx="463" cy="-22" rx="18" ry="18"/>
</g>
<!-- 2&#45;&gt;3 -->
<g id="edge3" class="edge"><title>2&#45;&gt;3</title>
<path fill="none" stroke="black" d="M363.116,-22C381.964,-22 412.531,-22 434.696,-22"/>
<polygon fill="black" stroke="black" points="434.814,-25.5001 444.814,-22 434.814,-18.5001 434.814,-25.5001"/>
<text text-anchor="middle" x="404" y="-25.8" font-family="Times,serif" font-size="14.00">u0004</text>
</g>
<!-- 4 -->
<g id="node5" class="node"><title>4</title>
<ellipse fill="none" stroke="black" cx="581" cy="-22" rx="18" ry="18"/>
</g>
<!-- 3&#45;&gt;4 -->
<g id="edge4" class="edge"><title>3&#45;&gt;4</title>
<path fill="none" stroke="black" d="M481.116,-22C499.964,-22 530.531,-22 552.696,-22"/>
<polygon fill="black" stroke="black" points="552.814,-25.5001 562.814,-22 552.814,-18.5001 552.814,-25.5001"/>
<text text-anchor="middle" x="522" y="-25.8" font-family="Times,serif" font-size="14.00">u0003</text>
</g>
<!-- 5 -->
<g id="node6" class="node"><title>5</title>
<ellipse fill="none" stroke="black" cx="699" cy="-22" rx="18" ry="18"/>
</g>
<!-- 4&#45;&gt;5 -->
<g id="edge5" class="edge"><title>4&#45;&gt;5</title>
<path fill="none" stroke="black" d="M599.116,-22C617.964,-22 648.531,-22 670.696,-22"/>
<polygon fill="black" stroke="black" points="670.814,-25.5001 680.814,-22 670.814,-18.5001 670.814,-25.5001"/>
<text text-anchor="middle" x="640" y="-25.8" font-family="Times,serif" font-size="14.00">u0000</text>
</g>
<!-- 6 -->
<g id="node7" class="node"><title>6</title>
<ellipse fill="none" stroke="black" cx="817" cy="-22" rx="18" ry="18"/>
</g>
<!-- 5&#45;&gt;6 -->
<g id="edge6" class="edge"><title>5&#45;&gt;6</title>
<path fill="none" stroke="black" d="M717.116,-22C735.964,-22 766.531,-22 788.696,-22"/>
<polygon fill="black" stroke="black" points="788.814,-25.5001 798.814,-22 788.814,-18.5001 788.814,-25.5001"/>
<text text-anchor="middle" x="758" y="-25.8" font-family="Times,serif" font-size="14.00">u0001</text>
</g>
<!-- 7 -->
<g id="node8" class="node"><title>7</title>
<ellipse fill="none" stroke="black" cx="935" cy="-22" rx="18" ry="18"/>
</g>
<!-- 6&#45;&gt;7 -->
<g id="edge7" class="edge"><title>6&#45;&gt;7</title>
<path fill="none" stroke="black" d="M835.116,-22C853.964,-22 884.531,-22 906.696,-22"/>
<polygon fill="black" stroke="black" points="906.814,-25.5001 916.814,-22 906.814,-18.5001 906.814,-25.5001"/>
<text text-anchor="middle" x="876" y="-25.8" font-family="Times,serif" font-size="14.00">u0002</text>
</g>
<!-- 8 -->
<g id="node9" class="node"><title>8</title>
<ellipse fill="none" stroke="black" cx="1053" cy="-22" rx="18" ry="18"/>
</g>
<!-- 7&#45;&gt;8 -->
<g id="edge8" class="edge"><title>7&#45;&gt;8</title>
<path fill="none" stroke="black" d="M953.116,-22C971.964,-22 1002.53,-22 1024.7,-22"/>
<polygon fill="black" stroke="black" points="1024.81,-25.5001 1034.81,-22 1024.81,-18.5001 1024.81,-25.5001"/>
<text text-anchor="middle" x="994" y="-25.8" font-family="Times,serif" font-size="14.00">u0007</text>
</g>
<!-- 9 -->
<g id="node10" class="node"><title>9</title>
<ellipse fill="none" stroke="black" cx="1171" cy="-22" rx="18" ry="18"/>
</g>
<!-- 8&#45;&gt;9 -->
<g id="edge9" class="edge"><title>8&#45;&gt;9</title>
<path fill="none" stroke="black" d="M1071.12,-22C1089.96,-22 1120.53,-22 1142.7,-22"/>
<polygon fill="black" stroke="black" points="1142.81,-25.5001 1152.81,-22 1142.81,-18.5001 1142.81,-25.5001"/>
<text text-anchor="middle" x="1112" y="-25.8" font-family="Times,serif" font-size="14.00">u0008</text>
</g>
<!-- 10 -->
<g id="node11" class="node"><title>10</title>
<ellipse fill="none" stroke="black" cx="1288" cy="-22" rx="18" ry="18"/>
</g>
<!-- 9&#45;&gt;10 -->
<g id="edge10" class="edge"><title>9&#45;&gt;10</title>
<path fill="none" stroke="black" d="M1189.47,-22C1208.06,-22 1237.76,-22 1259.5,-22"/>
<polygon fill="black" stroke="black" points="1259.75,-25.5001 1269.75,-22 1259.75,-18.5001 1259.75,-25.5001"/>
<text text-anchor="middle" x="1229.5" y="-25.8" font-family="Times,serif" font-size="14.00">u000a</text>
</g>
<!-- 11 -->
<g id="node12" class="node"><title>11</title>
<ellipse fill="none" stroke="black" cx="1406" cy="-22" rx="18" ry="18"/>
</g>
<!-- 10&#45;&gt;11 -->
<g id="edge11" class="edge"><title>10&#45;&gt;11</title>
<path fill="none" stroke="black" d="M1306.12,-22C1324.96,-22 1355.53,-22 1377.7,-22"/>
<polygon fill="black" stroke="black" points="1377.81,-25.5001 1387.81,-22 1377.81,-18.5001 1377.81,-25.5001"/>
<text text-anchor="middle" x="1347" y="-25.8" font-family="Times,serif" font-size="14.00">u000b</text>
</g>
<!-- 12 -->
<g id="node13" class="node"><title>12</title>
<ellipse fill="none" stroke="black" cx="1523" cy="-22" rx="18" ry="18"/>
</g>
<!-- 11&#45;&gt;12 -->
<g id="edge12" class="edge"><title>11&#45;&gt;12</title>
<path fill="none" stroke="black" d="M1424.47,-22C1443.06,-22 1472.76,-22 1494.5,-22"/>
<polygon fill="black" stroke="black" points="1494.75,-25.5001 1504.75,-22 1494.75,-18.5001 1494.75,-25.5001"/>
<text text-anchor="middle" x="1464.5" y="-25.8" font-family="Times,serif" font-size="14.00">u000a</text>
</g>
<!-- 13 -->
<g id="node14" class="node"><title>13</title>
<ellipse fill="none" stroke="black" cx="1645" cy="-22" rx="18" ry="18"/>
<ellipse fill="none" stroke="black" cx="1645" cy="-22" rx="22" ry="22"/>
</g>
<!-- 12&#45;&gt;13 -->
<g id="edge13" class="edge"><title>12&#45;&gt;13</title>
<path fill="none" stroke="black" d="M1541.19,-22C1559.77,-22 1589.76,-22 1612.57,-22"/>
<polygon fill="black" stroke="black" points="1612.79,-25.5001 1622.79,-22 1612.79,-18.5001 1612.79,-25.5001"/>
<text text-anchor="middle" x="1582" y="-25.8" font-family="Times,serif" font-size="14.00">u0009</text>
</g>
<!-- initial -->
<g id="node15" class="node"><title>initial</title>
</g>
<!-- initial&#45;&gt;0 -->
<g id="edge14" class="edge"><title>initial&#45;&gt;0</title>
<path fill="none" stroke="black" d="M54.195,-22C62.6538,-22 72.0513,-22 80.5951,-22"/>
<polygon fill="black" stroke="black" points="80.8257,-25.5001 90.8257,-22 80.8257,-18.5001 80.8257,-25.5001"/>
</g>
</g>
</svg>
