<svg width="4372px" height="1165px"
 viewBox="0.00 0.00 3279.00 874.00" xmlns="http://www.w3.org/2000/svg" xmlns:xlink="http://www.w3.org/1999/xlink">
<g id="graph0" class="graph" transform="scale(1.000022500562514 1.000022500562514) rotate(0) translate(4 870)">
<title>Automaton</title>
<polygon fill="white" stroke="none" points="-4,4 -4,-870 3275,-870 3275,4 -4,4"/>
<!-- 0 -->
<g id="node1" class="node"><title>0</title>
<ellipse fill="none" stroke="black" cx="109" cy="-452" rx="18" ry="18"/>
</g>
<!-- 1 -->
<g id="node2" class="node"><title>1</title>
<ellipse fill="none" stroke="black" cx="227" cy="-452" rx="18" ry="18"/>
</g>
<!-- 0&#45;&gt;1 -->
<g id="edge1" class="edge"><title>0&#45;&gt;1</title>
<path fill="none" stroke="black" d="M127.116,-452C145.964,-452 176.531,-452 198.696,-452"/>
<polygon fill="black" stroke="black" points="198.814,-455.5 208.814,-452 198.814,-448.5 198.814,-455.5"/>
<text text-anchor="middle" x="168" y="-455.8" font-family="Times,serif" font-size="14.00">u0007</text>
</g>
<!-- 2 -->
<g id="node3" class="node"><title>2</title>
<ellipse fill="none" stroke="black" cx="345" cy="-452" rx="18" ry="18"/>
</g>
<!-- 1&#45;&gt;2 -->
<g id="edge2" class="edge"><title>1&#45;&gt;2</title>
<path fill="none" stroke="black" d="M245.116,-452C263.964,-452 294.531,-452 316.696,-452"/>
<polygon fill="black" stroke="black" points="316.814,-455.5 326.814,-452 316.814,-448.5 316.814,-455.5"/>
<text text-anchor="middle" x="286" y="-455.8" font-family="Times,serif" font-size="14.00">u0009</text>
</g>
<!-- 3 -->
<g id="node4" class="node"><title>3</title>
<ellipse fill="none" stroke="black" cx="462" cy="-452" rx="18" ry="18"/>
</g>
<!-- 2&#45;&gt;3 -->
<g id="edge3" class="edge"><title>2&#45;&gt;3</title>
<path fill="none" stroke="black" d="M363.466,-452C382.064,-452 411.756,-452 433.499,-452"/>
<polygon fill="black" stroke="black" points="433.746,-455.5 443.746,-452 433.746,-448.5 433.746,-455.5"/>
<text text-anchor="middle" x="403.5" y="-455.8" font-family="Times,serif" font-size="14.00">u000a</text>
</g>
<!-- 4 -->
<g id="node5" class="node"><title>4</title>
<ellipse fill="none" stroke="black" cx="580" cy="-452" rx="18" ry="18"/>
</g>
<!-- 3&#45;&gt;4 -->
<g id="edge4" class="edge"><title>3&#45;&gt;4</title>
<path fill="none" stroke="black" d="M480.116,-452C498.964,-452 529.531,-452 551.696,-452"/>
<polygon fill="black" stroke="black" points="551.814,-455.5 561.814,-452 551.814,-448.5 551.814,-455.5"/>
<text text-anchor="middle" x="521" y="-455.8" font-family="Times,serif" font-size="14.00">u000b</text>
</g>
<!-- 5 -->
<g id="node6" class="node"><title>5</title>
<ellipse fill="none" stroke="black" cx="698" cy="-452" rx="18" ry="18"/>
</g>
<!-- 4&#45;&gt;5 -->
<g id="edge5" class="edge"><title>4&#45;&gt;5</title>
<path fill="none" stroke="black" d="M598.116,-452C616.964,-452 647.531,-452 669.696,-452"/>
<polygon fill="black" stroke="black" points="669.814,-455.5 679.814,-452 669.814,-448.5 669.814,-455.5"/>
<text text-anchor="middle" x="639" y="-455.8" font-family="Times,serif" font-size="14.00">u0005</text>
</g>
<!-- 6 -->
<g id="node7" class="node"><title>6</title>
<ellipse fill="none" stroke="black" cx="816" cy="-452" rx="18" ry="18"/>
</g>
<!-- 5&#45;&gt;6 -->
<g id="edge6" class="edge"><title>5&#45;&gt;6</title>
<path fill="none" stroke="black" d="M716.116,-452C734.964,-452 765.531,-452 787.696,-452"/>
<polygon fill="black" stroke="black" points="787.814,-455.5 797.814,-452 787.814,-448.5 787.814,-455.5"/>
<text text-anchor="middle" x="757" y="-455.8" font-family="Times,serif" font-size="14.00">u0001</text>
</g>
<!-- 7 -->
<g id="node8" class="node"><title>7</title>
<ellipse fill="none" stroke="black" cx="934" cy="-452" rx="18" ry="18"/>
</g>
<!-- 6&#45;&gt;7 -->
<g id="edge7" class="edge"><title>6&#45;&gt;7</title>
<path fill="none" stroke="black" d="M834.116,-452C852.964,-452 883.531,-452 905.696,-452"/>
<polygon fill="black" stroke="black" points="905.814,-455.5 915.814,-452 905.814,-448.5 905.814,-455.5"/>
<text text-anchor="middle" x="875" y="-455.8" font-family="Times,serif" font-size="14.00">u0003</text>
</g>
<!-- 8 -->
<g id="node9" class="node"><title>8</title>
<ellipse fill="none" stroke="black" cx="1051" cy="-452" rx="18" ry="18"/>
</g>
<!-- 7&#45;&gt;8 -->
<g id="edge8" class="edge"><title>7&#45;&gt;8</title>
<path fill="none" stroke="black" d="M952.466,-452C971.064,-452 1000.76,-452 1022.5,-452"/>
<polygon fill="black" stroke="black" points="1022.75,-455.5 1032.75,-452 1022.75,-448.5 1022.75,-455.5"/>
<text text-anchor="middle" x="992.5" y="-455.8" font-family="Times,serif" font-size="14.00">u000c</text>
</g>
<!-- 9 -->
<g id="node10" class="node"><title>9</title>
<ellipse fill="none" stroke="black" cx="1169" cy="-452" rx="18" ry="18"/>
</g>
<!-- 8&#45;&gt;9 -->
<g id="edge9" class="edge"><title>8&#45;&gt;9</title>
<path fill="none" stroke="black" d="M1069.12,-452C1087.96,-452 1118.53,-452 1140.7,-452"/>
<polygon fill="black" stroke="black" points="1140.81,-455.5 1150.81,-452 1140.81,-448.5 1140.81,-455.5"/>
<text text-anchor="middle" x="1110" y="-455.8" font-family="Times,serif" font-size="14.00">u0002</text>
</g>
<!-- 10 -->
<g id="node11" class="node"><title>10</title>
<ellipse fill="none" stroke="black" cx="1287" cy="-672" rx="18" ry="18"/>
</g>
<!-- 9&#45;&gt;10 -->
<g id="edge10" class="edge"><title>9&#45;&gt;10</title>
<path fill="none" stroke="black" d="M1178.34,-467.822C1198.32,-505.718 1249.04,-601.909 1273.04,-647.419"/>
<polygon fill="black" stroke="black" points="1269.97,-649.108 1277.73,-656.322 1276.17,-645.843 1269.97,-649.108"/>
<text text-anchor="middle" x="1228" y="-603.8" font-family="Times,serif" font-size="14.00">u0004</text>
</g>
<!-- 13 -->
<g id="node19" class="node"><title>13</title>
<ellipse fill="none" stroke="black" cx="3249" cy="-417" rx="18" ry="18"/>
<ellipse fill="none" stroke="black" cx="3249" cy="-417" rx="22" ry="22"/>
</g>
<!-- 9&#45;&gt;13 -->
<g id="edge13" class="edge"><title>9&#45;&gt;13</title>
<path fill="none" stroke="black" d="M1171.26,-469.919C1177.18,-547.558 1205.47,-851 1286,-851 1286,-851 1286,-851 3123,-851 3175.51,-851 3185.56,-816.986 3209,-770 3236.87,-714.125 3245.05,-525.704 3247.25,-449.444"/>
<polygon fill="black" stroke="black" points="3250.76,-449.127 3247.54,-439.035 3243.77,-448.936 3250.76,-449.127"/>
<text text-anchor="middle" x="2182" y="-854.8" font-family="Times,serif" font-size="14.00">u0000</text>
</g>
<!-- 11 -->
<g id="node43" class="node"><title>11</title>
<ellipse fill="none" stroke="black" cx="2502" cy="-91" rx="18" ry="18"/>
</g>
<!-- 9&#45;&gt;11 -->
<g id="edge11" class="edge"><title>9&#45;&gt;11</title>
<path fill="none" stroke="black" d="M1171.95,-434.162C1180.21,-362.839 1215.26,-102 1286,-102 1286,-102 1286,-102 2375,-102 2409.2,-102 2448.42,-97.9284 2473.9,-94.7394"/>
<polygon fill="black" stroke="black" points="2474.45,-98.197 2483.92,-93.4413 2473.56,-91.255 2474.45,-98.197"/>
<text text-anchor="middle" x="1828" y="-105.8" font-family="Times,serif" font-size="14.00">u0008</text>
</g>
<!-- 12 -->
<g id="node52" class="node"><title>12</title>
<ellipse fill="none" stroke="black" cx="2374" cy="-297" rx="18" ry="18"/>
</g>
<!-- 9&#45;&gt;12 -->
<g id="edge12" class="edge"><title>9&#45;&gt;12</title>
<path fill="none" stroke="black" d="M1182.36,-439.853C1202.35,-421.546 1243.83,-389 1286,-389 1286,-389 1286,-389 2247,-389 2293.93,-389 2335.04,-346.864 2356.72,-319.624"/>
<polygon fill="black" stroke="black" points="2359.75,-321.437 2363.06,-311.375 2354.19,-317.172 2359.75,-321.437"/>
<text text-anchor="middle" x="1764" y="-392.8" font-family="Times,serif" font-size="14.00">u0006</text>
</g>
<!-- 14 -->
<g id="node12" class="node"><title>14</title>
<ellipse fill="none" stroke="black" cx="2374" cy="-572" rx="18" ry="18"/>
</g>
<!-- 10&#45;&gt;14 -->
<g id="edge14" class="edge"><title>10&#45;&gt;14</title>
<path fill="none" stroke="black" d="M1299.31,-658.427C1318.47,-637.064 1359.57,-598 1404,-598 1404,-598 1404,-598 2247,-598 2282.14,-598 2321.68,-588.181 2346.93,-580.611"/>
<polygon fill="black" stroke="black" points="2348,-583.946 2356.51,-577.642 2345.92,-577.26 2348,-583.946"/>
<text text-anchor="middle" x="1828" y="-601.8" font-family="Times,serif" font-size="14.00">u0004</text>
</g>
<!-- 10&#45;&gt;13 -->
<g id="edge17" class="edge"><title>10&#45;&gt;13</title>
<path fill="none" stroke="black" d="M1293.41,-688.95C1306.22,-725.407 1342.09,-808 1404,-808 1404,-808 1404,-808 3123,-808 3178.97,-808 3185.12,-766.624 3209,-716 3231.1,-669.147 3242.34,-516.033 3246.3,-448.96"/>
<polygon fill="black" stroke="black" points="3249.8,-449.148 3246.87,-438.964 3242.81,-448.746 3249.8,-449.148"/>
<text text-anchor="middle" x="2246" y="-811.8" font-family="Times,serif" font-size="14.00">u0000</text>
</g>
<!-- 15 -->
<g id="node22" class="node"><title>15</title>
<ellipse fill="none" stroke="black" cx="2246" cy="-708" rx="18" ry="18"/>
</g>
<!-- 10&#45;&gt;15 -->
<g id="edge15" class="edge"><title>10&#45;&gt;15</title>
<path fill="none" stroke="black" d="M1300.29,-684.533C1320.18,-703.421 1361.52,-737 1404,-737 1404,-737 1404,-737 2124,-737 2157.64,-737 2195.14,-726.266 2219.34,-717.859"/>
<polygon fill="black" stroke="black" points="2220.63,-721.115 2228.85,-714.436 2218.26,-714.529 2220.63,-721.115"/>
<text text-anchor="middle" x="1764" y="-740.8" font-family="Times,serif" font-size="14.00">u0008</text>
</g>
<!-- 16 -->
<g id="node29" class="node"><title>16</title>
<ellipse fill="none" stroke="black" cx="1405" cy="-672" rx="18" ry="18"/>
</g>
<!-- 10&#45;&gt;16 -->
<g id="edge16" class="edge"><title>10&#45;&gt;16</title>
<path fill="none" stroke="black" d="M1305.12,-672C1323.96,-672 1354.53,-672 1376.7,-672"/>
<polygon fill="black" stroke="black" points="1376.81,-675.5 1386.81,-672 1376.81,-668.5 1376.81,-675.5"/>
<text text-anchor="middle" x="1346" y="-675.8" font-family="Times,serif" font-size="14.00">u0006</text>
</g>
<!-- 23 -->
<g id="node13" class="node"><title>23</title>
<ellipse fill="none" stroke="black" cx="2502" cy="-572" rx="18" ry="18"/>
</g>
<!-- 14&#45;&gt;23 -->
<g id="edge18" class="edge"><title>14&#45;&gt;23</title>
<path fill="none" stroke="black" d="M2392.26,-572C2413.27,-572 2449.03,-572 2473.77,-572"/>
<polygon fill="black" stroke="black" points="2473.95,-575.5 2483.95,-572 2473.95,-568.5 2473.95,-575.5"/>
<text text-anchor="middle" x="2438" y="-575.8" font-family="Times,serif" font-size="14.00">u0004</text>
</g>
<!-- 24 -->
<g id="node20" class="node"><title>24</title>
<ellipse fill="none" stroke="black" cx="2566" cy="-501" rx="18" ry="18"/>
</g>
<!-- 14&#45;&gt;24 -->
<g id="edge19" class="edge"><title>14&#45;&gt;24</title>
<path fill="none" stroke="black" d="M2390.4,-564.2C2397.76,-560.597 2406.75,-556.379 2415,-553 2457.67,-535.532 2508.62,-518.69 2538.81,-509.114"/>
<polygon fill="black" stroke="black" points="2540.09,-512.381 2548.58,-506.041 2537.99,-505.704 2540.09,-512.381"/>
<text text-anchor="middle" x="2438" y="-556.8" font-family="Times,serif" font-size="14.00">u0008</text>
</g>
<!-- 35 -->
<g id="node14" class="node"><title>35</title>
<ellipse fill="none" stroke="black" cx="2625" cy="-572" rx="18" ry="18"/>
</g>
<!-- 23&#45;&gt;35 -->
<g id="edge20" class="edge"><title>23&#45;&gt;35</title>
<path fill="none" stroke="black" d="M2520.08,-572C2539.96,-572 2573.08,-572 2596.58,-572"/>
<polygon fill="black" stroke="black" points="2596.62,-575.5 2606.62,-572 2596.62,-568.5 2596.62,-575.5"/>
<text text-anchor="middle" x="2566" y="-575.8" font-family="Times,serif" font-size="14.00">u0008</text>
</g>
<!-- 44 -->
<g id="node15" class="node"><title>44</title>
<ellipse fill="none" stroke="black" cx="2743" cy="-543" rx="18" ry="18"/>
</g>
<!-- 35&#45;&gt;44 -->
<g id="edge21" class="edge"><title>35&#45;&gt;44</title>
<path fill="none" stroke="black" d="M2642.62,-567.845C2661.66,-563.086 2693.1,-555.224 2715.52,-549.619"/>
<polygon fill="black" stroke="black" points="2716.56,-552.968 2725.41,-547.147 2714.86,-546.177 2716.56,-552.968"/>
<text text-anchor="middle" x="2684" y="-565.8" font-family="Times,serif" font-size="14.00">u0008</text>
</g>
<!-- 35&#45;&gt;13 -->
<g id="edge22" class="edge"><title>35&#45;&gt;13</title>
<path fill="none" stroke="black" d="M2635.41,-586.819C2637.9,-590.766 2640.56,-595.036 2643,-599 2651.14,-612.247 2647.47,-621.339 2661,-629 2749.45,-679.082 2791.38,-639.329 2889,-611 2897.59,-608.507 2898.86,-605.71 2907,-602 2927.13,-592.826 2932.64,-591.656 2953,-583 2981.57,-570.851 2989.4,-569.212 3017,-555 3093.42,-515.654 3179.32,-461.577 3221.6,-434.271"/>
<polygon fill="black" stroke="black" points="3223.69,-437.086 3230.18,-428.709 3219.88,-431.212 3223.69,-437.086"/>
<text text-anchor="middle" x="2930" y="-605.8" font-family="Times,serif" font-size="14.00">u0000</text>
</g>
<!-- 47 -->
<g id="node16" class="node"><title>47</title>
<ellipse fill="none" stroke="black" cx="2866" cy="-528" rx="18" ry="18"/>
</g>
<!-- 44&#45;&gt;47 -->
<g id="edge23" class="edge"><title>44&#45;&gt;47</title>
<path fill="none" stroke="black" d="M2761.08,-540.883C2781.08,-538.404 2814.45,-534.266 2837.98,-531.35"/>
<polygon fill="black" stroke="black" points="2838.51,-534.81 2848.01,-530.107 2837.65,-527.863 2838.51,-534.81"/>
<text text-anchor="middle" x="2802" y="-541.8" font-family="Times,serif" font-size="14.00">u0006</text>
</g>
<!-- 38 -->
<g id="node17" class="node"><title>38</title>
<ellipse fill="none" stroke="black" cx="2994" cy="-528" rx="18" ry="18"/>
</g>
<!-- 47&#45;&gt;38 -->
<g id="edge24" class="edge"><title>47&#45;&gt;38</title>
<path fill="none" stroke="black" d="M2884.26,-528C2905.27,-528 2941.03,-528 2965.77,-528"/>
<polygon fill="black" stroke="black" points="2965.95,-531.5 2975.95,-528 2965.95,-524.5 2965.95,-531.5"/>
<text text-anchor="middle" x="2930" y="-531.8" font-family="Times,serif" font-size="14.00">u0004</text>
</g>
<!-- 25 -->
<g id="node18" class="node"><title>25</title>
<ellipse fill="none" stroke="black" cx="3122" cy="-417" rx="18" ry="18"/>
</g>
<!-- 38&#45;&gt;25 -->
<g id="edge25" class="edge"><title>38&#45;&gt;25</title>
<path fill="none" stroke="black" d="M3008.01,-516.539C3029.8,-497.346 3073.84,-458.542 3100.04,-435.461"/>
<polygon fill="black" stroke="black" points="3102.68,-437.801 3107.87,-428.565 3098.06,-432.549 3102.68,-437.801"/>
<text text-anchor="middle" x="3058" y="-495.8" font-family="Times,serif" font-size="14.00">u0006</text>
</g>
<!-- 25&#45;&gt;13 -->
<g id="edge26" class="edge"><title>25&#45;&gt;13</title>
<path fill="none" stroke="black" d="M3140.12,-417C3159.81,-417 3192.53,-417 3216.78,-417"/>
<polygon fill="black" stroke="black" points="3216.92,-420.5 3226.92,-417 3216.92,-413.5 3216.92,-420.5"/>
<text text-anchor="middle" x="3186" y="-420.8" font-family="Times,serif" font-size="14.00">u0000</text>
</g>
<!-- 36 -->
<g id="node21" class="node"><title>36</title>
<ellipse fill="none" stroke="black" cx="2866" cy="-417" rx="18" ry="18"/>
</g>
<!-- 24&#45;&gt;36 -->
<g id="edge27" class="edge"><title>24&#45;&gt;36</title>
<path fill="none" stroke="black" d="M2584.16,-502.942C2627.84,-507.021 2745.4,-512.526 2825,-465 2828.06,-463.17 2838.55,-450.533 2848.02,-438.685"/>
<polygon fill="black" stroke="black" points="2850.84,-440.763 2854.31,-430.751 2845.35,-436.415 2850.84,-440.763"/>
<text text-anchor="middle" x="2684" y="-508.8" font-family="Times,serif" font-size="14.00">u0008</text>
</g>
<!-- 36&#45;&gt;25 -->
<g id="edge28" class="edge"><title>36&#45;&gt;25</title>
<path fill="none" stroke="black" d="M2884.06,-417C2927.16,-417 3040.71,-417 3093.41,-417"/>
<polygon fill="black" stroke="black" points="3093.68,-420.5 3103.68,-417 3093.68,-413.5 3093.68,-420.5"/>
<text text-anchor="middle" x="2994" y="-420.8" font-family="Times,serif" font-size="14.00">u0008</text>
</g>
<!-- 15&#45;&gt;25 -->
<g id="edge29" class="edge"><title>15&#45;&gt;25</title>
<path fill="none" stroke="black" d="M2263.07,-702.274C2286.8,-694.348 2332.73,-681 2373,-681 2373,-681 2373,-681 2685,-681 2804.51,-681 2846.44,-713.106 2953,-659 3042.14,-613.739 3093.1,-496.508 3112.22,-443.6"/>
<polygon fill="black" stroke="black" points="3115.6,-444.511 3115.62,-433.916 3109,-442.192 3115.6,-444.511"/>
<text text-anchor="middle" x="2684" y="-684.8" font-family="Times,serif" font-size="14.00">u0004</text>
</g>
<!-- 26 -->
<g id="node23" class="node"><title>26</title>
<ellipse fill="none" stroke="black" cx="2374" cy="-631" rx="18" ry="18"/>
</g>
<!-- 15&#45;&gt;26 -->
<g id="edge30" class="edge"><title>15&#45;&gt;26</title>
<path fill="none" stroke="black" d="M2256.15,-692.815C2265.27,-678.15 2279.04,-657.391 2287,-652 2304.37,-640.245 2327.65,-635.055 2345.62,-632.771"/>
<polygon fill="black" stroke="black" points="2346.17,-636.232 2355.75,-631.713 2345.44,-629.27 2346.17,-636.232"/>
<text text-anchor="middle" x="2310" y="-655.8" font-family="Times,serif" font-size="14.00">u0008</text>
</g>
<!-- 27 -->
<g id="node28" class="node"><title>27</title>
<ellipse fill="none" stroke="black" cx="2866" cy="-719" rx="18" ry="18"/>
</g>
<!-- 15&#45;&gt;27 -->
<g id="edge31" class="edge"><title>15&#45;&gt;27</title>
<path fill="none" stroke="black" d="M2264.08,-710.441C2288.27,-713.682 2333.91,-719 2373,-719 2373,-719 2373,-719 2744,-719 2776.21,-719 2813.23,-719 2837.76,-719"/>
<polygon fill="black" stroke="black" points="2837.77,-722.5 2847.77,-719 2837.77,-715.5 2837.77,-722.5"/>
<text text-anchor="middle" x="2566" y="-722.8" font-family="Times,serif" font-size="14.00">u0006</text>
</g>
<!-- 37 -->
<g id="node24" class="node"><title>37</title>
<ellipse fill="none" stroke="black" cx="2502" cy="-627" rx="18" ry="18"/>
</g>
<!-- 26&#45;&gt;37 -->
<g id="edge32" class="edge"><title>26&#45;&gt;37</title>
<path fill="none" stroke="black" d="M2391.99,-630.461C2412.94,-629.796 2448.81,-628.657 2473.65,-627.868"/>
<polygon fill="black" stroke="black" points="2473.99,-631.359 2483.87,-627.544 2473.77,-624.363 2473.99,-631.359"/>
<text text-anchor="middle" x="2438" y="-632.8" font-family="Times,serif" font-size="14.00">u0004</text>
</g>
<!-- 45 -->
<g id="node25" class="node"><title>45</title>
<ellipse fill="none" stroke="black" cx="2625" cy="-626" rx="18" ry="18"/>
</g>
<!-- 37&#45;&gt;45 -->
<g id="edge33" class="edge"><title>37&#45;&gt;45</title>
<path fill="none" stroke="black" d="M2520.08,-626.859C2539.96,-626.695 2573.08,-626.421 2596.58,-626.227"/>
<polygon fill="black" stroke="black" points="2596.64,-629.726 2606.62,-626.144 2596.59,-622.727 2596.64,-629.726"/>
<text text-anchor="middle" x="2566" y="-629.8" font-family="Times,serif" font-size="14.00">u0004</text>
</g>
<!-- 48 -->
<g id="node26" class="node"><title>48</title>
<ellipse fill="none" stroke="black" cx="2743" cy="-597" rx="18" ry="18"/>
</g>
<!-- 45&#45;&gt;48 -->
<g id="edge34" class="edge"><title>45&#45;&gt;48</title>
<path fill="none" stroke="black" d="M2642.62,-621.845C2661.66,-617.086 2693.1,-609.224 2715.52,-603.619"/>
<polygon fill="black" stroke="black" points="2716.56,-606.968 2725.41,-601.147 2714.86,-600.177 2716.56,-606.968"/>
<text text-anchor="middle" x="2684" y="-619.8" font-family="Times,serif" font-size="14.00">u0006</text>
</g>
<!-- 50 -->
<g id="node27" class="node"><title>50</title>
<ellipse fill="none" stroke="black" cx="2866" cy="-584" rx="18" ry="18"/>
</g>
<!-- 48&#45;&gt;50 -->
<g id="edge35" class="edge"><title>48&#45;&gt;50</title>
<path fill="none" stroke="black" d="M2761.08,-595.165C2781.08,-593.016 2814.45,-589.431 2837.98,-586.903"/>
<polygon fill="black" stroke="black" points="2838.44,-590.374 2848.01,-585.826 2837.69,-583.414 2838.44,-590.374"/>
<text text-anchor="middle" x="2802" y="-596.8" font-family="Times,serif" font-size="14.00">u0004</text>
</g>
<!-- 50&#45;&gt;38 -->
<g id="edge36" class="edge"><title>50&#45;&gt;38</title>
<path fill="none" stroke="black" d="M2882.7,-577.021C2904.02,-567.547 2942.36,-550.508 2967.74,-539.225"/>
<polygon fill="black" stroke="black" points="2969.38,-542.327 2977.1,-535.067 2966.54,-535.93 2969.38,-542.327"/>
<text text-anchor="middle" x="2930" y="-568.8" font-family="Times,serif" font-size="14.00">u0008</text>
</g>
<!-- 27&#45;&gt;38 -->
<g id="edge37" class="edge"><title>27&#45;&gt;38</title>
<path fill="none" stroke="black" d="M2879.79,-707.034C2897.94,-689.522 2931.37,-655.26 2953,-621 2966.28,-599.963 2977.11,-573.755 2984.13,-554.527"/>
<polygon fill="black" stroke="black" points="2987.5,-555.502 2987.54,-544.907 2980.9,-553.163 2987.5,-555.502"/>
<text text-anchor="middle" x="2930" y="-682.8" font-family="Times,serif" font-size="14.00">u0004</text>
</g>
<!-- 27&#45;&gt;13 -->
<g id="edge38" class="edge"><title>27&#45;&gt;13</title>
<path fill="none" stroke="black" d="M2884.02,-720.332C2941.58,-723.781 3129.75,-726.199 3209,-619 3228.62,-592.454 3240.24,-498.923 3245.18,-448.984"/>
<polygon fill="black" stroke="black" points="3248.67,-449.318 3246.14,-439.029 3241.7,-448.65 3248.67,-449.318"/>
<text text-anchor="middle" x="3058" y="-714.8" font-family="Times,serif" font-size="14.00">u0000</text>
</g>
<!-- 28 -->
<g id="node30" class="node"><title>28</title>
<ellipse fill="none" stroke="black" cx="1523" cy="-672" rx="18" ry="18"/>
</g>
<!-- 16&#45;&gt;28 -->
<g id="edge39" class="edge"><title>16&#45;&gt;28</title>
<path fill="none" stroke="black" d="M1423.12,-672C1441.96,-672 1472.53,-672 1494.7,-672"/>
<polygon fill="black" stroke="black" points="1494.81,-675.5 1504.81,-672 1494.81,-668.5 1494.81,-675.5"/>
<text text-anchor="middle" x="1464" y="-675.8" font-family="Times,serif" font-size="14.00">u0006</text>
</g>
<!-- 28&#45;&gt;13 -->
<g id="edge41" class="edge"><title>28&#45;&gt;13</title>
<path fill="none" stroke="black" d="M1541.07,-674.589C1546.77,-675.413 1553.15,-676.293 1559,-677 1764.73,-701.882 1816.8,-702.32 2023,-723 2207.02,-741.456 2252.06,-765 2437,-765 2437,-765 2437,-765 3123,-765 3185.41,-765 3184.06,-711.207 3209,-654 3238.92,-585.381 3246.05,-496.458 3247.65,-449.448"/>
<polygon fill="black" stroke="black" points="3251.15,-449.348 3247.93,-439.255 3244.15,-449.156 3251.15,-449.348"/>
<text text-anchor="middle" x="2374" y="-767.8" font-family="Times,serif" font-size="14.00">u0000</text>
</g>
<!-- 39 -->
<g id="node31" class="node"><title>39</title>
<ellipse fill="none" stroke="black" cx="1641" cy="-645" rx="18" ry="18"/>
</g>
<!-- 28&#45;&gt;39 -->
<g id="edge40" class="edge"><title>28&#45;&gt;39</title>
<path fill="none" stroke="black" d="M1540.32,-667.077C1546.18,-665.376 1552.87,-663.518 1559,-662 1576.91,-657.569 1597.22,-653.307 1613.03,-650.159"/>
<polygon fill="black" stroke="black" points="1614.03,-653.53 1623.17,-648.169 1612.68,-646.661 1614.03,-653.53"/>
<text text-anchor="middle" x="1582" y="-665.8" font-family="Times,serif" font-size="14.00">u0008</text>
</g>
<!-- 46 -->
<g id="node32" class="node"><title>46</title>
<ellipse fill="none" stroke="black" cx="1764" cy="-645" rx="18" ry="18"/>
</g>
<!-- 39&#45;&gt;46 -->
<g id="edge42" class="edge"><title>39&#45;&gt;46</title>
<path fill="none" stroke="black" d="M1659.08,-645C1678.96,-645 1712.08,-645 1735.58,-645"/>
<polygon fill="black" stroke="black" points="1735.62,-648.5 1745.62,-645 1735.62,-641.5 1735.62,-648.5"/>
<text text-anchor="middle" x="1700" y="-648.8" font-family="Times,serif" font-size="14.00">u0008</text>
</g>
<!-- 49 -->
<g id="node33" class="node"><title>49</title>
<ellipse fill="none" stroke="black" cx="1887" cy="-645" rx="18" ry="18"/>
</g>
<!-- 46&#45;&gt;49 -->
<g id="edge43" class="edge"><title>46&#45;&gt;49</title>
<path fill="none" stroke="black" d="M1782.08,-645C1801.96,-645 1835.08,-645 1858.58,-645"/>
<polygon fill="black" stroke="black" points="1858.62,-648.5 1868.62,-645 1858.62,-641.5 1858.62,-648.5"/>
<text text-anchor="middle" x="1828" y="-648.8" font-family="Times,serif" font-size="14.00">u0006</text>
</g>
<!-- 51 -->
<g id="node34" class="node"><title>51</title>
<ellipse fill="none" stroke="black" cx="2005" cy="-645" rx="18" ry="18"/>
</g>
<!-- 49&#45;&gt;51 -->
<g id="edge44" class="edge"><title>49&#45;&gt;51</title>
<path fill="none" stroke="black" d="M1905.12,-645C1923.96,-645 1954.53,-645 1976.7,-645"/>
<polygon fill="black" stroke="black" points="1976.81,-648.5 1986.81,-645 1976.81,-641.5 1976.81,-648.5"/>
<text text-anchor="middle" x="1946" y="-648.8" font-family="Times,serif" font-size="14.00">u0008</text>
</g>
<!-- 52 -->
<g id="node35" class="node"><title>52</title>
<ellipse fill="none" stroke="black" cx="2123" cy="-645" rx="18" ry="18"/>
</g>
<!-- 51&#45;&gt;52 -->
<g id="edge45" class="edge"><title>51&#45;&gt;52</title>
<path fill="none" stroke="black" d="M2023.12,-645C2041.96,-645 2072.53,-645 2094.7,-645"/>
<polygon fill="black" stroke="black" points="2094.81,-648.5 2104.81,-645 2094.81,-641.5 2094.81,-648.5"/>
<text text-anchor="middle" x="2064" y="-648.8" font-family="Times,serif" font-size="14.00">u0008</text>
</g>
<!-- 53 -->
<g id="node36" class="node"><title>53</title>
<ellipse fill="none" stroke="black" cx="2246" cy="-645" rx="18" ry="18"/>
</g>
<!-- 52&#45;&gt;53 -->
<g id="edge46" class="edge"><title>52&#45;&gt;53</title>
<path fill="none" stroke="black" d="M2141.08,-645C2160.96,-645 2194.08,-645 2217.58,-645"/>
<polygon fill="black" stroke="black" points="2217.62,-648.5 2227.62,-645 2217.62,-641.5 2217.62,-648.5"/>
<text text-anchor="middle" x="2182" y="-648.8" font-family="Times,serif" font-size="14.00">u0008</text>
</g>
<!-- 54 -->
<g id="node37" class="node"><title>54</title>
<ellipse fill="none" stroke="black" cx="2374" cy="-504" rx="18" ry="18"/>
</g>
<!-- 53&#45;&gt;54 -->
<g id="edge47" class="edge"><title>53&#45;&gt;54</title>
<path fill="none" stroke="black" d="M2258.63,-631.988C2280.57,-607.435 2328.23,-554.098 2354.57,-524.619"/>
<polygon fill="black" stroke="black" points="2357.35,-526.77 2361.4,-516.981 2352.13,-522.105 2357.35,-526.77"/>
<text text-anchor="middle" x="2310" y="-602.8" font-family="Times,serif" font-size="14.00">u0008</text>
</g>
<!-- 55 -->
<g id="node38" class="node"><title>55</title>
<ellipse fill="none" stroke="black" cx="2502" cy="-463" rx="18" ry="18"/>
</g>
<!-- 54&#45;&gt;55 -->
<g id="edge48" class="edge"><title>54&#45;&gt;55</title>
<path fill="none" stroke="black" d="M2389.19,-493.835C2396.58,-488.986 2405.93,-483.494 2415,-480 2434.05,-472.659 2456.75,-468.343 2474.05,-465.898"/>
<polygon fill="black" stroke="black" points="2474.57,-469.36 2484.04,-464.607 2473.67,-462.418 2474.57,-469.36"/>
<text text-anchor="middle" x="2438" y="-483.8" font-family="Times,serif" font-size="14.00">u0008</text>
</g>
<!-- 56 -->
<g id="node39" class="node"><title>56</title>
<ellipse fill="none" stroke="black" cx="2625" cy="-451" rx="18" ry="18"/>
</g>
<!-- 55&#45;&gt;56 -->
<g id="edge49" class="edge"><title>55&#45;&gt;56</title>
<path fill="none" stroke="black" d="M2520.13,-461.282C2527.21,-460.574 2535.5,-459.745 2543,-459 2560.94,-457.217 2581.11,-455.225 2596.84,-453.674"/>
<polygon fill="black" stroke="black" points="2597.32,-457.143 2606.93,-452.68 2596.64,-450.177 2597.32,-457.143"/>
<text text-anchor="middle" x="2566" y="-462.8" font-family="Times,serif" font-size="14.00">u0008</text>
</g>
<!-- 57 -->
<g id="node40" class="node"><title>57</title>
<ellipse fill="none" stroke="black" cx="2743" cy="-451" rx="18" ry="18"/>
</g>
<!-- 56&#45;&gt;57 -->
<g id="edge50" class="edge"><title>56&#45;&gt;57</title>
<path fill="none" stroke="black" d="M2643.12,-451C2661.96,-451 2692.53,-451 2714.7,-451"/>
<polygon fill="black" stroke="black" points="2714.81,-454.5 2724.81,-451 2714.81,-447.5 2714.81,-454.5"/>
<text text-anchor="middle" x="2684" y="-454.8" font-family="Times,serif" font-size="14.00">u0004</text>
</g>
<!-- 58 -->
<g id="node41" class="node"><title>58</title>
<ellipse fill="none" stroke="black" cx="2866" cy="-359" rx="18" ry="18"/>
</g>
<!-- 57&#45;&gt;58 -->
<g id="edge51" class="edge"><title>57&#45;&gt;58</title>
<path fill="none" stroke="black" d="M2761,-449.082C2778.77,-446.293 2806.56,-439.618 2825,-424 2838.05,-412.948 2834.03,-404.558 2843,-390 2844.77,-387.134 2846.7,-384.18 2848.67,-381.286"/>
<polygon fill="black" stroke="black" points="2851.65,-383.132 2854.53,-372.935 2845.92,-379.111 2851.65,-383.132"/>
<text text-anchor="middle" x="2802" y="-449.8" font-family="Times,serif" font-size="14.00">u0008</text>
</g>
<!-- 20 -->
<g id="node42" class="node"><title>20</title>
<ellipse fill="none" stroke="black" cx="2994" cy="-306" rx="18" ry="18"/>
</g>
<!-- 58&#45;&gt;20 -->
<g id="edge52" class="edge"><title>58&#45;&gt;20</title>
<path fill="none" stroke="black" d="M2882.96,-352.288C2904.35,-343.287 2942.57,-327.213 2967.86,-316.577"/>
<polygon fill="black" stroke="black" points="2969.31,-319.762 2977.17,-312.658 2966.6,-313.309 2969.31,-319.762"/>
<text text-anchor="middle" x="2930" y="-345.8" font-family="Times,serif" font-size="14.00">u0004</text>
</g>
<!-- 20&#45;&gt;25 -->
<g id="edge53" class="edge"><title>20&#45;&gt;25</title>
<path fill="none" stroke="black" d="M3008.01,-317.461C3029.8,-336.654 3073.84,-375.458 3100.04,-398.539"/>
<polygon fill="black" stroke="black" points="3098.06,-401.451 3107.87,-405.435 3102.68,-396.199 3098.06,-401.451"/>
<text text-anchor="middle" x="3058" y="-385.8" font-family="Times,serif" font-size="14.00">u0004</text>
</g>
<!-- 11&#45;&gt;13 -->
<g id="edge57" class="edge"><title>11&#45;&gt;13</title>
<path fill="none" stroke="black" d="M2512.73,-76.3793C2531.15,-50.6557 2573.8,-0 2624,-0 2624,-0 2624,-0 3123,-0 3170.64,-0 3185.3,-22.6655 3209,-64 3240.12,-118.281 3246.41,-308.361 3247.68,-384.804"/>
<polygon fill="black" stroke="black" points="3244.18,-384.863 3247.83,-394.81 3251.18,-384.759 3244.18,-384.863"/>
<text text-anchor="middle" x="2866" y="-3.8" font-family="Times,serif" font-size="14.00">u0000</text>
</g>
<!-- 17 -->
<g id="node44" class="node"><title>17</title>
<ellipse fill="none" stroke="black" cx="2866" cy="-51" rx="18" ry="18"/>
</g>
<!-- 11&#45;&gt;17 -->
<g id="edge54" class="edge"><title>11&#45;&gt;17</title>
<path fill="none" stroke="black" d="M2519.35,-85.6461C2539.66,-79.258 2575.47,-68.8355 2607,-64 2690.49,-51.1962 2790.77,-50.1954 2837.95,-50.5609"/>
<polygon fill="black" stroke="black" points="2837.94,-54.0609 2847.98,-50.6663 2838.01,-47.0613 2837.94,-54.0609"/>
<text text-anchor="middle" x="2684" y="-61.8" font-family="Times,serif" font-size="14.00">u0004</text>
</g>
<!-- 18 -->
<g id="node46" class="node"><title>18</title>
<ellipse fill="none" stroke="black" cx="2625" cy="-91" rx="18" ry="18"/>
</g>
<!-- 11&#45;&gt;18 -->
<g id="edge55" class="edge"><title>11&#45;&gt;18</title>
<path fill="none" stroke="black" d="M2520.08,-91C2539.96,-91 2573.08,-91 2596.58,-91"/>
<polygon fill="black" stroke="black" points="2596.62,-94.5001 2606.62,-91 2596.62,-87.5001 2596.62,-94.5001"/>
<text text-anchor="middle" x="2566" y="-94.8" font-family="Times,serif" font-size="14.00">u0008</text>
</g>
<!-- 19 -->
<g id="node49" class="node"><title>19</title>
<ellipse fill="none" stroke="black" cx="2625" cy="-343" rx="18" ry="18"/>
</g>
<!-- 11&#45;&gt;19 -->
<g id="edge56" class="edge"><title>11&#45;&gt;19</title>
<path fill="none" stroke="black" d="M2510.75,-107.147C2531.28,-149.908 2587.18,-266.324 2611.93,-317.867"/>
<polygon fill="black" stroke="black" points="2608.83,-319.488 2616.31,-326.987 2615.14,-316.458 2608.83,-319.488"/>
<text text-anchor="middle" x="2566" y="-272.8" font-family="Times,serif" font-size="14.00">u0006</text>
</g>
<!-- 17&#45;&gt;13 -->
<g id="edge59" class="edge"><title>17&#45;&gt;13</title>
<path fill="none" stroke="black" d="M2883.63,-47.254C2939.92,-35.6648 3124.51,-6.80465 3209,-105 3244.56,-146.328 3248.37,-313.109 3248.33,-384.412"/>
<polygon fill="black" stroke="black" points="3244.83,-384.596 3248.3,-394.608 3251.83,-384.619 3244.83,-384.596"/>
<text text-anchor="middle" x="3058" y="-43.8" font-family="Times,serif" font-size="14.00">u0000</text>
</g>
<!-- 29 -->
<g id="node45" class="node"><title>29</title>
<ellipse fill="none" stroke="black" cx="2994" cy="-91" rx="18" ry="18"/>
</g>
<!-- 17&#45;&gt;29 -->
<g id="edge58" class="edge"><title>17&#45;&gt;29</title>
<path fill="none" stroke="black" d="M2883.47,-56.2293C2904.7,-62.967 2941.84,-74.7578 2966.92,-82.7197"/>
<polygon fill="black" stroke="black" points="2965.93,-86.0795 2976.52,-85.7694 2968.05,-79.4076 2965.93,-86.0795"/>
<text text-anchor="middle" x="2930" y="-82.8" font-family="Times,serif" font-size="14.00">u0008</text>
</g>
<!-- 29&#45;&gt;25 -->
<g id="edge60" class="edge"><title>29&#45;&gt;25</title>
<path fill="none" stroke="black" d="M3001.42,-107.615C3021.94,-160.697 3086.02,-326.485 3110.94,-390.972"/>
<polygon fill="black" stroke="black" points="3107.72,-392.353 3114.59,-400.419 3114.25,-389.83 3107.72,-392.353"/>
<text text-anchor="middle" x="3058" y="-315.8" font-family="Times,serif" font-size="14.00">u0004</text>
</g>
<!-- 29&#45;&gt;13 -->
<g id="edge61" class="edge"><title>29&#45;&gt;13</title>
<path fill="none" stroke="black" d="M3012.01,-89.0856C3052.83,-85.5355 3156.82,-82.875 3209,-140 3241.19,-175.239 3246.94,-319.662 3247.88,-384.832"/>
<polygon fill="black" stroke="black" points="3244.38,-384.987 3247.99,-394.946 3251.38,-384.907 3244.38,-384.987"/>
<text text-anchor="middle" x="3122" y="-104.8" font-family="Times,serif" font-size="14.00">u0000</text>
</g>
<!-- 30 -->
<g id="node47" class="node"><title>30</title>
<ellipse fill="none" stroke="black" cx="2743" cy="-143" rx="18" ry="18"/>
</g>
<!-- 18&#45;&gt;30 -->
<g id="edge62" class="edge"><title>18&#45;&gt;30</title>
<path fill="none" stroke="black" d="M2641.64,-98.013C2660.93,-106.658 2693.95,-121.462 2716.82,-131.714"/>
<polygon fill="black" stroke="black" points="2715.68,-135.035 2726.23,-135.932 2718.54,-128.648 2715.68,-135.035"/>
<text text-anchor="middle" x="2684" y="-130.8" font-family="Times,serif" font-size="14.00">u0008</text>
</g>
<!-- 40 -->
<g id="node48" class="node"><title>40</title>
<ellipse fill="none" stroke="black" cx="2866" cy="-143" rx="18" ry="18"/>
</g>
<!-- 30&#45;&gt;40 -->
<g id="edge63" class="edge"><title>30&#45;&gt;40</title>
<path fill="none" stroke="black" d="M2761.08,-143C2780.96,-143 2814.08,-143 2837.58,-143"/>
<polygon fill="black" stroke="black" points="2837.62,-146.5 2847.62,-143 2837.62,-139.5 2837.62,-146.5"/>
<text text-anchor="middle" x="2802" y="-146.8" font-family="Times,serif" font-size="14.00">u0006</text>
</g>
<!-- 40&#45;&gt;20 -->
<g id="edge64" class="edge"><title>40&#45;&gt;20</title>
<path fill="none" stroke="black" d="M2881.8,-151.746C2900.74,-163.631 2933.43,-186.576 2953,-214 2966.23,-232.547 2961.89,-241.115 2971,-262 2973.73,-268.268 2976.91,-274.919 2979.98,-281.1"/>
<polygon fill="black" stroke="black" points="2977.01,-282.969 2984.65,-290.305 2983.25,-279.803 2977.01,-282.969"/>
<text text-anchor="middle" x="2930" y="-217.8" font-family="Times,serif" font-size="14.00">u0008</text>
</g>
<!-- 31 -->
<g id="node50" class="node"><title>31</title>
<ellipse fill="none" stroke="black" cx="2743" cy="-343" rx="18" ry="18"/>
</g>
<!-- 19&#45;&gt;31 -->
<g id="edge65" class="edge"><title>19&#45;&gt;31</title>
<path fill="none" stroke="black" d="M2643.12,-343C2661.96,-343 2692.53,-343 2714.7,-343"/>
<polygon fill="black" stroke="black" points="2714.81,-346.5 2724.81,-343 2714.81,-339.5 2714.81,-346.5"/>
<text text-anchor="middle" x="2684" y="-346.8" font-family="Times,serif" font-size="14.00">u0006</text>
</g>
<!-- 41 -->
<g id="node51" class="node"><title>41</title>
<ellipse fill="none" stroke="black" cx="2866" cy="-473" rx="18" ry="18"/>
</g>
<!-- 31&#45;&gt;41 -->
<g id="edge66" class="edge"><title>31&#45;&gt;41</title>
<path fill="none" stroke="black" d="M2761.14,-343.508C2779.56,-345.006 2808.41,-350.265 2825,-368 2848.71,-393.351 2828.19,-412.606 2843,-444 2844.24,-446.626 2845.74,-449.243 2847.37,-451.77"/>
<polygon fill="black" stroke="black" points="2844.54,-453.826 2853.22,-459.897 2850.22,-449.736 2844.54,-453.826"/>
<text text-anchor="middle" x="2802" y="-371.8" font-family="Times,serif" font-size="14.00">u0004</text>
</g>
<!-- 41&#45;&gt;38 -->
<g id="edge67" class="edge"><title>41&#45;&gt;38</title>
<path fill="none" stroke="black" d="M2882.95,-479.413C2900.28,-486.447 2928.76,-498.177 2953,-509 2957.96,-511.216 2963.23,-513.656 2968.27,-516.029"/>
<polygon fill="black" stroke="black" points="2966.97,-519.288 2977.5,-520.43 2969.98,-512.969 2966.97,-519.288"/>
<text text-anchor="middle" x="2930" y="-512.8" font-family="Times,serif" font-size="14.00">u0006</text>
</g>
<!-- 12&#45;&gt;13 -->
<g id="edge71" class="edge"><title>12&#45;&gt;13</title>
<path fill="none" stroke="black" d="M2388.97,-286.419C2434.33,-252.849 2582.73,-149.003 2725,-116 2796,-99.5294 2817.56,-101.547 2889,-116 3040.3,-146.608 3109.42,-133.055 3209,-251 3240.98,-288.882 3247.81,-348.24 3248.71,-384.764"/>
<polygon fill="black" stroke="black" points="3245.21,-384.909 3248.82,-394.87 3252.21,-384.833 3245.21,-384.909"/>
<text text-anchor="middle" x="2802" y="-109.8" font-family="Times,serif" font-size="14.00">u0000</text>
</g>
<!-- 12&#45;&gt;20 -->
<g id="edge68" class="edge"><title>12&#45;&gt;20</title>
<path fill="none" stroke="black" d="M2392.12,-297C2416.36,-297 2462.06,-297 2501,-297 2501,-297 2501,-297 2685,-297 2788.85,-297 2912.31,-302.175 2965.92,-304.677"/>
<polygon fill="black" stroke="black" points="2965.82,-308.176 2975.98,-305.153 2966.15,-301.184 2965.82,-308.176"/>
<text text-anchor="middle" x="2684" y="-300.8" font-family="Times,serif" font-size="14.00">u0004</text>
</g>
<!-- 21 -->
<g id="node53" class="node"><title>21</title>
<ellipse fill="none" stroke="black" cx="2502" cy="-375" rx="18" ry="18"/>
</g>
<!-- 12&#45;&gt;21 -->
<g id="edge69" class="edge"><title>12&#45;&gt;21</title>
<path fill="none" stroke="black" d="M2389.95,-306.254C2411.55,-319.624 2451.69,-344.477 2477.34,-360.353"/>
<polygon fill="black" stroke="black" points="2475.73,-363.47 2486.07,-365.758 2479.41,-357.519 2475.73,-363.47"/>
<text text-anchor="middle" x="2438" y="-353.8" font-family="Times,serif" font-size="14.00">u0008</text>
</g>
<!-- 22 -->
<g id="node56" class="node"><title>22</title>
<ellipse fill="none" stroke="black" cx="2625" cy="-251" rx="18" ry="18"/>
</g>
<!-- 12&#45;&gt;22 -->
<g id="edge70" class="edge"><title>12&#45;&gt;22</title>
<path fill="none" stroke="black" d="M2391.22,-290.882C2398.44,-288.272 2407.09,-285.305 2415,-283 2443.05,-274.829 2450.22,-273.042 2479,-268 2519.73,-260.863 2567.44,-255.918 2596.69,-253.27"/>
<polygon fill="black" stroke="black" points="2597.29,-256.731 2606.94,-252.368 2596.68,-249.758 2597.29,-256.731"/>
<text text-anchor="middle" x="2502" y="-271.8" font-family="Times,serif" font-size="14.00">u0006</text>
</g>
<!-- 32 -->
<g id="node54" class="node"><title>32</title>
<ellipse fill="none" stroke="black" cx="2625" cy="-397" rx="18" ry="18"/>
</g>
<!-- 21&#45;&gt;32 -->
<g id="edge72" class="edge"><title>21&#45;&gt;32</title>
<path fill="none" stroke="black" d="M2519.82,-378.059C2539.76,-381.683 2573.24,-387.771 2596.86,-392.065"/>
<polygon fill="black" stroke="black" points="2596.46,-395.551 2606.93,-393.896 2597.72,-388.664 2596.46,-395.551"/>
<text text-anchor="middle" x="2566" y="-394.8" font-family="Times,serif" font-size="14.00">u0004</text>
</g>
<!-- 42 -->
<g id="node55" class="node"><title>42</title>
<ellipse fill="none" stroke="black" cx="2743" cy="-397" rx="18" ry="18"/>
</g>
<!-- 32&#45;&gt;42 -->
<g id="edge73" class="edge"><title>32&#45;&gt;42</title>
<path fill="none" stroke="black" d="M2643.12,-397C2661.96,-397 2692.53,-397 2714.7,-397"/>
<polygon fill="black" stroke="black" points="2714.81,-400.5 2724.81,-397 2714.81,-393.5 2714.81,-400.5"/>
<text text-anchor="middle" x="2684" y="-400.8" font-family="Times,serif" font-size="14.00">u0008</text>
</g>
<!-- 42&#45;&gt;47 -->
<g id="edge74" class="edge"><title>42&#45;&gt;47</title>
<path fill="none" stroke="black" d="M2760.91,-393.348C2779.12,-390.487 2807.8,-389.261 2825,-405 2856.71,-434.008 2825.22,-460.878 2843,-500 2844.1,-502.413 2845.44,-504.803 2846.93,-507.11"/>
<polygon fill="black" stroke="black" points="2844.33,-509.485 2853.07,-515.471 2849.97,-505.34 2844.33,-509.485"/>
<text text-anchor="middle" x="2802" y="-408.8" font-family="Times,serif" font-size="14.00">u0008</text>
</g>
<!-- 33 -->
<g id="node57" class="node"><title>33</title>
<ellipse fill="none" stroke="black" cx="2743" cy="-251" rx="18" ry="18"/>
</g>
<!-- 22&#45;&gt;33 -->
<g id="edge75" class="edge"><title>22&#45;&gt;33</title>
<path fill="none" stroke="black" d="M2643.12,-251C2661.96,-251 2692.53,-251 2714.7,-251"/>
<polygon fill="black" stroke="black" points="2714.81,-254.5 2724.81,-251 2714.81,-247.5 2714.81,-254.5"/>
<text text-anchor="middle" x="2684" y="-254.8" font-family="Times,serif" font-size="14.00">u0004</text>
</g>
<!-- 34 -->
<g id="node58" class="node"><title>34</title>
<ellipse fill="none" stroke="black" cx="2743" cy="-197" rx="18" ry="18"/>
</g>
<!-- 22&#45;&gt;34 -->
<g id="edge76" class="edge"><title>22&#45;&gt;34</title>
<path fill="none" stroke="black" d="M2641.18,-242.376C2647.28,-239.013 2654.41,-235.205 2661,-232 2679.37,-223.068 2700.57,-213.946 2716.68,-207.255"/>
<polygon fill="black" stroke="black" points="2718.06,-210.47 2725.98,-203.426 2715.4,-203.998 2718.06,-210.47"/>
<text text-anchor="middle" x="2684" y="-235.8" font-family="Times,serif" font-size="14.00">u0008</text>
</g>
<!-- 33&#45;&gt;13 -->
<g id="edge78" class="edge"><title>33&#45;&gt;13</title>
<path fill="none" stroke="black" d="M2761.21,-249.145C2784.65,-246.781 2827.95,-243 2865,-243 2865,-243 2865,-243 3123,-243 3192.6,-243 3227.23,-335.952 3240.84,-385.98"/>
<polygon fill="black" stroke="black" points="3237.45,-386.866 3243.35,-395.664 3244.22,-385.105 3237.45,-386.866"/>
<text text-anchor="middle" x="2994" y="-246.8" font-family="Times,serif" font-size="14.00">u0000</text>
</g>
<!-- 33&#45;&gt;36 -->
<g id="edge77" class="edge"><title>33&#45;&gt;36</title>
<path fill="none" stroke="black" d="M2758.12,-260.812C2776.17,-274.056 2807.19,-299.321 2825,-328 2839.24,-350.928 2831.04,-361.804 2843,-386 2844.49,-389.017 2846.26,-392.063 2848.14,-395.005"/>
<polygon fill="black" stroke="black" points="2845.37,-397.153 2853.93,-403.394 2851.13,-393.176 2845.37,-397.153"/>
<text text-anchor="middle" x="2802" y="-331.8" font-family="Times,serif" font-size="14.00">u0008</text>
</g>
<!-- 43 -->
<g id="node59" class="node"><title>43</title>
<ellipse fill="none" stroke="black" cx="2866" cy="-197" rx="18" ry="18"/>
</g>
<!-- 34&#45;&gt;43 -->
<g id="edge79" class="edge"><title>34&#45;&gt;43</title>
<path fill="none" stroke="black" d="M2761.08,-197C2780.96,-197 2814.08,-197 2837.58,-197"/>
<polygon fill="black" stroke="black" points="2837.62,-200.5 2847.62,-197 2837.62,-193.5 2837.62,-200.5"/>
<text text-anchor="middle" x="2802" y="-200.8" font-family="Times,serif" font-size="14.00">u0004</text>
</g>
<!-- 43&#45;&gt;20 -->
<g id="edge80" class="edge"><title>43&#45;&gt;20</title>
<path fill="none" stroke="black" d="M2880.48,-208.665C2902.37,-227.596 2945.78,-265.153 2971.82,-287.677"/>
<polygon fill="black" stroke="black" points="2969.76,-290.523 2979.61,-294.419 2974.34,-285.229 2969.76,-290.523"/>
<text text-anchor="middle" x="2930" y="-274.8" font-family="Times,serif" font-size="14.00">u0006</text>
</g>
<!-- initial -->
<g id="node60" class="node"><title>initial</title>
</g>
<!-- initial&#45;&gt;0 -->
<g id="edge81" class="edge"><title>initial&#45;&gt;0</title>
<path fill="none" stroke="black" d="M54.195,-452C62.6538,-452 72.0513,-452 80.5951,-452"/>
<polygon fill="black" stroke="black" points="80.8257,-455.5 90.8257,-452 80.8257,-448.5 80.8257,-455.5"/>
</g>
</g>
</svg>
