<svg width="1463px" height="213px"
 viewBox="0.00 0.00 1097.00 160.00" xmlns="http://www.w3.org/2000/svg" xmlns:xlink="http://www.w3.org/1999/xlink">
<g id="graph0" class="graph" transform="scale(1.000022500562514 1.000022500562514) rotate(0) translate(4 156)">
<title>Automaton</title>
<polygon fill="white" stroke="none" points="-4,4 -4,-156 1093,-156 1093,4 -4,4"/>
<!-- 0 -->
<g id="node1" class="node"><title>0</title>
<ellipse fill="none" stroke="black" cx="109" cy="-81" rx="18" ry="18"/>
</g>
<!-- 1 -->
<g id="node2" class="node"><title>1</title>
<ellipse fill="none" stroke="black" cx="227" cy="-81" rx="18" ry="18"/>
</g>
<!-- 0&#45;&gt;1 -->
<g id="edge1" class="edge"><title>0&#45;&gt;1</title>
<path fill="none" stroke="black" d="M127.116,-81C145.964,-81 176.531,-81 198.696,-81"/>
<polygon fill="black" stroke="black" points="198.814,-84.5001 208.814,-81 198.814,-77.5001 198.814,-84.5001"/>
<text text-anchor="middle" x="168" y="-84.8" font-family="Times,serif" font-size="14.00">u0005</text>
</g>
<!-- 2 -->
<g id="node3" class="node"><title>2</title>
<ellipse fill="none" stroke="black" cx="345" cy="-81" rx="18" ry="18"/>
</g>
<!-- 1&#45;&gt;2 -->
<g id="edge2" class="edge"><title>1&#45;&gt;2</title>
<path fill="none" stroke="black" d="M245.116,-81C263.964,-81 294.531,-81 316.696,-81"/>
<polygon fill="black" stroke="black" points="316.814,-84.5001 326.814,-81 316.814,-77.5001 316.814,-84.5001"/>
<text text-anchor="middle" x="286" y="-84.8" font-family="Times,serif" font-size="14.00">u0002</text>
</g>
<!-- 3 -->
<g id="node4" class="node"><title>3</title>
<ellipse fill="none" stroke="black" cx="463" cy="-129" rx="18" ry="18"/>
</g>
<!-- 2&#45;&gt;3 -->
<g id="edge3" class="edge"><title>2&#45;&gt;3</title>
<path fill="none" stroke="black" d="M362.129,-87.6742C381.435,-95.6626 413.992,-109.135 436.666,-118.517"/>
<polygon fill="black" stroke="black" points="435.429,-121.793 446.008,-122.382 438.106,-115.325 435.429,-121.793"/>
<text text-anchor="middle" x="404" y="-116.8" font-family="Times,serif" font-size="14.00">u0002</text>
</g>
<!-- 4 -->
<g id="node8" class="node"><title>4</title>
<ellipse fill="none" stroke="black" cx="463" cy="-58" rx="18" ry="18"/>
</g>
<!-- 2&#45;&gt;4 -->
<g id="edge4" class="edge"><title>2&#45;&gt;4</title>
<path fill="none" stroke="black" d="M362.278,-75.9131C368.141,-74.197 374.831,-72.3712 381,-71 398.735,-67.0579 418.908,-63.8166 434.685,-61.5565"/>
<polygon fill="black" stroke="black" points="435.396,-64.9915 444.821,-60.152 434.436,-58.0577 435.396,-64.9915"/>
<text text-anchor="middle" x="404" y="-74.8" font-family="Times,serif" font-size="14.00">u0000</text>
</g>
<!-- 5 -->
<g id="node5" class="node"><title>5</title>
<ellipse fill="none" stroke="black" cx="640" cy="-134" rx="18" ry="18"/>
</g>
<!-- 3&#45;&gt;5 -->
<g id="edge5" class="edge"><title>3&#45;&gt;5</title>
<path fill="none" stroke="black" d="M481.098,-129.489C511.418,-130.355 574.844,-132.167 611.412,-133.212"/>
<polygon fill="black" stroke="black" points="611.736,-136.722 621.832,-133.509 611.936,-129.725 611.736,-136.722"/>
<text text-anchor="middle" x="522" y="-134.8" font-family="Times,serif" font-size="14.00">u0000</text>
</g>
<!-- 7 -->
<g id="node6" class="node"><title>7</title>
<ellipse fill="none" stroke="black" cx="945" cy="-89" rx="18" ry="18"/>
</g>
<!-- 5&#45;&gt;7 -->
<g id="edge6" class="edge"><title>5&#45;&gt;7</title>
<path fill="none" stroke="black" d="M658.124,-134.817C701.363,-136.356 817.985,-137.24 909,-108 912.888,-106.751 916.845,-105.067 920.632,-103.215"/>
<polygon fill="black" stroke="black" points="922.407,-106.234 929.56,-98.4184 919.095,-100.068 922.407,-106.234"/>
<text text-anchor="middle" x="758" y="-137.8" font-family="Times,serif" font-size="14.00">u0004</text>
</g>
<!-- 8 -->
<g id="node7" class="node"><title>8</title>
<ellipse fill="none" stroke="black" cx="1067" cy="-43" rx="18" ry="18"/>
<ellipse fill="none" stroke="black" cx="1067" cy="-43" rx="22" ry="22"/>
</g>
<!-- 7&#45;&gt;8 -->
<g id="edge7" class="edge"><title>7&#45;&gt;8</title>
<path fill="none" stroke="black" d="M962.184,-82.7962C981.216,-75.5005 1013.18,-63.247 1036.62,-54.2605"/>
<polygon fill="black" stroke="black" points="1038,-57.4806 1046.09,-50.6331 1035.5,-50.9444 1038,-57.4806"/>
<text text-anchor="middle" x="1004" y="-79.8" font-family="Times,serif" font-size="14.00">u0003</text>
</g>
<!-- 6 -->
<g id="node9" class="node"><title>6</title>
<ellipse fill="none" stroke="black" cx="581" cy="-47" rx="18" ry="18"/>
</g>
<!-- 4&#45;&gt;6 -->
<g id="edge8" class="edge"><title>4&#45;&gt;6</title>
<path fill="none" stroke="black" d="M481.116,-56.3769C499.964,-54.5896 530.531,-51.6911 552.696,-49.5892"/>
<polygon fill="black" stroke="black" points="553.189,-53.0582 562.814,-48.6297 552.528,-46.0895 553.189,-53.0582"/>
<text text-anchor="middle" x="522" y="-58.8" font-family="Times,serif" font-size="14.00">u0004</text>
</g>
<!-- 6&#45;&gt;8 -->
<g id="edge9" class="edge"><title>6&#45;&gt;8</title>
<path fill="none" stroke="black" d="M596.259,-37.0325C617.428,-23.2361 658.888,-0 698,-0 698,-0 698,-0 946,-0 979.261,-0 1014.83,-14.8206 1038.53,-27.06"/>
<polygon fill="black" stroke="black" points="1037.15,-30.2893 1047.61,-31.9264 1040.45,-24.1189 1037.15,-30.2893"/>
<text text-anchor="middle" x="822" y="-3.8" font-family="Times,serif" font-size="14.00">u0003</text>
</g>
<!-- 9 -->
<g id="node10" class="node"><title>9</title>
<ellipse fill="none" stroke="black" cx="699" cy="-47" rx="18" ry="18"/>
</g>
<!-- 6&#45;&gt;9 -->
<g id="edge10" class="edge"><title>6&#45;&gt;9</title>
<path fill="none" stroke="black" d="M599.116,-47C617.964,-47 648.531,-47 670.696,-47"/>
<polygon fill="black" stroke="black" points="670.814,-50.5001 680.814,-47 670.814,-43.5001 670.814,-50.5001"/>
<text text-anchor="middle" x="640" y="-50.8" font-family="Times,serif" font-size="14.00">u0001</text>
</g>
<!-- 9&#45;&gt;8 -->
<g id="edge11" class="edge"><title>9&#45;&gt;8</title>
<path fill="none" stroke="black" d="M717.162,-46.8124C774.545,-46.1853 960.298,-44.1552 1034.73,-43.3417"/>
<polygon fill="black" stroke="black" points="1034.92,-46.84 1044.88,-43.2309 1034.84,-39.8404 1034.92,-46.84"/>
<text text-anchor="middle" x="886" y="-49.8" font-family="Times,serif" font-size="14.00">u0003</text>
</g>
<!-- 10 -->
<g id="node11" class="node"><title>10</title>
<ellipse fill="none" stroke="black" cx="822" cy="-89" rx="18" ry="18"/>
</g>
<!-- 9&#45;&gt;10 -->
<g id="edge12" class="edge"><title>9&#45;&gt;10</title>
<path fill="none" stroke="black" d="M716.319,-52.6643C736.526,-59.6783 771.191,-71.7109 795.059,-79.9957"/>
<polygon fill="black" stroke="black" points="793.959,-83.3186 804.554,-83.2913 796.254,-76.7056 793.959,-83.3186"/>
<text text-anchor="middle" x="758" y="-78.8" font-family="Times,serif" font-size="14.00">u0001</text>
</g>
<!-- 10&#45;&gt;7 -->
<g id="edge13" class="edge"><title>10&#45;&gt;7</title>
<path fill="none" stroke="black" d="M840.08,-89C859.965,-89 893.077,-89 916.577,-89"/>
<polygon fill="black" stroke="black" points="916.615,-92.5001 926.615,-89 916.615,-85.5001 916.615,-92.5001"/>
<text text-anchor="middle" x="886" y="-92.8" font-family="Times,serif" font-size="14.00">u0001</text>
</g>
<!-- initial -->
<g id="node12" class="node"><title>initial</title>
</g>
<!-- initial&#45;&gt;0 -->
<g id="edge14" class="edge"><title>initial&#45;&gt;0</title>
<path fill="none" stroke="black" d="M54.195,-81C62.6538,-81 72.0513,-81 80.5951,-81"/>
<polygon fill="black" stroke="black" points="80.8257,-84.5001 90.8257,-81 80.8257,-77.5001 80.8257,-84.5001"/>
</g>
</g>
</svg>
