<svg width="3252px" height="259px"
 viewBox="0.00 0.00 2439.00 194.00" xmlns="http://www.w3.org/2000/svg" xmlns:xlink="http://www.w3.org/1999/xlink">
<g id="graph0" class="graph" transform="scale(1.000022500562514 1.000022500562514) rotate(0) translate(4 190)">
<title>Automaton</title>
<polygon fill="white" stroke="none" points="-4,4 -4,-190 2435,-190 2435,4 -4,4"/>
<!-- 0 -->
<g id="node1" class="node"><title>0</title>
<ellipse fill="none" stroke="black" cx="109" cy="-72" rx="18" ry="18"/>
</g>
<!-- 1 -->
<g id="node2" class="node"><title>1</title>
<ellipse fill="none" stroke="black" cx="227" cy="-72" rx="18" ry="18"/>
</g>
<!-- 0&#45;&gt;1 -->
<g id="edge1" class="edge"><title>0&#45;&gt;1</title>
<path fill="none" stroke="black" d="M127.116,-72C145.964,-72 176.531,-72 198.696,-72"/>
<polygon fill="black" stroke="black" points="198.814,-75.5001 208.814,-72 198.814,-68.5001 198.814,-75.5001"/>
<text text-anchor="middle" x="168" y="-75.8" font-family="Times,serif" font-size="14.00">u0001</text>
</g>
<!-- 2 -->
<g id="node3" class="node"><title>2</title>
<ellipse fill="none" stroke="black" cx="345" cy="-72" rx="18" ry="18"/>
</g>
<!-- 1&#45;&gt;2 -->
<g id="edge2" class="edge"><title>1&#45;&gt;2</title>
<path fill="none" stroke="black" d="M245.116,-72C263.964,-72 294.531,-72 316.696,-72"/>
<polygon fill="black" stroke="black" points="316.814,-75.5001 326.814,-72 316.814,-68.5001 316.814,-75.5001"/>
<text text-anchor="middle" x="286" y="-75.8" font-family="Times,serif" font-size="14.00">u0003</text>
</g>
<!-- 3 -->
<g id="node4" class="node"><title>3</title>
<ellipse fill="none" stroke="black" cx="462" cy="-72" rx="18" ry="18"/>
</g>
<!-- 2&#45;&gt;3 -->
<g id="edge3" class="edge"><title>2&#45;&gt;3</title>
<path fill="none" stroke="black" d="M363.466,-72C382.064,-72 411.756,-72 433.499,-72"/>
<polygon fill="black" stroke="black" points="433.746,-75.5001 443.746,-72 433.746,-68.5001 433.746,-75.5001"/>
<text text-anchor="middle" x="403.5" y="-75.8" font-family="Times,serif" font-size="14.00">u000e</text>
</g>
<!-- 4 -->
<g id="node5" class="node"><title>4</title>
<ellipse fill="none" stroke="black" cx="576" cy="-72" rx="18" ry="18"/>
</g>
<!-- 3&#45;&gt;4 -->
<g id="edge4" class="edge"><title>3&#45;&gt;4</title>
<path fill="none" stroke="black" d="M480.01,-72C497.937,-72 526.445,-72 547.558,-72"/>
<polygon fill="black" stroke="black" points="547.83,-75.5001 557.83,-72 547.829,-68.5001 547.83,-75.5001"/>
<text text-anchor="middle" x="519" y="-75.8" font-family="Times,serif" font-size="14.00">u000f</text>
</g>
<!-- 5 -->
<g id="node6" class="node"><title>5</title>
<ellipse fill="none" stroke="black" cx="694" cy="-72" rx="18" ry="18"/>
</g>
<!-- 4&#45;&gt;5 -->
<g id="edge5" class="edge"><title>4&#45;&gt;5</title>
<path fill="none" stroke="black" d="M594.116,-72C612.964,-72 643.531,-72 665.696,-72"/>
<polygon fill="black" stroke="black" points="665.814,-75.5001 675.814,-72 665.814,-68.5001 665.814,-75.5001"/>
<text text-anchor="middle" x="635" y="-75.8" font-family="Times,serif" font-size="14.00">u0002</text>
</g>
<!-- 6 -->
<g id="node7" class="node"><title>6</title>
<ellipse fill="none" stroke="black" cx="870.5" cy="-114" rx="18" ry="18"/>
</g>
<!-- 5&#45;&gt;6 -->
<g id="edge6" class="edge"><title>5&#45;&gt;6</title>
<path fill="none" stroke="black" d="M709.892,-80.9318C715.95,-84.2223 723.131,-87.7031 730,-90 767.819,-102.646 813.743,-108.903 842.301,-111.79"/>
<polygon fill="black" stroke="black" points="842.059,-115.282 852.343,-112.737 842.717,-108.313 842.059,-115.282"/>
<text text-anchor="middle" x="753" y="-104.8" font-family="Times,serif" font-size="14.00">u000c</text>
</g>
<!-- 7 -->
<g id="node18" class="node"><title>7</title>
<ellipse fill="none" stroke="black" cx="870.5" cy="-72" rx="18" ry="18"/>
</g>
<!-- 5&#45;&gt;7 -->
<g id="edge7" class="edge"><title>5&#45;&gt;7</title>
<path fill="none" stroke="black" d="M712.05,-72C742.282,-72 805.527,-72 841.991,-72"/>
<polygon fill="black" stroke="black" points="842.381,-75.5001 852.381,-72 842.381,-68.5001 842.381,-75.5001"/>
<text text-anchor="middle" x="753" y="-75.8" font-family="Times,serif" font-size="14.00">u0006</text>
</g>
<!-- 8 -->
<g id="node24" class="node"><title>8</title>
<ellipse fill="none" stroke="black" cx="812" cy="-24" rx="18" ry="18"/>
</g>
<!-- 5&#45;&gt;8 -->
<g id="edge8" class="edge"><title>5&#45;&gt;8</title>
<path fill="none" stroke="black" d="M704.948,-57.3751C711.18,-49.4169 719.93,-40.1669 730,-35 746.572,-26.4968 767.443,-23.8213 783.848,-23.2329"/>
<polygon fill="black" stroke="black" points="783.939,-26.7321 793.894,-23.1074 783.851,-19.7327 783.939,-26.7321"/>
<text text-anchor="middle" x="753" y="-38.8" font-family="Times,serif" font-size="14.00">u0000</text>
</g>
<!-- 9 -->
<g id="node8" class="node"><title>9</title>
<ellipse fill="none" stroke="black" cx="1687" cy="-115" rx="18" ry="18"/>
</g>
<!-- 6&#45;&gt;9 -->
<g id="edge9" class="edge"><title>6&#45;&gt;9</title>
<path fill="none" stroke="black" d="M888.551,-114.222C912.692,-114.517 958.216,-115 997,-115 997,-115 997,-115 1570,-115 1600.25,-115 1634.94,-115 1658.44,-115"/>
<polygon fill="black" stroke="black" points="1658.71,-118.5 1668.71,-115 1658.71,-111.5 1658.71,-118.5"/>
<text text-anchor="middle" x="1254" y="-118.8" font-family="Times,serif" font-size="14.00">u000d</text>
</g>
<!-- 12 -->
<g id="node9" class="node"><title>12</title>
<ellipse fill="none" stroke="black" cx="1805" cy="-168" rx="18" ry="18"/>
</g>
<!-- 9&#45;&gt;12 -->
<g id="edge10" class="edge"><title>9&#45;&gt;12</title>
<path fill="none" stroke="black" d="M1703.22,-123.11C1709.33,-126.288 1716.45,-129.906 1723,-133 1741.47,-141.726 1762.67,-150.857 1778.75,-157.603"/>
<polygon fill="black" stroke="black" points="1777.45,-160.854 1788.03,-161.471 1780.14,-154.393 1777.45,-160.854"/>
<text text-anchor="middle" x="1746" y="-156.8" font-family="Times,serif" font-size="14.00">u000c</text>
</g>
<!-- 13 -->
<g id="node14" class="node"><title>13</title>
<ellipse fill="none" stroke="black" cx="1805" cy="-114" rx="18" ry="18"/>
</g>
<!-- 9&#45;&gt;13 -->
<g id="edge11" class="edge"><title>9&#45;&gt;13</title>
<path fill="none" stroke="black" d="M1705.12,-114.852C1723.96,-114.69 1754.53,-114.426 1776.7,-114.235"/>
<polygon fill="black" stroke="black" points="1776.84,-117.734 1786.81,-114.148 1776.78,-110.735 1776.84,-117.734"/>
<text text-anchor="middle" x="1746" y="-117.8" font-family="Times,serif" font-size="14.00">u0006</text>
</g>
<!-- 16 -->
<g id="node10" class="node"><title>16</title>
<ellipse fill="none" stroke="black" cx="1923" cy="-168" rx="18" ry="18"/>
</g>
<!-- 12&#45;&gt;16 -->
<g id="edge12" class="edge"><title>12&#45;&gt;16</title>
<path fill="none" stroke="black" d="M1823.12,-168C1841.96,-168 1872.53,-168 1894.7,-168"/>
<polygon fill="black" stroke="black" points="1894.81,-171.5 1904.81,-168 1894.81,-164.5 1894.81,-171.5"/>
<text text-anchor="middle" x="1864" y="-171.8" font-family="Times,serif" font-size="14.00">u0006</text>
</g>
<!-- 20 -->
<g id="node11" class="node"><title>20</title>
<ellipse fill="none" stroke="black" cx="2100" cy="-168" rx="18" ry="18"/>
</g>
<!-- 16&#45;&gt;20 -->
<g id="edge13" class="edge"><title>16&#45;&gt;20</title>
<path fill="none" stroke="black" d="M1941.1,-168C1971.42,-168 2034.84,-168 2071.41,-168"/>
<polygon fill="black" stroke="black" points="2071.83,-171.5 2081.83,-168 2071.83,-164.5 2071.83,-171.5"/>
<text text-anchor="middle" x="1982" y="-171.8" font-family="Times,serif" font-size="14.00">u0004</text>
</g>
<!-- 24 -->
<g id="node12" class="node"><title>24</title>
<ellipse fill="none" stroke="black" cx="2287" cy="-88" rx="18" ry="18"/>
</g>
<!-- 20&#45;&gt;24 -->
<g id="edge14" class="edge"><title>20&#45;&gt;24</title>
<path fill="none" stroke="black" d="M2118.3,-165.637C2147.43,-161.065 2207.35,-149.071 2251,-123 2257.15,-119.329 2263,-114.34 2268.1,-109.281"/>
<polygon fill="black" stroke="black" points="2270.68,-111.646 2274.98,-101.962 2265.58,-106.852 2270.68,-111.646"/>
<text text-anchor="middle" x="2164" y="-164.8" font-family="Times,serif" font-size="14.00">u0005</text>
</g>
<!-- 28 -->
<g id="node13" class="node"><title>28</title>
<ellipse fill="none" stroke="black" cx="2409" cy="-88" rx="18" ry="18"/>
<ellipse fill="none" stroke="black" cx="2409" cy="-88" rx="22" ry="22"/>
</g>
<!-- 24&#45;&gt;28 -->
<g id="edge15" class="edge"><title>24&#45;&gt;28</title>
<path fill="none" stroke="black" d="M2305.19,-88C2323.77,-88 2353.76,-88 2376.57,-88"/>
<polygon fill="black" stroke="black" points="2376.79,-91.5001 2386.79,-88 2376.79,-84.5001 2376.79,-91.5001"/>
<text text-anchor="middle" x="2346" y="-91.8" font-family="Times,serif" font-size="14.00">u0007</text>
</g>
<!-- 17 -->
<g id="node15" class="node"><title>17</title>
<ellipse fill="none" stroke="black" cx="1923" cy="-114" rx="18" ry="18"/>
</g>
<!-- 13&#45;&gt;17 -->
<g id="edge16" class="edge"><title>13&#45;&gt;17</title>
<path fill="none" stroke="black" d="M1823.12,-114C1841.96,-114 1872.53,-114 1894.7,-114"/>
<polygon fill="black" stroke="black" points="1894.81,-117.5 1904.81,-114 1894.81,-110.5 1894.81,-117.5"/>
<text text-anchor="middle" x="1864" y="-117.8" font-family="Times,serif" font-size="14.00">u0004</text>
</g>
<!-- 21 -->
<g id="node16" class="node"><title>21</title>
<ellipse fill="none" stroke="black" cx="2041" cy="-114" rx="18" ry="18"/>
</g>
<!-- 17&#45;&gt;21 -->
<g id="edge17" class="edge"><title>17&#45;&gt;21</title>
<path fill="none" stroke="black" d="M1941.12,-114C1959.96,-114 1990.53,-114 2012.7,-114"/>
<polygon fill="black" stroke="black" points="2012.81,-117.5 2022.81,-114 2012.81,-110.5 2012.81,-117.5"/>
<text text-anchor="middle" x="1982" y="-117.8" font-family="Times,serif" font-size="14.00">u0005</text>
</g>
<!-- 25 -->
<g id="node17" class="node"><title>25</title>
<ellipse fill="none" stroke="black" cx="2164" cy="-114" rx="18" ry="18"/>
</g>
<!-- 21&#45;&gt;25 -->
<g id="edge18" class="edge"><title>21&#45;&gt;25</title>
<path fill="none" stroke="black" d="M2059.08,-114C2078.96,-114 2112.08,-114 2135.58,-114"/>
<polygon fill="black" stroke="black" points="2135.62,-117.5 2145.62,-114 2135.62,-110.5 2135.62,-117.5"/>
<text text-anchor="middle" x="2100" y="-117.8" font-family="Times,serif" font-size="14.00">u0008</text>
</g>
<!-- 25&#45;&gt;24 -->
<g id="edge19" class="edge"><title>25&#45;&gt;24</title>
<path fill="none" stroke="black" d="M2181.82,-110.385C2201.87,-106.077 2235.62,-98.8258 2259.26,-93.7468"/>
<polygon fill="black" stroke="black" points="2260.28,-97.1073 2269.32,-91.5845 2258.81,-90.2635 2260.28,-97.1073"/>
<text text-anchor="middle" x="2228" y="-107.8" font-family="Times,serif" font-size="14.00">u0010</text>
</g>
<!-- 10 -->
<g id="node19" class="node"><title>10</title>
<ellipse fill="none" stroke="black" cx="998" cy="-72" rx="18" ry="18"/>
</g>
<!-- 7&#45;&gt;10 -->
<g id="edge20" class="edge"><title>7&#45;&gt;10</title>
<path fill="none" stroke="black" d="M888.687,-72C909.505,-72 944.84,-72 969.469,-72"/>
<polygon fill="black" stroke="black" points="969.618,-75.5001 979.618,-72 969.618,-68.5001 969.618,-75.5001"/>
<text text-anchor="middle" x="934" y="-75.8" font-family="Times,serif" font-size="14.00">u0004</text>
</g>
<!-- 14 -->
<g id="node20" class="node"><title>14</title>
<ellipse fill="none" stroke="black" cx="1126" cy="-72" rx="18" ry="18"/>
</g>
<!-- 10&#45;&gt;14 -->
<g id="edge21" class="edge"><title>10&#45;&gt;14</title>
<path fill="none" stroke="black" d="M1016.26,-72C1037.27,-72 1073.03,-72 1097.77,-72"/>
<polygon fill="black" stroke="black" points="1097.95,-75.5001 1107.95,-72 1097.95,-68.5001 1097.95,-75.5001"/>
<text text-anchor="middle" x="1062" y="-75.8" font-family="Times,serif" font-size="14.00">u0005</text>
</g>
<!-- 18 -->
<g id="node21" class="node"><title>18</title>
<ellipse fill="none" stroke="black" cx="1254" cy="-72" rx="18" ry="18"/>
</g>
<!-- 14&#45;&gt;18 -->
<g id="edge22" class="edge"><title>14&#45;&gt;18</title>
<path fill="none" stroke="black" d="M1144.26,-72C1165.27,-72 1201.03,-72 1225.77,-72"/>
<polygon fill="black" stroke="black" points="1225.95,-75.5001 1235.95,-72 1225.95,-68.5001 1225.95,-75.5001"/>
<text text-anchor="middle" x="1190" y="-75.8" font-family="Times,serif" font-size="14.00">u0010</text>
</g>
<!-- 22 -->
<g id="node22" class="node"><title>22</title>
<ellipse fill="none" stroke="black" cx="1382" cy="-72" rx="18" ry="18"/>
</g>
<!-- 18&#45;&gt;22 -->
<g id="edge23" class="edge"><title>18&#45;&gt;22</title>
<path fill="none" stroke="black" d="M1272.26,-72C1293.27,-72 1329.03,-72 1353.77,-72"/>
<polygon fill="black" stroke="black" points="1353.95,-75.5001 1363.95,-72 1353.95,-68.5001 1353.95,-75.5001"/>
<text text-anchor="middle" x="1318" y="-75.8" font-family="Times,serif" font-size="14.00">u000b</text>
</g>
<!-- 26 -->
<g id="node23" class="node"><title>26</title>
<ellipse fill="none" stroke="black" cx="1510" cy="-69" rx="18" ry="18"/>
</g>
<!-- 22&#45;&gt;26 -->
<g id="edge24" class="edge"><title>22&#45;&gt;26</title>
<path fill="none" stroke="black" d="M1400.26,-71.5892C1421.27,-71.0887 1457.03,-70.2374 1481.77,-69.6482"/>
<polygon fill="black" stroke="black" points="1482.04,-73.143 1491.95,-69.4059 1481.87,-66.145 1482.04,-73.143"/>
<text text-anchor="middle" x="1446" y="-75.8" font-family="Times,serif" font-size="14.00">u0009</text>
</g>
<!-- 26&#45;&gt;24 -->
<g id="edge25" class="edge"><title>26&#45;&gt;24</title>
<path fill="none" stroke="black" d="M1528.29,-68.7579C1550.96,-68.462 1591.96,-68 1627,-68 1627,-68 1627,-68 2165,-68 2197.83,-68 2235,-75.2548 2259.38,-81.0256"/>
<polygon fill="black" stroke="black" points="2258.76,-84.4773 2269.31,-83.4617 2260.43,-77.6791 2258.76,-84.4773"/>
<text text-anchor="middle" x="1864" y="-71.8" font-family="Times,serif" font-size="14.00">u000a</text>
</g>
<!-- 11 -->
<g id="node25" class="node"><title>11</title>
<ellipse fill="none" stroke="black" cx="934" cy="-18" rx="18" ry="18"/>
</g>
<!-- 8&#45;&gt;11 -->
<g id="edge26" class="edge"><title>8&#45;&gt;11</title>
<path fill="none" stroke="black" d="M830.193,-23.1403C849.886,-22.1557 882.417,-20.5291 905.61,-19.3695"/>
<polygon fill="black" stroke="black" points="906.026,-22.8532 915.839,-18.8581 905.676,-15.8619 906.026,-22.8532"/>
<text text-anchor="middle" x="870.5" y="-26.8" font-family="Times,serif" font-size="14.00">u000c</text>
</g>
<!-- 15 -->
<g id="node26" class="node"><title>15</title>
<ellipse fill="none" stroke="black" cx="1062" cy="-18" rx="18" ry="18"/>
</g>
<!-- 11&#45;&gt;15 -->
<g id="edge27" class="edge"><title>11&#45;&gt;15</title>
<path fill="none" stroke="black" d="M952.256,-18C973.274,-18 1009.03,-18 1033.77,-18"/>
<polygon fill="black" stroke="black" points="1033.95,-21.5001 1043.95,-18 1033.95,-14.5001 1033.95,-21.5001"/>
<text text-anchor="middle" x="998" y="-21.8" font-family="Times,serif" font-size="14.00">u0000</text>
</g>
<!-- 19 -->
<g id="node27" class="node"><title>19</title>
<ellipse fill="none" stroke="black" cx="1190" cy="-18" rx="18" ry="18"/>
</g>
<!-- 15&#45;&gt;19 -->
<g id="edge28" class="edge"><title>15&#45;&gt;19</title>
<path fill="none" stroke="black" d="M1080.26,-18C1101.27,-18 1137.03,-18 1161.77,-18"/>
<polygon fill="black" stroke="black" points="1161.95,-21.5001 1171.95,-18 1161.95,-14.5001 1161.95,-21.5001"/>
<text text-anchor="middle" x="1126" y="-21.8" font-family="Times,serif" font-size="14.00">u000d</text>
</g>
<!-- 23 -->
<g id="node28" class="node"><title>23</title>
<ellipse fill="none" stroke="black" cx="1318" cy="-18" rx="18" ry="18"/>
</g>
<!-- 19&#45;&gt;23 -->
<g id="edge29" class="edge"><title>19&#45;&gt;23</title>
<path fill="none" stroke="black" d="M1208.26,-18C1229.27,-18 1265.03,-18 1289.77,-18"/>
<polygon fill="black" stroke="black" points="1289.95,-21.5001 1299.95,-18 1289.95,-14.5001 1289.95,-21.5001"/>
<text text-anchor="middle" x="1254" y="-21.8" font-family="Times,serif" font-size="14.00">u000d</text>
</g>
<!-- 27 -->
<g id="node29" class="node"><title>27</title>
<ellipse fill="none" stroke="black" cx="1446" cy="-18" rx="18" ry="18"/>
</g>
<!-- 23&#45;&gt;27 -->
<g id="edge30" class="edge"><title>23&#45;&gt;27</title>
<path fill="none" stroke="black" d="M1336.26,-18C1357.27,-18 1393.03,-18 1417.77,-18"/>
<polygon fill="black" stroke="black" points="1417.95,-21.5001 1427.95,-18 1417.95,-14.5001 1417.95,-21.5001"/>
<text text-anchor="middle" x="1382" y="-21.8" font-family="Times,serif" font-size="14.00">u000d</text>
</g>
<!-- 29 -->
<g id="node30" class="node"><title>29</title>
<ellipse fill="none" stroke="black" cx="1569" cy="-21" rx="18" ry="18"/>
</g>
<!-- 27&#45;&gt;29 -->
<g id="edge31" class="edge"><title>27&#45;&gt;29</title>
<path fill="none" stroke="black" d="M1464.08,-18.4235C1483.96,-18.9165 1517.08,-19.7375 1540.58,-20.3201"/>
<polygon fill="black" stroke="black" points="1540.53,-23.8199 1550.62,-20.569 1540.71,-16.8221 1540.53,-23.8199"/>
<text text-anchor="middle" x="1510" y="-24.8" font-family="Times,serif" font-size="14.00">u000d</text>
</g>
<!-- 30 -->
<g id="node31" class="node"><title>30</title>
<ellipse fill="none" stroke="black" cx="1687" cy="-22" rx="18" ry="18"/>
</g>
<!-- 29&#45;&gt;30 -->
<g id="edge32" class="edge"><title>29&#45;&gt;30</title>
<path fill="none" stroke="black" d="M1587.12,-21.1476C1605.96,-21.31 1636.53,-21.5735 1658.7,-21.7646"/>
<polygon fill="black" stroke="black" points="1658.78,-25.2654 1668.81,-21.8518 1658.84,-18.2657 1658.78,-25.2654"/>
<text text-anchor="middle" x="1628" y="-25.8" font-family="Times,serif" font-size="14.00">u000d</text>
</g>
<!-- 31 -->
<g id="node32" class="node"><title>31</title>
<ellipse fill="none" stroke="black" cx="1805" cy="-22" rx="18" ry="18"/>
</g>
<!-- 30&#45;&gt;31 -->
<g id="edge33" class="edge"><title>30&#45;&gt;31</title>
<path fill="none" stroke="black" d="M1705.12,-22C1723.96,-22 1754.53,-22 1776.7,-22"/>
<polygon fill="black" stroke="black" points="1776.81,-25.5001 1786.81,-22 1776.81,-18.5001 1776.81,-25.5001"/>
<text text-anchor="middle" x="1746" y="-25.8" font-family="Times,serif" font-size="14.00">u000c</text>
</g>
<!-- 32 -->
<g id="node33" class="node"><title>32</title>
<ellipse fill="none" stroke="black" cx="1923" cy="-22" rx="18" ry="18"/>
</g>
<!-- 31&#45;&gt;32 -->
<g id="edge34" class="edge"><title>31&#45;&gt;32</title>
<path fill="none" stroke="black" d="M1823.12,-22C1841.96,-22 1872.53,-22 1894.7,-22"/>
<polygon fill="black" stroke="black" points="1894.81,-25.5001 1904.81,-22 1894.81,-18.5001 1894.81,-25.5001"/>
<text text-anchor="middle" x="1864" y="-25.8" font-family="Times,serif" font-size="14.00">u0006</text>
</g>
<!-- 33 -->
<g id="node34" class="node"><title>33</title>
<ellipse fill="none" stroke="black" cx="2041" cy="-22" rx="18" ry="18"/>
</g>
<!-- 32&#45;&gt;33 -->
<g id="edge35" class="edge"><title>32&#45;&gt;33</title>
<path fill="none" stroke="black" d="M1941.12,-22C1959.96,-22 1990.53,-22 2012.7,-22"/>
<polygon fill="black" stroke="black" points="2012.81,-25.5001 2022.81,-22 2012.81,-18.5001 2012.81,-25.5001"/>
<text text-anchor="middle" x="1982" y="-25.8" font-family="Times,serif" font-size="14.00">u0004</text>
</g>
<!-- 34 -->
<g id="node35" class="node"><title>34</title>
<ellipse fill="none" stroke="black" cx="2164" cy="-22" rx="18" ry="18"/>
</g>
<!-- 33&#45;&gt;34 -->
<g id="edge36" class="edge"><title>33&#45;&gt;34</title>
<path fill="none" stroke="black" d="M2059.08,-22C2078.96,-22 2112.08,-22 2135.58,-22"/>
<polygon fill="black" stroke="black" points="2135.62,-25.5001 2145.62,-22 2135.62,-18.5001 2135.62,-25.5001"/>
<text text-anchor="middle" x="2100" y="-25.8" font-family="Times,serif" font-size="14.00">u0005</text>
</g>
<!-- 34&#45;&gt;24 -->
<g id="edge37" class="edge"><title>34&#45;&gt;24</title>
<path fill="none" stroke="black" d="M2182.21,-21.7668C2200.63,-22.2992 2230.02,-25.4709 2251,-39 2260.22,-44.9498 2267.77,-54.2621 2273.46,-63.1777"/>
<polygon fill="black" stroke="black" points="2270.45,-64.9651 2278.53,-71.8218 2276.49,-61.4248 2270.45,-64.9651"/>
<text text-anchor="middle" x="2228" y="-42.8" font-family="Times,serif" font-size="14.00">u0008</text>
</g>
<!-- initial -->
<g id="node36" class="node"><title>initial</title>
</g>
<!-- initial&#45;&gt;0 -->
<g id="edge38" class="edge"><title>initial&#45;&gt;0</title>
<path fill="none" stroke="black" d="M54.195,-72C62.6538,-72 72.0513,-72 80.5951,-72"/>
<polygon fill="black" stroke="black" points="80.8257,-75.5001 90.8257,-72 80.8257,-68.5001 80.8257,-75.5001"/>
</g>
</g>
</svg>
