<svg width="1449px" height="172px"
 viewBox="0.00 0.00 1087.00 129.00" xmlns="http://www.w3.org/2000/svg" xmlns:xlink="http://www.w3.org/1999/xlink">
<g id="graph0" class="graph" transform="scale(1.000022500562514 1.000022500562514) rotate(0) translate(4 125)">
<title>Automaton</title>
<polygon fill="white" stroke="none" points="-4,4 -4,-125 1083,-125 1083,4 -4,4"/>
<!-- 0 -->
<g id="node1" class="node"><title>0</title>
<ellipse fill="none" stroke="black" cx="109" cy="-91" rx="18" ry="18"/>
</g>
<!-- 1 -->
<g id="node2" class="node"><title>1</title>
<ellipse fill="none" stroke="black" cx="227" cy="-91" rx="18" ry="18"/>
</g>
<!-- 0&#45;&gt;1 -->
<g id="edge1" class="edge"><title>0&#45;&gt;1</title>
<path fill="none" stroke="black" d="M127.116,-91C145.964,-91 176.531,-91 198.696,-91"/>
<polygon fill="black" stroke="black" points="198.814,-94.5001 208.814,-91 198.814,-87.5001 198.814,-94.5001"/>
<text text-anchor="middle" x="168" y="-94.8" font-family="Times,serif" font-size="14.00">u0000</text>
</g>
<!-- 2 -->
<g id="node3" class="node"><title>2</title>
<ellipse fill="none" stroke="black" cx="1057" cy="-87" rx="18" ry="18"/>
<ellipse fill="none" stroke="black" cx="1057" cy="-87" rx="22" ry="22"/>
</g>
<!-- 1&#45;&gt;2 -->
<g id="edge2" class="edge"><title>1&#45;&gt;2</title>
<path fill="none" stroke="black" d="M244.817,-94.5548C267.305,-98.9905 308.464,-106 344,-106 344,-106 344,-106 936,-106 966.684,-106 1001.25,-99.8647 1025.37,-94.5669"/>
<polygon fill="black" stroke="black" points="1026.37,-97.9276 1035.35,-92.2926 1024.82,-91.1026 1026.37,-97.9276"/>
<text text-anchor="middle" x="640" y="-109.8" font-family="Times,serif" font-size="14.00">u0002</text>
</g>
<!-- 3 -->
<g id="node4" class="node"><title>3</title>
<ellipse fill="none" stroke="black" cx="345" cy="-60" rx="18" ry="18"/>
</g>
<!-- 1&#45;&gt;3 -->
<g id="edge3" class="edge"><title>1&#45;&gt;3</title>
<path fill="none" stroke="black" d="M243.822,-83.9944C249.756,-81.5475 256.61,-78.9324 263,-77 280.656,-71.6601 300.973,-67.4008 316.843,-64.4812"/>
<polygon fill="black" stroke="black" points="317.795,-67.8671 327.031,-62.6771 316.574,-60.9744 317.795,-67.8671"/>
<text text-anchor="middle" x="286" y="-80.8" font-family="Times,serif" font-size="14.00">u0001</text>
</g>
<!-- 4 -->
<g id="node5" class="node"><title>4</title>
<ellipse fill="none" stroke="black" cx="935" cy="-60" rx="18" ry="18"/>
</g>
<!-- 3&#45;&gt;4 -->
<g id="edge4" class="edge"><title>3&#45;&gt;4</title>
<path fill="none" stroke="black" d="M363.288,-60.9683C385.949,-62.1521 426.938,-64 462,-64 462,-64 462,-64 818,-64 848.269,-64 882.954,-62.6228 906.452,-61.4847"/>
<polygon fill="black" stroke="black" points="906.9,-64.9666 916.712,-60.9683 906.549,-57.9754 906.9,-64.9666"/>
<text text-anchor="middle" x="640" y="-67.8" font-family="Times,serif" font-size="14.00">u0003</text>
</g>
<!-- 5 -->
<g id="node6" class="node"><title>5</title>
<ellipse fill="none" stroke="black" cx="463" cy="-18" rx="18" ry="18"/>
</g>
<!-- 3&#45;&gt;5 -->
<g id="edge5" class="edge"><title>3&#45;&gt;5</title>
<path fill="none" stroke="black" d="M359.165,-48.6151C365.412,-43.7528 373.205,-38.421 381,-35 397.998,-27.5401 418.468,-23.2801 434.577,-20.8901"/>
<polygon fill="black" stroke="black" points="435.482,-24.3008 444.936,-19.518 434.563,-17.3615 435.482,-24.3008"/>
<text text-anchor="middle" x="404" y="-38.8" font-family="Times,serif" font-size="14.00">u0005</text>
</g>
<!-- 4&#45;&gt;2 -->
<g id="edge6" class="edge"><title>4&#45;&gt;2</title>
<path fill="none" stroke="black" d="M952.802,-63.3013C969.217,-66.5797 994.89,-71.8477 1017,-77 1019.81,-77.6544 1022.72,-78.3575 1025.64,-79.0766"/>
<polygon fill="black" stroke="black" points="1024.84,-82.4856 1035.4,-81.5361 1026.56,-75.698 1024.84,-82.4856"/>
<text text-anchor="middle" x="994" y="-80.8" font-family="Times,serif" font-size="14.00">u0002</text>
</g>
<!-- 6 -->
<g id="node7" class="node"><title>6</title>
<ellipse fill="none" stroke="black" cx="581" cy="-18" rx="18" ry="18"/>
</g>
<!-- 5&#45;&gt;6 -->
<g id="edge7" class="edge"><title>5&#45;&gt;6</title>
<path fill="none" stroke="black" d="M481.116,-18C499.964,-18 530.531,-18 552.696,-18"/>
<polygon fill="black" stroke="black" points="552.814,-21.5001 562.814,-18 552.814,-14.5001 552.814,-21.5001"/>
<text text-anchor="middle" x="522" y="-21.8" font-family="Times,serif" font-size="14.00">u0004</text>
</g>
<!-- 7 -->
<g id="node8" class="node"><title>7</title>
<ellipse fill="none" stroke="black" cx="699" cy="-18" rx="18" ry="18"/>
</g>
<!-- 6&#45;&gt;7 -->
<g id="edge8" class="edge"><title>6&#45;&gt;7</title>
<path fill="none" stroke="black" d="M599.116,-18C617.964,-18 648.531,-18 670.696,-18"/>
<polygon fill="black" stroke="black" points="670.814,-21.5001 680.814,-18 670.814,-14.5001 670.814,-21.5001"/>
<text text-anchor="middle" x="640" y="-21.8" font-family="Times,serif" font-size="14.00">u0005</text>
</g>
<!-- 8 -->
<g id="node9" class="node"><title>8</title>
<ellipse fill="none" stroke="black" cx="817" cy="-18" rx="18" ry="18"/>
</g>
<!-- 7&#45;&gt;8 -->
<g id="edge9" class="edge"><title>7&#45;&gt;8</title>
<path fill="none" stroke="black" d="M717.116,-18C735.964,-18 766.531,-18 788.696,-18"/>
<polygon fill="black" stroke="black" points="788.814,-21.5001 798.814,-18 788.814,-14.5001 788.814,-21.5001"/>
<text text-anchor="middle" x="758" y="-21.8" font-family="Times,serif" font-size="14.00">u0004</text>
</g>
<!-- 8&#45;&gt;4 -->
<g id="edge10" class="edge"><title>8&#45;&gt;4</title>
<path fill="none" stroke="black" d="M835.064,-19.518C851.9,-21.4843 878.08,-25.8186 899,-35 903.628,-37.0312 908.256,-39.7361 912.56,-42.6163"/>
<polygon fill="black" stroke="black" points="910.685,-45.5799 920.835,-48.6151 914.793,-39.9123 910.685,-45.5799"/>
<text text-anchor="middle" x="876" y="-38.8" font-family="Times,serif" font-size="14.00">u0003</text>
</g>
<!-- initial -->
<g id="node10" class="node"><title>initial</title>
</g>
<!-- initial&#45;&gt;0 -->
<g id="edge11" class="edge"><title>initial&#45;&gt;0</title>
<path fill="none" stroke="black" d="M54.195,-91C62.6538,-91 72.0513,-91 80.5951,-91"/>
<polygon fill="black" stroke="black" points="80.8257,-94.5001 90.8257,-91 80.8257,-87.5001 80.8257,-94.5001"/>
</g>
</g>
</svg>
