<svg width="2460px" height="996px"
 viewBox="0.00 0.00 1845.00 747.00" xmlns="http://www.w3.org/2000/svg" xmlns:xlink="http://www.w3.org/1999/xlink">
<g id="graph0" class="graph" transform="scale(1.000022500562514 1.000022500562514) rotate(0) translate(4 743)">
<title>Automaton</title>
<polygon fill="white" stroke="none" points="-4,4 -4,-743 1841,-743 1841,4 -4,4"/>
<!-- 0 -->
<g id="node1" class="node"><title>0</title>
<ellipse fill="none" stroke="black" cx="109" cy="-18" rx="18" ry="18"/>
</g>
<!-- 1 -->
<g id="node2" class="node"><title>1</title>
<ellipse fill="none" stroke="black" cx="227" cy="-18" rx="18" ry="18"/>
</g>
<!-- 0&#45;&gt;1 -->
<g id="edge1" class="edge"><title>0&#45;&gt;1</title>
<path fill="none" stroke="black" d="M127.116,-18C145.964,-18 176.531,-18 198.696,-18"/>
<polygon fill="black" stroke="black" points="198.814,-21.5001 208.814,-18 198.814,-14.5001 198.814,-21.5001"/>
<text text-anchor="middle" x="168" y="-21.8" font-family="Times,serif" font-size="14.00">u0005</text>
</g>
<!-- 2 -->
<g id="node3" class="node"><title>2</title>
<ellipse fill="none" stroke="black" cx="345" cy="-222" rx="18" ry="18"/>
</g>
<!-- 1&#45;&gt;2 -->
<g id="edge2" class="edge"><title>1&#45;&gt;2</title>
<path fill="none" stroke="black" d="M236.719,-33.3332C256.754,-68.5669 306.201,-155.525 330.323,-197.948"/>
<polygon fill="black" stroke="black" points="327.353,-199.804 335.338,-206.767 333.438,-196.344 327.353,-199.804"/>
<text text-anchor="middle" x="286" y="-159.8" font-family="Times,serif" font-size="14.00">u0004</text>
</g>
<!-- 3 -->
<g id="node8" class="node"><title>3</title>
<ellipse fill="none" stroke="black" cx="1815" cy="-124" rx="18" ry="18"/>
<ellipse fill="none" stroke="black" cx="1815" cy="-124" rx="22" ry="22"/>
</g>
<!-- 1&#45;&gt;3 -->
<g id="edge3" class="edge"><title>1&#45;&gt;3</title>
<path fill="none" stroke="black" d="M244.805,-14.2082C267.28,-9.47681 308.423,-2 344,-2 344,-2 344,-2 1694,-2 1745.82,-2 1782.73,-58.6295 1800.99,-94.7246"/>
<polygon fill="black" stroke="black" points="1797.91,-96.3967 1805.44,-103.854 1804.21,-93.3313 1797.91,-96.3967"/>
<text text-anchor="middle" x="1004" y="-5.8" font-family="Times,serif" font-size="14.00">u0000</text>
</g>
<!-- 4 -->
<g id="node4" class="node"><title>4</title>
<ellipse fill="none" stroke="black" cx="463" cy="-454" rx="18" ry="18"/>
</g>
<!-- 2&#45;&gt;4 -->
<g id="edge4" class="edge"><title>2&#45;&gt;4</title>
<path fill="none" stroke="black" d="M353.973,-237.946C373.847,-277.693 425.698,-381.396 449.602,-429.203"/>
<polygon fill="black" stroke="black" points="446.522,-430.87 454.124,-438.249 452.783,-427.739 446.522,-430.87"/>
<text text-anchor="middle" x="404" y="-381.8" font-family="Times,serif" font-size="14.00">u0003</text>
</g>
<!-- 5 -->
<g id="node7" class="node"><title>5</title>
<ellipse fill="none" stroke="black" cx="1693" cy="-458" rx="18" ry="18"/>
</g>
<!-- 2&#45;&gt;5 -->
<g id="edge5" class="edge"><title>2&#45;&gt;5</title>
<path fill="none" stroke="black" d="M346.225,-240.163C347.819,-330.161 360.587,-724 462,-724 462,-724 462,-724 1576,-724 1678.82,-724 1691.42,-554.952 1692.31,-486.384"/>
<polygon fill="black" stroke="black" points="1695.81,-486.302 1692.36,-476.283 1688.81,-486.265 1695.81,-486.302"/>
<text text-anchor="middle" x="1004" y="-727.8" font-family="Times,serif" font-size="14.00">u0002</text>
</g>
<!-- 6 -->
<g id="node29" class="node"><title>6</title>
<ellipse fill="none" stroke="black" cx="1068" cy="-101" rx="18" ry="18"/>
</g>
<!-- 2&#45;&gt;6 -->
<g id="edge6" class="edge"><title>2&#45;&gt;6</title>
<path fill="none" stroke="black" d="M355.458,-206.973C373.026,-181.127 413.367,-131 462,-131 462,-131 462,-131 946,-131 979.709,-131 1017.19,-119.896 1041.37,-111.198"/>
<polygon fill="black" stroke="black" points="1042.73,-114.43 1050.88,-107.658 1040.28,-107.87 1042.73,-114.43"/>
<text text-anchor="middle" x="704" y="-134.8" font-family="Times,serif" font-size="14.00">u0001</text>
</g>
<!-- 7 -->
<g id="node5" class="node"><title>7</title>
<ellipse fill="none" stroke="black" cx="827" cy="-430" rx="18" ry="18"/>
</g>
<!-- 4&#45;&gt;7 -->
<g id="edge7" class="edge"><title>4&#45;&gt;7</title>
<path fill="none" stroke="black" d="M480.974,-452.875C538.56,-449.057 726.847,-436.574 798.227,-431.841"/>
<polygon fill="black" stroke="black" points="798.894,-435.305 808.641,-431.151 798.431,-428.32 798.894,-435.305"/>
<text text-anchor="middle" x="640" y="-446.8" font-family="Times,serif" font-size="14.00">u0003</text>
</g>
<!-- 4&#45;&gt;5 -->
<g id="edge8" class="edge"><title>4&#45;&gt;5</title>
<path fill="none" stroke="black" d="M464.812,-472.193C468.281,-526.059 486.396,-681 580,-681 580,-681 580,-681 1576,-681 1662.69,-681 1684.69,-546.741 1690.19,-486.572"/>
<polygon fill="black" stroke="black" points="1693.71,-486.502 1691.04,-476.249 1686.74,-485.929 1693.71,-486.502"/>
<text text-anchor="middle" x="1068" y="-684.8" font-family="Times,serif" font-size="14.00">u0002</text>
</g>
<!-- 8 -->
<g id="node15" class="node"><title>8</title>
<ellipse fill="none" stroke="black" cx="581" cy="-520" rx="18" ry="18"/>
</g>
<!-- 4&#45;&gt;8 -->
<g id="edge9" class="edge"><title>4&#45;&gt;8</title>
<path fill="none" stroke="black" d="M479.165,-462.628C498.704,-473.746 532.898,-493.2 555.987,-506.338"/>
<polygon fill="black" stroke="black" points="554.409,-509.466 564.831,-511.37 557.871,-503.382 554.409,-509.466"/>
<text text-anchor="middle" x="522" y="-501.8" font-family="Times,serif" font-size="14.00">u0001</text>
</g>
<!-- 11 -->
<g id="node6" class="node"><title>11</title>
<ellipse fill="none" stroke="black" cx="1324" cy="-413" rx="18" ry="18"/>
</g>
<!-- 7&#45;&gt;11 -->
<g id="edge10" class="edge"><title>7&#45;&gt;11</title>
<path fill="none" stroke="black" d="M844.829,-426.682C867.329,-422.542 908.501,-416 944,-416 944,-416 944,-416 1197,-416 1231.08,-416 1270.33,-414.89 1295.85,-414.02"/>
<polygon fill="black" stroke="black" points="1296.01,-417.516 1305.88,-413.666 1295.77,-410.521 1296.01,-417.516"/>
<text text-anchor="middle" x="1068" y="-419.8" font-family="Times,serif" font-size="14.00">u0003</text>
</g>
<!-- 7&#45;&gt;5 -->
<g id="edge11" class="edge"><title>7&#45;&gt;5</title>
<path fill="none" stroke="black" d="M843.825,-436.581C865.87,-445.137 907.257,-459 944,-459 944,-459 944,-459 1261,-459 1308.99,-459 1317.46,-481.496 1365,-488 1476.17,-503.209 1609.68,-477.3 1665.47,-464.508"/>
<polygon fill="black" stroke="black" points="1666.33,-467.902 1675.27,-462.212 1664.73,-461.087 1666.33,-467.902"/>
<text text-anchor="middle" x="1260" y="-462.8" font-family="Times,serif" font-size="14.00">u0002</text>
</g>
<!-- 12 -->
<g id="node11" class="node"><title>12</title>
<ellipse fill="none" stroke="black" cx="945" cy="-368" rx="18" ry="18"/>
</g>
<!-- 7&#45;&gt;12 -->
<g id="edge12" class="edge"><title>7&#45;&gt;12</title>
<path fill="none" stroke="black" d="M836.82,-414.671C842.988,-405.301 852.065,-393.841 863,-387 879.173,-376.883 900.217,-372.148 916.802,-369.934"/>
<polygon fill="black" stroke="black" points="917.405,-373.389 926.96,-368.812 916.636,-366.431 917.405,-373.389"/>
<text text-anchor="middle" x="886" y="-390.8" font-family="Times,serif" font-size="14.00">u0001</text>
</g>
<!-- 11&#45;&gt;5 -->
<g id="edge13" class="edge"><title>11&#45;&gt;5</title>
<path fill="none" stroke="black" d="M1342.21,-415.11C1400.84,-422.3 1593.15,-445.879 1664.78,-454.663"/>
<polygon fill="black" stroke="black" points="1664.48,-458.151 1674.83,-455.894 1665.33,-451.203 1664.48,-458.151"/>
<text text-anchor="middle" x="1516" y="-442.8" font-family="Times,serif" font-size="14.00">u0002</text>
</g>
<!-- 16 -->
<g id="node9" class="node"><title>16</title>
<ellipse fill="none" stroke="black" cx="1452" cy="-346" rx="18" ry="18"/>
</g>
<!-- 11&#45;&gt;16 -->
<g id="edge14" class="edge"><title>11&#45;&gt;16</title>
<path fill="none" stroke="black" d="M1338.65,-402.497C1346.2,-396.939 1355.87,-390.207 1365,-385 1384.64,-373.799 1408.08,-363.347 1425.53,-356.088"/>
<polygon fill="black" stroke="black" points="1427.1,-359.226 1435.03,-352.201 1424.45,-352.747 1427.1,-359.226"/>
<text text-anchor="middle" x="1388" y="-388.8" font-family="Times,serif" font-size="14.00">u0001</text>
</g>
<!-- 5&#45;&gt;3 -->
<g id="edge15" class="edge"><title>5&#45;&gt;3</title>
<path fill="none" stroke="black" d="M1700.12,-440.978C1719.29,-387.618 1778.39,-223.104 1803.04,-154.516"/>
<polygon fill="black" stroke="black" points="1806.46,-155.334 1806.55,-144.739 1799.87,-152.967 1806.46,-155.334"/>
<text text-anchor="middle" x="1752" y="-362.8" font-family="Times,serif" font-size="14.00">u0000</text>
</g>
<!-- 10 -->
<g id="node10" class="node"><title>10</title>
<ellipse fill="none" stroke="black" cx="1575" cy="-229" rx="18" ry="18"/>
</g>
<!-- 16&#45;&gt;10 -->
<g id="edge16" class="edge"><title>16&#45;&gt;10</title>
<path fill="none" stroke="black" d="M1465.49,-333.92C1486.51,-313.602 1529.08,-272.433 1554.2,-248.144"/>
<polygon fill="black" stroke="black" points="1556.64,-250.657 1561.39,-241.19 1551.77,-245.625 1556.64,-250.657"/>
<text text-anchor="middle" x="1516" y="-307.8" font-family="Times,serif" font-size="14.00">u0001</text>
</g>
<!-- 10&#45;&gt;5 -->
<g id="edge17" class="edge"><title>10&#45;&gt;5</title>
<path fill="none" stroke="black" d="M1584.45,-244.859C1599.37,-272.959 1631.24,-333.396 1657,-385 1664.91,-400.837 1673.5,-418.759 1680.2,-432.881"/>
<polygon fill="black" stroke="black" points="1677.06,-434.434 1684.5,-441.979 1683.39,-431.443 1677.06,-434.434"/>
<text text-anchor="middle" x="1634" y="-388.8" font-family="Times,serif" font-size="14.00">u0002</text>
</g>
<!-- 17 -->
<g id="node12" class="node"><title>17</title>
<ellipse fill="none" stroke="black" cx="1068" cy="-362" rx="18" ry="18"/>
</g>
<!-- 12&#45;&gt;17 -->
<g id="edge18" class="edge"><title>12&#45;&gt;17</title>
<path fill="none" stroke="black" d="M963.08,-367.153C983.078,-366.161 1016.45,-364.506 1039.98,-363.34"/>
<polygon fill="black" stroke="black" points="1040.19,-366.834 1050.01,-362.843 1039.85,-359.842 1040.19,-366.834"/>
<text text-anchor="middle" x="1004" y="-369.8" font-family="Times,serif" font-size="14.00">u0001</text>
</g>
<!-- 21 -->
<g id="node13" class="node"><title>21</title>
<ellipse fill="none" stroke="black" cx="1196" cy="-360" rx="18" ry="18"/>
</g>
<!-- 17&#45;&gt;21 -->
<g id="edge19" class="edge"><title>17&#45;&gt;21</title>
<path fill="none" stroke="black" d="M1086.26,-361.726C1107.27,-361.392 1143.03,-360.825 1167.77,-360.432"/>
<polygon fill="black" stroke="black" points="1168.01,-363.929 1177.95,-360.271 1167.9,-356.93 1168.01,-363.929"/>
<text text-anchor="middle" x="1132" y="-364.8" font-family="Times,serif" font-size="14.00">u0001</text>
</g>
<!-- 24 -->
<g id="node14" class="node"><title>24</title>
<ellipse fill="none" stroke="black" cx="1324" cy="-359" rx="18" ry="18"/>
</g>
<!-- 21&#45;&gt;24 -->
<g id="edge20" class="edge"><title>21&#45;&gt;24</title>
<path fill="none" stroke="black" d="M1214.26,-359.863C1235.27,-359.696 1271.03,-359.412 1295.77,-359.216"/>
<polygon fill="black" stroke="black" points="1295.98,-362.715 1305.95,-359.135 1295.93,-355.715 1295.98,-362.715"/>
<text text-anchor="middle" x="1260" y="-362.8" font-family="Times,serif" font-size="14.00">u0001</text>
</g>
<!-- 24&#45;&gt;16 -->
<g id="edge21" class="edge"><title>24&#45;&gt;16</title>
<path fill="none" stroke="black" d="M1341.11,-353.044C1348.31,-350.676 1356.97,-348.226 1365,-347 1384.37,-344.041 1406.49,-343.854 1423.44,-344.373"/>
<polygon fill="black" stroke="black" points="1423.62,-347.883 1433.75,-344.795 1423.9,-340.889 1423.62,-347.883"/>
<text text-anchor="middle" x="1388" y="-350.8" font-family="Times,serif" font-size="14.00">u0001</text>
</g>
<!-- 8&#45;&gt;5 -->
<g id="edge23" class="edge"><title>8&#45;&gt;5</title>
<path fill="none" stroke="black" d="M589.464,-535.99C605.446,-567.589 646.197,-635 703,-635 703,-635 703,-635 1005,-635 1117.91,-635 1146.09,-640 1259,-640 1259,-640 1259,-640 1576,-640 1648.24,-640 1677.46,-536.784 1687.49,-485.811"/>
<polygon fill="black" stroke="black" points="1690.97,-486.252 1689.34,-475.782 1684.08,-484.978 1690.97,-486.252"/>
<text text-anchor="middle" x="1132" y="-641.8" font-family="Times,serif" font-size="14.00">u0002</text>
</g>
<!-- 13 -->
<g id="node16" class="node"><title>13</title>
<ellipse fill="none" stroke="black" cx="704" cy="-487" rx="18" ry="18"/>
</g>
<!-- 8&#45;&gt;13 -->
<g id="edge22" class="edge"><title>8&#45;&gt;13</title>
<path fill="none" stroke="black" d="M597.885,-513.613C603.826,-511.354 610.668,-508.904 617,-507 636.572,-501.115 659.085,-495.935 676.166,-492.322"/>
<polygon fill="black" stroke="black" points="676.941,-495.736 686.025,-490.283 675.523,-488.881 676.941,-495.736"/>
<text text-anchor="middle" x="640" y="-510.8" font-family="Times,serif" font-size="14.00">u0003</text>
</g>
<!-- 14 -->
<g id="node22" class="node"><title>14</title>
<ellipse fill="none" stroke="black" cx="704" cy="-541" rx="18" ry="18"/>
</g>
<!-- 8&#45;&gt;14 -->
<g id="edge24" class="edge"><title>8&#45;&gt;14</title>
<path fill="none" stroke="black" d="M598.825,-522.92C618.759,-526.38 652.239,-532.19 675.856,-536.289"/>
<polygon fill="black" stroke="black" points="675.477,-539.776 685.928,-538.037 676.674,-532.879 675.477,-539.776"/>
<text text-anchor="middle" x="640" y="-536.8" font-family="Times,serif" font-size="14.00">u0001</text>
</g>
<!-- 13&#45;&gt;16 -->
<g id="edge26" class="edge"><title>13&#45;&gt;16</title>
<path fill="none" stroke="black" d="M706.018,-468.952C710.139,-414.732 730.347,-257 826,-257 826,-257 826,-257 1069,-257 1136.26,-257 1158.7,-247.203 1219,-277 1229.14,-282.012 1227.12,-289.48 1237,-295 1269.07,-312.925 1373.8,-332.711 1423.86,-341.438"/>
<polygon fill="black" stroke="black" points="1423.5,-344.927 1433.95,-343.175 1424.69,-338.029 1423.5,-344.927"/>
<text text-anchor="middle" x="1068" y="-260.8" font-family="Times,serif" font-size="14.00">u0001</text>
</g>
<!-- 18 -->
<g id="node17" class="node"><title>18</title>
<ellipse fill="none" stroke="black" cx="827" cy="-497" rx="18" ry="18"/>
</g>
<!-- 13&#45;&gt;18 -->
<g id="edge25" class="edge"><title>13&#45;&gt;18</title>
<path fill="none" stroke="black" d="M722.08,-488.412C742.078,-490.064 775.454,-492.823 798.976,-494.767"/>
<polygon fill="black" stroke="black" points="798.753,-498.26 809.007,-495.596 799.329,-491.284 798.753,-498.26"/>
<text text-anchor="middle" x="768" y="-497.8" font-family="Times,serif" font-size="14.00">u0003</text>
</g>
<!-- 18&#45;&gt;16 -->
<g id="edge27" class="edge"><title>18&#45;&gt;16</title>
<path fill="none" stroke="black" d="M845.295,-497C867.962,-497 908.958,-497 944,-497 944,-497 944,-497 1261,-497 1341.86,-497 1408.27,-412.135 1436.44,-369.648"/>
<polygon fill="black" stroke="black" points="1439.53,-371.328 1442.02,-361.031 1433.65,-367.525 1439.53,-371.328"/>
<text text-anchor="middle" x="1132" y="-500.8" font-family="Times,serif" font-size="14.00">u0003</text>
</g>
<!-- 22 -->
<g id="node18" class="node"><title>22</title>
<ellipse fill="none" stroke="black" cx="945" cy="-543" rx="18" ry="18"/>
</g>
<!-- 18&#45;&gt;22 -->
<g id="edge28" class="edge"><title>18&#45;&gt;22</title>
<path fill="none" stroke="black" d="M844.024,-503.426C849.98,-505.811 856.797,-508.534 863,-511 881.441,-518.331 902.265,-526.556 918.18,-532.832"/>
<polygon fill="black" stroke="black" points="917.268,-536.235 927.855,-536.645 919.835,-529.722 917.268,-536.235"/>
<text text-anchor="middle" x="886" y="-531.8" font-family="Times,serif" font-size="14.00">u0001</text>
</g>
<!-- 25 -->
<g id="node19" class="node"><title>25</title>
<ellipse fill="none" stroke="black" cx="1068" cy="-543" rx="18" ry="18"/>
</g>
<!-- 22&#45;&gt;25 -->
<g id="edge29" class="edge"><title>22&#45;&gt;25</title>
<path fill="none" stroke="black" d="M963.08,-543C982.965,-543 1016.08,-543 1039.58,-543"/>
<polygon fill="black" stroke="black" points="1039.62,-546.5 1049.62,-543 1039.62,-539.5 1039.62,-546.5"/>
<text text-anchor="middle" x="1004" y="-546.8" font-family="Times,serif" font-size="14.00">u0003</text>
</g>
<!-- 27 -->
<g id="node20" class="node"><title>27</title>
<ellipse fill="none" stroke="black" cx="1196" cy="-543" rx="18" ry="18"/>
</g>
<!-- 25&#45;&gt;27 -->
<g id="edge30" class="edge"><title>25&#45;&gt;27</title>
<path fill="none" stroke="black" d="M1086.26,-543C1107.27,-543 1143.03,-543 1167.77,-543"/>
<polygon fill="black" stroke="black" points="1167.95,-546.5 1177.95,-543 1167.95,-539.5 1167.95,-546.5"/>
<text text-anchor="middle" x="1132" y="-546.8" font-family="Times,serif" font-size="14.00">u0001</text>
</g>
<!-- 29 -->
<g id="node21" class="node"><title>29</title>
<ellipse fill="none" stroke="black" cx="1324" cy="-543" rx="18" ry="18"/>
</g>
<!-- 27&#45;&gt;29 -->
<g id="edge31" class="edge"><title>27&#45;&gt;29</title>
<path fill="none" stroke="black" d="M1214.26,-543C1235.27,-543 1271.03,-543 1295.77,-543"/>
<polygon fill="black" stroke="black" points="1295.95,-546.5 1305.95,-543 1295.95,-539.5 1295.95,-546.5"/>
<text text-anchor="middle" x="1260" y="-546.8" font-family="Times,serif" font-size="14.00">u0001</text>
</g>
<!-- 29&#45;&gt;16 -->
<g id="edge32" class="edge"><title>29&#45;&gt;16</title>
<path fill="none" stroke="black" d="M1338.33,-531.616C1356.82,-515.213 1390.32,-483.233 1411,-450 1426.09,-425.755 1437.08,-394.89 1443.68,-373.101"/>
<polygon fill="black" stroke="black" points="1447.04,-374.074 1446.48,-363.494 1440.32,-372.113 1447.04,-374.074"/>
<text text-anchor="middle" x="1388" y="-508.8" font-family="Times,serif" font-size="14.00">u0003</text>
</g>
<!-- 14&#45;&gt;5 -->
<g id="edge34" class="edge"><title>14&#45;&gt;5</title>
<path fill="none" stroke="black" d="M718.572,-552.064C740.01,-568.384 783.64,-597 826,-597 826,-597 826,-597 1576,-597 1633.95,-597 1668.6,-524.899 1683.45,-484.554"/>
<polygon fill="black" stroke="black" points="1686.78,-485.639 1686.8,-475.044 1680.18,-483.312 1686.78,-485.639"/>
<text text-anchor="middle" x="1196" y="-600.8" font-family="Times,serif" font-size="14.00">u0002</text>
</g>
<!-- 19 -->
<g id="node23" class="node"><title>19</title>
<ellipse fill="none" stroke="black" cx="827" cy="-342" rx="18" ry="18"/>
</g>
<!-- 14&#45;&gt;19 -->
<g id="edge33" class="edge"><title>14&#45;&gt;19</title>
<path fill="none" stroke="black" d="M722.08,-540.042C741.817,-537.965 773.781,-531.437 791,-511 822.355,-473.786 798.453,-450.505 809,-403 811.502,-391.731 814.811,-379.444 817.845,-368.87"/>
<polygon fill="black" stroke="black" points="821.293,-369.549 820.747,-358.968 814.576,-367.58 821.293,-369.549"/>
<text text-anchor="middle" x="768" y="-538.8" font-family="Times,serif" font-size="14.00">u0003</text>
</g>
<!-- 23 -->
<g id="node24" class="node"><title>23</title>
<ellipse fill="none" stroke="black" cx="945" cy="-311" rx="18" ry="18"/>
</g>
<!-- 19&#45;&gt;23 -->
<g id="edge35" class="edge"><title>19&#45;&gt;23</title>
<path fill="none" stroke="black" d="M844.62,-337.558C863.657,-332.471 895.103,-324.067 917.523,-318.076"/>
<polygon fill="black" stroke="black" points="918.654,-321.397 927.411,-315.433 916.846,-314.634 918.654,-321.397"/>
<text text-anchor="middle" x="886" y="-334.8" font-family="Times,serif" font-size="14.00">u0001</text>
</g>
<!-- 26 -->
<g id="node25" class="node"><title>26</title>
<ellipse fill="none" stroke="black" cx="1068" cy="-308" rx="18" ry="18"/>
</g>
<!-- 23&#45;&gt;26 -->
<g id="edge36" class="edge"><title>23&#45;&gt;26</title>
<path fill="none" stroke="black" d="M963.08,-310.577C982.965,-310.084 1016.08,-309.263 1039.58,-308.68"/>
<polygon fill="black" stroke="black" points="1039.71,-312.178 1049.62,-308.431 1039.53,-305.18 1039.71,-312.178"/>
<text text-anchor="middle" x="1004" y="-313.8" font-family="Times,serif" font-size="14.00">u0003</text>
</g>
<!-- 28 -->
<g id="node26" class="node"><title>28</title>
<ellipse fill="none" stroke="black" cx="1196" cy="-304" rx="18" ry="18"/>
</g>
<!-- 26&#45;&gt;28 -->
<g id="edge37" class="edge"><title>26&#45;&gt;28</title>
<path fill="none" stroke="black" d="M1085.99,-307.461C1106.94,-306.796 1142.81,-305.657 1167.65,-304.868"/>
<polygon fill="black" stroke="black" points="1167.99,-308.359 1177.87,-304.544 1167.77,-301.363 1167.99,-308.359"/>
<text text-anchor="middle" x="1132" y="-309.8" font-family="Times,serif" font-size="14.00">u0003</text>
</g>
<!-- 30 -->
<g id="node27" class="node"><title>30</title>
<ellipse fill="none" stroke="black" cx="1324" cy="-267" rx="18" ry="18"/>
</g>
<!-- 28&#45;&gt;30 -->
<g id="edge38" class="edge"><title>28&#45;&gt;30</title>
<path fill="none" stroke="black" d="M1213.47,-299.163C1234.7,-292.931 1271.84,-282.024 1296.92,-274.659"/>
<polygon fill="black" stroke="black" points="1297.91,-278.014 1306.52,-271.838 1295.94,-271.298 1297.91,-278.014"/>
<text text-anchor="middle" x="1260" y="-295.8" font-family="Times,serif" font-size="14.00">u0001</text>
</g>
<!-- 20 -->
<g id="node28" class="node"><title>20</title>
<ellipse fill="none" stroke="black" cx="1452" cy="-229" rx="18" ry="18"/>
</g>
<!-- 30&#45;&gt;20 -->
<g id="edge39" class="edge"><title>30&#45;&gt;20</title>
<path fill="none" stroke="black" d="M1339.73,-257.957C1347.09,-253.783 1356.27,-249.08 1365,-246 1384.13,-239.246 1406.67,-234.916 1423.86,-232.317"/>
<polygon fill="black" stroke="black" points="1424.39,-235.777 1433.81,-230.916 1423.42,-228.846 1424.39,-235.777"/>
<text text-anchor="middle" x="1388" y="-249.8" font-family="Times,serif" font-size="14.00">u0001</text>
</g>
<!-- 20&#45;&gt;10 -->
<g id="edge40" class="edge"><title>20&#45;&gt;10</title>
<path fill="none" stroke="black" d="M1470.08,-229C1489.96,-229 1523.08,-229 1546.58,-229"/>
<polygon fill="black" stroke="black" points="1546.62,-232.5 1556.62,-229 1546.62,-225.5 1546.62,-232.5"/>
<text text-anchor="middle" x="1516" y="-232.8" font-family="Times,serif" font-size="14.00">u0003</text>
</g>
<!-- 6&#45;&gt;5 -->
<g id="edge42" class="edge"><title>6&#45;&gt;5</title>
<path fill="none" stroke="black" d="M1082.32,-89.5264C1104.26,-71.8562 1150.04,-40 1195,-40 1195,-40 1195,-40 1576,-40 1657.14,-40 1683.87,-336.118 1690.3,-429.884"/>
<polygon fill="black" stroke="black" points="1686.82,-430.291 1690.97,-440.039 1693.8,-429.83 1686.82,-430.291"/>
<text text-anchor="middle" x="1388" y="-43.8" font-family="Times,serif" font-size="14.00">u0002</text>
</g>
<!-- 6&#45;&gt;10 -->
<g id="edge43" class="edge"><title>6&#45;&gt;10</title>
<path fill="none" stroke="black" d="M1086.15,-103.463C1103.53,-105.988 1131.16,-110.088 1155,-114 1327.88,-142.369 1381.94,-125.389 1539,-203 1543.59,-205.27 1548.2,-208.157 1552.5,-211.176"/>
<polygon fill="black" stroke="black" points="1550.69,-214.189 1560.78,-217.404 1554.89,-208.595 1550.69,-214.189"/>
<text text-anchor="middle" x="1324" y="-141.8" font-family="Times,serif" font-size="14.00">u0001</text>
</g>
<!-- 9 -->
<g id="node30" class="node"><title>9</title>
<ellipse fill="none" stroke="black" cx="1196" cy="-155" rx="18" ry="18"/>
</g>
<!-- 6&#45;&gt;9 -->
<g id="edge41" class="edge"><title>6&#45;&gt;9</title>
<path fill="none" stroke="black" d="M1084.7,-107.73C1106.02,-116.865 1144.36,-133.296 1169.74,-144.176"/>
<polygon fill="black" stroke="black" points="1168.53,-147.463 1179.1,-148.185 1171.29,-141.029 1168.53,-147.463"/>
<text text-anchor="middle" x="1132" y="-140.8" font-family="Times,serif" font-size="14.00">u0003</text>
</g>
<!-- 9&#45;&gt;5 -->
<g id="edge45" class="edge"><title>9&#45;&gt;5</title>
<path fill="none" stroke="black" d="M1213.66,-151.34C1272.95,-139.347 1476.45,-107.207 1593,-202 1630.8,-232.741 1637.36,-246.415 1657,-291 1677.26,-336.987 1686.04,-395.359 1689.66,-429.508"/>
<polygon fill="black" stroke="black" points="1686.2,-430.088 1690.66,-439.698 1693.16,-429.404 1686.2,-430.088"/>
<text text-anchor="middle" x="1452" y="-150.8" font-family="Times,serif" font-size="14.00">u0002</text>
</g>
<!-- 9&#45;&gt;10 -->
<g id="edge46" class="edge"><title>9&#45;&gt;10</title>
<path fill="none" stroke="black" d="M1214.04,-156.684C1250.44,-160.435 1338.37,-170.319 1411,-185 1439.85,-190.831 1446.58,-194.35 1475,-202 1499.64,-208.633 1527.71,-216.298 1547.65,-221.762"/>
<polygon fill="black" stroke="black" points="1546.97,-225.206 1557.54,-224.476 1548.82,-218.456 1546.97,-225.206"/>
<text text-anchor="middle" x="1388" y="-188.8" font-family="Times,serif" font-size="14.00">u0001</text>
</g>
<!-- 15 -->
<g id="node31" class="node"><title>15</title>
<ellipse fill="none" stroke="black" cx="1324" cy="-213" rx="18" ry="18"/>
</g>
<!-- 9&#45;&gt;15 -->
<g id="edge44" class="edge"><title>9&#45;&gt;15</title>
<path fill="none" stroke="black" d="M1210.99,-165.179C1218.47,-170.339 1227.97,-176.457 1237,-181 1256.21,-190.668 1279.07,-199.037 1296.39,-204.789"/>
<polygon fill="black" stroke="black" points="1295.79,-208.272 1306.38,-208.021 1297.94,-201.612 1295.79,-208.272"/>
<text text-anchor="middle" x="1260" y="-202.8" font-family="Times,serif" font-size="14.00">u0003</text>
</g>
<!-- 15&#45;&gt;16 -->
<g id="edge47" class="edge"><title>15&#45;&gt;16</title>
<path fill="none" stroke="black" d="M1336.11,-226.607C1347.33,-240.308 1363.26,-259.619 1365,-261 1382.92,-275.192 1393.98,-268.744 1411,-284 1422.48,-294.287 1432,-308.602 1438.88,-320.884"/>
<polygon fill="black" stroke="black" points="1435.82,-322.592 1443.6,-329.781 1442,-319.308 1435.82,-322.592"/>
<text text-anchor="middle" x="1388" y="-287.8" font-family="Times,serif" font-size="14.00">u0003</text>
</g>
<!-- 15&#45;&gt;20 -->
<g id="edge48" class="edge"><title>15&#45;&gt;20</title>
<path fill="none" stroke="black" d="M1341.76,-209.127C1359.29,-205.743 1387.48,-202.2 1411,-208 1416.62,-209.385 1422.32,-211.714 1427.59,-214.33"/>
<polygon fill="black" stroke="black" points="1426.04,-217.475 1436.49,-219.203 1429.4,-211.333 1426.04,-217.475"/>
<text text-anchor="middle" x="1388" y="-211.8" font-family="Times,serif" font-size="14.00">u0001</text>
</g>
<!-- initial -->
<g id="node32" class="node"><title>initial</title>
</g>
<!-- initial&#45;&gt;0 -->
<g id="edge49" class="edge"><title>initial&#45;&gt;0</title>
<path fill="none" stroke="black" d="M54.195,-18C62.6538,-18 72.0513,-18 80.5951,-18"/>
<polygon fill="black" stroke="black" points="80.8257,-21.5001 90.8257,-18 80.8257,-14.5001 80.8257,-21.5001"/>
</g>
</g>
</svg>
