<svg width="2487px" height="801px"
 viewBox="0.00 0.00 1865.00 601.00" xmlns="http://www.w3.org/2000/svg" xmlns:xlink="http://www.w3.org/1999/xlink">
<g id="graph0" class="graph" transform="scale(1.000022500562514 1.000022500562514) rotate(0) translate(4 597)">
<title>Automaton</title>
<polygon fill="white" stroke="none" points="-4,4 -4,-597 1861,-597 1861,4 -4,4"/>
<!-- 0 -->
<g id="node1" class="node"><title>0</title>
<ellipse fill="none" stroke="black" cx="109" cy="-18" rx="18" ry="18"/>
</g>
<!-- 1 -->
<g id="node2" class="node"><title>1</title>
<ellipse fill="none" stroke="black" cx="227" cy="-18" rx="18" ry="18"/>
</g>
<!-- 0&#45;&gt;1 -->
<g id="edge1" class="edge"><title>0&#45;&gt;1</title>
<path fill="none" stroke="black" d="M127.116,-18C145.964,-18 176.531,-18 198.696,-18"/>
<polygon fill="black" stroke="black" points="198.814,-21.5001 208.814,-18 198.814,-14.5001 198.814,-21.5001"/>
<text text-anchor="middle" x="168" y="-21.8" font-family="Times,serif" font-size="14.00">u0005</text>
</g>
<!-- 2 -->
<g id="node3" class="node"><title>2</title>
<ellipse fill="none" stroke="black" cx="345" cy="-377" rx="18" ry="18"/>
</g>
<!-- 1&#45;&gt;2 -->
<g id="edge2" class="edge"><title>1&#45;&gt;2</title>
<path fill="none" stroke="black" d="M233.439,-34.8338C251.93,-92.0591 312.476,-279.437 335.241,-349.892"/>
<polygon fill="black" stroke="black" points="332.032,-351.345 338.437,-359.785 338.693,-349.193 332.032,-351.345"/>
<text text-anchor="middle" x="286" y="-263.8" font-family="Times,serif" font-size="14.00">u0004</text>
</g>
<!-- 3 -->
<g id="node8" class="node"><title>3</title>
<ellipse fill="none" stroke="black" cx="1835" cy="-94" rx="18" ry="18"/>
<ellipse fill="none" stroke="black" cx="1835" cy="-94" rx="22" ry="22"/>
</g>
<!-- 1&#45;&gt;3 -->
<g id="edge3" class="edge"><title>1&#45;&gt;3</title>
<path fill="none" stroke="black" d="M244.805,-14.2082C267.28,-9.47681 308.423,-2 344,-2 344,-2 344,-2 1714,-2 1757.54,-2 1795.03,-40.6106 1816.03,-67.8057"/>
<polygon fill="black" stroke="black" points="1813.23,-69.8991 1822.01,-75.8238 1818.84,-65.7148 1813.23,-69.8991"/>
<text text-anchor="middle" x="1014" y="-5.8" font-family="Times,serif" font-size="14.00">u0000</text>
</g>
<!-- 4 -->
<g id="node4" class="node"><title>4</title>
<ellipse fill="none" stroke="black" cx="463" cy="-286" rx="18" ry="18"/>
</g>
<!-- 2&#45;&gt;4 -->
<g id="edge4" class="edge"><title>2&#45;&gt;4</title>
<path fill="none" stroke="black" d="M359.762,-366.204C379.646,-350.606 416.606,-321.611 440.217,-303.088"/>
<polygon fill="black" stroke="black" points="442.548,-305.708 448.256,-296.782 438.227,-300.201 442.548,-305.708"/>
<text text-anchor="middle" x="404" y="-350.8" font-family="Times,serif" font-size="14.00">u0003</text>
</g>
<!-- 5 -->
<g id="node7" class="node"><title>5</title>
<ellipse fill="none" stroke="black" cx="1713" cy="-338" rx="18" ry="18"/>
</g>
<!-- 2&#45;&gt;5 -->
<g id="edge5" class="edge"><title>2&#45;&gt;5</title>
<path fill="none" stroke="black" d="M347.779,-394.837C353.764,-444.03 377.794,-578 462,-578 462,-578 462,-578 1591,-578 1638.64,-578 1651.54,-554.274 1677,-514 1706.09,-467.981 1711.77,-402.778 1712.45,-366.026"/>
<polygon fill="black" stroke="black" points="1715.95,-366.045 1712.52,-356.02 1708.95,-365.994 1715.95,-366.045"/>
<text text-anchor="middle" x="1014" y="-581.8" font-family="Times,serif" font-size="14.00">u0002</text>
</g>
<!-- 6 -->
<g id="node24" class="node"><title>6</title>
<ellipse fill="none" stroke="black" cx="1078" cy="-486" rx="18" ry="18"/>
</g>
<!-- 2&#45;&gt;6 -->
<g id="edge6" class="edge"><title>2&#45;&gt;6</title>
<path fill="none" stroke="black" d="M355.941,-391.589C373.972,-416.125 414.618,-463 462,-463 462,-463 462,-463 951,-463 985.828,-463 1025.2,-471.609 1050.53,-478.293"/>
<polygon fill="black" stroke="black" points="1049.89,-481.749 1060.46,-481.009 1051.74,-474.997 1049.89,-481.749"/>
<text text-anchor="middle" x="704" y="-466.8" font-family="Times,serif" font-size="14.00">u0001</text>
</g>
<!-- 7 -->
<g id="node5" class="node"><title>7</title>
<ellipse fill="none" stroke="black" cx="1462" cy="-397" rx="18" ry="18"/>
</g>
<!-- 4&#45;&gt;7 -->
<g id="edge7" class="edge"><title>4&#45;&gt;7</title>
<path fill="none" stroke="black" d="M470.81,-302.546C485.496,-335.244 523.451,-405 580,-405 580,-405 580,-405 1143,-405 1250.47,-405 1378.3,-400.378 1433.44,-398.16"/>
<polygon fill="black" stroke="black" points="1433.92,-401.643 1443.77,-397.738 1433.63,-394.649 1433.92,-401.643"/>
<text text-anchor="middle" x="950" y="-408.8" font-family="Times,serif" font-size="14.00">u0003</text>
</g>
<!-- 4&#45;&gt;5 -->
<g id="edge8" class="edge"><title>4&#45;&gt;5</title>
<path fill="none" stroke="black" d="M464.449,-267.72C466.877,-211.989 482.322,-48 580,-48 580,-48 580,-48 1591,-48 1633.34,-48 1651.96,-54.8548 1677,-89 1702.41,-123.641 1709.43,-252.194 1711.33,-309.782"/>
<polygon fill="black" stroke="black" points="1707.83,-310.097 1711.63,-319.988 1714.83,-309.888 1707.83,-310.097"/>
<text text-anchor="middle" x="1078" y="-51.8" font-family="Times,serif" font-size="14.00">u0002</text>
</g>
<!-- 8 -->
<g id="node9" class="node"><title>8</title>
<ellipse fill="none" stroke="black" cx="581" cy="-236" rx="18" ry="18"/>
</g>
<!-- 4&#45;&gt;8 -->
<g id="edge9" class="edge"><title>4&#45;&gt;8</title>
<path fill="none" stroke="black" d="M480.129,-279.048C499.435,-270.726 531.992,-256.693 554.666,-246.92"/>
<polygon fill="black" stroke="black" points="556.21,-250.066 564.008,-242.893 553.439,-243.637 556.21,-250.066"/>
<text text-anchor="middle" x="522" y="-272.8" font-family="Times,serif" font-size="14.00">u0001</text>
</g>
<!-- 10 -->
<g id="node6" class="node"><title>10</title>
<ellipse fill="none" stroke="black" cx="1590" cy="-338" rx="18" ry="18"/>
</g>
<!-- 7&#45;&gt;10 -->
<g id="edge10" class="edge"><title>7&#45;&gt;10</title>
<path fill="none" stroke="black" d="M1476.93,-386.394C1484.4,-381.026 1493.91,-374.675 1503,-370 1522.12,-360.166 1544.99,-351.805 1562.34,-346.099"/>
<polygon fill="black" stroke="black" points="1563.88,-349.279 1572.34,-342.899 1561.75,-342.612 1563.88,-349.279"/>
<text text-anchor="middle" x="1526" y="-373.8" font-family="Times,serif" font-size="14.00">u0003</text>
</g>
<!-- 7&#45;&gt;5 -->
<g id="edge11" class="edge"><title>7&#45;&gt;5</title>
<path fill="none" stroke="black" d="M1480.18,-395.791C1517.2,-392.758 1606.86,-383.107 1677,-357 1680.83,-355.575 1684.75,-353.797 1688.52,-351.903"/>
<polygon fill="black" stroke="black" points="1690.3,-354.92 1697.45,-347.096 1686.98,-348.757 1690.3,-354.92"/>
<text text-anchor="middle" x="1590" y="-387.8" font-family="Times,serif" font-size="14.00">u0002</text>
</g>
<!-- 10&#45;&gt;5 -->
<g id="edge12" class="edge"><title>10&#45;&gt;5</title>
<path fill="none" stroke="black" d="M1608.08,-338C1627.96,-338 1661.08,-338 1684.58,-338"/>
<polygon fill="black" stroke="black" points="1684.62,-341.5 1694.62,-338 1684.62,-334.5 1684.62,-341.5"/>
<text text-anchor="middle" x="1654" y="-341.8" font-family="Times,serif" font-size="14.00">u0002</text>
</g>
<!-- 5&#45;&gt;3 -->
<g id="edge13" class="edge"><title>5&#45;&gt;3</title>
<path fill="none" stroke="black" d="M1721.87,-321.99C1741.81,-281.452 1794.5,-174.311 1819.91,-122.653"/>
<polygon fill="black" stroke="black" points="1823.19,-123.907 1824.46,-113.389 1816.91,-120.817 1823.19,-123.907"/>
<text text-anchor="middle" x="1772" y="-268.8" font-family="Times,serif" font-size="14.00">u0000</text>
</g>
<!-- 8&#45;&gt;5 -->
<g id="edge15" class="edge"><title>8&#45;&gt;5</title>
<path fill="none" stroke="black" d="M587.23,-218.797C600.09,-180.388 637.098,-91 703,-91 703,-91 703,-91 1015,-91 1127.91,-91 1156.09,-86 1269,-86 1269,-86 1269,-86 1591,-86 1636.61,-86 1651.81,-103.977 1677,-142 1694.98,-169.134 1705.45,-262.42 1709.72,-309.843"/>
<polygon fill="black" stroke="black" points="1706.26,-310.378 1710.61,-320.036 1713.23,-309.771 1706.26,-310.378"/>
<text text-anchor="middle" x="1142" y="-92.8" font-family="Times,serif" font-size="14.00">u0002</text>
</g>
<!-- 11 -->
<g id="node10" class="node"><title>11</title>
<ellipse fill="none" stroke="black" cx="704" cy="-263" rx="18" ry="18"/>
</g>
<!-- 8&#45;&gt;11 -->
<g id="edge14" class="edge"><title>8&#45;&gt;11</title>
<path fill="none" stroke="black" d="M598.825,-239.754C618.872,-244.228 652.618,-251.758 676.255,-257.032"/>
<polygon fill="black" stroke="black" points="675.796,-260.516 686.318,-259.278 677.321,-253.684 675.796,-260.516"/>
<text text-anchor="middle" x="640" y="-256.8" font-family="Times,serif" font-size="14.00">u0003</text>
</g>
<!-- 12 -->
<g id="node17" class="node"><title>12</title>
<ellipse fill="none" stroke="black" cx="704" cy="-209" rx="18" ry="18"/>
</g>
<!-- 8&#45;&gt;12 -->
<g id="edge16" class="edge"><title>8&#45;&gt;12</title>
<path fill="none" stroke="black" d="M598.22,-229.843C604.077,-227.779 610.778,-225.598 617,-224 636.387,-219.019 658.659,-215.185 675.68,-212.64"/>
<polygon fill="black" stroke="black" points="676.623,-216.041 686.024,-211.155 675.628,-209.112 676.623,-216.041"/>
<text text-anchor="middle" x="640" y="-227.8" font-family="Times,serif" font-size="14.00">u0001</text>
</g>
<!-- 14 -->
<g id="node11" class="node"><title>14</title>
<ellipse fill="none" stroke="black" cx="827" cy="-221" rx="18" ry="18"/>
</g>
<!-- 11&#45;&gt;14 -->
<g id="edge17" class="edge"><title>11&#45;&gt;14</title>
<path fill="none" stroke="black" d="M721.654,-258.312C739.102,-253.276 767.225,-244.801 791,-236 794.162,-234.829 797.453,-233.53 800.696,-232.199"/>
<polygon fill="black" stroke="black" points="802.264,-235.336 810.107,-228.212 799.533,-228.891 802.264,-235.336"/>
<text text-anchor="middle" x="768" y="-253.8" font-family="Times,serif" font-size="14.00">u0003</text>
</g>
<!-- 15 -->
<g id="node12" class="node"><title>15</title>
<ellipse fill="none" stroke="black" cx="1462" cy="-267" rx="18" ry="18"/>
</g>
<!-- 11&#45;&gt;15 -->
<g id="edge18" class="edge"><title>11&#45;&gt;15</title>
<path fill="none" stroke="black" d="M717.544,-275.414C738.255,-294.533 781.732,-329 826,-329 826,-329 826,-329 1015,-329 1139.18,-329 1178.5,-349.079 1293,-301 1302.6,-296.968 1301.45,-290.154 1311,-286 1351.26,-268.482 1402.95,-265.745 1433.95,-265.952"/>
<polygon fill="black" stroke="black" points="1433.93,-269.452 1443.99,-266.129 1434.06,-262.454 1433.93,-269.452"/>
<text text-anchor="middle" x="1078" y="-334.8" font-family="Times,serif" font-size="14.00">u0001</text>
</g>
<!-- 14&#45;&gt;15 -->
<g id="edge19" class="edge"><title>14&#45;&gt;15</title>
<path fill="none" stroke="black" d="M845.209,-222.855C868.651,-225.219 911.947,-229 949,-229 949,-229 949,-229 1335,-229 1371.51,-229 1411.53,-243.805 1436.46,-254.933"/>
<polygon fill="black" stroke="black" points="1435,-258.113 1445.54,-259.126 1437.93,-251.757 1435,-258.113"/>
<text text-anchor="middle" x="1142" y="-232.8" font-family="Times,serif" font-size="14.00">u0003</text>
</g>
<!-- 18 -->
<g id="node13" class="node"><title>18</title>
<ellipse fill="none" stroke="black" cx="950" cy="-183" rx="18" ry="18"/>
</g>
<!-- 14&#45;&gt;18 -->
<g id="edge20" class="edge"><title>14&#45;&gt;18</title>
<path fill="none" stroke="black" d="M842.07,-211.035C848.241,-207.074 855.726,-202.803 863,-200 882.052,-192.659 904.754,-188.343 922.048,-185.898"/>
<polygon fill="black" stroke="black" points="922.567,-189.36 932.036,-184.607 921.669,-182.418 922.567,-189.36"/>
<text text-anchor="middle" x="886" y="-203.8" font-family="Times,serif" font-size="14.00">u0001</text>
</g>
<!-- 15&#45;&gt;10 -->
<g id="edge21" class="edge"><title>15&#45;&gt;10</title>
<path fill="none" stroke="black" d="M1478.52,-274.243C1495.98,-282.547 1525.03,-296.846 1549,-311 1554.78,-314.41 1560.85,-318.328 1566.47,-322.103"/>
<polygon fill="black" stroke="black" points="1564.6,-325.062 1574.83,-327.823 1568.56,-319.286 1564.6,-325.062"/>
<text text-anchor="middle" x="1526" y="-314.8" font-family="Times,serif" font-size="14.00">u0001</text>
</g>
<!-- 20 -->
<g id="node14" class="node"><title>20</title>
<ellipse fill="none" stroke="black" cx="1078" cy="-183" rx="18" ry="18"/>
</g>
<!-- 18&#45;&gt;20 -->
<g id="edge22" class="edge"><title>18&#45;&gt;20</title>
<path fill="none" stroke="black" d="M968.256,-183C989.274,-183 1025.03,-183 1049.77,-183"/>
<polygon fill="black" stroke="black" points="1049.95,-186.5 1059.95,-183 1049.95,-179.5 1049.95,-186.5"/>
<text text-anchor="middle" x="1014" y="-186.8" font-family="Times,serif" font-size="14.00">u0003</text>
</g>
<!-- 22 -->
<g id="node15" class="node"><title>22</title>
<ellipse fill="none" stroke="black" cx="1206" cy="-183" rx="18" ry="18"/>
</g>
<!-- 20&#45;&gt;22 -->
<g id="edge23" class="edge"><title>20&#45;&gt;22</title>
<path fill="none" stroke="black" d="M1096.26,-183C1117.27,-183 1153.03,-183 1177.77,-183"/>
<polygon fill="black" stroke="black" points="1177.95,-186.5 1187.95,-183 1177.95,-179.5 1177.95,-186.5"/>
<text text-anchor="middle" x="1142" y="-186.8" font-family="Times,serif" font-size="14.00">u0001</text>
</g>
<!-- 24 -->
<g id="node16" class="node"><title>24</title>
<ellipse fill="none" stroke="black" cx="1334" cy="-183" rx="18" ry="18"/>
</g>
<!-- 22&#45;&gt;24 -->
<g id="edge24" class="edge"><title>22&#45;&gt;24</title>
<path fill="none" stroke="black" d="M1224.26,-183C1245.27,-183 1281.03,-183 1305.77,-183"/>
<polygon fill="black" stroke="black" points="1305.95,-186.5 1315.95,-183 1305.95,-179.5 1305.95,-186.5"/>
<text text-anchor="middle" x="1270" y="-186.8" font-family="Times,serif" font-size="14.00">u0001</text>
</g>
<!-- 24&#45;&gt;15 -->
<g id="edge25" class="edge"><title>24&#45;&gt;15</title>
<path fill="none" stroke="black" d="M1352.09,-182.434C1370.68,-182.654 1400.47,-185.535 1421,-200 1435.13,-209.955 1445.11,-226.624 1451.56,-240.845"/>
<polygon fill="black" stroke="black" points="1448.39,-242.318 1455.48,-250.187 1454.84,-239.611 1448.39,-242.318"/>
<text text-anchor="middle" x="1398" y="-203.8" font-family="Times,serif" font-size="14.00">u0003</text>
</g>
<!-- 12&#45;&gt;5 -->
<g id="edge27" class="edge"><title>12&#45;&gt;5</title>
<path fill="none" stroke="black" d="M716.168,-195.588C735.875,-173.527 779.189,-132 826,-132 826,-132 826,-132 1591,-132 1672.63,-132 1700.26,-253.76 1708.68,-310.06"/>
<polygon fill="black" stroke="black" points="1705.23,-310.658 1710.07,-320.079 1712.16,-309.692 1705.23,-310.658"/>
<text text-anchor="middle" x="1206" y="-135.8" font-family="Times,serif" font-size="14.00">u0002</text>
</g>
<!-- 16 -->
<g id="node18" class="node"><title>16</title>
<ellipse fill="none" stroke="black" cx="827" cy="-275" rx="18" ry="18"/>
</g>
<!-- 12&#45;&gt;16 -->
<g id="edge26" class="edge"><title>12&#45;&gt;16</title>
<path fill="none" stroke="black" d="M721.972,-206.263C740.453,-204.203 770.153,-203.675 791,-217 804.424,-225.581 800.754,-234.368 809,-248 809.677,-249.12 810.374,-250.263 811.082,-251.415"/>
<polygon fill="black" stroke="black" points="808.296,-253.564 816.551,-260.205 814.24,-249.865 808.296,-253.564"/>
<text text-anchor="middle" x="768" y="-220.8" font-family="Times,serif" font-size="14.00">u0003</text>
</g>
<!-- 19 -->
<g id="node19" class="node"><title>19</title>
<ellipse fill="none" stroke="black" cx="950" cy="-275" rx="18" ry="18"/>
</g>
<!-- 16&#45;&gt;19 -->
<g id="edge28" class="edge"><title>16&#45;&gt;19</title>
<path fill="none" stroke="black" d="M845.08,-275C864.965,-275 898.077,-275 921.577,-275"/>
<polygon fill="black" stroke="black" points="921.615,-278.5 931.615,-275 921.615,-271.5 921.615,-278.5"/>
<text text-anchor="middle" x="886" y="-278.8" font-family="Times,serif" font-size="14.00">u0001</text>
</g>
<!-- 21 -->
<g id="node20" class="node"><title>21</title>
<ellipse fill="none" stroke="black" cx="1078" cy="-275" rx="18" ry="18"/>
</g>
<!-- 19&#45;&gt;21 -->
<g id="edge29" class="edge"><title>19&#45;&gt;21</title>
<path fill="none" stroke="black" d="M968.256,-275C989.274,-275 1025.03,-275 1049.77,-275"/>
<polygon fill="black" stroke="black" points="1049.95,-278.5 1059.95,-275 1049.95,-271.5 1049.95,-278.5"/>
<text text-anchor="middle" x="1014" y="-278.8" font-family="Times,serif" font-size="14.00">u0003</text>
</g>
<!-- 23 -->
<g id="node21" class="node"><title>23</title>
<ellipse fill="none" stroke="black" cx="1206" cy="-277" rx="18" ry="18"/>
</g>
<!-- 21&#45;&gt;23 -->
<g id="edge30" class="edge"><title>21&#45;&gt;23</title>
<path fill="none" stroke="black" d="M1096.26,-275.274C1117.27,-275.608 1153.03,-276.175 1177.77,-276.568"/>
<polygon fill="black" stroke="black" points="1177.9,-280.07 1187.95,-276.729 1178.01,-273.071 1177.9,-280.07"/>
<text text-anchor="middle" x="1142" y="-279.8" font-family="Times,serif" font-size="14.00">u0003</text>
</g>
<!-- 25 -->
<g id="node22" class="node"><title>25</title>
<ellipse fill="none" stroke="black" cx="1334" cy="-313" rx="18" ry="18"/>
</g>
<!-- 23&#45;&gt;25 -->
<g id="edge31" class="edge"><title>23&#45;&gt;25</title>
<path fill="none" stroke="black" d="M1223.47,-281.706C1244.6,-287.743 1281.51,-298.288 1306.58,-305.452"/>
<polygon fill="black" stroke="black" points="1305.95,-308.911 1316.52,-308.292 1307.87,-302.18 1305.95,-308.911"/>
<text text-anchor="middle" x="1270" y="-304.8" font-family="Times,serif" font-size="14.00">u0001</text>
</g>
<!-- 17 -->
<g id="node23" class="node"><title>17</title>
<ellipse fill="none" stroke="black" cx="1462" cy="-338" rx="18" ry="18"/>
</g>
<!-- 25&#45;&gt;17 -->
<g id="edge32" class="edge"><title>25&#45;&gt;17</title>
<path fill="none" stroke="black" d="M1351.73,-316.32C1372.82,-320.504 1409.32,-327.746 1434.28,-332.699"/>
<polygon fill="black" stroke="black" points="1433.71,-336.153 1444.2,-334.666 1435.07,-329.287 1433.71,-336.153"/>
<text text-anchor="middle" x="1398" y="-332.8" font-family="Times,serif" font-size="14.00">u0001</text>
</g>
<!-- 17&#45;&gt;10 -->
<g id="edge33" class="edge"><title>17&#45;&gt;10</title>
<path fill="none" stroke="black" d="M1480.07,-334.868C1487.14,-333.72 1495.44,-332.564 1503,-332 1523.39,-330.479 1528.61,-330.479 1549,-332 1553.14,-332.308 1557.49,-332.794 1561.75,-333.358"/>
<polygon fill="black" stroke="black" points="1561.53,-336.864 1571.93,-334.868 1562.56,-329.94 1561.53,-336.864"/>
<text text-anchor="middle" x="1526" y="-335.8" font-family="Times,serif" font-size="14.00">u0003</text>
</g>
<!-- 6&#45;&gt;10 -->
<g id="edge36" class="edge"><title>6&#45;&gt;10</title>
<path fill="none" stroke="black" d="M1095.7,-490.018C1153.54,-503.012 1349.25,-539.189 1485,-470 1497.1,-463.832 1546.63,-396.792 1572.73,-360.702"/>
<polygon fill="black" stroke="black" points="1575.81,-362.408 1578.82,-352.249 1570.13,-358.314 1575.81,-362.408"/>
<text text-anchor="middle" x="1334" y="-513.8" font-family="Times,serif" font-size="14.00">u0001</text>
</g>
<!-- 6&#45;&gt;5 -->
<g id="edge35" class="edge"><title>6&#45;&gt;5</title>
<path fill="none" stroke="black" d="M1092.9,-496.412C1115.28,-512.104 1161.21,-540 1205,-540 1205,-540 1205,-540 1591,-540 1671.1,-540 1699.47,-421.667 1708.37,-366.14"/>
<polygon fill="black" stroke="black" points="1711.88,-366.334 1709.9,-355.926 1704.96,-365.297 1711.88,-366.334"/>
<text text-anchor="middle" x="1398" y="-543.8" font-family="Times,serif" font-size="14.00">u0002</text>
</g>
<!-- 9 -->
<g id="node25" class="node"><title>9</title>
<ellipse fill="none" stroke="black" cx="1206" cy="-451" rx="18" ry="18"/>
</g>
<!-- 6&#45;&gt;9 -->
<g id="edge34" class="edge"><title>6&#45;&gt;9</title>
<path fill="none" stroke="black" d="M1094.25,-478.148C1101.58,-474.634 1110.58,-470.686 1119,-468 1138.33,-461.829 1160.85,-457.475 1178,-454.719"/>
<polygon fill="black" stroke="black" points="1178.55,-458.176 1187.9,-453.207 1177.49,-451.256 1178.55,-458.176"/>
<text text-anchor="middle" x="1142" y="-471.8" font-family="Times,serif" font-size="14.00">u0003</text>
</g>
<!-- 9&#45;&gt;5 -->
<g id="edge38" class="edge"><title>9&#45;&gt;5</title>
<path fill="none" stroke="black" d="M1224.12,-451C1248.36,-451 1294.06,-451 1333,-451 1333,-451 1333,-451 1591,-451 1642.01,-451 1680.45,-396.688 1699.23,-363.37"/>
<polygon fill="black" stroke="black" points="1702.52,-364.649 1704.21,-354.19 1696.37,-361.311 1702.52,-364.649"/>
<text text-anchor="middle" x="1462" y="-454.8" font-family="Times,serif" font-size="14.00">u0002</text>
</g>
<!-- 13 -->
<g id="node26" class="node"><title>13</title>
<ellipse fill="none" stroke="black" cx="1334" cy="-367" rx="18" ry="18"/>
</g>
<!-- 9&#45;&gt;13 -->
<g id="edge37" class="edge"><title>9&#45;&gt;13</title>
<path fill="none" stroke="black" d="M1220.93,-440.598C1228.55,-434.98 1238.21,-427.989 1247,-422 1267.76,-407.853 1291.9,-392.51 1309.31,-381.633"/>
<polygon fill="black" stroke="black" points="1311.58,-384.34 1318.22,-376.085 1307.88,-378.397 1311.58,-384.34"/>
<text text-anchor="middle" x="1270" y="-425.8" font-family="Times,serif" font-size="14.00">u0003</text>
</g>
<!-- 13&#45;&gt;15 -->
<g id="edge39" class="edge"><title>13&#45;&gt;15</title>
<path fill="none" stroke="black" d="M1346.64,-354.022C1350.19,-349.723 1353.97,-344.806 1357,-340 1366.97,-324.197 1361.42,-314.84 1375,-302 1383.95,-293.538 1412.85,-282.709 1434.7,-275.352"/>
<polygon fill="black" stroke="black" points="1436.04,-278.596 1444.45,-272.142 1433.85,-271.947 1436.04,-278.596"/>
<text text-anchor="middle" x="1398" y="-305.8" font-family="Times,serif" font-size="14.00">u0003</text>
</g>
<!-- 13&#45;&gt;17 -->
<g id="edge40" class="edge"><title>13&#45;&gt;17</title>
<path fill="none" stroke="black" d="M1351.84,-363.423C1369.2,-359.702 1397.04,-353.641 1421,-348 1425.31,-346.985 1429.88,-345.877 1434.32,-344.779"/>
<polygon fill="black" stroke="black" points="1435.43,-348.108 1444.29,-342.287 1433.74,-341.316 1435.43,-348.108"/>
<text text-anchor="middle" x="1398" y="-361.8" font-family="Times,serif" font-size="14.00">u0001</text>
</g>
<!-- initial -->
<g id="node27" class="node"><title>initial</title>
</g>
<!-- initial&#45;&gt;0 -->
<g id="edge41" class="edge"><title>initial&#45;&gt;0</title>
<path fill="none" stroke="black" d="M54.195,-18C62.6538,-18 72.0513,-18 80.5951,-18"/>
<polygon fill="black" stroke="black" points="80.8257,-21.5001 90.8257,-18 80.8257,-14.5001 80.8257,-21.5001"/>
</g>
</g>
</svg>
