<svg width="1489px" height="303px"
 viewBox="0.00 0.00 1117.00 227.00" xmlns="http://www.w3.org/2000/svg" xmlns:xlink="http://www.w3.org/1999/xlink">
<g id="graph0" class="graph" transform="scale(1.000022500562514 1.000022500562514) rotate(0) translate(4 223)">
<title>Automaton</title>
<polygon fill="white" stroke="none" points="-4,4 -4,-223 1113,-223 1113,4 -4,4"/>
<!-- 0 -->
<g id="node1" class="node"><title>0</title>
<ellipse fill="none" stroke="black" cx="109" cy="-189" rx="18" ry="18"/>
</g>
<!-- 1 -->
<g id="node2" class="node"><title>1</title>
<ellipse fill="none" stroke="black" cx="227" cy="-189" rx="18" ry="18"/>
</g>
<!-- 0&#45;&gt;1 -->
<g id="edge1" class="edge"><title>0&#45;&gt;1</title>
<path fill="none" stroke="black" d="M127.116,-189C145.964,-189 176.531,-189 198.696,-189"/>
<polygon fill="black" stroke="black" points="198.814,-192.5 208.814,-189 198.814,-185.5 198.814,-192.5"/>
<text text-anchor="middle" x="168" y="-192.8" font-family="Times,serif" font-size="14.00">u0003</text>
</g>
<!-- 2 -->
<g id="node3" class="node"><title>2</title>
<ellipse fill="none" stroke="black" cx="965" cy="-115" rx="18" ry="18"/>
</g>
<!-- 1&#45;&gt;2 -->
<g id="edge2" class="edge"><title>1&#45;&gt;2</title>
<path fill="none" stroke="black" d="M244.817,-192.555C267.305,-196.99 308.464,-204 344,-204 344,-204 344,-204 843,-204 887.709,-204 926.803,-164.083 947.751,-137.714"/>
<polygon fill="black" stroke="black" points="950.592,-139.762 953.899,-129.697 945.037,-135.502 950.592,-139.762"/>
<text text-anchor="middle" x="586" y="-207.8" font-family="Times,serif" font-size="14.00">u0002</text>
</g>
<!-- 3 -->
<g id="node5" class="node"><title>3</title>
<ellipse fill="none" stroke="black" cx="345" cy="-158" rx="18" ry="18"/>
</g>
<!-- 1&#45;&gt;3 -->
<g id="edge3" class="edge"><title>1&#45;&gt;3</title>
<path fill="none" stroke="black" d="M243.822,-181.994C249.756,-179.547 256.61,-176.932 263,-175 280.656,-169.66 300.973,-165.401 316.843,-162.481"/>
<polygon fill="black" stroke="black" points="317.795,-165.867 327.031,-160.677 316.574,-158.974 317.795,-165.867"/>
<text text-anchor="middle" x="286" y="-178.8" font-family="Times,serif" font-size="14.00">u0001</text>
</g>
<!-- 4 -->
<g id="node4" class="node"><title>4</title>
<ellipse fill="none" stroke="black" cx="1087" cy="-115" rx="18" ry="18"/>
<ellipse fill="none" stroke="black" cx="1087" cy="-115" rx="22" ry="22"/>
</g>
<!-- 2&#45;&gt;4 -->
<g id="edge4" class="edge"><title>2&#45;&gt;4</title>
<path fill="none" stroke="black" d="M983.193,-115C1001.77,-115 1031.76,-115 1054.57,-115"/>
<polygon fill="black" stroke="black" points="1054.79,-118.5 1064.79,-115 1054.79,-111.5 1054.79,-118.5"/>
<text text-anchor="middle" x="1024" y="-118.8" font-family="Times,serif" font-size="14.00">u0000</text>
</g>
<!-- 3&#45;&gt;2 -->
<g id="edge5" class="edge"><title>3&#45;&gt;2</title>
<path fill="none" stroke="black" d="M363.295,-158C385.962,-158 426.958,-158 462,-158 462,-158 462,-158 843,-158 878.466,-158 916.578,-141.395 940.353,-128.823"/>
<polygon fill="black" stroke="black" points="942.231,-131.785 949.319,-123.91 938.867,-125.646 942.231,-131.785"/>
<text text-anchor="middle" x="650" y="-161.8" font-family="Times,serif" font-size="14.00">u0002</text>
</g>
<!-- 5 -->
<g id="node6" class="node"><title>5</title>
<ellipse fill="none" stroke="black" cx="463" cy="-112" rx="18" ry="18"/>
</g>
<!-- 3&#45;&gt;5 -->
<g id="edge6" class="edge"><title>3&#45;&gt;5</title>
<path fill="none" stroke="black" d="M358.235,-145.331C364.521,-139.523 372.613,-133.045 381,-129 397.88,-120.858 418.586,-116.6 434.837,-114.381"/>
<polygon fill="black" stroke="black" points="435.272,-117.854 444.788,-113.198 434.445,-110.903 435.272,-117.854"/>
<text text-anchor="middle" x="404" y="-132.8" font-family="Times,serif" font-size="14.00">u0001</text>
</g>
<!-- 5&#45;&gt;2 -->
<g id="edge7" class="edge"><title>5&#45;&gt;2</title>
<path fill="none" stroke="black" d="M481.229,-112.696C504.694,-113.582 548.016,-115 585,-115 585,-115 585,-115 843,-115 875.206,-115 912.234,-115 936.758,-115"/>
<polygon fill="black" stroke="black" points="936.768,-118.5 946.768,-115 936.768,-111.5 936.768,-118.5"/>
<text text-anchor="middle" x="714" y="-118.8" font-family="Times,serif" font-size="14.00">u0002</text>
</g>
<!-- 6 -->
<g id="node7" class="node"><title>6</title>
<ellipse fill="none" stroke="black" cx="586" cy="-67" rx="18" ry="18"/>
</g>
<!-- 5&#45;&gt;6 -->
<g id="edge8" class="edge"><title>5&#45;&gt;6</title>
<path fill="none" stroke="black" d="M477.114,-100.183C483.351,-95.1307 491.15,-89.583 499,-86 517.661,-77.4826 540.382,-72.6744 557.782,-70.0268"/>
<polygon fill="black" stroke="black" points="558.414,-73.4729 567.845,-68.6437 557.461,-66.5381 558.414,-73.4729"/>
<text text-anchor="middle" x="522" y="-89.8" font-family="Times,serif" font-size="14.00">u0001</text>
</g>
<!-- 7 -->
<g id="node8" class="node"><title>7</title>
<ellipse fill="none" stroke="black" cx="714" cy="-61" rx="18" ry="18"/>
</g>
<!-- 6&#45;&gt;7 -->
<g id="edge9" class="edge"><title>6&#45;&gt;7</title>
<path fill="none" stroke="black" d="M603.993,-66.1908C624.941,-65.1933 660.811,-63.4852 685.654,-62.3022"/>
<polygon fill="black" stroke="black" points="686.052,-65.7873 695.874,-61.8155 685.719,-58.7952 686.052,-65.7873"/>
<text text-anchor="middle" x="650" y="-69.8" font-family="Times,serif" font-size="14.00">u0001</text>
</g>
<!-- 7&#45;&gt;2 -->
<g id="edge10" class="edge"><title>7&#45;&gt;2</title>
<path fill="none" stroke="black" d="M731.986,-62.7647C768.642,-66.877 857.626,-78.5012 929,-101 932.183,-102.003 935.487,-103.163 938.738,-104.376"/>
<polygon fill="black" stroke="black" points="937.566,-107.676 948.153,-108.075 940.126,-101.161 937.566,-107.676"/>
<text text-anchor="middle" x="842" y="-88.8" font-family="Times,serif" font-size="14.00">u0002</text>
</g>
<!-- 8 -->
<g id="node9" class="node"><title>8</title>
<ellipse fill="none" stroke="black" cx="842" cy="-18" rx="18" ry="18"/>
</g>
<!-- 7&#45;&gt;8 -->
<g id="edge11" class="edge"><title>7&#45;&gt;8</title>
<path fill="none" stroke="black" d="M730.367,-53.4772C737.721,-50.0349 746.711,-46.0529 755,-43 774.574,-35.791 797.251,-29.2721 814.402,-24.6997"/>
<polygon fill="black" stroke="black" points="815.5,-28.0304 824.29,-22.1156 813.73,-21.2578 815.5,-28.0304"/>
<text text-anchor="middle" x="778" y="-46.8" font-family="Times,serif" font-size="14.00">u0001</text>
</g>
<!-- 8&#45;&gt;2 -->
<g id="edge12" class="edge"><title>8&#45;&gt;2</title>
<path fill="none" stroke="black" d="M860.098,-18.9273C878.966,-20.7884 909.269,-26.3602 929,-43 942.64,-54.5027 951.401,-72.5746 956.747,-87.7348"/>
<polygon fill="black" stroke="black" points="953.538,-89.1915 959.92,-97.6485 960.205,-87.0575 953.538,-89.1915"/>
<text text-anchor="middle" x="906" y="-46.8" font-family="Times,serif" font-size="14.00">u0002</text>
</g>
<!-- initial -->
<g id="node10" class="node"><title>initial</title>
</g>
<!-- initial&#45;&gt;0 -->
<g id="edge13" class="edge"><title>initial&#45;&gt;0</title>
<path fill="none" stroke="black" d="M54.195,-189C62.6538,-189 72.0513,-189 80.5951,-189"/>
<polygon fill="black" stroke="black" points="80.8257,-192.5 90.8257,-189 80.8257,-185.5 80.8257,-192.5"/>
</g>
</g>
</svg>
