<svg width="3583px" height="1364px"
 viewBox="0.00 0.00 2687.00 1023.00" xmlns="http://www.w3.org/2000/svg" xmlns:xlink="http://www.w3.org/1999/xlink">
<g id="graph0" class="graph" transform="scale(1.000022500562514 1.000022500562514) rotate(0) translate(4 1019)">
<title>Automaton</title>
<polygon fill="white" stroke="none" points="-4,4 -4,-1019 2683,-1019 2683,4 -4,4"/>
<!-- 0 -->
<g id="node1" class="node"><title>0</title>
<ellipse fill="none" stroke="black" cx="109" cy="-741" rx="18" ry="18"/>
</g>
<!-- 1 -->
<g id="node2" class="node"><title>1</title>
<ellipse fill="none" stroke="black" cx="227" cy="-741" rx="18" ry="18"/>
</g>
<!-- 0&#45;&gt;1 -->
<g id="edge1" class="edge"><title>0&#45;&gt;1</title>
<path fill="none" stroke="black" d="M127.116,-741C145.964,-741 176.531,-741 198.696,-741"/>
<polygon fill="black" stroke="black" points="198.814,-744.5 208.814,-741 198.814,-737.5 198.814,-744.5"/>
<text text-anchor="middle" x="168" y="-744.8" font-family="Times,serif" font-size="14.00">u0006</text>
</g>
<!-- 2 -->
<g id="node3" class="node"><title>2</title>
<ellipse fill="none" stroke="black" cx="345" cy="-741" rx="18" ry="18"/>
</g>
<!-- 1&#45;&gt;2 -->
<g id="edge2" class="edge"><title>1&#45;&gt;2</title>
<path fill="none" stroke="black" d="M245.116,-741C263.964,-741 294.531,-741 316.696,-741"/>
<polygon fill="black" stroke="black" points="316.814,-744.5 326.814,-741 316.814,-737.5 316.814,-744.5"/>
<text text-anchor="middle" x="286" y="-744.8" font-family="Times,serif" font-size="14.00">u0005</text>
</g>
<!-- 3 -->
<g id="node4" class="node"><title>3</title>
<ellipse fill="none" stroke="black" cx="463" cy="-741" rx="18" ry="18"/>
</g>
<!-- 2&#45;&gt;3 -->
<g id="edge3" class="edge"><title>2&#45;&gt;3</title>
<path fill="none" stroke="black" d="M363.116,-741C381.964,-741 412.531,-741 434.696,-741"/>
<polygon fill="black" stroke="black" points="434.814,-744.5 444.814,-741 434.814,-737.5 434.814,-744.5"/>
<text text-anchor="middle" x="404" y="-744.8" font-family="Times,serif" font-size="14.00">u0004</text>
</g>
<!-- 4 -->
<g id="node5" class="node"><title>4</title>
<ellipse fill="none" stroke="black" cx="581" cy="-741" rx="18" ry="18"/>
</g>
<!-- 3&#45;&gt;4 -->
<g id="edge4" class="edge"><title>3&#45;&gt;4</title>
<path fill="none" stroke="black" d="M481.116,-741C499.964,-741 530.531,-741 552.696,-741"/>
<polygon fill="black" stroke="black" points="552.814,-744.5 562.814,-741 552.814,-737.5 552.814,-744.5"/>
<text text-anchor="middle" x="522" y="-744.8" font-family="Times,serif" font-size="14.00">u0003</text>
</g>
<!-- 5 -->
<g id="node6" class="node"><title>5</title>
<ellipse fill="none" stroke="black" cx="699" cy="-741" rx="18" ry="18"/>
</g>
<!-- 4&#45;&gt;5 -->
<g id="edge5" class="edge"><title>4&#45;&gt;5</title>
<path fill="none" stroke="black" d="M599.116,-741C617.964,-741 648.531,-741 670.696,-741"/>
<polygon fill="black" stroke="black" points="670.814,-744.5 680.814,-741 670.814,-737.5 670.814,-744.5"/>
<text text-anchor="middle" x="640" y="-744.8" font-family="Times,serif" font-size="14.00">u0000</text>
</g>
<!-- 6 -->
<g id="node7" class="node"><title>6</title>
<ellipse fill="none" stroke="black" cx="817" cy="-741" rx="18" ry="18"/>
</g>
<!-- 5&#45;&gt;6 -->
<g id="edge6" class="edge"><title>5&#45;&gt;6</title>
<path fill="none" stroke="black" d="M717.116,-741C735.964,-741 766.531,-741 788.696,-741"/>
<polygon fill="black" stroke="black" points="788.814,-744.5 798.814,-741 788.814,-737.5 788.814,-744.5"/>
<text text-anchor="middle" x="758" y="-744.8" font-family="Times,serif" font-size="14.00">u0001</text>
</g>
<!-- 7 -->
<g id="node8" class="node"><title>7</title>
<ellipse fill="none" stroke="black" cx="935" cy="-741" rx="18" ry="18"/>
</g>
<!-- 6&#45;&gt;7 -->
<g id="edge7" class="edge"><title>6&#45;&gt;7</title>
<path fill="none" stroke="black" d="M835.116,-741C853.964,-741 884.531,-741 906.696,-741"/>
<polygon fill="black" stroke="black" points="906.814,-744.5 916.814,-741 906.814,-737.5 906.814,-744.5"/>
<text text-anchor="middle" x="876" y="-744.8" font-family="Times,serif" font-size="14.00">u0002</text>
</g>
<!-- 8 -->
<g id="node9" class="node"><title>8</title>
<ellipse fill="none" stroke="black" cx="1053" cy="-741" rx="18" ry="18"/>
</g>
<!-- 7&#45;&gt;8 -->
<g id="edge8" class="edge"><title>7&#45;&gt;8</title>
<path fill="none" stroke="black" d="M953.116,-741C971.964,-741 1002.53,-741 1024.7,-741"/>
<polygon fill="black" stroke="black" points="1024.81,-744.5 1034.81,-741 1024.81,-737.5 1024.81,-744.5"/>
<text text-anchor="middle" x="994" y="-744.8" font-family="Times,serif" font-size="14.00">u0007</text>
</g>
<!-- 9 -->
<g id="node10" class="node"><title>9</title>
<ellipse fill="none" stroke="black" cx="1171" cy="-741" rx="18" ry="18"/>
</g>
<!-- 8&#45;&gt;9 -->
<g id="edge9" class="edge"><title>8&#45;&gt;9</title>
<path fill="none" stroke="black" d="M1071.12,-741C1089.96,-741 1120.53,-741 1142.7,-741"/>
<polygon fill="black" stroke="black" points="1142.81,-744.5 1152.81,-741 1142.81,-737.5 1142.81,-744.5"/>
<text text-anchor="middle" x="1112" y="-744.8" font-family="Times,serif" font-size="14.00">u0008</text>
</g>
<!-- 10 -->
<g id="node11" class="node"><title>10</title>
<ellipse fill="none" stroke="black" cx="2657" cy="-710" rx="18" ry="18"/>
<ellipse fill="none" stroke="black" cx="2657" cy="-710" rx="22" ry="22"/>
</g>
<!-- 9&#45;&gt;10 -->
<g id="edge10" class="edge"><title>9&#45;&gt;10</title>
<path fill="none" stroke="black" d="M1171.83,-759.212C1172.3,-818.166 1182.32,-1000 1288,-1000 1288,-1000 1288,-1000 2536,-1000 2646.36,-1000 2657.21,-818.475 2656.92,-742.659"/>
<polygon fill="black" stroke="black" points="2660.42,-742.236 2656.81,-732.274 2653.42,-742.311 2660.42,-742.236"/>
<text text-anchor="middle" x="1902" y="-1003.8" font-family="Times,serif" font-size="14.00">u0009</text>
</g>
<!-- 11 -->
<g id="node12" class="node"><title>11</title>
<ellipse fill="none" stroke="black" cx="1289" cy="-793" rx="18" ry="18"/>
</g>
<!-- 9&#45;&gt;11 -->
<g id="edge11" class="edge"><title>9&#45;&gt;11</title>
<path fill="none" stroke="black" d="M1187.64,-748.013C1206.93,-756.658 1239.95,-771.462 1262.82,-781.714"/>
<polygon fill="black" stroke="black" points="1261.68,-785.035 1272.23,-785.932 1264.54,-778.648 1261.68,-785.035"/>
<text text-anchor="middle" x="1230" y="-779.8" font-family="Times,serif" font-size="14.00">u000c</text>
</g>
<!-- 12 -->
<g id="node34" class="node"><title>12</title>
<ellipse fill="none" stroke="black" cx="1289" cy="-641" rx="18" ry="18"/>
</g>
<!-- 9&#45;&gt;12 -->
<g id="edge12" class="edge"><title>9&#45;&gt;12</title>
<path fill="none" stroke="black" d="M1185.31,-729.529C1205.32,-712.274 1243.36,-679.485 1267.1,-659.017"/>
<polygon fill="black" stroke="black" points="1269.56,-661.518 1274.85,-652.337 1264.99,-656.216 1269.56,-661.518"/>
<text text-anchor="middle" x="1230" y="-712.8" font-family="Times,serif" font-size="14.00">u000b</text>
</g>
<!-- 13 -->
<g id="node52" class="node"><title>13</title>
<ellipse fill="none" stroke="black" cx="1779" cy="-158" rx="18" ry="18"/>
</g>
<!-- 9&#45;&gt;13 -->
<g id="edge13" class="edge"><title>9&#45;&gt;13</title>
<path fill="none" stroke="black" d="M1173.02,-722.916C1179.44,-612.88 1216.41,-38 1288,-38 1288,-38 1288,-38 1657.5,-38 1710.66,-38 1748.66,-97.3725 1766.52,-132.592"/>
<polygon fill="black" stroke="black" points="1763.49,-134.363 1771.02,-141.816 1769.78,-131.294 1763.49,-134.363"/>
<text text-anchor="middle" x="1465" y="-41.8" font-family="Times,serif" font-size="14.00">u000a</text>
</g>
<!-- 11&#45;&gt;10 -->
<g id="edge14" class="edge"><title>11&#45;&gt;10</title>
<path fill="none" stroke="black" d="M1293.71,-810.536C1303.66,-852.264 1335.1,-954 1405,-954 1405,-954 1405,-954 2536,-954 2629.24,-954 2650.03,-808.767 2654.67,-742.396"/>
<polygon fill="black" stroke="black" points="2658.18,-742.28 2655.3,-732.084 2651.2,-741.85 2658.18,-742.28"/>
<text text-anchor="middle" x="1966" y="-957.8" font-family="Times,serif" font-size="14.00">u0009</text>
</g>
<!-- 14 -->
<g id="node13" class="node"><title>14</title>
<ellipse fill="none" stroke="black" cx="1406" cy="-857" rx="18" ry="18"/>
</g>
<!-- 11&#45;&gt;14 -->
<g id="edge15" class="edge"><title>11&#45;&gt;14</title>
<path fill="none" stroke="black" d="M1305.03,-801.367C1324.41,-812.147 1358.3,-831.012 1381.19,-843.752"/>
<polygon fill="black" stroke="black" points="1379.52,-846.826 1389.96,-848.631 1382.93,-840.71 1379.52,-846.826"/>
<text text-anchor="middle" x="1347.5" y="-839.8" font-family="Times,serif" font-size="14.00">u000c</text>
</g>
<!-- 15 -->
<g id="node23" class="node"><title>15</title>
<ellipse fill="none" stroke="black" cx="1779" cy="-576" rx="18" ry="18"/>
</g>
<!-- 11&#45;&gt;15 -->
<g id="edge16" class="edge"><title>11&#45;&gt;15</title>
<path fill="none" stroke="black" d="M1306.01,-786.545C1311.97,-784.157 1318.79,-781.439 1325,-779 1510.31,-706.252 1581.19,-733.974 1743,-618 1750.16,-612.868 1756.73,-605.937 1762.19,-599.185"/>
<polygon fill="black" stroke="black" points="1765.24,-600.963 1768.49,-590.879 1759.66,-596.736 1765.24,-600.963"/>
<text text-anchor="middle" x="1529" y="-727.8" font-family="Times,serif" font-size="14.00">u000b</text>
</g>
<!-- 16 -->
<g id="node31" class="node"><title>16</title>
<ellipse fill="none" stroke="black" cx="2030" cy="-793" rx="18" ry="18"/>
</g>
<!-- 11&#45;&gt;16 -->
<g id="edge17" class="edge"><title>11&#45;&gt;16</title>
<path fill="none" stroke="black" d="M1307.15,-793C1329.62,-793 1370.26,-793 1405,-793 1405,-793 1405,-793 1903,-793 1937.07,-793 1976.32,-793 2001.84,-793"/>
<polygon fill="black" stroke="black" points="2001.88,-796.5 2011.88,-793 2001.88,-789.5 2001.88,-796.5"/>
<text text-anchor="middle" x="1656.5" y="-796.8" font-family="Times,serif" font-size="14.00">u000a</text>
</g>
<!-- 14&#45;&gt;10 -->
<g id="edge18" class="edge"><title>14&#45;&gt;10</title>
<path fill="none" stroke="black" d="M1420.64,-867.669C1442.16,-883.406 1485.9,-911 1528,-911 1528,-911 1528,-911 1967,-911 2051.23,-911 2072.27,-914 2156.5,-914 2156.5,-914 2156.5,-914 2536,-914 2580.02,-914 2591.84,-893.12 2617,-857 2641.07,-822.45 2650.28,-773.901 2653.81,-742.202"/>
<polygon fill="black" stroke="black" points="2657.31,-742.437 2654.8,-732.142 2650.34,-741.75 2657.31,-742.437"/>
<text text-anchor="middle" x="2030" y="-915.8" font-family="Times,serif" font-size="14.00">u0009</text>
</g>
<!-- 23 -->
<g id="node14" class="node"><title>23</title>
<ellipse fill="none" stroke="black" cx="1529" cy="-857" rx="18" ry="18"/>
</g>
<!-- 14&#45;&gt;23 -->
<g id="edge19" class="edge"><title>14&#45;&gt;23</title>
<path fill="none" stroke="black" d="M1424.08,-857C1443.96,-857 1477.08,-857 1500.58,-857"/>
<polygon fill="black" stroke="black" points="1500.62,-860.5 1510.62,-857 1500.62,-853.5 1500.62,-860.5"/>
<text text-anchor="middle" x="1465" y="-860.8" font-family="Times,serif" font-size="14.00">u000c</text>
</g>
<!-- 36 -->
<g id="node15" class="node"><title>36</title>
<ellipse fill="none" stroke="black" cx="1656.5" cy="-857" rx="18" ry="18"/>
</g>
<!-- 23&#45;&gt;36 -->
<g id="edge20" class="edge"><title>23&#45;&gt;36</title>
<path fill="none" stroke="black" d="M1547.19,-857C1568.01,-857 1603.34,-857 1627.97,-857"/>
<polygon fill="black" stroke="black" points="1628.12,-860.5 1638.12,-857 1628.12,-853.5 1628.12,-860.5"/>
<text text-anchor="middle" x="1593" y="-860.8" font-family="Times,serif" font-size="14.00">u000b</text>
</g>
<!-- 43 -->
<g id="node16" class="node"><title>43</title>
<ellipse fill="none" stroke="black" cx="1779" cy="-857" rx="18" ry="18"/>
</g>
<!-- 36&#45;&gt;43 -->
<g id="edge21" class="edge"><title>36&#45;&gt;43</title>
<path fill="none" stroke="black" d="M1674.51,-857C1694.22,-857 1726.99,-857 1750.37,-857"/>
<polygon fill="black" stroke="black" points="1750.69,-860.5 1760.69,-857 1750.69,-853.5 1750.69,-860.5"/>
<text text-anchor="middle" x="1720" y="-860.8" font-family="Times,serif" font-size="14.00">u000a</text>
</g>
<!-- 48 -->
<g id="node17" class="node"><title>48</title>
<ellipse fill="none" stroke="black" cx="1902" cy="-857" rx="18" ry="18"/>
</g>
<!-- 43&#45;&gt;48 -->
<g id="edge22" class="edge"><title>43&#45;&gt;48</title>
<path fill="none" stroke="black" d="M1797.08,-857C1816.96,-857 1850.08,-857 1873.58,-857"/>
<polygon fill="black" stroke="black" points="1873.62,-860.5 1883.62,-857 1873.62,-853.5 1873.62,-860.5"/>
<text text-anchor="middle" x="1838" y="-860.8" font-family="Times,serif" font-size="14.00">u000b</text>
</g>
<!-- 51 -->
<g id="node18" class="node"><title>51</title>
<ellipse fill="none" stroke="black" cx="2030" cy="-857" rx="18" ry="18"/>
</g>
<!-- 48&#45;&gt;51 -->
<g id="edge23" class="edge"><title>48&#45;&gt;51</title>
<path fill="none" stroke="black" d="M1920.26,-857C1941.27,-857 1977.03,-857 2001.77,-857"/>
<polygon fill="black" stroke="black" points="2001.95,-860.5 2011.95,-857 2001.95,-853.5 2001.95,-860.5"/>
<text text-anchor="middle" x="1966" y="-860.8" font-family="Times,serif" font-size="14.00">u000b</text>
</g>
<!-- 54 -->
<g id="node19" class="node"><title>54</title>
<ellipse fill="none" stroke="black" cx="2157.5" cy="-830" rx="18" ry="18"/>
</g>
<!-- 51&#45;&gt;54 -->
<g id="edge24" class="edge"><title>51&#45;&gt;54</title>
<path fill="none" stroke="black" d="M2047.67,-853.415C2068.67,-848.896 2105.02,-841.075 2129.89,-835.725"/>
<polygon fill="black" stroke="black" points="2130.73,-839.125 2139.77,-833.6 2129.25,-832.282 2130.73,-839.125"/>
<text text-anchor="middle" x="2094" y="-851.8" font-family="Times,serif" font-size="14.00">u000b</text>
</g>
<!-- 57 -->
<g id="node20" class="node"><title>57</title>
<ellipse fill="none" stroke="black" cx="2285" cy="-778" rx="18" ry="18"/>
</g>
<!-- 54&#45;&gt;57 -->
<g id="edge25" class="edge"><title>54&#45;&gt;57</title>
<path fill="none" stroke="black" d="M2174.39,-823.414C2195.59,-814.632 2233.35,-798.985 2258.54,-788.549"/>
<polygon fill="black" stroke="black" points="2259.94,-791.758 2267.84,-784.697 2257.26,-785.291 2259.94,-791.758"/>
<text text-anchor="middle" x="2221" y="-816.8" font-family="Times,serif" font-size="14.00">u000b</text>
</g>
<!-- 33 -->
<g id="node21" class="node"><title>33</title>
<ellipse fill="none" stroke="black" cx="2413" cy="-598" rx="18" ry="18"/>
</g>
<!-- 57&#45;&gt;33 -->
<g id="edge26" class="edge"><title>57&#45;&gt;33</title>
<path fill="none" stroke="black" d="M2296.1,-763.574C2317.94,-732.372 2369.72,-658.401 2396.04,-620.797"/>
<polygon fill="black" stroke="black" points="2398.99,-622.694 2401.85,-612.495 2393.25,-618.68 2398.99,-622.694"/>
<text text-anchor="middle" x="2349" y="-723.8" font-family="Times,serif" font-size="14.00">u000b</text>
</g>
<!-- 35 -->
<g id="node22" class="node"><title>35</title>
<ellipse fill="none" stroke="black" cx="2535" cy="-397" rx="18" ry="18"/>
</g>
<!-- 33&#45;&gt;35 -->
<g id="edge27" class="edge"><title>33&#45;&gt;35</title>
<path fill="none" stroke="black" d="M2423.02,-582.892C2443.75,-548.177 2494.9,-462.497 2519.85,-420.698"/>
<polygon fill="black" stroke="black" points="2522.92,-422.389 2525.04,-412.009 2516.91,-418.801 2522.92,-422.389"/>
<text text-anchor="middle" x="2476.5" y="-531.8" font-family="Times,serif" font-size="14.00">u000c</text>
</g>
<!-- 35&#45;&gt;10 -->
<g id="edge28" class="edge"><title>35&#45;&gt;10</title>
<path fill="none" stroke="black" d="M2542.45,-413.828C2561.81,-464.331 2619.61,-615.089 2644.45,-679.871"/>
<polygon fill="black" stroke="black" points="2641.29,-681.417 2648.14,-689.501 2647.83,-678.911 2641.29,-681.417"/>
<text text-anchor="middle" x="2594" y="-603.8" font-family="Times,serif" font-size="14.00">u0009</text>
</g>
<!-- 24 -->
<g id="node24" class="node"><title>24</title>
<ellipse fill="none" stroke="black" cx="1902" cy="-576" rx="18" ry="18"/>
</g>
<!-- 15&#45;&gt;24 -->
<g id="edge29" class="edge"><title>15&#45;&gt;24</title>
<path fill="none" stroke="black" d="M1797.08,-576C1816.96,-576 1850.08,-576 1873.58,-576"/>
<polygon fill="black" stroke="black" points="1873.62,-579.5 1883.62,-576 1873.62,-572.5 1873.62,-579.5"/>
<text text-anchor="middle" x="1838" y="-579.8" font-family="Times,serif" font-size="14.00">u000c</text>
</g>
<!-- 25 -->
<g id="node29" class="node"><title>25</title>
<ellipse fill="none" stroke="black" cx="1902" cy="-522" rx="18" ry="18"/>
</g>
<!-- 15&#45;&gt;25 -->
<g id="edge30" class="edge"><title>15&#45;&gt;25</title>
<path fill="none" stroke="black" d="M1795.14,-567.303C1801.24,-563.931 1808.38,-560.134 1815,-557 1834.98,-547.549 1858.22,-538.183 1875.5,-531.521"/>
<polygon fill="black" stroke="black" points="1876.82,-534.764 1884.92,-527.931 1874.33,-528.223 1876.82,-534.764"/>
<text text-anchor="middle" x="1838" y="-560.8" font-family="Times,serif" font-size="14.00">u000b</text>
</g>
<!-- 37 -->
<g id="node25" class="node"><title>37</title>
<ellipse fill="none" stroke="black" cx="2030" cy="-576" rx="18" ry="18"/>
</g>
<!-- 24&#45;&gt;37 -->
<g id="edge31" class="edge"><title>24&#45;&gt;37</title>
<path fill="none" stroke="black" d="M1920.26,-576C1941.27,-576 1977.03,-576 2001.77,-576"/>
<polygon fill="black" stroke="black" points="2001.95,-579.5 2011.95,-576 2001.95,-572.5 2001.95,-579.5"/>
<text text-anchor="middle" x="1966" y="-579.8" font-family="Times,serif" font-size="14.00">u000a</text>
</g>
<!-- 44 -->
<g id="node26" class="node"><title>44</title>
<ellipse fill="none" stroke="black" cx="2157.5" cy="-576" rx="18" ry="18"/>
</g>
<!-- 37&#45;&gt;44 -->
<g id="edge32" class="edge"><title>37&#45;&gt;44</title>
<path fill="none" stroke="black" d="M2048.19,-576C2069.01,-576 2104.34,-576 2128.97,-576"/>
<polygon fill="black" stroke="black" points="2129.12,-579.5 2139.12,-576 2129.12,-572.5 2129.12,-579.5"/>
<text text-anchor="middle" x="2094" y="-579.8" font-family="Times,serif" font-size="14.00">u000a</text>
</g>
<!-- 42 -->
<g id="node27" class="node"><title>42</title>
<ellipse fill="none" stroke="black" cx="2285" cy="-493" rx="18" ry="18"/>
</g>
<!-- 44&#45;&gt;42 -->
<g id="edge33" class="edge"><title>44&#45;&gt;42</title>
<path fill="none" stroke="black" d="M2175.77,-575.186C2194.22,-573.543 2223.56,-568.628 2244,-554 2256.47,-545.073 2266.1,-530.938 2272.78,-518.521"/>
<polygon fill="black" stroke="black" points="2275.96,-519.984 2277.31,-509.476 2269.7,-516.849 2275.96,-519.984"/>
<text text-anchor="middle" x="2221" y="-575.8" font-family="Times,serif" font-size="14.00">u000b</text>
</g>
<!-- 29 -->
<g id="node28" class="node"><title>29</title>
<ellipse fill="none" stroke="black" cx="2413" cy="-450" rx="18" ry="18"/>
</g>
<!-- 42&#45;&gt;29 -->
<g id="edge34" class="edge"><title>42&#45;&gt;29</title>
<path fill="none" stroke="black" d="M2302.61,-488.195C2320.02,-483.062 2348.12,-474.511 2372,-466 2376.77,-464.3 2381.81,-462.381 2386.65,-460.477"/>
<polygon fill="black" stroke="black" points="2388.17,-463.639 2396.15,-456.665 2385.56,-457.143 2388.17,-463.639"/>
<text text-anchor="middle" x="2349" y="-484.8" font-family="Times,serif" font-size="14.00">u000c</text>
</g>
<!-- 29&#45;&gt;35 -->
<g id="edge35" class="edge"><title>29&#45;&gt;35</title>
<path fill="none" stroke="black" d="M2429.69,-443.071C2449.9,-434.144 2485.27,-418.521 2509.16,-407.971"/>
<polygon fill="black" stroke="black" points="2510.57,-411.172 2518.31,-403.931 2507.75,-404.769 2510.57,-411.172"/>
<text text-anchor="middle" x="2476.5" y="-435.8" font-family="Times,serif" font-size="14.00">u000a</text>
</g>
<!-- 38 -->
<g id="node30" class="node"><title>38</title>
<ellipse fill="none" stroke="black" cx="2094" cy="-524" rx="18" ry="18"/>
</g>
<!-- 25&#45;&gt;38 -->
<g id="edge36" class="edge"><title>25&#45;&gt;38</title>
<path fill="none" stroke="black" d="M1920.2,-522.181C1953.33,-522.53 2026.25,-523.297 2065.95,-523.715"/>
<polygon fill="black" stroke="black" points="2065.94,-527.215 2075.98,-523.821 2066.02,-520.216 2065.94,-527.215"/>
<text text-anchor="middle" x="1966" y="-526.8" font-family="Times,serif" font-size="14.00">u000a</text>
</g>
<!-- 38&#45;&gt;42 -->
<g id="edge37" class="edge"><title>38&#45;&gt;42</title>
<path fill="none" stroke="black" d="M2112.11,-521.194C2145.07,-515.788 2217.61,-503.89 2257.1,-497.413"/>
<polygon fill="black" stroke="black" points="2257.77,-500.85 2267.07,-495.777 2256.63,-493.942 2257.77,-500.85"/>
<text text-anchor="middle" x="2157.5" y="-521.8" font-family="Times,serif" font-size="14.00">u000c</text>
</g>
<!-- 16&#45;&gt;10 -->
<g id="edge38" class="edge"><title>16&#45;&gt;10</title>
<path fill="none" stroke="black" d="M2044.67,-803.489C2063.83,-817.691 2100.23,-842.88 2135,-857 2170.87,-871.566 2181.29,-876 2220,-876 2220,-876 2220,-876 2536,-876 2601.76,-876 2635.13,-789.374 2648.59,-741.277"/>
<polygon fill="black" stroke="black" points="2652.04,-741.926 2651.24,-731.362 2645.28,-740.121 2652.04,-741.926"/>
<text text-anchor="middle" x="2349" y="-879.8" font-family="Times,serif" font-size="14.00">u0009</text>
</g>
<!-- 26 -->
<g id="node32" class="node"><title>26</title>
<ellipse fill="none" stroke="black" cx="2157.5" cy="-776" rx="18" ry="18"/>
</g>
<!-- 16&#45;&gt;26 -->
<g id="edge39" class="edge"><title>16&#45;&gt;26</title>
<path fill="none" stroke="black" d="M2047.93,-790.707C2068.79,-787.881 2104.52,-783.041 2129.26,-779.69"/>
<polygon fill="black" stroke="black" points="2130,-783.121 2139.44,-778.311 2129.06,-776.185 2130,-783.121"/>
<text text-anchor="middle" x="2094" y="-790.8" font-family="Times,serif" font-size="14.00">u000a</text>
</g>
<!-- 26&#45;&gt;10 -->
<g id="edge40" class="edge"><title>26&#45;&gt;10</title>
<path fill="none" stroke="black" d="M2170.04,-788.991C2177.32,-796.342 2187.34,-805.032 2198,-810 2233.1,-826.356 2245.27,-824 2284,-824 2284,-824 2284,-824 2536,-824 2585.51,-824 2622.74,-772.358 2641.78,-738.59"/>
<polygon fill="black" stroke="black" points="2644.97,-740.055 2646.67,-729.597 2638.82,-736.713 2644.97,-740.055"/>
<text text-anchor="middle" x="2413" y="-827.8" font-family="Times,serif" font-size="14.00">u0009</text>
</g>
<!-- 20 -->
<g id="node33" class="node"><title>20</title>
<ellipse fill="none" stroke="black" cx="2285" cy="-438" rx="18" ry="18"/>
</g>
<!-- 26&#45;&gt;20 -->
<g id="edge41" class="edge"><title>26&#45;&gt;20</title>
<path fill="none" stroke="black" d="M2165.09,-759.442C2169.98,-746.468 2176.4,-727.854 2180,-711 2196.44,-634.108 2162.22,-605.02 2198,-535 2210.46,-510.612 2226.21,-514.821 2244,-494 2253.61,-482.753 2253.42,-478.052 2262,-466 2263.51,-463.885 2265.11,-461.71 2266.74,-459.552"/>
<polygon fill="black" stroke="black" points="2269.64,-461.524 2272.99,-451.475 2264.1,-457.238 2269.64,-461.524"/>
<text text-anchor="middle" x="2221" y="-538.8" font-family="Times,serif" font-size="14.00">u000b</text>
</g>
<!-- 20&#45;&gt;29 -->
<g id="edge42" class="edge"><title>20&#45;&gt;29</title>
<path fill="none" stroke="black" d="M2302.99,-439.618C2323.94,-441.613 2359.81,-445.03 2384.65,-447.396"/>
<polygon fill="black" stroke="black" points="2384.59,-450.905 2394.87,-448.369 2385.25,-443.937 2384.59,-450.905"/>
<text text-anchor="middle" x="2349" y="-450.8" font-family="Times,serif" font-size="14.00">u000a</text>
</g>
<!-- 12&#45;&gt;10 -->
<g id="edge43" class="edge"><title>12&#45;&gt;10</title>
<path fill="none" stroke="black" d="M1303.74,-651.419C1309.98,-655.774 1317.6,-660.601 1325,-664 1436.08,-715.021 1469.76,-730 1592,-730 1592,-730 1592,-730 2095,-730 2327.04,-730 2387.29,-752.799 2617,-720 2619.85,-719.592 2622.8,-719.057 2625.74,-718.444"/>
<polygon fill="black" stroke="black" points="2626.59,-721.839 2635.52,-716.144 2624.99,-715.025 2626.59,-721.839"/>
<text text-anchor="middle" x="1966" y="-733.8" font-family="Times,serif" font-size="14.00">u0009</text>
</g>
<!-- 17 -->
<g id="node35" class="node"><title>17</title>
<ellipse fill="none" stroke="black" cx="1406" cy="-345" rx="18" ry="18"/>
</g>
<!-- 12&#45;&gt;17 -->
<g id="edge44" class="edge"><title>12&#45;&gt;17</title>
<path fill="none" stroke="black" d="M1293.64,-623.435C1299.12,-598.148 1310.42,-550.214 1325,-511 1344.3,-459.097 1374.08,-401.491 1391.34,-369.623"/>
<polygon fill="black" stroke="black" points="1394.55,-371.048 1396.27,-360.594 1388.4,-367.694 1394.55,-371.048"/>
<text text-anchor="middle" x="1347.5" y="-514.8" font-family="Times,serif" font-size="14.00">u000c</text>
</g>
<!-- 18 -->
<g id="node42" class="node"><title>18</title>
<ellipse fill="none" stroke="black" cx="2157.5" cy="-684" rx="18" ry="18"/>
</g>
<!-- 12&#45;&gt;18 -->
<g id="edge45" class="edge"><title>12&#45;&gt;18</title>
<path fill="none" stroke="black" d="M1307.11,-643.681C1364.91,-652.492 1558.21,-680 1719,-680 1719,-680 1719,-680 2031,-680 2064.95,-680 2104.05,-681.481 2129.46,-682.64"/>
<polygon fill="black" stroke="black" points="2129.3,-686.137 2139.45,-683.112 2129.63,-679.144 2129.3,-686.137"/>
<text text-anchor="middle" x="1720" y="-683.8" font-family="Times,serif" font-size="14.00">u000b</text>
</g>
<!-- 19 -->
<g id="node44" class="node"><title>19</title>
<ellipse fill="none" stroke="black" cx="1406" cy="-476" rx="18" ry="18"/>
</g>
<!-- 12&#45;&gt;19 -->
<g id="edge46" class="edge"><title>12&#45;&gt;19</title>
<path fill="none" stroke="black" d="M1300,-626.646C1319.97,-598 1364.9,-533.529 1389.01,-498.946"/>
<polygon fill="black" stroke="black" points="1392.09,-500.644 1394.94,-490.438 1386.35,-496.641 1392.09,-500.644"/>
<text text-anchor="middle" x="1347.5" y="-591.8" font-family="Times,serif" font-size="14.00">u000a</text>
</g>
<!-- 17&#45;&gt;10 -->
<g id="edge47" class="edge"><title>17&#45;&gt;10</title>
<path fill="none" stroke="black" d="M1412.73,-327.891C1437.21,-258.278 1540.13,-0 1719,-0 1719,-0 1719,-0 2536,-0 2577.62,-0 2595.18,-11.5579 2617,-47 2650.26,-101.022 2655.16,-552.181 2655.88,-677.704"/>
<polygon fill="black" stroke="black" points="2652.38,-677.85 2655.93,-687.832 2659.38,-677.814 2652.38,-677.85"/>
<text text-anchor="middle" x="2030" y="-3.8" font-family="Times,serif" font-size="14.00">u0009</text>
</g>
<!-- 27 -->
<g id="node36" class="node"><title>27</title>
<ellipse fill="none" stroke="black" cx="1529" cy="-345" rx="18" ry="18"/>
</g>
<!-- 17&#45;&gt;27 -->
<g id="edge48" class="edge"><title>17&#45;&gt;27</title>
<path fill="none" stroke="black" d="M1424.08,-345C1443.96,-345 1477.08,-345 1500.58,-345"/>
<polygon fill="black" stroke="black" points="1500.62,-348.5 1510.62,-345 1500.62,-341.5 1500.62,-348.5"/>
<text text-anchor="middle" x="1465" y="-348.8" font-family="Times,serif" font-size="14.00">u000a</text>
</g>
<!-- 39 -->
<g id="node37" class="node"><title>39</title>
<ellipse fill="none" stroke="black" cx="1656.5" cy="-345" rx="18" ry="18"/>
</g>
<!-- 27&#45;&gt;39 -->
<g id="edge49" class="edge"><title>27&#45;&gt;39</title>
<path fill="none" stroke="black" d="M1547.19,-345C1568.01,-345 1603.34,-345 1627.97,-345"/>
<polygon fill="black" stroke="black" points="1628.12,-348.5 1638.12,-345 1628.12,-341.5 1628.12,-348.5"/>
<text text-anchor="middle" x="1593" y="-348.8" font-family="Times,serif" font-size="14.00">u000a</text>
</g>
<!-- 45 -->
<g id="node38" class="node"><title>45</title>
<ellipse fill="none" stroke="black" cx="1779" cy="-345" rx="18" ry="18"/>
</g>
<!-- 39&#45;&gt;45 -->
<g id="edge50" class="edge"><title>39&#45;&gt;45</title>
<path fill="none" stroke="black" d="M1674.51,-345C1694.22,-345 1726.99,-345 1750.37,-345"/>
<polygon fill="black" stroke="black" points="1750.69,-348.5 1760.69,-345 1750.69,-341.5 1750.69,-348.5"/>
<text text-anchor="middle" x="1720" y="-348.8" font-family="Times,serif" font-size="14.00">u000c</text>
</g>
<!-- 49 -->
<g id="node39" class="node"><title>49</title>
<ellipse fill="none" stroke="black" cx="1902" cy="-345" rx="18" ry="18"/>
</g>
<!-- 45&#45;&gt;49 -->
<g id="edge51" class="edge"><title>45&#45;&gt;49</title>
<path fill="none" stroke="black" d="M1797.08,-345C1816.96,-345 1850.08,-345 1873.58,-345"/>
<polygon fill="black" stroke="black" points="1873.62,-348.5 1883.62,-345 1873.62,-341.5 1873.62,-348.5"/>
<text text-anchor="middle" x="1838" y="-348.8" font-family="Times,serif" font-size="14.00">u000b</text>
</g>
<!-- 52 -->
<g id="node40" class="node"><title>52</title>
<ellipse fill="none" stroke="black" cx="2030" cy="-395" rx="18" ry="18"/>
</g>
<!-- 49&#45;&gt;52 -->
<g id="edge52" class="edge"><title>49&#45;&gt;52</title>
<path fill="none" stroke="black" d="M1918.96,-351.333C1940.24,-359.777 1978.15,-374.823 2003.44,-384.857"/>
<polygon fill="black" stroke="black" points="2002.19,-388.126 2012.77,-388.561 2004.77,-381.619 2002.19,-388.126"/>
<text text-anchor="middle" x="1966" y="-382.8" font-family="Times,serif" font-size="14.00">u000a</text>
</g>
<!-- 55 -->
<g id="node41" class="node"><title>55</title>
<ellipse fill="none" stroke="black" cx="2157.5" cy="-395" rx="18" ry="18"/>
</g>
<!-- 52&#45;&gt;55 -->
<g id="edge53" class="edge"><title>52&#45;&gt;55</title>
<path fill="none" stroke="black" d="M2048.19,-395C2069.01,-395 2104.34,-395 2128.97,-395"/>
<polygon fill="black" stroke="black" points="2129.12,-398.5 2139.12,-395 2129.12,-391.5 2129.12,-398.5"/>
<text text-anchor="middle" x="2094" y="-398.8" font-family="Times,serif" font-size="14.00">u000c</text>
</g>
<!-- 55&#45;&gt;20 -->
<g id="edge54" class="edge"><title>55&#45;&gt;20</title>
<path fill="none" stroke="black" d="M2173.55,-403.546C2180.78,-407.412 2189.67,-411.817 2198,-415 2217.37,-422.401 2240.05,-428.362 2257.26,-432.359"/>
<polygon fill="black" stroke="black" points="2256.67,-435.812 2267.19,-434.589 2258.2,-428.982 2256.67,-435.812"/>
<text text-anchor="middle" x="2221" y="-432.8" font-family="Times,serif" font-size="14.00">u000c</text>
</g>
<!-- 18&#45;&gt;10 -->
<g id="edge55" class="edge"><title>18&#45;&gt;10</title>
<path fill="none" stroke="black" d="M2175.36,-687.067C2182.34,-688.205 2190.54,-689.372 2198,-690 2275.07,-696.489 2294.71,-690.022 2372,-693 2463.93,-696.542 2572.42,-703.929 2624.71,-707.691"/>
<polygon fill="black" stroke="black" points="2624.77,-711.204 2634.99,-708.436 2625.27,-704.222 2624.77,-711.204"/>
<text text-anchor="middle" x="2413" y="-699.8" font-family="Times,serif" font-size="14.00">u0009</text>
</g>
<!-- 18&#45;&gt;29 -->
<g id="edge57" class="edge"><title>18&#45;&gt;29</title>
<path fill="none" stroke="black" d="M2169.71,-670.471C2173.11,-666.228 2176.79,-661.481 2180,-657 2188.62,-644.976 2187.89,-639.804 2198,-629 2230.88,-593.849 2337.34,-533.404 2372,-500 2380.61,-491.698 2389.05,-481.541 2395.94,-472.555"/>
<polygon fill="black" stroke="black" points="2398.85,-474.506 2402.03,-464.398 2393.24,-470.32 2398.85,-474.506"/>
<text text-anchor="middle" x="2285" y="-582.8" font-family="Times,serif" font-size="14.00">u000b</text>
</g>
<!-- 28 -->
<g id="node43" class="node"><title>28</title>
<ellipse fill="none" stroke="black" cx="2285" cy="-639" rx="18" ry="18"/>
</g>
<!-- 18&#45;&gt;28 -->
<g id="edge56" class="edge"><title>18&#45;&gt;28</title>
<path fill="none" stroke="black" d="M2174.98,-678.699C2192.27,-673.073 2220.18,-663.797 2244,-655 2248.75,-653.246 2253.78,-651.301 2258.62,-649.389"/>
<polygon fill="black" stroke="black" points="2260.14,-652.552 2268.11,-645.581 2257.53,-646.055 2260.14,-652.552"/>
<text text-anchor="middle" x="2221" y="-674.8" font-family="Times,serif" font-size="14.00">u000c</text>
</g>
<!-- 28&#45;&gt;33 -->
<g id="edge58" class="edge"><title>28&#45;&gt;33</title>
<path fill="none" stroke="black" d="M2302.21,-633.724C2323.36,-626.843 2360.62,-614.719 2385.8,-606.525"/>
<polygon fill="black" stroke="black" points="2387.02,-609.809 2395.45,-603.386 2384.86,-603.152 2387.02,-609.809"/>
<text text-anchor="middle" x="2349" y="-629.8" font-family="Times,serif" font-size="14.00">u000a</text>
</g>
<!-- 30 -->
<g id="node45" class="node"><title>30</title>
<ellipse fill="none" stroke="black" cx="2285" cy="-303" rx="18" ry="18"/>
</g>
<!-- 19&#45;&gt;30 -->
<g id="edge59" class="edge"><title>19&#45;&gt;30</title>
<path fill="none" stroke="black" d="M1417.56,-461.581C1436.65,-437.33 1479.48,-391 1528,-391 1528,-391 1528,-391 1839,-391 1878.14,-391 1887.75,-384.043 1925,-372 1969.23,-357.699 2076.59,-311.965 2117,-289 2125.58,-284.124 2125.61,-279.036 2135,-276 2177.48,-262.265 2229.16,-278.63 2259.15,-291.207"/>
<polygon fill="black" stroke="black" points="2257.87,-294.472 2268.44,-295.278 2260.68,-288.06 2257.87,-294.472"/>
<text text-anchor="middle" x="1838" y="-394.8" font-family="Times,serif" font-size="14.00">u000c</text>
</g>
<!-- 31 -->
<g id="node46" class="node"><title>31</title>
<ellipse fill="none" stroke="black" cx="1529" cy="-476" rx="18" ry="18"/>
</g>
<!-- 19&#45;&gt;31 -->
<g id="edge60" class="edge"><title>19&#45;&gt;31</title>
<path fill="none" stroke="black" d="M1424.08,-476C1443.96,-476 1477.08,-476 1500.58,-476"/>
<polygon fill="black" stroke="black" points="1500.62,-479.5 1510.62,-476 1500.62,-472.5 1500.62,-479.5"/>
<text text-anchor="middle" x="1465" y="-479.8" font-family="Times,serif" font-size="14.00">u000b</text>
</g>
<!-- 30&#45;&gt;35 -->
<g id="edge61" class="edge"><title>30&#45;&gt;35</title>
<path fill="none" stroke="black" d="M2303.04,-305.268C2340.54,-310.816 2432.18,-327.454 2499,-365 2504.61,-368.152 2510.06,-372.362 2514.92,-376.691"/>
<polygon fill="black" stroke="black" points="2512.82,-379.533 2522.47,-383.92 2517.67,-374.477 2512.82,-379.533"/>
<text text-anchor="middle" x="2413" y="-340.8" font-family="Times,serif" font-size="14.00">u000b</text>
</g>
<!-- 31&#45;&gt;35 -->
<g id="edge63" class="edge"><title>31&#45;&gt;35</title>
<path fill="none" stroke="black" d="M1546.4,-470.141C1570.14,-462.2 1615.61,-449 1655.5,-449 1655.5,-449 1655.5,-449 1967,-449 2062.42,-449 2089.95,-453.581 2180,-422 2188.85,-418.897 2189.17,-414.163 2198,-411 2252.08,-391.618 2268.69,-397.01 2326,-393 2346.39,-391.573 2351.56,-392.748 2372,-393 2419.31,-393.584 2474.37,-395.127 2506.59,-396.117"/>
<polygon fill="black" stroke="black" points="2506.87,-399.627 2516.98,-396.441 2507.09,-392.631 2506.87,-399.627"/>
<text text-anchor="middle" x="2030" y="-453.8" font-family="Times,serif" font-size="14.00">u000a</text>
</g>
<!-- 40 -->
<g id="node47" class="node"><title>40</title>
<ellipse fill="none" stroke="black" cx="1656.5" cy="-524" rx="18" ry="18"/>
</g>
<!-- 31&#45;&gt;40 -->
<g id="edge62" class="edge"><title>31&#45;&gt;40</title>
<path fill="none" stroke="black" d="M1546.15,-482.177C1567.33,-490.277 1604.74,-504.584 1629.82,-514.178"/>
<polygon fill="black" stroke="black" points="1628.82,-517.543 1639.41,-517.847 1631.32,-511.005 1628.82,-517.543"/>
<text text-anchor="middle" x="1593" y="-512.8" font-family="Times,serif" font-size="14.00">u000b</text>
</g>
<!-- 46 -->
<g id="node48" class="node"><title>46</title>
<ellipse fill="none" stroke="black" cx="1779" cy="-630" rx="18" ry="18"/>
</g>
<!-- 40&#45;&gt;46 -->
<g id="edge64" class="edge"><title>40&#45;&gt;46</title>
<path fill="none" stroke="black" d="M1670.86,-535.749C1691.78,-554.152 1732.44,-589.919 1757.21,-611.711"/>
<polygon fill="black" stroke="black" points="1755.13,-614.544 1764.95,-618.521 1759.75,-609.288 1755.13,-614.544"/>
<text text-anchor="middle" x="1720" y="-602.8" font-family="Times,serif" font-size="14.00">u000c</text>
</g>
<!-- 50 -->
<g id="node49" class="node"><title>50</title>
<ellipse fill="none" stroke="black" cx="1902" cy="-630" rx="18" ry="18"/>
</g>
<!-- 46&#45;&gt;50 -->
<g id="edge65" class="edge"><title>46&#45;&gt;50</title>
<path fill="none" stroke="black" d="M1797.08,-630C1816.96,-630 1850.08,-630 1873.58,-630"/>
<polygon fill="black" stroke="black" points="1873.62,-633.5 1883.62,-630 1873.62,-626.5 1873.62,-633.5"/>
<text text-anchor="middle" x="1838" y="-633.8" font-family="Times,serif" font-size="14.00">u000c</text>
</g>
<!-- 53 -->
<g id="node50" class="node"><title>53</title>
<ellipse fill="none" stroke="black" cx="2030" cy="-630" rx="18" ry="18"/>
</g>
<!-- 50&#45;&gt;53 -->
<g id="edge66" class="edge"><title>50&#45;&gt;53</title>
<path fill="none" stroke="black" d="M1920.26,-630C1941.27,-630 1977.03,-630 2001.77,-630"/>
<polygon fill="black" stroke="black" points="2001.95,-633.5 2011.95,-630 2001.95,-626.5 2001.95,-633.5"/>
<text text-anchor="middle" x="1966" y="-633.8" font-family="Times,serif" font-size="14.00">u000a</text>
</g>
<!-- 56 -->
<g id="node51" class="node"><title>56</title>
<ellipse fill="none" stroke="black" cx="2157.5" cy="-630" rx="18" ry="18"/>
</g>
<!-- 53&#45;&gt;56 -->
<g id="edge67" class="edge"><title>53&#45;&gt;56</title>
<path fill="none" stroke="black" d="M2048.19,-630C2069.01,-630 2104.34,-630 2128.97,-630"/>
<polygon fill="black" stroke="black" points="2129.12,-633.5 2139.12,-630 2129.12,-626.5 2129.12,-633.5"/>
<text text-anchor="middle" x="2094" y="-633.8" font-family="Times,serif" font-size="14.00">u000c</text>
</g>
<!-- 56&#45;&gt;28 -->
<g id="edge68" class="edge"><title>56&#45;&gt;28</title>
<path fill="none" stroke="black" d="M2175.69,-631.233C2196.62,-632.734 2232.24,-635.288 2256.88,-637.055"/>
<polygon fill="black" stroke="black" points="2256.8,-640.558 2267.02,-637.782 2257.3,-633.576 2256.8,-640.558"/>
<text text-anchor="middle" x="2221" y="-640.8" font-family="Times,serif" font-size="14.00">u000c</text>
</g>
<!-- 13&#45;&gt;20 -->
<g id="edge69" class="edge"><title>13&#45;&gt;20</title>
<path fill="none" stroke="black" d="M1792.74,-169.773C1799.15,-175.369 1807.19,-181.927 1815,-187 1966.84,-285.647 2038.38,-255.172 2180,-368 2189.88,-375.872 2188.31,-381.89 2198,-390 2208.22,-398.558 2237.9,-414.498 2259.53,-425.653"/>
<polygon fill="black" stroke="black" points="2258.03,-428.813 2268.52,-430.251 2261.21,-422.581 2258.03,-428.813"/>
<text text-anchor="middle" x="2030" y="-294.8" font-family="Times,serif" font-size="14.00">u000c</text>
</g>
<!-- 21 -->
<g id="node53" class="node"><title>21</title>
<ellipse fill="none" stroke="black" cx="1902" cy="-107" rx="18" ry="18"/>
</g>
<!-- 13&#45;&gt;21 -->
<g id="edge70" class="edge"><title>13&#45;&gt;21</title>
<path fill="none" stroke="black" d="M1795.82,-151.333C1816.2,-142.742 1851.87,-127.709 1875.95,-117.557"/>
<polygon fill="black" stroke="black" points="1877.32,-120.778 1885.18,-113.669 1874.6,-114.328 1877.32,-120.778"/>
<text text-anchor="middle" x="1838" y="-146.8" font-family="Times,serif" font-size="14.00">u000b</text>
</g>
<!-- 22 -->
<g id="node57" class="node"><title>22</title>
<ellipse fill="none" stroke="black" cx="2030" cy="-219" rx="18" ry="18"/>
</g>
<!-- 13&#45;&gt;22 -->
<g id="edge71" class="edge"><title>13&#45;&gt;22</title>
<path fill="none" stroke="black" d="M1796.72,-162.097C1839.07,-172.472 1950.82,-199.848 2002.32,-212.464"/>
<polygon fill="black" stroke="black" points="2001.8,-215.941 2012.35,-214.921 2003.47,-209.142 2001.8,-215.941"/>
<text text-anchor="middle" x="1902" y="-196.8" font-family="Times,serif" font-size="14.00">u000a</text>
</g>
<!-- 21&#45;&gt;10 -->
<g id="edge72" class="edge"><title>21&#45;&gt;10</title>
<path fill="none" stroke="black" d="M1916.32,-95.5264C1938.26,-77.8562 1984.04,-46 2029,-46 2029,-46 2029,-46 2536,-46 2577.18,-46 2595.01,-56.1805 2617,-91 2648.47,-140.821 2654.64,-558.003 2655.76,-677.895"/>
<polygon fill="black" stroke="black" points="2652.26,-677.951 2655.85,-687.92 2659.26,-677.889 2652.26,-677.951"/>
<text text-anchor="middle" x="2285" y="-49.8" font-family="Times,serif" font-size="14.00">u0009</text>
</g>
<!-- 32 -->
<g id="node54" class="node"><title>32</title>
<ellipse fill="none" stroke="black" cx="2030" cy="-107" rx="18" ry="18"/>
</g>
<!-- 21&#45;&gt;32 -->
<g id="edge73" class="edge"><title>21&#45;&gt;32</title>
<path fill="none" stroke="black" d="M1920.26,-107C1941.27,-107 1977.03,-107 2001.77,-107"/>
<polygon fill="black" stroke="black" points="2001.95,-110.5 2011.95,-107 2001.95,-103.5 2001.95,-110.5"/>
<text text-anchor="middle" x="1966" y="-110.8" font-family="Times,serif" font-size="14.00">u000a</text>
</g>
<!-- 32&#45;&gt;10 -->
<g id="edge74" class="edge"><title>32&#45;&gt;10</title>
<path fill="none" stroke="black" d="M2047.94,-103.005C2071.95,-97.7023 2117.32,-89 2156.5,-89 2156.5,-89 2156.5,-89 2536,-89 2578.54,-89 2595.18,-103.481 2617,-140 2644.6,-186.192 2653.43,-563.631 2655.48,-677.56"/>
<polygon fill="black" stroke="black" points="2651.99,-677.806 2655.66,-687.743 2658.98,-677.683 2651.99,-677.806"/>
<text text-anchor="middle" x="2349" y="-92.8" font-family="Times,serif" font-size="14.00">u0009</text>
</g>
<!-- 41 -->
<g id="node55" class="node"><title>41</title>
<ellipse fill="none" stroke="black" cx="2157.5" cy="-173" rx="18" ry="18"/>
</g>
<!-- 32&#45;&gt;41 -->
<g id="edge75" class="edge"><title>32&#45;&gt;41</title>
<path fill="none" stroke="black" d="M2046.39,-115.093C2067.75,-126.325 2106.61,-146.761 2131.98,-160.107"/>
<polygon fill="black" stroke="black" points="2130.51,-163.284 2140.99,-164.841 2133.76,-157.089 2130.51,-163.284"/>
<text text-anchor="middle" x="2094" y="-155.8" font-family="Times,serif" font-size="14.00">u000a</text>
</g>
<!-- 47 -->
<g id="node56" class="node"><title>47</title>
<ellipse fill="none" stroke="black" cx="2285" cy="-173" rx="18" ry="18"/>
</g>
<!-- 41&#45;&gt;47 -->
<g id="edge76" class="edge"><title>41&#45;&gt;47</title>
<path fill="none" stroke="black" d="M2175.69,-173C2196.51,-173 2231.84,-173 2256.47,-173"/>
<polygon fill="black" stroke="black" points="2256.62,-176.5 2266.62,-173 2256.62,-169.5 2256.62,-176.5"/>
<text text-anchor="middle" x="2221" y="-176.8" font-family="Times,serif" font-size="14.00">u000a</text>
</g>
<!-- 47&#45;&gt;29 -->
<g id="edge77" class="edge"><title>47&#45;&gt;29</title>
<path fill="none" stroke="black" d="M2296.49,-186.946C2300.36,-192.419 2304.63,-198.853 2308,-205 2349.85,-281.265 2386.39,-377.858 2402.8,-423.636"/>
<polygon fill="black" stroke="black" points="2399.52,-424.87 2406.17,-433.12 2406.12,-422.525 2399.52,-424.87"/>
<text text-anchor="middle" x="2349" y="-346.8" font-family="Times,serif" font-size="14.00">u000b</text>
</g>
<!-- 22&#45;&gt;10 -->
<g id="edge78" class="edge"><title>22&#45;&gt;10</title>
<path fill="none" stroke="black" d="M2044.08,-207.218C2062.83,-190.961 2099.08,-161.866 2135,-146 2170.41,-130.358 2181.29,-127 2220,-127 2220,-127 2220,-127 2536,-127 2649.35,-127 2656.55,-555.133 2656.29,-677.622"/>
<polygon fill="black" stroke="black" points="2652.79,-677.844 2656.25,-687.858 2659.79,-677.872 2652.79,-677.844"/>
<text text-anchor="middle" x="2349" y="-130.8" font-family="Times,serif" font-size="14.00">u0009</text>
</g>
<!-- 22&#45;&gt;33 -->
<g id="edge79" class="edge"><title>22&#45;&gt;33</title>
<path fill="none" stroke="black" d="M2038.82,-234.935C2061.73,-281.526 2127.54,-414.692 2135,-422 2173.49,-459.691 2207.31,-435.562 2244,-475 2258.67,-490.77 2247.54,-504.033 2262,-520 2280.04,-539.922 2349.03,-571.258 2386.85,-587.482"/>
<polygon fill="black" stroke="black" points="2385.61,-590.757 2396.18,-591.45 2388.34,-584.316 2385.61,-590.757"/>
<text text-anchor="middle" x="2221" y="-478.8" font-family="Times,serif" font-size="14.00">u000c</text>
</g>
<!-- 22&#45;&gt;35 -->
<g id="edge81" class="edge"><title>22&#45;&gt;35</title>
<path fill="none" stroke="black" d="M2047.99,-219.977C2084.26,-222.267 2171.87,-228.89 2244,-243 2363.16,-266.31 2406.48,-262.373 2499,-341 2508.8,-349.327 2516.73,-361.105 2522.55,-371.713"/>
<polygon fill="black" stroke="black" points="2519.43,-373.314 2527.11,-380.617 2525.66,-370.122 2519.43,-373.314"/>
<text text-anchor="middle" x="2285" y="-258.8" font-family="Times,serif" font-size="14.00">u000a</text>
</g>
<!-- 34 -->
<g id="node58" class="node"><title>34</title>
<ellipse fill="none" stroke="black" cx="2157.5" cy="-303" rx="18" ry="18"/>
</g>
<!-- 22&#45;&gt;34 -->
<g id="edge80" class="edge"><title>22&#45;&gt;34</title>
<path fill="none" stroke="black" d="M2046.37,-227.136C2063.95,-236.657 2093.33,-253.26 2117,-270 2123.18,-274.368 2129.59,-279.456 2135.4,-284.31"/>
<polygon fill="black" stroke="black" points="2133.52,-287.308 2143.4,-291.143 2138.07,-281.986 2133.52,-287.308"/>
<text text-anchor="middle" x="2094" y="-273.8" font-family="Times,serif" font-size="14.00">u000b</text>
</g>
<!-- 34&#45;&gt;42 -->
<g id="edge82" class="edge"><title>34&#45;&gt;42</title>
<path fill="none" stroke="black" d="M2171.95,-313.825C2190.89,-329.798 2225.2,-361.534 2244,-396 2259.17,-423.824 2247.91,-436.61 2262,-465 2263.15,-467.326 2264.52,-469.642 2266,-471.89"/>
<polygon fill="black" stroke="black" points="2263.3,-474.121 2272.05,-480.09 2268.93,-469.965 2263.3,-474.121"/>
<text text-anchor="middle" x="2221" y="-399.8" font-family="Times,serif" font-size="14.00">u000c</text>
</g>
<!-- 34&#45;&gt;30 -->
<g id="edge83" class="edge"><title>34&#45;&gt;30</title>
<path fill="none" stroke="black" d="M2175.69,-303C2196.51,-303 2231.84,-303 2256.47,-303"/>
<polygon fill="black" stroke="black" points="2256.62,-306.5 2266.62,-303 2256.62,-299.5 2256.62,-306.5"/>
<text text-anchor="middle" x="2221" y="-306.8" font-family="Times,serif" font-size="14.00">u000b</text>
</g>
<!-- initial -->
<g id="node59" class="node"><title>initial</title>
</g>
<!-- initial&#45;&gt;0 -->
<g id="edge84" class="edge"><title>initial&#45;&gt;0</title>
<path fill="none" stroke="black" d="M54.195,-741C62.6538,-741 72.0513,-741 80.5951,-741"/>
<polygon fill="black" stroke="black" points="80.8257,-744.5 90.8257,-741 80.8257,-737.5 80.8257,-744.5"/>
</g>
</g>
</svg>
