<svg width="2460px" height="889px"
 viewBox="0.00 0.00 1845.00 667.00" xmlns="http://www.w3.org/2000/svg" xmlns:xlink="http://www.w3.org/1999/xlink">
<g id="graph0" class="graph" transform="scale(1.000022500562514 1.000022500562514) rotate(0) translate(4 663)">
<title>Automaton</title>
<polygon fill="white" stroke="none" points="-4,4 -4,-663 1841,-663 1841,4 -4,4"/>
<!-- 0 -->
<g id="node1" class="node"><title>0</title>
<ellipse fill="none" stroke="black" cx="109" cy="-614" rx="18" ry="18"/>
</g>
<!-- 1 -->
<g id="node2" class="node"><title>1</title>
<ellipse fill="none" stroke="black" cx="227" cy="-614" rx="18" ry="18"/>
</g>
<!-- 0&#45;&gt;1 -->
<g id="edge1" class="edge"><title>0&#45;&gt;1</title>
<path fill="none" stroke="black" d="M127.116,-614C145.964,-614 176.531,-614 198.696,-614"/>
<polygon fill="black" stroke="black" points="198.814,-617.5 208.814,-614 198.814,-610.5 198.814,-617.5"/>
<text text-anchor="middle" x="168" y="-617.8" font-family="Times,serif" font-size="14.00">u0000</text>
</g>
<!-- 2 -->
<g id="node3" class="node"><title>2</title>
<ellipse fill="none" stroke="black" cx="1815" cy="-584" rx="18" ry="18"/>
<ellipse fill="none" stroke="black" cx="1815" cy="-584" rx="22" ry="22"/>
</g>
<!-- 1&#45;&gt;2 -->
<g id="edge2" class="edge"><title>1&#45;&gt;2</title>
<path fill="none" stroke="black" d="M243.803,-620.807C265.823,-629.659 307.181,-644 344,-644 344,-644 344,-644 1694,-644 1730.14,-644 1766.56,-621.955 1789.64,-604.59"/>
<polygon fill="black" stroke="black" points="1792.07,-607.13 1797.8,-598.219 1787.77,-601.612 1792.07,-607.13"/>
<text text-anchor="middle" x="1004" y="-647.8" font-family="Times,serif" font-size="14.00">u0002</text>
</g>
<!-- 3 -->
<g id="node4" class="node"><title>3</title>
<ellipse fill="none" stroke="black" cx="345" cy="-583" rx="18" ry="18"/>
</g>
<!-- 1&#45;&gt;3 -->
<g id="edge3" class="edge"><title>1&#45;&gt;3</title>
<path fill="none" stroke="black" d="M244.62,-609.558C263.657,-604.471 295.103,-596.067 317.523,-590.076"/>
<polygon fill="black" stroke="black" points="318.654,-593.397 327.411,-587.433 316.846,-586.634 318.654,-593.397"/>
<text text-anchor="middle" x="286" y="-607.8" font-family="Times,serif" font-size="14.00">u0001</text>
</g>
<!-- 4 -->
<g id="node5" class="node"><title>4</title>
<ellipse fill="none" stroke="black" cx="463" cy="-364" rx="18" ry="18"/>
</g>
<!-- 3&#45;&gt;4 -->
<g id="edge4" class="edge"><title>3&#45;&gt;4</title>
<path fill="none" stroke="black" d="M353.947,-567.045C360.967,-553.022 371.531,-532.088 381,-514 404.286,-469.52 432.279,-418.123 448.516,-388.507"/>
<polygon fill="black" stroke="black" points="451.61,-390.144 453.353,-379.694 445.473,-386.776 451.61,-390.144"/>
<text text-anchor="middle" x="404" y="-517.8" font-family="Times,serif" font-size="14.00">u0004</text>
</g>
<!-- 5 -->
<g id="node9" class="node"><title>5</title>
<ellipse fill="none" stroke="black" cx="1693" cy="-433" rx="18" ry="18"/>
</g>
<!-- 3&#45;&gt;5 -->
<g id="edge5" class="edge"><title>3&#45;&gt;5</title>
<path fill="none" stroke="black" d="M362.318,-588.334C384.588,-595.129 425.866,-606 462,-606 462,-606 462,-606 1576,-606 1621.07,-606 1631.03,-581.833 1657,-545 1674.89,-519.619 1683.89,-484.751 1688.24,-460.695"/>
<polygon fill="black" stroke="black" points="1691.7,-461.229 1689.88,-450.792 1684.79,-460.086 1691.7,-461.229"/>
<text text-anchor="middle" x="1004" y="-609.8" font-family="Times,serif" font-size="14.00">u0003</text>
</g>
<!-- 6 -->
<g id="node21" class="node"><title>6</title>
<ellipse fill="none" stroke="black" cx="945" cy="-536" rx="18" ry="18"/>
</g>
<!-- 3&#45;&gt;6 -->
<g id="edge6" class="edge"><title>3&#45;&gt;6</title>
<path fill="none" stroke="black" d="M360.821,-574.321C382.348,-562.556 423.868,-543 462,-543 462,-543 462,-543 828,-543 858.306,-543 892.985,-540.59 916.471,-538.598"/>
<polygon fill="black" stroke="black" points="917.071,-542.059 926.725,-537.695 916.456,-535.086 917.071,-542.059"/>
<text text-anchor="middle" x="640" y="-546.8" font-family="Times,serif" font-size="14.00">u0005</text>
</g>
<!-- 7 -->
<g id="node6" class="node"><title>7</title>
<ellipse fill="none" stroke="black" cx="945" cy="-270" rx="18" ry="18"/>
</g>
<!-- 4&#45;&gt;7 -->
<g id="edge7" class="edge"><title>4&#45;&gt;7</title>
<path fill="none" stroke="black" d="M475.739,-350.645C495.191,-330.078 536.318,-293 580,-293 580,-293 580,-293 828,-293 859.335,-293 894.538,-284.825 917.86,-278.222"/>
<polygon fill="black" stroke="black" points="919.075,-281.513 927.682,-275.334 917.101,-274.797 919.075,-281.513"/>
<text text-anchor="middle" x="704" y="-296.8" font-family="Times,serif" font-size="14.00">u0004</text>
</g>
<!-- 4&#45;&gt;5 -->
<g id="edge8" class="edge"><title>4&#45;&gt;5</title>
<path fill="none" stroke="black" d="M477.749,-374.774C498.606,-390.006 540.054,-416 580,-416 580,-416 580,-416 1197,-416 1243.3,-416 1254.74,-420.015 1301,-422 1437.61,-427.861 1601.21,-431.307 1664.83,-432.511"/>
<polygon fill="black" stroke="black" points="1664.78,-436.011 1674.84,-432.698 1664.91,-429.012 1664.78,-436.011"/>
<text text-anchor="middle" x="1068" y="-419.8" font-family="Times,serif" font-size="14.00">u0003</text>
</g>
<!-- 8 -->
<g id="node14" class="node"><title>8</title>
<ellipse fill="none" stroke="black" cx="581" cy="-67" rx="18" ry="18"/>
</g>
<!-- 4&#45;&gt;8 -->
<g id="edge9" class="edge"><title>4&#45;&gt;8</title>
<path fill="none" stroke="black" d="M469.67,-346.914C476.375,-326.924 488.016,-292.884 499,-264 522.548,-202.075 552.808,-130.341 568.852,-92.8556"/>
<polygon fill="black" stroke="black" points="572.256,-93.7976 572.983,-83.2277 565.823,-91.0375 572.256,-93.7976"/>
<text text-anchor="middle" x="522" y="-267.8" font-family="Times,serif" font-size="14.00">u0005</text>
</g>
<!-- 11 -->
<g id="node7" class="node"><title>11</title>
<ellipse fill="none" stroke="black" cx="1452" cy="-195" rx="18" ry="18"/>
</g>
<!-- 7&#45;&gt;11 -->
<g id="edge10" class="edge"><title>7&#45;&gt;11</title>
<path fill="none" stroke="black" d="M958.14,-257.528C978.614,-237.897 1022.18,-202 1067,-202 1067,-202 1067,-202 1325,-202 1359.12,-202 1398.36,-199.409 1423.86,-197.38"/>
<polygon fill="black" stroke="black" points="1424.22,-200.862 1433.9,-196.554 1423.64,-193.886 1424.22,-200.862"/>
<text text-anchor="middle" x="1196" y="-205.8" font-family="Times,serif" font-size="14.00">u0004</text>
</g>
<!-- 12 -->
<g id="node10" class="node"><title>12</title>
<ellipse fill="none" stroke="black" cx="1068" cy="-270" rx="18" ry="18"/>
</g>
<!-- 7&#45;&gt;12 -->
<g id="edge11" class="edge"><title>7&#45;&gt;12</title>
<path fill="none" stroke="black" d="M963.08,-270C982.965,-270 1016.08,-270 1039.58,-270"/>
<polygon fill="black" stroke="black" points="1039.62,-273.5 1049.62,-270 1039.62,-266.5 1039.62,-273.5"/>
<text text-anchor="middle" x="1004" y="-273.8" font-family="Times,serif" font-size="14.00">u0005</text>
</g>
<!-- 15 -->
<g id="node8" class="node"><title>15</title>
<ellipse fill="none" stroke="black" cx="1575" cy="-222" rx="18" ry="18"/>
</g>
<!-- 11&#45;&gt;15 -->
<g id="edge12" class="edge"><title>11&#45;&gt;15</title>
<path fill="none" stroke="black" d="M1470.05,-196.409C1487.57,-198.128 1515.54,-201.626 1539,-208 1542.22,-208.875 1545.55,-209.957 1548.81,-211.129"/>
<polygon fill="black" stroke="black" points="1547.65,-214.432 1558.23,-214.796 1550.18,-207.908 1547.65,-214.432"/>
<text text-anchor="middle" x="1516" y="-211.8" font-family="Times,serif" font-size="14.00">u0004</text>
</g>
<!-- 15&#45;&gt;5 -->
<g id="edge13" class="edge"><title>15&#45;&gt;5</title>
<path fill="none" stroke="black" d="M1592.78,-226.483C1611.43,-232.369 1641.04,-244.562 1657,-266 1673.15,-287.696 1684.07,-363.409 1689,-405.04"/>
<polygon fill="black" stroke="black" points="1685.54,-405.543 1690.15,-415.079 1692.49,-404.745 1685.54,-405.543"/>
<text text-anchor="middle" x="1634" y="-269.8" font-family="Times,serif" font-size="14.00">u0003</text>
</g>
<!-- 5&#45;&gt;2 -->
<g id="edge14" class="edge"><title>5&#45;&gt;2</title>
<path fill="none" stroke="black" d="M1704.86,-446.667C1724.99,-471.991 1768.35,-526.555 1793.94,-558.761"/>
<polygon fill="black" stroke="black" points="1791.39,-561.172 1800.35,-566.823 1796.87,-556.817 1791.39,-561.172"/>
<text text-anchor="middle" x="1752" y="-534.8" font-family="Times,serif" font-size="14.00">u0002</text>
</g>
<!-- 12&#45;&gt;5 -->
<g id="edge16" class="edge"><title>12&#45;&gt;5</title>
<path fill="none" stroke="black" d="M1085.04,-276.884C1092.23,-279.636 1100.9,-282.503 1109,-284 1139.39,-289.615 1356.1,-292 1387,-292 1387,-292 1387,-292 1576,-295 1633.71,-295 1668.46,-366.582 1683.39,-406.637"/>
<polygon fill="black" stroke="black" points="1680.1,-407.837 1686.76,-416.078 1686.7,-405.484 1680.1,-407.837"/>
<text text-anchor="middle" x="1388" y="-295.8" font-family="Times,serif" font-size="14.00">u0003</text>
</g>
<!-- 16 -->
<g id="node11" class="node"><title>16</title>
<ellipse fill="none" stroke="black" cx="1196" cy="-253" rx="18" ry="18"/>
</g>
<!-- 12&#45;&gt;16 -->
<g id="edge15" class="edge"><title>12&#45;&gt;16</title>
<path fill="none" stroke="black" d="M1085.99,-267.707C1106.94,-264.881 1142.81,-260.041 1167.65,-256.69"/>
<polygon fill="black" stroke="black" points="1168.43,-260.116 1177.87,-255.311 1167.5,-253.179 1168.43,-260.116"/>
<text text-anchor="middle" x="1132" y="-268.8" font-family="Times,serif" font-size="14.00">u0004</text>
</g>
<!-- 19 -->
<g id="node12" class="node"><title>19</title>
<ellipse fill="none" stroke="black" cx="1324" cy="-249" rx="18" ry="18"/>
</g>
<!-- 16&#45;&gt;19 -->
<g id="edge17" class="edge"><title>16&#45;&gt;19</title>
<path fill="none" stroke="black" d="M1213.99,-252.461C1234.94,-251.796 1270.81,-250.657 1295.65,-249.868"/>
<polygon fill="black" stroke="black" points="1295.99,-253.359 1305.87,-249.544 1295.77,-246.363 1295.99,-253.359"/>
<text text-anchor="middle" x="1260" y="-255.8" font-family="Times,serif" font-size="14.00">u0005</text>
</g>
<!-- 21 -->
<g id="node13" class="node"><title>21</title>
<ellipse fill="none" stroke="black" cx="1452" cy="-249" rx="18" ry="18"/>
</g>
<!-- 19&#45;&gt;21 -->
<g id="edge18" class="edge"><title>19&#45;&gt;21</title>
<path fill="none" stroke="black" d="M1342.26,-249C1363.27,-249 1399.03,-249 1423.77,-249"/>
<polygon fill="black" stroke="black" points="1423.95,-252.5 1433.95,-249 1423.95,-245.5 1423.95,-252.5"/>
<text text-anchor="middle" x="1388" y="-252.8" font-family="Times,serif" font-size="14.00">u0005</text>
</g>
<!-- 21&#45;&gt;15 -->
<g id="edge19" class="edge"><title>21&#45;&gt;15</title>
<path fill="none" stroke="black" d="M1469.82,-245.246C1489.87,-240.772 1523.62,-233.242 1547.26,-227.968"/>
<polygon fill="black" stroke="black" points="1548.32,-231.316 1557.32,-225.722 1546.8,-224.484 1548.32,-231.316"/>
<text text-anchor="middle" x="1516" y="-243.8" font-family="Times,serif" font-size="14.00">u0005</text>
</g>
<!-- 8&#45;&gt;5 -->
<g id="edge20" class="edge"><title>8&#45;&gt;5</title>
<path fill="none" stroke="black" d="M594.175,-54.7112C614.7,-35.3688 658.337,-0 703,-0 703,-0 703,-0 1576,-0 1623.29,-0 1635.14,-27.0649 1657,-69 1687.42,-127.352 1691.52,-329.892 1691.98,-404.833"/>
<polygon fill="black" stroke="black" points="1688.48,-404.948 1692.03,-414.932 1695.48,-404.917 1688.48,-404.948"/>
<text text-anchor="middle" x="1132" y="-3.8" font-family="Times,serif" font-size="14.00">u0003</text>
</g>
<!-- 13 -->
<g id="node15" class="node"><title>13</title>
<ellipse fill="none" stroke="black" cx="704" cy="-67" rx="18" ry="18"/>
</g>
<!-- 8&#45;&gt;13 -->
<g id="edge21" class="edge"><title>8&#45;&gt;13</title>
<path fill="none" stroke="black" d="M599.08,-67C618.965,-67 652.077,-67 675.577,-67"/>
<polygon fill="black" stroke="black" points="675.615,-70.5001 685.615,-67 675.615,-63.5001 675.615,-70.5001"/>
<text text-anchor="middle" x="640" y="-70.8" font-family="Times,serif" font-size="14.00">u0005</text>
</g>
<!-- 13&#45;&gt;5 -->
<g id="edge23" class="edge"><title>13&#45;&gt;5</title>
<path fill="none" stroke="black" d="M721.675,-62.2348C744.865,-56.0389 788.262,-46 826,-46 826,-46 826,-46 1576,-46 1650.99,-46 1681.64,-316.006 1689.7,-404.958"/>
<polygon fill="black" stroke="black" points="1686.23,-405.455 1690.59,-415.11 1693.2,-404.842 1686.23,-405.455"/>
<text text-anchor="middle" x="1196" y="-49.8" font-family="Times,serif" font-size="14.00">u0003</text>
</g>
<!-- 17 -->
<g id="node16" class="node"><title>17</title>
<ellipse fill="none" stroke="black" cx="827" cy="-97" rx="18" ry="18"/>
</g>
<!-- 13&#45;&gt;17 -->
<g id="edge22" class="edge"><title>13&#45;&gt;17</title>
<path fill="none" stroke="black" d="M721.825,-71.1714C741.962,-76.1641 775.922,-84.5841 799.574,-90.4481"/>
<polygon fill="black" stroke="black" points="798.77,-93.8546 809.318,-92.8641 800.455,-87.0604 798.77,-93.8546"/>
<text text-anchor="middle" x="768" y="-92.8" font-family="Times,serif" font-size="14.00">u0004</text>
</g>
<!-- 17&#45;&gt;15 -->
<g id="edge24" class="edge"><title>17&#45;&gt;15</title>
<path fill="none" stroke="black" d="M845.295,-97C867.962,-97 908.958,-97 944,-97 944,-97 944,-97 1453,-97 1507.9,-97 1545.84,-160.011 1563.22,-196.558"/>
<polygon fill="black" stroke="black" points="1560.05,-198.023 1567.39,-205.658 1566.41,-195.109 1560.05,-198.023"/>
<text text-anchor="middle" x="1196" y="-100.8" font-family="Times,serif" font-size="14.00">u0004</text>
</g>
<!-- 20 -->
<g id="node17" class="node"><title>20</title>
<ellipse fill="none" stroke="black" cx="945" cy="-145" rx="18" ry="18"/>
</g>
<!-- 17&#45;&gt;20 -->
<g id="edge25" class="edge"><title>17&#45;&gt;20</title>
<path fill="none" stroke="black" d="M844.129,-103.674C863.435,-111.663 895.992,-125.135 918.666,-134.517"/>
<polygon fill="black" stroke="black" points="917.429,-137.793 928.008,-138.382 920.106,-131.325 917.429,-137.793"/>
<text text-anchor="middle" x="886" y="-133.8" font-family="Times,serif" font-size="14.00">u0005</text>
</g>
<!-- 22 -->
<g id="node18" class="node"><title>22</title>
<ellipse fill="none" stroke="black" cx="1068" cy="-147" rx="18" ry="18"/>
</g>
<!-- 20&#45;&gt;22 -->
<g id="edge26" class="edge"><title>20&#45;&gt;22</title>
<path fill="none" stroke="black" d="M963.08,-145.282C982.965,-145.611 1016.08,-146.158 1039.58,-146.547"/>
<polygon fill="black" stroke="black" points="1039.56,-150.047 1049.62,-146.713 1039.67,-143.048 1039.56,-150.047"/>
<text text-anchor="middle" x="1004" y="-150.8" font-family="Times,serif" font-size="14.00">u0004</text>
</g>
<!-- 23 -->
<g id="node19" class="node"><title>23</title>
<ellipse fill="none" stroke="black" cx="1196" cy="-148" rx="18" ry="18"/>
</g>
<!-- 22&#45;&gt;23 -->
<g id="edge27" class="edge"><title>22&#45;&gt;23</title>
<path fill="none" stroke="black" d="M1086.26,-147.137C1107.27,-147.304 1143.03,-147.588 1167.77,-147.784"/>
<polygon fill="black" stroke="black" points="1167.93,-151.285 1177.95,-147.865 1167.98,-144.285 1167.93,-151.285"/>
<text text-anchor="middle" x="1132" y="-151.8" font-family="Times,serif" font-size="14.00">u0005</text>
</g>
<!-- 24 -->
<g id="node20" class="node"><title>24</title>
<ellipse fill="none" stroke="black" cx="1324" cy="-154" rx="18" ry="18"/>
</g>
<!-- 23&#45;&gt;24 -->
<g id="edge28" class="edge"><title>23&#45;&gt;24</title>
<path fill="none" stroke="black" d="M1213.99,-148.809C1234.94,-149.807 1270.81,-151.515 1295.65,-152.698"/>
<polygon fill="black" stroke="black" points="1295.72,-156.205 1305.87,-153.184 1296.05,-149.213 1295.72,-156.205"/>
<text text-anchor="middle" x="1260" y="-156.8" font-family="Times,serif" font-size="14.00">u0004</text>
</g>
<!-- 24&#45;&gt;11 -->
<g id="edge29" class="edge"><title>24&#45;&gt;11</title>
<path fill="none" stroke="black" d="M1341.89,-156.273C1359.54,-158.981 1387.82,-164.271 1411,-173 1416.47,-175.06 1422.11,-177.759 1427.36,-180.557"/>
<polygon fill="black" stroke="black" points="1425.86,-183.728 1436.29,-185.587 1429.3,-177.629 1425.86,-183.728"/>
<text text-anchor="middle" x="1388" y="-176.8" font-family="Times,serif" font-size="14.00">u0005</text>
</g>
<!-- 6&#45;&gt;5 -->
<g id="edge31" class="edge"><title>6&#45;&gt;5</title>
<path fill="none" stroke="black" d="M961.819,-542.618C967.753,-544.903 974.608,-547.31 981,-549 1018.44,-558.9 1028.27,-563 1067,-563 1067,-563 1067,-563 1576,-563 1631.12,-563 1666.54,-497.137 1682.38,-459.172"/>
<polygon fill="black" stroke="black" points="1685.7,-460.314 1686.16,-449.729 1679.2,-457.714 1685.7,-460.314"/>
<text text-anchor="middle" x="1324" y="-566.8" font-family="Times,serif" font-size="14.00">u0003</text>
</g>
<!-- 9 -->
<g id="node22" class="node"><title>9</title>
<ellipse fill="none" stroke="black" cx="1324" cy="-341" rx="18" ry="18"/>
</g>
<!-- 6&#45;&gt;9 -->
<g id="edge30" class="edge"><title>6&#45;&gt;9</title>
<path fill="none" stroke="black" d="M952.591,-519.224C965.432,-488.902 996.835,-425.225 1045,-394 1124.67,-342.348 1242.48,-338.477 1295.44,-339.682"/>
<polygon fill="black" stroke="black" points="1295.62,-343.189 1305.72,-340.001 1295.84,-336.193 1295.62,-343.189"/>
<text text-anchor="middle" x="1132" y="-367.8" font-family="Times,serif" font-size="14.00">u0004</text>
</g>
<!-- 10 -->
<g id="node23" class="node"><title>10</title>
<ellipse fill="none" stroke="black" cx="1068" cy="-517" rx="18" ry="18"/>
</g>
<!-- 6&#45;&gt;10 -->
<g id="edge32" class="edge"><title>6&#45;&gt;10</title>
<path fill="none" stroke="black" d="M962.825,-533.358C982.759,-530.228 1016.24,-524.971 1039.86,-521.262"/>
<polygon fill="black" stroke="black" points="1040.59,-524.69 1049.93,-519.681 1039.51,-517.774 1040.59,-524.69"/>
<text text-anchor="middle" x="1004" y="-534.8" font-family="Times,serif" font-size="14.00">u0005</text>
</g>
<!-- 9&#45;&gt;11 -->
<g id="edge34" class="edge"><title>9&#45;&gt;11</title>
<path fill="none" stroke="black" d="M1341.89,-337.205C1364.21,-331.85 1401.8,-321.545 1411,-311 1437.53,-280.59 1411.75,-258.484 1429,-222 1429.99,-219.913 1431.17,-217.847 1432.47,-215.843"/>
<polygon fill="black" stroke="black" points="1435.46,-217.686 1438.64,-207.579 1429.85,-213.496 1435.46,-217.686"/>
<text text-anchor="middle" x="1388" y="-335.8" font-family="Times,serif" font-size="14.00">u0005</text>
</g>
<!-- 9&#45;&gt;5 -->
<g id="edge33" class="edge"><title>9&#45;&gt;5</title>
<path fill="none" stroke="black" d="M1341.91,-344.621C1400.69,-357.262 1595.88,-399.715 1657,-419 1660.18,-420.004 1663.49,-421.164 1666.74,-422.378"/>
<polygon fill="black" stroke="black" points="1665.57,-425.677 1676.15,-426.077 1668.13,-419.162 1665.57,-425.677"/>
<text text-anchor="middle" x="1516" y="-392.8" font-family="Times,serif" font-size="14.00">u0003</text>
</g>
<!-- 10&#45;&gt;5 -->
<g id="edge36" class="edge"><title>10&#45;&gt;5</title>
<path fill="none" stroke="black" d="M1086.28,-517.268C1152.36,-518.069 1395.26,-518.965 1593,-493 1621.87,-489.209 1632.45,-494.66 1657,-479 1665.45,-473.61 1672.63,-465.424 1678.25,-457.444"/>
<polygon fill="black" stroke="black" points="1681.22,-459.303 1683.72,-449.008 1675.35,-455.494 1681.22,-459.303"/>
<text text-anchor="middle" x="1388" y="-516.8" font-family="Times,serif" font-size="14.00">u0003</text>
</g>
<!-- 14 -->
<g id="node24" class="node"><title>14</title>
<ellipse fill="none" stroke="black" cx="1196" cy="-471" rx="18" ry="18"/>
</g>
<!-- 10&#45;&gt;14 -->
<g id="edge35" class="edge"><title>10&#45;&gt;14</title>
<path fill="none" stroke="black" d="M1082.16,-505.212C1089.56,-499.189 1099.25,-492.252 1109,-488 1127.72,-479.838 1150.43,-475.562 1167.82,-473.341"/>
<polygon fill="black" stroke="black" points="1168.33,-476.806 1177.87,-472.206 1167.54,-469.85 1168.33,-476.806"/>
<text text-anchor="middle" x="1132" y="-491.8" font-family="Times,serif" font-size="14.00">u0004</text>
</g>
<!-- 14&#45;&gt;5 -->
<g id="edge37" class="edge"><title>14&#45;&gt;5</title>
<path fill="none" stroke="black" d="M1214.1,-472.775C1238.31,-475.132 1283.98,-479 1323,-479 1323,-479 1323,-479 1576,-479 1610.27,-479 1646.49,-461.433 1669.15,-448.01"/>
<polygon fill="black" stroke="black" points="1671.02,-450.971 1677.71,-442.755 1667.36,-445.006 1671.02,-450.971"/>
<text text-anchor="middle" x="1452" y="-482.8" font-family="Times,serif" font-size="14.00">u0003</text>
</g>
<!-- 18 -->
<g id="node25" class="node"><title>18</title>
<ellipse fill="none" stroke="black" cx="1324" cy="-395" rx="18" ry="18"/>
</g>
<!-- 14&#45;&gt;18 -->
<g id="edge38" class="edge"><title>14&#45;&gt;18</title>
<path fill="none" stroke="black" d="M1211.95,-461.983C1233.55,-448.956 1273.69,-424.741 1299.34,-409.271"/>
<polygon fill="black" stroke="black" points="1301.32,-412.167 1308.07,-404.005 1297.7,-406.173 1301.32,-412.167"/>
<text text-anchor="middle" x="1260" y="-450.8" font-family="Times,serif" font-size="14.00">u0005</text>
</g>
<!-- 18&#45;&gt;21 -->
<g id="edge39" class="edge"><title>18&#45;&gt;21</title>
<path fill="none" stroke="black" d="M1341.46,-390.489C1360.59,-384.456 1391.98,-372.011 1411,-351 1429.96,-330.063 1440.38,-299.099 1445.79,-276.783"/>
<polygon fill="black" stroke="black" points="1449.23,-277.428 1448,-266.905 1442.4,-275.901 1449.23,-277.428"/>
<text text-anchor="middle" x="1388" y="-385.8" font-family="Times,serif" font-size="14.00">u0004</text>
</g>
<!-- initial -->
<g id="node26" class="node"><title>initial</title>
</g>
<!-- initial&#45;&gt;0 -->
<g id="edge40" class="edge"><title>initial&#45;&gt;0</title>
<path fill="none" stroke="black" d="M54.195,-614C62.6538,-614 72.0513,-614 80.5951,-614"/>
<polygon fill="black" stroke="black" points="80.8257,-617.5 90.8257,-614 80.8257,-610.5 80.8257,-617.5"/>
</g>
</g>
</svg>
