<svg width="4601px" height="443px"
 viewBox="0.00 0.00 3451.00 332.00" xmlns="http://www.w3.org/2000/svg" xmlns:xlink="http://www.w3.org/1999/xlink">
<g id="graph0" class="graph" transform="scale(1.000022500562514 1.000022500562514) rotate(0) translate(4 328)">
<title>Automaton</title>
<polygon fill="white" stroke="none" points="-4,4 -4,-328 3447,-328 3447,4 -4,4"/>
<!-- 0 -->
<g id="node1" class="node"><title>0</title>
<ellipse fill="none" stroke="black" cx="109" cy="-187" rx="18" ry="18"/>
</g>
<!-- 1 -->
<g id="node2" class="node"><title>1</title>
<ellipse fill="none" stroke="black" cx="227" cy="-187" rx="18" ry="18"/>
</g>
<!-- 0&#45;&gt;1 -->
<g id="edge1" class="edge"><title>0&#45;&gt;1</title>
<path fill="none" stroke="black" d="M127.116,-187C145.964,-187 176.531,-187 198.696,-187"/>
<polygon fill="black" stroke="black" points="198.814,-190.5 208.814,-187 198.814,-183.5 198.814,-190.5"/>
<text text-anchor="middle" x="168" y="-190.8" font-family="Times,serif" font-size="14.00">u0001</text>
</g>
<!-- 2 -->
<g id="node3" class="node"><title>2</title>
<ellipse fill="none" stroke="black" cx="345" cy="-187" rx="18" ry="18"/>
</g>
<!-- 1&#45;&gt;2 -->
<g id="edge2" class="edge"><title>1&#45;&gt;2</title>
<path fill="none" stroke="black" d="M245.116,-187C263.964,-187 294.531,-187 316.696,-187"/>
<polygon fill="black" stroke="black" points="316.814,-190.5 326.814,-187 316.814,-183.5 316.814,-190.5"/>
<text text-anchor="middle" x="286" y="-190.8" font-family="Times,serif" font-size="14.00">u0003</text>
</g>
<!-- 3 -->
<g id="node4" class="node"><title>3</title>
<ellipse fill="none" stroke="black" cx="462" cy="-187" rx="18" ry="18"/>
</g>
<!-- 2&#45;&gt;3 -->
<g id="edge3" class="edge"><title>2&#45;&gt;3</title>
<path fill="none" stroke="black" d="M363.466,-187C382.064,-187 411.756,-187 433.499,-187"/>
<polygon fill="black" stroke="black" points="433.746,-190.5 443.746,-187 433.746,-183.5 433.746,-190.5"/>
<text text-anchor="middle" x="403.5" y="-190.8" font-family="Times,serif" font-size="14.00">u000e</text>
</g>
<!-- 4 -->
<g id="node5" class="node"><title>4</title>
<ellipse fill="none" stroke="black" cx="576" cy="-187" rx="18" ry="18"/>
</g>
<!-- 3&#45;&gt;4 -->
<g id="edge4" class="edge"><title>3&#45;&gt;4</title>
<path fill="none" stroke="black" d="M480.01,-187C497.937,-187 526.445,-187 547.558,-187"/>
<polygon fill="black" stroke="black" points="547.83,-190.5 557.83,-187 547.829,-183.5 547.83,-190.5"/>
<text text-anchor="middle" x="519" y="-190.8" font-family="Times,serif" font-size="14.00">u000f</text>
</g>
<!-- 5 -->
<g id="node6" class="node"><title>5</title>
<ellipse fill="none" stroke="black" cx="694" cy="-187" rx="18" ry="18"/>
</g>
<!-- 4&#45;&gt;5 -->
<g id="edge5" class="edge"><title>4&#45;&gt;5</title>
<path fill="none" stroke="black" d="M594.116,-187C612.964,-187 643.531,-187 665.696,-187"/>
<polygon fill="black" stroke="black" points="665.814,-190.5 675.814,-187 665.814,-183.5 665.814,-190.5"/>
<text text-anchor="middle" x="635" y="-190.8" font-family="Times,serif" font-size="14.00">u0002</text>
</g>
<!-- 6 -->
<g id="node7" class="node"><title>6</title>
<ellipse fill="none" stroke="black" cx="816.5" cy="-284" rx="18" ry="18"/>
</g>
<!-- 5&#45;&gt;6 -->
<g id="edge6" class="edge"><title>5&#45;&gt;6</title>
<path fill="none" stroke="black" d="M706.388,-200.299C712.959,-207.639 721.569,-216.716 730,-224 749.748,-241.061 774.313,-257.902 792.039,-269.378"/>
<polygon fill="black" stroke="black" points="790.311,-272.428 800.623,-274.863 794.081,-266.529 790.311,-272.428"/>
<text text-anchor="middle" x="753" y="-261.8" font-family="Times,serif" font-size="14.00">u000d</text>
</g>
<!-- 7 -->
<g id="node13" class="node"><title>7</title>
<ellipse fill="none" stroke="black" cx="998" cy="-210" rx="18" ry="18"/>
</g>
<!-- 5&#45;&gt;7 -->
<g id="edge7" class="edge"><title>5&#45;&gt;7</title>
<path fill="none" stroke="black" d="M711.594,-191.989C717.369,-193.532 723.922,-195.069 730,-196 816.806,-209.3 921.133,-210.588 969.674,-210.355"/>
<polygon fill="black" stroke="black" points="969.725,-213.855 979.699,-210.28 969.673,-206.855 969.725,-213.855"/>
<text text-anchor="middle" x="816.5" y="-209.8" font-family="Times,serif" font-size="14.00">u000c</text>
</g>
<!-- 8 -->
<g id="node22" class="node"><title>8</title>
<ellipse fill="none" stroke="black" cx="880" cy="-164" rx="18" ry="18"/>
</g>
<!-- 5&#45;&gt;8 -->
<g id="edge8" class="edge"><title>5&#45;&gt;8</title>
<path fill="none" stroke="black" d="M712.06,-183.878C717.754,-182.888 724.141,-181.836 730,-181 772.468,-174.942 821.992,-169.64 851.897,-166.63"/>
<polygon fill="black" stroke="black" points="852.373,-170.1 861.978,-165.628 851.68,-163.135 852.373,-170.1"/>
<text text-anchor="middle" x="753" y="-184.8" font-family="Times,serif" font-size="14.00">u0006</text>
</g>
<!-- 9 -->
<g id="node31" class="node"><title>9</title>
<ellipse fill="none" stroke="black" cx="816.5" cy="-72" rx="18" ry="18"/>
</g>
<!-- 5&#45;&gt;9 -->
<g id="edge9" class="edge"><title>5&#45;&gt;9</title>
<path fill="none" stroke="black" d="M701.965,-170.595C708.02,-157.688 717.741,-139.805 730,-127 747.565,-108.652 772.402,-93.5519 790.783,-83.8461"/>
<polygon fill="black" stroke="black" points="792.421,-86.9397 799.735,-79.2737 789.237,-80.7059 792.421,-86.9397"/>
<text text-anchor="middle" x="753" y="-130.8" font-family="Times,serif" font-size="14.00">u0000</text>
</g>
<!-- 10 -->
<g id="node8" class="node"><title>10</title>
<ellipse fill="none" stroke="black" cx="939" cy="-301" rx="18" ry="18"/>
</g>
<!-- 6&#45;&gt;10 -->
<g id="edge10" class="edge"><title>6&#45;&gt;10</title>
<path fill="none" stroke="black" d="M834.509,-286.4C854.425,-289.209 887.663,-293.898 911.088,-297.203"/>
<polygon fill="black" stroke="black" points="910.686,-300.681 921.077,-298.613 911.664,-293.75 910.686,-300.681"/>
<text text-anchor="middle" x="880" y="-298.8" font-family="Times,serif" font-size="14.00">u0006</text>
</g>
<!-- 15 -->
<g id="node9" class="node"><title>15</title>
<ellipse fill="none" stroke="black" cx="1062" cy="-305" rx="18" ry="18"/>
</g>
<!-- 10&#45;&gt;15 -->
<g id="edge11" class="edge"><title>10&#45;&gt;15</title>
<path fill="none" stroke="black" d="M957.08,-301.565C977.078,-302.226 1010.45,-303.329 1033.98,-304.107"/>
<polygon fill="black" stroke="black" points="1033.9,-307.606 1044.01,-304.438 1034.13,-300.61 1033.9,-307.606"/>
<text text-anchor="middle" x="998" y="-306.8" font-family="Times,serif" font-size="14.00">u0004</text>
</g>
<!-- 21 -->
<g id="node10" class="node"><title>21</title>
<ellipse fill="none" stroke="black" cx="1254" cy="-306" rx="18" ry="18"/>
</g>
<!-- 15&#45;&gt;21 -->
<g id="edge12" class="edge"><title>15&#45;&gt;21</title>
<path fill="none" stroke="black" d="M1080.2,-305.091C1113.33,-305.265 1186.25,-305.649 1225.95,-305.858"/>
<polygon fill="black" stroke="black" points="1225.96,-309.358 1235.98,-305.91 1226,-302.358 1225.96,-309.358"/>
<text text-anchor="middle" x="1126" y="-308.8" font-family="Times,serif" font-size="14.00">u0005</text>
</g>
<!-- 27 -->
<g id="node11" class="node"><title>27</title>
<ellipse fill="none" stroke="black" cx="3299" cy="-185" rx="18" ry="18"/>
</g>
<!-- 21&#45;&gt;27 -->
<g id="edge13" class="edge"><title>21&#45;&gt;27</title>
<path fill="none" stroke="black" d="M1272.05,-306.222C1296.19,-306.517 1341.72,-307 1380.5,-307 1380.5,-307 1380.5,-307 3177,-307 3230.72,-307 3268.73,-246.638 3286.56,-210.831"/>
<polygon fill="black" stroke="black" points="3289.89,-211.985 3291.05,-201.453 3283.57,-208.962 3289.89,-211.985"/>
<text text-anchor="middle" x="2266" y="-310.8" font-family="Times,serif" font-size="14.00">u000b</text>
</g>
<!-- 34 -->
<g id="node12" class="node"><title>34</title>
<ellipse fill="none" stroke="black" cx="3421" cy="-185" rx="18" ry="18"/>
<ellipse fill="none" stroke="black" cx="3421" cy="-185" rx="22" ry="22"/>
</g>
<!-- 27&#45;&gt;34 -->
<g id="edge14" class="edge"><title>27&#45;&gt;34</title>
<path fill="none" stroke="black" d="M3317.19,-185C3335.77,-185 3365.76,-185 3388.57,-185"/>
<polygon fill="black" stroke="black" points="3388.79,-188.5 3398.79,-185 3388.79,-181.5 3388.79,-188.5"/>
<text text-anchor="middle" x="3358" y="-188.8" font-family="Times,serif" font-size="14.00">u0007</text>
</g>
<!-- 11 -->
<g id="node14" class="node"><title>11</title>
<ellipse fill="none" stroke="black" cx="2679" cy="-218" rx="18" ry="18"/>
</g>
<!-- 7&#45;&gt;11 -->
<g id="edge15" class="edge"><title>7&#45;&gt;11</title>
<path fill="none" stroke="black" d="M1016.11,-210.888C1040.34,-212.066 1086.04,-214 1125,-214 1125,-214 1125,-214 2562,-214 2592.27,-214 2626.95,-215.377 2650.45,-216.515"/>
<polygon fill="black" stroke="black" points="2650.55,-220.025 2660.71,-217.032 2650.9,-213.033 2650.55,-220.025"/>
<text text-anchor="middle" x="1828" y="-217.8" font-family="Times,serif" font-size="14.00">u000d</text>
</g>
<!-- 16 -->
<g id="node15" class="node"><title>16</title>
<ellipse fill="none" stroke="black" cx="2856" cy="-262" rx="18" ry="18"/>
</g>
<!-- 11&#45;&gt;16 -->
<g id="edge16" class="edge"><title>11&#45;&gt;16</title>
<path fill="none" stroke="black" d="M2694.97,-226.341C2701.04,-229.435 2708.21,-232.738 2715,-235 2753.11,-247.686 2799.16,-255.138 2827.77,-258.894"/>
<polygon fill="black" stroke="black" points="2827.47,-262.384 2837.83,-260.156 2828.34,-255.438 2827.47,-262.384"/>
<text text-anchor="middle" x="2738" y="-250.8" font-family="Times,serif" font-size="14.00">u000c</text>
</g>
<!-- 17 -->
<g id="node18" class="node"><title>17</title>
<ellipse fill="none" stroke="black" cx="2797" cy="-214" rx="18" ry="18"/>
</g>
<!-- 11&#45;&gt;17 -->
<g id="edge17" class="edge"><title>11&#45;&gt;17</title>
<path fill="none" stroke="black" d="M2697.12,-217.41C2715.96,-216.76 2746.53,-215.706 2768.7,-214.942"/>
<polygon fill="black" stroke="black" points="2768.94,-218.435 2778.81,-214.593 2768.7,-211.439 2768.94,-218.435"/>
<text text-anchor="middle" x="2738" y="-219.8" font-family="Times,serif" font-size="14.00">u0006</text>
</g>
<!-- 22 -->
<g id="node16" class="node"><title>22</title>
<ellipse fill="none" stroke="black" cx="2984" cy="-264" rx="18" ry="18"/>
</g>
<!-- 16&#45;&gt;22 -->
<g id="edge18" class="edge"><title>16&#45;&gt;22</title>
<path fill="none" stroke="black" d="M2874.26,-262.274C2895.27,-262.608 2931.03,-263.175 2955.77,-263.568"/>
<polygon fill="black" stroke="black" points="2955.9,-267.07 2965.95,-263.729 2956.01,-260.071 2955.9,-267.07"/>
<text text-anchor="middle" x="2920" y="-266.8" font-family="Times,serif" font-size="14.00">u0006</text>
</g>
<!-- 28 -->
<g id="node17" class="node"><title>28</title>
<ellipse fill="none" stroke="black" cx="3112" cy="-252" rx="18" ry="18"/>
</g>
<!-- 22&#45;&gt;28 -->
<g id="edge19" class="edge"><title>22&#45;&gt;28</title>
<path fill="none" stroke="black" d="M3001.99,-262.382C3022.94,-260.387 3058.81,-256.97 3083.65,-254.604"/>
<polygon fill="black" stroke="black" points="3084.25,-258.063 3093.87,-253.631 3083.59,-251.095 3084.25,-258.063"/>
<text text-anchor="middle" x="3048" y="-263.8" font-family="Times,serif" font-size="14.00">u0004</text>
</g>
<!-- 28&#45;&gt;27 -->
<g id="edge20" class="edge"><title>28&#45;&gt;27</title>
<path fill="none" stroke="black" d="M3129.57,-247.794C3157.61,-240.435 3215.98,-224.077 3263,-204 3266.58,-202.471 3270.28,-200.696 3273.87,-198.856"/>
<polygon fill="black" stroke="black" points="3275.82,-201.78 3282.97,-193.961 3272.51,-195.614 3275.82,-201.78"/>
<text text-anchor="middle" x="3176" y="-244.8" font-family="Times,serif" font-size="14.00">u0005</text>
</g>
<!-- 23 -->
<g id="node19" class="node"><title>23</title>
<ellipse fill="none" stroke="black" cx="2920" cy="-210" rx="18" ry="18"/>
</g>
<!-- 17&#45;&gt;23 -->
<g id="edge21" class="edge"><title>17&#45;&gt;23</title>
<path fill="none" stroke="black" d="M2815.08,-213.435C2835.08,-212.774 2868.45,-211.671 2891.98,-210.893"/>
<polygon fill="black" stroke="black" points="2892.13,-214.39 2902.01,-210.562 2891.9,-207.394 2892.13,-214.39"/>
<text text-anchor="middle" x="2856" y="-215.8" font-family="Times,serif" font-size="14.00">u0004</text>
</g>
<!-- 29 -->
<g id="node20" class="node"><title>29</title>
<ellipse fill="none" stroke="black" cx="3048" cy="-185" rx="18" ry="18"/>
</g>
<!-- 23&#45;&gt;29 -->
<g id="edge22" class="edge"><title>23&#45;&gt;29</title>
<path fill="none" stroke="black" d="M2937.73,-206.68C2958.82,-202.496 2995.32,-195.254 3020.28,-190.301"/>
<polygon fill="black" stroke="black" points="3021.07,-193.713 3030.2,-188.334 3019.71,-186.847 3021.07,-193.713"/>
<text text-anchor="middle" x="2984" y="-204.8" font-family="Times,serif" font-size="14.00">u0005</text>
</g>
<!-- 35 -->
<g id="node21" class="node"><title>35</title>
<ellipse fill="none" stroke="black" cx="3176" cy="-185" rx="18" ry="18"/>
</g>
<!-- 29&#45;&gt;35 -->
<g id="edge23" class="edge"><title>29&#45;&gt;35</title>
<path fill="none" stroke="black" d="M3066.26,-185C3087.27,-185 3123.03,-185 3147.77,-185"/>
<polygon fill="black" stroke="black" points="3147.95,-188.5 3157.95,-185 3147.95,-181.5 3147.95,-188.5"/>
<text text-anchor="middle" x="3112" y="-188.8" font-family="Times,serif" font-size="14.00">u0008</text>
</g>
<!-- 35&#45;&gt;27 -->
<g id="edge24" class="edge"><title>35&#45;&gt;27</title>
<path fill="none" stroke="black" d="M3194.08,-185C3213.96,-185 3247.08,-185 3270.58,-185"/>
<polygon fill="black" stroke="black" points="3270.62,-188.5 3280.62,-185 3270.62,-181.5 3270.62,-188.5"/>
<text text-anchor="middle" x="3240" y="-188.8" font-family="Times,serif" font-size="14.00">u0010</text>
</g>
<!-- 12 -->
<g id="node23" class="node"><title>12</title>
<ellipse fill="none" stroke="black" cx="2325" cy="-164" rx="18" ry="18"/>
</g>
<!-- 8&#45;&gt;12 -->
<g id="edge25" class="edge"><title>8&#45;&gt;12</title>
<path fill="none" stroke="black" d="M898.295,-164C920.962,-164 961.958,-164 997,-164 997,-164 997,-164 2208,-164 2238.25,-164 2272.94,-164 2296.44,-164"/>
<polygon fill="black" stroke="black" points="2296.71,-167.5 2306.71,-164 2296.71,-160.5 2296.71,-167.5"/>
<text text-anchor="middle" x="1572" y="-167.8" font-family="Times,serif" font-size="14.00">u0004</text>
</g>
<!-- 18 -->
<g id="node24" class="node"><title>18</title>
<ellipse fill="none" stroke="black" cx="2443" cy="-164" rx="18" ry="18"/>
</g>
<!-- 12&#45;&gt;18 -->
<g id="edge26" class="edge"><title>12&#45;&gt;18</title>
<path fill="none" stroke="black" d="M2343.12,-164C2361.96,-164 2392.53,-164 2414.7,-164"/>
<polygon fill="black" stroke="black" points="2414.81,-167.5 2424.81,-164 2414.81,-160.5 2414.81,-167.5"/>
<text text-anchor="middle" x="2384" y="-167.8" font-family="Times,serif" font-size="14.00">u0005</text>
</g>
<!-- 24 -->
<g id="node25" class="node"><title>24</title>
<ellipse fill="none" stroke="black" cx="2561" cy="-164" rx="18" ry="18"/>
</g>
<!-- 18&#45;&gt;24 -->
<g id="edge27" class="edge"><title>18&#45;&gt;24</title>
<path fill="none" stroke="black" d="M2461.12,-164C2479.96,-164 2510.53,-164 2532.7,-164"/>
<polygon fill="black" stroke="black" points="2532.81,-167.5 2542.81,-164 2532.81,-160.5 2532.81,-167.5"/>
<text text-anchor="middle" x="2502" y="-167.8" font-family="Times,serif" font-size="14.00">u0010</text>
</g>
<!-- 30 -->
<g id="node26" class="node"><title>30</title>
<ellipse fill="none" stroke="black" cx="2679" cy="-164" rx="18" ry="18"/>
</g>
<!-- 24&#45;&gt;30 -->
<g id="edge28" class="edge"><title>24&#45;&gt;30</title>
<path fill="none" stroke="black" d="M2579.12,-164C2597.96,-164 2628.53,-164 2650.7,-164"/>
<polygon fill="black" stroke="black" points="2650.81,-167.5 2660.81,-164 2650.81,-160.5 2650.81,-167.5"/>
<text text-anchor="middle" x="2620" y="-167.8" font-family="Times,serif" font-size="14.00">u0010</text>
</g>
<!-- 31 -->
<g id="node29" class="node"><title>31</title>
<ellipse fill="none" stroke="black" cx="2679" cy="-110" rx="18" ry="18"/>
</g>
<!-- 24&#45;&gt;31 -->
<g id="edge29" class="edge"><title>24&#45;&gt;31</title>
<path fill="none" stroke="black" d="M2577.18,-155.376C2583.28,-152.013 2590.41,-148.205 2597,-145 2615.37,-136.068 2636.57,-126.946 2652.68,-120.255"/>
<polygon fill="black" stroke="black" points="2654.06,-123.47 2661.98,-116.426 2651.4,-116.998 2654.06,-123.47"/>
<text text-anchor="middle" x="2620" y="-148.8" font-family="Times,serif" font-size="14.00">u000b</text>
</g>
<!-- 36 -->
<g id="node27" class="node"><title>36</title>
<ellipse fill="none" stroke="black" cx="2797" cy="-158" rx="18" ry="18"/>
</g>
<!-- 30&#45;&gt;36 -->
<g id="edge30" class="edge"><title>30&#45;&gt;36</title>
<path fill="none" stroke="black" d="M2697.12,-163.115C2715.96,-162.14 2746.53,-160.559 2768.7,-159.412"/>
<polygon fill="black" stroke="black" points="2769.01,-162.901 2778.81,-158.889 2768.65,-155.91 2769.01,-162.901"/>
<text text-anchor="middle" x="2738" y="-166.8" font-family="Times,serif" font-size="14.00">u0011</text>
</g>
<!-- 40 -->
<g id="node28" class="node"><title>40</title>
<ellipse fill="none" stroke="black" cx="2920" cy="-156" rx="18" ry="18"/>
</g>
<!-- 36&#45;&gt;40 -->
<g id="edge31" class="edge"><title>36&#45;&gt;40</title>
<path fill="none" stroke="black" d="M2815.08,-157.718C2834.96,-157.389 2868.08,-156.842 2891.58,-156.453"/>
<polygon fill="black" stroke="black" points="2891.67,-159.952 2901.62,-156.287 2891.56,-152.953 2891.67,-159.952"/>
<text text-anchor="middle" x="2856" y="-161.8" font-family="Times,serif" font-size="14.00">u0011</text>
</g>
<!-- 40&#45;&gt;29 -->
<g id="edge32" class="edge"><title>40&#45;&gt;29</title>
<path fill="none" stroke="black" d="M2937.88,-159.211C2955.27,-162.595 2983.13,-168.226 3007,-174 3011.33,-175.048 3015.91,-176.232 3020.35,-177.425"/>
<polygon fill="black" stroke="black" points="3019.75,-180.89 3030.32,-180.165 3021.61,-174.14 3019.75,-180.89"/>
<text text-anchor="middle" x="2984" y="-177.8" font-family="Times,serif" font-size="14.00">u000b</text>
</g>
<!-- 37 -->
<g id="node30" class="node"><title>37</title>
<ellipse fill="none" stroke="black" cx="2856" cy="-110" rx="18" ry="18"/>
</g>
<!-- 31&#45;&gt;37 -->
<g id="edge33" class="edge"><title>31&#45;&gt;37</title>
<path fill="none" stroke="black" d="M2697.1,-110C2727.42,-110 2790.84,-110 2827.41,-110"/>
<polygon fill="black" stroke="black" points="2827.83,-113.5 2837.83,-110 2827.83,-106.5 2827.83,-113.5"/>
<text text-anchor="middle" x="2738" y="-113.8" font-family="Times,serif" font-size="14.00">u0009</text>
</g>
<!-- 37&#45;&gt;27 -->
<g id="edge34" class="edge"><title>37&#45;&gt;27</title>
<path fill="none" stroke="black" d="M2874.12,-110C2898.36,-110 2944.06,-110 2983,-110 2983,-110 2983,-110 3177,-110 3218.34,-110 3257.32,-142.023 3279.37,-164.219"/>
<polygon fill="black" stroke="black" points="3276.99,-166.796 3286.44,-171.592 3282.05,-161.951 3276.99,-166.796"/>
<text text-anchor="middle" x="3048" y="-113.8" font-family="Times,serif" font-size="14.00">u000a</text>
</g>
<!-- 13 -->
<g id="node32" class="node"><title>13</title>
<ellipse fill="none" stroke="black" cx="998" cy="-72" rx="18" ry="18"/>
</g>
<!-- 9&#45;&gt;13 -->
<g id="edge35" class="edge"><title>9&#45;&gt;13</title>
<path fill="none" stroke="black" d="M834.711,-72C865.938,-72 932.159,-72 969.642,-72"/>
<polygon fill="black" stroke="black" points="969.841,-75.5001 979.841,-72 969.841,-68.5001 969.841,-75.5001"/>
<text text-anchor="middle" x="880" y="-75.8" font-family="Times,serif" font-size="14.00">u000c</text>
</g>
<!-- 14 -->
<g id="node43" class="node"><title>14</title>
<ellipse fill="none" stroke="black" cx="939" cy="-24" rx="18" ry="18"/>
</g>
<!-- 9&#45;&gt;14 -->
<g id="edge36" class="edge"><title>9&#45;&gt;14</title>
<path fill="none" stroke="black" d="M828.44,-58.1158C835.647,-49.9969 845.799,-40.3262 857,-35 873.557,-27.1271 894.031,-24.3989 910.252,-23.6278"/>
<polygon fill="black" stroke="black" points="910.793,-27.1155 920.702,-23.3675 910.618,-20.1177 910.793,-27.1155"/>
<text text-anchor="middle" x="880" y="-38.8" font-family="Times,serif" font-size="14.00">u0006</text>
</g>
<!-- 19 -->
<g id="node33" class="node"><title>19</title>
<ellipse fill="none" stroke="black" cx="1126" cy="-72" rx="18" ry="18"/>
</g>
<!-- 13&#45;&gt;19 -->
<g id="edge37" class="edge"><title>13&#45;&gt;19</title>
<path fill="none" stroke="black" d="M1016.26,-72C1037.27,-72 1073.03,-72 1097.77,-72"/>
<polygon fill="black" stroke="black" points="1097.95,-75.5001 1107.95,-72 1097.95,-68.5001 1097.95,-75.5001"/>
<text text-anchor="middle" x="1062" y="-75.8" font-family="Times,serif" font-size="14.00">u0000</text>
</g>
<!-- 25 -->
<g id="node34" class="node"><title>25</title>
<ellipse fill="none" stroke="black" cx="1254" cy="-72" rx="18" ry="18"/>
</g>
<!-- 19&#45;&gt;25 -->
<g id="edge38" class="edge"><title>19&#45;&gt;25</title>
<path fill="none" stroke="black" d="M1144.26,-72C1165.27,-72 1201.03,-72 1225.77,-72"/>
<polygon fill="black" stroke="black" points="1225.95,-75.5001 1235.95,-72 1225.95,-68.5001 1225.95,-75.5001"/>
<text text-anchor="middle" x="1190" y="-75.8" font-family="Times,serif" font-size="14.00">u000d</text>
</g>
<!-- 32 -->
<g id="node35" class="node"><title>32</title>
<ellipse fill="none" stroke="black" cx="1381.5" cy="-72" rx="18" ry="18"/>
</g>
<!-- 25&#45;&gt;32 -->
<g id="edge39" class="edge"><title>25&#45;&gt;32</title>
<path fill="none" stroke="black" d="M1272.19,-72C1293.01,-72 1328.34,-72 1352.97,-72"/>
<polygon fill="black" stroke="black" points="1353.12,-75.5001 1363.12,-72 1353.12,-68.5001 1353.12,-75.5001"/>
<text text-anchor="middle" x="1318" y="-75.8" font-family="Times,serif" font-size="14.00">u000d</text>
</g>
<!-- 38 -->
<g id="node36" class="node"><title>38</title>
<ellipse fill="none" stroke="black" cx="1508.5" cy="-72" rx="18" ry="18"/>
</g>
<!-- 32&#45;&gt;38 -->
<g id="edge40" class="edge"><title>32&#45;&gt;38</title>
<path fill="none" stroke="black" d="M1399.62,-72C1420.35,-72 1455.55,-72 1480.08,-72"/>
<polygon fill="black" stroke="black" points="1480.19,-75.5001 1490.19,-72 1480.19,-68.5001 1480.19,-75.5001"/>
<text text-anchor="middle" x="1445" y="-75.8" font-family="Times,serif" font-size="14.00">u000d</text>
</g>
<!-- 41 -->
<g id="node37" class="node"><title>41</title>
<ellipse fill="none" stroke="black" cx="1636" cy="-72" rx="18" ry="18"/>
</g>
<!-- 38&#45;&gt;41 -->
<g id="edge41" class="edge"><title>38&#45;&gt;41</title>
<path fill="none" stroke="black" d="M1526.69,-72C1547.51,-72 1582.84,-72 1607.47,-72"/>
<polygon fill="black" stroke="black" points="1607.62,-75.5001 1617.62,-72 1607.62,-68.5001 1607.62,-75.5001"/>
<text text-anchor="middle" x="1572" y="-75.8" font-family="Times,serif" font-size="14.00">u000d</text>
</g>
<!-- 43 -->
<g id="node38" class="node"><title>43</title>
<ellipse fill="none" stroke="black" cx="1764" cy="-72" rx="18" ry="18"/>
</g>
<!-- 41&#45;&gt;43 -->
<g id="edge42" class="edge"><title>41&#45;&gt;43</title>
<path fill="none" stroke="black" d="M1654.26,-72C1675.27,-72 1711.03,-72 1735.77,-72"/>
<polygon fill="black" stroke="black" points="1735.95,-75.5001 1745.95,-72 1735.95,-68.5001 1735.95,-75.5001"/>
<text text-anchor="middle" x="1700" y="-75.8" font-family="Times,serif" font-size="14.00">u000d</text>
</g>
<!-- 45 -->
<g id="node39" class="node"><title>45</title>
<ellipse fill="none" stroke="black" cx="1892" cy="-72" rx="18" ry="18"/>
</g>
<!-- 43&#45;&gt;45 -->
<g id="edge43" class="edge"><title>43&#45;&gt;45</title>
<path fill="none" stroke="black" d="M1782.26,-72C1803.27,-72 1839.03,-72 1863.77,-72"/>
<polygon fill="black" stroke="black" points="1863.95,-75.5001 1873.95,-72 1863.95,-68.5001 1863.95,-75.5001"/>
<text text-anchor="middle" x="1828" y="-75.8" font-family="Times,serif" font-size="14.00">u000c</text>
</g>
<!-- 47 -->
<g id="node40" class="node"><title>47</title>
<ellipse fill="none" stroke="black" cx="2020" cy="-72" rx="18" ry="18"/>
</g>
<!-- 45&#45;&gt;47 -->
<g id="edge44" class="edge"><title>45&#45;&gt;47</title>
<path fill="none" stroke="black" d="M1910.26,-72C1931.27,-72 1967.03,-72 1991.77,-72"/>
<polygon fill="black" stroke="black" points="1991.95,-75.5001 2001.95,-72 1991.95,-68.5001 1991.95,-75.5001"/>
<text text-anchor="middle" x="1956" y="-75.8" font-family="Times,serif" font-size="14.00">u0006</text>
</g>
<!-- 49 -->
<g id="node41" class="node"><title>49</title>
<ellipse fill="none" stroke="black" cx="2148" cy="-68" rx="18" ry="18"/>
</g>
<!-- 47&#45;&gt;49 -->
<g id="edge45" class="edge"><title>47&#45;&gt;49</title>
<path fill="none" stroke="black" d="M2037.99,-71.4605C2058.94,-70.7955 2094.81,-69.6568 2119.65,-68.8681"/>
<polygon fill="black" stroke="black" points="2119.99,-72.3593 2129.87,-68.5437 2119.77,-65.3628 2119.99,-72.3593"/>
<text text-anchor="middle" x="2084" y="-74.8" font-family="Times,serif" font-size="14.00">u0004</text>
</g>
<!-- 51 -->
<g id="node42" class="node"><title>51</title>
<ellipse fill="none" stroke="black" cx="3176" cy="-64" rx="18" ry="18"/>
</g>
<!-- 49&#45;&gt;51 -->
<g id="edge46" class="edge"><title>49&#45;&gt;51</title>
<path fill="none" stroke="black" d="M2166.29,-67.0317C2188.95,-65.8479 2229.94,-64 2265,-64 2265,-64 2265,-64 3049,-64 3083.07,-64 3122.32,-64 3147.84,-64"/>
<polygon fill="black" stroke="black" points="3147.88,-67.5001 3157.88,-64 3147.88,-60.5001 3147.88,-67.5001"/>
<text text-anchor="middle" x="2620" y="-67.8" font-family="Times,serif" font-size="14.00">u0005</text>
</g>
<!-- 51&#45;&gt;27 -->
<g id="edge47" class="edge"><title>51&#45;&gt;27</title>
<path fill="none" stroke="black" d="M3194.03,-62.6541C3213.12,-62.1039 3243.9,-64.2281 3263,-81 3284.72,-100.078 3292.99,-133.084 3296.12,-156.801"/>
<polygon fill="black" stroke="black" points="3292.67,-157.399 3297.23,-166.961 3299.62,-156.64 3292.67,-157.399"/>
<text text-anchor="middle" x="3240" y="-84.8" font-family="Times,serif" font-size="14.00">u0008</text>
</g>
<!-- 20 -->
<g id="node44" class="node"><title>20</title>
<ellipse fill="none" stroke="black" cx="1062" cy="-18" rx="18" ry="18"/>
</g>
<!-- 14&#45;&gt;20 -->
<g id="edge48" class="edge"><title>14&#45;&gt;20</title>
<path fill="none" stroke="black" d="M957.08,-23.1531C977.078,-22.1614 1010.45,-20.5064 1033.98,-19.34"/>
<polygon fill="black" stroke="black" points="1034.19,-22.8337 1044.01,-18.8426 1033.85,-15.8423 1034.19,-22.8337"/>
<text text-anchor="middle" x="998" y="-26.8" font-family="Times,serif" font-size="14.00">u0004</text>
</g>
<!-- 26 -->
<g id="node45" class="node"><title>26</title>
<ellipse fill="none" stroke="black" cx="1190" cy="-18" rx="18" ry="18"/>
</g>
<!-- 20&#45;&gt;26 -->
<g id="edge49" class="edge"><title>20&#45;&gt;26</title>
<path fill="none" stroke="black" d="M1080.26,-18C1101.27,-18 1137.03,-18 1161.77,-18"/>
<polygon fill="black" stroke="black" points="1161.95,-21.5001 1171.95,-18 1161.95,-14.5001 1161.95,-21.5001"/>
<text text-anchor="middle" x="1126" y="-21.8" font-family="Times,serif" font-size="14.00">u0005</text>
</g>
<!-- 33 -->
<g id="node46" class="node"><title>33</title>
<ellipse fill="none" stroke="black" cx="1318" cy="-18" rx="18" ry="18"/>
</g>
<!-- 26&#45;&gt;33 -->
<g id="edge50" class="edge"><title>26&#45;&gt;33</title>
<path fill="none" stroke="black" d="M1208.26,-18C1229.27,-18 1265.03,-18 1289.77,-18"/>
<polygon fill="black" stroke="black" points="1289.95,-21.5001 1299.95,-18 1289.95,-14.5001 1289.95,-21.5001"/>
<text text-anchor="middle" x="1254" y="-21.8" font-family="Times,serif" font-size="14.00">u0011</text>
</g>
<!-- 39 -->
<g id="node47" class="node"><title>39</title>
<ellipse fill="none" stroke="black" cx="1445" cy="-18" rx="18" ry="18"/>
</g>
<!-- 33&#45;&gt;39 -->
<g id="edge51" class="edge"><title>33&#45;&gt;39</title>
<path fill="none" stroke="black" d="M1336.12,-18C1356.85,-18 1392.05,-18 1416.58,-18"/>
<polygon fill="black" stroke="black" points="1416.69,-21.5001 1426.69,-18 1416.69,-14.5001 1416.69,-21.5001"/>
<text text-anchor="middle" x="1381.5" y="-21.8" font-family="Times,serif" font-size="14.00">u000a</text>
</g>
<!-- 42 -->
<g id="node48" class="node"><title>42</title>
<ellipse fill="none" stroke="black" cx="1572" cy="-18" rx="18" ry="18"/>
</g>
<!-- 39&#45;&gt;42 -->
<g id="edge52" class="edge"><title>39&#45;&gt;42</title>
<path fill="none" stroke="black" d="M1463.12,-18C1483.85,-18 1519.05,-18 1543.58,-18"/>
<polygon fill="black" stroke="black" points="1543.69,-21.5001 1553.69,-18 1543.69,-14.5001 1543.69,-21.5001"/>
<text text-anchor="middle" x="1508.5" y="-21.8" font-family="Times,serif" font-size="14.00">u000a</text>
</g>
<!-- 44 -->
<g id="node49" class="node"><title>44</title>
<ellipse fill="none" stroke="black" cx="1700" cy="-18" rx="18" ry="18"/>
</g>
<!-- 42&#45;&gt;44 -->
<g id="edge53" class="edge"><title>42&#45;&gt;44</title>
<path fill="none" stroke="black" d="M1590.26,-18C1611.27,-18 1647.03,-18 1671.77,-18"/>
<polygon fill="black" stroke="black" points="1671.95,-21.5001 1681.95,-18 1671.95,-14.5001 1671.95,-21.5001"/>
<text text-anchor="middle" x="1636" y="-21.8" font-family="Times,serif" font-size="14.00">u000b</text>
</g>
<!-- 46 -->
<g id="node50" class="node"><title>46</title>
<ellipse fill="none" stroke="black" cx="1828" cy="-18" rx="18" ry="18"/>
</g>
<!-- 44&#45;&gt;46 -->
<g id="edge54" class="edge"><title>44&#45;&gt;46</title>
<path fill="none" stroke="black" d="M1718.26,-18C1739.27,-18 1775.03,-18 1799.77,-18"/>
<polygon fill="black" stroke="black" points="1799.95,-21.5001 1809.95,-18 1799.95,-14.5001 1799.95,-21.5001"/>
<text text-anchor="middle" x="1764" y="-21.8" font-family="Times,serif" font-size="14.00">u0010</text>
</g>
<!-- 48 -->
<g id="node51" class="node"><title>48</title>
<ellipse fill="none" stroke="black" cx="1956" cy="-18" rx="18" ry="18"/>
</g>
<!-- 46&#45;&gt;48 -->
<g id="edge55" class="edge"><title>46&#45;&gt;48</title>
<path fill="none" stroke="black" d="M1846.26,-18C1867.27,-18 1903.03,-18 1927.77,-18"/>
<polygon fill="black" stroke="black" points="1927.95,-21.5001 1937.95,-18 1927.95,-14.5001 1927.95,-21.5001"/>
<text text-anchor="middle" x="1892" y="-21.8" font-family="Times,serif" font-size="14.00">u0009</text>
</g>
<!-- 50 -->
<g id="node52" class="node"><title>50</title>
<ellipse fill="none" stroke="black" cx="2084" cy="-18" rx="18" ry="18"/>
</g>
<!-- 48&#45;&gt;50 -->
<g id="edge56" class="edge"><title>48&#45;&gt;50</title>
<path fill="none" stroke="black" d="M1974.26,-18C1995.27,-18 2031.03,-18 2055.77,-18"/>
<polygon fill="black" stroke="black" points="2055.95,-21.5001 2065.95,-18 2055.95,-14.5001 2055.95,-21.5001"/>
<text text-anchor="middle" x="2020" y="-21.8" font-family="Times,serif" font-size="14.00">u0011</text>
</g>
<!-- 52 -->
<g id="node53" class="node"><title>52</title>
<ellipse fill="none" stroke="black" cx="2207" cy="-18" rx="18" ry="18"/>
</g>
<!-- 50&#45;&gt;52 -->
<g id="edge57" class="edge"><title>50&#45;&gt;52</title>
<path fill="none" stroke="black" d="M2102.08,-18C2121.96,-18 2155.08,-18 2178.58,-18"/>
<polygon fill="black" stroke="black" points="2178.62,-21.5001 2188.62,-18 2178.62,-14.5001 2178.62,-21.5001"/>
<text text-anchor="middle" x="2148" y="-21.8" font-family="Times,serif" font-size="14.00">u000b</text>
</g>
<!-- 53 -->
<g id="node54" class="node"><title>53</title>
<ellipse fill="none" stroke="black" cx="2325" cy="-18" rx="18" ry="18"/>
</g>
<!-- 52&#45;&gt;53 -->
<g id="edge58" class="edge"><title>52&#45;&gt;53</title>
<path fill="none" stroke="black" d="M2225.12,-18C2243.96,-18 2274.53,-18 2296.7,-18"/>
<polygon fill="black" stroke="black" points="2296.81,-21.5001 2306.81,-18 2296.81,-14.5001 2296.81,-21.5001"/>
<text text-anchor="middle" x="2266" y="-21.8" font-family="Times,serif" font-size="14.00">u0010</text>
</g>
<!-- 54 -->
<g id="node55" class="node"><title>54</title>
<ellipse fill="none" stroke="black" cx="2443" cy="-18" rx="18" ry="18"/>
</g>
<!-- 53&#45;&gt;54 -->
<g id="edge59" class="edge"><title>53&#45;&gt;54</title>
<path fill="none" stroke="black" d="M2343.12,-18C2361.96,-18 2392.53,-18 2414.7,-18"/>
<polygon fill="black" stroke="black" points="2414.81,-21.5001 2424.81,-18 2414.81,-14.5001 2414.81,-21.5001"/>
<text text-anchor="middle" x="2384" y="-21.8" font-family="Times,serif" font-size="14.00">u0009</text>
</g>
<!-- 55 -->
<g id="node56" class="node"><title>55</title>
<ellipse fill="none" stroke="black" cx="2561" cy="-18" rx="18" ry="18"/>
</g>
<!-- 54&#45;&gt;55 -->
<g id="edge60" class="edge"><title>54&#45;&gt;55</title>
<path fill="none" stroke="black" d="M2461.12,-18C2479.96,-18 2510.53,-18 2532.7,-18"/>
<polygon fill="black" stroke="black" points="2532.81,-21.5001 2542.81,-18 2532.81,-14.5001 2532.81,-21.5001"/>
<text text-anchor="middle" x="2502" y="-21.8" font-family="Times,serif" font-size="14.00">u000a</text>
</g>
<!-- 56 -->
<g id="node57" class="node"><title>56</title>
<ellipse fill="none" stroke="black" cx="2679" cy="-18" rx="18" ry="18"/>
</g>
<!-- 55&#45;&gt;56 -->
<g id="edge61" class="edge"><title>55&#45;&gt;56</title>
<path fill="none" stroke="black" d="M2579.12,-18C2597.96,-18 2628.53,-18 2650.7,-18"/>
<polygon fill="black" stroke="black" points="2650.81,-21.5001 2660.81,-18 2650.81,-14.5001 2650.81,-21.5001"/>
<text text-anchor="middle" x="2620" y="-21.8" font-family="Times,serif" font-size="14.00">u0008</text>
</g>
<!-- 57 -->
<g id="node58" class="node"><title>57</title>
<ellipse fill="none" stroke="black" cx="2797" cy="-18" rx="18" ry="18"/>
</g>
<!-- 56&#45;&gt;57 -->
<g id="edge62" class="edge"><title>56&#45;&gt;57</title>
<path fill="none" stroke="black" d="M2697.12,-18C2715.96,-18 2746.53,-18 2768.7,-18"/>
<polygon fill="black" stroke="black" points="2768.81,-21.5001 2778.81,-18 2768.81,-14.5001 2768.81,-21.5001"/>
<text text-anchor="middle" x="2738" y="-21.8" font-family="Times,serif" font-size="14.00">u0008</text>
</g>
<!-- 58 -->
<g id="node59" class="node"><title>58</title>
<ellipse fill="none" stroke="black" cx="2920" cy="-18" rx="18" ry="18"/>
</g>
<!-- 57&#45;&gt;58 -->
<g id="edge63" class="edge"><title>57&#45;&gt;58</title>
<path fill="none" stroke="black" d="M2815.08,-18C2834.96,-18 2868.08,-18 2891.58,-18"/>
<polygon fill="black" stroke="black" points="2891.62,-21.5001 2901.62,-18 2891.62,-14.5001 2891.62,-21.5001"/>
<text text-anchor="middle" x="2856" y="-21.8" font-family="Times,serif" font-size="14.00">u000b</text>
</g>
<!-- 59 -->
<g id="node60" class="node"><title>59</title>
<ellipse fill="none" stroke="black" cx="3048" cy="-18" rx="18" ry="18"/>
</g>
<!-- 58&#45;&gt;59 -->
<g id="edge64" class="edge"><title>58&#45;&gt;59</title>
<path fill="none" stroke="black" d="M2938.26,-18C2959.27,-18 2995.03,-18 3019.77,-18"/>
<polygon fill="black" stroke="black" points="3019.95,-21.5001 3029.95,-18 3019.95,-14.5001 3019.95,-21.5001"/>
<text text-anchor="middle" x="2984" y="-21.8" font-family="Times,serif" font-size="14.00">u000b</text>
</g>
<!-- 59&#45;&gt;51 -->
<g id="edge65" class="edge"><title>59&#45;&gt;51</title>
<path fill="none" stroke="black" d="M3066.13,-19.2065C3083.96,-20.9545 3112.4,-25.1442 3135,-35 3141.55,-37.8566 3148.07,-41.9253 3153.89,-46.1147"/>
<polygon fill="black" stroke="black" points="3151.77,-48.9004 3161.84,-52.2117 3156.04,-43.3471 3151.77,-48.9004"/>
<text text-anchor="middle" x="3112" y="-38.8" font-family="Times,serif" font-size="14.00">u000a</text>
</g>
<!-- initial -->
<g id="node61" class="node"><title>initial</title>
</g>
<!-- initial&#45;&gt;0 -->
<g id="edge66" class="edge"><title>initial&#45;&gt;0</title>
<path fill="none" stroke="black" d="M54.195,-187C62.6538,-187 72.0513,-187 80.5951,-187"/>
<polygon fill="black" stroke="black" points="80.8257,-190.5 90.8257,-187 80.8257,-183.5 80.8257,-190.5"/>
</g>
</g>
</svg>
