<svg width="3327px" height="1281px"
 viewBox="0.00 0.00 2495.00 961.00" xmlns="http://www.w3.org/2000/svg" xmlns:xlink="http://www.w3.org/1999/xlink">
<g id="graph0" class="graph" transform="scale(1.000022500562514 1.000022500562514) rotate(0) translate(4 957)">
<title>Automaton</title>
<polygon fill="white" stroke="none" points="-4,4 -4,-957 2491,-957 2491,4 -4,4"/>
<!-- 0 -->
<g id="node1" class="node"><title>0</title>
<ellipse fill="none" stroke="black" cx="109" cy="-803" rx="18" ry="18"/>
</g>
<!-- 1 -->
<g id="node2" class="node"><title>1</title>
<ellipse fill="none" stroke="black" cx="227" cy="-803" rx="18" ry="18"/>
</g>
<!-- 0&#45;&gt;1 -->
<g id="edge1" class="edge"><title>0&#45;&gt;1</title>
<path fill="none" stroke="black" d="M127.116,-803C145.964,-803 176.531,-803 198.696,-803"/>
<polygon fill="black" stroke="black" points="198.814,-806.5 208.814,-803 198.814,-799.5 198.814,-806.5"/>
<text text-anchor="middle" x="168" y="-806.8" font-family="Times,serif" font-size="14.00">u0002</text>
</g>
<!-- 2 -->
<g id="node3" class="node"><title>2</title>
<ellipse fill="none" stroke="black" cx="345" cy="-803" rx="18" ry="18"/>
</g>
<!-- 1&#45;&gt;2 -->
<g id="edge2" class="edge"><title>1&#45;&gt;2</title>
<path fill="none" stroke="black" d="M245.116,-803C263.964,-803 294.531,-803 316.696,-803"/>
<polygon fill="black" stroke="black" points="316.814,-806.5 326.814,-803 316.814,-799.5 316.814,-806.5"/>
<text text-anchor="middle" x="286" y="-806.8" font-family="Times,serif" font-size="14.00">u0001</text>
</g>
<!-- 3 -->
<g id="node4" class="node"><title>3</title>
<ellipse fill="none" stroke="black" cx="463" cy="-803" rx="18" ry="18"/>
</g>
<!-- 2&#45;&gt;3 -->
<g id="edge3" class="edge"><title>2&#45;&gt;3</title>
<path fill="none" stroke="black" d="M363.116,-803C381.964,-803 412.531,-803 434.696,-803"/>
<polygon fill="black" stroke="black" points="434.814,-806.5 444.814,-803 434.814,-799.5 434.814,-806.5"/>
<text text-anchor="middle" x="404" y="-806.8" font-family="Times,serif" font-size="14.00">u0000</text>
</g>
<!-- 4 -->
<g id="node5" class="node"><title>4</title>
<ellipse fill="none" stroke="black" cx="945" cy="-803" rx="18" ry="18"/>
</g>
<!-- 3&#45;&gt;4 -->
<g id="edge4" class="edge"><title>3&#45;&gt;4</title>
<path fill="none" stroke="black" d="M481.295,-803C503.962,-803 544.958,-803 580,-803 580,-803 580,-803 828,-803 858.251,-803 892.939,-803 916.442,-803"/>
<polygon fill="black" stroke="black" points="916.706,-806.5 926.705,-803 916.705,-799.5 916.706,-806.5"/>
<text text-anchor="middle" x="704" y="-806.8" font-family="Times,serif" font-size="14.00">u0004</text>
</g>
<!-- 5 -->
<g id="node9" class="node"><title>5</title>
<ellipse fill="none" stroke="black" cx="2465" cy="-372" rx="18" ry="18"/>
<ellipse fill="none" stroke="black" cx="2465" cy="-372" rx="22" ry="22"/>
</g>
<!-- 3&#45;&gt;5 -->
<g id="edge5" class="edge"><title>3&#45;&gt;5</title>
<path fill="none" stroke="black" d="M469.448,-819.825C482.341,-856.014 518.352,-938 580,-938 580,-938 580,-938 2339,-938 2395.95,-938 2402.34,-895.252 2425,-843 2459.3,-763.891 2463.57,-497.2 2464,-404.264"/>
<polygon fill="black" stroke="black" points="2467.5,-404.076 2464.03,-394.065 2460.5,-404.053 2467.5,-404.076"/>
<text text-anchor="middle" x="1442" y="-941.8" font-family="Times,serif" font-size="14.00">u0003</text>
</g>
<!-- 6 -->
<g id="node27" class="node"><title>6</title>
<ellipse fill="none" stroke="black" cx="581" cy="-161" rx="18" ry="18"/>
</g>
<!-- 3&#45;&gt;6 -->
<g id="edge6" class="edge"><title>3&#45;&gt;6</title>
<path fill="none" stroke="black" d="M467.224,-785.159C483.354,-695.886 555.308,-297.659 575.002,-188.659"/>
<polygon fill="black" stroke="black" points="578.458,-189.218 576.792,-178.755 571.57,-187.973 578.458,-189.218"/>
<text text-anchor="middle" x="522" y="-599.8" font-family="Times,serif" font-size="14.00">u0005</text>
</g>
<!-- 7 -->
<g id="node6" class="node"><title>7</title>
<ellipse fill="none" stroke="black" cx="1826" cy="-595" rx="18" ry="18"/>
</g>
<!-- 4&#45;&gt;7 -->
<g id="edge7" class="edge"><title>4&#45;&gt;7</title>
<path fill="none" stroke="black" d="M948.276,-785.08C955.566,-736.34 983.004,-605 1067,-605 1067,-605 1067,-605 1699,-605 1733.18,-605 1772.41,-601.299 1797.89,-598.399"/>
<polygon fill="black" stroke="black" points="1798.39,-601.865 1807.91,-597.219 1797.57,-594.913 1798.39,-601.865"/>
<text text-anchor="middle" x="1378" y="-608.8" font-family="Times,serif" font-size="14.00">u0004</text>
</g>
<!-- 4&#45;&gt;5 -->
<g id="edge8" class="edge"><title>4&#45;&gt;5</title>
<path fill="none" stroke="black" d="M956.101,-817.697C974.8,-842.975 1017.45,-892 1067,-892 1067,-892 1067,-892 2339,-892 2402.47,-892 2401.99,-837.148 2425,-778 2451.47,-709.958 2460.6,-488.1 2463.15,-404.377"/>
<polygon fill="black" stroke="black" points="2466.66,-404.286 2463.45,-394.188 2459.66,-404.081 2466.66,-404.286"/>
<text text-anchor="middle" x="1698" y="-895.8" font-family="Times,serif" font-size="14.00">u0003</text>
</g>
<!-- 8 -->
<g id="node16" class="node"><title>8</title>
<ellipse fill="none" stroke="black" cx="1068" cy="-803" rx="18" ry="18"/>
</g>
<!-- 4&#45;&gt;8 -->
<g id="edge9" class="edge"><title>4&#45;&gt;8</title>
<path fill="none" stroke="black" d="M963.08,-803C982.965,-803 1016.08,-803 1039.58,-803"/>
<polygon fill="black" stroke="black" points="1039.62,-806.5 1049.62,-803 1039.62,-799.5 1039.62,-806.5"/>
<text text-anchor="middle" x="1004" y="-806.8" font-family="Times,serif" font-size="14.00">u0005</text>
</g>
<!-- 11 -->
<g id="node7" class="node"><title>11</title>
<ellipse fill="none" stroke="black" cx="1954" cy="-414" rx="18" ry="18"/>
</g>
<!-- 7&#45;&gt;11 -->
<g id="edge10" class="edge"><title>7&#45;&gt;11</title>
<path fill="none" stroke="black" d="M1840.62,-583.838C1862.34,-565.767 1903.38,-530.472 1913,-514 1929.85,-485.144 1916.08,-470.902 1931,-441 1932.03,-438.934 1933.24,-436.883 1934.56,-434.89"/>
<polygon fill="black" stroke="black" points="1937.55,-436.737 1940.77,-426.642 1931.96,-432.527 1937.55,-436.737"/>
<text text-anchor="middle" x="1890" y="-564.8" font-family="Times,serif" font-size="14.00">u0004</text>
</g>
<!-- 7&#45;&gt;5 -->
<g id="edge11" class="edge"><title>7&#45;&gt;5</title>
<path fill="none" stroke="black" d="M1843.22,-600.737C1850.45,-603.17 1859.09,-605.919 1867,-608 1923.14,-622.773 1937.51,-625.946 1995,-634 2158.04,-656.839 2210.32,-643.317 2361,-577 2392.36,-563.196 2405.43,-562.133 2425,-534 2452.17,-494.937 2460.53,-439.193 2463.03,-404.33"/>
<polygon fill="black" stroke="black" points="2466.53,-404.413 2463.63,-394.223 2459.54,-403.996 2466.53,-404.413"/>
<text text-anchor="middle" x="2146" y="-648.8" font-family="Times,serif" font-size="14.00">u0003</text>
</g>
<!-- 12 -->
<g id="node12" class="node"><title>12</title>
<ellipse fill="none" stroke="black" cx="1954" cy="-576" rx="18" ry="18"/>
</g>
<!-- 7&#45;&gt;12 -->
<g id="edge12" class="edge"><title>7&#45;&gt;12</title>
<path fill="none" stroke="black" d="M1843.99,-592.438C1864.94,-589.279 1900.81,-583.87 1925.65,-580.124"/>
<polygon fill="black" stroke="black" points="1926.51,-583.535 1935.87,-578.583 1925.46,-576.613 1926.51,-583.535"/>
<text text-anchor="middle" x="1890" y="-592.8" font-family="Times,serif" font-size="14.00">u0005</text>
</g>
<!-- 19 -->
<g id="node8" class="node"><title>19</title>
<ellipse fill="none" stroke="black" cx="2082" cy="-398" rx="18" ry="18"/>
</g>
<!-- 11&#45;&gt;19 -->
<g id="edge13" class="edge"><title>11&#45;&gt;19</title>
<path fill="none" stroke="black" d="M1971.99,-411.842C1992.94,-409.182 2028.81,-404.627 2053.65,-401.473"/>
<polygon fill="black" stroke="black" points="2054.39,-404.907 2063.87,-400.175 2053.51,-397.962 2054.39,-404.907"/>
<text text-anchor="middle" x="2018" y="-412.8" font-family="Times,serif" font-size="14.00">u0004</text>
</g>
<!-- 11&#45;&gt;5 -->
<g id="edge14" class="edge"><title>11&#45;&gt;5</title>
<path fill="none" stroke="black" d="M1971.02,-420.995C1978.2,-423.767 1986.88,-426.619 1995,-428 2015.16,-431.425 2020.56,-428.479 2041,-428 2155.17,-425.326 2183.46,-418.269 2297,-406 2353.95,-399.846 2370.03,-407.104 2425,-391 2428.69,-389.92 2432.45,-388.516 2436.12,-386.961"/>
<polygon fill="black" stroke="black" points="2437.88,-390 2445.47,-382.606 2434.93,-383.654 2437.88,-390"/>
<text text-anchor="middle" x="2210" y="-422.8" font-family="Times,serif" font-size="14.00">u0003</text>
</g>
<!-- 19&#45;&gt;5 -->
<g id="edge15" class="edge"><title>19&#45;&gt;5</title>
<path fill="none" stroke="black" d="M2100.36,-396.815C2159.87,-392.754 2356.15,-379.36 2432.87,-374.124"/>
<polygon fill="black" stroke="black" points="2433.14,-377.614 2442.88,-373.441 2432.66,-370.63 2433.14,-377.614"/>
<text text-anchor="middle" x="2274" y="-390.8" font-family="Times,serif" font-size="14.00">u0003</text>
</g>
<!-- 28 -->
<g id="node10" class="node"><title>28</title>
<ellipse fill="none" stroke="black" cx="2210" cy="-501" rx="18" ry="18"/>
</g>
<!-- 19&#45;&gt;28 -->
<g id="edge16" class="edge"><title>19&#45;&gt;28</title>
<path fill="none" stroke="black" d="M2096.48,-409.023C2118.37,-426.911 2161.78,-462.402 2187.82,-483.686"/>
<polygon fill="black" stroke="black" points="2185.66,-486.437 2195.61,-490.056 2190.09,-481.018 2185.66,-486.437"/>
<text text-anchor="middle" x="2146" y="-471.8" font-family="Times,serif" font-size="14.00">u0005</text>
</g>
<!-- 13 -->
<g id="node11" class="node"><title>13</title>
<ellipse fill="none" stroke="black" cx="2338" cy="-499" rx="18" ry="18"/>
</g>
<!-- 28&#45;&gt;13 -->
<g id="edge17" class="edge"><title>28&#45;&gt;13</title>
<path fill="none" stroke="black" d="M2228.13,-500.522C2235.21,-500.337 2243.5,-500.137 2251,-500 2270.59,-499.641 2292.7,-499.387 2309.6,-499.225"/>
<polygon fill="black" stroke="black" points="2309.9,-502.723 2319.87,-499.132 2309.83,-495.723 2309.9,-502.723"/>
<text text-anchor="middle" x="2274" y="-503.8" font-family="Times,serif" font-size="14.00">u0005</text>
</g>
<!-- 13&#45;&gt;5 -->
<g id="edge18" class="edge"><title>13&#45;&gt;5</title>
<path fill="none" stroke="black" d="M2355.5,-493.487C2374.39,-486.457 2405.26,-472.678 2425,-452 2438.34,-438.023 2447.95,-418.613 2454.3,-402.412"/>
<polygon fill="black" stroke="black" points="2457.66,-403.41 2457.83,-392.817 2451.09,-400.992 2457.66,-403.41"/>
<text text-anchor="middle" x="2402" y="-487.8" font-family="Times,serif" font-size="14.00">u0003</text>
</g>
<!-- 20 -->
<g id="node13" class="node"><title>20</title>
<ellipse fill="none" stroke="black" cx="2082" cy="-555" rx="18" ry="18"/>
</g>
<!-- 12&#45;&gt;20 -->
<g id="edge19" class="edge"><title>12&#45;&gt;20</title>
<path fill="none" stroke="black" d="M1969.07,-565.973C1976.42,-561.348 1985.79,-556.366 1995,-554 2014.22,-549.064 2036.66,-549.522 2053.8,-551.104"/>
<polygon fill="black" stroke="black" points="2053.88,-554.635 2064.21,-552.26 2054.65,-547.677 2053.88,-554.635"/>
<text text-anchor="middle" x="2018" y="-557.8" font-family="Times,serif" font-size="14.00">u0004</text>
</g>
<!-- 21 -->
<g id="node14" class="node"><title>21</title>
<ellipse fill="none" stroke="black" cx="2082" cy="-612" rx="18" ry="18"/>
</g>
<!-- 12&#45;&gt;21 -->
<g id="edge20" class="edge"><title>12&#45;&gt;21</title>
<path fill="none" stroke="black" d="M1967.1,-588.539C1974.47,-595.302 1984.47,-603.052 1995,-607 2013.79,-614.043 2036.5,-615.078 2053.87,-614.467"/>
<polygon fill="black" stroke="black" points="2054.11,-617.959 2063.91,-613.913 2053.73,-610.969 2054.11,-617.959"/>
<text text-anchor="middle" x="2018" y="-618.8" font-family="Times,serif" font-size="14.00">u0005</text>
</g>
<!-- 20&#45;&gt;28 -->
<g id="edge21" class="edge"><title>20&#45;&gt;28</title>
<path fill="none" stroke="black" d="M2098.96,-548.818C2116.32,-542.025 2144.81,-530.658 2169,-520 2173.97,-517.809 2179.25,-515.379 2184.28,-513.01"/>
<polygon fill="black" stroke="black" points="2186,-516.069 2193.52,-508.606 2182.99,-509.751 2186,-516.069"/>
<text text-anchor="middle" x="2146" y="-542.8" font-family="Times,serif" font-size="14.00">u0004</text>
</g>
<!-- 29 -->
<g id="node15" class="node"><title>29</title>
<ellipse fill="none" stroke="black" cx="2210" cy="-567" rx="18" ry="18"/>
</g>
<!-- 21&#45;&gt;29 -->
<g id="edge22" class="edge"><title>21&#45;&gt;29</title>
<path fill="none" stroke="black" d="M2099.21,-606.209C2120.48,-598.615 2158.03,-585.203 2183.22,-576.208"/>
<polygon fill="black" stroke="black" points="2184.61,-579.428 2192.85,-572.769 2182.25,-572.836 2184.61,-579.428"/>
<text text-anchor="middle" x="2146" y="-601.8" font-family="Times,serif" font-size="14.00">u0005</text>
</g>
<!-- 29&#45;&gt;5 -->
<g id="edge24" class="edge"><title>29&#45;&gt;5</title>
<path fill="none" stroke="black" d="M2228.17,-567.354C2268.87,-567.197 2371.83,-560.784 2425,-503 2449.9,-475.94 2458.95,-433.637 2462.21,-404.462"/>
<polygon fill="black" stroke="black" points="2465.7,-404.645 2463.16,-394.36 2458.74,-403.984 2465.7,-404.645"/>
<text text-anchor="middle" x="2338" y="-561.8" font-family="Times,serif" font-size="14.00">u0003</text>
</g>
<!-- 29&#45;&gt;13 -->
<g id="edge23" class="edge"><title>29&#45;&gt;13</title>
<path fill="none" stroke="black" d="M2224.6,-556.084C2232.13,-550.316 2241.8,-543.345 2251,-538 2270.55,-526.637 2294,-516.197 2311.47,-508.984"/>
<polygon fill="black" stroke="black" points="2313.04,-512.126 2320.99,-505.127 2310.41,-505.638 2313.04,-512.126"/>
<text text-anchor="middle" x="2274" y="-541.8" font-family="Times,serif" font-size="14.00">u0004</text>
</g>
<!-- 8&#45;&gt;5 -->
<g id="edge26" class="edge"><title>8&#45;&gt;5</title>
<path fill="none" stroke="black" d="M1083.68,-811.91C1105.87,-824.505 1149.65,-846 1190,-846 1190,-846 1190,-846 2339,-846 2430.64,-846 2456.56,-510.568 2462.48,-404.053"/>
<polygon fill="black" stroke="black" points="2465.98,-404.084 2463.02,-393.911 2458.99,-403.711 2465.98,-404.084"/>
<text text-anchor="middle" x="1762" y="-849.8" font-family="Times,serif" font-size="14.00">u0003</text>
</g>
<!-- 8&#45;&gt;13 -->
<g id="edge25" class="edge"><title>8&#45;&gt;13</title>
<path fill="none" stroke="black" d="M1086.23,-803C1109.7,-803 1153.03,-803 1190,-803 1190,-803 1190,-803 2019,-803 2172.78,-803 2213.32,-726.017 2297,-597 2311,-575.422 2305.11,-565.744 2315,-542 2317.54,-535.904 2320.6,-529.489 2323.62,-523.529"/>
<polygon fill="black" stroke="black" points="2326.73,-525.133 2328.25,-514.648 2320.52,-521.897 2326.73,-525.133"/>
<text text-anchor="middle" x="1698" y="-806.8" font-family="Times,serif" font-size="14.00">u0004</text>
</g>
<!-- 14 -->
<g id="node17" class="node"><title>14</title>
<ellipse fill="none" stroke="black" cx="1191" cy="-738" rx="18" ry="18"/>
</g>
<!-- 8&#45;&gt;14 -->
<g id="edge27" class="edge"><title>8&#45;&gt;14</title>
<path fill="none" stroke="black" d="M1082.59,-792.056C1090.11,-786.28 1099.78,-779.31 1109,-774 1126.89,-763.692 1148.27,-754.302 1164.58,-747.697"/>
<polygon fill="black" stroke="black" points="1165.99,-750.902 1173.99,-743.962 1163.41,-744.395 1165.99,-750.902"/>
<text text-anchor="middle" x="1132" y="-777.8" font-family="Times,serif" font-size="14.00">u0005</text>
</g>
<!-- 14&#45;&gt;5 -->
<g id="edge29" class="edge"><title>14&#45;&gt;5</title>
<path fill="none" stroke="black" d="M1208.7,-742.311C1231.93,-747.917 1275.36,-757 1313,-757 1313,-757 1313,-757 1635,-757 1874.31,-757 1946.61,-776.38 2169,-688 2256.06,-653.401 2277.18,-642.838 2361,-601 2390.01,-586.522 2405.79,-592.113 2425,-566 2443.65,-540.661 2455.57,-452.283 2460.85,-404.034"/>
<polygon fill="black" stroke="black" points="2464.36,-404.134 2461.94,-393.821 2457.4,-403.395 2464.36,-404.134"/>
<text text-anchor="middle" x="1826" y="-762.8" font-family="Times,serif" font-size="14.00">u0003</text>
</g>
<!-- 22 -->
<g id="node18" class="node"><title>22</title>
<ellipse fill="none" stroke="black" cx="1314" cy="-711" rx="18" ry="18"/>
</g>
<!-- 14&#45;&gt;22 -->
<g id="edge28" class="edge"><title>14&#45;&gt;22</title>
<path fill="none" stroke="black" d="M1208.31,-733.037C1214.17,-731.332 1220.86,-729.482 1227,-728 1246.54,-723.286 1268.81,-718.911 1285.79,-715.78"/>
<polygon fill="black" stroke="black" points="1286.89,-719.139 1296.1,-713.912 1285.64,-712.251 1286.89,-719.139"/>
<text text-anchor="middle" x="1250" y="-731.8" font-family="Times,serif" font-size="14.00">u0004</text>
</g>
<!-- 23 -->
<g id="node21" class="node"><title>23</title>
<ellipse fill="none" stroke="black" cx="1314" cy="-651" rx="18" ry="18"/>
</g>
<!-- 14&#45;&gt;23 -->
<g id="edge30" class="edge"><title>14&#45;&gt;23</title>
<path fill="none" stroke="black" d="M1202.76,-724.362C1209.27,-716.649 1218.02,-707.149 1227,-700 1245.95,-684.922 1270.09,-671.598 1287.97,-662.664"/>
<polygon fill="black" stroke="black" points="1289.73,-665.699 1297.19,-658.17 1286.66,-659.407 1289.73,-665.699"/>
<text text-anchor="middle" x="1250" y="-703.8" font-family="Times,serif" font-size="14.00">u0005</text>
</g>
<!-- 30 -->
<g id="node19" class="node"><title>30</title>
<ellipse fill="none" stroke="black" cx="1442" cy="-711" rx="18" ry="18"/>
</g>
<!-- 22&#45;&gt;30 -->
<g id="edge31" class="edge"><title>22&#45;&gt;30</title>
<path fill="none" stroke="black" d="M1332.26,-711C1353.27,-711 1389.03,-711 1413.77,-711"/>
<polygon fill="black" stroke="black" points="1413.95,-714.5 1423.95,-711 1413.95,-707.5 1413.95,-714.5"/>
<text text-anchor="middle" x="1378" y="-714.8" font-family="Times,serif" font-size="14.00">u0005</text>
</g>
<!-- 35 -->
<g id="node20" class="node"><title>35</title>
<ellipse fill="none" stroke="black" cx="1570" cy="-711" rx="18" ry="18"/>
</g>
<!-- 30&#45;&gt;35 -->
<g id="edge32" class="edge"><title>30&#45;&gt;35</title>
<path fill="none" stroke="black" d="M1460.26,-711C1481.27,-711 1517.03,-711 1541.77,-711"/>
<polygon fill="black" stroke="black" points="1541.95,-714.5 1551.95,-711 1541.95,-707.5 1541.95,-714.5"/>
<text text-anchor="middle" x="1506" y="-714.8" font-family="Times,serif" font-size="14.00">u0004</text>
</g>
<!-- 35&#45;&gt;13 -->
<g id="edge33" class="edge"><title>35&#45;&gt;13</title>
<path fill="none" stroke="black" d="M1588.21,-713.739C1662.1,-724.684 1958.21,-760.209 2169,-664 2236.45,-633.213 2247.05,-611.799 2297,-557 2306.53,-546.548 2315.61,-533.705 2322.7,-522.764"/>
<polygon fill="black" stroke="black" points="2325.78,-524.44 2328.16,-514.115 2319.86,-520.704 2325.78,-524.44"/>
<text text-anchor="middle" x="1954" y="-726.8" font-family="Times,serif" font-size="14.00">u0004</text>
</g>
<!-- 31 -->
<g id="node22" class="node"><title>31</title>
<ellipse fill="none" stroke="black" cx="1442" cy="-651" rx="18" ry="18"/>
</g>
<!-- 23&#45;&gt;31 -->
<g id="edge34" class="edge"><title>23&#45;&gt;31</title>
<path fill="none" stroke="black" d="M1332.26,-651C1353.27,-651 1389.03,-651 1413.77,-651"/>
<polygon fill="black" stroke="black" points="1413.95,-654.5 1423.95,-651 1413.95,-647.5 1413.95,-654.5"/>
<text text-anchor="middle" x="1378" y="-654.8" font-family="Times,serif" font-size="14.00">u0004</text>
</g>
<!-- 36 -->
<g id="node23" class="node"><title>36</title>
<ellipse fill="none" stroke="black" cx="1570" cy="-653" rx="18" ry="18"/>
</g>
<!-- 31&#45;&gt;36 -->
<g id="edge35" class="edge"><title>31&#45;&gt;36</title>
<path fill="none" stroke="black" d="M1460.14,-649.865C1477.51,-648.889 1505.13,-647.81 1529,-649 1533.12,-649.205 1537.46,-649.529 1541.71,-649.905"/>
<polygon fill="black" stroke="black" points="1541.6,-653.411 1551.9,-650.912 1542.29,-646.445 1541.6,-653.411"/>
<text text-anchor="middle" x="1506" y="-652.8" font-family="Times,serif" font-size="14.00">u0005</text>
</g>
<!-- 40 -->
<g id="node24" class="node"><title>40</title>
<ellipse fill="none" stroke="black" cx="1698" cy="-653" rx="18" ry="18"/>
</g>
<!-- 36&#45;&gt;40 -->
<g id="edge36" class="edge"><title>36&#45;&gt;40</title>
<path fill="none" stroke="black" d="M1588.26,-653C1609.27,-653 1645.03,-653 1669.77,-653"/>
<polygon fill="black" stroke="black" points="1669.95,-656.5 1679.95,-653 1669.95,-649.5 1669.95,-656.5"/>
<text text-anchor="middle" x="1634" y="-656.8" font-family="Times,serif" font-size="14.00">u0004</text>
</g>
<!-- 42 -->
<g id="node25" class="node"><title>42</title>
<ellipse fill="none" stroke="black" cx="1826" cy="-664" rx="18" ry="18"/>
</g>
<!-- 40&#45;&gt;42 -->
<g id="edge37" class="edge"><title>40&#45;&gt;42</title>
<path fill="none" stroke="black" d="M1715.99,-654.484C1736.94,-656.312 1772.81,-659.444 1797.65,-661.613"/>
<polygon fill="black" stroke="black" points="1797.61,-665.122 1807.87,-662.505 1798.22,-658.148 1797.61,-665.122"/>
<text text-anchor="middle" x="1762" y="-664.8" font-family="Times,serif" font-size="14.00">u0005</text>
</g>
<!-- 44 -->
<g id="node26" class="node"><title>44</title>
<ellipse fill="none" stroke="black" cx="1954" cy="-668" rx="18" ry="18"/>
</g>
<!-- 42&#45;&gt;44 -->
<g id="edge38" class="edge"><title>42&#45;&gt;44</title>
<path fill="none" stroke="black" d="M1843.99,-664.539C1864.94,-665.204 1900.81,-666.343 1925.65,-667.132"/>
<polygon fill="black" stroke="black" points="1925.77,-670.637 1935.87,-667.456 1925.99,-663.641 1925.77,-670.637"/>
<text text-anchor="middle" x="1890" y="-670.8" font-family="Times,serif" font-size="14.00">u0004</text>
</g>
<!-- 44&#45;&gt;20 -->
<g id="edge39" class="edge"><title>44&#45;&gt;20</title>
<path fill="none" stroke="black" d="M1959.58,-650.731C1965.16,-632.789 1976.25,-605.007 1995,-588 1997.38,-585.84 2030.72,-573.368 2055.17,-564.394"/>
<polygon fill="black" stroke="black" points="2056.48,-567.642 2064.67,-560.92 2054.08,-561.068 2056.48,-567.642"/>
<text text-anchor="middle" x="2018" y="-591.8" font-family="Times,serif" font-size="14.00">u0004</text>
</g>
<!-- 6&#45;&gt;5 -->
<g id="edge41" class="edge"><title>6&#45;&gt;5</title>
<path fill="none" stroke="black" d="M586.202,-143.464C597.356,-101.736 631.846,-0 703,-0 703,-0 703,-0 2339,-0 2381.15,-0 2400.3,-5.84373 2425,-40 2459.28,-87.3969 2463.76,-266.012 2464.11,-339.802"/>
<polygon fill="black" stroke="black" points="2460.61,-339.909 2464.13,-349.9 2467.61,-339.891 2460.61,-339.909"/>
<text text-anchor="middle" x="1506" y="-3.8" font-family="Times,serif" font-size="14.00">u0003</text>
</g>
<!-- 9 -->
<g id="node28" class="node"><title>9</title>
<ellipse fill="none" stroke="black" cx="704" cy="-244" rx="18" ry="18"/>
</g>
<!-- 6&#45;&gt;9 -->
<g id="edge40" class="edge"><title>6&#45;&gt;9</title>
<path fill="none" stroke="black" d="M596.355,-170.847C617.096,-185.074 655.65,-211.52 680.278,-228.414"/>
<polygon fill="black" stroke="black" points="678.437,-231.395 688.663,-234.166 682.397,-225.623 678.437,-231.395"/>
<text text-anchor="middle" x="640" y="-218.8" font-family="Times,serif" font-size="14.00">u0004</text>
</g>
<!-- 10 -->
<g id="node44" class="node"><title>10</title>
<ellipse fill="none" stroke="black" cx="1570" cy="-139" rx="18" ry="18"/>
</g>
<!-- 6&#45;&gt;10 -->
<g id="edge42" class="edge"><title>6&#45;&gt;10</title>
<path fill="none" stroke="black" d="M599.229,-160.304C622.694,-159.418 666.016,-158 703,-158 703,-158 703,-158 1443,-158 1477.65,-158 1517.06,-150.888 1542.44,-145.366"/>
<polygon fill="black" stroke="black" points="1543.42,-148.734 1552.41,-143.123 1541.88,-141.905 1543.42,-148.734"/>
<text text-anchor="middle" x="1068" y="-161.8" font-family="Times,serif" font-size="14.00">u0005</text>
</g>
<!-- 9&#45;&gt;5 -->
<g id="edge44" class="edge"><title>9&#45;&gt;5</title>
<path fill="none" stroke="black" d="M720.607,-236.189C743.242,-225.601 786.769,-208 826,-208 826,-208 826,-208 1635,-208 1710.93,-208 1727.39,-183.918 1803,-177 2051,-154.311 2116.23,-182.116 2361,-228 2389.53,-233.348 2403.58,-221.409 2425,-241 2452.45,-266.106 2460.9,-309.581 2463.33,-339.518"/>
<polygon fill="black" stroke="black" points="2459.87,-340.113 2463.98,-349.875 2466.85,-339.676 2459.87,-340.113"/>
<text text-anchor="middle" x="1570" y="-211.8" font-family="Times,serif" font-size="14.00">u0003</text>
</g>
<!-- 15 -->
<g id="node29" class="node"><title>15</title>
<ellipse fill="none" stroke="black" cx="1954" cy="-360" rx="18" ry="18"/>
</g>
<!-- 9&#45;&gt;15 -->
<g id="edge43" class="edge"><title>9&#45;&gt;15</title>
<path fill="none" stroke="black" d="M722.229,-244.696C745.694,-245.582 789.016,-247 826,-247 826,-247 826,-247 1133,-247 1246.45,-247 1263.55,-322 1377,-322 1377,-322 1377,-322 1635,-322 1739.95,-322 1762.51,-356.179 1867,-366 1887.35,-367.913 1892.61,-367.521 1913,-366 1917.14,-365.692 1921.49,-365.206 1925.75,-364.642"/>
<polygon fill="black" stroke="black" points="1926.56,-368.06 1935.93,-363.132 1925.53,-361.136 1926.56,-368.06"/>
<text text-anchor="middle" x="1314" y="-322.8" font-family="Times,serif" font-size="14.00">u0004</text>
</g>
<!-- 16 -->
<g id="node30" class="node"><title>16</title>
<ellipse fill="none" stroke="black" cx="827" cy="-336" rx="18" ry="18"/>
</g>
<!-- 9&#45;&gt;16 -->
<g id="edge45" class="edge"><title>9&#45;&gt;16</title>
<path fill="none" stroke="black" d="M718.88,-254.554C739.759,-270.428 779.433,-300.594 804.199,-319.424"/>
<polygon fill="black" stroke="black" points="802.203,-322.303 812.282,-325.57 806.44,-316.731 802.203,-322.303"/>
<text text-anchor="middle" x="768" y="-312.8" font-family="Times,serif" font-size="14.00">u0005</text>
</g>
<!-- 15&#45;&gt;19 -->
<g id="edge46" class="edge"><title>15&#45;&gt;19</title>
<path fill="none" stroke="black" d="M1971.53,-364.64C1988.88,-369.548 2016.93,-377.591 2041,-385 2045.52,-386.391 2050.31,-387.91 2054.95,-389.403"/>
<polygon fill="black" stroke="black" points="2054.1,-392.806 2064.69,-392.571 2056.26,-386.15 2054.1,-392.806"/>
<text text-anchor="middle" x="2018" y="-388.8" font-family="Times,serif" font-size="14.00">u0004</text>
</g>
<!-- 15&#45;&gt;13 -->
<g id="edge47" class="edge"><title>15&#45;&gt;13</title>
<path fill="none" stroke="black" d="M1972.35,-359.569C2000.55,-359.246 2057.92,-360.167 2105,-371 2164.68,-384.733 2179.5,-392.199 2233,-422 2263.74,-439.123 2295.79,-464.117 2316.05,-480.94"/>
<polygon fill="black" stroke="black" points="2314.06,-483.844 2323.97,-487.603 2318.57,-478.487 2314.06,-483.844"/>
<text text-anchor="middle" x="2146" y="-393.8" font-family="Times,serif" font-size="14.00">u0005</text>
</g>
<!-- 16&#45;&gt;5 -->
<g id="edge49" class="edge"><title>16&#45;&gt;5</title>
<path fill="none" stroke="black" d="M841.782,-325.433C862.681,-310.495 904.181,-285 944,-285 944,-285 944,-285 1133,-285 1241.52,-285 1268.48,-276 1377,-276 1377,-276 1377,-276 2019,-276 2142.94,-276 2176.49,-269.048 2297,-298 2348.92,-310.473 2404.79,-338.551 2436.95,-356.311"/>
<polygon fill="black" stroke="black" points="2435.32,-359.409 2445.75,-361.244 2438.74,-353.302 2435.32,-359.409"/>
<text text-anchor="middle" x="1634" y="-279.8" font-family="Times,serif" font-size="14.00">u0003</text>
</g>
<!-- 24 -->
<g id="node31" class="node"><title>24</title>
<ellipse fill="none" stroke="black" cx="945" cy="-352" rx="18" ry="18"/>
</g>
<!-- 16&#45;&gt;24 -->
<g id="edge48" class="edge"><title>16&#45;&gt;24</title>
<path fill="none" stroke="black" d="M845.116,-338.361C863.964,-340.961 894.531,-345.177 916.696,-348.234"/>
<polygon fill="black" stroke="black" points="916.429,-351.73 926.814,-349.629 917.386,-344.796 916.429,-351.73"/>
<text text-anchor="middle" x="886" y="-350.8" font-family="Times,serif" font-size="14.00">u0004</text>
</g>
<!-- 25 -->
<g id="node41" class="node"><title>25</title>
<ellipse fill="none" stroke="black" cx="1004" cy="-410" rx="18" ry="18"/>
</g>
<!-- 16&#45;&gt;25 -->
<g id="edge50" class="edge"><title>16&#45;&gt;25</title>
<path fill="none" stroke="black" d="M840.028,-348.459C846.387,-354.457 854.602,-361.34 863,-366 899.707,-386.367 947.157,-398.744 976.316,-404.978"/>
<polygon fill="black" stroke="black" points="975.678,-408.42 986.178,-407.001 977.085,-401.563 975.678,-408.42"/>
<text text-anchor="middle" x="886" y="-389.8" font-family="Times,serif" font-size="14.00">u0005</text>
</g>
<!-- 32 -->
<g id="node32" class="node"><title>32</title>
<ellipse fill="none" stroke="black" cx="1068" cy="-364" rx="18" ry="18"/>
</g>
<!-- 24&#45;&gt;32 -->
<g id="edge51" class="edge"><title>24&#45;&gt;32</title>
<path fill="none" stroke="black" d="M963.08,-353.694C983.078,-355.677 1016.45,-358.987 1039.98,-361.32"/>
<polygon fill="black" stroke="black" points="1039.71,-364.811 1050.01,-362.315 1040.4,-357.845 1039.71,-364.811"/>
<text text-anchor="middle" x="1004" y="-363.8" font-family="Times,serif" font-size="14.00">u0004</text>
</g>
<!-- 37 -->
<g id="node33" class="node"><title>37</title>
<ellipse fill="none" stroke="black" cx="1191" cy="-368" rx="18" ry="18"/>
</g>
<!-- 32&#45;&gt;37 -->
<g id="edge52" class="edge"><title>32&#45;&gt;37</title>
<path fill="none" stroke="black" d="M1086.08,-364.565C1106.08,-365.226 1139.45,-366.329 1162.98,-367.107"/>
<polygon fill="black" stroke="black" points="1162.9,-370.606 1173.01,-367.438 1163.13,-363.61 1162.9,-370.606"/>
<text text-anchor="middle" x="1132" y="-370.8" font-family="Times,serif" font-size="14.00">u0004</text>
</g>
<!-- 41 -->
<g id="node34" class="node"><title>41</title>
<ellipse fill="none" stroke="black" cx="1314" cy="-373" rx="18" ry="18"/>
</g>
<!-- 37&#45;&gt;41 -->
<g id="edge53" class="edge"><title>37&#45;&gt;41</title>
<path fill="none" stroke="black" d="M1209.08,-368.706C1229.08,-369.532 1262.45,-370.911 1285.98,-371.883"/>
<polygon fill="black" stroke="black" points="1285.87,-375.382 1296.01,-372.298 1286.16,-368.388 1285.87,-375.382"/>
<text text-anchor="middle" x="1250" y="-375.8" font-family="Times,serif" font-size="14.00">u0004</text>
</g>
<!-- 43 -->
<g id="node35" class="node"><title>43</title>
<ellipse fill="none" stroke="black" cx="1442" cy="-368" rx="18" ry="18"/>
</g>
<!-- 41&#45;&gt;43 -->
<g id="edge54" class="edge"><title>41&#45;&gt;43</title>
<path fill="none" stroke="black" d="M1331.99,-372.326C1352.94,-371.494 1388.81,-370.071 1413.65,-369.085"/>
<polygon fill="black" stroke="black" points="1414.02,-372.573 1423.87,-368.68 1413.74,-365.579 1414.02,-372.573"/>
<text text-anchor="middle" x="1378" y="-375.8" font-family="Times,serif" font-size="14.00">u0005</text>
</g>
<!-- 45 -->
<g id="node36" class="node"><title>45</title>
<ellipse fill="none" stroke="black" cx="1570" cy="-368" rx="18" ry="18"/>
</g>
<!-- 43&#45;&gt;45 -->
<g id="edge55" class="edge"><title>43&#45;&gt;45</title>
<path fill="none" stroke="black" d="M1460.26,-368C1481.27,-368 1517.03,-368 1541.77,-368"/>
<polygon fill="black" stroke="black" points="1541.95,-371.5 1551.95,-368 1541.95,-364.5 1541.95,-371.5"/>
<text text-anchor="middle" x="1506" y="-371.8" font-family="Times,serif" font-size="14.00">u0005</text>
</g>
<!-- 46 -->
<g id="node37" class="node"><title>46</title>
<ellipse fill="none" stroke="black" cx="1698" cy="-368" rx="18" ry="18"/>
</g>
<!-- 45&#45;&gt;46 -->
<g id="edge56" class="edge"><title>45&#45;&gt;46</title>
<path fill="none" stroke="black" d="M1588.26,-368C1609.27,-368 1645.03,-368 1669.77,-368"/>
<polygon fill="black" stroke="black" points="1669.95,-371.5 1679.95,-368 1669.95,-364.5 1669.95,-371.5"/>
<text text-anchor="middle" x="1634" y="-371.8" font-family="Times,serif" font-size="14.00">u0004</text>
</g>
<!-- 47 -->
<g id="node38" class="node"><title>47</title>
<ellipse fill="none" stroke="black" cx="1826" cy="-469" rx="18" ry="18"/>
</g>
<!-- 46&#45;&gt;47 -->
<g id="edge57" class="edge"><title>46&#45;&gt;47</title>
<path fill="none" stroke="black" d="M1712.48,-378.809C1734.25,-396.258 1777.33,-430.787 1803.41,-451.693"/>
<polygon fill="black" stroke="black" points="1801.24,-454.439 1811.23,-457.963 1805.62,-448.977 1801.24,-454.439"/>
<text text-anchor="middle" x="1762" y="-440.8" font-family="Times,serif" font-size="14.00">u0005</text>
</g>
<!-- 48 -->
<g id="node39" class="node"><title>48</title>
<ellipse fill="none" stroke="black" cx="1954" cy="-522" rx="18" ry="18"/>
</g>
<!-- 47&#45;&gt;48 -->
<g id="edge58" class="edge"><title>47&#45;&gt;48</title>
<path fill="none" stroke="black" d="M1843.52,-473.759C1861.1,-479.052 1889.56,-488.285 1913,-499 1918.37,-501.456 1923.97,-504.406 1929.22,-507.361"/>
<polygon fill="black" stroke="black" points="1927.76,-510.561 1938.16,-512.581 1931.28,-504.516 1927.76,-510.561"/>
<text text-anchor="middle" x="1890" y="-502.8" font-family="Times,serif" font-size="14.00">u0005</text>
</g>
<!-- 39 -->
<g id="node40" class="node"><title>39</title>
<ellipse fill="none" stroke="black" cx="2082" cy="-501" rx="18" ry="18"/>
</g>
<!-- 48&#45;&gt;39 -->
<g id="edge59" class="edge"><title>48&#45;&gt;39</title>
<path fill="none" stroke="black" d="M1971.99,-519.168C1993.03,-515.661 2029.13,-509.645 2053.99,-505.502"/>
<polygon fill="black" stroke="black" points="2054.59,-508.951 2063.87,-503.854 2053.43,-502.046 2054.59,-508.951"/>
<text text-anchor="middle" x="2018" y="-519.8" font-family="Times,serif" font-size="14.00">u0004</text>
</g>
<!-- 39&#45;&gt;28 -->
<g id="edge60" class="edge"><title>39&#45;&gt;28</title>
<path fill="none" stroke="black" d="M2100.26,-501C2121.27,-501 2157.03,-501 2181.77,-501"/>
<polygon fill="black" stroke="black" points="2181.95,-504.5 2191.95,-501 2181.95,-497.5 2181.95,-504.5"/>
<text text-anchor="middle" x="2146" y="-504.8" font-family="Times,serif" font-size="14.00">u0005</text>
</g>
<!-- 33 -->
<g id="node42" class="node"><title>33</title>
<ellipse fill="none" stroke="black" cx="1314" cy="-427" rx="18" ry="18"/>
</g>
<!-- 25&#45;&gt;33 -->
<g id="edge61" class="edge"><title>25&#45;&gt;33</title>
<path fill="none" stroke="black" d="M1022,-410.938C1072.68,-413.736 1223.08,-422.037 1285.44,-425.479"/>
<polygon fill="black" stroke="black" points="1285.5,-428.987 1295.67,-426.044 1285.88,-421.998 1285.5,-428.987"/>
<text text-anchor="middle" x="1132" y="-422.8" font-family="Times,serif" font-size="14.00">u0005</text>
</g>
<!-- 33&#45;&gt;5 -->
<g id="edge63" class="edge"><title>33&#45;&gt;5</title>
<path fill="none" stroke="black" d="M1332.06,-424.115C1356.23,-420.285 1401.86,-414 1441,-414 1441,-414 1441,-414 1635,-414 1674.14,-414 1683.09,-404.77 1721,-395 1815.24,-370.711 1834.68,-346.921 1931,-333 2120.8,-305.567 2351.56,-347.855 2433.42,-365.163"/>
<polygon fill="black" stroke="black" points="2432.8,-368.609 2443.31,-367.287 2434.27,-361.765 2432.8,-368.609"/>
<text text-anchor="middle" x="1890" y="-350.8" font-family="Times,serif" font-size="14.00">u0003</text>
</g>
<!-- 38 -->
<g id="node43" class="node"><title>38</title>
<ellipse fill="none" stroke="black" cx="1442" cy="-530" rx="18" ry="18"/>
</g>
<!-- 33&#45;&gt;38 -->
<g id="edge62" class="edge"><title>33&#45;&gt;38</title>
<path fill="none" stroke="black" d="M1328.48,-438.023C1350.37,-455.911 1393.78,-491.402 1419.82,-512.686"/>
<polygon fill="black" stroke="black" points="1417.66,-515.437 1427.61,-519.056 1422.09,-510.018 1417.66,-515.437"/>
<text text-anchor="middle" x="1378" y="-500.8" font-family="Times,serif" font-size="14.00">u0004</text>
</g>
<!-- 38&#45;&gt;35 -->
<g id="edge64" class="edge"><title>38&#45;&gt;35</title>
<path fill="none" stroke="black" d="M1446.5,-547.54C1453.17,-579.566 1468.34,-645.882 1483,-664 1487.33,-669.347 1520.51,-686.695 1544.36,-698.747"/>
<polygon fill="black" stroke="black" points="1543.08,-702.021 1553.59,-703.382 1546.22,-695.766 1543.08,-702.021"/>
<text text-anchor="middle" x="1506" y="-694.8" font-family="Times,serif" font-size="14.00">u0005</text>
</g>
<!-- 10&#45;&gt;5 -->
<g id="edge66" class="edge"><title>10&#45;&gt;5</title>
<path fill="none" stroke="black" d="M1580.31,-123.66C1598.75,-95.4058 1642.89,-38 1697,-38 1697,-38 1697,-38 2339,-38 2382.35,-38 2400.27,-48.3997 2425,-84 2453.36,-124.825 2461.17,-273.409 2463.26,-339.695"/>
<polygon fill="black" stroke="black" points="2459.77,-340.073 2463.56,-349.967 2466.77,-339.87 2459.77,-340.073"/>
<text text-anchor="middle" x="2018" y="-41.8" font-family="Times,serif" font-size="14.00">u0003</text>
</g>
<!-- 17 -->
<g id="node45" class="node"><title>17</title>
<ellipse fill="none" stroke="black" cx="2082" cy="-211" rx="18" ry="18"/>
</g>
<!-- 10&#45;&gt;17 -->
<g id="edge65" class="edge"><title>10&#45;&gt;17</title>
<path fill="none" stroke="black" d="M1586.69,-145.873C1593.96,-148.798 1602.79,-151.992 1611,-154 1654.2,-164.56 1960.29,-198.005 2053.88,-208.092"/>
<polygon fill="black" stroke="black" points="2053.65,-211.588 2063.97,-209.178 2054.4,-204.628 2053.65,-211.588"/>
<text text-anchor="middle" x="1826" y="-188.8" font-family="Times,serif" font-size="14.00">u0004</text>
</g>
<!-- 18 -->
<g id="node47" class="node"><title>18</title>
<ellipse fill="none" stroke="black" cx="1698" cy="-124" rx="18" ry="18"/>
</g>
<!-- 10&#45;&gt;18 -->
<g id="edge67" class="edge"><title>10&#45;&gt;18</title>
<path fill="none" stroke="black" d="M1587.99,-136.977C1608.94,-134.483 1644.81,-130.213 1669.65,-127.256"/>
<polygon fill="black" stroke="black" points="1670.36,-130.696 1679.87,-126.039 1669.53,-123.746 1670.36,-130.696"/>
<text text-anchor="middle" x="1634" y="-138.8" font-family="Times,serif" font-size="14.00">u0005</text>
</g>
<!-- 17&#45;&gt;5 -->
<g id="edge68" class="edge"><title>17&#45;&gt;5</title>
<path fill="none" stroke="black" d="M2098.13,-202.635C2151.09,-174.597 2330.03,-90.4885 2425,-178 2448.24,-199.417 2458.22,-290.267 2462,-339.676"/>
<polygon fill="black" stroke="black" points="2458.52,-340.118 2462.73,-349.84 2465.5,-339.614 2458.52,-340.118"/>
<text text-anchor="middle" x="2274" y="-149.8" font-family="Times,serif" font-size="14.00">u0003</text>
</g>
<!-- 26 -->
<g id="node46" class="node"><title>26</title>
<ellipse fill="none" stroke="black" cx="2210" cy="-238" rx="18" ry="18"/>
</g>
<!-- 17&#45;&gt;26 -->
<g id="edge69" class="edge"><title>17&#45;&gt;26</title>
<path fill="none" stroke="black" d="M2099.73,-214.585C2120.82,-219.104 2157.32,-226.925 2182.28,-232.275"/>
<polygon fill="black" stroke="black" points="2181.69,-235.727 2192.2,-234.4 2183.15,-228.882 2181.69,-235.727"/>
<text text-anchor="middle" x="2146" y="-233.8" font-family="Times,serif" font-size="14.00">u0005</text>
</g>
<!-- 26&#45;&gt;5 -->
<g id="edge70" class="edge"><title>26&#45;&gt;5</title>
<path fill="none" stroke="black" d="M2227.92,-235.008C2267.65,-229.018 2367.85,-220.083 2425,-270 2445.31,-287.736 2455.09,-317.246 2459.77,-339.974"/>
<polygon fill="black" stroke="black" points="2456.34,-340.667 2461.58,-349.873 2463.22,-339.406 2456.34,-340.667"/>
<text text-anchor="middle" x="2338" y="-241.8" font-family="Times,serif" font-size="14.00">u0003</text>
</g>
<!-- 26&#45;&gt;13 -->
<g id="edge71" class="edge"><title>26&#45;&gt;13</title>
<path fill="none" stroke="black" d="M2222.38,-251.101C2240.55,-272.645 2276.2,-317.515 2297,-361 2314.37,-397.316 2325.74,-442.686 2331.77,-471.264"/>
<polygon fill="black" stroke="black" points="2328.39,-472.239 2333.82,-481.34 2335.25,-470.843 2328.39,-472.239"/>
<text text-anchor="middle" x="2274" y="-364.8" font-family="Times,serif" font-size="14.00">u0005</text>
</g>
<!-- 18&#45;&gt;5 -->
<g id="edge72" class="edge"><title>18&#45;&gt;5</title>
<path fill="none" stroke="black" d="M1714.41,-115.712C1737.67,-103.996 1783.46,-84 1825,-84 1825,-84 1825,-84 2019,-84 2200.23,-84 2292.98,2.16533 2425,-122 2455.94,-151.101 2462.39,-278.901 2463.69,-339.674"/>
<polygon fill="black" stroke="black" points="2460.2,-339.925 2463.88,-349.86 2467.2,-339.799 2460.2,-339.925"/>
<text text-anchor="middle" x="2082" y="-86.8" font-family="Times,serif" font-size="14.00">u0003</text>
</g>
<!-- 27 -->
<g id="node48" class="node"><title>27</title>
<ellipse fill="none" stroke="black" cx="1826" cy="-230" rx="18" ry="18"/>
</g>
<!-- 18&#45;&gt;27 -->
<g id="edge73" class="edge"><title>18&#45;&gt;27</title>
<path fill="none" stroke="black" d="M1712.48,-135.344C1734.37,-153.753 1777.78,-190.277 1803.82,-212.181"/>
<polygon fill="black" stroke="black" points="1801.71,-214.978 1811.61,-218.738 1806.21,-209.622 1801.71,-214.978"/>
<text text-anchor="middle" x="1762" y="-199.8" font-family="Times,serif" font-size="14.00">u0005</text>
</g>
<!-- 27&#45;&gt;5 -->
<g id="edge74" class="edge"><title>27&#45;&gt;5</title>
<path fill="none" stroke="black" d="M1843.31,-224.415C1930.51,-195.023 2340.89,-62.7954 2425,-148 2451.25,-174.59 2460,-284.337 2462.78,-339.72"/>
<polygon fill="black" stroke="black" points="2459.29,-339.888 2463.25,-349.714 2466.28,-339.562 2459.29,-339.888"/>
<text text-anchor="middle" x="2146" y="-149.8" font-family="Times,serif" font-size="14.00">u0003</text>
</g>
<!-- 34 -->
<g id="node49" class="node"><title>34</title>
<ellipse fill="none" stroke="black" cx="1954" cy="-468" rx="18" ry="18"/>
</g>
<!-- 27&#45;&gt;34 -->
<g id="edge75" class="edge"><title>27&#45;&gt;34</title>
<path fill="none" stroke="black" d="M1841.76,-239.002C1861.62,-251.988 1896.36,-277.969 1913,-310 1940.09,-362.154 1907.57,-387.105 1931,-441 1931.94,-443.163 1933.1,-445.293 1934.4,-447.351"/>
<polygon fill="black" stroke="black" points="1931.9,-449.846 1940.67,-455.781 1937.51,-445.668 1931.9,-449.846"/>
<text text-anchor="middle" x="1890" y="-313.8" font-family="Times,serif" font-size="14.00">u0005</text>
</g>
<!-- 34&#45;&gt;39 -->
<g id="edge76" class="edge"><title>34&#45;&gt;39</title>
<path fill="none" stroke="black" d="M1971.87,-471.847C1989.26,-475.876 2017.12,-482.508 2041,-489 2045.53,-490.232 2050.33,-491.608 2054.97,-492.977"/>
<polygon fill="black" stroke="black" points="2054.12,-496.378 2064.71,-495.903 2056.14,-489.674 2054.12,-496.378"/>
<text text-anchor="middle" x="2018" y="-492.8" font-family="Times,serif" font-size="14.00">u0005</text>
</g>
<!-- initial -->
<g id="node50" class="node"><title>initial</title>
</g>
<!-- initial&#45;&gt;0 -->
<g id="edge77" class="edge"><title>initial&#45;&gt;0</title>
<path fill="none" stroke="black" d="M54.195,-803C62.6538,-803 72.0513,-803 80.5951,-803"/>
<polygon fill="black" stroke="black" points="80.8257,-806.5 90.8257,-803 80.8257,-799.5 80.8257,-806.5"/>
</g>
</g>
</svg>
