<svg width="3252px" height="389px"
 viewBox="0.00 0.00 2439.00 292.00" xmlns="http://www.w3.org/2000/svg" xmlns:xlink="http://www.w3.org/1999/xlink">
<g id="graph0" class="graph" transform="scale(1.000022500562514 1.000022500562514) rotate(0) translate(4 288)">
<title>Automaton</title>
<polygon fill="white" stroke="none" points="-4,4 -4,-288 2435,-288 2435,4 -4,4"/>
<!-- 0 -->
<g id="node1" class="node"><title>0</title>
<ellipse fill="none" stroke="black" cx="109" cy="-151" rx="18" ry="18"/>
</g>
<!-- 1 -->
<g id="node2" class="node"><title>1</title>
<ellipse fill="none" stroke="black" cx="227" cy="-151" rx="18" ry="18"/>
</g>
<!-- 0&#45;&gt;1 -->
<g id="edge1" class="edge"><title>0&#45;&gt;1</title>
<path fill="none" stroke="black" d="M127.116,-151C145.964,-151 176.531,-151 198.696,-151"/>
<polygon fill="black" stroke="black" points="198.814,-154.5 208.814,-151 198.814,-147.5 198.814,-154.5"/>
<text text-anchor="middle" x="168" y="-154.8" font-family="Times,serif" font-size="14.00">u0001</text>
</g>
<!-- 2 -->
<g id="node3" class="node"><title>2</title>
<ellipse fill="none" stroke="black" cx="345" cy="-151" rx="18" ry="18"/>
</g>
<!-- 1&#45;&gt;2 -->
<g id="edge2" class="edge"><title>1&#45;&gt;2</title>
<path fill="none" stroke="black" d="M245.116,-151C263.964,-151 294.531,-151 316.696,-151"/>
<polygon fill="black" stroke="black" points="316.814,-154.5 326.814,-151 316.814,-147.5 316.814,-154.5"/>
<text text-anchor="middle" x="286" y="-154.8" font-family="Times,serif" font-size="14.00">u0003</text>
</g>
<!-- 3 -->
<g id="node4" class="node"><title>3</title>
<ellipse fill="none" stroke="black" cx="462" cy="-151" rx="18" ry="18"/>
</g>
<!-- 2&#45;&gt;3 -->
<g id="edge3" class="edge"><title>2&#45;&gt;3</title>
<path fill="none" stroke="black" d="M363.466,-151C382.064,-151 411.756,-151 433.499,-151"/>
<polygon fill="black" stroke="black" points="433.746,-154.5 443.746,-151 433.746,-147.5 433.746,-154.5"/>
<text text-anchor="middle" x="403.5" y="-154.8" font-family="Times,serif" font-size="14.00">u000e</text>
</g>
<!-- 4 -->
<g id="node5" class="node"><title>4</title>
<ellipse fill="none" stroke="black" cx="576" cy="-151" rx="18" ry="18"/>
</g>
<!-- 3&#45;&gt;4 -->
<g id="edge4" class="edge"><title>3&#45;&gt;4</title>
<path fill="none" stroke="black" d="M480.01,-151C497.937,-151 526.445,-151 547.558,-151"/>
<polygon fill="black" stroke="black" points="547.83,-154.5 557.83,-151 547.829,-147.5 547.83,-154.5"/>
<text text-anchor="middle" x="519" y="-154.8" font-family="Times,serif" font-size="14.00">u000f</text>
</g>
<!-- 5 -->
<g id="node6" class="node"><title>5</title>
<ellipse fill="none" stroke="black" cx="694" cy="-151" rx="18" ry="18"/>
</g>
<!-- 4&#45;&gt;5 -->
<g id="edge5" class="edge"><title>4&#45;&gt;5</title>
<path fill="none" stroke="black" d="M594.116,-151C612.964,-151 643.531,-151 665.696,-151"/>
<polygon fill="black" stroke="black" points="665.814,-154.5 675.814,-151 665.814,-147.5 665.814,-154.5"/>
<text text-anchor="middle" x="635" y="-154.8" font-family="Times,serif" font-size="14.00">u0002</text>
</g>
<!-- 6 -->
<g id="node7" class="node"><title>6</title>
<ellipse fill="none" stroke="black" cx="816.5" cy="-227" rx="18" ry="18"/>
</g>
<!-- 5&#45;&gt;6 -->
<g id="edge6" class="edge"><title>5&#45;&gt;6</title>
<path fill="none" stroke="black" d="M705.504,-164.981C711.922,-172.807 720.672,-182.307 730,-189 748.204,-202.061 771.612,-212.079 789.332,-218.541"/>
<polygon fill="black" stroke="black" points="788.43,-221.934 799.025,-221.932 790.741,-215.326 788.43,-221.934"/>
<text text-anchor="middle" x="753" y="-215.8" font-family="Times,serif" font-size="14.00">u000d</text>
</g>
<!-- 7 -->
<g id="node13" class="node"><title>7</title>
<ellipse fill="none" stroke="black" cx="998" cy="-178" rx="18" ry="18"/>
</g>
<!-- 5&#45;&gt;7 -->
<g id="edge7" class="edge"><title>5&#45;&gt;7</title>
<path fill="none" stroke="black" d="M711.213,-156.417C717.07,-158.164 723.773,-159.925 730,-161 816.625,-175.954 921.097,-178.089 969.682,-178.185"/>
<polygon fill="black" stroke="black" points="969.987,-181.685 979.984,-178.176 969.981,-174.685 969.987,-181.685"/>
<text text-anchor="middle" x="816.5" y="-176.8" font-family="Times,serif" font-size="14.00">u000c</text>
</g>
<!-- 8 -->
<g id="node22" class="node"><title>8</title>
<ellipse fill="none" stroke="black" cx="880" cy="-128" rx="18" ry="18"/>
</g>
<!-- 5&#45;&gt;8 -->
<g id="edge8" class="edge"><title>5&#45;&gt;8</title>
<path fill="none" stroke="black" d="M712.08,-148.484C717.776,-147.666 724.158,-146.77 730,-146 772.563,-140.389 822.06,-134.545 851.933,-131.091"/>
<polygon fill="black" stroke="black" points="852.468,-134.553 862.002,-129.932 851.668,-127.599 852.468,-134.553"/>
<text text-anchor="middle" x="753" y="-149.8" font-family="Times,serif" font-size="14.00">u0006</text>
</g>
<!-- 9 -->
<g id="node31" class="node"><title>9</title>
<ellipse fill="none" stroke="black" cx="816.5" cy="-53" rx="18" ry="18"/>
</g>
<!-- 5&#45;&gt;9 -->
<g id="edge9" class="edge"><title>5&#45;&gt;9</title>
<path fill="none" stroke="black" d="M701.334,-134.332C707.085,-121.102 716.706,-102.909 730,-91 746.868,-75.89 770.721,-65.9676 788.948,-60.0638"/>
<polygon fill="black" stroke="black" points="790.12,-63.3661 798.675,-57.1166 788.09,-56.6669 790.12,-63.3661"/>
<text text-anchor="middle" x="753" y="-94.8" font-family="Times,serif" font-size="14.00">u0000</text>
</g>
<!-- 10 -->
<g id="node8" class="node"><title>10</title>
<ellipse fill="none" stroke="black" cx="939" cy="-227" rx="18" ry="18"/>
</g>
<!-- 6&#45;&gt;10 -->
<g id="edge10" class="edge"><title>6&#45;&gt;10</title>
<path fill="none" stroke="black" d="M834.509,-227C854.223,-227 886.991,-227 910.373,-227"/>
<polygon fill="black" stroke="black" points="910.687,-230.5 920.687,-227 910.687,-223.5 910.687,-230.5"/>
<text text-anchor="middle" x="880" y="-230.8" font-family="Times,serif" font-size="14.00">u0006</text>
</g>
<!-- 14 -->
<g id="node9" class="node"><title>14</title>
<ellipse fill="none" stroke="black" cx="1062" cy="-227" rx="18" ry="18"/>
</g>
<!-- 10&#45;&gt;14 -->
<g id="edge11" class="edge"><title>10&#45;&gt;14</title>
<path fill="none" stroke="black" d="M957.08,-227C976.965,-227 1010.08,-227 1033.58,-227"/>
<polygon fill="black" stroke="black" points="1033.62,-230.5 1043.62,-227 1033.62,-223.5 1033.62,-230.5"/>
<text text-anchor="middle" x="998" y="-230.8" font-family="Times,serif" font-size="14.00">u0004</text>
</g>
<!-- 19 -->
<g id="node10" class="node"><title>19</title>
<ellipse fill="none" stroke="black" cx="1244" cy="-258" rx="18" ry="18"/>
</g>
<!-- 14&#45;&gt;19 -->
<g id="edge12" class="edge"><title>14&#45;&gt;19</title>
<path fill="none" stroke="black" d="M1079.93,-229.916C1111.16,-235.294 1178.05,-246.814 1215.74,-253.304"/>
<polygon fill="black" stroke="black" points="1215.53,-256.821 1225.98,-255.069 1216.72,-249.922 1215.53,-256.821"/>
<text text-anchor="middle" x="1126" y="-244.8" font-family="Times,serif" font-size="14.00">u0005</text>
</g>
<!-- 24 -->
<g id="node11" class="node"><title>24</title>
<ellipse fill="none" stroke="black" cx="2287" cy="-126" rx="18" ry="18"/>
</g>
<!-- 19&#45;&gt;24 -->
<g id="edge13" class="edge"><title>19&#45;&gt;24</title>
<path fill="none" stroke="black" d="M1262.08,-260.441C1286.27,-263.682 1331.91,-269 1371,-269 1371,-269 1371,-269 2165,-269 2225.39,-269 2261.83,-193.763 2277.3,-152.435"/>
<polygon fill="black" stroke="black" points="2280.61,-153.56 2280.7,-142.966 2274.02,-151.195 2280.61,-153.56"/>
<text text-anchor="middle" x="1726" y="-272.8" font-family="Times,serif" font-size="14.00">u000b</text>
</g>
<!-- 30 -->
<g id="node12" class="node"><title>30</title>
<ellipse fill="none" stroke="black" cx="2409" cy="-126" rx="18" ry="18"/>
<ellipse fill="none" stroke="black" cx="2409" cy="-126" rx="22" ry="22"/>
</g>
<!-- 24&#45;&gt;30 -->
<g id="edge14" class="edge"><title>24&#45;&gt;30</title>
<path fill="none" stroke="black" d="M2305.19,-126C2323.77,-126 2353.76,-126 2376.57,-126"/>
<polygon fill="black" stroke="black" points="2376.79,-129.5 2386.79,-126 2376.79,-122.5 2376.79,-129.5"/>
<text text-anchor="middle" x="2346" y="-129.8" font-family="Times,serif" font-size="14.00">u0007</text>
</g>
<!-- 11 -->
<g id="node14" class="node"><title>11</title>
<ellipse fill="none" stroke="black" cx="1667" cy="-180" rx="18" ry="18"/>
</g>
<!-- 7&#45;&gt;11 -->
<g id="edge15" class="edge"><title>7&#45;&gt;11</title>
<path fill="none" stroke="black" d="M1016.12,-178.444C1040.35,-179.033 1086.06,-180 1125,-180 1125,-180 1125,-180 1550,-180 1580.25,-180 1614.94,-180 1638.44,-180"/>
<polygon fill="black" stroke="black" points="1638.71,-183.5 1648.71,-180 1638.71,-176.5 1638.71,-183.5"/>
<text text-anchor="middle" x="1308" y="-183.8" font-family="Times,serif" font-size="14.00">u000d</text>
</g>
<!-- 15 -->
<g id="node15" class="node"><title>15</title>
<ellipse fill="none" stroke="black" cx="1844" cy="-222" rx="18" ry="18"/>
</g>
<!-- 11&#45;&gt;15 -->
<g id="edge16" class="edge"><title>11&#45;&gt;15</title>
<path fill="none" stroke="black" d="M1682.95,-188.389C1689.02,-191.49 1696.19,-194.785 1703,-197 1741.1,-209.391 1787.15,-216.118 1815.76,-219.383"/>
<polygon fill="black" stroke="black" points="1815.5,-222.876 1825.82,-220.47 1816.26,-215.916 1815.5,-222.876"/>
<text text-anchor="middle" x="1726" y="-211.8" font-family="Times,serif" font-size="14.00">u000c</text>
</g>
<!-- 16 -->
<g id="node18" class="node"><title>16</title>
<ellipse fill="none" stroke="black" cx="1785" cy="-174" rx="18" ry="18"/>
</g>
<!-- 11&#45;&gt;16 -->
<g id="edge17" class="edge"><title>11&#45;&gt;16</title>
<path fill="none" stroke="black" d="M1685.12,-179.115C1703.96,-178.14 1734.53,-176.559 1756.7,-175.412"/>
<polygon fill="black" stroke="black" points="1757.01,-178.901 1766.81,-174.889 1756.65,-171.91 1757.01,-178.901"/>
<text text-anchor="middle" x="1726" y="-181.8" font-family="Times,serif" font-size="14.00">u0006</text>
</g>
<!-- 20 -->
<g id="node16" class="node"><title>20</title>
<ellipse fill="none" stroke="black" cx="1972" cy="-226" rx="18" ry="18"/>
</g>
<!-- 15&#45;&gt;20 -->
<g id="edge18" class="edge"><title>15&#45;&gt;20</title>
<path fill="none" stroke="black" d="M1861.99,-222.539C1882.94,-223.204 1918.81,-224.343 1943.65,-225.132"/>
<polygon fill="black" stroke="black" points="1943.77,-228.637 1953.87,-225.456 1943.99,-221.641 1943.77,-228.637"/>
<text text-anchor="middle" x="1908" y="-227.8" font-family="Times,serif" font-size="14.00">u0006</text>
</g>
<!-- 25 -->
<g id="node17" class="node"><title>25</title>
<ellipse fill="none" stroke="black" cx="2100" cy="-203" rx="18" ry="18"/>
</g>
<!-- 20&#45;&gt;25 -->
<g id="edge19" class="edge"><title>20&#45;&gt;25</title>
<path fill="none" stroke="black" d="M1989.99,-222.898C2011.03,-219.057 2047.13,-212.468 2071.99,-207.931"/>
<polygon fill="black" stroke="black" points="2072.66,-211.365 2081.87,-206.126 2071.41,-204.479 2072.66,-211.365"/>
<text text-anchor="middle" x="2036" y="-221.8" font-family="Times,serif" font-size="14.00">u0004</text>
</g>
<!-- 25&#45;&gt;24 -->
<g id="edge20" class="edge"><title>25&#45;&gt;24</title>
<path fill="none" stroke="black" d="M2117.49,-197.407C2145.42,-187.761 2203.61,-166.915 2251,-145 2254.53,-143.366 2258.21,-141.531 2261.79,-139.663"/>
<polygon fill="black" stroke="black" points="2263.74,-142.584 2270.88,-134.757 2260.42,-136.423 2263.74,-142.584"/>
<text text-anchor="middle" x="2164" y="-191.8" font-family="Times,serif" font-size="14.00">u0005</text>
</g>
<!-- 21 -->
<g id="node19" class="node"><title>21</title>
<ellipse fill="none" stroke="black" cx="1908" cy="-172" rx="18" ry="18"/>
</g>
<!-- 16&#45;&gt;21 -->
<g id="edge21" class="edge"><title>16&#45;&gt;21</title>
<path fill="none" stroke="black" d="M1803.08,-173.718C1822.96,-173.389 1856.08,-172.842 1879.58,-172.453"/>
<polygon fill="black" stroke="black" points="1879.67,-175.952 1889.62,-172.287 1879.56,-168.953 1879.67,-175.952"/>
<text text-anchor="middle" x="1844" y="-176.8" font-family="Times,serif" font-size="14.00">u0004</text>
</g>
<!-- 26 -->
<g id="node20" class="node"><title>26</title>
<ellipse fill="none" stroke="black" cx="2036" cy="-126" rx="18" ry="18"/>
</g>
<!-- 21&#45;&gt;26 -->
<g id="edge22" class="edge"><title>21&#45;&gt;26</title>
<path fill="none" stroke="black" d="M1925.3,-166.915C1942.69,-161.393 1971,-152.133 1995,-143 1999.77,-141.184 2004.82,-139.14 2009.66,-137.115"/>
<polygon fill="black" stroke="black" points="2011.33,-140.208 2019.15,-133.066 2008.58,-133.77 2011.33,-140.208"/>
<text text-anchor="middle" x="1972" y="-161.8" font-family="Times,serif" font-size="14.00">u0005</text>
</g>
<!-- 31 -->
<g id="node21" class="node"><title>31</title>
<ellipse fill="none" stroke="black" cx="2164" cy="-126" rx="18" ry="18"/>
</g>
<!-- 26&#45;&gt;31 -->
<g id="edge23" class="edge"><title>26&#45;&gt;31</title>
<path fill="none" stroke="black" d="M2054.26,-126C2075.27,-126 2111.03,-126 2135.77,-126"/>
<polygon fill="black" stroke="black" points="2135.95,-129.5 2145.95,-126 2135.95,-122.5 2135.95,-129.5"/>
<text text-anchor="middle" x="2100" y="-129.8" font-family="Times,serif" font-size="14.00">u0008</text>
</g>
<!-- 31&#45;&gt;24 -->
<g id="edge24" class="edge"><title>31&#45;&gt;24</title>
<path fill="none" stroke="black" d="M2182.08,-126C2201.96,-126 2235.08,-126 2258.58,-126"/>
<polygon fill="black" stroke="black" points="2258.62,-129.5 2268.62,-126 2258.62,-122.5 2258.62,-129.5"/>
<text text-anchor="middle" x="2228" y="-129.8" font-family="Times,serif" font-size="14.00">u0010</text>
</g>
<!-- 12 -->
<g id="node23" class="node"><title>12</title>
<ellipse fill="none" stroke="black" cx="1308" cy="-126" rx="18" ry="18"/>
</g>
<!-- 8&#45;&gt;12 -->
<g id="edge25" class="edge"><title>8&#45;&gt;12</title>
<path fill="none" stroke="black" d="M898.295,-128C920.962,-128 961.958,-128 997,-128 997,-128 997,-128 1186,-128 1218.21,-128 1255.24,-127.283 1279.76,-126.707"/>
<polygon fill="black" stroke="black" points="1279.86,-130.206 1289.77,-126.464 1279.69,-123.208 1279.86,-130.206"/>
<text text-anchor="middle" x="1062" y="-131.8" font-family="Times,serif" font-size="14.00">u0004</text>
</g>
<!-- 17 -->
<g id="node24" class="node"><title>17</title>
<ellipse fill="none" stroke="black" cx="1431" cy="-126" rx="18" ry="18"/>
</g>
<!-- 12&#45;&gt;17 -->
<g id="edge26" class="edge"><title>12&#45;&gt;17</title>
<path fill="none" stroke="black" d="M1326.08,-126C1345.96,-126 1379.08,-126 1402.58,-126"/>
<polygon fill="black" stroke="black" points="1402.62,-129.5 1412.62,-126 1402.62,-122.5 1402.62,-129.5"/>
<text text-anchor="middle" x="1372" y="-129.8" font-family="Times,serif" font-size="14.00">u0005</text>
</g>
<!-- 22 -->
<g id="node25" class="node"><title>22</title>
<ellipse fill="none" stroke="black" cx="1549" cy="-126" rx="18" ry="18"/>
</g>
<!-- 17&#45;&gt;22 -->
<g id="edge27" class="edge"><title>17&#45;&gt;22</title>
<path fill="none" stroke="black" d="M1449.12,-126C1467.96,-126 1498.53,-126 1520.7,-126"/>
<polygon fill="black" stroke="black" points="1520.81,-129.5 1530.81,-126 1520.81,-122.5 1520.81,-129.5"/>
<text text-anchor="middle" x="1490" y="-129.8" font-family="Times,serif" font-size="14.00">u0010</text>
</g>
<!-- 27 -->
<g id="node26" class="node"><title>27</title>
<ellipse fill="none" stroke="black" cx="1667" cy="-126" rx="18" ry="18"/>
</g>
<!-- 22&#45;&gt;27 -->
<g id="edge28" class="edge"><title>22&#45;&gt;27</title>
<path fill="none" stroke="black" d="M1567.12,-126C1585.96,-126 1616.53,-126 1638.7,-126"/>
<polygon fill="black" stroke="black" points="1638.81,-129.5 1648.81,-126 1638.81,-122.5 1638.81,-129.5"/>
<text text-anchor="middle" x="1608" y="-129.8" font-family="Times,serif" font-size="14.00">u0010</text>
</g>
<!-- 28 -->
<g id="node29" class="node"><title>28</title>
<ellipse fill="none" stroke="black" cx="1667" cy="-72" rx="18" ry="18"/>
</g>
<!-- 22&#45;&gt;28 -->
<g id="edge29" class="edge"><title>22&#45;&gt;28</title>
<path fill="none" stroke="black" d="M1565.18,-117.376C1571.28,-114.013 1578.41,-110.205 1585,-107 1603.37,-98.0681 1624.57,-88.9462 1640.68,-82.2551"/>
<polygon fill="black" stroke="black" points="1642.06,-85.4704 1649.98,-78.4264 1639.4,-78.9976 1642.06,-85.4704"/>
<text text-anchor="middle" x="1608" y="-110.8" font-family="Times,serif" font-size="14.00">u000b</text>
</g>
<!-- 32 -->
<g id="node27" class="node"><title>32</title>
<ellipse fill="none" stroke="black" cx="1785" cy="-120" rx="18" ry="18"/>
</g>
<!-- 27&#45;&gt;32 -->
<g id="edge30" class="edge"><title>27&#45;&gt;32</title>
<path fill="none" stroke="black" d="M1685.12,-125.115C1703.96,-124.14 1734.53,-122.559 1756.7,-121.412"/>
<polygon fill="black" stroke="black" points="1757.01,-124.901 1766.81,-120.889 1756.65,-117.91 1757.01,-124.901"/>
<text text-anchor="middle" x="1726" y="-128.8" font-family="Times,serif" font-size="14.00">u0011</text>
</g>
<!-- 35 -->
<g id="node28" class="node"><title>35</title>
<ellipse fill="none" stroke="black" cx="1908" cy="-118" rx="18" ry="18"/>
</g>
<!-- 32&#45;&gt;35 -->
<g id="edge31" class="edge"><title>32&#45;&gt;35</title>
<path fill="none" stroke="black" d="M1803.08,-119.718C1822.96,-119.389 1856.08,-118.842 1879.58,-118.453"/>
<polygon fill="black" stroke="black" points="1879.67,-121.952 1889.62,-118.287 1879.56,-114.953 1879.67,-121.952"/>
<text text-anchor="middle" x="1844" y="-123.8" font-family="Times,serif" font-size="14.00">u0011</text>
</g>
<!-- 35&#45;&gt;26 -->
<g id="edge32" class="edge"><title>35&#45;&gt;26</title>
<path fill="none" stroke="black" d="M1925.99,-119.079C1946.94,-120.409 1982.81,-122.686 2007.65,-124.264"/>
<polygon fill="black" stroke="black" points="2007.67,-127.772 2017.87,-124.913 2008.12,-120.786 2007.67,-127.772"/>
<text text-anchor="middle" x="1972" y="-127.8" font-family="Times,serif" font-size="14.00">u000b</text>
</g>
<!-- 33 -->
<g id="node30" class="node"><title>33</title>
<ellipse fill="none" stroke="black" cx="1844" cy="-72" rx="18" ry="18"/>
</g>
<!-- 28&#45;&gt;33 -->
<g id="edge33" class="edge"><title>28&#45;&gt;33</title>
<path fill="none" stroke="black" d="M1685.1,-72C1715.42,-72 1778.84,-72 1815.41,-72"/>
<polygon fill="black" stroke="black" points="1815.83,-75.5001 1825.83,-72 1815.83,-68.5001 1815.83,-75.5001"/>
<text text-anchor="middle" x="1726" y="-75.8" font-family="Times,serif" font-size="14.00">u0009</text>
</g>
<!-- 33&#45;&gt;24 -->
<g id="edge34" class="edge"><title>33&#45;&gt;24</title>
<path fill="none" stroke="black" d="M1862.12,-72C1886.36,-72 1932.06,-72 1971,-72 1971,-72 1971,-72 2165,-72 2202.16,-72 2240.61,-93.5057 2263.92,-109.374"/>
<polygon fill="black" stroke="black" points="2262.17,-112.426 2272.36,-115.331 2266.21,-106.706 2262.17,-112.426"/>
<text text-anchor="middle" x="2036" y="-75.8" font-family="Times,serif" font-size="14.00">u000a</text>
</g>
<!-- 13 -->
<g id="node32" class="node"><title>13</title>
<ellipse fill="none" stroke="black" cx="939" cy="-47" rx="18" ry="18"/>
</g>
<!-- 9&#45;&gt;13 -->
<g id="edge35" class="edge"><title>9&#45;&gt;13</title>
<path fill="none" stroke="black" d="M834.509,-52.1531C854.312,-51.167 887.288,-49.5251 910.69,-48.3598"/>
<polygon fill="black" stroke="black" points="910.874,-51.8551 920.687,-47.862 910.525,-44.8638 910.874,-51.8551"/>
<text text-anchor="middle" x="880" y="-54.8" font-family="Times,serif" font-size="14.00">u000c</text>
</g>
<!-- 18 -->
<g id="node33" class="node"><title>18</title>
<ellipse fill="none" stroke="black" cx="1062" cy="-46" rx="18" ry="18"/>
</g>
<!-- 13&#45;&gt;18 -->
<g id="edge36" class="edge"><title>13&#45;&gt;18</title>
<path fill="none" stroke="black" d="M957.08,-46.8588C976.965,-46.6945 1010.08,-46.4208 1033.58,-46.2266"/>
<polygon fill="black" stroke="black" points="1033.64,-49.7263 1043.62,-46.1437 1033.59,-42.7265 1033.64,-49.7263"/>
<text text-anchor="middle" x="998" y="-50.8" font-family="Times,serif" font-size="14.00">u0000</text>
</g>
<!-- 23 -->
<g id="node34" class="node"><title>23</title>
<ellipse fill="none" stroke="black" cx="1185" cy="-45" rx="18" ry="18"/>
</g>
<!-- 18&#45;&gt;23 -->
<g id="edge37" class="edge"><title>18&#45;&gt;23</title>
<path fill="none" stroke="black" d="M1080.08,-45.8588C1099.96,-45.6945 1133.08,-45.4208 1156.58,-45.2266"/>
<polygon fill="black" stroke="black" points="1156.64,-48.7263 1166.62,-45.1437 1156.59,-41.7265 1156.64,-48.7263"/>
<text text-anchor="middle" x="1126" y="-49.8" font-family="Times,serif" font-size="14.00">u000d</text>
</g>
<!-- 29 -->
<g id="node35" class="node"><title>29</title>
<ellipse fill="none" stroke="black" cx="1308" cy="-45" rx="18" ry="18"/>
</g>
<!-- 23&#45;&gt;29 -->
<g id="edge38" class="edge"><title>23&#45;&gt;29</title>
<path fill="none" stroke="black" d="M1203.08,-45C1222.96,-45 1256.08,-45 1279.58,-45"/>
<polygon fill="black" stroke="black" points="1279.62,-48.5001 1289.62,-45 1279.62,-41.5001 1279.62,-48.5001"/>
<text text-anchor="middle" x="1244" y="-48.8" font-family="Times,serif" font-size="14.00">u000d</text>
</g>
<!-- 34 -->
<g id="node36" class="node"><title>34</title>
<ellipse fill="none" stroke="black" cx="1431" cy="-31" rx="18" ry="18"/>
</g>
<!-- 29&#45;&gt;34 -->
<g id="edge39" class="edge"><title>29&#45;&gt;34</title>
<path fill="none" stroke="black" d="M1326.08,-43.0238C1346.08,-40.71 1379.45,-36.8483 1402.98,-34.1267"/>
<polygon fill="black" stroke="black" points="1403.48,-37.5924 1413.01,-32.9661 1402.67,-30.6388 1403.48,-37.5924"/>
<text text-anchor="middle" x="1372" y="-44.8" font-family="Times,serif" font-size="14.00">u000d</text>
</g>
<!-- 36 -->
<g id="node37" class="node"><title>36</title>
<ellipse fill="none" stroke="black" cx="1549" cy="-21" rx="18" ry="18"/>
</g>
<!-- 34&#45;&gt;36 -->
<g id="edge40" class="edge"><title>34&#45;&gt;36</title>
<path fill="none" stroke="black" d="M1449.12,-29.5245C1467.96,-27.8997 1498.53,-25.2646 1520.7,-23.3538"/>
<polygon fill="black" stroke="black" points="1521.15,-26.8276 1530.81,-22.4816 1520.55,-19.8535 1521.15,-26.8276"/>
<text text-anchor="middle" x="1490" y="-31.8" font-family="Times,serif" font-size="14.00">u000d</text>
</g>
<!-- 37 -->
<g id="node38" class="node"><title>37</title>
<ellipse fill="none" stroke="black" cx="1667" cy="-18" rx="18" ry="18"/>
</g>
<!-- 36&#45;&gt;37 -->
<g id="edge41" class="edge"><title>36&#45;&gt;37</title>
<path fill="none" stroke="black" d="M1567.12,-20.5573C1585.96,-20.0699 1616.53,-19.2794 1638.7,-18.7061"/>
<polygon fill="black" stroke="black" points="1638.91,-22.2019 1648.81,-18.4445 1638.73,-15.2043 1638.91,-22.2019"/>
<text text-anchor="middle" x="1608" y="-24.8" font-family="Times,serif" font-size="14.00">u000d</text>
</g>
<!-- 38 -->
<g id="node39" class="node"><title>38</title>
<ellipse fill="none" stroke="black" cx="1785" cy="-18" rx="18" ry="18"/>
</g>
<!-- 37&#45;&gt;38 -->
<g id="edge42" class="edge"><title>37&#45;&gt;38</title>
<path fill="none" stroke="black" d="M1685.12,-18C1703.96,-18 1734.53,-18 1756.7,-18"/>
<polygon fill="black" stroke="black" points="1756.81,-21.5001 1766.81,-18 1756.81,-14.5001 1756.81,-21.5001"/>
<text text-anchor="middle" x="1726" y="-21.8" font-family="Times,serif" font-size="14.00">u000c</text>
</g>
<!-- 39 -->
<g id="node40" class="node"><title>39</title>
<ellipse fill="none" stroke="black" cx="1908" cy="-18" rx="18" ry="18"/>
</g>
<!-- 38&#45;&gt;39 -->
<g id="edge43" class="edge"><title>38&#45;&gt;39</title>
<path fill="none" stroke="black" d="M1803.08,-18C1822.96,-18 1856.08,-18 1879.58,-18"/>
<polygon fill="black" stroke="black" points="1879.62,-21.5001 1889.62,-18 1879.62,-14.5001 1879.62,-21.5001"/>
<text text-anchor="middle" x="1844" y="-21.8" font-family="Times,serif" font-size="14.00">u0006</text>
</g>
<!-- 40 -->
<g id="node41" class="node"><title>40</title>
<ellipse fill="none" stroke="black" cx="2036" cy="-18" rx="18" ry="18"/>
</g>
<!-- 39&#45;&gt;40 -->
<g id="edge44" class="edge"><title>39&#45;&gt;40</title>
<path fill="none" stroke="black" d="M1926.26,-18C1947.27,-18 1983.03,-18 2007.77,-18"/>
<polygon fill="black" stroke="black" points="2007.95,-21.5001 2017.95,-18 2007.95,-14.5001 2007.95,-21.5001"/>
<text text-anchor="middle" x="1972" y="-21.8" font-family="Times,serif" font-size="14.00">u0004</text>
</g>
<!-- 41 -->
<g id="node42" class="node"><title>41</title>
<ellipse fill="none" stroke="black" cx="2164" cy="-24" rx="18" ry="18"/>
</g>
<!-- 40&#45;&gt;41 -->
<g id="edge45" class="edge"><title>40&#45;&gt;41</title>
<path fill="none" stroke="black" d="M2053.99,-18.8092C2074.94,-19.8067 2110.81,-21.5148 2135.65,-22.6978"/>
<polygon fill="black" stroke="black" points="2135.72,-26.2048 2145.87,-23.1845 2136.05,-19.2127 2135.72,-26.2048"/>
<text text-anchor="middle" x="2100" y="-26.8" font-family="Times,serif" font-size="14.00">u0005</text>
</g>
<!-- 41&#45;&gt;24 -->
<g id="edge46" class="edge"><title>41&#45;&gt;24</title>
<path fill="none" stroke="black" d="M2182.18,-23.3698C2201.13,-23.5878 2231.5,-26.7536 2251,-43 2267.65,-56.8709 2276.53,-80.0449 2281.17,-98.3862"/>
<polygon fill="black" stroke="black" points="2277.78,-99.2651 2283.39,-108.254 2284.61,-97.7295 2277.78,-99.2651"/>
<text text-anchor="middle" x="2228" y="-46.8" font-family="Times,serif" font-size="14.00">u0008</text>
</g>
<!-- initial -->
<g id="node43" class="node"><title>initial</title>
</g>
<!-- initial&#45;&gt;0 -->
<g id="edge47" class="edge"><title>initial&#45;&gt;0</title>
<path fill="none" stroke="black" d="M54.195,-151C62.6538,-151 72.0513,-151 80.5951,-151"/>
<polygon fill="black" stroke="black" points="80.8257,-154.5 90.8257,-151 80.8257,-147.5 80.8257,-154.5"/>
</g>
</g>
</svg>
