<svg width="4573px" height="665px"
 viewBox="0.00 0.00 3430.00 499.00" xmlns="http://www.w3.org/2000/svg" xmlns:xlink="http://www.w3.org/1999/xlink">
<g id="graph0" class="graph" transform="scale(1.000022500562514 1.000022500562514) rotate(0) translate(4 495)">
<title>Automaton</title>
<polygon fill="white" stroke="none" points="-4,4 -4,-495 3426,-495 3426,4 -4,4"/>
<!-- 0 -->
<g id="node1" class="node"><title>0</title>
<ellipse fill="none" stroke="black" cx="109" cy="-265" rx="18" ry="18"/>
</g>
<!-- 1 -->
<g id="node2" class="node"><title>1</title>
<ellipse fill="none" stroke="black" cx="227" cy="-265" rx="18" ry="18"/>
</g>
<!-- 0&#45;&gt;1 -->
<g id="edge1" class="edge"><title>0&#45;&gt;1</title>
<path fill="none" stroke="black" d="M127.116,-265C145.964,-265 176.531,-265 198.696,-265"/>
<polygon fill="black" stroke="black" points="198.814,-268.5 208.814,-265 198.814,-261.5 198.814,-268.5"/>
<text text-anchor="middle" x="168" y="-268.8" font-family="Times,serif" font-size="14.00">u0001</text>
</g>
<!-- 2 -->
<g id="node3" class="node"><title>2</title>
<ellipse fill="none" stroke="black" cx="345" cy="-265" rx="18" ry="18"/>
</g>
<!-- 1&#45;&gt;2 -->
<g id="edge2" class="edge"><title>1&#45;&gt;2</title>
<path fill="none" stroke="black" d="M245.116,-265C263.964,-265 294.531,-265 316.696,-265"/>
<polygon fill="black" stroke="black" points="316.814,-268.5 326.814,-265 316.814,-261.5 316.814,-268.5"/>
<text text-anchor="middle" x="286" y="-268.8" font-family="Times,serif" font-size="14.00">u0003</text>
</g>
<!-- 3 -->
<g id="node4" class="node"><title>3</title>
<ellipse fill="none" stroke="black" cx="462" cy="-265" rx="18" ry="18"/>
</g>
<!-- 2&#45;&gt;3 -->
<g id="edge3" class="edge"><title>2&#45;&gt;3</title>
<path fill="none" stroke="black" d="M363.466,-265C382.064,-265 411.756,-265 433.499,-265"/>
<polygon fill="black" stroke="black" points="433.746,-268.5 443.746,-265 433.746,-261.5 433.746,-268.5"/>
<text text-anchor="middle" x="403.5" y="-268.8" font-family="Times,serif" font-size="14.00">u000e</text>
</g>
<!-- 4 -->
<g id="node5" class="node"><title>4</title>
<ellipse fill="none" stroke="black" cx="576" cy="-265" rx="18" ry="18"/>
</g>
<!-- 3&#45;&gt;4 -->
<g id="edge4" class="edge"><title>3&#45;&gt;4</title>
<path fill="none" stroke="black" d="M480.01,-265C497.937,-265 526.445,-265 547.558,-265"/>
<polygon fill="black" stroke="black" points="547.83,-268.5 557.83,-265 547.829,-261.5 547.83,-268.5"/>
<text text-anchor="middle" x="519" y="-268.8" font-family="Times,serif" font-size="14.00">u000f</text>
</g>
<!-- 5 -->
<g id="node6" class="node"><title>5</title>
<ellipse fill="none" stroke="black" cx="694" cy="-265" rx="18" ry="18"/>
</g>
<!-- 4&#45;&gt;5 -->
<g id="edge5" class="edge"><title>4&#45;&gt;5</title>
<path fill="none" stroke="black" d="M594.116,-265C612.964,-265 643.531,-265 665.696,-265"/>
<polygon fill="black" stroke="black" points="665.814,-268.5 675.814,-265 665.814,-261.5 665.814,-268.5"/>
<text text-anchor="middle" x="635" y="-268.8" font-family="Times,serif" font-size="14.00">u0002</text>
</g>
<!-- 6 -->
<g id="node7" class="node"><title>6</title>
<ellipse fill="none" stroke="black" cx="812" cy="-334" rx="18" ry="18"/>
</g>
<!-- 5&#45;&gt;6 -->
<g id="edge6" class="edge"><title>5&#45;&gt;6</title>
<path fill="none" stroke="black" d="M705.771,-279.105C712.149,-286.697 720.772,-295.758 730,-302 746.802,-313.365 768.239,-321.606 784.838,-326.877"/>
<polygon fill="black" stroke="black" points="783.879,-330.243 794.464,-329.776 785.898,-323.541 783.879,-330.243"/>
<text text-anchor="middle" x="753" y="-326.8" font-family="Times,serif" font-size="14.00">u000d</text>
</g>
<!-- 7 -->
<g id="node13" class="node"><title>7</title>
<ellipse fill="none" stroke="black" cx="1691" cy="-313" rx="18" ry="18"/>
</g>
<!-- 5&#45;&gt;7 -->
<g id="edge7" class="edge"><title>5&#45;&gt;7</title>
<path fill="none" stroke="black" d="M711.318,-270.334C733.588,-277.129 774.866,-288 811,-288 811,-288 811,-288 1564,-288 1599.09,-288 1638.63,-297.442 1663.91,-304.72"/>
<polygon fill="black" stroke="black" points="1662.91,-308.075 1673.49,-307.575 1664.91,-301.366 1662.91,-308.075"/>
<text text-anchor="middle" x="1181" y="-291.8" font-family="Times,serif" font-size="14.00">u000c</text>
</g>
<!-- 8 -->
<g id="node44" class="node"><title>8</title>
<ellipse fill="none" stroke="black" cx="871" cy="-240" rx="18" ry="18"/>
</g>
<!-- 5&#45;&gt;8 -->
<g id="edge8" class="edge"><title>5&#45;&gt;8</title>
<path fill="none" stroke="black" d="M712.07,-261.951C717.766,-260.966 724.15,-259.898 730,-259 769.126,-252.993 814.559,-247.009 842.798,-243.406"/>
<polygon fill="black" stroke="black" points="843.249,-246.877 852.73,-242.147 842.369,-239.933 843.249,-246.877"/>
<text text-anchor="middle" x="753" y="-262.8" font-family="Times,serif" font-size="14.00">u0006</text>
</g>
<!-- 9 -->
<g id="node52" class="node"><title>9</title>
<ellipse fill="none" stroke="black" cx="812" cy="-72" rx="18" ry="18"/>
</g>
<!-- 5&#45;&gt;9 -->
<g id="edge9" class="edge"><title>5&#45;&gt;9</title>
<path fill="none" stroke="black" d="M704.102,-249.856C724.22,-216.384 772.591,-135.905 796.758,-95.6959"/>
<polygon fill="black" stroke="black" points="799.788,-97.4481 801.94,-87.074 793.789,-93.842 799.788,-97.4481"/>
<text text-anchor="middle" x="753" y="-206.8" font-family="Times,serif" font-size="14.00">u0000</text>
</g>
<!-- 10 -->
<g id="node8" class="node"><title>10</title>
<ellipse fill="none" stroke="black" cx="930" cy="-334" rx="18" ry="18"/>
</g>
<!-- 6&#45;&gt;10 -->
<g id="edge10" class="edge"><title>6&#45;&gt;10</title>
<path fill="none" stroke="black" d="M830.116,-334C848.964,-334 879.531,-334 901.696,-334"/>
<polygon fill="black" stroke="black" points="901.814,-337.5 911.814,-334 901.814,-330.5 901.814,-337.5"/>
<text text-anchor="middle" x="871" y="-337.8" font-family="Times,serif" font-size="14.00">u0006</text>
</g>
<!-- 17 -->
<g id="node9" class="node"><title>17</title>
<ellipse fill="none" stroke="black" cx="1053" cy="-394" rx="18" ry="18"/>
</g>
<!-- 10&#45;&gt;17 -->
<g id="edge11" class="edge"><title>10&#45;&gt;17</title>
<path fill="none" stroke="black" d="M946.325,-341.599C966.76,-351.732 1003.17,-369.787 1027.45,-381.828"/>
<polygon fill="black" stroke="black" points="1025.9,-384.966 1036.42,-386.273 1029.01,-378.695 1025.9,-384.966"/>
<text text-anchor="middle" x="989" y="-375.8" font-family="Times,serif" font-size="14.00">u0004</text>
</g>
<!-- 26 -->
<g id="node10" class="node"><title>26</title>
<ellipse fill="none" stroke="black" cx="1245" cy="-437" rx="18" ry="18"/>
</g>
<!-- 17&#45;&gt;26 -->
<g id="edge12" class="edge"><title>17&#45;&gt;26</title>
<path fill="none" stroke="black" d="M1070.86,-397.816C1103.96,-405.307 1177.66,-421.986 1217.39,-430.978"/>
<polygon fill="black" stroke="black" points="1216.65,-434.399 1227.18,-433.193 1218.2,-427.572 1216.65,-434.399"/>
<text text-anchor="middle" x="1117" y="-415.8" font-family="Times,serif" font-size="14.00">u0005</text>
</g>
<!-- 35 -->
<g id="node11" class="node"><title>35</title>
<ellipse fill="none" stroke="black" cx="3278" cy="-349" rx="18" ry="18"/>
</g>
<!-- 26&#45;&gt;35 -->
<g id="edge13" class="edge"><title>26&#45;&gt;35</title>
<path fill="none" stroke="black" d="M1261.37,-445.081C1284.57,-456.504 1330.2,-476 1371.5,-476 1371.5,-476 1371.5,-476 3161,-476 3202.85,-476 3214.21,-459.282 3242,-428 3255.2,-413.142 3264.11,-392.501 3269.64,-376.044"/>
<polygon fill="black" stroke="black" points="3273,-377.016 3272.65,-366.427 3266.32,-374.924 3273,-377.016"/>
<text text-anchor="middle" x="2246" y="-479.8" font-family="Times,serif" font-size="14.00">u000b</text>
</g>
<!-- 45 -->
<g id="node12" class="node"><title>45</title>
<ellipse fill="none" stroke="black" cx="3400" cy="-349" rx="18" ry="18"/>
<ellipse fill="none" stroke="black" cx="3400" cy="-349" rx="22" ry="22"/>
</g>
<!-- 35&#45;&gt;45 -->
<g id="edge14" class="edge"><title>35&#45;&gt;45</title>
<path fill="none" stroke="black" d="M3296.19,-349C3314.77,-349 3344.76,-349 3367.57,-349"/>
<polygon fill="black" stroke="black" points="3367.79,-352.5 3377.79,-349 3367.79,-345.5 3367.79,-352.5"/>
<text text-anchor="middle" x="3337" y="-352.8" font-family="Times,serif" font-size="14.00">u0007</text>
</g>
<!-- 11 -->
<g id="node14" class="node"><title>11</title>
<ellipse fill="none" stroke="black" cx="2069" cy="-325" rx="18" ry="18"/>
</g>
<!-- 7&#45;&gt;11 -->
<g id="edge15" class="edge"><title>7&#45;&gt;11</title>
<path fill="none" stroke="black" d="M1709.13,-313.547C1768.71,-315.448 1967.22,-321.784 2040.51,-324.123"/>
<polygon fill="black" stroke="black" points="2040.66,-327.629 2050.77,-324.45 2040.88,-320.633 2040.66,-327.629"/>
<text text-anchor="middle" x="1882" y="-322.8" font-family="Times,serif" font-size="14.00">u000d</text>
</g>
<!-- 12 -->
<g id="node26" class="node"><title>12</title>
<ellipse fill="none" stroke="black" cx="1818.5" cy="-410" rx="18" ry="18"/>
</g>
<!-- 7&#45;&gt;12 -->
<g id="edge16" class="edge"><title>7&#45;&gt;12</title>
<path fill="none" stroke="black" d="M1705.91,-323.751C1727.58,-340.503 1769.6,-372.978 1795.44,-392.948"/>
<polygon fill="black" stroke="black" points="1793.47,-395.854 1803.53,-399.201 1797.76,-390.316 1793.47,-395.854"/>
<text text-anchor="middle" x="1755" y="-381.8" font-family="Times,serif" font-size="14.00">u000c</text>
</g>
<!-- 13 -->
<g id="node38" class="node"><title>13</title>
<ellipse fill="none" stroke="black" cx="1818.5" cy="-278" rx="18" ry="18"/>
</g>
<!-- 7&#45;&gt;13 -->
<g id="edge17" class="edge"><title>7&#45;&gt;13</title>
<path fill="none" stroke="black" d="M1707.26,-305.153C1714.58,-301.639 1723.59,-297.691 1732,-295 1751.04,-288.911 1773.19,-284.58 1790.17,-281.814"/>
<polygon fill="black" stroke="black" points="1791.15,-285.204 1800.5,-280.219 1790.09,-278.286 1791.15,-285.204"/>
<text text-anchor="middle" x="1755" y="-298.8" font-family="Times,serif" font-size="14.00">u0000</text>
</g>
<!-- 18 -->
<g id="node15" class="node"><title>18</title>
<ellipse fill="none" stroke="black" cx="2246" cy="-377" rx="18" ry="18"/>
</g>
<!-- 11&#45;&gt;18 -->
<g id="edge18" class="edge"><title>11&#45;&gt;18</title>
<path fill="none" stroke="black" d="M2084.57,-334.04C2090.7,-337.541 2098.02,-341.339 2105,-344 2142.86,-358.442 2188.97,-367.834 2217.67,-372.776"/>
<polygon fill="black" stroke="black" points="2217.32,-376.266 2227.76,-374.453 2218.47,-369.361 2217.32,-376.266"/>
<text text-anchor="middle" x="2128" y="-361.8" font-family="Times,serif" font-size="14.00">u000c</text>
</g>
<!-- 19 -->
<g id="node18" class="node"><title>19</title>
<ellipse fill="none" stroke="black" cx="2187" cy="-325" rx="18" ry="18"/>
</g>
<!-- 11&#45;&gt;19 -->
<g id="edge19" class="edge"><title>11&#45;&gt;19</title>
<path fill="none" stroke="black" d="M2087.12,-325C2105.96,-325 2136.53,-325 2158.7,-325"/>
<polygon fill="black" stroke="black" points="2158.81,-328.5 2168.81,-325 2158.81,-321.5 2158.81,-328.5"/>
<text text-anchor="middle" x="2128" y="-328.8" font-family="Times,serif" font-size="14.00">u0006</text>
</g>
<!-- 20 -->
<g id="node22" class="node"><title>20</title>
<ellipse fill="none" stroke="black" cx="2187" cy="-271" rx="18" ry="18"/>
</g>
<!-- 11&#45;&gt;20 -->
<g id="edge20" class="edge"><title>11&#45;&gt;20</title>
<path fill="none" stroke="black" d="M2085.18,-316.376C2091.28,-313.013 2098.41,-309.205 2105,-306 2123.37,-297.068 2144.57,-287.946 2160.68,-281.255"/>
<polygon fill="black" stroke="black" points="2162.06,-284.47 2169.98,-277.426 2159.4,-277.998 2162.06,-284.47"/>
<text text-anchor="middle" x="2128" y="-309.8" font-family="Times,serif" font-size="14.00">u0000</text>
</g>
<!-- 27 -->
<g id="node16" class="node"><title>27</title>
<ellipse fill="none" stroke="black" cx="2374" cy="-379" rx="18" ry="18"/>
</g>
<!-- 18&#45;&gt;27 -->
<g id="edge21" class="edge"><title>18&#45;&gt;27</title>
<path fill="none" stroke="black" d="M2264.26,-377.274C2285.27,-377.608 2321.03,-378.175 2345.77,-378.568"/>
<polygon fill="black" stroke="black" points="2345.9,-382.07 2355.95,-378.729 2346.01,-375.071 2345.9,-382.07"/>
<text text-anchor="middle" x="2310" y="-381.8" font-family="Times,serif" font-size="14.00">u0006</text>
</g>
<!-- 36 -->
<g id="node17" class="node"><title>36</title>
<ellipse fill="none" stroke="black" cx="2502" cy="-374" rx="18" ry="18"/>
</g>
<!-- 27&#45;&gt;36 -->
<g id="edge22" class="edge"><title>27&#45;&gt;36</title>
<path fill="none" stroke="black" d="M2391.99,-378.326C2412.94,-377.494 2448.81,-376.071 2473.65,-375.085"/>
<polygon fill="black" stroke="black" points="2474.02,-378.573 2483.87,-374.68 2473.74,-371.579 2474.02,-378.573"/>
<text text-anchor="middle" x="2438" y="-380.8" font-family="Times,serif" font-size="14.00">u0004</text>
</g>
<!-- 36&#45;&gt;35 -->
<g id="edge23" class="edge"><title>36&#45;&gt;35</title>
<path fill="none" stroke="black" d="M2520.29,-373.274C2542.95,-372.386 2583.95,-371 2619,-371 2619,-371 2619,-371 3161,-371 3192.28,-371 3227.5,-363.18 3250.83,-356.865"/>
<polygon fill="black" stroke="black" points="3251.98,-360.177 3260.66,-354.103 3250.09,-353.438 3251.98,-360.177"/>
<text text-anchor="middle" x="2856" y="-374.8" font-family="Times,serif" font-size="14.00">u0005</text>
</g>
<!-- 28 -->
<g id="node19" class="node"><title>28</title>
<ellipse fill="none" stroke="black" cx="2310" cy="-325" rx="18" ry="18"/>
</g>
<!-- 19&#45;&gt;28 -->
<g id="edge24" class="edge"><title>19&#45;&gt;28</title>
<path fill="none" stroke="black" d="M2205.08,-325C2224.96,-325 2258.08,-325 2281.58,-325"/>
<polygon fill="black" stroke="black" points="2281.62,-328.5 2291.62,-325 2281.62,-321.5 2281.62,-328.5"/>
<text text-anchor="middle" x="2246" y="-328.8" font-family="Times,serif" font-size="14.00">u0004</text>
</g>
<!-- 37 -->
<g id="node20" class="node"><title>37</title>
<ellipse fill="none" stroke="black" cx="2438" cy="-325" rx="18" ry="18"/>
</g>
<!-- 28&#45;&gt;37 -->
<g id="edge25" class="edge"><title>28&#45;&gt;37</title>
<path fill="none" stroke="black" d="M2328.26,-325C2349.27,-325 2385.03,-325 2409.77,-325"/>
<polygon fill="black" stroke="black" points="2409.95,-328.5 2419.95,-325 2409.95,-321.5 2409.95,-328.5"/>
<text text-anchor="middle" x="2374" y="-328.8" font-family="Times,serif" font-size="14.00">u0005</text>
</g>
<!-- 46 -->
<g id="node21" class="node"><title>46</title>
<ellipse fill="none" stroke="black" cx="2620" cy="-326" rx="18" ry="18"/>
</g>
<!-- 37&#45;&gt;46 -->
<g id="edge26" class="edge"><title>37&#45;&gt;46</title>
<path fill="none" stroke="black" d="M2456.26,-325.096C2487.57,-325.27 2553.98,-325.639 2591.57,-325.848"/>
<polygon fill="black" stroke="black" points="2591.77,-329.349 2601.79,-325.904 2591.81,-322.349 2591.77,-329.349"/>
<text text-anchor="middle" x="2502" y="-328.8" font-family="Times,serif" font-size="14.00">u0008</text>
</g>
<!-- 46&#45;&gt;35 -->
<g id="edge27" class="edge"><title>46&#45;&gt;35</title>
<path fill="none" stroke="black" d="M2638.29,-326.242C2660.96,-326.538 2701.96,-327 2737,-327 2737,-327 2737,-327 3161,-327 3192.28,-327 3227.5,-334.82 3250.83,-341.135"/>
<polygon fill="black" stroke="black" points="3250.09,-344.562 3260.66,-343.897 3251.98,-337.823 3250.09,-344.562"/>
<text text-anchor="middle" x="2920" y="-330.8" font-family="Times,serif" font-size="14.00">u0010</text>
</g>
<!-- 29 -->
<g id="node23" class="node"><title>29</title>
<ellipse fill="none" stroke="black" cx="2310" cy="-271" rx="18" ry="18"/>
</g>
<!-- 20&#45;&gt;29 -->
<g id="edge28" class="edge"><title>20&#45;&gt;29</title>
<path fill="none" stroke="black" d="M2205.08,-271C2224.96,-271 2258.08,-271 2281.58,-271"/>
<polygon fill="black" stroke="black" points="2281.62,-274.5 2291.62,-271 2281.62,-267.5 2281.62,-274.5"/>
<text text-anchor="middle" x="2246" y="-274.8" font-family="Times,serif" font-size="14.00">u0006</text>
</g>
<!-- 38 -->
<g id="node24" class="node"><title>38</title>
<ellipse fill="none" stroke="black" cx="2438" cy="-261" rx="18" ry="18"/>
</g>
<!-- 29&#45;&gt;38 -->
<g id="edge29" class="edge"><title>29&#45;&gt;38</title>
<path fill="none" stroke="black" d="M2327.99,-269.651C2348.94,-267.989 2384.81,-265.142 2409.65,-263.17"/>
<polygon fill="black" stroke="black" points="2410.18,-266.639 2419.87,-262.359 2409.63,-259.661 2410.18,-266.639"/>
<text text-anchor="middle" x="2374" y="-270.8" font-family="Times,serif" font-size="14.00">u0004</text>
</g>
<!-- 47 -->
<g id="node25" class="node"><title>47</title>
<ellipse fill="none" stroke="black" cx="2561" cy="-220" rx="18" ry="18"/>
</g>
<!-- 38&#45;&gt;47 -->
<g id="edge30" class="edge"><title>38&#45;&gt;47</title>
<path fill="none" stroke="black" d="M2455.32,-255.471C2475.53,-248.624 2510.19,-236.877 2534.06,-228.79"/>
<polygon fill="black" stroke="black" points="2535.21,-232.097 2543.55,-225.573 2532.96,-225.467 2535.21,-232.097"/>
<text text-anchor="middle" x="2502" y="-250.8" font-family="Times,serif" font-size="14.00">u0005</text>
</g>
<!-- 47&#45;&gt;35 -->
<g id="edge31" class="edge"><title>47&#45;&gt;35</title>
<path fill="none" stroke="black" d="M2578.76,-224.503C2601.19,-230.121 2642.29,-239 2678,-239 2678,-239 2678,-239 3161,-239 3210.01,-239 3246.59,-291.33 3264.58,-323.803"/>
<polygon fill="black" stroke="black" points="3261.57,-325.589 3269.36,-332.769 3267.75,-322.298 3261.57,-325.589"/>
<text text-anchor="middle" x="2920" y="-242.8" font-family="Times,serif" font-size="14.00">u000a</text>
</g>
<!-- 21 -->
<g id="node27" class="node"><title>21</title>
<ellipse fill="none" stroke="black" cx="1946" cy="-425" rx="18" ry="18"/>
</g>
<!-- 12&#45;&gt;21 -->
<g id="edge32" class="edge"><title>12&#45;&gt;21</title>
<path fill="none" stroke="black" d="M1836.43,-412.023C1857.29,-414.517 1893.02,-418.787 1917.76,-421.744"/>
<polygon fill="black" stroke="black" points="1917.6,-425.25 1927.94,-422.961 1918.43,-418.299 1917.6,-425.25"/>
<text text-anchor="middle" x="1882" y="-423.8" font-family="Times,serif" font-size="14.00">u000c</text>
</g>
<!-- 30 -->
<g id="node28" class="node"><title>30</title>
<ellipse fill="none" stroke="black" cx="2069" cy="-428" rx="18" ry="18"/>
</g>
<!-- 21&#45;&gt;30 -->
<g id="edge33" class="edge"><title>21&#45;&gt;30</title>
<path fill="none" stroke="black" d="M1964.08,-425.423C1983.96,-425.916 2017.08,-426.737 2040.58,-427.32"/>
<polygon fill="black" stroke="black" points="2040.53,-430.82 2050.62,-427.569 2040.71,-423.822 2040.53,-430.82"/>
<text text-anchor="middle" x="2010" y="-430.8" font-family="Times,serif" font-size="14.00">u000d</text>
</g>
<!-- 39 -->
<g id="node29" class="node"><title>39</title>
<ellipse fill="none" stroke="black" cx="2187" cy="-430" rx="18" ry="18"/>
</g>
<!-- 30&#45;&gt;39 -->
<g id="edge34" class="edge"><title>30&#45;&gt;39</title>
<path fill="none" stroke="black" d="M2087.12,-428.295C2105.96,-428.62 2136.53,-429.147 2158.7,-429.529"/>
<polygon fill="black" stroke="black" points="2158.75,-433.031 2168.81,-429.704 2158.88,-426.032 2158.75,-433.031"/>
<text text-anchor="middle" x="2128" y="-432.8" font-family="Times,serif" font-size="14.00">u0006</text>
</g>
<!-- 48 -->
<g id="node30" class="node"><title>48</title>
<ellipse fill="none" stroke="black" cx="2310" cy="-430" rx="18" ry="18"/>
</g>
<!-- 39&#45;&gt;48 -->
<g id="edge35" class="edge"><title>39&#45;&gt;48</title>
<path fill="none" stroke="black" d="M2205.08,-430C2224.96,-430 2258.08,-430 2281.58,-430"/>
<polygon fill="black" stroke="black" points="2281.62,-433.5 2291.62,-430 2281.62,-426.5 2281.62,-433.5"/>
<text text-anchor="middle" x="2246" y="-433.8" font-family="Times,serif" font-size="14.00">u0004</text>
</g>
<!-- 53 -->
<g id="node31" class="node"><title>53</title>
<ellipse fill="none" stroke="black" cx="2438" cy="-430" rx="18" ry="18"/>
</g>
<!-- 48&#45;&gt;53 -->
<g id="edge36" class="edge"><title>48&#45;&gt;53</title>
<path fill="none" stroke="black" d="M2328.26,-430C2349.27,-430 2385.03,-430 2409.77,-430"/>
<polygon fill="black" stroke="black" points="2409.95,-433.5 2419.95,-430 2409.95,-426.5 2409.95,-433.5"/>
<text text-anchor="middle" x="2374" y="-433.8" font-family="Times,serif" font-size="14.00">u0005</text>
</g>
<!-- 58 -->
<g id="node32" class="node"><title>58</title>
<ellipse fill="none" stroke="black" cx="2561" cy="-430" rx="18" ry="18"/>
</g>
<!-- 53&#45;&gt;58 -->
<g id="edge37" class="edge"><title>53&#45;&gt;58</title>
<path fill="none" stroke="black" d="M2456.08,-430C2475.96,-430 2509.08,-430 2532.58,-430"/>
<polygon fill="black" stroke="black" points="2532.62,-433.5 2542.62,-430 2532.62,-426.5 2532.62,-433.5"/>
<text text-anchor="middle" x="2502" y="-433.8" font-family="Times,serif" font-size="14.00">u000a</text>
</g>
<!-- 61 -->
<g id="node33" class="node"><title>61</title>
<ellipse fill="none" stroke="black" cx="2679" cy="-430" rx="18" ry="18"/>
</g>
<!-- 58&#45;&gt;61 -->
<g id="edge38" class="edge"><title>58&#45;&gt;61</title>
<path fill="none" stroke="black" d="M2579.12,-430C2597.96,-430 2628.53,-430 2650.7,-430"/>
<polygon fill="black" stroke="black" points="2650.81,-433.5 2660.81,-430 2650.81,-426.5 2650.81,-433.5"/>
<text text-anchor="middle" x="2620" y="-433.8" font-family="Times,serif" font-size="14.00">u000a</text>
</g>
<!-- 64 -->
<g id="node34" class="node"><title>64</title>
<ellipse fill="none" stroke="black" cx="2797" cy="-430" rx="18" ry="18"/>
</g>
<!-- 61&#45;&gt;64 -->
<g id="edge39" class="edge"><title>61&#45;&gt;64</title>
<path fill="none" stroke="black" d="M2697.12,-430C2715.96,-430 2746.53,-430 2768.7,-430"/>
<polygon fill="black" stroke="black" points="2768.81,-433.5 2778.81,-430 2768.81,-426.5 2768.81,-433.5"/>
<text text-anchor="middle" x="2738" y="-433.8" font-family="Times,serif" font-size="14.00">u0009</text>
</g>
<!-- 67 -->
<g id="node35" class="node"><title>67</title>
<ellipse fill="none" stroke="black" cx="2920" cy="-430" rx="18" ry="18"/>
</g>
<!-- 64&#45;&gt;67 -->
<g id="edge40" class="edge"><title>64&#45;&gt;67</title>
<path fill="none" stroke="black" d="M2815.08,-430C2834.96,-430 2868.08,-430 2891.58,-430"/>
<polygon fill="black" stroke="black" points="2891.62,-433.5 2901.62,-430 2891.62,-426.5 2891.62,-433.5"/>
<text text-anchor="middle" x="2856" y="-433.8" font-family="Times,serif" font-size="14.00">u0010</text>
</g>
<!-- 70 -->
<g id="node36" class="node"><title>70</title>
<ellipse fill="none" stroke="black" cx="3043" cy="-424" rx="18" ry="18"/>
</g>
<!-- 67&#45;&gt;70 -->
<g id="edge41" class="edge"><title>67&#45;&gt;70</title>
<path fill="none" stroke="black" d="M2938.08,-429.153C2958.08,-428.161 2991.45,-426.506 3014.98,-425.34"/>
<polygon fill="black" stroke="black" points="3015.19,-428.834 3025.01,-424.843 3014.85,-421.842 3015.19,-428.834"/>
<text text-anchor="middle" x="2984" y="-430.8" font-family="Times,serif" font-size="14.00">u0009</text>
</g>
<!-- 73 -->
<g id="node37" class="node"><title>73</title>
<ellipse fill="none" stroke="black" cx="3160" cy="-424" rx="18" ry="18"/>
</g>
<!-- 70&#45;&gt;73 -->
<g id="edge42" class="edge"><title>70&#45;&gt;73</title>
<path fill="none" stroke="black" d="M3061.47,-424C3080.06,-424 3109.76,-424 3131.5,-424"/>
<polygon fill="black" stroke="black" points="3131.75,-427.5 3141.75,-424 3131.75,-420.5 3131.75,-427.5"/>
<text text-anchor="middle" x="3101.5" y="-427.8" font-family="Times,serif" font-size="14.00">u000a</text>
</g>
<!-- 73&#45;&gt;35 -->
<g id="edge43" class="edge"><title>73&#45;&gt;35</title>
<path fill="none" stroke="black" d="M3177.13,-418.185C3194.16,-411.613 3221.36,-399.867 3242,-385 3247.99,-380.688 3253.84,-375.291 3259,-369.998"/>
<polygon fill="black" stroke="black" points="3261.76,-372.171 3265.99,-362.456 3256.62,-367.414 3261.76,-372.171"/>
<text text-anchor="middle" x="3219" y="-412.8" font-family="Times,serif" font-size="14.00">u0011</text>
</g>
<!-- 22 -->
<g id="node39" class="node"><title>22</title>
<ellipse fill="none" stroke="black" cx="1946" cy="-274" rx="18" ry="18"/>
</g>
<!-- 13&#45;&gt;22 -->
<g id="edge44" class="edge"><title>13&#45;&gt;22</title>
<path fill="none" stroke="black" d="M1836.69,-277.452C1857.51,-276.789 1892.84,-275.662 1917.47,-274.877"/>
<polygon fill="black" stroke="black" points="1917.73,-278.371 1927.62,-274.554 1917.51,-271.374 1917.73,-278.371"/>
<text text-anchor="middle" x="1882" y="-279.8" font-family="Times,serif" font-size="14.00">u0000</text>
</g>
<!-- 31 -->
<g id="node40" class="node"><title>31</title>
<ellipse fill="none" stroke="black" cx="2069" cy="-271" rx="18" ry="18"/>
</g>
<!-- 22&#45;&gt;31 -->
<g id="edge45" class="edge"><title>22&#45;&gt;31</title>
<path fill="none" stroke="black" d="M1964.08,-273.577C1983.96,-273.084 2017.08,-272.263 2040.58,-271.68"/>
<polygon fill="black" stroke="black" points="2040.71,-275.178 2050.62,-271.431 2040.53,-268.18 2040.71,-275.178"/>
<text text-anchor="middle" x="2010" y="-275.8" font-family="Times,serif" font-size="14.00">u0006</text>
</g>
<!-- 40 -->
<g id="node41" class="node"><title>40</title>
<ellipse fill="none" stroke="black" cx="2187" cy="-163" rx="18" ry="18"/>
</g>
<!-- 31&#45;&gt;40 -->
<g id="edge46" class="edge"><title>31&#45;&gt;40</title>
<path fill="none" stroke="black" d="M2079.87,-256.439C2082.35,-252.489 2084.9,-248.154 2087,-244 2096.89,-224.401 2089.75,-213.792 2105,-198 2119.54,-182.943 2141.64,-173.988 2159.08,-168.911"/>
<polygon fill="black" stroke="black" points="2160.45,-172.168 2169.23,-166.231 2158.67,-165.4 2160.45,-172.168"/>
<text text-anchor="middle" x="2128" y="-201.8" font-family="Times,serif" font-size="14.00">u0004</text>
</g>
<!-- 49 -->
<g id="node42" class="node"><title>49</title>
<ellipse fill="none" stroke="black" cx="2310" cy="-163" rx="18" ry="18"/>
</g>
<!-- 40&#45;&gt;49 -->
<g id="edge47" class="edge"><title>40&#45;&gt;49</title>
<path fill="none" stroke="black" d="M2205.08,-163C2224.96,-163 2258.08,-163 2281.58,-163"/>
<polygon fill="black" stroke="black" points="2281.62,-166.5 2291.62,-163 2281.62,-159.5 2281.62,-166.5"/>
<text text-anchor="middle" x="2246" y="-166.8" font-family="Times,serif" font-size="14.00">u0005</text>
</g>
<!-- 54 -->
<g id="node43" class="node"><title>54</title>
<ellipse fill="none" stroke="black" cx="2438" cy="-186" rx="18" ry="18"/>
</g>
<!-- 49&#45;&gt;54 -->
<g id="edge48" class="edge"><title>49&#45;&gt;54</title>
<path fill="none" stroke="black" d="M2327.99,-166.102C2349.03,-169.943 2385.13,-176.532 2409.99,-181.069"/>
<polygon fill="black" stroke="black" points="2409.41,-184.521 2419.87,-182.874 2410.66,-177.635 2409.41,-184.521"/>
<text text-anchor="middle" x="2374" y="-182.8" font-family="Times,serif" font-size="14.00">u0009</text>
</g>
<!-- 54&#45;&gt;47 -->
<g id="edge49" class="edge"><title>54&#45;&gt;47</title>
<path fill="none" stroke="black" d="M2455.82,-190.728C2475.96,-196.386 2509.92,-205.929 2533.57,-212.574"/>
<polygon fill="black" stroke="black" points="2532.74,-215.977 2543.32,-215.313 2534.64,-209.238 2532.74,-215.977"/>
<text text-anchor="middle" x="2502" y="-213.8" font-family="Times,serif" font-size="14.00">u0011</text>
</g>
<!-- 14 -->
<g id="node45" class="node"><title>14</title>
<ellipse fill="none" stroke="black" cx="1691" cy="-236" rx="18" ry="18"/>
</g>
<!-- 8&#45;&gt;14 -->
<g id="edge50" class="edge"><title>8&#45;&gt;14</title>
<path fill="none" stroke="black" d="M889.293,-239.516C911.959,-238.924 952.953,-238 988,-238 988,-238 988,-238 1564,-238 1598.07,-238 1637.33,-237.26 1662.84,-236.68"/>
<polygon fill="black" stroke="black" points="1662.97,-240.178 1672.88,-236.444 1662.8,-233.18 1662.97,-240.178"/>
<text text-anchor="middle" x="1245" y="-241.8" font-family="Times,serif" font-size="14.00">u0004</text>
</g>
<!-- 23 -->
<g id="node46" class="node"><title>23</title>
<ellipse fill="none" stroke="black" cx="1818.5" cy="-217" rx="18" ry="18"/>
</g>
<!-- 14&#45;&gt;23 -->
<g id="edge51" class="edge"><title>14&#45;&gt;23</title>
<path fill="none" stroke="black" d="M1708.93,-233.438C1729.79,-230.279 1765.52,-224.87 1790.26,-221.124"/>
<polygon fill="black" stroke="black" points="1791.08,-224.54 1800.44,-219.583 1790.03,-217.619 1791.08,-224.54"/>
<text text-anchor="middle" x="1755" y="-233.8" font-family="Times,serif" font-size="14.00">u0005</text>
</g>
<!-- 32 -->
<g id="node47" class="node"><title>32</title>
<ellipse fill="none" stroke="black" cx="1946" cy="-217" rx="18" ry="18"/>
</g>
<!-- 23&#45;&gt;32 -->
<g id="edge52" class="edge"><title>23&#45;&gt;32</title>
<path fill="none" stroke="black" d="M1836.69,-217C1857.51,-217 1892.84,-217 1917.47,-217"/>
<polygon fill="black" stroke="black" points="1917.62,-220.5 1927.62,-217 1917.62,-213.5 1917.62,-220.5"/>
<text text-anchor="middle" x="1882" y="-220.8" font-family="Times,serif" font-size="14.00">u0010</text>
</g>
<!-- 41 -->
<g id="node48" class="node"><title>41</title>
<ellipse fill="none" stroke="black" cx="2069" cy="-217" rx="18" ry="18"/>
</g>
<!-- 32&#45;&gt;41 -->
<g id="edge53" class="edge"><title>32&#45;&gt;41</title>
<path fill="none" stroke="black" d="M1964.08,-217C1983.96,-217 2017.08,-217 2040.58,-217"/>
<polygon fill="black" stroke="black" points="2040.62,-220.5 2050.62,-217 2040.62,-213.5 2040.62,-220.5"/>
<text text-anchor="middle" x="2010" y="-220.8" font-family="Times,serif" font-size="14.00">u0010</text>
</g>
<!-- 42 -->
<g id="node51" class="node"><title>42</title>
<ellipse fill="none" stroke="black" cx="2128" cy="-121" rx="18" ry="18"/>
</g>
<!-- 32&#45;&gt;42 -->
<g id="edge54" class="edge"><title>32&#45;&gt;42</title>
<path fill="none" stroke="black" d="M1962.35,-208.815C1993.56,-192.166 2064.69,-154.232 2102.43,-134.105"/>
<polygon fill="black" stroke="black" points="2104.52,-136.958 2111.69,-129.164 2101.22,-130.782 2104.52,-136.958"/>
<text text-anchor="middle" x="2010" y="-198.8" font-family="Times,serif" font-size="14.00">u000b</text>
</g>
<!-- 50 -->
<g id="node49" class="node"><title>50</title>
<ellipse fill="none" stroke="black" cx="2187" cy="-217" rx="18" ry="18"/>
</g>
<!-- 41&#45;&gt;50 -->
<g id="edge55" class="edge"><title>41&#45;&gt;50</title>
<path fill="none" stroke="black" d="M2087.12,-217C2105.96,-217 2136.53,-217 2158.7,-217"/>
<polygon fill="black" stroke="black" points="2158.81,-220.5 2168.81,-217 2158.81,-213.5 2158.81,-220.5"/>
<text text-anchor="middle" x="2128" y="-220.8" font-family="Times,serif" font-size="14.00">u0011</text>
</g>
<!-- 55 -->
<g id="node50" class="node"><title>55</title>
<ellipse fill="none" stroke="black" cx="2310" cy="-217" rx="18" ry="18"/>
</g>
<!-- 50&#45;&gt;55 -->
<g id="edge56" class="edge"><title>50&#45;&gt;55</title>
<path fill="none" stroke="black" d="M2205.08,-217C2224.96,-217 2258.08,-217 2281.58,-217"/>
<polygon fill="black" stroke="black" points="2281.62,-220.5 2291.62,-217 2281.62,-213.5 2281.62,-220.5"/>
<text text-anchor="middle" x="2246" y="-220.8" font-family="Times,serif" font-size="14.00">u0011</text>
</g>
<!-- 55&#45;&gt;37 -->
<g id="edge57" class="edge"><title>55&#45;&gt;37</title>
<path fill="none" stroke="black" d="M2327.95,-218.606C2346.96,-221.247 2377.67,-228.149 2397,-246 2411.92,-259.777 2405.79,-269.899 2415,-288 2417.25,-292.429 2419.82,-297.054 2422.39,-301.474"/>
<polygon fill="black" stroke="black" points="2419.42,-303.336 2427.55,-310.131 2425.43,-299.749 2419.42,-303.336"/>
<text text-anchor="middle" x="2374" y="-249.8" font-family="Times,serif" font-size="14.00">u000b</text>
</g>
<!-- 42&#45;&gt;47 -->
<g id="edge58" class="edge"><title>42&#45;&gt;47</title>
<path fill="none" stroke="black" d="M2145.87,-118.867C2168.42,-116.206 2209.65,-112 2245,-112 2245,-112 2245,-112 2439,-112 2488.72,-112 2527.41,-163.378 2546.64,-195.261"/>
<polygon fill="black" stroke="black" points="2543.71,-197.177 2551.76,-204.064 2549.76,-193.66 2543.71,-197.177"/>
<text text-anchor="middle" x="2310" y="-115.8" font-family="Times,serif" font-size="14.00">u0009</text>
</g>
<!-- 15 -->
<g id="node53" class="node"><title>15</title>
<ellipse fill="none" stroke="black" cx="989" cy="-72" rx="18" ry="18"/>
</g>
<!-- 9&#45;&gt;15 -->
<g id="edge59" class="edge"><title>9&#45;&gt;15</title>
<path fill="none" stroke="black" d="M830.098,-72C860.418,-72 923.844,-72 960.412,-72"/>
<polygon fill="black" stroke="black" points="960.832,-75.5001 970.832,-72 960.832,-68.5001 960.832,-75.5001"/>
<text text-anchor="middle" x="871" y="-75.8" font-family="Times,serif" font-size="14.00">u000c</text>
</g>
<!-- 16 -->
<g id="node64" class="node"><title>16</title>
<ellipse fill="none" stroke="black" cx="930" cy="-24" rx="18" ry="18"/>
</g>
<!-- 9&#45;&gt;16 -->
<g id="edge60" class="edge"><title>9&#45;&gt;16</title>
<path fill="none" stroke="black" d="M822.948,-57.3751C829.18,-49.4169 837.93,-40.1669 848,-35 864.572,-26.4968 885.443,-23.8213 901.848,-23.2329"/>
<polygon fill="black" stroke="black" points="901.939,-26.7321 911.894,-23.1074 901.851,-19.7327 901.939,-26.7321"/>
<text text-anchor="middle" x="871" y="-38.8" font-family="Times,serif" font-size="14.00">u0006</text>
</g>
<!-- 24 -->
<g id="node54" class="node"><title>24</title>
<ellipse fill="none" stroke="black" cx="1117" cy="-72" rx="18" ry="18"/>
</g>
<!-- 15&#45;&gt;24 -->
<g id="edge61" class="edge"><title>15&#45;&gt;24</title>
<path fill="none" stroke="black" d="M1007.26,-72C1028.27,-72 1064.03,-72 1088.77,-72"/>
<polygon fill="black" stroke="black" points="1088.95,-75.5001 1098.95,-72 1088.95,-68.5001 1088.95,-75.5001"/>
<text text-anchor="middle" x="1053" y="-75.8" font-family="Times,serif" font-size="14.00">u0000</text>
</g>
<!-- 33 -->
<g id="node55" class="node"><title>33</title>
<ellipse fill="none" stroke="black" cx="1245" cy="-72" rx="18" ry="18"/>
</g>
<!-- 24&#45;&gt;33 -->
<g id="edge62" class="edge"><title>24&#45;&gt;33</title>
<path fill="none" stroke="black" d="M1135.26,-72C1156.27,-72 1192.03,-72 1216.77,-72"/>
<polygon fill="black" stroke="black" points="1216.95,-75.5001 1226.95,-72 1216.95,-68.5001 1216.95,-75.5001"/>
<text text-anchor="middle" x="1181" y="-75.8" font-family="Times,serif" font-size="14.00">u000d</text>
</g>
<!-- 43 -->
<g id="node56" class="node"><title>43</title>
<ellipse fill="none" stroke="black" cx="1372.5" cy="-72" rx="18" ry="18"/>
</g>
<!-- 33&#45;&gt;43 -->
<g id="edge63" class="edge"><title>33&#45;&gt;43</title>
<path fill="none" stroke="black" d="M1263.19,-72C1284.01,-72 1319.34,-72 1343.97,-72"/>
<polygon fill="black" stroke="black" points="1344.12,-75.5001 1354.12,-72 1344.12,-68.5001 1344.12,-75.5001"/>
<text text-anchor="middle" x="1309" y="-75.8" font-family="Times,serif" font-size="14.00">u000d</text>
</g>
<!-- 51 -->
<g id="node57" class="node"><title>51</title>
<ellipse fill="none" stroke="black" cx="1499.5" cy="-72" rx="18" ry="18"/>
</g>
<!-- 43&#45;&gt;51 -->
<g id="edge64" class="edge"><title>43&#45;&gt;51</title>
<path fill="none" stroke="black" d="M1390.62,-72C1411.35,-72 1446.55,-72 1471.08,-72"/>
<polygon fill="black" stroke="black" points="1471.19,-75.5001 1481.19,-72 1471.19,-68.5001 1471.19,-75.5001"/>
<text text-anchor="middle" x="1436" y="-75.8" font-family="Times,serif" font-size="14.00">u000d</text>
</g>
<!-- 56 -->
<g id="node58" class="node"><title>56</title>
<ellipse fill="none" stroke="black" cx="1627" cy="-72" rx="18" ry="18"/>
</g>
<!-- 51&#45;&gt;56 -->
<g id="edge65" class="edge"><title>51&#45;&gt;56</title>
<path fill="none" stroke="black" d="M1517.69,-72C1538.51,-72 1573.84,-72 1598.47,-72"/>
<polygon fill="black" stroke="black" points="1598.62,-75.5001 1608.62,-72 1598.62,-68.5001 1598.62,-75.5001"/>
<text text-anchor="middle" x="1563" y="-75.8" font-family="Times,serif" font-size="14.00">u000d</text>
</g>
<!-- 59 -->
<g id="node59" class="node"><title>59</title>
<ellipse fill="none" stroke="black" cx="1755" cy="-72" rx="18" ry="18"/>
</g>
<!-- 56&#45;&gt;59 -->
<g id="edge66" class="edge"><title>56&#45;&gt;59</title>
<path fill="none" stroke="black" d="M1645.26,-72C1666.27,-72 1702.03,-72 1726.77,-72"/>
<polygon fill="black" stroke="black" points="1726.95,-75.5001 1736.95,-72 1726.95,-68.5001 1726.95,-75.5001"/>
<text text-anchor="middle" x="1691" y="-75.8" font-family="Times,serif" font-size="14.00">u000d</text>
</g>
<!-- 62 -->
<g id="node60" class="node"><title>62</title>
<ellipse fill="none" stroke="black" cx="1882" cy="-72" rx="18" ry="18"/>
</g>
<!-- 59&#45;&gt;62 -->
<g id="edge67" class="edge"><title>59&#45;&gt;62</title>
<path fill="none" stroke="black" d="M1773.12,-72C1793.85,-72 1829.05,-72 1853.58,-72"/>
<polygon fill="black" stroke="black" points="1853.69,-75.5001 1863.69,-72 1853.69,-68.5001 1853.69,-75.5001"/>
<text text-anchor="middle" x="1818.5" y="-75.8" font-family="Times,serif" font-size="14.00">u000c</text>
</g>
<!-- 65 -->
<g id="node61" class="node"><title>65</title>
<ellipse fill="none" stroke="black" cx="2010" cy="-70" rx="18" ry="18"/>
</g>
<!-- 62&#45;&gt;65 -->
<g id="edge68" class="edge"><title>62&#45;&gt;65</title>
<path fill="none" stroke="black" d="M1900.26,-71.7261C1921.27,-71.3925 1957.03,-70.8249 1981.77,-70.4321"/>
<polygon fill="black" stroke="black" points="1982.01,-73.929 1991.95,-70.2706 1981.9,-66.9298 1982.01,-73.929"/>
<text text-anchor="middle" x="1946" y="-75.8" font-family="Times,serif" font-size="14.00">u0006</text>
</g>
<!-- 68 -->
<g id="node62" class="node"><title>68</title>
<ellipse fill="none" stroke="black" cx="2738" cy="-70" rx="18" ry="18"/>
</g>
<!-- 65&#45;&gt;68 -->
<g id="edge69" class="edge"><title>65&#45;&gt;68</title>
<path fill="none" stroke="black" d="M2028.29,-69.0317C2050.95,-67.8479 2091.94,-66 2127,-66 2127,-66 2127,-66 2621,-66 2651.27,-66 2685.95,-67.3772 2709.45,-68.5153"/>
<polygon fill="black" stroke="black" points="2709.55,-72.0246 2719.71,-69.0317 2709.9,-65.0334 2709.55,-72.0246"/>
<text text-anchor="middle" x="2374" y="-69.8" font-family="Times,serif" font-size="14.00">u0004</text>
</g>
<!-- 71 -->
<g id="node63" class="node"><title>71</title>
<ellipse fill="none" stroke="black" cx="3160" cy="-72" rx="18" ry="18"/>
</g>
<!-- 68&#45;&gt;71 -->
<g id="edge70" class="edge"><title>68&#45;&gt;71</title>
<path fill="none" stroke="black" d="M2756.29,-70.4841C2778.96,-71.076 2819.95,-72 2855,-72 2855,-72 2855,-72 3044,-72 3073.99,-72 3108.38,-72 3131.68,-72"/>
<polygon fill="black" stroke="black" points="3131.85,-75.5001 3141.85,-72 3131.85,-68.5001 3131.85,-75.5001"/>
<text text-anchor="middle" x="2920" y="-75.8" font-family="Times,serif" font-size="14.00">u0005</text>
</g>
<!-- 71&#45;&gt;35 -->
<g id="edge71" class="edge"><title>71&#45;&gt;35</title>
<path fill="none" stroke="black" d="M3171.19,-86.1944C3188.17,-110.451 3222.31,-161.926 3242,-210 3257.22,-247.164 3267.16,-292.711 3272.43,-321.303"/>
<polygon fill="black" stroke="black" points="3269.02,-322.145 3274.22,-331.377 3275.92,-320.919 3269.02,-322.145"/>
<text text-anchor="middle" x="3219" y="-213.8" font-family="Times,serif" font-size="14.00">u0008</text>
</g>
<!-- 25 -->
<g id="node65" class="node"><title>25</title>
<ellipse fill="none" stroke="black" cx="1053" cy="-18" rx="18" ry="18"/>
</g>
<!-- 16&#45;&gt;25 -->
<g id="edge72" class="edge"><title>16&#45;&gt;25</title>
<path fill="none" stroke="black" d="M948.08,-23.1531C968.078,-22.1614 1001.45,-20.5064 1024.98,-19.34"/>
<polygon fill="black" stroke="black" points="1025.19,-22.8337 1035.01,-18.8426 1024.85,-15.8423 1025.19,-22.8337"/>
<text text-anchor="middle" x="989" y="-26.8" font-family="Times,serif" font-size="14.00">u0004</text>
</g>
<!-- 34 -->
<g id="node66" class="node"><title>34</title>
<ellipse fill="none" stroke="black" cx="1181" cy="-18" rx="18" ry="18"/>
</g>
<!-- 25&#45;&gt;34 -->
<g id="edge73" class="edge"><title>25&#45;&gt;34</title>
<path fill="none" stroke="black" d="M1071.26,-18C1092.27,-18 1128.03,-18 1152.77,-18"/>
<polygon fill="black" stroke="black" points="1152.95,-21.5001 1162.95,-18 1152.95,-14.5001 1152.95,-21.5001"/>
<text text-anchor="middle" x="1117" y="-21.8" font-family="Times,serif" font-size="14.00">u0005</text>
</g>
<!-- 44 -->
<g id="node67" class="node"><title>44</title>
<ellipse fill="none" stroke="black" cx="1309" cy="-18" rx="18" ry="18"/>
</g>
<!-- 34&#45;&gt;44 -->
<g id="edge74" class="edge"><title>34&#45;&gt;44</title>
<path fill="none" stroke="black" d="M1199.26,-18C1220.27,-18 1256.03,-18 1280.77,-18"/>
<polygon fill="black" stroke="black" points="1280.95,-21.5001 1290.95,-18 1280.95,-14.5001 1280.95,-21.5001"/>
<text text-anchor="middle" x="1245" y="-21.8" font-family="Times,serif" font-size="14.00">u0011</text>
</g>
<!-- 52 -->
<g id="node68" class="node"><title>52</title>
<ellipse fill="none" stroke="black" cx="1436" cy="-18" rx="18" ry="18"/>
</g>
<!-- 44&#45;&gt;52 -->
<g id="edge75" class="edge"><title>44&#45;&gt;52</title>
<path fill="none" stroke="black" d="M1327.12,-18C1347.85,-18 1383.05,-18 1407.58,-18"/>
<polygon fill="black" stroke="black" points="1407.69,-21.5001 1417.69,-18 1407.69,-14.5001 1407.69,-21.5001"/>
<text text-anchor="middle" x="1372.5" y="-21.8" font-family="Times,serif" font-size="14.00">u000a</text>
</g>
<!-- 57 -->
<g id="node69" class="node"><title>57</title>
<ellipse fill="none" stroke="black" cx="1563" cy="-18" rx="18" ry="18"/>
</g>
<!-- 52&#45;&gt;57 -->
<g id="edge76" class="edge"><title>52&#45;&gt;57</title>
<path fill="none" stroke="black" d="M1454.12,-18C1474.85,-18 1510.05,-18 1534.58,-18"/>
<polygon fill="black" stroke="black" points="1534.69,-21.5001 1544.69,-18 1534.69,-14.5001 1534.69,-21.5001"/>
<text text-anchor="middle" x="1499.5" y="-21.8" font-family="Times,serif" font-size="14.00">u000a</text>
</g>
<!-- 60 -->
<g id="node70" class="node"><title>60</title>
<ellipse fill="none" stroke="black" cx="1691" cy="-18" rx="18" ry="18"/>
</g>
<!-- 57&#45;&gt;60 -->
<g id="edge77" class="edge"><title>57&#45;&gt;60</title>
<path fill="none" stroke="black" d="M1581.26,-18C1602.27,-18 1638.03,-18 1662.77,-18"/>
<polygon fill="black" stroke="black" points="1662.95,-21.5001 1672.95,-18 1662.95,-14.5001 1662.95,-21.5001"/>
<text text-anchor="middle" x="1627" y="-21.8" font-family="Times,serif" font-size="14.00">u000b</text>
</g>
<!-- 63 -->
<g id="node71" class="node"><title>63</title>
<ellipse fill="none" stroke="black" cx="1818.5" cy="-18" rx="18" ry="18"/>
</g>
<!-- 60&#45;&gt;63 -->
<g id="edge78" class="edge"><title>60&#45;&gt;63</title>
<path fill="none" stroke="black" d="M1709.19,-18C1730.01,-18 1765.34,-18 1789.97,-18"/>
<polygon fill="black" stroke="black" points="1790.12,-21.5001 1800.12,-18 1790.12,-14.5001 1790.12,-21.5001"/>
<text text-anchor="middle" x="1755" y="-21.8" font-family="Times,serif" font-size="14.00">u0010</text>
</g>
<!-- 66 -->
<g id="node72" class="node"><title>66</title>
<ellipse fill="none" stroke="black" cx="1946" cy="-18" rx="18" ry="18"/>
</g>
<!-- 63&#45;&gt;66 -->
<g id="edge79" class="edge"><title>63&#45;&gt;66</title>
<path fill="none" stroke="black" d="M1836.69,-18C1857.51,-18 1892.84,-18 1917.47,-18"/>
<polygon fill="black" stroke="black" points="1917.62,-21.5001 1927.62,-18 1917.62,-14.5001 1917.62,-21.5001"/>
<text text-anchor="middle" x="1882" y="-21.8" font-family="Times,serif" font-size="14.00">u0009</text>
</g>
<!-- 69 -->
<g id="node73" class="node"><title>69</title>
<ellipse fill="none" stroke="black" cx="2069" cy="-18" rx="18" ry="18"/>
</g>
<!-- 66&#45;&gt;69 -->
<g id="edge80" class="edge"><title>66&#45;&gt;69</title>
<path fill="none" stroke="black" d="M1964.08,-18C1983.96,-18 2017.08,-18 2040.58,-18"/>
<polygon fill="black" stroke="black" points="2040.62,-21.5001 2050.62,-18 2040.62,-14.5001 2040.62,-21.5001"/>
<text text-anchor="middle" x="2010" y="-21.8" font-family="Times,serif" font-size="14.00">u0011</text>
</g>
<!-- 72 -->
<g id="node74" class="node"><title>72</title>
<ellipse fill="none" stroke="black" cx="2187" cy="-18" rx="18" ry="18"/>
</g>
<!-- 69&#45;&gt;72 -->
<g id="edge81" class="edge"><title>69&#45;&gt;72</title>
<path fill="none" stroke="black" d="M2087.12,-18C2105.96,-18 2136.53,-18 2158.7,-18"/>
<polygon fill="black" stroke="black" points="2158.81,-21.5001 2168.81,-18 2158.81,-14.5001 2158.81,-21.5001"/>
<text text-anchor="middle" x="2128" y="-21.8" font-family="Times,serif" font-size="14.00">u000b</text>
</g>
<!-- 74 -->
<g id="node75" class="node"><title>74</title>
<ellipse fill="none" stroke="black" cx="2310" cy="-18" rx="18" ry="18"/>
</g>
<!-- 72&#45;&gt;74 -->
<g id="edge82" class="edge"><title>72&#45;&gt;74</title>
<path fill="none" stroke="black" d="M2205.08,-18C2224.96,-18 2258.08,-18 2281.58,-18"/>
<polygon fill="black" stroke="black" points="2281.62,-21.5001 2291.62,-18 2281.62,-14.5001 2281.62,-21.5001"/>
<text text-anchor="middle" x="2246" y="-21.8" font-family="Times,serif" font-size="14.00">u0010</text>
</g>
<!-- 75 -->
<g id="node76" class="node"><title>75</title>
<ellipse fill="none" stroke="black" cx="2438" cy="-18" rx="18" ry="18"/>
</g>
<!-- 74&#45;&gt;75 -->
<g id="edge83" class="edge"><title>74&#45;&gt;75</title>
<path fill="none" stroke="black" d="M2328.26,-18C2349.27,-18 2385.03,-18 2409.77,-18"/>
<polygon fill="black" stroke="black" points="2409.95,-21.5001 2419.95,-18 2409.95,-14.5001 2409.95,-21.5001"/>
<text text-anchor="middle" x="2374" y="-21.8" font-family="Times,serif" font-size="14.00">u0009</text>
</g>
<!-- 76 -->
<g id="node77" class="node"><title>76</title>
<ellipse fill="none" stroke="black" cx="2561" cy="-18" rx="18" ry="18"/>
</g>
<!-- 75&#45;&gt;76 -->
<g id="edge84" class="edge"><title>75&#45;&gt;76</title>
<path fill="none" stroke="black" d="M2456.08,-18C2475.96,-18 2509.08,-18 2532.58,-18"/>
<polygon fill="black" stroke="black" points="2532.62,-21.5001 2542.62,-18 2532.62,-14.5001 2532.62,-21.5001"/>
<text text-anchor="middle" x="2502" y="-21.8" font-family="Times,serif" font-size="14.00">u000a</text>
</g>
<!-- 77 -->
<g id="node78" class="node"><title>77</title>
<ellipse fill="none" stroke="black" cx="2679" cy="-18" rx="18" ry="18"/>
</g>
<!-- 76&#45;&gt;77 -->
<g id="edge85" class="edge"><title>76&#45;&gt;77</title>
<path fill="none" stroke="black" d="M2579.12,-18C2597.96,-18 2628.53,-18 2650.7,-18"/>
<polygon fill="black" stroke="black" points="2650.81,-21.5001 2660.81,-18 2650.81,-14.5001 2650.81,-21.5001"/>
<text text-anchor="middle" x="2620" y="-21.8" font-family="Times,serif" font-size="14.00">u0008</text>
</g>
<!-- 78 -->
<g id="node79" class="node"><title>78</title>
<ellipse fill="none" stroke="black" cx="2797" cy="-18" rx="18" ry="18"/>
</g>
<!-- 77&#45;&gt;78 -->
<g id="edge86" class="edge"><title>77&#45;&gt;78</title>
<path fill="none" stroke="black" d="M2697.12,-18C2715.96,-18 2746.53,-18 2768.7,-18"/>
<polygon fill="black" stroke="black" points="2768.81,-21.5001 2778.81,-18 2768.81,-14.5001 2768.81,-21.5001"/>
<text text-anchor="middle" x="2738" y="-21.8" font-family="Times,serif" font-size="14.00">u0008</text>
</g>
<!-- 79 -->
<g id="node80" class="node"><title>79</title>
<ellipse fill="none" stroke="black" cx="2920" cy="-18" rx="18" ry="18"/>
</g>
<!-- 78&#45;&gt;79 -->
<g id="edge87" class="edge"><title>78&#45;&gt;79</title>
<path fill="none" stroke="black" d="M2815.08,-18C2834.96,-18 2868.08,-18 2891.58,-18"/>
<polygon fill="black" stroke="black" points="2891.62,-21.5001 2901.62,-18 2891.62,-14.5001 2891.62,-21.5001"/>
<text text-anchor="middle" x="2856" y="-21.8" font-family="Times,serif" font-size="14.00">u000b</text>
</g>
<!-- 80 -->
<g id="node81" class="node"><title>80</title>
<ellipse fill="none" stroke="black" cx="3043" cy="-24" rx="18" ry="18"/>
</g>
<!-- 79&#45;&gt;80 -->
<g id="edge88" class="edge"><title>79&#45;&gt;80</title>
<path fill="none" stroke="black" d="M2938.08,-18.8469C2958.08,-19.8386 2991.45,-21.4936 3014.98,-22.66"/>
<polygon fill="black" stroke="black" points="3014.85,-26.1577 3025.01,-23.1574 3015.19,-19.1663 3014.85,-26.1577"/>
<text text-anchor="middle" x="2984" y="-26.8" font-family="Times,serif" font-size="14.00">u000b</text>
</g>
<!-- 80&#45;&gt;71 -->
<g id="edge89" class="edge"><title>80&#45;&gt;71</title>
<path fill="none" stroke="black" d="M3061,-25.7539C3077.75,-27.9952 3103.69,-32.8716 3124,-43 3129.21,-45.597 3134.32,-49.1044 3138.96,-52.7823"/>
<polygon fill="black" stroke="black" points="3136.85,-55.5802 3146.72,-59.4265 3141.4,-50.2635 3136.85,-55.5802"/>
<text text-anchor="middle" x="3101.5" y="-46.8" font-family="Times,serif" font-size="14.00">u000a</text>
</g>
<!-- initial -->
<g id="node82" class="node"><title>initial</title>
</g>
<!-- initial&#45;&gt;0 -->
<g id="edge90" class="edge"><title>initial&#45;&gt;0</title>
<path fill="none" stroke="black" d="M54.195,-265C62.6538,-265 72.0513,-265 80.5951,-265"/>
<polygon fill="black" stroke="black" points="80.8257,-268.5 90.8257,-265 80.8257,-261.5 80.8257,-268.5"/>
</g>
</g>
</svg>
