<svg width="1620px" height="127px"
 viewBox="0.00 0.00 1215.00 95.00" xmlns="http://www.w3.org/2000/svg" xmlns:xlink="http://www.w3.org/1999/xlink">
<g id="graph0" class="graph" transform="scale(1.000022500562514 1.000022500562514) rotate(0) translate(4 91)">
<title>Automaton</title>
<polygon fill="white" stroke="none" points="-4,4 -4,-91 1211,-91 1211,4 -4,4"/>
<!-- 0 -->
<g id="node1" class="node"><title>0</title>
<ellipse fill="none" stroke="black" cx="109" cy="-63" rx="18" ry="18"/>
</g>
<!-- 1 -->
<g id="node2" class="node"><title>1</title>
<ellipse fill="none" stroke="black" cx="227" cy="-63" rx="18" ry="18"/>
</g>
<!-- 0&#45;&gt;1 -->
<g id="edge1" class="edge"><title>0&#45;&gt;1</title>
<path fill="none" stroke="black" d="M127.116,-63C145.964,-63 176.531,-63 198.696,-63"/>
<polygon fill="black" stroke="black" points="198.814,-66.5001 208.814,-63 198.814,-59.5001 198.814,-66.5001"/>
<text text-anchor="middle" x="168" y="-66.8" font-family="Times,serif" font-size="14.00">u0000</text>
</g>
<!-- 2 -->
<g id="node3" class="node"><title>2</title>
<ellipse fill="none" stroke="black" cx="345" cy="-63" rx="18" ry="18"/>
</g>
<!-- 1&#45;&gt;2 -->
<g id="edge2" class="edge"><title>1&#45;&gt;2</title>
<path fill="none" stroke="black" d="M245.116,-63C263.964,-63 294.531,-63 316.696,-63"/>
<polygon fill="black" stroke="black" points="316.814,-66.5001 326.814,-63 316.814,-59.5001 316.814,-66.5001"/>
<text text-anchor="middle" x="286" y="-66.8" font-family="Times,serif" font-size="14.00">u0001</text>
</g>
<!-- 3 -->
<g id="node4" class="node"><title>3</title>
<ellipse fill="none" stroke="black" cx="463" cy="-63" rx="18" ry="18"/>
</g>
<!-- 2&#45;&gt;3 -->
<g id="edge3" class="edge"><title>2&#45;&gt;3</title>
<path fill="none" stroke="black" d="M363.116,-63C381.964,-63 412.531,-63 434.696,-63"/>
<polygon fill="black" stroke="black" points="434.814,-66.5001 444.814,-63 434.814,-59.5001 434.814,-66.5001"/>
<text text-anchor="middle" x="404" y="-66.8" font-family="Times,serif" font-size="14.00">u0005</text>
</g>
<!-- 4 -->
<g id="node5" class="node"><title>4</title>
<ellipse fill="none" stroke="black" cx="945" cy="-52" rx="18" ry="18"/>
</g>
<!-- 3&#45;&gt;4 -->
<g id="edge4" class="edge"><title>3&#45;&gt;4</title>
<path fill="none" stroke="black" d="M480.874,-65.1329C503.424,-67.7943 544.651,-72 580,-72 580,-72 580,-72 828,-72 859.013,-72 894.021,-64.9717 917.389,-59.2479"/>
<polygon fill="black" stroke="black" points="918.422,-62.5967 927.251,-56.7397 916.696,-55.8127 918.422,-62.5967"/>
<text text-anchor="middle" x="704" y="-75.8" font-family="Times,serif" font-size="14.00">u0004</text>
</g>
<!-- 5 -->
<g id="node8" class="node"><title>5</title>
<ellipse fill="none" stroke="black" cx="581" cy="-24" rx="18" ry="18"/>
</g>
<!-- 3&#45;&gt;5 -->
<g id="edge5" class="edge"><title>3&#45;&gt;5</title>
<path fill="none" stroke="black" d="M478.516,-53.4496C484.638,-49.7587 491.966,-45.7668 499,-43 516.365,-36.1692 536.831,-31.3941 552.847,-28.3393"/>
<polygon fill="black" stroke="black" points="553.905,-31.7054 563.13,-26.4953 552.67,-24.8153 553.905,-31.7054"/>
<text text-anchor="middle" x="522" y="-46.8" font-family="Times,serif" font-size="14.00">u0005</text>
</g>
<!-- 6 -->
<g id="node6" class="node"><title>6</title>
<ellipse fill="none" stroke="black" cx="1063" cy="-52" rx="18" ry="18"/>
</g>
<!-- 4&#45;&gt;6 -->
<g id="edge6" class="edge"><title>4&#45;&gt;6</title>
<path fill="none" stroke="black" d="M963.116,-52C981.964,-52 1012.53,-52 1034.7,-52"/>
<polygon fill="black" stroke="black" points="1034.81,-55.5001 1044.81,-52 1034.81,-48.5001 1034.81,-55.5001"/>
<text text-anchor="middle" x="1004" y="-55.8" font-family="Times,serif" font-size="14.00">u0003</text>
</g>
<!-- 8 -->
<g id="node7" class="node"><title>8</title>
<ellipse fill="none" stroke="black" cx="1185" cy="-52" rx="18" ry="18"/>
<ellipse fill="none" stroke="black" cx="1185" cy="-52" rx="22" ry="22"/>
</g>
<!-- 6&#45;&gt;8 -->
<g id="edge7" class="edge"><title>6&#45;&gt;8</title>
<path fill="none" stroke="black" d="M1081.19,-52C1099.77,-52 1129.76,-52 1152.57,-52"/>
<polygon fill="black" stroke="black" points="1152.79,-55.5001 1162.79,-52 1152.79,-48.5001 1152.79,-55.5001"/>
<text text-anchor="middle" x="1122" y="-55.8" font-family="Times,serif" font-size="14.00">u0002</text>
</g>
<!-- 7 -->
<g id="node9" class="node"><title>7</title>
<ellipse fill="none" stroke="black" cx="704" cy="-18" rx="18" ry="18"/>
</g>
<!-- 5&#45;&gt;7 -->
<g id="edge8" class="edge"><title>5&#45;&gt;7</title>
<path fill="none" stroke="black" d="M599.08,-23.1531C619.078,-22.1614 652.454,-20.5064 675.976,-19.34"/>
<polygon fill="black" stroke="black" points="676.193,-22.8337 686.007,-18.8426 675.846,-15.8423 676.193,-22.8337"/>
<text text-anchor="middle" x="640" y="-26.8" font-family="Times,serif" font-size="14.00">u0004</text>
</g>
<!-- 9 -->
<g id="node10" class="node"><title>9</title>
<ellipse fill="none" stroke="black" cx="827" cy="-24" rx="18" ry="18"/>
</g>
<!-- 7&#45;&gt;9 -->
<g id="edge9" class="edge"><title>7&#45;&gt;9</title>
<path fill="none" stroke="black" d="M722.08,-18.8469C742.078,-19.8386 775.454,-21.4936 798.976,-22.66"/>
<polygon fill="black" stroke="black" points="798.846,-26.1577 809.007,-23.1574 799.193,-19.1663 798.846,-26.1577"/>
<text text-anchor="middle" x="768" y="-26.8" font-family="Times,serif" font-size="14.00">u0005</text>
</g>
<!-- 9&#45;&gt;4 -->
<g id="edge10" class="edge"><title>9&#45;&gt;4</title>
<path fill="none" stroke="black" d="M844.779,-27.8262C861.178,-31.5914 886.838,-37.552 909,-43 911.706,-43.6651 914.526,-44.3702 917.339,-45.0816"/>
<polygon fill="black" stroke="black" points="916.728,-48.5379 927.284,-47.6243 918.462,-41.7561 916.728,-48.5379"/>
<text text-anchor="middle" x="886" y="-46.8" font-family="Times,serif" font-size="14.00">u0005</text>
</g>
<!-- initial -->
<g id="node11" class="node"><title>initial</title>
</g>
<!-- initial&#45;&gt;0 -->
<g id="edge11" class="edge"><title>initial&#45;&gt;0</title>
<path fill="none" stroke="black" d="M54.195,-63C62.6538,-63 72.0513,-63 80.5951,-63"/>
<polygon fill="black" stroke="black" points="80.8257,-66.5001 90.8257,-63 80.8257,-59.5001 80.8257,-66.5001"/>
</g>
</g>
</svg>
