<svg width="1305px" height="192px"
 viewBox="0.00 0.00 979.00 144.29" xmlns="http://www.w3.org/2000/svg" xmlns:xlink="http://www.w3.org/1999/xlink">
<g id="graph0" class="graph" transform="scale(1.000022500562514 1.000022500562514) rotate(0) translate(4 140.286)">
<title>Automaton</title>
<polygon fill="white" stroke="none" points="-4,4 -4,-140.286 975,-140.286 975,4 -4,4"/>
<!-- 0 -->
<g id="node1" class="node"><title>0</title>
<ellipse fill="none" stroke="black" cx="109" cy="-75.2856" rx="18" ry="18"/>
</g>
<!-- 1 -->
<g id="node2" class="node"><title>1</title>
<ellipse fill="none" stroke="black" cx="227" cy="-75.2856" rx="18" ry="18"/>
</g>
<!-- 0&#45;&gt;1 -->
<g id="edge1" class="edge"><title>0&#45;&gt;1</title>
<path fill="none" stroke="black" d="M127.116,-75.2856C145.964,-75.2856 176.531,-75.2856 198.696,-75.2856"/>
<polygon fill="black" stroke="black" points="198.814,-78.7857 208.814,-75.2856 198.814,-71.7857 198.814,-78.7857"/>
<text text-anchor="middle" x="168" y="-79.0856" font-family="Times,serif" font-size="14.00">u0004</text>
</g>
<!-- 2 -->
<g id="node3" class="node"><title>2</title>
<ellipse fill="none" stroke="black" cx="345" cy="-75.2856" rx="18" ry="18"/>
</g>
<!-- 1&#45;&gt;2 -->
<g id="edge2" class="edge"><title>1&#45;&gt;2</title>
<path fill="none" stroke="black" d="M245.116,-75.2856C263.964,-75.2856 294.531,-75.2856 316.696,-75.2856"/>
<polygon fill="black" stroke="black" points="316.814,-78.7857 326.814,-75.2856 316.814,-71.7857 316.814,-78.7857"/>
<text text-anchor="middle" x="286" y="-79.0856" font-family="Times,serif" font-size="14.00">u0005</text>
</g>
<!-- 3 -->
<g id="node4" class="node"><title>3</title>
<ellipse fill="none" stroke="black" cx="709" cy="-60.2856" rx="18" ry="18"/>
</g>
<!-- 2&#45;&gt;3 -->
<g id="edge3" class="edge"><title>2&#45;&gt;3</title>
<path fill="none" stroke="black" d="M363.46,-74.5621C421.642,-72.1513 609.251,-64.3774 680.343,-61.4316"/>
<polygon fill="black" stroke="black" points="680.869,-64.9129 690.715,-61.0018 680.579,-57.9189 680.869,-64.9129"/>
<text text-anchor="middle" x="522" y="-73.0856" font-family="Times,serif" font-size="14.00">u0003</text>
</g>
<!-- 4 -->
<g id="node5" class="node"><title>4</title>
<ellipse fill="none" stroke="black" cx="827" cy="-60.2856" rx="18" ry="18"/>
</g>
<!-- 2&#45;&gt;4 -->
<g id="edge4" class="edge"><title>2&#45;&gt;4</title>
<path fill="none" stroke="black" d="M360.29,-85.041C381.497,-98.5439 423.004,-121.286 462,-121.286 462,-121.286 462,-121.286 710,-121.286 746.922,-121.286 783.644,-96.7767 805.585,-78.8296"/>
<polygon fill="black" stroke="black" points="807.877,-81.4747 813.24,-72.3372 803.349,-76.1362 807.877,-81.4747"/>
<text text-anchor="middle" x="586" y="-125.086" font-family="Times,serif" font-size="14.00">u0002</text>
</g>
<!-- 5 -->
<g id="node7" class="node"><title>5</title>
<ellipse fill="none" stroke="black" cx="463" cy="-29.2856" rx="18" ry="18"/>
</g>
<!-- 2&#45;&gt;5 -->
<g id="edge5" class="edge"><title>2&#45;&gt;5</title>
<path fill="none" stroke="black" d="M358.235,-62.6163C364.521,-56.8083 372.613,-50.3308 381,-46.2856 397.88,-38.144 418.586,-33.8856 434.837,-31.667"/>
<polygon fill="black" stroke="black" points="435.272,-35.1401 444.788,-30.4833 434.445,-28.1891 435.272,-35.1401"/>
<text text-anchor="middle" x="404" y="-50.0856" font-family="Times,serif" font-size="14.00">u0001</text>
</g>
<!-- 3&#45;&gt;4 -->
<g id="edge6" class="edge"><title>3&#45;&gt;4</title>
<path fill="none" stroke="black" d="M727.116,-60.2856C745.964,-60.2856 776.531,-60.2856 798.696,-60.2856"/>
<polygon fill="black" stroke="black" points="798.814,-63.7857 808.814,-60.2856 798.814,-56.7857 798.814,-63.7857"/>
<text text-anchor="middle" x="768" y="-64.0856" font-family="Times,serif" font-size="14.00">u0002</text>
</g>
<!-- 6 -->
<g id="node6" class="node"><title>6</title>
<ellipse fill="none" stroke="black" cx="949" cy="-60.2856" rx="18" ry="18"/>
<ellipse fill="none" stroke="black" cx="949" cy="-60.2856" rx="22" ry="22"/>
</g>
<!-- 4&#45;&gt;6 -->
<g id="edge7" class="edge"><title>4&#45;&gt;6</title>
<path fill="none" stroke="black" d="M845.193,-60.2856C863.767,-60.2856 893.762,-60.2856 916.57,-60.2856"/>
<polygon fill="black" stroke="black" points="916.793,-63.7857 926.792,-60.2856 916.792,-56.7857 916.793,-63.7857"/>
<text text-anchor="middle" x="886" y="-64.0856" font-family="Times,serif" font-size="14.00">u0000</text>
</g>
<!-- 5&#45;&gt;4 -->
<g id="edge9" class="edge"><title>5&#45;&gt;4</title>
<path fill="none" stroke="black" d="M480.191,-23.4347C499.572,-16.7686 533.159,-6.2819 563,-2.28561 651.725,9.59627 754.837,-28.7329 801.193,-48.8169"/>
<polygon fill="black" stroke="black" points="799.892,-52.0684 810.453,-52.9162 802.726,-45.6676 799.892,-52.0684"/>
<text text-anchor="middle" x="650" y="-12.0856" font-family="Times,serif" font-size="14.00">u0002</text>
</g>
<!-- 7 -->
<g id="node8" class="node"><title>7</title>
<ellipse fill="none" stroke="black" cx="586" cy="-29.2856" rx="18" ry="18"/>
</g>
<!-- 5&#45;&gt;7 -->
<g id="edge8" class="edge"><title>5&#45;&gt;7</title>
<path fill="none" stroke="black" d="M481.08,-29.2856C500.965,-29.2856 534.077,-29.2856 557.577,-29.2856"/>
<polygon fill="black" stroke="black" points="557.615,-32.7857 567.615,-29.2856 557.615,-25.7857 557.615,-32.7857"/>
<text text-anchor="middle" x="522" y="-33.0856" font-family="Times,serif" font-size="14.00">u0003</text>
</g>
<!-- 7&#45;&gt;3 -->
<g id="edge10" class="edge"><title>7&#45;&gt;3</title>
<path fill="none" stroke="black" d="M604.033,-31.6976C621.547,-34.3992 649.505,-39.3297 673,-46.2856 676.2,-47.2331 679.515,-48.3587 682.771,-49.5538"/>
<polygon fill="black" stroke="black" points="681.602,-52.8551 692.19,-53.2394 684.153,-46.3363 681.602,-52.8551"/>
<text text-anchor="middle" x="650" y="-50.0856" font-family="Times,serif" font-size="14.00">u0003</text>
</g>
<!-- initial -->
<g id="node9" class="node"><title>initial</title>
</g>
<!-- initial&#45;&gt;0 -->
<g id="edge11" class="edge"><title>initial&#45;&gt;0</title>
<path fill="none" stroke="black" d="M54.195,-75.2856C62.6538,-75.2856 72.0513,-75.2856 80.5951,-75.2856"/>
<polygon fill="black" stroke="black" points="80.8257,-78.7857 90.8257,-75.2856 80.8257,-71.7857 80.8257,-78.7857"/>
</g>
</g>
</svg>
