<svg width="2473px" height="555px"
 viewBox="0.00 0.00 1855.00 416.00" xmlns="http://www.w3.org/2000/svg" xmlns:xlink="http://www.w3.org/1999/xlink">
<g id="graph0" class="graph" transform="scale(1.000022500562514 1.000022500562514) rotate(0) translate(4 412)">
<title>Automaton</title>
<polygon fill="white" stroke="none" points="-4,4 -4,-412 1851,-412 1851,4 -4,4"/>
<!-- 0 -->
<g id="node1" class="node"><title>0</title>
<ellipse fill="none" stroke="black" cx="109" cy="-362" rx="18" ry="18"/>
</g>
<!-- 1 -->
<g id="node2" class="node"><title>1</title>
<ellipse fill="none" stroke="black" cx="227" cy="-362" rx="18" ry="18"/>
</g>
<!-- 0&#45;&gt;1 -->
<g id="edge1" class="edge"><title>0&#45;&gt;1</title>
<path fill="none" stroke="black" d="M127.116,-362C145.964,-362 176.531,-362 198.696,-362"/>
<polygon fill="black" stroke="black" points="198.814,-365.5 208.814,-362 198.814,-358.5 198.814,-365.5"/>
<text text-anchor="middle" x="168" y="-365.8" font-family="Times,serif" font-size="14.00">u0000</text>
</g>
<!-- 2 -->
<g id="node3" class="node"><title>2</title>
<ellipse fill="none" stroke="black" cx="1825" cy="-335" rx="18" ry="18"/>
<ellipse fill="none" stroke="black" cx="1825" cy="-335" rx="22" ry="22"/>
</g>
<!-- 1&#45;&gt;2 -->
<g id="edge2" class="edge"><title>1&#45;&gt;2</title>
<path fill="none" stroke="black" d="M243.781,-369.034C265.775,-378.181 307.103,-393 344,-393 344,-393 344,-393 1704,-393 1739.91,-393 1776.37,-371.689 1799.53,-354.903"/>
<polygon fill="black" stroke="black" points="1801.83,-357.551 1807.72,-348.745 1797.63,-351.955 1801.83,-357.551"/>
<text text-anchor="middle" x="1024" y="-396.8" font-family="Times,serif" font-size="14.00">u0002</text>
</g>
<!-- 3 -->
<g id="node4" class="node"><title>3</title>
<ellipse fill="none" stroke="black" cx="345" cy="-223" rx="18" ry="18"/>
</g>
<!-- 1&#45;&gt;3 -->
<g id="edge3" class="edge"><title>1&#45;&gt;3</title>
<path fill="none" stroke="black" d="M239.123,-348.672C259.251,-324.552 301.879,-273.473 326.134,-244.408"/>
<polygon fill="black" stroke="black" points="329.021,-246.412 332.741,-236.492 323.646,-241.927 329.021,-246.412"/>
<text text-anchor="middle" x="286" y="-321.8" font-family="Times,serif" font-size="14.00">u0001</text>
</g>
<!-- 4 -->
<g id="node5" class="node"><title>4</title>
<ellipse fill="none" stroke="black" cx="463" cy="-153" rx="18" ry="18"/>
</g>
<!-- 3&#45;&gt;4 -->
<g id="edge4" class="edge"><title>3&#45;&gt;4</title>
<path fill="none" stroke="black" d="M360.691,-214.134C380.282,-202.313 415.188,-181.248 438.468,-167.2"/>
<polygon fill="black" stroke="black" points="440.308,-170.178 447.061,-162.015 436.691,-164.185 440.308,-170.178"/>
<text text-anchor="middle" x="404" y="-204.8" font-family="Times,serif" font-size="14.00">u0004</text>
</g>
<!-- 5 -->
<g id="node12" class="node"><title>5</title>
<ellipse fill="none" stroke="black" cx="1703" cy="-193" rx="18" ry="18"/>
</g>
<!-- 3&#45;&gt;5 -->
<g id="edge5" class="edge"><title>3&#45;&gt;5</title>
<path fill="none" stroke="black" d="M346.957,-204.751C350.825,-151.492 369.92,-0 462,-0 462,-0 462,-0 1586,-0 1628.31,-0 1642.11,-15.7879 1667,-50 1691.88,-84.2049 1699.22,-133.944 1701.3,-164.84"/>
<polygon fill="black" stroke="black" points="1697.81,-165.126 1701.84,-174.926 1704.8,-164.755 1697.81,-165.126"/>
<text text-anchor="middle" x="1024" y="-3.8" font-family="Times,serif" font-size="14.00">u0003</text>
</g>
<!-- 6 -->
<g id="node21" class="node"><title>6</title>
<ellipse fill="none" stroke="black" cx="960" cy="-281" rx="18" ry="18"/>
</g>
<!-- 3&#45;&gt;6 -->
<g id="edge6" class="edge"><title>3&#45;&gt;6</title>
<path fill="none" stroke="black" d="M360.821,-231.679C382.348,-243.444 423.868,-263 462,-263 462,-263 462,-263 833,-263 867.61,-263 907.034,-269.738 932.427,-274.969"/>
<polygon fill="black" stroke="black" points="931.885,-278.432 942.395,-277.094 933.345,-271.586 931.885,-278.432"/>
<text text-anchor="middle" x="640" y="-266.8" font-family="Times,serif" font-size="14.00">u0005</text>
</g>
<!-- 7 -->
<g id="node6" class="node"><title>7</title>
<ellipse fill="none" stroke="black" cx="640" cy="-188" rx="18" ry="18"/>
</g>
<!-- 4&#45;&gt;7 -->
<g id="edge7" class="edge"><title>4&#45;&gt;7</title>
<path fill="none" stroke="black" d="M480.254,-158.609C486.114,-160.498 492.809,-162.504 499,-164 537.896,-173.401 583.732,-180.527 612.083,-184.485"/>
<polygon fill="black" stroke="black" points="611.659,-187.959 622.041,-185.845 612.607,-181.024 611.659,-187.959"/>
<text text-anchor="middle" x="522" y="-177.8" font-family="Times,serif" font-size="14.00">u0004</text>
</g>
<!-- 4&#45;&gt;5 -->
<g id="edge8" class="edge"><title>4&#45;&gt;5</title>
<path fill="none" stroke="black" d="M471.763,-137.212C487.638,-107.448 526.848,-46 580,-46 580,-46 580,-46 1586,-46 1629.02,-46 1640.15,-65.3835 1667,-99 1682.55,-118.467 1691.65,-145.532 1696.65,-165.624"/>
<polygon fill="black" stroke="black" points="1693.25,-166.459 1698.91,-175.418 1700.07,-164.887 1693.25,-166.459"/>
<text text-anchor="middle" x="1088" y="-49.8" font-family="Times,serif" font-size="14.00">u0003</text>
</g>
<!-- 8 -->
<g id="node13" class="node"><title>8</title>
<ellipse fill="none" stroke="black" cx="581" cy="-139" rx="18" ry="18"/>
</g>
<!-- 4&#45;&gt;8 -->
<g id="edge9" class="edge"><title>4&#45;&gt;8</title>
<path fill="none" stroke="black" d="M481.116,-150.934C499.964,-148.66 530.531,-144.97 552.696,-142.295"/>
<polygon fill="black" stroke="black" points="553.305,-145.747 562.814,-141.074 552.466,-138.798 553.305,-145.747"/>
<text text-anchor="middle" x="522" y="-152.8" font-family="Times,serif" font-size="14.00">u0005</text>
</g>
<!-- 11 -->
<g id="node7" class="node"><title>11</title>
<ellipse fill="none" stroke="black" cx="768" cy="-192" rx="18" ry="18"/>
</g>
<!-- 7&#45;&gt;11 -->
<g id="edge10" class="edge"><title>7&#45;&gt;11</title>
<path fill="none" stroke="black" d="M657.993,-188.539C678.941,-189.204 714.811,-190.343 739.654,-191.132"/>
<polygon fill="black" stroke="black" points="739.768,-194.637 749.874,-191.456 739.99,-187.641 739.768,-194.637"/>
<text text-anchor="middle" x="704" y="-194.8" font-family="Times,serif" font-size="14.00">u0005</text>
</g>
<!-- 15 -->
<g id="node8" class="node"><title>15</title>
<ellipse fill="none" stroke="black" cx="896" cy="-184" rx="18" ry="18"/>
</g>
<!-- 11&#45;&gt;15 -->
<g id="edge11" class="edge"><title>11&#45;&gt;15</title>
<path fill="none" stroke="black" d="M785.993,-190.921C806.941,-189.591 842.811,-187.314 867.654,-185.736"/>
<polygon fill="black" stroke="black" points="868.116,-189.214 877.874,-185.087 867.672,-182.228 868.116,-189.214"/>
<text text-anchor="middle" x="832" y="-193.8" font-family="Times,serif" font-size="14.00">u0004</text>
</g>
<!-- 19 -->
<g id="node9" class="node"><title>19</title>
<ellipse fill="none" stroke="black" cx="1024" cy="-143" rx="18" ry="18"/>
</g>
<!-- 15&#45;&gt;19 -->
<g id="edge12" class="edge"><title>15&#45;&gt;19</title>
<path fill="none" stroke="black" d="M909.102,-171.242C916.469,-164.323 926.469,-156.323 937,-152 955.631,-144.352 978.353,-142.249 995.761,-141.978"/>
<polygon fill="black" stroke="black" points="995.818,-145.478 1005.83,-142.014 995.842,-138.478 995.818,-145.478"/>
<text text-anchor="middle" x="960" y="-155.8" font-family="Times,serif" font-size="14.00">u0005</text>
</g>
<!-- 21 -->
<g id="node10" class="node"><title>21</title>
<ellipse fill="none" stroke="black" cx="1467" cy="-170" rx="18" ry="18"/>
</g>
<!-- 19&#45;&gt;21 -->
<g id="edge13" class="edge"><title>19&#45;&gt;21</title>
<path fill="none" stroke="black" d="M1042.07,-143.307C1098,-144.444 1280.77,-149.205 1431,-165 1433.56,-165.27 1436.23,-165.585 1438.89,-165.925"/>
<polygon fill="black" stroke="black" points="1438.56,-169.412 1448.94,-167.304 1439.51,-162.477 1438.56,-169.412"/>
<text text-anchor="middle" x="1216" y="-154.8" font-family="Times,serif" font-size="14.00">u0005</text>
</g>
<!-- 17 -->
<g id="node11" class="node"><title>17</title>
<ellipse fill="none" stroke="black" cx="1585" cy="-193" rx="18" ry="18"/>
</g>
<!-- 21&#45;&gt;17 -->
<g id="edge14" class="edge"><title>21&#45;&gt;17</title>
<path fill="none" stroke="black" d="M1485.18,-172.152C1501.65,-174.358 1527.17,-178.148 1549,-183 1551.89,-183.643 1554.9,-184.385 1557.88,-185.17"/>
<polygon fill="black" stroke="black" points="1557.15,-188.6 1567.72,-187.913 1559.03,-181.857 1557.15,-188.6"/>
<text text-anchor="middle" x="1526" y="-186.8" font-family="Times,serif" font-size="14.00">u0005</text>
</g>
<!-- 17&#45;&gt;5 -->
<g id="edge15" class="edge"><title>17&#45;&gt;5</title>
<path fill="none" stroke="black" d="M1603.12,-193C1621.96,-193 1652.53,-193 1674.7,-193"/>
<polygon fill="black" stroke="black" points="1674.81,-196.5 1684.81,-193 1674.81,-189.5 1674.81,-196.5"/>
<text text-anchor="middle" x="1644" y="-196.8" font-family="Times,serif" font-size="14.00">u0003</text>
</g>
<!-- 5&#45;&gt;2 -->
<g id="edge16" class="edge"><title>5&#45;&gt;2</title>
<path fill="none" stroke="black" d="M1715.29,-206.359C1735.45,-230.214 1777.91,-280.456 1803.39,-310.608"/>
<polygon fill="black" stroke="black" points="1800.96,-313.162 1810.09,-318.541 1806.31,-308.643 1800.96,-313.162"/>
<text text-anchor="middle" x="1762" y="-289.8" font-family="Times,serif" font-size="14.00">u0002</text>
</g>
<!-- 12 -->
<g id="node14" class="node"><title>12</title>
<ellipse fill="none" stroke="black" cx="704" cy="-138" rx="18" ry="18"/>
</g>
<!-- 8&#45;&gt;12 -->
<g id="edge17" class="edge"><title>8&#45;&gt;12</title>
<path fill="none" stroke="black" d="M599.08,-138.859C618.965,-138.695 652.077,-138.421 675.577,-138.227"/>
<polygon fill="black" stroke="black" points="675.645,-141.726 685.615,-138.144 675.587,-134.727 675.645,-141.726"/>
<text text-anchor="middle" x="640" y="-142.8" font-family="Times,serif" font-size="14.00">u0005</text>
</g>
<!-- 12&#45;&gt;5 -->
<g id="edge19" class="edge"><title>12&#45;&gt;5</title>
<path fill="none" stroke="black" d="M719.874,-128.691C742.813,-115.25 788.617,-92 831,-92 831,-92 831,-92 1586,-92 1632.46,-92 1669.35,-138.659 1688.22,-168.551"/>
<polygon fill="black" stroke="black" points="1685.3,-170.49 1693.49,-177.219 1691.29,-166.855 1685.3,-170.49"/>
<text text-anchor="middle" x="1216" y="-95.8" font-family="Times,serif" font-size="14.00">u0003</text>
</g>
<!-- 16 -->
<g id="node15" class="node"><title>16</title>
<ellipse fill="none" stroke="black" cx="832" cy="-138" rx="18" ry="18"/>
</g>
<!-- 12&#45;&gt;16 -->
<g id="edge18" class="edge"><title>12&#45;&gt;16</title>
<path fill="none" stroke="black" d="M722.256,-138C743.274,-138 779.031,-138 803.775,-138"/>
<polygon fill="black" stroke="black" points="803.953,-141.5 813.953,-138 803.953,-134.5 803.953,-141.5"/>
<text text-anchor="middle" x="768" y="-141.8" font-family="Times,serif" font-size="14.00">u0004</text>
</g>
<!-- 20 -->
<g id="node16" class="node"><title>20</title>
<ellipse fill="none" stroke="black" cx="960" cy="-194" rx="18" ry="18"/>
</g>
<!-- 16&#45;&gt;20 -->
<g id="edge20" class="edge"><title>16&#45;&gt;20</title>
<path fill="none" stroke="black" d="M849.813,-134.424C868.154,-131.461 897.733,-129.514 919,-142 932.082,-149.681 927.707,-159.01 937,-171 937.8,-172.032 938.639,-173.069 939.504,-174.102"/>
<polygon fill="black" stroke="black" points="937.113,-176.677 946.402,-181.772 942.318,-171.996 937.113,-176.677"/>
<text text-anchor="middle" x="896" y="-145.8" font-family="Times,serif" font-size="14.00">u0005</text>
</g>
<!-- 22 -->
<g id="node17" class="node"><title>22</title>
<ellipse fill="none" stroke="black" cx="1088" cy="-194" rx="18" ry="18"/>
</g>
<!-- 20&#45;&gt;22 -->
<g id="edge21" class="edge"><title>20&#45;&gt;22</title>
<path fill="none" stroke="black" d="M978.256,-194C999.274,-194 1035.03,-194 1059.77,-194"/>
<polygon fill="black" stroke="black" points="1059.95,-197.5 1069.95,-194 1059.95,-190.5 1059.95,-197.5"/>
<text text-anchor="middle" x="1024" y="-197.8" font-family="Times,serif" font-size="14.00">u0004</text>
</g>
<!-- 23 -->
<g id="node18" class="node"><title>23</title>
<ellipse fill="none" stroke="black" cx="1216" cy="-194" rx="18" ry="18"/>
</g>
<!-- 22&#45;&gt;23 -->
<g id="edge22" class="edge"><title>22&#45;&gt;23</title>
<path fill="none" stroke="black" d="M1106.26,-194C1127.27,-194 1163.03,-194 1187.77,-194"/>
<polygon fill="black" stroke="black" points="1187.95,-197.5 1197.95,-194 1187.95,-190.5 1187.95,-197.5"/>
<text text-anchor="middle" x="1152" y="-197.8" font-family="Times,serif" font-size="14.00">u0005</text>
</g>
<!-- 24 -->
<g id="node19" class="node"><title>24</title>
<ellipse fill="none" stroke="black" cx="1344" cy="-188" rx="18" ry="18"/>
</g>
<!-- 23&#45;&gt;24 -->
<g id="edge23" class="edge"><title>23&#45;&gt;24</title>
<path fill="none" stroke="black" d="M1233.99,-193.191C1254.94,-192.193 1290.81,-190.485 1315.65,-189.302"/>
<polygon fill="black" stroke="black" points="1316.05,-192.787 1325.87,-188.816 1315.72,-185.795 1316.05,-192.787"/>
<text text-anchor="middle" x="1280" y="-196.8" font-family="Times,serif" font-size="14.00">u0004</text>
</g>
<!-- 13 -->
<g id="node20" class="node"><title>13</title>
<ellipse fill="none" stroke="black" cx="1467" cy="-224" rx="18" ry="18"/>
</g>
<!-- 24&#45;&gt;13 -->
<g id="edge24" class="edge"><title>24&#45;&gt;13</title>
<path fill="none" stroke="black" d="M1361.82,-193.006C1381.96,-198.997 1415.92,-209.101 1439.57,-216.138"/>
<polygon fill="black" stroke="black" points="1438.74,-219.54 1449.32,-219.037 1440.73,-212.83 1438.74,-219.54"/>
<text text-anchor="middle" x="1408" y="-217.8" font-family="Times,serif" font-size="14.00">u0005</text>
</g>
<!-- 13&#45;&gt;17 -->
<g id="edge25" class="edge"><title>13&#45;&gt;17</title>
<path fill="none" stroke="black" d="M1484.62,-219.558C1503.66,-214.471 1535.1,-206.067 1557.52,-200.076"/>
<polygon fill="black" stroke="black" points="1558.65,-203.397 1567.41,-197.433 1556.85,-196.634 1558.65,-203.397"/>
<text text-anchor="middle" x="1526" y="-217.8" font-family="Times,serif" font-size="14.00">u0004</text>
</g>
<!-- 6&#45;&gt;5 -->
<g id="edge27" class="edge"><title>6&#45;&gt;5</title>
<path fill="none" stroke="black" d="M978.043,-284.329C1002.19,-288.748 1047.79,-296 1087,-296 1087,-296 1087,-296 1586,-296 1633.11,-296 1669.99,-247.92 1688.63,-217.459"/>
<polygon fill="black" stroke="black" points="1691.77,-219.036 1693.83,-208.643 1685.74,-215.484 1691.77,-219.036"/>
<text text-anchor="middle" x="1344" y="-299.8" font-family="Times,serif" font-size="14.00">u0003</text>
</g>
<!-- 9 -->
<g id="node22" class="node"><title>9</title>
<ellipse fill="none" stroke="black" cx="1344" cy="-347" rx="18" ry="18"/>
</g>
<!-- 6&#45;&gt;9 -->
<g id="edge26" class="edge"><title>6&#45;&gt;9</title>
<path fill="none" stroke="black" d="M973.666,-292.836C981.067,-299.031 990.914,-306.117 1001,-310 1111.71,-352.626 1256.52,-351.379 1315.86,-348.68"/>
<polygon fill="black" stroke="black" points="1316.1,-352.172 1325.91,-348.169 1315.75,-345.181 1316.1,-352.172"/>
<text text-anchor="middle" x="1152" y="-349.8" font-family="Times,serif" font-size="14.00">u0004</text>
</g>
<!-- 10 -->
<g id="node23" class="node"><title>10</title>
<ellipse fill="none" stroke="black" cx="1088" cy="-249" rx="18" ry="18"/>
</g>
<!-- 6&#45;&gt;10 -->
<g id="edge28" class="edge"><title>6&#45;&gt;10</title>
<path fill="none" stroke="black" d="M977.195,-274.792C984.413,-272.166 993.061,-269.21 1001,-267 1020.59,-261.546 1043.1,-256.89 1060.18,-253.681"/>
<polygon fill="black" stroke="black" points="1060.83,-257.121 1070.03,-251.876 1059.57,-250.235 1060.83,-257.121"/>
<text text-anchor="middle" x="1024" y="-270.8" font-family="Times,serif" font-size="14.00">u0005</text>
</g>
<!-- 9&#45;&gt;5 -->
<g id="edge29" class="edge"><title>9&#45;&gt;5</title>
<path fill="none" stroke="black" d="M1361.79,-350.809C1413.98,-361.588 1575.33,-386.782 1667,-310 1692.83,-288.366 1700.08,-248.509 1701.86,-221.388"/>
<polygon fill="black" stroke="black" points="1705.36,-221.48 1702.31,-211.333 1698.37,-221.166 1705.36,-221.48"/>
<text text-anchor="middle" x="1526" y="-365.8" font-family="Times,serif" font-size="14.00">u0003</text>
</g>
<!-- 9&#45;&gt;13 -->
<g id="edge30" class="edge"><title>9&#45;&gt;13</title>
<path fill="none" stroke="black" d="M1357.49,-334.3C1378.62,-312.829 1421.53,-269.209 1446.59,-243.728"/>
<polygon fill="black" stroke="black" points="1449.24,-246.031 1453.75,-236.448 1444.25,-241.122 1449.24,-246.031"/>
<text text-anchor="middle" x="1408" y="-307.8" font-family="Times,serif" font-size="14.00">u0005</text>
</g>
<!-- 14 -->
<g id="node24" class="node"><title>14</title>
<ellipse fill="none" stroke="black" cx="1216" cy="-248" rx="18" ry="18"/>
</g>
<!-- 10&#45;&gt;14 -->
<g id="edge31" class="edge"><title>10&#45;&gt;14</title>
<path fill="none" stroke="black" d="M1106.26,-248.863C1127.27,-248.696 1163.03,-248.412 1187.77,-248.216"/>
<polygon fill="black" stroke="black" points="1187.98,-251.715 1197.95,-248.135 1187.93,-244.715 1187.98,-251.715"/>
<text text-anchor="middle" x="1152" y="-252.8" font-family="Times,serif" font-size="14.00">u0004</text>
</g>
<!-- 18 -->
<g id="node25" class="node"><title>18</title>
<ellipse fill="none" stroke="black" cx="1344" cy="-242" rx="18" ry="18"/>
</g>
<!-- 14&#45;&gt;18 -->
<g id="edge32" class="edge"><title>14&#45;&gt;18</title>
<path fill="none" stroke="black" d="M1233.99,-247.191C1254.94,-246.193 1290.81,-244.485 1315.65,-243.302"/>
<polygon fill="black" stroke="black" points="1316.05,-246.787 1325.87,-242.816 1315.72,-239.795 1316.05,-246.787"/>
<text text-anchor="middle" x="1280" y="-250.8" font-family="Times,serif" font-size="14.00">u0005</text>
</g>
<!-- 18&#45;&gt;21 -->
<g id="edge33" class="edge"><title>18&#45;&gt;21</title>
<path fill="none" stroke="black" d="M1356.47,-228.916C1360.02,-224.612 1363.83,-219.718 1367,-215 1376.32,-201.132 1371.3,-191.561 1385,-182 1400.49,-171.189 1421.73,-168.368 1438.57,-168.156"/>
<polygon fill="black" stroke="black" points="1438.84,-171.661 1448.9,-168.335 1438.96,-164.662 1438.84,-171.661"/>
<text text-anchor="middle" x="1408" y="-185.8" font-family="Times,serif" font-size="14.00">u0004</text>
</g>
<!-- initial -->
<g id="node26" class="node"><title>initial</title>
</g>
<!-- initial&#45;&gt;0 -->
<g id="edge34" class="edge"><title>initial&#45;&gt;0</title>
<path fill="none" stroke="black" d="M54.195,-362C62.6538,-362 72.0513,-362 80.5951,-362"/>
<polygon fill="black" stroke="black" points="80.8257,-365.5 90.8257,-362 80.8257,-358.5 80.8257,-365.5"/>
</g>
</g>
</svg>
