<svg width="1633px" height="317px"
 viewBox="0.00 0.00 1225.00 237.92" xmlns="http://www.w3.org/2000/svg" xmlns:xlink="http://www.w3.org/1999/xlink">
<g id="graph0" class="graph" transform="scale(1.000022500562514 1.000022500562514) rotate(0) translate(4 233.921)">
<title>Automaton</title>
<polygon fill="white" stroke="none" points="-4,4 -4,-233.921 1221,-233.921 1221,4 -4,4"/>
<!-- 0 -->
<g id="node1" class="node"><title>0</title>
<ellipse fill="none" stroke="black" cx="109" cy="-153.921" rx="18" ry="18"/>
</g>
<!-- 1 -->
<g id="node2" class="node"><title>1</title>
<ellipse fill="none" stroke="black" cx="227" cy="-153.921" rx="18" ry="18"/>
</g>
<!-- 0&#45;&gt;1 -->
<g id="edge1" class="edge"><title>0&#45;&gt;1</title>
<path fill="none" stroke="black" d="M127.116,-153.921C145.964,-153.921 176.531,-153.921 198.696,-153.921"/>
<polygon fill="black" stroke="black" points="198.814,-157.421 208.814,-153.921 198.814,-150.421 198.814,-157.421"/>
<text text-anchor="middle" x="168" y="-157.721" font-family="Times,serif" font-size="14.00">u0004</text>
</g>
<!-- 2 -->
<g id="node3" class="node"><title>2</title>
<ellipse fill="none" stroke="black" cx="345" cy="-153.921" rx="18" ry="18"/>
</g>
<!-- 1&#45;&gt;2 -->
<g id="edge2" class="edge"><title>1&#45;&gt;2</title>
<path fill="none" stroke="black" d="M245.116,-153.921C263.964,-153.921 294.531,-153.921 316.696,-153.921"/>
<polygon fill="black" stroke="black" points="316.814,-157.421 326.814,-153.921 316.814,-150.421 316.814,-157.421"/>
<text text-anchor="middle" x="286" y="-157.721" font-family="Times,serif" font-size="14.00">u0005</text>
</g>
<!-- 3 -->
<g id="node4" class="node"><title>3</title>
<ellipse fill="none" stroke="black" cx="463" cy="-153.921" rx="18" ry="18"/>
</g>
<!-- 2&#45;&gt;3 -->
<g id="edge3" class="edge"><title>2&#45;&gt;3</title>
<path fill="none" stroke="black" d="M363.116,-153.921C381.964,-153.921 412.531,-153.921 434.696,-153.921"/>
<polygon fill="black" stroke="black" points="434.814,-157.421 444.814,-153.921 434.814,-150.421 434.814,-157.421"/>
<text text-anchor="middle" x="404" y="-157.721" font-family="Times,serif" font-size="14.00">u0003</text>
</g>
<!-- 4 -->
<g id="node9" class="node"><title>4</title>
<ellipse fill="none" stroke="black" cx="1073" cy="-141.921" rx="18" ry="18"/>
</g>
<!-- 2&#45;&gt;4 -->
<g id="edge4" class="edge"><title>2&#45;&gt;4</title>
<path fill="none" stroke="black" d="M358.76,-165.972C378.976,-183.749 420.361,-214.921 462,-214.921 462,-214.921 462,-214.921 956,-214.921 995.418,-214.921 1032.39,-184.353 1053.58,-162.778"/>
<polygon fill="black" stroke="black" points="1056.32,-164.979 1060.65,-155.31 1051.24,-160.168 1056.32,-164.979"/>
<text text-anchor="middle" x="704" y="-218.721" font-family="Times,serif" font-size="14.00">u0002</text>
</g>
<!-- 5 -->
<g id="node11" class="node"><title>5</title>
<ellipse fill="none" stroke="black" cx="704" cy="-32.9206" rx="18" ry="18"/>
</g>
<!-- 2&#45;&gt;5 -->
<g id="edge5" class="edge"><title>2&#45;&gt;5</title>
<path fill="none" stroke="black" d="M362.267,-148.407C418.836,-129.234 607.31,-65.3532 676.895,-41.7686"/>
<polygon fill="black" stroke="black" points="678.29,-44.9913 686.637,-38.4665 676.043,-38.3618 678.29,-44.9913"/>
<text text-anchor="middle" x="522" y="-105.721" font-family="Times,serif" font-size="14.00">u0001</text>
</g>
<!-- 6 -->
<g id="node5" class="node"><title>6</title>
<ellipse fill="none" stroke="black" cx="581" cy="-122.921" rx="18" ry="18"/>
</g>
<!-- 3&#45;&gt;6 -->
<g id="edge6" class="edge"><title>3&#45;&gt;6</title>
<path fill="none" stroke="black" d="M479.822,-146.915C485.756,-144.468 492.61,-141.853 499,-139.921 516.656,-134.581 536.973,-130.321 552.843,-127.402"/>
<polygon fill="black" stroke="black" points="553.795,-130.788 563.031,-125.598 552.574,-123.895 553.795,-130.788"/>
<text text-anchor="middle" x="522" y="-143.721" font-family="Times,serif" font-size="14.00">u0003</text>
</g>
<!-- 3&#45;&gt;4 -->
<g id="edge7" class="edge"><title>3&#45;&gt;4</title>
<path fill="none" stroke="black" d="M480.817,-157.475C503.305,-161.911 544.464,-168.921 580,-168.921 580,-168.921 580,-168.921 956,-168.921 987.701,-168.921 1023.04,-159.237 1046.28,-151.468"/>
<polygon fill="black" stroke="black" points="1047.46,-154.766 1055.76,-148.183 1045.16,-148.152 1047.46,-154.766"/>
<text text-anchor="middle" x="768" y="-172.721" font-family="Times,serif" font-size="14.00">u0002</text>
</g>
<!-- 10 -->
<g id="node6" class="node"><title>10</title>
<ellipse fill="none" stroke="black" cx="704" cy="-122.921" rx="18" ry="18"/>
</g>
<!-- 6&#45;&gt;10 -->
<g id="edge8" class="edge"><title>6&#45;&gt;10</title>
<path fill="none" stroke="black" d="M599.08,-122.921C618.965,-122.921 652.077,-122.921 675.577,-122.921"/>
<polygon fill="black" stroke="black" points="675.615,-126.421 685.615,-122.921 675.615,-119.421 675.615,-126.421"/>
<text text-anchor="middle" x="640" y="-126.721" font-family="Times,serif" font-size="14.00">u0003</text>
</g>
<!-- 11 -->
<g id="node7" class="node"><title>11</title>
<ellipse fill="none" stroke="black" cx="832" cy="-122.921" rx="18" ry="18"/>
</g>
<!-- 10&#45;&gt;11 -->
<g id="edge9" class="edge"><title>10&#45;&gt;11</title>
<path fill="none" stroke="black" d="M722.256,-122.921C743.274,-122.921 779.031,-122.921 803.775,-122.921"/>
<polygon fill="black" stroke="black" points="803.953,-126.421 813.953,-122.921 803.953,-119.421 803.953,-126.421"/>
<text text-anchor="middle" x="768" y="-126.721" font-family="Times,serif" font-size="14.00">u0001</text>
</g>
<!-- 9 -->
<g id="node8" class="node"><title>9</title>
<ellipse fill="none" stroke="black" cx="955" cy="-93.9206" rx="18" ry="18"/>
</g>
<!-- 11&#45;&gt;9 -->
<g id="edge10" class="edge"><title>11&#45;&gt;9</title>
<path fill="none" stroke="black" d="M849.825,-118.888C869.962,-114.062 903.922,-105.923 927.574,-100.254"/>
<polygon fill="black" stroke="black" points="928.41,-103.653 937.318,-97.9187 926.778,-96.8458 928.41,-103.653"/>
<text text-anchor="middle" x="896" y="-116.721" font-family="Times,serif" font-size="14.00">u0001</text>
</g>
<!-- 9&#45;&gt;4 -->
<g id="edge11" class="edge"><title>9&#45;&gt;4</title>
<path fill="none" stroke="black" d="M972.129,-100.595C991.435,-108.583 1023.99,-122.055 1046.67,-131.437"/>
<polygon fill="black" stroke="black" points="1045.43,-134.714 1056.01,-135.303 1048.11,-128.245 1045.43,-134.714"/>
<text text-anchor="middle" x="1014" y="-130.721" font-family="Times,serif" font-size="14.00">u0002</text>
</g>
<!-- 7 -->
<g id="node10" class="node"><title>7</title>
<ellipse fill="none" stroke="black" cx="1195" cy="-141.921" rx="18" ry="18"/>
<ellipse fill="none" stroke="black" cx="1195" cy="-141.921" rx="22" ry="22"/>
</g>
<!-- 4&#45;&gt;7 -->
<g id="edge12" class="edge"><title>4&#45;&gt;7</title>
<path fill="none" stroke="black" d="M1091.19,-141.921C1109.77,-141.921 1139.76,-141.921 1162.57,-141.921"/>
<polygon fill="black" stroke="black" points="1162.79,-145.421 1172.79,-141.921 1162.79,-138.421 1162.79,-145.421"/>
<text text-anchor="middle" x="1132" y="-145.721" font-family="Times,serif" font-size="14.00">u0000</text>
</g>
<!-- 5&#45;&gt;9 -->
<g id="edge15" class="edge"><title>5&#45;&gt;9</title>
<path fill="none" stroke="black" d="M721.607,-28.9197C749.708,-22.8793 808.152,-13.4847 855,-26.9206 885.759,-35.742 915.378,-58.2412 934.073,-74.7425"/>
<polygon fill="black" stroke="black" points="931.871,-77.4705 941.623,-81.6104 936.581,-72.2923 931.871,-77.4705"/>
<text text-anchor="middle" x="832" y="-30.7206" font-family="Times,serif" font-size="14.00">u0001</text>
</g>
<!-- 5&#45;&gt;4 -->
<g id="edge14" class="edge"><title>5&#45;&gt;4</title>
<path fill="none" stroke="black" d="M720.552,-25.162C727.794,-21.9547 736.64,-18.5984 745,-16.9206 820.826,-1.70249 845.796,10.0278 919,-14.9206 977.54,-34.8715 1029.08,-89.0976 1054.74,-119.854"/>
<polygon fill="black" stroke="black" points="1052.24,-122.327 1061.28,-127.859 1057.67,-117.9 1052.24,-122.327"/>
<text text-anchor="middle" x="896" y="-18.7206" font-family="Times,serif" font-size="14.00">u0002</text>
</g>
<!-- 8 -->
<g id="node12" class="node"><title>8</title>
<ellipse fill="none" stroke="black" cx="832" cy="-68.9206" rx="18" ry="18"/>
</g>
<!-- 5&#45;&gt;8 -->
<g id="edge13" class="edge"><title>5&#45;&gt;8</title>
<path fill="none" stroke="black" d="M721.472,-37.6269C742.602,-43.6639 779.507,-54.2083 804.582,-61.3726"/>
<polygon fill="black" stroke="black" points="803.947,-64.8311 814.524,-64.213 805.87,-58.1004 803.947,-64.8311"/>
<text text-anchor="middle" x="768" y="-61.7206" font-family="Times,serif" font-size="14.00">u0003</text>
</g>
<!-- 8&#45;&gt;9 -->
<g id="edge16" class="edge"><title>8&#45;&gt;9</title>
<path fill="none" stroke="black" d="M850.107,-69.089C867.68,-69.6363 895.684,-71.5548 919,-77.9206 922.456,-78.8642 926,-80.1146 929.444,-81.5018"/>
<polygon fill="black" stroke="black" points="928.166,-84.764 938.725,-85.6325 931.012,-78.3688 928.166,-84.764"/>
<text text-anchor="middle" x="896" y="-81.7206" font-family="Times,serif" font-size="14.00">u0003</text>
</g>
<!-- initial -->
<g id="node13" class="node"><title>initial</title>
</g>
<!-- initial&#45;&gt;0 -->
<g id="edge17" class="edge"><title>initial&#45;&gt;0</title>
<path fill="none" stroke="black" d="M54.195,-153.921C62.6538,-153.921 72.0513,-153.921 80.5951,-153.921"/>
<polygon fill="black" stroke="black" points="80.8257,-157.421 90.8257,-153.921 80.8257,-150.421 80.8257,-157.421"/>
</g>
</g>
</svg>
