<svg width="2329px" height="1192px"
 viewBox="0.00 0.00 1747.00 894.00" xmlns="http://www.w3.org/2000/svg" xmlns:xlink="http://www.w3.org/1999/xlink">
<g id="graph0" class="graph" transform="scale(1.000022500562514 1.000022500562514) rotate(0) translate(4 890)">
<title>Automaton</title>
<polygon fill="white" stroke="none" points="-4,4 -4,-890 1743,-890 1743,4 -4,4"/>
<!-- 0 -->
<g id="node1" class="node"><title>0</title>
<ellipse fill="none" stroke="black" cx="109" cy="-728" rx="18" ry="18"/>
</g>
<!-- 1 -->
<g id="node2" class="node"><title>1</title>
<ellipse fill="none" stroke="black" cx="227" cy="-728" rx="18" ry="18"/>
</g>
<!-- 0&#45;&gt;1 -->
<g id="edge1" class="edge"><title>0&#45;&gt;1</title>
<path fill="none" stroke="black" d="M127.116,-728C145.964,-728 176.531,-728 198.696,-728"/>
<polygon fill="black" stroke="black" points="198.814,-731.5 208.814,-728 198.814,-724.5 198.814,-731.5"/>
<text text-anchor="middle" x="168" y="-731.8" font-family="Times,serif" font-size="14.00">u0004</text>
</g>
<!-- 2 -->
<g id="node3" class="node"><title>2</title>
<ellipse fill="none" stroke="black" cx="345" cy="-728" rx="18" ry="18"/>
</g>
<!-- 1&#45;&gt;2 -->
<g id="edge2" class="edge"><title>1&#45;&gt;2</title>
<path fill="none" stroke="black" d="M245.116,-728C263.964,-728 294.531,-728 316.696,-728"/>
<polygon fill="black" stroke="black" points="316.814,-731.5 326.814,-728 316.814,-724.5 316.814,-731.5"/>
<text text-anchor="middle" x="286" y="-731.8" font-family="Times,serif" font-size="14.00">u0005</text>
</g>
<!-- 3 -->
<g id="node4" class="node"><title>3</title>
<ellipse fill="none" stroke="black" cx="591" cy="-728" rx="18" ry="18"/>
</g>
<!-- 2&#45;&gt;3 -->
<g id="edge3" class="edge"><title>2&#45;&gt;3</title>
<path fill="none" stroke="black" d="M363.158,-728C404.896,-728 512.011,-728 562.67,-728"/>
<polygon fill="black" stroke="black" points="562.861,-731.5 572.861,-728 562.861,-724.5 562.861,-731.5"/>
<text text-anchor="middle" x="468" y="-731.8" font-family="Times,serif" font-size="14.00">u0003</text>
</g>
<!-- 4 -->
<g id="node10" class="node"><title>4</title>
<ellipse fill="none" stroke="black" cx="1595" cy="-448" rx="18" ry="18"/>
</g>
<!-- 2&#45;&gt;4 -->
<g id="edge4" class="edge"><title>2&#45;&gt;4</title>
<path fill="none" stroke="black" d="M351.304,-744.966C364.319,-782.845 401.632,-871 467,-871 467,-871 467,-871 1473,-871 1522,-871 1535.65,-845.085 1559,-802 1589.37,-745.963 1593.52,-550.164 1593.99,-476.402"/>
<polygon fill="black" stroke="black" points="1597.49,-476.058 1594.03,-466.042 1590.49,-476.027 1597.49,-476.058"/>
<text text-anchor="middle" x="960" y="-874.8" font-family="Times,serif" font-size="14.00">u0002</text>
</g>
<!-- 5 -->
<g id="node18" class="node"><title>5</title>
<ellipse fill="none" stroke="black" cx="468" cy="-303" rx="18" ry="18"/>
</g>
<!-- 2&#45;&gt;5 -->
<g id="edge5" class="edge"><title>2&#45;&gt;5</title>
<path fill="none" stroke="black" d="M350.893,-710.813C369.553,-645.271 436.344,-410.675 459.236,-330.269"/>
<polygon fill="black" stroke="black" points="462.674,-330.977 462.046,-320.401 455.941,-329.06 462.674,-330.977"/>
<text text-anchor="middle" x="404" y="-606.8" font-family="Times,serif" font-size="14.00">u0001</text>
</g>
<!-- 6 -->
<g id="node5" class="node"><title>6</title>
<ellipse fill="none" stroke="black" cx="709" cy="-632" rx="18" ry="18"/>
</g>
<!-- 3&#45;&gt;6 -->
<g id="edge6" class="edge"><title>3&#45;&gt;6</title>
<path fill="none" stroke="black" d="M605.294,-716.981C611.831,-711.563 619.827,-704.938 627,-699 647.231,-682.252 670.314,-663.16 686.649,-649.653"/>
<polygon fill="black" stroke="black" points="689.049,-652.21 694.525,-643.14 684.588,-646.815 689.049,-652.21"/>
<text text-anchor="middle" x="650" y="-702.8" font-family="Times,serif" font-size="14.00">u0003</text>
</g>
<!-- 3&#45;&gt;4 -->
<g id="edge7" class="edge"><title>3&#45;&gt;4</title>
<path fill="none" stroke="black" d="M600.94,-743.585C617.965,-771.004 657.859,-825 708,-825 708,-825 708,-825 1473,-825 1520.91,-825 1535.29,-801.634 1559,-760 1586.34,-711.992 1592.33,-544.38 1593.64,-476.685"/>
<polygon fill="black" stroke="black" points="1597.14,-476.405 1593.81,-466.346 1590.14,-476.284 1597.14,-476.405"/>
<text text-anchor="middle" x="1088" y="-828.8" font-family="Times,serif" font-size="14.00">u0002</text>
</g>
<!-- 7 -->
<g id="node15" class="node"><title>7</title>
<ellipse fill="none" stroke="black" cx="1088" cy="-728" rx="18" ry="18"/>
</g>
<!-- 3&#45;&gt;7 -->
<g id="edge8" class="edge"><title>3&#45;&gt;7</title>
<path fill="none" stroke="black" d="M609.295,-728C631.962,-728 672.958,-728 708,-728 708,-728 708,-728 961,-728 995.07,-728 1034.32,-728 1059.84,-728"/>
<polygon fill="black" stroke="black" points="1059.88,-731.5 1069.88,-728 1059.88,-724.5 1059.88,-731.5"/>
<text text-anchor="middle" x="832" y="-731.8" font-family="Times,serif" font-size="14.00">u0001</text>
</g>
<!-- 11 -->
<g id="node6" class="node"><title>11</title>
<ellipse fill="none" stroke="black" cx="1088" cy="-599" rx="18" ry="18"/>
</g>
<!-- 6&#45;&gt;11 -->
<g id="edge9" class="edge"><title>6&#45;&gt;11</title>
<path fill="none" stroke="black" d="M727.179,-630.496C786.917,-625.267 985.95,-607.845 1059.43,-601.413"/>
<polygon fill="black" stroke="black" points="1060.06,-604.871 1069.72,-600.513 1059.45,-597.898 1060.06,-604.871"/>
<text text-anchor="middle" x="896" y="-621.8" font-family="Times,serif" font-size="14.00">u0003</text>
</g>
<!-- 6&#45;&gt;4 -->
<g id="edge10" class="edge"><title>6&#45;&gt;4</title>
<path fill="none" stroke="black" d="M724.116,-642.118C745.927,-656.728 789.632,-682 831,-682 831,-682 831,-682 1281,-682 1343.48,-682 1515.6,-684.947 1559,-640 1581.16,-617.047 1589.66,-523.955 1592.6,-476.343"/>
<polygon fill="black" stroke="black" points="1596.11,-476.285 1593.19,-466.1 1589.12,-475.882 1596.11,-476.285"/>
<text text-anchor="middle" x="1152" y="-685.8" font-family="Times,serif" font-size="14.00">u0002</text>
</g>
<!-- 12 -->
<g id="node12" class="node"><title>12</title>
<ellipse fill="none" stroke="black" cx="832" cy="-559" rx="18" ry="18"/>
</g>
<!-- 6&#45;&gt;12 -->
<g id="edge11" class="edge"><title>6&#45;&gt;12</title>
<path fill="none" stroke="black" d="M720.82,-617.967C727.213,-610.397 735.835,-601.335 745,-595 763.365,-582.306 786.905,-572.84 804.713,-566.809"/>
<polygon fill="black" stroke="black" points="806.017,-570.066 814.453,-563.656 803.861,-563.406 806.017,-570.066"/>
<text text-anchor="middle" x="768" y="-598.8" font-family="Times,serif" font-size="14.00">u0001</text>
</g>
<!-- 19 -->
<g id="node7" class="node"><title>19</title>
<ellipse fill="none" stroke="black" cx="1216" cy="-509" rx="18" ry="18"/>
</g>
<!-- 11&#45;&gt;19 -->
<g id="edge12" class="edge"><title>11&#45;&gt;19</title>
<path fill="none" stroke="black" d="M1098.26,-583.538C1105.5,-572.481 1116.43,-557.869 1129,-548 1134.13,-543.969 1166.16,-529.861 1189.63,-519.773"/>
<polygon fill="black" stroke="black" points="1191.25,-522.889 1199.07,-515.737 1188.5,-516.453 1191.25,-522.889"/>
<text text-anchor="middle" x="1152" y="-551.8" font-family="Times,serif" font-size="14.00">u0003</text>
</g>
<!-- 20 -->
<g id="node8" class="node"><title>20</title>
<ellipse fill="none" stroke="black" cx="1344" cy="-488" rx="18" ry="18"/>
</g>
<!-- 11&#45;&gt;20 -->
<g id="edge14" class="edge"><title>11&#45;&gt;20</title>
<path fill="none" stroke="black" d="M1105.71,-595.172C1142.95,-586.188 1234.83,-561.477 1303,-522 1309.94,-517.98 1316.84,-512.707 1322.9,-507.516"/>
<polygon fill="black" stroke="black" points="1325.48,-509.904 1330.57,-500.615 1320.8,-504.699 1325.48,-509.904"/>
<text text-anchor="middle" x="1216" y="-572.8" font-family="Times,serif" font-size="14.00">u0001</text>
</g>
<!-- 11&#45;&gt;4 -->
<g id="edge13" class="edge"><title>11&#45;&gt;4</title>
<path fill="none" stroke="black" d="M1106.24,-598.884C1134.28,-598.439 1191.44,-596.463 1239,-588 1326.39,-572.45 1348.56,-565.911 1431,-533 1482.57,-512.411 1539.34,-480.542 1570.42,-462.239"/>
<polygon fill="black" stroke="black" points="1572.39,-465.137 1579.2,-457.021 1568.82,-459.118 1572.39,-465.137"/>
<text text-anchor="middle" x="1344" y="-575.8" font-family="Times,serif" font-size="14.00">u0002</text>
</g>
<!-- 19&#45;&gt;20 -->
<g id="edge15" class="edge"><title>19&#45;&gt;20</title>
<path fill="none" stroke="black" d="M1233.99,-506.168C1255.03,-502.661 1291.13,-496.645 1315.99,-492.502"/>
<polygon fill="black" stroke="black" points="1316.59,-495.951 1325.87,-490.854 1315.43,-489.046 1316.59,-495.951"/>
<text text-anchor="middle" x="1280" y="-506.8" font-family="Times,serif" font-size="14.00">u0003</text>
</g>
<!-- 14 -->
<g id="node9" class="node"><title>14</title>
<ellipse fill="none" stroke="black" cx="1472" cy="-627" rx="18" ry="18"/>
</g>
<!-- 20&#45;&gt;14 -->
<g id="edge16" class="edge"><title>20&#45;&gt;14</title>
<path fill="none" stroke="black" d="M1356.63,-500.828C1378.46,-524.909 1425.75,-577.079 1452.17,-606.229"/>
<polygon fill="black" stroke="black" points="1449.72,-608.739 1459.03,-613.798 1454.91,-604.038 1449.72,-608.739"/>
<text text-anchor="middle" x="1408" y="-586.8" font-family="Times,serif" font-size="14.00">u0001</text>
</g>
<!-- 14&#45;&gt;4 -->
<g id="edge17" class="edge"><title>14&#45;&gt;4</title>
<path fill="none" stroke="black" d="M1490.21,-625.362C1509.77,-622.564 1541.27,-615.047 1559,-595 1588.2,-561.985 1594.15,-508.991 1594.79,-476.461"/>
<polygon fill="black" stroke="black" points="1598.29,-476.285 1594.83,-466.272 1591.29,-476.258 1598.29,-476.285"/>
<text text-anchor="middle" x="1536" y="-624.8" font-family="Times,serif" font-size="14.00">u0002</text>
</g>
<!-- 8 -->
<g id="node11" class="node"><title>8</title>
<ellipse fill="none" stroke="black" cx="1717" cy="-448" rx="18" ry="18"/>
<ellipse fill="none" stroke="black" cx="1717" cy="-448" rx="22" ry="22"/>
</g>
<!-- 4&#45;&gt;8 -->
<g id="edge18" class="edge"><title>4&#45;&gt;8</title>
<path fill="none" stroke="black" d="M1613.19,-448C1631.77,-448 1661.76,-448 1684.57,-448"/>
<polygon fill="black" stroke="black" points="1684.79,-451.5 1694.79,-448 1684.79,-444.5 1684.79,-451.5"/>
<text text-anchor="middle" x="1654" y="-451.8" font-family="Times,serif" font-size="14.00">u0000</text>
</g>
<!-- 21 -->
<g id="node13" class="node"><title>21</title>
<ellipse fill="none" stroke="black" cx="960" cy="-553" rx="18" ry="18"/>
</g>
<!-- 12&#45;&gt;21 -->
<g id="edge19" class="edge"><title>12&#45;&gt;21</title>
<path fill="none" stroke="black" d="M849.993,-558.191C870.941,-557.193 906.811,-555.485 931.654,-554.302"/>
<polygon fill="black" stroke="black" points="932.052,-557.787 941.874,-553.816 931.719,-550.795 932.052,-557.787"/>
<text text-anchor="middle" x="896" y="-561.8" font-family="Times,serif" font-size="14.00">u0001</text>
</g>
<!-- 25 -->
<g id="node14" class="node"><title>25</title>
<ellipse fill="none" stroke="black" cx="1088" cy="-539" rx="18" ry="18"/>
</g>
<!-- 21&#45;&gt;25 -->
<g id="edge20" class="edge"><title>21&#45;&gt;25</title>
<path fill="none" stroke="black" d="M977.993,-551.112C998.941,-548.784 1034.81,-544.799 1059.65,-542.038"/>
<polygon fill="black" stroke="black" points="1060.32,-545.486 1069.87,-540.903 1059.55,-538.529 1060.32,-545.486"/>
<text text-anchor="middle" x="1024" y="-552.8" font-family="Times,serif" font-size="14.00">u0003</text>
</g>
<!-- 25&#45;&gt;19 -->
<g id="edge21" class="edge"><title>25&#45;&gt;19</title>
<path fill="none" stroke="black" d="M1101.53,-526.786C1108.89,-520.473 1118.74,-513.394 1129,-510 1148.02,-503.709 1170.72,-503.737 1188.02,-505.189"/>
<polygon fill="black" stroke="black" points="1187.71,-508.675 1198.02,-506.233 1188.44,-501.712 1187.71,-508.675"/>
<text text-anchor="middle" x="1152" y="-513.8" font-family="Times,serif" font-size="14.00">u0003</text>
</g>
<!-- 7&#45;&gt;14 -->
<g id="edge24" class="edge"><title>7&#45;&gt;14</title>
<path fill="none" stroke="black" d="M1094.08,-710.849C1099.79,-694.81 1110.75,-671.635 1129,-660 1181.03,-626.826 1372.31,-625.718 1443.8,-626.515"/>
<polygon fill="black" stroke="black" points="1443.79,-630.015 1453.83,-626.648 1443.88,-623.015 1443.79,-630.015"/>
<text text-anchor="middle" x="1280" y="-636.8" font-family="Times,serif" font-size="14.00">u0001</text>
</g>
<!-- 7&#45;&gt;4 -->
<g id="edge23" class="edge"><title>7&#45;&gt;4</title>
<path fill="none" stroke="black" d="M1102.9,-738.412C1125.28,-754.104 1171.21,-782 1215,-782 1215,-782 1215,-782 1473,-782 1520.38,-782 1534.9,-759.796 1559,-719 1583.01,-678.347 1590.84,-537.077 1593.14,-476.233"/>
<polygon fill="black" stroke="black" points="1596.64,-476.3 1593.5,-466.182 1589.64,-476.052 1596.64,-476.3"/>
<text text-anchor="middle" x="1344" y="-785.8" font-family="Times,serif" font-size="14.00">u0002</text>
</g>
<!-- 13 -->
<g id="node16" class="node"><title>13</title>
<ellipse fill="none" stroke="black" cx="1216" cy="-728" rx="18" ry="18"/>
</g>
<!-- 7&#45;&gt;13 -->
<g id="edge22" class="edge"><title>7&#45;&gt;13</title>
<path fill="none" stroke="black" d="M1106.26,-728C1127.27,-728 1163.03,-728 1187.77,-728"/>
<polygon fill="black" stroke="black" points="1187.95,-731.5 1197.95,-728 1187.95,-724.5 1187.95,-731.5"/>
<text text-anchor="middle" x="1152" y="-731.8" font-family="Times,serif" font-size="14.00">u0003</text>
</g>
<!-- 22 -->
<g id="node17" class="node"><title>22</title>
<ellipse fill="none" stroke="black" cx="1344" cy="-728" rx="18" ry="18"/>
</g>
<!-- 13&#45;&gt;22 -->
<g id="edge25" class="edge"><title>13&#45;&gt;22</title>
<path fill="none" stroke="black" d="M1234.26,-728C1255.27,-728 1291.03,-728 1315.77,-728"/>
<polygon fill="black" stroke="black" points="1315.95,-731.5 1325.95,-728 1315.95,-724.5 1315.95,-731.5"/>
<text text-anchor="middle" x="1280" y="-731.8" font-family="Times,serif" font-size="14.00">u0001</text>
</g>
<!-- 22&#45;&gt;14 -->
<g id="edge27" class="edge"><title>22&#45;&gt;14</title>
<path fill="none" stroke="black" d="M1358.48,-717.191C1380.25,-699.742 1423.33,-665.213 1449.41,-644.307"/>
<polygon fill="black" stroke="black" points="1451.62,-647.023 1457.23,-638.037 1447.24,-641.561 1451.62,-647.023"/>
<text text-anchor="middle" x="1408" y="-699.8" font-family="Times,serif" font-size="14.00">u0001</text>
</g>
<!-- 22&#45;&gt;4 -->
<g id="edge26" class="edge"><title>22&#45;&gt;4</title>
<path fill="none" stroke="black" d="M1361.93,-730.922C1402.57,-736.867 1506.19,-745.482 1559,-690 1587.73,-659.814 1592.98,-533.575 1593.87,-476.381"/>
<polygon fill="black" stroke="black" points="1597.37,-476.268 1593.99,-466.227 1590.37,-476.184 1597.37,-476.268"/>
<text text-anchor="middle" x="1472" y="-736.8" font-family="Times,serif" font-size="14.00">u0002</text>
</g>
<!-- 5&#45;&gt;4 -->
<g id="edge29" class="edge"><title>5&#45;&gt;4</title>
<path fill="none" stroke="black" d="M472.045,-285.4C483.723,-220.732 528.117,-0 590,-0 590,-0 590,-0 1473,-0 1516.56,-0 1535.17,-10.538 1559,-47 1579.3,-78.0648 1590.01,-333.658 1593.07,-419.789"/>
<polygon fill="black" stroke="black" points="1589.57,-420.007 1593.42,-429.879 1596.57,-419.764 1589.57,-420.007"/>
<text text-anchor="middle" x="1024" y="-3.8" font-family="Times,serif" font-size="14.00">u0002</text>
</g>
<!-- 9 -->
<g id="node19" class="node"><title>9</title>
<ellipse fill="none" stroke="black" cx="591" cy="-147" rx="18" ry="18"/>
</g>
<!-- 5&#45;&gt;9 -->
<g id="edge28" class="edge"><title>5&#45;&gt;9</title>
<path fill="none" stroke="black" d="M479.738,-289.156C500.763,-262.049 547.515,-201.774 572.863,-169.094"/>
<polygon fill="black" stroke="black" points="575.749,-171.084 579.112,-161.037 570.218,-166.794 575.749,-171.084"/>
<text text-anchor="middle" x="532" y="-252.8" font-family="Times,serif" font-size="14.00">u0003</text>
</g>
<!-- 10 -->
<g id="node29" class="node"><title>10</title>
<ellipse fill="none" stroke="black" cx="1088" cy="-321" rx="18" ry="18"/>
</g>
<!-- 5&#45;&gt;10 -->
<g id="edge30" class="edge"><title>5&#45;&gt;10</title>
<path fill="none" stroke="black" d="M484.72,-309.727C507.491,-318.844 551.183,-334 590,-334 590,-334 590,-334 961,-334 995.251,-334 1034.46,-329.188 1059.92,-325.419"/>
<polygon fill="black" stroke="black" points="1060.58,-328.859 1069.94,-323.885 1059.52,-321.94 1060.58,-328.859"/>
<text text-anchor="middle" x="768" y="-337.8" font-family="Times,serif" font-size="14.00">u0001</text>
</g>
<!-- 9&#45;&gt;4 -->
<g id="edge32" class="edge"><title>9&#45;&gt;4</title>
<path fill="none" stroke="black" d="M600.512,-131.219C617.115,-102.812 656.731,-46 708,-46 708,-46 708,-46 1473,-46 1515.93,-46 1534.84,-54.5084 1559,-90 1595.42,-143.509 1595.81,-345.115 1594.64,-419.876"/>
<polygon fill="black" stroke="black" points="1591.14,-419.893 1594.46,-429.954 1598.13,-420.018 1591.14,-419.893"/>
<text text-anchor="middle" x="1088" y="-49.8" font-family="Times,serif" font-size="14.00">u0002</text>
</g>
<!-- 15 -->
<g id="node20" class="node"><title>15</title>
<ellipse fill="none" stroke="black" cx="960" cy="-135" rx="18" ry="18"/>
</g>
<!-- 9&#45;&gt;15 -->
<g id="edge31" class="edge"><title>9&#45;&gt;15</title>
<path fill="none" stroke="black" d="M609.209,-146.437C667.844,-144.52 860.147,-138.232 931.784,-135.89"/>
<polygon fill="black" stroke="black" points="931.948,-139.386 941.828,-135.561 931.719,-132.39 931.948,-139.386"/>
<text text-anchor="middle" x="768" y="-145.8" font-family="Times,serif" font-size="14.00">u0003</text>
</g>
<!-- 16 -->
<g id="node24" class="node"><title>16</title>
<ellipse fill="none" stroke="black" cx="709" cy="-240" rx="18" ry="18"/>
</g>
<!-- 9&#45;&gt;16 -->
<g id="edge33" class="edge"><title>9&#45;&gt;16</title>
<path fill="none" stroke="black" d="M605.762,-158.034C625.646,-173.975 662.606,-203.607 686.217,-222.536"/>
<polygon fill="black" stroke="black" points="684.264,-225.456 694.256,-228.981 688.643,-219.995 684.264,-225.456"/>
<text text-anchor="middle" x="650" y="-213.8" font-family="Times,serif" font-size="14.00">u0001</text>
</g>
<!-- 15&#45;&gt;19 -->
<g id="edge34" class="edge"><title>15&#45;&gt;19</title>
<path fill="none" stroke="black" d="M966.689,-151.922C985.84,-208.612 1047.73,-389.484 1065,-411 1099.05,-453.435 1156.59,-483.631 1189.63,-498.503"/>
<polygon fill="black" stroke="black" points="1188.48,-501.82 1199.04,-502.623 1191.29,-495.407 1188.48,-501.82"/>
<text text-anchor="middle" x="1088" y="-457.8" font-family="Times,serif" font-size="14.00">u0003</text>
</g>
<!-- 15&#45;&gt;4 -->
<g id="edge35" class="edge"><title>15&#45;&gt;4</title>
<path fill="none" stroke="black" d="M975.874,-125.691C998.813,-112.25 1044.62,-89 1087,-89 1087,-89 1087,-89 1473,-89 1515.93,-89 1534.61,-97.6687 1559,-133 1590.83,-179.097 1594.17,-351.127 1594.2,-419.611"/>
<polygon fill="black" stroke="black" points="1590.7,-419.672 1594.18,-429.678 1597.7,-419.685 1590.7,-419.672"/>
<text text-anchor="middle" x="1280" y="-92.8" font-family="Times,serif" font-size="14.00">u0002</text>
</g>
<!-- 23 -->
<g id="node21" class="node"><title>23</title>
<ellipse fill="none" stroke="black" cx="1088" cy="-135" rx="18" ry="18"/>
</g>
<!-- 15&#45;&gt;23 -->
<g id="edge36" class="edge"><title>15&#45;&gt;23</title>
<path fill="none" stroke="black" d="M978.256,-135C999.274,-135 1035.03,-135 1059.77,-135"/>
<polygon fill="black" stroke="black" points="1059.95,-138.5 1069.95,-135 1059.95,-131.5 1059.95,-138.5"/>
<text text-anchor="middle" x="1024" y="-138.8" font-family="Times,serif" font-size="14.00">u0001</text>
</g>
<!-- 23&#45;&gt;4 -->
<g id="edge38" class="edge"><title>23&#45;&gt;4</title>
<path fill="none" stroke="black" d="M1106.12,-135C1130.36,-135 1176.06,-135 1215,-135 1215,-135 1215,-135 1473,-135 1513.34,-135 1533.51,-132.739 1559,-164 1590.53,-202.67 1594.13,-355.519 1594.22,-419.548"/>
<polygon fill="black" stroke="black" points="1590.72,-419.725 1594.2,-429.73 1597.72,-419.735 1590.72,-419.725"/>
<text text-anchor="middle" x="1344" y="-138.8" font-family="Times,serif" font-size="14.00">u0002</text>
</g>
<!-- 26 -->
<g id="node22" class="node"><title>26</title>
<ellipse fill="none" stroke="black" cx="1216" cy="-258" rx="18" ry="18"/>
</g>
<!-- 23&#45;&gt;26 -->
<g id="edge37" class="edge"><title>23&#45;&gt;26</title>
<path fill="none" stroke="black" d="M1098.19,-149.852C1105.73,-161.427 1117.06,-177.568 1129,-190 1148.49,-210.29 1174.14,-229.82 1192.35,-242.702"/>
<polygon fill="black" stroke="black" points="1190.42,-245.624 1200.62,-248.467 1194.42,-239.88 1190.42,-245.624"/>
<text text-anchor="middle" x="1152" y="-233.8" font-family="Times,serif" font-size="14.00">u0003</text>
</g>
<!-- 17 -->
<g id="node23" class="node"><title>17</title>
<ellipse fill="none" stroke="black" cx="1344" cy="-366" rx="18" ry="18"/>
</g>
<!-- 26&#45;&gt;17 -->
<g id="edge39" class="edge"><title>26&#45;&gt;17</title>
<path fill="none" stroke="black" d="M1230.48,-269.558C1252.37,-288.315 1295.78,-325.528 1321.82,-347.845"/>
<polygon fill="black" stroke="black" points="1319.74,-350.675 1329.61,-354.525 1324.3,-345.36 1319.74,-350.675"/>
<text text-anchor="middle" x="1280" y="-335.8" font-family="Times,serif" font-size="14.00">u0001</text>
</g>
<!-- 17&#45;&gt;14 -->
<g id="edge40" class="edge"><title>17&#45;&gt;14</title>
<path fill="none" stroke="black" d="M1354.74,-380.631C1371.78,-406.649 1407.42,-463.025 1431,-514 1444.18,-542.5 1455.72,-576.66 1462.98,-599.908"/>
<polygon fill="black" stroke="black" points="1459.72,-601.227 1466,-609.762 1466.41,-599.175 1459.72,-601.227"/>
<text text-anchor="middle" x="1408" y="-517.8" font-family="Times,serif" font-size="14.00">u0003</text>
</g>
<!-- 16&#45;&gt;20 -->
<g id="edge41" class="edge"><title>16&#45;&gt;20</title>
<path fill="none" stroke="black" d="M722.449,-252.607C754.663,-284.412 844.707,-368.199 937,-408 945.875,-411.827 1226.86,-465.777 1316.09,-482.855"/>
<polygon fill="black" stroke="black" points="1315.51,-486.308 1325.99,-484.749 1316.82,-479.432 1315.51,-486.308"/>
<text text-anchor="middle" x="1024" y="-434.8" font-family="Times,serif" font-size="14.00">u0003</text>
</g>
<!-- 16&#45;&gt;4 -->
<g id="edge42" class="edge"><title>16&#45;&gt;4</title>
<path fill="none" stroke="black" d="M723.125,-228.624C744.302,-211.479 787.997,-181 831,-181 831,-181 831,-181 1025,-181 1091.81,-181 1109.4,-158.299 1175,-171 1327.23,-200.477 1365.12,-225.29 1495,-310 1524.78,-329.424 1537.51,-329.675 1559,-358 1573.11,-376.593 1582.22,-401.581 1587.6,-420.509"/>
<polygon fill="black" stroke="black" points="1584.26,-421.559 1590.21,-430.322 1591.02,-419.758 1584.26,-421.559"/>
<text text-anchor="middle" x="1152" y="-174.8" font-family="Times,serif" font-size="14.00">u0002</text>
</g>
<!-- 24 -->
<g id="node25" class="node"><title>24</title>
<ellipse fill="none" stroke="black" cx="832" cy="-258" rx="18" ry="18"/>
</g>
<!-- 16&#45;&gt;24 -->
<g id="edge43" class="edge"><title>16&#45;&gt;24</title>
<path fill="none" stroke="black" d="M727.08,-242.541C747.078,-245.516 780.454,-250.481 803.976,-253.98"/>
<polygon fill="black" stroke="black" points="803.601,-257.463 814.007,-255.472 804.631,-250.539 803.601,-257.463"/>
<text text-anchor="middle" x="768" y="-255.8" font-family="Times,serif" font-size="14.00">u0001</text>
</g>
<!-- 27 -->
<g id="node26" class="node"><title>27</title>
<ellipse fill="none" stroke="black" cx="960" cy="-381" rx="18" ry="18"/>
</g>
<!-- 24&#45;&gt;27 -->
<g id="edge44" class="edge"><title>24&#45;&gt;27</title>
<path fill="none" stroke="black" d="M845.542,-270.243C867.429,-291.61 912.766,-335.867 939.021,-361.496"/>
<polygon fill="black" stroke="black" points="936.908,-364.325 946.509,-368.806 941.798,-359.316 936.908,-364.325"/>
<text text-anchor="middle" x="896" y="-345.8" font-family="Times,serif" font-size="14.00">u0003</text>
</g>
<!-- 28 -->
<g id="node27" class="node"><title>28</title>
<ellipse fill="none" stroke="black" cx="1088" cy="-384" rx="18" ry="18"/>
</g>
<!-- 27&#45;&gt;28 -->
<g id="edge45" class="edge"><title>27&#45;&gt;28</title>
<path fill="none" stroke="black" d="M978.256,-381.411C999.274,-381.911 1035.03,-382.763 1059.77,-383.352"/>
<polygon fill="black" stroke="black" points="1059.87,-386.855 1069.95,-383.594 1060.04,-379.857 1059.87,-386.855"/>
<text text-anchor="middle" x="1024" y="-387.8" font-family="Times,serif" font-size="14.00">u0001</text>
</g>
<!-- 29 -->
<g id="node28" class="node"><title>29</title>
<ellipse fill="none" stroke="black" cx="1216" cy="-417" rx="18" ry="18"/>
</g>
<!-- 28&#45;&gt;29 -->
<g id="edge46" class="edge"><title>28&#45;&gt;29</title>
<path fill="none" stroke="black" d="M1105.73,-388.382C1126.82,-393.905 1163.32,-403.464 1188.28,-410.003"/>
<polygon fill="black" stroke="black" points="1187.64,-413.452 1198.2,-412.6 1189.41,-406.68 1187.64,-413.452"/>
<text text-anchor="middle" x="1152" y="-410.8" font-family="Times,serif" font-size="14.00">u0001</text>
</g>
<!-- 29&#45;&gt;20 -->
<g id="edge47" class="edge"><title>29&#45;&gt;20</title>
<path fill="none" stroke="black" d="M1234.1,-417.935C1252.43,-419.639 1281.75,-424.445 1303,-438 1313.33,-444.591 1322.18,-454.778 1328.91,-464.242"/>
<polygon fill="black" stroke="black" points="1326.03,-466.22 1334.48,-472.606 1331.85,-462.342 1326.03,-466.22"/>
<text text-anchor="middle" x="1280" y="-441.8" font-family="Times,serif" font-size="14.00">u0001</text>
</g>
<!-- 10&#45;&gt;4 -->
<g id="edge49" class="edge"><title>10&#45;&gt;4</title>
<path fill="none" stroke="black" d="M1099.56,-306.941C1116.5,-285.691 1152.05,-246.257 1193,-231 1212.16,-223.862 1219.16,-226.082 1239,-231 1395.11,-269.692 1437.38,-294.755 1559,-400 1566.9,-406.839 1574.03,-415.786 1579.77,-424.1"/>
<polygon fill="black" stroke="black" points="1577.01,-426.281 1585.41,-432.743 1582.87,-422.456 1577.01,-426.281"/>
<text text-anchor="middle" x="1344" y="-273.8" font-family="Times,serif" font-size="14.00">u0002</text>
</g>
<!-- 10&#45;&gt;17 -->
<g id="edge48" class="edge"><title>10&#45;&gt;17</title>
<path fill="none" stroke="black" d="M1104.61,-328.802C1111.86,-332.12 1120.7,-335.739 1129,-338 1194.54,-355.857 1274.58,-362.464 1315.71,-364.8"/>
<polygon fill="black" stroke="black" points="1315.6,-368.299 1325.77,-365.329 1315.97,-361.309 1315.6,-368.299"/>
<text text-anchor="middle" x="1216" y="-362.8" font-family="Times,serif" font-size="14.00">u0003</text>
</g>
<!-- 18 -->
<g id="node30" class="node"><title>18</title>
<ellipse fill="none" stroke="black" cx="1216" cy="-312" rx="18" ry="18"/>
</g>
<!-- 10&#45;&gt;18 -->
<g id="edge50" class="edge"><title>10&#45;&gt;18</title>
<path fill="none" stroke="black" d="M1105.99,-319.786C1126.94,-318.29 1162.81,-315.728 1187.65,-313.953"/>
<polygon fill="black" stroke="black" points="1188.15,-317.427 1197.87,-313.223 1187.65,-310.445 1188.15,-317.427"/>
<text text-anchor="middle" x="1152" y="-322.8" font-family="Times,serif" font-size="14.00">u0001</text>
</g>
<!-- 18&#45;&gt;20 -->
<g id="edge52" class="edge"><title>18&#45;&gt;20</title>
<path fill="none" stroke="black" d="M1230.32,-323.568C1248.51,-339.879 1281.32,-371.212 1303,-403 1315.52,-421.36 1326.04,-444.256 1333.15,-461.658"/>
<polygon fill="black" stroke="black" points="1329.99,-463.185 1336.93,-471.193 1336.5,-460.607 1329.99,-463.185"/>
<text text-anchor="middle" x="1280" y="-406.8" font-family="Times,serif" font-size="14.00">u0001</text>
</g>
<!-- 18&#45;&gt;4 -->
<g id="edge51" class="edge"><title>18&#45;&gt;4</title>
<path fill="none" stroke="black" d="M1234.01,-313.554C1262.21,-316.463 1320.17,-323.851 1367,-339 1444.79,-364.164 1530.06,-410.729 1570.37,-434"/>
<polygon fill="black" stroke="black" points="1568.77,-437.118 1579.18,-439.125 1572.29,-431.068 1568.77,-437.118"/>
<text text-anchor="middle" x="1408" y="-366.8" font-family="Times,serif" font-size="14.00">u0002</text>
</g>
<!-- initial -->
<g id="node31" class="node"><title>initial</title>
</g>
<!-- initial&#45;&gt;0 -->
<g id="edge53" class="edge"><title>initial&#45;&gt;0</title>
<path fill="none" stroke="black" d="M54.195,-728C62.6538,-728 72.0513,-728 80.5951,-728"/>
<polygon fill="black" stroke="black" points="80.8257,-731.5 90.8257,-728 80.8257,-724.5 80.8257,-731.5"/>
</g>
</g>
</svg>
