<svg width="2447px" height="944px"
 viewBox="0.00 0.00 1835.00 708.00" xmlns="http://www.w3.org/2000/svg" xmlns:xlink="http://www.w3.org/1999/xlink">
<g id="graph0" class="graph" transform="scale(1.000022500562514 1.000022500562514) rotate(0) translate(4 704)">
<title>Automaton</title>
<polygon fill="white" stroke="none" points="-4,4 -4,-704 1831,-704 1831,4 -4,4"/>
<!-- 0 -->
<g id="node1" class="node"><title>0</title>
<ellipse fill="none" stroke="black" cx="109" cy="-581" rx="18" ry="18"/>
</g>
<!-- 1 -->
<g id="node2" class="node"><title>1</title>
<ellipse fill="none" stroke="black" cx="227" cy="-581" rx="18" ry="18"/>
</g>
<!-- 0&#45;&gt;1 -->
<g id="edge1" class="edge"><title>0&#45;&gt;1</title>
<path fill="none" stroke="black" d="M127.116,-581C145.964,-581 176.531,-581 198.696,-581"/>
<polygon fill="black" stroke="black" points="198.814,-584.5 208.814,-581 198.814,-577.5 198.814,-584.5"/>
<text text-anchor="middle" x="168" y="-584.8" font-family="Times,serif" font-size="14.00">u0000</text>
</g>
<!-- 2 -->
<g id="node3" class="node"><title>2</title>
<ellipse fill="none" stroke="black" cx="345" cy="-581" rx="18" ry="18"/>
</g>
<!-- 1&#45;&gt;2 -->
<g id="edge2" class="edge"><title>1&#45;&gt;2</title>
<path fill="none" stroke="black" d="M245.116,-581C263.964,-581 294.531,-581 316.696,-581"/>
<polygon fill="black" stroke="black" points="316.814,-584.5 326.814,-581 316.814,-577.5 316.814,-584.5"/>
<text text-anchor="middle" x="286" y="-584.8" font-family="Times,serif" font-size="14.00">u0001</text>
</g>
<!-- 3 -->
<g id="node4" class="node"><title>3</title>
<ellipse fill="none" stroke="black" cx="463" cy="-581" rx="18" ry="18"/>
</g>
<!-- 2&#45;&gt;3 -->
<g id="edge3" class="edge"><title>2&#45;&gt;3</title>
<path fill="none" stroke="black" d="M363.116,-581C381.964,-581 412.531,-581 434.696,-581"/>
<polygon fill="black" stroke="black" points="434.814,-584.5 444.814,-581 434.814,-577.5 434.814,-584.5"/>
<text text-anchor="middle" x="404" y="-584.8" font-family="Times,serif" font-size="14.00">u0004</text>
</g>
<!-- 4 -->
<g id="node10" class="node"><title>4</title>
<ellipse fill="none" stroke="black" cx="1683" cy="-427" rx="18" ry="18"/>
</g>
<!-- 2&#45;&gt;4 -->
<g id="edge4" class="edge"><title>2&#45;&gt;4</title>
<path fill="none" stroke="black" d="M354.133,-596.795C370.375,-625.889 409.798,-685 462,-685 462,-685 462,-685 1566,-685 1665.79,-685 1680.25,-522.468 1681.97,-455.409"/>
<polygon fill="black" stroke="black" points="1685.47,-455.202 1682.15,-445.142 1678.47,-455.079 1685.47,-455.202"/>
<text text-anchor="middle" x="1004" y="-688.8" font-family="Times,serif" font-size="14.00">u0003</text>
</g>
<!-- 5 -->
<g id="node17" class="node"><title>5</title>
<ellipse fill="none" stroke="black" cx="463" cy="-162" rx="18" ry="18"/>
</g>
<!-- 2&#45;&gt;5 -->
<g id="edge5" class="edge"><title>2&#45;&gt;5</title>
<path fill="none" stroke="black" d="M350.764,-563.794C368.757,-498.8 432.671,-267.939 454.573,-188.828"/>
<polygon fill="black" stroke="black" points="457.966,-189.69 457.261,-179.119 451.219,-187.822 457.966,-189.69"/>
<text text-anchor="middle" x="404" y="-449.8" font-family="Times,serif" font-size="14.00">u0005</text>
</g>
<!-- 6 -->
<g id="node5" class="node"><title>6</title>
<ellipse fill="none" stroke="black" cx="581" cy="-581" rx="18" ry="18"/>
</g>
<!-- 3&#45;&gt;6 -->
<g id="edge6" class="edge"><title>3&#45;&gt;6</title>
<path fill="none" stroke="black" d="M481.116,-581C499.964,-581 530.531,-581 552.696,-581"/>
<polygon fill="black" stroke="black" points="552.814,-584.5 562.814,-581 552.814,-577.5 552.814,-584.5"/>
<text text-anchor="middle" x="522" y="-584.8" font-family="Times,serif" font-size="14.00">u0004</text>
</g>
<!-- 7 -->
<g id="node8" class="node"><title>7</title>
<ellipse fill="none" stroke="black" cx="1447" cy="-353" rx="18" ry="18"/>
</g>
<!-- 3&#45;&gt;7 -->
<g id="edge8" class="edge"><title>3&#45;&gt;7</title>
<path fill="none" stroke="black" d="M465.486,-562.818C470.73,-511.97 493.06,-372 580,-372 580,-372 580,-372 1325,-372 1357.79,-372 1394.97,-365.108 1419.36,-359.626"/>
<polygon fill="black" stroke="black" points="1420.35,-362.989 1429.3,-357.311 1418.76,-356.172 1420.35,-362.989"/>
<text text-anchor="middle" x="940" y="-375.8" font-family="Times,serif" font-size="14.00">u0005</text>
</g>
<!-- 3&#45;&gt;4 -->
<g id="edge7" class="edge"><title>3&#45;&gt;4</title>
<path fill="none" stroke="black" d="M476.76,-593.052C496.976,-610.829 538.361,-642 580,-642 580,-642 580,-642 1566,-642 1650.05,-642 1673.48,-513.17 1679.78,-454.961"/>
<polygon fill="black" stroke="black" points="1683.27,-455.257 1680.77,-444.961 1676.3,-454.569 1683.27,-455.257"/>
<text text-anchor="middle" x="1068" y="-645.8" font-family="Times,serif" font-size="14.00">u0003</text>
</g>
<!-- 11 -->
<g id="node6" class="node"><title>11</title>
<ellipse fill="none" stroke="black" cx="699" cy="-550" rx="18" ry="18"/>
</g>
<!-- 6&#45;&gt;11 -->
<g id="edge9" class="edge"><title>6&#45;&gt;11</title>
<path fill="none" stroke="black" d="M597.822,-573.994C603.756,-571.547 610.61,-568.932 617,-567 634.656,-561.66 654.973,-557.401 670.843,-554.481"/>
<polygon fill="black" stroke="black" points="671.795,-557.867 681.031,-552.677 670.574,-550.974 671.795,-557.867"/>
<text text-anchor="middle" x="640" y="-570.8" font-family="Times,serif" font-size="14.00">u0004</text>
</g>
<!-- 6&#45;&gt;4 -->
<g id="edge10" class="edge"><title>6&#45;&gt;4</title>
<path fill="none" stroke="black" d="M598.817,-584.555C621.305,-588.99 662.464,-596 698,-596 698,-596 698,-596 1005,-596 1117.9,-596 1146.1,-599 1259,-599 1259,-599 1259,-599 1566,-599 1610.8,-599 1621.04,-575.513 1647,-539 1665,-513.69 1673.97,-478.809 1678.29,-454.73"/>
<polygon fill="black" stroke="black" points="1681.75,-455.25 1679.91,-444.816 1674.84,-454.119 1681.75,-455.25"/>
<text text-anchor="middle" x="1132" y="-600.8" font-family="Times,serif" font-size="14.00">u0003</text>
</g>
<!-- 16 -->
<g id="node7" class="node"><title>16</title>
<ellipse fill="none" stroke="black" cx="817" cy="-510" rx="18" ry="18"/>
</g>
<!-- 11&#45;&gt;16 -->
<g id="edge11" class="edge"><title>11&#45;&gt;16</title>
<path fill="none" stroke="black" d="M713.627,-539.323C719.842,-534.92 727.481,-530.127 735,-527 752.14,-519.872 772.608,-515.609 788.681,-513.134"/>
<polygon fill="black" stroke="black" points="789.59,-516.541 799.011,-511.694 788.623,-509.609 789.59,-516.541"/>
<text text-anchor="middle" x="758" y="-530.8" font-family="Times,serif" font-size="14.00">u0004</text>
</g>
<!-- 11&#45;&gt;4 -->
<g id="edge12" class="edge"><title>11&#45;&gt;4</title>
<path fill="none" stroke="black" d="M717.28,-551.452C739.932,-553.228 780.911,-556 816,-556 816,-556 816,-556 1566,-556 1620.74,-556 1656.23,-490.973 1672.2,-453.256"/>
<polygon fill="black" stroke="black" points="1675.5,-454.446 1676.02,-443.864 1669.01,-451.812 1675.5,-454.446"/>
<text text-anchor="middle" x="1196" y="-559.8" font-family="Times,serif" font-size="14.00">u0003</text>
</g>
<!-- 16&#45;&gt;7 -->
<g id="edge13" class="edge"><title>16&#45;&gt;7</title>
<path fill="none" stroke="black" d="M835.232,-510C858.701,-510 902.028,-510 939,-510 939,-510 939,-510 1133,-510 1228.49,-510 1261.86,-534.225 1347,-491 1392.75,-467.775 1422.04,-412.369 1436.12,-379.257"/>
<polygon fill="black" stroke="black" points="1439.46,-380.338 1440,-369.757 1432.97,-377.691 1439.46,-380.338"/>
<text text-anchor="middle" x="1132" y="-513.8" font-family="Times,serif" font-size="14.00">u0004</text>
</g>
<!-- 21 -->
<g id="node12" class="node"><title>21</title>
<ellipse fill="none" stroke="black" cx="940" cy="-464" rx="18" ry="18"/>
</g>
<!-- 16&#45;&gt;21 -->
<g id="edge14" class="edge"><title>16&#45;&gt;21</title>
<path fill="none" stroke="black" d="M830.215,-497.288C836.496,-491.47 844.589,-484.996 853,-481 871.442,-472.238 894.173,-467.991 911.633,-465.933"/>
<polygon fill="black" stroke="black" points="912.139,-469.399 921.738,-464.913 911.437,-462.435 912.139,-469.399"/>
<text text-anchor="middle" x="876" y="-484.8" font-family="Times,serif" font-size="14.00">u0005</text>
</g>
<!-- 12 -->
<g id="node9" class="node"><title>12</title>
<ellipse fill="none" stroke="black" cx="1565" cy="-322" rx="18" ry="18"/>
</g>
<!-- 7&#45;&gt;12 -->
<g id="edge15" class="edge"><title>7&#45;&gt;12</title>
<path fill="none" stroke="black" d="M1464.62,-348.558C1483.66,-343.471 1515.1,-335.067 1537.52,-329.076"/>
<polygon fill="black" stroke="black" points="1538.65,-332.397 1547.41,-326.433 1536.85,-325.634 1538.65,-332.397"/>
<text text-anchor="middle" x="1506" y="-346.8" font-family="Times,serif" font-size="14.00">u0004</text>
</g>
<!-- 12&#45;&gt;4 -->
<g id="edge16" class="edge"><title>12&#45;&gt;4</title>
<path fill="none" stroke="black" d="M1578.86,-333.638C1598.89,-351.771 1637.73,-386.925 1661.61,-408.542"/>
<polygon fill="black" stroke="black" points="1659.32,-411.194 1669.09,-415.31 1664.02,-406.004 1659.32,-411.194"/>
<text text-anchor="middle" x="1624" y="-397.8" font-family="Times,serif" font-size="14.00">u0003</text>
</g>
<!-- 8 -->
<g id="node11" class="node"><title>8</title>
<ellipse fill="none" stroke="black" cx="1805" cy="-427" rx="18" ry="18"/>
<ellipse fill="none" stroke="black" cx="1805" cy="-427" rx="22" ry="22"/>
</g>
<!-- 4&#45;&gt;8 -->
<g id="edge17" class="edge"><title>4&#45;&gt;8</title>
<path fill="none" stroke="black" d="M1701.19,-427C1719.77,-427 1749.76,-427 1772.57,-427"/>
<polygon fill="black" stroke="black" points="1772.79,-430.5 1782.79,-427 1772.79,-423.5 1772.79,-430.5"/>
<text text-anchor="middle" x="1742" y="-430.8" font-family="Times,serif" font-size="14.00">u0002</text>
</g>
<!-- 21&#45;&gt;4 -->
<g id="edge19" class="edge"><title>21&#45;&gt;4</title>
<path fill="none" stroke="black" d="M958.097,-465.775C982.309,-468.132 1027.98,-472 1067,-472 1067,-472 1067,-472 1566,-472 1600.02,-472 1636.09,-454.967 1658.81,-441.859"/>
<polygon fill="black" stroke="black" points="1660.9,-444.685 1667.68,-436.543 1657.3,-438.68 1660.9,-444.685"/>
<text text-anchor="middle" x="1324" y="-475.8" font-family="Times,serif" font-size="14.00">u0003</text>
</g>
<!-- 23 -->
<g id="node13" class="node"><title>23</title>
<ellipse fill="none" stroke="black" cx="1068" cy="-422" rx="18" ry="18"/>
</g>
<!-- 21&#45;&gt;23 -->
<g id="edge18" class="edge"><title>21&#45;&gt;23</title>
<path fill="none" stroke="black" d="M955.792,-455.125C963.168,-450.991 972.343,-446.273 981,-443 1000.29,-435.708 1022.98,-430.292 1040.21,-426.788"/>
<polygon fill="black" stroke="black" points="1041,-430.198 1050.15,-424.853 1039.67,-423.327 1041,-430.198"/>
<text text-anchor="middle" x="1004" y="-446.8" font-family="Times,serif" font-size="14.00">u0004</text>
</g>
<!-- 25 -->
<g id="node14" class="node"><title>25</title>
<ellipse fill="none" stroke="black" cx="1196" cy="-419" rx="18" ry="18"/>
</g>
<!-- 23&#45;&gt;25 -->
<g id="edge20" class="edge"><title>23&#45;&gt;25</title>
<path fill="none" stroke="black" d="M1086.26,-421.589C1107.27,-421.089 1143.03,-420.237 1167.77,-419.648"/>
<polygon fill="black" stroke="black" points="1168.04,-423.143 1177.95,-419.406 1167.87,-416.145 1168.04,-423.143"/>
<text text-anchor="middle" x="1132" y="-425.8" font-family="Times,serif" font-size="14.00">u0004</text>
</g>
<!-- 27 -->
<g id="node15" class="node"><title>27</title>
<ellipse fill="none" stroke="black" cx="1324" cy="-418" rx="18" ry="18"/>
</g>
<!-- 25&#45;&gt;27 -->
<g id="edge21" class="edge"><title>25&#45;&gt;27</title>
<path fill="none" stroke="black" d="M1214.26,-418.863C1235.27,-418.696 1271.03,-418.412 1295.77,-418.216"/>
<polygon fill="black" stroke="black" points="1295.98,-421.715 1305.95,-418.135 1295.93,-414.715 1295.98,-421.715"/>
<text text-anchor="middle" x="1260" y="-422.8" font-family="Times,serif" font-size="14.00">u0004</text>
</g>
<!-- 19 -->
<g id="node16" class="node"><title>19</title>
<ellipse fill="none" stroke="black" cx="1447" cy="-272" rx="18" ry="18"/>
</g>
<!-- 27&#45;&gt;19 -->
<g id="edge22" class="edge"><title>27&#45;&gt;19</title>
<path fill="none" stroke="black" d="M1340.79,-411.4C1359.87,-402.689 1391.79,-385.647 1411,-362 1419.11,-352.014 1430.08,-321.648 1437.56,-298.931"/>
<polygon fill="black" stroke="black" points="1440.98,-299.724 1440.73,-289.132 1434.32,-297.57 1440.98,-299.724"/>
<text text-anchor="middle" x="1388" y="-402.8" font-family="Times,serif" font-size="14.00">u0004</text>
</g>
<!-- 19&#45;&gt;12 -->
<g id="edge23" class="edge"><title>19&#45;&gt;12</title>
<path fill="none" stroke="black" d="M1464.13,-278.952C1483.43,-287.274 1515.99,-301.307 1538.67,-311.08"/>
<polygon fill="black" stroke="black" points="1537.44,-314.363 1548.01,-315.107 1540.21,-307.934 1537.44,-314.363"/>
<text text-anchor="middle" x="1506" y="-309.8" font-family="Times,serif" font-size="14.00">u0005</text>
</g>
<!-- 5&#45;&gt;4 -->
<g id="edge25" class="edge"><title>5&#45;&gt;4</title>
<path fill="none" stroke="black" d="M467.753,-144.355C477.827,-102.368 509.606,-0 580,-0 580,-0 580,-0 1566,-0 1608.07,-0 1624.67,-13.3418 1647,-49 1683.43,-107.161 1683.75,-320.851 1682.6,-398.532"/>
<polygon fill="black" stroke="black" points="1679.1,-398.914 1682.43,-408.971 1686.1,-399.032 1679.1,-398.914"/>
<text text-anchor="middle" x="1068" y="-3.8" font-family="Times,serif" font-size="14.00">u0003</text>
</g>
<!-- 9 -->
<g id="node18" class="node"><title>9</title>
<ellipse fill="none" stroke="black" cx="581" cy="-109" rx="18" ry="18"/>
</g>
<!-- 5&#45;&gt;9 -->
<g id="edge24" class="edge"><title>5&#45;&gt;9</title>
<path fill="none" stroke="black" d="M479.644,-154.852C499.016,-146.001 532.249,-130.817 555.131,-120.363"/>
<polygon fill="black" stroke="black" points="556.592,-123.543 564.233,-116.204 553.683,-117.176 556.592,-123.543"/>
<text text-anchor="middle" x="522" y="-148.8" font-family="Times,serif" font-size="14.00">u0004</text>
</g>
<!-- 10 -->
<g id="node25" class="node"><title>10</title>
<ellipse fill="none" stroke="black" cx="1068" cy="-181" rx="18" ry="18"/>
</g>
<!-- 5&#45;&gt;10 -->
<g id="edge26" class="edge"><title>5&#45;&gt;10</title>
<path fill="none" stroke="black" d="M480.764,-166.503C503.194,-172.121 544.287,-181 580,-181 580,-181 580,-181 941,-181 975.07,-181 1014.32,-181 1039.84,-181"/>
<polygon fill="black" stroke="black" points="1039.88,-184.5 1049.88,-181 1039.88,-177.5 1039.88,-184.5"/>
<text text-anchor="middle" x="758" y="-184.8" font-family="Times,serif" font-size="14.00">u0005</text>
</g>
<!-- 9&#45;&gt;12 -->
<g id="edge29" class="edge"><title>9&#45;&gt;12</title>
<path fill="none" stroke="black" d="M598.749,-104.26C621.162,-98.346 662.237,-89 698,-89 698,-89 698,-89 1005,-89 1124.71,-89 1447.49,-126.321 1529,-214 1549.37,-235.908 1557.88,-269.795 1561.45,-293.759"/>
<polygon fill="black" stroke="black" points="1558.02,-294.519 1562.76,-303.993 1564.96,-293.629 1558.02,-294.519"/>
<text text-anchor="middle" x="1068" y="-96.8" font-family="Times,serif" font-size="14.00">u0005</text>
</g>
<!-- 9&#45;&gt;4 -->
<g id="edge28" class="edge"><title>9&#45;&gt;4</title>
<path fill="none" stroke="black" d="M594.249,-96.2745C614.093,-77.0957 655.366,-43 698,-43 698,-43 698,-43 1566,-43 1636.74,-43 1623.59,-113.252 1647,-180 1673.67,-256.021 1680.06,-351.972 1681.56,-398.755"/>
<polygon fill="black" stroke="black" points="1678.06,-398.858 1681.83,-408.76 1685.06,-398.67 1678.06,-398.858"/>
<text text-anchor="middle" x="1132" y="-46.8" font-family="Times,serif" font-size="14.00">u0003</text>
</g>
<!-- 13 -->
<g id="node19" class="node"><title>13</title>
<ellipse fill="none" stroke="black" cx="699" cy="-135" rx="18" ry="18"/>
</g>
<!-- 9&#45;&gt;13 -->
<g id="edge27" class="edge"><title>9&#45;&gt;13</title>
<path fill="none" stroke="black" d="M598.62,-112.725C617.549,-116.968 648.746,-123.96 671.14,-128.98"/>
<polygon fill="black" stroke="black" points="670.51,-132.425 681.034,-131.197 672.041,-125.595 670.51,-132.425"/>
<text text-anchor="middle" x="640" y="-130.8" font-family="Times,serif" font-size="14.00">u0004</text>
</g>
<!-- 17 -->
<g id="node20" class="node"><title>17</title>
<ellipse fill="none" stroke="black" cx="817" cy="-135" rx="18" ry="18"/>
</g>
<!-- 13&#45;&gt;17 -->
<g id="edge30" class="edge"><title>13&#45;&gt;17</title>
<path fill="none" stroke="black" d="M717.116,-135C735.964,-135 766.531,-135 788.696,-135"/>
<polygon fill="black" stroke="black" points="788.814,-138.5 798.814,-135 788.814,-131.5 788.814,-138.5"/>
<text text-anchor="middle" x="758" y="-138.8" font-family="Times,serif" font-size="14.00">u0005</text>
</g>
<!-- 22 -->
<g id="node21" class="node"><title>22</title>
<ellipse fill="none" stroke="black" cx="940" cy="-135" rx="18" ry="18"/>
</g>
<!-- 17&#45;&gt;22 -->
<g id="edge31" class="edge"><title>17&#45;&gt;22</title>
<path fill="none" stroke="black" d="M835.08,-135C854.965,-135 888.077,-135 911.577,-135"/>
<polygon fill="black" stroke="black" points="911.615,-138.5 921.615,-135 911.615,-131.5 911.615,-138.5"/>
<text text-anchor="middle" x="876" y="-138.8" font-family="Times,serif" font-size="14.00">u0005</text>
</g>
<!-- 24 -->
<g id="node22" class="node"><title>24</title>
<ellipse fill="none" stroke="black" cx="1068" cy="-271" rx="18" ry="18"/>
</g>
<!-- 22&#45;&gt;24 -->
<g id="edge32" class="edge"><title>22&#45;&gt;24</title>
<path fill="none" stroke="black" d="M953.081,-148.04C975.152,-171.862 1022.12,-222.562 1048.33,-250.853"/>
<polygon fill="black" stroke="black" points="1045.78,-253.241 1055.14,-258.198 1050.91,-248.483 1045.78,-253.241"/>
<text text-anchor="middle" x="1004" y="-231.8" font-family="Times,serif" font-size="14.00">u0005</text>
</g>
<!-- 26 -->
<g id="node23" class="node"><title>26</title>
<ellipse fill="none" stroke="black" cx="1196" cy="-309" rx="18" ry="18"/>
</g>
<!-- 24&#45;&gt;26 -->
<g id="edge33" class="edge"><title>24&#45;&gt;26</title>
<path fill="none" stroke="black" d="M1085.47,-275.968C1106.7,-282.369 1143.84,-293.57 1168.92,-301.134"/>
<polygon fill="black" stroke="black" points="1167.94,-304.494 1178.52,-304.031 1169.96,-297.793 1167.94,-304.494"/>
<text text-anchor="middle" x="1132" y="-300.8" font-family="Times,serif" font-size="14.00">u0005</text>
</g>
<!-- 28 -->
<g id="node24" class="node"><title>28</title>
<ellipse fill="none" stroke="black" cx="1324" cy="-326" rx="18" ry="18"/>
</g>
<!-- 26&#45;&gt;28 -->
<g id="edge34" class="edge"><title>26&#45;&gt;28</title>
<path fill="none" stroke="black" d="M1213.99,-311.293C1234.94,-314.119 1270.81,-318.959 1295.65,-322.31"/>
<polygon fill="black" stroke="black" points="1295.5,-325.821 1305.87,-323.689 1296.43,-318.884 1295.5,-325.821"/>
<text text-anchor="middle" x="1260" y="-324.8" font-family="Times,serif" font-size="14.00">u0005</text>
</g>
<!-- 28&#45;&gt;7 -->
<g id="edge35" class="edge"><title>28&#45;&gt;7</title>
<path fill="none" stroke="black" d="M1341.9,-328.912C1359.31,-332.011 1387.18,-337.253 1411,-343 1413.88,-343.695 1416.88,-344.47 1419.86,-345.274"/>
<polygon fill="black" stroke="black" points="1419.12,-348.702 1429.69,-348.037 1421.01,-341.963 1419.12,-348.702"/>
<text text-anchor="middle" x="1388" y="-346.8" font-family="Times,serif" font-size="14.00">u0004</text>
</g>
<!-- 10&#45;&gt;4 -->
<g id="edge37" class="edge"><title>10&#45;&gt;4</title>
<path fill="none" stroke="black" d="M1084.11,-172.557C1144.61,-139.985 1373.53,-28.54 1529,-115 1635.41,-174.176 1669.13,-333.966 1678.64,-398.946"/>
<polygon fill="black" stroke="black" points="1675.23,-399.805 1680.06,-409.234 1682.16,-398.85 1675.23,-399.805"/>
<text text-anchor="middle" x="1388" y="-87.8" font-family="Times,serif" font-size="14.00">u0003</text>
</g>
<!-- 14 -->
<g id="node26" class="node"><title>14</title>
<ellipse fill="none" stroke="black" cx="1196" cy="-181" rx="18" ry="18"/>
</g>
<!-- 10&#45;&gt;14 -->
<g id="edge36" class="edge"><title>10&#45;&gt;14</title>
<path fill="none" stroke="black" d="M1086.26,-181C1107.27,-181 1143.03,-181 1167.77,-181"/>
<polygon fill="black" stroke="black" points="1167.95,-184.5 1177.95,-181 1167.95,-177.5 1167.95,-184.5"/>
<text text-anchor="middle" x="1132" y="-184.8" font-family="Times,serif" font-size="14.00">u0004</text>
</g>
<!-- 15 -->
<g id="node28" class="node"><title>15</title>
<ellipse fill="none" stroke="black" cx="1196" cy="-247" rx="18" ry="18"/>
</g>
<!-- 10&#45;&gt;15 -->
<g id="edge38" class="edge"><title>10&#45;&gt;15</title>
<path fill="none" stroke="black" d="M1084.45,-189.093C1106.01,-200.386 1145.33,-220.984 1170.8,-234.324"/>
<polygon fill="black" stroke="black" points="1169.33,-237.507 1179.82,-239.047 1172.58,-231.307 1169.33,-237.507"/>
<text text-anchor="middle" x="1132" y="-229.8" font-family="Times,serif" font-size="14.00">u0005</text>
</g>
<!-- 14&#45;&gt;19 -->
<g id="edge40" class="edge"><title>14&#45;&gt;19</title>
<path fill="none" stroke="black" d="M1213.27,-187.349C1220.5,-190.107 1229.14,-193.314 1237,-196 1285.42,-212.546 1298.94,-212.429 1347,-230 1372.65,-239.378 1401.31,-251.753 1421.17,-260.637"/>
<polygon fill="black" stroke="black" points="1419.87,-263.889 1430.42,-264.81 1422.75,-257.508 1419.87,-263.889"/>
<text text-anchor="middle" x="1324" y="-233.8" font-family="Times,serif" font-size="14.00">u0005</text>
</g>
<!-- 18 -->
<g id="node27" class="node"><title>18</title>
<ellipse fill="none" stroke="black" cx="1324" cy="-167" rx="18" ry="18"/>
</g>
<!-- 14&#45;&gt;18 -->
<g id="edge39" class="edge"><title>14&#45;&gt;18</title>
<path fill="none" stroke="black" d="M1213.99,-179.112C1234.94,-176.784 1270.81,-172.799 1295.65,-170.038"/>
<polygon fill="black" stroke="black" points="1296.32,-173.486 1305.87,-168.903 1295.55,-166.529 1296.32,-173.486"/>
<text text-anchor="middle" x="1260" y="-180.8" font-family="Times,serif" font-size="14.00">u0004</text>
</g>
<!-- 18&#45;&gt;4 -->
<g id="edge41" class="edge"><title>18&#45;&gt;4</title>
<path fill="none" stroke="black" d="M1342.04,-167.661C1359.8,-168.83 1388.18,-172.062 1411,-181 1496.39,-214.45 1510.35,-239.027 1583,-295 1613.17,-318.247 1624.26,-321.446 1647,-352 1657.94,-366.703 1666.67,-385.375 1672.68,-400.41"/>
<polygon fill="black" stroke="black" points="1669.55,-402.049 1676.39,-410.145 1676.09,-399.554 1669.55,-402.049"/>
<text text-anchor="middle" x="1506" y="-255.8" font-family="Times,serif" font-size="14.00">u0003</text>
</g>
<!-- 18&#45;&gt;19 -->
<g id="edge42" class="edge"><title>18&#45;&gt;19</title>
<path fill="none" stroke="black" d="M1341.53,-171.964C1363.44,-178.803 1400.55,-191.371 1411,-201 1423.81,-212.805 1432.51,-230.325 1438.04,-245.007"/>
<polygon fill="black" stroke="black" points="1434.79,-246.311 1441.37,-254.614 1441.4,-244.019 1434.79,-246.311"/>
<text text-anchor="middle" x="1388" y="-204.8" font-family="Times,serif" font-size="14.00">u0005</text>
</g>
<!-- 20 -->
<g id="node29" class="node"><title>20</title>
<ellipse fill="none" stroke="black" cx="1324" cy="-272" rx="18" ry="18"/>
</g>
<!-- 15&#45;&gt;20 -->
<g id="edge43" class="edge"><title>15&#45;&gt;20</title>
<path fill="none" stroke="black" d="M1213.73,-250.32C1234.82,-254.504 1271.32,-261.746 1296.28,-266.699"/>
<polygon fill="black" stroke="black" points="1295.71,-270.153 1306.2,-268.666 1297.07,-263.287 1295.71,-270.153"/>
<text text-anchor="middle" x="1260" y="-267.8" font-family="Times,serif" font-size="14.00">u0005</text>
</g>
<!-- 20&#45;&gt;19 -->
<g id="edge44" class="edge"><title>20&#45;&gt;19</title>
<path fill="none" stroke="black" d="M1342.08,-272C1361.96,-272 1395.08,-272 1418.58,-272"/>
<polygon fill="black" stroke="black" points="1418.62,-275.5 1428.62,-272 1418.62,-268.5 1418.62,-275.5"/>
<text text-anchor="middle" x="1388" y="-275.8" font-family="Times,serif" font-size="14.00">u0005</text>
</g>
<!-- initial -->
<g id="node30" class="node"><title>initial</title>
</g>
<!-- initial&#45;&gt;0 -->
<g id="edge45" class="edge"><title>initial&#45;&gt;0</title>
<path fill="none" stroke="black" d="M54.195,-581C62.6538,-581 72.0513,-581 80.5951,-581"/>
<polygon fill="black" stroke="black" points="80.8257,-584.5 90.8257,-581 80.8257,-577.5 80.8257,-584.5"/>
</g>
</g>
</svg>
