<svg width="1620px" height="235px"
 viewBox="0.00 0.00 1215.00 176.00" xmlns="http://www.w3.org/2000/svg" xmlns:xlink="http://www.w3.org/1999/xlink">
<g id="graph0" class="graph" transform="scale(1.000022500562514 1.000022500562514) rotate(0) translate(4 172)">
<title>Automaton</title>
<polygon fill="white" stroke="none" points="-4,4 -4,-172 1211,-172 1211,4 -4,4"/>
<!-- 0 -->
<g id="node1" class="node"><title>0</title>
<ellipse fill="none" stroke="black" cx="109" cy="-138" rx="18" ry="18"/>
</g>
<!-- 1 -->
<g id="node2" class="node"><title>1</title>
<ellipse fill="none" stroke="black" cx="227" cy="-138" rx="18" ry="18"/>
</g>
<!-- 0&#45;&gt;1 -->
<g id="edge1" class="edge"><title>0&#45;&gt;1</title>
<path fill="none" stroke="black" d="M127.116,-138C145.964,-138 176.531,-138 198.696,-138"/>
<polygon fill="black" stroke="black" points="198.814,-141.5 208.814,-138 198.814,-134.5 198.814,-141.5"/>
<text text-anchor="middle" x="168" y="-141.8" font-family="Times,serif" font-size="14.00">u0000</text>
</g>
<!-- 2 -->
<g id="node3" class="node"><title>2</title>
<ellipse fill="none" stroke="black" cx="345" cy="-138" rx="18" ry="18"/>
</g>
<!-- 1&#45;&gt;2 -->
<g id="edge2" class="edge"><title>1&#45;&gt;2</title>
<path fill="none" stroke="black" d="M245.116,-138C263.964,-138 294.531,-138 316.696,-138"/>
<polygon fill="black" stroke="black" points="316.814,-141.5 326.814,-138 316.814,-134.5 316.814,-141.5"/>
<text text-anchor="middle" x="286" y="-141.8" font-family="Times,serif" font-size="14.00">u0004</text>
</g>
<!-- 3 -->
<g id="node4" class="node"><title>3</title>
<ellipse fill="none" stroke="black" cx="463" cy="-138" rx="18" ry="18"/>
</g>
<!-- 2&#45;&gt;3 -->
<g id="edge3" class="edge"><title>2&#45;&gt;3</title>
<path fill="none" stroke="black" d="M363.116,-138C381.964,-138 412.531,-138 434.696,-138"/>
<polygon fill="black" stroke="black" points="434.814,-141.5 444.814,-138 434.814,-134.5 434.814,-141.5"/>
<text text-anchor="middle" x="404" y="-141.8" font-family="Times,serif" font-size="14.00">u0005</text>
</g>
<!-- 4 -->
<g id="node5" class="node"><title>4</title>
<ellipse fill="none" stroke="black" cx="1063" cy="-87" rx="18" ry="18"/>
</g>
<!-- 3&#45;&gt;4 -->
<g id="edge4" class="edge"><title>3&#45;&gt;4</title>
<path fill="none" stroke="black" d="M480.817,-141.555C503.305,-145.99 544.464,-153 580,-153 580,-153 580,-153 946,-153 983.804,-153 1020.54,-126.192 1042.21,-106.746"/>
<polygon fill="black" stroke="black" points="1044.82,-109.102 1049.75,-99.7255 1040.05,-103.979 1044.82,-109.102"/>
<text text-anchor="middle" x="758" y="-156.8" font-family="Times,serif" font-size="14.00">u0002</text>
</g>
<!-- 5 -->
<g id="node7" class="node"><title>5</title>
<ellipse fill="none" stroke="black" cx="581" cy="-107" rx="18" ry="18"/>
</g>
<!-- 3&#45;&gt;5 -->
<g id="edge5" class="edge"><title>3&#45;&gt;5</title>
<path fill="none" stroke="black" d="M479.822,-130.994C485.756,-128.547 492.61,-125.932 499,-124 516.656,-118.66 536.973,-114.401 552.843,-111.481"/>
<polygon fill="black" stroke="black" points="553.795,-114.867 563.031,-109.677 552.574,-107.974 553.795,-114.867"/>
<text text-anchor="middle" x="522" y="-127.8" font-family="Times,serif" font-size="14.00">u0001</text>
</g>
<!-- 6 -->
<g id="node6" class="node"><title>6</title>
<ellipse fill="none" stroke="black" cx="1185" cy="-87" rx="18" ry="18"/>
<ellipse fill="none" stroke="black" cx="1185" cy="-87" rx="22" ry="22"/>
</g>
<!-- 4&#45;&gt;6 -->
<g id="edge6" class="edge"><title>4&#45;&gt;6</title>
<path fill="none" stroke="black" d="M1081.19,-87C1099.77,-87 1129.76,-87 1152.57,-87"/>
<polygon fill="black" stroke="black" points="1152.79,-90.5001 1162.79,-87 1152.79,-83.5001 1152.79,-90.5001"/>
<text text-anchor="middle" x="1122" y="-90.8" font-family="Times,serif" font-size="14.00">u0003</text>
</g>
<!-- 5&#45;&gt;4 -->
<g id="edge7" class="edge"><title>5&#45;&gt;4</title>
<path fill="none" stroke="black" d="M599.291,-107.726C621.955,-108.614 662.947,-110 698,-110 698,-110 698,-110 946,-110 977.335,-110 1012.54,-101.825 1035.86,-95.2223"/>
<polygon fill="black" stroke="black" points="1037.08,-98.5131 1045.68,-92.3345 1035.1,-91.7974 1037.08,-98.5131"/>
<text text-anchor="middle" x="822" y="-113.8" font-family="Times,serif" font-size="14.00">u0002</text>
</g>
<!-- 7 -->
<g id="node8" class="node"><title>7</title>
<ellipse fill="none" stroke="black" cx="699" cy="-64" rx="18" ry="18"/>
</g>
<!-- 5&#45;&gt;7 -->
<g id="edge8" class="edge"><title>5&#45;&gt;7</title>
<path fill="none" stroke="black" d="M595.096,-95.1446C601.33,-90.0847 609.131,-84.5415 617,-81 633.928,-73.3818 654.398,-69.1233 670.525,-66.7736"/>
<polygon fill="black" stroke="black" points="671.429,-70.186 680.899,-65.434 670.533,-63.2436 671.429,-70.186"/>
<text text-anchor="middle" x="640" y="-84.8" font-family="Times,serif" font-size="14.00">u0001</text>
</g>
<!-- 7&#45;&gt;4 -->
<g id="edge9" class="edge"><title>7&#45;&gt;4</title>
<path fill="none" stroke="black" d="M716.974,-65.0785C774.56,-68.7372 962.847,-80.7002 1034.23,-85.2354"/>
<polygon fill="black" stroke="black" points="1034.44,-88.7559 1044.64,-85.8971 1034.88,-81.77 1034.44,-88.7559"/>
<text text-anchor="middle" x="886" y="-81.8" font-family="Times,serif" font-size="14.00">u0002</text>
</g>
<!-- 8 -->
<g id="node9" class="node"><title>8</title>
<ellipse fill="none" stroke="black" cx="822" cy="-18" rx="18" ry="18"/>
</g>
<!-- 7&#45;&gt;8 -->
<g id="edge10" class="edge"><title>7&#45;&gt;8</title>
<path fill="none" stroke="black" d="M712.215,-51.2878C718.496,-45.4696 726.589,-38.996 735,-35 753.442,-26.2379 776.173,-21.9907 793.633,-19.9326"/>
<polygon fill="black" stroke="black" points="794.139,-23.3994 803.738,-18.9133 793.437,-16.4347 794.139,-23.3994"/>
<text text-anchor="middle" x="758" y="-38.8" font-family="Times,serif" font-size="14.00">u0001</text>
</g>
<!-- 9 -->
<g id="node10" class="node"><title>9</title>
<ellipse fill="none" stroke="black" cx="945" cy="-18" rx="18" ry="18"/>
</g>
<!-- 8&#45;&gt;9 -->
<g id="edge11" class="edge"><title>8&#45;&gt;9</title>
<path fill="none" stroke="black" d="M840.08,-18C859.965,-18 893.077,-18 916.577,-18"/>
<polygon fill="black" stroke="black" points="916.615,-21.5001 926.615,-18 916.615,-14.5001 916.615,-21.5001"/>
<text text-anchor="middle" x="886" y="-21.8" font-family="Times,serif" font-size="14.00">u0001</text>
</g>
<!-- 9&#45;&gt;4 -->
<g id="edge12" class="edge"><title>9&#45;&gt;4</title>
<path fill="none" stroke="black" d="M963.257,-17.9476C980.721,-18.6862 1007.81,-22.0789 1027,-35 1036.71,-41.5406 1044.45,-51.7706 1050.14,-61.4327"/>
<polygon fill="black" stroke="black" points="1047.15,-63.252 1054.99,-70.3833 1053.31,-59.9222 1047.15,-63.252"/>
<text text-anchor="middle" x="1004" y="-38.8" font-family="Times,serif" font-size="14.00">u0002</text>
</g>
<!-- initial -->
<g id="node11" class="node"><title>initial</title>
</g>
<!-- initial&#45;&gt;0 -->
<g id="edge13" class="edge"><title>initial&#45;&gt;0</title>
<path fill="none" stroke="black" d="M54.195,-138C62.6538,-138 72.0513,-138 80.5951,-138"/>
<polygon fill="black" stroke="black" points="80.8257,-141.5 90.8257,-138 80.8257,-134.5 80.8257,-141.5"/>
</g>
</g>
</svg>
