<svg width="2289px" height="693px"
 viewBox="0.00 0.00 1717.00 520.00" xmlns="http://www.w3.org/2000/svg" xmlns:xlink="http://www.w3.org/1999/xlink">
<g id="graph0" class="graph" transform="scale(1.000022500562514 1.000022500562514) rotate(0) translate(4 516)">
<title>Automaton</title>
<polygon fill="white" stroke="none" points="-4,4 -4,-516 1713,-516 1713,4 -4,4"/>
<!-- 0 -->
<g id="node1" class="node"><title>0</title>
<ellipse fill="none" stroke="black" cx="109" cy="-157" rx="18" ry="18"/>
</g>
<!-- 1 -->
<g id="node2" class="node"><title>1</title>
<ellipse fill="none" stroke="black" cx="227" cy="-157" rx="18" ry="18"/>
</g>
<!-- 0&#45;&gt;1 -->
<g id="edge1" class="edge"><title>0&#45;&gt;1</title>
<path fill="none" stroke="black" d="M127.116,-157C145.964,-157 176.531,-157 198.696,-157"/>
<polygon fill="black" stroke="black" points="198.814,-160.5 208.814,-157 198.814,-153.5 198.814,-160.5"/>
<text text-anchor="middle" x="168" y="-160.8" font-family="Times,serif" font-size="14.00">u0004</text>
</g>
<!-- 2 -->
<g id="node3" class="node"><title>2</title>
<ellipse fill="none" stroke="black" cx="345" cy="-157" rx="18" ry="18"/>
</g>
<!-- 1&#45;&gt;2 -->
<g id="edge2" class="edge"><title>1&#45;&gt;2</title>
<path fill="none" stroke="black" d="M245.116,-157C263.964,-157 294.531,-157 316.696,-157"/>
<polygon fill="black" stroke="black" points="316.814,-160.5 326.814,-157 316.814,-153.5 316.814,-160.5"/>
<text text-anchor="middle" x="286" y="-160.8" font-family="Times,serif" font-size="14.00">u0005</text>
</g>
<!-- 3 -->
<g id="node4" class="node"><title>3</title>
<ellipse fill="none" stroke="black" cx="940" cy="-361" rx="18" ry="18"/>
</g>
<!-- 2&#45;&gt;3 -->
<g id="edge3" class="edge"><title>2&#45;&gt;3</title>
<path fill="none" stroke="black" d="M347.952,-174.83C354.344,-223.323 379.246,-354 462,-354 462,-354 462,-354 818,-354 850.26,-354 887.278,-356.511 911.784,-358.525"/>
<polygon fill="black" stroke="black" points="911.525,-362.015 921.786,-359.376 912.119,-355.04 911.525,-362.015"/>
<text text-anchor="middle" x="640" y="-357.8" font-family="Times,serif" font-size="14.00">u0003</text>
</g>
<!-- 4 -->
<g id="node9" class="node"><title>4</title>
<ellipse fill="none" stroke="black" cx="1565" cy="-215" rx="18" ry="18"/>
</g>
<!-- 2&#45;&gt;4 -->
<g id="edge4" class="edge"><title>2&#45;&gt;4</title>
<path fill="none" stroke="black" d="M350.011,-139.598C360.573,-98.7215 393.204,-0 462,-0 462,-0 462,-0 1443,-0 1486.56,-0 1503.06,-12.0109 1529,-47 1545.2,-68.8505 1556.1,-145.007 1561.01,-186.879"/>
<polygon fill="black" stroke="black" points="1557.55,-187.435 1562.16,-196.976 1564.51,-186.644 1557.55,-187.435"/>
<text text-anchor="middle" x="940" y="-3.8" font-family="Times,serif" font-size="14.00">u0002</text>
</g>
<!-- 5 -->
<g id="node14" class="node"><title>5</title>
<ellipse fill="none" stroke="black" cx="463" cy="-157" rx="18" ry="18"/>
</g>
<!-- 2&#45;&gt;5 -->
<g id="edge5" class="edge"><title>2&#45;&gt;5</title>
<path fill="none" stroke="black" d="M363.116,-157C381.964,-157 412.531,-157 434.696,-157"/>
<polygon fill="black" stroke="black" points="434.814,-160.5 444.814,-157 434.814,-153.5 434.814,-160.5"/>
<text text-anchor="middle" x="404" y="-160.8" font-family="Times,serif" font-size="14.00">u0001</text>
</g>
<!-- 6 -->
<g id="node5" class="node"><title>6</title>
<ellipse fill="none" stroke="black" cx="1068" cy="-325" rx="18" ry="18"/>
</g>
<!-- 3&#45;&gt;6 -->
<g id="edge6" class="edge"><title>3&#45;&gt;6</title>
<path fill="none" stroke="black" d="M957.472,-356.294C978.602,-350.257 1015.51,-339.712 1040.58,-332.548"/>
<polygon fill="black" stroke="black" points="1041.87,-335.82 1050.52,-329.708 1039.95,-329.089 1041.87,-335.82"/>
<text text-anchor="middle" x="1004" y="-352.8" font-family="Times,serif" font-size="14.00">u0003</text>
</g>
<!-- 3&#45;&gt;4 -->
<g id="edge7" class="edge"><title>3&#45;&gt;4</title>
<path fill="none" stroke="black" d="M947.209,-377.676C961.932,-413.992 1002.63,-497 1067,-497 1067,-497 1067,-497 1443,-497 1552.71,-497 1564.21,-314.525 1564.51,-243.144"/>
<polygon fill="black" stroke="black" points="1568.01,-243.059 1564.48,-233.069 1561.01,-243.08 1568.01,-243.059"/>
<text text-anchor="middle" x="1250" y="-500.8" font-family="Times,serif" font-size="14.00">u0002</text>
</g>
<!-- 7 -->
<g id="node11" class="node"><title>7</title>
<ellipse fill="none" stroke="black" cx="1068" cy="-399" rx="18" ry="18"/>
</g>
<!-- 3&#45;&gt;7 -->
<g id="edge8" class="edge"><title>3&#45;&gt;7</title>
<path fill="none" stroke="black" d="M957.472,-365.968C978.696,-372.369 1015.84,-383.57 1040.92,-391.134"/>
<polygon fill="black" stroke="black" points="1039.94,-394.494 1050.52,-394.031 1041.96,-387.793 1039.94,-394.494"/>
<text text-anchor="middle" x="1004" y="-389.8" font-family="Times,serif" font-size="14.00">u0001</text>
</g>
<!-- 11 -->
<g id="node6" class="node"><title>11</title>
<ellipse fill="none" stroke="black" cx="1191" cy="-216" rx="18" ry="18"/>
</g>
<!-- 6&#45;&gt;11 -->
<g id="edge9" class="edge"><title>6&#45;&gt;11</title>
<path fill="none" stroke="black" d="M1081.95,-313.335C1102.96,-294.404 1144.66,-256.847 1169.66,-234.323"/>
<polygon fill="black" stroke="black" points="1172.06,-236.875 1177.14,-227.581 1167.37,-231.674 1172.06,-236.875"/>
<text text-anchor="middle" x="1132" y="-289.8" font-family="Times,serif" font-size="14.00">u0003</text>
</g>
<!-- 6&#45;&gt;4 -->
<g id="edge10" class="edge"><title>6&#45;&gt;4</title>
<path fill="none" stroke="black" d="M1086.12,-324.842C1118.12,-324.56 1189.16,-324 1249,-324 1249,-324 1249,-324 1443,-324 1492.92,-324 1531.54,-272.146 1550.7,-239.968"/>
<polygon fill="black" stroke="black" points="1553.86,-241.499 1555.8,-231.083 1547.79,-238.016 1553.86,-241.499"/>
<text text-anchor="middle" x="1314" y="-327.8" font-family="Times,serif" font-size="14.00">u0002</text>
</g>
<!-- 15 -->
<g id="node7" class="node"><title>15</title>
<ellipse fill="none" stroke="black" cx="1314" cy="-216" rx="18" ry="18"/>
</g>
<!-- 11&#45;&gt;15 -->
<g id="edge11" class="edge"><title>11&#45;&gt;15</title>
<path fill="none" stroke="black" d="M1209.08,-216C1228.96,-216 1262.08,-216 1285.58,-216"/>
<polygon fill="black" stroke="black" points="1285.62,-219.5 1295.62,-216 1285.62,-212.5 1285.62,-219.5"/>
<text text-anchor="middle" x="1250" y="-219.8" font-family="Times,serif" font-size="14.00">u0001</text>
</g>
<!-- 13 -->
<g id="node8" class="node"><title>13</title>
<ellipse fill="none" stroke="black" cx="1442" cy="-215" rx="18" ry="18"/>
</g>
<!-- 15&#45;&gt;13 -->
<g id="edge12" class="edge"><title>15&#45;&gt;13</title>
<path fill="none" stroke="black" d="M1331.65,-212.421C1338.8,-211.058 1347.27,-209.671 1355,-209 1375.37,-207.231 1380.61,-207.479 1401,-209 1405.14,-209.308 1409.49,-209.794 1413.75,-210.358"/>
<polygon fill="black" stroke="black" points="1413.53,-213.864 1423.93,-211.868 1414.56,-206.94 1413.53,-213.864"/>
<text text-anchor="middle" x="1378" y="-212.8" font-family="Times,serif" font-size="14.00">u0001</text>
</g>
<!-- 13&#45;&gt;4 -->
<g id="edge13" class="edge"><title>13&#45;&gt;4</title>
<path fill="none" stroke="black" d="M1460.08,-215C1479.96,-215 1513.08,-215 1536.58,-215"/>
<polygon fill="black" stroke="black" points="1536.62,-218.5 1546.62,-215 1536.62,-211.5 1536.62,-218.5"/>
<text text-anchor="middle" x="1506" y="-218.8" font-family="Times,serif" font-size="14.00">u0002</text>
</g>
<!-- 8 -->
<g id="node10" class="node"><title>8</title>
<ellipse fill="none" stroke="black" cx="1687" cy="-215" rx="18" ry="18"/>
<ellipse fill="none" stroke="black" cx="1687" cy="-215" rx="22" ry="22"/>
</g>
<!-- 4&#45;&gt;8 -->
<g id="edge14" class="edge"><title>4&#45;&gt;8</title>
<path fill="none" stroke="black" d="M1583.19,-215C1601.77,-215 1631.76,-215 1654.57,-215"/>
<polygon fill="black" stroke="black" points="1654.79,-218.5 1664.79,-215 1654.79,-211.5 1654.79,-218.5"/>
<text text-anchor="middle" x="1624" y="-218.8" font-family="Times,serif" font-size="14.00">u0000</text>
</g>
<!-- 7&#45;&gt;13 -->
<g id="edge17" class="edge"><title>7&#45;&gt;13</title>
<path fill="none" stroke="black" d="M1085.86,-395.592C1106.37,-391.56 1142.09,-384.902 1173,-381 1247.23,-371.627 1277.79,-388.745 1337,-343 1357.4,-327.238 1400.56,-270.319 1424.36,-237.942"/>
<polygon fill="black" stroke="black" points="1427.45,-239.652 1430.53,-229.515 1421.8,-235.518 1427.45,-239.652"/>
<text text-anchor="middle" x="1250" y="-380.8" font-family="Times,serif" font-size="14.00">u0001</text>
</g>
<!-- 7&#45;&gt;4 -->
<g id="edge16" class="edge"><title>7&#45;&gt;4</title>
<path fill="none" stroke="black" d="M1082.6,-409.866C1104.09,-425.895 1147.77,-454 1190,-454 1190,-454 1190,-454 1443,-454 1536.64,-454 1557.83,-306.148 1562.61,-243.024"/>
<polygon fill="black" stroke="black" points="1566.11,-243.176 1563.29,-232.964 1559.13,-242.707 1566.11,-243.176"/>
<text text-anchor="middle" x="1314" y="-457.8" font-family="Times,serif" font-size="14.00">u0002</text>
</g>
<!-- 12 -->
<g id="node12" class="node"><title>12</title>
<ellipse fill="none" stroke="black" cx="1191" cy="-408" rx="18" ry="18"/>
</g>
<!-- 7&#45;&gt;12 -->
<g id="edge15" class="edge"><title>7&#45;&gt;12</title>
<path fill="none" stroke="black" d="M1086.08,-400.27C1106.08,-401.758 1139.45,-404.24 1162.98,-405.99"/>
<polygon fill="black" stroke="black" points="1162.78,-409.485 1173.01,-406.736 1163.29,-402.504 1162.78,-409.485"/>
<text text-anchor="middle" x="1132" y="-408.8" font-family="Times,serif" font-size="14.00">u0003</text>
</g>
<!-- 10 -->
<g id="node13" class="node"><title>10</title>
<ellipse fill="none" stroke="black" cx="1314" cy="-270" rx="18" ry="18"/>
</g>
<!-- 12&#45;&gt;10 -->
<g id="edge18" class="edge"><title>12&#45;&gt;10</title>
<path fill="none" stroke="black" d="M1201.5,-393.098C1208.22,-382.906 1217.67,-369.256 1227,-358 1247.81,-332.903 1274.38,-306.452 1292.44,-289.182"/>
<polygon fill="black" stroke="black" points="1295.24,-291.351 1300.08,-281.931 1290.42,-286.271 1295.24,-291.351"/>
<text text-anchor="middle" x="1250" y="-361.8" font-family="Times,serif" font-size="14.00">u0001</text>
</g>
<!-- 10&#45;&gt;13 -->
<g id="edge20" class="edge"><title>10&#45;&gt;13</title>
<path fill="none" stroke="black" d="M1329.88,-260.658C1337.28,-256.218 1346.44,-251.018 1355,-247 1374.46,-237.86 1397.31,-229.461 1414.56,-223.564"/>
<polygon fill="black" stroke="black" points="1416.13,-226.729 1424.5,-220.231 1413.91,-220.092 1416.13,-226.729"/>
<text text-anchor="middle" x="1378" y="-250.8" font-family="Times,serif" font-size="14.00">u0001</text>
</g>
<!-- 10&#45;&gt;4 -->
<g id="edge19" class="edge"><title>10&#45;&gt;4</title>
<path fill="none" stroke="black" d="M1332.21,-269.301C1369.31,-267.327 1459.09,-260.023 1529,-234 1532.83,-232.575 1536.75,-230.797 1540.52,-228.903"/>
<polygon fill="black" stroke="black" points="1542.3,-231.92 1549.45,-224.096 1538.98,-225.757 1542.3,-231.92"/>
<text text-anchor="middle" x="1442" y="-263.8" font-family="Times,serif" font-size="14.00">u0002</text>
</g>
<!-- 5&#45;&gt;4 -->
<g id="edge22" class="edge"><title>5&#45;&gt;4</title>
<path fill="none" stroke="black" d="M471.241,-140.667C486.455,-109.145 524.939,-43 580,-43 580,-43 580,-43 1443,-43 1487.44,-43 1501.81,-58.8549 1529,-94 1549.94,-121.057 1558.35,-160.233 1561.74,-186.611"/>
<polygon fill="black" stroke="black" points="1558.28,-187.171 1562.87,-196.72 1565.23,-186.393 1558.28,-187.171"/>
<text text-anchor="middle" x="1004" y="-46.8" font-family="Times,serif" font-size="14.00">u0002</text>
</g>
<!-- 5&#45;&gt;10 -->
<g id="edge23" class="edge"><title>5&#45;&gt;10</title>
<path fill="none" stroke="black" d="M472.093,-172.947C488.265,-202.321 527.574,-262 580,-262 580,-262 580,-262 1192,-262 1224.28,-262 1261.29,-264.869 1285.79,-267.171"/>
<polygon fill="black" stroke="black" points="1285.5,-270.659 1295.79,-268.145 1286.18,-263.692 1285.5,-270.659"/>
<text text-anchor="middle" x="876" y="-265.8" font-family="Times,serif" font-size="14.00">u0001</text>
</g>
<!-- 9 -->
<g id="node15" class="node"><title>9</title>
<ellipse fill="none" stroke="black" cx="581" cy="-157" rx="18" ry="18"/>
</g>
<!-- 5&#45;&gt;9 -->
<g id="edge21" class="edge"><title>5&#45;&gt;9</title>
<path fill="none" stroke="black" d="M481.116,-157C499.964,-157 530.531,-157 552.696,-157"/>
<polygon fill="black" stroke="black" points="552.814,-160.5 562.814,-157 552.814,-153.5 552.814,-160.5"/>
<text text-anchor="middle" x="522" y="-160.8" font-family="Times,serif" font-size="14.00">u0003</text>
</g>
<!-- 9&#45;&gt;13 -->
<g id="edge24" class="edge"><title>9&#45;&gt;13</title>
<path fill="none" stroke="black" d="M593.89,-169.602C613.556,-189.01 654.975,-224 698,-224 698,-224 698,-224 1005,-224 1044.14,-224 1056.67,-223.815 1091,-205 1100.92,-199.562 1098.55,-191.33 1109,-187 1126.69,-179.672 1107.35,-162.898 1337,-189 1364.05,-192.075 1394.15,-200.125 1414.97,-206.461"/>
<polygon fill="black" stroke="black" points="1414.09,-209.851 1424.68,-209.493 1416.17,-203.17 1414.09,-209.851"/>
<text text-anchor="middle" x="1004" y="-227.8" font-family="Times,serif" font-size="14.00">u0003</text>
</g>
<!-- 9&#45;&gt;4 -->
<g id="edge25" class="edge"><title>9&#45;&gt;4</title>
<path fill="none" stroke="black" d="M593.853,-144.21C613.466,-124.512 654.813,-89 698,-89 698,-89 698,-89 1443,-89 1487.21,-89 1499.26,-106.287 1529,-139 1541.67,-152.931 1550.48,-172.236 1556.09,-187.903"/>
<polygon fill="black" stroke="black" points="1552.84,-189.207 1559.33,-197.581 1559.48,-186.987 1552.84,-189.207"/>
<text text-anchor="middle" x="1068" y="-92.8" font-family="Times,serif" font-size="14.00">u0002</text>
</g>
<!-- 14 -->
<g id="node16" class="node"><title>14</title>
<ellipse fill="none" stroke="black" cx="699" cy="-157" rx="18" ry="18"/>
</g>
<!-- 9&#45;&gt;14 -->
<g id="edge26" class="edge"><title>9&#45;&gt;14</title>
<path fill="none" stroke="black" d="M599.116,-157C617.964,-157 648.531,-157 670.696,-157"/>
<polygon fill="black" stroke="black" points="670.814,-160.5 680.814,-157 670.814,-153.5 670.814,-160.5"/>
<text text-anchor="middle" x="640" y="-160.8" font-family="Times,serif" font-size="14.00">u0001</text>
</g>
<!-- 14&#45;&gt;4 -->
<g id="edge27" class="edge"><title>14&#45;&gt;4</title>
<path fill="none" stroke="black" d="M716.282,-151.202C738.51,-143.816 779.742,-132 816,-132 816,-132 816,-132 1443,-132 1486.26,-132 1525.36,-168.517 1546.8,-193.108"/>
<polygon fill="black" stroke="black" points="1544.25,-195.52 1553.37,-200.92 1549.61,-191.014 1544.25,-195.52"/>
<text text-anchor="middle" x="1132" y="-135.8" font-family="Times,serif" font-size="14.00">u0002</text>
</g>
<!-- 16 -->
<g id="node17" class="node"><title>16</title>
<ellipse fill="none" stroke="black" cx="817" cy="-178" rx="18" ry="18"/>
</g>
<!-- 14&#45;&gt;16 -->
<g id="edge28" class="edge"><title>14&#45;&gt;16</title>
<path fill="none" stroke="black" d="M717.116,-160.099C736.072,-163.53 766.882,-169.108 789.077,-173.126"/>
<polygon fill="black" stroke="black" points="788.727,-176.619 799.191,-174.957 789.974,-169.731 788.727,-176.619"/>
<text text-anchor="middle" x="758" y="-174.8" font-family="Times,serif" font-size="14.00">u0001</text>
</g>
<!-- 17 -->
<g id="node18" class="node"><title>17</title>
<ellipse fill="none" stroke="black" cx="940" cy="-178" rx="18" ry="18"/>
</g>
<!-- 16&#45;&gt;17 -->
<g id="edge29" class="edge"><title>16&#45;&gt;17</title>
<path fill="none" stroke="black" d="M835.08,-178C854.965,-178 888.077,-178 911.577,-178"/>
<polygon fill="black" stroke="black" points="911.615,-181.5 921.615,-178 911.615,-174.5 911.615,-181.5"/>
<text text-anchor="middle" x="876" y="-181.8" font-family="Times,serif" font-size="14.00">u0003</text>
</g>
<!-- 18 -->
<g id="node19" class="node"><title>18</title>
<ellipse fill="none" stroke="black" cx="1068" cy="-178" rx="18" ry="18"/>
</g>
<!-- 17&#45;&gt;18 -->
<g id="edge30" class="edge"><title>17&#45;&gt;18</title>
<path fill="none" stroke="black" d="M958.256,-178C979.274,-178 1015.03,-178 1039.77,-178"/>
<polygon fill="black" stroke="black" points="1039.95,-181.5 1049.95,-178 1039.95,-174.5 1039.95,-181.5"/>
<text text-anchor="middle" x="1004" y="-181.8" font-family="Times,serif" font-size="14.00">u0001</text>
</g>
<!-- 18&#45;&gt;11 -->
<g id="edge31" class="edge"><title>18&#45;&gt;11</title>
<path fill="none" stroke="black" d="M1085.32,-183.125C1105.44,-189.443 1139.88,-200.26 1163.74,-207.753"/>
<polygon fill="black" stroke="black" points="1162.96,-211.178 1173.55,-210.835 1165.06,-204.499 1162.96,-211.178"/>
<text text-anchor="middle" x="1132" y="-207.8" font-family="Times,serif" font-size="14.00">u0001</text>
</g>
<!-- initial -->
<g id="node20" class="node"><title>initial</title>
</g>
<!-- initial&#45;&gt;0 -->
<g id="edge32" class="edge"><title>initial&#45;&gt;0</title>
<path fill="none" stroke="black" d="M54.195,-157C62.6538,-157 72.0513,-157 80.5951,-157"/>
<polygon fill="black" stroke="black" points="80.8257,-160.5 90.8257,-157 80.8257,-153.5 80.8257,-160.5"/>
</g>
</g>
</svg>
