<svg width="3365px" height="997px"
 viewBox="0.00 0.00 2524.00 748.00" xmlns="http://www.w3.org/2000/svg" xmlns:xlink="http://www.w3.org/1999/xlink">
<g id="graph0" class="graph" transform="scale(1.000022500562514 1.000022500562514) rotate(0) translate(4 744)">
<title>Automaton</title>
<polygon fill="white" stroke="none" points="-4,4 -4,-744 2520,-744 2520,4 -4,4"/>
<!-- 0 -->
<g id="node1" class="node"><title>0</title>
<ellipse fill="none" stroke="black" cx="109" cy="-140" rx="18" ry="18"/>
</g>
<!-- 1 -->
<g id="node2" class="node"><title>1</title>
<ellipse fill="none" stroke="black" cx="227" cy="-140" rx="18" ry="18"/>
</g>
<!-- 0&#45;&gt;1 -->
<g id="edge1" class="edge"><title>0&#45;&gt;1</title>
<path fill="none" stroke="black" d="M127.116,-140C145.964,-140 176.531,-140 198.696,-140"/>
<polygon fill="black" stroke="black" points="198.814,-143.5 208.814,-140 198.814,-136.5 198.814,-143.5"/>
<text text-anchor="middle" x="168" y="-143.8" font-family="Times,serif" font-size="14.00">u0002</text>
</g>
<!-- 2 -->
<g id="node3" class="node"><title>2</title>
<ellipse fill="none" stroke="black" cx="345" cy="-140" rx="18" ry="18"/>
</g>
<!-- 1&#45;&gt;2 -->
<g id="edge2" class="edge"><title>1&#45;&gt;2</title>
<path fill="none" stroke="black" d="M245.116,-140C263.964,-140 294.531,-140 316.696,-140"/>
<polygon fill="black" stroke="black" points="316.814,-143.5 326.814,-140 316.814,-136.5 316.814,-143.5"/>
<text text-anchor="middle" x="286" y="-143.8" font-family="Times,serif" font-size="14.00">u0001</text>
</g>
<!-- 3 -->
<g id="node4" class="node"><title>3</title>
<ellipse fill="none" stroke="black" cx="463" cy="-140" rx="18" ry="18"/>
</g>
<!-- 2&#45;&gt;3 -->
<g id="edge3" class="edge"><title>2&#45;&gt;3</title>
<path fill="none" stroke="black" d="M363.116,-140C381.964,-140 412.531,-140 434.696,-140"/>
<polygon fill="black" stroke="black" points="434.814,-143.5 444.814,-140 434.814,-136.5 434.814,-143.5"/>
<text text-anchor="middle" x="404" y="-143.8" font-family="Times,serif" font-size="14.00">u0000</text>
</g>
<!-- 4 -->
<g id="node5" class="node"><title>4</title>
<ellipse fill="none" stroke="black" cx="945" cy="-598" rx="18" ry="18"/>
</g>
<!-- 3&#45;&gt;4 -->
<g id="edge4" class="edge"><title>3&#45;&gt;4</title>
<path fill="none" stroke="black" d="M466.054,-158.063C474.619,-229.049 510.332,-485 580,-485 580,-485 580,-485 828,-485 877.898,-485 914.364,-539.312 932.039,-572.63"/>
<polygon fill="black" stroke="black" points="929.059,-574.49 936.718,-581.81 935.295,-571.311 929.059,-574.49"/>
<text text-anchor="middle" x="704" y="-488.8" font-family="Times,serif" font-size="14.00">u0004</text>
</g>
<!-- 5 -->
<g id="node11" class="node"><title>5</title>
<ellipse fill="none" stroke="black" cx="2494" cy="-277" rx="18" ry="18"/>
<ellipse fill="none" stroke="black" cx="2494" cy="-277" rx="22" ry="22"/>
</g>
<!-- 3&#45;&gt;5 -->
<g id="edge5" class="edge"><title>3&#45;&gt;5</title>
<path fill="none" stroke="black" d="M469.161,-122.833C481.58,-85.4492 516.87,-0 580,-0 580,-0 580,-0 2368,-0 2411.56,-0 2428.72,-11.5316 2454,-47 2476.31,-78.292 2486.97,-189.578 2491,-245.066"/>
<polygon fill="black" stroke="black" points="2487.51,-245.33 2491.7,-255.062 2494.49,-244.843 2487.51,-245.33"/>
<text text-anchor="middle" x="1432" y="-3.8" font-family="Times,serif" font-size="14.00">u0003</text>
</g>
<!-- 6 -->
<g id="node27" class="node"><title>6</title>
<ellipse fill="none" stroke="black" cx="581" cy="-140" rx="18" ry="18"/>
</g>
<!-- 3&#45;&gt;6 -->
<g id="edge6" class="edge"><title>3&#45;&gt;6</title>
<path fill="none" stroke="black" d="M481.116,-140C499.964,-140 530.531,-140 552.696,-140"/>
<polygon fill="black" stroke="black" points="552.814,-143.5 562.814,-140 552.814,-136.5 552.814,-143.5"/>
<text text-anchor="middle" x="522" y="-143.8" font-family="Times,serif" font-size="14.00">u0005</text>
</g>
<!-- 7 -->
<g id="node6" class="node"><title>7</title>
<ellipse fill="none" stroke="black" cx="1865" cy="-625" rx="18" ry="18"/>
</g>
<!-- 4&#45;&gt;7 -->
<g id="edge7" class="edge"><title>4&#45;&gt;7</title>
<path fill="none" stroke="black" d="M962.318,-603.334C984.588,-610.129 1025.87,-621 1062,-621 1062,-621 1062,-621 1738,-621 1772.09,-621 1811.34,-622.481 1836.85,-623.64"/>
<polygon fill="black" stroke="black" points="1836.73,-627.139 1846.89,-624.112 1837.06,-620.146 1836.73,-627.139"/>
<text text-anchor="middle" x="1368" y="-624.8" font-family="Times,serif" font-size="14.00">u0004</text>
</g>
<!-- 4&#45;&gt;5 -->
<g id="edge8" class="edge"><title>4&#45;&gt;5</title>
<path fill="none" stroke="black" d="M952.06,-614.603C965.817,-649.028 1002.87,-725 1062,-725 1062,-725 1062,-725 2368,-725 2427.64,-725 2430.55,-676.833 2454,-622 2477.89,-566.139 2488.34,-384.329 2491.7,-309.563"/>
<polygon fill="black" stroke="black" points="2495.21,-309.48 2492.15,-299.337 2488.21,-309.175 2495.21,-309.48"/>
<text text-anchor="middle" x="1737" y="-728.8" font-family="Times,serif" font-size="14.00">u0003</text>
</g>
<!-- 8 -->
<g id="node15" class="node"><title>8</title>
<ellipse fill="none" stroke="black" cx="1063" cy="-537" rx="18" ry="18"/>
</g>
<!-- 4&#45;&gt;8 -->
<g id="edge9" class="edge"><title>4&#45;&gt;8</title>
<path fill="none" stroke="black" d="M961.165,-590.025C980.617,-579.796 1014.59,-561.929 1037.68,-549.79"/>
<polygon fill="black" stroke="black" points="1039.61,-552.729 1046.83,-544.977 1036.35,-546.533 1039.61,-552.729"/>
<text text-anchor="middle" x="1004" y="-581.8" font-family="Times,serif" font-size="14.00">u0005</text>
</g>
<!-- 11 -->
<g id="node7" class="node"><title>11</title>
<ellipse fill="none" stroke="black" cx="1993" cy="-625" rx="18" ry="18"/>
</g>
<!-- 7&#45;&gt;11 -->
<g id="edge10" class="edge"><title>7&#45;&gt;11</title>
<path fill="none" stroke="black" d="M1883.26,-625C1904.27,-625 1940.03,-625 1964.77,-625"/>
<polygon fill="black" stroke="black" points="1964.95,-628.5 1974.95,-625 1964.95,-621.5 1964.95,-628.5"/>
<text text-anchor="middle" x="1929" y="-628.8" font-family="Times,serif" font-size="14.00">u0004</text>
</g>
<!-- 12 -->
<g id="node12" class="node"><title>12</title>
<ellipse fill="none" stroke="black" cx="1993" cy="-679" rx="18" ry="18"/>
</g>
<!-- 7&#45;&gt;12 -->
<g id="edge11" class="edge"><title>7&#45;&gt;12</title>
<path fill="none" stroke="black" d="M1881.48,-632.606C1888.86,-636.166 1897.84,-640.404 1906,-644 1926.22,-652.91 1949.45,-662.314 1966.66,-669.128"/>
<polygon fill="black" stroke="black" points="1965.45,-672.411 1976.04,-672.818 1968.01,-665.898 1965.45,-672.411"/>
<text text-anchor="middle" x="1929" y="-665.8" font-family="Times,serif" font-size="14.00">u0005</text>
</g>
<!-- 19 -->
<g id="node8" class="node"><title>19</title>
<ellipse fill="none" stroke="black" cx="2116" cy="-416" rx="18" ry="18"/>
</g>
<!-- 11&#45;&gt;19 -->
<g id="edge12" class="edge"><title>11&#45;&gt;19</title>
<path fill="none" stroke="black" d="M2004.56,-610.594C2021.89,-586.512 2056.75,-536.165 2080,-490 2090.06,-470.021 2087.99,-463.005 2098,-443 2098.59,-441.83 2099.21,-440.645 2099.85,-439.46"/>
<polygon fill="black" stroke="black" points="2103.04,-440.943 2105.11,-430.551 2097.01,-437.387 2103.04,-440.943"/>
<text text-anchor="middle" x="2057" y="-567.8" font-family="Times,serif" font-size="14.00">u0004</text>
</g>
<!-- 11&#45;&gt;5 -->
<g id="edge13" class="edge"><title>11&#45;&gt;5</title>
<path fill="none" stroke="black" d="M2011.08,-627.071C2088.19,-635.973 2402.24,-667.315 2454,-594 2485.94,-548.761 2491.78,-381.128 2492.81,-309.64"/>
<polygon fill="black" stroke="black" points="2496.31,-309.462 2492.93,-299.42 2489.31,-309.378 2496.31,-309.462"/>
<text text-anchor="middle" x="2239" y="-644.8" font-family="Times,serif" font-size="14.00">u0003</text>
</g>
<!-- 17 -->
<g id="node9" class="node"><title>17</title>
<ellipse fill="none" stroke="black" cx="2239" cy="-416" rx="18" ry="18"/>
</g>
<!-- 19&#45;&gt;17 -->
<g id="edge14" class="edge"><title>19&#45;&gt;17</title>
<path fill="none" stroke="black" d="M2134.08,-416C2153.96,-416 2187.08,-416 2210.58,-416"/>
<polygon fill="black" stroke="black" points="2210.62,-419.5 2220.62,-416 2210.62,-412.5 2210.62,-419.5"/>
<text text-anchor="middle" x="2175" y="-419.8" font-family="Times,serif" font-size="14.00">u0005</text>
</g>
<!-- 13 -->
<g id="node10" class="node"><title>13</title>
<ellipse fill="none" stroke="black" cx="2367" cy="-332" rx="18" ry="18"/>
</g>
<!-- 17&#45;&gt;13 -->
<g id="edge15" class="edge"><title>17&#45;&gt;13</title>
<path fill="none" stroke="black" d="M2256.86,-412.66C2275.24,-408.388 2304.85,-399.606 2326,-384 2336.1,-376.545 2344.92,-365.866 2351.69,-356.124"/>
<polygon fill="black" stroke="black" points="2354.75,-357.841 2357.31,-347.559 2348.9,-354.002 2354.75,-357.841"/>
<text text-anchor="middle" x="2303" y="-408.8" font-family="Times,serif" font-size="14.00">u0005</text>
</g>
<!-- 13&#45;&gt;5 -->
<g id="edge16" class="edge"><title>13&#45;&gt;5</title>
<path fill="none" stroke="black" d="M2383.83,-325.034C2404.01,-316.154 2439.28,-300.636 2464.26,-289.644"/>
<polygon fill="black" stroke="black" points="2465.87,-292.763 2473.61,-285.532 2463.05,-286.355 2465.87,-292.763"/>
<text text-anchor="middle" x="2431" y="-317.8" font-family="Times,serif" font-size="14.00">u0003</text>
</g>
<!-- 20 -->
<g id="node13" class="node"><title>20</title>
<ellipse fill="none" stroke="black" cx="2116" cy="-679" rx="18" ry="18"/>
</g>
<!-- 12&#45;&gt;20 -->
<g id="edge17" class="edge"><title>12&#45;&gt;20</title>
<path fill="none" stroke="black" d="M2011.08,-679C2030.96,-679 2064.08,-679 2087.58,-679"/>
<polygon fill="black" stroke="black" points="2087.62,-682.5 2097.62,-679 2087.62,-675.5 2087.62,-682.5"/>
<text text-anchor="middle" x="2057" y="-682.8" font-family="Times,serif" font-size="14.00">u0005</text>
</g>
<!-- 25 -->
<g id="node14" class="node"><title>25</title>
<ellipse fill="none" stroke="black" cx="2239" cy="-598" rx="18" ry="18"/>
</g>
<!-- 20&#45;&gt;25 -->
<g id="edge18" class="edge"><title>20&#45;&gt;25</title>
<path fill="none" stroke="black" d="M2131.36,-669.39C2152.1,-655.506 2190.65,-629.697 2215.28,-613.21"/>
<polygon fill="black" stroke="black" points="2217.3,-616.069 2223.66,-607.597 2213.41,-610.252 2217.3,-616.069"/>
<text text-anchor="middle" x="2175" y="-658.8" font-family="Times,serif" font-size="14.00">u0005</text>
</g>
<!-- 25&#45;&gt;13 -->
<g id="edge19" class="edge"><title>25&#45;&gt;13</title>
<path fill="none" stroke="black" d="M2248.09,-582.291C2263.64,-551.931 2298.62,-482.989 2326,-424 2336.32,-401.771 2347.38,-376.184 2355.25,-357.646"/>
<polygon fill="black" stroke="black" points="2358.49,-358.967 2359.16,-348.394 2352.04,-356.242 2358.49,-358.967"/>
<text text-anchor="middle" x="2303" y="-522.8" font-family="Times,serif" font-size="14.00">u0004</text>
</g>
<!-- 25&#45;&gt;5 -->
<g id="edge20" class="edge"><title>25&#45;&gt;5</title>
<path fill="none" stroke="black" d="M2256.84,-601.436C2297.27,-608.608 2400.46,-620.307 2454,-566 2489.17,-530.322 2493.27,-377.081 2493.32,-309.375"/>
<polygon fill="black" stroke="black" points="2496.82,-309.267 2493.3,-299.274 2489.82,-309.282 2496.82,-309.267"/>
<text text-anchor="middle" x="2367" y="-610.8" font-family="Times,serif" font-size="14.00">u0003</text>
</g>
<!-- 8&#45;&gt;13 -->
<g id="edge21" class="edge"><title>8&#45;&gt;13</title>
<path fill="none" stroke="black" d="M1066.03,-518.912C1072.58,-470.391 1097.76,-341 1180,-341 1180,-341 1180,-341 1369,-341 1504.28,-341 1536.72,-370 1672,-370 1672,-370 1672,-370 2240,-370 2276.51,-370 2316.53,-355.195 2341.46,-344.067"/>
<polygon fill="black" stroke="black" points="2342.93,-347.243 2350.54,-339.874 2340,-340.887 2342.93,-347.243"/>
<text text-anchor="middle" x="1737" y="-373.8" font-family="Times,serif" font-size="14.00">u0004</text>
</g>
<!-- 8&#45;&gt;5 -->
<g id="edge22" class="edge"><title>8&#45;&gt;5</title>
<path fill="none" stroke="black" d="M1078.76,-546.113C1100.22,-558.466 1141.66,-579 1180,-579 1180,-579 1180,-579 1994,-579 2068.34,-579 2261.69,-575.295 2326,-538 2415.55,-486.063 2464.84,-364.718 2483.79,-307.668"/>
<polygon fill="black" stroke="black" points="2487.13,-308.709 2486.88,-298.117 2480.47,-306.555 2487.13,-308.709"/>
<text text-anchor="middle" x="1801" y="-582.8" font-family="Times,serif" font-size="14.00">u0003</text>
</g>
<!-- 14 -->
<g id="node16" class="node"><title>14</title>
<ellipse fill="none" stroke="black" cx="1181" cy="-509" rx="18" ry="18"/>
</g>
<!-- 8&#45;&gt;14 -->
<g id="edge23" class="edge"><title>8&#45;&gt;14</title>
<path fill="none" stroke="black" d="M1080.62,-532.988C1099.66,-528.393 1131.1,-520.803 1153.52,-515.391"/>
<polygon fill="black" stroke="black" points="1154.51,-518.753 1163.41,-513.004 1152.87,-511.948 1154.51,-518.753"/>
<text text-anchor="middle" x="1122" y="-530.8" font-family="Times,serif" font-size="14.00">u0005</text>
</g>
<!-- 14&#45;&gt;5 -->
<g id="edge25" class="edge"><title>14&#45;&gt;5</title>
<path fill="none" stroke="black" d="M1197.7,-515.944C1220.44,-525.355 1264.1,-541 1303,-541 1303,-541 1303,-541 1497,-541 1780.79,-541 1856.68,-557.231 2134,-497 2163.69,-490.552 2169.59,-483.764 2198,-473 2319.27,-427.052 2362.75,-425.142 2454,-333 2462.43,-324.492 2470.28,-313.975 2476.69,-304.36"/>
<polygon fill="black" stroke="black" points="2479.69,-306.17 2482.16,-295.867 2473.8,-302.382 2479.69,-306.17"/>
<text text-anchor="middle" x="1865" y="-543.8" font-family="Times,serif" font-size="14.00">u0003</text>
</g>
<!-- 21 -->
<g id="node17" class="node"><title>21</title>
<ellipse fill="none" stroke="black" cx="1304" cy="-441" rx="18" ry="18"/>
</g>
<!-- 14&#45;&gt;21 -->
<g id="edge24" class="edge"><title>14&#45;&gt;21</title>
<path fill="none" stroke="black" d="M1194.66,-497.108C1201.05,-491.484 1209.1,-484.937 1217,-480 1236.17,-468.011 1259.65,-457.62 1277.23,-450.585"/>
<polygon fill="black" stroke="black" points="1278.77,-453.738 1286.82,-446.844 1276.23,-447.217 1278.77,-453.738"/>
<text text-anchor="middle" x="1240" y="-483.8" font-family="Times,serif" font-size="14.00">u0004</text>
</g>
<!-- 22 -->
<g id="node20" class="node"><title>22</title>
<ellipse fill="none" stroke="black" cx="1304" cy="-495" rx="18" ry="18"/>
</g>
<!-- 14&#45;&gt;22 -->
<g id="edge26" class="edge"><title>14&#45;&gt;22</title>
<path fill="none" stroke="black" d="M1199.08,-507.024C1219.08,-504.71 1252.45,-500.848 1275.98,-498.127"/>
<polygon fill="black" stroke="black" points="1276.48,-501.592 1286.01,-496.966 1275.67,-494.639 1276.48,-501.592"/>
<text text-anchor="middle" x="1240" y="-507.8" font-family="Times,serif" font-size="14.00">u0005</text>
</g>
<!-- 26 -->
<g id="node18" class="node"><title>26</title>
<ellipse fill="none" stroke="black" cx="1432" cy="-441" rx="18" ry="18"/>
</g>
<!-- 21&#45;&gt;26 -->
<g id="edge27" class="edge"><title>21&#45;&gt;26</title>
<path fill="none" stroke="black" d="M1322.26,-441C1343.27,-441 1379.03,-441 1403.77,-441"/>
<polygon fill="black" stroke="black" points="1403.95,-444.5 1413.95,-441 1403.95,-437.5 1403.95,-444.5"/>
<text text-anchor="middle" x="1368" y="-444.8" font-family="Times,serif" font-size="14.00">u0005</text>
</g>
<!-- 30 -->
<g id="node19" class="node"><title>30</title>
<ellipse fill="none" stroke="black" cx="1584.5" cy="-324" rx="18" ry="18"/>
</g>
<!-- 26&#45;&gt;30 -->
<g id="edge28" class="edge"><title>26&#45;&gt;30</title>
<path fill="none" stroke="black" d="M1444.64,-428.022C1448.19,-423.723 1451.97,-418.806 1455,-414 1464.97,-398.197 1459.77,-389.198 1473,-376 1496.51,-352.548 1532.62,-338.328 1557.1,-330.822"/>
<polygon fill="black" stroke="black" points="1558.18,-334.153 1566.82,-328.009 1556.24,-327.429 1558.18,-334.153"/>
<text text-anchor="middle" x="1496" y="-379.8" font-family="Times,serif" font-size="14.00">u0004</text>
</g>
<!-- 30&#45;&gt;13 -->
<g id="edge29" class="edge"><title>30&#45;&gt;13</title>
<path fill="none" stroke="black" d="M1602.53,-324.175C1702.61,-325.2 2214.19,-330.444 2338.67,-331.72"/>
<polygon fill="black" stroke="black" points="2338.83,-335.222 2348.86,-331.824 2338.9,-328.222 2338.83,-335.222"/>
<text text-anchor="middle" x="1993" y="-331.8" font-family="Times,serif" font-size="14.00">u0004</text>
</g>
<!-- 27 -->
<g id="node21" class="node"><title>27</title>
<ellipse fill="none" stroke="black" cx="1432" cy="-495" rx="18" ry="18"/>
</g>
<!-- 22&#45;&gt;27 -->
<g id="edge30" class="edge"><title>22&#45;&gt;27</title>
<path fill="none" stroke="black" d="M1322.26,-495C1343.27,-495 1379.03,-495 1403.77,-495"/>
<polygon fill="black" stroke="black" points="1403.95,-498.5 1413.95,-495 1403.95,-491.5 1403.95,-498.5"/>
<text text-anchor="middle" x="1368" y="-498.8" font-family="Times,serif" font-size="14.00">u0004</text>
</g>
<!-- 31 -->
<g id="node22" class="node"><title>31</title>
<ellipse fill="none" stroke="black" cx="1584.5" cy="-487" rx="18" ry="18"/>
</g>
<!-- 27&#45;&gt;31 -->
<g id="edge31" class="edge"><title>27&#45;&gt;31</title>
<path fill="none" stroke="black" d="M1450.26,-494.082C1476.23,-492.702 1525.58,-490.079 1556.38,-488.441"/>
<polygon fill="black" stroke="black" points="1556.64,-491.933 1566.44,-487.907 1556.27,-484.943 1556.64,-491.933"/>
<text text-anchor="middle" x="1496" y="-495.8" font-family="Times,serif" font-size="14.00">u0005</text>
</g>
<!-- 34 -->
<g id="node23" class="node"><title>34</title>
<ellipse fill="none" stroke="black" cx="1737" cy="-482" rx="18" ry="18"/>
</g>
<!-- 31&#45;&gt;34 -->
<g id="edge32" class="edge"><title>31&#45;&gt;34</title>
<path fill="none" stroke="black" d="M1602.76,-486.426C1628.73,-485.564 1678.08,-483.924 1708.88,-482.901"/>
<polygon fill="black" stroke="black" points="1709.06,-486.397 1718.94,-482.567 1708.83,-479.401 1709.06,-486.397"/>
<text text-anchor="middle" x="1673" y="-487.8" font-family="Times,serif" font-size="14.00">u0004</text>
</g>
<!-- 36 -->
<g id="node24" class="node"><title>36</title>
<ellipse fill="none" stroke="black" cx="1865" cy="-472" rx="18" ry="18"/>
</g>
<!-- 34&#45;&gt;36 -->
<g id="edge33" class="edge"><title>34&#45;&gt;36</title>
<path fill="none" stroke="black" d="M1754.99,-480.651C1775.94,-478.989 1811.81,-476.142 1836.65,-474.17"/>
<polygon fill="black" stroke="black" points="1837.18,-477.639 1846.87,-473.359 1836.63,-470.661 1837.18,-477.639"/>
<text text-anchor="middle" x="1801" y="-481.8" font-family="Times,serif" font-size="14.00">u0005</text>
</g>
<!-- 38 -->
<g id="node25" class="node"><title>38</title>
<ellipse fill="none" stroke="black" cx="1993" cy="-472" rx="18" ry="18"/>
</g>
<!-- 36&#45;&gt;38 -->
<g id="edge34" class="edge"><title>36&#45;&gt;38</title>
<path fill="none" stroke="black" d="M1883.26,-472C1904.27,-472 1940.03,-472 1964.77,-472"/>
<polygon fill="black" stroke="black" points="1964.95,-475.5 1974.95,-472 1964.95,-468.5 1964.95,-475.5"/>
<text text-anchor="middle" x="1929" y="-475.8" font-family="Times,serif" font-size="14.00">u0004</text>
</g>
<!-- 40 -->
<g id="node26" class="node"><title>40</title>
<ellipse fill="none" stroke="black" cx="2116" cy="-470" rx="18" ry="18"/>
</g>
<!-- 38&#45;&gt;40 -->
<g id="edge35" class="edge"><title>38&#45;&gt;40</title>
<path fill="none" stroke="black" d="M2011.08,-471.718C2030.96,-471.389 2064.08,-470.842 2087.58,-470.453"/>
<polygon fill="black" stroke="black" points="2087.67,-473.952 2097.62,-470.287 2087.56,-466.953 2087.67,-473.952"/>
<text text-anchor="middle" x="2057" y="-474.8" font-family="Times,serif" font-size="14.00">u0004</text>
</g>
<!-- 40&#45;&gt;17 -->
<g id="edge36" class="edge"><title>40&#45;&gt;17</title>
<path fill="none" stroke="black" d="M2132.9,-463.325C2149.29,-456.402 2175.54,-445.184 2198,-435 2202.95,-432.756 2208.22,-430.303 2213.25,-427.927"/>
<polygon fill="black" stroke="black" points="2214.96,-430.987 2222.48,-423.528 2211.95,-424.667 2214.96,-430.987"/>
<text text-anchor="middle" x="2175" y="-457.8" font-family="Times,serif" font-size="14.00">u0004</text>
</g>
<!-- 6&#45;&gt;5 -->
<g id="edge38" class="edge"><title>6&#45;&gt;5</title>
<path fill="none" stroke="black" d="M591.214,-124.844C609.091,-97.5625 651.306,-43 703,-43 703,-43 703,-43 2368,-43 2413.37,-43 2428.08,-60.7647 2454,-98 2484.81,-142.259 2491.92,-206.415 2493.2,-244.695"/>
<polygon fill="black" stroke="black" points="2489.71,-244.847 2493.43,-254.768 2496.7,-244.693 2489.71,-244.847"/>
<text text-anchor="middle" x="1496" y="-46.8" font-family="Times,serif" font-size="14.00">u0003</text>
</g>
<!-- 9 -->
<g id="node28" class="node"><title>9</title>
<ellipse fill="none" stroke="black" cx="704" cy="-140" rx="18" ry="18"/>
</g>
<!-- 6&#45;&gt;9 -->
<g id="edge37" class="edge"><title>6&#45;&gt;9</title>
<path fill="none" stroke="black" d="M599.08,-140C618.965,-140 652.077,-140 675.577,-140"/>
<polygon fill="black" stroke="black" points="675.615,-143.5 685.615,-140 675.615,-136.5 675.615,-143.5"/>
<text text-anchor="middle" x="640" y="-143.8" font-family="Times,serif" font-size="14.00">u0004</text>
</g>
<!-- 10 -->
<g id="node43" class="node"><title>10</title>
<ellipse fill="none" stroke="black" cx="2116" cy="-271" rx="18" ry="18"/>
</g>
<!-- 6&#45;&gt;10 -->
<g id="edge39" class="edge"><title>6&#45;&gt;10</title>
<path fill="none" stroke="black" d="M585.796,-157.661C596.212,-200.795 629.494,-308 703,-308 703,-308 703,-308 887,-308 991.851,-308 1016.15,-278 1121,-278 1121,-278 1121,-278 1994,-278 2026.26,-278 2063.28,-275.489 2087.78,-273.475"/>
<polygon fill="black" stroke="black" points="2088.12,-276.96 2097.79,-272.624 2087.52,-269.985 2088.12,-276.96"/>
<text text-anchor="middle" x="1304" y="-281.8" font-family="Times,serif" font-size="14.00">u0005</text>
</g>
<!-- 9&#45;&gt;5 -->
<g id="edge41" class="edge"><title>9&#45;&gt;5</title>
<path fill="none" stroke="black" d="M719.086,-129.679C740.856,-114.777 784.51,-89 826,-89 826,-89 826,-89 2368,-89 2442.23,-89 2475.04,-191.878 2487.09,-245.427"/>
<polygon fill="black" stroke="black" points="2483.72,-246.387 2489.23,-255.434 2490.56,-244.923 2483.72,-246.387"/>
<text text-anchor="middle" x="1584.5" y="-92.8" font-family="Times,serif" font-size="14.00">u0003</text>
</g>
<!-- 15 -->
<g id="node29" class="node"><title>15</title>
<ellipse fill="none" stroke="black" cx="886" cy="-140" rx="18" ry="18"/>
</g>
<!-- 9&#45;&gt;15 -->
<g id="edge40" class="edge"><title>9&#45;&gt;15</title>
<path fill="none" stroke="black" d="M722.259,-140C753.573,-140 819.979,-140 857.566,-140"/>
<polygon fill="black" stroke="black" points="857.793,-143.5 867.793,-140 857.793,-136.5 857.793,-143.5"/>
<text text-anchor="middle" x="768" y="-143.8" font-family="Times,serif" font-size="14.00">u0004</text>
</g>
<!-- 16 -->
<g id="node30" class="node"><title>16</title>
<ellipse fill="none" stroke="black" cx="827" cy="-207" rx="18" ry="18"/>
</g>
<!-- 9&#45;&gt;16 -->
<g id="edge42" class="edge"><title>9&#45;&gt;16</title>
<path fill="none" stroke="black" d="M720.325,-148.486C740.872,-159.863 777.571,-180.184 801.853,-193.629"/>
<polygon fill="black" stroke="black" points="800.356,-196.801 810.8,-198.583 803.747,-190.677 800.356,-196.801"/>
<text text-anchor="middle" x="768" y="-190.8" font-family="Times,serif" font-size="14.00">u0005</text>
</g>
<!-- 15&#45;&gt;13 -->
<g id="edge43" class="edge"><title>15&#45;&gt;13</title>
<path fill="none" stroke="black" d="M904.295,-140C926.962,-140 967.958,-140 1003,-140 1003,-140 1003,-140 1497,-140 1841.09,-140 1937.88,-143.481 2262,-259 2291.08,-269.365 2301,-267.883 2326,-286 2335,-292.521 2343.34,-301.431 2350.06,-309.674"/>
<polygon fill="black" stroke="black" points="2347.3,-311.826 2356.19,-317.581 2352.83,-307.534 2347.3,-311.826"/>
<text text-anchor="middle" x="1584.5" y="-143.8" font-family="Times,serif" font-size="14.00">u0004&#45;u0005</text>
</g>
<!-- 16&#45;&gt;5 -->
<g id="edge45" class="edge"><title>16&#45;&gt;5</title>
<path fill="none" stroke="black" d="M843.825,-200.419C865.87,-191.863 907.257,-178 944,-178 944,-178 944,-178 1241,-178 1557.03,-178 1636.01,-173.069 1952,-168 2050.67,-166.417 2075.32,-164 2174,-164 2174,-164 2174,-164 2368,-164 2418.54,-164 2457.79,-215.46 2477.98,-248.927"/>
<polygon fill="black" stroke="black" points="2475.1,-250.948 2483.16,-257.831 2481.15,-247.427 2475.1,-250.948"/>
<text text-anchor="middle" x="1673" y="-176.8" font-family="Times,serif" font-size="14.00">u0003</text>
</g>
<!-- 23 -->
<g id="node31" class="node"><title>23</title>
<ellipse fill="none" stroke="black" cx="945" cy="-262" rx="18" ry="18"/>
</g>
<!-- 16&#45;&gt;23 -->
<g id="edge44" class="edge"><title>16&#45;&gt;23</title>
<path fill="none" stroke="black" d="M840.84,-219.093C847.141,-224.533 855.071,-230.686 863,-235 880.09,-244.297 900.948,-251.159 917.217,-255.638"/>
<polygon fill="black" stroke="black" points="916.6,-259.094 927.16,-258.239 918.372,-252.322 916.6,-259.094"/>
<text text-anchor="middle" x="886" y="-255.8" font-family="Times,serif" font-size="14.00">u0004</text>
</g>
<!-- 24 -->
<g id="node40" class="node"><title>24</title>
<ellipse fill="none" stroke="black" cx="1004" cy="-219" rx="18" ry="18"/>
</g>
<!-- 16&#45;&gt;24 -->
<g id="edge46" class="edge"><title>16&#45;&gt;24</title>
<path fill="none" stroke="black" d="M845.098,-208.172C875.418,-210.252 938.844,-214.601 975.412,-217.108"/>
<polygon fill="black" stroke="black" points="975.616,-220.63 985.832,-217.823 976.095,-213.647 975.616,-220.63"/>
<text text-anchor="middle" x="886" y="-215.8" font-family="Times,serif" font-size="14.00">u0005</text>
</g>
<!-- 28 -->
<g id="node32" class="node"><title>28</title>
<ellipse fill="none" stroke="black" cx="1063" cy="-324" rx="18" ry="18"/>
</g>
<!-- 23&#45;&gt;28 -->
<g id="edge47" class="edge"><title>23&#45;&gt;28</title>
<path fill="none" stroke="black" d="M961.165,-270.105C980.704,-280.549 1014.9,-298.825 1037.99,-311.166"/>
<polygon fill="black" stroke="black" points="1036.36,-314.266 1046.83,-315.893 1039.66,-308.092 1036.36,-314.266"/>
<text text-anchor="middle" x="1004" y="-306.8" font-family="Times,serif" font-size="14.00">u0004</text>
</g>
<!-- 32 -->
<g id="node33" class="node"><title>32</title>
<ellipse fill="none" stroke="black" cx="1181" cy="-387" rx="18" ry="18"/>
</g>
<!-- 28&#45;&gt;32 -->
<g id="edge48" class="edge"><title>28&#45;&gt;32</title>
<path fill="none" stroke="black" d="M1079.16,-332.236C1098.7,-342.848 1132.9,-361.418 1155.99,-373.959"/>
<polygon fill="black" stroke="black" points="1154.37,-377.065 1164.83,-378.762 1157.71,-370.914 1154.37,-377.065"/>
<text text-anchor="middle" x="1122" y="-369.8" font-family="Times,serif" font-size="14.00">u0004</text>
</g>
<!-- 35 -->
<g id="node34" class="node"><title>35</title>
<ellipse fill="none" stroke="black" cx="1304" cy="-387" rx="18" ry="18"/>
</g>
<!-- 32&#45;&gt;35 -->
<g id="edge49" class="edge"><title>32&#45;&gt;35</title>
<path fill="none" stroke="black" d="M1199.08,-387C1218.96,-387 1252.08,-387 1275.58,-387"/>
<polygon fill="black" stroke="black" points="1275.62,-390.5 1285.62,-387 1275.62,-383.5 1275.62,-390.5"/>
<text text-anchor="middle" x="1240" y="-390.8" font-family="Times,serif" font-size="14.00">u0004</text>
</g>
<!-- 37 -->
<g id="node35" class="node"><title>37</title>
<ellipse fill="none" stroke="black" cx="1432" cy="-387" rx="18" ry="18"/>
</g>
<!-- 35&#45;&gt;37 -->
<g id="edge50" class="edge"><title>35&#45;&gt;37</title>
<path fill="none" stroke="black" d="M1322.26,-387C1343.27,-387 1379.03,-387 1403.77,-387"/>
<polygon fill="black" stroke="black" points="1403.95,-390.5 1413.95,-387 1403.95,-383.5 1403.95,-390.5"/>
<text text-anchor="middle" x="1368" y="-390.8" font-family="Times,serif" font-size="14.00">u0005</text>
</g>
<!-- 39 -->
<g id="node36" class="node"><title>39</title>
<ellipse fill="none" stroke="black" cx="1584.5" cy="-420" rx="18" ry="18"/>
</g>
<!-- 37&#45;&gt;39 -->
<g id="edge51" class="edge"><title>37&#45;&gt;39</title>
<path fill="none" stroke="black" d="M1449.68,-390.658C1475.56,-396.332 1525.62,-407.309 1556.64,-414.11"/>
<polygon fill="black" stroke="black" points="1556.23,-417.603 1566.74,-416.326 1557.73,-410.765 1556.23,-417.603"/>
<text text-anchor="middle" x="1496" y="-408.8" font-family="Times,serif" font-size="14.00">u0005</text>
</g>
<!-- 41 -->
<g id="node37" class="node"><title>41</title>
<ellipse fill="none" stroke="black" cx="1737" cy="-421" rx="18" ry="18"/>
</g>
<!-- 39&#45;&gt;41 -->
<g id="edge52" class="edge"><title>39&#45;&gt;41</title>
<path fill="none" stroke="black" d="M1602.76,-420.115C1628.73,-420.287 1678.08,-420.615 1708.88,-420.82"/>
<polygon fill="black" stroke="black" points="1708.91,-424.32 1718.94,-420.887 1708.96,-417.32 1708.91,-424.32"/>
<text text-anchor="middle" x="1673" y="-423.8" font-family="Times,serif" font-size="14.00">u0004</text>
</g>
<!-- 42 -->
<g id="node38" class="node"><title>42</title>
<ellipse fill="none" stroke="black" cx="1865" cy="-418" rx="18" ry="18"/>
</g>
<!-- 41&#45;&gt;42 -->
<g id="edge53" class="edge"><title>41&#45;&gt;42</title>
<path fill="none" stroke="black" d="M1755.26,-420.589C1776.27,-420.089 1812.03,-419.237 1836.77,-418.648"/>
<polygon fill="black" stroke="black" points="1837.04,-422.143 1846.95,-418.406 1836.87,-415.145 1837.04,-422.143"/>
<text text-anchor="middle" x="1801" y="-423.8" font-family="Times,serif" font-size="14.00">u0005</text>
</g>
<!-- 43 -->
<g id="node39" class="node"><title>43</title>
<ellipse fill="none" stroke="black" cx="1993" cy="-418" rx="18" ry="18"/>
</g>
<!-- 42&#45;&gt;43 -->
<g id="edge54" class="edge"><title>42&#45;&gt;43</title>
<path fill="none" stroke="black" d="M1883.26,-418C1904.27,-418 1940.03,-418 1964.77,-418"/>
<polygon fill="black" stroke="black" points="1964.95,-421.5 1974.95,-418 1964.95,-414.5 1964.95,-421.5"/>
<text text-anchor="middle" x="1929" y="-421.8" font-family="Times,serif" font-size="14.00">u0005</text>
</g>
<!-- 43&#45;&gt;19 -->
<g id="edge55" class="edge"><title>43&#45;&gt;19</title>
<path fill="none" stroke="black" d="M2011.08,-417.718C2030.96,-417.389 2064.08,-416.842 2087.58,-416.453"/>
<polygon fill="black" stroke="black" points="2087.67,-419.952 2097.62,-416.287 2087.56,-412.953 2087.67,-419.952"/>
<text text-anchor="middle" x="2057" y="-420.8" font-family="Times,serif" font-size="14.00">u0004</text>
</g>
<!-- 29 -->
<g id="node41" class="node"><title>29</title>
<ellipse fill="none" stroke="black" cx="1304" cy="-224" rx="18" ry="18"/>
</g>
<!-- 24&#45;&gt;29 -->
<g id="edge56" class="edge"><title>24&#45;&gt;29</title>
<path fill="none" stroke="black" d="M1022.31,-219.29C1071.89,-220.122 1214.76,-222.52 1275.33,-223.536"/>
<polygon fill="black" stroke="black" points="1275.59,-227.04 1285.64,-223.709 1275.7,-220.041 1275.59,-227.04"/>
<text text-anchor="middle" x="1122" y="-224.8" font-family="Times,serif" font-size="14.00">u0005</text>
</g>
<!-- 33 -->
<g id="node42" class="node"><title>33</title>
<ellipse fill="none" stroke="black" cx="1432" cy="-227" rx="18" ry="18"/>
</g>
<!-- 29&#45;&gt;33 -->
<g id="edge57" class="edge"><title>29&#45;&gt;33</title>
<path fill="none" stroke="black" d="M1322.26,-224.411C1343.27,-224.911 1379.03,-225.763 1403.77,-226.352"/>
<polygon fill="black" stroke="black" points="1403.87,-229.855 1413.95,-226.594 1404.04,-222.857 1403.87,-229.855"/>
<text text-anchor="middle" x="1368" y="-229.8" font-family="Times,serif" font-size="14.00">u0004</text>
</g>
<!-- 33&#45;&gt;30 -->
<g id="edge58" class="edge"><title>33&#45;&gt;30</title>
<path fill="none" stroke="black" d="M1447.43,-236.301C1473.55,-253.133 1528.85,-288.778 1560.32,-309.06"/>
<polygon fill="black" stroke="black" points="1558.59,-312.109 1568.89,-314.585 1562.38,-306.225 1558.59,-312.109"/>
<text text-anchor="middle" x="1496" y="-284.8" font-family="Times,serif" font-size="14.00">u0005</text>
</g>
<!-- 10&#45;&gt;17 -->
<g id="edge59" class="edge"><title>10&#45;&gt;17</title>
<path fill="none" stroke="black" d="M2128.17,-284.381C2149.24,-309.631 2195.01,-364.48 2220.31,-394.796"/>
<polygon fill="black" stroke="black" points="2217.77,-397.216 2226.86,-402.651 2223.14,-392.731 2217.77,-397.216"/>
<text text-anchor="middle" x="2175" y="-367.8" font-family="Times,serif" font-size="14.00">u0004</text>
</g>
<!-- 10&#45;&gt;5 -->
<g id="edge60" class="edge"><title>10&#45;&gt;5</title>
<path fill="none" stroke="black" d="M2132.69,-263.816C2138.61,-261.471 2145.49,-259.169 2152,-258 2172.12,-254.384 2177.56,-257.84 2198,-258 2226.45,-258.222 2233.57,-257.89 2262,-259 2333.67,-261.798 2417.56,-269.43 2461.88,-273.805"/>
<polygon fill="black" stroke="black" points="2461.71,-277.305 2472.01,-274.816 2462.41,-270.34 2461.71,-277.305"/>
<text text-anchor="middle" x="2303" y="-265.8" font-family="Times,serif" font-size="14.00">u0003</text>
</g>
<!-- 18 -->
<g id="node44" class="node"><title>18</title>
<ellipse fill="none" stroke="black" cx="2239" cy="-286" rx="18" ry="18"/>
</g>
<!-- 10&#45;&gt;18 -->
<g id="edge61" class="edge"><title>10&#45;&gt;18</title>
<path fill="none" stroke="black" d="M2133.7,-266.757C2150.26,-263.247 2176.23,-259.633 2198,-265 2203.62,-266.385 2209.32,-268.714 2214.59,-271.33"/>
<polygon fill="black" stroke="black" points="2213.04,-274.475 2223.49,-276.203 2216.4,-268.333 2213.04,-274.475"/>
<text text-anchor="middle" x="2175" y="-268.8" font-family="Times,serif" font-size="14.00">u0005</text>
</g>
<!-- 18&#45;&gt;13 -->
<g id="edge63" class="edge"><title>18&#45;&gt;13</title>
<path fill="none" stroke="black" d="M2257.13,-287.206C2274.96,-288.954 2303.4,-293.144 2326,-303 2332.55,-305.857 2339.07,-309.925 2344.89,-314.115"/>
<polygon fill="black" stroke="black" points="2342.77,-316.9 2352.84,-320.212 2347.04,-311.347 2342.77,-316.9"/>
<text text-anchor="middle" x="2303" y="-306.8" font-family="Times,serif" font-size="14.00">u0005</text>
</g>
<!-- 18&#45;&gt;5 -->
<g id="edge62" class="edge"><title>18&#45;&gt;5</title>
<path fill="none" stroke="black" d="M2256.99,-285.396C2298.96,-283.903 2407.98,-280.024 2461.89,-278.107"/>
<polygon fill="black" stroke="black" points="2462.03,-281.604 2471.9,-277.751 2461.78,-274.608 2462.03,-281.604"/>
<text text-anchor="middle" x="2367" y="-285.8" font-family="Times,serif" font-size="14.00">u0003</text>
</g>
<!-- initial -->
<g id="node45" class="node"><title>initial</title>
</g>
<!-- initial&#45;&gt;0 -->
<g id="edge64" class="edge"><title>initial&#45;&gt;0</title>
<path fill="none" stroke="black" d="M54.195,-140C62.6538,-140 72.0513,-140 80.5951,-140"/>
<polygon fill="black" stroke="black" points="80.8257,-143.5 90.8257,-140 80.8257,-136.5 80.8257,-143.5"/>
</g>
</g>
</svg>
