<svg width="1620px" height="283px"
 viewBox="0.00 0.00 1215.00 212.00" xmlns="http://www.w3.org/2000/svg" xmlns:xlink="http://www.w3.org/1999/xlink">
<g id="graph0" class="graph" transform="scale(1.000022500562514 1.000022500562514) rotate(0) translate(4 208)">
<title>Automaton</title>
<polygon fill="white" stroke="none" points="-4,4 -4,-208 1211,-208 1211,4 -4,4"/>
<!-- 0 -->
<g id="node1" class="node"><title>0</title>
<ellipse fill="none" stroke="black" cx="109" cy="-143" rx="18" ry="18"/>
</g>
<!-- 1 -->
<g id="node2" class="node"><title>1</title>
<ellipse fill="none" stroke="black" cx="227" cy="-143" rx="18" ry="18"/>
</g>
<!-- 0&#45;&gt;1 -->
<g id="edge1" class="edge"><title>0&#45;&gt;1</title>
<path fill="none" stroke="black" d="M127.116,-143C145.964,-143 176.531,-143 198.696,-143"/>
<polygon fill="black" stroke="black" points="198.814,-146.5 208.814,-143 198.814,-139.5 198.814,-146.5"/>
<text text-anchor="middle" x="168" y="-146.8" font-family="Times,serif" font-size="14.00">u0000</text>
</g>
<!-- 2 -->
<g id="node3" class="node"><title>2</title>
<ellipse fill="none" stroke="black" cx="345" cy="-143" rx="18" ry="18"/>
</g>
<!-- 1&#45;&gt;2 -->
<g id="edge2" class="edge"><title>1&#45;&gt;2</title>
<path fill="none" stroke="black" d="M245.116,-143C263.964,-143 294.531,-143 316.696,-143"/>
<polygon fill="black" stroke="black" points="316.814,-146.5 326.814,-143 316.814,-139.5 316.814,-146.5"/>
<text text-anchor="middle" x="286" y="-146.8" font-family="Times,serif" font-size="14.00">u0001</text>
</g>
<!-- 3 -->
<g id="node4" class="node"><title>3</title>
<ellipse fill="none" stroke="black" cx="945" cy="-100" rx="18" ry="18"/>
</g>
<!-- 2&#45;&gt;3 -->
<g id="edge3" class="edge"><title>2&#45;&gt;3</title>
<path fill="none" stroke="black" d="M363.295,-143C385.962,-143 426.958,-143 462,-143 462,-143 462,-143 828,-143 861.64,-143 897.538,-126.904 920.339,-114.408"/>
<polygon fill="black" stroke="black" points="922.303,-117.317 929.264,-109.33 918.842,-111.233 922.303,-117.317"/>
<text text-anchor="middle" x="640" y="-146.8" font-family="Times,serif" font-size="14.00">u0004</text>
</g>
<!-- 4 -->
<g id="node5" class="node"><title>4</title>
<ellipse fill="none" stroke="black" cx="1063" cy="-100" rx="18" ry="18"/>
</g>
<!-- 2&#45;&gt;4 -->
<g id="edge4" class="edge"><title>2&#45;&gt;4</title>
<path fill="none" stroke="black" d="M360.29,-152.755C381.497,-166.258 423.004,-189 462,-189 462,-189 462,-189 946,-189 989.33,-189 1026.45,-149.428 1046.38,-123.057"/>
<polygon fill="black" stroke="black" points="1049.41,-124.842 1052.46,-114.697 1043.75,-120.724 1049.41,-124.842"/>
<text text-anchor="middle" x="704" y="-192.8" font-family="Times,serif" font-size="14.00">u0003</text>
</g>
<!-- 5 -->
<g id="node7" class="node"><title>5</title>
<ellipse fill="none" stroke="black" cx="463" cy="-75" rx="18" ry="18"/>
</g>
<!-- 2&#45;&gt;5 -->
<g id="edge5" class="edge"><title>2&#45;&gt;5</title>
<path fill="none" stroke="black" d="M358.714,-131.187C365.114,-125.582 373.162,-119.027 381,-114 398.625,-102.695 420.022,-92.5285 436.397,-85.4116"/>
<polygon fill="black" stroke="black" points="438.029,-88.5214 445.866,-81.3916 435.293,-82.078 438.029,-88.5214"/>
<text text-anchor="middle" x="404" y="-117.8" font-family="Times,serif" font-size="14.00">u0005</text>
</g>
<!-- 3&#45;&gt;4 -->
<g id="edge6" class="edge"><title>3&#45;&gt;4</title>
<path fill="none" stroke="black" d="M963.116,-100C981.964,-100 1012.53,-100 1034.7,-100"/>
<polygon fill="black" stroke="black" points="1034.81,-103.5 1044.81,-100 1034.81,-96.5001 1034.81,-103.5"/>
<text text-anchor="middle" x="1004" y="-103.8" font-family="Times,serif" font-size="14.00">u0003</text>
</g>
<!-- 6 -->
<g id="node6" class="node"><title>6</title>
<ellipse fill="none" stroke="black" cx="1185" cy="-100" rx="18" ry="18"/>
<ellipse fill="none" stroke="black" cx="1185" cy="-100" rx="22" ry="22"/>
</g>
<!-- 4&#45;&gt;6 -->
<g id="edge7" class="edge"><title>4&#45;&gt;6</title>
<path fill="none" stroke="black" d="M1081.19,-100C1099.77,-100 1129.76,-100 1152.57,-100"/>
<polygon fill="black" stroke="black" points="1152.79,-103.5 1162.79,-100 1152.79,-96.5001 1152.79,-103.5"/>
<text text-anchor="middle" x="1122" y="-103.8" font-family="Times,serif" font-size="14.00">u0002</text>
</g>
<!-- 5&#45;&gt;3 -->
<g id="edge8" class="edge"><title>5&#45;&gt;3</title>
<path fill="none" stroke="black" d="M480.282,-80.7983C502.51,-88.1836 543.742,-100 580,-100 580,-100 580,-100 828,-100 858.251,-100 892.939,-100 916.442,-100"/>
<polygon fill="black" stroke="black" points="916.706,-103.5 926.705,-100 916.705,-96.5001 916.706,-103.5"/>
<text text-anchor="middle" x="704" y="-103.8" font-family="Times,serif" font-size="14.00">u0004</text>
</g>
<!-- 5&#45;&gt;4 -->
<g id="edge9" class="edge"><title>5&#45;&gt;4</title>
<path fill="none" stroke="black" d="M475.271,-61.2438C494.371,-39.592 535.394,-0 580,-0 580,-0 580,-0 946,-0 992.265,-0 1029.23,-46.1975 1048.16,-75.7928"/>
<polygon fill="black" stroke="black" points="1045.22,-77.6967 1053.45,-84.375 1051.18,-74.0251 1045.22,-77.6967"/>
<text text-anchor="middle" x="768" y="-3.8" font-family="Times,serif" font-size="14.00">u0003</text>
</g>
<!-- 7 -->
<g id="node8" class="node"><title>7</title>
<ellipse fill="none" stroke="black" cx="581" cy="-52" rx="18" ry="18"/>
</g>
<!-- 5&#45;&gt;7 -->
<g id="edge10" class="edge"><title>5&#45;&gt;7</title>
<path fill="none" stroke="black" d="M481.116,-71.6063C500.158,-67.8307 531.163,-61.6833 553.379,-57.2783"/>
<polygon fill="black" stroke="black" points="554.062,-60.711 563.191,-55.3329 552.701,-53.8447 554.062,-60.711"/>
<text text-anchor="middle" x="522" y="-71.8" font-family="Times,serif" font-size="14.00">u0005</text>
</g>
<!-- 8 -->
<g id="node9" class="node"><title>8</title>
<ellipse fill="none" stroke="black" cx="704" cy="-46" rx="18" ry="18"/>
</g>
<!-- 7&#45;&gt;8 -->
<g id="edge11" class="edge"><title>7&#45;&gt;8</title>
<path fill="none" stroke="black" d="M599.08,-51.1531C619.078,-50.1614 652.454,-48.5064 675.976,-47.34"/>
<polygon fill="black" stroke="black" points="676.193,-50.8337 686.007,-46.8426 675.846,-43.8423 676.193,-50.8337"/>
<text text-anchor="middle" x="640" y="-54.8" font-family="Times,serif" font-size="14.00">u0004</text>
</g>
<!-- 9 -->
<g id="node10" class="node"><title>9</title>
<ellipse fill="none" stroke="black" cx="827" cy="-52" rx="18" ry="18"/>
</g>
<!-- 8&#45;&gt;9 -->
<g id="edge12" class="edge"><title>8&#45;&gt;9</title>
<path fill="none" stroke="black" d="M722.08,-46.8469C742.078,-47.8386 775.454,-49.4936 798.976,-50.66"/>
<polygon fill="black" stroke="black" points="798.846,-54.1577 809.007,-51.1574 799.193,-47.1663 798.846,-54.1577"/>
<text text-anchor="middle" x="768" y="-54.8" font-family="Times,serif" font-size="14.00">u0005</text>
</g>
<!-- 9&#45;&gt;3 -->
<g id="edge13" class="edge"><title>9&#45;&gt;3</title>
<path fill="none" stroke="black" d="M845.216,-53.7146C862.168,-55.926 888.433,-60.7803 909,-71 914.212,-73.5897 919.325,-77.0941 923.965,-80.7713"/>
<polygon fill="black" stroke="black" points="921.851,-83.5692 931.723,-87.4165 926.405,-78.2529 921.851,-83.5692"/>
<text text-anchor="middle" x="886" y="-74.8" font-family="Times,serif" font-size="14.00">u0005</text>
</g>
<!-- initial -->
<g id="node11" class="node"><title>initial</title>
</g>
<!-- initial&#45;&gt;0 -->
<g id="edge14" class="edge"><title>initial&#45;&gt;0</title>
<path fill="none" stroke="black" d="M54.195,-143C62.6538,-143 72.0513,-143 80.5951,-143"/>
<polygon fill="black" stroke="black" points="80.8257,-146.5 90.8257,-143 80.8257,-139.5 80.8257,-146.5"/>
</g>
</g>
</svg>
