<svg width="2729px" height="237px"
 viewBox="0.00 0.00 2047.00 178.00" xmlns="http://www.w3.org/2000/svg" xmlns:xlink="http://www.w3.org/1999/xlink">
<g id="graph0" class="graph" transform="scale(1.000022500562514 1.000022500562514) rotate(0) translate(4 174)">
<title>Automaton</title>
<polygon fill="white" stroke="none" points="-4,4 -4,-174 2043,-174 2043,4 -4,4"/>
<!-- 0 -->
<g id="node1" class="node"><title>0</title>
<ellipse fill="none" stroke="black" cx="109" cy="-142" rx="18" ry="18"/>
</g>
<!-- 1 -->
<g id="node2" class="node"><title>1</title>
<ellipse fill="none" stroke="black" cx="227" cy="-142" rx="18" ry="18"/>
</g>
<!-- 0&#45;&gt;1 -->
<g id="edge1" class="edge"><title>0&#45;&gt;1</title>
<path fill="none" stroke="black" d="M127.116,-142C145.964,-142 176.531,-142 198.696,-142"/>
<polygon fill="black" stroke="black" points="198.814,-145.5 208.814,-142 198.814,-138.5 198.814,-145.5"/>
<text text-anchor="middle" x="168" y="-145.8" font-family="Times,serif" font-size="14.00">u0006</text>
</g>
<!-- 2 -->
<g id="node3" class="node"><title>2</title>
<ellipse fill="none" stroke="black" cx="345" cy="-142" rx="18" ry="18"/>
</g>
<!-- 1&#45;&gt;2 -->
<g id="edge2" class="edge"><title>1&#45;&gt;2</title>
<path fill="none" stroke="black" d="M245.116,-142C263.964,-142 294.531,-142 316.696,-142"/>
<polygon fill="black" stroke="black" points="316.814,-145.5 326.814,-142 316.814,-138.5 316.814,-145.5"/>
<text text-anchor="middle" x="286" y="-145.8" font-family="Times,serif" font-size="14.00">u0005</text>
</g>
<!-- 3 -->
<g id="node4" class="node"><title>3</title>
<ellipse fill="none" stroke="black" cx="463" cy="-142" rx="18" ry="18"/>
</g>
<!-- 2&#45;&gt;3 -->
<g id="edge3" class="edge"><title>2&#45;&gt;3</title>
<path fill="none" stroke="black" d="M363.116,-142C381.964,-142 412.531,-142 434.696,-142"/>
<polygon fill="black" stroke="black" points="434.814,-145.5 444.814,-142 434.814,-138.5 434.814,-145.5"/>
<text text-anchor="middle" x="404" y="-145.8" font-family="Times,serif" font-size="14.00">u0004</text>
</g>
<!-- 4 -->
<g id="node5" class="node"><title>4</title>
<ellipse fill="none" stroke="black" cx="581" cy="-142" rx="18" ry="18"/>
</g>
<!-- 3&#45;&gt;4 -->
<g id="edge4" class="edge"><title>3&#45;&gt;4</title>
<path fill="none" stroke="black" d="M481.116,-142C499.964,-142 530.531,-142 552.696,-142"/>
<polygon fill="black" stroke="black" points="552.814,-145.5 562.814,-142 552.814,-138.5 552.814,-145.5"/>
<text text-anchor="middle" x="522" y="-145.8" font-family="Times,serif" font-size="14.00">u0003</text>
</g>
<!-- 5 -->
<g id="node6" class="node"><title>5</title>
<ellipse fill="none" stroke="black" cx="699" cy="-142" rx="18" ry="18"/>
</g>
<!-- 4&#45;&gt;5 -->
<g id="edge5" class="edge"><title>4&#45;&gt;5</title>
<path fill="none" stroke="black" d="M599.116,-142C617.964,-142 648.531,-142 670.696,-142"/>
<polygon fill="black" stroke="black" points="670.814,-145.5 680.814,-142 670.814,-138.5 670.814,-145.5"/>
<text text-anchor="middle" x="640" y="-145.8" font-family="Times,serif" font-size="14.00">u0000</text>
</g>
<!-- 6 -->
<g id="node7" class="node"><title>6</title>
<ellipse fill="none" stroke="black" cx="817" cy="-142" rx="18" ry="18"/>
</g>
<!-- 5&#45;&gt;6 -->
<g id="edge6" class="edge"><title>5&#45;&gt;6</title>
<path fill="none" stroke="black" d="M717.116,-142C735.964,-142 766.531,-142 788.696,-142"/>
<polygon fill="black" stroke="black" points="788.814,-145.5 798.814,-142 788.814,-138.5 788.814,-145.5"/>
<text text-anchor="middle" x="758" y="-145.8" font-family="Times,serif" font-size="14.00">u0001</text>
</g>
<!-- 7 -->
<g id="node8" class="node"><title>7</title>
<ellipse fill="none" stroke="black" cx="935" cy="-142" rx="18" ry="18"/>
</g>
<!-- 6&#45;&gt;7 -->
<g id="edge7" class="edge"><title>6&#45;&gt;7</title>
<path fill="none" stroke="black" d="M835.116,-142C853.964,-142 884.531,-142 906.696,-142"/>
<polygon fill="black" stroke="black" points="906.814,-145.5 916.814,-142 906.814,-138.5 906.814,-145.5"/>
<text text-anchor="middle" x="876" y="-145.8" font-family="Times,serif" font-size="14.00">u0002</text>
</g>
<!-- 8 -->
<g id="node9" class="node"><title>8</title>
<ellipse fill="none" stroke="black" cx="1053" cy="-142" rx="18" ry="18"/>
</g>
<!-- 7&#45;&gt;8 -->
<g id="edge8" class="edge"><title>7&#45;&gt;8</title>
<path fill="none" stroke="black" d="M953.116,-142C971.964,-142 1002.53,-142 1024.7,-142"/>
<polygon fill="black" stroke="black" points="1024.81,-145.5 1034.81,-142 1024.81,-138.5 1024.81,-145.5"/>
<text text-anchor="middle" x="994" y="-145.8" font-family="Times,serif" font-size="14.00">u0007</text>
</g>
<!-- 9 -->
<g id="node10" class="node"><title>9</title>
<ellipse fill="none" stroke="black" cx="1171" cy="-142" rx="18" ry="18"/>
</g>
<!-- 8&#45;&gt;9 -->
<g id="edge9" class="edge"><title>8&#45;&gt;9</title>
<path fill="none" stroke="black" d="M1071.12,-142C1089.96,-142 1120.53,-142 1142.7,-142"/>
<polygon fill="black" stroke="black" points="1142.81,-145.5 1152.81,-142 1142.81,-138.5 1142.81,-145.5"/>
<text text-anchor="middle" x="1112" y="-145.8" font-family="Times,serif" font-size="14.00">u0008</text>
</g>
<!-- 10 -->
<g id="node11" class="node"><title>10</title>
<ellipse fill="none" stroke="black" cx="1767" cy="-152" rx="18" ry="18"/>
</g>
<!-- 9&#45;&gt;10 -->
<g id="edge10" class="edge"><title>9&#45;&gt;10</title>
<path fill="none" stroke="black" d="M1189.1,-144.663C1211.52,-147.918 1252.1,-153 1287,-153 1287,-153 1287,-153 1651,-153 1680.99,-153 1715.38,-152.656 1738.68,-152.371"/>
<polygon fill="black" stroke="black" points="1738.9,-155.869 1748.85,-152.242 1738.81,-148.869 1738.9,-155.869"/>
<text text-anchor="middle" x="1464" y="-156.8" font-family="Times,serif" font-size="14.00">u000b</text>
</g>
<!-- 11 -->
<g id="node14" class="node"><title>11</title>
<ellipse fill="none" stroke="black" cx="1288" cy="-82" rx="18" ry="18"/>
</g>
<!-- 9&#45;&gt;11 -->
<g id="edge11" class="edge"><title>9&#45;&gt;11</title>
<path fill="none" stroke="black" d="M1187.51,-133.908C1206.82,-123.832 1240.03,-106.506 1262.72,-94.6654"/>
<polygon fill="black" stroke="black" points="1264.49,-97.6924 1271.74,-89.9637 1261.25,-91.4863 1264.49,-97.6924"/>
<text text-anchor="middle" x="1229.5" y="-126.8" font-family="Times,serif" font-size="14.00">u000a</text>
</g>
<!-- 12 -->
<g id="node12" class="node"><title>12</title>
<ellipse fill="none" stroke="black" cx="2017" cy="-131" rx="18" ry="18"/>
<ellipse fill="none" stroke="black" cx="2017" cy="-131" rx="22" ry="22"/>
</g>
<!-- 10&#45;&gt;12 -->
<g id="edge12" class="edge"><title>10&#45;&gt;12</title>
<path fill="none" stroke="black" d="M1785.13,-151.495C1820.89,-150.299 1906.07,-146.714 1977,-138 1979.57,-137.684 1982.23,-137.31 1984.89,-136.902"/>
<polygon fill="black" stroke="black" points="1985.73,-140.31 1995.01,-135.207 1984.57,-133.406 1985.73,-140.31"/>
<text text-anchor="middle" x="1890" y="-150.8" font-family="Times,serif" font-size="14.00">u0009</text>
</g>
<!-- 13 -->
<g id="node13" class="node"><title>13</title>
<ellipse fill="none" stroke="black" cx="1890" cy="-98" rx="18" ry="18"/>
</g>
<!-- 10&#45;&gt;13 -->
<g id="edge13" class="edge"><title>10&#45;&gt;13</title>
<path fill="none" stroke="black" d="M1780.37,-139.606C1786.69,-133.863 1794.77,-127.361 1803,-123 1821.54,-113.17 1844.44,-106.756 1861.95,-102.888"/>
<polygon fill="black" stroke="black" points="1862.98,-106.25 1872.06,-100.801 1861.56,-99.3942 1862.98,-106.25"/>
<text text-anchor="middle" x="1826" y="-126.8" font-family="Times,serif" font-size="14.00">u000b</text>
</g>
<!-- 13&#45;&gt;12 -->
<g id="edge14" class="edge"><title>13&#45;&gt;12</title>
<path fill="none" stroke="black" d="M1907.6,-102.382C1927.47,-107.629 1961.15,-116.518 1985.7,-123"/>
<polygon fill="black" stroke="black" points="1985.03,-126.445 1995.6,-125.613 1986.82,-119.677 1985.03,-126.445"/>
<text text-anchor="middle" x="1954" y="-124.8" font-family="Times,serif" font-size="14.00">u0009</text>
</g>
<!-- 14 -->
<g id="node15" class="node"><title>14</title>
<ellipse fill="none" stroke="black" cx="1464" cy="-111" rx="18" ry="18"/>
</g>
<!-- 11&#45;&gt;14 -->
<g id="edge15" class="edge"><title>11&#45;&gt;14</title>
<path fill="none" stroke="black" d="M1306,-84.8334C1336.35,-89.8924 1400.08,-100.514 1436.32,-106.553"/>
<polygon fill="black" stroke="black" points="1435.75,-110.006 1446.19,-108.198 1436.9,-103.101 1435.75,-110.006"/>
<text text-anchor="middle" x="1346.5" y="-99.8" font-family="Times,serif" font-size="14.00">u000c</text>
</g>
<!-- 15 -->
<g id="node16" class="node"><title>15</title>
<ellipse fill="none" stroke="black" cx="1767" cy="-73" rx="18" ry="18"/>
</g>
<!-- 11&#45;&gt;15 -->
<g id="edge16" class="edge"><title>11&#45;&gt;15</title>
<path fill="none" stroke="black" d="M1306.11,-79.5793C1328.53,-76.6198 1369.13,-72 1404,-72 1404,-72 1404,-72 1651,-72 1680.99,-72 1715.38,-72.3443 1738.68,-72.6288"/>
<polygon fill="black" stroke="black" points="1738.81,-76.1307 1748.85,-72.7579 1738.9,-69.1312 1738.81,-76.1307"/>
<text text-anchor="middle" x="1528" y="-75.8" font-family="Times,serif" font-size="14.00">u000b</text>
</g>
<!-- 16 -->
<g id="node17" class="node"><title>16</title>
<ellipse fill="none" stroke="black" cx="1405" cy="-24" rx="18" ry="18"/>
</g>
<!-- 11&#45;&gt;16 -->
<g id="edge17" class="edge"><title>11&#45;&gt;16</title>
<path fill="none" stroke="black" d="M1298.7,-67.3487C1304.97,-59.0056 1313.83,-49.043 1324,-43 1340.11,-33.4267 1360.73,-28.6755 1377,-26.3183"/>
<polygon fill="black" stroke="black" points="1377.47,-29.786 1386.97,-25.0883 1376.62,-22.8387 1377.47,-29.786"/>
<text text-anchor="middle" x="1346.5" y="-46.8" font-family="Times,serif" font-size="14.00">u000a</text>
</g>
<!-- 14&#45;&gt;15 -->
<g id="edge18" class="edge"><title>14&#45;&gt;15</title>
<path fill="none" stroke="black" d="M1482.05,-110.934C1524.61,-110.439 1638.75,-107.081 1731,-86 1734.22,-85.2635 1737.55,-84.3045 1740.81,-83.2409"/>
<polygon fill="black" stroke="black" points="1742.01,-86.5296 1750.24,-79.8541 1739.64,-79.942 1742.01,-86.5296"/>
<text text-anchor="middle" x="1591.5" y="-111.8" font-family="Times,serif" font-size="14.00">u000a</text>
</g>
<!-- 15&#45;&gt;13 -->
<g id="edge19" class="edge"><title>15&#45;&gt;13</title>
<path fill="none" stroke="black" d="M1785.28,-73.9496C1801.83,-75.1356 1827.4,-77.6948 1849,-83 1853.88,-84.1972 1858.97,-85.81 1863.82,-87.5349"/>
<polygon fill="black" stroke="black" points="1862.72,-90.8591 1873.31,-91.1356 1865.2,-84.3147 1862.72,-90.8591"/>
<text text-anchor="middle" x="1826" y="-86.8" font-family="Times,serif" font-size="14.00">u000a</text>
</g>
<!-- 17 -->
<g id="node18" class="node"><title>17</title>
<ellipse fill="none" stroke="black" cx="1528" cy="-18" rx="18" ry="18"/>
</g>
<!-- 16&#45;&gt;17 -->
<g id="edge20" class="edge"><title>16&#45;&gt;17</title>
<path fill="none" stroke="black" d="M1423.08,-23.1531C1443.08,-22.1614 1476.45,-20.5064 1499.98,-19.34"/>
<polygon fill="black" stroke="black" points="1500.19,-22.8337 1510.01,-18.8426 1499.85,-15.8423 1500.19,-22.8337"/>
<text text-anchor="middle" x="1464" y="-26.8" font-family="Times,serif" font-size="14.00">u000b</text>
</g>
<!-- 18 -->
<g id="node19" class="node"><title>18</title>
<ellipse fill="none" stroke="black" cx="1650" cy="-24" rx="18" ry="18"/>
</g>
<!-- 17&#45;&gt;18 -->
<g id="edge21" class="edge"><title>17&#45;&gt;18</title>
<path fill="none" stroke="black" d="M1546.19,-18.8597C1565.89,-19.8443 1598.42,-21.4709 1621.61,-22.6305"/>
<polygon fill="black" stroke="black" points="1621.68,-26.1381 1631.84,-23.1419 1622.03,-19.1468 1621.68,-26.1381"/>
<text text-anchor="middle" x="1591.5" y="-26.8" font-family="Times,serif" font-size="14.00">u000c</text>
</g>
<!-- 18&#45;&gt;15 -->
<g id="edge22" class="edge"><title>18&#45;&gt;15</title>
<path fill="none" stroke="black" d="M1668.04,-25.681C1684.81,-27.8669 1710.77,-32.7023 1731,-43 1736.48,-45.7913 1741.83,-49.6114 1746.63,-53.5908"/>
<polygon fill="black" stroke="black" points="1744.32,-56.2254 1754.11,-60.2847 1748.99,-51.0085 1744.32,-56.2254"/>
<text text-anchor="middle" x="1708.5" y="-46.8" font-family="Times,serif" font-size="14.00">u000c</text>
</g>
<!-- initial -->
<g id="node20" class="node"><title>initial</title>
</g>
<!-- initial&#45;&gt;0 -->
<g id="edge23" class="edge"><title>initial&#45;&gt;0</title>
<path fill="none" stroke="black" d="M54.195,-142C62.6538,-142 72.0513,-142 80.5951,-142"/>
<polygon fill="black" stroke="black" points="80.8257,-145.5 90.8257,-142 80.8257,-138.5 80.8257,-145.5"/>
</g>
</g>
</svg>
