<svg width="2241px" height="131px"
 viewBox="0.00 0.00 1681.00 98.00" xmlns="http://www.w3.org/2000/svg" xmlns:xlink="http://www.w3.org/1999/xlink">
<g id="graph0" class="graph" transform="scale(1.000022500562514 1.000022500562514) rotate(0) translate(4 94)">
<title>Automaton</title>
<polygon fill="white" stroke="none" points="-4,4 -4,-94 1677,-94 1677,4 -4,4"/>
<!-- 0 -->
<g id="node1" class="node"><title>0</title>
<ellipse fill="none" stroke="black" cx="109" cy="-41" rx="18" ry="18"/>
</g>
<!-- 1 -->
<g id="node2" class="node"><title>1</title>
<ellipse fill="none" stroke="black" cx="227" cy="-41" rx="18" ry="18"/>
</g>
<!-- 0&#45;&gt;1 -->
<g id="edge1" class="edge"><title>0&#45;&gt;1</title>
<path fill="none" stroke="black" d="M127.116,-41C145.964,-41 176.531,-41 198.696,-41"/>
<polygon fill="black" stroke="black" points="198.814,-44.5001 208.814,-41 198.814,-37.5001 198.814,-44.5001"/>
<text text-anchor="middle" x="168" y="-44.8" font-family="Times,serif" font-size="14.00">u0001</text>
</g>
<!-- 2 -->
<g id="node3" class="node"><title>2</title>
<ellipse fill="none" stroke="black" cx="345" cy="-41" rx="18" ry="18"/>
</g>
<!-- 1&#45;&gt;2 -->
<g id="edge2" class="edge"><title>1&#45;&gt;2</title>
<path fill="none" stroke="black" d="M245.116,-41C263.964,-41 294.531,-41 316.696,-41"/>
<polygon fill="black" stroke="black" points="316.814,-44.5001 326.814,-41 316.814,-37.5001 316.814,-44.5001"/>
<text text-anchor="middle" x="286" y="-44.8" font-family="Times,serif" font-size="14.00">u0003</text>
</g>
<!-- 3 -->
<g id="node4" class="node"><title>3</title>
<ellipse fill="none" stroke="black" cx="462" cy="-41" rx="18" ry="18"/>
</g>
<!-- 2&#45;&gt;3 -->
<g id="edge3" class="edge"><title>2&#45;&gt;3</title>
<path fill="none" stroke="black" d="M363.466,-41C382.064,-41 411.756,-41 433.499,-41"/>
<polygon fill="black" stroke="black" points="433.746,-44.5001 443.746,-41 433.746,-37.5001 433.746,-44.5001"/>
<text text-anchor="middle" x="403.5" y="-44.8" font-family="Times,serif" font-size="14.00">u000e</text>
</g>
<!-- 4 -->
<g id="node5" class="node"><title>4</title>
<ellipse fill="none" stroke="black" cx="576" cy="-41" rx="18" ry="18"/>
</g>
<!-- 3&#45;&gt;4 -->
<g id="edge4" class="edge"><title>3&#45;&gt;4</title>
<path fill="none" stroke="black" d="M480.01,-41C497.937,-41 526.445,-41 547.558,-41"/>
<polygon fill="black" stroke="black" points="547.83,-44.5001 557.83,-41 547.829,-37.5001 547.83,-44.5001"/>
<text text-anchor="middle" x="519" y="-44.8" font-family="Times,serif" font-size="14.00">u000f</text>
</g>
<!-- 5 -->
<g id="node6" class="node"><title>5</title>
<ellipse fill="none" stroke="black" cx="694" cy="-41" rx="18" ry="18"/>
</g>
<!-- 4&#45;&gt;5 -->
<g id="edge5" class="edge"><title>4&#45;&gt;5</title>
<path fill="none" stroke="black" d="M594.116,-41C612.964,-41 643.531,-41 665.696,-41"/>
<polygon fill="black" stroke="black" points="665.814,-44.5001 675.814,-41 665.814,-37.5001 665.814,-44.5001"/>
<text text-anchor="middle" x="635" y="-44.8" font-family="Times,serif" font-size="14.00">u0002</text>
</g>
<!-- 6 -->
<g id="node7" class="node"><title>6</title>
<ellipse fill="none" stroke="black" cx="811" cy="-41" rx="18" ry="18"/>
</g>
<!-- 5&#45;&gt;6 -->
<g id="edge6" class="edge"><title>5&#45;&gt;6</title>
<path fill="none" stroke="black" d="M712.466,-41C731.064,-41 760.756,-41 782.499,-41"/>
<polygon fill="black" stroke="black" points="782.746,-44.5001 792.746,-41 782.746,-37.5001 782.746,-44.5001"/>
<text text-anchor="middle" x="752.5" y="-44.8" font-family="Times,serif" font-size="14.00">u000c</text>
</g>
<!-- 7 -->
<g id="node8" class="node"><title>7</title>
<ellipse fill="none" stroke="black" cx="929" cy="-41" rx="18" ry="18"/>
</g>
<!-- 6&#45;&gt;7 -->
<g id="edge7" class="edge"><title>6&#45;&gt;7</title>
<path fill="none" stroke="black" d="M829.116,-41C847.964,-41 878.531,-41 900.696,-41"/>
<polygon fill="black" stroke="black" points="900.814,-44.5001 910.814,-41 900.814,-37.5001 900.814,-44.5001"/>
<text text-anchor="middle" x="870" y="-44.8" font-family="Times,serif" font-size="14.00">u000d</text>
</g>
<!-- 8 -->
<g id="node9" class="node"><title>8</title>
<ellipse fill="none" stroke="black" cx="1047" cy="-72" rx="18" ry="18"/>
</g>
<!-- 7&#45;&gt;8 -->
<g id="edge8" class="edge"><title>7&#45;&gt;8</title>
<path fill="none" stroke="black" d="M946.62,-45.4415C965.657,-50.5289 997.103,-58.9327 1019.52,-64.9243"/>
<polygon fill="black" stroke="black" points="1018.85,-68.3662 1029.41,-67.5667 1020.65,-61.6035 1018.85,-68.3662"/>
<text text-anchor="middle" x="988" y="-64.8" font-family="Times,serif" font-size="14.00">u000c</text>
</g>
<!-- 9 -->
<g id="node14" class="node"><title>9</title>
<ellipse fill="none" stroke="black" cx="1047" cy="-18" rx="18" ry="18"/>
</g>
<!-- 7&#45;&gt;9 -->
<g id="edge9" class="edge"><title>7&#45;&gt;9</title>
<path fill="none" stroke="black" d="M946.278,-35.9131C952.141,-34.197 958.831,-32.3712 965,-31 982.735,-27.0579 1002.91,-23.8166 1018.68,-21.5565"/>
<polygon fill="black" stroke="black" points="1019.4,-24.9915 1028.82,-20.152 1018.44,-18.0577 1019.4,-24.9915"/>
<text text-anchor="middle" x="988" y="-34.8" font-family="Times,serif" font-size="14.00">u0006</text>
</g>
<!-- 10 -->
<g id="node10" class="node"><title>10</title>
<ellipse fill="none" stroke="black" cx="1165" cy="-72" rx="18" ry="18"/>
</g>
<!-- 8&#45;&gt;10 -->
<g id="edge10" class="edge"><title>8&#45;&gt;10</title>
<path fill="none" stroke="black" d="M1065.12,-72C1083.96,-72 1114.53,-72 1136.7,-72"/>
<polygon fill="black" stroke="black" points="1136.81,-75.5001 1146.81,-72 1136.81,-68.5001 1136.81,-75.5001"/>
<text text-anchor="middle" x="1106" y="-75.8" font-family="Times,serif" font-size="14.00">u0006</text>
</g>
<!-- 12 -->
<g id="node11" class="node"><title>12</title>
<ellipse fill="none" stroke="black" cx="1342" cy="-72" rx="18" ry="18"/>
</g>
<!-- 10&#45;&gt;12 -->
<g id="edge11" class="edge"><title>10&#45;&gt;12</title>
<path fill="none" stroke="black" d="M1183.1,-72C1213.42,-72 1276.84,-72 1313.41,-72"/>
<polygon fill="black" stroke="black" points="1313.83,-75.5001 1323.83,-72 1313.83,-68.5001 1313.83,-75.5001"/>
<text text-anchor="middle" x="1224" y="-75.8" font-family="Times,serif" font-size="14.00">u0004</text>
</g>
<!-- 14 -->
<g id="node12" class="node"><title>14</title>
<ellipse fill="none" stroke="black" cx="1529" cy="-51" rx="18" ry="18"/>
</g>
<!-- 12&#45;&gt;14 -->
<g id="edge12" class="edge"><title>12&#45;&gt;14</title>
<path fill="none" stroke="black" d="M1360.17,-70.9826C1388.11,-69.1954 1445.12,-65.0025 1493,-58 1495.72,-57.6018 1498.55,-57.1311 1501.37,-56.625"/>
<polygon fill="black" stroke="black" points="1502.17,-60.0358 1511.33,-54.7036 1500.84,-53.1627 1502.17,-60.0358"/>
<text text-anchor="middle" x="1406" y="-72.8" font-family="Times,serif" font-size="14.00">u0005</text>
</g>
<!-- 16 -->
<g id="node13" class="node"><title>16</title>
<ellipse fill="none" stroke="black" cx="1651" cy="-51" rx="18" ry="18"/>
<ellipse fill="none" stroke="black" cx="1651" cy="-51" rx="22" ry="22"/>
</g>
<!-- 14&#45;&gt;16 -->
<g id="edge13" class="edge"><title>14&#45;&gt;16</title>
<path fill="none" stroke="black" d="M1547.19,-51C1565.77,-51 1595.76,-51 1618.57,-51"/>
<polygon fill="black" stroke="black" points="1618.79,-54.5001 1628.79,-51 1618.79,-47.5001 1618.79,-54.5001"/>
<text text-anchor="middle" x="1588" y="-54.8" font-family="Times,serif" font-size="14.00">u0007</text>
</g>
<!-- 11 -->
<g id="node15" class="node"><title>11</title>
<ellipse fill="none" stroke="black" cx="1165" cy="-18" rx="18" ry="18"/>
</g>
<!-- 9&#45;&gt;11 -->
<g id="edge14" class="edge"><title>9&#45;&gt;11</title>
<path fill="none" stroke="black" d="M1065.12,-18C1083.96,-18 1114.53,-18 1136.7,-18"/>
<polygon fill="black" stroke="black" points="1136.81,-21.5001 1146.81,-18 1136.81,-14.5001 1136.81,-21.5001"/>
<text text-anchor="middle" x="1106" y="-21.8" font-family="Times,serif" font-size="14.00">u0004</text>
</g>
<!-- 13 -->
<g id="node16" class="node"><title>13</title>
<ellipse fill="none" stroke="black" cx="1283" cy="-18" rx="18" ry="18"/>
</g>
<!-- 11&#45;&gt;13 -->
<g id="edge15" class="edge"><title>11&#45;&gt;13</title>
<path fill="none" stroke="black" d="M1183.12,-18C1201.96,-18 1232.53,-18 1254.7,-18"/>
<polygon fill="black" stroke="black" points="1254.81,-21.5001 1264.81,-18 1254.81,-14.5001 1254.81,-21.5001"/>
<text text-anchor="middle" x="1224" y="-21.8" font-family="Times,serif" font-size="14.00">u0005</text>
</g>
<!-- 15 -->
<g id="node17" class="node"><title>15</title>
<ellipse fill="none" stroke="black" cx="1406" cy="-18" rx="18" ry="18"/>
</g>
<!-- 13&#45;&gt;15 -->
<g id="edge16" class="edge"><title>13&#45;&gt;15</title>
<path fill="none" stroke="black" d="M1301.08,-18C1320.96,-18 1354.08,-18 1377.58,-18"/>
<polygon fill="black" stroke="black" points="1377.62,-21.5001 1387.62,-18 1377.62,-14.5001 1377.62,-21.5001"/>
<text text-anchor="middle" x="1342" y="-21.8" font-family="Times,serif" font-size="14.00">u0008</text>
</g>
<!-- 15&#45;&gt;14 -->
<g id="edge17" class="edge"><title>15&#45;&gt;14</title>
<path fill="none" stroke="black" d="M1423.82,-22.5885C1443.96,-28.0805 1477.92,-37.3425 1501.57,-43.7929"/>
<polygon fill="black" stroke="black" points="1500.75,-47.1959 1511.32,-46.4505 1502.59,-40.4425 1500.75,-47.1959"/>
<text text-anchor="middle" x="1470" y="-44.8" font-family="Times,serif" font-size="14.00">u0010</text>
</g>
<!-- initial -->
<g id="node18" class="node"><title>initial</title>
</g>
<!-- initial&#45;&gt;0 -->
<g id="edge18" class="edge"><title>initial&#45;&gt;0</title>
<path fill="none" stroke="black" d="M54.195,-41C62.6538,-41 72.0513,-41 80.5951,-41"/>
<polygon fill="black" stroke="black" points="80.8257,-44.5001 90.8257,-41 80.8257,-37.5001 80.8257,-44.5001"/>
</g>
</g>
</svg>
