<svg width="3607px" height="1068px"
 viewBox="0.00 0.00 2705.00 801.00" xmlns="http://www.w3.org/2000/svg" xmlns:xlink="http://www.w3.org/1999/xlink">
<g id="graph0" class="graph" transform="scale(1.000022500562514 1.000022500562514) rotate(0) translate(4 797)">
<title>Automaton</title>
<polygon fill="white" stroke="none" points="-4,4 -4,-797 2701,-797 2701,4 -4,4"/>
<!-- 0 -->
<g id="node1" class="node"><title>0</title>
<ellipse fill="none" stroke="black" cx="109" cy="-557" rx="18" ry="18"/>
</g>
<!-- 1 -->
<g id="node2" class="node"><title>1</title>
<ellipse fill="none" stroke="black" cx="227" cy="-557" rx="18" ry="18"/>
</g>
<!-- 0&#45;&gt;1 -->
<g id="edge1" class="edge"><title>0&#45;&gt;1</title>
<path fill="none" stroke="black" d="M127.116,-557C145.964,-557 176.531,-557 198.696,-557"/>
<polygon fill="black" stroke="black" points="198.814,-560.5 208.814,-557 198.814,-553.5 198.814,-560.5"/>
<text text-anchor="middle" x="168" y="-560.8" font-family="Times,serif" font-size="14.00">u0006</text>
</g>
<!-- 2 -->
<g id="node3" class="node"><title>2</title>
<ellipse fill="none" stroke="black" cx="345" cy="-557" rx="18" ry="18"/>
</g>
<!-- 1&#45;&gt;2 -->
<g id="edge2" class="edge"><title>1&#45;&gt;2</title>
<path fill="none" stroke="black" d="M245.116,-557C263.964,-557 294.531,-557 316.696,-557"/>
<polygon fill="black" stroke="black" points="316.814,-560.5 326.814,-557 316.814,-553.5 316.814,-560.5"/>
<text text-anchor="middle" x="286" y="-560.8" font-family="Times,serif" font-size="14.00">u0005</text>
</g>
<!-- 3 -->
<g id="node4" class="node"><title>3</title>
<ellipse fill="none" stroke="black" cx="463" cy="-557" rx="18" ry="18"/>
</g>
<!-- 2&#45;&gt;3 -->
<g id="edge3" class="edge"><title>2&#45;&gt;3</title>
<path fill="none" stroke="black" d="M363.116,-557C381.964,-557 412.531,-557 434.696,-557"/>
<polygon fill="black" stroke="black" points="434.814,-560.5 444.814,-557 434.814,-553.5 434.814,-560.5"/>
<text text-anchor="middle" x="404" y="-560.8" font-family="Times,serif" font-size="14.00">u0004</text>
</g>
<!-- 4 -->
<g id="node5" class="node"><title>4</title>
<ellipse fill="none" stroke="black" cx="581" cy="-557" rx="18" ry="18"/>
</g>
<!-- 3&#45;&gt;4 -->
<g id="edge4" class="edge"><title>3&#45;&gt;4</title>
<path fill="none" stroke="black" d="M481.116,-557C499.964,-557 530.531,-557 552.696,-557"/>
<polygon fill="black" stroke="black" points="552.814,-560.5 562.814,-557 552.814,-553.5 552.814,-560.5"/>
<text text-anchor="middle" x="522" y="-560.8" font-family="Times,serif" font-size="14.00">u0003</text>
</g>
<!-- 5 -->
<g id="node6" class="node"><title>5</title>
<ellipse fill="none" stroke="black" cx="699" cy="-557" rx="18" ry="18"/>
</g>
<!-- 4&#45;&gt;5 -->
<g id="edge5" class="edge"><title>4&#45;&gt;5</title>
<path fill="none" stroke="black" d="M599.116,-557C617.964,-557 648.531,-557 670.696,-557"/>
<polygon fill="black" stroke="black" points="670.814,-560.5 680.814,-557 670.814,-553.5 670.814,-560.5"/>
<text text-anchor="middle" x="640" y="-560.8" font-family="Times,serif" font-size="14.00">u0000</text>
</g>
<!-- 6 -->
<g id="node7" class="node"><title>6</title>
<ellipse fill="none" stroke="black" cx="817" cy="-557" rx="18" ry="18"/>
</g>
<!-- 5&#45;&gt;6 -->
<g id="edge6" class="edge"><title>5&#45;&gt;6</title>
<path fill="none" stroke="black" d="M717.116,-557C735.964,-557 766.531,-557 788.696,-557"/>
<polygon fill="black" stroke="black" points="788.814,-560.5 798.814,-557 788.814,-553.5 788.814,-560.5"/>
<text text-anchor="middle" x="758" y="-560.8" font-family="Times,serif" font-size="14.00">u0001</text>
</g>
<!-- 7 -->
<g id="node8" class="node"><title>7</title>
<ellipse fill="none" stroke="black" cx="935" cy="-557" rx="18" ry="18"/>
</g>
<!-- 6&#45;&gt;7 -->
<g id="edge7" class="edge"><title>6&#45;&gt;7</title>
<path fill="none" stroke="black" d="M835.116,-557C853.964,-557 884.531,-557 906.696,-557"/>
<polygon fill="black" stroke="black" points="906.814,-560.5 916.814,-557 906.814,-553.5 906.814,-560.5"/>
<text text-anchor="middle" x="876" y="-560.8" font-family="Times,serif" font-size="14.00">u0002</text>
</g>
<!-- 8 -->
<g id="node9" class="node"><title>8</title>
<ellipse fill="none" stroke="black" cx="1053" cy="-557" rx="18" ry="18"/>
</g>
<!-- 7&#45;&gt;8 -->
<g id="edge8" class="edge"><title>7&#45;&gt;8</title>
<path fill="none" stroke="black" d="M953.116,-557C971.964,-557 1002.53,-557 1024.7,-557"/>
<polygon fill="black" stroke="black" points="1024.81,-560.5 1034.81,-557 1024.81,-553.5 1024.81,-560.5"/>
<text text-anchor="middle" x="994" y="-560.8" font-family="Times,serif" font-size="14.00">u0007</text>
</g>
<!-- 9 -->
<g id="node10" class="node"><title>9</title>
<ellipse fill="none" stroke="black" cx="1171" cy="-557" rx="18" ry="18"/>
</g>
<!-- 8&#45;&gt;9 -->
<g id="edge9" class="edge"><title>8&#45;&gt;9</title>
<path fill="none" stroke="black" d="M1071.12,-557C1089.96,-557 1120.53,-557 1142.7,-557"/>
<polygon fill="black" stroke="black" points="1142.81,-560.5 1152.81,-557 1142.81,-553.5 1142.81,-560.5"/>
<text text-anchor="middle" x="1112" y="-560.8" font-family="Times,serif" font-size="14.00">u0008</text>
</g>
<!-- 10 -->
<g id="node11" class="node"><title>10</title>
<ellipse fill="none" stroke="black" cx="2675" cy="-571" rx="18" ry="18"/>
<ellipse fill="none" stroke="black" cx="2675" cy="-571" rx="22" ry="22"/>
</g>
<!-- 9&#45;&gt;10 -->
<g id="edge10" class="edge"><title>9&#45;&gt;10</title>
<path fill="none" stroke="black" d="M1173.02,-575.085C1177.05,-627.867 1196.57,-778 1288,-778 1288,-778 1288,-778 2549,-778 2595.86,-778 2608.25,-755.478 2635,-717 2658.88,-682.645 2668.14,-634.437 2671.73,-602.966"/>
<polygon fill="black" stroke="black" points="2675.22,-603.281 2672.75,-592.979 2668.25,-602.575 2675.22,-603.281"/>
<text text-anchor="middle" x="1910" y="-781.8" font-family="Times,serif" font-size="14.00">u0009</text>
</g>
<!-- 11 -->
<g id="node12" class="node"><title>11</title>
<ellipse fill="none" stroke="black" cx="1289" cy="-592" rx="18" ry="18"/>
</g>
<!-- 9&#45;&gt;11 -->
<g id="edge11" class="edge"><title>9&#45;&gt;11</title>
<path fill="none" stroke="black" d="M1188.62,-562.015C1207.74,-567.784 1239.39,-577.333 1261.83,-584.103"/>
<polygon fill="black" stroke="black" points="1260.83,-587.457 1271.41,-586.995 1262.85,-580.755 1260.83,-587.457"/>
<text text-anchor="middle" x="1230" y="-583.8" font-family="Times,serif" font-size="14.00">u000c</text>
</g>
<!-- 12 -->
<g id="node31" class="node"><title>12</title>
<ellipse fill="none" stroke="black" cx="1289" cy="-526" rx="18" ry="18"/>
</g>
<!-- 9&#45;&gt;12 -->
<g id="edge12" class="edge"><title>9&#45;&gt;12</title>
<path fill="none" stroke="black" d="M1188.71,-552.135C1194.5,-550.475 1201.02,-548.628 1207,-547 1224.99,-542.098 1245.31,-536.831 1261.09,-532.799"/>
<polygon fill="black" stroke="black" points="1262.39,-536.082 1271.21,-530.224 1260.66,-529.298 1262.39,-536.082"/>
<text text-anchor="middle" x="1230" y="-550.8" font-family="Times,serif" font-size="14.00">u000b</text>
</g>
<!-- 13 -->
<g id="node43" class="node"><title>13</title>
<ellipse fill="none" stroke="black" cx="1910" cy="-167" rx="18" ry="18"/>
</g>
<!-- 9&#45;&gt;13 -->
<g id="edge13" class="edge"><title>9&#45;&gt;13</title>
<path fill="none" stroke="black" d="M1173.47,-539.041C1180.14,-463.32 1210.71,-174 1288,-174 1288,-174 1288,-174 1788,-174 1820.26,-174 1857.28,-171.489 1881.78,-169.475"/>
<polygon fill="black" stroke="black" points="1882.12,-172.96 1891.79,-168.624 1881.52,-165.985 1882.12,-172.96"/>
<text text-anchor="middle" x="1537.5" y="-177.8" font-family="Times,serif" font-size="14.00">u000a</text>
</g>
<!-- 14 -->
<g id="node13" class="node"><title>14</title>
<ellipse fill="none" stroke="black" cx="1411.5" cy="-631" rx="18" ry="18"/>
</g>
<!-- 11&#45;&gt;14 -->
<g id="edge14" class="edge"><title>11&#45;&gt;14</title>
<path fill="none" stroke="black" d="M1306.25,-597.26C1326.28,-603.744 1360.59,-614.846 1384.35,-622.536"/>
<polygon fill="black" stroke="black" points="1383.53,-625.95 1394.12,-625.699 1385.69,-619.29 1383.53,-625.95"/>
<text text-anchor="middle" x="1348" y="-620.8" font-family="Times,serif" font-size="14.00">u000c</text>
</g>
<!-- 15 -->
<g id="node23" class="node"><title>15</title>
<ellipse fill="none" stroke="black" cx="1474.5" cy="-441" rx="18" ry="18"/>
</g>
<!-- 11&#45;&gt;15 -->
<g id="edge15" class="edge"><title>11&#45;&gt;15</title>
<path fill="none" stroke="black" d="M1297.25,-575.74C1300.32,-568.765 1303.9,-560.508 1307,-553 1315.39,-532.712 1309.83,-522.871 1325,-507 1358.42,-472.033 1413.68,-454.3 1446.54,-446.4"/>
<polygon fill="black" stroke="black" points="1447.39,-449.797 1456.36,-444.171 1445.84,-442.97 1447.39,-449.797"/>
<text text-anchor="middle" x="1348" y="-510.8" font-family="Times,serif" font-size="14.00">u000b</text>
</g>
<!-- 16 -->
<g id="node28" class="node"><title>16</title>
<ellipse fill="none" stroke="black" cx="2038" cy="-681" rx="18" ry="18"/>
</g>
<!-- 11&#45;&gt;16 -->
<g id="edge16" class="edge"><title>11&#45;&gt;16</title>
<path fill="none" stroke="black" d="M1296.12,-608.591C1310.3,-643.842 1349.01,-723 1410.5,-723 1410.5,-723 1410.5,-723 1665.5,-723 1795.31,-723 1949.03,-697.367 2010.08,-686.151"/>
<polygon fill="black" stroke="black" points="2010.85,-689.567 2020.04,-684.296 2009.57,-682.685 2010.85,-689.567"/>
<text text-anchor="middle" x="1664.5" y="-726.8" font-family="Times,serif" font-size="14.00">u000a</text>
</g>
<!-- 14&#45;&gt;10 -->
<g id="edge17" class="edge"><title>14&#45;&gt;10</title>
<path fill="none" stroke="black" d="M1427.44,-639.519C1434.66,-643.28 1443.56,-647.422 1452,-650 1514.82,-669.179 1971.32,-735 2037,-735 2037,-735 2037,-735 2549,-735 2594.37,-735 2606.73,-715.486 2635,-680 2652.92,-657.507 2662.99,-626.106 2668.39,-602.782"/>
<polygon fill="black" stroke="black" points="2671.88,-603.207 2670.55,-592.695 2665.03,-601.739 2671.88,-603.207"/>
<text text-anchor="middle" x="2038" y="-738.8" font-family="Times,serif" font-size="14.00">u0009</text>
</g>
<!-- 23 -->
<g id="node14" class="node"><title>23</title>
<ellipse fill="none" stroke="black" cx="1537.5" cy="-631" rx="18" ry="18"/>
</g>
<!-- 14&#45;&gt;23 -->
<g id="edge18" class="edge"><title>14&#45;&gt;23</title>
<path fill="none" stroke="black" d="M1429.74,-631C1450.29,-631 1484.87,-631 1509.09,-631"/>
<polygon fill="black" stroke="black" points="1509.4,-634.5 1519.4,-631 1509.4,-627.5 1509.4,-634.5"/>
<text text-anchor="middle" x="1474.5" y="-634.8" font-family="Times,serif" font-size="14.00">u000c</text>
</g>
<!-- 33 -->
<g id="node15" class="node"><title>33</title>
<ellipse fill="none" stroke="black" cx="1664.5" cy="-631" rx="18" ry="18"/>
</g>
<!-- 23&#45;&gt;33 -->
<g id="edge19" class="edge"><title>23&#45;&gt;33</title>
<path fill="none" stroke="black" d="M1555.62,-631C1576.35,-631 1611.55,-631 1636.08,-631"/>
<polygon fill="black" stroke="black" points="1636.19,-634.5 1646.19,-631 1636.19,-627.5 1636.19,-634.5"/>
<text text-anchor="middle" x="1601" y="-634.8" font-family="Times,serif" font-size="14.00">u000b</text>
</g>
<!-- 37 -->
<g id="node16" class="node"><title>37</title>
<ellipse fill="none" stroke="black" cx="1787" cy="-631" rx="18" ry="18"/>
</g>
<!-- 33&#45;&gt;37 -->
<g id="edge20" class="edge"><title>33&#45;&gt;37</title>
<path fill="none" stroke="black" d="M1682.51,-631C1702.22,-631 1734.99,-631 1758.37,-631"/>
<polygon fill="black" stroke="black" points="1758.69,-634.5 1768.69,-631 1758.69,-627.5 1758.69,-634.5"/>
<text text-anchor="middle" x="1728" y="-634.8" font-family="Times,serif" font-size="14.00">u000a</text>
</g>
<!-- 39 -->
<g id="node17" class="node"><title>39</title>
<ellipse fill="none" stroke="black" cx="1910" cy="-631" rx="18" ry="18"/>
</g>
<!-- 37&#45;&gt;39 -->
<g id="edge21" class="edge"><title>37&#45;&gt;39</title>
<path fill="none" stroke="black" d="M1805.08,-631C1824.96,-631 1858.08,-631 1881.58,-631"/>
<polygon fill="black" stroke="black" points="1881.62,-634.5 1891.62,-631 1881.62,-627.5 1881.62,-634.5"/>
<text text-anchor="middle" x="1846" y="-634.8" font-family="Times,serif" font-size="14.00">u000b</text>
</g>
<!-- 41 -->
<g id="node18" class="node"><title>41</title>
<ellipse fill="none" stroke="black" cx="2038" cy="-589" rx="18" ry="18"/>
</g>
<!-- 39&#45;&gt;41 -->
<g id="edge22" class="edge"><title>39&#45;&gt;41</title>
<path fill="none" stroke="black" d="M1927.67,-626.784C1945.14,-622.222 1973.27,-614.457 1997,-606 2001.81,-604.285 2006.87,-602.289 2011.72,-600.28"/>
<polygon fill="black" stroke="black" points="2013.39,-603.372 2021.21,-596.223 2010.64,-596.935 2013.39,-603.372"/>
<text text-anchor="middle" x="1974" y="-622.8" font-family="Times,serif" font-size="14.00">u000b</text>
</g>
<!-- 43 -->
<g id="node19" class="node"><title>43</title>
<ellipse fill="none" stroke="black" cx="2166" cy="-246" rx="18" ry="18"/>
</g>
<!-- 41&#45;&gt;43 -->
<g id="edge23" class="edge"><title>41&#45;&gt;43</title>
<path fill="none" stroke="black" d="M2052.36,-577.986C2072.21,-560.73 2108.88,-525.214 2125,-486 2161.12,-398.13 2107.41,-361.085 2143,-273 2143.88,-270.814 2145.01,-268.667 2146.28,-266.598"/>
<polygon fill="black" stroke="black" points="2149.39,-268.276 2152.51,-258.15 2143.76,-264.122 2149.39,-268.276"/>
<text text-anchor="middle" x="2102" y="-555.8" font-family="Times,serif" font-size="14.00">u000b</text>
</g>
<!-- 45 -->
<g id="node20" class="node"><title>45</title>
<ellipse fill="none" stroke="black" cx="2293.5" cy="-289" rx="18" ry="18"/>
</g>
<!-- 43&#45;&gt;45 -->
<g id="edge24" class="edge"><title>43&#45;&gt;45</title>
<path fill="none" stroke="black" d="M2183.85,-249.073C2201.46,-252.568 2229.72,-258.982 2253,-268 2258.12,-269.983 2263.42,-272.472 2268.42,-275.036"/>
<polygon fill="black" stroke="black" points="2267.06,-278.278 2277.52,-279.947 2270.38,-272.118 2267.06,-278.278"/>
<text text-anchor="middle" x="2230" y="-271.8" font-family="Times,serif" font-size="14.00">u000b</text>
</g>
<!-- 31 -->
<g id="node21" class="node"><title>31</title>
<ellipse fill="none" stroke="black" cx="2421" cy="-256" rx="18" ry="18"/>
</g>
<!-- 45&#45;&gt;31 -->
<g id="edge25" class="edge"><title>45&#45;&gt;31</title>
<path fill="none" stroke="black" d="M2311.17,-284.618C2332.17,-279.095 2368.52,-269.536 2393.39,-262.997"/>
<polygon fill="black" stroke="black" points="2394.48,-266.328 2403.27,-260.4 2392.7,-259.558 2394.48,-266.328"/>
<text text-anchor="middle" x="2357" y="-282.8" font-family="Times,serif" font-size="14.00">u000b</text>
</g>
<!-- 30 -->
<g id="node22" class="node"><title>30</title>
<ellipse fill="none" stroke="black" cx="2548" cy="-302" rx="18" ry="18"/>
</g>
<!-- 31&#45;&gt;30 -->
<g id="edge26" class="edge"><title>31&#45;&gt;30</title>
<path fill="none" stroke="black" d="M2438.09,-261.92C2459.18,-269.683 2496.44,-283.393 2521.42,-292.587"/>
<polygon fill="black" stroke="black" points="2520.38,-295.934 2530.98,-296.103 2522.8,-289.365 2520.38,-295.934"/>
<text text-anchor="middle" x="2484.5" y="-291.8" font-family="Times,serif" font-size="14.00">u000c</text>
</g>
<!-- 30&#45;&gt;10 -->
<g id="edge27" class="edge"><title>30&#45;&gt;10</title>
<path fill="none" stroke="black" d="M2556.44,-318.022C2576.92,-362.073 2634.26,-485.489 2660.54,-542.037"/>
<polygon fill="black" stroke="black" points="2657.39,-543.558 2664.78,-551.152 2663.74,-540.608 2657.39,-543.558"/>
<text text-anchor="middle" x="2612" y="-487.8" font-family="Times,serif" font-size="14.00">u0009</text>
</g>
<!-- 24 -->
<g id="node24" class="node"><title>24</title>
<ellipse fill="none" stroke="black" cx="2038" cy="-430" rx="18" ry="18"/>
</g>
<!-- 15&#45;&gt;24 -->
<g id="edge28" class="edge"><title>15&#45;&gt;24</title>
<path fill="none" stroke="black" d="M1492.8,-439.412C1516.83,-437.346 1561.68,-434 1600,-434 1600,-434 1600,-434 1911,-434 1945.09,-434 1984.34,-432.519 2009.85,-431.36"/>
<polygon fill="black" stroke="black" points="2010.06,-434.854 2019.89,-430.888 2009.73,-427.861 2010.06,-434.854"/>
<text text-anchor="middle" x="1728" y="-437.8" font-family="Times,serif" font-size="14.00">u000b</text>
</g>
<!-- 34 -->
<g id="node25" class="node"><title>34</title>
<ellipse fill="none" stroke="black" cx="2166" cy="-430" rx="18" ry="18"/>
</g>
<!-- 24&#45;&gt;34 -->
<g id="edge29" class="edge"><title>24&#45;&gt;34</title>
<path fill="none" stroke="black" d="M2056.26,-430C2077.27,-430 2113.03,-430 2137.77,-430"/>
<polygon fill="black" stroke="black" points="2137.95,-433.5 2147.95,-430 2137.95,-426.5 2137.95,-433.5"/>
<text text-anchor="middle" x="2102" y="-433.8" font-family="Times,serif" font-size="14.00">u000a</text>
</g>
<!-- 36 -->
<g id="node26" class="node"><title>36</title>
<ellipse fill="none" stroke="black" cx="2293.5" cy="-428" rx="18" ry="18"/>
</g>
<!-- 34&#45;&gt;36 -->
<g id="edge30" class="edge"><title>34&#45;&gt;36</title>
<path fill="none" stroke="black" d="M2184.19,-429.726C2205.01,-429.394 2240.34,-428.831 2264.97,-428.439"/>
<polygon fill="black" stroke="black" points="2265.17,-431.936 2275.12,-428.277 2265.06,-424.937 2265.17,-431.936"/>
<text text-anchor="middle" x="2230" y="-433.8" font-family="Times,serif" font-size="14.00">u000c</text>
</g>
<!-- 29 -->
<g id="node27" class="node"><title>29</title>
<ellipse fill="none" stroke="black" cx="2421" cy="-428" rx="18" ry="18"/>
</g>
<!-- 36&#45;&gt;29 -->
<g id="edge31" class="edge"><title>36&#45;&gt;29</title>
<path fill="none" stroke="black" d="M2311.69,-428C2332.51,-428 2367.84,-428 2392.47,-428"/>
<polygon fill="black" stroke="black" points="2392.62,-431.5 2402.62,-428 2392.62,-424.5 2392.62,-431.5"/>
<text text-anchor="middle" x="2357" y="-431.8" font-family="Times,serif" font-size="14.00">u000c</text>
</g>
<!-- 29&#45;&gt;30 -->
<g id="edge32" class="edge"><title>29&#45;&gt;30</title>
<path fill="none" stroke="black" d="M2434.44,-415.458C2456.25,-393.476 2501.52,-347.843 2527.51,-321.641"/>
<polygon fill="black" stroke="black" points="2530.05,-324.056 2534.61,-314.491 2525.08,-319.125 2530.05,-324.056"/>
<text text-anchor="middle" x="2484.5" y="-391.8" font-family="Times,serif" font-size="14.00">u000a</text>
</g>
<!-- 16&#45;&gt;10 -->
<g id="edge33" class="edge"><title>16&#45;&gt;10</title>
<path fill="none" stroke="black" d="M2056.04,-684.329C2080.19,-688.748 2125.79,-696 2165,-696 2165,-696 2165,-696 2549,-696 2593.44,-696 2604.38,-677.202 2635,-645 2646.87,-632.517 2656.12,-615.713 2662.62,-601.273"/>
<polygon fill="black" stroke="black" points="2665.98,-602.308 2666.68,-591.737 2659.54,-599.565 2665.98,-602.308"/>
<text text-anchor="middle" x="2357" y="-699.8" font-family="Times,serif" font-size="14.00">u0009</text>
</g>
<!-- 25 -->
<g id="node29" class="node"><title>25</title>
<ellipse fill="none" stroke="black" cx="2166" cy="-650" rx="18" ry="18"/>
</g>
<!-- 16&#45;&gt;25 -->
<g id="edge34" class="edge"><title>16&#45;&gt;25</title>
<path fill="none" stroke="black" d="M2055.18,-674.75C2062.4,-672.116 2071.05,-669.166 2079,-667 2098.39,-661.718 2120.67,-657.361 2137.69,-654.381"/>
<polygon fill="black" stroke="black" points="2138.75,-657.75 2148.03,-652.625 2137.58,-650.848 2138.75,-657.75"/>
<text text-anchor="middle" x="2102" y="-670.8" font-family="Times,serif" font-size="14.00">u000a</text>
</g>
<!-- 25&#45;&gt;10 -->
<g id="edge35" class="edge"><title>25&#45;&gt;10</title>
<path fill="none" stroke="black" d="M2184.05,-650C2208.19,-650 2253.72,-650 2292.5,-650 2292.5,-650 2292.5,-650 2549,-650 2589.78,-650 2601.74,-641.603 2635,-618 2642.71,-612.531 2649.77,-605.173 2655.71,-597.905"/>
<polygon fill="black" stroke="black" points="2658.83,-599.596 2662.14,-589.532 2653.27,-595.335 2658.83,-599.596"/>
<text text-anchor="middle" x="2421" y="-653.8" font-family="Times,serif" font-size="14.00">u0009</text>
</g>
<!-- 20 -->
<g id="node30" class="node"><title>20</title>
<ellipse fill="none" stroke="black" cx="2293.5" cy="-482" rx="18" ry="18"/>
</g>
<!-- 25&#45;&gt;20 -->
<g id="edge36" class="edge"><title>25&#45;&gt;20</title>
<path fill="none" stroke="black" d="M2177.48,-635.965C2199.21,-606.885 2249.3,-539.83 2275.63,-504.584"/>
<polygon fill="black" stroke="black" points="2278.6,-506.457 2281.78,-496.351 2272.99,-502.268 2278.6,-506.457"/>
<text text-anchor="middle" x="2230" y="-598.8" font-family="Times,serif" font-size="14.00">u000b</text>
</g>
<!-- 20&#45;&gt;29 -->
<g id="edge37" class="edge"><title>20&#45;&gt;29</title>
<path fill="none" stroke="black" d="M2310.68,-475.682C2327.96,-468.865 2356.09,-457.565 2380,-447 2384.97,-444.804 2390.25,-442.372 2395.28,-440.002"/>
<polygon fill="black" stroke="black" points="2396.99,-443.062 2404.51,-435.599 2393.98,-436.743 2396.99,-443.062"/>
<text text-anchor="middle" x="2357" y="-469.8" font-family="Times,serif" font-size="14.00">u000a</text>
</g>
<!-- 12&#45;&gt;10 -->
<g id="edge38" class="edge"><title>12&#45;&gt;10</title>
<path fill="none" stroke="black" d="M1303.06,-537.376C1324.14,-554.521 1367.64,-585 1410.5,-585 1410.5,-585 1410.5,-585 1847,-585 1913.67,-585 1938.95,-554.201 1997,-587 2010.21,-594.463 2001.74,-608.626 2015,-616 2032.87,-625.939 2040.57,-616.729 2061,-616 2135.81,-613.332 2154.14,-604 2229,-604 2229,-604 2229,-604 2549,-604 2582.73,-604 2619.94,-592.626 2644.92,-583.233"/>
<polygon fill="black" stroke="black" points="2646.46,-586.39 2654.5,-579.498 2643.91,-579.867 2646.46,-586.39"/>
<text text-anchor="middle" x="1974" y="-590.8" font-family="Times,serif" font-size="14.00">u0009</text>
</g>
<!-- 17 -->
<g id="node32" class="node"><title>17</title>
<ellipse fill="none" stroke="black" cx="1411.5" cy="-526" rx="18" ry="18"/>
</g>
<!-- 12&#45;&gt;17 -->
<g id="edge39" class="edge"><title>12&#45;&gt;17</title>
<path fill="none" stroke="black" d="M1307.01,-526C1326.72,-526 1359.49,-526 1382.87,-526"/>
<polygon fill="black" stroke="black" points="1383.19,-529.5 1393.19,-526 1383.19,-522.5 1383.19,-529.5"/>
<text text-anchor="middle" x="1348" y="-529.8" font-family="Times,serif" font-size="14.00">u000c</text>
</g>
<!-- 18 -->
<g id="node39" class="node"><title>18</title>
<ellipse fill="none" stroke="black" cx="2166" cy="-192" rx="18" ry="18"/>
</g>
<!-- 12&#45;&gt;18 -->
<g id="edge40" class="edge"><title>12&#45;&gt;18</title>
<path fill="none" stroke="black" d="M1290.23,-507.733C1292.02,-449.493 1306.05,-272 1410.5,-272 1410.5,-272 1410.5,-272 2039,-272 2077.73,-272 2094.17,-281.432 2125,-258 2140.2,-246.449 2132.89,-235.194 2143,-219 2144.22,-217.041 2145.57,-215.066 2146.98,-213.123"/>
<polygon fill="black" stroke="black" points="2149.95,-215 2153.34,-204.96 2144.43,-210.699 2149.95,-215"/>
<text text-anchor="middle" x="1728" y="-275.8" font-family="Times,serif" font-size="14.00">u000b</text>
</g>
<!-- 19 -->
<g id="node41" class="node"><title>19</title>
<ellipse fill="none" stroke="black" cx="1601" cy="-357" rx="18" ry="18"/>
</g>
<!-- 12&#45;&gt;19 -->
<g id="edge41" class="edge"><title>12&#45;&gt;19</title>
<path fill="none" stroke="black" d="M1297.49,-509.888C1303.65,-497.876 1313.26,-481.608 1325,-470 1396.6,-399.21 1518.75,-370.692 1572.84,-361.127"/>
<polygon fill="black" stroke="black" points="1573.74,-364.526 1583.01,-359.412 1572.57,-357.623 1573.74,-364.526"/>
<text text-anchor="middle" x="1411.5" y="-426.8" font-family="Times,serif" font-size="14.00">u000a</text>
</g>
<!-- 17&#45;&gt;10 -->
<g id="edge42" class="edge"><title>17&#45;&gt;10</title>
<path fill="none" stroke="black" d="M1429.7,-528.723C1453.6,-532.263 1498.22,-538 1536.5,-538 1536.5,-538 1536.5,-538 2549,-538 2582.73,-538 2619.94,-549.374 2644.92,-558.767"/>
<polygon fill="black" stroke="black" points="2643.91,-562.133 2654.5,-562.502 2646.46,-555.61 2643.91,-562.133"/>
<text text-anchor="middle" x="2038" y="-541.8" font-family="Times,serif" font-size="14.00">u0009</text>
</g>
<!-- 26 -->
<g id="node33" class="node"><title>26</title>
<ellipse fill="none" stroke="black" cx="1537.5" cy="-491" rx="18" ry="18"/>
</g>
<!-- 17&#45;&gt;26 -->
<g id="edge43" class="edge"><title>17&#45;&gt;26</title>
<path fill="none" stroke="black" d="M1427.99,-518.494C1435.17,-515.235 1443.89,-511.581 1452,-509 1470.76,-503.029 1492.49,-498.449 1509.22,-495.404"/>
<polygon fill="black" stroke="black" points="1510.16,-498.793 1519.41,-493.625 1508.96,-491.897 1510.16,-498.793"/>
<text text-anchor="middle" x="1474.5" y="-512.8" font-family="Times,serif" font-size="14.00">u000a</text>
</g>
<!-- 35 -->
<g id="node34" class="node"><title>35</title>
<ellipse fill="none" stroke="black" cx="1664.5" cy="-485" rx="18" ry="18"/>
</g>
<!-- 26&#45;&gt;35 -->
<g id="edge44" class="edge"><title>26&#45;&gt;35</title>
<path fill="none" stroke="black" d="M1555.62,-490.178C1576.35,-489.183 1611.55,-487.494 1636.08,-486.316"/>
<polygon fill="black" stroke="black" points="1636.37,-489.807 1646.19,-485.831 1636.03,-482.815 1636.37,-489.807"/>
<text text-anchor="middle" x="1601" y="-493.8" font-family="Times,serif" font-size="14.00">u000a</text>
</g>
<!-- 38 -->
<g id="node35" class="node"><title>38</title>
<ellipse fill="none" stroke="black" cx="1787" cy="-484" rx="18" ry="18"/>
</g>
<!-- 35&#45;&gt;38 -->
<g id="edge45" class="edge"><title>35&#45;&gt;38</title>
<path fill="none" stroke="black" d="M1682.51,-484.859C1702.22,-484.695 1734.99,-484.423 1758.37,-484.229"/>
<polygon fill="black" stroke="black" points="1758.72,-487.727 1768.69,-484.144 1758.66,-480.727 1758.72,-487.727"/>
<text text-anchor="middle" x="1728" y="-488.8" font-family="Times,serif" font-size="14.00">u000c</text>
</g>
<!-- 40 -->
<g id="node36" class="node"><title>40</title>
<ellipse fill="none" stroke="black" cx="1910" cy="-484" rx="18" ry="18"/>
</g>
<!-- 38&#45;&gt;40 -->
<g id="edge46" class="edge"><title>38&#45;&gt;40</title>
<path fill="none" stroke="black" d="M1805.08,-484C1824.96,-484 1858.08,-484 1881.58,-484"/>
<polygon fill="black" stroke="black" points="1881.62,-487.5 1891.62,-484 1881.62,-480.5 1881.62,-487.5"/>
<text text-anchor="middle" x="1846" y="-487.8" font-family="Times,serif" font-size="14.00">u000b</text>
</g>
<!-- 42 -->
<g id="node37" class="node"><title>42</title>
<ellipse fill="none" stroke="black" cx="2038" cy="-484" rx="18" ry="18"/>
</g>
<!-- 40&#45;&gt;42 -->
<g id="edge47" class="edge"><title>40&#45;&gt;42</title>
<path fill="none" stroke="black" d="M1928.26,-484C1949.27,-484 1985.03,-484 2009.77,-484"/>
<polygon fill="black" stroke="black" points="2009.95,-487.5 2019.95,-484 2009.95,-480.5 2009.95,-487.5"/>
<text text-anchor="middle" x="1974" y="-487.8" font-family="Times,serif" font-size="14.00">u000a</text>
</g>
<!-- 44 -->
<g id="node38" class="node"><title>44</title>
<ellipse fill="none" stroke="black" cx="2166" cy="-484" rx="18" ry="18"/>
</g>
<!-- 42&#45;&gt;44 -->
<g id="edge48" class="edge"><title>42&#45;&gt;44</title>
<path fill="none" stroke="black" d="M2055.06,-477.502C2062.26,-474.928 2070.92,-472.28 2079,-471 2099.19,-467.801 2104.81,-467.801 2125,-471 2129.67,-471.74 2134.54,-472.937 2139.2,-474.313"/>
<polygon fill="black" stroke="black" points="2138.34,-477.715 2148.94,-477.502 2140.52,-471.063 2138.34,-477.715"/>
<text text-anchor="middle" x="2102" y="-474.8" font-family="Times,serif" font-size="14.00">u000c</text>
</g>
<!-- 44&#45;&gt;20 -->
<g id="edge49" class="edge"><title>44&#45;&gt;20</title>
<path fill="none" stroke="black" d="M2184.19,-483.726C2205.01,-483.394 2240.34,-482.831 2264.97,-482.439"/>
<polygon fill="black" stroke="black" points="2265.17,-485.936 2275.12,-482.277 2265.06,-478.937 2265.17,-485.936"/>
<text text-anchor="middle" x="2230" y="-487.8" font-family="Times,serif" font-size="14.00">u000c</text>
</g>
<!-- 18&#45;&gt;10 -->
<g id="edge50" class="edge"><title>18&#45;&gt;10</title>
<path fill="none" stroke="black" d="M2183.92,-189.881C2245.03,-183.234 2456.81,-169.096 2571,-275 2647.96,-346.38 2667.42,-478.273 2672.34,-538.94"/>
<polygon fill="black" stroke="black" points="2668.86,-539.35 2673.08,-549.069 2675.84,-538.841 2668.86,-539.35"/>
<text text-anchor="middle" x="2421" y="-211.8" font-family="Times,serif" font-size="14.00">u0009</text>
</g>
<!-- 27 -->
<g id="node40" class="node"><title>27</title>
<ellipse fill="none" stroke="black" cx="2293.5" cy="-235" rx="18" ry="18"/>
</g>
<!-- 18&#45;&gt;27 -->
<g id="edge51" class="edge"><title>18&#45;&gt;27</title>
<path fill="none" stroke="black" d="M2183.15,-197.533C2204.21,-204.75 2241.32,-217.466 2266.41,-226.059"/>
<polygon fill="black" stroke="black" points="2265.42,-229.421 2276.01,-229.351 2267.69,-222.799 2265.42,-229.421"/>
<text text-anchor="middle" x="2230" y="-225.8" font-family="Times,serif" font-size="14.00">u000c</text>
</g>
<!-- 27&#45;&gt;31 -->
<g id="edge52" class="edge"><title>27&#45;&gt;31</title>
<path fill="none" stroke="black" d="M2311.68,-235.864C2329.04,-236.958 2356.59,-239.298 2380,-244 2384.6,-244.924 2389.44,-246.149 2394.09,-247.462"/>
<polygon fill="black" stroke="black" points="2393.24,-250.862 2403.83,-250.398 2395.26,-244.16 2393.24,-250.862"/>
<text text-anchor="middle" x="2357" y="-247.8" font-family="Times,serif" font-size="14.00">u000a</text>
</g>
<!-- 28 -->
<g id="node42" class="node"><title>28</title>
<ellipse fill="none" stroke="black" cx="2293.5" cy="-343" rx="18" ry="18"/>
</g>
<!-- 19&#45;&gt;28 -->
<g id="edge53" class="edge"><title>19&#45;&gt;28</title>
<path fill="none" stroke="black" d="M1618.94,-354.559C1642.94,-351.318 1688.22,-346 1727,-346 1727,-346 1727,-346 2103,-346 2160.55,-346 2227.92,-344.6 2264.83,-343.712"/>
<polygon fill="black" stroke="black" points="2265.35,-347.201 2275.26,-343.456 2265.17,-340.203 2265.35,-347.201"/>
<text text-anchor="middle" x="1910" y="-349.8" font-family="Times,serif" font-size="14.00">u000c</text>
</g>
<!-- 28&#45;&gt;30 -->
<g id="edge54" class="edge"><title>28&#45;&gt;30</title>
<path fill="none" stroke="black" d="M2311.46,-340.246C2354.4,-333.273 2467.73,-314.872 2519.95,-306.393"/>
<polygon fill="black" stroke="black" points="2520.8,-309.799 2530.11,-304.742 2519.68,-302.89 2520.8,-309.799"/>
<text text-anchor="middle" x="2421" y="-329.8" font-family="Times,serif" font-size="14.00">u000b</text>
</g>
<!-- 13&#45;&gt;20 -->
<g id="edge55" class="edge"><title>13&#45;&gt;20</title>
<path fill="none" stroke="black" d="M1920.26,-182.051C1942.98,-217.822 2005.06,-308.76 2079,-360 2146.85,-407.023 2189.54,-372.201 2253,-425 2264.95,-434.945 2262.14,-442.224 2271,-455 2272.28,-456.84 2273.64,-458.719 2275.03,-460.585"/>
<polygon fill="black" stroke="black" points="2272.31,-462.779 2281.2,-468.532 2277.84,-458.486 2272.31,-462.779"/>
<text text-anchor="middle" x="2102" y="-385.8" font-family="Times,serif" font-size="14.00">u000c</text>
</g>
<!-- 21 -->
<g id="node44" class="node"><title>21</title>
<ellipse fill="none" stroke="black" cx="2421" cy="-18" rx="18" ry="18"/>
</g>
<!-- 13&#45;&gt;21 -->
<g id="edge56" class="edge"><title>13&#45;&gt;21</title>
<path fill="none" stroke="black" d="M1916.32,-149.908C1929.68,-110.77 1968.57,-18 2037,-18 2037,-18 2037,-18 2294.5,-18 2328.44,-18 2367.53,-18 2392.95,-18"/>
<polygon fill="black" stroke="black" points="2392.95,-21.5001 2402.95,-18 2392.95,-14.5001 2392.95,-21.5001"/>
<text text-anchor="middle" x="2166" y="-21.8" font-family="Times,serif" font-size="14.00">u000b</text>
</g>
<!-- 22 -->
<g id="node45" class="node"><title>22</title>
<ellipse fill="none" stroke="black" cx="2038" cy="-146" rx="18" ry="18"/>
</g>
<!-- 13&#45;&gt;22 -->
<g id="edge57" class="edge"><title>13&#45;&gt;22</title>
<path fill="none" stroke="black" d="M1927.99,-164.168C1949.03,-160.661 1985.13,-154.645 2009.99,-150.502"/>
<polygon fill="black" stroke="black" points="2010.59,-153.951 2019.87,-148.854 2009.43,-147.046 2010.59,-153.951"/>
<text text-anchor="middle" x="1974" y="-164.8" font-family="Times,serif" font-size="14.00">u000a</text>
</g>
<!-- 21&#45;&gt;10 -->
<g id="edge58" class="edge"><title>21&#45;&gt;10</title>
<path fill="none" stroke="black" d="M2438.66,-14.2493C2479.6,-6.13027 2585.41,7.96779 2635,-50 2666.74,-87.1086 2672.68,-430.476 2673.76,-538.575"/>
<polygon fill="black" stroke="black" points="2670.27,-538.891 2673.86,-548.859 2677.27,-538.826 2670.27,-538.891"/>
<text text-anchor="middle" x="2548" y="-17.8" font-family="Times,serif" font-size="14.00">u0009</text>
</g>
<!-- 21&#45;&gt;30 -->
<g id="edge59" class="edge"><title>21&#45;&gt;30</title>
<path fill="none" stroke="black" d="M2433.01,-31.803C2450.96,-54.9429 2486.57,-103.6 2507,-150 2525.2,-191.329 2536.58,-242.743 2542.36,-273.933"/>
<polygon fill="black" stroke="black" points="2538.97,-274.843 2544.17,-284.072 2545.86,-273.612 2538.97,-274.843"/>
<text text-anchor="middle" x="2484.5" y="-153.8" font-family="Times,serif" font-size="14.00">u000a</text>
</g>
<!-- 22&#45;&gt;10 -->
<g id="edge60" class="edge"><title>22&#45;&gt;10</title>
<path fill="none" stroke="black" d="M2050.17,-132.451C2057.5,-124.536 2067.78,-115.125 2079,-110 2226.56,-42.579 2308.69,-16.5061 2444,-106 2542.57,-171.193 2581.49,-185.627 2635,-291 2656.69,-333.713 2667.98,-474.092 2672.12,-538.355"/>
<polygon fill="black" stroke="black" points="2668.65,-538.948 2672.76,-548.711 2675.63,-538.512 2668.65,-538.948"/>
<text text-anchor="middle" x="2357" y="-73.8" font-family="Times,serif" font-size="14.00">u0009</text>
</g>
<!-- 22&#45;&gt;31 -->
<g id="edge61" class="edge"><title>22&#45;&gt;31</title>
<path fill="none" stroke="black" d="M2056.29,-147.06C2084.41,-149.035 2141.68,-154.107 2189,-165 2247.07,-178.367 2260.15,-187.221 2316,-208 2344.78,-218.706 2352.28,-220.802 2380,-234 2385.28,-236.513 2390.83,-239.403 2396.07,-242.246"/>
<polygon fill="black" stroke="black" points="2394.58,-245.422 2405.02,-247.218 2397.98,-239.303 2394.58,-245.422"/>
<text text-anchor="middle" x="2230" y="-187.8" font-family="Times,serif" font-size="14.00">u000c</text>
</g>
<!-- 22&#45;&gt;30 -->
<g id="edge63" class="edge"><title>22&#45;&gt;30</title>
<path fill="none" stroke="black" d="M2054.46,-138.126C2077.78,-126.996 2123.64,-108 2165,-108 2165,-108 2165,-108 2358,-108 2397.68,-108 2412.39,-108.013 2444,-132 2493.25,-169.371 2524.01,-237.695 2538.04,-275.345"/>
<polygon fill="black" stroke="black" points="2534.87,-276.878 2541.56,-285.1 2541.46,-274.505 2534.87,-276.878"/>
<text text-anchor="middle" x="2293.5" y="-111.8" font-family="Times,serif" font-size="14.00">u000a</text>
</g>
<!-- 32 -->
<g id="node46" class="node"><title>32</title>
<ellipse fill="none" stroke="black" cx="2166" cy="-300" rx="18" ry="18"/>
</g>
<!-- 22&#45;&gt;32 -->
<g id="edge62" class="edge"><title>22&#45;&gt;32</title>
<path fill="none" stroke="black" d="M2050.18,-159.666C2072.08,-186.426 2120.76,-245.928 2147.15,-278.189"/>
<polygon fill="black" stroke="black" points="2144.62,-280.62 2153.66,-286.143 2150.04,-276.187 2144.62,-280.62"/>
<text text-anchor="middle" x="2102" y="-254.8" font-family="Times,serif" font-size="14.00">u000b</text>
</g>
<!-- 32&#45;&gt;36 -->
<g id="edge64" class="edge"><title>32&#45;&gt;36</title>
<path fill="none" stroke="black" d="M2181.47,-309.786C2199.48,-322.394 2230.61,-345.609 2253,-370 2262.4,-380.236 2271.26,-392.865 2278.2,-403.722"/>
<polygon fill="black" stroke="black" points="2275.3,-405.685 2283.55,-412.334 2281.25,-401.992 2275.3,-405.685"/>
<text text-anchor="middle" x="2230" y="-373.8" font-family="Times,serif" font-size="14.00">u000c</text>
</g>
<!-- 32&#45;&gt;28 -->
<g id="edge65" class="edge"><title>32&#45;&gt;28</title>
<path fill="none" stroke="black" d="M2183.94,-298.245C2201.87,-297.088 2230.61,-297.264 2253,-307 2260.9,-310.434 2268.26,-316.11 2274.44,-321.951"/>
<polygon fill="black" stroke="black" points="2272.1,-324.561 2281.58,-329.281 2277.11,-319.676 2272.1,-324.561"/>
<text text-anchor="middle" x="2230" y="-310.8" font-family="Times,serif" font-size="14.00">u000b</text>
</g>
<!-- initial -->
<g id="node47" class="node"><title>initial</title>
</g>
<!-- initial&#45;&gt;0 -->
<g id="edge66" class="edge"><title>initial&#45;&gt;0</title>
<path fill="none" stroke="black" d="M54.195,-557C62.6538,-557 72.0513,-557 80.5951,-557"/>
<polygon fill="black" stroke="black" points="80.8257,-560.5 90.8257,-557 80.8257,-553.5 80.8257,-560.5"/>
</g>
</g>
</svg>
