<svg width="820px" height="101px"
 viewBox="0.00 0.00 615.00 76.00" xmlns="http://www.w3.org/2000/svg" xmlns:xlink="http://www.w3.org/1999/xlink">
<g id="graph0" class="graph" transform="scale(1.000022500562514 1.000022500562514) rotate(0) translate(4 72)">
<title>Automaton</title>
<polygon fill="white" stroke="none" points="-4,4 -4,-72 611,-72 611,4 -4,4"/>
<!-- 0 -->
<g id="node1" class="node"><title>0</title>
<ellipse fill="none" stroke="black" cx="109" cy="-49" rx="18" ry="18"/>
</g>
<!-- 1 -->
<g id="node2" class="node"><title>1</title>
<ellipse fill="none" stroke="black" cx="227" cy="-49" rx="18" ry="18"/>
</g>
<!-- 0&#45;&gt;1 -->
<g id="edge1" class="edge"><title>0&#45;&gt;1</title>
<path fill="none" stroke="black" d="M127.116,-49C145.964,-49 176.531,-49 198.696,-49"/>
<polygon fill="black" stroke="black" points="198.814,-52.5001 208.814,-49 198.814,-45.5001 198.814,-52.5001"/>
<text text-anchor="middle" x="168" y="-52.8" font-family="Times,serif" font-size="14.00">u0000</text>
</g>
<!-- 2 -->
<g id="node3" class="node"><title>2</title>
<ellipse fill="none" stroke="black" cx="585" cy="-45" rx="18" ry="18"/>
<ellipse fill="none" stroke="black" cx="585" cy="-45" rx="22" ry="22"/>
</g>
<!-- 1&#45;&gt;2 -->
<g id="edge2" class="edge"><title>1&#45;&gt;2</title>
<path fill="none" stroke="black" d="M245.206,-49.8615C292.89,-52.0748 430.76,-57.2932 545,-50 547.563,-49.8364 550.215,-49.6128 552.875,-49.3505"/>
<polygon fill="black" stroke="black" points="553.461,-52.8064 562.997,-48.1915 552.664,-45.8519 553.461,-52.8064"/>
<text text-anchor="middle" x="404" y="-56.8" font-family="Times,serif" font-size="14.00">u0002</text>
</g>
<!-- 3 -->
<g id="node4" class="node"><title>3</title>
<ellipse fill="none" stroke="black" cx="345" cy="-18" rx="18" ry="18"/>
</g>
<!-- 1&#45;&gt;3 -->
<g id="edge3" class="edge"><title>1&#45;&gt;3</title>
<path fill="none" stroke="black" d="M243.822,-41.9944C249.756,-39.5475 256.61,-36.9324 263,-35 280.656,-29.6601 300.973,-25.4008 316.843,-22.4812"/>
<polygon fill="black" stroke="black" points="317.795,-25.8671 327.031,-20.6771 316.574,-18.9744 317.795,-25.8671"/>
<text text-anchor="middle" x="286" y="-38.8" font-family="Times,serif" font-size="14.00">u0001</text>
</g>
<!-- 4 -->
<g id="node5" class="node"><title>4</title>
<ellipse fill="none" stroke="black" cx="463" cy="-18" rx="18" ry="18"/>
</g>
<!-- 3&#45;&gt;4 -->
<g id="edge4" class="edge"><title>3&#45;&gt;4</title>
<path fill="none" stroke="black" d="M363.116,-18C381.964,-18 412.531,-18 434.696,-18"/>
<polygon fill="black" stroke="black" points="434.814,-21.5001 444.814,-18 434.814,-14.5001 434.814,-21.5001"/>
<text text-anchor="middle" x="404" y="-21.8" font-family="Times,serif" font-size="14.00">u0003</text>
</g>
<!-- 4&#45;&gt;2 -->
<g id="edge5" class="edge"><title>4&#45;&gt;2</title>
<path fill="none" stroke="black" d="M480.802,-21.3013C497.217,-24.5797 522.89,-29.8477 545,-35 547.808,-35.6544 550.724,-36.3575 553.64,-37.0766"/>
<polygon fill="black" stroke="black" points="552.845,-40.4856 563.397,-39.5361 554.556,-33.698 552.845,-40.4856"/>
<text text-anchor="middle" x="522" y="-38.8" font-family="Times,serif" font-size="14.00">u0002</text>
</g>
<!-- initial -->
<g id="node6" class="node"><title>initial</title>
</g>
<!-- initial&#45;&gt;0 -->
<g id="edge6" class="edge"><title>initial&#45;&gt;0</title>
<path fill="none" stroke="black" d="M54.195,-49C62.6538,-49 72.0513,-49 80.5951,-49"/>
<polygon fill="black" stroke="black" points="80.8257,-52.5001 90.8257,-49 80.8257,-45.5001 80.8257,-52.5001"/>
</g>
</g>
</svg>
