<svg width="2224px" height="808px"
 viewBox="0.00 0.00 1668.00 606.00" xmlns="http://www.w3.org/2000/svg" xmlns:xlink="http://www.w3.org/1999/xlink">
<g id="graph0" class="graph" transform="scale(1.000022500562514 1.000022500562514) rotate(0) translate(4 602)">
<title>Automaton</title>
<polygon fill="white" stroke="none" points="-4,4 -4,-602 1664,-602 1664,4 -4,4"/>
<!-- 0 -->
<g id="node1" class="node"><title>0</title>
<ellipse fill="none" stroke="black" cx="109" cy="-495" rx="18" ry="18"/>
</g>
<!-- 1 -->
<g id="node2" class="node"><title>1</title>
<ellipse fill="none" stroke="black" cx="227" cy="-495" rx="18" ry="18"/>
</g>
<!-- 0&#45;&gt;1 -->
<g id="edge1" class="edge"><title>0&#45;&gt;1</title>
<path fill="none" stroke="black" d="M127.116,-495C145.964,-495 176.531,-495 198.696,-495"/>
<polygon fill="black" stroke="black" points="198.814,-498.5 208.814,-495 198.814,-491.5 198.814,-498.5"/>
<text text-anchor="middle" x="168" y="-498.8" font-family="Times,serif" font-size="14.00">u0002</text>
</g>
<!-- 2 -->
<g id="node3" class="node"><title>2</title>
<ellipse fill="none" stroke="black" cx="345" cy="-495" rx="18" ry="18"/>
</g>
<!-- 1&#45;&gt;2 -->
<g id="edge2" class="edge"><title>1&#45;&gt;2</title>
<path fill="none" stroke="black" d="M245.116,-495C263.964,-495 294.531,-495 316.696,-495"/>
<polygon fill="black" stroke="black" points="316.814,-498.5 326.814,-495 316.814,-491.5 316.814,-498.5"/>
<text text-anchor="middle" x="286" y="-498.8" font-family="Times,serif" font-size="14.00">u0001</text>
</g>
<!-- 3 -->
<g id="node4" class="node"><title>3</title>
<ellipse fill="none" stroke="black" cx="463" cy="-495" rx="18" ry="18"/>
</g>
<!-- 2&#45;&gt;3 -->
<g id="edge3" class="edge"><title>2&#45;&gt;3</title>
<path fill="none" stroke="black" d="M363.116,-495C381.964,-495 412.531,-495 434.696,-495"/>
<polygon fill="black" stroke="black" points="434.814,-498.5 444.814,-495 434.814,-491.5 434.814,-498.5"/>
<text text-anchor="middle" x="404" y="-498.8" font-family="Times,serif" font-size="14.00">u0000</text>
</g>
<!-- 4 -->
<g id="node5" class="node"><title>4</title>
<ellipse fill="none" stroke="black" cx="709" cy="-495" rx="18" ry="18"/>
</g>
<!-- 3&#45;&gt;4 -->
<g id="edge4" class="edge"><title>3&#45;&gt;4</title>
<path fill="none" stroke="black" d="M481.158,-495C522.896,-495 630.011,-495 680.67,-495"/>
<polygon fill="black" stroke="black" points="680.861,-498.5 690.861,-495 680.861,-491.5 680.861,-498.5"/>
<text text-anchor="middle" x="586" y="-498.8" font-family="Times,serif" font-size="14.00">u0004</text>
</g>
<!-- 5 -->
<g id="node11" class="node"><title>5</title>
<ellipse fill="none" stroke="black" cx="1638" cy="-288" rx="18" ry="18"/>
<ellipse fill="none" stroke="black" cx="1638" cy="-288" rx="22" ry="22"/>
</g>
<!-- 3&#45;&gt;5 -->
<g id="edge5" class="edge"><title>3&#45;&gt;5</title>
<path fill="none" stroke="black" d="M474.14,-509.531C492.901,-534.526 535.647,-583 585,-583 585,-583 585,-583 1512,-583 1557.61,-583 1573.09,-565.21 1598,-527 1619.89,-493.416 1630.81,-377.234 1634.96,-320.155"/>
<polygon fill="black" stroke="black" points="1638.47,-320.114 1635.67,-309.894 1631.48,-319.625 1638.47,-320.114"/>
<text text-anchor="middle" x="1014" y="-586.8" font-family="Times,serif" font-size="14.00">u0003</text>
</g>
<!-- 6 -->
<g id="node19" class="node"><title>6</title>
<ellipse fill="none" stroke="black" cx="586" cy="-180" rx="18" ry="18"/>
</g>
<!-- 3&#45;&gt;6 -->
<g id="edge6" class="edge"><title>3&#45;&gt;6</title>
<path fill="none" stroke="black" d="M470.335,-478.508C490.096,-427.065 550.723,-269.233 574.897,-206.302"/>
<polygon fill="black" stroke="black" points="578.263,-207.299 578.582,-196.709 571.728,-204.789 578.263,-207.299"/>
<text text-anchor="middle" x="522" y="-405.8" font-family="Times,serif" font-size="14.00">u0005</text>
</g>
<!-- 7 -->
<g id="node6" class="node"><title>7</title>
<ellipse fill="none" stroke="black" cx="955" cy="-395" rx="18" ry="18"/>
</g>
<!-- 4&#45;&gt;7 -->
<g id="edge7" class="edge"><title>4&#45;&gt;7</title>
<path fill="none" stroke="black" d="M725.732,-488.207C745.226,-479.817 779.482,-465.164 809,-453 850.709,-435.813 899.452,-416.467 928.467,-405.028"/>
<polygon fill="black" stroke="black" points="929.841,-408.249 937.863,-401.328 927.276,-401.735 929.841,-408.249"/>
<text text-anchor="middle" x="832" y="-456.8" font-family="Times,serif" font-size="14.00">u0004</text>
</g>
<!-- 4&#45;&gt;5 -->
<g id="edge8" class="edge"><title>4&#45;&gt;5</title>
<path fill="none" stroke="black" d="M724.116,-505.118C745.927,-519.728 789.632,-545 831,-545 831,-545 831,-545 1512,-545 1610.67,-545 1631.47,-389.921 1635.84,-320.694"/>
<polygon fill="black" stroke="black" points="1639.36,-320.535 1636.41,-310.357 1632.37,-320.15 1639.36,-320.535"/>
<text text-anchor="middle" x="1166.5" y="-548.8" font-family="Times,serif" font-size="14.00">u0003</text>
</g>
<!-- 8 -->
<g id="node15" class="node"><title>8</title>
<ellipse fill="none" stroke="black" cx="832" cy="-495" rx="18" ry="18"/>
</g>
<!-- 4&#45;&gt;8 -->
<g id="edge9" class="edge"><title>4&#45;&gt;8</title>
<path fill="none" stroke="black" d="M727.08,-495C746.965,-495 780.077,-495 803.577,-495"/>
<polygon fill="black" stroke="black" points="803.615,-498.5 813.615,-495 803.615,-491.5 803.615,-498.5"/>
<text text-anchor="middle" x="768" y="-498.8" font-family="Times,serif" font-size="14.00">u0005</text>
</g>
<!-- 11 -->
<g id="node7" class="node"><title>11</title>
<ellipse fill="none" stroke="black" cx="1078" cy="-395" rx="18" ry="18"/>
</g>
<!-- 7&#45;&gt;11 -->
<g id="edge10" class="edge"><title>7&#45;&gt;11</title>
<path fill="none" stroke="black" d="M973.08,-395C992.965,-395 1026.08,-395 1049.58,-395"/>
<polygon fill="black" stroke="black" points="1049.62,-398.5 1059.62,-395 1049.62,-391.5 1049.62,-398.5"/>
<text text-anchor="middle" x="1014" y="-398.8" font-family="Times,serif" font-size="14.00">u0004</text>
</g>
<!-- 12 -->
<g id="node12" class="node"><title>12</title>
<ellipse fill="none" stroke="black" cx="1078" cy="-273" rx="18" ry="18"/>
</g>
<!-- 7&#45;&gt;12 -->
<g id="edge11" class="edge"><title>7&#45;&gt;12</title>
<path fill="none" stroke="black" d="M962.25,-378.38C968.122,-364.341 977.954,-344.295 991,-330 1008.48,-310.846 1033.69,-295.127 1052.3,-285.084"/>
<polygon fill="black" stroke="black" points="1054.11,-288.089 1061.35,-280.361 1050.87,-281.883 1054.11,-288.089"/>
<text text-anchor="middle" x="1014" y="-333.8" font-family="Times,serif" font-size="14.00">u0005</text>
</g>
<!-- 18 -->
<g id="node8" class="node"><title>18</title>
<ellipse fill="none" stroke="black" cx="1255" cy="-372" rx="18" ry="18"/>
</g>
<!-- 11&#45;&gt;18 -->
<g id="edge12" class="edge"><title>11&#45;&gt;18</title>
<path fill="none" stroke="black" d="M1096.12,-392.342C1103.19,-391.266 1111.49,-390.036 1119,-389 1156.39,-383.842 1199.7,-378.5 1226.97,-375.213"/>
<polygon fill="black" stroke="black" points="1227.42,-378.684 1236.93,-374.018 1226.59,-371.734 1227.42,-378.684"/>
<text text-anchor="middle" x="1166.5" y="-392.8" font-family="Times,serif" font-size="14.00">u0004</text>
</g>
<!-- 11&#45;&gt;5 -->
<g id="edge13" class="edge"><title>11&#45;&gt;5</title>
<path fill="none" stroke="black" d="M1095.6,-399.599C1102.74,-401.352 1111.22,-403.135 1119,-404 1160.96,-408.663 1171.81,-405.646 1214,-404 1299.64,-400.66 1322.55,-405.539 1406,-386 1435.58,-379.075 1441.81,-373.333 1470,-362 1527.45,-338.901 1541.71,-332.789 1598,-307 1601.49,-305.4 1605.14,-303.684 1608.74,-301.961"/>
<polygon fill="black" stroke="black" points="1610.57,-304.967 1618.04,-297.459 1607.52,-298.666 1610.57,-304.967"/>
<text text-anchor="middle" x="1383" y="-399.8" font-family="Times,serif" font-size="14.00">u0003</text>
</g>
<!-- 16 -->
<g id="node9" class="node"><title>16</title>
<ellipse fill="none" stroke="black" cx="1383" cy="-359" rx="18" ry="18"/>
</g>
<!-- 18&#45;&gt;16 -->
<g id="edge14" class="edge"><title>18&#45;&gt;16</title>
<path fill="none" stroke="black" d="M1272.99,-370.247C1293.94,-368.085 1329.81,-364.385 1354.65,-361.821"/>
<polygon fill="black" stroke="black" points="1355.29,-365.275 1364.87,-360.767 1354.57,-358.312 1355.29,-365.275"/>
<text text-anchor="middle" x="1319" y="-371.8" font-family="Times,serif" font-size="14.00">u0005</text>
</g>
<!-- 21 -->
<g id="node10" class="node"><title>21</title>
<ellipse fill="none" stroke="black" cx="1511" cy="-288" rx="18" ry="18"/>
</g>
<!-- 16&#45;&gt;21 -->
<g id="edge15" class="edge"><title>16&#45;&gt;21</title>
<path fill="none" stroke="black" d="M1400.08,-352.79C1417.78,-345.669 1446.8,-333.139 1470,-319 1476.35,-315.129 1482.88,-310.429 1488.77,-305.87"/>
<polygon fill="black" stroke="black" points="1491.22,-308.387 1496.84,-299.406 1486.85,-302.921 1491.22,-308.387"/>
<text text-anchor="middle" x="1447" y="-346.8" font-family="Times,serif" font-size="14.00">u0005</text>
</g>
<!-- 21&#45;&gt;5 -->
<g id="edge16" class="edge"><title>21&#45;&gt;5</title>
<path fill="none" stroke="black" d="M1529.12,-288C1548.81,-288 1581.53,-288 1605.78,-288"/>
<polygon fill="black" stroke="black" points="1605.92,-291.5 1615.92,-288 1605.92,-284.5 1605.92,-291.5"/>
<text text-anchor="middle" x="1575" y="-291.8" font-family="Times,serif" font-size="14.00">u0003</text>
</g>
<!-- 19 -->
<g id="node13" class="node"><title>19</title>
<ellipse fill="none" stroke="black" cx="1255" cy="-264" rx="18" ry="18"/>
</g>
<!-- 12&#45;&gt;19 -->
<g id="edge17" class="edge"><title>12&#45;&gt;19</title>
<path fill="none" stroke="black" d="M1096.1,-272.121C1126.42,-270.561 1189.84,-267.299 1226.41,-265.419"/>
<polygon fill="black" stroke="black" points="1227.03,-268.892 1236.83,-264.883 1226.67,-261.901 1227.03,-268.892"/>
<text text-anchor="middle" x="1166.5" y="-274.8" font-family="Times,serif" font-size="14.00">u0005</text>
</g>
<!-- 23 -->
<g id="node14" class="node"><title>23</title>
<ellipse fill="none" stroke="black" cx="1383" cy="-305" rx="18" ry="18"/>
</g>
<!-- 19&#45;&gt;23 -->
<g id="edge18" class="edge"><title>19&#45;&gt;23</title>
<path fill="none" stroke="black" d="M1272.21,-269.276C1293.36,-276.157 1330.62,-288.281 1355.8,-296.475"/>
<polygon fill="black" stroke="black" points="1354.86,-299.848 1365.45,-299.614 1357.02,-293.191 1354.86,-299.848"/>
<text text-anchor="middle" x="1319" y="-295.8" font-family="Times,serif" font-size="14.00">u0005</text>
</g>
<!-- 23&#45;&gt;21 -->
<g id="edge19" class="edge"><title>23&#45;&gt;21</title>
<path fill="none" stroke="black" d="M1400.99,-302.707C1421.94,-299.881 1457.81,-295.041 1482.65,-291.69"/>
<polygon fill="black" stroke="black" points="1483.43,-295.116 1492.87,-290.311 1482.5,-288.179 1483.43,-295.116"/>
<text text-anchor="middle" x="1447" y="-303.8" font-family="Times,serif" font-size="14.00">u0004</text>
</g>
<!-- 8&#45;&gt;5 -->
<g id="edge20" class="edge"><title>8&#45;&gt;5</title>
<path fill="none" stroke="black" d="M850.214,-496.624C873.662,-498.691 916.966,-502 954,-502 954,-502 954,-502 1512,-502 1595.21,-502 1624.03,-379.877 1633.16,-320.141"/>
<polygon fill="black" stroke="black" points="1636.64,-320.491 1634.6,-310.096 1629.71,-319.499 1636.64,-320.491"/>
<text text-anchor="middle" x="1255" y="-505.8" font-family="Times,serif" font-size="14.00">u0003</text>
</g>
<!-- 13 -->
<g id="node16" class="node"><title>13</title>
<ellipse fill="none" stroke="black" cx="955" cy="-456" rx="18" ry="18"/>
</g>
<!-- 8&#45;&gt;13 -->
<g id="edge21" class="edge"><title>8&#45;&gt;13</title>
<path fill="none" stroke="black" d="M847.694,-485.546C855.047,-481.178 864.231,-476.249 873,-473 890.297,-466.591 910.615,-462.335 926.575,-459.684"/>
<polygon fill="black" stroke="black" points="927.488,-463.084 936.837,-458.098 926.42,-456.166 927.488,-463.084"/>
<text text-anchor="middle" x="896" y="-476.8" font-family="Times,serif" font-size="14.00">u0005</text>
</g>
<!-- 13&#45;&gt;5 -->
<g id="edge23" class="edge"><title>13&#45;&gt;5</title>
<path fill="none" stroke="black" d="M973.232,-456C996.701,-456 1040.03,-456 1077,-456 1077,-456 1077,-456 1512,-456 1579.54,-456 1614.88,-367.519 1629.19,-318.982"/>
<polygon fill="black" stroke="black" points="1632.58,-319.852 1631.93,-309.277 1625.84,-317.951 1632.58,-319.852"/>
<text text-anchor="middle" x="1319" y="-459.8" font-family="Times,serif" font-size="14.00">u0003</text>
</g>
<!-- 20 -->
<g id="node17" class="node"><title>20</title>
<ellipse fill="none" stroke="black" cx="1078" cy="-338" rx="18" ry="18"/>
</g>
<!-- 13&#45;&gt;20 -->
<g id="edge22" class="edge"><title>13&#45;&gt;20</title>
<path fill="none" stroke="black" d="M964.258,-440.229C967.139,-434.538 970.319,-428.03 973,-422 981.918,-401.939 975.814,-391.855 991,-376 1007,-359.29 1031.65,-349.435 1050.47,-343.966"/>
<polygon fill="black" stroke="black" points="1051.46,-347.322 1060.22,-341.363 1049.66,-340.558 1051.46,-347.322"/>
<text text-anchor="middle" x="1014" y="-379.8" font-family="Times,serif" font-size="14.00">u0004</text>
</g>
<!-- 24 -->
<g id="node18" class="node"><title>24</title>
<ellipse fill="none" stroke="black" cx="1255" cy="-318" rx="18" ry="18"/>
</g>
<!-- 20&#45;&gt;24 -->
<g id="edge24" class="edge"><title>20&#45;&gt;24</title>
<path fill="none" stroke="black" d="M1096.1,-336.046C1126.5,-332.572 1190.17,-325.295 1226.69,-321.121"/>
<polygon fill="black" stroke="black" points="1227.55,-324.546 1237.09,-319.933 1226.76,-317.591 1227.55,-324.546"/>
<text text-anchor="middle" x="1166.5" y="-337.8" font-family="Times,serif" font-size="14.00">u0005</text>
</g>
<!-- 24&#45;&gt;23 -->
<g id="edge25" class="edge"><title>24&#45;&gt;23</title>
<path fill="none" stroke="black" d="M1273.21,-318.081C1290.63,-317.957 1318.3,-317.193 1342,-314 1346.36,-313.412 1350.96,-312.583 1355.41,-311.663"/>
<polygon fill="black" stroke="black" points="1356.39,-315.03 1365.38,-309.423 1354.86,-308.2 1356.39,-315.03"/>
<text text-anchor="middle" x="1319" y="-321.8" font-family="Times,serif" font-size="14.00">u0004</text>
</g>
<!-- 6&#45;&gt;5 -->
<g id="edge27" class="edge"><title>6&#45;&gt;5</title>
<path fill="none" stroke="black" d="M592.942,-163.3C606.914,-127.379 645.467,-46 708,-46 708,-46 708,-46 1512,-46 1557.61,-46 1572.24,-64.359 1598,-102 1629.92,-148.641 1636.58,-216.141 1637.5,-255.704"/>
<polygon fill="black" stroke="black" points="1634,-255.887 1637.62,-265.844 1641,-255.802 1634,-255.887"/>
<text text-anchor="middle" x="1078" y="-49.8" font-family="Times,serif" font-size="14.00">u0003</text>
</g>
<!-- 9 -->
<g id="node20" class="node"><title>9</title>
<ellipse fill="none" stroke="black" cx="709" cy="-146" rx="18" ry="18"/>
</g>
<!-- 6&#45;&gt;9 -->
<g id="edge26" class="edge"><title>6&#45;&gt;9</title>
<path fill="none" stroke="black" d="M603.825,-175.272C623.962,-169.614 657.922,-160.071 681.574,-153.426"/>
<polygon fill="black" stroke="black" points="682.638,-156.762 691.318,-150.687 680.744,-150.023 682.638,-156.762"/>
<text text-anchor="middle" x="650" y="-172.8" font-family="Times,serif" font-size="14.00">u0004</text>
</g>
<!-- 10 -->
<g id="node25" class="node"><title>10</title>
<ellipse fill="none" stroke="black" cx="1255" cy="-210" rx="18" ry="18"/>
</g>
<!-- 6&#45;&gt;10 -->
<g id="edge28" class="edge"><title>6&#45;&gt;10</title>
<path fill="none" stroke="black" d="M602.157,-188.271C624.591,-199.719 668.272,-219 708,-219 708,-219 708,-219 1079,-219 1131.16,-219 1191.94,-214.963 1226.41,-212.297"/>
<polygon fill="black" stroke="black" points="1226.94,-215.766 1236.63,-211.486 1226.38,-208.788 1226.94,-215.766"/>
<text text-anchor="middle" x="896" y="-222.8" font-family="Times,serif" font-size="14.00">u0005</text>
</g>
<!-- 9&#45;&gt;5 -->
<g id="edge30" class="edge"><title>9&#45;&gt;5</title>
<path fill="none" stroke="black" d="M724.211,-135.734C771.655,-102.501 929.913,-0 1077,-0 1077,-0 1077,-0 1512,-0 1552.78,-0 1572.27,-0.362623 1598,-32 1625.43,-65.7231 1633.67,-194.586 1636.07,-255.603"/>
<polygon fill="black" stroke="black" points="1632.58,-255.957 1636.44,-265.824 1639.57,-255.704 1632.58,-255.957"/>
<text text-anchor="middle" x="1166.5" y="-3.8" font-family="Times,serif" font-size="14.00">u0003</text>
</g>
<!-- 14 -->
<g id="node21" class="node"><title>14</title>
<ellipse fill="none" stroke="black" cx="896" cy="-178" rx="18" ry="18"/>
</g>
<!-- 9&#45;&gt;14 -->
<g id="edge29" class="edge"><title>9&#45;&gt;14</title>
<path fill="none" stroke="black" d="M726.268,-151.133C732.13,-152.854 738.822,-154.67 745,-156 787.396,-165.124 837.355,-171.616 867.579,-175.085"/>
<polygon fill="black" stroke="black" points="867.444,-178.592 877.771,-176.226 868.222,-171.635 867.444,-178.592"/>
<text text-anchor="middle" x="768" y="-168.8" font-family="Times,serif" font-size="14.00">u0004</text>
</g>
<!-- 15 -->
<g id="node22" class="node"><title>15</title>
<ellipse fill="none" stroke="black" cx="832" cy="-132" rx="18" ry="18"/>
</g>
<!-- 9&#45;&gt;15 -->
<g id="edge31" class="edge"><title>9&#45;&gt;15</title>
<path fill="none" stroke="black" d="M727.073,-143.43C732.768,-142.607 739.152,-141.723 745,-141 764.554,-138.581 786.663,-136.277 803.568,-134.605"/>
<polygon fill="black" stroke="black" points="804.232,-138.057 813.846,-133.604 803.553,-131.09 804.232,-138.057"/>
<text text-anchor="middle" x="768" y="-144.8" font-family="Times,serif" font-size="14.00">u0005</text>
</g>
<!-- 14&#45;&gt;21 -->
<g id="edge32" class="edge"><title>14&#45;&gt;21</title>
<path fill="none" stroke="black" d="M914.246,-176.425C968.329,-171.871 1139.26,-160.389 1278,-183 1336.96,-192.609 1351.1,-200.451 1406,-224 1435.79,-236.78 1442.6,-241.673 1470,-259 1475.9,-262.731 1482.09,-267.02 1487.79,-271.135"/>
<polygon fill="black" stroke="black" points="1486.11,-274.241 1496.23,-277.355 1490.26,-268.606 1486.11,-274.241"/>
<text text-anchor="middle" x="1166.5" y="-178.8" font-family="Times,serif" font-size="14.00">u0004&#45;u0005</text>
</g>
<!-- 15&#45;&gt;5 -->
<g id="edge33" class="edge"><title>15&#45;&gt;5</title>
<path fill="none" stroke="black" d="M849.397,-127.223C869.745,-121.528 905.599,-112.245 937,-108 1104.95,-85.2927 1148.52,-92 1318,-92 1318,-92 1318,-92 1512,-92 1588.97,-92 1620.63,-200.772 1631.77,-256.256"/>
<polygon fill="black" stroke="black" points="1628.37,-257.106 1633.68,-266.276 1635.25,-255.798 1628.37,-257.106"/>
<text text-anchor="middle" x="1255" y="-95.8" font-family="Times,serif" font-size="14.00">u0003</text>
</g>
<!-- 22 -->
<g id="node23" class="node"><title>22</title>
<ellipse fill="none" stroke="black" cx="955" cy="-135" rx="18" ry="18"/>
</g>
<!-- 15&#45;&gt;22 -->
<g id="edge34" class="edge"><title>15&#45;&gt;22</title>
<path fill="none" stroke="black" d="M850.08,-132.423C869.965,-132.916 903.077,-133.737 926.577,-134.32"/>
<polygon fill="black" stroke="black" points="926.532,-137.82 936.615,-134.569 926.705,-130.822 926.532,-137.82"/>
<text text-anchor="middle" x="896" y="-138.8" font-family="Times,serif" font-size="14.00">u0005</text>
</g>
<!-- 25 -->
<g id="node24" class="node"><title>25</title>
<ellipse fill="none" stroke="black" cx="1078" cy="-135" rx="18" ry="18"/>
</g>
<!-- 22&#45;&gt;25 -->
<g id="edge35" class="edge"><title>22&#45;&gt;25</title>
<path fill="none" stroke="black" d="M973.08,-135C992.965,-135 1026.08,-135 1049.58,-135"/>
<polygon fill="black" stroke="black" points="1049.62,-138.5 1059.62,-135 1049.62,-131.5 1049.62,-138.5"/>
<text text-anchor="middle" x="1014" y="-138.8" font-family="Times,serif" font-size="14.00">u0005</text>
</g>
<!-- 25&#45;&gt;19 -->
<g id="edge36" class="edge"><title>25&#45;&gt;19</title>
<path fill="none" stroke="black" d="M1095.45,-129.772C1123.46,-121.996 1180.62,-111.186 1214,-140 1247.19,-168.653 1213.58,-197.21 1232,-237 1232.99,-239.14 1234.19,-241.254 1235.51,-243.302"/>
<polygon fill="black" stroke="black" points="1233.02,-245.813 1241.82,-251.716 1238.62,-241.615 1233.02,-245.813"/>
<text text-anchor="middle" x="1166.5" y="-143.8" font-family="Times,serif" font-size="14.00">u0004</text>
</g>
<!-- 10&#45;&gt;16 -->
<g id="edge37" class="edge"><title>10&#45;&gt;16</title>
<path fill="none" stroke="black" d="M1269.66,-220.494C1277.21,-226.049 1286.88,-232.782 1296,-238 1315.51,-249.157 1327.66,-241.698 1342,-259 1363.33,-284.726 1345.08,-302.098 1360,-332 1361.03,-334.066 1362.24,-336.117 1363.56,-338.11"/>
<polygon fill="black" stroke="black" points="1360.96,-340.473 1369.77,-346.358 1366.55,-336.263 1360.96,-340.473"/>
<text text-anchor="middle" x="1319" y="-262.8" font-family="Times,serif" font-size="14.00">u0004</text>
</g>
<!-- 10&#45;&gt;5 -->
<g id="edge38" class="edge"><title>10&#45;&gt;5</title>
<path fill="none" stroke="black" d="M1273.15,-209.135C1290.51,-208.415 1318.14,-207.699 1342,-209 1456.85,-215.262 1496.94,-192.069 1598,-247 1605.28,-250.958 1612,-256.761 1617.74,-262.763"/>
<polygon fill="black" stroke="black" points="1615.2,-265.175 1624.44,-270.347 1620.44,-260.538 1615.2,-265.175"/>
<text text-anchor="middle" x="1447" y="-213.8" font-family="Times,serif" font-size="14.00">u0003</text>
</g>
<!-- 17 -->
<g id="node26" class="node"><title>17</title>
<ellipse fill="none" stroke="black" cx="1383" cy="-251" rx="18" ry="18"/>
</g>
<!-- 10&#45;&gt;17 -->
<g id="edge39" class="edge"><title>10&#45;&gt;17</title>
<path fill="none" stroke="black" d="M1273.08,-210.298C1290.88,-211.124 1319.29,-213.918 1342,-223 1348.4,-225.561 1354.78,-229.323 1360.5,-233.264"/>
<polygon fill="black" stroke="black" points="1358.73,-236.311 1368.85,-239.457 1362.9,-230.689 1358.73,-236.311"/>
<text text-anchor="middle" x="1319" y="-226.8" font-family="Times,serif" font-size="14.00">u0005</text>
</g>
<!-- 17&#45;&gt;21 -->
<g id="edge41" class="edge"><title>17&#45;&gt;21</title>
<path fill="none" stroke="black" d="M1400.55,-255.396C1417.91,-260.059 1445.96,-267.743 1470,-275 1474.53,-276.366 1479.32,-277.873 1483.96,-279.362"/>
<polygon fill="black" stroke="black" points="1483.11,-282.765 1493.7,-282.531 1485.27,-276.109 1483.11,-282.765"/>
<text text-anchor="middle" x="1447" y="-278.8" font-family="Times,serif" font-size="14.00">u0005</text>
</g>
<!-- 17&#45;&gt;5 -->
<g id="edge40" class="edge"><title>17&#45;&gt;5</title>
<path fill="none" stroke="black" d="M1400.84,-247.992C1428.81,-243.54 1486.44,-236.676 1534,-246 1560.67,-251.228 1589.14,-263.398 1609.37,-273.299"/>
<polygon fill="black" stroke="black" points="1607.82,-276.436 1618.33,-277.796 1610.96,-270.181 1607.82,-276.436"/>
<text text-anchor="middle" x="1511" y="-249.8" font-family="Times,serif" font-size="14.00">u0003</text>
</g>
<!-- initial -->
<g id="node27" class="node"><title>initial</title>
</g>
<!-- initial&#45;&gt;0 -->
<g id="edge42" class="edge"><title>initial&#45;&gt;0</title>
<path fill="none" stroke="black" d="M54.195,-495C62.6538,-495 72.0513,-495 80.5951,-495"/>
<polygon fill="black" stroke="black" points="80.8257,-498.5 90.8257,-495 80.8257,-491.5 80.8257,-498.5"/>
</g>
</g>
</svg>
