<svg width="3231px" height="355px"
 viewBox="0.00 0.00 2423.00 266.00" xmlns="http://www.w3.org/2000/svg" xmlns:xlink="http://www.w3.org/1999/xlink">
<g id="graph0" class="graph" transform="scale(1.000022500562514 1.000022500562514) rotate(0) translate(4 262)">
<title>Automaton</title>
<polygon fill="white" stroke="none" points="-4,4 -4,-262 2419,-262 2419,4 -4,4"/>
<!-- 0 -->
<g id="node1" class="node"><title>0</title>
<ellipse fill="none" stroke="black" cx="109" cy="-175" rx="18" ry="18"/>
</g>
<!-- 1 -->
<g id="node2" class="node"><title>1</title>
<ellipse fill="none" stroke="black" cx="227" cy="-175" rx="18" ry="18"/>
</g>
<!-- 0&#45;&gt;1 -->
<g id="edge1" class="edge"><title>0&#45;&gt;1</title>
<path fill="none" stroke="black" d="M127.116,-175C145.964,-175 176.531,-175 198.696,-175"/>
<polygon fill="black" stroke="black" points="198.814,-178.5 208.814,-175 198.814,-171.5 198.814,-178.5"/>
<text text-anchor="middle" x="168" y="-178.8" font-family="Times,serif" font-size="14.00">u0007</text>
</g>
<!-- 2 -->
<g id="node3" class="node"><title>2</title>
<ellipse fill="none" stroke="black" cx="345" cy="-175" rx="18" ry="18"/>
</g>
<!-- 1&#45;&gt;2 -->
<g id="edge2" class="edge"><title>1&#45;&gt;2</title>
<path fill="none" stroke="black" d="M245.116,-175C263.964,-175 294.531,-175 316.696,-175"/>
<polygon fill="black" stroke="black" points="316.814,-178.5 326.814,-175 316.814,-171.5 316.814,-178.5"/>
<text text-anchor="middle" x="286" y="-178.8" font-family="Times,serif" font-size="14.00">u0009</text>
</g>
<!-- 3 -->
<g id="node4" class="node"><title>3</title>
<ellipse fill="none" stroke="black" cx="462" cy="-175" rx="18" ry="18"/>
</g>
<!-- 2&#45;&gt;3 -->
<g id="edge3" class="edge"><title>2&#45;&gt;3</title>
<path fill="none" stroke="black" d="M363.466,-175C382.064,-175 411.756,-175 433.499,-175"/>
<polygon fill="black" stroke="black" points="433.746,-178.5 443.746,-175 433.746,-171.5 433.746,-178.5"/>
<text text-anchor="middle" x="403.5" y="-178.8" font-family="Times,serif" font-size="14.00">u000a</text>
</g>
<!-- 4 -->
<g id="node5" class="node"><title>4</title>
<ellipse fill="none" stroke="black" cx="580" cy="-175" rx="18" ry="18"/>
</g>
<!-- 3&#45;&gt;4 -->
<g id="edge4" class="edge"><title>3&#45;&gt;4</title>
<path fill="none" stroke="black" d="M480.116,-175C498.964,-175 529.531,-175 551.696,-175"/>
<polygon fill="black" stroke="black" points="551.814,-178.5 561.814,-175 551.814,-171.5 551.814,-178.5"/>
<text text-anchor="middle" x="521" y="-178.8" font-family="Times,serif" font-size="14.00">u000b</text>
</g>
<!-- 5 -->
<g id="node6" class="node"><title>5</title>
<ellipse fill="none" stroke="black" cx="698" cy="-175" rx="18" ry="18"/>
</g>
<!-- 4&#45;&gt;5 -->
<g id="edge5" class="edge"><title>4&#45;&gt;5</title>
<path fill="none" stroke="black" d="M598.116,-175C616.964,-175 647.531,-175 669.696,-175"/>
<polygon fill="black" stroke="black" points="669.814,-178.5 679.814,-175 669.814,-171.5 669.814,-178.5"/>
<text text-anchor="middle" x="639" y="-178.8" font-family="Times,serif" font-size="14.00">u0005</text>
</g>
<!-- 6 -->
<g id="node7" class="node"><title>6</title>
<ellipse fill="none" stroke="black" cx="816" cy="-175" rx="18" ry="18"/>
</g>
<!-- 5&#45;&gt;6 -->
<g id="edge6" class="edge"><title>5&#45;&gt;6</title>
<path fill="none" stroke="black" d="M716.116,-175C734.964,-175 765.531,-175 787.696,-175"/>
<polygon fill="black" stroke="black" points="787.814,-178.5 797.814,-175 787.814,-171.5 787.814,-178.5"/>
<text text-anchor="middle" x="757" y="-178.8" font-family="Times,serif" font-size="14.00">u0001</text>
</g>
<!-- 7 -->
<g id="node8" class="node"><title>7</title>
<ellipse fill="none" stroke="black" cx="934" cy="-175" rx="18" ry="18"/>
</g>
<!-- 6&#45;&gt;7 -->
<g id="edge7" class="edge"><title>6&#45;&gt;7</title>
<path fill="none" stroke="black" d="M834.116,-175C852.964,-175 883.531,-175 905.696,-175"/>
<polygon fill="black" stroke="black" points="905.814,-178.5 915.814,-175 905.814,-171.5 905.814,-178.5"/>
<text text-anchor="middle" x="875" y="-178.8" font-family="Times,serif" font-size="14.00">u0003</text>
</g>
<!-- 8 -->
<g id="node9" class="node"><title>8</title>
<ellipse fill="none" stroke="black" cx="1051" cy="-175" rx="18" ry="18"/>
</g>
<!-- 7&#45;&gt;8 -->
<g id="edge8" class="edge"><title>7&#45;&gt;8</title>
<path fill="none" stroke="black" d="M952.466,-175C971.064,-175 1000.76,-175 1022.5,-175"/>
<polygon fill="black" stroke="black" points="1022.75,-178.5 1032.75,-175 1022.75,-171.5 1022.75,-178.5"/>
<text text-anchor="middle" x="992.5" y="-178.8" font-family="Times,serif" font-size="14.00">u000c</text>
</g>
<!-- 9 -->
<g id="node10" class="node"><title>9</title>
<ellipse fill="none" stroke="black" cx="1169" cy="-175" rx="18" ry="18"/>
</g>
<!-- 8&#45;&gt;9 -->
<g id="edge9" class="edge"><title>8&#45;&gt;9</title>
<path fill="none" stroke="black" d="M1069.12,-175C1087.96,-175 1118.53,-175 1140.7,-175"/>
<polygon fill="black" stroke="black" points="1140.81,-178.5 1150.81,-175 1140.81,-171.5 1140.81,-178.5"/>
<text text-anchor="middle" x="1110" y="-178.8" font-family="Times,serif" font-size="14.00">u0002</text>
</g>
<!-- 10 -->
<g id="node11" class="node"><title>10</title>
<ellipse fill="none" stroke="black" cx="1287" cy="-140" rx="18" ry="18"/>
</g>
<!-- 9&#45;&gt;10 -->
<g id="edge10" class="edge"><title>9&#45;&gt;10</title>
<path fill="none" stroke="black" d="M1183.04,-163.31C1189.26,-158.386 1197.07,-153.091 1205,-150 1222.06,-143.354 1242.53,-140.869 1258.62,-140.038"/>
<polygon fill="black" stroke="black" points="1259.09,-143.525 1268.97,-139.696 1258.86,-136.529 1259.09,-143.525"/>
<text text-anchor="middle" x="1228" y="-153.8" font-family="Times,serif" font-size="14.00">u0004</text>
</g>
<!-- 13 -->
<g id="node14" class="node"><title>13</title>
<ellipse fill="none" stroke="black" cx="2393" cy="-202" rx="18" ry="18"/>
<ellipse fill="none" stroke="black" cx="2393" cy="-202" rx="22" ry="22"/>
</g>
<!-- 9&#45;&gt;13 -->
<g id="edge13" class="edge"><title>9&#45;&gt;13</title>
<path fill="none" stroke="black" d="M1181.85,-187.79C1201.47,-207.488 1242.81,-243 1286,-243 1286,-243 1286,-243 2272,-243 2305.09,-243 2340.69,-228.869 2364.44,-217.199"/>
<polygon fill="black" stroke="black" points="2366.23,-220.217 2373.55,-212.559 2363.05,-213.98 2366.23,-220.217"/>
<text text-anchor="middle" x="1794" y="-246.8" font-family="Times,serif" font-size="14.00">u0000</text>
</g>
<!-- 11 -->
<g id="node21" class="node"><title>11</title>
<ellipse fill="none" stroke="black" cx="1666" cy="-46" rx="18" ry="18"/>
</g>
<!-- 9&#45;&gt;11 -->
<g id="edge11" class="edge"><title>9&#45;&gt;11</title>
<path fill="none" stroke="black" d="M1176.24,-158.401C1190.23,-124.399 1227.53,-50 1286,-50 1286,-50 1286,-50 1539,-50 1573.09,-50 1612.34,-48.5194 1637.85,-47.3598"/>
<polygon fill="black" stroke="black" points="1638.06,-50.8537 1647.89,-46.8877 1637.73,-43.8615 1638.06,-50.8537"/>
<text text-anchor="middle" x="1410" y="-53.8" font-family="Times,serif" font-size="14.00">u0008</text>
</g>
<!-- 12 -->
<g id="node25" class="node"><title>12</title>
<ellipse fill="none" stroke="black" cx="1346" cy="-188" rx="18" ry="18"/>
</g>
<!-- 9&#45;&gt;12 -->
<g id="edge12" class="edge"><title>9&#45;&gt;12</title>
<path fill="none" stroke="black" d="M1187.1,-176.27C1217.42,-178.522 1280.84,-183.234 1317.41,-185.951"/>
<polygon fill="black" stroke="black" points="1317.6,-189.474 1327.83,-186.725 1318.12,-182.493 1317.6,-189.474"/>
<text text-anchor="middle" x="1228" y="-183.8" font-family="Times,serif" font-size="14.00">u0006</text>
</g>
<!-- 14 -->
<g id="node12" class="node"><title>14</title>
<ellipse fill="none" stroke="black" cx="1410" cy="-138" rx="18" ry="18"/>
</g>
<!-- 10&#45;&gt;14 -->
<g id="edge14" class="edge"><title>10&#45;&gt;14</title>
<path fill="none" stroke="black" d="M1305.08,-139.718C1324.96,-139.389 1358.08,-138.842 1381.58,-138.453"/>
<polygon fill="black" stroke="black" points="1381.67,-141.952 1391.62,-138.287 1381.56,-134.953 1381.67,-141.952"/>
<text text-anchor="middle" x="1346" y="-143.8" font-family="Times,serif" font-size="14.00">u0008</text>
</g>
<!-- 15 -->
<g id="node13" class="node"><title>15</title>
<ellipse fill="none" stroke="black" cx="2271" cy="-109" rx="18" ry="18"/>
</g>
<!-- 14&#45;&gt;15 -->
<g id="edge15" class="edge"><title>14&#45;&gt;15</title>
<path fill="none" stroke="black" d="M1425.87,-128.691C1448.81,-115.25 1494.62,-92 1537,-92 1537,-92 1537,-92 2154,-92 2184.89,-92 2219.92,-97.9741 2243.33,-102.839"/>
<polygon fill="black" stroke="black" points="2242.69,-106.283 2253.21,-104.971 2244.17,-99.4407 2242.69,-106.283"/>
<text text-anchor="middle" x="1858" y="-95.8" font-family="Times,serif" font-size="14.00">u0004</text>
</g>
<!-- 18 -->
<g id="node15" class="node"><title>18</title>
<ellipse fill="none" stroke="black" cx="1538" cy="-138" rx="18" ry="18"/>
</g>
<!-- 14&#45;&gt;18 -->
<g id="edge16" class="edge"><title>14&#45;&gt;18</title>
<path fill="none" stroke="black" d="M1428.26,-138C1449.27,-138 1485.03,-138 1509.77,-138"/>
<polygon fill="black" stroke="black" points="1509.95,-141.5 1519.95,-138 1509.95,-134.5 1509.95,-141.5"/>
<text text-anchor="middle" x="1474" y="-141.8" font-family="Times,serif" font-size="14.00">u0008</text>
</g>
<!-- 15&#45;&gt;13 -->
<g id="edge17" class="edge"><title>15&#45;&gt;13</title>
<path fill="none" stroke="black" d="M2285.77,-119.668C2305.48,-134.947 2342.09,-163.323 2366.75,-182.434"/>
<polygon fill="black" stroke="black" points="2364.88,-185.412 2374.93,-188.771 2369.17,-179.879 2364.88,-185.412"/>
<text text-anchor="middle" x="2330" y="-173.8" font-family="Times,serif" font-size="14.00">u0000</text>
</g>
<!-- 21 -->
<g id="node16" class="node"><title>21</title>
<ellipse fill="none" stroke="black" cx="1666" cy="-138" rx="18" ry="18"/>
</g>
<!-- 18&#45;&gt;21 -->
<g id="edge18" class="edge"><title>18&#45;&gt;21</title>
<path fill="none" stroke="black" d="M1556.26,-138C1577.27,-138 1613.03,-138 1637.77,-138"/>
<polygon fill="black" stroke="black" points="1637.95,-141.5 1647.95,-138 1637.95,-134.5 1637.95,-141.5"/>
<text text-anchor="middle" x="1602" y="-141.8" font-family="Times,serif" font-size="14.00">u0004</text>
</g>
<!-- 24 -->
<g id="node17" class="node"><title>24</title>
<ellipse fill="none" stroke="black" cx="1794" cy="-138" rx="18" ry="18"/>
</g>
<!-- 21&#45;&gt;24 -->
<g id="edge19" class="edge"><title>21&#45;&gt;24</title>
<path fill="none" stroke="black" d="M1684.26,-138C1705.27,-138 1741.03,-138 1765.77,-138"/>
<polygon fill="black" stroke="black" points="1765.95,-141.5 1775.95,-138 1765.95,-134.5 1765.95,-141.5"/>
<text text-anchor="middle" x="1730" y="-141.8" font-family="Times,serif" font-size="14.00">u0004</text>
</g>
<!-- 27 -->
<g id="node18" class="node"><title>27</title>
<ellipse fill="none" stroke="black" cx="1917" cy="-138" rx="18" ry="18"/>
</g>
<!-- 24&#45;&gt;27 -->
<g id="edge20" class="edge"><title>24&#45;&gt;27</title>
<path fill="none" stroke="black" d="M1812.08,-138C1831.96,-138 1865.08,-138 1888.58,-138"/>
<polygon fill="black" stroke="black" points="1888.62,-141.5 1898.62,-138 1888.62,-134.5 1888.62,-141.5"/>
<text text-anchor="middle" x="1858" y="-141.8" font-family="Times,serif" font-size="14.00">u0006</text>
</g>
<!-- 28 -->
<g id="node19" class="node"><title>28</title>
<ellipse fill="none" stroke="black" cx="2035" cy="-138" rx="18" ry="18"/>
</g>
<!-- 27&#45;&gt;28 -->
<g id="edge21" class="edge"><title>27&#45;&gt;28</title>
<path fill="none" stroke="black" d="M1935.12,-138C1953.96,-138 1984.53,-138 2006.7,-138"/>
<polygon fill="black" stroke="black" points="2006.81,-141.5 2016.81,-138 2006.81,-134.5 2006.81,-141.5"/>
<text text-anchor="middle" x="1976" y="-141.8" font-family="Times,serif" font-size="14.00">u0004</text>
</g>
<!-- 25 -->
<g id="node20" class="node"><title>25</title>
<ellipse fill="none" stroke="black" cx="2153" cy="-138" rx="18" ry="18"/>
</g>
<!-- 28&#45;&gt;25 -->
<g id="edge22" class="edge"><title>28&#45;&gt;25</title>
<path fill="none" stroke="black" d="M2053.12,-138C2071.96,-138 2102.53,-138 2124.7,-138"/>
<polygon fill="black" stroke="black" points="2124.81,-141.5 2134.81,-138 2124.81,-134.5 2124.81,-141.5"/>
<text text-anchor="middle" x="2094" y="-141.8" font-family="Times,serif" font-size="14.00">u0008</text>
</g>
<!-- 25&#45;&gt;15 -->
<g id="edge23" class="edge"><title>25&#45;&gt;15</title>
<path fill="none" stroke="black" d="M2170.62,-133.845C2189.66,-129.086 2221.1,-121.224 2243.52,-115.619"/>
<polygon fill="black" stroke="black" points="2244.56,-118.968 2253.41,-113.147 2242.86,-112.177 2244.56,-118.968"/>
<text text-anchor="middle" x="2212" y="-132.8" font-family="Times,serif" font-size="14.00">u0006</text>
</g>
<!-- 11&#45;&gt;15 -->
<g id="edge24" class="edge"><title>11&#45;&gt;15</title>
<path fill="none" stroke="black" d="M1681.87,-36.6912C1704.81,-23.2499 1750.62,-0 1793,-0 1793,-0 1793,-0 2154,-0 2202.79,-0 2239.46,-51.854 2257.52,-84.0316"/>
<polygon fill="black" stroke="black" points="2254.49,-85.7801 2262.32,-92.9167 2260.65,-82.4544 2254.49,-85.7801"/>
<text text-anchor="middle" x="1976" y="-3.8" font-family="Times,serif" font-size="14.00">u0004</text>
</g>
<!-- 16 -->
<g id="node22" class="node"><title>16</title>
<ellipse fill="none" stroke="black" cx="1794" cy="-46" rx="18" ry="18"/>
</g>
<!-- 11&#45;&gt;16 -->
<g id="edge25" class="edge"><title>11&#45;&gt;16</title>
<path fill="none" stroke="black" d="M1684.26,-46C1705.27,-46 1741.03,-46 1765.77,-46"/>
<polygon fill="black" stroke="black" points="1765.95,-49.5001 1775.95,-46 1765.95,-42.5001 1765.95,-49.5001"/>
<text text-anchor="middle" x="1730" y="-49.8" font-family="Times,serif" font-size="14.00">u0006</text>
</g>
<!-- 19 -->
<g id="node23" class="node"><title>19</title>
<ellipse fill="none" stroke="black" cx="1917" cy="-46" rx="18" ry="18"/>
</g>
<!-- 16&#45;&gt;19 -->
<g id="edge26" class="edge"><title>16&#45;&gt;19</title>
<path fill="none" stroke="black" d="M1812.08,-46C1831.96,-46 1865.08,-46 1888.58,-46"/>
<polygon fill="black" stroke="black" points="1888.62,-49.5001 1898.62,-46 1888.62,-42.5001 1888.62,-49.5001"/>
<text text-anchor="middle" x="1858" y="-49.8" font-family="Times,serif" font-size="14.00">u0006</text>
</g>
<!-- 22 -->
<g id="node24" class="node"><title>22</title>
<ellipse fill="none" stroke="black" cx="2035" cy="-46" rx="18" ry="18"/>
</g>
<!-- 19&#45;&gt;22 -->
<g id="edge27" class="edge"><title>19&#45;&gt;22</title>
<path fill="none" stroke="black" d="M1935.12,-46C1953.96,-46 1984.53,-46 2006.7,-46"/>
<polygon fill="black" stroke="black" points="2006.81,-49.5001 2016.81,-46 2006.81,-42.5001 2006.81,-49.5001"/>
<text text-anchor="middle" x="1976" y="-49.8" font-family="Times,serif" font-size="14.00">u0004</text>
</g>
<!-- 22&#45;&gt;25 -->
<g id="edge28" class="edge"><title>22&#45;&gt;25</title>
<path fill="none" stroke="black" d="M2049.76,-56.9149C2069.65,-72.6845 2106.61,-101.998 2130.22,-120.724"/>
<polygon fill="black" stroke="black" points="2128.25,-123.628 2138.26,-127.099 2132.6,-118.143 2128.25,-123.628"/>
<text text-anchor="middle" x="2094" y="-112.8" font-family="Times,serif" font-size="14.00">u0006</text>
</g>
<!-- 17 -->
<g id="node26" class="node"><title>17</title>
<ellipse fill="none" stroke="black" cx="1474" cy="-192" rx="18" ry="18"/>
</g>
<!-- 12&#45;&gt;17 -->
<g id="edge29" class="edge"><title>12&#45;&gt;17</title>
<path fill="none" stroke="black" d="M1363.99,-188.539C1384.94,-189.204 1420.81,-190.343 1445.65,-191.132"/>
<polygon fill="black" stroke="black" points="1445.77,-194.637 1455.87,-191.456 1445.99,-187.641 1445.77,-194.637"/>
<text text-anchor="middle" x="1410" y="-193.8" font-family="Times,serif" font-size="14.00">u0008</text>
</g>
<!-- 20 -->
<g id="node27" class="node"><title>20</title>
<ellipse fill="none" stroke="black" cx="1602" cy="-192" rx="18" ry="18"/>
</g>
<!-- 17&#45;&gt;20 -->
<g id="edge30" class="edge"><title>17&#45;&gt;20</title>
<path fill="none" stroke="black" d="M1492.26,-192C1513.27,-192 1549.03,-192 1573.77,-192"/>
<polygon fill="black" stroke="black" points="1573.95,-195.5 1583.95,-192 1573.95,-188.5 1573.95,-195.5"/>
<text text-anchor="middle" x="1538" y="-195.8" font-family="Times,serif" font-size="14.00">u0004</text>
</g>
<!-- 23 -->
<g id="node28" class="node"><title>23</title>
<ellipse fill="none" stroke="black" cx="1730" cy="-192" rx="18" ry="18"/>
</g>
<!-- 20&#45;&gt;23 -->
<g id="edge31" class="edge"><title>20&#45;&gt;23</title>
<path fill="none" stroke="black" d="M1620.26,-192C1641.27,-192 1677.03,-192 1701.77,-192"/>
<polygon fill="black" stroke="black" points="1701.95,-195.5 1711.95,-192 1701.95,-188.5 1701.95,-195.5"/>
<text text-anchor="middle" x="1666" y="-195.8" font-family="Times,serif" font-size="14.00">u0008</text>
</g>
<!-- 26 -->
<g id="node29" class="node"><title>26</title>
<ellipse fill="none" stroke="black" cx="1858" cy="-190" rx="18" ry="18"/>
</g>
<!-- 23&#45;&gt;26 -->
<g id="edge32" class="edge"><title>23&#45;&gt;26</title>
<path fill="none" stroke="black" d="M1748.26,-191.726C1769.27,-191.392 1805.03,-190.825 1829.77,-190.432"/>
<polygon fill="black" stroke="black" points="1830.01,-193.929 1839.95,-190.271 1829.9,-186.93 1830.01,-193.929"/>
<text text-anchor="middle" x="1794" y="-194.8" font-family="Times,serif" font-size="14.00">u0008</text>
</g>
<!-- 26&#45;&gt;25 -->
<g id="edge33" class="edge"><title>26&#45;&gt;25</title>
<path fill="none" stroke="black" d="M1876.07,-189.968C1918.1,-189.432 2029.55,-185.232 2117,-157 2120.89,-155.745 2124.84,-154.058 2128.63,-152.205"/>
<polygon fill="black" stroke="black" points="2130.4,-155.224 2137.56,-147.408 2127.09,-149.058 2130.4,-155.224"/>
<text text-anchor="middle" x="1976" y="-189.8" font-family="Times,serif" font-size="14.00">u0004</text>
</g>
<!-- initial -->
<g id="node30" class="node"><title>initial</title>
</g>
<!-- initial&#45;&gt;0 -->
<g id="edge34" class="edge"><title>initial&#45;&gt;0</title>
<path fill="none" stroke="black" d="M54.195,-175C62.6538,-175 72.0513,-175 80.5951,-175"/>
<polygon fill="black" stroke="black" points="80.8257,-178.5 90.8257,-175 80.8257,-171.5 80.8257,-178.5"/>
</g>
</g>
</svg>
