<svg width="2788px" height="552px"
 viewBox="0.00 0.00 2091.00 414.00" xmlns="http://www.w3.org/2000/svg" xmlns:xlink="http://www.w3.org/1999/xlink">
<g id="graph0" class="graph" transform="scale(1.000022500562514 1.000022500562514) rotate(0) translate(4 410)">
<title>Automaton</title>
<polygon fill="white" stroke="none" points="-4,4 -4,-410 2087,-410 2087,4 -4,4"/>
<!-- 0 -->
<g id="node1" class="node"><title>0</title>
<ellipse fill="none" stroke="black" cx="109" cy="-173" rx="18" ry="18"/>
</g>
<!-- 1 -->
<g id="node2" class="node"><title>1</title>
<ellipse fill="none" stroke="black" cx="227" cy="-173" rx="18" ry="18"/>
</g>
<!-- 0&#45;&gt;1 -->
<g id="edge1" class="edge"><title>0&#45;&gt;1</title>
<path fill="none" stroke="black" d="M127.116,-173C145.964,-173 176.531,-173 198.696,-173"/>
<polygon fill="black" stroke="black" points="198.814,-176.5 208.814,-173 198.814,-169.5 198.814,-176.5"/>
<text text-anchor="middle" x="168" y="-176.8" font-family="Times,serif" font-size="14.00">u0005</text>
</g>
<!-- 2 -->
<g id="node3" class="node"><title>2</title>
<ellipse fill="none" stroke="black" cx="345" cy="-173" rx="18" ry="18"/>
</g>
<!-- 1&#45;&gt;2 -->
<g id="edge2" class="edge"><title>1&#45;&gt;2</title>
<path fill="none" stroke="black" d="M245.116,-173C263.964,-173 294.531,-173 316.696,-173"/>
<polygon fill="black" stroke="black" points="316.814,-176.5 326.814,-173 316.814,-169.5 316.814,-176.5"/>
<text text-anchor="middle" x="286" y="-176.8" font-family="Times,serif" font-size="14.00">u0002</text>
</g>
<!-- 3 -->
<g id="node4" class="node"><title>3</title>
<ellipse fill="none" stroke="black" cx="463" cy="-200" rx="18" ry="18"/>
</g>
<!-- 2&#45;&gt;3 -->
<g id="edge3" class="edge"><title>2&#45;&gt;3</title>
<path fill="none" stroke="black" d="M362.62,-176.868C381.657,-181.299 413.103,-188.619 435.523,-193.837"/>
<polygon fill="black" stroke="black" points="434.878,-197.281 445.411,-196.139 436.465,-190.463 434.878,-197.281"/>
<text text-anchor="middle" x="404" y="-194.8" font-family="Times,serif" font-size="14.00">u0002</text>
</g>
<!-- 4 -->
<g id="node23" class="node"><title>4</title>
<ellipse fill="none" stroke="black" cx="522" cy="-116" rx="18" ry="18"/>
</g>
<!-- 2&#45;&gt;4 -->
<g id="edge4" class="edge"><title>2&#45;&gt;4</title>
<path fill="none" stroke="black" d="M362.464,-167.638C392.898,-157.725 458.184,-136.46 494.773,-124.543"/>
<polygon fill="black" stroke="black" points="496.283,-127.732 504.708,-121.307 494.115,-121.076 496.283,-127.732"/>
<text text-anchor="middle" x="404" y="-164.8" font-family="Times,serif" font-size="14.00">u0000</text>
</g>
<!-- 5 -->
<g id="node5" class="node"><title>5</title>
<ellipse fill="none" stroke="black" cx="581" cy="-200" rx="18" ry="18"/>
</g>
<!-- 3&#45;&gt;5 -->
<g id="edge5" class="edge"><title>3&#45;&gt;5</title>
<path fill="none" stroke="black" d="M481.116,-200C499.964,-200 530.531,-200 552.696,-200"/>
<polygon fill="black" stroke="black" points="552.814,-203.5 562.814,-200 552.814,-196.5 552.814,-203.5"/>
<text text-anchor="middle" x="522" y="-203.8" font-family="Times,serif" font-size="14.00">u0002</text>
</g>
<!-- 6 -->
<g id="node20" class="node"><title>6</title>
<ellipse fill="none" stroke="black" cx="640" cy="-303" rx="18" ry="18"/>
</g>
<!-- 3&#45;&gt;6 -->
<g id="edge6" class="edge"><title>3&#45;&gt;6</title>
<path fill="none" stroke="black" d="M478.92,-208.782C509.271,-226.645 578.421,-267.345 615.11,-288.939"/>
<polygon fill="black" stroke="black" points="613.724,-292.184 624.117,-294.241 617.275,-286.152 613.724,-292.184"/>
<text text-anchor="middle" x="522" y="-250.8" font-family="Times,serif" font-size="14.00">u0000</text>
</g>
<!-- 8 -->
<g id="node6" class="node"><title>8</title>
<ellipse fill="none" stroke="black" cx="704" cy="-245" rx="18" ry="18"/>
</g>
<!-- 5&#45;&gt;8 -->
<g id="edge7" class="edge"><title>5&#45;&gt;8</title>
<path fill="none" stroke="black" d="M598.319,-206.069C618.638,-213.626 653.579,-226.62 677.458,-235.501"/>
<polygon fill="black" stroke="black" points="676.347,-238.822 686.94,-239.027 678.787,-232.261 676.347,-238.822"/>
<text text-anchor="middle" x="640" y="-232.8" font-family="Times,serif" font-size="14.00">u0002</text>
</g>
<!-- 9 -->
<g id="node18" class="node"><title>9</title>
<ellipse fill="none" stroke="black" cx="827" cy="-194" rx="18" ry="18"/>
</g>
<!-- 5&#45;&gt;9 -->
<g id="edge8" class="edge"><title>5&#45;&gt;9</title>
<path fill="none" stroke="black" d="M599.158,-199.578C640.896,-198.552 748.011,-195.918 798.67,-194.672"/>
<polygon fill="black" stroke="black" points="798.95,-198.166 808.861,-194.421 798.778,-191.168 798.95,-198.166"/>
<text text-anchor="middle" x="704" y="-200.8" font-family="Times,serif" font-size="14.00">u0000</text>
</g>
<!-- 13 -->
<g id="node7" class="node"><title>13</title>
<ellipse fill="none" stroke="black" cx="827" cy="-265" rx="18" ry="18"/>
</g>
<!-- 8&#45;&gt;13 -->
<g id="edge9" class="edge"><title>8&#45;&gt;13</title>
<path fill="none" stroke="black" d="M721.825,-247.781C741.759,-251.076 775.239,-256.61 798.856,-260.513"/>
<polygon fill="black" stroke="black" points="798.491,-264.001 808.928,-262.178 799.633,-257.094 798.491,-264.001"/>
<text text-anchor="middle" x="768" y="-262.8" font-family="Times,serif" font-size="14.00">u0002</text>
</g>
<!-- 8&#45;&gt;9 -->
<g id="edge10" class="edge"><title>8&#45;&gt;9</title>
<path fill="none" stroke="black" d="M720.819,-238.333C741.2,-229.742 776.867,-214.709 800.952,-204.557"/>
<polygon fill="black" stroke="black" points="802.322,-207.778 810.177,-200.669 799.603,-201.328 802.322,-207.778"/>
<text text-anchor="middle" x="768" y="-230.8" font-family="Times,serif" font-size="14.00">u0000</text>
</g>
<!-- 17 -->
<g id="node8" class="node"><title>17</title>
<ellipse fill="none" stroke="black" cx="945" cy="-265" rx="18" ry="18"/>
</g>
<!-- 13&#45;&gt;17 -->
<g id="edge11" class="edge"><title>13&#45;&gt;17</title>
<path fill="none" stroke="black" d="M845.116,-265C863.964,-265 894.531,-265 916.696,-265"/>
<polygon fill="black" stroke="black" points="916.814,-268.5 926.814,-265 916.814,-261.5 916.814,-268.5"/>
<text text-anchor="middle" x="886" y="-268.8" font-family="Times,serif" font-size="14.00">u0000</text>
</g>
<!-- 21 -->
<g id="node9" class="node"><title>21</title>
<ellipse fill="none" stroke="black" cx="1063" cy="-265" rx="18" ry="18"/>
</g>
<!-- 17&#45;&gt;21 -->
<g id="edge12" class="edge"><title>17&#45;&gt;21</title>
<path fill="none" stroke="black" d="M963.116,-265C981.964,-265 1012.53,-265 1034.7,-265"/>
<polygon fill="black" stroke="black" points="1034.81,-268.5 1044.81,-265 1034.81,-261.5 1034.81,-268.5"/>
<text text-anchor="middle" x="1004" y="-268.8" font-family="Times,serif" font-size="14.00">u0004</text>
</g>
<!-- 11 -->
<g id="node10" class="node"><title>11</title>
<ellipse fill="none" stroke="black" cx="2061" cy="-178" rx="18" ry="18"/>
<ellipse fill="none" stroke="black" cx="2061" cy="-178" rx="22" ry="22"/>
</g>
<!-- 21&#45;&gt;11 -->
<g id="edge13" class="edge"><title>21&#45;&gt;11</title>
<path fill="none" stroke="black" d="M1079.83,-271.581C1101.87,-280.137 1143.26,-294 1180,-294 1180,-294 1180,-294 1487,-294 1571.45,-294 1592.55,-295 1677,-295 1677,-295 1677,-295 1935,-295 1986.71,-295 2025.86,-240.977 2045.65,-206.349"/>
<polygon fill="black" stroke="black" points="2048.72,-208.03 2050.48,-197.583 2042.59,-204.649 2048.72,-208.03"/>
<text text-anchor="middle" x="1550" y="-297.8" font-family="Times,serif" font-size="14.00">u0003</text>
</g>
<!-- 23 -->
<g id="node11" class="node"><title>23</title>
<ellipse fill="none" stroke="black" cx="1181" cy="-247" rx="18" ry="18"/>
</g>
<!-- 21&#45;&gt;23 -->
<g id="edge14" class="edge"><title>21&#45;&gt;23</title>
<path fill="none" stroke="black" d="M1081.12,-262.344C1099.96,-259.419 1130.53,-254.676 1152.7,-251.237"/>
<polygon fill="black" stroke="black" points="1153.47,-254.659 1162.81,-249.667 1152.4,-247.742 1153.47,-254.659"/>
<text text-anchor="middle" x="1122" y="-262.8" font-family="Times,serif" font-size="14.00">u0001</text>
</g>
<!-- 24 -->
<g id="node12" class="node"><title>24</title>
<ellipse fill="none" stroke="black" cx="1304" cy="-247" rx="18" ry="18"/>
</g>
<!-- 23&#45;&gt;24 -->
<g id="edge15" class="edge"><title>23&#45;&gt;24</title>
<path fill="none" stroke="black" d="M1199.08,-247C1218.96,-247 1252.08,-247 1275.58,-247"/>
<polygon fill="black" stroke="black" points="1275.62,-250.5 1285.62,-247 1275.62,-243.5 1275.62,-250.5"/>
<text text-anchor="middle" x="1240" y="-250.8" font-family="Times,serif" font-size="14.00">u0001</text>
</g>
<!-- 25 -->
<g id="node13" class="node"><title>25</title>
<ellipse fill="none" stroke="black" cx="1427" cy="-247" rx="18" ry="18"/>
</g>
<!-- 24&#45;&gt;25 -->
<g id="edge16" class="edge"><title>24&#45;&gt;25</title>
<path fill="none" stroke="black" d="M1322.08,-247C1341.96,-247 1375.08,-247 1398.58,-247"/>
<polygon fill="black" stroke="black" points="1398.62,-250.5 1408.62,-247 1398.62,-243.5 1398.62,-250.5"/>
<text text-anchor="middle" x="1368" y="-250.8" font-family="Times,serif" font-size="14.00">u0001</text>
</g>
<!-- 26 -->
<g id="node14" class="node"><title>26</title>
<ellipse fill="none" stroke="black" cx="1550" cy="-240" rx="18" ry="18"/>
</g>
<!-- 25&#45;&gt;26 -->
<g id="edge17" class="edge"><title>25&#45;&gt;26</title>
<path fill="none" stroke="black" d="M1445.08,-246.012C1465.08,-244.855 1498.45,-242.924 1521.98,-241.563"/>
<polygon fill="black" stroke="black" points="1522.23,-245.055 1532.01,-240.983 1521.82,-238.067 1522.23,-245.055"/>
<text text-anchor="middle" x="1486" y="-247.8" font-family="Times,serif" font-size="14.00">u0001</text>
</g>
<!-- 19 -->
<g id="node15" class="node"><title>19</title>
<ellipse fill="none" stroke="black" cx="1678" cy="-249" rx="18" ry="18"/>
</g>
<!-- 26&#45;&gt;19 -->
<g id="edge18" class="edge"><title>26&#45;&gt;19</title>
<path fill="none" stroke="black" d="M1567.1,-234C1574.31,-231.623 1582.97,-229.179 1591,-228 1611.23,-225.031 1617.15,-223.106 1637,-228 1642.62,-229.385 1648.32,-231.714 1653.59,-234.33"/>
<polygon fill="black" stroke="black" points="1652.04,-237.475 1662.49,-239.203 1655.4,-231.333 1652.04,-237.475"/>
<text text-anchor="middle" x="1614" y="-231.8" font-family="Times,serif" font-size="14.00">u0001</text>
</g>
<!-- 22 -->
<g id="node16" class="node"><title>22</title>
<ellipse fill="none" stroke="black" cx="1806" cy="-249" rx="18" ry="18"/>
</g>
<!-- 19&#45;&gt;22 -->
<g id="edge19" class="edge"><title>19&#45;&gt;22</title>
<path fill="none" stroke="black" d="M1696.26,-249C1717.27,-249 1753.03,-249 1777.77,-249"/>
<polygon fill="black" stroke="black" points="1777.95,-252.5 1787.95,-249 1777.95,-245.5 1777.95,-252.5"/>
<text text-anchor="middle" x="1742" y="-252.8" font-family="Times,serif" font-size="14.00">u0001</text>
</g>
<!-- 18 -->
<g id="node17" class="node"><title>18</title>
<ellipse fill="none" stroke="black" cx="1934" cy="-229" rx="18" ry="18"/>
</g>
<!-- 22&#45;&gt;18 -->
<g id="edge20" class="edge"><title>22&#45;&gt;18</title>
<path fill="none" stroke="black" d="M1823.99,-246.303C1845.03,-242.963 1881.13,-237.233 1905.99,-233.288"/>
<polygon fill="black" stroke="black" points="1906.55,-236.743 1915.87,-231.718 1905.45,-229.829 1906.55,-236.743"/>
<text text-anchor="middle" x="1870" y="-245.8" font-family="Times,serif" font-size="14.00">u0001</text>
</g>
<!-- 18&#45;&gt;11 -->
<g id="edge21" class="edge"><title>18&#45;&gt;11</title>
<path fill="none" stroke="black" d="M1950.83,-222.541C1970.9,-214.354 2005.88,-200.082 2030.83,-189.9"/>
<polygon fill="black" stroke="black" points="2032.25,-193.104 2040.18,-186.086 2029.6,-186.623 2032.25,-193.104"/>
<text text-anchor="middle" x="1998" y="-215.8" font-family="Times,serif" font-size="14.00">u0003</text>
</g>
<!-- 14 -->
<g id="node19" class="node"><title>14</title>
<ellipse fill="none" stroke="black" cx="1806" cy="-187" rx="18" ry="18"/>
</g>
<!-- 9&#45;&gt;14 -->
<g id="edge22" class="edge"><title>9&#45;&gt;14</title>
<path fill="none" stroke="black" d="M845.295,-194C867.962,-194 908.958,-194 944,-194 944,-194 944,-194 1551,-194 1633.5,-194 1731.01,-190.265 1777.57,-188.251"/>
<polygon fill="black" stroke="black" points="1777.92,-191.739 1787.76,-187.803 1777.61,-184.746 1777.92,-191.739"/>
<text text-anchor="middle" x="1304" y="-197.8" font-family="Times,serif" font-size="14.00">u0004</text>
</g>
<!-- 14&#45;&gt;11 -->
<g id="edge23" class="edge"><title>14&#45;&gt;11</title>
<path fill="none" stroke="black" d="M1823.99,-186.396C1865.96,-184.903 1974.98,-181.024 2028.89,-179.107"/>
<polygon fill="black" stroke="black" points="2029.03,-182.604 2038.9,-178.751 2028.78,-175.608 2029.03,-182.604"/>
<text text-anchor="middle" x="1934" y="-186.8" font-family="Times,serif" font-size="14.00">u0003</text>
</g>
<!-- 14&#45;&gt;18 -->
<g id="edge24" class="edge"><title>14&#45;&gt;18</title>
<path fill="none" stroke="black" d="M1823.21,-192.405C1844.36,-199.454 1881.62,-211.874 1906.8,-220.267"/>
<polygon fill="black" stroke="black" points="1905.85,-223.641 1916.45,-223.483 1908.07,-217 1905.85,-223.641"/>
<text text-anchor="middle" x="1870" y="-218.8" font-family="Times,serif" font-size="14.00">u0001</text>
</g>
<!-- 10 -->
<g id="node21" class="node"><title>10</title>
<ellipse fill="none" stroke="black" cx="1427" cy="-345" rx="18" ry="18"/>
</g>
<!-- 6&#45;&gt;10 -->
<g id="edge25" class="edge"><title>6&#45;&gt;10</title>
<path fill="none" stroke="black" d="M656.526,-310.252C679.936,-320.504 725.907,-338 767,-338 767,-338 767,-338 1305,-338 1337.26,-338 1374.28,-340.511 1398.78,-342.525"/>
<polygon fill="black" stroke="black" points="1398.52,-346.015 1408.79,-343.376 1399.12,-339.04 1398.52,-346.015"/>
<text text-anchor="middle" x="1004" y="-341.8" font-family="Times,serif" font-size="14.00">u0004</text>
</g>
<!-- 10&#45;&gt;11 -->
<g id="edge26" class="edge"><title>10&#45;&gt;11</title>
<path fill="none" stroke="black" d="M1442.6,-354.531C1464.68,-368.005 1508.32,-391 1549,-391 1549,-391 1549,-391 1935,-391 1979.9,-391 1994.59,-374.311 2021,-338 2048.66,-299.967 2056.88,-244.755 2059.22,-210.141"/>
<polygon fill="black" stroke="black" points="2062.71,-210.279 2059.77,-200.102 2055.72,-209.894 2062.71,-210.279"/>
<text text-anchor="middle" x="1742" y="-394.8" font-family="Times,serif" font-size="14.00">u0003</text>
</g>
<!-- 15 -->
<g id="node22" class="node"><title>15</title>
<ellipse fill="none" stroke="black" cx="1550" cy="-345" rx="18" ry="18"/>
</g>
<!-- 10&#45;&gt;15 -->
<g id="edge27" class="edge"><title>10&#45;&gt;15</title>
<path fill="none" stroke="black" d="M1445.08,-345C1464.96,-345 1498.08,-345 1521.58,-345"/>
<polygon fill="black" stroke="black" points="1521.62,-348.5 1531.62,-345 1521.62,-341.5 1521.62,-348.5"/>
<text text-anchor="middle" x="1486" y="-348.8" font-family="Times,serif" font-size="14.00">u0001</text>
</g>
<!-- 15&#45;&gt;11 -->
<g id="edge28" class="edge"><title>15&#45;&gt;11</title>
<path fill="none" stroke="black" d="M1568.12,-344.556C1592.35,-343.967 1638.06,-343 1677,-343 1677,-343 1677,-343 1935,-343 1976.1,-343 1993.23,-339.301 2021,-309 2045.85,-281.889 2054.9,-239.597 2058.18,-210.438"/>
<polygon fill="black" stroke="black" points="2061.68,-210.63 2059.15,-200.342 2054.71,-209.964 2061.68,-210.63"/>
<text text-anchor="middle" x="1806" y="-346.8" font-family="Times,serif" font-size="14.00">u0003</text>
</g>
<!-- 15&#45;&gt;19 -->
<g id="edge29" class="edge"><title>15&#45;&gt;19</title>
<path fill="none" stroke="black" d="M1564.67,-334.342C1572.38,-328.343 1582.21,-320.728 1591,-314 1612.52,-297.533 1637.2,-278.904 1654.59,-265.824"/>
<polygon fill="black" stroke="black" points="1657.07,-268.337 1662.96,-259.531 1652.86,-262.742 1657.07,-268.337"/>
<text text-anchor="middle" x="1614" y="-317.8" font-family="Times,serif" font-size="14.00">u0001</text>
</g>
<!-- 7 -->
<g id="node24" class="node"><title>7</title>
<ellipse fill="none" stroke="black" cx="1304" cy="-65" rx="18" ry="18"/>
</g>
<!-- 4&#45;&gt;7 -->
<g id="edge30" class="edge"><title>4&#45;&gt;7</title>
<path fill="none" stroke="black" d="M540.295,-116C562.962,-116 603.958,-116 639,-116 639,-116 639,-116 1182,-116 1218.63,-116 1256.94,-95.9105 1280.4,-80.9488"/>
<polygon fill="black" stroke="black" points="1282.5,-83.754 1288.91,-75.3206 1278.64,-77.914 1282.5,-83.754"/>
<text text-anchor="middle" x="886" y="-119.8" font-family="Times,serif" font-size="14.00">u0004</text>
</g>
<!-- 7&#45;&gt;11 -->
<g id="edge31" class="edge"><title>7&#45;&gt;11</title>
<path fill="none" stroke="black" d="M1317.58,-52.774C1338.34,-33.9451 1381.88,-0 1426,-0 1426,-0 1426,-0 1935,-0 1978.99,-0 1993.57,-14.6077 2021,-49 2043.38,-77.06 2052.94,-117.812 2057.01,-145.969"/>
<polygon fill="black" stroke="black" points="2053.57,-146.622 2058.32,-156.092 2060.51,-145.726 2053.57,-146.622"/>
<text text-anchor="middle" x="1678" y="-3.8" font-family="Times,serif" font-size="14.00">u0003</text>
</g>
<!-- 12 -->
<g id="node25" class="node"><title>12</title>
<ellipse fill="none" stroke="black" cx="1427" cy="-65" rx="18" ry="18"/>
</g>
<!-- 7&#45;&gt;12 -->
<g id="edge32" class="edge"><title>7&#45;&gt;12</title>
<path fill="none" stroke="black" d="M1322.08,-65C1341.96,-65 1375.08,-65 1398.58,-65"/>
<polygon fill="black" stroke="black" points="1398.62,-68.5001 1408.62,-65 1398.62,-61.5001 1398.62,-68.5001"/>
<text text-anchor="middle" x="1368" y="-68.8" font-family="Times,serif" font-size="14.00">u0001</text>
</g>
<!-- 12&#45;&gt;11 -->
<g id="edge33" class="edge"><title>12&#45;&gt;11</title>
<path fill="none" stroke="black" d="M1444.66,-60.0079C1467.83,-53.5169 1511.21,-43 1549,-43 1549,-43 1549,-43 1935,-43 1980.13,-43 1990.92,-63.3509 2021,-97 2034.01,-111.551 2043.61,-131.213 2050.04,-147.521"/>
<polygon fill="black" stroke="black" points="2046.86,-149.016 2053.63,-157.166 2053.42,-146.574 2046.86,-149.016"/>
<text text-anchor="middle" x="1742" y="-46.8" font-family="Times,serif" font-size="14.00">u0003</text>
</g>
<!-- 16 -->
<g id="node26" class="node"><title>16</title>
<ellipse fill="none" stroke="black" cx="1550" cy="-89" rx="18" ry="18"/>
</g>
<!-- 12&#45;&gt;16 -->
<g id="edge34" class="edge"><title>12&#45;&gt;16</title>
<path fill="none" stroke="black" d="M1444.82,-68.3371C1464.76,-72.291 1498.24,-78.9318 1521.86,-83.616"/>
<polygon fill="black" stroke="black" points="1521.44,-87.1013 1531.93,-85.6139 1522.8,-80.2351 1521.44,-87.1013"/>
<text text-anchor="middle" x="1486" y="-84.8" font-family="Times,serif" font-size="14.00">u0001</text>
</g>
<!-- 16&#45;&gt;11 -->
<g id="edge35" class="edge"><title>16&#45;&gt;11</title>
<path fill="none" stroke="black" d="M1568.12,-89C1592.36,-89 1638.06,-89 1677,-89 1677,-89 1677,-89 1935,-89 1979.18,-89 2018.58,-126.352 2040.85,-152.66"/>
<polygon fill="black" stroke="black" points="2038.15,-154.894 2047.2,-160.416 2043.57,-150.461 2038.15,-154.894"/>
<text text-anchor="middle" x="1806" y="-92.8" font-family="Times,serif" font-size="14.00">u0003</text>
</g>
<!-- 20 -->
<g id="node27" class="node"><title>20</title>
<ellipse fill="none" stroke="black" cx="1678" cy="-135" rx="18" ry="18"/>
</g>
<!-- 16&#45;&gt;20 -->
<g id="edge36" class="edge"><title>16&#45;&gt;20</title>
<path fill="none" stroke="black" d="M1567.21,-94.9195C1588.48,-102.683 1626.03,-116.393 1651.22,-125.587"/>
<polygon fill="black" stroke="black" points="1650.25,-128.961 1660.85,-129.103 1652.65,-122.386 1650.25,-128.961"/>
<text text-anchor="middle" x="1614" y="-124.8" font-family="Times,serif" font-size="14.00">u0001</text>
</g>
<!-- 20&#45;&gt;11 -->
<g id="edge37" class="edge"><title>20&#45;&gt;11</title>
<path fill="none" stroke="black" d="M1696.36,-136.959C1755.87,-143.675 1952.15,-165.828 2028.87,-174.487"/>
<polygon fill="black" stroke="black" points="2028.55,-177.973 2038.88,-175.616 2029.33,-171.017 2028.55,-177.973"/>
<text text-anchor="middle" x="1870" y="-162.8" font-family="Times,serif" font-size="14.00">u0003</text>
</g>
<!-- 20&#45;&gt;14 -->
<g id="edge38" class="edge"><title>20&#45;&gt;14</title>
<path fill="none" stroke="black" d="M1695.43,-140.174C1712.93,-145.859 1741.32,-155.577 1765,-166 1770.29,-168.331 1775.86,-171.061 1781.1,-173.768"/>
<polygon fill="black" stroke="black" points="1779.57,-176.922 1790.05,-178.523 1782.86,-170.74 1779.57,-176.922"/>
<text text-anchor="middle" x="1742" y="-169.8" font-family="Times,serif" font-size="14.00">u0001</text>
</g>
<!-- initial -->
<g id="node28" class="node"><title>initial</title>
</g>
<!-- initial&#45;&gt;0 -->
<g id="edge39" class="edge"><title>initial&#45;&gt;0</title>
<path fill="none" stroke="black" d="M54.195,-173C62.6538,-173 72.0513,-173 80.5951,-173"/>
<polygon fill="black" stroke="black" points="80.8257,-176.5 90.8257,-173 80.8257,-169.5 80.8257,-176.5"/>
</g>
</g>
</svg>
