<svg width="1633px" height="285px"
 viewBox="0.00 0.00 1225.00 214.00" xmlns="http://www.w3.org/2000/svg" xmlns:xlink="http://www.w3.org/1999/xlink">
<g id="graph0" class="graph" transform="scale(1.000022500562514 1.000022500562514) rotate(0) translate(4 210)">
<title>Automaton</title>
<polygon fill="white" stroke="none" points="-4,4 -4,-210 1221,-210 1221,4 -4,4"/>
<!-- 0 -->
<g id="node1" class="node"><title>0</title>
<ellipse fill="none" stroke="black" cx="109" cy="-18" rx="18" ry="18"/>
</g>
<!-- 1 -->
<g id="node2" class="node"><title>1</title>
<ellipse fill="none" stroke="black" cx="227" cy="-18" rx="18" ry="18"/>
</g>
<!-- 0&#45;&gt;1 -->
<g id="edge1" class="edge"><title>0&#45;&gt;1</title>
<path fill="none" stroke="black" d="M127.116,-18C145.964,-18 176.531,-18 198.696,-18"/>
<polygon fill="black" stroke="black" points="198.814,-21.5001 208.814,-18 198.814,-14.5001 198.814,-21.5001"/>
<text text-anchor="middle" x="168" y="-21.8" font-family="Times,serif" font-size="14.00">u0004</text>
</g>
<!-- 2 -->
<g id="node3" class="node"><title>2</title>
<ellipse fill="none" stroke="black" cx="345" cy="-18" rx="18" ry="18"/>
</g>
<!-- 1&#45;&gt;2 -->
<g id="edge2" class="edge"><title>1&#45;&gt;2</title>
<path fill="none" stroke="black" d="M245.116,-18C263.964,-18 294.531,-18 316.696,-18"/>
<polygon fill="black" stroke="black" points="316.814,-21.5001 326.814,-18 316.814,-14.5001 316.814,-21.5001"/>
<text text-anchor="middle" x="286" y="-21.8" font-family="Times,serif" font-size="14.00">u0005</text>
</g>
<!-- 3 -->
<g id="node4" class="node"><title>3</title>
<ellipse fill="none" stroke="black" cx="463" cy="-18" rx="18" ry="18"/>
</g>
<!-- 2&#45;&gt;3 -->
<g id="edge3" class="edge"><title>2&#45;&gt;3</title>
<path fill="none" stroke="black" d="M363.116,-18C381.964,-18 412.531,-18 434.696,-18"/>
<polygon fill="black" stroke="black" points="434.814,-21.5001 444.814,-18 434.814,-14.5001 434.814,-21.5001"/>
<text text-anchor="middle" x="404" y="-21.8" font-family="Times,serif" font-size="14.00">u0000</text>
</g>
<!-- 4 -->
<g id="node5" class="node"><title>4</title>
<ellipse fill="none" stroke="black" cx="581" cy="-48" rx="18" ry="18"/>
</g>
<!-- 3&#45;&gt;4 -->
<g id="edge4" class="edge"><title>3&#45;&gt;4</title>
<path fill="none" stroke="black" d="M480.62,-22.2983C499.657,-27.2216 531.103,-35.3543 553.523,-41.1525"/>
<polygon fill="black" stroke="black" points="552.853,-44.5943 563.411,-43.7097 554.606,-37.8173 552.853,-44.5943"/>
<text text-anchor="middle" x="522" y="-41.8" font-family="Times,serif" font-size="14.00">u0002</text>
</g>
<!-- 5 -->
<g id="node9" class="node"><title>5</title>
<ellipse fill="none" stroke="black" cx="1073" cy="-91" rx="18" ry="18"/>
</g>
<!-- 3&#45;&gt;5 -->
<g id="edge5" class="edge"><title>3&#45;&gt;5</title>
<path fill="none" stroke="black" d="M480.805,-14.2082C503.28,-9.47681 544.423,-2 580,-2 580,-2 580,-2 951,-2 995.709,-2 1034.8,-41.9173 1055.75,-68.286"/>
<polygon fill="black" stroke="black" points="1053.04,-70.4976 1061.9,-76.3035 1058.59,-66.2381 1053.04,-70.4976"/>
<text text-anchor="middle" x="758" y="-5.8" font-family="Times,serif" font-size="14.00">u0001</text>
</g>
<!-- 6 -->
<g id="node6" class="node"><title>6</title>
<ellipse fill="none" stroke="black" cx="699" cy="-94" rx="18" ry="18"/>
</g>
<!-- 4&#45;&gt;6 -->
<g id="edge6" class="edge"><title>4&#45;&gt;6</title>
<path fill="none" stroke="black" d="M598.024,-54.4264C603.98,-56.8106 610.797,-59.5341 617,-62 635.441,-69.331 656.265,-77.5563 672.18,-83.8318"/>
<polygon fill="black" stroke="black" points="671.268,-87.2346 681.855,-87.6452 673.835,-80.7222 671.268,-87.2346"/>
<text text-anchor="middle" x="640" y="-82.8" font-family="Times,serif" font-size="14.00">u0002</text>
</g>
<!-- 4&#45;&gt;5 -->
<g id="edge7" class="edge"><title>4&#45;&gt;5</title>
<path fill="none" stroke="black" d="M599.295,-48C621.962,-48 662.958,-48 698,-48 698,-48 698,-48 951,-48 986.466,-48 1024.58,-64.6047 1048.35,-77.1773"/>
<polygon fill="black" stroke="black" points="1046.87,-80.3542 1057.32,-82.0904 1050.23,-74.2154 1046.87,-80.3542"/>
<text text-anchor="middle" x="822" y="-51.8" font-family="Times,serif" font-size="14.00">u0001</text>
</g>
<!-- 8 -->
<g id="node7" class="node"><title>8</title>
<ellipse fill="none" stroke="black" cx="822" cy="-137" rx="18" ry="18"/>
</g>
<!-- 6&#45;&gt;8 -->
<g id="edge8" class="edge"><title>6&#45;&gt;8</title>
<path fill="none" stroke="black" d="M716.319,-99.7992C736.526,-106.98 771.191,-119.299 795.059,-127.781"/>
<polygon fill="black" stroke="black" points="793.959,-131.105 804.554,-131.155 796.303,-124.509 793.959,-131.105"/>
<text text-anchor="middle" x="758" y="-124.8" font-family="Times,serif" font-size="14.00">u0002</text>
</g>
<!-- 6&#45;&gt;5 -->
<g id="edge9" class="edge"><title>6&#45;&gt;5</title>
<path fill="none" stroke="black" d="M717.443,-93.8593C776.878,-93.38 971.8,-91.8081 1044.41,-91.2225"/>
<polygon fill="black" stroke="black" points="1044.62,-94.721 1054.59,-91.1404 1044.57,-87.7212 1044.62,-94.721"/>
<text text-anchor="middle" x="886" y="-95.8" font-family="Times,serif" font-size="14.00">u0001</text>
</g>
<!-- 9 -->
<g id="node8" class="node"><title>9</title>
<ellipse fill="none" stroke="black" cx="950" cy="-188" rx="18" ry="18"/>
</g>
<!-- 8&#45;&gt;9 -->
<g id="edge10" class="edge"><title>8&#45;&gt;9</title>
<path fill="none" stroke="black" d="M838.958,-143.459C860.354,-152.12 898.57,-167.588 923.855,-177.822"/>
<polygon fill="black" stroke="black" points="922.589,-181.086 933.172,-181.593 925.215,-174.597 922.589,-181.086"/>
<text text-anchor="middle" x="886" y="-174.8" font-family="Times,serif" font-size="14.00">u0002</text>
</g>
<!-- 8&#45;&gt;5 -->
<g id="edge11" class="edge"><title>8&#45;&gt;5</title>
<path fill="none" stroke="black" d="M840.199,-135.789C876.9,-132.91 965.387,-124.394 1037,-105 1040.22,-104.128 1043.55,-103.047 1046.81,-101.876"/>
<polygon fill="black" stroke="black" points="1048.19,-105.097 1056.24,-98.2091 1045.65,-98.5733 1048.19,-105.097"/>
<text text-anchor="middle" x="950" y="-129.8" font-family="Times,serif" font-size="14.00">u0001</text>
</g>
<!-- 9&#45;&gt;5 -->
<g id="edge12" class="edge"><title>9&#45;&gt;5</title>
<path fill="none" stroke="black" d="M967.923,-184.127C986.633,-179.131 1016.8,-168.882 1037,-151 1047.44,-141.759 1055.59,-128.625 1061.39,-117.001"/>
<polygon fill="black" stroke="black" points="1064.67,-118.254 1065.7,-107.71 1058.32,-115.305 1064.67,-118.254"/>
<text text-anchor="middle" x="1014" y="-179.8" font-family="Times,serif" font-size="14.00">u0001</text>
</g>
<!-- 7 -->
<g id="node10" class="node"><title>7</title>
<ellipse fill="none" stroke="black" cx="1195" cy="-91" rx="18" ry="18"/>
<ellipse fill="none" stroke="black" cx="1195" cy="-91" rx="22" ry="22"/>
</g>
<!-- 5&#45;&gt;7 -->
<g id="edge13" class="edge"><title>5&#45;&gt;7</title>
<path fill="none" stroke="black" d="M1091.19,-91C1109.77,-91 1139.76,-91 1162.57,-91"/>
<polygon fill="black" stroke="black" points="1162.79,-94.5001 1172.79,-91 1162.79,-87.5001 1162.79,-94.5001"/>
<text text-anchor="middle" x="1132" y="-94.8" font-family="Times,serif" font-size="14.00">u0003</text>
</g>
<!-- initial -->
<g id="node11" class="node"><title>initial</title>
</g>
<!-- initial&#45;&gt;0 -->
<g id="edge14" class="edge"><title>initial&#45;&gt;0</title>
<path fill="none" stroke="black" d="M54.195,-18C62.6538,-18 72.0513,-18 80.5951,-18"/>
<polygon fill="black" stroke="black" points="80.8257,-21.5001 90.8257,-18 80.8257,-14.5001 80.8257,-21.5001"/>
</g>
</g>
</svg>
