<svg width="1476px" height="285px"
 viewBox="0.00 0.00 1107.00 214.00" xmlns="http://www.w3.org/2000/svg" xmlns:xlink="http://www.w3.org/1999/xlink">
<g id="graph0" class="graph" transform="scale(1.000022500562514 1.000022500562514) rotate(0) translate(4 210)">
<title>Automaton</title>
<polygon fill="white" stroke="none" points="-4,4 -4,-210 1103,-210 1103,4 -4,4"/>
<!-- 0 -->
<g id="node1" class="node"><title>0</title>
<ellipse fill="none" stroke="black" cx="109" cy="-18" rx="18" ry="18"/>
</g>
<!-- 1 -->
<g id="node2" class="node"><title>1</title>
<ellipse fill="none" stroke="black" cx="227" cy="-18" rx="18" ry="18"/>
</g>
<!-- 0&#45;&gt;1 -->
<g id="edge1" class="edge"><title>0&#45;&gt;1</title>
<path fill="none" stroke="black" d="M127.116,-18C145.964,-18 176.531,-18 198.696,-18"/>
<polygon fill="black" stroke="black" points="198.814,-21.5001 208.814,-18 198.814,-14.5001 198.814,-21.5001"/>
<text text-anchor="middle" x="168" y="-21.8" font-family="Times,serif" font-size="14.00">u0000</text>
</g>
<!-- 2 -->
<g id="node3" class="node"><title>2</title>
<ellipse fill="none" stroke="black" cx="345" cy="-18" rx="18" ry="18"/>
</g>
<!-- 1&#45;&gt;2 -->
<g id="edge2" class="edge"><title>1&#45;&gt;2</title>
<path fill="none" stroke="black" d="M245.116,-18C263.964,-18 294.531,-18 316.696,-18"/>
<polygon fill="black" stroke="black" points="316.814,-21.5001 326.814,-18 316.814,-14.5001 316.814,-21.5001"/>
<text text-anchor="middle" x="286" y="-21.8" font-family="Times,serif" font-size="14.00">u0002</text>
</g>
<!-- 3 -->
<g id="node4" class="node"><title>3</title>
<ellipse fill="none" stroke="black" cx="463" cy="-18" rx="18" ry="18"/>
</g>
<!-- 2&#45;&gt;3 -->
<g id="edge3" class="edge"><title>2&#45;&gt;3</title>
<path fill="none" stroke="black" d="M363.116,-18C381.964,-18 412.531,-18 434.696,-18"/>
<polygon fill="black" stroke="black" points="434.814,-21.5001 444.814,-18 434.814,-14.5001 434.814,-21.5001"/>
<text text-anchor="middle" x="404" y="-21.8" font-family="Times,serif" font-size="14.00">u0001</text>
</g>
<!-- 4 -->
<g id="node5" class="node"><title>4</title>
<ellipse fill="none" stroke="black" cx="581" cy="-48" rx="18" ry="18"/>
</g>
<!-- 3&#45;&gt;4 -->
<g id="edge4" class="edge"><title>3&#45;&gt;4</title>
<path fill="none" stroke="black" d="M480.62,-22.2983C499.657,-27.2216 531.103,-35.3543 553.523,-41.1525"/>
<polygon fill="black" stroke="black" points="552.853,-44.5943 563.411,-43.7097 554.606,-37.8173 552.853,-44.5943"/>
<text text-anchor="middle" x="522" y="-41.8" font-family="Times,serif" font-size="14.00">u0004</text>
</g>
<!-- 5 -->
<g id="node9" class="node"><title>5</title>
<ellipse fill="none" stroke="black" cx="1077" cy="-91" rx="18" ry="18"/>
<ellipse fill="none" stroke="black" cx="1077" cy="-91" rx="22" ry="22"/>
</g>
<!-- 3&#45;&gt;5 -->
<g id="edge5" class="edge"><title>3&#45;&gt;5</title>
<path fill="none" stroke="black" d="M480.805,-14.2082C503.28,-9.47681 544.423,-2 580,-2 580,-2 580,-2 951,-2 995.181,-2 1034.58,-39.3515 1056.85,-65.6599"/>
<polygon fill="black" stroke="black" points="1054.15,-67.8943 1063.2,-73.4165 1059.57,-63.461 1054.15,-67.8943"/>
<text text-anchor="middle" x="758" y="-5.8" font-family="Times,serif" font-size="14.00">u0003</text>
</g>
<!-- 6 -->
<g id="node6" class="node"><title>6</title>
<ellipse fill="none" stroke="black" cx="699" cy="-94" rx="18" ry="18"/>
</g>
<!-- 4&#45;&gt;6 -->
<g id="edge6" class="edge"><title>4&#45;&gt;6</title>
<path fill="none" stroke="black" d="M598.024,-54.4264C603.98,-56.8106 610.797,-59.5341 617,-62 635.441,-69.331 656.265,-77.5563 672.18,-83.8318"/>
<polygon fill="black" stroke="black" points="671.268,-87.2346 681.855,-87.6452 673.835,-80.7222 671.268,-87.2346"/>
<text text-anchor="middle" x="640" y="-82.8" font-family="Times,serif" font-size="14.00">u0004</text>
</g>
<!-- 4&#45;&gt;5 -->
<g id="edge7" class="edge"><title>4&#45;&gt;5</title>
<path fill="none" stroke="black" d="M599.295,-48C621.962,-48 662.958,-48 698,-48 698,-48 698,-48 951,-48 986.05,-48 1023.77,-63.3044 1048.5,-75.6524"/>
<polygon fill="black" stroke="black" points="1047.13,-78.8863 1057.62,-80.3708 1050.35,-72.6684 1047.13,-78.8863"/>
<text text-anchor="middle" x="822" y="-51.8" font-family="Times,serif" font-size="14.00">u0003</text>
</g>
<!-- 7 -->
<g id="node7" class="node"><title>7</title>
<ellipse fill="none" stroke="black" cx="822" cy="-137" rx="18" ry="18"/>
</g>
<!-- 6&#45;&gt;7 -->
<g id="edge8" class="edge"><title>6&#45;&gt;7</title>
<path fill="none" stroke="black" d="M716.319,-99.7992C736.526,-106.98 771.191,-119.299 795.059,-127.781"/>
<polygon fill="black" stroke="black" points="793.959,-131.105 804.554,-131.155 796.303,-124.509 793.959,-131.105"/>
<text text-anchor="middle" x="758" y="-124.8" font-family="Times,serif" font-size="14.00">u0004</text>
</g>
<!-- 6&#45;&gt;5 -->
<g id="edge9" class="edge"><title>6&#45;&gt;5</title>
<path fill="none" stroke="black" d="M717.133,-93.8633C775.602,-93.3968 967.869,-91.8627 1044.28,-91.2531"/>
<polygon fill="black" stroke="black" points="1044.71,-94.7498 1054.68,-91.1701 1044.66,-87.7501 1044.71,-94.7498"/>
<text text-anchor="middle" x="886" y="-95.8" font-family="Times,serif" font-size="14.00">u0003</text>
</g>
<!-- 8 -->
<g id="node8" class="node"><title>8</title>
<ellipse fill="none" stroke="black" cx="950" cy="-188" rx="18" ry="18"/>
</g>
<!-- 7&#45;&gt;8 -->
<g id="edge10" class="edge"><title>7&#45;&gt;8</title>
<path fill="none" stroke="black" d="M838.958,-143.459C860.354,-152.12 898.57,-167.588 923.855,-177.822"/>
<polygon fill="black" stroke="black" points="922.589,-181.086 933.172,-181.593 925.215,-174.597 922.589,-181.086"/>
<text text-anchor="middle" x="886" y="-174.8" font-family="Times,serif" font-size="14.00">u0004</text>
</g>
<!-- 7&#45;&gt;5 -->
<g id="edge11" class="edge"><title>7&#45;&gt;5</title>
<path fill="none" stroke="black" d="M840.146,-135.587C876.747,-132.321 965.051,-123.107 1037,-105 1040.21,-104.192 1043.52,-103.223 1046.8,-102.176"/>
<polygon fill="black" stroke="black" points="1048.07,-105.442 1056.39,-98.8866 1045.8,-98.8208 1048.07,-105.442"/>
<text text-anchor="middle" x="950" y="-128.8" font-family="Times,serif" font-size="14.00">u0003</text>
</g>
<!-- 8&#45;&gt;5 -->
<g id="edge12" class="edge"><title>8&#45;&gt;5</title>
<path fill="none" stroke="black" d="M967.765,-183.944C986.334,-178.784 1016.37,-168.389 1037,-151 1047.17,-142.43 1055.65,-130.538 1062.08,-119.6"/>
<polygon fill="black" stroke="black" points="1065.21,-121.174 1066.99,-110.73 1059.08,-117.784 1065.21,-121.174"/>
<text text-anchor="middle" x="1014" y="-178.8" font-family="Times,serif" font-size="14.00">u0003</text>
</g>
<!-- initial -->
<g id="node10" class="node"><title>initial</title>
</g>
<!-- initial&#45;&gt;0 -->
<g id="edge13" class="edge"><title>initial&#45;&gt;0</title>
<path fill="none" stroke="black" d="M54.195,-18C62.6538,-18 72.0513,-18 80.5951,-18"/>
<polygon fill="black" stroke="black" points="80.8257,-21.5001 90.8257,-18 80.8257,-14.5001 80.8257,-21.5001"/>
</g>
</g>
</svg>
