<svg width="3565px" height="419px"
 viewBox="0.00 0.00 2674.00 314.00" xmlns="http://www.w3.org/2000/svg" xmlns:xlink="http://www.w3.org/1999/xlink">
<g id="graph0" class="graph" transform="scale(1.000022500562514 1.000022500562514) rotate(0) translate(4 310)">
<title>Automaton</title>
<polygon fill="white" stroke="none" points="-4,4 -4,-310 2670,-310 2670,4 -4,4"/>
<!-- 0 -->
<g id="node1" class="node"><title>0</title>
<ellipse fill="none" stroke="black" cx="109" cy="-161" rx="18" ry="18"/>
</g>
<!-- 1 -->
<g id="node2" class="node"><title>1</title>
<ellipse fill="none" stroke="black" cx="227" cy="-161" rx="18" ry="18"/>
</g>
<!-- 0&#45;&gt;1 -->
<g id="edge1" class="edge"><title>0&#45;&gt;1</title>
<path fill="none" stroke="black" d="M127.116,-161C145.964,-161 176.531,-161 198.696,-161"/>
<polygon fill="black" stroke="black" points="198.814,-164.5 208.814,-161 198.814,-157.5 198.814,-164.5"/>
<text text-anchor="middle" x="168" y="-164.8" font-family="Times,serif" font-size="14.00">u0005</text>
</g>
<!-- 2 -->
<g id="node3" class="node"><title>2</title>
<ellipse fill="none" stroke="black" cx="344" cy="-161" rx="18" ry="18"/>
</g>
<!-- 1&#45;&gt;2 -->
<g id="edge2" class="edge"><title>1&#45;&gt;2</title>
<path fill="none" stroke="black" d="M245.466,-161C264.064,-161 293.756,-161 315.499,-161"/>
<polygon fill="black" stroke="black" points="315.746,-164.5 325.746,-161 315.746,-157.5 315.746,-164.5"/>
<text text-anchor="middle" x="285.5" y="-164.8" font-family="Times,serif" font-size="14.00">u000c</text>
</g>
<!-- 3 -->
<g id="node4" class="node"><title>3</title>
<ellipse fill="none" stroke="black" cx="462" cy="-161" rx="18" ry="18"/>
</g>
<!-- 2&#45;&gt;3 -->
<g id="edge3" class="edge"><title>2&#45;&gt;3</title>
<path fill="none" stroke="black" d="M362.116,-161C380.964,-161 411.531,-161 433.696,-161"/>
<polygon fill="black" stroke="black" points="433.814,-164.5 443.814,-161 433.814,-157.5 433.814,-164.5"/>
<text text-anchor="middle" x="403" y="-164.8" font-family="Times,serif" font-size="14.00">u0001</text>
</g>
<!-- 4 -->
<g id="node5" class="node"><title>4</title>
<ellipse fill="none" stroke="black" cx="580" cy="-161" rx="18" ry="18"/>
</g>
<!-- 3&#45;&gt;4 -->
<g id="edge4" class="edge"><title>3&#45;&gt;4</title>
<path fill="none" stroke="black" d="M480.116,-161C498.964,-161 529.531,-161 551.696,-161"/>
<polygon fill="black" stroke="black" points="551.814,-164.5 561.814,-161 551.814,-157.5 551.814,-164.5"/>
<text text-anchor="middle" x="521" y="-164.8" font-family="Times,serif" font-size="14.00">u0008</text>
</g>
<!-- 5 -->
<g id="node6" class="node"><title>5</title>
<ellipse fill="none" stroke="black" cx="698" cy="-161" rx="18" ry="18"/>
</g>
<!-- 4&#45;&gt;5 -->
<g id="edge5" class="edge"><title>4&#45;&gt;5</title>
<path fill="none" stroke="black" d="M598.116,-161C616.964,-161 647.531,-161 669.696,-161"/>
<polygon fill="black" stroke="black" points="669.814,-164.5 679.814,-161 669.814,-157.5 669.814,-164.5"/>
<text text-anchor="middle" x="639" y="-164.8" font-family="Times,serif" font-size="14.00">u0009</text>
</g>
<!-- 6 -->
<g id="node7" class="node"><title>6</title>
<ellipse fill="none" stroke="black" cx="816" cy="-234" rx="18" ry="18"/>
</g>
<!-- 5&#45;&gt;6 -->
<g id="edge6" class="edge"><title>5&#45;&gt;6</title>
<path fill="none" stroke="black" d="M713.691,-170.246C733.39,-182.642 768.572,-204.783 791.851,-219.432"/>
<polygon fill="black" stroke="black" points="790.1,-222.466 800.428,-224.83 793.828,-216.541 790.1,-222.466"/>
<text text-anchor="middle" x="757" y="-213.8" font-family="Times,serif" font-size="14.00">u0003</text>
</g>
<!-- 7 -->
<g id="node23" class="node"><title>7</title>
<ellipse fill="none" stroke="black" cx="1310" cy="-161" rx="18" ry="18"/>
</g>
<!-- 5&#45;&gt;7 -->
<g id="edge7" class="edge"><title>5&#45;&gt;7</title>
<path fill="none" stroke="black" d="M716.295,-161C738.962,-161 779.958,-161 815,-161 815,-161 815,-161 1186,-161 1218.92,-161 1256.81,-161 1281.73,-161"/>
<polygon fill="black" stroke="black" points="1281.89,-164.5 1291.89,-161 1281.89,-157.5 1281.89,-164.5"/>
<text text-anchor="middle" x="993" y="-164.8" font-family="Times,serif" font-size="14.00">u0002</text>
</g>
<!-- 8 -->
<g id="node40" class="node"><title>8</title>
<ellipse fill="none" stroke="black" cx="816" cy="-72" rx="18" ry="18"/>
</g>
<!-- 5&#45;&gt;8 -->
<g id="edge8" class="edge"><title>5&#45;&gt;8</title>
<path fill="none" stroke="black" d="M712.157,-149.812C718.662,-144.354 726.671,-137.744 734,-132 753.409,-116.789 775.991,-100.145 792.374,-88.2544"/>
<polygon fill="black" stroke="black" points="794.726,-90.8728 800.778,-82.1766 790.624,-85.2007 794.726,-90.8728"/>
<text text-anchor="middle" x="757" y="-135.8" font-family="Times,serif" font-size="14.00">u0000</text>
</g>
<!-- 9 -->
<g id="node8" class="node"><title>9</title>
<ellipse fill="none" stroke="black" cx="934" cy="-234" rx="18" ry="18"/>
</g>
<!-- 6&#45;&gt;9 -->
<g id="edge9" class="edge"><title>6&#45;&gt;9</title>
<path fill="none" stroke="black" d="M834.116,-234C852.964,-234 883.531,-234 905.696,-234"/>
<polygon fill="black" stroke="black" points="905.814,-237.5 915.814,-234 905.814,-230.5 905.814,-237.5"/>
<text text-anchor="middle" x="875" y="-237.8" font-family="Times,serif" font-size="14.00">u0003</text>
</g>
<!-- 10 -->
<g id="node18" class="node"><title>10</title>
<ellipse fill="none" stroke="black" cx="993" cy="-286" rx="18" ry="18"/>
</g>
<!-- 6&#45;&gt;10 -->
<g id="edge10" class="edge"><title>6&#45;&gt;10</title>
<path fill="none" stroke="black" d="M831.573,-243.04C837.704,-246.541 845.023,-250.339 852,-253 889.86,-267.442 935.974,-276.834 964.666,-281.776"/>
<polygon fill="black" stroke="black" points="964.318,-285.266 974.756,-283.453 965.465,-278.361 964.318,-285.266"/>
<text text-anchor="middle" x="875" y="-270.8" font-family="Times,serif" font-size="14.00">u0000</text>
</g>
<!-- 15 -->
<g id="node9" class="node"><title>15</title>
<ellipse fill="none" stroke="black" cx="1057" cy="-234" rx="18" ry="18"/>
</g>
<!-- 9&#45;&gt;15 -->
<g id="edge11" class="edge"><title>9&#45;&gt;15</title>
<path fill="none" stroke="black" d="M952.08,-234C971.965,-234 1005.08,-234 1028.58,-234"/>
<polygon fill="black" stroke="black" points="1028.62,-237.5 1038.62,-234 1028.62,-230.5 1028.62,-237.5"/>
<text text-anchor="middle" x="993" y="-237.8" font-family="Times,serif" font-size="14.00">u000d</text>
</g>
<!-- 21 -->
<g id="node10" class="node"><title>21</title>
<ellipse fill="none" stroke="black" cx="1185" cy="-234" rx="18" ry="18"/>
</g>
<!-- 15&#45;&gt;21 -->
<g id="edge12" class="edge"><title>15&#45;&gt;21</title>
<path fill="none" stroke="black" d="M1075.26,-234C1096.27,-234 1132.03,-234 1156.77,-234"/>
<polygon fill="black" stroke="black" points="1156.95,-237.5 1166.95,-234 1156.95,-230.5 1156.95,-237.5"/>
<text text-anchor="middle" x="1121" y="-237.8" font-family="Times,serif" font-size="14.00">u0011</text>
</g>
<!-- 27 -->
<g id="node11" class="node"><title>27</title>
<ellipse fill="none" stroke="black" cx="1310" cy="-234" rx="18" ry="18"/>
</g>
<!-- 21&#45;&gt;27 -->
<g id="edge13" class="edge"><title>21&#45;&gt;27</title>
<path fill="none" stroke="black" d="M1203.1,-234C1223.37,-234 1257.4,-234 1281.41,-234"/>
<polygon fill="black" stroke="black" points="1281.65,-237.5 1291.65,-234 1281.65,-230.5 1281.65,-237.5"/>
<text text-anchor="middle" x="1248.5" y="-237.8" font-family="Times,serif" font-size="14.00">u000f</text>
</g>
<!-- 33 -->
<g id="node12" class="node"><title>33</title>
<ellipse fill="none" stroke="black" cx="1436" cy="-234" rx="18" ry="18"/>
</g>
<!-- 27&#45;&gt;33 -->
<g id="edge14" class="edge"><title>27&#45;&gt;33</title>
<path fill="none" stroke="black" d="M1328.24,-234C1348.79,-234 1383.37,-234 1407.59,-234"/>
<polygon fill="black" stroke="black" points="1407.9,-237.5 1417.9,-234 1407.9,-230.5 1407.9,-237.5"/>
<text text-anchor="middle" x="1372" y="-237.8" font-family="Times,serif" font-size="14.00">u000e</text>
</g>
<!-- 39 -->
<g id="node13" class="node"><title>39</title>
<ellipse fill="none" stroke="black" cx="1559" cy="-234" rx="18" ry="18"/>
</g>
<!-- 33&#45;&gt;39 -->
<g id="edge15" class="edge"><title>33&#45;&gt;39</title>
<path fill="none" stroke="black" d="M1454.08,-234C1473.96,-234 1507.08,-234 1530.58,-234"/>
<polygon fill="black" stroke="black" points="1530.62,-237.5 1540.62,-234 1530.62,-230.5 1530.62,-237.5"/>
<text text-anchor="middle" x="1500" y="-237.8" font-family="Times,serif" font-size="14.00">u0006</text>
</g>
<!-- 45 -->
<g id="node14" class="node"><title>45</title>
<ellipse fill="none" stroke="black" cx="1677" cy="-234" rx="18" ry="18"/>
</g>
<!-- 39&#45;&gt;45 -->
<g id="edge16" class="edge"><title>39&#45;&gt;45</title>
<path fill="none" stroke="black" d="M1577.12,-234C1595.96,-234 1626.53,-234 1648.7,-234"/>
<polygon fill="black" stroke="black" points="1648.81,-237.5 1658.81,-234 1648.81,-230.5 1648.81,-237.5"/>
<text text-anchor="middle" x="1618" y="-237.8" font-family="Times,serif" font-size="14.00">u0004</text>
</g>
<!-- 40 -->
<g id="node15" class="node"><title>40</title>
<ellipse fill="none" stroke="black" cx="1795" cy="-234" rx="18" ry="18"/>
</g>
<!-- 45&#45;&gt;40 -->
<g id="edge17" class="edge"><title>45&#45;&gt;40</title>
<path fill="none" stroke="black" d="M1695.12,-234C1713.96,-234 1744.53,-234 1766.7,-234"/>
<polygon fill="black" stroke="black" points="1766.81,-237.5 1776.81,-234 1766.81,-230.5 1766.81,-237.5"/>
<text text-anchor="middle" x="1736" y="-237.8" font-family="Times,serif" font-size="14.00">u0010</text>
</g>
<!-- 46 -->
<g id="node16" class="node"><title>46</title>
<ellipse fill="none" stroke="black" cx="2522" cy="-153" rx="18" ry="18"/>
</g>
<!-- 40&#45;&gt;46 -->
<g id="edge18" class="edge"><title>40&#45;&gt;46</title>
<path fill="none" stroke="black" d="M1813.27,-232.063C1835.91,-229.696 1876.88,-226 1912,-226 1912,-226 1912,-226 2401,-226 2441.79,-226 2480.51,-194.831 2502.45,-173.227"/>
<polygon fill="black" stroke="black" points="2504.98,-175.642 2509.48,-166.051 2499.98,-170.741 2504.98,-175.642"/>
<text text-anchor="middle" x="2154" y="-229.8" font-family="Times,serif" font-size="14.00">u0004</text>
</g>
<!-- 51 -->
<g id="node17" class="node"><title>51</title>
<ellipse fill="none" stroke="black" cx="2644" cy="-153" rx="18" ry="18"/>
<ellipse fill="none" stroke="black" cx="2644" cy="-153" rx="22" ry="22"/>
</g>
<!-- 46&#45;&gt;51 -->
<g id="edge19" class="edge"><title>46&#45;&gt;51</title>
<path fill="none" stroke="black" d="M2540.19,-153C2558.77,-153 2588.76,-153 2611.57,-153"/>
<polygon fill="black" stroke="black" points="2611.79,-156.5 2621.79,-153 2611.79,-149.5 2611.79,-156.5"/>
<text text-anchor="middle" x="2581" y="-156.8" font-family="Times,serif" font-size="14.00">u000b</text>
</g>
<!-- 16 -->
<g id="node19" class="node"><title>16</title>
<ellipse fill="none" stroke="black" cx="1121" cy="-288" rx="18" ry="18"/>
</g>
<!-- 10&#45;&gt;16 -->
<g id="edge20" class="edge"><title>10&#45;&gt;16</title>
<path fill="none" stroke="black" d="M1011.26,-286.274C1032.27,-286.608 1068.03,-287.175 1092.77,-287.568"/>
<polygon fill="black" stroke="black" points="1092.9,-291.07 1102.95,-287.729 1093.01,-284.071 1092.9,-291.07"/>
<text text-anchor="middle" x="1057" y="-290.8" font-family="Times,serif" font-size="14.00">u000d</text>
</g>
<!-- 22 -->
<g id="node20" class="node"><title>22</title>
<ellipse fill="none" stroke="black" cx="1248.5" cy="-288" rx="18" ry="18"/>
</g>
<!-- 16&#45;&gt;22 -->
<g id="edge21" class="edge"><title>16&#45;&gt;22</title>
<path fill="none" stroke="black" d="M1139.19,-288C1160.01,-288 1195.34,-288 1219.97,-288"/>
<polygon fill="black" stroke="black" points="1220.12,-291.5 1230.12,-288 1220.12,-284.5 1220.12,-291.5"/>
<text text-anchor="middle" x="1185" y="-291.8" font-family="Times,serif" font-size="14.00">u0011</text>
</g>
<!-- 28 -->
<g id="node21" class="node"><title>28</title>
<ellipse fill="none" stroke="black" cx="1372" cy="-288" rx="18" ry="18"/>
</g>
<!-- 22&#45;&gt;28 -->
<g id="edge22" class="edge"><title>22&#45;&gt;28</title>
<path fill="none" stroke="black" d="M1266.65,-288C1286.73,-288 1320.25,-288 1343.86,-288"/>
<polygon fill="black" stroke="black" points="1343.94,-291.5 1353.94,-288 1343.94,-284.5 1343.94,-291.5"/>
<text text-anchor="middle" x="1310" y="-291.8" font-family="Times,serif" font-size="14.00">u000f</text>
</g>
<!-- 34 -->
<g id="node22" class="node"><title>34</title>
<ellipse fill="none" stroke="black" cx="1500" cy="-284" rx="18" ry="18"/>
</g>
<!-- 28&#45;&gt;34 -->
<g id="edge23" class="edge"><title>28&#45;&gt;34</title>
<path fill="none" stroke="black" d="M1389.99,-287.461C1410.94,-286.796 1446.81,-285.657 1471.65,-284.868"/>
<polygon fill="black" stroke="black" points="1471.99,-288.359 1481.87,-284.544 1471.77,-281.363 1471.99,-288.359"/>
<text text-anchor="middle" x="1436" y="-289.8" font-family="Times,serif" font-size="14.00">u0010</text>
</g>
<!-- 34&#45;&gt;40 -->
<g id="edge24" class="edge"><title>34&#45;&gt;40</title>
<path fill="none" stroke="black" d="M1518.07,-284.166C1560.12,-284.106 1671.59,-281.081 1759,-253 1762.89,-251.751 1766.84,-250.067 1770.63,-248.215"/>
<polygon fill="black" stroke="black" points="1772.41,-251.234 1779.56,-243.418 1769.09,-245.068 1772.41,-251.234"/>
<text text-anchor="middle" x="1618" y="-284.8" font-family="Times,serif" font-size="14.00">u0004</text>
</g>
<!-- 11 -->
<g id="node24" class="node"><title>11</title>
<ellipse fill="none" stroke="black" cx="1436" cy="-126" rx="18" ry="18"/>
</g>
<!-- 7&#45;&gt;11 -->
<g id="edge25" class="edge"><title>7&#45;&gt;11</title>
<path fill="none" stroke="black" d="M1327.18,-155.148C1333.89,-152.804 1341.78,-150.154 1349,-148 1368.81,-142.087 1391.48,-136.33 1408.56,-132.189"/>
<polygon fill="black" stroke="black" points="1409.5,-135.564 1418.41,-129.832 1407.87,-128.757 1409.5,-135.564"/>
<text text-anchor="middle" x="1372" y="-151.8" font-family="Times,serif" font-size="14.00">u000d</text>
</g>
<!-- 12 -->
<g id="node33" class="node"><title>12</title>
<ellipse fill="none" stroke="black" cx="1436" cy="-180" rx="18" ry="18"/>
</g>
<!-- 7&#45;&gt;12 -->
<g id="edge26" class="edge"><title>7&#45;&gt;12</title>
<path fill="none" stroke="black" d="M1327.98,-163.602C1348.55,-166.754 1383.46,-172.103 1407.8,-175.832"/>
<polygon fill="black" stroke="black" points="1407.41,-179.313 1417.83,-177.368 1408.47,-172.394 1407.41,-179.313"/>
<text text-anchor="middle" x="1372" y="-176.8" font-family="Times,serif" font-size="14.00">u0000</text>
</g>
<!-- 17 -->
<g id="node25" class="node"><title>17</title>
<ellipse fill="none" stroke="black" cx="1559" cy="-126" rx="18" ry="18"/>
</g>
<!-- 11&#45;&gt;17 -->
<g id="edge27" class="edge"><title>11&#45;&gt;17</title>
<path fill="none" stroke="black" d="M1454.08,-126C1473.96,-126 1507.08,-126 1530.58,-126"/>
<polygon fill="black" stroke="black" points="1530.62,-129.5 1540.62,-126 1530.62,-122.5 1530.62,-129.5"/>
<text text-anchor="middle" x="1500" y="-129.8" font-family="Times,serif" font-size="14.00">u0011</text>
</g>
<!-- 23 -->
<g id="node26" class="node"><title>23</title>
<ellipse fill="none" stroke="black" cx="1677" cy="-126" rx="18" ry="18"/>
</g>
<!-- 17&#45;&gt;23 -->
<g id="edge28" class="edge"><title>17&#45;&gt;23</title>
<path fill="none" stroke="black" d="M1577.12,-126C1595.96,-126 1626.53,-126 1648.7,-126"/>
<polygon fill="black" stroke="black" points="1648.81,-129.5 1658.81,-126 1648.81,-122.5 1648.81,-129.5"/>
<text text-anchor="middle" x="1618" y="-129.8" font-family="Times,serif" font-size="14.00">u000f</text>
</g>
<!-- 29 -->
<g id="node27" class="node"><title>29</title>
<ellipse fill="none" stroke="black" cx="1795" cy="-126" rx="18" ry="18"/>
</g>
<!-- 23&#45;&gt;29 -->
<g id="edge29" class="edge"><title>23&#45;&gt;29</title>
<path fill="none" stroke="black" d="M1695.12,-126C1713.96,-126 1744.53,-126 1766.7,-126"/>
<polygon fill="black" stroke="black" points="1766.81,-129.5 1776.81,-126 1766.81,-122.5 1766.81,-129.5"/>
<text text-anchor="middle" x="1736" y="-129.8" font-family="Times,serif" font-size="14.00">u0004</text>
</g>
<!-- 35 -->
<g id="node28" class="node"><title>35</title>
<ellipse fill="none" stroke="black" cx="1913" cy="-126" rx="18" ry="18"/>
</g>
<!-- 29&#45;&gt;35 -->
<g id="edge30" class="edge"><title>29&#45;&gt;35</title>
<path fill="none" stroke="black" d="M1813.12,-126C1831.96,-126 1862.53,-126 1884.7,-126"/>
<polygon fill="black" stroke="black" points="1884.81,-129.5 1894.81,-126 1884.81,-122.5 1884.81,-129.5"/>
<text text-anchor="middle" x="1854" y="-129.8" font-family="Times,serif" font-size="14.00">u000e</text>
</g>
<!-- 41 -->
<g id="node29" class="node"><title>41</title>
<ellipse fill="none" stroke="black" cx="2031" cy="-126" rx="18" ry="18"/>
</g>
<!-- 35&#45;&gt;41 -->
<g id="edge31" class="edge"><title>35&#45;&gt;41</title>
<path fill="none" stroke="black" d="M1931.12,-126C1949.96,-126 1980.53,-126 2002.7,-126"/>
<polygon fill="black" stroke="black" points="2002.81,-129.5 2012.81,-126 2002.81,-122.5 2002.81,-129.5"/>
<text text-anchor="middle" x="1972" y="-129.8" font-family="Times,serif" font-size="14.00">u000a</text>
</g>
<!-- 47 -->
<g id="node30" class="node"><title>47</title>
<ellipse fill="none" stroke="black" cx="2154" cy="-126" rx="18" ry="18"/>
</g>
<!-- 41&#45;&gt;47 -->
<g id="edge32" class="edge"><title>41&#45;&gt;47</title>
<path fill="none" stroke="black" d="M2049.08,-126C2068.96,-126 2102.08,-126 2125.58,-126"/>
<polygon fill="black" stroke="black" points="2125.62,-129.5 2135.62,-126 2125.62,-122.5 2125.62,-129.5"/>
<text text-anchor="middle" x="2090" y="-129.8" font-family="Times,serif" font-size="14.00">u0010</text>
</g>
<!-- 52 -->
<g id="node31" class="node"><title>52</title>
<ellipse fill="none" stroke="black" cx="2277" cy="-126" rx="18" ry="18"/>
</g>
<!-- 47&#45;&gt;52 -->
<g id="edge33" class="edge"><title>47&#45;&gt;52</title>
<path fill="none" stroke="black" d="M2172.08,-126C2191.96,-126 2225.08,-126 2248.58,-126"/>
<polygon fill="black" stroke="black" points="2248.62,-129.5 2258.62,-126 2248.62,-122.5 2248.62,-129.5"/>
<text text-anchor="middle" x="2218" y="-129.8" font-family="Times,serif" font-size="14.00">u000e</text>
</g>
<!-- 55 -->
<g id="node32" class="node"><title>55</title>
<ellipse fill="none" stroke="black" cx="2400" cy="-126" rx="18" ry="18"/>
</g>
<!-- 52&#45;&gt;55 -->
<g id="edge34" class="edge"><title>52&#45;&gt;55</title>
<path fill="none" stroke="black" d="M2295.08,-126C2314.96,-126 2348.08,-126 2371.58,-126"/>
<polygon fill="black" stroke="black" points="2371.62,-129.5 2381.62,-126 2371.62,-122.5 2371.62,-129.5"/>
<text text-anchor="middle" x="2336" y="-129.8" font-family="Times,serif" font-size="14.00">u0006</text>
</g>
<!-- 55&#45;&gt;46 -->
<g id="edge35" class="edge"><title>55&#45;&gt;46</title>
<path fill="none" stroke="black" d="M2417.98,-129.372C2435.17,-132.839 2462.5,-138.493 2486,-144 2488.71,-144.636 2491.54,-145.322 2494.35,-146.021"/>
<polygon fill="black" stroke="black" points="2493.75,-149.478 2504.3,-148.55 2495.47,-142.694 2493.75,-149.478"/>
<text text-anchor="middle" x="2463.5" y="-147.8" font-family="Times,serif" font-size="14.00">u000e</text>
</g>
<!-- 18 -->
<g id="node34" class="node"><title>18</title>
<ellipse fill="none" stroke="black" cx="1559" cy="-180" rx="18" ry="18"/>
</g>
<!-- 12&#45;&gt;18 -->
<g id="edge36" class="edge"><title>12&#45;&gt;18</title>
<path fill="none" stroke="black" d="M1454.08,-180C1473.96,-180 1507.08,-180 1530.58,-180"/>
<polygon fill="black" stroke="black" points="1530.62,-183.5 1540.62,-180 1530.62,-176.5 1530.62,-183.5"/>
<text text-anchor="middle" x="1500" y="-183.8" font-family="Times,serif" font-size="14.00">u0002</text>
</g>
<!-- 24 -->
<g id="node35" class="node"><title>24</title>
<ellipse fill="none" stroke="black" cx="1677" cy="-180" rx="18" ry="18"/>
</g>
<!-- 18&#45;&gt;24 -->
<g id="edge37" class="edge"><title>18&#45;&gt;24</title>
<path fill="none" stroke="black" d="M1577.12,-180C1595.96,-180 1626.53,-180 1648.7,-180"/>
<polygon fill="black" stroke="black" points="1648.81,-183.5 1658.81,-180 1648.81,-176.5 1648.81,-183.5"/>
<text text-anchor="middle" x="1618" y="-183.8" font-family="Times,serif" font-size="14.00">u0000</text>
</g>
<!-- 30 -->
<g id="node36" class="node"><title>30</title>
<ellipse fill="none" stroke="black" cx="1795" cy="-180" rx="18" ry="18"/>
</g>
<!-- 24&#45;&gt;30 -->
<g id="edge38" class="edge"><title>24&#45;&gt;30</title>
<path fill="none" stroke="black" d="M1695.12,-180C1713.96,-180 1744.53,-180 1766.7,-180"/>
<polygon fill="black" stroke="black" points="1766.81,-183.5 1776.81,-180 1766.81,-176.5 1766.81,-183.5"/>
<text text-anchor="middle" x="1736" y="-183.8" font-family="Times,serif" font-size="14.00">u0003</text>
</g>
<!-- 36 -->
<g id="node37" class="node"><title>36</title>
<ellipse fill="none" stroke="black" cx="1913" cy="-180" rx="18" ry="18"/>
</g>
<!-- 30&#45;&gt;36 -->
<g id="edge39" class="edge"><title>30&#45;&gt;36</title>
<path fill="none" stroke="black" d="M1813.12,-180C1831.96,-180 1862.53,-180 1884.7,-180"/>
<polygon fill="black" stroke="black" points="1884.81,-183.5 1894.81,-180 1884.81,-176.5 1884.81,-183.5"/>
<text text-anchor="middle" x="1854" y="-183.8" font-family="Times,serif" font-size="14.00">u000d</text>
</g>
<!-- 42 -->
<g id="node38" class="node"><title>42</title>
<ellipse fill="none" stroke="black" cx="2031" cy="-180" rx="18" ry="18"/>
</g>
<!-- 36&#45;&gt;42 -->
<g id="edge40" class="edge"><title>36&#45;&gt;42</title>
<path fill="none" stroke="black" d="M1931.12,-180C1949.96,-180 1980.53,-180 2002.7,-180"/>
<polygon fill="black" stroke="black" points="2002.81,-183.5 2012.81,-180 2002.81,-176.5 2002.81,-183.5"/>
<text text-anchor="middle" x="1972" y="-183.8" font-family="Times,serif" font-size="14.00">u0011</text>
</g>
<!-- 48 -->
<g id="node39" class="node"><title>48</title>
<ellipse fill="none" stroke="black" cx="2218" cy="-174" rx="18" ry="18"/>
</g>
<!-- 42&#45;&gt;48 -->
<g id="edge41" class="edge"><title>42&#45;&gt;48</title>
<path fill="none" stroke="black" d="M2049.07,-179.446C2081.29,-178.401 2151.27,-176.132 2189.95,-174.877"/>
<polygon fill="black" stroke="black" points="2190.09,-178.375 2199.97,-174.552 2189.86,-171.378 2190.09,-178.375"/>
<text text-anchor="middle" x="2090" y="-181.8" font-family="Times,serif" font-size="14.00">u000f</text>
</g>
<!-- 48&#45;&gt;46 -->
<g id="edge42" class="edge"><title>48&#45;&gt;46</title>
<path fill="none" stroke="black" d="M2236.24,-173.71C2278.78,-172.846 2392.12,-169.649 2486,-159 2488.57,-158.708 2491.24,-158.351 2493.91,-157.957"/>
<polygon fill="black" stroke="black" points="2494.66,-161.381 2503.97,-156.32 2493.53,-154.472 2494.66,-161.381"/>
<text text-anchor="middle" x="2336" y="-174.8" font-family="Times,serif" font-size="14.00">u000a</text>
</g>
<!-- 13 -->
<g id="node41" class="node"><title>13</title>
<ellipse fill="none" stroke="black" cx="934" cy="-18" rx="18" ry="18"/>
</g>
<!-- 8&#45;&gt;13 -->
<g id="edge43" class="edge"><title>8&#45;&gt;13</title>
<path fill="none" stroke="black" d="M832.179,-63.3759C838.276,-60.0133 845.409,-56.205 852,-53 870.368,-44.0681 891.575,-34.9462 907.68,-28.2551"/>
<polygon fill="black" stroke="black" points="909.064,-31.4704 916.979,-24.4264 906.399,-24.9976 909.064,-31.4704"/>
<text text-anchor="middle" x="875" y="-56.8" font-family="Times,serif" font-size="14.00">u000d</text>
</g>
<!-- 14 -->
<g id="node53" class="node"><title>14</title>
<ellipse fill="none" stroke="black" cx="934" cy="-72" rx="18" ry="18"/>
</g>
<!-- 8&#45;&gt;14 -->
<g id="edge44" class="edge"><title>8&#45;&gt;14</title>
<path fill="none" stroke="black" d="M834.116,-72C852.964,-72 883.531,-72 905.696,-72"/>
<polygon fill="black" stroke="black" points="905.814,-75.5001 915.814,-72 905.814,-68.5001 905.814,-75.5001"/>
<text text-anchor="middle" x="875" y="-75.8" font-family="Times,serif" font-size="14.00">u0003</text>
</g>
<!-- 19 -->
<g id="node42" class="node"><title>19</title>
<ellipse fill="none" stroke="black" cx="1057" cy="-18" rx="18" ry="18"/>
</g>
<!-- 13&#45;&gt;19 -->
<g id="edge45" class="edge"><title>13&#45;&gt;19</title>
<path fill="none" stroke="black" d="M952.08,-18C971.965,-18 1005.08,-18 1028.58,-18"/>
<polygon fill="black" stroke="black" points="1028.62,-21.5001 1038.62,-18 1028.62,-14.5001 1028.62,-21.5001"/>
<text text-anchor="middle" x="993" y="-21.8" font-family="Times,serif" font-size="14.00">u0011</text>
</g>
<!-- 25 -->
<g id="node43" class="node"><title>25</title>
<ellipse fill="none" stroke="black" cx="1185" cy="-18" rx="18" ry="18"/>
</g>
<!-- 19&#45;&gt;25 -->
<g id="edge46" class="edge"><title>19&#45;&gt;25</title>
<path fill="none" stroke="black" d="M1075.26,-18C1096.27,-18 1132.03,-18 1156.77,-18"/>
<polygon fill="black" stroke="black" points="1156.95,-21.5001 1166.95,-18 1156.95,-14.5001 1156.95,-21.5001"/>
<text text-anchor="middle" x="1121" y="-21.8" font-family="Times,serif" font-size="14.00">u000f</text>
</g>
<!-- 31 -->
<g id="node44" class="node"><title>31</title>
<ellipse fill="none" stroke="black" cx="1310" cy="-18" rx="18" ry="18"/>
</g>
<!-- 25&#45;&gt;31 -->
<g id="edge47" class="edge"><title>25&#45;&gt;31</title>
<path fill="none" stroke="black" d="M1203.1,-18C1223.37,-18 1257.4,-18 1281.41,-18"/>
<polygon fill="black" stroke="black" points="1281.65,-21.5001 1291.65,-18 1281.65,-14.5001 1281.65,-21.5001"/>
<text text-anchor="middle" x="1248.5" y="-21.8" font-family="Times,serif" font-size="14.00">u000a</text>
</g>
<!-- 37 -->
<g id="node45" class="node"><title>37</title>
<ellipse fill="none" stroke="black" cx="1436" cy="-18" rx="18" ry="18"/>
</g>
<!-- 31&#45;&gt;37 -->
<g id="edge48" class="edge"><title>31&#45;&gt;37</title>
<path fill="none" stroke="black" d="M1328.24,-18C1348.79,-18 1383.37,-18 1407.59,-18"/>
<polygon fill="black" stroke="black" points="1407.9,-21.5001 1417.9,-18 1407.9,-14.5001 1407.9,-21.5001"/>
<text text-anchor="middle" x="1372" y="-21.8" font-family="Times,serif" font-size="14.00">u000e</text>
</g>
<!-- 43 -->
<g id="node46" class="node"><title>43</title>
<ellipse fill="none" stroke="black" cx="1559" cy="-18" rx="18" ry="18"/>
</g>
<!-- 37&#45;&gt;43 -->
<g id="edge49" class="edge"><title>37&#45;&gt;43</title>
<path fill="none" stroke="black" d="M1454.08,-18C1473.96,-18 1507.08,-18 1530.58,-18"/>
<polygon fill="black" stroke="black" points="1530.62,-21.5001 1540.62,-18 1530.62,-14.5001 1530.62,-21.5001"/>
<text text-anchor="middle" x="1500" y="-21.8" font-family="Times,serif" font-size="14.00">u0010</text>
</g>
<!-- 49 -->
<g id="node47" class="node"><title>49</title>
<ellipse fill="none" stroke="black" cx="1677" cy="-18" rx="18" ry="18"/>
</g>
<!-- 43&#45;&gt;49 -->
<g id="edge50" class="edge"><title>43&#45;&gt;49</title>
<path fill="none" stroke="black" d="M1577.12,-18C1595.96,-18 1626.53,-18 1648.7,-18"/>
<polygon fill="black" stroke="black" points="1648.81,-21.5001 1658.81,-18 1648.81,-14.5001 1648.81,-21.5001"/>
<text text-anchor="middle" x="1618" y="-21.8" font-family="Times,serif" font-size="14.00">u0006</text>
</g>
<!-- 53 -->
<g id="node48" class="node"><title>53</title>
<ellipse fill="none" stroke="black" cx="1795" cy="-18" rx="18" ry="18"/>
</g>
<!-- 49&#45;&gt;53 -->
<g id="edge51" class="edge"><title>49&#45;&gt;53</title>
<path fill="none" stroke="black" d="M1695.12,-18C1713.96,-18 1744.53,-18 1766.7,-18"/>
<polygon fill="black" stroke="black" points="1766.81,-21.5001 1776.81,-18 1766.81,-14.5001 1766.81,-21.5001"/>
<text text-anchor="middle" x="1736" y="-21.8" font-family="Times,serif" font-size="14.00">u000a</text>
</g>
<!-- 56 -->
<g id="node49" class="node"><title>56</title>
<ellipse fill="none" stroke="black" cx="1913" cy="-18" rx="18" ry="18"/>
</g>
<!-- 53&#45;&gt;56 -->
<g id="edge52" class="edge"><title>53&#45;&gt;56</title>
<path fill="none" stroke="black" d="M1813.12,-18C1831.96,-18 1862.53,-18 1884.7,-18"/>
<polygon fill="black" stroke="black" points="1884.81,-21.5001 1894.81,-18 1884.81,-14.5001 1884.81,-21.5001"/>
<text text-anchor="middle" x="1854" y="-21.8" font-family="Times,serif" font-size="14.00">u0007</text>
</g>
<!-- 58 -->
<g id="node50" class="node"><title>58</title>
<ellipse fill="none" stroke="black" cx="2031" cy="-18" rx="18" ry="18"/>
</g>
<!-- 56&#45;&gt;58 -->
<g id="edge53" class="edge"><title>56&#45;&gt;58</title>
<path fill="none" stroke="black" d="M1931.12,-18C1949.96,-18 1980.53,-18 2002.7,-18"/>
<polygon fill="black" stroke="black" points="2002.81,-21.5001 2012.81,-18 2002.81,-14.5001 2002.81,-21.5001"/>
<text text-anchor="middle" x="1972" y="-21.8" font-family="Times,serif" font-size="14.00">u000e</text>
</g>
<!-- 60 -->
<g id="node51" class="node"><title>60</title>
<ellipse fill="none" stroke="black" cx="2154" cy="-18" rx="18" ry="18"/>
</g>
<!-- 58&#45;&gt;60 -->
<g id="edge54" class="edge"><title>58&#45;&gt;60</title>
<path fill="none" stroke="black" d="M2049.08,-18C2068.96,-18 2102.08,-18 2125.58,-18"/>
<polygon fill="black" stroke="black" points="2125.62,-21.5001 2135.62,-18 2125.62,-14.5001 2125.62,-21.5001"/>
<text text-anchor="middle" x="2090" y="-21.8" font-family="Times,serif" font-size="14.00">u0007</text>
</g>
<!-- 62 -->
<g id="node52" class="node"><title>62</title>
<ellipse fill="none" stroke="black" cx="2336" cy="-29" rx="18" ry="18"/>
</g>
<!-- 60&#45;&gt;62 -->
<g id="edge55" class="edge"><title>60&#45;&gt;62</title>
<path fill="none" stroke="black" d="M2172.26,-19.0547C2203.57,-20.9684 2269.98,-25.0265 2307.57,-27.3235"/>
<polygon fill="black" stroke="black" points="2307.6,-30.8319 2317.79,-27.9485 2308.03,-23.8449 2307.6,-30.8319"/>
<text text-anchor="middle" x="2218" y="-27.8" font-family="Times,serif" font-size="14.00">u0006</text>
</g>
<!-- 62&#45;&gt;46 -->
<g id="edge56" class="edge"><title>62&#45;&gt;46</title>
<path fill="none" stroke="black" d="M2351.74,-38.146C2368.97,-48.9041 2398.28,-67.4045 2423,-84 2449.22,-101.601 2478.79,-122.582 2498.53,-136.75"/>
<polygon fill="black" stroke="black" points="2496.69,-139.743 2506.86,-142.744 2500.78,-134.062 2496.69,-139.743"/>
<text text-anchor="middle" x="2400" y="-87.8" font-family="Times,serif" font-size="14.00">u0007</text>
</g>
<!-- 20 -->
<g id="node54" class="node"><title>20</title>
<ellipse fill="none" stroke="black" cx="1057" cy="-72" rx="18" ry="18"/>
</g>
<!-- 14&#45;&gt;20 -->
<g id="edge57" class="edge"><title>14&#45;&gt;20</title>
<path fill="none" stroke="black" d="M952.08,-72C971.965,-72 1005.08,-72 1028.58,-72"/>
<polygon fill="black" stroke="black" points="1028.62,-75.5001 1038.62,-72 1028.62,-68.5001 1028.62,-75.5001"/>
<text text-anchor="middle" x="993" y="-75.8" font-family="Times,serif" font-size="14.00">u000d</text>
</g>
<!-- 26 -->
<g id="node55" class="node"><title>26</title>
<ellipse fill="none" stroke="black" cx="1185" cy="-72" rx="18" ry="18"/>
</g>
<!-- 20&#45;&gt;26 -->
<g id="edge58" class="edge"><title>20&#45;&gt;26</title>
<path fill="none" stroke="black" d="M1075.26,-72C1096.27,-72 1132.03,-72 1156.77,-72"/>
<polygon fill="black" stroke="black" points="1156.95,-75.5001 1166.95,-72 1156.95,-68.5001 1156.95,-75.5001"/>
<text text-anchor="middle" x="1121" y="-75.8" font-family="Times,serif" font-size="14.00">u0011</text>
</g>
<!-- 32 -->
<g id="node56" class="node"><title>32</title>
<ellipse fill="none" stroke="black" cx="1310" cy="-72" rx="18" ry="18"/>
</g>
<!-- 26&#45;&gt;32 -->
<g id="edge59" class="edge"><title>26&#45;&gt;32</title>
<path fill="none" stroke="black" d="M1203.1,-72C1223.37,-72 1257.4,-72 1281.41,-72"/>
<polygon fill="black" stroke="black" points="1281.65,-75.5001 1291.65,-72 1281.65,-68.5001 1281.65,-75.5001"/>
<text text-anchor="middle" x="1248.5" y="-75.8" font-family="Times,serif" font-size="14.00">u000f</text>
</g>
<!-- 38 -->
<g id="node57" class="node"><title>38</title>
<ellipse fill="none" stroke="black" cx="1436" cy="-72" rx="18" ry="18"/>
</g>
<!-- 32&#45;&gt;38 -->
<g id="edge60" class="edge"><title>32&#45;&gt;38</title>
<path fill="none" stroke="black" d="M1328.24,-72C1348.79,-72 1383.37,-72 1407.59,-72"/>
<polygon fill="black" stroke="black" points="1407.9,-75.5001 1417.9,-72 1407.9,-68.5001 1407.9,-75.5001"/>
<text text-anchor="middle" x="1372" y="-75.8" font-family="Times,serif" font-size="14.00">u0006</text>
</g>
<!-- 44 -->
<g id="node58" class="node"><title>44</title>
<ellipse fill="none" stroke="black" cx="1559" cy="-72" rx="18" ry="18"/>
</g>
<!-- 38&#45;&gt;44 -->
<g id="edge61" class="edge"><title>38&#45;&gt;44</title>
<path fill="none" stroke="black" d="M1454.08,-72C1473.96,-72 1507.08,-72 1530.58,-72"/>
<polygon fill="black" stroke="black" points="1530.62,-75.5001 1540.62,-72 1530.62,-68.5001 1530.62,-75.5001"/>
<text text-anchor="middle" x="1500" y="-75.8" font-family="Times,serif" font-size="14.00">u000a</text>
</g>
<!-- 50 -->
<g id="node59" class="node"><title>50</title>
<ellipse fill="none" stroke="black" cx="1677" cy="-72" rx="18" ry="18"/>
</g>
<!-- 44&#45;&gt;50 -->
<g id="edge62" class="edge"><title>44&#45;&gt;50</title>
<path fill="none" stroke="black" d="M1577.12,-72C1595.96,-72 1626.53,-72 1648.7,-72"/>
<polygon fill="black" stroke="black" points="1648.81,-75.5001 1658.81,-72 1648.81,-68.5001 1648.81,-75.5001"/>
<text text-anchor="middle" x="1618" y="-75.8" font-family="Times,serif" font-size="14.00">u000a</text>
</g>
<!-- 54 -->
<g id="node60" class="node"><title>54</title>
<ellipse fill="none" stroke="black" cx="1795" cy="-72" rx="18" ry="18"/>
</g>
<!-- 50&#45;&gt;54 -->
<g id="edge63" class="edge"><title>50&#45;&gt;54</title>
<path fill="none" stroke="black" d="M1695.12,-72C1713.96,-72 1744.53,-72 1766.7,-72"/>
<polygon fill="black" stroke="black" points="1766.81,-75.5001 1776.81,-72 1766.81,-68.5001 1766.81,-75.5001"/>
<text text-anchor="middle" x="1736" y="-75.8" font-family="Times,serif" font-size="14.00">u0007</text>
</g>
<!-- 57 -->
<g id="node61" class="node"><title>57</title>
<ellipse fill="none" stroke="black" cx="1913" cy="-72" rx="18" ry="18"/>
</g>
<!-- 54&#45;&gt;57 -->
<g id="edge64" class="edge"><title>54&#45;&gt;57</title>
<path fill="none" stroke="black" d="M1813.12,-72C1831.96,-72 1862.53,-72 1884.7,-72"/>
<polygon fill="black" stroke="black" points="1884.81,-75.5001 1894.81,-72 1884.81,-68.5001 1884.81,-75.5001"/>
<text text-anchor="middle" x="1854" y="-75.8" font-family="Times,serif" font-size="14.00">u0007</text>
</g>
<!-- 59 -->
<g id="node62" class="node"><title>59</title>
<ellipse fill="none" stroke="black" cx="2031" cy="-72" rx="18" ry="18"/>
</g>
<!-- 57&#45;&gt;59 -->
<g id="edge65" class="edge"><title>57&#45;&gt;59</title>
<path fill="none" stroke="black" d="M1931.12,-72C1949.96,-72 1980.53,-72 2002.7,-72"/>
<polygon fill="black" stroke="black" points="2002.81,-75.5001 2012.81,-72 2002.81,-68.5001 2002.81,-75.5001"/>
<text text-anchor="middle" x="1972" y="-75.8" font-family="Times,serif" font-size="14.00">u000a</text>
</g>
<!-- 61 -->
<g id="node63" class="node"><title>61</title>
<ellipse fill="none" stroke="black" cx="2154" cy="-72" rx="18" ry="18"/>
</g>
<!-- 59&#45;&gt;61 -->
<g id="edge66" class="edge"><title>59&#45;&gt;61</title>
<path fill="none" stroke="black" d="M2049.08,-72C2068.96,-72 2102.08,-72 2125.58,-72"/>
<polygon fill="black" stroke="black" points="2125.62,-75.5001 2135.62,-72 2125.62,-68.5001 2125.62,-75.5001"/>
<text text-anchor="middle" x="2090" y="-75.8" font-family="Times,serif" font-size="14.00">u0006</text>
</g>
<!-- 63 -->
<g id="node64" class="node"><title>63</title>
<ellipse fill="none" stroke="black" cx="2277" cy="-72" rx="18" ry="18"/>
</g>
<!-- 61&#45;&gt;63 -->
<g id="edge67" class="edge"><title>61&#45;&gt;63</title>
<path fill="none" stroke="black" d="M2172.08,-72C2191.96,-72 2225.08,-72 2248.58,-72"/>
<polygon fill="black" stroke="black" points="2248.62,-75.5001 2258.62,-72 2248.62,-68.5001 2248.62,-75.5001"/>
<text text-anchor="middle" x="2218" y="-75.8" font-family="Times,serif" font-size="14.00">u000a</text>
</g>
<!-- 63&#45;&gt;55 -->
<g id="edge68" class="edge"><title>63&#45;&gt;55</title>
<path fill="none" stroke="black" d="M2293.9,-78.6749C2310.29,-85.5981 2336.54,-96.8158 2359,-107 2363.95,-109.244 2369.22,-111.697 2374.25,-114.073"/>
<polygon fill="black" stroke="black" points="2372.95,-117.333 2383.48,-118.472 2375.96,-111.013 2372.95,-117.333"/>
<text text-anchor="middle" x="2336" y="-110.8" font-family="Times,serif" font-size="14.00">u0010</text>
</g>
<!-- initial -->
<g id="node65" class="node"><title>initial</title>
</g>
<!-- initial&#45;&gt;0 -->
<g id="edge69" class="edge"><title>initial&#45;&gt;0</title>
<path fill="none" stroke="black" d="M54.195,-161C62.6538,-161 72.0513,-161 80.5951,-161"/>
<polygon fill="black" stroke="black" points="80.8257,-164.5 90.8257,-161 80.8257,-157.5 80.8257,-164.5"/>
</g>
</g>
</svg>
