<svg width="2473px" height="1128px"
 viewBox="0.00 0.00 1855.00 846.00" xmlns="http://www.w3.org/2000/svg" xmlns:xlink="http://www.w3.org/1999/xlink">
<g id="graph0" class="graph" transform="scale(1.000022500562514 1.000022500562514) rotate(0) translate(4 842)">
<title>Automaton</title>
<polygon fill="white" stroke="none" points="-4,4 -4,-842 1851,-842 1851,4 -4,4"/>
<!-- 0 -->
<g id="node1" class="node"><title>0</title>
<ellipse fill="none" stroke="black" cx="109" cy="-160" rx="18" ry="18"/>
</g>
<!-- 1 -->
<g id="node2" class="node"><title>1</title>
<ellipse fill="none" stroke="black" cx="227" cy="-160" rx="18" ry="18"/>
</g>
<!-- 0&#45;&gt;1 -->
<g id="edge1" class="edge"><title>0&#45;&gt;1</title>
<path fill="none" stroke="black" d="M127.116,-160C145.964,-160 176.531,-160 198.696,-160"/>
<polygon fill="black" stroke="black" points="198.814,-163.5 208.814,-160 198.814,-156.5 198.814,-163.5"/>
<text text-anchor="middle" x="168" y="-163.8" font-family="Times,serif" font-size="14.00">u0000</text>
</g>
<!-- 2 -->
<g id="node3" class="node"><title>2</title>
<ellipse fill="none" stroke="black" cx="345" cy="-160" rx="18" ry="18"/>
</g>
<!-- 1&#45;&gt;2 -->
<g id="edge2" class="edge"><title>1&#45;&gt;2</title>
<path fill="none" stroke="black" d="M245.116,-160C263.964,-160 294.531,-160 316.696,-160"/>
<polygon fill="black" stroke="black" points="316.814,-163.5 326.814,-160 316.814,-156.5 316.814,-163.5"/>
<text text-anchor="middle" x="286" y="-163.8" font-family="Times,serif" font-size="14.00">u0001</text>
</g>
<!-- 3 -->
<g id="node4" class="node"><title>3</title>
<ellipse fill="none" stroke="black" cx="463" cy="-587" rx="18" ry="18"/>
</g>
<!-- 2&#45;&gt;3 -->
<g id="edge3" class="edge"><title>2&#45;&gt;3</title>
<path fill="none" stroke="black" d="M350.691,-177.268C368.58,-243.118 432.611,-478.818 454.557,-559.602"/>
<polygon fill="black" stroke="black" points="451.251,-560.785 457.251,-569.517 458.007,-558.95 451.251,-560.785"/>
<text text-anchor="middle" x="404" y="-451.8" font-family="Times,serif" font-size="14.00">u0004</text>
</g>
<!-- 4 -->
<g id="node10" class="node"><title>4</title>
<ellipse fill="none" stroke="black" cx="1703" cy="-470" rx="18" ry="18"/>
</g>
<!-- 2&#45;&gt;4 -->
<g id="edge4" class="edge"><title>2&#45;&gt;4</title>
<path fill="none" stroke="black" d="M349.825,-142.573C360.062,-101.104 392.179,-0 462,-0 462,-0 462,-0 1581,-0 1624.35,-0 1643.21,-9.76602 1667,-46 1688.65,-78.9689 1698.54,-352.08 1701.22,-441.662"/>
<polygon fill="black" stroke="black" points="1697.73,-441.989 1701.52,-451.883 1704.72,-441.785 1697.73,-441.989"/>
<text text-anchor="middle" x="1004" y="-3.8" font-family="Times,serif" font-size="14.00">u0003</text>
</g>
<!-- 5 -->
<g id="node22" class="node"><title>5</title>
<ellipse fill="none" stroke="black" cx="463" cy="-160" rx="18" ry="18"/>
</g>
<!-- 2&#45;&gt;5 -->
<g id="edge5" class="edge"><title>2&#45;&gt;5</title>
<path fill="none" stroke="black" d="M363.116,-160C381.964,-160 412.531,-160 434.696,-160"/>
<polygon fill="black" stroke="black" points="434.814,-163.5 444.814,-160 434.814,-156.5 434.814,-163.5"/>
<text text-anchor="middle" x="404" y="-163.8" font-family="Times,serif" font-size="14.00">u0005</text>
</g>
<!-- 6 -->
<g id="node5" class="node"><title>6</title>
<ellipse fill="none" stroke="black" cx="581" cy="-767" rx="18" ry="18"/>
</g>
<!-- 3&#45;&gt;6 -->
<g id="edge6" class="edge"><title>3&#45;&gt;6</title>
<path fill="none" stroke="black" d="M463.963,-605.314C464.835,-634.075 470.407,-690.237 499,-726 512.804,-743.266 535.796,-753.919 553.764,-760.024"/>
<polygon fill="black" stroke="black" points="552.808,-763.392 563.397,-763.034 554.896,-756.71 552.808,-763.392"/>
<text text-anchor="middle" x="522" y="-759.8" font-family="Times,serif" font-size="14.00">u0004</text>
</g>
<!-- 3&#45;&gt;4 -->
<g id="edge7" class="edge"><title>3&#45;&gt;4</title>
<path fill="none" stroke="black" d="M470.47,-570.547C484.768,-537.246 522.424,-465 580,-465 580,-465 580,-465 1325,-465 1455.91,-465 1612.37,-468.052 1674.56,-469.387"/>
<polygon fill="black" stroke="black" points="1674.64,-472.889 1684.72,-469.608 1674.79,-465.891 1674.64,-472.889"/>
<text text-anchor="middle" x="1068" y="-468.8" font-family="Times,serif" font-size="14.00">u0003</text>
</g>
<!-- 7 -->
<g id="node17" class="node"><title>7</title>
<ellipse fill="none" stroke="black" cx="1068" cy="-666" rx="18" ry="18"/>
</g>
<!-- 3&#45;&gt;7 -->
<g id="edge8" class="edge"><title>3&#45;&gt;7</title>
<path fill="none" stroke="black" d="M470.244,-603.599C484.235,-637.601 521.528,-712 580,-712 580,-712 580,-712 941,-712 978.416,-712 1018.5,-693.88 1043.16,-680.385"/>
<polygon fill="black" stroke="black" points="1045.15,-683.282 1052.13,-675.309 1041.7,-677.191 1045.15,-683.282"/>
<text text-anchor="middle" x="758" y="-715.8" font-family="Times,serif" font-size="14.00">u0005</text>
</g>
<!-- 11 -->
<g id="node6" class="node"><title>11</title>
<ellipse fill="none" stroke="black" cx="699" cy="-767" rx="18" ry="18"/>
</g>
<!-- 6&#45;&gt;11 -->
<g id="edge9" class="edge"><title>6&#45;&gt;11</title>
<path fill="none" stroke="black" d="M599.116,-767C617.964,-767 648.531,-767 670.696,-767"/>
<polygon fill="black" stroke="black" points="670.814,-770.5 680.814,-767 670.814,-763.5 670.814,-770.5"/>
<text text-anchor="middle" x="640" y="-770.8" font-family="Times,serif" font-size="14.00">u0004</text>
</g>
<!-- 6&#45;&gt;4 -->
<g id="edge10" class="edge"><title>6&#45;&gt;4</title>
<path fill="none" stroke="black" d="M595.272,-778.332C615.84,-794.696 657.3,-823 698,-823 698,-823 698,-823 1581,-823 1629.18,-823 1643.11,-798.841 1667,-757 1692,-713.218 1699.32,-561.432 1701.31,-498.098"/>
<polygon fill="black" stroke="black" points="1704.81,-498.13 1701.6,-488.032 1697.81,-497.925 1704.81,-498.13"/>
<text text-anchor="middle" x="1132" y="-826.8" font-family="Times,serif" font-size="14.00">u0003</text>
</g>
<!-- 17 -->
<g id="node7" class="node"><title>17</title>
<ellipse fill="none" stroke="black" cx="817" cy="-640" rx="18" ry="18"/>
</g>
<!-- 11&#45;&gt;17 -->
<g id="edge11" class="edge"><title>11&#45;&gt;17</title>
<path fill="none" stroke="black" d="M715.785,-759.759C738.66,-749.213 778.579,-730.597 781,-728 796.703,-711.155 805.7,-686.401 810.628,-667.434"/>
<polygon fill="black" stroke="black" points="814.063,-668.117 812.965,-657.579 807.252,-666.502 814.063,-668.117"/>
<text text-anchor="middle" x="758" y="-752.8" font-family="Times,serif" font-size="14.00">u0004</text>
</g>
<!-- 11&#45;&gt;4 -->
<g id="edge12" class="edge"><title>11&#45;&gt;4</title>
<path fill="none" stroke="black" d="M716.839,-770.081C739.351,-773.925 780.536,-780 816,-780 816,-780 816,-780 1581,-780 1628.64,-780 1642.66,-756.959 1667,-716 1688.63,-679.593 1697.67,-554.323 1700.71,-497.918"/>
<polygon fill="black" stroke="black" points="1704.2,-498.079 1701.22,-487.912 1697.21,-497.719 1704.2,-498.079"/>
<text text-anchor="middle" x="1196" y="-783.8" font-family="Times,serif" font-size="14.00">u0003</text>
</g>
<!-- 23 -->
<g id="node8" class="node"><title>23</title>
<ellipse fill="none" stroke="black" cx="1452" cy="-496" rx="18" ry="18"/>
</g>
<!-- 17&#45;&gt;23 -->
<g id="edge13" class="edge"><title>17&#45;&gt;23</title>
<path fill="none" stroke="black" d="M828.632,-625.92C847.846,-602.24 890.854,-557 939,-557 939,-557 939,-557 1133,-557 1209.27,-557 1226.08,-536.293 1301,-522 1343.78,-513.839 1393.63,-505.413 1423.72,-500.444"/>
<polygon fill="black" stroke="black" points="1424.57,-503.852 1433.87,-498.776 1423.43,-496.944 1424.57,-503.852"/>
<text text-anchor="middle" x="1132" y="-560.8" font-family="Times,serif" font-size="14.00">u0004</text>
</g>
<!-- 24 -->
<g id="node12" class="node"><title>24</title>
<ellipse fill="none" stroke="black" cx="940" cy="-640" rx="18" ry="18"/>
</g>
<!-- 17&#45;&gt;24 -->
<g id="edge14" class="edge"><title>17&#45;&gt;24</title>
<path fill="none" stroke="black" d="M835.08,-640C854.965,-640 888.077,-640 911.577,-640"/>
<polygon fill="black" stroke="black" points="911.615,-643.5 921.615,-640 911.615,-636.5 911.615,-643.5"/>
<text text-anchor="middle" x="876" y="-643.8" font-family="Times,serif" font-size="14.00">u0005</text>
</g>
<!-- 25 -->
<g id="node9" class="node"><title>25</title>
<ellipse fill="none" stroke="black" cx="1580" cy="-496" rx="18" ry="18"/>
</g>
<!-- 23&#45;&gt;25 -->
<g id="edge15" class="edge"><title>23&#45;&gt;25</title>
<path fill="none" stroke="black" d="M1470.26,-496C1491.27,-496 1527.03,-496 1551.77,-496"/>
<polygon fill="black" stroke="black" points="1551.95,-499.5 1561.95,-496 1551.95,-492.5 1551.95,-499.5"/>
<text text-anchor="middle" x="1516" y="-499.8" font-family="Times,serif" font-size="14.00">u0004</text>
</g>
<!-- 25&#45;&gt;4 -->
<g id="edge16" class="edge"><title>25&#45;&gt;4</title>
<path fill="none" stroke="black" d="M1597.82,-492.385C1617.87,-488.077 1651.62,-480.826 1675.26,-475.747"/>
<polygon fill="black" stroke="black" points="1676.28,-479.107 1685.32,-473.584 1674.81,-472.263 1676.28,-479.107"/>
<text text-anchor="middle" x="1644" y="-489.8" font-family="Times,serif" font-size="14.00">u0003</text>
</g>
<!-- 8 -->
<g id="node11" class="node"><title>8</title>
<ellipse fill="none" stroke="black" cx="1825" cy="-470" rx="18" ry="18"/>
<ellipse fill="none" stroke="black" cx="1825" cy="-470" rx="22" ry="22"/>
</g>
<!-- 4&#45;&gt;8 -->
<g id="edge17" class="edge"><title>4&#45;&gt;8</title>
<path fill="none" stroke="black" d="M1721.19,-470C1739.77,-470 1769.76,-470 1792.57,-470"/>
<polygon fill="black" stroke="black" points="1792.79,-473.5 1802.79,-470 1792.79,-466.5 1792.79,-473.5"/>
<text text-anchor="middle" x="1762" y="-473.8" font-family="Times,serif" font-size="14.00">u0002</text>
</g>
<!-- 24&#45;&gt;4 -->
<g id="edge19" class="edge"><title>24&#45;&gt;4</title>
<path fill="none" stroke="black" d="M955.47,-649.416C974.959,-661.609 1011.12,-682.532 1045,-693 1191.42,-738.235 1233.75,-737 1387,-737 1387,-737 1387,-737 1581,-737 1684.86,-737 1700.03,-567.316 1701.9,-498.491"/>
<polygon fill="black" stroke="black" points="1705.41,-498.419 1702.1,-488.352 1698.41,-498.281 1705.41,-498.419"/>
<text text-anchor="middle" x="1324" y="-739.8" font-family="Times,serif" font-size="14.00">u0003</text>
</g>
<!-- 28 -->
<g id="node13" class="node"><title>28</title>
<ellipse fill="none" stroke="black" cx="1068" cy="-608" rx="18" ry="18"/>
</g>
<!-- 24&#45;&gt;28 -->
<g id="edge18" class="edge"><title>24&#45;&gt;28</title>
<path fill="none" stroke="black" d="M957.732,-635.751C978.819,-630.395 1015.32,-621.126 1040.28,-614.785"/>
<polygon fill="black" stroke="black" points="1041.37,-618.121 1050.2,-612.267 1039.65,-611.336 1041.37,-618.121"/>
<text text-anchor="middle" x="1004" y="-632.8" font-family="Times,serif" font-size="14.00">u0004</text>
</g>
<!-- 30 -->
<g id="node14" class="node"><title>30</title>
<ellipse fill="none" stroke="black" cx="1196" cy="-511" rx="18" ry="18"/>
</g>
<!-- 28&#45;&gt;30 -->
<g id="edge20" class="edge"><title>28&#45;&gt;30</title>
<path fill="none" stroke="black" d="M1071.75,-590.161C1075.93,-569.618 1085.99,-536.576 1109,-520 1125.9,-507.825 1149.75,-506.204 1168.05,-507.274"/>
<polygon fill="black" stroke="black" points="1167.82,-510.767 1178.08,-508.154 1168.43,-503.793 1167.82,-510.767"/>
<text text-anchor="middle" x="1132" y="-523.8" font-family="Times,serif" font-size="14.00">u0004</text>
</g>
<!-- 32 -->
<g id="node15" class="node"><title>32</title>
<ellipse fill="none" stroke="black" cx="1324" cy="-419" rx="18" ry="18"/>
</g>
<!-- 30&#45;&gt;32 -->
<g id="edge21" class="edge"><title>30&#45;&gt;32</title>
<path fill="none" stroke="black" d="M1210.97,-500.803C1232.73,-484.915 1274.91,-454.113 1300.85,-435.173"/>
<polygon fill="black" stroke="black" points="1302.96,-437.966 1308.97,-429.243 1298.83,-432.313 1302.96,-437.966"/>
<text text-anchor="middle" x="1260" y="-484.8" font-family="Times,serif" font-size="14.00">u0004</text>
</g>
<!-- 21 -->
<g id="node16" class="node"><title>21</title>
<ellipse fill="none" stroke="black" cx="1452" cy="-359" rx="18" ry="18"/>
</g>
<!-- 32&#45;&gt;21 -->
<g id="edge22" class="edge"><title>32&#45;&gt;21</title>
<path fill="none" stroke="black" d="M1340.09,-410.815C1347.54,-406.843 1356.68,-402.064 1365,-398 1385.19,-388.131 1408.42,-377.648 1425.64,-370.038"/>
<polygon fill="black" stroke="black" points="1427.28,-373.144 1435.02,-365.916 1424.46,-366.736 1427.28,-373.144"/>
<text text-anchor="middle" x="1388" y="-401.8" font-family="Times,serif" font-size="14.00">u0004</text>
</g>
<!-- 21&#45;&gt;25 -->
<g id="edge23" class="edge"><title>21&#45;&gt;25</title>
<path fill="none" stroke="black" d="M1464.85,-371.889C1486.8,-395.756 1533.94,-447.002 1560.25,-475.617"/>
<polygon fill="black" stroke="black" points="1557.74,-478.055 1567.09,-483.046 1562.89,-473.316 1557.74,-478.055"/>
<text text-anchor="middle" x="1516" y="-454.8" font-family="Times,serif" font-size="14.00">u0005</text>
</g>
<!-- 7&#45;&gt;4 -->
<g id="edge25" class="edge"><title>7&#45;&gt;4</title>
<path fill="none" stroke="black" d="M1085.03,-659.889C1114.7,-648.729 1180.32,-624.754 1237,-609 1341.32,-580.005 1369.76,-582.46 1475,-557 1532.21,-543.159 1546.22,-538.524 1603,-523 1631.5,-515.207 1641.5,-519.932 1667,-505 1673.18,-501.382 1679.04,-496.412 1684.14,-491.353"/>
<polygon fill="black" stroke="black" points="1686.73,-493.714 1691.01,-484.025 1681.62,-488.925 1686.73,-493.714"/>
<text text-anchor="middle" x="1388" y="-582.8" font-family="Times,serif" font-size="14.00">u0003</text>
</g>
<!-- 12 -->
<g id="node18" class="node"><title>12</title>
<ellipse fill="none" stroke="black" cx="1196" cy="-666" rx="18" ry="18"/>
</g>
<!-- 7&#45;&gt;12 -->
<g id="edge24" class="edge"><title>7&#45;&gt;12</title>
<path fill="none" stroke="black" d="M1086.26,-666C1107.27,-666 1143.03,-666 1167.77,-666"/>
<polygon fill="black" stroke="black" points="1167.95,-669.5 1177.95,-666 1167.95,-662.5 1167.95,-669.5"/>
<text text-anchor="middle" x="1132" y="-669.8" font-family="Times,serif" font-size="14.00">u0004</text>
</g>
<!-- 12&#45;&gt;4 -->
<g id="edge27" class="edge"><title>12&#45;&gt;4</title>
<path fill="none" stroke="black" d="M1213.14,-671.502C1220.35,-673.68 1229.01,-675.921 1237,-677 1257.26,-679.735 1262.56,-677.479 1283,-677 1425.34,-673.666 1465.69,-699.646 1603,-662 1634.06,-653.484 1647.5,-653.637 1667,-628 1696.01,-589.862 1701.9,-532.418 1702.6,-498.315"/>
<polygon fill="black" stroke="black" points="1706.1,-498.141 1702.67,-488.117 1699.1,-498.094 1706.1,-498.141"/>
<text text-anchor="middle" x="1452" y="-685.8" font-family="Times,serif" font-size="14.00">u0003</text>
</g>
<!-- 18 -->
<g id="node19" class="node"><title>18</title>
<ellipse fill="none" stroke="black" cx="1324" cy="-549" rx="18" ry="18"/>
</g>
<!-- 12&#45;&gt;18 -->
<g id="edge26" class="edge"><title>12&#45;&gt;18</title>
<path fill="none" stroke="black" d="M1210.01,-653.92C1232,-633.496 1276.69,-592.004 1302.79,-567.766"/>
<polygon fill="black" stroke="black" points="1305.3,-570.21 1310.25,-560.84 1300.54,-565.08 1305.3,-570.21"/>
<text text-anchor="middle" x="1260" y="-631.8" font-family="Times,serif" font-size="14.00">u0004</text>
</g>
<!-- 19 -->
<g id="node20" class="node"><title>19</title>
<ellipse fill="none" stroke="black" cx="1324" cy="-644" rx="18" ry="18"/>
</g>
<!-- 12&#45;&gt;19 -->
<g id="edge28" class="edge"><title>12&#45;&gt;19</title>
<path fill="none" stroke="black" d="M1213.99,-663.033C1235.03,-659.359 1271.13,-653.056 1295.99,-648.717"/>
<polygon fill="black" stroke="black" points="1296.62,-652.158 1305.87,-646.99 1295.42,-645.263 1296.62,-652.158"/>
<text text-anchor="middle" x="1260" y="-661.8" font-family="Times,serif" font-size="14.00">u0005</text>
</g>
<!-- 18&#45;&gt;25 -->
<g id="edge30" class="edge"><title>18&#45;&gt;25</title>
<path fill="none" stroke="black" d="M1342.02,-547.95C1378.75,-545.329 1467.85,-537.048 1539,-515 1544.19,-513.391 1549.56,-511.222 1554.63,-508.925"/>
<polygon fill="black" stroke="black" points="1556.36,-511.972 1563.84,-504.464 1553.31,-505.672 1556.36,-511.972"/>
<text text-anchor="middle" x="1452" y="-541.8" font-family="Times,serif" font-size="14.00">u0005</text>
</g>
<!-- 18&#45;&gt;21 -->
<g id="edge29" class="edge"><title>18&#45;&gt;21</title>
<path fill="none" stroke="black" d="M1334.68,-534.407C1356.44,-501.596 1409.37,-421.781 1435.66,-382.135"/>
<polygon fill="black" stroke="black" points="1438.68,-383.912 1441.29,-373.643 1432.85,-380.043 1438.68,-383.912"/>
<text text-anchor="middle" x="1388" y="-490.8" font-family="Times,serif" font-size="14.00">u0004</text>
</g>
<!-- 26 -->
<g id="node21" class="node"><title>26</title>
<ellipse fill="none" stroke="black" cx="1452" cy="-639" rx="18" ry="18"/>
</g>
<!-- 19&#45;&gt;26 -->
<g id="edge31" class="edge"><title>19&#45;&gt;26</title>
<path fill="none" stroke="black" d="M1341.99,-643.326C1362.94,-642.494 1398.81,-641.071 1423.65,-640.085"/>
<polygon fill="black" stroke="black" points="1424.02,-643.573 1433.87,-639.68 1423.74,-636.579 1424.02,-643.573"/>
<text text-anchor="middle" x="1388" y="-645.8" font-family="Times,serif" font-size="14.00">u0005</text>
</g>
<!-- 26&#45;&gt;25 -->
<g id="edge32" class="edge"><title>26&#45;&gt;25</title>
<path fill="none" stroke="black" d="M1467.04,-629.01C1485.17,-615.642 1516.99,-590.527 1539,-564 1549.84,-550.938 1559.56,-534.588 1566.7,-521.194"/>
<polygon fill="black" stroke="black" points="1569.94,-522.543 1571.42,-512.053 1563.72,-519.329 1569.94,-522.543"/>
<text text-anchor="middle" x="1516" y="-610.8" font-family="Times,serif" font-size="14.00">u0004</text>
</g>
<!-- 26&#45;&gt;4 -->
<g id="edge33" class="edge"><title>26&#45;&gt;4</title>
<path fill="none" stroke="black" d="M1470.11,-641.586C1510.26,-646.609 1611.3,-653.029 1667,-601 1695.19,-574.667 1701.63,-528.367 1702.62,-498.454"/>
<polygon fill="black" stroke="black" points="1706.12,-498.291 1702.76,-488.242 1699.12,-498.191 1706.12,-498.291"/>
<text text-anchor="middle" x="1580" y="-646.8" font-family="Times,serif" font-size="14.00">u0003</text>
</g>
<!-- 5&#45;&gt;4 -->
<g id="edge35" class="edge"><title>5&#45;&gt;4</title>
<path fill="none" stroke="black" d="M471.241,-143.667C486.455,-112.145 524.939,-46 580,-46 580,-46 580,-46 1581,-46 1622.79,-46 1642.63,-50.053 1667,-84 1687.77,-112.934 1698.12,-358.025 1701.08,-441.946"/>
<polygon fill="black" stroke="black" points="1697.59,-442.148 1701.43,-452.021 1704.59,-441.907 1697.59,-442.148"/>
<text text-anchor="middle" x="1068" y="-49.8" font-family="Times,serif" font-size="14.00">u0003</text>
</g>
<!-- 9 -->
<g id="node23" class="node"><title>9</title>
<ellipse fill="none" stroke="black" cx="581" cy="-160" rx="18" ry="18"/>
</g>
<!-- 5&#45;&gt;9 -->
<g id="edge34" class="edge"><title>5&#45;&gt;9</title>
<path fill="none" stroke="black" d="M481.116,-160C499.964,-160 530.531,-160 552.696,-160"/>
<polygon fill="black" stroke="black" points="552.814,-163.5 562.814,-160 552.814,-156.5 552.814,-163.5"/>
<text text-anchor="middle" x="522" y="-163.8" font-family="Times,serif" font-size="14.00">u0004</text>
</g>
<!-- 10 -->
<g id="node31" class="node"><title>10</title>
<ellipse fill="none" stroke="black" cx="1068" cy="-238" rx="18" ry="18"/>
</g>
<!-- 5&#45;&gt;10 -->
<g id="edge36" class="edge"><title>5&#45;&gt;10</title>
<path fill="none" stroke="black" d="M473.417,-175.192C490.921,-201.323 531.163,-252 580,-252 580,-252 580,-252 941,-252 975.28,-252 1014.49,-246.818 1039.94,-242.759"/>
<polygon fill="black" stroke="black" points="1040.65,-246.189 1049.95,-241.107 1039.51,-239.282 1040.65,-246.189"/>
<text text-anchor="middle" x="758" y="-255.8" font-family="Times,serif" font-size="14.00">u0005</text>
</g>
<!-- 9&#45;&gt;4 -->
<g id="edge38" class="edge"><title>9&#45;&gt;4</title>
<path fill="none" stroke="black" d="M593.739,-146.645C613.191,-126.078 654.318,-89 698,-89 698,-89 698,-89 1005,-89 1117.91,-89 1146.09,-84 1259,-84 1259,-84 1259,-84 1581,-84 1622.97,-84 1642.52,-88.9105 1667,-123 1703.36,-173.639 1703.87,-367.344 1702.68,-441.18"/>
<polygon fill="black" stroke="black" points="1699.17,-441.505 1702.49,-451.568 1706.17,-441.635 1699.17,-441.505"/>
<text text-anchor="middle" x="1132" y="-91.8" font-family="Times,serif" font-size="14.00">u0003</text>
</g>
<!-- 13 -->
<g id="node24" class="node"><title>13</title>
<ellipse fill="none" stroke="black" cx="699" cy="-206" rx="18" ry="18"/>
</g>
<!-- 9&#45;&gt;13 -->
<g id="edge37" class="edge"><title>9&#45;&gt;13</title>
<path fill="none" stroke="black" d="M598.024,-166.426C603.98,-168.811 610.797,-171.534 617,-174 635.441,-181.331 656.265,-189.556 672.18,-195.832"/>
<polygon fill="black" stroke="black" points="671.268,-199.235 681.855,-199.645 673.835,-192.722 671.268,-199.235"/>
<text text-anchor="middle" x="640" y="-194.8" font-family="Times,serif" font-size="14.00">u0004</text>
</g>
<!-- 14 -->
<g id="node30" class="node"><title>14</title>
<ellipse fill="none" stroke="black" cx="1324" cy="-168" rx="18" ry="18"/>
</g>
<!-- 9&#45;&gt;14 -->
<g id="edge39" class="edge"><title>9&#45;&gt;14</title>
<path fill="none" stroke="black" d="M599.295,-160C621.962,-160 662.958,-160 698,-160 698,-160 698,-160 1197,-160 1231.14,-160 1270.38,-162.961 1295.87,-165.28"/>
<polygon fill="black" stroke="black" points="1295.62,-168.772 1305.9,-166.225 1296.27,-161.803 1295.62,-168.772"/>
<text text-anchor="middle" x="940" y="-163.8" font-family="Times,serif" font-size="14.00">u0005</text>
</g>
<!-- 20 -->
<g id="node25" class="node"><title>20</title>
<ellipse fill="none" stroke="black" cx="817" cy="-206" rx="18" ry="18"/>
</g>
<!-- 13&#45;&gt;20 -->
<g id="edge40" class="edge"><title>13&#45;&gt;20</title>
<path fill="none" stroke="black" d="M717.116,-206C735.964,-206 766.531,-206 788.696,-206"/>
<polygon fill="black" stroke="black" points="788.814,-209.5 798.814,-206 788.814,-202.5 788.814,-209.5"/>
<text text-anchor="middle" x="758" y="-209.8" font-family="Times,serif" font-size="14.00">u0005</text>
</g>
<!-- 27 -->
<g id="node26" class="node"><title>27</title>
<ellipse fill="none" stroke="black" cx="940" cy="-323" rx="18" ry="18"/>
</g>
<!-- 20&#45;&gt;27 -->
<g id="edge41" class="edge"><title>20&#45;&gt;27</title>
<path fill="none" stroke="black" d="M830.493,-218.08C851.506,-238.398 894.082,-279.567 919.201,-303.856"/>
<polygon fill="black" stroke="black" points="916.771,-306.375 926.393,-310.81 921.637,-301.343 916.771,-306.375"/>
<text text-anchor="middle" x="876" y="-284.8" font-family="Times,serif" font-size="14.00">u0005</text>
</g>
<!-- 29 -->
<g id="node27" class="node"><title>29</title>
<ellipse fill="none" stroke="black" cx="1068" cy="-339" rx="18" ry="18"/>
</g>
<!-- 27&#45;&gt;29 -->
<g id="edge42" class="edge"><title>27&#45;&gt;29</title>
<path fill="none" stroke="black" d="M957.993,-325.158C978.941,-327.818 1014.81,-332.373 1039.65,-335.527"/>
<polygon fill="black" stroke="black" points="1039.51,-339.038 1049.87,-336.825 1040.39,-332.093 1039.51,-339.038"/>
<text text-anchor="middle" x="1004" y="-336.8" font-family="Times,serif" font-size="14.00">u0005</text>
</g>
<!-- 31 -->
<g id="node28" class="node"><title>31</title>
<ellipse fill="none" stroke="black" cx="1196" cy="-346" rx="18" ry="18"/>
</g>
<!-- 29&#45;&gt;31 -->
<g id="edge43" class="edge"><title>29&#45;&gt;31</title>
<path fill="none" stroke="black" d="M1085.99,-339.944C1106.94,-341.108 1142.81,-343.101 1167.65,-344.481"/>
<polygon fill="black" stroke="black" points="1167.7,-347.988 1177.87,-345.049 1168.08,-340.999 1167.7,-347.988"/>
<text text-anchor="middle" x="1132" y="-346.8" font-family="Times,serif" font-size="14.00">u0005</text>
</g>
<!-- 33 -->
<g id="node29" class="node"><title>33</title>
<ellipse fill="none" stroke="black" cx="1324" cy="-365" rx="18" ry="18"/>
</g>
<!-- 31&#45;&gt;33 -->
<g id="edge44" class="edge"><title>31&#45;&gt;33</title>
<path fill="none" stroke="black" d="M1213.99,-348.562C1234.94,-351.721 1270.81,-357.13 1295.65,-360.876"/>
<polygon fill="black" stroke="black" points="1295.46,-364.387 1305.87,-362.417 1296.51,-357.465 1295.46,-364.387"/>
<text text-anchor="middle" x="1260" y="-361.8" font-family="Times,serif" font-size="14.00">u0005</text>
</g>
<!-- 33&#45;&gt;23 -->
<g id="edge45" class="edge"><title>33&#45;&gt;23</title>
<path fill="none" stroke="black" d="M1340.7,-357.982C1359.4,-350.809 1390.64,-342.703 1411,-358 1428.61,-371.228 1440.95,-431.859 1446.92,-468.209"/>
<polygon fill="black" stroke="black" points="1443.48,-468.865 1448.5,-478.195 1450.4,-467.771 1443.48,-468.865"/>
<text text-anchor="middle" x="1388" y="-361.8" font-family="Times,serif" font-size="14.00">u0004</text>
</g>
<!-- 14&#45;&gt;4 -->
<g id="edge46" class="edge"><title>14&#45;&gt;4</title>
<path fill="none" stroke="black" d="M1341.49,-163.266C1396.56,-148.568 1575.79,-109.896 1667,-200 1700.63,-233.216 1703.07,-379.316 1702.54,-441.654"/>
<polygon fill="black" stroke="black" points="1699.03,-441.893 1702.41,-451.934 1706.03,-441.977 1699.03,-441.893"/>
<text text-anchor="middle" x="1516" y="-148.8" font-family="Times,serif" font-size="14.00">u0003</text>
</g>
<!-- 14&#45;&gt;21 -->
<g id="edge47" class="edge"><title>14&#45;&gt;21</title>
<path fill="none" stroke="black" d="M1339.15,-177.781C1357.99,-191.471 1391.22,-218.053 1411,-248 1428.03,-273.791 1438.88,-307.741 1444.92,-331.272"/>
<polygon fill="black" stroke="black" points="1441.59,-332.398 1447.36,-341.284 1448.4,-330.74 1441.59,-332.398"/>
<text text-anchor="middle" x="1388" y="-251.8" font-family="Times,serif" font-size="14.00">u0005</text>
</g>
<!-- 10&#45;&gt;4 -->
<g id="edge49" class="edge"><title>10&#45;&gt;4</title>
<path fill="none" stroke="black" d="M1076.92,-221.871C1093.82,-189.997 1136.72,-122 1195,-122 1195,-122 1195,-122 1581,-122 1623.54,-122 1642.45,-129.262 1667,-164 1698.28,-208.261 1701.97,-374.298 1702.15,-441.5"/>
<polygon fill="black" stroke="black" points="1698.65,-441.767 1702.15,-451.766 1705.65,-441.766 1698.65,-441.767"/>
<text text-anchor="middle" x="1388" y="-125.8" font-family="Times,serif" font-size="14.00">u0003</text>
</g>
<!-- 15 -->
<g id="node32" class="node"><title>15</title>
<ellipse fill="none" stroke="black" cx="1196" cy="-227" rx="18" ry="18"/>
</g>
<!-- 10&#45;&gt;15 -->
<g id="edge48" class="edge"><title>10&#45;&gt;15</title>
<path fill="none" stroke="black" d="M1085.99,-236.516C1106.94,-234.688 1142.81,-231.556 1167.65,-229.387"/>
<polygon fill="black" stroke="black" points="1168.22,-232.852 1177.87,-228.495 1167.61,-225.878 1168.22,-232.852"/>
<text text-anchor="middle" x="1132" y="-237.8" font-family="Times,serif" font-size="14.00">u0004</text>
</g>
<!-- 16 -->
<g id="node33" class="node"><title>16</title>
<ellipse fill="none" stroke="black" cx="1196" cy="-286" rx="18" ry="18"/>
</g>
<!-- 10&#45;&gt;16 -->
<g id="edge50" class="edge"><title>10&#45;&gt;16</title>
<path fill="none" stroke="black" d="M1084.96,-244.079C1106.14,-252.15 1143.82,-266.502 1169.1,-276.135"/>
<polygon fill="black" stroke="black" points="1168.18,-279.529 1178.77,-279.819 1170.67,-272.988 1168.18,-279.529"/>
<text text-anchor="middle" x="1132" y="-273.8" font-family="Times,serif" font-size="14.00">u0005</text>
</g>
<!-- 15&#45;&gt;4 -->
<g id="edge52" class="edge"><title>15&#45;&gt;4</title>
<path fill="none" stroke="black" d="M1214,-225.054C1247.21,-221.427 1323.02,-214 1387,-214 1387,-214 1387,-214 1581,-214 1680.89,-214 1698.44,-375.272 1701.43,-441.811"/>
<polygon fill="black" stroke="black" points="1697.94,-442.134 1701.8,-451.999 1704.93,-441.876 1697.94,-442.134"/>
<text text-anchor="middle" x="1452" y="-217.8" font-family="Times,serif" font-size="14.00">u0003</text>
</g>
<!-- 15&#45;&gt;21 -->
<g id="edge53" class="edge"><title>15&#45;&gt;21</title>
<path fill="none" stroke="black" d="M1213.61,-231.386C1250.01,-241.038 1334.57,-263.68 1347,-269 1377.41,-282.016 1386.25,-285.052 1411,-307 1420.4,-315.331 1429.12,-326.131 1436,-335.728"/>
<polygon fill="black" stroke="black" points="1433.22,-337.854 1441.78,-344.098 1438.98,-333.879 1433.22,-337.854"/>
<text text-anchor="middle" x="1324" y="-272.8" font-family="Times,serif" font-size="14.00">u0005</text>
</g>
<!-- 15&#45;&gt;14 -->
<g id="edge51" class="edge"><title>15&#45;&gt;14</title>
<path fill="none" stroke="black" d="M1209.38,-214.58C1216.84,-207.69 1226.84,-199.44 1237,-194 1255.56,-184.06 1278.46,-177.373 1295.96,-173.273"/>
<polygon fill="black" stroke="black" points="1297.06,-176.615 1306.07,-171.048 1295.55,-169.779 1297.06,-176.615"/>
<text text-anchor="middle" x="1260" y="-197.8" font-family="Times,serif" font-size="14.00">u0004</text>
</g>
<!-- 22 -->
<g id="node34" class="node"><title>22</title>
<ellipse fill="none" stroke="black" cx="1324" cy="-311" rx="18" ry="18"/>
</g>
<!-- 16&#45;&gt;22 -->
<g id="edge54" class="edge"><title>16&#45;&gt;22</title>
<path fill="none" stroke="black" d="M1213.73,-289.32C1234.82,-293.504 1271.32,-300.746 1296.28,-305.699"/>
<polygon fill="black" stroke="black" points="1295.71,-309.153 1306.2,-307.666 1297.07,-302.287 1295.71,-309.153"/>
<text text-anchor="middle" x="1260" y="-305.8" font-family="Times,serif" font-size="14.00">u0005</text>
</g>
<!-- 22&#45;&gt;21 -->
<g id="edge55" class="edge"><title>22&#45;&gt;21</title>
<path fill="none" stroke="black" d="M1342,-310.191C1359.98,-309.999 1388.77,-311.62 1411,-322 1418.96,-325.715 1426.4,-331.599 1432.66,-337.592"/>
<polygon fill="black" stroke="black" points="1430.43,-340.327 1439.9,-345.085 1435.47,-335.462 1430.43,-340.327"/>
<text text-anchor="middle" x="1388" y="-325.8" font-family="Times,serif" font-size="14.00">u0005</text>
</g>
<!-- initial -->
<g id="node35" class="node"><title>initial</title>
</g>
<!-- initial&#45;&gt;0 -->
<g id="edge56" class="edge"><title>initial&#45;&gt;0</title>
<path fill="none" stroke="black" d="M54.195,-160C62.6538,-160 72.0513,-160 80.5951,-160"/>
<polygon fill="black" stroke="black" points="80.8257,-163.5 90.8257,-160 80.8257,-156.5 80.8257,-163.5"/>
</g>
</g>
</svg>
