<svg width="4600px" height="527px"
 viewBox="0.00 0.00 3450.00 395.00" xmlns="http://www.w3.org/2000/svg" xmlns:xlink="http://www.w3.org/1999/xlink">
<g id="graph0" class="graph" transform="scale(1.000022500562514 1.000022500562514) rotate(0) translate(4 391)">
<title>Automaton</title>
<polygon fill="white" stroke="none" points="-4,4 -4,-391 3446,-391 3446,4 -4,4"/>
<!-- 0 -->
<g id="node1" class="node"><title>0</title>
<ellipse fill="none" stroke="black" cx="109" cy="-198" rx="18" ry="18"/>
</g>
<!-- 1 -->
<g id="node2" class="node"><title>1</title>
<ellipse fill="none" stroke="black" cx="227" cy="-198" rx="18" ry="18"/>
</g>
<!-- 0&#45;&gt;1 -->
<g id="edge1" class="edge"><title>0&#45;&gt;1</title>
<path fill="none" stroke="black" d="M127.116,-198C145.964,-198 176.531,-198 198.696,-198"/>
<polygon fill="black" stroke="black" points="198.814,-201.5 208.814,-198 198.814,-194.5 198.814,-201.5"/>
<text text-anchor="middle" x="168" y="-201.8" font-family="Times,serif" font-size="14.00">u0001</text>
</g>
<!-- 2 -->
<g id="node3" class="node"><title>2</title>
<ellipse fill="none" stroke="black" cx="345" cy="-198" rx="18" ry="18"/>
</g>
<!-- 1&#45;&gt;2 -->
<g id="edge2" class="edge"><title>1&#45;&gt;2</title>
<path fill="none" stroke="black" d="M245.116,-198C263.964,-198 294.531,-198 316.696,-198"/>
<polygon fill="black" stroke="black" points="316.814,-201.5 326.814,-198 316.814,-194.5 316.814,-201.5"/>
<text text-anchor="middle" x="286" y="-201.8" font-family="Times,serif" font-size="14.00">u0003</text>
</g>
<!-- 3 -->
<g id="node4" class="node"><title>3</title>
<ellipse fill="none" stroke="black" cx="462" cy="-198" rx="18" ry="18"/>
</g>
<!-- 2&#45;&gt;3 -->
<g id="edge3" class="edge"><title>2&#45;&gt;3</title>
<path fill="none" stroke="black" d="M363.466,-198C382.064,-198 411.756,-198 433.499,-198"/>
<polygon fill="black" stroke="black" points="433.746,-201.5 443.746,-198 433.746,-194.5 433.746,-201.5"/>
<text text-anchor="middle" x="403.5" y="-201.8" font-family="Times,serif" font-size="14.00">u000e</text>
</g>
<!-- 4 -->
<g id="node5" class="node"><title>4</title>
<ellipse fill="none" stroke="black" cx="576" cy="-198" rx="18" ry="18"/>
</g>
<!-- 3&#45;&gt;4 -->
<g id="edge4" class="edge"><title>3&#45;&gt;4</title>
<path fill="none" stroke="black" d="M480.01,-198C497.937,-198 526.445,-198 547.558,-198"/>
<polygon fill="black" stroke="black" points="547.83,-201.5 557.83,-198 547.829,-194.5 547.83,-201.5"/>
<text text-anchor="middle" x="519" y="-201.8" font-family="Times,serif" font-size="14.00">u000f</text>
</g>
<!-- 5 -->
<g id="node6" class="node"><title>5</title>
<ellipse fill="none" stroke="black" cx="694" cy="-198" rx="18" ry="18"/>
</g>
<!-- 4&#45;&gt;5 -->
<g id="edge5" class="edge"><title>4&#45;&gt;5</title>
<path fill="none" stroke="black" d="M594.116,-198C612.964,-198 643.531,-198 665.696,-198"/>
<polygon fill="black" stroke="black" points="665.814,-201.5 675.814,-198 665.814,-194.5 665.814,-201.5"/>
<text text-anchor="middle" x="635" y="-201.8" font-family="Times,serif" font-size="14.00">u0002</text>
</g>
<!-- 6 -->
<g id="node7" class="node"><title>6</title>
<ellipse fill="none" stroke="black" cx="812" cy="-278" rx="18" ry="18"/>
</g>
<!-- 5&#45;&gt;6 -->
<g id="edge6" class="edge"><title>5&#45;&gt;6</title>
<path fill="none" stroke="black" d="M703.279,-213.642C709.452,-224.023 718.743,-237.291 730,-246 746.043,-258.413 767.516,-266.604 784.322,-271.589"/>
<polygon fill="black" stroke="black" points="783.522,-274.999 794.093,-274.288 785.386,-268.252 783.522,-274.999"/>
<text text-anchor="middle" x="753" y="-271.8" font-family="Times,serif" font-size="14.00">u000d</text>
</g>
<!-- 7 -->
<g id="node13" class="node"><title>7</title>
<ellipse fill="none" stroke="black" cx="1691" cy="-263" rx="18" ry="18"/>
</g>
<!-- 5&#45;&gt;7 -->
<g id="edge7" class="edge"><title>5&#45;&gt;7</title>
<path fill="none" stroke="black" d="M710.71,-205.715C732.621,-215.747 773.855,-232 811,-232 811,-232 811,-232 1564,-232 1599.64,-232 1639.35,-243.839 1664.49,-252.884"/>
<polygon fill="black" stroke="black" points="1663.41,-256.217 1674,-256.426 1665.85,-249.657 1663.41,-256.217"/>
<text text-anchor="middle" x="1181" y="-235.8" font-family="Times,serif" font-size="14.00">u000c</text>
</g>
<!-- 8 -->
<g id="node41" class="node"><title>8</title>
<ellipse fill="none" stroke="black" cx="871" cy="-177" rx="18" ry="18"/>
</g>
<!-- 5&#45;&gt;8 -->
<g id="edge8" class="edge"><title>5&#45;&gt;8</title>
<path fill="none" stroke="black" d="M712.098,-195.948C742.496,-192.301 806.17,-184.66 842.694,-180.277"/>
<polygon fill="black" stroke="black" points="843.578,-183.696 853.09,-179.029 842.744,-176.746 843.578,-183.696"/>
<text text-anchor="middle" x="753" y="-197.8" font-family="Times,serif" font-size="14.00">u0006</text>
</g>
<!-- 9 -->
<g id="node49" class="node"><title>9</title>
<ellipse fill="none" stroke="black" cx="812" cy="-72" rx="18" ry="18"/>
</g>
<!-- 5&#45;&gt;9 -->
<g id="edge9" class="edge"><title>5&#45;&gt;9</title>
<path fill="none" stroke="black" d="M703.068,-182.422C709.528,-170.689 719.259,-154.538 730,-142 747.608,-121.446 771.392,-101.627 788.629,-88.3559"/>
<polygon fill="black" stroke="black" points="791.113,-90.8663 796.979,-82.044 786.891,-85.2823 791.113,-90.8663"/>
<text text-anchor="middle" x="753" y="-145.8" font-family="Times,serif" font-size="14.00">u0000</text>
</g>
<!-- 10 -->
<g id="node8" class="node"><title>10</title>
<ellipse fill="none" stroke="black" cx="930" cy="-278" rx="18" ry="18"/>
</g>
<!-- 6&#45;&gt;10 -->
<g id="edge10" class="edge"><title>6&#45;&gt;10</title>
<path fill="none" stroke="black" d="M830.116,-278C848.964,-278 879.531,-278 901.696,-278"/>
<polygon fill="black" stroke="black" points="901.814,-281.5 911.814,-278 901.814,-274.5 901.814,-281.5"/>
<text text-anchor="middle" x="871" y="-281.8" font-family="Times,serif" font-size="14.00">u0006</text>
</g>
<!-- 17 -->
<g id="node9" class="node"><title>17</title>
<ellipse fill="none" stroke="black" cx="1053" cy="-320" rx="18" ry="18"/>
</g>
<!-- 10&#45;&gt;17 -->
<g id="edge11" class="edge"><title>10&#45;&gt;17</title>
<path fill="none" stroke="black" d="M947.319,-283.664C967.526,-290.678 1002.19,-302.711 1026.06,-310.996"/>
<polygon fill="black" stroke="black" points="1024.96,-314.319 1035.55,-314.291 1027.25,-307.706 1024.96,-314.319"/>
<text text-anchor="middle" x="989" y="-308.8" font-family="Times,serif" font-size="14.00">u0004</text>
</g>
<!-- 25 -->
<g id="node10" class="node"><title>25</title>
<ellipse fill="none" stroke="black" cx="1245" cy="-352" rx="18" ry="18"/>
</g>
<!-- 17&#45;&gt;25 -->
<g id="edge12" class="edge"><title>17&#45;&gt;25</title>
<path fill="none" stroke="black" d="M1070.86,-322.84C1103.89,-328.402 1177.35,-340.774 1217.14,-347.476"/>
<polygon fill="black" stroke="black" points="1216.73,-350.957 1227.18,-349.167 1217.9,-344.054 1216.73,-350.957"/>
<text text-anchor="middle" x="1117" y="-336.8" font-family="Times,serif" font-size="14.00">u0005</text>
</g>
<!-- 33 -->
<g id="node11" class="node"><title>33</title>
<ellipse fill="none" stroke="black" cx="3298" cy="-190" rx="18" ry="18"/>
</g>
<!-- 25&#45;&gt;33 -->
<g id="edge13" class="edge"><title>25&#45;&gt;33</title>
<path fill="none" stroke="black" d="M1262.51,-356.34C1286.38,-362.222 1332.01,-372 1371.5,-372 1371.5,-372 1371.5,-372 3181,-372 3253.24,-372 3282.46,-268.784 3292.49,-217.811"/>
<polygon fill="black" stroke="black" points="3295.97,-218.252 3294.34,-207.782 3289.08,-216.978 3295.97,-218.252"/>
<text text-anchor="middle" x="2256" y="-375.8" font-family="Times,serif" font-size="14.00">u000b</text>
</g>
<!-- 42 -->
<g id="node12" class="node"><title>42</title>
<ellipse fill="none" stroke="black" cx="3420" cy="-190" rx="18" ry="18"/>
<ellipse fill="none" stroke="black" cx="3420" cy="-190" rx="22" ry="22"/>
</g>
<!-- 33&#45;&gt;42 -->
<g id="edge14" class="edge"><title>33&#45;&gt;42</title>
<path fill="none" stroke="black" d="M3316.19,-190C3334.77,-190 3364.76,-190 3387.57,-190"/>
<polygon fill="black" stroke="black" points="3387.79,-193.5 3397.79,-190 3387.79,-186.5 3387.79,-193.5"/>
<text text-anchor="middle" x="3357" y="-193.8" font-family="Times,serif" font-size="14.00">u0007</text>
</g>
<!-- 11 -->
<g id="node14" class="node"><title>11</title>
<ellipse fill="none" stroke="black" cx="2433" cy="-326" rx="18" ry="18"/>
</g>
<!-- 7&#45;&gt;11 -->
<g id="edge15" class="edge"><title>7&#45;&gt;11</title>
<path fill="none" stroke="black" d="M1704.85,-274.555C1726.45,-292.743 1772.15,-326 1817.5,-326 1817.5,-326 1817.5,-326 2316,-326 2346.25,-326 2380.94,-326 2404.44,-326"/>
<polygon fill="black" stroke="black" points="2404.71,-329.5 2414.71,-326 2404.71,-322.5 2404.71,-329.5"/>
<text text-anchor="middle" x="2074" y="-329.8" font-family="Times,serif" font-size="14.00">u000d</text>
</g>
<!-- 12 -->
<g id="node22" class="node"><title>12</title>
<ellipse fill="none" stroke="black" cx="1818.5" cy="-272" rx="18" ry="18"/>
</g>
<!-- 7&#45;&gt;12 -->
<g id="edge16" class="edge"><title>7&#45;&gt;12</title>
<path fill="none" stroke="black" d="M1709.19,-264.233C1730.12,-265.734 1765.74,-268.288 1790.38,-270.055"/>
<polygon fill="black" stroke="black" points="1790.3,-273.558 1800.52,-270.782 1790.8,-266.576 1790.3,-273.558"/>
<text text-anchor="middle" x="1755" y="-272.8" font-family="Times,serif" font-size="14.00">u000c</text>
</g>
<!-- 13 -->
<g id="node34" class="node"><title>13</title>
<ellipse fill="none" stroke="black" cx="1818.5" cy="-218" rx="18" ry="18"/>
</g>
<!-- 7&#45;&gt;13 -->
<g id="edge17" class="edge"><title>7&#45;&gt;13</title>
<path fill="none" stroke="black" d="M1707.83,-255.902C1715.13,-252.725 1723.95,-249.024 1732,-246 1751.62,-238.634 1774.15,-231.299 1791.16,-225.985"/>
<polygon fill="black" stroke="black" points="1792.44,-229.253 1800.96,-222.956 1790.38,-222.565 1792.44,-229.253"/>
<text text-anchor="middle" x="1755" y="-249.8" font-family="Times,serif" font-size="14.00">u0000</text>
</g>
<!-- 18 -->
<g id="node15" class="node"><title>18</title>
<ellipse fill="none" stroke="black" cx="2610" cy="-329" rx="18" ry="18"/>
</g>
<!-- 11&#45;&gt;18 -->
<g id="edge18" class="edge"><title>11&#45;&gt;18</title>
<path fill="none" stroke="black" d="M2451.1,-326.293C2481.42,-326.813 2544.84,-327.9 2581.41,-328.527"/>
<polygon fill="black" stroke="black" points="2581.77,-332.034 2591.83,-328.706 2581.89,-325.035 2581.77,-332.034"/>
<text text-anchor="middle" x="2492" y="-330.8" font-family="Times,serif" font-size="14.00">u000c</text>
</g>
<!-- 19 -->
<g id="node18" class="node"><title>19</title>
<ellipse fill="none" stroke="black" cx="2551" cy="-280" rx="18" ry="18"/>
</g>
<!-- 11&#45;&gt;19 -->
<g id="edge19" class="edge"><title>11&#45;&gt;19</title>
<path fill="none" stroke="black" d="M2444.81,-311.915C2451.08,-304.776 2459.58,-296.654 2469,-292 2485.73,-283.733 2506.59,-280.789 2522.96,-279.882"/>
<polygon fill="black" stroke="black" points="2523.1,-283.38 2532.97,-279.546 2522.86,-276.384 2523.1,-283.38"/>
<text text-anchor="middle" x="2492" y="-295.8" font-family="Times,serif" font-size="14.00">u0006</text>
</g>
<!-- 26 -->
<g id="node16" class="node"><title>26</title>
<ellipse fill="none" stroke="black" cx="2738" cy="-329" rx="18" ry="18"/>
</g>
<!-- 18&#45;&gt;26 -->
<g id="edge20" class="edge"><title>18&#45;&gt;26</title>
<path fill="none" stroke="black" d="M2628.26,-329C2649.27,-329 2685.03,-329 2709.77,-329"/>
<polygon fill="black" stroke="black" points="2709.95,-332.5 2719.95,-329 2709.95,-325.5 2709.95,-332.5"/>
<text text-anchor="middle" x="2674" y="-332.8" font-family="Times,serif" font-size="14.00">u0006</text>
</g>
<!-- 34 -->
<g id="node17" class="node"><title>34</title>
<ellipse fill="none" stroke="black" cx="2866" cy="-300" rx="18" ry="18"/>
</g>
<!-- 26&#45;&gt;34 -->
<g id="edge21" class="edge"><title>26&#45;&gt;34</title>
<path fill="none" stroke="black" d="M2755.73,-325.149C2776.82,-320.296 2813.32,-311.895 2838.28,-306.149"/>
<polygon fill="black" stroke="black" points="2839.24,-309.521 2848.2,-303.867 2837.67,-302.699 2839.24,-309.521"/>
<text text-anchor="middle" x="2802" y="-322.8" font-family="Times,serif" font-size="14.00">u0004</text>
</g>
<!-- 34&#45;&gt;33 -->
<g id="edge22" class="edge"><title>34&#45;&gt;33</title>
<path fill="none" stroke="black" d="M2884.39,-300C2908.54,-300 2953.59,-300 2992,-300 2992,-300 2992,-300 3181,-300 3230.01,-300 3266.59,-247.67 3284.58,-215.197"/>
<polygon fill="black" stroke="black" points="3287.75,-216.702 3289.36,-206.231 3281.57,-213.411 3287.75,-216.702"/>
<text text-anchor="middle" x="3057" y="-303.8" font-family="Times,serif" font-size="14.00">u0005</text>
</g>
<!-- 27 -->
<g id="node19" class="node"><title>27</title>
<ellipse fill="none" stroke="black" cx="2674" cy="-275" rx="18" ry="18"/>
</g>
<!-- 19&#45;&gt;27 -->
<g id="edge23" class="edge"><title>19&#45;&gt;27</title>
<path fill="none" stroke="black" d="M2569.08,-279.294C2589.08,-278.468 2622.45,-277.089 2645.98,-276.117"/>
<polygon fill="black" stroke="black" points="2646.16,-279.612 2656.01,-275.702 2645.87,-272.618 2646.16,-279.612"/>
<text text-anchor="middle" x="2610" y="-281.8" font-family="Times,serif" font-size="14.00">u0004</text>
</g>
<!-- 35 -->
<g id="node20" class="node"><title>35</title>
<ellipse fill="none" stroke="black" cx="2802" cy="-167" rx="18" ry="18"/>
</g>
<!-- 27&#45;&gt;35 -->
<g id="edge24" class="edge"><title>27&#45;&gt;35</title>
<path fill="none" stroke="black" d="M2692.1,-272.199C2711.26,-268.219 2742.09,-259.163 2761,-240 2776.42,-224.372 2767.93,-212.96 2779,-194 2780.16,-192.006 2781.47,-190.006 2782.85,-188.046"/>
<polygon fill="black" stroke="black" points="2785.83,-189.913 2789.16,-179.855 2780.29,-185.64 2785.83,-189.913"/>
<text text-anchor="middle" x="2738" y="-268.8" font-family="Times,serif" font-size="14.00">u0005</text>
</g>
<!-- 43 -->
<g id="node21" class="node"><title>43</title>
<ellipse fill="none" stroke="black" cx="2993" cy="-169" rx="18" ry="18"/>
</g>
<!-- 35&#45;&gt;43 -->
<g id="edge25" class="edge"><title>35&#45;&gt;43</title>
<path fill="none" stroke="black" d="M2820.11,-167.181C2852.98,-167.529 2925.24,-168.294 2964.8,-168.712"/>
<polygon fill="black" stroke="black" points="2964.76,-172.212 2974.8,-168.818 2964.83,-165.212 2964.76,-172.212"/>
<text text-anchor="middle" x="2866" y="-171.8" font-family="Times,serif" font-size="14.00">u0008</text>
</g>
<!-- 43&#45;&gt;33 -->
<g id="edge26" class="edge"><title>43&#45;&gt;33</title>
<path fill="none" stroke="black" d="M3011.16,-170.189C3061.47,-173.676 3208.9,-183.894 3270,-188.129"/>
<polygon fill="black" stroke="black" points="3269.81,-191.624 3280.03,-188.824 3270.3,-184.641 3269.81,-191.624"/>
<text text-anchor="middle" x="3121" y="-183.8" font-family="Times,serif" font-size="14.00">u0010</text>
</g>
<!-- 20 -->
<g id="node23" class="node"><title>20</title>
<ellipse fill="none" stroke="black" cx="1946" cy="-272" rx="18" ry="18"/>
</g>
<!-- 12&#45;&gt;20 -->
<g id="edge27" class="edge"><title>12&#45;&gt;20</title>
<path fill="none" stroke="black" d="M1836.69,-272C1857.51,-272 1892.84,-272 1917.47,-272"/>
<polygon fill="black" stroke="black" points="1917.62,-275.5 1927.62,-272 1917.62,-268.5 1917.62,-275.5"/>
<text text-anchor="middle" x="1882" y="-275.8" font-family="Times,serif" font-size="14.00">u000c</text>
</g>
<!-- 28 -->
<g id="node24" class="node"><title>28</title>
<ellipse fill="none" stroke="black" cx="2074" cy="-272" rx="18" ry="18"/>
</g>
<!-- 20&#45;&gt;28 -->
<g id="edge28" class="edge"><title>20&#45;&gt;28</title>
<path fill="none" stroke="black" d="M1964.26,-272C1985.27,-272 2021.03,-272 2045.77,-272"/>
<polygon fill="black" stroke="black" points="2045.95,-275.5 2055.95,-272 2045.95,-268.5 2045.95,-275.5"/>
<text text-anchor="middle" x="2010" y="-275.8" font-family="Times,serif" font-size="14.00">u000d</text>
</g>
<!-- 36 -->
<g id="node25" class="node"><title>36</title>
<ellipse fill="none" stroke="black" cx="2197" cy="-272" rx="18" ry="18"/>
</g>
<!-- 28&#45;&gt;36 -->
<g id="edge29" class="edge"><title>28&#45;&gt;36</title>
<path fill="none" stroke="black" d="M2092.08,-272C2111.96,-272 2145.08,-272 2168.58,-272"/>
<polygon fill="black" stroke="black" points="2168.62,-275.5 2178.62,-272 2168.62,-268.5 2168.62,-275.5"/>
<text text-anchor="middle" x="2138" y="-275.8" font-family="Times,serif" font-size="14.00">u0006</text>
</g>
<!-- 44 -->
<g id="node26" class="node"><title>44</title>
<ellipse fill="none" stroke="black" cx="2315" cy="-272" rx="18" ry="18"/>
</g>
<!-- 36&#45;&gt;44 -->
<g id="edge30" class="edge"><title>36&#45;&gt;44</title>
<path fill="none" stroke="black" d="M2215.12,-272C2233.96,-272 2264.53,-272 2286.7,-272"/>
<polygon fill="black" stroke="black" points="2286.81,-275.5 2296.81,-272 2286.81,-268.5 2286.81,-275.5"/>
<text text-anchor="middle" x="2256" y="-275.8" font-family="Times,serif" font-size="14.00">u0004</text>
</g>
<!-- 50 -->
<g id="node27" class="node"><title>50</title>
<ellipse fill="none" stroke="black" cx="2433" cy="-272" rx="18" ry="18"/>
</g>
<!-- 44&#45;&gt;50 -->
<g id="edge31" class="edge"><title>44&#45;&gt;50</title>
<path fill="none" stroke="black" d="M2333.12,-272C2351.96,-272 2382.53,-272 2404.7,-272"/>
<polygon fill="black" stroke="black" points="2404.81,-275.5 2414.81,-272 2404.81,-268.5 2404.81,-275.5"/>
<text text-anchor="middle" x="2374" y="-275.8" font-family="Times,serif" font-size="14.00">u0005</text>
</g>
<!-- 55 -->
<g id="node28" class="node"><title>55</title>
<ellipse fill="none" stroke="black" cx="2551" cy="-224" rx="18" ry="18"/>
</g>
<!-- 50&#45;&gt;55 -->
<g id="edge32" class="edge"><title>50&#45;&gt;55</title>
<path fill="none" stroke="black" d="M2450.13,-265.326C2469.43,-257.337 2501.99,-243.865 2524.67,-234.483"/>
<polygon fill="black" stroke="black" points="2526.11,-237.675 2534.01,-230.618 2523.43,-231.207 2526.11,-237.675"/>
<text text-anchor="middle" x="2492" y="-259.8" font-family="Times,serif" font-size="14.00">u000a</text>
</g>
<!-- 58 -->
<g id="node29" class="node"><title>58</title>
<ellipse fill="none" stroke="black" cx="2674" cy="-221" rx="18" ry="18"/>
</g>
<!-- 55&#45;&gt;58 -->
<g id="edge33" class="edge"><title>55&#45;&gt;58</title>
<path fill="none" stroke="black" d="M2569.08,-223.577C2588.96,-223.084 2622.08,-222.263 2645.58,-221.68"/>
<polygon fill="black" stroke="black" points="2645.71,-225.178 2655.62,-221.431 2645.53,-218.18 2645.71,-225.178"/>
<text text-anchor="middle" x="2610" y="-226.8" font-family="Times,serif" font-size="14.00">u000a</text>
</g>
<!-- 61 -->
<g id="node30" class="node"><title>61</title>
<ellipse fill="none" stroke="black" cx="2802" cy="-221" rx="18" ry="18"/>
</g>
<!-- 58&#45;&gt;61 -->
<g id="edge34" class="edge"><title>58&#45;&gt;61</title>
<path fill="none" stroke="black" d="M2692.26,-221C2713.27,-221 2749.03,-221 2773.77,-221"/>
<polygon fill="black" stroke="black" points="2773.95,-224.5 2783.95,-221 2773.95,-217.5 2773.95,-224.5"/>
<text text-anchor="middle" x="2738" y="-224.8" font-family="Times,serif" font-size="14.00">u0009</text>
</g>
<!-- 64 -->
<g id="node31" class="node"><title>64</title>
<ellipse fill="none" stroke="black" cx="2929.5" cy="-217" rx="18" ry="18"/>
</g>
<!-- 61&#45;&gt;64 -->
<g id="edge35" class="edge"><title>61&#45;&gt;64</title>
<path fill="none" stroke="black" d="M2820.19,-220.452C2841.01,-219.789 2876.34,-218.662 2900.97,-217.877"/>
<polygon fill="black" stroke="black" points="2901.23,-221.371 2911.12,-217.554 2901.01,-214.374 2901.23,-221.371"/>
<text text-anchor="middle" x="2866" y="-222.8" font-family="Times,serif" font-size="14.00">u0010</text>
</g>
<!-- 67 -->
<g id="node32" class="node"><title>67</title>
<ellipse fill="none" stroke="black" cx="3057" cy="-216" rx="18" ry="18"/>
</g>
<!-- 64&#45;&gt;67 -->
<g id="edge36" class="edge"><title>64&#45;&gt;67</title>
<path fill="none" stroke="black" d="M2947.69,-216.863C2968.51,-216.697 3003.84,-216.416 3028.47,-216.219"/>
<polygon fill="black" stroke="black" points="3028.65,-219.718 3038.62,-216.139 3028.59,-212.718 3028.65,-219.718"/>
<text text-anchor="middle" x="2993" y="-219.8" font-family="Times,serif" font-size="14.00">u0009</text>
</g>
<!-- 70 -->
<g id="node33" class="node"><title>70</title>
<ellipse fill="none" stroke="black" cx="3180" cy="-216" rx="18" ry="18"/>
</g>
<!-- 67&#45;&gt;70 -->
<g id="edge37" class="edge"><title>67&#45;&gt;70</title>
<path fill="none" stroke="black" d="M3075.08,-216C3094.96,-216 3128.08,-216 3151.58,-216"/>
<polygon fill="black" stroke="black" points="3151.62,-219.5 3161.62,-216 3151.62,-212.5 3151.62,-219.5"/>
<text text-anchor="middle" x="3121" y="-219.8" font-family="Times,serif" font-size="14.00">u000a</text>
</g>
<!-- 70&#45;&gt;33 -->
<g id="edge38" class="edge"><title>70&#45;&gt;33</title>
<path fill="none" stroke="black" d="M3197.62,-212.275C3216.55,-208.032 3247.75,-201.04 3270.14,-196.02"/>
<polygon fill="black" stroke="black" points="3271.04,-199.405 3280.03,-193.803 3269.51,-192.575 3271.04,-199.405"/>
<text text-anchor="middle" x="3239" y="-210.8" font-family="Times,serif" font-size="14.00">u0011</text>
</g>
<!-- 21 -->
<g id="node35" class="node"><title>21</title>
<ellipse fill="none" stroke="black" cx="1946" cy="-218" rx="18" ry="18"/>
</g>
<!-- 13&#45;&gt;21 -->
<g id="edge39" class="edge"><title>13&#45;&gt;21</title>
<path fill="none" stroke="black" d="M1836.69,-218C1857.51,-218 1892.84,-218 1917.47,-218"/>
<polygon fill="black" stroke="black" points="1917.62,-221.5 1927.62,-218 1917.62,-214.5 1917.62,-221.5"/>
<text text-anchor="middle" x="1882" y="-221.8" font-family="Times,serif" font-size="14.00">u0000</text>
</g>
<!-- 29 -->
<g id="node36" class="node"><title>29</title>
<ellipse fill="none" stroke="black" cx="2074" cy="-218" rx="18" ry="18"/>
</g>
<!-- 21&#45;&gt;29 -->
<g id="edge40" class="edge"><title>21&#45;&gt;29</title>
<path fill="none" stroke="black" d="M1964.26,-218C1985.27,-218 2021.03,-218 2045.77,-218"/>
<polygon fill="black" stroke="black" points="2045.95,-221.5 2055.95,-218 2045.95,-214.5 2045.95,-221.5"/>
<text text-anchor="middle" x="2010" y="-221.8" font-family="Times,serif" font-size="14.00">u0006</text>
</g>
<!-- 37 -->
<g id="node37" class="node"><title>37</title>
<ellipse fill="none" stroke="black" cx="2197" cy="-218" rx="18" ry="18"/>
</g>
<!-- 29&#45;&gt;37 -->
<g id="edge41" class="edge"><title>29&#45;&gt;37</title>
<path fill="none" stroke="black" d="M2092.08,-218C2111.96,-218 2145.08,-218 2168.58,-218"/>
<polygon fill="black" stroke="black" points="2168.62,-221.5 2178.62,-218 2168.62,-214.5 2168.62,-221.5"/>
<text text-anchor="middle" x="2138" y="-221.8" font-family="Times,serif" font-size="14.00">u0004</text>
</g>
<!-- 45 -->
<g id="node38" class="node"><title>45</title>
<ellipse fill="none" stroke="black" cx="2315" cy="-218" rx="18" ry="18"/>
</g>
<!-- 37&#45;&gt;45 -->
<g id="edge42" class="edge"><title>37&#45;&gt;45</title>
<path fill="none" stroke="black" d="M2215.12,-218C2233.96,-218 2264.53,-218 2286.7,-218"/>
<polygon fill="black" stroke="black" points="2286.81,-221.5 2296.81,-218 2286.81,-214.5 2286.81,-221.5"/>
<text text-anchor="middle" x="2256" y="-221.8" font-family="Times,serif" font-size="14.00">u0005</text>
</g>
<!-- 51 -->
<g id="node39" class="node"><title>51</title>
<ellipse fill="none" stroke="black" cx="2433" cy="-218" rx="18" ry="18"/>
</g>
<!-- 45&#45;&gt;51 -->
<g id="edge43" class="edge"><title>45&#45;&gt;51</title>
<path fill="none" stroke="black" d="M2333.12,-218C2351.96,-218 2382.53,-218 2404.7,-218"/>
<polygon fill="black" stroke="black" points="2404.81,-221.5 2414.81,-218 2404.81,-214.5 2404.81,-221.5"/>
<text text-anchor="middle" x="2374" y="-221.8" font-family="Times,serif" font-size="14.00">u0009</text>
</g>
<!-- 47 -->
<g id="node40" class="node"><title>47</title>
<ellipse fill="none" stroke="black" cx="2551" cy="-113" rx="18" ry="18"/>
</g>
<!-- 51&#45;&gt;47 -->
<g id="edge44" class="edge"><title>51&#45;&gt;47</title>
<path fill="none" stroke="black" d="M2450.67,-214.439C2468.67,-209.805 2497.17,-200.074 2515,-182 2529.26,-167.544 2523.56,-157.982 2533,-140 2533.61,-138.841 2534.25,-137.667 2534.91,-136.488"/>
<polygon fill="black" stroke="black" points="2538.09,-137.987 2540.22,-127.608 2532.08,-134.396 2538.09,-137.987"/>
<text text-anchor="middle" x="2492" y="-211.8" font-family="Times,serif" font-size="14.00">u0011</text>
</g>
<!-- 47&#45;&gt;33 -->
<g id="edge45" class="edge"><title>47&#45;&gt;33</title>
<path fill="none" stroke="black" d="M2569.23,-113.928C2592.69,-115.109 2636.01,-117 2673,-117 2673,-117 2673,-117 3181,-117 3220.42,-117 3257.39,-147.567 3278.58,-169.142"/>
<polygon fill="black" stroke="black" points="3276.24,-171.753 3285.65,-176.611 3281.32,-166.942 3276.24,-171.753"/>
<text text-anchor="middle" x="2929.5" y="-120.8" font-family="Times,serif" font-size="14.00">u000a</text>
</g>
<!-- 14 -->
<g id="node42" class="node"><title>14</title>
<ellipse fill="none" stroke="black" cx="2074" cy="-164" rx="18" ry="18"/>
</g>
<!-- 8&#45;&gt;14 -->
<g id="edge46" class="edge"><title>8&#45;&gt;14</title>
<path fill="none" stroke="black" d="M888.849,-174.156C911.372,-170.608 952.569,-165 988,-165 988,-165 988,-165 1947,-165 1981.07,-165 2020.32,-164.63 2045.84,-164.34"/>
<polygon fill="black" stroke="black" points="2045.92,-167.839 2055.88,-164.222 2045.84,-160.84 2045.92,-167.839"/>
<text text-anchor="middle" x="1436" y="-168.8" font-family="Times,serif" font-size="14.00">u0004</text>
</g>
<!-- 22 -->
<g id="node43" class="node"><title>22</title>
<ellipse fill="none" stroke="black" cx="2197" cy="-164" rx="18" ry="18"/>
</g>
<!-- 14&#45;&gt;22 -->
<g id="edge47" class="edge"><title>14&#45;&gt;22</title>
<path fill="none" stroke="black" d="M2092.08,-164C2111.96,-164 2145.08,-164 2168.58,-164"/>
<polygon fill="black" stroke="black" points="2168.62,-167.5 2178.62,-164 2168.62,-160.5 2168.62,-167.5"/>
<text text-anchor="middle" x="2138" y="-167.8" font-family="Times,serif" font-size="14.00">u0005</text>
</g>
<!-- 30 -->
<g id="node44" class="node"><title>30</title>
<ellipse fill="none" stroke="black" cx="2315" cy="-164" rx="18" ry="18"/>
</g>
<!-- 22&#45;&gt;30 -->
<g id="edge48" class="edge"><title>22&#45;&gt;30</title>
<path fill="none" stroke="black" d="M2215.12,-164C2233.96,-164 2264.53,-164 2286.7,-164"/>
<polygon fill="black" stroke="black" points="2286.81,-167.5 2296.81,-164 2286.81,-160.5 2286.81,-167.5"/>
<text text-anchor="middle" x="2256" y="-167.8" font-family="Times,serif" font-size="14.00">u0010</text>
</g>
<!-- 38 -->
<g id="node45" class="node"><title>38</title>
<ellipse fill="none" stroke="black" cx="2433" cy="-164" rx="18" ry="18"/>
</g>
<!-- 30&#45;&gt;38 -->
<g id="edge49" class="edge"><title>30&#45;&gt;38</title>
<path fill="none" stroke="black" d="M2333.12,-164C2351.96,-164 2382.53,-164 2404.7,-164"/>
<polygon fill="black" stroke="black" points="2404.81,-167.5 2414.81,-164 2404.81,-160.5 2404.81,-167.5"/>
<text text-anchor="middle" x="2374" y="-167.8" font-family="Times,serif" font-size="14.00">u0010</text>
</g>
<!-- 39 -->
<g id="node48" class="node"><title>39</title>
<ellipse fill="none" stroke="black" cx="2433" cy="-110" rx="18" ry="18"/>
</g>
<!-- 30&#45;&gt;39 -->
<g id="edge50" class="edge"><title>30&#45;&gt;39</title>
<path fill="none" stroke="black" d="M2331.18,-155.376C2337.28,-152.013 2344.41,-148.205 2351,-145 2369.37,-136.068 2390.57,-126.946 2406.68,-120.255"/>
<polygon fill="black" stroke="black" points="2408.06,-123.47 2415.98,-116.426 2405.4,-116.998 2408.06,-123.47"/>
<text text-anchor="middle" x="2374" y="-148.8" font-family="Times,serif" font-size="14.00">u000b</text>
</g>
<!-- 46 -->
<g id="node46" class="node"><title>46</title>
<ellipse fill="none" stroke="black" cx="2551" cy="-167" rx="18" ry="18"/>
</g>
<!-- 38&#45;&gt;46 -->
<g id="edge51" class="edge"><title>38&#45;&gt;46</title>
<path fill="none" stroke="black" d="M2451.12,-164.443C2469.96,-164.93 2500.53,-165.721 2522.7,-166.294"/>
<polygon fill="black" stroke="black" points="2522.73,-169.796 2532.81,-166.556 2522.91,-162.798 2522.73,-169.796"/>
<text text-anchor="middle" x="2492" y="-170.8" font-family="Times,serif" font-size="14.00">u0011</text>
</g>
<!-- 52 -->
<g id="node47" class="node"><title>52</title>
<ellipse fill="none" stroke="black" cx="2674" cy="-167" rx="18" ry="18"/>
</g>
<!-- 46&#45;&gt;52 -->
<g id="edge52" class="edge"><title>46&#45;&gt;52</title>
<path fill="none" stroke="black" d="M2569.08,-167C2588.96,-167 2622.08,-167 2645.58,-167"/>
<polygon fill="black" stroke="black" points="2645.62,-170.5 2655.62,-167 2645.62,-163.5 2645.62,-170.5"/>
<text text-anchor="middle" x="2610" y="-170.8" font-family="Times,serif" font-size="14.00">u0011</text>
</g>
<!-- 52&#45;&gt;35 -->
<g id="edge53" class="edge"><title>52&#45;&gt;35</title>
<path fill="none" stroke="black" d="M2692.26,-167C2713.27,-167 2749.03,-167 2773.77,-167"/>
<polygon fill="black" stroke="black" points="2773.95,-170.5 2783.95,-167 2773.95,-163.5 2773.95,-170.5"/>
<text text-anchor="middle" x="2738" y="-170.8" font-family="Times,serif" font-size="14.00">u000b</text>
</g>
<!-- 39&#45;&gt;47 -->
<g id="edge54" class="edge"><title>39&#45;&gt;47</title>
<path fill="none" stroke="black" d="M2451.12,-110.443C2469.96,-110.93 2500.53,-111.721 2522.7,-112.294"/>
<polygon fill="black" stroke="black" points="2522.73,-115.796 2532.81,-112.556 2522.91,-108.798 2522.73,-115.796"/>
<text text-anchor="middle" x="2492" y="-116.8" font-family="Times,serif" font-size="14.00">u0009</text>
</g>
<!-- 15 -->
<g id="node50" class="node"><title>15</title>
<ellipse fill="none" stroke="black" cx="989" cy="-72" rx="18" ry="18"/>
</g>
<!-- 9&#45;&gt;15 -->
<g id="edge55" class="edge"><title>9&#45;&gt;15</title>
<path fill="none" stroke="black" d="M830.098,-72C860.418,-72 923.844,-72 960.412,-72"/>
<polygon fill="black" stroke="black" points="960.832,-75.5001 970.832,-72 960.832,-68.5001 960.832,-75.5001"/>
<text text-anchor="middle" x="871" y="-75.8" font-family="Times,serif" font-size="14.00">u000c</text>
</g>
<!-- 16 -->
<g id="node61" class="node"><title>16</title>
<ellipse fill="none" stroke="black" cx="930" cy="-24" rx="18" ry="18"/>
</g>
<!-- 9&#45;&gt;16 -->
<g id="edge56" class="edge"><title>9&#45;&gt;16</title>
<path fill="none" stroke="black" d="M822.948,-57.3751C829.18,-49.4169 837.93,-40.1669 848,-35 864.572,-26.4968 885.443,-23.8213 901.848,-23.2329"/>
<polygon fill="black" stroke="black" points="901.939,-26.7321 911.894,-23.1074 901.851,-19.7327 901.939,-26.7321"/>
<text text-anchor="middle" x="871" y="-38.8" font-family="Times,serif" font-size="14.00">u0006</text>
</g>
<!-- 23 -->
<g id="node51" class="node"><title>23</title>
<ellipse fill="none" stroke="black" cx="1117" cy="-72" rx="18" ry="18"/>
</g>
<!-- 15&#45;&gt;23 -->
<g id="edge57" class="edge"><title>15&#45;&gt;23</title>
<path fill="none" stroke="black" d="M1007.26,-72C1028.27,-72 1064.03,-72 1088.77,-72"/>
<polygon fill="black" stroke="black" points="1088.95,-75.5001 1098.95,-72 1088.95,-68.5001 1088.95,-75.5001"/>
<text text-anchor="middle" x="1053" y="-75.8" font-family="Times,serif" font-size="14.00">u0000</text>
</g>
<!-- 31 -->
<g id="node52" class="node"><title>31</title>
<ellipse fill="none" stroke="black" cx="1245" cy="-72" rx="18" ry="18"/>
</g>
<!-- 23&#45;&gt;31 -->
<g id="edge58" class="edge"><title>23&#45;&gt;31</title>
<path fill="none" stroke="black" d="M1135.26,-72C1156.27,-72 1192.03,-72 1216.77,-72"/>
<polygon fill="black" stroke="black" points="1216.95,-75.5001 1226.95,-72 1216.95,-68.5001 1216.95,-75.5001"/>
<text text-anchor="middle" x="1181" y="-75.8" font-family="Times,serif" font-size="14.00">u000d</text>
</g>
<!-- 40 -->
<g id="node53" class="node"><title>40</title>
<ellipse fill="none" stroke="black" cx="1372.5" cy="-72" rx="18" ry="18"/>
</g>
<!-- 31&#45;&gt;40 -->
<g id="edge59" class="edge"><title>31&#45;&gt;40</title>
<path fill="none" stroke="black" d="M1263.19,-72C1284.01,-72 1319.34,-72 1343.97,-72"/>
<polygon fill="black" stroke="black" points="1344.12,-75.5001 1354.12,-72 1344.12,-68.5001 1344.12,-75.5001"/>
<text text-anchor="middle" x="1309" y="-75.8" font-family="Times,serif" font-size="14.00">u000d</text>
</g>
<!-- 48 -->
<g id="node54" class="node"><title>48</title>
<ellipse fill="none" stroke="black" cx="1499.5" cy="-72" rx="18" ry="18"/>
</g>
<!-- 40&#45;&gt;48 -->
<g id="edge60" class="edge"><title>40&#45;&gt;48</title>
<path fill="none" stroke="black" d="M1390.62,-72C1411.35,-72 1446.55,-72 1471.08,-72"/>
<polygon fill="black" stroke="black" points="1471.19,-75.5001 1481.19,-72 1471.19,-68.5001 1471.19,-75.5001"/>
<text text-anchor="middle" x="1436" y="-75.8" font-family="Times,serif" font-size="14.00">u000d</text>
</g>
<!-- 53 -->
<g id="node55" class="node"><title>53</title>
<ellipse fill="none" stroke="black" cx="1627" cy="-72" rx="18" ry="18"/>
</g>
<!-- 48&#45;&gt;53 -->
<g id="edge61" class="edge"><title>48&#45;&gt;53</title>
<path fill="none" stroke="black" d="M1517.69,-72C1538.51,-72 1573.84,-72 1598.47,-72"/>
<polygon fill="black" stroke="black" points="1598.62,-75.5001 1608.62,-72 1598.62,-68.5001 1598.62,-75.5001"/>
<text text-anchor="middle" x="1563" y="-75.8" font-family="Times,serif" font-size="14.00">u000d</text>
</g>
<!-- 56 -->
<g id="node56" class="node"><title>56</title>
<ellipse fill="none" stroke="black" cx="1755" cy="-72" rx="18" ry="18"/>
</g>
<!-- 53&#45;&gt;56 -->
<g id="edge62" class="edge"><title>53&#45;&gt;56</title>
<path fill="none" stroke="black" d="M1645.26,-72C1666.27,-72 1702.03,-72 1726.77,-72"/>
<polygon fill="black" stroke="black" points="1726.95,-75.5001 1736.95,-72 1726.95,-68.5001 1726.95,-75.5001"/>
<text text-anchor="middle" x="1691" y="-75.8" font-family="Times,serif" font-size="14.00">u000d</text>
</g>
<!-- 59 -->
<g id="node57" class="node"><title>59</title>
<ellipse fill="none" stroke="black" cx="1882" cy="-72" rx="18" ry="18"/>
</g>
<!-- 56&#45;&gt;59 -->
<g id="edge63" class="edge"><title>56&#45;&gt;59</title>
<path fill="none" stroke="black" d="M1773.12,-72C1793.85,-72 1829.05,-72 1853.58,-72"/>
<polygon fill="black" stroke="black" points="1853.69,-75.5001 1863.69,-72 1853.69,-68.5001 1853.69,-75.5001"/>
<text text-anchor="middle" x="1818.5" y="-75.8" font-family="Times,serif" font-size="14.00">u000c</text>
</g>
<!-- 62 -->
<g id="node58" class="node"><title>62</title>
<ellipse fill="none" stroke="black" cx="2010" cy="-72" rx="18" ry="18"/>
</g>
<!-- 59&#45;&gt;62 -->
<g id="edge64" class="edge"><title>59&#45;&gt;62</title>
<path fill="none" stroke="black" d="M1900.26,-72C1921.27,-72 1957.03,-72 1981.77,-72"/>
<polygon fill="black" stroke="black" points="1981.95,-75.5001 1991.95,-72 1981.95,-68.5001 1981.95,-75.5001"/>
<text text-anchor="middle" x="1946" y="-75.8" font-family="Times,serif" font-size="14.00">u0006</text>
</g>
<!-- 65 -->
<g id="node59" class="node"><title>65</title>
<ellipse fill="none" stroke="black" cx="2138" cy="-68" rx="18" ry="18"/>
</g>
<!-- 62&#45;&gt;65 -->
<g id="edge65" class="edge"><title>62&#45;&gt;65</title>
<path fill="none" stroke="black" d="M2027.99,-71.4605C2048.94,-70.7955 2084.81,-69.6568 2109.65,-68.8681"/>
<polygon fill="black" stroke="black" points="2109.99,-72.3593 2119.87,-68.5437 2109.77,-65.3628 2109.99,-72.3593"/>
<text text-anchor="middle" x="2074" y="-74.8" font-family="Times,serif" font-size="14.00">u0004</text>
</g>
<!-- 68 -->
<g id="node60" class="node"><title>68</title>
<ellipse fill="none" stroke="black" cx="3180" cy="-64" rx="18" ry="18"/>
</g>
<!-- 65&#45;&gt;68 -->
<g id="edge66" class="edge"><title>65&#45;&gt;68</title>
<path fill="none" stroke="black" d="M2156.29,-67.0317C2178.95,-65.8479 2219.94,-64 2255,-64 2255,-64 2255,-64 3058,-64 3090.21,-64 3127.23,-64 3151.76,-64"/>
<polygon fill="black" stroke="black" points="3151.77,-67.5001 3161.77,-64 3151.77,-60.5001 3151.77,-67.5001"/>
<text text-anchor="middle" x="2610" y="-67.8" font-family="Times,serif" font-size="14.00">u0005</text>
</g>
<!-- 68&#45;&gt;33 -->
<g id="edge67" class="edge"><title>68&#45;&gt;33</title>
<path fill="none" stroke="black" d="M3198.14,-64.6225C3216.28,-66.1881 3244.63,-71.3567 3262,-88 3282.19,-107.347 3290.73,-138.835 3294.35,-161.714"/>
<polygon fill="black" stroke="black" points="3290.91,-162.414 3295.72,-171.854 3297.85,-161.474 3290.91,-162.414"/>
<text text-anchor="middle" x="3239" y="-91.8" font-family="Times,serif" font-size="14.00">u0008</text>
</g>
<!-- 24 -->
<g id="node62" class="node"><title>24</title>
<ellipse fill="none" stroke="black" cx="1053" cy="-18" rx="18" ry="18"/>
</g>
<!-- 16&#45;&gt;24 -->
<g id="edge68" class="edge"><title>16&#45;&gt;24</title>
<path fill="none" stroke="black" d="M948.08,-23.1531C968.078,-22.1614 1001.45,-20.5064 1024.98,-19.34"/>
<polygon fill="black" stroke="black" points="1025.19,-22.8337 1035.01,-18.8426 1024.85,-15.8423 1025.19,-22.8337"/>
<text text-anchor="middle" x="989" y="-26.8" font-family="Times,serif" font-size="14.00">u0004</text>
</g>
<!-- 32 -->
<g id="node63" class="node"><title>32</title>
<ellipse fill="none" stroke="black" cx="1181" cy="-18" rx="18" ry="18"/>
</g>
<!-- 24&#45;&gt;32 -->
<g id="edge69" class="edge"><title>24&#45;&gt;32</title>
<path fill="none" stroke="black" d="M1071.26,-18C1092.27,-18 1128.03,-18 1152.77,-18"/>
<polygon fill="black" stroke="black" points="1152.95,-21.5001 1162.95,-18 1152.95,-14.5001 1152.95,-21.5001"/>
<text text-anchor="middle" x="1117" y="-21.8" font-family="Times,serif" font-size="14.00">u0005</text>
</g>
<!-- 41 -->
<g id="node64" class="node"><title>41</title>
<ellipse fill="none" stroke="black" cx="1309" cy="-18" rx="18" ry="18"/>
</g>
<!-- 32&#45;&gt;41 -->
<g id="edge70" class="edge"><title>32&#45;&gt;41</title>
<path fill="none" stroke="black" d="M1199.26,-18C1220.27,-18 1256.03,-18 1280.77,-18"/>
<polygon fill="black" stroke="black" points="1280.95,-21.5001 1290.95,-18 1280.95,-14.5001 1280.95,-21.5001"/>
<text text-anchor="middle" x="1245" y="-21.8" font-family="Times,serif" font-size="14.00">u0011</text>
</g>
<!-- 49 -->
<g id="node65" class="node"><title>49</title>
<ellipse fill="none" stroke="black" cx="1436" cy="-18" rx="18" ry="18"/>
</g>
<!-- 41&#45;&gt;49 -->
<g id="edge71" class="edge"><title>41&#45;&gt;49</title>
<path fill="none" stroke="black" d="M1327.12,-18C1347.85,-18 1383.05,-18 1407.58,-18"/>
<polygon fill="black" stroke="black" points="1407.69,-21.5001 1417.69,-18 1407.69,-14.5001 1407.69,-21.5001"/>
<text text-anchor="middle" x="1372.5" y="-21.8" font-family="Times,serif" font-size="14.00">u000a</text>
</g>
<!-- 54 -->
<g id="node66" class="node"><title>54</title>
<ellipse fill="none" stroke="black" cx="1563" cy="-18" rx="18" ry="18"/>
</g>
<!-- 49&#45;&gt;54 -->
<g id="edge72" class="edge"><title>49&#45;&gt;54</title>
<path fill="none" stroke="black" d="M1454.12,-18C1474.85,-18 1510.05,-18 1534.58,-18"/>
<polygon fill="black" stroke="black" points="1534.69,-21.5001 1544.69,-18 1534.69,-14.5001 1534.69,-21.5001"/>
<text text-anchor="middle" x="1499.5" y="-21.8" font-family="Times,serif" font-size="14.00">u000a</text>
</g>
<!-- 57 -->
<g id="node67" class="node"><title>57</title>
<ellipse fill="none" stroke="black" cx="1691" cy="-18" rx="18" ry="18"/>
</g>
<!-- 54&#45;&gt;57 -->
<g id="edge73" class="edge"><title>54&#45;&gt;57</title>
<path fill="none" stroke="black" d="M1581.26,-18C1602.27,-18 1638.03,-18 1662.77,-18"/>
<polygon fill="black" stroke="black" points="1662.95,-21.5001 1672.95,-18 1662.95,-14.5001 1662.95,-21.5001"/>
<text text-anchor="middle" x="1627" y="-21.8" font-family="Times,serif" font-size="14.00">u000b</text>
</g>
<!-- 60 -->
<g id="node68" class="node"><title>60</title>
<ellipse fill="none" stroke="black" cx="1818.5" cy="-18" rx="18" ry="18"/>
</g>
<!-- 57&#45;&gt;60 -->
<g id="edge74" class="edge"><title>57&#45;&gt;60</title>
<path fill="none" stroke="black" d="M1709.19,-18C1730.01,-18 1765.34,-18 1789.97,-18"/>
<polygon fill="black" stroke="black" points="1790.12,-21.5001 1800.12,-18 1790.12,-14.5001 1790.12,-21.5001"/>
<text text-anchor="middle" x="1755" y="-21.8" font-family="Times,serif" font-size="14.00">u0010</text>
</g>
<!-- 63 -->
<g id="node69" class="node"><title>63</title>
<ellipse fill="none" stroke="black" cx="1946" cy="-18" rx="18" ry="18"/>
</g>
<!-- 60&#45;&gt;63 -->
<g id="edge75" class="edge"><title>60&#45;&gt;63</title>
<path fill="none" stroke="black" d="M1836.69,-18C1857.51,-18 1892.84,-18 1917.47,-18"/>
<polygon fill="black" stroke="black" points="1917.62,-21.5001 1927.62,-18 1917.62,-14.5001 1917.62,-21.5001"/>
<text text-anchor="middle" x="1882" y="-21.8" font-family="Times,serif" font-size="14.00">u0009</text>
</g>
<!-- 66 -->
<g id="node70" class="node"><title>66</title>
<ellipse fill="none" stroke="black" cx="2074" cy="-18" rx="18" ry="18"/>
</g>
<!-- 63&#45;&gt;66 -->
<g id="edge76" class="edge"><title>63&#45;&gt;66</title>
<path fill="none" stroke="black" d="M1964.26,-18C1985.27,-18 2021.03,-18 2045.77,-18"/>
<polygon fill="black" stroke="black" points="2045.95,-21.5001 2055.95,-18 2045.95,-14.5001 2045.95,-21.5001"/>
<text text-anchor="middle" x="2010" y="-21.8" font-family="Times,serif" font-size="14.00">u0011</text>
</g>
<!-- 69 -->
<g id="node71" class="node"><title>69</title>
<ellipse fill="none" stroke="black" cx="2197" cy="-18" rx="18" ry="18"/>
</g>
<!-- 66&#45;&gt;69 -->
<g id="edge77" class="edge"><title>66&#45;&gt;69</title>
<path fill="none" stroke="black" d="M2092.08,-18C2111.96,-18 2145.08,-18 2168.58,-18"/>
<polygon fill="black" stroke="black" points="2168.62,-21.5001 2178.62,-18 2168.62,-14.5001 2168.62,-21.5001"/>
<text text-anchor="middle" x="2138" y="-21.8" font-family="Times,serif" font-size="14.00">u000b</text>
</g>
<!-- 71 -->
<g id="node72" class="node"><title>71</title>
<ellipse fill="none" stroke="black" cx="2315" cy="-18" rx="18" ry="18"/>
</g>
<!-- 69&#45;&gt;71 -->
<g id="edge78" class="edge"><title>69&#45;&gt;71</title>
<path fill="none" stroke="black" d="M2215.12,-18C2233.96,-18 2264.53,-18 2286.7,-18"/>
<polygon fill="black" stroke="black" points="2286.81,-21.5001 2296.81,-18 2286.81,-14.5001 2286.81,-21.5001"/>
<text text-anchor="middle" x="2256" y="-21.8" font-family="Times,serif" font-size="14.00">u0010</text>
</g>
<!-- 72 -->
<g id="node73" class="node"><title>72</title>
<ellipse fill="none" stroke="black" cx="2433" cy="-18" rx="18" ry="18"/>
</g>
<!-- 71&#45;&gt;72 -->
<g id="edge79" class="edge"><title>71&#45;&gt;72</title>
<path fill="none" stroke="black" d="M2333.12,-18C2351.96,-18 2382.53,-18 2404.7,-18"/>
<polygon fill="black" stroke="black" points="2404.81,-21.5001 2414.81,-18 2404.81,-14.5001 2404.81,-21.5001"/>
<text text-anchor="middle" x="2374" y="-21.8" font-family="Times,serif" font-size="14.00">u0009</text>
</g>
<!-- 73 -->
<g id="node74" class="node"><title>73</title>
<ellipse fill="none" stroke="black" cx="2551" cy="-18" rx="18" ry="18"/>
</g>
<!-- 72&#45;&gt;73 -->
<g id="edge80" class="edge"><title>72&#45;&gt;73</title>
<path fill="none" stroke="black" d="M2451.12,-18C2469.96,-18 2500.53,-18 2522.7,-18"/>
<polygon fill="black" stroke="black" points="2522.81,-21.5001 2532.81,-18 2522.81,-14.5001 2522.81,-21.5001"/>
<text text-anchor="middle" x="2492" y="-21.8" font-family="Times,serif" font-size="14.00">u000a</text>
</g>
<!-- 74 -->
<g id="node75" class="node"><title>74</title>
<ellipse fill="none" stroke="black" cx="2674" cy="-18" rx="18" ry="18"/>
</g>
<!-- 73&#45;&gt;74 -->
<g id="edge81" class="edge"><title>73&#45;&gt;74</title>
<path fill="none" stroke="black" d="M2569.08,-18C2588.96,-18 2622.08,-18 2645.58,-18"/>
<polygon fill="black" stroke="black" points="2645.62,-21.5001 2655.62,-18 2645.62,-14.5001 2645.62,-21.5001"/>
<text text-anchor="middle" x="2610" y="-21.8" font-family="Times,serif" font-size="14.00">u0008</text>
</g>
<!-- 75 -->
<g id="node76" class="node"><title>75</title>
<ellipse fill="none" stroke="black" cx="2802" cy="-18" rx="18" ry="18"/>
</g>
<!-- 74&#45;&gt;75 -->
<g id="edge82" class="edge"><title>74&#45;&gt;75</title>
<path fill="none" stroke="black" d="M2692.26,-18C2713.27,-18 2749.03,-18 2773.77,-18"/>
<polygon fill="black" stroke="black" points="2773.95,-21.5001 2783.95,-18 2773.95,-14.5001 2773.95,-21.5001"/>
<text text-anchor="middle" x="2738" y="-21.8" font-family="Times,serif" font-size="14.00">u0008</text>
</g>
<!-- 76 -->
<g id="node77" class="node"><title>76</title>
<ellipse fill="none" stroke="black" cx="2929.5" cy="-18" rx="18" ry="18"/>
</g>
<!-- 75&#45;&gt;76 -->
<g id="edge83" class="edge"><title>75&#45;&gt;76</title>
<path fill="none" stroke="black" d="M2820.19,-18C2841.01,-18 2876.34,-18 2900.97,-18"/>
<polygon fill="black" stroke="black" points="2901.12,-21.5001 2911.12,-18 2901.12,-14.5001 2901.12,-21.5001"/>
<text text-anchor="middle" x="2866" y="-21.8" font-family="Times,serif" font-size="14.00">u000b</text>
</g>
<!-- 77 -->
<g id="node78" class="node"><title>77</title>
<ellipse fill="none" stroke="black" cx="3057" cy="-18" rx="18" ry="18"/>
</g>
<!-- 76&#45;&gt;77 -->
<g id="edge84" class="edge"><title>76&#45;&gt;77</title>
<path fill="none" stroke="black" d="M2947.69,-18C2968.51,-18 3003.84,-18 3028.47,-18"/>
<polygon fill="black" stroke="black" points="3028.62,-21.5001 3038.62,-18 3028.62,-14.5001 3028.62,-21.5001"/>
<text text-anchor="middle" x="2993" y="-21.8" font-family="Times,serif" font-size="14.00">u000b</text>
</g>
<!-- 77&#45;&gt;68 -->
<g id="edge85" class="edge"><title>77&#45;&gt;68</title>
<path fill="none" stroke="black" d="M3075.26,-18.9133C3093.21,-20.4221 3121.73,-24.4193 3144,-35 3149.26,-37.4975 3154.39,-40.9628 3159.03,-44.631"/>
<polygon fill="black" stroke="black" points="3156.92,-47.4285 3166.79,-51.2878 3161.48,-42.1177 3156.92,-47.4285"/>
<text text-anchor="middle" x="3121" y="-38.8" font-family="Times,serif" font-size="14.00">u000a</text>
</g>
<!-- initial -->
<g id="node79" class="node"><title>initial</title>
</g>
<!-- initial&#45;&gt;0 -->
<g id="edge86" class="edge"><title>initial&#45;&gt;0</title>
<path fill="none" stroke="black" d="M54.195,-198C62.6538,-198 72.0513,-198 80.5951,-198"/>
<polygon fill="black" stroke="black" points="80.8257,-201.5 90.8257,-198 80.8257,-194.5 80.8257,-201.5"/>
</g>
</g>
</svg>
