<svg width="3564px" height="620px"
 viewBox="0.00 0.00 2673.00 465.00" xmlns="http://www.w3.org/2000/svg" xmlns:xlink="http://www.w3.org/1999/xlink">
<g id="graph0" class="graph" transform="scale(1.000022500562514 1.000022500562514) rotate(0) translate(4 461)">
<title>Automaton</title>
<polygon fill="white" stroke="none" points="-4,4 -4,-461 2669,-461 2669,4 -4,4"/>
<!-- 0 -->
<g id="node1" class="node"><title>0</title>
<ellipse fill="none" stroke="black" cx="109" cy="-228" rx="18" ry="18"/>
</g>
<!-- 1 -->
<g id="node2" class="node"><title>1</title>
<ellipse fill="none" stroke="black" cx="227" cy="-228" rx="18" ry="18"/>
</g>
<!-- 0&#45;&gt;1 -->
<g id="edge1" class="edge"><title>0&#45;&gt;1</title>
<path fill="none" stroke="black" d="M127.116,-228C145.964,-228 176.531,-228 198.696,-228"/>
<polygon fill="black" stroke="black" points="198.814,-231.5 208.814,-228 198.814,-224.5 198.814,-231.5"/>
<text text-anchor="middle" x="168" y="-231.8" font-family="Times,serif" font-size="14.00">u0006</text>
</g>
<!-- 2 -->
<g id="node3" class="node"><title>2</title>
<ellipse fill="none" stroke="black" cx="345" cy="-228" rx="18" ry="18"/>
</g>
<!-- 1&#45;&gt;2 -->
<g id="edge2" class="edge"><title>1&#45;&gt;2</title>
<path fill="none" stroke="black" d="M245.116,-228C263.964,-228 294.531,-228 316.696,-228"/>
<polygon fill="black" stroke="black" points="316.814,-231.5 326.814,-228 316.814,-224.5 316.814,-231.5"/>
<text text-anchor="middle" x="286" y="-231.8" font-family="Times,serif" font-size="14.00">u0005</text>
</g>
<!-- 3 -->
<g id="node4" class="node"><title>3</title>
<ellipse fill="none" stroke="black" cx="463" cy="-228" rx="18" ry="18"/>
</g>
<!-- 2&#45;&gt;3 -->
<g id="edge3" class="edge"><title>2&#45;&gt;3</title>
<path fill="none" stroke="black" d="M363.116,-228C381.964,-228 412.531,-228 434.696,-228"/>
<polygon fill="black" stroke="black" points="434.814,-231.5 444.814,-228 434.814,-224.5 434.814,-231.5"/>
<text text-anchor="middle" x="404" y="-231.8" font-family="Times,serif" font-size="14.00">u0004</text>
</g>
<!-- 4 -->
<g id="node5" class="node"><title>4</title>
<ellipse fill="none" stroke="black" cx="581" cy="-228" rx="18" ry="18"/>
</g>
<!-- 3&#45;&gt;4 -->
<g id="edge4" class="edge"><title>3&#45;&gt;4</title>
<path fill="none" stroke="black" d="M481.116,-228C499.964,-228 530.531,-228 552.696,-228"/>
<polygon fill="black" stroke="black" points="552.814,-231.5 562.814,-228 552.814,-224.5 552.814,-231.5"/>
<text text-anchor="middle" x="522" y="-231.8" font-family="Times,serif" font-size="14.00">u0003</text>
</g>
<!-- 5 -->
<g id="node6" class="node"><title>5</title>
<ellipse fill="none" stroke="black" cx="699" cy="-228" rx="18" ry="18"/>
</g>
<!-- 4&#45;&gt;5 -->
<g id="edge5" class="edge"><title>4&#45;&gt;5</title>
<path fill="none" stroke="black" d="M599.116,-228C617.964,-228 648.531,-228 670.696,-228"/>
<polygon fill="black" stroke="black" points="670.814,-231.5 680.814,-228 670.814,-224.5 670.814,-231.5"/>
<text text-anchor="middle" x="640" y="-231.8" font-family="Times,serif" font-size="14.00">u0000</text>
</g>
<!-- 6 -->
<g id="node7" class="node"><title>6</title>
<ellipse fill="none" stroke="black" cx="817" cy="-228" rx="18" ry="18"/>
</g>
<!-- 5&#45;&gt;6 -->
<g id="edge6" class="edge"><title>5&#45;&gt;6</title>
<path fill="none" stroke="black" d="M717.116,-228C735.964,-228 766.531,-228 788.696,-228"/>
<polygon fill="black" stroke="black" points="788.814,-231.5 798.814,-228 788.814,-224.5 788.814,-231.5"/>
<text text-anchor="middle" x="758" y="-231.8" font-family="Times,serif" font-size="14.00">u0001</text>
</g>
<!-- 7 -->
<g id="node8" class="node"><title>7</title>
<ellipse fill="none" stroke="black" cx="935" cy="-228" rx="18" ry="18"/>
</g>
<!-- 6&#45;&gt;7 -->
<g id="edge7" class="edge"><title>6&#45;&gt;7</title>
<path fill="none" stroke="black" d="M835.116,-228C853.964,-228 884.531,-228 906.696,-228"/>
<polygon fill="black" stroke="black" points="906.814,-231.5 916.814,-228 906.814,-224.5 906.814,-231.5"/>
<text text-anchor="middle" x="876" y="-231.8" font-family="Times,serif" font-size="14.00">u0002</text>
</g>
<!-- 8 -->
<g id="node9" class="node"><title>8</title>
<ellipse fill="none" stroke="black" cx="1053" cy="-228" rx="18" ry="18"/>
</g>
<!-- 7&#45;&gt;8 -->
<g id="edge8" class="edge"><title>7&#45;&gt;8</title>
<path fill="none" stroke="black" d="M953.116,-228C971.964,-228 1002.53,-228 1024.7,-228"/>
<polygon fill="black" stroke="black" points="1024.81,-231.5 1034.81,-228 1024.81,-224.5 1024.81,-231.5"/>
<text text-anchor="middle" x="994" y="-231.8" font-family="Times,serif" font-size="14.00">u0007</text>
</g>
<!-- 9 -->
<g id="node10" class="node"><title>9</title>
<ellipse fill="none" stroke="black" cx="1171" cy="-228" rx="18" ry="18"/>
</g>
<!-- 8&#45;&gt;9 -->
<g id="edge9" class="edge"><title>8&#45;&gt;9</title>
<path fill="none" stroke="black" d="M1071.12,-228C1089.96,-228 1120.53,-228 1142.7,-228"/>
<polygon fill="black" stroke="black" points="1142.81,-231.5 1152.81,-228 1142.81,-224.5 1142.81,-231.5"/>
<text text-anchor="middle" x="1112" y="-231.8" font-family="Times,serif" font-size="14.00">u0008</text>
</g>
<!-- 10 -->
<g id="node11" class="node"><title>10</title>
<ellipse fill="none" stroke="black" cx="2643" cy="-274" rx="18" ry="18"/>
<ellipse fill="none" stroke="black" cx="2643" cy="-274" rx="22" ry="22"/>
</g>
<!-- 9&#45;&gt;10 -->
<g id="edge10" class="edge"><title>9&#45;&gt;10</title>
<path fill="none" stroke="black" d="M1173.26,-245.877C1177.95,-297.31 1199.04,-442 1288,-442 1288,-442 1288,-442 2517,-442 2563.1,-442 2574.77,-420.446 2603,-384 2620.83,-360.977 2630.94,-329.132 2636.37,-305.628"/>
<polygon fill="black" stroke="black" points="2639.8,-306.31 2638.48,-295.798 2632.96,-304.838 2639.8,-306.31"/>
<text text-anchor="middle" x="1889" y="-445.8" font-family="Times,serif" font-size="14.00">u0009</text>
</g>
<!-- 11 -->
<g id="node12" class="node"><title>11</title>
<ellipse fill="none" stroke="black" cx="2267" cy="-169" rx="18" ry="18"/>
</g>
<!-- 9&#45;&gt;11 -->
<g id="edge11" class="edge"><title>9&#45;&gt;11</title>
<path fill="none" stroke="black" d="M1187.21,-219.345C1208.87,-207.855 1250.18,-189 1288,-189 1288,-189 1288,-189 1826,-189 1982.42,-189 2169.8,-176.23 2238.79,-171.098"/>
<polygon fill="black" stroke="black" points="2239.11,-174.584 2248.82,-170.343 2238.59,-167.604 2239.11,-174.584"/>
<text text-anchor="middle" x="1707.5" y="-192.8" font-family="Times,serif" font-size="14.00">u000c</text>
</g>
<!-- 12 -->
<g id="node15" class="node"><title>12</title>
<ellipse fill="none" stroke="black" cx="1289" cy="-92" rx="18" ry="18"/>
</g>
<!-- 9&#45;&gt;12 -->
<g id="edge12" class="edge"><title>9&#45;&gt;12</title>
<path fill="none" stroke="black" d="M1178.4,-211.259C1184.43,-196.786 1194.41,-175.77 1207,-160 1223.68,-139.108 1247.6,-119.982 1265.11,-107.372"/>
<polygon fill="black" stroke="black" points="1267.45,-110.009 1273.62,-101.397 1263.43,-104.281 1267.45,-110.009"/>
<text text-anchor="middle" x="1230" y="-163.8" font-family="Times,serif" font-size="14.00">u000b</text>
</g>
<!-- 13 -->
<g id="node26" class="node"><title>13</title>
<ellipse fill="none" stroke="black" cx="1889" cy="-261" rx="18" ry="18"/>
</g>
<!-- 9&#45;&gt;13 -->
<g id="edge13" class="edge"><title>9&#45;&gt;13</title>
<path fill="none" stroke="black" d="M1188.79,-232.029C1211.25,-237.056 1252.38,-245 1288,-245 1288,-245 1288,-245 1767,-245 1799.67,-245 1836.88,-250.804 1861.31,-255.42"/>
<polygon fill="black" stroke="black" points="1860.77,-258.882 1871.26,-257.369 1862.12,-252.012 1860.77,-258.882"/>
<text text-anchor="middle" x="1527.5" y="-248.8" font-family="Times,serif" font-size="14.00">u000a</text>
</g>
<!-- 14 -->
<g id="node13" class="node"><title>14</title>
<ellipse fill="none" stroke="black" cx="2516" cy="-206" rx="18" ry="18"/>
</g>
<!-- 11&#45;&gt;14 -->
<g id="edge14" class="edge"><title>11&#45;&gt;14</title>
<path fill="none" stroke="black" d="M2285.01,-167.329C2312.11,-165.065 2366.67,-162.145 2412,-170 2439.59,-174.781 2469.66,-186.043 2490.14,-194.707"/>
<polygon fill="black" stroke="black" points="2488.81,-197.945 2499.38,-198.713 2491.6,-191.523 2488.81,-197.945"/>
<text text-anchor="middle" x="2389.5" y="-173.8" font-family="Times,serif" font-size="14.00">u000c</text>
</g>
<!-- 15 -->
<g id="node14" class="node"><title>15</title>
<ellipse fill="none" stroke="black" cx="2389.5" cy="-212" rx="18" ry="18"/>
</g>
<!-- 11&#45;&gt;15 -->
<g id="edge15" class="edge"><title>11&#45;&gt;15</title>
<path fill="none" stroke="black" d="M2284.19,-174.436C2300.57,-179.976 2326.62,-188.884 2349,-197 2353.47,-198.619 2358.2,-200.379 2362.78,-202.104"/>
<polygon fill="black" stroke="black" points="2361.81,-205.479 2372.4,-205.76 2364.29,-198.936 2361.81,-205.479"/>
<text text-anchor="middle" x="2326" y="-200.8" font-family="Times,serif" font-size="14.00">u000a</text>
</g>
<!-- 14&#45;&gt;10 -->
<g id="edge16" class="edge"><title>14&#45;&gt;10</title>
<path fill="none" stroke="black" d="M2533.04,-212.074C2550.71,-219.034 2579.7,-231.265 2603,-245 2607.82,-247.838 2612.75,-251.15 2617.42,-254.499"/>
<polygon fill="black" stroke="black" points="2615.35,-257.317 2625.46,-260.476 2619.52,-251.7 2615.35,-257.317"/>
<text text-anchor="middle" x="2580" y="-248.8" font-family="Times,serif" font-size="14.00">u0009</text>
</g>
<!-- 15&#45;&gt;14 -->
<g id="edge17" class="edge"><title>15&#45;&gt;14</title>
<path fill="none" stroke="black" d="M2407.37,-209.434C2414.36,-208.484 2422.55,-207.513 2430,-207 2449.2,-205.676 2470.9,-205.442 2487.57,-205.53"/>
<polygon fill="black" stroke="black" points="2487.69,-209.031 2497.72,-205.627 2487.75,-202.032 2487.69,-209.031"/>
<text text-anchor="middle" x="2452.5" y="-210.8" font-family="Times,serif" font-size="14.00">u000a</text>
</g>
<!-- 12&#45;&gt;10 -->
<g id="edge18" class="edge"><title>12&#45;&gt;10</title>
<path fill="none" stroke="black" d="M1299.3,-76.8081C1316.6,-50.6775 1356.42,-0 1405,-0 1405,-0 1405,-0 2517,-0 2621.94,-0 2639.16,-168.404 2641.71,-241.164"/>
<polygon fill="black" stroke="black" points="2638.22,-241.677 2642,-251.577 2645.22,-241.485 2638.22,-241.677"/>
<text text-anchor="middle" x="1953" y="-3.8" font-family="Times,serif" font-size="14.00">u0009</text>
</g>
<!-- 12&#45;&gt;14 -->
<g id="edge20" class="edge"><title>12&#45;&gt;14</title>
<path fill="none" stroke="black" d="M1307.15,-92C1329.62,-92 1370.26,-92 1405,-92 1405,-92 1405,-92 2390.5,-92 2443.01,-92 2483,-147.833 2502.27,-181.351"/>
<polygon fill="black" stroke="black" points="2499.24,-183.103 2507.15,-190.149 2505.36,-179.706 2499.24,-183.103"/>
<text text-anchor="middle" x="1889" y="-95.8" font-family="Times,serif" font-size="14.00">u000b</text>
</g>
<!-- 16 -->
<g id="node16" class="node"><title>16</title>
<ellipse fill="none" stroke="black" cx="1406" cy="-139" rx="18" ry="18"/>
</g>
<!-- 12&#45;&gt;16 -->
<g id="edge19" class="edge"><title>12&#45;&gt;16</title>
<path fill="none" stroke="black" d="M1305.99,-98.5351C1325.13,-106.357 1357.41,-119.548 1379.88,-128.735"/>
<polygon fill="black" stroke="black" points="1378.56,-131.977 1389.15,-132.52 1381.21,-125.497 1378.56,-131.977"/>
<text text-anchor="middle" x="1347.5" y="-127.8" font-family="Times,serif" font-size="14.00">u000c</text>
</g>
<!-- 17 -->
<g id="node24" class="node"><title>17</title>
<ellipse fill="none" stroke="black" cx="1406" cy="-46" rx="18" ry="18"/>
</g>
<!-- 12&#45;&gt;17 -->
<g id="edge21" class="edge"><title>12&#45;&gt;17</title>
<path fill="none" stroke="black" d="M1302.24,-79.3399C1308.53,-73.534 1316.62,-67.0557 1325,-63 1341.51,-55.0105 1361.73,-50.7554 1377.71,-48.5002"/>
<polygon fill="black" stroke="black" points="1378.5,-51.9297 1388,-47.2372 1377.65,-44.9819 1378.5,-51.9297"/>
<text text-anchor="middle" x="1347.5" y="-66.8" font-family="Times,serif" font-size="14.00">u000a</text>
</g>
<!-- 21 -->
<g id="node17" class="node"><title>21</title>
<ellipse fill="none" stroke="black" cx="1527.5" cy="-141" rx="18" ry="18"/>
</g>
<!-- 16&#45;&gt;21 -->
<g id="edge22" class="edge"><title>16&#45;&gt;21</title>
<path fill="none" stroke="black" d="M1424.12,-139.287C1443.73,-139.615 1476.13,-140.157 1499.22,-140.544"/>
<polygon fill="black" stroke="black" points="1499.35,-144.046 1509.41,-140.714 1499.47,-137.047 1499.35,-144.046"/>
<text text-anchor="middle" x="1464.5" y="-144.8" font-family="Times,serif" font-size="14.00">u000a</text>
</g>
<!-- 25 -->
<g id="node18" class="node"><title>25</title>
<ellipse fill="none" stroke="black" cx="1649" cy="-142" rx="18" ry="18"/>
</g>
<!-- 21&#45;&gt;25 -->
<g id="edge23" class="edge"><title>21&#45;&gt;25</title>
<path fill="none" stroke="black" d="M1545.62,-141.143C1565.23,-141.307 1597.63,-141.578 1620.72,-141.772"/>
<polygon fill="black" stroke="black" points="1620.88,-145.273 1630.91,-141.857 1620.94,-138.273 1620.88,-145.273"/>
<text text-anchor="middle" x="1590.5" y="-145.8" font-family="Times,serif" font-size="14.00">u000a</text>
</g>
<!-- 27 -->
<g id="node19" class="node"><title>27</title>
<ellipse fill="none" stroke="black" cx="1766" cy="-142" rx="18" ry="18"/>
</g>
<!-- 25&#45;&gt;27 -->
<g id="edge24" class="edge"><title>25&#45;&gt;27</title>
<path fill="none" stroke="black" d="M1667.47,-142C1686.06,-142 1715.76,-142 1737.5,-142"/>
<polygon fill="black" stroke="black" points="1737.75,-145.5 1747.75,-142 1737.75,-138.5 1737.75,-145.5"/>
<text text-anchor="middle" x="1707.5" y="-145.8" font-family="Times,serif" font-size="14.00">u000c</text>
</g>
<!-- 28 -->
<g id="node20" class="node"><title>28</title>
<ellipse fill="none" stroke="black" cx="1889" cy="-143" rx="18" ry="18"/>
</g>
<!-- 27&#45;&gt;28 -->
<g id="edge25" class="edge"><title>27&#45;&gt;28</title>
<path fill="none" stroke="black" d="M1784.08,-142.141C1803.96,-142.305 1837.08,-142.579 1860.58,-142.773"/>
<polygon fill="black" stroke="black" points="1860.59,-146.273 1870.62,-142.856 1860.64,-139.274 1860.59,-146.273"/>
<text text-anchor="middle" x="1825" y="-146.8" font-family="Times,serif" font-size="14.00">u000b</text>
</g>
<!-- 29 -->
<g id="node21" class="node"><title>29</title>
<ellipse fill="none" stroke="black" cx="2017" cy="-139" rx="18" ry="18"/>
</g>
<!-- 28&#45;&gt;29 -->
<g id="edge26" class="edge"><title>28&#45;&gt;29</title>
<path fill="none" stroke="black" d="M1906.99,-142.461C1927.94,-141.796 1963.81,-140.657 1988.65,-139.868"/>
<polygon fill="black" stroke="black" points="1988.99,-143.359 1998.87,-139.544 1988.77,-136.363 1988.99,-143.359"/>
<text text-anchor="middle" x="1953" y="-145.8" font-family="Times,serif" font-size="14.00">u000a</text>
</g>
<!-- 30 -->
<g id="node22" class="node"><title>30</title>
<ellipse fill="none" stroke="black" cx="2145" cy="-139" rx="18" ry="18"/>
</g>
<!-- 29&#45;&gt;30 -->
<g id="edge27" class="edge"><title>29&#45;&gt;30</title>
<path fill="none" stroke="black" d="M2035.26,-139C2056.27,-139 2092.03,-139 2116.77,-139"/>
<polygon fill="black" stroke="black" points="2116.95,-142.5 2126.95,-139 2116.95,-135.5 2116.95,-142.5"/>
<text text-anchor="middle" x="2081" y="-142.8" font-family="Times,serif" font-size="14.00">u000c</text>
</g>
<!-- 18 -->
<g id="node23" class="node"><title>18</title>
<ellipse fill="none" stroke="black" cx="2267" cy="-223" rx="18" ry="18"/>
</g>
<!-- 30&#45;&gt;18 -->
<g id="edge28" class="edge"><title>30&#45;&gt;18</title>
<path fill="none" stroke="black" d="M2160.79,-147.836C2178.03,-158.302 2207.19,-176.529 2231,-194 2235.69,-197.443 2240.59,-201.309 2245.17,-205.069"/>
<polygon fill="black" stroke="black" points="2243.08,-207.88 2253,-211.607 2247.57,-202.509 2243.08,-207.88"/>
<text text-anchor="middle" x="2208.5" y="-197.8" font-family="Times,serif" font-size="14.00">u000c</text>
</g>
<!-- 18&#45;&gt;15 -->
<g id="edge29" class="edge"><title>18&#45;&gt;15</title>
<path fill="none" stroke="black" d="M2285.01,-221.447C2304.81,-219.64 2337.79,-216.629 2361.19,-214.493"/>
<polygon fill="black" stroke="black" points="2361.55,-217.975 2371.19,-213.58 2360.91,-211.004 2361.55,-217.975"/>
<text text-anchor="middle" x="2326" y="-223.8" font-family="Times,serif" font-size="14.00">u000a</text>
</g>
<!-- 22 -->
<g id="node25" class="node"><title>22</title>
<ellipse fill="none" stroke="black" cx="1590.5" cy="-46" rx="18" ry="18"/>
</g>
<!-- 17&#45;&gt;22 -->
<g id="edge30" class="edge"><title>17&#45;&gt;22</title>
<path fill="none" stroke="black" d="M1424.17,-46C1455.83,-46 1523.65,-46 1561.86,-46"/>
<polygon fill="black" stroke="black" points="1562.24,-49.5001 1572.24,-46 1562.24,-42.5001 1562.24,-49.5001"/>
<text text-anchor="middle" x="1464.5" y="-49.8" font-family="Times,serif" font-size="14.00">u000c</text>
</g>
<!-- 22&#45;&gt;14 -->
<g id="edge31" class="edge"><title>22&#45;&gt;14</title>
<path fill="none" stroke="black" d="M1608.65,-46C1631.12,-46 1671.76,-46 1706.5,-46 1706.5,-46 1706.5,-46 2390.5,-46 2430.66,-46 2447.46,-48.7769 2475,-78 2500.77,-105.342 2509.95,-149.079 2513.21,-177.674"/>
<polygon fill="black" stroke="black" points="2509.74,-178.211 2514.19,-187.827 2516.71,-177.536 2509.74,-178.211"/>
<text text-anchor="middle" x="2017" y="-49.8" font-family="Times,serif" font-size="14.00">u000b</text>
</g>
<!-- 13&#45;&gt;18 -->
<g id="edge32" class="edge"><title>13&#45;&gt;18</title>
<path fill="none" stroke="black" d="M1907.11,-258.309C1914.19,-257.229 1922.48,-256.004 1930,-255 1986.77,-247.417 2001,-245.667 2058,-240 2122.76,-233.561 2199.04,-227.789 2238.79,-224.918"/>
<polygon fill="black" stroke="black" points="2239.27,-228.392 2249,-224.187 2238.77,-221.41 2239.27,-228.392"/>
<text text-anchor="middle" x="2081" y="-243.8" font-family="Times,serif" font-size="14.00">u000c</text>
</g>
<!-- 19 -->
<g id="node27" class="node"><title>19</title>
<ellipse fill="none" stroke="black" cx="2389.5" cy="-269" rx="18" ry="18"/>
</g>
<!-- 13&#45;&gt;19 -->
<g id="edge33" class="edge"><title>13&#45;&gt;19</title>
<path fill="none" stroke="black" d="M1907.1,-262.775C1931.31,-265.132 1976.98,-269 2016,-269 2016,-269 2016,-269 2268,-269 2299.93,-269 2336.62,-269 2361.04,-269"/>
<polygon fill="black" stroke="black" points="2361.34,-272.5 2371.34,-269 2361.34,-265.5 2361.34,-272.5"/>
<text text-anchor="middle" x="2145" y="-272.8" font-family="Times,serif" font-size="14.00">u000b</text>
</g>
<!-- 20 -->
<g id="node28" class="node"><title>20</title>
<ellipse fill="none" stroke="black" cx="2017" cy="-350" rx="18" ry="18"/>
</g>
<!-- 13&#45;&gt;20 -->
<g id="edge34" class="edge"><title>13&#45;&gt;20</title>
<path fill="none" stroke="black" d="M1904.45,-271.209C1926.2,-286.567 1967.51,-315.749 1993.3,-333.964"/>
<polygon fill="black" stroke="black" points="1991.53,-336.999 2001.71,-339.91 1995.57,-331.281 1991.53,-336.999"/>
<text text-anchor="middle" x="1953" y="-324.8" font-family="Times,serif" font-size="14.00">u000a</text>
</g>
<!-- 19&#45;&gt;10 -->
<g id="edge35" class="edge"><title>19&#45;&gt;10</title>
<path fill="none" stroke="black" d="M2407.79,-269.344C2449.63,-270.176 2556.85,-272.307 2610.47,-273.373"/>
<polygon fill="black" stroke="black" points="2610.69,-276.878 2620.76,-273.578 2610.83,-269.879 2610.69,-276.878"/>
<text text-anchor="middle" x="2516" y="-274.8" font-family="Times,serif" font-size="14.00">u0009</text>
</g>
<!-- 19&#45;&gt;14 -->
<g id="edge36" class="edge"><title>19&#45;&gt;14</title>
<path fill="none" stroke="black" d="M2405.27,-259.467C2412.59,-254.886 2421.64,-249.44 2430,-245 2449.66,-234.562 2472.64,-224.119 2489.75,-216.67"/>
<polygon fill="black" stroke="black" points="2491.27,-219.824 2499.07,-212.653 2488.5,-213.395 2491.27,-219.824"/>
<text text-anchor="middle" x="2452.5" y="-248.8" font-family="Times,serif" font-size="14.00">u000a</text>
</g>
<!-- 20&#45;&gt;10 -->
<g id="edge37" class="edge"><title>20&#45;&gt;10</title>
<path fill="none" stroke="black" d="M2031.9,-360.412C2054.28,-376.104 2100.21,-404 2144,-404 2144,-404 2144,-404 2517,-404 2572.56,-404 2611.16,-341.53 2629.61,-303.2"/>
<polygon fill="black" stroke="black" points="2632.83,-304.572 2633.87,-294.028 2626.48,-301.626 2632.83,-304.572"/>
<text text-anchor="middle" x="2326" y="-407.8" font-family="Times,serif" font-size="14.00">u0009</text>
</g>
<!-- 23 -->
<g id="node29" class="node"><title>23</title>
<ellipse fill="none" stroke="black" cx="2208.5" cy="-364" rx="18" ry="18"/>
</g>
<!-- 20&#45;&gt;23 -->
<g id="edge38" class="edge"><title>20&#45;&gt;23</title>
<path fill="none" stroke="black" d="M2035.15,-351.267C2068.2,-353.709 2140.93,-359.082 2180.52,-362.007"/>
<polygon fill="black" stroke="black" points="2180.29,-365.499 2190.52,-362.746 2180.81,-358.518 2180.29,-365.499"/>
<text text-anchor="middle" x="2081" y="-359.8" font-family="Times,serif" font-size="14.00">u000c</text>
</g>
<!-- 24 -->
<g id="node30" class="node"><title>24</title>
<ellipse fill="none" stroke="black" cx="2145" cy="-320" rx="18" ry="18"/>
</g>
<!-- 20&#45;&gt;24 -->
<g id="edge39" class="edge"><title>20&#45;&gt;24</title>
<path fill="none" stroke="black" d="M2032.62,-340.609C2039.95,-336.352 2049.14,-331.681 2058,-329 2076.98,-323.257 2099.26,-321.045 2116.39,-320.248"/>
<polygon fill="black" stroke="black" points="2116.94,-323.732 2126.82,-319.906 2116.71,-316.736 2116.94,-323.732"/>
<text text-anchor="middle" x="2081" y="-332.8" font-family="Times,serif" font-size="14.00">u000b</text>
</g>
<!-- 23&#45;&gt;14 -->
<g id="edge40" class="edge"><title>23&#45;&gt;14</title>
<path fill="none" stroke="black" d="M2226.52,-361.788C2272.03,-355.075 2398.25,-331.115 2475,-264 2485.72,-254.627 2494.96,-241.786 2501.85,-230.569"/>
<polygon fill="black" stroke="black" points="2505.05,-232.04 2507.07,-221.64 2499,-228.508 2505.05,-232.04"/>
<text text-anchor="middle" x="2326" y="-348.8" font-family="Times,serif" font-size="14.00">u000c</text>
</g>
<!-- 26 -->
<g id="node31" class="node"><title>26</title>
<ellipse fill="none" stroke="black" cx="2267" cy="-317" rx="18" ry="18"/>
</g>
<!-- 24&#45;&gt;26 -->
<g id="edge41" class="edge"><title>24&#45;&gt;26</title>
<path fill="none" stroke="black" d="M2163.19,-319.57C2182.89,-319.078 2215.42,-318.265 2238.61,-317.685"/>
<polygon fill="black" stroke="black" points="2238.93,-321.178 2248.84,-317.429 2238.75,-314.18 2238.93,-321.178"/>
<text text-anchor="middle" x="2208.5" y="-321.8" font-family="Times,serif" font-size="14.00">u000c</text>
</g>
<!-- 26&#45;&gt;15 -->
<g id="edge42" class="edge"><title>26&#45;&gt;15</title>
<path fill="none" stroke="black" d="M2281.36,-305.362C2302.28,-287.133 2342.94,-251.702 2367.71,-230.116"/>
<polygon fill="black" stroke="black" points="2370.21,-232.579 2375.45,-223.371 2365.61,-227.302 2370.21,-232.579"/>
<text text-anchor="middle" x="2326" y="-288.8" font-family="Times,serif" font-size="14.00">u000c</text>
</g>
<!-- initial -->
<g id="node32" class="node"><title>initial</title>
</g>
<!-- initial&#45;&gt;0 -->
<g id="edge43" class="edge"><title>initial&#45;&gt;0</title>
<path fill="none" stroke="black" d="M54.195,-228C62.6538,-228 72.0513,-228 80.5951,-228"/>
<polygon fill="black" stroke="black" points="80.8257,-231.5 90.8257,-228 80.8257,-224.5 80.8257,-231.5"/>
</g>
</g>
</svg>
