<svg width="1961px" height="404px"
 viewBox="0.00 0.00 1471.00 303.00" xmlns="http://www.w3.org/2000/svg" xmlns:xlink="http://www.w3.org/1999/xlink">
<g id="graph0" class="graph" transform="scale(1.000022500562514 1.000022500562514) rotate(0) translate(4 299)">
<title>Automaton</title>
<polygon fill="white" stroke="none" points="-4,4 -4,-299 1467,-299 1467,4 -4,4"/>
<!-- 0 -->
<g id="node1" class="node"><title>0</title>
<ellipse fill="none" stroke="black" cx="109" cy="-18" rx="18" ry="18"/>
</g>
<!-- 1 -->
<g id="node2" class="node"><title>1</title>
<ellipse fill="none" stroke="black" cx="227" cy="-18" rx="18" ry="18"/>
</g>
<!-- 0&#45;&gt;1 -->
<g id="edge1" class="edge"><title>0&#45;&gt;1</title>
<path fill="none" stroke="black" d="M127.116,-18C145.964,-18 176.531,-18 198.696,-18"/>
<polygon fill="black" stroke="black" points="198.814,-21.5001 208.814,-18 198.814,-14.5001 198.814,-21.5001"/>
<text text-anchor="middle" x="168" y="-21.8" font-family="Times,serif" font-size="14.00">u0004</text>
</g>
<!-- 2 -->
<g id="node3" class="node"><title>2</title>
<ellipse fill="none" stroke="black" cx="345" cy="-18" rx="18" ry="18"/>
</g>
<!-- 1&#45;&gt;2 -->
<g id="edge2" class="edge"><title>1&#45;&gt;2</title>
<path fill="none" stroke="black" d="M245.116,-18C263.964,-18 294.531,-18 316.696,-18"/>
<polygon fill="black" stroke="black" points="316.814,-21.5001 326.814,-18 316.814,-14.5001 316.814,-21.5001"/>
<text text-anchor="middle" x="286" y="-21.8" font-family="Times,serif" font-size="14.00">u0005</text>
</g>
<!-- 3 -->
<g id="node4" class="node"><title>3</title>
<ellipse fill="none" stroke="black" cx="463" cy="-18" rx="18" ry="18"/>
</g>
<!-- 2&#45;&gt;3 -->
<g id="edge3" class="edge"><title>2&#45;&gt;3</title>
<path fill="none" stroke="black" d="M363.116,-18C381.964,-18 412.531,-18 434.696,-18"/>
<polygon fill="black" stroke="black" points="434.814,-21.5001 444.814,-18 434.814,-14.5001 434.814,-21.5001"/>
<text text-anchor="middle" x="404" y="-21.8" font-family="Times,serif" font-size="14.00">u0000</text>
</g>
<!-- 4 -->
<g id="node5" class="node"><title>4</title>
<ellipse fill="none" stroke="black" cx="581" cy="-48" rx="18" ry="18"/>
</g>
<!-- 3&#45;&gt;4 -->
<g id="edge4" class="edge"><title>3&#45;&gt;4</title>
<path fill="none" stroke="black" d="M480.62,-22.2983C499.657,-27.2216 531.103,-35.3543 553.523,-41.1525"/>
<polygon fill="black" stroke="black" points="552.853,-44.5943 563.411,-43.7097 554.606,-37.8173 552.853,-44.5943"/>
<text text-anchor="middle" x="522" y="-41.8" font-family="Times,serif" font-size="14.00">u0002</text>
</g>
<!-- 5 -->
<g id="node11" class="node"><title>5</title>
<ellipse fill="none" stroke="black" cx="1319" cy="-137" rx="18" ry="18"/>
</g>
<!-- 3&#45;&gt;5 -->
<g id="edge5" class="edge"><title>3&#45;&gt;5</title>
<path fill="none" stroke="black" d="M480.805,-14.2082C503.28,-9.47681 544.423,-2 580,-2 580,-2 580,-2 1197,-2 1241.9,-2 1253.7,-20.9793 1283,-55 1296.55,-70.7349 1305.51,-92.4975 1310.97,-109.649"/>
<polygon fill="black" stroke="black" points="1307.73,-111.042 1313.93,-119.637 1314.44,-109.055 1307.73,-111.042"/>
<text text-anchor="middle" x="876" y="-5.8" font-family="Times,serif" font-size="14.00">u0001</text>
</g>
<!-- 6 -->
<g id="node6" class="node"><title>6</title>
<ellipse fill="none" stroke="black" cx="699" cy="-94" rx="18" ry="18"/>
</g>
<!-- 4&#45;&gt;6 -->
<g id="edge6" class="edge"><title>4&#45;&gt;6</title>
<path fill="none" stroke="black" d="M598.024,-54.4264C603.98,-56.8106 610.797,-59.5341 617,-62 635.441,-69.331 656.265,-77.5563 672.18,-83.8318"/>
<polygon fill="black" stroke="black" points="671.268,-87.2346 681.855,-87.6452 673.835,-80.7222 671.268,-87.2346"/>
<text text-anchor="middle" x="640" y="-82.8" font-family="Times,serif" font-size="14.00">u0002</text>
</g>
<!-- 4&#45;&gt;5 -->
<g id="edge7" class="edge"><title>4&#45;&gt;5</title>
<path fill="none" stroke="black" d="M599.295,-48C621.962,-48 662.958,-48 698,-48 698,-48 698,-48 1197,-48 1241.71,-48 1280.8,-87.9173 1301.75,-114.286"/>
<polygon fill="black" stroke="black" points="1299.04,-116.498 1307.9,-122.303 1304.59,-112.238 1299.04,-116.498"/>
<text text-anchor="middle" x="940" y="-51.8" font-family="Times,serif" font-size="14.00">u0001</text>
</g>
<!-- 8 -->
<g id="node7" class="node"><title>8</title>
<ellipse fill="none" stroke="black" cx="817" cy="-137" rx="18" ry="18"/>
</g>
<!-- 6&#45;&gt;8 -->
<g id="edge8" class="edge"><title>6&#45;&gt;8</title>
<path fill="none" stroke="black" d="M716.129,-99.979C735.24,-107.063 767.337,-118.961 789.977,-127.354"/>
<polygon fill="black" stroke="black" points="789.041,-130.739 799.634,-130.933 791.474,-124.176 789.041,-130.739"/>
<text text-anchor="middle" x="758" y="-126.8" font-family="Times,serif" font-size="14.00">u0002</text>
</g>
<!-- 6&#45;&gt;5 -->
<g id="edge9" class="edge"><title>6&#45;&gt;5</title>
<path fill="none" stroke="black" d="M717.291,-93.2738C739.955,-92.3859 780.947,-91 816,-91 816,-91 816,-91 1197,-91 1232.75,-91 1270.8,-108.763 1294.48,-122.213"/>
<polygon fill="black" stroke="black" points="1293.01,-125.411 1303.4,-127.469 1296.56,-119.379 1293.01,-125.411"/>
<text text-anchor="middle" x="1004" y="-94.8" font-family="Times,serif" font-size="14.00">u0001</text>
</g>
<!-- 9 -->
<g id="node8" class="node"><title>9</title>
<ellipse fill="none" stroke="black" cx="940" cy="-183" rx="18" ry="18"/>
</g>
<!-- 8&#45;&gt;9 -->
<g id="edge10" class="edge"><title>8&#45;&gt;9</title>
<path fill="none" stroke="black" d="M833.998,-143.494C839.951,-145.885 846.772,-148.596 853,-151 873.061,-158.743 895.877,-167.218 912.965,-173.499"/>
<polygon fill="black" stroke="black" points="912.195,-176.945 922.788,-177.101 914.604,-170.372 912.195,-176.945"/>
<text text-anchor="middle" x="876" y="-170.8" font-family="Times,serif" font-size="14.00">u0002</text>
</g>
<!-- 8&#45;&gt;5 -->
<g id="edge11" class="edge"><title>8&#45;&gt;5</title>
<path fill="none" stroke="black" d="M835.232,-137C858.701,-137 902.028,-137 939,-137 939,-137 939,-137 1197,-137 1229.21,-137 1266.23,-137 1290.76,-137"/>
<polygon fill="black" stroke="black" points="1290.77,-140.5 1300.77,-137 1290.77,-133.5 1290.77,-140.5"/>
<text text-anchor="middle" x="1068" y="-140.8" font-family="Times,serif" font-size="14.00">u0001</text>
</g>
<!-- 10 -->
<g id="node9" class="node"><title>10</title>
<ellipse fill="none" stroke="black" cx="1068" cy="-226" rx="18" ry="18"/>
</g>
<!-- 9&#45;&gt;10 -->
<g id="edge12" class="edge"><title>9&#45;&gt;10</title>
<path fill="none" stroke="black" d="M957.214,-188.533C978.478,-195.79 1016.03,-208.606 1041.22,-217.201"/>
<polygon fill="black" stroke="black" points="1040.25,-220.57 1050.85,-220.488 1042.51,-213.945 1040.25,-220.57"/>
<text text-anchor="middle" x="1004" y="-215.8" font-family="Times,serif" font-size="14.00">u0002</text>
</g>
<!-- 9&#45;&gt;5 -->
<g id="edge13" class="edge"><title>9&#45;&gt;5</title>
<path fill="none" stroke="black" d="M958.006,-183.119C1008.39,-183.108 1160.98,-180.461 1283,-151 1286.24,-150.217 1289.59,-149.19 1292.86,-148.048"/>
<polygon fill="black" stroke="black" points="1294.22,-151.272 1302.29,-144.403 1291.7,-144.743 1294.22,-151.272"/>
<text text-anchor="middle" x="1132" y="-179.8" font-family="Times,serif" font-size="14.00">u0001</text>
</g>
<!-- 11 -->
<g id="node10" class="node"><title>11</title>
<ellipse fill="none" stroke="black" cx="1196" cy="-277" rx="18" ry="18"/>
</g>
<!-- 10&#45;&gt;11 -->
<g id="edge14" class="edge"><title>10&#45;&gt;11</title>
<path fill="none" stroke="black" d="M1084.96,-232.459C1106.35,-241.12 1144.57,-256.588 1169.86,-266.822"/>
<polygon fill="black" stroke="black" points="1168.59,-270.086 1179.17,-270.593 1171.22,-263.597 1168.59,-270.086"/>
<text text-anchor="middle" x="1132" y="-263.8" font-family="Times,serif" font-size="14.00">u0002</text>
</g>
<!-- 10&#45;&gt;5 -->
<g id="edge15" class="edge"><title>10&#45;&gt;5</title>
<path fill="none" stroke="black" d="M1085.95,-227.998C1124.49,-231.643 1220.18,-235.546 1283,-194 1294.2,-186.594 1302.42,-174.25 1308.07,-162.94"/>
<polygon fill="black" stroke="black" points="1311.27,-164.365 1312.22,-153.813 1304.9,-161.467 1311.27,-164.365"/>
<text text-anchor="middle" x="1196" y="-231.8" font-family="Times,serif" font-size="14.00">u0001</text>
</g>
<!-- 11&#45;&gt;5 -->
<g id="edge16" class="edge"><title>11&#45;&gt;5</title>
<path fill="none" stroke="black" d="M1213.93,-273.998C1233.22,-269.721 1264.47,-260.053 1283,-240 1302.14,-219.286 1310.86,-187.685 1314.81,-164.95"/>
<polygon fill="black" stroke="black" points="1318.29,-165.308 1316.34,-154.894 1311.37,-164.251 1318.29,-165.308"/>
<text text-anchor="middle" x="1260" y="-270.8" font-family="Times,serif" font-size="14.00">u0001</text>
</g>
<!-- 7 -->
<g id="node12" class="node"><title>7</title>
<ellipse fill="none" stroke="black" cx="1441" cy="-137" rx="18" ry="18"/>
<ellipse fill="none" stroke="black" cx="1441" cy="-137" rx="22" ry="22"/>
</g>
<!-- 5&#45;&gt;7 -->
<g id="edge17" class="edge"><title>5&#45;&gt;7</title>
<path fill="none" stroke="black" d="M1337.19,-137C1355.77,-137 1385.76,-137 1408.57,-137"/>
<polygon fill="black" stroke="black" points="1408.79,-140.5 1418.79,-137 1408.79,-133.5 1408.79,-140.5"/>
<text text-anchor="middle" x="1378" y="-140.8" font-family="Times,serif" font-size="14.00">u0003</text>
</g>
<!-- initial -->
<g id="node13" class="node"><title>initial</title>
</g>
<!-- initial&#45;&gt;0 -->
<g id="edge18" class="edge"><title>initial&#45;&gt;0</title>
<path fill="none" stroke="black" d="M54.195,-18C62.6538,-18 72.0513,-18 80.5951,-18"/>
<polygon fill="black" stroke="black" points="80.8257,-21.5001 90.8257,-18 80.8257,-14.5001 80.8257,-21.5001"/>
</g>
</g>
</svg>
