<svg width="991px" height="104px"
 viewBox="0.00 0.00 743.00 78.00" xmlns="http://www.w3.org/2000/svg" xmlns:xlink="http://www.w3.org/1999/xlink">
<g id="graph0" class="graph" transform="scale(1.000022500562514 1.000022500562514) rotate(0) translate(4 74)">
<title>Automaton</title>
<polygon fill="white" stroke="none" points="-4,4 -4,-74 739,-74 739,4 -4,4"/>
<!-- 0 -->
<g id="node1" class="node"><title>0</title>
<ellipse fill="none" stroke="black" cx="109" cy="-34" rx="18" ry="18"/>
</g>
<!-- 1 -->
<g id="node2" class="node"><title>1</title>
<ellipse fill="none" stroke="black" cx="227" cy="-34" rx="18" ry="18"/>
</g>
<!-- 0&#45;&gt;1 -->
<g id="edge1" class="edge"><title>0&#45;&gt;1</title>
<path fill="none" stroke="black" d="M127.116,-34C145.964,-34 176.531,-34 198.696,-34"/>
<polygon fill="black" stroke="black" points="198.814,-37.5001 208.814,-34 198.814,-30.5001 198.814,-37.5001"/>
<text text-anchor="middle" x="168" y="-37.8" font-family="Times,serif" font-size="14.00">u0004</text>
</g>
<!-- 2 -->
<g id="node3" class="node"><title>2</title>
<ellipse fill="none" stroke="black" cx="345" cy="-34" rx="18" ry="18"/>
</g>
<!-- 1&#45;&gt;2 -->
<g id="edge2" class="edge"><title>1&#45;&gt;2</title>
<path fill="none" stroke="black" d="M245.116,-34C263.964,-34 294.531,-34 316.696,-34"/>
<polygon fill="black" stroke="black" points="316.814,-37.5001 326.814,-34 316.814,-30.5001 316.814,-37.5001"/>
<text text-anchor="middle" x="286" y="-37.8" font-family="Times,serif" font-size="14.00">u0005</text>
</g>
<!-- 3 -->
<g id="node4" class="node"><title>3</title>
<ellipse fill="none" stroke="black" cx="468" cy="-52" rx="18" ry="18"/>
</g>
<!-- 2&#45;&gt;3 -->
<g id="edge3" class="edge"><title>2&#45;&gt;3</title>
<path fill="none" stroke="black" d="M361.202,-42.5768C367.182,-45.5103 374.228,-48.4429 381,-50 400.223,-54.4201 422.5,-54.8118 439.565,-54.1553"/>
<polygon fill="black" stroke="black" points="440.141,-57.6297 449.941,-53.6042 439.77,-50.6395 440.141,-57.6297"/>
<text text-anchor="middle" x="404" y="-57.8" font-family="Times,serif" font-size="14.00">u0003</text>
</g>
<!-- 2&#45;&gt;3 -->
<g id="edge5" class="edge"><title>2&#45;&gt;3</title>
<path fill="none" stroke="black" d="M362.718,-30.7274C379.291,-28.0984 405.276,-25.644 427,-31 432.616,-32.3847 438.316,-34.7144 443.586,-37.3297"/>
<polygon fill="black" stroke="black" points="442.042,-40.4746 452.495,-42.2034 445.401,-34.3334 442.042,-40.4746"/>
<text text-anchor="middle" x="404" y="-34.8" font-family="Times,serif" font-size="14.00">u0001</text>
</g>
<!-- 4 -->
<g id="node5" class="node"><title>4</title>
<ellipse fill="none" stroke="black" cx="591" cy="-22" rx="18" ry="18"/>
</g>
<!-- 2&#45;&gt;4 -->
<g id="edge4" class="edge"><title>2&#45;&gt;4</title>
<path fill="none" stroke="black" d="M362.324,-29.1056C368.191,-27.4077 374.872,-25.5441 381,-24 409.235,-16.8858 416.052,-13.1292 445,-10 465.326,-7.80282 470.593,-8.76771 491,-10 515.351,-11.4704 542.889,-14.9577 562.727,-17.796"/>
<polygon fill="black" stroke="black" points="562.485,-21.298 572.888,-19.2892 563.503,-14.3723 562.485,-21.298"/>
<text text-anchor="middle" x="468" y="-13.8" font-family="Times,serif" font-size="14.00">u0002</text>
</g>
<!-- 3&#45;&gt;4 -->
<g id="edge6" class="edge"><title>3&#45;&gt;4</title>
<path fill="none" stroke="black" d="M485.825,-47.8286C505.962,-42.8359 539.922,-34.4159 563.574,-28.5519"/>
<polygon fill="black" stroke="black" points="564.455,-31.9396 573.318,-26.1359 562.77,-25.1454 564.455,-31.9396"/>
<text text-anchor="middle" x="532" y="-44.8" font-family="Times,serif" font-size="14.00">u0002</text>
</g>
<!-- 5 -->
<g id="node6" class="node"><title>5</title>
<ellipse fill="none" stroke="black" cx="713" cy="-22" rx="18" ry="18"/>
<ellipse fill="none" stroke="black" cx="713" cy="-22" rx="22" ry="22"/>
</g>
<!-- 4&#45;&gt;5 -->
<g id="edge7" class="edge"><title>4&#45;&gt;5</title>
<path fill="none" stroke="black" d="M609.193,-22C627.767,-22 657.762,-22 680.57,-22"/>
<polygon fill="black" stroke="black" points="680.793,-25.5001 690.792,-22 680.792,-18.5001 680.793,-25.5001"/>
<text text-anchor="middle" x="650" y="-25.8" font-family="Times,serif" font-size="14.00">u0000</text>
</g>
<!-- initial -->
<g id="node7" class="node"><title>initial</title>
</g>
<!-- initial&#45;&gt;0 -->
<g id="edge8" class="edge"><title>initial&#45;&gt;0</title>
<path fill="none" stroke="black" d="M54.195,-34C62.6538,-34 72.0513,-34 80.5951,-34"/>
<polygon fill="black" stroke="black" points="80.8257,-37.5001 90.8257,-34 80.8257,-30.5001 80.8257,-37.5001"/>
</g>
</g>
</svg>
