<svg width="2717px" height="236px"
 viewBox="0.00 0.00 2038.00 177.00" xmlns="http://www.w3.org/2000/svg" xmlns:xlink="http://www.w3.org/1999/xlink">
<g id="graph0" class="graph" transform="scale(1.000022500562514 1.000022500562514) rotate(0) translate(4 173)">
<title>Automaton</title>
<polygon fill="white" stroke="none" points="-4,4 -4,-173 2034,-173 2034,4 -4,4"/>
<!-- 0 -->
<g id="node1" class="node"><title>0</title>
<ellipse fill="none" stroke="black" cx="109" cy="-106" rx="18" ry="18"/>
</g>
<!-- 1 -->
<g id="node2" class="node"><title>1</title>
<ellipse fill="none" stroke="black" cx="227" cy="-106" rx="18" ry="18"/>
</g>
<!-- 0&#45;&gt;1 -->
<g id="edge1" class="edge"><title>0&#45;&gt;1</title>
<path fill="none" stroke="black" d="M127.116,-106C145.964,-106 176.531,-106 198.696,-106"/>
<polygon fill="black" stroke="black" points="198.814,-109.5 208.814,-106 198.814,-102.5 198.814,-109.5"/>
<text text-anchor="middle" x="168" y="-109.8" font-family="Times,serif" font-size="14.00">u0006</text>
</g>
<!-- 2 -->
<g id="node3" class="node"><title>2</title>
<ellipse fill="none" stroke="black" cx="345" cy="-106" rx="18" ry="18"/>
</g>
<!-- 1&#45;&gt;2 -->
<g id="edge2" class="edge"><title>1&#45;&gt;2</title>
<path fill="none" stroke="black" d="M245.116,-106C263.964,-106 294.531,-106 316.696,-106"/>
<polygon fill="black" stroke="black" points="316.814,-109.5 326.814,-106 316.814,-102.5 316.814,-109.5"/>
<text text-anchor="middle" x="286" y="-109.8" font-family="Times,serif" font-size="14.00">u0005</text>
</g>
<!-- 3 -->
<g id="node4" class="node"><title>3</title>
<ellipse fill="none" stroke="black" cx="463" cy="-106" rx="18" ry="18"/>
</g>
<!-- 2&#45;&gt;3 -->
<g id="edge3" class="edge"><title>2&#45;&gt;3</title>
<path fill="none" stroke="black" d="M363.116,-106C381.964,-106 412.531,-106 434.696,-106"/>
<polygon fill="black" stroke="black" points="434.814,-109.5 444.814,-106 434.814,-102.5 434.814,-109.5"/>
<text text-anchor="middle" x="404" y="-109.8" font-family="Times,serif" font-size="14.00">u0004</text>
</g>
<!-- 4 -->
<g id="node5" class="node"><title>4</title>
<ellipse fill="none" stroke="black" cx="581" cy="-106" rx="18" ry="18"/>
</g>
<!-- 3&#45;&gt;4 -->
<g id="edge4" class="edge"><title>3&#45;&gt;4</title>
<path fill="none" stroke="black" d="M481.116,-106C499.964,-106 530.531,-106 552.696,-106"/>
<polygon fill="black" stroke="black" points="552.814,-109.5 562.814,-106 552.814,-102.5 552.814,-109.5"/>
<text text-anchor="middle" x="522" y="-109.8" font-family="Times,serif" font-size="14.00">u0003</text>
</g>
<!-- 5 -->
<g id="node6" class="node"><title>5</title>
<ellipse fill="none" stroke="black" cx="699" cy="-106" rx="18" ry="18"/>
</g>
<!-- 4&#45;&gt;5 -->
<g id="edge5" class="edge"><title>4&#45;&gt;5</title>
<path fill="none" stroke="black" d="M599.116,-106C617.964,-106 648.531,-106 670.696,-106"/>
<polygon fill="black" stroke="black" points="670.814,-109.5 680.814,-106 670.814,-102.5 670.814,-109.5"/>
<text text-anchor="middle" x="640" y="-109.8" font-family="Times,serif" font-size="14.00">u0000</text>
</g>
<!-- 6 -->
<g id="node7" class="node"><title>6</title>
<ellipse fill="none" stroke="black" cx="817" cy="-106" rx="18" ry="18"/>
</g>
<!-- 5&#45;&gt;6 -->
<g id="edge6" class="edge"><title>5&#45;&gt;6</title>
<path fill="none" stroke="black" d="M717.116,-106C735.964,-106 766.531,-106 788.696,-106"/>
<polygon fill="black" stroke="black" points="788.814,-109.5 798.814,-106 788.814,-102.5 788.814,-109.5"/>
<text text-anchor="middle" x="758" y="-109.8" font-family="Times,serif" font-size="14.00">u0001</text>
</g>
<!-- 7 -->
<g id="node8" class="node"><title>7</title>
<ellipse fill="none" stroke="black" cx="935" cy="-106" rx="18" ry="18"/>
</g>
<!-- 6&#45;&gt;7 -->
<g id="edge7" class="edge"><title>6&#45;&gt;7</title>
<path fill="none" stroke="black" d="M835.116,-106C853.964,-106 884.531,-106 906.696,-106"/>
<polygon fill="black" stroke="black" points="906.814,-109.5 916.814,-106 906.814,-102.5 906.814,-109.5"/>
<text text-anchor="middle" x="876" y="-109.8" font-family="Times,serif" font-size="14.00">u0002</text>
</g>
<!-- 8 -->
<g id="node9" class="node"><title>8</title>
<ellipse fill="none" stroke="black" cx="1053" cy="-106" rx="18" ry="18"/>
</g>
<!-- 7&#45;&gt;8 -->
<g id="edge8" class="edge"><title>7&#45;&gt;8</title>
<path fill="none" stroke="black" d="M953.116,-106C971.964,-106 1002.53,-106 1024.7,-106"/>
<polygon fill="black" stroke="black" points="1024.81,-109.5 1034.81,-106 1024.81,-102.5 1024.81,-109.5"/>
<text text-anchor="middle" x="994" y="-109.8" font-family="Times,serif" font-size="14.00">u0007</text>
</g>
<!-- 9 -->
<g id="node10" class="node"><title>9</title>
<ellipse fill="none" stroke="black" cx="1171" cy="-106" rx="18" ry="18"/>
</g>
<!-- 8&#45;&gt;9 -->
<g id="edge9" class="edge"><title>8&#45;&gt;9</title>
<path fill="none" stroke="black" d="M1071.12,-106C1089.96,-106 1120.53,-106 1142.7,-106"/>
<polygon fill="black" stroke="black" points="1142.81,-109.5 1152.81,-106 1142.81,-102.5 1142.81,-109.5"/>
<text text-anchor="middle" x="1112" y="-109.8" font-family="Times,serif" font-size="14.00">u0008</text>
</g>
<!-- 10 -->
<g id="node11" class="node"><title>10</title>
<ellipse fill="none" stroke="black" cx="1347.5" cy="-151" rx="18" ry="18"/>
</g>
<!-- 9&#45;&gt;10 -->
<g id="edge10" class="edge"><title>9&#45;&gt;10</title>
<path fill="none" stroke="black" d="M1188.32,-111.371C1194.18,-113.238 1200.86,-115.29 1207,-117 1245.97,-127.859 1291.58,-138.612 1319.76,-145.031"/>
<polygon fill="black" stroke="black" points="1319.13,-148.477 1329.66,-147.27 1320.68,-141.65 1319.13,-148.477"/>
<text text-anchor="middle" x="1230" y="-131.8" font-family="Times,serif" font-size="14.00">u000b</text>
</g>
<!-- 11 -->
<g id="node14" class="node"><title>11</title>
<ellipse fill="none" stroke="black" cx="1289" cy="-79" rx="18" ry="18"/>
</g>
<!-- 9&#45;&gt;11 -->
<g id="edge11" class="edge"><title>9&#45;&gt;11</title>
<path fill="none" stroke="black" d="M1188.62,-102.132C1207.66,-97.7006 1239.1,-90.3812 1261.52,-85.1627"/>
<polygon fill="black" stroke="black" points="1262.46,-88.5372 1271.41,-82.8613 1260.88,-81.7195 1262.46,-88.5372"/>
<text text-anchor="middle" x="1230" y="-101.8" font-family="Times,serif" font-size="14.00">u000a</text>
</g>
<!-- 12 -->
<g id="node12" class="node"><title>12</title>
<ellipse fill="none" stroke="black" cx="1886" cy="-125" rx="18" ry="18"/>
</g>
<!-- 10&#45;&gt;12 -->
<g id="edge12" class="edge"><title>10&#45;&gt;12</title>
<path fill="none" stroke="black" d="M1365.72,-151.484C1388.29,-152.076 1429.1,-153 1464,-153 1464,-153 1464,-153 1770,-153 1801.36,-153 1836.2,-143.048 1859.23,-135.01"/>
<polygon fill="black" stroke="black" points="1860.72,-138.194 1868.92,-131.494 1858.33,-131.614 1860.72,-138.194"/>
<text text-anchor="middle" x="1593" y="-156.8" font-family="Times,serif" font-size="14.00">u000b</text>
</g>
<!-- 16 -->
<g id="node13" class="node"><title>16</title>
<ellipse fill="none" stroke="black" cx="2008" cy="-125" rx="18" ry="18"/>
<ellipse fill="none" stroke="black" cx="2008" cy="-125" rx="22" ry="22"/>
</g>
<!-- 12&#45;&gt;16 -->
<g id="edge13" class="edge"><title>12&#45;&gt;16</title>
<path fill="none" stroke="black" d="M1904.19,-125C1922.77,-125 1952.76,-125 1975.57,-125"/>
<polygon fill="black" stroke="black" points="1975.79,-128.5 1985.79,-125 1975.79,-121.5 1975.79,-128.5"/>
<text text-anchor="middle" x="1945" y="-128.8" font-family="Times,serif" font-size="14.00">u0009</text>
</g>
<!-- 13 -->
<g id="node15" class="node"><title>13</title>
<ellipse fill="none" stroke="black" cx="1465" cy="-113" rx="18" ry="18"/>
</g>
<!-- 11&#45;&gt;13 -->
<g id="edge14" class="edge"><title>11&#45;&gt;13</title>
<path fill="none" stroke="black" d="M1306.73,-82.3658C1312.52,-83.5244 1319.04,-84.8255 1325,-86 1363.92,-93.6727 1409.01,-102.402 1437.02,-107.806"/>
<polygon fill="black" stroke="black" points="1436.39,-111.249 1446.87,-109.705 1437.72,-104.375 1436.39,-111.249"/>
<text text-anchor="middle" x="1347.5" y="-98.8" font-family="Times,serif" font-size="14.00">u000c</text>
</g>
<!-- 14 -->
<g id="node16" class="node"><title>14</title>
<ellipse fill="none" stroke="black" cx="1769" cy="-85" rx="18" ry="18"/>
</g>
<!-- 11&#45;&gt;14 -->
<g id="edge15" class="edge"><title>11&#45;&gt;14</title>
<path fill="none" stroke="black" d="M1307.13,-77.3055C1329.58,-75.2338 1370.2,-72 1405,-72 1405,-72 1405,-72 1653,-72 1683.18,-72 1717.54,-76.4758 1740.78,-80.1749"/>
<polygon fill="black" stroke="black" points="1740.49,-83.674 1750.92,-81.8531 1741.63,-76.7679 1740.49,-83.674"/>
<text text-anchor="middle" x="1529" y="-75.8" font-family="Times,serif" font-size="14.00">u000b</text>
</g>
<!-- 15 -->
<g id="node17" class="node"><title>15</title>
<ellipse fill="none" stroke="black" cx="1406" cy="-24" rx="18" ry="18"/>
</g>
<!-- 11&#45;&gt;15 -->
<g id="edge16" class="edge"><title>11&#45;&gt;15</title>
<path fill="none" stroke="black" d="M1300.52,-64.773C1306.82,-57.2281 1315.45,-48.4224 1325,-43 1341.19,-33.8079 1361.65,-29.0503 1377.83,-26.5947"/>
<polygon fill="black" stroke="black" points="1378.29,-30.0638 1387.75,-25.2899 1377.38,-23.1236 1378.29,-30.0638"/>
<text text-anchor="middle" x="1347.5" y="-46.8" font-family="Times,serif" font-size="14.00">u000a</text>
</g>
<!-- 13&#45;&gt;14 -->
<g id="edge17" class="edge"><title>13&#45;&gt;14</title>
<path fill="none" stroke="black" d="M1483.1,-111.414C1533.13,-106.776 1679.5,-93.205 1740.66,-87.5351"/>
<polygon fill="black" stroke="black" points="1741.08,-91.0113 1750.71,-86.6029 1740.43,-84.0412 1741.08,-91.0113"/>
<text text-anchor="middle" x="1593" y="-107.8" font-family="Times,serif" font-size="14.00">u000a</text>
</g>
<!-- 14&#45;&gt;12 -->
<g id="edge18" class="edge"><title>14&#45;&gt;12</title>
<path fill="none" stroke="black" d="M1786.48,-90.731C1805.43,-97.3251 1836.81,-108.237 1859.05,-115.975"/>
<polygon fill="black" stroke="black" points="1857.96,-119.3 1868.55,-119.28 1860.26,-112.689 1857.96,-119.3"/>
<text text-anchor="middle" x="1827.5" y="-115.8" font-family="Times,serif" font-size="14.00">u000a</text>
</g>
<!-- 17 -->
<g id="node18" class="node"><title>17</title>
<ellipse fill="none" stroke="black" cx="1529" cy="-18" rx="18" ry="18"/>
</g>
<!-- 15&#45;&gt;17 -->
<g id="edge19" class="edge"><title>15&#45;&gt;17</title>
<path fill="none" stroke="black" d="M1424.08,-23.1531C1444.08,-22.1614 1477.45,-20.5064 1500.98,-19.34"/>
<polygon fill="black" stroke="black" points="1501.19,-22.8337 1511.01,-18.8426 1500.85,-15.8423 1501.19,-22.8337"/>
<text text-anchor="middle" x="1465" y="-26.8" font-family="Times,serif" font-size="14.00">u000b</text>
</g>
<!-- 18 -->
<g id="node19" class="node"><title>18</title>
<ellipse fill="none" stroke="black" cx="1652" cy="-24" rx="18" ry="18"/>
</g>
<!-- 17&#45;&gt;18 -->
<g id="edge20" class="edge"><title>17&#45;&gt;18</title>
<path fill="none" stroke="black" d="M1547.08,-18.8469C1567.08,-19.8386 1600.45,-21.4936 1623.98,-22.66"/>
<polygon fill="black" stroke="black" points="1623.85,-26.1577 1634.01,-23.1574 1624.19,-19.1663 1623.85,-26.1577"/>
<text text-anchor="middle" x="1593" y="-26.8" font-family="Times,serif" font-size="14.00">u000c</text>
</g>
<!-- 18&#45;&gt;14 -->
<g id="edge21" class="edge"><title>18&#45;&gt;14</title>
<path fill="none" stroke="black" d="M1670.12,-24.9373C1687.19,-26.557 1713.58,-30.9718 1733,-43 1740.49,-47.6392 1747.15,-54.4351 1752.59,-61.2141"/>
<polygon fill="black" stroke="black" points="1750.06,-63.6686 1758.82,-69.6281 1755.69,-59.5066 1750.06,-63.6686"/>
<text text-anchor="middle" x="1710.5" y="-46.8" font-family="Times,serif" font-size="14.00">u000c</text>
</g>
<!-- initial -->
<g id="node20" class="node"><title>initial</title>
</g>
<!-- initial&#45;&gt;0 -->
<g id="edge22" class="edge"><title>initial&#45;&gt;0</title>
<path fill="none" stroke="black" d="M54.195,-106C62.6538,-106 72.0513,-106 80.5951,-106"/>
<polygon fill="black" stroke="black" points="80.8257,-109.5 90.8257,-106 80.8257,-102.5 80.8257,-109.5"/>
</g>
</g>
</svg>
