<svg width="3637px" height="199px"
 viewBox="0.00 0.00 2728.00 149.00" xmlns="http://www.w3.org/2000/svg" xmlns:xlink="http://www.w3.org/1999/xlink">
<g id="graph0" class="graph" transform="scale(1.000022500562514 1.000022500562514) rotate(0) translate(4 145)">
<title>Automaton</title>
<polygon fill="white" stroke="none" points="-4,4 -4,-145 2724,-145 2724,4 -4,4"/>
<!-- 0 -->
<g id="node1" class="node"><title>0</title>
<ellipse fill="none" stroke="black" cx="109" cy="-92" rx="18" ry="18"/>
</g>
<!-- 1 -->
<g id="node2" class="node"><title>1</title>
<ellipse fill="none" stroke="black" cx="227" cy="-92" rx="18" ry="18"/>
</g>
<!-- 0&#45;&gt;1 -->
<g id="edge1" class="edge"><title>0&#45;&gt;1</title>
<path fill="none" stroke="black" d="M127.116,-92C145.964,-92 176.531,-92 198.696,-92"/>
<polygon fill="black" stroke="black" points="198.814,-95.5001 208.814,-92 198.814,-88.5001 198.814,-95.5001"/>
<text text-anchor="middle" x="168" y="-95.8" font-family="Times,serif" font-size="14.00">u0005</text>
</g>
<!-- 2 -->
<g id="node3" class="node"><title>2</title>
<ellipse fill="none" stroke="black" cx="344" cy="-92" rx="18" ry="18"/>
</g>
<!-- 1&#45;&gt;2 -->
<g id="edge2" class="edge"><title>1&#45;&gt;2</title>
<path fill="none" stroke="black" d="M245.466,-92C264.064,-92 293.756,-92 315.499,-92"/>
<polygon fill="black" stroke="black" points="315.746,-95.5001 325.746,-92 315.746,-88.5001 315.746,-95.5001"/>
<text text-anchor="middle" x="285.5" y="-95.8" font-family="Times,serif" font-size="14.00">u000c</text>
</g>
<!-- 3 -->
<g id="node4" class="node"><title>3</title>
<ellipse fill="none" stroke="black" cx="462" cy="-92" rx="18" ry="18"/>
</g>
<!-- 2&#45;&gt;3 -->
<g id="edge3" class="edge"><title>2&#45;&gt;3</title>
<path fill="none" stroke="black" d="M362.116,-92C380.964,-92 411.531,-92 433.696,-92"/>
<polygon fill="black" stroke="black" points="433.814,-95.5001 443.814,-92 433.814,-88.5001 433.814,-95.5001"/>
<text text-anchor="middle" x="403" y="-95.8" font-family="Times,serif" font-size="14.00">u0001</text>
</g>
<!-- 4 -->
<g id="node5" class="node"><title>4</title>
<ellipse fill="none" stroke="black" cx="580" cy="-92" rx="18" ry="18"/>
</g>
<!-- 3&#45;&gt;4 -->
<g id="edge4" class="edge"><title>3&#45;&gt;4</title>
<path fill="none" stroke="black" d="M480.116,-92C498.964,-92 529.531,-92 551.696,-92"/>
<polygon fill="black" stroke="black" points="551.814,-95.5001 561.814,-92 551.814,-88.5001 551.814,-95.5001"/>
<text text-anchor="middle" x="521" y="-95.8" font-family="Times,serif" font-size="14.00">u0008</text>
</g>
<!-- 5 -->
<g id="node6" class="node"><title>5</title>
<ellipse fill="none" stroke="black" cx="698" cy="-92" rx="18" ry="18"/>
</g>
<!-- 4&#45;&gt;5 -->
<g id="edge5" class="edge"><title>4&#45;&gt;5</title>
<path fill="none" stroke="black" d="M598.116,-92C616.964,-92 647.531,-92 669.696,-92"/>
<polygon fill="black" stroke="black" points="669.814,-95.5001 679.814,-92 669.814,-88.5001 669.814,-95.5001"/>
<text text-anchor="middle" x="639" y="-95.8" font-family="Times,serif" font-size="14.00">u0009</text>
</g>
<!-- 6 -->
<g id="node7" class="node"><title>6</title>
<ellipse fill="none" stroke="black" cx="816" cy="-123" rx="18" ry="18"/>
</g>
<!-- 5&#45;&gt;6 -->
<g id="edge6" class="edge"><title>5&#45;&gt;6</title>
<path fill="none" stroke="black" d="M715.62,-96.4415C734.657,-101.529 766.103,-109.933 788.523,-115.924"/>
<polygon fill="black" stroke="black" points="787.846,-119.366 798.411,-118.567 789.654,-112.603 787.846,-119.366"/>
<text text-anchor="middle" x="757" y="-115.8" font-family="Times,serif" font-size="14.00">u0002</text>
</g>
<!-- 7 -->
<g id="node19" class="node"><title>7</title>
<ellipse fill="none" stroke="black" cx="816" cy="-69" rx="18" ry="18"/>
</g>
<!-- 5&#45;&gt;7 -->
<g id="edge7" class="edge"><title>5&#45;&gt;7</title>
<path fill="none" stroke="black" d="M715.278,-86.9131C721.141,-85.197 727.831,-83.3712 734,-82 751.735,-78.0579 771.908,-74.8166 787.685,-72.5565"/>
<polygon fill="black" stroke="black" points="788.396,-75.9915 797.821,-71.152 787.436,-69.0577 788.396,-75.9915"/>
<text text-anchor="middle" x="757" y="-85.8" font-family="Times,serif" font-size="14.00">u0000</text>
</g>
<!-- 8 -->
<g id="node8" class="node"><title>8</title>
<ellipse fill="none" stroke="black" cx="934" cy="-123" rx="18" ry="18"/>
</g>
<!-- 6&#45;&gt;8 -->
<g id="edge8" class="edge"><title>6&#45;&gt;8</title>
<path fill="none" stroke="black" d="M834.116,-123C852.964,-123 883.531,-123 905.696,-123"/>
<polygon fill="black" stroke="black" points="905.814,-126.5 915.814,-123 905.814,-119.5 905.814,-126.5"/>
<text text-anchor="middle" x="875" y="-126.8" font-family="Times,serif" font-size="14.00">u000d</text>
</g>
<!-- 11 -->
<g id="node9" class="node"><title>11</title>
<ellipse fill="none" stroke="black" cx="1057" cy="-123" rx="18" ry="18"/>
</g>
<!-- 8&#45;&gt;11 -->
<g id="edge9" class="edge"><title>8&#45;&gt;11</title>
<path fill="none" stroke="black" d="M952.08,-123C971.965,-123 1005.08,-123 1028.58,-123"/>
<polygon fill="black" stroke="black" points="1028.62,-126.5 1038.62,-123 1028.62,-119.5 1028.62,-126.5"/>
<text text-anchor="middle" x="993" y="-126.8" font-family="Times,serif" font-size="14.00">u0011</text>
</g>
<!-- 14 -->
<g id="node10" class="node"><title>14</title>
<ellipse fill="none" stroke="black" cx="1183" cy="-123" rx="18" ry="18"/>
</g>
<!-- 11&#45;&gt;14 -->
<g id="edge10" class="edge"><title>11&#45;&gt;14</title>
<path fill="none" stroke="black" d="M1075.24,-123C1095.79,-123 1130.37,-123 1154.59,-123"/>
<polygon fill="black" stroke="black" points="1154.9,-126.5 1164.9,-123 1154.9,-119.5 1154.9,-126.5"/>
<text text-anchor="middle" x="1121" y="-126.8" font-family="Times,serif" font-size="14.00">u000f</text>
</g>
<!-- 17 -->
<g id="node11" class="node"><title>17</title>
<ellipse fill="none" stroke="black" cx="1308.5" cy="-123" rx="18" ry="18"/>
</g>
<!-- 14&#45;&gt;17 -->
<g id="edge11" class="edge"><title>14&#45;&gt;17</title>
<path fill="none" stroke="black" d="M1201.17,-123C1221.63,-123 1256.08,-123 1280.2,-123"/>
<polygon fill="black" stroke="black" points="1280.47,-126.5 1290.47,-123 1280.47,-119.5 1280.47,-126.5"/>
<text text-anchor="middle" x="1245" y="-126.8" font-family="Times,serif" font-size="14.00">u0004</text>
</g>
<!-- 20 -->
<g id="node12" class="node"><title>20</title>
<ellipse fill="none" stroke="black" cx="1435.5" cy="-123" rx="18" ry="18"/>
</g>
<!-- 17&#45;&gt;20 -->
<g id="edge12" class="edge"><title>17&#45;&gt;20</title>
<path fill="none" stroke="black" d="M1326.62,-123C1347.35,-123 1382.55,-123 1407.08,-123"/>
<polygon fill="black" stroke="black" points="1407.19,-126.5 1417.19,-123 1407.19,-119.5 1407.19,-126.5"/>
<text text-anchor="middle" x="1372" y="-126.8" font-family="Times,serif" font-size="14.00">u000e</text>
</g>
<!-- 23 -->
<g id="node13" class="node"><title>23</title>
<ellipse fill="none" stroke="black" cx="1562" cy="-123" rx="18" ry="18"/>
</g>
<!-- 20&#45;&gt;23 -->
<g id="edge13" class="edge"><title>20&#45;&gt;23</title>
<path fill="none" stroke="black" d="M1453.55,-123C1474.2,-123 1509.26,-123 1533.69,-123"/>
<polygon fill="black" stroke="black" points="1533.76,-126.5 1543.76,-123 1533.76,-119.5 1533.76,-126.5"/>
<text text-anchor="middle" x="1498.5" y="-126.8" font-family="Times,serif" font-size="14.00">u000a</text>
</g>
<!-- 26 -->
<g id="node14" class="node"><title>26</title>
<ellipse fill="none" stroke="black" cx="1690" cy="-123" rx="18" ry="18"/>
</g>
<!-- 23&#45;&gt;26 -->
<g id="edge14" class="edge"><title>23&#45;&gt;26</title>
<path fill="none" stroke="black" d="M1580.26,-123C1601.27,-123 1637.03,-123 1661.77,-123"/>
<polygon fill="black" stroke="black" points="1661.95,-126.5 1671.95,-123 1661.95,-119.5 1661.95,-126.5"/>
<text text-anchor="middle" x="1626" y="-126.8" font-family="Times,serif" font-size="14.00">u0010</text>
</g>
<!-- 29 -->
<g id="node15" class="node"><title>29</title>
<ellipse fill="none" stroke="black" cx="1881" cy="-118" rx="18" ry="18"/>
</g>
<!-- 26&#45;&gt;29 -->
<g id="edge15" class="edge"><title>26&#45;&gt;29</title>
<path fill="none" stroke="black" d="M1708.11,-122.547C1740.98,-121.678 1813.24,-119.766 1852.8,-118.72"/>
<polygon fill="black" stroke="black" points="1852.89,-122.218 1862.8,-118.455 1852.71,-115.221 1852.89,-122.218"/>
<text text-anchor="middle" x="1754" y="-124.8" font-family="Times,serif" font-size="14.00">u000e</text>
</g>
<!-- 32 -->
<g id="node16" class="node"><title>32</title>
<ellipse fill="none" stroke="black" cx="2454" cy="-69" rx="18" ry="18"/>
</g>
<!-- 29&#45;&gt;32 -->
<g id="edge16" class="edge"><title>29&#45;&gt;32</title>
<path fill="none" stroke="black" d="M1899.05,-117.556C1923.19,-116.967 1968.71,-116 2007.5,-116 2007.5,-116 2007.5,-116 2327,-116 2364.72,-116 2405.01,-97.2821 2429.61,-83.471"/>
<polygon fill="black" stroke="black" points="2431.64,-86.3365 2438.53,-78.2857 2428.12,-80.2844 2431.64,-86.3365"/>
<text text-anchor="middle" x="2135" y="-119.8" font-family="Times,serif" font-size="14.00">u0006</text>
</g>
<!-- 35 -->
<g id="node17" class="node"><title>35</title>
<ellipse fill="none" stroke="black" cx="2576" cy="-39" rx="18" ry="18"/>
</g>
<!-- 32&#45;&gt;35 -->
<g id="edge17" class="edge"><title>32&#45;&gt;35</title>
<path fill="none" stroke="black" d="M2471.69,-64.8286C2491.57,-59.8583 2525.03,-51.4914 2548.48,-45.631"/>
<polygon fill="black" stroke="black" points="2549.6,-48.9569 2558.46,-43.1359 2547.91,-42.1659 2549.6,-48.9569"/>
<text text-anchor="middle" x="2517.5" y="-62.8" font-family="Times,serif" font-size="14.00">u000e</text>
</g>
<!-- 38 -->
<g id="node18" class="node"><title>38</title>
<ellipse fill="none" stroke="black" cx="2698" cy="-39" rx="18" ry="18"/>
<ellipse fill="none" stroke="black" cx="2698" cy="-39" rx="22" ry="22"/>
</g>
<!-- 35&#45;&gt;38 -->
<g id="edge18" class="edge"><title>35&#45;&gt;38</title>
<path fill="none" stroke="black" d="M2594.19,-39C2612.77,-39 2642.76,-39 2665.57,-39"/>
<polygon fill="black" stroke="black" points="2665.79,-42.5001 2675.79,-39 2665.79,-35.5001 2665.79,-42.5001"/>
<text text-anchor="middle" x="2635" y="-42.8" font-family="Times,serif" font-size="14.00">u000b</text>
</g>
<!-- 9 -->
<g id="node20" class="node"><title>9</title>
<ellipse fill="none" stroke="black" cx="993" cy="-19" rx="18" ry="18"/>
</g>
<!-- 7&#45;&gt;9 -->
<g id="edge19" class="edge"><title>7&#45;&gt;9</title>
<path fill="none" stroke="black" d="M831.555,-59.9125C837.683,-56.4039 845.005,-52.6139 852,-50 889.84,-35.8593 935.959,-27.1899 964.658,-22.7371"/>
<polygon fill="black" stroke="black" points="965.375,-26.169 974.751,-21.2344 964.344,-19.2453 965.375,-26.169"/>
<text text-anchor="middle" x="875" y="-53.8" font-family="Times,serif" font-size="14.00">u000d</text>
</g>
<!-- 10 -->
<g id="node32" class="node"><title>10</title>
<ellipse fill="none" stroke="black" cx="934" cy="-69" rx="18" ry="18"/>
</g>
<!-- 7&#45;&gt;10 -->
<g id="edge20" class="edge"><title>7&#45;&gt;10</title>
<path fill="none" stroke="black" d="M834.116,-69C852.964,-69 883.531,-69 905.696,-69"/>
<polygon fill="black" stroke="black" points="905.814,-72.5001 915.814,-69 905.814,-65.5001 905.814,-72.5001"/>
<text text-anchor="middle" x="875" y="-72.8" font-family="Times,serif" font-size="14.00">u0003</text>
</g>
<!-- 12 -->
<g id="node21" class="node"><title>12</title>
<ellipse fill="none" stroke="black" cx="1121" cy="-18" rx="18" ry="18"/>
</g>
<!-- 9&#45;&gt;12 -->
<g id="edge21" class="edge"><title>9&#45;&gt;12</title>
<path fill="none" stroke="black" d="M1011.26,-18.8631C1032.27,-18.6962 1068.03,-18.4125 1092.77,-18.2161"/>
<polygon fill="black" stroke="black" points="1092.98,-21.7146 1102.95,-18.1353 1092.93,-14.7149 1092.98,-21.7146"/>
<text text-anchor="middle" x="1057" y="-22.8" font-family="Times,serif" font-size="14.00">u0011</text>
</g>
<!-- 15 -->
<g id="node22" class="node"><title>15</title>
<ellipse fill="none" stroke="black" cx="1245" cy="-18" rx="18" ry="18"/>
</g>
<!-- 12&#45;&gt;15 -->
<g id="edge22" class="edge"><title>12&#45;&gt;15</title>
<path fill="none" stroke="black" d="M1139.22,-18C1159.38,-18 1193.04,-18 1216.75,-18"/>
<polygon fill="black" stroke="black" points="1216.87,-21.5001 1226.87,-18 1216.87,-14.5001 1216.87,-21.5001"/>
<text text-anchor="middle" x="1183" y="-21.8" font-family="Times,serif" font-size="14.00">u000f</text>
</g>
<!-- 18 -->
<g id="node23" class="node"><title>18</title>
<ellipse fill="none" stroke="black" cx="1372" cy="-18" rx="18" ry="18"/>
</g>
<!-- 15&#45;&gt;18 -->
<g id="edge23" class="edge"><title>15&#45;&gt;18</title>
<path fill="none" stroke="black" d="M1263.12,-18C1283.85,-18 1319.05,-18 1343.58,-18"/>
<polygon fill="black" stroke="black" points="1343.69,-21.5001 1353.69,-18 1343.69,-14.5001 1343.69,-21.5001"/>
<text text-anchor="middle" x="1308.5" y="-21.8" font-family="Times,serif" font-size="14.00">u000a</text>
</g>
<!-- 21 -->
<g id="node24" class="node"><title>21</title>
<ellipse fill="none" stroke="black" cx="1498.5" cy="-18" rx="18" ry="18"/>
</g>
<!-- 18&#45;&gt;21 -->
<g id="edge24" class="edge"><title>18&#45;&gt;21</title>
<path fill="none" stroke="black" d="M1390.05,-18C1410.7,-18 1445.76,-18 1470.19,-18"/>
<polygon fill="black" stroke="black" points="1470.26,-21.5001 1480.26,-18 1470.26,-14.5001 1470.26,-21.5001"/>
<text text-anchor="middle" x="1435.5" y="-21.8" font-family="Times,serif" font-size="14.00">u000e</text>
</g>
<!-- 24 -->
<g id="node25" class="node"><title>24</title>
<ellipse fill="none" stroke="black" cx="1626" cy="-18" rx="18" ry="18"/>
</g>
<!-- 21&#45;&gt;24 -->
<g id="edge25" class="edge"><title>21&#45;&gt;24</title>
<path fill="none" stroke="black" d="M1516.69,-18C1537.51,-18 1572.84,-18 1597.47,-18"/>
<polygon fill="black" stroke="black" points="1597.62,-21.5001 1607.62,-18 1597.62,-14.5001 1597.62,-21.5001"/>
<text text-anchor="middle" x="1562" y="-21.8" font-family="Times,serif" font-size="14.00">u0010</text>
</g>
<!-- 27 -->
<g id="node26" class="node"><title>27</title>
<ellipse fill="none" stroke="black" cx="1754" cy="-18" rx="18" ry="18"/>
</g>
<!-- 24&#45;&gt;27 -->
<g id="edge26" class="edge"><title>24&#45;&gt;27</title>
<path fill="none" stroke="black" d="M1644.26,-18C1665.27,-18 1701.03,-18 1725.77,-18"/>
<polygon fill="black" stroke="black" points="1725.95,-21.5001 1735.95,-18 1725.95,-14.5001 1725.95,-21.5001"/>
<text text-anchor="middle" x="1690" y="-21.8" font-family="Times,serif" font-size="14.00">u0006</text>
</g>
<!-- 30 -->
<g id="node27" class="node"><title>30</title>
<ellipse fill="none" stroke="black" cx="1881" cy="-18" rx="18" ry="18"/>
</g>
<!-- 27&#45;&gt;30 -->
<g id="edge27" class="edge"><title>27&#45;&gt;30</title>
<path fill="none" stroke="black" d="M1772.12,-18C1792.85,-18 1828.05,-18 1852.58,-18"/>
<polygon fill="black" stroke="black" points="1852.69,-21.5001 1862.69,-18 1852.69,-14.5001 1852.69,-21.5001"/>
<text text-anchor="middle" x="1817.5" y="-21.8" font-family="Times,serif" font-size="14.00">u000a</text>
</g>
<!-- 33 -->
<g id="node28" class="node"><title>33</title>
<ellipse fill="none" stroke="black" cx="2008.5" cy="-18" rx="18" ry="18"/>
</g>
<!-- 30&#45;&gt;33 -->
<g id="edge28" class="edge"><title>30&#45;&gt;33</title>
<path fill="none" stroke="black" d="M1899.19,-18C1920.01,-18 1955.34,-18 1979.97,-18"/>
<polygon fill="black" stroke="black" points="1980.12,-21.5001 1990.12,-18 1980.12,-14.5001 1980.12,-21.5001"/>
<text text-anchor="middle" x="1945" y="-21.8" font-family="Times,serif" font-size="14.00">u0007</text>
</g>
<!-- 36 -->
<g id="node29" class="node"><title>36</title>
<ellipse fill="none" stroke="black" cx="2135" cy="-18" rx="18" ry="18"/>
</g>
<!-- 33&#45;&gt;36 -->
<g id="edge29" class="edge"><title>33&#45;&gt;36</title>
<path fill="none" stroke="black" d="M2026.55,-18C2047.2,-18 2082.26,-18 2106.69,-18"/>
<polygon fill="black" stroke="black" points="2106.76,-21.5001 2116.76,-18 2106.76,-14.5001 2106.76,-21.5001"/>
<text text-anchor="middle" x="2071.5" y="-21.8" font-family="Times,serif" font-size="14.00">u000e</text>
</g>
<!-- 39 -->
<g id="node30" class="node"><title>39</title>
<ellipse fill="none" stroke="black" cx="2262.5" cy="-18" rx="18" ry="18"/>
</g>
<!-- 36&#45;&gt;39 -->
<g id="edge30" class="edge"><title>36&#45;&gt;39</title>
<path fill="none" stroke="black" d="M2153.19,-18C2174.01,-18 2209.34,-18 2233.97,-18"/>
<polygon fill="black" stroke="black" points="2234.12,-21.5001 2244.12,-18 2234.12,-14.5001 2234.12,-21.5001"/>
<text text-anchor="middle" x="2199" y="-21.8" font-family="Times,serif" font-size="14.00">u0007</text>
</g>
<!-- 41 -->
<g id="node31" class="node"><title>41</title>
<ellipse fill="none" stroke="black" cx="2390" cy="-18" rx="18" ry="18"/>
</g>
<!-- 39&#45;&gt;41 -->
<g id="edge31" class="edge"><title>39&#45;&gt;41</title>
<path fill="none" stroke="black" d="M2280.69,-18C2301.51,-18 2336.84,-18 2361.47,-18"/>
<polygon fill="black" stroke="black" points="2361.62,-21.5001 2371.62,-18 2361.62,-14.5001 2361.62,-21.5001"/>
<text text-anchor="middle" x="2326" y="-21.8" font-family="Times,serif" font-size="14.00">u0006</text>
</g>
<!-- 41&#45;&gt;35 -->
<g id="edge32" class="edge"><title>41&#45;&gt;35</title>
<path fill="none" stroke="black" d="M2408.14,-19.7045C2425.51,-21.452 2453.13,-24.2902 2477,-27 2501,-29.7248 2528.27,-33.0856 2547.94,-35.5567"/>
<polygon fill="black" stroke="black" points="2547.66,-39.0486 2558.01,-36.8283 2548.53,-32.1037 2547.66,-39.0486"/>
<text text-anchor="middle" x="2454" y="-30.8" font-family="Times,serif" font-size="14.00">u0007</text>
</g>
<!-- 13 -->
<g id="node33" class="node"><title>13</title>
<ellipse fill="none" stroke="black" cx="1057" cy="-69" rx="18" ry="18"/>
</g>
<!-- 10&#45;&gt;13 -->
<g id="edge33" class="edge"><title>10&#45;&gt;13</title>
<path fill="none" stroke="black" d="M952.08,-69C971.965,-69 1005.08,-69 1028.58,-69"/>
<polygon fill="black" stroke="black" points="1028.62,-72.5001 1038.62,-69 1028.62,-65.5001 1028.62,-72.5001"/>
<text text-anchor="middle" x="993" y="-72.8" font-family="Times,serif" font-size="14.00">u000d</text>
</g>
<!-- 16 -->
<g id="node34" class="node"><title>16</title>
<ellipse fill="none" stroke="black" cx="1183" cy="-69" rx="18" ry="18"/>
</g>
<!-- 13&#45;&gt;16 -->
<g id="edge34" class="edge"><title>13&#45;&gt;16</title>
<path fill="none" stroke="black" d="M1075.24,-69C1095.79,-69 1130.37,-69 1154.59,-69"/>
<polygon fill="black" stroke="black" points="1154.9,-72.5001 1164.9,-69 1154.9,-65.5001 1154.9,-72.5001"/>
<text text-anchor="middle" x="1121" y="-72.8" font-family="Times,serif" font-size="14.00">u0011</text>
</g>
<!-- 19 -->
<g id="node35" class="node"><title>19</title>
<ellipse fill="none" stroke="black" cx="1308.5" cy="-69" rx="18" ry="18"/>
</g>
<!-- 16&#45;&gt;19 -->
<g id="edge35" class="edge"><title>16&#45;&gt;19</title>
<path fill="none" stroke="black" d="M1201.17,-69C1221.63,-69 1256.08,-69 1280.2,-69"/>
<polygon fill="black" stroke="black" points="1280.47,-72.5001 1290.47,-69 1280.47,-65.5001 1280.47,-72.5001"/>
<text text-anchor="middle" x="1245" y="-72.8" font-family="Times,serif" font-size="14.00">u000f</text>
</g>
<!-- 22 -->
<g id="node36" class="node"><title>22</title>
<ellipse fill="none" stroke="black" cx="1435.5" cy="-69" rx="18" ry="18"/>
</g>
<!-- 19&#45;&gt;22 -->
<g id="edge36" class="edge"><title>19&#45;&gt;22</title>
<path fill="none" stroke="black" d="M1326.62,-69C1347.35,-69 1382.55,-69 1407.08,-69"/>
<polygon fill="black" stroke="black" points="1407.19,-72.5001 1417.19,-69 1407.19,-65.5001 1407.19,-72.5001"/>
<text text-anchor="middle" x="1372" y="-72.8" font-family="Times,serif" font-size="14.00">u0006</text>
</g>
<!-- 25 -->
<g id="node37" class="node"><title>25</title>
<ellipse fill="none" stroke="black" cx="1562" cy="-69" rx="18" ry="18"/>
</g>
<!-- 22&#45;&gt;25 -->
<g id="edge37" class="edge"><title>22&#45;&gt;25</title>
<path fill="none" stroke="black" d="M1453.55,-69C1474.2,-69 1509.26,-69 1533.69,-69"/>
<polygon fill="black" stroke="black" points="1533.76,-72.5001 1543.76,-69 1533.76,-65.5001 1533.76,-72.5001"/>
<text text-anchor="middle" x="1498.5" y="-72.8" font-family="Times,serif" font-size="14.00">u000a</text>
</g>
<!-- 28 -->
<g id="node38" class="node"><title>28</title>
<ellipse fill="none" stroke="black" cx="1690" cy="-69" rx="18" ry="18"/>
</g>
<!-- 25&#45;&gt;28 -->
<g id="edge38" class="edge"><title>25&#45;&gt;28</title>
<path fill="none" stroke="black" d="M1580.26,-69C1601.27,-69 1637.03,-69 1661.77,-69"/>
<polygon fill="black" stroke="black" points="1661.95,-72.5001 1671.95,-69 1661.95,-65.5001 1661.95,-72.5001"/>
<text text-anchor="middle" x="1626" y="-72.8" font-family="Times,serif" font-size="14.00">u000a</text>
</g>
<!-- 31 -->
<g id="node39" class="node"><title>31</title>
<ellipse fill="none" stroke="black" cx="1817.5" cy="-69" rx="18" ry="18"/>
</g>
<!-- 28&#45;&gt;31 -->
<g id="edge39" class="edge"><title>28&#45;&gt;31</title>
<path fill="none" stroke="black" d="M1708.19,-69C1729.01,-69 1764.34,-69 1788.97,-69"/>
<polygon fill="black" stroke="black" points="1789.12,-72.5001 1799.12,-69 1789.12,-65.5001 1789.12,-72.5001"/>
<text text-anchor="middle" x="1754" y="-72.8" font-family="Times,serif" font-size="14.00">u0007</text>
</g>
<!-- 34 -->
<g id="node40" class="node"><title>34</title>
<ellipse fill="none" stroke="black" cx="1945" cy="-69" rx="18" ry="18"/>
</g>
<!-- 31&#45;&gt;34 -->
<g id="edge40" class="edge"><title>31&#45;&gt;34</title>
<path fill="none" stroke="black" d="M1835.69,-69C1856.51,-69 1891.84,-69 1916.47,-69"/>
<polygon fill="black" stroke="black" points="1916.62,-72.5001 1926.62,-69 1916.62,-65.5001 1916.62,-72.5001"/>
<text text-anchor="middle" x="1881" y="-72.8" font-family="Times,serif" font-size="14.00">u0007</text>
</g>
<!-- 37 -->
<g id="node41" class="node"><title>37</title>
<ellipse fill="none" stroke="black" cx="2071.5" cy="-69" rx="18" ry="18"/>
</g>
<!-- 34&#45;&gt;37 -->
<g id="edge41" class="edge"><title>34&#45;&gt;37</title>
<path fill="none" stroke="black" d="M1963.05,-69C1983.7,-69 2018.76,-69 2043.19,-69"/>
<polygon fill="black" stroke="black" points="2043.26,-72.5001 2053.26,-69 2043.26,-65.5001 2043.26,-72.5001"/>
<text text-anchor="middle" x="2008.5" y="-72.8" font-family="Times,serif" font-size="14.00">u000a</text>
</g>
<!-- 40 -->
<g id="node42" class="node"><title>40</title>
<ellipse fill="none" stroke="black" cx="2199" cy="-69" rx="18" ry="18"/>
</g>
<!-- 37&#45;&gt;40 -->
<g id="edge42" class="edge"><title>37&#45;&gt;40</title>
<path fill="none" stroke="black" d="M2089.69,-69C2110.51,-69 2145.84,-69 2170.47,-69"/>
<polygon fill="black" stroke="black" points="2170.62,-72.5001 2180.62,-69 2170.62,-65.5001 2170.62,-72.5001"/>
<text text-anchor="middle" x="2135" y="-72.8" font-family="Times,serif" font-size="14.00">u0006</text>
</g>
<!-- 42 -->
<g id="node43" class="node"><title>42</title>
<ellipse fill="none" stroke="black" cx="2326" cy="-69" rx="18" ry="18"/>
</g>
<!-- 40&#45;&gt;42 -->
<g id="edge43" class="edge"><title>40&#45;&gt;42</title>
<path fill="none" stroke="black" d="M2217.12,-69C2237.85,-69 2273.05,-69 2297.58,-69"/>
<polygon fill="black" stroke="black" points="2297.69,-72.5001 2307.69,-69 2297.69,-65.5001 2297.69,-72.5001"/>
<text text-anchor="middle" x="2262.5" y="-72.8" font-family="Times,serif" font-size="14.00">u000a</text>
</g>
<!-- 42&#45;&gt;32 -->
<g id="edge44" class="edge"><title>42&#45;&gt;32</title>
<path fill="none" stroke="black" d="M2344.26,-69C2365.27,-69 2401.03,-69 2425.77,-69"/>
<polygon fill="black" stroke="black" points="2425.95,-72.5001 2435.95,-69 2425.95,-65.5001 2425.95,-72.5001"/>
<text text-anchor="middle" x="2390" y="-72.8" font-family="Times,serif" font-size="14.00">u0010</text>
</g>
<!-- initial -->
<g id="node44" class="node"><title>initial</title>
</g>
<!-- initial&#45;&gt;0 -->
<g id="edge45" class="edge"><title>initial&#45;&gt;0</title>
<path fill="none" stroke="black" d="M54.195,-92C62.6538,-92 72.0513,-92 80.5951,-92"/>
<polygon fill="black" stroke="black" points="80.8257,-95.5001 90.8257,-92 80.8257,-88.5001 80.8257,-95.5001"/>
</g>
</g>
</svg>
