<svg width="4345px" height="787px"
 viewBox="0.00 0.00 3259.00 590.00" xmlns="http://www.w3.org/2000/svg" xmlns:xlink="http://www.w3.org/1999/xlink">
<g id="graph0" class="graph" transform="scale(1.000022500562514 1.000022500562514) rotate(0) translate(4 586)">
<title>Automaton</title>
<polygon fill="white" stroke="none" points="-4,4 -4,-586 3255,-586 3255,4 -4,4"/>
<!-- 0 -->
<g id="node1" class="node"><title>0</title>
<ellipse fill="none" stroke="black" cx="109" cy="-459" rx="18" ry="18"/>
</g>
<!-- 1 -->
<g id="node2" class="node"><title>1</title>
<ellipse fill="none" stroke="black" cx="227" cy="-459" rx="18" ry="18"/>
</g>
<!-- 0&#45;&gt;1 -->
<g id="edge1" class="edge"><title>0&#45;&gt;1</title>
<path fill="none" stroke="black" d="M127.116,-459C145.964,-459 176.531,-459 198.696,-459"/>
<polygon fill="black" stroke="black" points="198.814,-462.5 208.814,-459 198.814,-455.5 198.814,-462.5"/>
<text text-anchor="middle" x="168" y="-462.8" font-family="Times,serif" font-size="14.00">u0007</text>
</g>
<!-- 2 -->
<g id="node3" class="node"><title>2</title>
<ellipse fill="none" stroke="black" cx="345" cy="-459" rx="18" ry="18"/>
</g>
<!-- 1&#45;&gt;2 -->
<g id="edge2" class="edge"><title>1&#45;&gt;2</title>
<path fill="none" stroke="black" d="M245.116,-459C263.964,-459 294.531,-459 316.696,-459"/>
<polygon fill="black" stroke="black" points="316.814,-462.5 326.814,-459 316.814,-455.5 316.814,-462.5"/>
<text text-anchor="middle" x="286" y="-462.8" font-family="Times,serif" font-size="14.00">u0009</text>
</g>
<!-- 3 -->
<g id="node4" class="node"><title>3</title>
<ellipse fill="none" stroke="black" cx="462" cy="-459" rx="18" ry="18"/>
</g>
<!-- 2&#45;&gt;3 -->
<g id="edge3" class="edge"><title>2&#45;&gt;3</title>
<path fill="none" stroke="black" d="M363.466,-459C382.064,-459 411.756,-459 433.499,-459"/>
<polygon fill="black" stroke="black" points="433.746,-462.5 443.746,-459 433.746,-455.5 433.746,-462.5"/>
<text text-anchor="middle" x="403.5" y="-462.8" font-family="Times,serif" font-size="14.00">u000a</text>
</g>
<!-- 4 -->
<g id="node5" class="node"><title>4</title>
<ellipse fill="none" stroke="black" cx="580" cy="-459" rx="18" ry="18"/>
</g>
<!-- 3&#45;&gt;4 -->
<g id="edge4" class="edge"><title>3&#45;&gt;4</title>
<path fill="none" stroke="black" d="M480.116,-459C498.964,-459 529.531,-459 551.696,-459"/>
<polygon fill="black" stroke="black" points="551.814,-462.5 561.814,-459 551.814,-455.5 551.814,-462.5"/>
<text text-anchor="middle" x="521" y="-462.8" font-family="Times,serif" font-size="14.00">u000b</text>
</g>
<!-- 5 -->
<g id="node6" class="node"><title>5</title>
<ellipse fill="none" stroke="black" cx="698" cy="-459" rx="18" ry="18"/>
</g>
<!-- 4&#45;&gt;5 -->
<g id="edge5" class="edge"><title>4&#45;&gt;5</title>
<path fill="none" stroke="black" d="M598.116,-459C616.964,-459 647.531,-459 669.696,-459"/>
<polygon fill="black" stroke="black" points="669.814,-462.5 679.814,-459 669.814,-455.5 669.814,-462.5"/>
<text text-anchor="middle" x="639" y="-462.8" font-family="Times,serif" font-size="14.00">u0005</text>
</g>
<!-- 6 -->
<g id="node7" class="node"><title>6</title>
<ellipse fill="none" stroke="black" cx="816" cy="-459" rx="18" ry="18"/>
</g>
<!-- 5&#45;&gt;6 -->
<g id="edge6" class="edge"><title>5&#45;&gt;6</title>
<path fill="none" stroke="black" d="M716.116,-459C734.964,-459 765.531,-459 787.696,-459"/>
<polygon fill="black" stroke="black" points="787.814,-462.5 797.814,-459 787.814,-455.5 787.814,-462.5"/>
<text text-anchor="middle" x="757" y="-462.8" font-family="Times,serif" font-size="14.00">u0001</text>
</g>
<!-- 7 -->
<g id="node8" class="node"><title>7</title>
<ellipse fill="none" stroke="black" cx="934" cy="-459" rx="18" ry="18"/>
</g>
<!-- 6&#45;&gt;7 -->
<g id="edge7" class="edge"><title>6&#45;&gt;7</title>
<path fill="none" stroke="black" d="M834.116,-459C852.964,-459 883.531,-459 905.696,-459"/>
<polygon fill="black" stroke="black" points="905.814,-462.5 915.814,-459 905.814,-455.5 905.814,-462.5"/>
<text text-anchor="middle" x="875" y="-462.8" font-family="Times,serif" font-size="14.00">u0003</text>
</g>
<!-- 8 -->
<g id="node9" class="node"><title>8</title>
<ellipse fill="none" stroke="black" cx="1051" cy="-459" rx="18" ry="18"/>
</g>
<!-- 7&#45;&gt;8 -->
<g id="edge8" class="edge"><title>7&#45;&gt;8</title>
<path fill="none" stroke="black" d="M952.466,-459C971.064,-459 1000.76,-459 1022.5,-459"/>
<polygon fill="black" stroke="black" points="1022.75,-462.5 1032.75,-459 1022.75,-455.5 1022.75,-462.5"/>
<text text-anchor="middle" x="992.5" y="-462.8" font-family="Times,serif" font-size="14.00">u000c</text>
</g>
<!-- 9 -->
<g id="node10" class="node"><title>9</title>
<ellipse fill="none" stroke="black" cx="1169" cy="-459" rx="18" ry="18"/>
</g>
<!-- 8&#45;&gt;9 -->
<g id="edge9" class="edge"><title>8&#45;&gt;9</title>
<path fill="none" stroke="black" d="M1069.12,-459C1087.96,-459 1118.53,-459 1140.7,-459"/>
<polygon fill="black" stroke="black" points="1140.81,-462.5 1150.81,-459 1140.81,-455.5 1140.81,-462.5"/>
<text text-anchor="middle" x="1110" y="-462.8" font-family="Times,serif" font-size="14.00">u0002</text>
</g>
<!-- 10 -->
<g id="node11" class="node"><title>10</title>
<ellipse fill="none" stroke="black" cx="1287" cy="-293" rx="18" ry="18"/>
</g>
<!-- 9&#45;&gt;10 -->
<g id="edge10" class="edge"><title>9&#45;&gt;10</title>
<path fill="none" stroke="black" d="M1180.09,-444.559C1200.23,-415.74 1245.56,-350.877 1269.87,-316.085"/>
<polygon fill="black" stroke="black" points="1272.99,-317.728 1275.85,-307.526 1267.25,-313.718 1272.99,-317.728"/>
<text text-anchor="middle" x="1228" y="-409.8" font-family="Times,serif" font-size="14.00">u0004</text>
</g>
<!-- 13 -->
<g id="node19" class="node"><title>13</title>
<ellipse fill="none" stroke="black" cx="3229" cy="-379" rx="18" ry="18"/>
<ellipse fill="none" stroke="black" cx="3229" cy="-379" rx="22" ry="22"/>
</g>
<!-- 9&#45;&gt;13 -->
<g id="edge13" class="edge"><title>9&#45;&gt;13</title>
<path fill="none" stroke="black" d="M1177.72,-474.936C1193.53,-504.978 1232.62,-567 1286,-567 1286,-567 1286,-567 3108,-567 3181.15,-567 3211.68,-464.631 3222.67,-410.971"/>
<polygon fill="black" stroke="black" points="3226.14,-411.417 3224.61,-400.934 3219.27,-410.087 3226.14,-411.417"/>
<text text-anchor="middle" x="2202" y="-570.8" font-family="Times,serif" font-size="14.00">u0000</text>
</g>
<!-- 11 -->
<g id="node41" class="node"><title>11</title>
<ellipse fill="none" stroke="black" cx="2507" cy="-473" rx="18" ry="18"/>
</g>
<!-- 9&#45;&gt;11 -->
<g id="edge11" class="edge"><title>9&#45;&gt;11</title>
<path fill="none" stroke="black" d="M1187.28,-460.21C1209.94,-461.69 1250.93,-464 1286,-464 1286,-464 1286,-464 2385,-464 2417.3,-464 2454.31,-467.228 2478.8,-469.817"/>
<polygon fill="black" stroke="black" points="2478.48,-473.303 2488.8,-470.913 2479.24,-466.344 2478.48,-473.303"/>
<text text-anchor="middle" x="1848" y="-467.8" font-family="Times,serif" font-size="14.00">u0008</text>
</g>
<!-- 12 -->
<g id="node45" class="node"><title>12</title>
<ellipse fill="none" stroke="black" cx="2384" cy="-48" rx="18" ry="18"/>
</g>
<!-- 9&#45;&gt;12 -->
<g id="edge12" class="edge"><title>9&#45;&gt;12</title>
<path fill="none" stroke="black" d="M1171.18,-441.075C1176.83,-362.695 1204.27,-54 1286,-54 1286,-54 1286,-54 2262,-54 2294.25,-54 2331.27,-51.8481 2355.78,-50.1217"/>
<polygon fill="black" stroke="black" points="2356.06,-53.6103 2365.78,-49.3916 2355.55,-46.6289 2356.06,-53.6103"/>
<text text-anchor="middle" x="1784" y="-57.8" font-family="Times,serif" font-size="14.00">u0006</text>
</g>
<!-- 14 -->
<g id="node12" class="node"><title>14</title>
<ellipse fill="none" stroke="black" cx="1464" cy="-262" rx="18" ry="18"/>
</g>
<!-- 10&#45;&gt;14 -->
<g id="edge14" class="edge"><title>10&#45;&gt;14</title>
<path fill="none" stroke="black" d="M1304.78,-290.028C1335.15,-284.648 1399.45,-273.257 1436.05,-266.775"/>
<polygon fill="black" stroke="black" points="1436.78,-270.2 1446.01,-265.009 1435.56,-263.307 1436.78,-270.2"/>
<text text-anchor="middle" x="1346" y="-290.8" font-family="Times,serif" font-size="14.00">u0004</text>
</g>
<!-- 15 -->
<g id="node20" class="node"><title>15</title>
<ellipse fill="none" stroke="black" cx="2261" cy="-325" rx="18" ry="18"/>
</g>
<!-- 10&#45;&gt;15 -->
<g id="edge15" class="edge"><title>10&#45;&gt;15</title>
<path fill="none" stroke="black" d="M1304.26,-299.03C1326.47,-306.711 1367.68,-319 1404,-319 1404,-319 1404,-319 2144,-319 2174.29,-319 2208.97,-321.066 2232.46,-322.773"/>
<polygon fill="black" stroke="black" points="2232.48,-326.285 2242.72,-323.548 2233.01,-319.304 2232.48,-326.285"/>
<text text-anchor="middle" x="1784" y="-322.8" font-family="Times,serif" font-size="14.00">u0008</text>
</g>
<!-- 16 -->
<g id="node27" class="node"><title>16</title>
<ellipse fill="none" stroke="black" cx="1405" cy="-218" rx="18" ry="18"/>
</g>
<!-- 10&#45;&gt;16 -->
<g id="edge16" class="edge"><title>10&#45;&gt;16</title>
<path fill="none" stroke="black" d="M1293,-275.93C1298.13,-261.577 1307.58,-241.732 1323,-231 1338.53,-220.188 1359.77,-217.098 1376.6,-216.627"/>
<polygon fill="black" stroke="black" points="1376.91,-220.127 1386.92,-216.64 1376.92,-213.127 1376.91,-220.127"/>
<text text-anchor="middle" x="1346" y="-234.8" font-family="Times,serif" font-size="14.00">u0006</text>
</g>
<!-- 22 -->
<g id="node13" class="node"><title>22</title>
<ellipse fill="none" stroke="black" cx="1592" cy="-257" rx="18" ry="18"/>
</g>
<!-- 14&#45;&gt;22 -->
<g id="edge17" class="edge"><title>14&#45;&gt;22</title>
<path fill="none" stroke="black" d="M1481.99,-261.326C1502.94,-260.494 1538.81,-259.071 1563.65,-258.085"/>
<polygon fill="black" stroke="black" points="1564.02,-261.573 1573.87,-257.68 1563.74,-254.579 1564.02,-261.573"/>
<text text-anchor="middle" x="1528" y="-264.8" font-family="Times,serif" font-size="14.00">u0004</text>
</g>
<!-- 29 -->
<g id="node14" class="node"><title>29</title>
<ellipse fill="none" stroke="black" cx="1720" cy="-256" rx="18" ry="18"/>
</g>
<!-- 22&#45;&gt;29 -->
<g id="edge18" class="edge"><title>22&#45;&gt;29</title>
<path fill="none" stroke="black" d="M1610.26,-256.863C1631.27,-256.696 1667.03,-256.412 1691.77,-256.216"/>
<polygon fill="black" stroke="black" points="1691.98,-259.715 1701.95,-256.135 1691.93,-252.715 1691.98,-259.715"/>
<text text-anchor="middle" x="1656" y="-260.8" font-family="Times,serif" font-size="14.00">u0008</text>
</g>
<!-- 36 -->
<g id="node15" class="node"><title>36</title>
<ellipse fill="none" stroke="black" cx="1848" cy="-252" rx="18" ry="18"/>
</g>
<!-- 29&#45;&gt;36 -->
<g id="edge19" class="edge"><title>29&#45;&gt;36</title>
<path fill="none" stroke="black" d="M1737.99,-255.461C1758.94,-254.796 1794.81,-253.657 1819.65,-252.868"/>
<polygon fill="black" stroke="black" points="1819.99,-256.359 1829.87,-252.544 1819.77,-249.363 1819.99,-256.359"/>
<text text-anchor="middle" x="1784" y="-258.8" font-family="Times,serif" font-size="14.00">u0008</text>
</g>
<!-- 39 -->
<g id="node16" class="node"><title>39</title>
<ellipse fill="none" stroke="black" cx="2866" cy="-232" rx="18" ry="18"/>
</g>
<!-- 36&#45;&gt;39 -->
<g id="edge20" class="edge"><title>36&#45;&gt;39</title>
<path fill="none" stroke="black" d="M1866.29,-251.032C1888.95,-249.848 1929.94,-248 1965,-248 1965,-248 1965,-248 2744,-248 2776.67,-248 2813.88,-242.196 2838.31,-237.58"/>
<polygon fill="black" stroke="black" points="2839.12,-240.988 2848.26,-235.631 2837.77,-234.118 2839.12,-240.988"/>
<text text-anchor="middle" x="2320" y="-251.8" font-family="Times,serif" font-size="14.00">u0006</text>
</g>
<!-- 31 -->
<g id="node17" class="node"><title>31</title>
<ellipse fill="none" stroke="black" cx="2989" cy="-347" rx="18" ry="18"/>
</g>
<!-- 39&#45;&gt;31 -->
<g id="edge21" class="edge"><title>39&#45;&gt;31</title>
<path fill="none" stroke="black" d="M2879.95,-244.307C2900.96,-264.28 2942.66,-303.905 2967.66,-327.668"/>
<polygon fill="black" stroke="black" points="2965.48,-330.429 2975.14,-334.781 2970.31,-325.355 2965.48,-330.429"/>
<text text-anchor="middle" x="2930" y="-317.8" font-family="Times,serif" font-size="14.00">u0004</text>
</g>
<!-- 17 -->
<g id="node18" class="node"><title>17</title>
<ellipse fill="none" stroke="black" cx="3107" cy="-302" rx="18" ry="18"/>
</g>
<!-- 31&#45;&gt;17 -->
<g id="edge22" class="edge"><title>31&#45;&gt;17</title>
<path fill="none" stroke="black" d="M3006.13,-340.743C3025.43,-333.254 3057.99,-320.624 3080.67,-311.828"/>
<polygon fill="black" stroke="black" points="3081.95,-315.084 3090.01,-308.204 3079.42,-308.558 3081.95,-315.084"/>
<text text-anchor="middle" x="3048" y="-336.8" font-family="Times,serif" font-size="14.00">u0006</text>
</g>
<!-- 17&#45;&gt;13 -->
<g id="edge23" class="edge"><title>17&#45;&gt;13</title>
<path fill="none" stroke="black" d="M3122.71,-311.442C3142.25,-323.976 3177.09,-346.335 3201.32,-361.882"/>
<polygon fill="black" stroke="black" points="3199.73,-365.018 3210.03,-367.472 3203.51,-359.126 3199.73,-365.018"/>
<text text-anchor="middle" x="3166" y="-355.8" font-family="Times,serif" font-size="14.00">u0000</text>
</g>
<!-- 15&#45;&gt;17 -->
<g id="edge24" class="edge"><title>15&#45;&gt;17</title>
<path fill="none" stroke="black" d="M2277.16,-316.729C2299.59,-305.281 2343.27,-286 2383,-286 2383,-286 2383,-286 2685,-286 2804.12,-286 2834,-284.451 2953,-290 2997.09,-292.056 3048.18,-296.476 3078.76,-299.339"/>
<polygon fill="black" stroke="black" points="3078.76,-302.855 3089.04,-300.317 3079.42,-295.886 3078.76,-302.855"/>
<text text-anchor="middle" x="2684" y="-289.8" font-family="Times,serif" font-size="14.00">u0004</text>
</g>
<!-- 23 -->
<g id="node21" class="node"><title>23</title>
<ellipse fill="none" stroke="black" cx="2384" cy="-332" rx="18" ry="18"/>
</g>
<!-- 15&#45;&gt;23 -->
<g id="edge25" class="edge"><title>15&#45;&gt;23</title>
<path fill="none" stroke="black" d="M2279.08,-325.988C2299.08,-327.145 2332.45,-329.076 2355.98,-330.437"/>
<polygon fill="black" stroke="black" points="2355.82,-333.933 2366.01,-331.017 2356.23,-326.945 2355.82,-333.933"/>
<text text-anchor="middle" x="2320" y="-333.8" font-family="Times,serif" font-size="14.00">u0008</text>
</g>
<!-- 24 -->
<g id="node26" class="node"><title>24</title>
<ellipse fill="none" stroke="black" cx="2866" cy="-378" rx="18" ry="18"/>
</g>
<!-- 15&#45;&gt;24 -->
<g id="edge26" class="edge"><title>15&#45;&gt;24</title>
<path fill="none" stroke="black" d="M2275.67,-335.471C2297.23,-350.917 2341.03,-378 2383,-378 2383,-378 2383,-378 2744,-378 2776.21,-378 2813.23,-378 2837.76,-378"/>
<polygon fill="black" stroke="black" points="2837.77,-381.5 2847.77,-378 2837.77,-374.5 2837.77,-381.5"/>
<text text-anchor="middle" x="2566" y="-381.8" font-family="Times,serif" font-size="14.00">u0006</text>
</g>
<!-- 30 -->
<g id="node22" class="node"><title>30</title>
<ellipse fill="none" stroke="black" cx="2507" cy="-332" rx="18" ry="18"/>
</g>
<!-- 23&#45;&gt;30 -->
<g id="edge27" class="edge"><title>23&#45;&gt;30</title>
<path fill="none" stroke="black" d="M2402.08,-332C2421.96,-332 2455.08,-332 2478.58,-332"/>
<polygon fill="black" stroke="black" points="2478.62,-335.5 2488.62,-332 2478.62,-328.5 2478.62,-335.5"/>
<text text-anchor="middle" x="2448" y="-335.8" font-family="Times,serif" font-size="14.00">u0004</text>
</g>
<!-- 37 -->
<g id="node23" class="node"><title>37</title>
<ellipse fill="none" stroke="black" cx="2625" cy="-332" rx="18" ry="18"/>
</g>
<!-- 30&#45;&gt;37 -->
<g id="edge28" class="edge"><title>30&#45;&gt;37</title>
<path fill="none" stroke="black" d="M2525.12,-332C2543.96,-332 2574.53,-332 2596.7,-332"/>
<polygon fill="black" stroke="black" points="2596.81,-335.5 2606.81,-332 2596.81,-328.5 2596.81,-335.5"/>
<text text-anchor="middle" x="2566" y="-335.8" font-family="Times,serif" font-size="14.00">u0004</text>
</g>
<!-- 40 -->
<g id="node24" class="node"><title>40</title>
<ellipse fill="none" stroke="black" cx="2743" cy="-332" rx="18" ry="18"/>
</g>
<!-- 37&#45;&gt;40 -->
<g id="edge29" class="edge"><title>37&#45;&gt;40</title>
<path fill="none" stroke="black" d="M2643.12,-332C2661.96,-332 2692.53,-332 2714.7,-332"/>
<polygon fill="black" stroke="black" points="2714.81,-335.5 2724.81,-332 2714.81,-328.5 2714.81,-335.5"/>
<text text-anchor="middle" x="2684" y="-335.8" font-family="Times,serif" font-size="14.00">u0006</text>
</g>
<!-- 42 -->
<g id="node25" class="node"><title>42</title>
<ellipse fill="none" stroke="black" cx="2866" cy="-324" rx="18" ry="18"/>
</g>
<!-- 40&#45;&gt;42 -->
<g id="edge30" class="edge"><title>40&#45;&gt;42</title>
<path fill="none" stroke="black" d="M2761.08,-330.871C2781.08,-329.549 2814.45,-327.342 2837.98,-325.787"/>
<polygon fill="black" stroke="black" points="2838.26,-329.276 2848.01,-325.123 2837.8,-322.291 2838.26,-329.276"/>
<text text-anchor="middle" x="2802" y="-333.8" font-family="Times,serif" font-size="14.00">u0004</text>
</g>
<!-- 42&#45;&gt;31 -->
<g id="edge31" class="edge"><title>42&#45;&gt;31</title>
<path fill="none" stroke="black" d="M2883.82,-327.198C2903.76,-330.987 2937.24,-337.351 2960.86,-341.84"/>
<polygon fill="black" stroke="black" points="2960.45,-345.326 2970.93,-343.755 2961.76,-338.449 2960.45,-345.326"/>
<text text-anchor="middle" x="2930" y="-344.8" font-family="Times,serif" font-size="14.00">u0008</text>
</g>
<!-- 24&#45;&gt;31 -->
<g id="edge32" class="edge"><title>24&#45;&gt;31</title>
<path fill="none" stroke="black" d="M2883.99,-375.217C2901.47,-372.174 2929.4,-366.81 2953,-360 2956.18,-359.083 2959.48,-358.016 2962.72,-356.894"/>
<polygon fill="black" stroke="black" points="2963.94,-360.176 2972.14,-353.463 2961.54,-353.599 2963.94,-360.176"/>
<text text-anchor="middle" x="2930" y="-374.8" font-family="Times,serif" font-size="14.00">u0004</text>
</g>
<!-- 24&#45;&gt;13 -->
<g id="edge33" class="edge"><title>24&#45;&gt;13</title>
<path fill="none" stroke="black" d="M2883.1,-384C2890.31,-386.377 2898.97,-388.821 2907,-390 2927.23,-392.969 2932.56,-390.409 2953,-390 3041.53,-388.23 3145.99,-383.258 3196.93,-380.648"/>
<polygon fill="black" stroke="black" points="3197.16,-384.141 3206.96,-380.129 3196.8,-377.15 3197.16,-384.141"/>
<text text-anchor="middle" x="3048" y="-392.8" font-family="Times,serif" font-size="14.00">u0000</text>
</g>
<!-- 25 -->
<g id="node28" class="node"><title>25</title>
<ellipse fill="none" stroke="black" cx="1528" cy="-202" rx="18" ry="18"/>
</g>
<!-- 16&#45;&gt;25 -->
<g id="edge34" class="edge"><title>16&#45;&gt;25</title>
<path fill="none" stroke="black" d="M1423.08,-215.742C1443.08,-213.097 1476.45,-208.684 1499.98,-205.573"/>
<polygon fill="black" stroke="black" points="1500.55,-209.028 1510.01,-204.247 1499.63,-202.088 1500.55,-209.028"/>
<text text-anchor="middle" x="1464" y="-217.8" font-family="Times,serif" font-size="14.00">u0006</text>
</g>
<!-- 25&#45;&gt;13 -->
<g id="edge36" class="edge"><title>25&#45;&gt;13</title>
<path fill="none" stroke="black" d="M1538.34,-186.812C1556.86,-158.837 1601.1,-102 1655,-102 1655,-102 1655,-102 3108,-102 3213.65,-102 3227.32,-273.759 3228.36,-346.776"/>
<polygon fill="black" stroke="black" points="3224.86,-346.825 3228.43,-356.8 3231.86,-346.776 3224.86,-346.825"/>
<text text-anchor="middle" x="2384" y="-105.8" font-family="Times,serif" font-size="14.00">u0000</text>
</g>
<!-- 32 -->
<g id="node29" class="node"><title>32</title>
<ellipse fill="none" stroke="black" cx="1656" cy="-202" rx="18" ry="18"/>
</g>
<!-- 25&#45;&gt;32 -->
<g id="edge35" class="edge"><title>25&#45;&gt;32</title>
<path fill="none" stroke="black" d="M1546.26,-202C1567.27,-202 1603.03,-202 1627.77,-202"/>
<polygon fill="black" stroke="black" points="1627.95,-205.5 1637.95,-202 1627.95,-198.5 1627.95,-205.5"/>
<text text-anchor="middle" x="1592" y="-205.8" font-family="Times,serif" font-size="14.00">u0008</text>
</g>
<!-- 38 -->
<g id="node30" class="node"><title>38</title>
<ellipse fill="none" stroke="black" cx="1784" cy="-202" rx="18" ry="18"/>
</g>
<!-- 32&#45;&gt;38 -->
<g id="edge37" class="edge"><title>32&#45;&gt;38</title>
<path fill="none" stroke="black" d="M1674.26,-202C1695.27,-202 1731.03,-202 1755.77,-202"/>
<polygon fill="black" stroke="black" points="1755.95,-205.5 1765.95,-202 1755.95,-198.5 1755.95,-205.5"/>
<text text-anchor="middle" x="1720" y="-205.8" font-family="Times,serif" font-size="14.00">u0008</text>
</g>
<!-- 41 -->
<g id="node31" class="node"><title>41</title>
<ellipse fill="none" stroke="black" cx="1907" cy="-202" rx="18" ry="18"/>
</g>
<!-- 38&#45;&gt;41 -->
<g id="edge38" class="edge"><title>38&#45;&gt;41</title>
<path fill="none" stroke="black" d="M1802.08,-202C1821.96,-202 1855.08,-202 1878.58,-202"/>
<polygon fill="black" stroke="black" points="1878.62,-205.5 1888.62,-202 1878.62,-198.5 1878.62,-205.5"/>
<text text-anchor="middle" x="1848" y="-205.8" font-family="Times,serif" font-size="14.00">u0006</text>
</g>
<!-- 43 -->
<g id="node32" class="node"><title>43</title>
<ellipse fill="none" stroke="black" cx="2025" cy="-202" rx="18" ry="18"/>
</g>
<!-- 41&#45;&gt;43 -->
<g id="edge39" class="edge"><title>41&#45;&gt;43</title>
<path fill="none" stroke="black" d="M1925.12,-202C1943.96,-202 1974.53,-202 1996.7,-202"/>
<polygon fill="black" stroke="black" points="1996.81,-205.5 2006.81,-202 1996.81,-198.5 1996.81,-205.5"/>
<text text-anchor="middle" x="1966" y="-205.8" font-family="Times,serif" font-size="14.00">u0008</text>
</g>
<!-- 44 -->
<g id="node33" class="node"><title>44</title>
<ellipse fill="none" stroke="black" cx="2143" cy="-202" rx="18" ry="18"/>
</g>
<!-- 43&#45;&gt;44 -->
<g id="edge40" class="edge"><title>43&#45;&gt;44</title>
<path fill="none" stroke="black" d="M2043.12,-202C2061.96,-202 2092.53,-202 2114.7,-202"/>
<polygon fill="black" stroke="black" points="2114.81,-205.5 2124.81,-202 2114.81,-198.5 2114.81,-205.5"/>
<text text-anchor="middle" x="2084" y="-205.8" font-family="Times,serif" font-size="14.00">u0008</text>
</g>
<!-- 45 -->
<g id="node34" class="node"><title>45</title>
<ellipse fill="none" stroke="black" cx="2261" cy="-202" rx="18" ry="18"/>
</g>
<!-- 44&#45;&gt;45 -->
<g id="edge41" class="edge"><title>44&#45;&gt;45</title>
<path fill="none" stroke="black" d="M2161.12,-202C2179.96,-202 2210.53,-202 2232.7,-202"/>
<polygon fill="black" stroke="black" points="2232.81,-205.5 2242.81,-202 2232.81,-198.5 2232.81,-205.5"/>
<text text-anchor="middle" x="2202" y="-205.8" font-family="Times,serif" font-size="14.00">u0008</text>
</g>
<!-- 46 -->
<g id="node35" class="node"><title>46</title>
<ellipse fill="none" stroke="black" cx="2384" cy="-202" rx="18" ry="18"/>
</g>
<!-- 45&#45;&gt;46 -->
<g id="edge42" class="edge"><title>45&#45;&gt;46</title>
<path fill="none" stroke="black" d="M2279.08,-202C2298.96,-202 2332.08,-202 2355.58,-202"/>
<polygon fill="black" stroke="black" points="2355.62,-205.5 2365.62,-202 2355.62,-198.5 2355.62,-205.5"/>
<text text-anchor="middle" x="2320" y="-205.8" font-family="Times,serif" font-size="14.00">u0008</text>
</g>
<!-- 47 -->
<g id="node36" class="node"><title>47</title>
<ellipse fill="none" stroke="black" cx="2507" cy="-202" rx="18" ry="18"/>
</g>
<!-- 46&#45;&gt;47 -->
<g id="edge43" class="edge"><title>46&#45;&gt;47</title>
<path fill="none" stroke="black" d="M2402.08,-202C2421.96,-202 2455.08,-202 2478.58,-202"/>
<polygon fill="black" stroke="black" points="2478.62,-205.5 2488.62,-202 2478.62,-198.5 2478.62,-205.5"/>
<text text-anchor="middle" x="2448" y="-205.8" font-family="Times,serif" font-size="14.00">u0008</text>
</g>
<!-- 48 -->
<g id="node37" class="node"><title>48</title>
<ellipse fill="none" stroke="black" cx="2625" cy="-202" rx="18" ry="18"/>
</g>
<!-- 47&#45;&gt;48 -->
<g id="edge44" class="edge"><title>47&#45;&gt;48</title>
<path fill="none" stroke="black" d="M2525.12,-202C2543.96,-202 2574.53,-202 2596.7,-202"/>
<polygon fill="black" stroke="black" points="2596.81,-205.5 2606.81,-202 2596.81,-198.5 2596.81,-205.5"/>
<text text-anchor="middle" x="2566" y="-205.8" font-family="Times,serif" font-size="14.00">u0008</text>
</g>
<!-- 49 -->
<g id="node38" class="node"><title>49</title>
<ellipse fill="none" stroke="black" cx="2743" cy="-202" rx="18" ry="18"/>
</g>
<!-- 48&#45;&gt;49 -->
<g id="edge45" class="edge"><title>48&#45;&gt;49</title>
<path fill="none" stroke="black" d="M2643.12,-202C2661.96,-202 2692.53,-202 2714.7,-202"/>
<polygon fill="black" stroke="black" points="2714.81,-205.5 2724.81,-202 2714.81,-198.5 2714.81,-205.5"/>
<text text-anchor="middle" x="2684" y="-205.8" font-family="Times,serif" font-size="14.00">u0004</text>
</g>
<!-- 50 -->
<g id="node39" class="node"><title>50</title>
<ellipse fill="none" stroke="black" cx="2866" cy="-178" rx="18" ry="18"/>
</g>
<!-- 49&#45;&gt;50 -->
<g id="edge46" class="edge"><title>49&#45;&gt;50</title>
<path fill="none" stroke="black" d="M2760.82,-198.663C2780.76,-194.709 2814.24,-188.068 2837.86,-183.384"/>
<polygon fill="black" stroke="black" points="2838.8,-186.765 2847.93,-181.386 2837.44,-179.899 2838.8,-186.765"/>
<text text-anchor="middle" x="2802" y="-198.8" font-family="Times,serif" font-size="14.00">u0008</text>
</g>
<!-- 19 -->
<g id="node40" class="node"><title>19</title>
<ellipse fill="none" stroke="black" cx="2989" cy="-178" rx="18" ry="18"/>
</g>
<!-- 50&#45;&gt;19 -->
<g id="edge47" class="edge"><title>50&#45;&gt;19</title>
<path fill="none" stroke="black" d="M2884.08,-178C2903.96,-178 2937.08,-178 2960.58,-178"/>
<polygon fill="black" stroke="black" points="2960.62,-181.5 2970.62,-178 2960.62,-174.5 2960.62,-181.5"/>
<text text-anchor="middle" x="2930" y="-181.8" font-family="Times,serif" font-size="14.00">u0004</text>
</g>
<!-- 19&#45;&gt;17 -->
<g id="edge48" class="edge"><title>19&#45;&gt;17</title>
<path fill="none" stroke="black" d="M3004.3,-188.107C3021.43,-200.654 3050.39,-223.307 3071,-247 3079.08,-256.283 3086.61,-267.601 3092.6,-277.551"/>
<polygon fill="black" stroke="black" points="3089.58,-279.326 3097.64,-286.207 3095.63,-275.804 3089.58,-279.326"/>
<text text-anchor="middle" x="3048" y="-250.8" font-family="Times,serif" font-size="14.00">u0004</text>
</g>
<!-- 11&#45;&gt;17 -->
<g id="edge49" class="edge"><title>11&#45;&gt;17</title>
<path fill="none" stroke="black" d="M2525.28,-474.21C2547.94,-475.69 2588.93,-478 2624,-478 2624,-478 2624,-478 2867,-478 2920.28,-478 3033.47,-389.826 3071,-352 3078.64,-344.296 3085.77,-334.753 3091.58,-326.076"/>
<polygon fill="black" stroke="black" points="3094.65,-327.765 3097.11,-317.46 3088.76,-323.982 3094.65,-327.765"/>
<text text-anchor="middle" x="2802" y="-481.8" font-family="Times,serif" font-size="14.00">u0004</text>
</g>
<!-- 11&#45;&gt;13 -->
<g id="edge51" class="edge"><title>11&#45;&gt;13</title>
<path fill="none" stroke="black" d="M2521.78,-483.567C2542.68,-498.505 2584.18,-524 2624,-524 2624,-524 2624,-524 3108,-524 3166.99,-524 3202.46,-451.894 3218.24,-409.377"/>
<polygon fill="black" stroke="black" points="3221.6,-410.37 3221.66,-399.775 3215.01,-408.022 3221.6,-410.37"/>
<text text-anchor="middle" x="2866" y="-527.8" font-family="Times,serif" font-size="14.00">u0000</text>
</g>
<!-- 18 -->
<g id="node42" class="node"><title>18</title>
<ellipse fill="none" stroke="black" cx="2625" cy="-432" rx="18" ry="18"/>
</g>
<!-- 11&#45;&gt;18 -->
<g id="edge50" class="edge"><title>11&#45;&gt;18</title>
<path fill="none" stroke="black" d="M2521.56,-461.841C2527.76,-457.243 2535.41,-452.244 2543,-449 2560.07,-441.703 2580.54,-437.442 2596.63,-435.01"/>
<polygon fill="black" stroke="black" points="2597.54,-438.419 2606.97,-433.605 2596.59,-431.483 2597.54,-438.419"/>
<text text-anchor="middle" x="2566" y="-452.8" font-family="Times,serif" font-size="14.00">u0006</text>
</g>
<!-- 26 -->
<g id="node43" class="node"><title>26</title>
<ellipse fill="none" stroke="black" cx="2743" cy="-432" rx="18" ry="18"/>
</g>
<!-- 18&#45;&gt;26 -->
<g id="edge52" class="edge"><title>18&#45;&gt;26</title>
<path fill="none" stroke="black" d="M2643.12,-432C2661.96,-432 2692.53,-432 2714.7,-432"/>
<polygon fill="black" stroke="black" points="2714.81,-435.5 2724.81,-432 2714.81,-428.5 2714.81,-435.5"/>
<text text-anchor="middle" x="2684" y="-435.8" font-family="Times,serif" font-size="14.00">u0006</text>
</g>
<!-- 33 -->
<g id="node44" class="node"><title>33</title>
<ellipse fill="none" stroke="black" cx="2866" cy="-432" rx="18" ry="18"/>
</g>
<!-- 26&#45;&gt;33 -->
<g id="edge53" class="edge"><title>26&#45;&gt;33</title>
<path fill="none" stroke="black" d="M2761.08,-432C2780.96,-432 2814.08,-432 2837.58,-432"/>
<polygon fill="black" stroke="black" points="2837.62,-435.5 2847.62,-432 2837.62,-428.5 2837.62,-435.5"/>
<text text-anchor="middle" x="2802" y="-435.8" font-family="Times,serif" font-size="14.00">u0004</text>
</g>
<!-- 33&#45;&gt;31 -->
<g id="edge54" class="edge"><title>33&#45;&gt;31</title>
<path fill="none" stroke="black" d="M2883.4,-426.435C2901.65,-419.718 2931.4,-407.149 2953,-390 2960,-384.446 2966.52,-377.267 2972,-370.371"/>
<polygon fill="black" stroke="black" points="2975.12,-372.032 2978.32,-361.932 2969.52,-367.832 2975.12,-372.032"/>
<text text-anchor="middle" x="2930" y="-420.8" font-family="Times,serif" font-size="14.00">u0006</text>
</g>
<!-- 12&#45;&gt;19 -->
<g id="edge55" class="edge"><title>12&#45;&gt;19</title>
<path fill="none" stroke="black" d="M2401.74,-51.6306C2425.01,-56.3513 2468.49,-64 2506,-64 2506,-64 2506,-64 2803,-64 2872.91,-64 2938.54,-123.726 2969.46,-156.716"/>
<polygon fill="black" stroke="black" points="2967.22,-159.457 2976.55,-164.475 2972.39,-154.733 2967.22,-159.457"/>
<text text-anchor="middle" x="2684" y="-67.8" font-family="Times,serif" font-size="14.00">u0004</text>
</g>
<!-- 20 -->
<g id="node46" class="node"><title>20</title>
<ellipse fill="none" stroke="black" cx="2507" cy="-148" rx="18" ry="18"/>
</g>
<!-- 12&#45;&gt;20 -->
<g id="edge56" class="edge"><title>12&#45;&gt;20</title>
<path fill="none" stroke="black" d="M2398.41,-59.0838C2419.31,-76.3536 2459.82,-109.833 2484.73,-130.421"/>
<polygon fill="black" stroke="black" points="2482.59,-133.194 2492.53,-136.867 2487.05,-127.798 2482.59,-133.194"/>
<text text-anchor="middle" x="2448" y="-122.8" font-family="Times,serif" font-size="14.00">u0008</text>
</g>
<!-- 21 -->
<g id="node49" class="node"><title>21</title>
<ellipse fill="none" stroke="black" cx="2566" cy="-21" rx="18" ry="18"/>
</g>
<!-- 12&#45;&gt;21 -->
<g id="edge57" class="edge"><title>12&#45;&gt;21</title>
<path fill="none" stroke="black" d="M2401.13,-41.8827C2408.34,-39.3788 2417,-36.6804 2425,-35 2463.58,-26.9 2509.15,-23.4488 2537.57,-22.0042"/>
<polygon fill="black" stroke="black" points="2537.75,-25.5 2547.58,-21.5433 2537.42,-18.5075 2537.75,-25.5"/>
<text text-anchor="middle" x="2448" y="-38.8" font-family="Times,serif" font-size="14.00">u0006</text>
</g>
<!-- 27 -->
<g id="node47" class="node"><title>27</title>
<ellipse fill="none" stroke="black" cx="2625" cy="-148" rx="18" ry="18"/>
</g>
<!-- 20&#45;&gt;27 -->
<g id="edge58" class="edge"><title>20&#45;&gt;27</title>
<path fill="none" stroke="black" d="M2525.12,-148C2543.96,-148 2574.53,-148 2596.7,-148"/>
<polygon fill="black" stroke="black" points="2596.81,-151.5 2606.81,-148 2596.81,-144.5 2596.81,-151.5"/>
<text text-anchor="middle" x="2566" y="-151.8" font-family="Times,serif" font-size="14.00">u0004</text>
</g>
<!-- 34 -->
<g id="node48" class="node"><title>34</title>
<ellipse fill="none" stroke="black" cx="2743" cy="-148" rx="18" ry="18"/>
</g>
<!-- 27&#45;&gt;34 -->
<g id="edge59" class="edge"><title>27&#45;&gt;34</title>
<path fill="none" stroke="black" d="M2643.12,-148C2661.96,-148 2692.53,-148 2714.7,-148"/>
<polygon fill="black" stroke="black" points="2714.81,-151.5 2724.81,-148 2714.81,-144.5 2714.81,-151.5"/>
<text text-anchor="middle" x="2684" y="-151.8" font-family="Times,serif" font-size="14.00">u0008</text>
</g>
<!-- 34&#45;&gt;39 -->
<g id="edge60" class="edge"><title>34&#45;&gt;39</title>
<path fill="none" stroke="black" d="M2761.03,-148.123C2778.82,-149.105 2806.64,-153.153 2825,-168 2839.22,-179.499 2833.16,-189.587 2843,-205 2844.24,-206.946 2845.6,-208.912 2847.02,-210.85"/>
<polygon fill="black" stroke="black" points="2844.48,-213.28 2853.39,-219.003 2849.99,-208.969 2844.48,-213.28"/>
<text text-anchor="middle" x="2802" y="-171.8" font-family="Times,serif" font-size="14.00">u0008</text>
</g>
<!-- 28 -->
<g id="node50" class="node"><title>28</title>
<ellipse fill="none" stroke="black" cx="2866" cy="-18" rx="18" ry="18"/>
</g>
<!-- 21&#45;&gt;28 -->
<g id="edge61" class="edge"><title>21&#45;&gt;28</title>
<path fill="none" stroke="black" d="M2584.31,-20.8257C2633.89,-20.3266 2776.76,-18.8883 2837.33,-18.2785"/>
<polygon fill="black" stroke="black" points="2837.68,-21.7753 2847.64,-18.1747 2837.61,-14.7757 2837.68,-21.7753"/>
<text text-anchor="middle" x="2684" y="-24.8" font-family="Times,serif" font-size="14.00">u0004</text>
</g>
<!-- 28&#45;&gt;13 -->
<g id="edge63" class="edge"><title>28&#45;&gt;13</title>
<path fill="none" stroke="black" d="M2883.82,-15.4431C2938.26,-8.23795 3110.57,6.00882 3189,-88 3221.31,-126.732 3226.97,-279.5 3227.88,-346.834"/>
<polygon fill="black" stroke="black" points="3224.38,-346.915 3227.99,-356.877 3231.38,-346.84 3224.38,-346.915"/>
<text text-anchor="middle" x="3048" y="-24.8" font-family="Times,serif" font-size="14.00">u0000</text>
</g>
<!-- 35 -->
<g id="node51" class="node"><title>35</title>
<ellipse fill="none" stroke="black" cx="2989" cy="-56" rx="18" ry="18"/>
</g>
<!-- 28&#45;&gt;35 -->
<g id="edge62" class="edge"><title>28&#45;&gt;35</title>
<path fill="none" stroke="black" d="M2883.32,-23.1248C2903.44,-29.4425 2937.88,-40.2604 2961.74,-47.7526"/>
<polygon fill="black" stroke="black" points="2960.96,-51.1779 2971.55,-50.835 2963.06,-44.4995 2960.96,-51.1779"/>
<text text-anchor="middle" x="2930" y="-48.8" font-family="Times,serif" font-size="14.00">u0008</text>
</g>
<!-- 35&#45;&gt;17 -->
<g id="edge64" class="edge"><title>35&#45;&gt;17</title>
<path fill="none" stroke="black" d="M3000.53,-70.2386C3017.4,-93.5849 3050.62,-141.925 3071,-187 3084.03,-215.823 3093.9,-250.829 3099.78,-274.592"/>
<polygon fill="black" stroke="black" points="3096.39,-275.443 3102.13,-284.346 3103.2,-273.805 3096.39,-275.443"/>
<text text-anchor="middle" x="3048" y="-190.8" font-family="Times,serif" font-size="14.00">u0008</text>
</g>
<!-- initial -->
<g id="node52" class="node"><title>initial</title>
</g>
<!-- initial&#45;&gt;0 -->
<g id="edge65" class="edge"><title>initial&#45;&gt;0</title>
<path fill="none" stroke="black" d="M54.195,-459C62.6538,-459 72.0513,-459 80.5951,-459"/>
<polygon fill="black" stroke="black" points="80.8257,-462.5 90.8257,-459 80.8257,-455.5 80.8257,-462.5"/>
</g>
</g>
</svg>
