<svg width="3012px" height="1547px"
 viewBox="0.00 0.00 2259.00 1160.00" xmlns="http://www.w3.org/2000/svg" xmlns:xlink="http://www.w3.org/1999/xlink">
<g id="graph0" class="graph" transform="scale(1.000022500562514 1.000022500562514) rotate(0) translate(4 1156)">
<title>Automaton</title>
<polygon fill="white" stroke="none" points="-4,4 -4,-1156 2255,-1156 2255,4 -4,4"/>
<!-- 0 -->
<g id="node1" class="node"><title>0</title>
<ellipse fill="none" stroke="black" cx="109" cy="-915" rx="18" ry="18"/>
</g>
<!-- 1 -->
<g id="node2" class="node"><title>1</title>
<ellipse fill="none" stroke="black" cx="227" cy="-915" rx="18" ry="18"/>
</g>
<!-- 0&#45;&gt;1 -->
<g id="edge1" class="edge"><title>0&#45;&gt;1</title>
<path fill="none" stroke="black" d="M127.116,-915C145.964,-915 176.531,-915 198.696,-915"/>
<polygon fill="black" stroke="black" points="198.814,-918.5 208.814,-915 198.814,-911.5 198.814,-918.5"/>
<text text-anchor="middle" x="168" y="-918.8" font-family="Times,serif" font-size="14.00">u0000</text>
</g>
<!-- 2 -->
<g id="node3" class="node"><title>2</title>
<ellipse fill="none" stroke="black" cx="345" cy="-915" rx="18" ry="18"/>
</g>
<!-- 1&#45;&gt;2 -->
<g id="edge2" class="edge"><title>1&#45;&gt;2</title>
<path fill="none" stroke="black" d="M245.116,-915C263.964,-915 294.531,-915 316.696,-915"/>
<polygon fill="black" stroke="black" points="316.814,-918.5 326.814,-915 316.814,-911.5 316.814,-918.5"/>
<text text-anchor="middle" x="286" y="-918.8" font-family="Times,serif" font-size="14.00">u0001</text>
</g>
<!-- 3 -->
<g id="node4" class="node"><title>3</title>
<ellipse fill="none" stroke="black" cx="842" cy="-915" rx="18" ry="18"/>
</g>
<!-- 2&#45;&gt;3 -->
<g id="edge3" class="edge"><title>2&#45;&gt;3</title>
<path fill="none" stroke="black" d="M363.295,-915C385.962,-915 426.958,-915 462,-915 462,-915 462,-915 715,-915 749.07,-915 788.323,-915 813.841,-915"/>
<polygon fill="black" stroke="black" points="813.881,-918.5 823.881,-915 813.881,-911.5 813.881,-918.5"/>
<text text-anchor="middle" x="586" y="-918.8" font-family="Times,serif" font-size="14.00">u0004</text>
</g>
<!-- 4 -->
<g id="node10" class="node"><title>4</title>
<ellipse fill="none" stroke="black" cx="2107" cy="-488" rx="18" ry="18"/>
</g>
<!-- 2&#45;&gt;4 -->
<g id="edge4" class="edge"><title>2&#45;&gt;4</title>
<path fill="none" stroke="black" d="M346.987,-933.167C350.939,-986.187 370.244,-1137 462,-1137 462,-1137 462,-1137 1985,-1137 2032.38,-1137 2048.32,-1115.6 2071,-1074 2097.85,-1024.74 2104.41,-626.703 2105.71,-516.303"/>
<polygon fill="black" stroke="black" points="2109.22,-516.011 2105.83,-505.972 2102.22,-515.931 2109.22,-516.011"/>
<text text-anchor="middle" x="1216" y="-1140.8" font-family="Times,serif" font-size="14.00">u0003</text>
</g>
<!-- 5 -->
<g id="node33" class="node"><title>5</title>
<ellipse fill="none" stroke="black" cx="463" cy="-281" rx="18" ry="18"/>
</g>
<!-- 2&#45;&gt;5 -->
<g id="edge5" class="edge"><title>2&#45;&gt;5</title>
<path fill="none" stroke="black" d="M349.224,-897.382C365.338,-809.31 437.163,-416.749 456.943,-308.641"/>
<polygon fill="black" stroke="black" points="460.435,-309 458.792,-298.533 453.549,-307.74 460.435,-309"/>
<text text-anchor="middle" x="404" y="-713.8" font-family="Times,serif" font-size="14.00">u0005</text>
</g>
<!-- 6 -->
<g id="node5" class="node"><title>6</title>
<ellipse fill="none" stroke="black" cx="970" cy="-768" rx="18" ry="18"/>
</g>
<!-- 3&#45;&gt;6 -->
<g id="edge6" class="edge"><title>3&#45;&gt;6</title>
<path fill="none" stroke="black" d="M854.404,-901.695C876.331,-876.113 924.531,-819.881 950.895,-789.122"/>
<polygon fill="black" stroke="black" points="953.862,-791.039 957.713,-781.169 948.547,-786.483 953.862,-791.039"/>
<text text-anchor="middle" x="906" y="-871.8" font-family="Times,serif" font-size="14.00">u0004</text>
</g>
<!-- 3&#45;&gt;4 -->
<g id="edge7" class="edge"><title>3&#45;&gt;4</title>
<path fill="none" stroke="black" d="M846.683,-932.519C857.173,-977.036 891.588,-1091 969,-1091 969,-1091 969,-1091 1985,-1091 2030.13,-1091 2047.92,-1075.78 2071,-1037 2097.74,-992.067 2104.34,-622.24 2105.69,-516.274"/>
<polygon fill="black" stroke="black" points="2109.2,-516.083 2105.82,-506.041 2102.2,-515.998 2109.2,-516.083"/>
<text text-anchor="middle" x="1472" y="-1094.8" font-family="Times,serif" font-size="14.00">u0003</text>
</g>
<!-- 7 -->
<g id="node23" class="node"><title>7</title>
<ellipse fill="none" stroke="black" cx="1093" cy="-915" rx="18" ry="18"/>
</g>
<!-- 3&#45;&gt;7 -->
<g id="edge8" class="edge"><title>3&#45;&gt;7</title>
<path fill="none" stroke="black" d="M860.115,-915C902.582,-915 1013.08,-915 1064.69,-915"/>
<polygon fill="black" stroke="black" points="1064.77,-918.5 1074.77,-915 1064.77,-911.5 1064.77,-918.5"/>
<text text-anchor="middle" x="970" y="-918.8" font-family="Times,serif" font-size="14.00">u0005</text>
</g>
<!-- 11 -->
<g id="node6" class="node"><title>11</title>
<ellipse fill="none" stroke="black" cx="1093" cy="-515" rx="18" ry="18"/>
</g>
<!-- 6&#45;&gt;11 -->
<g id="edge9" class="edge"><title>6&#45;&gt;11</title>
<path fill="none" stroke="black" d="M972.045,-749.899C975.102,-702.837 985.473,-578.131 1011,-547 1024.3,-530.775 1046.98,-522.738 1064.97,-518.779"/>
<polygon fill="black" stroke="black" points="1065.74,-522.195 1074.91,-516.888 1064.43,-515.318 1065.74,-522.195"/>
<text text-anchor="middle" x="1034" y="-550.8" font-family="Times,serif" font-size="14.00">u0004</text>
</g>
<!-- 6&#45;&gt;4 -->
<g id="edge10" class="edge"><title>6&#45;&gt;4</title>
<path fill="none" stroke="black" d="M987.733,-771.786C994.896,-773.402 1003.36,-775.302 1011,-777 1112.27,-799.497 1151.54,-771.21 1239,-827 1278.57,-852.24 1276.94,-871.963 1303,-911 1311.84,-924.251 1307.62,-933.355 1321,-942 1401.31,-993.884 1439.39,-964 1535,-964 1535,-964 1535,-964 1985,-964 2053.17,-964 2047.78,-901.091 2071,-837 2092.36,-778.05 2102,-588.111 2104.96,-516.066"/>
<polygon fill="black" stroke="black" points="2108.46,-516.067 2105.36,-505.936 2101.47,-515.789 2108.46,-516.067"/>
<text text-anchor="middle" x="1536" y="-967.8" font-family="Times,serif" font-size="14.00">u0003</text>
</g>
<!-- 12 -->
<g id="node17" class="node"><title>12</title>
<ellipse fill="none" stroke="black" cx="1093" cy="-737" rx="18" ry="18"/>
</g>
<!-- 6&#45;&gt;12 -->
<g id="edge11" class="edge"><title>6&#45;&gt;12</title>
<path fill="none" stroke="black" d="M987.825,-763.69C1007.96,-758.53 1041.92,-749.83 1065.57,-743.77"/>
<polygon fill="black" stroke="black" points="1066.5,-747.146 1075.32,-741.274 1064.76,-740.365 1066.5,-747.146"/>
<text text-anchor="middle" x="1034" y="-761.8" font-family="Times,serif" font-size="14.00">u0005</text>
</g>
<!-- 19 -->
<g id="node7" class="node"><title>19</title>
<ellipse fill="none" stroke="black" cx="1216" cy="-594" rx="18" ry="18"/>
</g>
<!-- 11&#45;&gt;19 -->
<g id="edge12" class="edge"><title>11&#45;&gt;19</title>
<path fill="none" stroke="black" d="M1108.84,-524.687C1129.54,-538.205 1167.3,-562.859 1191.76,-578.827"/>
<polygon fill="black" stroke="black" points="1190.13,-581.944 1200.42,-584.481 1193.96,-576.083 1190.13,-581.944"/>
<text text-anchor="middle" x="1152" y="-570.8" font-family="Times,serif" font-size="14.00">u0004</text>
</g>
<!-- 20 -->
<g id="node9" class="node"><title>20</title>
<ellipse fill="none" stroke="black" cx="1984" cy="-602" rx="18" ry="18"/>
</g>
<!-- 11&#45;&gt;20 -->
<g id="edge14" class="edge"><title>11&#45;&gt;20</title>
<path fill="none" stroke="black" d="M1111.22,-513.84C1134.68,-512.363 1178,-510 1215,-510 1215,-510 1215,-510 1409,-510 1495.12,-510 1512.88,-548 1599,-548 1599,-548 1599,-548 1857,-548 1895.83,-548 1936.34,-569.934 1960.62,-585.844"/>
<polygon fill="black" stroke="black" points="1958.86,-588.874 1969.1,-591.588 1962.78,-583.08 1958.86,-588.874"/>
<text text-anchor="middle" x="1536" y="-548.8" font-family="Times,serif" font-size="14.00">u0005</text>
</g>
<!-- 11&#45;&gt;4 -->
<g id="edge13" class="edge"><title>11&#45;&gt;4</title>
<path fill="none" stroke="black" d="M1108.68,-506.09C1130.87,-493.495 1174.65,-472 1215,-472 1215,-472 1215,-472 1409,-472 1494.71,-472 1513.29,-439 1599,-439 1599,-439 1599,-439 1985,-439 2021.41,-439 2059.78,-458.302 2083.31,-472.677"/>
<polygon fill="black" stroke="black" points="2081.53,-475.694 2091.85,-478.084 2085.28,-469.779 2081.53,-475.694"/>
<text text-anchor="middle" x="1600" y="-443.8" font-family="Times,serif" font-size="14.00">u0003</text>
</g>
<!-- 29 -->
<g id="node8" class="node"><title>29</title>
<ellipse fill="none" stroke="black" cx="1856" cy="-663" rx="18" ry="18"/>
</g>
<!-- 19&#45;&gt;29 -->
<g id="edge15" class="edge"><title>19&#45;&gt;29</title>
<path fill="none" stroke="black" d="M1231.87,-603.309C1254.81,-616.75 1300.62,-640 1343,-640 1343,-640 1343,-640 1665,-640 1731.69,-640 1750.14,-628.468 1815,-644 1820.29,-645.266 1825.7,-647.281 1830.77,-649.536"/>
<polygon fill="black" stroke="black" points="1829.46,-652.787 1839.98,-654.031 1832.53,-646.497 1829.46,-652.787"/>
<text text-anchor="middle" x="1536" y="-643.8" font-family="Times,serif" font-size="14.00">u0004</text>
</g>
<!-- 30 -->
<g id="node12" class="node"><title>30</title>
<ellipse fill="none" stroke="black" cx="1344" cy="-594" rx="18" ry="18"/>
</g>
<!-- 19&#45;&gt;30 -->
<g id="edge16" class="edge"><title>19&#45;&gt;30</title>
<path fill="none" stroke="black" d="M1234.26,-594C1255.27,-594 1291.03,-594 1315.77,-594"/>
<polygon fill="black" stroke="black" points="1315.95,-597.5 1325.95,-594 1315.95,-590.5 1315.95,-597.5"/>
<text text-anchor="middle" x="1280" y="-597.8" font-family="Times,serif" font-size="14.00">u0005</text>
</g>
<!-- 29&#45;&gt;20 -->
<g id="edge17" class="edge"><title>29&#45;&gt;20</title>
<path fill="none" stroke="black" d="M1872.45,-655.52C1893.89,-645.139 1932.91,-626.251 1958.39,-613.916"/>
<polygon fill="black" stroke="black" points="1959.95,-617.049 1967.42,-609.541 1956.9,-610.748 1959.95,-617.049"/>
<text text-anchor="middle" x="1920" y="-647.8" font-family="Times,serif" font-size="14.00">u0004</text>
</g>
<!-- 20&#45;&gt;4 -->
<g id="edge18" class="edge"><title>20&#45;&gt;4</title>
<path fill="none" stroke="black" d="M1997.95,-589.8C2018.96,-570.001 2060.66,-530.721 2085.66,-507.164"/>
<polygon fill="black" stroke="black" points="2088.27,-509.517 2093.14,-500.112 2083.47,-504.422 2088.27,-509.517"/>
<text text-anchor="middle" x="2048" y="-565.8" font-family="Times,serif" font-size="14.00">u0003</text>
</g>
<!-- 8 -->
<g id="node11" class="node"><title>8</title>
<ellipse fill="none" stroke="black" cx="2229" cy="-488" rx="18" ry="18"/>
<ellipse fill="none" stroke="black" cx="2229" cy="-488" rx="22" ry="22"/>
</g>
<!-- 4&#45;&gt;8 -->
<g id="edge19" class="edge"><title>4&#45;&gt;8</title>
<path fill="none" stroke="black" d="M2125.19,-488C2143.77,-488 2173.76,-488 2196.57,-488"/>
<polygon fill="black" stroke="black" points="2196.79,-491.5 2206.79,-488 2196.79,-484.5 2196.79,-491.5"/>
<text text-anchor="middle" x="2166" y="-491.8" font-family="Times,serif" font-size="14.00">u0002</text>
</g>
<!-- 30&#45;&gt;20 -->
<g id="edge22" class="edge"><title>30&#45;&gt;20</title>
<path fill="none" stroke="black" d="M1362.1,-595.775C1386.31,-598.132 1431.98,-602 1471,-602 1471,-602 1471,-602 1857,-602 1891.07,-602 1930.32,-602 1955.84,-602"/>
<polygon fill="black" stroke="black" points="1955.88,-605.5 1965.88,-602 1955.88,-598.5 1955.88,-605.5"/>
<text text-anchor="middle" x="1664" y="-605.8" font-family="Times,serif" font-size="14.00">u0005</text>
</g>
<!-- 30&#45;&gt;4 -->
<g id="edge21" class="edge"><title>30&#45;&gt;4</title>
<path fill="none" stroke="black" d="M1351.47,-610.61C1356.32,-623.611 1362.82,-642.238 1367,-659 1372.99,-683.034 1366.63,-752.389 1385,-769 1418.53,-799.31 1745.8,-794 1791,-794 1791,-794 1791,-794 1985,-794 2044.49,-794 2087.26,-591.491 2101.15,-515.958"/>
<polygon fill="black" stroke="black" points="2104.66,-516.237 2102.99,-505.774 2097.77,-514.994 2104.66,-516.237"/>
<text text-anchor="middle" x="1728" y="-798.8" font-family="Times,serif" font-size="14.00">u0003</text>
</g>
<!-- 37 -->
<g id="node13" class="node"><title>37</title>
<ellipse fill="none" stroke="black" cx="1472" cy="-556" rx="18" ry="18"/>
</g>
<!-- 30&#45;&gt;37 -->
<g id="edge20" class="edge"><title>30&#45;&gt;37</title>
<path fill="none" stroke="black" d="M1359.73,-584.957C1367.09,-580.783 1376.27,-576.08 1385,-573 1404.13,-566.246 1426.67,-561.916 1443.86,-559.317"/>
<polygon fill="black" stroke="black" points="1444.39,-562.777 1453.81,-557.916 1443.42,-555.846 1444.39,-562.777"/>
<text text-anchor="middle" x="1408" y="-576.8" font-family="Times,serif" font-size="14.00">u0004</text>
</g>
<!-- 35 -->
<g id="node14" class="node"><title>35</title>
<ellipse fill="none" stroke="black" cx="1600" cy="-494" rx="18" ry="18"/>
</g>
<!-- 37&#45;&gt;35 -->
<g id="edge23" class="edge"><title>37&#45;&gt;35</title>
<path fill="none" stroke="black" d="M1482.37,-541.131C1489.53,-531.044 1500.3,-518.267 1513,-511 1530.83,-500.798 1553.77,-496.628 1571.47,-494.966"/>
<polygon fill="black" stroke="black" points="1572,-498.437 1581.72,-494.223 1571.5,-491.455 1572,-498.437"/>
<text text-anchor="middle" x="1536" y="-514.8" font-family="Times,serif" font-size="14.00">u0004</text>
</g>
<!-- 41 -->
<g id="node15" class="node"><title>41</title>
<ellipse fill="none" stroke="black" cx="1728" cy="-494" rx="18" ry="18"/>
</g>
<!-- 35&#45;&gt;41 -->
<g id="edge24" class="edge"><title>35&#45;&gt;41</title>
<path fill="none" stroke="black" d="M1618.26,-494C1639.27,-494 1675.03,-494 1699.77,-494"/>
<polygon fill="black" stroke="black" points="1699.95,-497.5 1709.95,-494 1699.95,-490.5 1699.95,-497.5"/>
<text text-anchor="middle" x="1664" y="-497.8" font-family="Times,serif" font-size="14.00">u0004</text>
</g>
<!-- 26 -->
<g id="node16" class="node"><title>26</title>
<ellipse fill="none" stroke="black" cx="1856" cy="-497" rx="18" ry="18"/>
</g>
<!-- 41&#45;&gt;26 -->
<g id="edge25" class="edge"><title>41&#45;&gt;26</title>
<path fill="none" stroke="black" d="M1746.26,-494.411C1767.27,-494.911 1803.03,-495.763 1827.77,-496.352"/>
<polygon fill="black" stroke="black" points="1827.87,-499.855 1837.95,-496.594 1828.04,-492.857 1827.87,-499.855"/>
<text text-anchor="middle" x="1792" y="-500.8" font-family="Times,serif" font-size="14.00">u0004</text>
</g>
<!-- 26&#45;&gt;20 -->
<g id="edge26" class="edge"><title>26&#45;&gt;20</title>
<path fill="none" stroke="black" d="M1874.07,-497.236C1892.92,-498.354 1923.21,-502.793 1943,-519 1960.15,-533.042 1970.45,-556.202 1976.3,-574.494"/>
<polygon fill="black" stroke="black" points="1973.01,-575.714 1979.17,-584.331 1979.73,-573.751 1973.01,-575.714"/>
<text text-anchor="middle" x="1920" y="-522.8" font-family="Times,serif" font-size="14.00">u0005</text>
</g>
<!-- 21 -->
<g id="node18" class="node"><title>21</title>
<ellipse fill="none" stroke="black" cx="1216" cy="-686" rx="18" ry="18"/>
</g>
<!-- 12&#45;&gt;21 -->
<g id="edge27" class="edge"><title>12&#45;&gt;21</title>
<path fill="none" stroke="black" d="M1109.82,-730.333C1130.2,-721.742 1165.87,-706.709 1189.95,-696.557"/>
<polygon fill="black" stroke="black" points="1191.32,-699.778 1199.18,-692.669 1188.6,-693.328 1191.32,-699.778"/>
<text text-anchor="middle" x="1152" y="-725.8" font-family="Times,serif" font-size="14.00">u0004</text>
</g>
<!-- 31 -->
<g id="node19" class="node"><title>31</title>
<ellipse fill="none" stroke="black" cx="1344" cy="-686" rx="18" ry="18"/>
</g>
<!-- 21&#45;&gt;31 -->
<g id="edge28" class="edge"><title>21&#45;&gt;31</title>
<path fill="none" stroke="black" d="M1234.26,-686C1255.27,-686 1291.03,-686 1315.77,-686"/>
<polygon fill="black" stroke="black" points="1315.95,-689.5 1325.95,-686 1315.95,-682.5 1315.95,-689.5"/>
<text text-anchor="middle" x="1280" y="-689.8" font-family="Times,serif" font-size="14.00">u0005</text>
</g>
<!-- 38 -->
<g id="node20" class="node"><title>38</title>
<ellipse fill="none" stroke="black" cx="1472" cy="-686" rx="18" ry="18"/>
</g>
<!-- 31&#45;&gt;38 -->
<g id="edge29" class="edge"><title>31&#45;&gt;38</title>
<path fill="none" stroke="black" d="M1362.26,-686C1383.27,-686 1419.03,-686 1443.77,-686"/>
<polygon fill="black" stroke="black" points="1443.95,-689.5 1453.95,-686 1443.95,-682.5 1443.95,-689.5"/>
<text text-anchor="middle" x="1408" y="-689.8" font-family="Times,serif" font-size="14.00">u0005</text>
</g>
<!-- 34 -->
<g id="node21" class="node"><title>34</title>
<ellipse fill="none" stroke="black" cx="1600" cy="-686" rx="18" ry="18"/>
</g>
<!-- 38&#45;&gt;34 -->
<g id="edge30" class="edge"><title>38&#45;&gt;34</title>
<path fill="none" stroke="black" d="M1490.26,-686C1511.27,-686 1547.03,-686 1571.77,-686"/>
<polygon fill="black" stroke="black" points="1571.95,-689.5 1581.95,-686 1571.95,-682.5 1571.95,-689.5"/>
<text text-anchor="middle" x="1536" y="-689.8" font-family="Times,serif" font-size="14.00">u0005</text>
</g>
<!-- 40 -->
<g id="node22" class="node"><title>40</title>
<ellipse fill="none" stroke="black" cx="1728" cy="-686" rx="18" ry="18"/>
</g>
<!-- 34&#45;&gt;40 -->
<g id="edge31" class="edge"><title>34&#45;&gt;40</title>
<path fill="none" stroke="black" d="M1618.26,-686C1639.27,-686 1675.03,-686 1699.77,-686"/>
<polygon fill="black" stroke="black" points="1699.95,-689.5 1709.95,-686 1699.95,-682.5 1699.95,-689.5"/>
<text text-anchor="middle" x="1664" y="-689.8" font-family="Times,serif" font-size="14.00">u0005</text>
</g>
<!-- 40&#45;&gt;29 -->
<g id="edge32" class="edge"><title>40&#45;&gt;29</title>
<path fill="none" stroke="black" d="M1746.04,-686.103C1763.56,-685.864 1791.52,-684.519 1815,-679 1819.93,-677.842 1825.05,-676.177 1829.91,-674.355"/>
<polygon fill="black" stroke="black" points="1831.44,-677.51 1839.39,-670.506 1828.81,-671.024 1831.44,-677.51"/>
<text text-anchor="middle" x="1792" y="-689.8" font-family="Times,serif" font-size="14.00">u0004</text>
</g>
<!-- 7&#45;&gt;4 -->
<g id="edge34" class="edge"><title>7&#45;&gt;4</title>
<path fill="none" stroke="black" d="M1100.31,-931.729C1114.76,-966.84 1153.8,-1045 1215,-1045 1215,-1045 1215,-1045 1409,-1045 1521.9,-1045 1550.1,-1048 1663,-1048 1663,-1048 1663,-1048 1985,-1048 2027.93,-1048 2047.37,-1039.85 2071,-1004 2097.91,-963.178 2104.37,-618.28 2105.69,-516.294"/>
<polygon fill="black" stroke="black" points="2109.19,-516.182 2105.82,-506.139 2102.19,-516.095 2109.19,-516.182"/>
<text text-anchor="middle" x="1600" y="-1050.8" font-family="Times,serif" font-size="14.00">u0003</text>
</g>
<!-- 13 -->
<g id="node24" class="node"><title>13</title>
<ellipse fill="none" stroke="black" cx="1216" cy="-915" rx="18" ry="18"/>
</g>
<!-- 7&#45;&gt;13 -->
<g id="edge33" class="edge"><title>7&#45;&gt;13</title>
<path fill="none" stroke="black" d="M1111.08,-915C1130.96,-915 1164.08,-915 1187.58,-915"/>
<polygon fill="black" stroke="black" points="1187.62,-918.5 1197.62,-915 1187.62,-911.5 1187.62,-918.5"/>
<text text-anchor="middle" x="1152" y="-918.8" font-family="Times,serif" font-size="14.00">u0004</text>
</g>
<!-- 14 -->
<g id="node31" class="node"><title>14</title>
<ellipse fill="none" stroke="black" cx="1216" cy="-854" rx="18" ry="18"/>
</g>
<!-- 7&#45;&gt;14 -->
<g id="edge35" class="edge"><title>7&#45;&gt;14</title>
<path fill="none" stroke="black" d="M1109.26,-906.533C1115.36,-903.192 1122.49,-899.357 1129,-896 1149.37,-885.502 1172.76,-874.124 1189.99,-865.862"/>
<polygon fill="black" stroke="black" points="1191.85,-868.855 1199.36,-861.388 1188.83,-862.539 1191.85,-868.855"/>
<text text-anchor="middle" x="1152" y="-899.8" font-family="Times,serif" font-size="14.00">u0005</text>
</g>
<!-- 13&#45;&gt;4 -->
<g id="edge37" class="edge"><title>13&#45;&gt;4</title>
<path fill="none" stroke="black" d="M1227.42,-928.978C1247.08,-953.571 1292.23,-1002 1343,-1002 1343,-1002 1343,-1002 1985,-1002 2024.68,-1002 2045.89,-1008.73 2071,-978 2100.25,-942.19 2105.06,-615.399 2105.85,-516.335"/>
<polygon fill="black" stroke="black" points="2109.35,-516.206 2105.92,-506.181 2102.35,-516.156 2109.35,-516.206"/>
<text text-anchor="middle" x="1664" y="-1005.8" font-family="Times,serif" font-size="14.00">u0003</text>
</g>
<!-- 22 -->
<g id="node25" class="node"><title>22</title>
<ellipse fill="none" stroke="black" cx="1728" cy="-740" rx="18" ry="18"/>
</g>
<!-- 13&#45;&gt;22 -->
<g id="edge36" class="edge"><title>13&#45;&gt;22</title>
<path fill="none" stroke="black" d="M1233.39,-909.376C1307.35,-883.998 1610.3,-780.044 1701.14,-748.874"/>
<polygon fill="black" stroke="black" points="1702.35,-752.16 1710.67,-745.603 1700.08,-745.539 1702.35,-752.16"/>
<text text-anchor="middle" x="1472" y="-839.8" font-family="Times,serif" font-size="14.00">u0004</text>
</g>
<!-- 23 -->
<g id="node26" class="node"><title>23</title>
<ellipse fill="none" stroke="black" cx="1344" cy="-915" rx="18" ry="18"/>
</g>
<!-- 13&#45;&gt;23 -->
<g id="edge38" class="edge"><title>13&#45;&gt;23</title>
<path fill="none" stroke="black" d="M1234.26,-915C1255.27,-915 1291.03,-915 1315.77,-915"/>
<polygon fill="black" stroke="black" points="1315.95,-918.5 1325.95,-915 1315.95,-911.5 1315.95,-918.5"/>
<text text-anchor="middle" x="1280" y="-918.8" font-family="Times,serif" font-size="14.00">u0005</text>
</g>
<!-- 22&#45;&gt;20 -->
<g id="edge40" class="edge"><title>22&#45;&gt;20</title>
<path fill="none" stroke="black" d="M1745.95,-737.901C1784.88,-732.301 1882.03,-713.812 1943,-663 1954.59,-653.339 1964.06,-639.458 1970.87,-627.377"/>
<polygon fill="black" stroke="black" points="1974.15,-628.662 1975.75,-618.189 1967.96,-625.378 1974.15,-628.662"/>
<text text-anchor="middle" x="1856" y="-722.8" font-family="Times,serif" font-size="14.00">u0005</text>
</g>
<!-- 22&#45;&gt;26 -->
<g id="edge39" class="edge"><title>22&#45;&gt;26</title>
<path fill="none" stroke="black" d="M1740.97,-727.222C1744.55,-722.934 1748.25,-717.973 1751,-713 1763.05,-691.235 1759.16,-682.85 1769,-660 1790.9,-609.129 1822.5,-552.531 1840.67,-521.208"/>
<polygon fill="black" stroke="black" points="1843.83,-522.733 1845.86,-512.332 1837.79,-519.202 1843.83,-522.733"/>
<text text-anchor="middle" x="1792" y="-663.8" font-family="Times,serif" font-size="14.00">u0004</text>
</g>
<!-- 32 -->
<g id="node27" class="node"><title>32</title>
<ellipse fill="none" stroke="black" cx="1472" cy="-880" rx="18" ry="18"/>
</g>
<!-- 23&#45;&gt;32 -->
<g id="edge41" class="edge"><title>23&#45;&gt;32</title>
<path fill="none" stroke="black" d="M1360.25,-907.148C1367.58,-903.634 1376.58,-899.686 1385,-897 1404.33,-890.829 1426.85,-886.475 1444,-883.719"/>
<polygon fill="black" stroke="black" points="1444.55,-887.176 1453.9,-882.207 1443.49,-880.256 1444.55,-887.176"/>
<text text-anchor="middle" x="1408" y="-900.8" font-family="Times,serif" font-size="14.00">u0004</text>
</g>
<!-- 33 -->
<g id="node30" class="node"><title>33</title>
<ellipse fill="none" stroke="black" cx="1856" cy="-840" rx="18" ry="18"/>
</g>
<!-- 23&#45;&gt;33 -->
<g id="edge42" class="edge"><title>23&#45;&gt;33</title>
<path fill="none" stroke="black" d="M1362.31,-915.215C1418.98,-915.54 1603.78,-913.611 1751,-878 1778.62,-871.319 1809.01,-859.685 1829.77,-851.044"/>
<polygon fill="black" stroke="black" points="1831.29,-854.202 1839.14,-847.078 1828.56,-847.756 1831.29,-854.202"/>
<text text-anchor="middle" x="1600" y="-909.8" font-family="Times,serif" font-size="14.00">u0005</text>
</g>
<!-- 39 -->
<g id="node28" class="node"><title>39</title>
<ellipse fill="none" stroke="black" cx="1600" cy="-867" rx="18" ry="18"/>
</g>
<!-- 32&#45;&gt;39 -->
<g id="edge43" class="edge"><title>32&#45;&gt;39</title>
<path fill="none" stroke="black" d="M1489.99,-878.247C1510.94,-876.085 1546.81,-872.385 1571.65,-869.821"/>
<polygon fill="black" stroke="black" points="1572.29,-873.275 1581.87,-868.767 1571.57,-866.312 1572.29,-873.275"/>
<text text-anchor="middle" x="1536" y="-879.8" font-family="Times,serif" font-size="14.00">u0005</text>
</g>
<!-- 43 -->
<g id="node29" class="node"><title>43</title>
<ellipse fill="none" stroke="black" cx="1728" cy="-851" rx="18" ry="18"/>
</g>
<!-- 39&#45;&gt;43 -->
<g id="edge44" class="edge"><title>39&#45;&gt;43</title>
<path fill="none" stroke="black" d="M1617.99,-864.842C1638.94,-862.182 1674.81,-857.627 1699.65,-854.473"/>
<polygon fill="black" stroke="black" points="1700.39,-857.907 1709.87,-853.175 1699.51,-850.962 1700.39,-857.907"/>
<text text-anchor="middle" x="1664" y="-865.8" font-family="Times,serif" font-size="14.00">u0005</text>
</g>
<!-- 43&#45;&gt;29 -->
<g id="edge45" class="edge"><title>43&#45;&gt;29</title>
<path fill="none" stroke="black" d="M1738.89,-836.248C1760.69,-803.713 1813.06,-725.579 1839.36,-686.33"/>
<polygon fill="black" stroke="black" points="1842.5,-687.939 1845.16,-677.684 1836.68,-684.042 1842.5,-687.939"/>
<text text-anchor="middle" x="1792" y="-794.8" font-family="Times,serif" font-size="14.00">u0005</text>
</g>
<!-- 33&#45;&gt;20 -->
<g id="edge46" class="edge"><title>33&#45;&gt;20</title>
<path fill="none" stroke="black" d="M1870.08,-828.675C1888.9,-811.689 1923.49,-777.771 1943,-742 1962.73,-705.83 1973.55,-658.969 1978.81,-629.691"/>
<polygon fill="black" stroke="black" points="1982.27,-630.198 1980.5,-619.753 1975.37,-629.023 1982.27,-630.198"/>
<text text-anchor="middle" x="1920" y="-804.8" font-family="Times,serif" font-size="14.00">u0004</text>
</g>
<!-- 33&#45;&gt;4 -->
<g id="edge47" class="edge"><title>33&#45;&gt;4</title>
<path fill="none" stroke="black" d="M1873.92,-843.522C1914.55,-850.886 2018.15,-862.977 2071,-808 2091.07,-787.119 2101.59,-590.216 2104.86,-516.064"/>
<polygon fill="black" stroke="black" points="2108.36,-516.19 2105.29,-506.049 2101.37,-515.89 2108.36,-516.19"/>
<text text-anchor="middle" x="1984" y="-853.8" font-family="Times,serif" font-size="14.00">u0003</text>
</g>
<!-- 24 -->
<g id="node32" class="node"><title>24</title>
<ellipse fill="none" stroke="black" cx="1408" cy="-745" rx="18" ry="18"/>
</g>
<!-- 14&#45;&gt;24 -->
<g id="edge48" class="edge"><title>14&#45;&gt;24</title>
<path fill="none" stroke="black" d="M1225.63,-838.141C1232.7,-826.453 1243.69,-810.924 1257,-801 1294.84,-772.782 1348.47,-757.36 1380.3,-750.173"/>
<polygon fill="black" stroke="black" points="1381.17,-753.568 1390.21,-748.046 1379.7,-746.724 1381.17,-753.568"/>
<text text-anchor="middle" x="1280" y="-804.8" font-family="Times,serif" font-size="14.00">u0005</text>
</g>
<!-- 24&#45;&gt;34 -->
<g id="edge49" class="edge"><title>24&#45;&gt;34</title>
<path fill="none" stroke="black" d="M1425.96,-741.54C1454.08,-735.568 1511.94,-722.285 1559,-705 1564.1,-703.126 1569.44,-700.839 1574.48,-698.508"/>
<polygon fill="black" stroke="black" points="1576.21,-701.561 1583.71,-694.073 1573.18,-695.253 1576.21,-701.561"/>
<text text-anchor="middle" x="1472" y="-740.8" font-family="Times,serif" font-size="14.00">u0004</text>
</g>
<!-- 5&#45;&gt;4 -->
<g id="edge51" class="edge"><title>5&#45;&gt;4</title>
<path fill="none" stroke="black" d="M463.54,-262.995C462.972,-200.975 470.005,-0 585,-0 585,-0 585,-0 1985,-0 2028.56,-0 2047.31,-10.4446 2071,-47 2093.4,-81.5693 2102.84,-367.893 2105.31,-459.752"/>
<polygon fill="black" stroke="black" points="2101.81,-460.056 2105.57,-469.961 2108.81,-459.873 2101.81,-460.056"/>
<text text-anchor="middle" x="1280" y="-3.8" font-family="Times,serif" font-size="14.00">u0003</text>
</g>
<!-- 9 -->
<g id="node34" class="node"><title>9</title>
<ellipse fill="none" stroke="black" cx="970" cy="-349" rx="18" ry="18"/>
</g>
<!-- 5&#45;&gt;9 -->
<g id="edge50" class="edge"><title>5&#45;&gt;9</title>
<path fill="none" stroke="black" d="M478.681,-289.91C500.869,-302.505 544.648,-324 585,-324 585,-324 585,-324 843,-324 878.086,-324 917.634,-333.442 942.909,-340.72"/>
<polygon fill="black" stroke="black" points="941.911,-344.075 952.494,-343.575 943.91,-337.366 941.911,-344.075"/>
<text text-anchor="middle" x="714" y="-327.8" font-family="Times,serif" font-size="14.00">u0004</text>
</g>
<!-- 10 -->
<g id="node38" class="node"><title>10</title>
<ellipse fill="none" stroke="black" cx="586" cy="-165" rx="18" ry="18"/>
</g>
<!-- 5&#45;&gt;10 -->
<g id="edge52" class="edge"><title>5&#45;&gt;10</title>
<path fill="none" stroke="black" d="M476.493,-269.023C497.416,-248.965 539.715,-208.413 564.876,-184.293"/>
<polygon fill="black" stroke="black" points="567.597,-186.533 572.393,-177.086 562.753,-181.48 567.597,-186.533"/>
<text text-anchor="middle" x="522" y="-250.8" font-family="Times,serif" font-size="14.00">u0005</text>
</g>
<!-- 9&#45;&gt;4 -->
<g id="edge54" class="edge"><title>9&#45;&gt;4</title>
<path fill="none" stroke="black" d="M986.739,-341.337C1014.7,-328.042 1075.16,-300.716 1129,-286 1232.26,-257.775 1261.79,-268.744 1367,-249 1442.14,-234.898 1458.54,-212 1535,-212 1535,-212 1535,-212 1985,-212 2092.27,-212 2105.33,-389.039 2106.28,-459.535"/>
<polygon fill="black" stroke="black" points="2102.78,-459.912 2106.34,-469.891 2109.78,-459.87 2102.78,-459.912"/>
<text text-anchor="middle" x="1536" y="-216.8" font-family="Times,serif" font-size="14.00">u0003</text>
</g>
<!-- 15 -->
<g id="node35" class="node"><title>15</title>
<ellipse fill="none" stroke="black" cx="1093" cy="-634" rx="18" ry="18"/>
</g>
<!-- 9&#45;&gt;15 -->
<g id="edge53" class="edge"><title>9&#45;&gt;15</title>
<path fill="none" stroke="black" d="M970.579,-367.153C970.468,-405.666 974.406,-497.324 1011,-562 1024.77,-586.346 1049.87,-606.697 1068.49,-619.483"/>
<polygon fill="black" stroke="black" points="1066.76,-622.536 1077.03,-625.136 1070.62,-616.699 1066.76,-622.536"/>
<text text-anchor="middle" x="1034" y="-614.8" font-family="Times,serif" font-size="14.00">u0004</text>
</g>
<!-- 16 -->
<g id="node36" class="node"><title>16</title>
<ellipse fill="none" stroke="black" cx="1344" cy="-380" rx="18" ry="18"/>
</g>
<!-- 9&#45;&gt;16 -->
<g id="edge55" class="edge"><title>9&#45;&gt;16</title>
<path fill="none" stroke="black" d="M987.951,-350.413C1046.9,-355.325 1243.29,-371.691 1315.8,-377.733"/>
<polygon fill="black" stroke="black" points="1315.69,-381.237 1325.95,-378.579 1316.27,-374.261 1315.69,-381.237"/>
<text text-anchor="middle" x="1152" y="-369.8" font-family="Times,serif" font-size="14.00">u0005</text>
</g>
<!-- 15&#45;&gt;21 -->
<g id="edge56" class="edge"><title>15&#45;&gt;21</title>
<path fill="none" stroke="black" d="M1109.82,-640.798C1130.2,-649.557 1165.87,-664.885 1189.95,-675.236"/>
<polygon fill="black" stroke="black" points="1188.61,-678.467 1199.18,-679.2 1191.37,-672.036 1188.61,-678.467"/>
<text text-anchor="middle" x="1152" y="-671.8" font-family="Times,serif" font-size="14.00">u0005</text>
</g>
<!-- 16&#45;&gt;4 -->
<g id="edge58" class="edge"><title>16&#45;&gt;4</title>
<path fill="none" stroke="black" d="M1356.27,-366.775C1359.81,-362.463 1363.66,-357.601 1367,-353 1375.69,-341.024 1373.11,-333.797 1385,-325 1408.76,-307.43 1419.8,-311.508 1449,-307 1599.3,-283.799 1638.92,-296 1791,-296 1791,-296 1791,-296 1985,-296 2061.67,-296 2091.7,-406.938 2101.69,-460.159"/>
<polygon fill="black" stroke="black" points="2098.29,-461.043 2103.48,-470.281 2105.18,-459.825 2098.29,-461.043"/>
<text text-anchor="middle" x="1728" y="-299.8" font-family="Times,serif" font-size="14.00">u0003</text>
</g>
<!-- 16&#45;&gt;26 -->
<g id="edge59" class="edge"><title>16&#45;&gt;26</title>
<path fill="none" stroke="black" d="M1362.21,-379.534C1406.26,-378.73 1526.45,-379.005 1623,-402 1702.18,-420.858 1789.48,-462.859 1830.78,-484.128"/>
<polygon fill="black" stroke="black" points="1829.32,-487.31 1839.8,-488.821 1832.55,-481.101 1829.32,-487.31"/>
<text text-anchor="middle" x="1600" y="-405.8" font-family="Times,serif" font-size="14.00">u0005</text>
</g>
<!-- 25 -->
<g id="node37" class="node"><title>25</title>
<ellipse fill="none" stroke="black" cx="1472" cy="-426" rx="18" ry="18"/>
</g>
<!-- 16&#45;&gt;25 -->
<g id="edge57" class="edge"><title>16&#45;&gt;25</title>
<path fill="none" stroke="black" d="M1361.21,-385.92C1382.48,-393.683 1420.03,-407.393 1445.22,-416.587"/>
<polygon fill="black" stroke="black" points="1444.25,-419.961 1454.85,-420.103 1446.65,-413.386 1444.25,-419.961"/>
<text text-anchor="middle" x="1408" y="-415.8" font-family="Times,serif" font-size="14.00">u0004</text>
</g>
<!-- 25&#45;&gt;35 -->
<g id="edge60" class="edge"><title>25&#45;&gt;35</title>
<path fill="none" stroke="black" d="M1488.45,-434.338C1510.01,-445.974 1549.33,-467.195 1574.8,-480.94"/>
<polygon fill="black" stroke="black" points="1573.35,-484.137 1583.82,-485.806 1576.68,-477.977 1573.35,-484.137"/>
<text text-anchor="middle" x="1536" y="-476.8" font-family="Times,serif" font-size="14.00">u0005</text>
</g>
<!-- 10&#45;&gt;4 -->
<g id="edge62" class="edge"><title>10&#45;&gt;4</title>
<path fill="none" stroke="black" d="M594.548,-148.951C611.063,-116.469 653.725,-46 713,-46 713,-46 713,-46 1985,-46 2027.34,-46 2046.86,-52.2082 2071,-87 2092.15,-117.492 2102.3,-373.463 2105.14,-459.739"/>
<polygon fill="black" stroke="black" points="2101.65,-459.964 2105.47,-469.847 2108.64,-459.739 2101.65,-459.964"/>
<text text-anchor="middle" x="1344" y="-49.8" font-family="Times,serif" font-size="14.00">u0003</text>
</g>
<!-- 17 -->
<g id="node39" class="node"><title>17</title>
<ellipse fill="none" stroke="black" cx="714" cy="-132" rx="18" ry="18"/>
</g>
<!-- 10&#45;&gt;17 -->
<g id="edge61" class="edge"><title>10&#45;&gt;17</title>
<path fill="none" stroke="black" d="M603.293,-159.903C610.529,-157.694 619.164,-155.131 627,-153 646.774,-147.624 669.278,-142.151 686.305,-138.141"/>
<polygon fill="black" stroke="black" points="687.183,-141.53 696.125,-135.847 685.591,-134.714 687.183,-141.53"/>
<text text-anchor="middle" x="650" y="-156.8" font-family="Times,serif" font-size="14.00">u0004</text>
</g>
<!-- 18 -->
<g id="node48" class="node"><title>18</title>
<ellipse fill="none" stroke="black" cx="778" cy="-203" rx="18" ry="18"/>
</g>
<!-- 10&#45;&gt;18 -->
<g id="edge63" class="edge"><title>10&#45;&gt;18</title>
<path fill="none" stroke="black" d="M603.861,-168.372C636.889,-174.978 710.345,-189.669 750.138,-197.628"/>
<polygon fill="black" stroke="black" points="749.684,-201.106 760.177,-199.635 751.057,-194.242 749.684,-201.106"/>
<text text-anchor="middle" x="650" y="-185.8" font-family="Times,serif" font-size="14.00">u0005</text>
</g>
<!-- 17&#45;&gt;4 -->
<g id="edge65" class="edge"><title>17&#45;&gt;4</title>
<path fill="none" stroke="black" d="M729.953,-123.298C752.996,-110.734 798.933,-89 841,-89 841,-89 841,-89 1281,-89 1393.9,-89 1422.1,-85 1535,-85 1535,-85 1535,-85 1985,-85 2028.56,-85 2046.97,-95.6689 2071,-132 2106.43,-185.568 2107.46,-384.953 2106.54,-459.572"/>
<polygon fill="black" stroke="black" points="2103.04,-459.594 2106.4,-469.644 2110.04,-459.695 2103.04,-459.594"/>
<text text-anchor="middle" x="1408" y="-91.8" font-family="Times,serif" font-size="14.00">u0003</text>
</g>
<!-- 27 -->
<g id="node40" class="node"><title>27</title>
<ellipse fill="none" stroke="black" cx="906" cy="-150" rx="18" ry="18"/>
</g>
<!-- 17&#45;&gt;27 -->
<g id="edge64" class="edge"><title>17&#45;&gt;27</title>
<path fill="none" stroke="black" d="M731.652,-128.421C738.802,-127.058 747.274,-125.671 755,-125 775.368,-123.231 780.698,-122.594 801,-125 827.976,-128.197 858.082,-135.903 878.931,-141.922"/>
<polygon fill="black" stroke="black" points="878.065,-145.315 888.647,-144.798 880.052,-138.603 878.065,-145.315"/>
<text text-anchor="middle" x="778" y="-128.8" font-family="Times,serif" font-size="14.00">u0004</text>
</g>
<!-- 28 -->
<g id="node41" class="node"><title>28</title>
<ellipse fill="none" stroke="black" cx="842" cy="-224" rx="18" ry="18"/>
</g>
<!-- 17&#45;&gt;28 -->
<g id="edge66" class="edge"><title>17&#45;&gt;28</title>
<path fill="none" stroke="black" d="M731.459,-136.776C754.915,-143.697 795.718,-156.21 801,-161 815.441,-174.096 808.105,-184.834 819,-201 819.73,-202.083 820.512,-203.161 821.331,-204.227"/>
<polygon fill="black" stroke="black" points="818.877,-206.74 828.064,-212.016 824.172,-202.162 818.877,-206.74"/>
<text text-anchor="middle" x="778" y="-164.8" font-family="Times,serif" font-size="14.00">u0005</text>
</g>
<!-- 27&#45;&gt;4 -->
<g id="edge67" class="edge"><title>27&#45;&gt;4</title>
<path fill="none" stroke="black" d="M923.593,-145.877C947.577,-140.289 993.401,-131 1033,-131 1033,-131 1033,-131 1985,-131 2028.14,-131 2046.63,-140.401 2071,-176 2102.28,-221.697 2105.95,-391.404 2106.14,-459.479"/>
<polygon fill="black" stroke="black" points="2102.64,-459.865 2106.14,-469.864 2109.64,-459.863 2102.64,-459.865"/>
<text text-anchor="middle" x="1472" y="-134.8" font-family="Times,serif" font-size="14.00">u0003</text>
</g>
<!-- 27&#45;&gt;26 -->
<g id="edge68" class="edge"><title>27&#45;&gt;26</title>
<path fill="none" stroke="black" d="M923.828,-154.689C996.316,-174.459 1289.36,-250 1535,-250 1535,-250 1535,-250 1729,-250 1826.16,-250 1848.43,-403.52 1853.51,-468.496"/>
<polygon fill="black" stroke="black" points="1850.05,-469.105 1854.23,-478.838 1857.03,-468.619 1850.05,-469.105"/>
<text text-anchor="middle" x="1344" y="-244.8" font-family="Times,serif" font-size="14.00">u0005</text>
</g>
<!-- 36 -->
<g id="node42" class="node"><title>36</title>
<ellipse fill="none" stroke="black" cx="970" cy="-224" rx="18" ry="18"/>
</g>
<!-- 28&#45;&gt;36 -->
<g id="edge69" class="edge"><title>28&#45;&gt;36</title>
<path fill="none" stroke="black" d="M860.256,-224C881.274,-224 917.031,-224 941.775,-224"/>
<polygon fill="black" stroke="black" points="941.953,-227.5 951.953,-224 941.953,-220.5 941.953,-227.5"/>
<text text-anchor="middle" x="906" y="-227.8" font-family="Times,serif" font-size="14.00">u0005</text>
</g>
<!-- 36&#45;&gt;4 -->
<g id="edge70" class="edge"><title>36&#45;&gt;4</title>
<path fill="none" stroke="black" d="M987.947,-220.077C1040.4,-208.29 1204.85,-174 1343,-174 1343,-174 1343,-174 1985,-174 2028.14,-174 2046.32,-183.618 2071,-219 2097.81,-257.443 2104.09,-398.731 2105.56,-459.692"/>
<polygon fill="black" stroke="black" points="2102.06,-459.841 2105.77,-469.764 2109.06,-459.692 2102.06,-459.841"/>
<text text-anchor="middle" x="1536" y="-177.8" font-family="Times,serif" font-size="14.00">u0003</text>
</g>
<!-- 42 -->
<g id="node43" class="node"><title>42</title>
<ellipse fill="none" stroke="black" cx="1093" cy="-253" rx="18" ry="18"/>
</g>
<!-- 36&#45;&gt;42 -->
<g id="edge71" class="edge"><title>36&#45;&gt;42</title>
<path fill="none" stroke="black" d="M987.825,-228.032C1007.96,-232.859 1041.92,-240.998 1065.57,-246.666"/>
<polygon fill="black" stroke="black" points="1064.78,-250.075 1075.32,-249.002 1066.41,-243.268 1064.78,-250.075"/>
<text text-anchor="middle" x="1034" y="-248.8" font-family="Times,serif" font-size="14.00">u0005</text>
</g>
<!-- 44 -->
<g id="node44" class="node"><title>44</title>
<ellipse fill="none" stroke="black" cx="1216" cy="-321" rx="18" ry="18"/>
</g>
<!-- 42&#45;&gt;44 -->
<g id="edge72" class="edge"><title>42&#45;&gt;44</title>
<path fill="none" stroke="black" d="M1109.32,-261.612C1129.87,-273.16 1166.57,-293.784 1190.85,-307.43"/>
<polygon fill="black" stroke="black" points="1189.37,-310.61 1199.8,-312.458 1192.8,-304.507 1189.37,-310.61"/>
<text text-anchor="middle" x="1152" y="-301.8" font-family="Times,serif" font-size="14.00">u0004</text>
</g>
<!-- 45 -->
<g id="node45" class="node"><title>45</title>
<ellipse fill="none" stroke="black" cx="1344" cy="-326" rx="18" ry="18"/>
</g>
<!-- 44&#45;&gt;45 -->
<g id="edge73" class="edge"><title>44&#45;&gt;45</title>
<path fill="none" stroke="black" d="M1233.99,-321.674C1254.94,-322.506 1290.81,-323.929 1315.65,-324.915"/>
<polygon fill="black" stroke="black" points="1315.74,-328.421 1325.87,-325.32 1316.02,-321.427 1315.74,-328.421"/>
<text text-anchor="middle" x="1280" y="-328.8" font-family="Times,serif" font-size="14.00">u0004</text>
</g>
<!-- 46 -->
<g id="node46" class="node"><title>46</title>
<ellipse fill="none" stroke="black" cx="1472" cy="-334" rx="18" ry="18"/>
</g>
<!-- 45&#45;&gt;46 -->
<g id="edge74" class="edge"><title>45&#45;&gt;46</title>
<path fill="none" stroke="black" d="M1361.99,-327.079C1382.94,-328.409 1418.81,-330.686 1443.65,-332.264"/>
<polygon fill="black" stroke="black" points="1443.67,-335.772 1453.87,-332.913 1444.12,-328.786 1443.67,-335.772"/>
<text text-anchor="middle" x="1408" y="-335.8" font-family="Times,serif" font-size="14.00">u0004</text>
</g>
<!-- 47 -->
<g id="node47" class="node"><title>47</title>
<ellipse fill="none" stroke="black" cx="1600" cy="-334" rx="18" ry="18"/>
</g>
<!-- 46&#45;&gt;47 -->
<g id="edge75" class="edge"><title>46&#45;&gt;47</title>
<path fill="none" stroke="black" d="M1490.26,-334C1511.27,-334 1547.03,-334 1571.77,-334"/>
<polygon fill="black" stroke="black" points="1571.95,-337.5 1581.95,-334 1571.95,-330.5 1571.95,-337.5"/>
<text text-anchor="middle" x="1536" y="-337.8" font-family="Times,serif" font-size="14.00">u0004</text>
</g>
<!-- 47&#45;&gt;41 -->
<g id="edge76" class="edge"><title>47&#45;&gt;41</title>
<path fill="none" stroke="black" d="M1611.96,-347.919C1633.84,-375.696 1683.07,-438.215 1709.48,-471.749"/>
<polygon fill="black" stroke="black" points="1707.04,-474.308 1715.97,-479.999 1712.54,-469.977 1707.04,-474.308"/>
<text text-anchor="middle" x="1664" y="-446.8" font-family="Times,serif" font-size="14.00">u0005</text>
</g>
<!-- 18&#45;&gt;27 -->
<g id="edge77" class="edge"><title>18&#45;&gt;27</title>
<path fill="none" stroke="black" d="M793.971,-194.561C801.39,-190.529 810.549,-185.772 819,-182 838.636,-173.235 861.475,-164.816 878.68,-158.816"/>
<polygon fill="black" stroke="black" points="880.266,-161.971 888.585,-155.411 877.991,-155.352 880.266,-161.971"/>
<text text-anchor="middle" x="842" y="-185.8" font-family="Times,serif" font-size="14.00">u0005</text>
</g>
<!-- initial -->
<g id="node49" class="node"><title>initial</title>
</g>
<!-- initial&#45;&gt;0 -->
<g id="edge78" class="edge"><title>initial&#45;&gt;0</title>
<path fill="none" stroke="black" d="M54.195,-915C62.6538,-915 72.0513,-915 80.5951,-915"/>
<polygon fill="black" stroke="black" points="80.8257,-918.5 90.8257,-915 80.8257,-911.5 80.8257,-918.5"/>
</g>
</g>
</svg>
