<svg width="2788px" height="788px"
 viewBox="0.00 0.00 2091.00 591.00" xmlns="http://www.w3.org/2000/svg" xmlns:xlink="http://www.w3.org/1999/xlink">
<g id="graph0" class="graph" transform="scale(1.000022500562514 1.000022500562514) rotate(0) translate(4 587)">
<title>Automaton</title>
<polygon fill="white" stroke="none" points="-4,4 -4,-587 2087,-587 2087,4 -4,4"/>
<!-- 0 -->
<g id="node1" class="node"><title>0</title>
<ellipse fill="none" stroke="black" cx="109" cy="-233" rx="18" ry="18"/>
</g>
<!-- 1 -->
<g id="node2" class="node"><title>1</title>
<ellipse fill="none" stroke="black" cx="227" cy="-233" rx="18" ry="18"/>
</g>
<!-- 0&#45;&gt;1 -->
<g id="edge1" class="edge"><title>0&#45;&gt;1</title>
<path fill="none" stroke="black" d="M127.116,-233C145.964,-233 176.531,-233 198.696,-233"/>
<polygon fill="black" stroke="black" points="198.814,-236.5 208.814,-233 198.814,-229.5 198.814,-236.5"/>
<text text-anchor="middle" x="168" y="-236.8" font-family="Times,serif" font-size="14.00">u0005</text>
</g>
<!-- 2 -->
<g id="node3" class="node"><title>2</title>
<ellipse fill="none" stroke="black" cx="345" cy="-233" rx="18" ry="18"/>
</g>
<!-- 1&#45;&gt;2 -->
<g id="edge2" class="edge"><title>1&#45;&gt;2</title>
<path fill="none" stroke="black" d="M245.116,-233C263.964,-233 294.531,-233 316.696,-233"/>
<polygon fill="black" stroke="black" points="316.814,-236.5 326.814,-233 316.814,-229.5 316.814,-236.5"/>
<text text-anchor="middle" x="286" y="-236.8" font-family="Times,serif" font-size="14.00">u0002</text>
</g>
<!-- 3 -->
<g id="node4" class="node"><title>3</title>
<ellipse fill="none" stroke="black" cx="463" cy="-299" rx="18" ry="18"/>
</g>
<!-- 2&#45;&gt;3 -->
<g id="edge3" class="edge"><title>2&#45;&gt;3</title>
<path fill="none" stroke="black" d="M361.165,-241.628C380.704,-252.746 414.898,-272.2 437.987,-285.338"/>
<polygon fill="black" stroke="black" points="436.409,-288.466 446.831,-290.37 439.871,-282.382 436.409,-288.466"/>
<text text-anchor="middle" x="404" y="-280.8" font-family="Times,serif" font-size="14.00">u0002</text>
</g>
<!-- 4 -->
<g id="node31" class="node"><title>4</title>
<ellipse fill="none" stroke="black" cx="522" cy="-138" rx="18" ry="18"/>
</g>
<!-- 2&#45;&gt;4 -->
<g id="edge4" class="edge"><title>2&#45;&gt;4</title>
<path fill="none" stroke="black" d="M361.224,-224.736C391.682,-208.201 460.329,-170.936 496.939,-151.062"/>
<polygon fill="black" stroke="black" points="498.817,-154.025 505.936,-146.178 495.477,-147.873 498.817,-154.025"/>
<text text-anchor="middle" x="404" y="-216.8" font-family="Times,serif" font-size="14.00">u0000</text>
</g>
<!-- 5 -->
<g id="node5" class="node"><title>5</title>
<ellipse fill="none" stroke="black" cx="581" cy="-299" rx="18" ry="18"/>
</g>
<!-- 3&#45;&gt;5 -->
<g id="edge5" class="edge"><title>3&#45;&gt;5</title>
<path fill="none" stroke="black" d="M481.116,-299C499.964,-299 530.531,-299 552.696,-299"/>
<polygon fill="black" stroke="black" points="552.814,-302.5 562.814,-299 552.814,-295.5 552.814,-302.5"/>
<text text-anchor="middle" x="522" y="-302.8" font-family="Times,serif" font-size="14.00">u0002</text>
</g>
<!-- 6 -->
<g id="node28" class="node"><title>6</title>
<ellipse fill="none" stroke="black" cx="640" cy="-446" rx="18" ry="18"/>
</g>
<!-- 3&#45;&gt;6 -->
<g id="edge6" class="edge"><title>3&#45;&gt;6</title>
<path fill="none" stroke="black" d="M477.441,-310.291C507.672,-335.685 581.227,-397.47 617.729,-428.132"/>
<polygon fill="black" stroke="black" points="615.844,-431.12 625.752,-434.872 620.346,-425.76 615.844,-431.12"/>
<text text-anchor="middle" x="522" y="-369.8" font-family="Times,serif" font-size="14.00">u0000</text>
</g>
<!-- 8 -->
<g id="node6" class="node"><title>8</title>
<ellipse fill="none" stroke="black" cx="699" cy="-286" rx="18" ry="18"/>
</g>
<!-- 5&#45;&gt;8 -->
<g id="edge7" class="edge"><title>5&#45;&gt;8</title>
<path fill="none" stroke="black" d="M599.116,-297.082C617.964,-294.97 648.531,-291.544 670.696,-289.06"/>
<polygon fill="black" stroke="black" points="671.266,-292.518 680.814,-287.926 670.486,-285.562 671.266,-292.518"/>
<text text-anchor="middle" x="640" y="-297.8" font-family="Times,serif" font-size="14.00">u0002</text>
</g>
<!-- 9 -->
<g id="node24" class="node"><title>9</title>
<ellipse fill="none" stroke="black" cx="758" cy="-387" rx="18" ry="18"/>
</g>
<!-- 5&#45;&gt;9 -->
<g id="edge8" class="edge"><title>5&#45;&gt;9</title>
<path fill="none" stroke="black" d="M597.53,-306.809C628.015,-322.139 695.896,-356.273 732.492,-374.676"/>
<polygon fill="black" stroke="black" points="730.998,-377.842 741.505,-379.208 734.143,-371.589 730.998,-377.842"/>
<text text-anchor="middle" x="640" y="-342.8" font-family="Times,serif" font-size="14.00">u0000</text>
</g>
<!-- 13 -->
<g id="node7" class="node"><title>13</title>
<ellipse fill="none" stroke="black" cx="817" cy="-286" rx="18" ry="18"/>
</g>
<!-- 8&#45;&gt;13 -->
<g id="edge9" class="edge"><title>8&#45;&gt;13</title>
<path fill="none" stroke="black" d="M717.116,-286C735.964,-286 766.531,-286 788.696,-286"/>
<polygon fill="black" stroke="black" points="788.814,-289.5 798.814,-286 788.814,-282.5 788.814,-289.5"/>
<text text-anchor="middle" x="758" y="-289.8" font-family="Times,serif" font-size="14.00">u0002</text>
</g>
<!-- 14 -->
<g id="node22" class="node"><title>14</title>
<ellipse fill="none" stroke="black" cx="876" cy="-197" rx="18" ry="18"/>
</g>
<!-- 8&#45;&gt;14 -->
<g id="edge10" class="edge"><title>8&#45;&gt;14</title>
<path fill="none" stroke="black" d="M715.274,-277.564C721.383,-274.227 728.501,-270.388 735,-267 775.094,-246.101 822.209,-222.799 850.282,-209.046"/>
<polygon fill="black" stroke="black" points="851.93,-212.136 859.375,-204.599 848.854,-205.848 851.93,-212.136"/>
<text text-anchor="middle" x="758" y="-270.8" font-family="Times,serif" font-size="14.00">u0000</text>
</g>
<!-- 18 -->
<g id="node8" class="node"><title>18</title>
<ellipse fill="none" stroke="black" cx="1304" cy="-271" rx="18" ry="18"/>
</g>
<!-- 13&#45;&gt;18 -->
<g id="edge11" class="edge"><title>13&#45;&gt;18</title>
<path fill="none" stroke="black" d="M834.839,-282.919C857.351,-279.075 898.536,-273 934,-273 934,-273 934,-273 1182,-273 1214.21,-273 1251.24,-272.283 1275.76,-271.707"/>
<polygon fill="black" stroke="black" points="1275.86,-275.206 1285.77,-271.464 1275.69,-268.208 1275.86,-275.206"/>
<text text-anchor="middle" x="1058" y="-276.8" font-family="Times,serif" font-size="14.00">u0002</text>
</g>
<!-- 19 -->
<g id="node16" class="node"><title>19</title>
<ellipse fill="none" stroke="black" cx="935" cy="-322" rx="18" ry="18"/>
</g>
<!-- 13&#45;&gt;19 -->
<g id="edge12" class="edge"><title>13&#45;&gt;19</title>
<path fill="none" stroke="black" d="M834.62,-291.158C853.743,-297.093 885.388,-306.914 907.827,-313.877"/>
<polygon fill="black" stroke="black" points="906.823,-317.23 917.411,-316.852 908.898,-310.545 906.823,-317.23"/>
<text text-anchor="middle" x="876" y="-313.8" font-family="Times,serif" font-size="14.00">u0000</text>
</g>
<!-- 24 -->
<g id="node9" class="node"><title>24</title>
<ellipse fill="none" stroke="black" cx="1427" cy="-271" rx="18" ry="18"/>
</g>
<!-- 18&#45;&gt;24 -->
<g id="edge13" class="edge"><title>18&#45;&gt;24</title>
<path fill="none" stroke="black" d="M1322.08,-271C1341.96,-271 1375.08,-271 1398.58,-271"/>
<polygon fill="black" stroke="black" points="1398.62,-274.5 1408.62,-271 1398.62,-267.5 1398.62,-274.5"/>
<text text-anchor="middle" x="1368" y="-274.8" font-family="Times,serif" font-size="14.00">u0002</text>
</g>
<!-- 25 -->
<g id="node15" class="node"><title>25</title>
<ellipse fill="none" stroke="black" cx="1486" cy="-225" rx="18" ry="18"/>
</g>
<!-- 18&#45;&gt;25 -->
<g id="edge14" class="edge"><title>18&#45;&gt;25</title>
<path fill="none" stroke="black" d="M1320.2,-262.662C1327.52,-258.942 1336.53,-254.78 1345,-252 1383.17,-239.48 1429.2,-231.984 1457.79,-228.173"/>
<polygon fill="black" stroke="black" points="1458.36,-231.628 1467.84,-226.89 1457.48,-224.684 1458.36,-231.628"/>
<text text-anchor="middle" x="1368" y="-255.8" font-family="Times,serif" font-size="14.00">u0000</text>
</g>
<!-- 30 -->
<g id="node10" class="node"><title>30</title>
<ellipse fill="none" stroke="black" cx="1550" cy="-271" rx="18" ry="18"/>
</g>
<!-- 24&#45;&gt;30 -->
<g id="edge15" class="edge"><title>24&#45;&gt;30</title>
<path fill="none" stroke="black" d="M1445.08,-271C1464.96,-271 1498.08,-271 1521.58,-271"/>
<polygon fill="black" stroke="black" points="1521.62,-274.5 1531.62,-271 1521.62,-267.5 1521.62,-274.5"/>
<text text-anchor="middle" x="1486" y="-274.8" font-family="Times,serif" font-size="14.00">u0000</text>
</g>
<!-- 22 -->
<g id="node11" class="node"><title>22</title>
<ellipse fill="none" stroke="black" cx="1678" cy="-286" rx="18" ry="18"/>
</g>
<!-- 30&#45;&gt;22 -->
<g id="edge16" class="edge"><title>30&#45;&gt;22</title>
<path fill="none" stroke="black" d="M1568.2,-271.811C1585.6,-272.77 1613.26,-274.672 1637,-278 1641.34,-278.608 1645.92,-279.39 1650.37,-280.226"/>
<polygon fill="black" stroke="black" points="1649.84,-283.691 1660.34,-282.217 1651.22,-276.826 1649.84,-283.691"/>
<text text-anchor="middle" x="1614" y="-281.8" font-family="Times,serif" font-size="14.00">u0004</text>
</g>
<!-- 29 -->
<g id="node12" class="node"><title>29</title>
<ellipse fill="none" stroke="black" cx="1806" cy="-279" rx="18" ry="18"/>
</g>
<!-- 22&#45;&gt;29 -->
<g id="edge17" class="edge"><title>22&#45;&gt;29</title>
<path fill="none" stroke="black" d="M1694,-276.928C1701.27,-273.046 1710.3,-268.961 1719,-267 1738.94,-262.504 1744.77,-264.031 1765,-267 1769.64,-267.682 1774.5,-268.786 1779.16,-270.056"/>
<polygon fill="black" stroke="black" points="1778.31,-273.456 1788.9,-273 1780.34,-266.756 1778.31,-273.456"/>
<text text-anchor="middle" x="1742" y="-270.8" font-family="Times,serif" font-size="14.00">u0001</text>
</g>
<!-- 27 -->
<g id="node13" class="node"><title>27</title>
<ellipse fill="none" stroke="black" cx="1934" cy="-262" rx="18" ry="18"/>
</g>
<!-- 29&#45;&gt;27 -->
<g id="edge18" class="edge"><title>29&#45;&gt;27</title>
<path fill="none" stroke="black" d="M1823.99,-276.707C1844.94,-273.881 1880.81,-269.041 1905.65,-265.69"/>
<polygon fill="black" stroke="black" points="1906.43,-269.116 1915.87,-264.311 1905.5,-262.179 1906.43,-269.116"/>
<text text-anchor="middle" x="1870" y="-276.8" font-family="Times,serif" font-size="14.00">u0001</text>
</g>
<!-- 11 -->
<g id="node14" class="node"><title>11</title>
<ellipse fill="none" stroke="black" cx="2061" cy="-308" rx="18" ry="18"/>
<ellipse fill="none" stroke="black" cx="2061" cy="-308" rx="22" ry="22"/>
</g>
<!-- 27&#45;&gt;11 -->
<g id="edge19" class="edge"><title>27&#45;&gt;11</title>
<path fill="none" stroke="black" d="M1951.09,-267.92C1971.02,-275.256 2005.39,-287.904 2030.2,-297.033"/>
<polygon fill="black" stroke="black" points="2029.25,-300.413 2039.84,-300.582 2031.67,-293.844 2029.25,-300.413"/>
<text text-anchor="middle" x="1998" y="-296.8" font-family="Times,serif" font-size="14.00">u0003</text>
</g>
<!-- 25&#45;&gt;27 -->
<g id="edge20" class="edge"><title>25&#45;&gt;27</title>
<path fill="none" stroke="black" d="M1504.09,-226.245C1554.09,-229.911 1704.4,-241.092 1829,-252 1855.16,-254.29 1884.99,-257.188 1905.97,-259.274"/>
<polygon fill="black" stroke="black" points="1905.78,-262.771 1916.08,-260.283 1906.47,-255.806 1905.78,-262.771"/>
<text text-anchor="middle" x="1678" y="-244.8" font-family="Times,serif" font-size="14.00">u0004</text>
</g>
<!-- 26 -->
<g id="node17" class="node"><title>26</title>
<ellipse fill="none" stroke="black" cx="1058" cy="-325" rx="18" ry="18"/>
</g>
<!-- 19&#45;&gt;26 -->
<g id="edge21" class="edge"><title>19&#45;&gt;26</title>
<path fill="none" stroke="black" d="M953.08,-322.423C972.965,-322.916 1006.08,-323.737 1029.58,-324.32"/>
<polygon fill="black" stroke="black" points="1029.53,-327.82 1039.62,-324.569 1029.71,-320.822 1029.53,-327.82"/>
<text text-anchor="middle" x="994" y="-326.8" font-family="Times,serif" font-size="14.00">u0004</text>
</g>
<!-- 26&#45;&gt;11 -->
<g id="edge22" class="edge"><title>26&#45;&gt;11</title>
<path fill="none" stroke="black" d="M1072.64,-335.669C1094.16,-351.406 1137.9,-379 1180,-379 1180,-379 1180,-379 1487,-379 1601.65,-379 1626.35,-334 1741,-334 1741,-334 1741,-334 1935,-334 1968.12,-334 2005.16,-325.143 2030.26,-317.768"/>
<polygon fill="black" stroke="black" points="2031.37,-321.09 2039.92,-314.831 2029.33,-314.393 2031.37,-321.09"/>
<text text-anchor="middle" x="1550" y="-379.8" font-family="Times,serif" font-size="14.00">u0003</text>
</g>
<!-- 31 -->
<g id="node18" class="node"><title>31</title>
<ellipse fill="none" stroke="black" cx="1181" cy="-325" rx="18" ry="18"/>
</g>
<!-- 26&#45;&gt;31 -->
<g id="edge23" class="edge"><title>26&#45;&gt;31</title>
<path fill="none" stroke="black" d="M1076.08,-325C1095.96,-325 1129.08,-325 1152.58,-325"/>
<polygon fill="black" stroke="black" points="1152.62,-328.5 1162.62,-325 1152.62,-321.5 1152.62,-328.5"/>
<text text-anchor="middle" x="1122" y="-328.8" font-family="Times,serif" font-size="14.00">u0001</text>
</g>
<!-- 32 -->
<g id="node19" class="node"><title>32</title>
<ellipse fill="none" stroke="black" cx="1304" cy="-325" rx="18" ry="18"/>
</g>
<!-- 31&#45;&gt;32 -->
<g id="edge24" class="edge"><title>31&#45;&gt;32</title>
<path fill="none" stroke="black" d="M1199.08,-325C1218.96,-325 1252.08,-325 1275.58,-325"/>
<polygon fill="black" stroke="black" points="1275.62,-328.5 1285.62,-325 1275.62,-321.5 1275.62,-328.5"/>
<text text-anchor="middle" x="1240" y="-328.8" font-family="Times,serif" font-size="14.00">u0001</text>
</g>
<!-- 33 -->
<g id="node20" class="node"><title>33</title>
<ellipse fill="none" stroke="black" cx="1427" cy="-325" rx="18" ry="18"/>
</g>
<!-- 32&#45;&gt;33 -->
<g id="edge25" class="edge"><title>32&#45;&gt;33</title>
<path fill="none" stroke="black" d="M1322.08,-325C1341.96,-325 1375.08,-325 1398.58,-325"/>
<polygon fill="black" stroke="black" points="1398.62,-328.5 1408.62,-325 1398.62,-321.5 1398.62,-328.5"/>
<text text-anchor="middle" x="1368" y="-328.8" font-family="Times,serif" font-size="14.00">u0001</text>
</g>
<!-- 34 -->
<g id="node21" class="node"><title>34</title>
<ellipse fill="none" stroke="black" cx="1550" cy="-325" rx="18" ry="18"/>
</g>
<!-- 33&#45;&gt;34 -->
<g id="edge26" class="edge"><title>33&#45;&gt;34</title>
<path fill="none" stroke="black" d="M1445.08,-325C1464.96,-325 1498.08,-325 1521.58,-325"/>
<polygon fill="black" stroke="black" points="1521.62,-328.5 1531.62,-325 1521.62,-321.5 1521.62,-328.5"/>
<text text-anchor="middle" x="1486" y="-328.8" font-family="Times,serif" font-size="14.00">u0001</text>
</g>
<!-- 34&#45;&gt;22 -->
<g id="edge27" class="edge"><title>34&#45;&gt;22</title>
<path fill="none" stroke="black" d="M1567.47,-319.901C1588.7,-313.332 1625.84,-301.836 1650.92,-294.073"/>
<polygon fill="black" stroke="black" points="1652.01,-297.4 1660.52,-291.1 1649.94,-290.713 1652.01,-297.4"/>
<text text-anchor="middle" x="1614" y="-315.8" font-family="Times,serif" font-size="14.00">u0001</text>
</g>
<!-- 20 -->
<g id="node23" class="node"><title>20</title>
<ellipse fill="none" stroke="black" cx="1806" cy="-181" rx="18" ry="18"/>
</g>
<!-- 14&#45;&gt;20 -->
<g id="edge28" class="edge"><title>14&#45;&gt;20</title>
<path fill="none" stroke="black" d="M893.866,-194.63C916.408,-191.673 957.626,-187 993,-187 993,-187 993,-187 1615,-187 1681.68,-187 1698.39,-187.161 1765,-184 1769.11,-183.805 1773.45,-183.54 1777.7,-183.248"/>
<polygon fill="black" stroke="black" points="1778.17,-186.723 1787.88,-182.491 1777.65,-179.742 1778.17,-186.723"/>
<text text-anchor="middle" x="1304" y="-190.8" font-family="Times,serif" font-size="14.00">u0004</text>
</g>
<!-- 20&#45;&gt;27 -->
<g id="edge30" class="edge"><title>20&#45;&gt;27</title>
<path fill="none" stroke="black" d="M1823.85,-183.66C1842.23,-187.211 1871.84,-194.89 1893,-210 1903.22,-217.298 1912.05,-227.954 1918.8,-237.723"/>
<polygon fill="black" stroke="black" points="1916.01,-239.847 1924.39,-246.323 1921.88,-236.031 1916.01,-239.847"/>
<text text-anchor="middle" x="1870" y="-213.8" font-family="Times,serif" font-size="14.00">u0001</text>
</g>
<!-- 20&#45;&gt;11 -->
<g id="edge29" class="edge"><title>20&#45;&gt;11</title>
<path fill="none" stroke="black" d="M1824.12,-181.122C1841.7,-181.633 1869.71,-183.523 1893,-190 1952.65,-206.593 2008.54,-255.349 2038.1,-284.74"/>
<polygon fill="black" stroke="black" points="2035.87,-287.458 2045.38,-292.119 2040.85,-282.542 2035.87,-287.458"/>
<text text-anchor="middle" x="1934" y="-221.8" font-family="Times,serif" font-size="14.00">u0003</text>
</g>
<!-- 15 -->
<g id="node25" class="node"><title>15</title>
<ellipse fill="none" stroke="black" cx="1427" cy="-430" rx="18" ry="18"/>
</g>
<!-- 9&#45;&gt;15 -->
<g id="edge31" class="edge"><title>9&#45;&gt;15</title>
<path fill="none" stroke="black" d="M774.291,-394.99C796.047,-405.595 837.466,-423 875,-423 875,-423 875,-423 1305,-423 1337.26,-423 1374.28,-425.511 1398.78,-427.525"/>
<polygon fill="black" stroke="black" points="1398.52,-431.015 1408.79,-428.376 1399.12,-424.04 1398.52,-431.015"/>
<text text-anchor="middle" x="1058" y="-426.8" font-family="Times,serif" font-size="14.00">u0004</text>
</g>
<!-- 15&#45;&gt;11 -->
<g id="edge32" class="edge"><title>15&#45;&gt;11</title>
<path fill="none" stroke="black" d="M1442.6,-439.531C1464.68,-453.005 1508.32,-476 1549,-476 1549,-476 1549,-476 1935,-476 2002.54,-476 2037.88,-387.519 2052.19,-338.982"/>
<polygon fill="black" stroke="black" points="2055.58,-339.852 2054.93,-329.277 2048.84,-337.951 2055.58,-339.852"/>
<text text-anchor="middle" x="1742" y="-479.8" font-family="Times,serif" font-size="14.00">u0003</text>
</g>
<!-- 21 -->
<g id="node26" class="node"><title>21</title>
<ellipse fill="none" stroke="black" cx="1550" cy="-430" rx="18" ry="18"/>
</g>
<!-- 15&#45;&gt;21 -->
<g id="edge33" class="edge"><title>15&#45;&gt;21</title>
<path fill="none" stroke="black" d="M1445.08,-430C1464.96,-430 1498.08,-430 1521.58,-430"/>
<polygon fill="black" stroke="black" points="1521.62,-433.5 1531.62,-430 1521.62,-426.5 1521.62,-433.5"/>
<text text-anchor="middle" x="1486" y="-433.8" font-family="Times,serif" font-size="14.00">u0001</text>
</g>
<!-- 21&#45;&gt;11 -->
<g id="edge34" class="edge"><title>21&#45;&gt;11</title>
<path fill="none" stroke="black" d="M1568.11,-428.459C1575.19,-427.888 1583.49,-427.306 1591,-427 1657.61,-424.283 1674.33,-426 1741,-426 1741,-426 1741,-426 1935,-426 1987.05,-426 2026.2,-371.227 2045.86,-336.316"/>
<polygon fill="black" stroke="black" points="2048.96,-337.943 2050.67,-327.485 2042.81,-334.599 2048.96,-337.943"/>
<text text-anchor="middle" x="1806" y="-429.8" font-family="Times,serif" font-size="14.00">u0003</text>
</g>
<!-- 28 -->
<g id="node27" class="node"><title>28</title>
<ellipse fill="none" stroke="black" cx="1678" cy="-380" rx="18" ry="18"/>
</g>
<!-- 21&#45;&gt;28 -->
<g id="edge35" class="edge"><title>21&#45;&gt;28</title>
<path fill="none" stroke="black" d="M1561.5,-415.602C1570.68,-403.475 1583.66,-387.55 1591,-384 1609.27,-375.156 1632.36,-374.57 1650.01,-375.969"/>
<polygon fill="black" stroke="black" points="1649.9,-379.477 1660.21,-377.041 1650.63,-372.515 1649.9,-379.477"/>
<text text-anchor="middle" x="1614" y="-387.8" font-family="Times,serif" font-size="14.00">u0001</text>
</g>
<!-- 28&#45;&gt;29 -->
<g id="edge37" class="edge"><title>28&#45;&gt;29</title>
<path fill="none" stroke="black" d="M1692.28,-368.931C1700.04,-362.491 1710.04,-354.241 1719,-347 1740.76,-329.425 1765.88,-309.62 1783.33,-295.937"/>
<polygon fill="black" stroke="black" points="1785.51,-298.669 1791.23,-289.748 1781.2,-293.158 1785.51,-298.669"/>
<text text-anchor="middle" x="1742" y="-350.8" font-family="Times,serif" font-size="14.00">u0001</text>
</g>
<!-- 28&#45;&gt;11 -->
<g id="edge36" class="edge"><title>28&#45;&gt;11</title>
<path fill="none" stroke="black" d="M1696.09,-382.364C1748,-388.744 1907.19,-402.369 2021,-348 2028.38,-344.472 2035.14,-338.925 2040.87,-333.072"/>
<polygon fill="black" stroke="black" points="2043.49,-335.402 2047.57,-325.625 2038.28,-330.723 2043.49,-335.402"/>
<text text-anchor="middle" x="1870" y="-390.8" font-family="Times,serif" font-size="14.00">u0003</text>
</g>
<!-- 10 -->
<g id="node29" class="node"><title>10</title>
<ellipse fill="none" stroke="black" cx="1427" cy="-522" rx="18" ry="18"/>
</g>
<!-- 6&#45;&gt;10 -->
<g id="edge38" class="edge"><title>6&#45;&gt;10</title>
<path fill="none" stroke="black" d="M654.782,-456.567C675.681,-471.505 717.181,-497 757,-497 757,-497 757,-497 1305,-497 1338.26,-497 1375.62,-506.171 1399.91,-513.404"/>
<polygon fill="black" stroke="black" points="1399.19,-516.845 1409.78,-516.452 1401.26,-510.157 1399.19,-516.845"/>
<text text-anchor="middle" x="994" y="-500.8" font-family="Times,serif" font-size="14.00">u0004</text>
</g>
<!-- 10&#45;&gt;11 -->
<g id="edge39" class="edge"><title>10&#45;&gt;11</title>
<path fill="none" stroke="black" d="M1442.6,-531.531C1464.68,-545.005 1508.32,-568 1549,-568 1549,-568 1549,-568 1935,-568 1979.21,-568 1995.53,-554.14 2021,-518 2040.84,-489.843 2052.43,-391.953 2057.29,-340.373"/>
<polygon fill="black" stroke="black" points="2060.8,-340.388 2058.22,-330.111 2053.83,-339.752 2060.8,-340.388"/>
<text text-anchor="middle" x="1742" y="-571.8" font-family="Times,serif" font-size="14.00">u0003</text>
</g>
<!-- 16 -->
<g id="node30" class="node"><title>16</title>
<ellipse fill="none" stroke="black" cx="1550" cy="-522" rx="18" ry="18"/>
</g>
<!-- 10&#45;&gt;16 -->
<g id="edge40" class="edge"><title>10&#45;&gt;16</title>
<path fill="none" stroke="black" d="M1445.08,-522C1464.96,-522 1498.08,-522 1521.58,-522"/>
<polygon fill="black" stroke="black" points="1521.62,-525.5 1531.62,-522 1521.62,-518.5 1521.62,-525.5"/>
<text text-anchor="middle" x="1486" y="-525.8" font-family="Times,serif" font-size="14.00">u0001</text>
</g>
<!-- 16&#45;&gt;22 -->
<g id="edge42" class="edge"><title>16&#45;&gt;22</title>
<path fill="none" stroke="black" d="M1562.47,-508.94C1580.45,-487.906 1615.44,-444.653 1637,-403 1641.25,-394.786 1657.91,-344.602 1668.34,-312.683"/>
<polygon fill="black" stroke="black" points="1671.71,-313.63 1671.48,-303.037 1665.06,-311.46 1671.71,-313.63"/>
<text text-anchor="middle" x="1614" y="-475.8" font-family="Times,serif" font-size="14.00">u0001</text>
</g>
<!-- 16&#45;&gt;11 -->
<g id="edge41" class="edge"><title>16&#45;&gt;11</title>
<path fill="none" stroke="black" d="M1568.12,-522C1592.36,-522 1638.06,-522 1677,-522 1677,-522 1677,-522 1935,-522 1975.78,-522 1994.33,-520.852 2021,-490 2040.12,-467.887 2051.69,-386.139 2056.84,-340.084"/>
<polygon fill="black" stroke="black" points="2060.33,-340.334 2057.92,-330.016 2053.37,-339.583 2060.33,-340.334"/>
<text text-anchor="middle" x="1806" y="-525.8" font-family="Times,serif" font-size="14.00">u0003</text>
</g>
<!-- 7 -->
<g id="node32" class="node"><title>7</title>
<ellipse fill="none" stroke="black" cx="1304" cy="-112" rx="18" ry="18"/>
</g>
<!-- 4&#45;&gt;7 -->
<g id="edge43" class="edge"><title>4&#45;&gt;7</title>
<path fill="none" stroke="black" d="M539.749,-133.26C562.162,-127.346 603.237,-118 639,-118 639,-118 639,-118 1182,-118 1214.25,-118 1251.27,-115.848 1275.78,-114.122"/>
<polygon fill="black" stroke="black" points="1276.06,-117.61 1285.78,-113.392 1275.55,-110.629 1276.06,-117.61"/>
<text text-anchor="middle" x="876" y="-121.8" font-family="Times,serif" font-size="14.00">u0004</text>
</g>
<!-- 7&#45;&gt;11 -->
<g id="edge44" class="edge"><title>7&#45;&gt;11</title>
<path fill="none" stroke="black" d="M1312.83,-95.9531C1329.19,-64.9841 1370.18,-0 1426,-0 1426,-0 1426,-0 1935,-0 1978.77,-0 1996.09,-12.0045 2021,-48 2046.11,-84.2934 2055.54,-214.126 2058.65,-275.463"/>
<polygon fill="black" stroke="black" points="2055.17,-275.915 2059.14,-285.735 2062.16,-275.579 2055.17,-275.915"/>
<text text-anchor="middle" x="1678" y="-3.8" font-family="Times,serif" font-size="14.00">u0003</text>
</g>
<!-- 12 -->
<g id="node33" class="node"><title>12</title>
<ellipse fill="none" stroke="black" cx="1427" cy="-112" rx="18" ry="18"/>
</g>
<!-- 7&#45;&gt;12 -->
<g id="edge45" class="edge"><title>7&#45;&gt;12</title>
<path fill="none" stroke="black" d="M1322.08,-112C1341.96,-112 1375.08,-112 1398.58,-112"/>
<polygon fill="black" stroke="black" points="1398.62,-115.5 1408.62,-112 1398.62,-108.5 1398.62,-115.5"/>
<text text-anchor="middle" x="1368" y="-115.8" font-family="Times,serif" font-size="14.00">u0001</text>
</g>
<!-- 12&#45;&gt;11 -->
<g id="edge46" class="edge"><title>12&#45;&gt;11</title>
<path fill="none" stroke="black" d="M1443.75,-118.599C1449.67,-120.76 1456.54,-122.891 1463,-124 1595.29,-146.724 1632.72,-104.223 1765,-127 1853.93,-142.312 1874.45,-156.555 1957,-193 1986.66,-206.094 1998.62,-204.545 2021,-228 2034.34,-241.979 2043.95,-261.389 2050.3,-277.589"/>
<polygon fill="black" stroke="black" points="2047.09,-279.009 2053.83,-287.184 2053.66,-276.591 2047.09,-279.009"/>
<text text-anchor="middle" x="1742" y="-130.8" font-family="Times,serif" font-size="14.00">u0003</text>
</g>
<!-- 17 -->
<g id="node34" class="node"><title>17</title>
<ellipse fill="none" stroke="black" cx="1550" cy="-92" rx="18" ry="18"/>
</g>
<!-- 12&#45;&gt;17 -->
<g id="edge47" class="edge"><title>12&#45;&gt;17</title>
<path fill="none" stroke="black" d="M1444.82,-109.219C1464.76,-105.924 1498.24,-100.39 1521.86,-96.4867"/>
<polygon fill="black" stroke="black" points="1522.63,-99.9058 1531.93,-94.8218 1521.49,-92.9995 1522.63,-99.9058"/>
<text text-anchor="middle" x="1486" y="-110.8" font-family="Times,serif" font-size="14.00">u0001</text>
</g>
<!-- 17&#45;&gt;11 -->
<g id="edge48" class="edge"><title>17&#45;&gt;11</title>
<path fill="none" stroke="black" d="M1565.87,-82.6912C1588.81,-69.2499 1634.62,-46 1677,-46 1677,-46 1677,-46 1935,-46 1978.56,-46 1995.51,-57.6772 2021,-93 2041.77,-121.781 2053.01,-223.345 2057.56,-275.923"/>
<polygon fill="black" stroke="black" points="2054.08,-276.379 2058.4,-286.053 2061.06,-275.796 2054.08,-276.379"/>
<text text-anchor="middle" x="1806" y="-49.8" font-family="Times,serif" font-size="14.00">u0003</text>
</g>
<!-- 23 -->
<g id="node35" class="node"><title>23</title>
<ellipse fill="none" stroke="black" cx="1678" cy="-92" rx="18" ry="18"/>
</g>
<!-- 17&#45;&gt;23 -->
<g id="edge49" class="edge"><title>17&#45;&gt;23</title>
<path fill="none" stroke="black" d="M1568.26,-92C1589.27,-92 1625.03,-92 1649.77,-92"/>
<polygon fill="black" stroke="black" points="1649.95,-95.5001 1659.95,-92 1649.95,-88.5001 1649.95,-95.5001"/>
<text text-anchor="middle" x="1614" y="-95.8" font-family="Times,serif" font-size="14.00">u0001</text>
</g>
<!-- 23&#45;&gt;11 -->
<g id="edge50" class="edge"><title>23&#45;&gt;11</title>
<path fill="none" stroke="black" d="M1696.21,-90.5266C1758.82,-85.5589 1973.24,-72.0849 2021,-116 2044.03,-137.182 2054.1,-227.101 2057.95,-276.006"/>
<polygon fill="black" stroke="black" points="2054.46,-276.353 2058.69,-286.066 2061.44,-275.834 2054.46,-276.353"/>
<text text-anchor="middle" x="1870" y="-89.8" font-family="Times,serif" font-size="14.00">u0003</text>
</g>
<!-- 23&#45;&gt;20 -->
<g id="edge51" class="edge"><title>23&#45;&gt;20</title>
<path fill="none" stroke="black" d="M1687.35,-107.558C1694.42,-119.463 1705.54,-135.558 1719,-146 1728.73,-153.55 1757.48,-164.556 1779.08,-172.203"/>
<polygon fill="black" stroke="black" points="1778.11,-175.57 1788.71,-175.556 1780.41,-168.96 1778.11,-175.57"/>
<text text-anchor="middle" x="1742" y="-170.8" font-family="Times,serif" font-size="14.00">u0001</text>
</g>
<!-- initial -->
<g id="node36" class="node"><title>initial</title>
</g>
<!-- initial&#45;&gt;0 -->
<g id="edge52" class="edge"><title>initial&#45;&gt;0</title>
<path fill="none" stroke="black" d="M54.195,-233C62.6538,-233 72.0513,-233 80.5951,-233"/>
<polygon fill="black" stroke="black" points="80.8257,-236.5 90.8257,-233 80.8257,-229.5 80.8257,-236.5"/>
</g>
</g>
</svg>
