<svg width="2801px" height="967px"
 viewBox="0.00 0.00 2101.00 725.00" xmlns="http://www.w3.org/2000/svg" xmlns:xlink="http://www.w3.org/1999/xlink">
<g id="graph0" class="graph" transform="scale(1.000022500562514 1.000022500562514) rotate(0) translate(4 721)">
<title>Automaton</title>
<polygon fill="white" stroke="none" points="-4,4 -4,-721 2097,-721 2097,4 -4,4"/>
<!-- 0 -->
<g id="node1" class="node"><title>0</title>
<ellipse fill="none" stroke="black" cx="109" cy="-142" rx="18" ry="18"/>
</g>
<!-- 1 -->
<g id="node2" class="node"><title>1</title>
<ellipse fill="none" stroke="black" cx="227" cy="-142" rx="18" ry="18"/>
</g>
<!-- 0&#45;&gt;1 -->
<g id="edge1" class="edge"><title>0&#45;&gt;1</title>
<path fill="none" stroke="black" d="M127.116,-142C145.964,-142 176.531,-142 198.696,-142"/>
<polygon fill="black" stroke="black" points="198.814,-145.5 208.814,-142 198.814,-138.5 198.814,-145.5"/>
<text text-anchor="middle" x="168" y="-145.8" font-family="Times,serif" font-size="14.00">u0005</text>
</g>
<!-- 2 -->
<g id="node3" class="node"><title>2</title>
<ellipse fill="none" stroke="black" cx="345" cy="-142" rx="18" ry="18"/>
</g>
<!-- 1&#45;&gt;2 -->
<g id="edge2" class="edge"><title>1&#45;&gt;2</title>
<path fill="none" stroke="black" d="M245.116,-142C263.964,-142 294.531,-142 316.696,-142"/>
<polygon fill="black" stroke="black" points="316.814,-145.5 326.814,-142 316.814,-138.5 316.814,-145.5"/>
<text text-anchor="middle" x="286" y="-145.8" font-family="Times,serif" font-size="14.00">u0002</text>
</g>
<!-- 3 -->
<g id="node4" class="node"><title>3</title>
<ellipse fill="none" stroke="black" cx="463" cy="-212" rx="18" ry="18"/>
</g>
<!-- 2&#45;&gt;3 -->
<g id="edge3" class="edge"><title>2&#45;&gt;3</title>
<path fill="none" stroke="black" d="M360.691,-150.866C380.282,-162.687 415.188,-183.752 438.468,-197.8"/>
<polygon fill="black" stroke="black" points="436.691,-200.815 447.061,-202.985 440.308,-194.822 436.691,-200.815"/>
<text text-anchor="middle" x="404" y="-192.8" font-family="Times,serif" font-size="14.00">u0002</text>
</g>
<!-- 4 -->
<g id="node35" class="node"><title>4</title>
<ellipse fill="none" stroke="black" cx="522" cy="-123" rx="18" ry="18"/>
</g>
<!-- 2&#45;&gt;4 -->
<g id="edge4" class="edge"><title>2&#45;&gt;4</title>
<path fill="none" stroke="black" d="M363.098,-140.144C393.496,-136.843 457.17,-129.93 493.694,-125.965"/>
<polygon fill="black" stroke="black" points="494.526,-129.395 504.09,-124.836 493.77,-122.436 494.526,-129.395"/>
<text text-anchor="middle" x="404" y="-141.8" font-family="Times,serif" font-size="14.00">u0000</text>
</g>
<!-- 5 -->
<g id="node5" class="node"><title>5</title>
<ellipse fill="none" stroke="black" cx="581" cy="-357" rx="18" ry="18"/>
</g>
<!-- 3&#45;&gt;5 -->
<g id="edge5" class="edge"><title>3&#45;&gt;5</title>
<path fill="none" stroke="black" d="M474.913,-225.641C495.122,-250.902 538.513,-305.141 562.741,-335.426"/>
<polygon fill="black" stroke="black" points="560.051,-337.667 569.031,-343.289 565.518,-333.294 560.051,-337.667"/>
<text text-anchor="middle" x="522" y="-313.8" font-family="Times,serif" font-size="14.00">u0002</text>
</g>
<!-- 6 -->
<g id="node30" class="node"><title>6</title>
<ellipse fill="none" stroke="black" cx="640" cy="-212" rx="18" ry="18"/>
</g>
<!-- 3&#45;&gt;6 -->
<g id="edge6" class="edge"><title>3&#45;&gt;6</title>
<path fill="none" stroke="black" d="M481.098,-212C511.418,-212 574.844,-212 611.412,-212"/>
<polygon fill="black" stroke="black" points="611.832,-215.5 621.832,-212 611.832,-208.5 611.832,-215.5"/>
<text text-anchor="middle" x="522" y="-215.8" font-family="Times,serif" font-size="14.00">u0000</text>
</g>
<!-- 8 -->
<g id="node6" class="node"><title>8</title>
<ellipse fill="none" stroke="black" cx="699" cy="-357" rx="18" ry="18"/>
</g>
<!-- 5&#45;&gt;8 -->
<g id="edge7" class="edge"><title>5&#45;&gt;8</title>
<path fill="none" stroke="black" d="M599.116,-357C617.964,-357 648.531,-357 670.696,-357"/>
<polygon fill="black" stroke="black" points="670.814,-360.5 680.814,-357 670.814,-353.5 670.814,-360.5"/>
<text text-anchor="middle" x="640" y="-360.8" font-family="Times,serif" font-size="14.00">u0002</text>
</g>
<!-- 9 -->
<g id="node24" class="node"><title>9</title>
<ellipse fill="none" stroke="black" cx="758" cy="-468" rx="18" ry="18"/>
</g>
<!-- 5&#45;&gt;9 -->
<g id="edge8" class="edge"><title>5&#45;&gt;9</title>
<path fill="none" stroke="black" d="M596.619,-366.273C626.911,-385.487 696.761,-429.791 733.475,-453.079"/>
<polygon fill="black" stroke="black" points="731.732,-456.118 742.051,-458.518 735.481,-450.206 731.732,-456.118"/>
<text text-anchor="middle" x="640" y="-410.8" font-family="Times,serif" font-size="14.00">u0000</text>
</g>
<!-- 13 -->
<g id="node7" class="node"><title>13</title>
<ellipse fill="none" stroke="black" cx="817" cy="-398" rx="18" ry="18"/>
</g>
<!-- 8&#45;&gt;13 -->
<g id="edge9" class="edge"><title>8&#45;&gt;13</title>
<path fill="none" stroke="black" d="M716.129,-362.701C735.24,-369.456 767.337,-380.8 789.977,-388.802"/>
<polygon fill="black" stroke="black" points="789.039,-392.183 799.634,-392.215 791.372,-385.583 789.039,-392.183"/>
<text text-anchor="middle" x="758" y="-387.8" font-family="Times,serif" font-size="14.00">u0002</text>
</g>
<!-- 14 -->
<g id="node22" class="node"><title>14</title>
<ellipse fill="none" stroke="black" cx="876" cy="-328" rx="18" ry="18"/>
</g>
<!-- 8&#45;&gt;14 -->
<g id="edge10" class="edge"><title>8&#45;&gt;14</title>
<path fill="none" stroke="black" d="M717.086,-354.047C722.782,-353.068 729.163,-351.98 735,-351 774.418,-344.384 820.114,-336.914 848.292,-332.331"/>
<polygon fill="black" stroke="black" points="848.875,-335.782 858.185,-330.724 847.753,-328.873 848.875,-335.782"/>
<text text-anchor="middle" x="758" y="-354.8" font-family="Times,serif" font-size="14.00">u0000</text>
</g>
<!-- 18 -->
<g id="node8" class="node"><title>18</title>
<ellipse fill="none" stroke="black" cx="1314" cy="-475" rx="18" ry="18"/>
</g>
<!-- 13&#45;&gt;18 -->
<g id="edge11" class="edge"><title>13&#45;&gt;18</title>
<path fill="none" stroke="black" d="M830.032,-411.022C850.35,-431.52 893.697,-469 939,-469 939,-469 939,-469 1192,-469 1224.25,-469 1261.27,-471.152 1285.78,-472.878"/>
<polygon fill="black" stroke="black" points="1285.55,-476.371 1295.78,-473.608 1286.06,-469.39 1285.55,-476.371"/>
<text text-anchor="middle" x="1068" y="-472.8" font-family="Times,serif" font-size="14.00">u0002</text>
</g>
<!-- 19 -->
<g id="node16" class="node"><title>19</title>
<ellipse fill="none" stroke="black" cx="940" cy="-398" rx="18" ry="18"/>
</g>
<!-- 13&#45;&gt;19 -->
<g id="edge12" class="edge"><title>13&#45;&gt;19</title>
<path fill="none" stroke="black" d="M835.08,-398C854.965,-398 888.077,-398 911.577,-398"/>
<polygon fill="black" stroke="black" points="911.615,-401.5 921.615,-398 911.615,-394.5 911.615,-401.5"/>
<text text-anchor="middle" x="876" y="-401.8" font-family="Times,serif" font-size="14.00">u0000</text>
</g>
<!-- 24 -->
<g id="node9" class="node"><title>24</title>
<ellipse fill="none" stroke="black" cx="1437" cy="-475" rx="18" ry="18"/>
</g>
<!-- 18&#45;&gt;24 -->
<g id="edge13" class="edge"><title>18&#45;&gt;24</title>
<path fill="none" stroke="black" d="M1332.08,-475C1351.96,-475 1385.08,-475 1408.58,-475"/>
<polygon fill="black" stroke="black" points="1408.62,-478.5 1418.62,-475 1408.62,-471.5 1408.62,-478.5"/>
<text text-anchor="middle" x="1378" y="-478.8" font-family="Times,serif" font-size="14.00">u0002</text>
</g>
<!-- 25 -->
<g id="node15" class="node"><title>25</title>
<ellipse fill="none" stroke="black" cx="1496" cy="-521" rx="18" ry="18"/>
</g>
<!-- 18&#45;&gt;25 -->
<g id="edge14" class="edge"><title>18&#45;&gt;25</title>
<path fill="none" stroke="black" d="M1330.2,-483.338C1337.52,-487.058 1346.53,-491.22 1355,-494 1393.17,-506.52 1439.2,-514.016 1467.79,-517.827"/>
<polygon fill="black" stroke="black" points="1467.48,-521.316 1477.84,-519.11 1468.36,-514.372 1467.48,-521.316"/>
<text text-anchor="middle" x="1378" y="-509.8" font-family="Times,serif" font-size="14.00">u0000</text>
</g>
<!-- 30 -->
<g id="node10" class="node"><title>30</title>
<ellipse fill="none" stroke="black" cx="1560" cy="-475" rx="18" ry="18"/>
</g>
<!-- 24&#45;&gt;30 -->
<g id="edge15" class="edge"><title>24&#45;&gt;30</title>
<path fill="none" stroke="black" d="M1455.08,-475C1474.96,-475 1508.08,-475 1531.58,-475"/>
<polygon fill="black" stroke="black" points="1531.62,-478.5 1541.62,-475 1531.62,-471.5 1531.62,-478.5"/>
<text text-anchor="middle" x="1496" y="-478.8" font-family="Times,serif" font-size="14.00">u0000</text>
</g>
<!-- 33 -->
<g id="node11" class="node"><title>33</title>
<ellipse fill="none" stroke="black" cx="1688" cy="-443" rx="18" ry="18"/>
</g>
<!-- 30&#45;&gt;33 -->
<g id="edge16" class="edge"><title>30&#45;&gt;33</title>
<path fill="none" stroke="black" d="M1577.73,-470.751C1598.82,-465.395 1635.32,-456.126 1660.28,-449.785"/>
<polygon fill="black" stroke="black" points="1661.37,-453.121 1670.2,-447.267 1659.65,-446.336 1661.37,-453.121"/>
<text text-anchor="middle" x="1624" y="-467.8" font-family="Times,serif" font-size="14.00">u0004</text>
</g>
<!-- 36 -->
<g id="node12" class="node"><title>36</title>
<ellipse fill="none" stroke="black" cx="1816" cy="-443" rx="18" ry="18"/>
</g>
<!-- 33&#45;&gt;36 -->
<g id="edge17" class="edge"><title>33&#45;&gt;36</title>
<path fill="none" stroke="black" d="M1706.26,-443C1727.27,-443 1763.03,-443 1787.77,-443"/>
<polygon fill="black" stroke="black" points="1787.95,-446.5 1797.95,-443 1787.95,-439.5 1787.95,-446.5"/>
<text text-anchor="middle" x="1752" y="-446.8" font-family="Times,serif" font-size="14.00">u0001</text>
</g>
<!-- 27 -->
<g id="node13" class="node"><title>27</title>
<ellipse fill="none" stroke="black" cx="1944" cy="-429" rx="18" ry="18"/>
</g>
<!-- 36&#45;&gt;27 -->
<g id="edge18" class="edge"><title>36&#45;&gt;27</title>
<path fill="none" stroke="black" d="M1833.99,-441.112C1854.94,-438.784 1890.81,-434.799 1915.65,-432.038"/>
<polygon fill="black" stroke="black" points="1916.32,-435.486 1925.87,-430.903 1915.55,-428.529 1916.32,-435.486"/>
<text text-anchor="middle" x="1880" y="-441.8" font-family="Times,serif" font-size="14.00">u0001</text>
</g>
<!-- 11 -->
<g id="node14" class="node"><title>11</title>
<ellipse fill="none" stroke="black" cx="2071" cy="-301" rx="18" ry="18"/>
<ellipse fill="none" stroke="black" cx="2071" cy="-301" rx="22" ry="22"/>
</g>
<!-- 27&#45;&gt;11 -->
<g id="edge19" class="edge"><title>27&#45;&gt;11</title>
<path fill="none" stroke="black" d="M1961.56,-423.95C1980.5,-417.434 2011.42,-404.442 2031,-384 2045,-369.392 2054.71,-348.838 2060.94,-331.839"/>
<polygon fill="black" stroke="black" points="2064.27,-332.908 2064.21,-322.313 2057.65,-330.633 2064.27,-332.908"/>
<text text-anchor="middle" x="2008" y="-417.8" font-family="Times,serif" font-size="14.00">u0003</text>
</g>
<!-- 25&#45;&gt;27 -->
<g id="edge20" class="edge"><title>25&#45;&gt;27</title>
<path fill="none" stroke="black" d="M1514.14,-521.421C1558.03,-522.156 1677.87,-522.009 1775,-502 1834.06,-489.834 1849.36,-484.546 1903,-457 1909.14,-453.849 1915.41,-449.872 1921.12,-445.913"/>
<polygon fill="black" stroke="black" points="1923.48,-448.528 1929.52,-439.826 1919.37,-442.86 1923.48,-448.528"/>
<text text-anchor="middle" x="1688" y="-519.8" font-family="Times,serif" font-size="14.00">u0004</text>
</g>
<!-- 26 -->
<g id="node17" class="node"><title>26</title>
<ellipse fill="none" stroke="black" cx="1068" cy="-398" rx="18" ry="18"/>
</g>
<!-- 19&#45;&gt;26 -->
<g id="edge21" class="edge"><title>19&#45;&gt;26</title>
<path fill="none" stroke="black" d="M958.256,-398C979.274,-398 1015.03,-398 1039.77,-398"/>
<polygon fill="black" stroke="black" points="1039.95,-401.5 1049.95,-398 1039.95,-394.5 1039.95,-401.5"/>
<text text-anchor="middle" x="1004" y="-401.8" font-family="Times,serif" font-size="14.00">u0004</text>
</g>
<!-- 26&#45;&gt;11 -->
<g id="edge22" class="edge"><title>26&#45;&gt;11</title>
<path fill="none" stroke="black" d="M1085.16,-391.786C1108.11,-383.537 1151.62,-370 1190,-370 1190,-370 1190,-370 1945,-370 1984.47,-370 2023.2,-343.307 2046.84,-323.126"/>
<polygon fill="black" stroke="black" points="2049.37,-325.558 2054.55,-316.313 2044.74,-320.312 2049.37,-325.558"/>
<text text-anchor="middle" x="1560" y="-373.8" font-family="Times,serif" font-size="14.00">u0003</text>
</g>
<!-- 31 -->
<g id="node18" class="node"><title>31</title>
<ellipse fill="none" stroke="black" cx="1191" cy="-417" rx="18" ry="18"/>
</g>
<!-- 26&#45;&gt;31 -->
<g id="edge23" class="edge"><title>26&#45;&gt;31</title>
<path fill="none" stroke="black" d="M1085.82,-400.642C1105.76,-403.772 1139.24,-409.029 1162.86,-412.738"/>
<polygon fill="black" stroke="black" points="1162.51,-416.226 1172.93,-414.319 1163.59,-409.31 1162.51,-416.226"/>
<text text-anchor="middle" x="1132" y="-414.8" font-family="Times,serif" font-size="14.00">u0001</text>
</g>
<!-- 34 -->
<g id="node19" class="node"><title>34</title>
<ellipse fill="none" stroke="black" cx="1314" cy="-417" rx="18" ry="18"/>
</g>
<!-- 31&#45;&gt;34 -->
<g id="edge24" class="edge"><title>31&#45;&gt;34</title>
<path fill="none" stroke="black" d="M1209.08,-417C1228.96,-417 1262.08,-417 1285.58,-417"/>
<polygon fill="black" stroke="black" points="1285.62,-420.5 1295.62,-417 1285.62,-413.5 1285.62,-420.5"/>
<text text-anchor="middle" x="1250" y="-420.8" font-family="Times,serif" font-size="14.00">u0001</text>
</g>
<!-- 37 -->
<g id="node20" class="node"><title>37</title>
<ellipse fill="none" stroke="black" cx="1437" cy="-417" rx="18" ry="18"/>
</g>
<!-- 34&#45;&gt;37 -->
<g id="edge25" class="edge"><title>34&#45;&gt;37</title>
<path fill="none" stroke="black" d="M1332.08,-417C1351.96,-417 1385.08,-417 1408.58,-417"/>
<polygon fill="black" stroke="black" points="1408.62,-420.5 1418.62,-417 1408.62,-413.5 1408.62,-420.5"/>
<text text-anchor="middle" x="1378" y="-420.8" font-family="Times,serif" font-size="14.00">u0001</text>
</g>
<!-- 38 -->
<g id="node21" class="node"><title>38</title>
<ellipse fill="none" stroke="black" cx="1560" cy="-421" rx="18" ry="18"/>
</g>
<!-- 37&#45;&gt;38 -->
<g id="edge26" class="edge"><title>37&#45;&gt;38</title>
<path fill="none" stroke="black" d="M1455.08,-417.565C1475.08,-418.226 1508.45,-419.329 1531.98,-420.107"/>
<polygon fill="black" stroke="black" points="1531.9,-423.606 1542.01,-420.438 1532.13,-416.61 1531.9,-423.606"/>
<text text-anchor="middle" x="1496" y="-422.8" font-family="Times,serif" font-size="14.00">u0001</text>
</g>
<!-- 38&#45;&gt;33 -->
<g id="edge27" class="edge"><title>38&#45;&gt;33</title>
<path fill="none" stroke="black" d="M1577.87,-423.188C1595.25,-425.527 1623.11,-429.512 1647,-434 1651.33,-434.813 1655.9,-435.759 1660.35,-436.726"/>
<polygon fill="black" stroke="black" points="1659.79,-440.188 1670.32,-438.967 1661.33,-433.359 1659.79,-440.188"/>
<text text-anchor="middle" x="1624" y="-437.8" font-family="Times,serif" font-size="14.00">u0001</text>
</g>
<!-- 20 -->
<g id="node23" class="node"><title>20</title>
<ellipse fill="none" stroke="black" cx="1816" cy="-301" rx="18" ry="18"/>
</g>
<!-- 14&#45;&gt;20 -->
<g id="edge28" class="edge"><title>14&#45;&gt;20</title>
<path fill="none" stroke="black" d="M894.114,-327.112C918.345,-325.934 964.043,-324 1003,-324 1003,-324 1003,-324 1689,-324 1723.83,-324 1763.2,-315.391 1788.53,-308.707"/>
<polygon fill="black" stroke="black" points="1789.74,-312.003 1798.46,-305.991 1787.89,-305.251 1789.74,-312.003"/>
<text text-anchor="middle" x="1314" y="-327.8" font-family="Times,serif" font-size="14.00">u0004</text>
</g>
<!-- 20&#45;&gt;27 -->
<g id="edge30" class="edge"><title>20&#45;&gt;27</title>
<path fill="none" stroke="black" d="M1829.54,-313.741C1851.52,-336.072 1897.16,-382.43 1923.36,-409.047"/>
<polygon fill="black" stroke="black" points="1921,-411.639 1930.51,-416.31 1925.99,-406.729 1921,-411.639"/>
<text text-anchor="middle" x="1880" y="-390.8" font-family="Times,serif" font-size="14.00">u0001</text>
</g>
<!-- 20&#45;&gt;11 -->
<g id="edge29" class="edge"><title>20&#45;&gt;11</title>
<path fill="none" stroke="black" d="M1834.39,-301C1876.59,-301 1984.88,-301 2038.69,-301"/>
<polygon fill="black" stroke="black" points="2038.99,-304.5 2048.99,-301 2038.99,-297.5 2038.99,-304.5"/>
<text text-anchor="middle" x="1944" y="-304.8" font-family="Times,serif" font-size="14.00">u0003</text>
</g>
<!-- 15 -->
<g id="node25" class="node"><title>15</title>
<ellipse fill="none" stroke="black" cx="1191" cy="-634" rx="18" ry="18"/>
</g>
<!-- 9&#45;&gt;15 -->
<g id="edge31" class="edge"><title>9&#45;&gt;15</title>
<path fill="none" stroke="black" d="M766.763,-483.788C782.638,-513.552 821.848,-575 875,-575 875,-575 875,-575 1069,-575 1107.13,-575 1145.81,-598.965 1168.84,-616.348"/>
<polygon fill="black" stroke="black" points="1166.84,-619.224 1176.87,-622.624 1171.15,-613.708 1166.84,-619.224"/>
<text text-anchor="middle" x="940" y="-578.8" font-family="Times,serif" font-size="14.00">u0004</text>
</g>
<!-- 15&#45;&gt;11 -->
<g id="edge32" class="edge"><title>15&#45;&gt;11</title>
<path fill="none" stroke="black" d="M1204.14,-646.472C1224.61,-666.103 1268.18,-702 1313,-702 1313,-702 1313,-702 1945,-702 2000.33,-702 2007.25,-661.968 2031,-612 2054.23,-563.133 2064.9,-402.522 2068.51,-333.26"/>
<polygon fill="black" stroke="black" points="2072.02,-333.123 2069.03,-322.96 2065.03,-332.771 2072.02,-333.123"/>
<text text-anchor="middle" x="1624" y="-705.8" font-family="Times,serif" font-size="14.00">u0003</text>
</g>
<!-- 21 -->
<g id="node26" class="node"><title>21</title>
<ellipse fill="none" stroke="black" cx="1314" cy="-634" rx="18" ry="18"/>
</g>
<!-- 15&#45;&gt;21 -->
<g id="edge33" class="edge"><title>15&#45;&gt;21</title>
<path fill="none" stroke="black" d="M1209.08,-634C1228.96,-634 1262.08,-634 1285.58,-634"/>
<polygon fill="black" stroke="black" points="1285.62,-637.5 1295.62,-634 1285.62,-630.5 1285.62,-637.5"/>
<text text-anchor="middle" x="1250" y="-637.8" font-family="Times,serif" font-size="14.00">u0001</text>
</g>
<!-- 21&#45;&gt;11 -->
<g id="edge34" class="edge"><title>21&#45;&gt;11</title>
<path fill="none" stroke="black" d="M1331.22,-639.548C1354.23,-646.914 1397.82,-659 1436,-659 1436,-659 1436,-659 1945,-659 2006.71,-659 2006.31,-606.552 2031,-550 2062.82,-477.116 2069.12,-382.211 2070.09,-333.293"/>
<polygon fill="black" stroke="black" points="2073.6,-333.058 2070.23,-323.012 2066.6,-332.964 2073.6,-333.058"/>
<text text-anchor="middle" x="1688" y="-662.8" font-family="Times,serif" font-size="14.00">u0003</text>
</g>
<!-- 28 -->
<g id="node27" class="node"><title>28</title>
<ellipse fill="none" stroke="black" cx="1437" cy="-613" rx="18" ry="18"/>
</g>
<!-- 21&#45;&gt;28 -->
<g id="edge35" class="edge"><title>21&#45;&gt;28</title>
<path fill="none" stroke="black" d="M1331.82,-631.08C1351.76,-627.62 1385.24,-621.81 1408.86,-617.711"/>
<polygon fill="black" stroke="black" points="1409.67,-621.121 1418.93,-615.963 1408.48,-614.224 1409.67,-621.121"/>
<text text-anchor="middle" x="1378" y="-629.8" font-family="Times,serif" font-size="14.00">u0001</text>
</g>
<!-- 28&#45;&gt;11 -->
<g id="edge36" class="edge"><title>28&#45;&gt;11</title>
<path fill="none" stroke="black" d="M1455.23,-613C1478.7,-613 1522.03,-613 1559,-613 1559,-613 1559,-613 1945,-613 2018.02,-613 2003.45,-540.626 2031,-473 2050.06,-426.231 2060.75,-368.329 2065.94,-333.054"/>
<polygon fill="black" stroke="black" points="2069.45,-333.262 2067.38,-322.87 2062.51,-332.282 2069.45,-333.262"/>
<text text-anchor="middle" x="1752" y="-616.8" font-family="Times,serif" font-size="14.00">u0003</text>
</g>
<!-- 32 -->
<g id="node28" class="node"><title>32</title>
<ellipse fill="none" stroke="black" cx="1560" cy="-567" rx="18" ry="18"/>
</g>
<!-- 28&#45;&gt;32 -->
<g id="edge37" class="edge"><title>28&#45;&gt;32</title>
<path fill="none" stroke="black" d="M1450.21,-600.288C1456.5,-594.47 1464.59,-587.996 1473,-584 1491.44,-575.238 1514.17,-570.991 1531.63,-568.933"/>
<polygon fill="black" stroke="black" points="1532.14,-572.399 1541.74,-567.913 1531.44,-565.435 1532.14,-572.399"/>
<text text-anchor="middle" x="1496" y="-587.8" font-family="Times,serif" font-size="14.00">u0001</text>
</g>
<!-- 35 -->
<g id="node29" class="node"><title>35</title>
<ellipse fill="none" stroke="black" cx="1688" cy="-567" rx="18" ry="18"/>
</g>
<!-- 32&#45;&gt;35 -->
<g id="edge38" class="edge"><title>32&#45;&gt;35</title>
<path fill="none" stroke="black" d="M1578.26,-567C1599.27,-567 1635.03,-567 1659.77,-567"/>
<polygon fill="black" stroke="black" points="1659.95,-570.5 1669.95,-567 1659.95,-563.5 1659.95,-570.5"/>
<text text-anchor="middle" x="1624" y="-570.8" font-family="Times,serif" font-size="14.00">u0001</text>
</g>
<!-- 35&#45;&gt;36 -->
<g id="edge40" class="edge"><title>35&#45;&gt;36</title>
<path fill="none" stroke="black" d="M1701.54,-554.657C1723.52,-533.024 1769.16,-488.115 1795.36,-462.329"/>
<polygon fill="black" stroke="black" points="1797.84,-464.802 1802.51,-455.293 1792.93,-459.813 1797.84,-464.802"/>
<text text-anchor="middle" x="1752" y="-529.8" font-family="Times,serif" font-size="14.00">u0001</text>
</g>
<!-- 35&#45;&gt;11 -->
<g id="edge39" class="edge"><title>35&#45;&gt;11</title>
<path fill="none" stroke="black" d="M1706.15,-566.752C1743.5,-565.642 1834.36,-559.822 1903,-530 1968.47,-501.558 1990.41,-491.717 2031,-433 2051.84,-402.845 2061.71,-361.432 2066.27,-333.081"/>
<polygon fill="black" stroke="black" points="2069.78,-333.309 2067.77,-322.905 2062.85,-332.288 2069.78,-333.309"/>
<text text-anchor="middle" x="1880" y="-548.8" font-family="Times,serif" font-size="14.00">u0003</text>
</g>
<!-- 10 -->
<g id="node31" class="node"><title>10</title>
<ellipse fill="none" stroke="black" cx="1314" cy="-212" rx="18" ry="18"/>
</g>
<!-- 6&#45;&gt;10 -->
<g id="edge41" class="edge"><title>6&#45;&gt;10</title>
<path fill="none" stroke="black" d="M658.295,-212C680.962,-212 721.958,-212 757,-212 757,-212 757,-212 1192,-212 1224.21,-212 1261.23,-212 1285.76,-212"/>
<polygon fill="black" stroke="black" points="1285.77,-215.5 1295.77,-212 1285.77,-208.5 1285.77,-215.5"/>
<text text-anchor="middle" x="940" y="-215.8" font-family="Times,serif" font-size="14.00">u0004</text>
</g>
<!-- 10&#45;&gt;11 -->
<g id="edge42" class="edge"><title>10&#45;&gt;11</title>
<path fill="none" stroke="black" d="M1331.64,-206.781C1354.8,-199.995 1398.15,-189 1436,-189 1436,-189 1436,-189 1625,-189 1777.55,-189 1816.9,-190.783 1967,-218 1996.07,-223.272 2007.52,-218.065 2031,-236 2042.83,-245.039 2051.83,-258.787 2058.18,-271.315"/>
<polygon fill="black" stroke="black" points="2055.1,-272.997 2062.52,-280.559 2061.44,-270.02 2055.1,-272.997"/>
<text text-anchor="middle" x="1688" y="-192.8" font-family="Times,serif" font-size="14.00">u0003</text>
</g>
<!-- 16 -->
<g id="node32" class="node"><title>16</title>
<ellipse fill="none" stroke="black" cx="1437" cy="-235" rx="18" ry="18"/>
</g>
<!-- 10&#45;&gt;16 -->
<g id="edge43" class="edge"><title>10&#45;&gt;16</title>
<path fill="none" stroke="black" d="M1331.82,-215.198C1351.76,-218.987 1385.24,-225.351 1408.86,-229.84"/>
<polygon fill="black" stroke="black" points="1408.45,-233.326 1418.93,-231.755 1409.76,-226.449 1408.45,-233.326"/>
<text text-anchor="middle" x="1378" y="-231.8" font-family="Times,serif" font-size="14.00">u0001</text>
</g>
<!-- 16&#45;&gt;11 -->
<g id="edge44" class="edge"><title>16&#45;&gt;11</title>
<path fill="none" stroke="black" d="M1455.23,-234.304C1478.69,-233.418 1522.02,-232 1559,-232 1559,-232 1559,-232 1945,-232 1984.47,-232 2023.2,-258.693 2046.84,-278.874"/>
<polygon fill="black" stroke="black" points="2044.74,-281.688 2054.55,-285.687 2049.37,-276.442 2044.74,-281.688"/>
<text text-anchor="middle" x="1752" y="-235.8" font-family="Times,serif" font-size="14.00">u0003</text>
</g>
<!-- 22 -->
<g id="node33" class="node"><title>22</title>
<ellipse fill="none" stroke="black" cx="1560" cy="-278" rx="18" ry="18"/>
</g>
<!-- 16&#45;&gt;22 -->
<g id="edge45" class="edge"><title>16&#45;&gt;22</title>
<path fill="none" stroke="black" d="M1454.32,-240.799C1474.53,-247.98 1509.19,-260.299 1533.06,-268.781"/>
<polygon fill="black" stroke="black" points="1531.96,-272.105 1542.55,-272.155 1534.3,-265.509 1531.96,-272.105"/>
<text text-anchor="middle" x="1496" y="-265.8" font-family="Times,serif" font-size="14.00">u0001</text>
</g>
<!-- 29 -->
<g id="node34" class="node"><title>29</title>
<ellipse fill="none" stroke="black" cx="1688" cy="-278" rx="18" ry="18"/>
</g>
<!-- 22&#45;&gt;29 -->
<g id="edge46" class="edge"><title>22&#45;&gt;29</title>
<path fill="none" stroke="black" d="M1578.26,-278C1599.27,-278 1635.03,-278 1659.77,-278"/>
<polygon fill="black" stroke="black" points="1659.95,-281.5 1669.95,-278 1659.95,-274.5 1659.95,-281.5"/>
<text text-anchor="middle" x="1624" y="-281.8" font-family="Times,serif" font-size="14.00">u0001</text>
</g>
<!-- 29&#45;&gt;20 -->
<g id="edge47" class="edge"><title>29&#45;&gt;20</title>
<path fill="none" stroke="black" d="M1705.99,-281.102C1727.03,-284.943 1763.13,-291.532 1787.99,-296.069"/>
<polygon fill="black" stroke="black" points="1787.41,-299.521 1797.87,-297.874 1788.66,-292.635 1787.41,-299.521"/>
<text text-anchor="middle" x="1752" y="-296.8" font-family="Times,serif" font-size="14.00">u0001</text>
</g>
<!-- 7 -->
<g id="node36" class="node"><title>7</title>
<ellipse fill="none" stroke="black" cx="1314" cy="-65" rx="18" ry="18"/>
</g>
<!-- 4&#45;&gt;7 -->
<g id="edge48" class="edge"><title>4&#45;&gt;7</title>
<path fill="none" stroke="black" d="M540.295,-123C562.962,-123 603.958,-123 639,-123 639,-123 639,-123 1192,-123 1230.01,-123 1268.72,-99.4411 1291.8,-82.3528"/>
<polygon fill="black" stroke="black" points="1294.04,-85.0456 1299.84,-76.183 1289.78,-79.4909 1294.04,-85.0456"/>
<text text-anchor="middle" x="876" y="-126.8" font-family="Times,serif" font-size="14.00">u0004</text>
</g>
<!-- 7&#45;&gt;11 -->
<g id="edge49" class="edge"><title>7&#45;&gt;11</title>
<path fill="none" stroke="black" d="M1327.58,-52.774C1348.34,-33.9451 1391.88,-0 1436,-0 1436,-0 1436,-0 1945,-0 1988.35,-0 2005.97,-10.6133 2031,-46 2055.95,-81.2668 2065.44,-208.192 2068.61,-268.603"/>
<polygon fill="black" stroke="black" points="2065.12,-268.917 2069.11,-278.731 2072.11,-268.57 2065.12,-268.917"/>
<text text-anchor="middle" x="1688" y="-3.8" font-family="Times,serif" font-size="14.00">u0003</text>
</g>
<!-- 12 -->
<g id="node37" class="node"><title>12</title>
<ellipse fill="none" stroke="black" cx="1437" cy="-65" rx="18" ry="18"/>
</g>
<!-- 7&#45;&gt;12 -->
<g id="edge50" class="edge"><title>7&#45;&gt;12</title>
<path fill="none" stroke="black" d="M1332.08,-65C1351.96,-65 1385.08,-65 1408.58,-65"/>
<polygon fill="black" stroke="black" points="1408.62,-68.5001 1418.62,-65 1408.62,-61.5001 1408.62,-68.5001"/>
<text text-anchor="middle" x="1378" y="-68.8" font-family="Times,serif" font-size="14.00">u0001</text>
</g>
<!-- 12&#45;&gt;11 -->
<g id="edge51" class="edge"><title>12&#45;&gt;11</title>
<path fill="none" stroke="black" d="M1454.66,-60.0079C1477.83,-53.5169 1521.21,-43 1559,-43 1559,-43 1559,-43 1945,-43 1989.44,-43 2005.51,-57.5989 2031,-94 2050.44,-121.757 2062.17,-217.802 2067.17,-268.722"/>
<polygon fill="black" stroke="black" points="2063.7,-269.238 2068.13,-278.862 2070.67,-268.575 2063.7,-269.238"/>
<text text-anchor="middle" x="1752" y="-46.8" font-family="Times,serif" font-size="14.00">u0003</text>
</g>
<!-- 17 -->
<g id="node38" class="node"><title>17</title>
<ellipse fill="none" stroke="black" cx="1560" cy="-89" rx="18" ry="18"/>
</g>
<!-- 12&#45;&gt;17 -->
<g id="edge52" class="edge"><title>12&#45;&gt;17</title>
<path fill="none" stroke="black" d="M1454.82,-68.3371C1474.76,-72.291 1508.24,-78.9318 1531.86,-83.616"/>
<polygon fill="black" stroke="black" points="1531.44,-87.1013 1541.93,-85.6139 1532.8,-80.2351 1531.44,-87.1013"/>
<text text-anchor="middle" x="1496" y="-84.8" font-family="Times,serif" font-size="14.00">u0001</text>
</g>
<!-- 17&#45;&gt;11 -->
<g id="edge53" class="edge"><title>17&#45;&gt;11</title>
<path fill="none" stroke="black" d="M1578.12,-89C1602.36,-89 1648.06,-89 1687,-89 1687,-89 1687,-89 1945,-89 1991.1,-89 2004.49,-109.285 2031,-147 2056.69,-183.545 2065.48,-235.493 2068.48,-268.724"/>
<polygon fill="black" stroke="black" points="2065,-269.113 2069.26,-278.813 2071.98,-268.572 2065,-269.113"/>
<text text-anchor="middle" x="1816" y="-92.8" font-family="Times,serif" font-size="14.00">u0003</text>
</g>
<!-- 23 -->
<g id="node39" class="node"><title>23</title>
<ellipse fill="none" stroke="black" cx="1688" cy="-135" rx="18" ry="18"/>
</g>
<!-- 17&#45;&gt;23 -->
<g id="edge54" class="edge"><title>17&#45;&gt;23</title>
<path fill="none" stroke="black" d="M1577.21,-94.9195C1598.48,-102.683 1636.03,-116.393 1661.22,-125.587"/>
<polygon fill="black" stroke="black" points="1660.25,-128.961 1670.85,-129.103 1662.65,-122.386 1660.25,-128.961"/>
<text text-anchor="middle" x="1624" y="-124.8" font-family="Times,serif" font-size="14.00">u0001</text>
</g>
<!-- 23&#45;&gt;11 -->
<g id="edge55" class="edge"><title>23&#45;&gt;11</title>
<path fill="none" stroke="black" d="M1706.03,-131.54C1760.52,-121.518 1932.79,-98.1301 2031,-180 2057.01,-201.68 2065.85,-240.825 2068.76,-268.72"/>
<polygon fill="black" stroke="black" points="2065.28,-269.129 2069.61,-278.8 2072.26,-268.542 2065.28,-269.129"/>
<text text-anchor="middle" x="1880" y="-130.8" font-family="Times,serif" font-size="14.00">u0003</text>
</g>
<!-- 23&#45;&gt;20 -->
<g id="edge56" class="edge"><title>23&#45;&gt;20</title>
<path fill="none" stroke="black" d="M1704.82,-142.326C1723.93,-151.913 1755.88,-170.43 1775,-195 1793.12,-218.289 1803.74,-250.686 1809.43,-273.517"/>
<polygon fill="black" stroke="black" points="1806.02,-274.324 1811.7,-283.267 1812.84,-272.733 1806.02,-274.324"/>
<text text-anchor="middle" x="1752" y="-198.8" font-family="Times,serif" font-size="14.00">u0001</text>
</g>
<!-- initial -->
<g id="node40" class="node"><title>initial</title>
</g>
<!-- initial&#45;&gt;0 -->
<g id="edge57" class="edge"><title>initial&#45;&gt;0</title>
<path fill="none" stroke="black" d="M54.195,-142C62.6538,-142 72.0513,-142 80.5951,-142"/>
<polygon fill="black" stroke="black" points="80.8257,-145.5 90.8257,-142 80.8257,-138.5 80.8257,-145.5"/>
</g>
</g>
</svg>
