<svg width="1804px" height="467px"
 viewBox="0.00 0.00 1353.00 350.00" xmlns="http://www.w3.org/2000/svg" xmlns:xlink="http://www.w3.org/1999/xlink">
<g id="graph0" class="graph" transform="scale(1.000022500562514 1.000022500562514) rotate(0) translate(4 346)">
<title>Automaton</title>
<polygon fill="white" stroke="none" points="-4,4 -4,-346 1349,-346 1349,4 -4,4"/>
<!-- 0 -->
<g id="node1" class="node"><title>0</title>
<ellipse fill="none" stroke="black" cx="109" cy="-223" rx="18" ry="18"/>
</g>
<!-- 1 -->
<g id="node2" class="node"><title>1</title>
<ellipse fill="none" stroke="black" cx="227" cy="-223" rx="18" ry="18"/>
</g>
<!-- 0&#45;&gt;1 -->
<g id="edge1" class="edge"><title>0&#45;&gt;1</title>
<path fill="none" stroke="black" d="M127.116,-223C145.964,-223 176.531,-223 198.696,-223"/>
<polygon fill="black" stroke="black" points="198.814,-226.5 208.814,-223 198.814,-219.5 198.814,-226.5"/>
<text text-anchor="middle" x="168" y="-226.8" font-family="Times,serif" font-size="14.00">u0000</text>
</g>
<!-- 2 -->
<g id="node3" class="node"><title>2</title>
<ellipse fill="none" stroke="black" cx="345" cy="-223" rx="18" ry="18"/>
</g>
<!-- 1&#45;&gt;2 -->
<g id="edge2" class="edge"><title>1&#45;&gt;2</title>
<path fill="none" stroke="black" d="M245.116,-223C263.964,-223 294.531,-223 316.696,-223"/>
<polygon fill="black" stroke="black" points="316.814,-226.5 326.814,-223 316.814,-219.5 316.814,-226.5"/>
<text text-anchor="middle" x="286" y="-226.8" font-family="Times,serif" font-size="14.00">u0001</text>
</g>
<!-- 3 -->
<g id="node4" class="node"><title>3</title>
<ellipse fill="none" stroke="black" cx="468" cy="-223" rx="18" ry="18"/>
</g>
<!-- 2&#45;&gt;3 -->
<g id="edge3" class="edge"><title>2&#45;&gt;3</title>
<path fill="none" stroke="black" d="M363.08,-223C382.965,-223 416.077,-223 439.577,-223"/>
<polygon fill="black" stroke="black" points="439.615,-226.5 449.615,-223 439.615,-219.5 439.615,-226.5"/>
<text text-anchor="middle" x="404" y="-226.8" font-family="Times,serif" font-size="14.00">u0004</text>
</g>
<!-- 4 -->
<g id="node10" class="node"><title>4</title>
<ellipse fill="none" stroke="black" cx="1201" cy="-238" rx="18" ry="18"/>
</g>
<!-- 2&#45;&gt;4 -->
<g id="edge4" class="edge"><title>2&#45;&gt;4</title>
<path fill="none" stroke="black" d="M354.664,-238.795C371.914,-267.889 413.539,-327 467,-327 467,-327 467,-327 1084,-327 1127.33,-327 1164.45,-287.428 1184.38,-261.057"/>
<polygon fill="black" stroke="black" points="1187.41,-262.842 1190.46,-252.697 1181.75,-258.724 1187.41,-262.842"/>
<text text-anchor="middle" x="778" y="-330.8" font-family="Times,serif" font-size="14.00">u0003</text>
</g>
<!-- 5 -->
<g id="node12" class="node"><title>5</title>
<ellipse fill="none" stroke="black" cx="591" cy="-83" rx="18" ry="18"/>
</g>
<!-- 2&#45;&gt;5 -->
<g id="edge5" class="edge"><title>2&#45;&gt;5</title>
<path fill="none" stroke="black" d="M360.896,-214.453C401.819,-190.973 516.23,-125.327 566.173,-96.6713"/>
<polygon fill="black" stroke="black" points="568.057,-99.6254 574.989,-91.6129 564.573,-93.5539 568.057,-99.6254"/>
<text text-anchor="middle" x="468" y="-168.8" font-family="Times,serif" font-size="14.00">u0005</text>
</g>
<!-- 6 -->
<g id="node5" class="node"><title>6</title>
<ellipse fill="none" stroke="black" cx="591" cy="-223" rx="18" ry="18"/>
</g>
<!-- 3&#45;&gt;6 -->
<g id="edge6" class="edge"><title>3&#45;&gt;6</title>
<path fill="none" stroke="black" d="M486.08,-223C505.965,-223 539.077,-223 562.577,-223"/>
<polygon fill="black" stroke="black" points="562.615,-226.5 572.615,-223 562.615,-219.5 562.615,-226.5"/>
<text text-anchor="middle" x="532" y="-226.8" font-family="Times,serif" font-size="14.00">u0004</text>
</g>
<!-- 7 -->
<g id="node8" class="node"><title>7</title>
<ellipse fill="none" stroke="black" cx="965" cy="-146" rx="18" ry="18"/>
</g>
<!-- 3&#45;&gt;7 -->
<g id="edge8" class="edge"><title>3&#45;&gt;7</title>
<path fill="none" stroke="black" d="M480.093,-209.239C499.687,-186.605 542.835,-144 590,-144 590,-144 590,-144 843,-144 875.211,-144 912.238,-144.717 936.76,-145.293"/>
<polygon fill="black" stroke="black" points="936.687,-148.792 946.769,-145.536 936.857,-141.794 936.687,-148.792"/>
<text text-anchor="middle" x="714" y="-147.8" font-family="Times,serif" font-size="14.00">u0005</text>
</g>
<!-- 3&#45;&gt;4 -->
<g id="edge7" class="edge"><title>3&#45;&gt;4</title>
<path fill="none" stroke="black" d="M482.058,-234.761C503.142,-252.487 546.713,-284 590,-284 590,-284 590,-284 1084,-284 1118.27,-284 1154.49,-266.433 1177.15,-253.01"/>
<polygon fill="black" stroke="black" points="1179.02,-255.971 1185.71,-247.755 1175.36,-250.006 1179.02,-255.971"/>
<text text-anchor="middle" x="842" y="-287.8" font-family="Times,serif" font-size="14.00">u0003</text>
</g>
<!-- 11 -->
<g id="node6" class="node"><title>11</title>
<ellipse fill="none" stroke="black" cx="714" cy="-195" rx="18" ry="18"/>
</g>
<!-- 6&#45;&gt;11 -->
<g id="edge9" class="edge"><title>6&#45;&gt;11</title>
<path fill="none" stroke="black" d="M608.275,-217.478C614.138,-215.598 620.828,-213.575 627,-212 646.476,-207.03 668.746,-202.664 685.743,-199.601"/>
<polygon fill="black" stroke="black" points="686.828,-202.964 696.069,-197.783 685.614,-196.07 686.828,-202.964"/>
<text text-anchor="middle" x="650" y="-215.8" font-family="Times,serif" font-size="14.00">u0004</text>
</g>
<!-- 6&#45;&gt;4 -->
<g id="edge10" class="edge"><title>6&#45;&gt;4</title>
<path fill="none" stroke="black" d="M609.066,-225.207C614.761,-225.875 621.146,-226.55 627,-227 750.289,-236.471 781.348,-238 905,-238 905,-238 905,-238 1084,-238 1114.25,-238 1148.94,-238 1172.44,-238"/>
<polygon fill="black" stroke="black" points="1172.71,-241.5 1182.71,-238 1172.71,-234.5 1172.71,-241.5"/>
<text text-anchor="middle" x="906" y="-241.8" font-family="Times,serif" font-size="14.00">u0003</text>
</g>
<!-- 13 -->
<g id="node7" class="node"><title>13</title>
<ellipse fill="none" stroke="black" cx="842" cy="-191" rx="18" ry="18"/>
</g>
<!-- 11&#45;&gt;13 -->
<g id="edge11" class="edge"><title>11&#45;&gt;13</title>
<path fill="none" stroke="black" d="M731.993,-194.461C752.941,-193.796 788.811,-192.657 813.654,-191.868"/>
<polygon fill="black" stroke="black" points="813.99,-195.359 823.874,-191.544 813.768,-188.363 813.99,-195.359"/>
<text text-anchor="middle" x="778" y="-197.8" font-family="Times,serif" font-size="14.00">u0004</text>
</g>
<!-- 13&#45;&gt;7 -->
<g id="edge12" class="edge"><title>13&#45;&gt;7</title>
<path fill="none" stroke="black" d="M859.319,-184.931C879.638,-177.374 914.579,-164.38 938.458,-155.499"/>
<polygon fill="black" stroke="black" points="939.787,-158.739 947.94,-151.973 937.347,-152.178 939.787,-158.739"/>
<text text-anchor="middle" x="906" y="-179.8" font-family="Times,serif" font-size="14.00">u0004</text>
</g>
<!-- 9 -->
<g id="node9" class="node"><title>9</title>
<ellipse fill="none" stroke="black" cx="1083" cy="-120" rx="18" ry="18"/>
</g>
<!-- 7&#45;&gt;9 -->
<g id="edge13" class="edge"><title>7&#45;&gt;9</title>
<path fill="none" stroke="black" d="M982.62,-142.275C1001.55,-138.032 1032.75,-131.04 1055.14,-126.02"/>
<polygon fill="black" stroke="black" points="1056.04,-129.405 1065.03,-123.803 1054.51,-122.575 1056.04,-129.405"/>
<text text-anchor="middle" x="1024" y="-141.8" font-family="Times,serif" font-size="14.00">u0004</text>
</g>
<!-- 9&#45;&gt;4 -->
<g id="edge14" class="edge"><title>9&#45;&gt;4</title>
<path fill="none" stroke="black" d="M1096.41,-132.628C1116.56,-153.122 1156.53,-193.78 1180.5,-218.164"/>
<polygon fill="black" stroke="black" points="1178.17,-220.785 1187.68,-225.463 1183.16,-215.878 1178.17,-220.785"/>
<text text-anchor="middle" x="1142" y="-203.8" font-family="Times,serif" font-size="14.00">u0003</text>
</g>
<!-- 8 -->
<g id="node11" class="node"><title>8</title>
<ellipse fill="none" stroke="black" cx="1323" cy="-238" rx="18" ry="18"/>
<ellipse fill="none" stroke="black" cx="1323" cy="-238" rx="22" ry="22"/>
</g>
<!-- 4&#45;&gt;8 -->
<g id="edge15" class="edge"><title>4&#45;&gt;8</title>
<path fill="none" stroke="black" d="M1219.19,-238C1237.77,-238 1267.76,-238 1290.57,-238"/>
<polygon fill="black" stroke="black" points="1290.79,-241.5 1300.79,-238 1290.79,-234.5 1290.79,-241.5"/>
<text text-anchor="middle" x="1260" y="-241.8" font-family="Times,serif" font-size="14.00">u0002</text>
</g>
<!-- 5&#45;&gt;9 -->
<g id="edge16" class="edge"><title>5&#45;&gt;9</title>
<path fill="none" stroke="black" d="M609.152,-84.2952C681.918,-89.7897 965.449,-111.199 1054.84,-117.949"/>
<polygon fill="black" stroke="black" points="1054.75,-121.452 1064.99,-118.715 1055.28,-114.472 1054.75,-121.452"/>
<text text-anchor="middle" x="842" y="-107.8" font-family="Times,serif" font-size="14.00">u0004</text>
</g>
<!-- 5&#45;&gt;4 -->
<g id="edge17" class="edge"><title>5&#45;&gt;4</title>
<path fill="none" stroke="black" d="M602.632,-68.9202C621.846,-45.2399 664.854,-0 713,-0 713,-0 713,-0 1084,-0 1176.34,-0 1195.19,-146.543 1199.02,-209.65"/>
<polygon fill="black" stroke="black" points="1195.53,-209.916 1199.55,-219.72 1202.52,-209.551 1195.53,-209.916"/>
<text text-anchor="middle" x="906" y="-3.8" font-family="Times,serif" font-size="14.00">u0003</text>
</g>
<!-- 10 -->
<g id="node13" class="node"><title>10</title>
<ellipse fill="none" stroke="black" cx="714" cy="-49" rx="18" ry="18"/>
</g>
<!-- 5&#45;&gt;10 -->
<g id="edge18" class="edge"><title>5&#45;&gt;10</title>
<path fill="none" stroke="black" d="M607.845,-76.0693C613.782,-73.6305 620.632,-71.0014 627,-69 646.498,-62.8724 669.013,-57.7025 686.114,-54.1549"/>
<polygon fill="black" stroke="black" points="686.878,-57.5715 695.987,-52.1616 685.492,-50.7099 686.878,-57.5715"/>
<text text-anchor="middle" x="650" y="-72.8" font-family="Times,serif" font-size="14.00">u0005</text>
</g>
<!-- 12 -->
<g id="node14" class="node"><title>12</title>
<ellipse fill="none" stroke="black" cx="842" cy="-46" rx="18" ry="18"/>
</g>
<!-- 10&#45;&gt;12 -->
<g id="edge19" class="edge"><title>10&#45;&gt;12</title>
<path fill="none" stroke="black" d="M732.256,-48.5892C753.274,-48.0887 789.031,-47.2374 813.775,-46.6482"/>
<polygon fill="black" stroke="black" points="814.039,-50.143 823.953,-46.4059 813.872,-43.145 814.039,-50.143"/>
<text text-anchor="middle" x="778" y="-52.8" font-family="Times,serif" font-size="14.00">u0004</text>
</g>
<!-- 14 -->
<g id="node15" class="node"><title>14</title>
<ellipse fill="none" stroke="black" cx="965" cy="-52" rx="18" ry="18"/>
</g>
<!-- 12&#45;&gt;14 -->
<g id="edge20" class="edge"><title>12&#45;&gt;14</title>
<path fill="none" stroke="black" d="M860.08,-46.8469C880.078,-47.8386 913.454,-49.4936 936.976,-50.66"/>
<polygon fill="black" stroke="black" points="936.846,-54.1577 947.007,-51.1574 937.193,-47.1663 936.846,-54.1577"/>
<text text-anchor="middle" x="906" y="-54.8" font-family="Times,serif" font-size="14.00">u0005</text>
</g>
<!-- 14&#45;&gt;9 -->
<g id="edge21" class="edge"><title>14&#45;&gt;9</title>
<path fill="none" stroke="black" d="M983.204,-52.5586C1000.63,-53.8756 1027.68,-58.0526 1047,-71 1056.12,-77.1115 1063.64,-86.4528 1069.35,-95.3464"/>
<polygon fill="black" stroke="black" points="1066.34,-97.1291 1074.44,-103.954 1072.36,-93.5655 1066.34,-97.1291"/>
<text text-anchor="middle" x="1024" y="-74.8" font-family="Times,serif" font-size="14.00">u0005</text>
</g>
<!-- initial -->
<g id="node16" class="node"><title>initial</title>
</g>
<!-- initial&#45;&gt;0 -->
<g id="edge22" class="edge"><title>initial&#45;&gt;0</title>
<path fill="none" stroke="black" d="M54.195,-223C62.6538,-223 72.0513,-223 80.5951,-223"/>
<polygon fill="black" stroke="black" points="80.8257,-226.5 90.8257,-223 80.8257,-219.5 80.8257,-226.5"/>
</g>
</g>
</svg>
