<svg width="2447px" height="640px"
 viewBox="0.00 0.00 1835.00 480.00" xmlns="http://www.w3.org/2000/svg" xmlns:xlink="http://www.w3.org/1999/xlink">
<g id="graph0" class="graph" transform="scale(1.000022500562514 1.000022500562514) rotate(0) translate(4 476)">
<title>Automaton</title>
<polygon fill="white" stroke="none" points="-4,4 -4,-476 1831,-476 1831,4 -4,4"/>
<!-- 0 -->
<g id="node1" class="node"><title>0</title>
<ellipse fill="none" stroke="black" cx="109" cy="-105" rx="18" ry="18"/>
</g>
<!-- 1 -->
<g id="node2" class="node"><title>1</title>
<ellipse fill="none" stroke="black" cx="227" cy="-105" rx="18" ry="18"/>
</g>
<!-- 0&#45;&gt;1 -->
<g id="edge1" class="edge"><title>0&#45;&gt;1</title>
<path fill="none" stroke="black" d="M127.116,-105C145.964,-105 176.531,-105 198.696,-105"/>
<polygon fill="black" stroke="black" points="198.814,-108.5 208.814,-105 198.814,-101.5 198.814,-108.5"/>
<text text-anchor="middle" x="168" y="-108.8" font-family="Times,serif" font-size="14.00">u0000</text>
</g>
<!-- 2 -->
<g id="node3" class="node"><title>2</title>
<ellipse fill="none" stroke="black" cx="345" cy="-105" rx="18" ry="18"/>
</g>
<!-- 1&#45;&gt;2 -->
<g id="edge2" class="edge"><title>1&#45;&gt;2</title>
<path fill="none" stroke="black" d="M245.116,-105C263.964,-105 294.531,-105 316.696,-105"/>
<polygon fill="black" stroke="black" points="316.814,-108.5 326.814,-105 316.814,-101.5 316.814,-108.5"/>
<text text-anchor="middle" x="286" y="-108.8" font-family="Times,serif" font-size="14.00">u0001</text>
</g>
<!-- 3 -->
<g id="node4" class="node"><title>3</title>
<ellipse fill="none" stroke="black" cx="463" cy="-320" rx="18" ry="18"/>
</g>
<!-- 2&#45;&gt;3 -->
<g id="edge3" class="edge"><title>2&#45;&gt;3</title>
<path fill="none" stroke="black" d="M354.342,-120.462C374.234,-157.33 424.586,-250.654 448.712,-295.372"/>
<polygon fill="black" stroke="black" points="445.749,-297.25 453.577,-304.389 451.909,-293.926 445.749,-297.25"/>
<text text-anchor="middle" x="404" y="-253.8" font-family="Times,serif" font-size="14.00">u0004</text>
</g>
<!-- 4 -->
<g id="node10" class="node"><title>4</title>
<ellipse fill="none" stroke="black" cx="1683" cy="-151" rx="18" ry="18"/>
</g>
<!-- 2&#45;&gt;4 -->
<g id="edge4" class="edge"><title>2&#45;&gt;4</title>
<path fill="none" stroke="black" d="M354.093,-89.0528C370.265,-59.6793 409.574,-0 462,-0 462,-0 462,-0 1566,-0 1608.54,-0 1620.49,-17.7285 1647,-51 1663.75,-72.0166 1672.78,-101.613 1677.45,-123.152"/>
<polygon fill="black" stroke="black" points="1674.02,-123.879 1679.4,-133.006 1680.89,-122.516 1674.02,-123.879"/>
<text text-anchor="middle" x="1014" y="-3.8" font-family="Times,serif" font-size="14.00">u0003</text>
</g>
<!-- 5 -->
<g id="node17" class="node"><title>5</title>
<ellipse fill="none" stroke="black" cx="463" cy="-105" rx="18" ry="18"/>
</g>
<!-- 2&#45;&gt;5 -->
<g id="edge5" class="edge"><title>2&#45;&gt;5</title>
<path fill="none" stroke="black" d="M363.116,-105C381.964,-105 412.531,-105 434.696,-105"/>
<polygon fill="black" stroke="black" points="434.814,-108.5 444.814,-105 434.814,-101.5 434.814,-108.5"/>
<text text-anchor="middle" x="404" y="-108.8" font-family="Times,serif" font-size="14.00">u0005</text>
</g>
<!-- 6 -->
<g id="node5" class="node"><title>6</title>
<ellipse fill="none" stroke="black" cx="581" cy="-354" rx="18" ry="18"/>
</g>
<!-- 3&#45;&gt;6 -->
<g id="edge6" class="edge"><title>3&#45;&gt;6</title>
<path fill="none" stroke="black" d="M480.62,-324.871C499.657,-330.451 531.103,-339.668 553.523,-346.24"/>
<polygon fill="black" stroke="black" points="552.83,-349.684 563.411,-349.138 554.799,-342.966 552.83,-349.684"/>
<text text-anchor="middle" x="522" y="-346.8" font-family="Times,serif" font-size="14.00">u0004</text>
</g>
<!-- 7 -->
<g id="node8" class="node"><title>7</title>
<ellipse fill="none" stroke="black" cx="1442" cy="-271" rx="18" ry="18"/>
</g>
<!-- 3&#45;&gt;7 -->
<g id="edge8" class="edge"><title>3&#45;&gt;7</title>
<path fill="none" stroke="black" d="M478.706,-310.453C500.094,-297.512 541.445,-276 580,-276 580,-276 580,-276 887,-276 1115.44,-276 1173,-290.195 1401,-276 1405.13,-275.743 1409.48,-275.339 1413.73,-274.868"/>
<polygon fill="black" stroke="black" points="1414.42,-278.31 1423.91,-273.61 1413.56,-271.363 1414.42,-278.31"/>
<text text-anchor="middle" x="950" y="-279.8" font-family="Times,serif" font-size="14.00">u0005</text>
</g>
<!-- 3&#45;&gt;4 -->
<g id="edge7" class="edge"><title>3&#45;&gt;4</title>
<path fill="none" stroke="black" d="M469.371,-337.074C482.108,-373.799 517.825,-457 580,-457 580,-457 580,-457 1566,-457 1612.44,-457 1624.09,-431.393 1647,-391 1667.25,-355.29 1676.96,-234.73 1680.44,-179.303"/>
<polygon fill="black" stroke="black" points="1683.94,-179.324 1681.05,-169.131 1676.95,-178.902 1683.94,-179.324"/>
<text text-anchor="middle" x="1078" y="-460.8" font-family="Times,serif" font-size="14.00">u0003</text>
</g>
<!-- 11 -->
<g id="node6" class="node"><title>11</title>
<ellipse fill="none" stroke="black" cx="699" cy="-354" rx="18" ry="18"/>
</g>
<!-- 6&#45;&gt;11 -->
<g id="edge9" class="edge"><title>6&#45;&gt;11</title>
<path fill="none" stroke="black" d="M599.116,-354C617.964,-354 648.531,-354 670.696,-354"/>
<polygon fill="black" stroke="black" points="670.814,-357.5 680.814,-354 670.814,-350.5 670.814,-357.5"/>
<text text-anchor="middle" x="640" y="-357.8" font-family="Times,serif" font-size="14.00">u0004</text>
</g>
<!-- 6&#45;&gt;4 -->
<g id="edge10" class="edge"><title>6&#45;&gt;4</title>
<path fill="none" stroke="black" d="M595.237,-365.535C615.76,-382.19 657.161,-411 698,-411 698,-411 698,-411 1566,-411 1666.43,-411 1680.51,-247.208 1682.05,-179.63"/>
<polygon fill="black" stroke="black" points="1685.55,-179.333 1682.2,-169.283 1678.55,-179.23 1685.55,-179.333"/>
<text text-anchor="middle" x="1142" y="-414.8" font-family="Times,serif" font-size="14.00">u0003</text>
</g>
<!-- 15 -->
<g id="node7" class="node"><title>15</title>
<ellipse fill="none" stroke="black" cx="822" cy="-354" rx="18" ry="18"/>
</g>
<!-- 11&#45;&gt;15 -->
<g id="edge11" class="edge"><title>11&#45;&gt;15</title>
<path fill="none" stroke="black" d="M717.08,-354C736.965,-354 770.077,-354 793.577,-354"/>
<polygon fill="black" stroke="black" points="793.615,-357.5 803.615,-354 793.615,-350.5 793.615,-357.5"/>
<text text-anchor="middle" x="758" y="-357.8" font-family="Times,serif" font-size="14.00">u0004</text>
</g>
<!-- 15&#45;&gt;7 -->
<g id="edge12" class="edge"><title>15&#45;&gt;7</title>
<path fill="none" stroke="black" d="M839.593,-358.123C863.577,-363.711 909.401,-373 949,-373 949,-373 949,-373 1320,-373 1368.06,-373 1406.93,-325.386 1426.73,-295.221"/>
<polygon fill="black" stroke="black" points="1429.87,-296.814 1432.26,-286.492 1423.95,-293.071 1429.87,-296.814"/>
<text text-anchor="middle" x="1142" y="-376.8" font-family="Times,serif" font-size="14.00">u0004</text>
</g>
<!-- 18 -->
<g id="node12" class="node"><title>18</title>
<ellipse fill="none" stroke="black" cx="950" cy="-327" rx="18" ry="18"/>
</g>
<!-- 15&#45;&gt;18 -->
<g id="edge13" class="edge"><title>15&#45;&gt;18</title>
<path fill="none" stroke="black" d="M839.693,-349.629C846.85,-347.807 855.316,-345.719 863,-344 882.616,-339.612 904.881,-335.227 921.841,-332.01"/>
<polygon fill="black" stroke="black" points="922.957,-335.361 932.139,-330.076 921.665,-328.482 922.957,-335.361"/>
<text text-anchor="middle" x="886" y="-347.8" font-family="Times,serif" font-size="14.00">u0005</text>
</g>
<!-- 12 -->
<g id="node9" class="node"><title>12</title>
<ellipse fill="none" stroke="black" cx="1565" cy="-207" rx="18" ry="18"/>
</g>
<!-- 7&#45;&gt;12 -->
<g id="edge14" class="edge"><title>7&#45;&gt;12</title>
<path fill="none" stroke="black" d="M1458.26,-263.104C1475.48,-254.173 1504.31,-239.158 1529,-226 1532.44,-224.169 1536.05,-222.224 1539.61,-220.304"/>
<polygon fill="black" stroke="black" points="1541.57,-223.219 1548.69,-215.375 1538.24,-217.066 1541.57,-223.219"/>
<text text-anchor="middle" x="1506" y="-252.8" font-family="Times,serif" font-size="14.00">u0004</text>
</g>
<!-- 12&#45;&gt;4 -->
<g id="edge15" class="edge"><title>12&#45;&gt;4</title>
<path fill="none" stroke="black" d="M1581.64,-199.448C1601.12,-190.043 1634.62,-173.873 1657.51,-162.821"/>
<polygon fill="black" stroke="black" points="1659.12,-165.932 1666.6,-158.433 1656.08,-159.628 1659.12,-165.932"/>
<text text-anchor="middle" x="1624" y="-191.8" font-family="Times,serif" font-size="14.00">u0003</text>
</g>
<!-- 8 -->
<g id="node11" class="node"><title>8</title>
<ellipse fill="none" stroke="black" cx="1805" cy="-151" rx="18" ry="18"/>
<ellipse fill="none" stroke="black" cx="1805" cy="-151" rx="22" ry="22"/>
</g>
<!-- 4&#45;&gt;8 -->
<g id="edge16" class="edge"><title>4&#45;&gt;8</title>
<path fill="none" stroke="black" d="M1701.19,-151C1719.77,-151 1749.76,-151 1772.57,-151"/>
<polygon fill="black" stroke="black" points="1772.79,-154.5 1782.79,-151 1772.79,-147.5 1772.79,-154.5"/>
<text text-anchor="middle" x="1742" y="-154.8" font-family="Times,serif" font-size="14.00">u0002</text>
</g>
<!-- 20 -->
<g id="node13" class="node"><title>20</title>
<ellipse fill="none" stroke="black" cx="1078" cy="-325" rx="18" ry="18"/>
</g>
<!-- 18&#45;&gt;20 -->
<g id="edge17" class="edge"><title>18&#45;&gt;20</title>
<path fill="none" stroke="black" d="M968.256,-326.726C989.274,-326.392 1025.03,-325.825 1049.77,-325.432"/>
<polygon fill="black" stroke="black" points="1050.01,-328.929 1059.95,-325.271 1049.9,-321.93 1050.01,-328.929"/>
<text text-anchor="middle" x="1014" y="-329.8" font-family="Times,serif" font-size="14.00">u0004</text>
</g>
<!-- 22 -->
<g id="node14" class="node"><title>22</title>
<ellipse fill="none" stroke="black" cx="1201" cy="-325" rx="18" ry="18"/>
</g>
<!-- 20&#45;&gt;22 -->
<g id="edge18" class="edge"><title>20&#45;&gt;22</title>
<path fill="none" stroke="black" d="M1096.08,-325C1115.96,-325 1149.08,-325 1172.58,-325"/>
<polygon fill="black" stroke="black" points="1172.62,-328.5 1182.62,-325 1172.62,-321.5 1172.62,-328.5"/>
<text text-anchor="middle" x="1142" y="-328.8" font-family="Times,serif" font-size="14.00">u0004</text>
</g>
<!-- 24 -->
<g id="node15" class="node"><title>24</title>
<ellipse fill="none" stroke="black" cx="1319" cy="-325" rx="18" ry="18"/>
</g>
<!-- 22&#45;&gt;24 -->
<g id="edge19" class="edge"><title>22&#45;&gt;24</title>
<path fill="none" stroke="black" d="M1219.12,-325C1237.96,-325 1268.53,-325 1290.7,-325"/>
<polygon fill="black" stroke="black" points="1290.81,-328.5 1300.81,-325 1290.81,-321.5 1290.81,-328.5"/>
<text text-anchor="middle" x="1260" y="-328.8" font-family="Times,serif" font-size="14.00">u0004</text>
</g>
<!-- 17 -->
<g id="node16" class="node"><title>17</title>
<ellipse fill="none" stroke="black" cx="1442" cy="-207" rx="18" ry="18"/>
</g>
<!-- 24&#45;&gt;17 -->
<g id="edge20" class="edge"><title>24&#45;&gt;17</title>
<path fill="none" stroke="black" d="M1332.49,-312.816C1353.51,-292.325 1396.08,-250.804 1421.2,-226.308"/>
<polygon fill="black" stroke="black" points="1423.68,-228.782 1428.39,-219.294 1418.79,-223.77 1423.68,-228.782"/>
<text text-anchor="middle" x="1378" y="-293.8" font-family="Times,serif" font-size="14.00">u0004</text>
</g>
<!-- 17&#45;&gt;12 -->
<g id="edge21" class="edge"><title>17&#45;&gt;12</title>
<path fill="none" stroke="black" d="M1460.08,-207C1479.96,-207 1513.08,-207 1536.58,-207"/>
<polygon fill="black" stroke="black" points="1536.62,-210.5 1546.62,-207 1536.62,-203.5 1536.62,-210.5"/>
<text text-anchor="middle" x="1506" y="-210.8" font-family="Times,serif" font-size="14.00">u0005</text>
</g>
<!-- 5&#45;&gt;4 -->
<g id="edge23" class="edge"><title>5&#45;&gt;4</title>
<path fill="none" stroke="black" d="M476.832,-93.3435C497.143,-76.1491 538.653,-46 580,-46 580,-46 580,-46 1566,-46 1613.51,-46 1650.25,-95.014 1668.76,-126.067"/>
<polygon fill="black" stroke="black" points="1665.9,-128.117 1673.91,-135.053 1671.97,-124.636 1665.9,-128.117"/>
<text text-anchor="middle" x="1078" y="-49.8" font-family="Times,serif" font-size="14.00">u0003</text>
</g>
<!-- 9 -->
<g id="node18" class="node"><title>9</title>
<ellipse fill="none" stroke="black" cx="581" cy="-176" rx="18" ry="18"/>
</g>
<!-- 5&#45;&gt;9 -->
<g id="edge22" class="edge"><title>5&#45;&gt;9</title>
<path fill="none" stroke="black" d="M478.691,-113.992C498.282,-125.983 533.188,-147.348 556.468,-161.597"/>
<polygon fill="black" stroke="black" points="554.705,-164.621 565.061,-166.857 558.359,-158.651 554.705,-164.621"/>
<text text-anchor="middle" x="522" y="-156.8" font-family="Times,serif" font-size="14.00">u0004</text>
</g>
<!-- 10 -->
<g id="node25" class="node"><title>10</title>
<ellipse fill="none" stroke="black" cx="1201" cy="-105" rx="18" ry="18"/>
</g>
<!-- 5&#45;&gt;10 -->
<g id="edge24" class="edge"><title>5&#45;&gt;10</title>
<path fill="none" stroke="black" d="M481.295,-105C503.962,-105 544.958,-105 580,-105 580,-105 580,-105 1079,-105 1111.21,-105 1148.23,-105 1172.76,-105"/>
<polygon fill="black" stroke="black" points="1172.77,-108.5 1182.77,-105 1172.77,-101.5 1172.77,-108.5"/>
<text text-anchor="middle" x="822" y="-108.8" font-family="Times,serif" font-size="14.00">u0005</text>
</g>
<!-- 9&#45;&gt;4 -->
<g id="edge26" class="edge"><title>9&#45;&gt;4</title>
<path fill="none" stroke="black" d="M599.295,-176C621.962,-176 662.958,-176 698,-176 698,-176 698,-176 1261,-176 1303.06,-176 1313.07,-168.346 1355,-165 1465.98,-156.143 1598.64,-152.642 1654.77,-151.488"/>
<polygon fill="black" stroke="black" points="1655.02,-154.983 1664.95,-151.287 1654.88,-147.985 1655.02,-154.983"/>
<text text-anchor="middle" x="1142" y="-179.8" font-family="Times,serif" font-size="14.00">u0003</text>
</g>
<!-- 13 -->
<g id="node19" class="node"><title>13</title>
<ellipse fill="none" stroke="black" cx="699" cy="-222" rx="18" ry="18"/>
</g>
<!-- 9&#45;&gt;13 -->
<g id="edge25" class="edge"><title>9&#45;&gt;13</title>
<path fill="none" stroke="black" d="M598.024,-182.426C603.98,-184.811 610.797,-187.534 617,-190 635.441,-197.331 656.265,-205.556 672.18,-211.832"/>
<polygon fill="black" stroke="black" points="671.268,-215.235 681.855,-215.645 673.835,-208.722 671.268,-215.235"/>
<text text-anchor="middle" x="640" y="-210.8" font-family="Times,serif" font-size="14.00">u0004</text>
</g>
<!-- 16 -->
<g id="node20" class="node"><title>16</title>
<ellipse fill="none" stroke="black" cx="822" cy="-222" rx="18" ry="18"/>
</g>
<!-- 13&#45;&gt;16 -->
<g id="edge27" class="edge"><title>13&#45;&gt;16</title>
<path fill="none" stroke="black" d="M717.08,-222C736.965,-222 770.077,-222 793.577,-222"/>
<polygon fill="black" stroke="black" points="793.615,-225.5 803.615,-222 793.615,-218.5 793.615,-225.5"/>
<text text-anchor="middle" x="758" y="-225.8" font-family="Times,serif" font-size="14.00">u0005</text>
</g>
<!-- 19 -->
<g id="node21" class="node"><title>19</title>
<ellipse fill="none" stroke="black" cx="950" cy="-222" rx="18" ry="18"/>
</g>
<!-- 16&#45;&gt;19 -->
<g id="edge28" class="edge"><title>16&#45;&gt;19</title>
<path fill="none" stroke="black" d="M840.256,-222C861.274,-222 897.031,-222 921.775,-222"/>
<polygon fill="black" stroke="black" points="921.953,-225.5 931.953,-222 921.953,-218.5 921.953,-225.5"/>
<text text-anchor="middle" x="886" y="-225.8" font-family="Times,serif" font-size="14.00">u0005</text>
</g>
<!-- 21 -->
<g id="node22" class="node"><title>21</title>
<ellipse fill="none" stroke="black" cx="1078" cy="-222" rx="18" ry="18"/>
</g>
<!-- 19&#45;&gt;21 -->
<g id="edge29" class="edge"><title>19&#45;&gt;21</title>
<path fill="none" stroke="black" d="M968.256,-222C989.274,-222 1025.03,-222 1049.77,-222"/>
<polygon fill="black" stroke="black" points="1049.95,-225.5 1059.95,-222 1049.95,-218.5 1049.95,-225.5"/>
<text text-anchor="middle" x="1014" y="-225.8" font-family="Times,serif" font-size="14.00">u0005</text>
</g>
<!-- 23 -->
<g id="node23" class="node"><title>23</title>
<ellipse fill="none" stroke="black" cx="1201" cy="-222" rx="18" ry="18"/>
</g>
<!-- 21&#45;&gt;23 -->
<g id="edge30" class="edge"><title>21&#45;&gt;23</title>
<path fill="none" stroke="black" d="M1096.08,-222C1115.96,-222 1149.08,-222 1172.58,-222"/>
<polygon fill="black" stroke="black" points="1172.62,-225.5 1182.62,-222 1172.62,-218.5 1172.62,-225.5"/>
<text text-anchor="middle" x="1142" y="-225.8" font-family="Times,serif" font-size="14.00">u0005</text>
</g>
<!-- 25 -->
<g id="node24" class="node"><title>25</title>
<ellipse fill="none" stroke="black" cx="1319" cy="-222" rx="18" ry="18"/>
</g>
<!-- 23&#45;&gt;25 -->
<g id="edge31" class="edge"><title>23&#45;&gt;25</title>
<path fill="none" stroke="black" d="M1219.12,-222C1237.96,-222 1268.53,-222 1290.7,-222"/>
<polygon fill="black" stroke="black" points="1290.81,-225.5 1300.81,-222 1290.81,-218.5 1290.81,-225.5"/>
<text text-anchor="middle" x="1260" y="-225.8" font-family="Times,serif" font-size="14.00">u0005</text>
</g>
<!-- 25&#45;&gt;7 -->
<g id="edge32" class="edge"><title>25&#45;&gt;7</title>
<path fill="none" stroke="black" d="M1336.74,-218.291C1353.79,-215.383 1380.55,-213.27 1401,-223 1411.69,-228.087 1420.53,-237.559 1427.16,-246.753"/>
<polygon fill="black" stroke="black" points="1424.4,-248.916 1432.83,-255.331 1430.24,-245.058 1424.4,-248.916"/>
<text text-anchor="middle" x="1378" y="-226.8" font-family="Times,serif" font-size="14.00">u0004</text>
</g>
<!-- 10&#45;&gt;4 -->
<g id="edge34" class="edge"><title>10&#45;&gt;4</title>
<path fill="none" stroke="black" d="M1219.17,-104.548C1238.91,-104.053 1272.29,-103.29 1301,-103 1455.51,-101.439 1497.09,-99.5395 1647,-137 1650.24,-137.809 1653.58,-138.852 1656.84,-140.002"/>
<polygon fill="black" stroke="black" points="1655.68,-143.306 1666.27,-143.653 1658.21,-136.778 1655.68,-143.306"/>
<text text-anchor="middle" x="1442" y="-108.8" font-family="Times,serif" font-size="14.00">u0003</text>
</g>
<!-- 14 -->
<g id="node26" class="node"><title>14</title>
<ellipse fill="none" stroke="black" cx="1319" cy="-130" rx="18" ry="18"/>
</g>
<!-- 10&#45;&gt;14 -->
<g id="edge33" class="edge"><title>10&#45;&gt;14</title>
<path fill="none" stroke="black" d="M1219.12,-108.689C1238.16,-112.793 1269.16,-119.475 1291.38,-124.263"/>
<polygon fill="black" stroke="black" points="1290.68,-127.692 1301.19,-126.377 1292.15,-120.849 1290.68,-127.692"/>
<text text-anchor="middle" x="1260" y="-124.8" font-family="Times,serif" font-size="14.00">u0004</text>
</g>
<!-- 14&#45;&gt;17 -->
<g id="edge35" class="edge"><title>14&#45;&gt;17</title>
<path fill="none" stroke="black" d="M1334.84,-139.442C1355.54,-152.617 1393.3,-176.648 1417.76,-192.211"/>
<polygon fill="black" stroke="black" points="1416.1,-195.306 1426.42,-197.722 1419.86,-189.4 1416.1,-195.306"/>
<text text-anchor="middle" x="1378" y="-182.8" font-family="Times,serif" font-size="14.00">u0005</text>
</g>
<!-- initial -->
<g id="node27" class="node"><title>initial</title>
</g>
<!-- initial&#45;&gt;0 -->
<g id="edge36" class="edge"><title>initial&#45;&gt;0</title>
<path fill="none" stroke="black" d="M54.195,-105C62.6538,-105 72.0513,-105 80.5951,-105"/>
<polygon fill="black" stroke="black" points="80.8257,-108.5 90.8257,-105 80.8257,-101.5 80.8257,-108.5"/>
</g>
</g>
</svg>
