<svg width="4372px" height="433px"
 viewBox="0.00 0.00 3279.00 325.00" xmlns="http://www.w3.org/2000/svg" xmlns:xlink="http://www.w3.org/1999/xlink">
<g id="graph0" class="graph" transform="scale(1.000022500562514 1.000022500562514) rotate(0) translate(4 321)">
<title>Automaton</title>
<polygon fill="white" stroke="none" points="-4,4 -4,-321 3275,-321 3275,4 -4,4"/>
<!-- 0 -->
<g id="node1" class="node"><title>0</title>
<ellipse fill="none" stroke="black" cx="109" cy="-135" rx="18" ry="18"/>
</g>
<!-- 1 -->
<g id="node2" class="node"><title>1</title>
<ellipse fill="none" stroke="black" cx="227" cy="-135" rx="18" ry="18"/>
</g>
<!-- 0&#45;&gt;1 -->
<g id="edge1" class="edge"><title>0&#45;&gt;1</title>
<path fill="none" stroke="black" d="M127.116,-135C145.964,-135 176.531,-135 198.696,-135"/>
<polygon fill="black" stroke="black" points="198.814,-138.5 208.814,-135 198.814,-131.5 198.814,-138.5"/>
<text text-anchor="middle" x="168" y="-138.8" font-family="Times,serif" font-size="14.00">u0007</text>
</g>
<!-- 2 -->
<g id="node3" class="node"><title>2</title>
<ellipse fill="none" stroke="black" cx="345" cy="-135" rx="18" ry="18"/>
</g>
<!-- 1&#45;&gt;2 -->
<g id="edge2" class="edge"><title>1&#45;&gt;2</title>
<path fill="none" stroke="black" d="M245.116,-135C263.964,-135 294.531,-135 316.696,-135"/>
<polygon fill="black" stroke="black" points="316.814,-138.5 326.814,-135 316.814,-131.5 316.814,-138.5"/>
<text text-anchor="middle" x="286" y="-138.8" font-family="Times,serif" font-size="14.00">u0009</text>
</g>
<!-- 3 -->
<g id="node4" class="node"><title>3</title>
<ellipse fill="none" stroke="black" cx="462" cy="-135" rx="18" ry="18"/>
</g>
<!-- 2&#45;&gt;3 -->
<g id="edge3" class="edge"><title>2&#45;&gt;3</title>
<path fill="none" stroke="black" d="M363.466,-135C382.064,-135 411.756,-135 433.499,-135"/>
<polygon fill="black" stroke="black" points="433.746,-138.5 443.746,-135 433.746,-131.5 433.746,-138.5"/>
<text text-anchor="middle" x="403.5" y="-138.8" font-family="Times,serif" font-size="14.00">u000a</text>
</g>
<!-- 4 -->
<g id="node5" class="node"><title>4</title>
<ellipse fill="none" stroke="black" cx="580" cy="-135" rx="18" ry="18"/>
</g>
<!-- 3&#45;&gt;4 -->
<g id="edge4" class="edge"><title>3&#45;&gt;4</title>
<path fill="none" stroke="black" d="M480.116,-135C498.964,-135 529.531,-135 551.696,-135"/>
<polygon fill="black" stroke="black" points="551.814,-138.5 561.814,-135 551.814,-131.5 551.814,-138.5"/>
<text text-anchor="middle" x="521" y="-138.8" font-family="Times,serif" font-size="14.00">u000b</text>
</g>
<!-- 5 -->
<g id="node6" class="node"><title>5</title>
<ellipse fill="none" stroke="black" cx="698" cy="-135" rx="18" ry="18"/>
</g>
<!-- 4&#45;&gt;5 -->
<g id="edge5" class="edge"><title>4&#45;&gt;5</title>
<path fill="none" stroke="black" d="M598.116,-135C616.964,-135 647.531,-135 669.696,-135"/>
<polygon fill="black" stroke="black" points="669.814,-138.5 679.814,-135 669.814,-131.5 669.814,-138.5"/>
<text text-anchor="middle" x="639" y="-138.8" font-family="Times,serif" font-size="14.00">u0005</text>
</g>
<!-- 6 -->
<g id="node7" class="node"><title>6</title>
<ellipse fill="none" stroke="black" cx="816" cy="-135" rx="18" ry="18"/>
</g>
<!-- 5&#45;&gt;6 -->
<g id="edge6" class="edge"><title>5&#45;&gt;6</title>
<path fill="none" stroke="black" d="M716.116,-135C734.964,-135 765.531,-135 787.696,-135"/>
<polygon fill="black" stroke="black" points="787.814,-138.5 797.814,-135 787.814,-131.5 787.814,-138.5"/>
<text text-anchor="middle" x="757" y="-138.8" font-family="Times,serif" font-size="14.00">u0001</text>
</g>
<!-- 7 -->
<g id="node8" class="node"><title>7</title>
<ellipse fill="none" stroke="black" cx="934" cy="-135" rx="18" ry="18"/>
</g>
<!-- 6&#45;&gt;7 -->
<g id="edge7" class="edge"><title>6&#45;&gt;7</title>
<path fill="none" stroke="black" d="M834.116,-135C852.964,-135 883.531,-135 905.696,-135"/>
<polygon fill="black" stroke="black" points="905.814,-138.5 915.814,-135 905.814,-131.5 905.814,-138.5"/>
<text text-anchor="middle" x="875" y="-138.8" font-family="Times,serif" font-size="14.00">u0003</text>
</g>
<!-- 8 -->
<g id="node9" class="node"><title>8</title>
<ellipse fill="none" stroke="black" cx="1051" cy="-135" rx="18" ry="18"/>
</g>
<!-- 7&#45;&gt;8 -->
<g id="edge8" class="edge"><title>7&#45;&gt;8</title>
<path fill="none" stroke="black" d="M952.466,-135C971.064,-135 1000.76,-135 1022.5,-135"/>
<polygon fill="black" stroke="black" points="1022.75,-138.5 1032.75,-135 1022.75,-131.5 1022.75,-138.5"/>
<text text-anchor="middle" x="992.5" y="-138.8" font-family="Times,serif" font-size="14.00">u000c</text>
</g>
<!-- 9 -->
<g id="node10" class="node"><title>9</title>
<ellipse fill="none" stroke="black" cx="1169" cy="-135" rx="18" ry="18"/>
</g>
<!-- 8&#45;&gt;9 -->
<g id="edge9" class="edge"><title>8&#45;&gt;9</title>
<path fill="none" stroke="black" d="M1069.12,-135C1087.96,-135 1118.53,-135 1140.7,-135"/>
<polygon fill="black" stroke="black" points="1140.81,-138.5 1150.81,-135 1140.81,-131.5 1140.81,-138.5"/>
<text text-anchor="middle" x="1110" y="-138.8" font-family="Times,serif" font-size="14.00">u0002</text>
</g>
<!-- 10 -->
<g id="node11" class="node"><title>10</title>
<ellipse fill="none" stroke="black" cx="1287" cy="-166" rx="18" ry="18"/>
</g>
<!-- 9&#45;&gt;10 -->
<g id="edge10" class="edge"><title>9&#45;&gt;10</title>
<path fill="none" stroke="black" d="M1186.62,-139.442C1205.66,-144.529 1237.1,-152.933 1259.52,-158.924"/>
<polygon fill="black" stroke="black" points="1258.85,-162.366 1269.41,-161.567 1260.65,-155.603 1258.85,-162.366"/>
<text text-anchor="middle" x="1228" y="-158.8" font-family="Times,serif" font-size="14.00">u0004</text>
</g>
<!-- 13 -->
<g id="node14" class="node"><title>13</title>
<ellipse fill="none" stroke="black" cx="3249" cy="-270" rx="18" ry="18"/>
<ellipse fill="none" stroke="black" cx="3249" cy="-270" rx="22" ry="22"/>
</g>
<!-- 9&#45;&gt;13 -->
<g id="edge13" class="edge"><title>9&#45;&gt;13</title>
<path fill="none" stroke="black" d="M1173.43,-152.556C1182.93,-195.433 1213.81,-302 1286,-302 1286,-302 1286,-302 3128,-302 3159.88,-302 3194.97,-291.323 3218.93,-282.303"/>
<polygon fill="black" stroke="black" points="3220.43,-285.475 3228.47,-278.575 3217.88,-278.955 3220.43,-285.475"/>
<text text-anchor="middle" x="2212" y="-305.8" font-family="Times,serif" font-size="14.00">u0000</text>
</g>
<!-- 11 -->
<g id="node35" class="node"><title>11</title>
<ellipse fill="none" stroke="black" cx="1666" cy="-106" rx="18" ry="18"/>
</g>
<!-- 9&#45;&gt;11 -->
<g id="edge11" class="edge"><title>9&#45;&gt;11</title>
<path fill="none" stroke="black" d="M1186.28,-129.202C1208.51,-121.816 1249.74,-110 1286,-110 1286,-110 1286,-110 1539,-110 1573.09,-110 1612.34,-108.519 1637.85,-107.36"/>
<polygon fill="black" stroke="black" points="1638.06,-110.854 1647.89,-106.888 1637.73,-103.861 1638.06,-110.854"/>
<text text-anchor="middle" x="1410" y="-113.8" font-family="Times,serif" font-size="14.00">u0008</text>
</g>
<!-- 12 -->
<g id="node39" class="node"><title>12</title>
<ellipse fill="none" stroke="black" cx="1346" cy="-39" rx="18" ry="18"/>
</g>
<!-- 9&#45;&gt;12 -->
<g id="edge12" class="edge"><title>9&#45;&gt;12</title>
<path fill="none" stroke="black" d="M1176.85,-118.579C1182.67,-106.533 1192.13,-90.6537 1205,-81 1238.63,-55.7751 1287.36,-45.6093 1317.56,-41.5757"/>
<polygon fill="black" stroke="black" points="1318.28,-45.0151 1327.79,-40.3505 1317.45,-38.0648 1318.28,-45.0151"/>
<text text-anchor="middle" x="1228" y="-84.8" font-family="Times,serif" font-size="14.00">u0006</text>
</g>
<!-- 14 -->
<g id="node12" class="node"><title>14</title>
<ellipse fill="none" stroke="black" cx="1410" cy="-166" rx="18" ry="18"/>
</g>
<!-- 10&#45;&gt;14 -->
<g id="edge14" class="edge"><title>10&#45;&gt;14</title>
<path fill="none" stroke="black" d="M1305.08,-166C1324.96,-166 1358.08,-166 1381.58,-166"/>
<polygon fill="black" stroke="black" points="1381.62,-169.5 1391.62,-166 1381.62,-162.5 1381.62,-169.5"/>
<text text-anchor="middle" x="1346" y="-169.8" font-family="Times,serif" font-size="14.00">u0008</text>
</g>
<!-- 15 -->
<g id="node21" class="node"><title>15</title>
<ellipse fill="none" stroke="black" cx="1410" cy="-246" rx="18" ry="18"/>
</g>
<!-- 10&#45;&gt;15 -->
<g id="edge15" class="edge"><title>10&#45;&gt;15</title>
<path fill="none" stroke="black" d="M1302.36,-175.491C1323.1,-189.204 1361.65,-214.694 1386.28,-230.977"/>
<polygon fill="black" stroke="black" points="1384.39,-233.926 1394.66,-236.521 1388.25,-228.086 1384.39,-233.926"/>
<text text-anchor="middle" x="1346" y="-220.8" font-family="Times,serif" font-size="14.00">u0006</text>
</g>
<!-- 16 -->
<g id="node13" class="node"><title>16</title>
<ellipse fill="none" stroke="black" cx="3127" cy="-205" rx="18" ry="18"/>
</g>
<!-- 14&#45;&gt;16 -->
<g id="edge16" class="edge"><title>14&#45;&gt;16</title>
<path fill="none" stroke="black" d="M1426.41,-174.288C1449.67,-186.004 1495.46,-206 1537,-206 1537,-206 1537,-206 2036,-206 2113.78,-206 2133.22,-205 2211,-205 2211,-205 2211,-205 3010,-205 3040.25,-205 3074.94,-205 3098.44,-205"/>
<polygon fill="black" stroke="black" points="3098.71,-208.5 3108.71,-205 3098.71,-201.5 3098.71,-208.5"/>
<text text-anchor="middle" x="2276" y="-208.8" font-family="Times,serif" font-size="14.00">u0004</text>
</g>
<!-- 19 -->
<g id="node15" class="node"><title>19</title>
<ellipse fill="none" stroke="black" cx="1538" cy="-160" rx="18" ry="18"/>
</g>
<!-- 14&#45;&gt;19 -->
<g id="edge17" class="edge"><title>14&#45;&gt;19</title>
<path fill="none" stroke="black" d="M1427.99,-165.191C1448.94,-164.193 1484.81,-162.485 1509.65,-161.302"/>
<polygon fill="black" stroke="black" points="1510.05,-164.787 1519.87,-160.816 1509.72,-157.795 1510.05,-164.787"/>
<text text-anchor="middle" x="1474" y="-167.8" font-family="Times,serif" font-size="14.00">u0008</text>
</g>
<!-- 16&#45;&gt;13 -->
<g id="edge18" class="edge"><title>16&#45;&gt;13</title>
<path fill="none" stroke="black" d="M3143.2,-213.232C3162.57,-223.727 3196.43,-242.066 3220.41,-255.057"/>
<polygon fill="black" stroke="black" points="3218.93,-258.232 3229.39,-259.917 3222.26,-252.077 3218.93,-258.232"/>
<text text-anchor="middle" x="3186" y="-250.8" font-family="Times,serif" font-size="14.00">u0000</text>
</g>
<!-- 23 -->
<g id="node16" class="node"><title>23</title>
<ellipse fill="none" stroke="black" cx="1666" cy="-160" rx="18" ry="18"/>
</g>
<!-- 19&#45;&gt;23 -->
<g id="edge19" class="edge"><title>19&#45;&gt;23</title>
<path fill="none" stroke="black" d="M1556.26,-160C1577.27,-160 1613.03,-160 1637.77,-160"/>
<polygon fill="black" stroke="black" points="1637.95,-163.5 1647.95,-160 1637.95,-156.5 1637.95,-163.5"/>
<text text-anchor="middle" x="1602" y="-163.8" font-family="Times,serif" font-size="14.00">u0004</text>
</g>
<!-- 27 -->
<g id="node17" class="node"><title>27</title>
<ellipse fill="none" stroke="black" cx="1794" cy="-160" rx="18" ry="18"/>
</g>
<!-- 23&#45;&gt;27 -->
<g id="edge20" class="edge"><title>23&#45;&gt;27</title>
<path fill="none" stroke="black" d="M1684.26,-160C1705.27,-160 1741.03,-160 1765.77,-160"/>
<polygon fill="black" stroke="black" points="1765.95,-163.5 1775.95,-160 1765.95,-156.5 1765.95,-163.5"/>
<text text-anchor="middle" x="1730" y="-163.8" font-family="Times,serif" font-size="14.00">u0004</text>
</g>
<!-- 31 -->
<g id="node18" class="node"><title>31</title>
<ellipse fill="none" stroke="black" cx="1917" cy="-160" rx="18" ry="18"/>
</g>
<!-- 27&#45;&gt;31 -->
<g id="edge21" class="edge"><title>27&#45;&gt;31</title>
<path fill="none" stroke="black" d="M1812.08,-160C1831.96,-160 1865.08,-160 1888.58,-160"/>
<polygon fill="black" stroke="black" points="1888.62,-163.5 1898.62,-160 1888.62,-156.5 1888.62,-163.5"/>
<text text-anchor="middle" x="1858" y="-163.8" font-family="Times,serif" font-size="14.00">u0006</text>
</g>
<!-- 33 -->
<g id="node19" class="node"><title>33</title>
<ellipse fill="none" stroke="black" cx="2035" cy="-160" rx="18" ry="18"/>
</g>
<!-- 31&#45;&gt;33 -->
<g id="edge22" class="edge"><title>31&#45;&gt;33</title>
<path fill="none" stroke="black" d="M1935.12,-160C1953.96,-160 1984.53,-160 2006.7,-160"/>
<polygon fill="black" stroke="black" points="2006.81,-163.5 2016.81,-160 2006.81,-156.5 2006.81,-163.5"/>
<text text-anchor="middle" x="1976" y="-163.8" font-family="Times,serif" font-size="14.00">u0004</text>
</g>
<!-- 29 -->
<g id="node20" class="node"><title>29</title>
<ellipse fill="none" stroke="black" cx="2153" cy="-68" rx="18" ry="18"/>
</g>
<!-- 33&#45;&gt;29 -->
<g id="edge23" class="edge"><title>33&#45;&gt;29</title>
<path fill="none" stroke="black" d="M2049.76,-149.085C2069.65,-133.316 2106.61,-104.002 2130.22,-85.276"/>
<polygon fill="black" stroke="black" points="2132.6,-87.8569 2138.26,-78.9007 2128.25,-82.3724 2132.6,-87.8569"/>
<text text-anchor="middle" x="2094" y="-134.8" font-family="Times,serif" font-size="14.00">u0008</text>
</g>
<!-- 29&#45;&gt;16 -->
<g id="edge24" class="edge"><title>29&#45;&gt;16</title>
<path fill="none" stroke="black" d="M2171.23,-68C2194.7,-68 2238.03,-68 2275,-68 2275,-68 2275,-68 3010,-68 3048.71,-68 3064.39,-71.8942 3091,-100 3110.94,-121.053 3119.53,-153.766 3123.23,-177.08"/>
<polygon fill="black" stroke="black" points="3119.77,-177.627 3124.6,-187.055 3126.7,-176.67 3119.77,-177.627"/>
<text text-anchor="middle" x="2650" y="-71.8" font-family="Times,serif" font-size="14.00">u0006</text>
</g>
<!-- 20 -->
<g id="node22" class="node"><title>20</title>
<ellipse fill="none" stroke="black" cx="1538" cy="-253" rx="18" ry="18"/>
</g>
<!-- 15&#45;&gt;20 -->
<g id="edge25" class="edge"><title>15&#45;&gt;20</title>
<path fill="none" stroke="black" d="M1427.99,-246.944C1448.94,-248.108 1484.81,-250.101 1509.65,-251.481"/>
<polygon fill="black" stroke="black" points="1509.7,-254.988 1519.87,-252.049 1510.08,-247.999 1509.7,-254.988"/>
<text text-anchor="middle" x="1474" y="-253.8" font-family="Times,serif" font-size="14.00">u0006</text>
</g>
<!-- 24 -->
<g id="node23" class="node"><title>24</title>
<ellipse fill="none" stroke="black" cx="1666" cy="-253" rx="18" ry="18"/>
</g>
<!-- 20&#45;&gt;24 -->
<g id="edge26" class="edge"><title>20&#45;&gt;24</title>
<path fill="none" stroke="black" d="M1556.26,-253C1577.27,-253 1613.03,-253 1637.77,-253"/>
<polygon fill="black" stroke="black" points="1637.95,-256.5 1647.95,-253 1637.95,-249.5 1637.95,-256.5"/>
<text text-anchor="middle" x="1602" y="-256.8" font-family="Times,serif" font-size="14.00">u0008</text>
</g>
<!-- 28 -->
<g id="node24" class="node"><title>28</title>
<ellipse fill="none" stroke="black" cx="1794" cy="-254" rx="18" ry="18"/>
</g>
<!-- 24&#45;&gt;28 -->
<g id="edge27" class="edge"><title>24&#45;&gt;28</title>
<path fill="none" stroke="black" d="M1684.26,-253.137C1705.27,-253.304 1741.03,-253.588 1765.77,-253.784"/>
<polygon fill="black" stroke="black" points="1765.93,-257.285 1775.95,-253.865 1765.98,-250.285 1765.93,-257.285"/>
<text text-anchor="middle" x="1730" y="-256.8" font-family="Times,serif" font-size="14.00">u0008</text>
</g>
<!-- 32 -->
<g id="node25" class="node"><title>32</title>
<ellipse fill="none" stroke="black" cx="1917" cy="-256" rx="18" ry="18"/>
</g>
<!-- 28&#45;&gt;32 -->
<g id="edge28" class="edge"><title>28&#45;&gt;32</title>
<path fill="none" stroke="black" d="M1812.08,-254.282C1831.96,-254.611 1865.08,-255.158 1888.58,-255.547"/>
<polygon fill="black" stroke="black" points="1888.56,-259.047 1898.62,-255.713 1888.67,-252.048 1888.56,-259.047"/>
<text text-anchor="middle" x="1858" y="-258.8" font-family="Times,serif" font-size="14.00">u0006</text>
</g>
<!-- 34 -->
<g id="node26" class="node"><title>34</title>
<ellipse fill="none" stroke="black" cx="2035" cy="-256" rx="18" ry="18"/>
</g>
<!-- 32&#45;&gt;34 -->
<g id="edge29" class="edge"><title>32&#45;&gt;34</title>
<path fill="none" stroke="black" d="M1935.12,-256C1953.96,-256 1984.53,-256 2006.7,-256"/>
<polygon fill="black" stroke="black" points="2006.81,-259.5 2016.81,-256 2006.81,-252.5 2006.81,-259.5"/>
<text text-anchor="middle" x="1976" y="-259.8" font-family="Times,serif" font-size="14.00">u0008</text>
</g>
<!-- 35 -->
<g id="node27" class="node"><title>35</title>
<ellipse fill="none" stroke="black" cx="2153" cy="-256" rx="18" ry="18"/>
</g>
<!-- 34&#45;&gt;35 -->
<g id="edge30" class="edge"><title>34&#45;&gt;35</title>
<path fill="none" stroke="black" d="M2053.12,-256C2071.96,-256 2102.53,-256 2124.7,-256"/>
<polygon fill="black" stroke="black" points="2124.81,-259.5 2134.81,-256 2124.81,-252.5 2124.81,-259.5"/>
<text text-anchor="middle" x="2094" y="-259.8" font-family="Times,serif" font-size="14.00">u0008</text>
</g>
<!-- 36 -->
<g id="node28" class="node"><title>36</title>
<ellipse fill="none" stroke="black" cx="2276" cy="-256" rx="18" ry="18"/>
</g>
<!-- 35&#45;&gt;36 -->
<g id="edge31" class="edge"><title>35&#45;&gt;36</title>
<path fill="none" stroke="black" d="M2171.08,-256C2190.96,-256 2224.08,-256 2247.58,-256"/>
<polygon fill="black" stroke="black" points="2247.62,-259.5 2257.62,-256 2247.62,-252.5 2247.62,-259.5"/>
<text text-anchor="middle" x="2212" y="-259.8" font-family="Times,serif" font-size="14.00">u0008</text>
</g>
<!-- 37 -->
<g id="node29" class="node"><title>37</title>
<ellipse fill="none" stroke="black" cx="2404" cy="-256" rx="18" ry="18"/>
</g>
<!-- 36&#45;&gt;37 -->
<g id="edge32" class="edge"><title>36&#45;&gt;37</title>
<path fill="none" stroke="black" d="M2294.26,-256C2315.27,-256 2351.03,-256 2375.77,-256"/>
<polygon fill="black" stroke="black" points="2375.95,-259.5 2385.95,-256 2375.95,-252.5 2375.95,-259.5"/>
<text text-anchor="middle" x="2340" y="-259.8" font-family="Times,serif" font-size="14.00">u0008</text>
</g>
<!-- 38 -->
<g id="node30" class="node"><title>38</title>
<ellipse fill="none" stroke="black" cx="2527" cy="-256" rx="18" ry="18"/>
</g>
<!-- 37&#45;&gt;38 -->
<g id="edge33" class="edge"><title>37&#45;&gt;38</title>
<path fill="none" stroke="black" d="M2422.08,-256C2441.96,-256 2475.08,-256 2498.58,-256"/>
<polygon fill="black" stroke="black" points="2498.62,-259.5 2508.62,-256 2498.62,-252.5 2498.62,-259.5"/>
<text text-anchor="middle" x="2468" y="-259.8" font-family="Times,serif" font-size="14.00">u0008</text>
</g>
<!-- 39 -->
<g id="node31" class="node"><title>39</title>
<ellipse fill="none" stroke="black" cx="2650" cy="-256" rx="18" ry="18"/>
</g>
<!-- 38&#45;&gt;39 -->
<g id="edge34" class="edge"><title>38&#45;&gt;39</title>
<path fill="none" stroke="black" d="M2545.08,-256C2564.96,-256 2598.08,-256 2621.58,-256"/>
<polygon fill="black" stroke="black" points="2621.62,-259.5 2631.62,-256 2621.62,-252.5 2621.62,-259.5"/>
<text text-anchor="middle" x="2586" y="-259.8" font-family="Times,serif" font-size="14.00">u0008</text>
</g>
<!-- 40 -->
<g id="node32" class="node"><title>40</title>
<ellipse fill="none" stroke="black" cx="2773" cy="-256" rx="18" ry="18"/>
</g>
<!-- 39&#45;&gt;40 -->
<g id="edge35" class="edge"><title>39&#45;&gt;40</title>
<path fill="none" stroke="black" d="M2668.08,-256C2687.96,-256 2721.08,-256 2744.58,-256"/>
<polygon fill="black" stroke="black" points="2744.62,-259.5 2754.62,-256 2744.62,-252.5 2744.62,-259.5"/>
<text text-anchor="middle" x="2714" y="-259.8" font-family="Times,serif" font-size="14.00">u0004</text>
</g>
<!-- 41 -->
<g id="node33" class="node"><title>41</title>
<ellipse fill="none" stroke="black" cx="2891" cy="-256" rx="18" ry="18"/>
</g>
<!-- 40&#45;&gt;41 -->
<g id="edge36" class="edge"><title>40&#45;&gt;41</title>
<path fill="none" stroke="black" d="M2791.12,-256C2809.96,-256 2840.53,-256 2862.7,-256"/>
<polygon fill="black" stroke="black" points="2862.81,-259.5 2872.81,-256 2862.81,-252.5 2862.81,-259.5"/>
<text text-anchor="middle" x="2832" y="-259.8" font-family="Times,serif" font-size="14.00">u0008</text>
</g>
<!-- 42 -->
<g id="node34" class="node"><title>42</title>
<ellipse fill="none" stroke="black" cx="3009" cy="-254" rx="18" ry="18"/>
</g>
<!-- 41&#45;&gt;42 -->
<g id="edge37" class="edge"><title>41&#45;&gt;42</title>
<path fill="none" stroke="black" d="M2909.12,-255.705C2927.96,-255.38 2958.53,-254.853 2980.7,-254.471"/>
<polygon fill="black" stroke="black" points="2980.88,-257.968 2990.81,-254.296 2980.75,-250.969 2980.88,-257.968"/>
<text text-anchor="middle" x="2950" y="-258.8" font-family="Times,serif" font-size="14.00">u0004</text>
</g>
<!-- 42&#45;&gt;16 -->
<g id="edge38" class="edge"><title>42&#45;&gt;16</title>
<path fill="none" stroke="black" d="M3026.13,-247.187C3045.43,-239.032 3077.99,-225.279 3100.67,-215.701"/>
<polygon fill="black" stroke="black" points="3102.16,-218.871 3110.01,-211.755 3099.43,-212.422 3102.16,-218.871"/>
<text text-anchor="middle" x="3068" y="-241.8" font-family="Times,serif" font-size="14.00">u0004</text>
</g>
<!-- 11&#45;&gt;16 -->
<g id="edge39" class="edge"><title>11&#45;&gt;16</title>
<path fill="none" stroke="black" d="M1684.1,-107.775C1708.31,-110.132 1753.98,-114 1793,-114 1793,-114 1793,-114 3010,-114 3053.88,-114 3091.02,-154.814 3110.76,-181.776"/>
<polygon fill="black" stroke="black" points="3107.92,-183.821 3116.54,-189.973 3113.64,-179.785 3107.92,-183.821"/>
<text text-anchor="middle" x="2404" y="-117.8" font-family="Times,serif" font-size="14.00">u0004</text>
</g>
<!-- 17 -->
<g id="node36" class="node"><title>17</title>
<ellipse fill="none" stroke="black" cx="1794" cy="-68" rx="18" ry="18"/>
</g>
<!-- 11&#45;&gt;17 -->
<g id="edge40" class="edge"><title>11&#45;&gt;17</title>
<path fill="none" stroke="black" d="M1681.73,-96.9574C1689.09,-92.7828 1698.27,-88.0804 1707,-85 1726.13,-78.2463 1748.67,-73.9162 1765.86,-71.3172"/>
<polygon fill="black" stroke="black" points="1766.39,-74.7775 1775.81,-69.9164 1765.42,-67.8459 1766.39,-74.7775"/>
<text text-anchor="middle" x="1730" y="-88.8" font-family="Times,serif" font-size="14.00">u0006</text>
</g>
<!-- 21 -->
<g id="node37" class="node"><title>21</title>
<ellipse fill="none" stroke="black" cx="1917" cy="-68" rx="18" ry="18"/>
</g>
<!-- 17&#45;&gt;21 -->
<g id="edge41" class="edge"><title>17&#45;&gt;21</title>
<path fill="none" stroke="black" d="M1812.08,-68C1831.96,-68 1865.08,-68 1888.58,-68"/>
<polygon fill="black" stroke="black" points="1888.62,-71.5001 1898.62,-68 1888.62,-64.5001 1888.62,-71.5001"/>
<text text-anchor="middle" x="1858" y="-71.8" font-family="Times,serif" font-size="14.00">u0006</text>
</g>
<!-- 25 -->
<g id="node38" class="node"><title>25</title>
<ellipse fill="none" stroke="black" cx="2035" cy="-68" rx="18" ry="18"/>
</g>
<!-- 21&#45;&gt;25 -->
<g id="edge42" class="edge"><title>21&#45;&gt;25</title>
<path fill="none" stroke="black" d="M1935.12,-68C1953.96,-68 1984.53,-68 2006.7,-68"/>
<polygon fill="black" stroke="black" points="2006.81,-71.5001 2016.81,-68 2006.81,-64.5001 2006.81,-71.5001"/>
<text text-anchor="middle" x="1976" y="-71.8" font-family="Times,serif" font-size="14.00">u0004</text>
</g>
<!-- 25&#45;&gt;29 -->
<g id="edge43" class="edge"><title>25&#45;&gt;29</title>
<path fill="none" stroke="black" d="M2053.12,-68C2071.96,-68 2102.53,-68 2124.7,-68"/>
<polygon fill="black" stroke="black" points="2124.81,-71.5001 2134.81,-68 2124.81,-64.5001 2124.81,-71.5001"/>
<text text-anchor="middle" x="2094" y="-71.8" font-family="Times,serif" font-size="14.00">u0006</text>
</g>
<!-- 18 -->
<g id="node40" class="node"><title>18</title>
<ellipse fill="none" stroke="black" cx="1474" cy="-35" rx="18" ry="18"/>
</g>
<!-- 12&#45;&gt;18 -->
<g id="edge44" class="edge"><title>12&#45;&gt;18</title>
<path fill="none" stroke="black" d="M1363.99,-38.4605C1384.94,-37.7955 1420.81,-36.6568 1445.65,-35.8681"/>
<polygon fill="black" stroke="black" points="1445.99,-39.3593 1455.87,-35.5437 1445.77,-32.3628 1445.99,-39.3593"/>
<text text-anchor="middle" x="1410" y="-41.8" font-family="Times,serif" font-size="14.00">u0008</text>
</g>
<!-- 22 -->
<g id="node41" class="node"><title>22</title>
<ellipse fill="none" stroke="black" cx="1602" cy="-21" rx="18" ry="18"/>
</g>
<!-- 18&#45;&gt;22 -->
<g id="edge45" class="edge"><title>18&#45;&gt;22</title>
<path fill="none" stroke="black" d="M1491.99,-33.1119C1512.94,-30.7843 1548.81,-26.7988 1573.65,-24.0385"/>
<polygon fill="black" stroke="black" points="1574.32,-27.4859 1583.87,-22.9029 1573.55,-20.5287 1574.32,-27.4859"/>
<text text-anchor="middle" x="1538" y="-34.8" font-family="Times,serif" font-size="14.00">u0004</text>
</g>
<!-- 26 -->
<g id="node42" class="node"><title>26</title>
<ellipse fill="none" stroke="black" cx="1730" cy="-18" rx="18" ry="18"/>
</g>
<!-- 22&#45;&gt;26 -->
<g id="edge46" class="edge"><title>22&#45;&gt;26</title>
<path fill="none" stroke="black" d="M1620.26,-20.5892C1641.27,-20.0887 1677.03,-19.2374 1701.77,-18.6482"/>
<polygon fill="black" stroke="black" points="1702.04,-22.143 1711.95,-18.4059 1701.87,-15.145 1702.04,-22.143"/>
<text text-anchor="middle" x="1666" y="-24.8" font-family="Times,serif" font-size="14.00">u0008</text>
</g>
<!-- 30 -->
<g id="node43" class="node"><title>30</title>
<ellipse fill="none" stroke="black" cx="1858" cy="-19" rx="18" ry="18"/>
</g>
<!-- 26&#45;&gt;30 -->
<g id="edge47" class="edge"><title>26&#45;&gt;30</title>
<path fill="none" stroke="black" d="M1748.26,-18.1369C1769.27,-18.3038 1805.03,-18.5875 1829.77,-18.7839"/>
<polygon fill="black" stroke="black" points="1829.93,-22.2851 1839.95,-18.8647 1829.98,-15.2854 1829.93,-22.2851"/>
<text text-anchor="middle" x="1794" y="-22.8" font-family="Times,serif" font-size="14.00">u0008</text>
</g>
<!-- 30&#45;&gt;29 -->
<g id="edge48" class="edge"><title>30&#45;&gt;29</title>
<path fill="none" stroke="black" d="M1876,-20.0479C1909.91,-22.3311 1988.25,-28.5756 2053,-41 2078.06,-45.8095 2106.08,-53.691 2125.89,-59.7004"/>
<polygon fill="black" stroke="black" points="2125.13,-63.1275 2135.71,-62.7304 2127.19,-56.4384 2125.13,-63.1275"/>
<text text-anchor="middle" x="1976" y="-36.8" font-family="Times,serif" font-size="14.00">u0004</text>
</g>
<!-- initial -->
<g id="node44" class="node"><title>initial</title>
</g>
<!-- initial&#45;&gt;0 -->
<g id="edge49" class="edge"><title>initial&#45;&gt;0</title>
<path fill="none" stroke="black" d="M54.195,-135C62.6538,-135 72.0513,-135 80.5951,-135"/>
<polygon fill="black" stroke="black" points="80.8257,-138.5 90.8257,-135 80.8257,-131.5 80.8257,-138.5"/>
</g>
</g>
</svg>
