<svg width="1975px" height="407px"
 viewBox="0.00 0.00 1481.00 305.00" xmlns="http://www.w3.org/2000/svg" xmlns:xlink="http://www.w3.org/1999/xlink">
<g id="graph0" class="graph" transform="scale(1.000022500562514 1.000022500562514) rotate(0) translate(4 301)">
<title>Automaton</title>
<polygon fill="white" stroke="none" points="-4,4 -4,-301 1477,-301 1477,4 -4,4"/>
<!-- 0 -->
<g id="node1" class="node"><title>0</title>
<ellipse fill="none" stroke="black" cx="109" cy="-92" rx="18" ry="18"/>
</g>
<!-- 1 -->
<g id="node2" class="node"><title>1</title>
<ellipse fill="none" stroke="black" cx="227" cy="-92" rx="18" ry="18"/>
</g>
<!-- 0&#45;&gt;1 -->
<g id="edge1" class="edge"><title>0&#45;&gt;1</title>
<path fill="none" stroke="black" d="M127.116,-92C145.964,-92 176.531,-92 198.696,-92"/>
<polygon fill="black" stroke="black" points="198.814,-95.5001 208.814,-92 198.814,-88.5001 198.814,-95.5001"/>
<text text-anchor="middle" x="168" y="-95.8" font-family="Times,serif" font-size="14.00">u0002</text>
</g>
<!-- 2 -->
<g id="node3" class="node"><title>2</title>
<ellipse fill="none" stroke="black" cx="345" cy="-92" rx="18" ry="18"/>
</g>
<!-- 1&#45;&gt;2 -->
<g id="edge2" class="edge"><title>1&#45;&gt;2</title>
<path fill="none" stroke="black" d="M245.116,-92C263.964,-92 294.531,-92 316.696,-92"/>
<polygon fill="black" stroke="black" points="316.814,-95.5001 326.814,-92 316.814,-88.5001 316.814,-95.5001"/>
<text text-anchor="middle" x="286" y="-95.8" font-family="Times,serif" font-size="14.00">u0005</text>
</g>
<!-- 3 -->
<g id="node4" class="node"><title>3</title>
<ellipse fill="none" stroke="black" cx="591" cy="-117" rx="18" ry="18"/>
</g>
<!-- 2&#45;&gt;3 -->
<g id="edge3" class="edge"><title>2&#45;&gt;3</title>
<path fill="none" stroke="black" d="M362.641,-96.3171C368.419,-97.679 374.963,-99.0694 381,-100 445.762,-109.982 522.777,-114.332 562.798,-116.034"/>
<polygon fill="black" stroke="black" points="562.703,-119.533 572.835,-116.438 562.984,-112.539 562.703,-119.533"/>
<text text-anchor="middle" x="468" y="-114.8" font-family="Times,serif" font-size="14.00">u0005</text>
</g>
<!-- 4 -->
<g id="node16" class="node"><title>4</title>
<ellipse fill="none" stroke="black" cx="468" cy="-53" rx="18" ry="18"/>
</g>
<!-- 2&#45;&gt;4 -->
<g id="edge4" class="edge"><title>2&#45;&gt;4</title>
<path fill="none" stroke="black" d="M362.319,-86.7403C382.435,-80.2564 416.882,-69.1538 440.739,-61.4644"/>
<polygon fill="black" stroke="black" points="442.109,-64.7 450.554,-58.3009 439.962,-58.0375 442.109,-64.7"/>
<text text-anchor="middle" x="404" y="-84.8" font-family="Times,serif" font-size="14.00">u0000</text>
</g>
<!-- 5 -->
<g id="node5" class="node"><title>5</title>
<ellipse fill="none" stroke="black" cx="709" cy="-235" rx="18" ry="18"/>
</g>
<!-- 3&#45;&gt;5 -->
<g id="edge5" class="edge"><title>3&#45;&gt;5</title>
<path fill="none" stroke="black" d="M604.414,-129.628C624.56,-150.122 664.53,-190.78 688.5,-215.164"/>
<polygon fill="black" stroke="black" points="686.169,-217.785 695.675,-222.463 691.161,-212.878 686.169,-217.785"/>
<text text-anchor="middle" x="650" y="-199.8" font-family="Times,serif" font-size="14.00">u0005</text>
</g>
<!-- 6 -->
<g id="node11" class="node"><title>6</title>
<ellipse fill="none" stroke="black" cx="709" cy="-117" rx="18" ry="18"/>
</g>
<!-- 3&#45;&gt;6 -->
<g id="edge6" class="edge"><title>3&#45;&gt;6</title>
<path fill="none" stroke="black" d="M609.116,-117C627.964,-117 658.531,-117 680.696,-117"/>
<polygon fill="black" stroke="black" points="680.814,-120.5 690.814,-117 680.814,-113.5 680.814,-120.5"/>
<text text-anchor="middle" x="650" y="-120.8" font-family="Times,serif" font-size="14.00">u0000</text>
</g>
<!-- 8 -->
<g id="node6" class="node"><title>8</title>
<ellipse fill="none" stroke="black" cx="827" cy="-235" rx="18" ry="18"/>
</g>
<!-- 5&#45;&gt;8 -->
<g id="edge7" class="edge"><title>5&#45;&gt;8</title>
<path fill="none" stroke="black" d="M727.116,-235C745.964,-235 776.531,-235 798.696,-235"/>
<polygon fill="black" stroke="black" points="798.814,-238.5 808.814,-235 798.814,-231.5 798.814,-238.5"/>
<text text-anchor="middle" x="768" y="-238.8" font-family="Times,serif" font-size="14.00">u0005</text>
</g>
<!-- 9 -->
<g id="node8" class="node"><title>9</title>
<ellipse fill="none" stroke="black" cx="1078" cy="-273" rx="18" ry="18"/>
</g>
<!-- 5&#45;&gt;9 -->
<g id="edge8" class="edge"><title>5&#45;&gt;9</title>
<path fill="none" stroke="black" d="M724.473,-244.318C730.589,-247.862 737.924,-251.616 745,-254 841.75,-286.599 870.909,-282.798 973,-282 1001.45,-281.778 1008.71,-284.024 1037,-281 1041.36,-280.534 1045.94,-279.826 1050.4,-279.02"/>
<polygon fill="black" stroke="black" points="1051.25,-282.42 1060.37,-277.03 1049.88,-275.555 1051.25,-282.42"/>
<text text-anchor="middle" x="886" y="-285.8" font-family="Times,serif" font-size="14.00">u0000</text>
</g>
<!-- 13 -->
<g id="node7" class="node"><title>13</title>
<ellipse fill="none" stroke="black" cx="950" cy="-209" rx="18" ry="18"/>
</g>
<!-- 8&#45;&gt;13 -->
<g id="edge9" class="edge"><title>8&#45;&gt;13</title>
<path fill="none" stroke="black" d="M844.825,-231.385C864.872,-227.077 898.618,-219.826 922.255,-214.747"/>
<polygon fill="black" stroke="black" points="923.277,-218.107 932.318,-212.584 921.806,-211.263 923.277,-218.107"/>
<text text-anchor="middle" x="886" y="-230.8" font-family="Times,serif" font-size="14.00">u0005</text>
</g>
<!-- 8&#45;&gt;9 -->
<g id="edge10" class="edge"><title>8&#45;&gt;9</title>
<path fill="none" stroke="black" d="M844.218,-240.762C850.075,-242.665 856.777,-244.641 863,-246 929.328,-260.485 1009.04,-267.995 1049.91,-271.145"/>
<polygon fill="black" stroke="black" points="1049.67,-274.636 1059.9,-271.887 1050.19,-267.656 1049.67,-274.636"/>
<text text-anchor="middle" x="950" y="-266.8" font-family="Times,serif" font-size="14.00">u0000</text>
</g>
<!-- 13&#45;&gt;9 -->
<g id="edge11" class="edge"><title>13&#45;&gt;9</title>
<path fill="none" stroke="black" d="M968.134,-211.447C986.227,-214.59 1015.1,-221.235 1037,-234 1045.07,-238.705 1052.73,-245.39 1059.15,-251.899"/>
<polygon fill="black" stroke="black" points="1056.68,-254.39 1066.06,-259.33 1061.81,-249.623 1056.68,-254.39"/>
<text text-anchor="middle" x="1014" y="-237.8" font-family="Times,serif" font-size="14.00">u0000</text>
</g>
<!-- 14 -->
<g id="node9" class="node"><title>14</title>
<ellipse fill="none" stroke="black" cx="1329" cy="-186" rx="18" ry="18"/>
</g>
<!-- 9&#45;&gt;14 -->
<g id="edge12" class="edge"><title>9&#45;&gt;14</title>
<path fill="none" stroke="black" d="M1095.75,-276.17C1134.27,-282.499 1230.61,-292.745 1293,-251 1306.29,-242.111 1314.93,-226.454 1320.31,-212.734"/>
<polygon fill="black" stroke="black" points="1323.64,-213.806 1323.67,-203.211 1317.04,-211.479 1323.64,-213.806"/>
<text text-anchor="middle" x="1206" y="-284.8" font-family="Times,serif" font-size="14.00">u0001</text>
</g>
<!-- 11 -->
<g id="node10" class="node"><title>11</title>
<ellipse fill="none" stroke="black" cx="1451" cy="-112" rx="18" ry="18"/>
<ellipse fill="none" stroke="black" cx="1451" cy="-112" rx="22" ry="22"/>
</g>
<!-- 14&#45;&gt;11 -->
<g id="edge13" class="edge"><title>14&#45;&gt;11</title>
<path fill="none" stroke="black" d="M1346.35,-180.366C1363.32,-174.108 1390.24,-163.013 1411,-149 1416.92,-145 1422.8,-140.082 1428.11,-135.152"/>
<polygon fill="black" stroke="black" points="1430.72,-137.505 1435.45,-128.028 1425.84,-132.482 1430.72,-137.505"/>
<text text-anchor="middle" x="1388" y="-175.8" font-family="Times,serif" font-size="14.00">u0004</text>
</g>
<!-- 10 -->
<g id="node12" class="node"><title>10</title>
<ellipse fill="none" stroke="black" cx="827" cy="-104" rx="18" ry="18"/>
</g>
<!-- 6&#45;&gt;10 -->
<g id="edge14" class="edge"><title>6&#45;&gt;10</title>
<path fill="none" stroke="black" d="M727.116,-115.082C745.964,-112.97 776.531,-109.544 798.696,-107.06"/>
<polygon fill="black" stroke="black" points="799.266,-110.518 808.814,-105.926 798.486,-103.562 799.266,-110.518"/>
<text text-anchor="middle" x="768" y="-115.8" font-family="Times,serif" font-size="14.00">u0001</text>
</g>
<!-- 10&#45;&gt;11 -->
<g id="edge15" class="edge"><title>10&#45;&gt;11</title>
<path fill="none" stroke="black" d="M844.753,-100.596C868.033,-96.1706 911.533,-89 949,-89 949,-89 949,-89 1330,-89 1361.04,-89 1395.81,-96.5162 1419.9,-102.955"/>
<polygon fill="black" stroke="black" points="1419.27,-106.414 1429.84,-105.715 1421.14,-99.6685 1419.27,-106.414"/>
<text text-anchor="middle" x="1142" y="-92.8" font-family="Times,serif" font-size="14.00">u0004</text>
</g>
<!-- 15 -->
<g id="node13" class="node"><title>15</title>
<ellipse fill="none" stroke="black" cx="950" cy="-135" rx="18" ry="18"/>
</g>
<!-- 10&#45;&gt;15 -->
<g id="edge16" class="edge"><title>10&#45;&gt;15</title>
<path fill="none" stroke="black" d="M844.825,-108.31C864.962,-113.47 898.922,-122.17 922.574,-128.23"/>
<polygon fill="black" stroke="black" points="921.763,-131.635 932.318,-130.726 923.5,-124.854 921.763,-131.635"/>
<text text-anchor="middle" x="886" y="-127.8" font-family="Times,serif" font-size="14.00">u0003</text>
</g>
<!-- 15&#45;&gt;11 -->
<g id="edge17" class="edge"><title>15&#45;&gt;11</title>
<path fill="none" stroke="black" d="M968.119,-135C992.357,-135 1038.06,-135 1077,-135 1077,-135 1077,-135 1330,-135 1361.04,-135 1395.81,-127.484 1419.9,-121.045"/>
<polygon fill="black" stroke="black" points="1421.14,-124.331 1429.84,-118.285 1419.27,-117.586 1421.14,-124.331"/>
<text text-anchor="middle" x="1206" y="-138.8" font-family="Times,serif" font-size="14.00">u0004</text>
</g>
<!-- 16 -->
<g id="node14" class="node"><title>16</title>
<ellipse fill="none" stroke="black" cx="1078" cy="-186" rx="18" ry="18"/>
</g>
<!-- 15&#45;&gt;16 -->
<g id="edge18" class="edge"><title>15&#45;&gt;16</title>
<path fill="none" stroke="black" d="M966.958,-141.459C988.354,-150.12 1026.57,-165.588 1051.86,-175.822"/>
<polygon fill="black" stroke="black" points="1050.59,-179.086 1061.17,-179.593 1053.22,-172.597 1050.59,-179.086"/>
<text text-anchor="middle" x="1014" y="-172.8" font-family="Times,serif" font-size="14.00">u0003</text>
</g>
<!-- 16&#45;&gt;11 -->
<g id="edge19" class="edge"><title>16&#45;&gt;11</title>
<path fill="none" stroke="black" d="M1094.12,-194.591C1101.42,-198.367 1110.44,-202.502 1119,-205 1216.34,-233.401 1246.99,-229.709 1347,-213 1376.67,-208.043 1388.42,-210.871 1411,-191 1425.36,-178.364 1435,-159.224 1441.1,-142.948"/>
<polygon fill="black" stroke="black" points="1444.48,-143.862 1444.45,-133.268 1437.87,-141.571 1444.48,-143.862"/>
<text text-anchor="middle" x="1270" y="-228.8" font-family="Times,serif" font-size="14.00">u0004</text>
</g>
<!-- 17 -->
<g id="node15" class="node"><title>17</title>
<ellipse fill="none" stroke="black" cx="1206" cy="-186" rx="18" ry="18"/>
</g>
<!-- 16&#45;&gt;17 -->
<g id="edge20" class="edge"><title>16&#45;&gt;17</title>
<path fill="none" stroke="black" d="M1096.26,-186C1117.27,-186 1153.03,-186 1177.77,-186"/>
<polygon fill="black" stroke="black" points="1177.95,-189.5 1187.95,-186 1177.95,-182.5 1177.95,-189.5"/>
<text text-anchor="middle" x="1142" y="-189.8" font-family="Times,serif" font-size="14.00">u0003</text>
</g>
<!-- 17&#45;&gt;14 -->
<g id="edge21" class="edge"><title>17&#45;&gt;14</title>
<path fill="none" stroke="black" d="M1224.08,-186C1243.96,-186 1277.08,-186 1300.58,-186"/>
<polygon fill="black" stroke="black" points="1300.62,-189.5 1310.62,-186 1300.62,-182.5 1300.62,-189.5"/>
<text text-anchor="middle" x="1270" y="-189.8" font-family="Times,serif" font-size="14.00">u0003</text>
</g>
<!-- 7 -->
<g id="node17" class="node"><title>7</title>
<ellipse fill="none" stroke="black" cx="591" cy="-47" rx="18" ry="18"/>
</g>
<!-- 4&#45;&gt;7 -->
<g id="edge22" class="edge"><title>4&#45;&gt;7</title>
<path fill="none" stroke="black" d="M486.08,-52.1531C506.078,-51.1614 539.454,-49.5064 562.976,-48.34"/>
<polygon fill="black" stroke="black" points="563.193,-51.8337 573.007,-47.8426 562.846,-44.8423 563.193,-51.8337"/>
<text text-anchor="middle" x="532" y="-54.8" font-family="Times,serif" font-size="14.00">u0001</text>
</g>
<!-- 7&#45;&gt;11 -->
<g id="edge23" class="edge"><title>7&#45;&gt;11</title>
<path fill="none" stroke="black" d="M606.259,-37.0325C627.428,-23.2361 668.888,-0 708,-0 708,-0 708,-0 1330,-0 1378.97,-0 1416.27,-50.4668 1435.5,-83.6472"/>
<polygon fill="black" stroke="black" points="1432.51,-85.4671 1440.44,-92.4911 1438.62,-82.0538 1432.51,-85.4671"/>
<text text-anchor="middle" x="1014" y="-3.8" font-family="Times,serif" font-size="14.00">u0004</text>
</g>
<!-- 12 -->
<g id="node18" class="node"><title>12</title>
<ellipse fill="none" stroke="black" cx="709" cy="-47" rx="18" ry="18"/>
</g>
<!-- 7&#45;&gt;12 -->
<g id="edge24" class="edge"><title>7&#45;&gt;12</title>
<path fill="none" stroke="black" d="M609.116,-47C627.964,-47 658.531,-47 680.696,-47"/>
<polygon fill="black" stroke="black" points="680.814,-50.5001 690.814,-47 680.814,-43.5001 680.814,-50.5001"/>
<text text-anchor="middle" x="650" y="-50.8" font-family="Times,serif" font-size="14.00">u0003</text>
</g>
<!-- 12&#45;&gt;11 -->
<g id="edge25" class="edge"><title>12&#45;&gt;11</title>
<path fill="none" stroke="black" d="M727.294,-46.7579C749.961,-46.462 790.957,-46 826,-46 826,-46 826,-46 1330,-46 1367.48,-46 1404.3,-71.0265 1427.07,-90.2577"/>
<polygon fill="black" stroke="black" points="1424.96,-93.0681 1434.79,-97.0236 1429.58,-87.8021 1424.96,-93.0681"/>
<text text-anchor="middle" x="1078" y="-49.8" font-family="Times,serif" font-size="14.00">u0004</text>
</g>
<!-- 12&#45;&gt;10 -->
<g id="edge26" class="edge"><title>12&#45;&gt;10</title>
<path fill="none" stroke="black" d="M725.644,-54.6873C745.124,-64.2594 778.621,-80.7189 801.513,-91.9678"/>
<polygon fill="black" stroke="black" points="800.085,-95.1656 810.604,-96.4345 803.172,-88.8831 800.085,-95.1656"/>
<text text-anchor="middle" x="768" y="-89.8" font-family="Times,serif" font-size="14.00">u0003</text>
</g>
<!-- initial -->
<g id="node19" class="node"><title>initial</title>
</g>
<!-- initial&#45;&gt;0 -->
<g id="edge27" class="edge"><title>initial&#45;&gt;0</title>
<path fill="none" stroke="black" d="M54.195,-92C62.6538,-92 72.0513,-92 80.5951,-92"/>
<polygon fill="black" stroke="black" points="80.8257,-95.5001 90.8257,-92 80.8257,-88.5001 80.8257,-95.5001"/>
</g>
</g>
</svg>
