<svg width="1463px" height="127px"
 viewBox="0.00 0.00 1097.00 95.00" xmlns="http://www.w3.org/2000/svg" xmlns:xlink="http://www.w3.org/1999/xlink">
<g id="graph0" class="graph" transform="scale(1.000022500562514 1.000022500562514) rotate(0) translate(4 91)">
<title>Automaton</title>
<polygon fill="white" stroke="none" points="-4,4 -4,-91 1093,-91 1093,4 -4,4"/>
<!-- 0 -->
<g id="node1" class="node"><title>0</title>
<ellipse fill="none" stroke="black" cx="109" cy="-63" rx="18" ry="18"/>
</g>
<!-- 1 -->
<g id="node2" class="node"><title>1</title>
<ellipse fill="none" stroke="black" cx="227" cy="-63" rx="18" ry="18"/>
</g>
<!-- 0&#45;&gt;1 -->
<g id="edge1" class="edge"><title>0&#45;&gt;1</title>
<path fill="none" stroke="black" d="M127.116,-63C145.964,-63 176.531,-63 198.696,-63"/>
<polygon fill="black" stroke="black" points="198.814,-66.5001 208.814,-63 198.814,-59.5001 198.814,-66.5001"/>
<text text-anchor="middle" x="168" y="-66.8" font-family="Times,serif" font-size="14.00">u0005</text>
</g>
<!-- 2 -->
<g id="node3" class="node"><title>2</title>
<ellipse fill="none" stroke="black" cx="345" cy="-63" rx="18" ry="18"/>
</g>
<!-- 1&#45;&gt;2 -->
<g id="edge2" class="edge"><title>1&#45;&gt;2</title>
<path fill="none" stroke="black" d="M245.116,-63C263.964,-63 294.531,-63 316.696,-63"/>
<polygon fill="black" stroke="black" points="316.814,-66.5001 326.814,-63 316.814,-59.5001 316.814,-66.5001"/>
<text text-anchor="middle" x="286" y="-66.8" font-family="Times,serif" font-size="14.00">u0002</text>
</g>
<!-- 3 -->
<g id="node4" class="node"><title>3</title>
<ellipse fill="none" stroke="black" cx="463" cy="-63" rx="18" ry="18"/>
</g>
<!-- 2&#45;&gt;3 -->
<g id="edge3" class="edge"><title>2&#45;&gt;3</title>
<path fill="none" stroke="black" d="M363.116,-63C381.964,-63 412.531,-63 434.696,-63"/>
<polygon fill="black" stroke="black" points="434.814,-66.5001 444.814,-63 434.814,-59.5001 434.814,-66.5001"/>
<text text-anchor="middle" x="404" y="-66.8" font-family="Times,serif" font-size="14.00">u0000</text>
</g>
<!-- 4 -->
<g id="node5" class="node"><title>4</title>
<ellipse fill="none" stroke="black" cx="581" cy="-63" rx="18" ry="18"/>
</g>
<!-- 3&#45;&gt;4 -->
<g id="edge4" class="edge"><title>3&#45;&gt;4</title>
<path fill="none" stroke="black" d="M481.116,-63C499.964,-63 530.531,-63 552.696,-63"/>
<polygon fill="black" stroke="black" points="552.814,-66.5001 562.814,-63 552.814,-59.5001 552.814,-66.5001"/>
<text text-anchor="middle" x="522" y="-66.8" font-family="Times,serif" font-size="14.00">u0004</text>
</g>
<!-- 5 -->
<g id="node6" class="node"><title>5</title>
<ellipse fill="none" stroke="black" cx="1067" cy="-52" rx="18" ry="18"/>
<ellipse fill="none" stroke="black" cx="1067" cy="-52" rx="22" ry="22"/>
</g>
<!-- 4&#45;&gt;5 -->
<g id="edge5" class="edge"><title>4&#45;&gt;5</title>
<path fill="none" stroke="black" d="M598.874,-65.1329C621.424,-67.7943 662.651,-72 698,-72 698,-72 698,-72 946,-72 976.725,-72 1011.28,-65.5418 1035.39,-59.9651"/>
<polygon fill="black" stroke="black" points="1036.46,-63.309 1045.36,-57.5711 1034.82,-56.5024 1036.46,-63.309"/>
<text text-anchor="middle" x="822" y="-75.8" font-family="Times,serif" font-size="14.00">u0003</text>
</g>
<!-- 6 -->
<g id="node7" class="node"><title>6</title>
<ellipse fill="none" stroke="black" cx="699" cy="-24" rx="18" ry="18"/>
</g>
<!-- 4&#45;&gt;6 -->
<g id="edge6" class="edge"><title>4&#45;&gt;6</title>
<path fill="none" stroke="black" d="M596.516,-53.4496C602.638,-49.7587 609.966,-45.7668 617,-43 634.365,-36.1692 654.831,-31.3941 670.847,-28.3393"/>
<polygon fill="black" stroke="black" points="671.905,-31.7054 681.13,-26.4953 670.67,-24.8153 671.905,-31.7054"/>
<text text-anchor="middle" x="640" y="-46.8" font-family="Times,serif" font-size="14.00">u0001</text>
</g>
<!-- 7 -->
<g id="node8" class="node"><title>7</title>
<ellipse fill="none" stroke="black" cx="822" cy="-18" rx="18" ry="18"/>
</g>
<!-- 6&#45;&gt;7 -->
<g id="edge7" class="edge"><title>6&#45;&gt;7</title>
<path fill="none" stroke="black" d="M717.08,-23.1531C737.078,-22.1614 770.454,-20.5064 793.976,-19.34"/>
<polygon fill="black" stroke="black" points="794.193,-22.8337 804.007,-18.8426 793.846,-15.8423 794.193,-22.8337"/>
<text text-anchor="middle" x="758" y="-26.8" font-family="Times,serif" font-size="14.00">u0001</text>
</g>
<!-- 8 -->
<g id="node9" class="node"><title>8</title>
<ellipse fill="none" stroke="black" cx="945" cy="-24" rx="18" ry="18"/>
</g>
<!-- 7&#45;&gt;8 -->
<g id="edge8" class="edge"><title>7&#45;&gt;8</title>
<path fill="none" stroke="black" d="M840.08,-18.8469C860.078,-19.8386 893.454,-21.4936 916.976,-22.66"/>
<polygon fill="black" stroke="black" points="916.846,-26.1577 927.007,-23.1574 917.193,-19.1663 916.846,-26.1577"/>
<text text-anchor="middle" x="886" y="-26.8" font-family="Times,serif" font-size="14.00">u0001</text>
</g>
<!-- 8&#45;&gt;5 -->
<g id="edge9" class="edge"><title>8&#45;&gt;5</title>
<path fill="none" stroke="black" d="M962.685,-27.8933C981.45,-32.2717 1012.32,-39.474 1035.43,-44.8681"/>
<polygon fill="black" stroke="black" points="1034.91,-48.3386 1045.44,-47.2025 1036.5,-41.5217 1034.91,-48.3386"/>
<text text-anchor="middle" x="1004" y="-46.8" font-family="Times,serif" font-size="14.00">u0003</text>
</g>
<!-- initial -->
<g id="node10" class="node"><title>initial</title>
</g>
<!-- initial&#45;&gt;0 -->
<g id="edge10" class="edge"><title>initial&#45;&gt;0</title>
<path fill="none" stroke="black" d="M54.195,-63C62.6538,-63 72.0513,-63 80.5951,-63"/>
<polygon fill="black" stroke="black" points="80.8257,-66.5001 90.8257,-63 80.8257,-59.5001 80.8257,-66.5001"/>
</g>
</g>
</svg>
