<svg width="2733px" height="425px"
 viewBox="0.00 0.00 2050.00 319.00" xmlns="http://www.w3.org/2000/svg" xmlns:xlink="http://www.w3.org/1999/xlink">
<g id="graph0" class="graph" transform="scale(1.000022500562514 1.000022500562514) rotate(0) translate(4 315)">
<title>Automaton</title>
<polygon fill="white" stroke="none" points="-4,4 -4,-315 2046,-315 2046,4 -4,4"/>
<!-- 0 -->
<g id="node1" class="node"><title>0</title>
<ellipse fill="none" stroke="black" cx="109" cy="-207" rx="18" ry="18"/>
</g>
<!-- 1 -->
<g id="node2" class="node"><title>1</title>
<ellipse fill="none" stroke="black" cx="227" cy="-207" rx="18" ry="18"/>
</g>
<!-- 0&#45;&gt;1 -->
<g id="edge1" class="edge"><title>0&#45;&gt;1</title>
<path fill="none" stroke="black" d="M127.116,-207C145.964,-207 176.531,-207 198.696,-207"/>
<polygon fill="black" stroke="black" points="198.814,-210.5 208.814,-207 198.814,-203.5 198.814,-210.5"/>
<text text-anchor="middle" x="168" y="-210.8" font-family="Times,serif" font-size="14.00">u0006</text>
</g>
<!-- 2 -->
<g id="node3" class="node"><title>2</title>
<ellipse fill="none" stroke="black" cx="345" cy="-207" rx="18" ry="18"/>
</g>
<!-- 1&#45;&gt;2 -->
<g id="edge2" class="edge"><title>1&#45;&gt;2</title>
<path fill="none" stroke="black" d="M245.116,-207C263.964,-207 294.531,-207 316.696,-207"/>
<polygon fill="black" stroke="black" points="316.814,-210.5 326.814,-207 316.814,-203.5 316.814,-210.5"/>
<text text-anchor="middle" x="286" y="-210.8" font-family="Times,serif" font-size="14.00">u0005</text>
</g>
<!-- 3 -->
<g id="node4" class="node"><title>3</title>
<ellipse fill="none" stroke="black" cx="463" cy="-207" rx="18" ry="18"/>
</g>
<!-- 2&#45;&gt;3 -->
<g id="edge3" class="edge"><title>2&#45;&gt;3</title>
<path fill="none" stroke="black" d="M363.116,-207C381.964,-207 412.531,-207 434.696,-207"/>
<polygon fill="black" stroke="black" points="434.814,-210.5 444.814,-207 434.814,-203.5 434.814,-210.5"/>
<text text-anchor="middle" x="404" y="-210.8" font-family="Times,serif" font-size="14.00">u0004</text>
</g>
<!-- 4 -->
<g id="node5" class="node"><title>4</title>
<ellipse fill="none" stroke="black" cx="581" cy="-207" rx="18" ry="18"/>
</g>
<!-- 3&#45;&gt;4 -->
<g id="edge4" class="edge"><title>3&#45;&gt;4</title>
<path fill="none" stroke="black" d="M481.116,-207C499.964,-207 530.531,-207 552.696,-207"/>
<polygon fill="black" stroke="black" points="552.814,-210.5 562.814,-207 552.814,-203.5 552.814,-210.5"/>
<text text-anchor="middle" x="522" y="-210.8" font-family="Times,serif" font-size="14.00">u0003</text>
</g>
<!-- 5 -->
<g id="node6" class="node"><title>5</title>
<ellipse fill="none" stroke="black" cx="699" cy="-207" rx="18" ry="18"/>
</g>
<!-- 4&#45;&gt;5 -->
<g id="edge5" class="edge"><title>4&#45;&gt;5</title>
<path fill="none" stroke="black" d="M599.116,-207C617.964,-207 648.531,-207 670.696,-207"/>
<polygon fill="black" stroke="black" points="670.814,-210.5 680.814,-207 670.814,-203.5 670.814,-210.5"/>
<text text-anchor="middle" x="640" y="-210.8" font-family="Times,serif" font-size="14.00">u0000</text>
</g>
<!-- 6 -->
<g id="node7" class="node"><title>6</title>
<ellipse fill="none" stroke="black" cx="817" cy="-207" rx="18" ry="18"/>
</g>
<!-- 5&#45;&gt;6 -->
<g id="edge6" class="edge"><title>5&#45;&gt;6</title>
<path fill="none" stroke="black" d="M717.116,-207C735.964,-207 766.531,-207 788.696,-207"/>
<polygon fill="black" stroke="black" points="788.814,-210.5 798.814,-207 788.814,-203.5 788.814,-210.5"/>
<text text-anchor="middle" x="758" y="-210.8" font-family="Times,serif" font-size="14.00">u0001</text>
</g>
<!-- 7 -->
<g id="node8" class="node"><title>7</title>
<ellipse fill="none" stroke="black" cx="935" cy="-207" rx="18" ry="18"/>
</g>
<!-- 6&#45;&gt;7 -->
<g id="edge7" class="edge"><title>6&#45;&gt;7</title>
<path fill="none" stroke="black" d="M835.116,-207C853.964,-207 884.531,-207 906.696,-207"/>
<polygon fill="black" stroke="black" points="906.814,-210.5 916.814,-207 906.814,-203.5 906.814,-210.5"/>
<text text-anchor="middle" x="876" y="-210.8" font-family="Times,serif" font-size="14.00">u0002</text>
</g>
<!-- 8 -->
<g id="node9" class="node"><title>8</title>
<ellipse fill="none" stroke="black" cx="1053" cy="-207" rx="18" ry="18"/>
</g>
<!-- 7&#45;&gt;8 -->
<g id="edge8" class="edge"><title>7&#45;&gt;8</title>
<path fill="none" stroke="black" d="M953.116,-207C971.964,-207 1002.53,-207 1024.7,-207"/>
<polygon fill="black" stroke="black" points="1024.81,-210.5 1034.81,-207 1024.81,-203.5 1024.81,-210.5"/>
<text text-anchor="middle" x="994" y="-210.8" font-family="Times,serif" font-size="14.00">u0007</text>
</g>
<!-- 9 -->
<g id="node10" class="node"><title>9</title>
<ellipse fill="none" stroke="black" cx="1171" cy="-207" rx="18" ry="18"/>
</g>
<!-- 8&#45;&gt;9 -->
<g id="edge9" class="edge"><title>8&#45;&gt;9</title>
<path fill="none" stroke="black" d="M1071.12,-207C1089.96,-207 1120.53,-207 1142.7,-207"/>
<polygon fill="black" stroke="black" points="1142.81,-210.5 1152.81,-207 1142.81,-203.5 1142.81,-210.5"/>
<text text-anchor="middle" x="1112" y="-210.8" font-family="Times,serif" font-size="14.00">u0008</text>
</g>
<!-- 10 -->
<g id="node11" class="node"><title>10</title>
<ellipse fill="none" stroke="black" cx="2020" cy="-253" rx="18" ry="18"/>
<ellipse fill="none" stroke="black" cx="2020" cy="-253" rx="22" ry="22"/>
</g>
<!-- 9&#45;&gt;10 -->
<g id="edge10" class="edge"><title>9&#45;&gt;10</title>
<path fill="none" stroke="black" d="M1181.43,-221.697C1198.92,-246.975 1239.03,-296 1287,-296 1287,-296 1287,-296 1899,-296 1932.26,-296 1967.83,-281.179 1991.53,-268.94"/>
<polygon fill="black" stroke="black" points="1993.45,-271.881 2000.61,-264.074 1990.15,-265.711 1993.45,-271.881"/>
<text text-anchor="middle" x="1593" y="-299.8" font-family="Times,serif" font-size="14.00">u0009</text>
</g>
<!-- 11 -->
<g id="node12" class="node"><title>11</title>
<ellipse fill="none" stroke="black" cx="1529" cy="-207" rx="18" ry="18"/>
</g>
<!-- 9&#45;&gt;11 -->
<g id="edge11" class="edge"><title>9&#45;&gt;11</title>
<path fill="none" stroke="black" d="M1189.17,-207C1246.26,-207 1430.04,-207 1500.32,-207"/>
<polygon fill="black" stroke="black" points="1500.58,-210.5 1510.58,-207 1500.58,-203.5 1500.58,-210.5"/>
<text text-anchor="middle" x="1347" y="-210.8" font-family="Times,serif" font-size="14.00">u000b</text>
</g>
<!-- 12 -->
<g id="node16" class="node"><title>12</title>
<ellipse fill="none" stroke="black" cx="1288" cy="-93" rx="18" ry="18"/>
</g>
<!-- 9&#45;&gt;12 -->
<g id="edge12" class="edge"><title>9&#45;&gt;12</title>
<path fill="none" stroke="black" d="M1184.31,-194.8C1204.18,-175.105 1243.49,-136.131 1267.29,-112.535"/>
<polygon fill="black" stroke="black" points="1269.79,-114.984 1274.43,-105.458 1264.87,-110.012 1269.79,-114.984"/>
<text text-anchor="middle" x="1229.5" y="-174.8" font-family="Times,serif" font-size="14.00">u000a</text>
</g>
<!-- 11&#45;&gt;10 -->
<g id="edge13" class="edge"><title>11&#45;&gt;10</title>
<path fill="none" stroke="black" d="M1544.6,-216.531C1566.68,-230.005 1610.32,-253 1651,-253 1651,-253 1651,-253 1899,-253 1929.13,-253 1963.5,-253 1987.72,-253"/>
<polygon fill="black" stroke="black" points="1987.76,-256.5 1997.76,-253 1987.76,-249.5 1987.76,-256.5"/>
<text text-anchor="middle" x="1775" y="-256.8" font-family="Times,serif" font-size="14.00">u0009</text>
</g>
<!-- 13 -->
<g id="node13" class="node"><title>13</title>
<ellipse fill="none" stroke="black" cx="1898" cy="-182" rx="18" ry="18"/>
</g>
<!-- 11&#45;&gt;13 -->
<g id="edge14" class="edge"><title>11&#45;&gt;13</title>
<path fill="none" stroke="black" d="M1547.1,-207.845C1596.41,-209.948 1742.95,-213.844 1862,-193 1864.94,-192.485 1867.98,-191.79 1870.98,-190.998"/>
<polygon fill="black" stroke="black" points="1872.26,-194.268 1880.84,-188.052 1870.26,-187.561 1872.26,-194.268"/>
<text text-anchor="middle" x="1711" y="-211.8" font-family="Times,serif" font-size="14.00">u000b</text>
</g>
<!-- 14 -->
<g id="node14" class="node"><title>14</title>
<ellipse fill="none" stroke="black" cx="1652" cy="-161" rx="18" ry="18"/>
</g>
<!-- 11&#45;&gt;14 -->
<g id="edge15" class="edge"><title>11&#45;&gt;14</title>
<path fill="none" stroke="black" d="M1543.18,-195.257C1550.59,-189.247 1560.28,-182.309 1570,-178 1586.97,-170.48 1607.44,-166.221 1623.56,-163.846"/>
<polygon fill="black" stroke="black" points="1624.46,-167.257 1633.92,-162.486 1623.55,-160.317 1624.46,-167.257"/>
<text text-anchor="middle" x="1593" y="-181.8" font-family="Times,serif" font-size="14.00">u000a</text>
</g>
<!-- 13&#45;&gt;10 -->
<g id="edge16" class="edge"><title>13&#45;&gt;10</title>
<path fill="none" stroke="black" d="M1914.64,-189.181C1931.26,-197.026 1958.11,-210.309 1980,-224 1984.74,-226.964 1989.64,-230.336 1994.3,-233.706"/>
<polygon fill="black" stroke="black" points="1992.22,-236.524 2002.33,-239.683 1996.4,-230.907 1992.22,-236.524"/>
<text text-anchor="middle" x="1957" y="-227.8" font-family="Times,serif" font-size="14.00">u0009</text>
</g>
<!-- 18 -->
<g id="node15" class="node"><title>18</title>
<ellipse fill="none" stroke="black" cx="1775" cy="-161" rx="18" ry="18"/>
</g>
<!-- 14&#45;&gt;18 -->
<g id="edge17" class="edge"><title>14&#45;&gt;18</title>
<path fill="none" stroke="black" d="M1670.08,-161C1689.96,-161 1723.08,-161 1746.58,-161"/>
<polygon fill="black" stroke="black" points="1746.62,-164.5 1756.62,-161 1746.62,-157.5 1746.62,-164.5"/>
<text text-anchor="middle" x="1711" y="-164.8" font-family="Times,serif" font-size="14.00">u000c</text>
</g>
<!-- 18&#45;&gt;13 -->
<g id="edge18" class="edge"><title>18&#45;&gt;13</title>
<path fill="none" stroke="black" d="M1792.82,-163.92C1812.76,-167.38 1846.24,-173.19 1869.86,-177.289"/>
<polygon fill="black" stroke="black" points="1869.48,-180.776 1879.93,-179.037 1870.67,-173.879 1869.48,-180.776"/>
<text text-anchor="middle" x="1839" y="-179.8" font-family="Times,serif" font-size="14.00">u000b</text>
</g>
<!-- 15 -->
<g id="node17" class="node"><title>15</title>
<ellipse fill="none" stroke="black" cx="1465" cy="-113" rx="18" ry="18"/>
</g>
<!-- 12&#45;&gt;15 -->
<g id="edge19" class="edge"><title>12&#45;&gt;15</title>
<path fill="none" stroke="black" d="M1306.1,-94.9541C1336.5,-98.4281 1400.17,-105.705 1436.69,-109.879"/>
<polygon fill="black" stroke="black" points="1436.76,-113.409 1447.09,-111.067 1437.55,-106.454 1436.76,-113.409"/>
<text text-anchor="middle" x="1347" y="-106.8" font-family="Times,serif" font-size="14.00">u000c</text>
</g>
<!-- 16 -->
<g id="node18" class="node"><title>16</title>
<ellipse fill="none" stroke="black" cx="1775" cy="-90" rx="18" ry="18"/>
</g>
<!-- 12&#45;&gt;16 -->
<g id="edge20" class="edge"><title>12&#45;&gt;16</title>
<path fill="none" stroke="black" d="M1305.35,-88.1294C1327.66,-81.9258 1368.98,-72 1405,-72 1405,-72 1405,-72 1653,-72 1685.75,-72 1722.94,-78.5293 1747.34,-83.723"/>
<polygon fill="black" stroke="black" points="1746.76,-87.179 1757.28,-85.9155 1748.27,-80.3434 1746.76,-87.179"/>
<text text-anchor="middle" x="1529" y="-75.8" font-family="Times,serif" font-size="14.00">u000b</text>
</g>
<!-- 17 -->
<g id="node19" class="node"><title>17</title>
<ellipse fill="none" stroke="black" cx="1406" cy="-22" rx="18" ry="18"/>
</g>
<!-- 12&#45;&gt;17 -->
<g id="edge21" class="edge"><title>12&#45;&gt;17</title>
<path fill="none" stroke="black" d="M1296.54,-76.7164C1302.49,-65.6205 1311.81,-51.46 1324,-43 1339.76,-32.058 1360.82,-26.8167 1377.51,-24.3064"/>
<polygon fill="black" stroke="black" points="1378.27,-27.7391 1387.75,-23.0187 1377.39,-20.7938 1378.27,-27.7391"/>
<text text-anchor="middle" x="1347" y="-46.8" font-family="Times,serif" font-size="14.00">u000a</text>
</g>
<!-- 15&#45;&gt;16 -->
<g id="edge22" class="edge"><title>15&#45;&gt;16</title>
<path fill="none" stroke="black" d="M1483,-111.731C1533.68,-107.946 1684.08,-96.7149 1746.44,-92.0584"/>
<polygon fill="black" stroke="black" points="1746.96,-95.5288 1756.67,-91.2938 1746.44,-88.5483 1746.96,-95.5288"/>
<text text-anchor="middle" x="1593" y="-109.8" font-family="Times,serif" font-size="14.00">u000a</text>
</g>
<!-- 16&#45;&gt;13 -->
<g id="edge23" class="edge"><title>16&#45;&gt;13</title>
<path fill="none" stroke="black" d="M1790.72,-99.4182C1808.19,-110.785 1837.98,-130.776 1862,-150 1866.94,-153.955 1872.07,-158.42 1876.83,-162.732"/>
<polygon fill="black" stroke="black" points="1874.68,-165.506 1884.39,-169.729 1879.43,-160.368 1874.68,-165.506"/>
<text text-anchor="middle" x="1839" y="-153.8" font-family="Times,serif" font-size="14.00">u000a</text>
</g>
<!-- 19 -->
<g id="node20" class="node"><title>19</title>
<ellipse fill="none" stroke="black" cx="1529" cy="-18" rx="18" ry="18"/>
</g>
<!-- 17&#45;&gt;19 -->
<g id="edge24" class="edge"><title>17&#45;&gt;19</title>
<path fill="none" stroke="black" d="M1424.08,-21.4354C1444.08,-20.7743 1477.45,-19.6709 1500.98,-18.8933"/>
<polygon fill="black" stroke="black" points="1501.13,-22.3903 1511.01,-18.5617 1500.9,-15.3942 1501.13,-22.3903"/>
<text text-anchor="middle" x="1465" y="-24.8" font-family="Times,serif" font-size="14.00">u000b</text>
</g>
<!-- 20 -->
<g id="node21" class="node"><title>20</title>
<ellipse fill="none" stroke="black" cx="1652" cy="-24" rx="18" ry="18"/>
</g>
<!-- 19&#45;&gt;20 -->
<g id="edge25" class="edge"><title>19&#45;&gt;20</title>
<path fill="none" stroke="black" d="M1547.08,-18.8469C1567.08,-19.8386 1600.45,-21.4936 1623.98,-22.66"/>
<polygon fill="black" stroke="black" points="1623.85,-26.1577 1634.01,-23.1574 1624.19,-19.1663 1623.85,-26.1577"/>
<text text-anchor="middle" x="1593" y="-26.8" font-family="Times,serif" font-size="14.00">u000c</text>
</g>
<!-- 20&#45;&gt;16 -->
<g id="edge26" class="edge"><title>20&#45;&gt;16</title>
<path fill="none" stroke="black" d="M1669.98,-24.9019C1687.23,-26.4924 1714.15,-30.8836 1734,-43 1743.6,-48.8617 1752.06,-57.8217 1758.69,-66.3523"/>
<polygon fill="black" stroke="black" points="1755.98,-68.5774 1764.69,-74.6092 1761.64,-64.4621 1755.98,-68.5774"/>
<text text-anchor="middle" x="1711" y="-46.8" font-family="Times,serif" font-size="14.00">u000c</text>
</g>
<!-- initial -->
<g id="node22" class="node"><title>initial</title>
</g>
<!-- initial&#45;&gt;0 -->
<g id="edge27" class="edge"><title>initial&#45;&gt;0</title>
<path fill="none" stroke="black" d="M54.195,-207C62.6538,-207 72.0513,-207 80.5951,-207"/>
<polygon fill="black" stroke="black" points="80.8257,-210.5 90.8257,-207 80.8257,-203.5 80.8257,-210.5"/>
</g>
</g>
</svg>
