<svg width="1647px" height="217px"
 viewBox="0.00 0.00 1235.00 163.00" xmlns="http://www.w3.org/2000/svg" xmlns:xlink="http://www.w3.org/1999/xlink">
<g id="graph0" class="graph" transform="scale(1.000022500562514 1.000022500562514) rotate(0) translate(4 159)">
<title>Automaton</title>
<polygon fill="white" stroke="none" points="-4,4 -4,-159 1231,-159 1231,4 -4,4"/>
<!-- 0 -->
<g id="node1" class="node"><title>0</title>
<ellipse fill="none" stroke="black" cx="109" cy="-18" rx="18" ry="18"/>
</g>
<!-- 1 -->
<g id="node2" class="node"><title>1</title>
<ellipse fill="none" stroke="black" cx="227" cy="-18" rx="18" ry="18"/>
</g>
<!-- 0&#45;&gt;1 -->
<g id="edge1" class="edge"><title>0&#45;&gt;1</title>
<path fill="none" stroke="black" d="M127.116,-18C145.964,-18 176.531,-18 198.696,-18"/>
<polygon fill="black" stroke="black" points="198.814,-21.5001 208.814,-18 198.814,-14.5001 198.814,-21.5001"/>
<text text-anchor="middle" x="168" y="-21.8" font-family="Times,serif" font-size="14.00">u0005</text>
</g>
<!-- 2 -->
<g id="node3" class="node"><title>2</title>
<ellipse fill="none" stroke="black" cx="345" cy="-48" rx="18" ry="18"/>
</g>
<!-- 1&#45;&gt;2 -->
<g id="edge2" class="edge"><title>1&#45;&gt;2</title>
<path fill="none" stroke="black" d="M244.62,-22.2983C263.657,-27.2216 295.103,-35.3543 317.523,-41.1525"/>
<polygon fill="black" stroke="black" points="316.853,-44.5943 327.411,-43.7097 318.606,-37.8173 316.853,-44.5943"/>
<text text-anchor="middle" x="286" y="-41.8" font-family="Times,serif" font-size="14.00">u0004</text>
</g>
<!-- 3 -->
<g id="node7" class="node"><title>3</title>
<ellipse fill="none" stroke="black" cx="1205" cy="-26" rx="18" ry="18"/>
<ellipse fill="none" stroke="black" cx="1205" cy="-26" rx="22" ry="22"/>
</g>
<!-- 1&#45;&gt;3 -->
<g id="edge3" class="edge"><title>1&#45;&gt;3</title>
<path fill="none" stroke="black" d="M244.805,-14.2082C267.28,-9.47681 308.423,-2 344,-2 344,-2 344,-2 1084,-2 1115.23,-2 1150.16,-9.91345 1174.25,-16.6523"/>
<polygon fill="black" stroke="black" points="1173.28,-20.0169 1183.86,-19.4419 1175.23,-13.2941 1173.28,-20.0169"/>
<text text-anchor="middle" x="714" y="-5.8" font-family="Times,serif" font-size="14.00">u0000</text>
</g>
<!-- 4 -->
<g id="node4" class="node"><title>4</title>
<ellipse fill="none" stroke="black" cx="842" cy="-67" rx="18" ry="18"/>
</g>
<!-- 2&#45;&gt;4 -->
<g id="edge4" class="edge"><title>2&#45;&gt;4</title>
<path fill="none" stroke="black" d="M363.295,-48C385.962,-48 426.958,-48 462,-48 462,-48 462,-48 715,-48 749.649,-48 789.065,-55.1121 814.444,-60.6336"/>
<polygon fill="black" stroke="black" points="813.883,-64.0947 824.407,-62.8773 815.421,-57.2657 813.883,-64.0947"/>
<text text-anchor="middle" x="586" y="-51.8" font-family="Times,serif" font-size="14.00">u0003</text>
</g>
<!-- 5 -->
<g id="node8" class="node"><title>5</title>
<ellipse fill="none" stroke="black" cx="463" cy="-96" rx="18" ry="18"/>
</g>
<!-- 2&#45;&gt;5 -->
<g id="edge5" class="edge"><title>2&#45;&gt;5</title>
<path fill="none" stroke="black" d="M362.129,-54.6742C381.435,-62.6626 413.992,-76.1345 436.666,-85.5169"/>
<polygon fill="black" stroke="black" points="435.429,-88.793 446.008,-89.3825 438.106,-82.3248 435.429,-88.793"/>
<text text-anchor="middle" x="404" y="-83.8" font-family="Times,serif" font-size="14.00">u0001</text>
</g>
<!-- 6 -->
<g id="node5" class="node"><title>6</title>
<ellipse fill="none" stroke="black" cx="965" cy="-67" rx="18" ry="18"/>
</g>
<!-- 4&#45;&gt;6 -->
<g id="edge6" class="edge"><title>4&#45;&gt;6</title>
<path fill="none" stroke="black" d="M860.08,-67C879.965,-67 913.077,-67 936.577,-67"/>
<polygon fill="black" stroke="black" points="936.615,-70.5001 946.615,-67 936.615,-63.5001 936.615,-70.5001"/>
<text text-anchor="middle" x="906" y="-70.8" font-family="Times,serif" font-size="14.00">u0003</text>
</g>
<!-- 8 -->
<g id="node6" class="node"><title>8</title>
<ellipse fill="none" stroke="black" cx="1083" cy="-67" rx="18" ry="18"/>
</g>
<!-- 6&#45;&gt;8 -->
<g id="edge7" class="edge"><title>6&#45;&gt;8</title>
<path fill="none" stroke="black" d="M983.116,-67C1001.96,-67 1032.53,-67 1054.7,-67"/>
<polygon fill="black" stroke="black" points="1054.81,-70.5001 1064.81,-67 1054.81,-63.5001 1054.81,-70.5001"/>
<text text-anchor="middle" x="1024" y="-70.8" font-family="Times,serif" font-size="14.00">u0002</text>
</g>
<!-- 8&#45;&gt;3 -->
<g id="edge8" class="edge"><title>8&#45;&gt;3</title>
<path fill="none" stroke="black" d="M1100.18,-61.4706C1119.02,-55.0349 1150.52,-44.2712 1173.9,-36.2854"/>
<polygon fill="black" stroke="black" points="1175.34,-39.4909 1183.67,-32.9457 1173.08,-32.8669 1175.34,-39.4909"/>
<text text-anchor="middle" x="1142" y="-57.8" font-family="Times,serif" font-size="14.00">u0000</text>
</g>
<!-- 7 -->
<g id="node9" class="node"><title>7</title>
<ellipse fill="none" stroke="black" cx="586" cy="-99" rx="18" ry="18"/>
</g>
<!-- 5&#45;&gt;7 -->
<g id="edge9" class="edge"><title>5&#45;&gt;7</title>
<path fill="none" stroke="black" d="M481.08,-96.4235C500.965,-96.9165 534.077,-97.7375 557.577,-98.3201"/>
<polygon fill="black" stroke="black" points="557.532,-101.82 567.615,-98.569 557.705,-94.8221 557.532,-101.82"/>
<text text-anchor="middle" x="522" y="-100.8" font-family="Times,serif" font-size="14.00">u0003</text>
</g>
<!-- 7&#45;&gt;8 -->
<g id="edge11" class="edge"><title>7&#45;&gt;8</title>
<path fill="none" stroke="black" d="M602.003,-107.297C625.111,-119.277 671.133,-140 713,-140 713,-140 713,-140 966,-140 1005.42,-140 1042.39,-109.433 1063.58,-87.8578"/>
<polygon fill="black" stroke="black" points="1066.32,-90.0584 1070.65,-80.3893 1061.24,-85.247 1066.32,-90.0584"/>
<text text-anchor="middle" x="842" y="-143.8" font-family="Times,serif" font-size="14.00">u0002</text>
</g>
<!-- 9 -->
<g id="node10" class="node"><title>9</title>
<ellipse fill="none" stroke="black" cx="714" cy="-94" rx="18" ry="18"/>
</g>
<!-- 7&#45;&gt;9 -->
<g id="edge10" class="edge"><title>7&#45;&gt;9</title>
<path fill="none" stroke="black" d="M603.993,-98.3257C624.941,-97.4944 660.811,-96.071 685.654,-95.0852"/>
<polygon fill="black" stroke="black" points="686.021,-98.5735 695.874,-94.6796 685.743,-91.579 686.021,-98.5735"/>
<text text-anchor="middle" x="650" y="-100.8" font-family="Times,serif" font-size="14.00">u0003</text>
</g>
<!-- 9&#45;&gt;4 -->
<g id="edge12" class="edge"><title>9&#45;&gt;4</title>
<path fill="none" stroke="black" d="M731.732,-90.4146C752.819,-85.896 789.318,-78.0747 814.284,-72.7248"/>
<polygon fill="black" stroke="black" points="815.154,-76.1179 824.199,-70.6002 813.688,-69.2733 815.154,-76.1179"/>
<text text-anchor="middle" x="778" y="-88.8" font-family="Times,serif" font-size="14.00">u0001</text>
</g>
<!-- initial -->
<g id="node11" class="node"><title>initial</title>
</g>
<!-- initial&#45;&gt;0 -->
<g id="edge13" class="edge"><title>initial&#45;&gt;0</title>
<path fill="none" stroke="black" d="M54.195,-18C62.6538,-18 72.0513,-18 80.5951,-18"/>
<polygon fill="black" stroke="black" points="80.8257,-21.5001 90.8257,-18 80.8257,-14.5001 80.8257,-21.5001"/>
</g>
</g>
</svg>
