<svg width="1961px" height="375px"
 viewBox="0.00 0.00 1471.00 281.00" xmlns="http://www.w3.org/2000/svg" xmlns:xlink="http://www.w3.org/1999/xlink">
<g id="graph0" class="graph" transform="scale(1.000022500562514 1.000022500562514) rotate(0) translate(4 277)">
<title>Automaton</title>
<polygon fill="white" stroke="none" points="-4,4 -4,-277 1467,-277 1467,4 -4,4"/>
<!-- 0 -->
<g id="node1" class="node"><title>0</title>
<ellipse fill="none" stroke="black" cx="109" cy="-211" rx="18" ry="18"/>
</g>
<!-- 1 -->
<g id="node2" class="node"><title>1</title>
<ellipse fill="none" stroke="black" cx="227" cy="-211" rx="18" ry="18"/>
</g>
<!-- 0&#45;&gt;1 -->
<g id="edge1" class="edge"><title>0&#45;&gt;1</title>
<path fill="none" stroke="black" d="M127.116,-211C145.964,-211 176.531,-211 198.696,-211"/>
<polygon fill="black" stroke="black" points="198.814,-214.5 208.814,-211 198.814,-207.5 198.814,-214.5"/>
<text text-anchor="middle" x="168" y="-214.8" font-family="Times,serif" font-size="14.00">u0000</text>
</g>
<!-- 2 -->
<g id="node3" class="node"><title>2</title>
<ellipse fill="none" stroke="black" cx="1441" cy="-227" rx="18" ry="18"/>
<ellipse fill="none" stroke="black" cx="1441" cy="-227" rx="22" ry="22"/>
</g>
<!-- 1&#45;&gt;2 -->
<g id="edge2" class="edge"><title>1&#45;&gt;2</title>
<path fill="none" stroke="black" d="M242.259,-220.967C263.428,-234.764 304.888,-258 344,-258 344,-258 344,-258 1320,-258 1351.82,-258 1386.92,-247.656 1410.89,-238.919"/>
<polygon fill="black" stroke="black" points="1412.33,-242.118 1420.44,-235.307 1409.85,-235.571 1412.33,-242.118"/>
<text text-anchor="middle" x="832" y="-261.8" font-family="Times,serif" font-size="14.00">u0002</text>
</g>
<!-- 3 -->
<g id="node4" class="node"><title>3</title>
<ellipse fill="none" stroke="black" cx="345" cy="-179" rx="18" ry="18"/>
</g>
<!-- 1&#45;&gt;3 -->
<g id="edge3" class="edge"><title>1&#45;&gt;3</title>
<path fill="none" stroke="black" d="M244.62,-206.415C263.657,-201.164 295.103,-192.489 317.523,-186.304"/>
<polygon fill="black" stroke="black" points="318.702,-189.61 327.411,-183.576 316.84,-182.862 318.702,-189.61"/>
<text text-anchor="middle" x="286" y="-204.8" font-family="Times,serif" font-size="14.00">u0001</text>
</g>
<!-- 4 -->
<g id="node5" class="node"><title>4</title>
<ellipse fill="none" stroke="black" cx="463" cy="-97" rx="18" ry="18"/>
</g>
<!-- 3&#45;&gt;4 -->
<g id="edge4" class="edge"><title>3&#45;&gt;4</title>
<path fill="none" stroke="black" d="M354.806,-163.735C361.088,-153.921 370.297,-141.467 381,-133 397.291,-120.112 418.922,-110.806 435.733,-104.888"/>
<polygon fill="black" stroke="black" points="437.105,-108.12 445.486,-101.64 434.892,-101.479 437.105,-108.12"/>
<text text-anchor="middle" x="404" y="-136.8" font-family="Times,serif" font-size="14.00">u0004</text>
</g>
<!-- 5 -->
<g id="node12" class="node"><title>5</title>
<ellipse fill="none" stroke="black" cx="1319" cy="-164" rx="18" ry="18"/>
</g>
<!-- 3&#45;&gt;5 -->
<g id="edge5" class="edge"><title>3&#45;&gt;5</title>
<path fill="none" stroke="black" d="M361.846,-185.354C383.915,-193.615 425.33,-207 462,-207 462,-207 462,-207 1202,-207 1235.64,-207 1271.54,-190.904 1294.34,-178.408"/>
<polygon fill="black" stroke="black" points="1296.3,-181.317 1303.26,-173.33 1292.84,-175.233 1296.3,-181.317"/>
<text text-anchor="middle" x="832" y="-210.8" font-family="Times,serif" font-size="14.00">u0003</text>
</g>
<!-- 6 -->
<g id="node13" class="node"><title>6</title>
<ellipse fill="none" stroke="black" cx="832" cy="-153" rx="18" ry="18"/>
</g>
<!-- 3&#45;&gt;6 -->
<g id="edge6" class="edge"><title>3&#45;&gt;6</title>
<path fill="none" stroke="black" d="M362.792,-174.971C385.253,-169.944 426.38,-162 462,-162 462,-162 462,-162 710,-162 742.295,-162 779.306,-158.772 803.801,-156.183"/>
<polygon fill="black" stroke="black" points="804.238,-159.656 813.798,-155.087 803.476,-152.697 804.238,-159.656"/>
<text text-anchor="middle" x="586" y="-165.8" font-family="Times,serif" font-size="14.00">u0005</text>
</g>
<!-- 7 -->
<g id="node6" class="node"><title>7</title>
<ellipse fill="none" stroke="black" cx="586" cy="-84" rx="18" ry="18"/>
</g>
<!-- 4&#45;&gt;7 -->
<g id="edge7" class="edge"><title>4&#45;&gt;7</title>
<path fill="none" stroke="black" d="M481.08,-95.165C501.078,-93.0164 534.454,-89.4306 557.976,-86.9034"/>
<polygon fill="black" stroke="black" points="558.438,-90.374 568.007,-85.8257 557.69,-83.414 558.438,-90.374"/>
<text text-anchor="middle" x="522" y="-97.8" font-family="Times,serif" font-size="14.00">u0004</text>
</g>
<!-- 9 -->
<g id="node7" class="node"><title>9</title>
<ellipse fill="none" stroke="black" cx="709" cy="-82" rx="18" ry="18"/>
</g>
<!-- 7&#45;&gt;9 -->
<g id="edge8" class="edge"><title>7&#45;&gt;9</title>
<path fill="none" stroke="black" d="M604.08,-83.7177C623.965,-83.389 657.077,-82.8417 680.577,-82.4533"/>
<polygon fill="black" stroke="black" points="680.675,-85.9522 690.615,-82.2873 680.559,-78.9532 680.675,-85.9522"/>
<text text-anchor="middle" x="650" y="-87.8" font-family="Times,serif" font-size="14.00">u0005</text>
</g>
<!-- 11 -->
<g id="node8" class="node"><title>11</title>
<ellipse fill="none" stroke="black" cx="832" cy="-82" rx="18" ry="18"/>
</g>
<!-- 9&#45;&gt;11 -->
<g id="edge9" class="edge"><title>9&#45;&gt;11</title>
<path fill="none" stroke="black" d="M727.08,-82C746.965,-82 780.077,-82 803.577,-82"/>
<polygon fill="black" stroke="black" points="803.615,-85.5001 813.615,-82 803.615,-78.5001 803.615,-85.5001"/>
<text text-anchor="middle" x="768" y="-85.8" font-family="Times,serif" font-size="14.00">u0004</text>
</g>
<!-- 13 -->
<g id="node9" class="node"><title>13</title>
<ellipse fill="none" stroke="black" cx="955" cy="-41" rx="18" ry="18"/>
</g>
<!-- 11&#45;&gt;13 -->
<g id="edge10" class="edge"><title>11&#45;&gt;13</title>
<path fill="none" stroke="black" d="M849.319,-76.4706C869.526,-69.6236 904.191,-57.8775 928.059,-49.7899"/>
<polygon fill="black" stroke="black" points="929.206,-53.0969 937.554,-46.5728 926.959,-46.4672 929.206,-53.0969"/>
<text text-anchor="middle" x="896" y="-71.8" font-family="Times,serif" font-size="14.00">u0005</text>
</g>
<!-- 14 -->
<g id="node10" class="node"><title>14</title>
<ellipse fill="none" stroke="black" cx="1078" cy="-18" rx="18" ry="18"/>
</g>
<!-- 13&#45;&gt;14 -->
<g id="edge11" class="edge"><title>13&#45;&gt;14</title>
<path fill="none" stroke="black" d="M972.825,-37.8019C992.759,-34.0127 1026.24,-27.6487 1049.86,-23.1596"/>
<polygon fill="black" stroke="black" points="1050.76,-26.5509 1059.93,-21.245 1049.45,-19.6741 1050.76,-26.5509"/>
<text text-anchor="middle" x="1014" y="-38.8" font-family="Times,serif" font-size="14.00">u0005</text>
</g>
<!-- 12 -->
<g id="node11" class="node"><title>12</title>
<ellipse fill="none" stroke="black" cx="1201" cy="-72" rx="18" ry="18"/>
</g>
<!-- 14&#45;&gt;12 -->
<g id="edge12" class="edge"><title>14&#45;&gt;12</title>
<path fill="none" stroke="black" d="M1095.08,-23.9312C1112.53,-30.5096 1141.1,-41.6937 1165,-53 1168.52,-54.6651 1172.18,-56.5171 1175.76,-58.3931"/>
<polygon fill="black" stroke="black" points="1174.39,-61.633 1184.86,-63.3032 1177.72,-55.4731 1174.39,-61.633"/>
<text text-anchor="middle" x="1142" y="-56.8" font-family="Times,serif" font-size="14.00">u0005</text>
</g>
<!-- 12&#45;&gt;5 -->
<g id="edge13" class="edge"><title>12&#45;&gt;5</title>
<path fill="none" stroke="black" d="M1219.04,-71.3384C1236.83,-71.5337 1264.65,-74.4461 1283,-89 1297.78,-100.719 1306.6,-120.136 1311.69,-136.276"/>
<polygon fill="black" stroke="black" points="1308.44,-137.625 1314.52,-146.296 1315.17,-135.721 1308.44,-137.625"/>
<text text-anchor="middle" x="1260" y="-92.8" font-family="Times,serif" font-size="14.00">u0003</text>
</g>
<!-- 5&#45;&gt;2 -->
<g id="edge14" class="edge"><title>5&#45;&gt;2</title>
<path fill="none" stroke="black" d="M1335.2,-171.979C1354.46,-182.093 1388.04,-199.722 1412,-212.3"/>
<polygon fill="black" stroke="black" points="1410.49,-215.463 1420.98,-217.012 1413.75,-209.265 1410.49,-215.463"/>
<text text-anchor="middle" x="1378" y="-208.8" font-family="Times,serif" font-size="14.00">u0002</text>
</g>
<!-- 6&#45;&gt;5 -->
<g id="edge16" class="edge"><title>6&#45;&gt;5</title>
<path fill="none" stroke="black" d="M850.188,-155.551C873.606,-158.801 916.875,-164 954,-164 954,-164 954,-164 1202,-164 1232.25,-164 1266.94,-164 1290.44,-164"/>
<polygon fill="black" stroke="black" points="1290.71,-167.5 1300.71,-164 1290.71,-160.5 1290.71,-167.5"/>
<text text-anchor="middle" x="1078" y="-167.8" font-family="Times,serif" font-size="14.00">u0003</text>
</g>
<!-- 8 -->
<g id="node14" class="node"><title>8</title>
<ellipse fill="none" stroke="black" cx="955" cy="-118" rx="18" ry="18"/>
</g>
<!-- 6&#45;&gt;8 -->
<g id="edge15" class="edge"><title>6&#45;&gt;8</title>
<path fill="none" stroke="black" d="M848.268,-145.193C855.6,-141.688 864.601,-137.736 873,-135 890.539,-129.287 910.857,-125.029 926.755,-122.203"/>
<polygon fill="black" stroke="black" points="927.692,-125.595 936.968,-120.475 926.524,-118.693 927.692,-125.595"/>
<text text-anchor="middle" x="896" y="-138.8" font-family="Times,serif" font-size="14.00">u0004</text>
</g>
<!-- 8&#45;&gt;5 -->
<g id="edge17" class="edge"><title>8&#45;&gt;5</title>
<path fill="none" stroke="black" d="M973.349,-117.817C1022.67,-117.694 1167.59,-120.104 1283,-150 1286.23,-150.837 1289.56,-151.896 1292.83,-153.056"/>
<polygon fill="black" stroke="black" points="1291.67,-156.359 1302.26,-156.714 1294.2,-149.833 1291.67,-156.359"/>
<text text-anchor="middle" x="1142" y="-132.8" font-family="Times,serif" font-size="14.00">u0003</text>
</g>
<!-- 10 -->
<g id="node15" class="node"><title>10</title>
<ellipse fill="none" stroke="black" cx="1078" cy="-72" rx="18" ry="18"/>
</g>
<!-- 8&#45;&gt;10 -->
<g id="edge18" class="edge"><title>8&#45;&gt;10</title>
<path fill="none" stroke="black" d="M968.215,-105.288C974.496,-99.4696 982.589,-92.996 991,-89 1009.44,-80.2379 1032.17,-75.9907 1049.63,-73.9326"/>
<polygon fill="black" stroke="black" points="1050.14,-77.3994 1059.74,-72.9133 1049.44,-70.4347 1050.14,-77.3994"/>
<text text-anchor="middle" x="1014" y="-92.8" font-family="Times,serif" font-size="14.00">u0005</text>
</g>
<!-- 10&#45;&gt;12 -->
<g id="edge19" class="edge"><title>10&#45;&gt;12</title>
<path fill="none" stroke="black" d="M1096.08,-72C1115.96,-72 1149.08,-72 1172.58,-72"/>
<polygon fill="black" stroke="black" points="1172.62,-75.5001 1182.62,-72 1172.62,-68.5001 1172.62,-75.5001"/>
<text text-anchor="middle" x="1142" y="-75.8" font-family="Times,serif" font-size="14.00">u0004</text>
</g>
<!-- initial -->
<g id="node16" class="node"><title>initial</title>
</g>
<!-- initial&#45;&gt;0 -->
<g id="edge20" class="edge"><title>initial&#45;&gt;0</title>
<path fill="none" stroke="black" d="M54.195,-211C62.6538,-211 72.0513,-211 80.5951,-211"/>
<polygon fill="black" stroke="black" points="80.8257,-214.5 90.8257,-211 80.8257,-207.5 80.8257,-214.5"/>
</g>
</g>
</svg>
