<svg width="1449px" height="217px"
 viewBox="0.00 0.00 1087.00 163.00" xmlns="http://www.w3.org/2000/svg" xmlns:xlink="http://www.w3.org/1999/xlink">
<g id="graph0" class="graph" transform="scale(1.000022500562514 1.000022500562514) rotate(0) translate(4 159)">
<title>Automaton</title>
<polygon fill="white" stroke="none" points="-4,4 -4,-159 1083,-159 1083,4 -4,4"/>
<!-- 0 -->
<g id="node1" class="node"><title>0</title>
<ellipse fill="none" stroke="black" cx="109" cy="-125" rx="18" ry="18"/>
</g>
<!-- 1 -->
<g id="node2" class="node"><title>1</title>
<ellipse fill="none" stroke="black" cx="227" cy="-125" rx="18" ry="18"/>
</g>
<!-- 0&#45;&gt;1 -->
<g id="edge1" class="edge"><title>0&#45;&gt;1</title>
<path fill="none" stroke="black" d="M127.116,-125C145.964,-125 176.531,-125 198.696,-125"/>
<polygon fill="black" stroke="black" points="198.814,-128.5 208.814,-125 198.814,-121.5 198.814,-128.5"/>
<text text-anchor="middle" x="168" y="-128.8" font-family="Times,serif" font-size="14.00">u0000</text>
</g>
<!-- 2 -->
<g id="node3" class="node"><title>2</title>
<ellipse fill="none" stroke="black" cx="1057" cy="-113" rx="18" ry="18"/>
<ellipse fill="none" stroke="black" cx="1057" cy="-113" rx="22" ry="22"/>
</g>
<!-- 1&#45;&gt;2 -->
<g id="edge2" class="edge"><title>1&#45;&gt;2</title>
<path fill="none" stroke="black" d="M244.817,-128.555C267.305,-132.99 308.464,-140 344,-140 344,-140 344,-140 936,-140 967.391,-140 1002.3,-131.097 1026.33,-123.516"/>
<polygon fill="black" stroke="black" points="1027.51,-126.814 1035.93,-120.378 1025.33,-120.161 1027.51,-126.814"/>
<text text-anchor="middle" x="640" y="-143.8" font-family="Times,serif" font-size="14.00">u0002</text>
</g>
<!-- 3 -->
<g id="node4" class="node"><title>3</title>
<ellipse fill="none" stroke="black" cx="345" cy="-94" rx="18" ry="18"/>
</g>
<!-- 1&#45;&gt;3 -->
<g id="edge3" class="edge"><title>1&#45;&gt;3</title>
<path fill="none" stroke="black" d="M243.822,-117.994C249.756,-115.547 256.61,-112.932 263,-111 280.656,-105.66 300.973,-101.401 316.843,-98.4812"/>
<polygon fill="black" stroke="black" points="317.795,-101.867 327.031,-96.6771 316.574,-94.9744 317.795,-101.867"/>
<text text-anchor="middle" x="286" y="-114.8" font-family="Times,serif" font-size="14.00">u0001</text>
</g>
<!-- 4 -->
<g id="node5" class="node"><title>4</title>
<ellipse fill="none" stroke="black" cx="935" cy="-75" rx="18" ry="18"/>
</g>
<!-- 3&#45;&gt;4 -->
<g id="edge4" class="edge"><title>3&#45;&gt;4</title>
<path fill="none" stroke="black" d="M363.269,-95.9366C385.909,-98.3042 426.875,-102 462,-102 462,-102 462,-102 818,-102 849.701,-102 885.036,-92.3164 908.282,-84.5477"/>
<polygon fill="black" stroke="black" points="909.456,-87.8452 917.757,-81.2622 907.163,-81.2315 909.456,-87.8452"/>
<text text-anchor="middle" x="640" y="-105.8" font-family="Times,serif" font-size="14.00">u0003</text>
</g>
<!-- 5 -->
<g id="node6" class="node"><title>5</title>
<ellipse fill="none" stroke="black" cx="463" cy="-56" rx="18" ry="18"/>
</g>
<!-- 3&#45;&gt;5 -->
<g id="edge5" class="edge"><title>3&#45;&gt;5</title>
<path fill="none" stroke="black" d="M360.086,-84.076C366.26,-80.1226 373.743,-75.8452 381,-73 398.282,-66.2243 418.749,-61.958 434.786,-59.3938"/>
<polygon fill="black" stroke="black" points="435.701,-62.797 445.086,-57.8807 434.684,-55.8713 435.701,-62.797"/>
<text text-anchor="middle" x="404" y="-76.8" font-family="Times,serif" font-size="14.00">u0005</text>
</g>
<!-- 4&#45;&gt;2 -->
<g id="edge6" class="edge"><title>4&#45;&gt;2</title>
<path fill="none" stroke="black" d="M952.685,-80.2837C971.647,-86.2881 1002.97,-96.2058 1026.16,-103.55"/>
<polygon fill="black" stroke="black" points="1025.27,-106.939 1035.86,-106.621 1027.38,-100.265 1025.27,-106.939"/>
<text text-anchor="middle" x="994" y="-103.8" font-family="Times,serif" font-size="14.00">u0002</text>
</g>
<!-- 6 -->
<g id="node7" class="node"><title>6</title>
<ellipse fill="none" stroke="black" cx="581" cy="-56" rx="18" ry="18"/>
</g>
<!-- 5&#45;&gt;6 -->
<g id="edge7" class="edge"><title>5&#45;&gt;6</title>
<path fill="none" stroke="black" d="M481.116,-56C499.964,-56 530.531,-56 552.696,-56"/>
<polygon fill="black" stroke="black" points="552.814,-59.5001 562.814,-56 552.814,-52.5001 552.814,-59.5001"/>
<text text-anchor="middle" x="522" y="-59.8" font-family="Times,serif" font-size="14.00">u0004</text>
</g>
<!-- 6&#45;&gt;4 -->
<g id="edge8" class="edge"><title>6&#45;&gt;4</title>
<path fill="none" stroke="black" d="M598.978,-56.9164C655.422,-59.9631 837.139,-69.7717 906.628,-73.5225"/>
<polygon fill="black" stroke="black" points="906.606,-77.0264 916.78,-74.0705 906.984,-70.0365 906.606,-77.0264"/>
<text text-anchor="middle" x="758" y="-70.8" font-family="Times,serif" font-size="14.00">u0003</text>
</g>
<!-- 7 -->
<g id="node8" class="node"><title>7</title>
<ellipse fill="none" stroke="black" cx="699" cy="-18" rx="18" ry="18"/>
</g>
<!-- 6&#45;&gt;7 -->
<g id="edge9" class="edge"><title>6&#45;&gt;7</title>
<path fill="none" stroke="black" d="M596.086,-46.076C602.26,-42.1226 609.743,-37.8452 617,-35 634.282,-28.2243 654.749,-23.958 670.786,-21.3938"/>
<polygon fill="black" stroke="black" points="671.701,-24.797 681.086,-19.8807 670.684,-17.8713 671.701,-24.797"/>
<text text-anchor="middle" x="640" y="-38.8" font-family="Times,serif" font-size="14.00">u0005</text>
</g>
<!-- 8 -->
<g id="node9" class="node"><title>8</title>
<ellipse fill="none" stroke="black" cx="817" cy="-18" rx="18" ry="18"/>
</g>
<!-- 7&#45;&gt;8 -->
<g id="edge10" class="edge"><title>7&#45;&gt;8</title>
<path fill="none" stroke="black" d="M717.116,-18C735.964,-18 766.531,-18 788.696,-18"/>
<polygon fill="black" stroke="black" points="788.814,-21.5001 798.814,-18 788.814,-14.5001 788.814,-21.5001"/>
<text text-anchor="middle" x="758" y="-21.8" font-family="Times,serif" font-size="14.00">u0004</text>
</g>
<!-- 8&#45;&gt;4 -->
<g id="edge11" class="edge"><title>8&#45;&gt;4</title>
<path fill="none" stroke="black" d="M835.258,-18.4806C852.477,-19.6513 879.157,-23.3892 899,-35 906.28,-39.2597 912.823,-45.5771 918.228,-51.9396"/>
<polygon fill="black" stroke="black" points="915.516,-54.1529 924.435,-59.8715 921.028,-49.8391 915.516,-54.1529"/>
<text text-anchor="middle" x="876" y="-38.8" font-family="Times,serif" font-size="14.00">u0003</text>
</g>
<!-- initial -->
<g id="node10" class="node"><title>initial</title>
</g>
<!-- initial&#45;&gt;0 -->
<g id="edge12" class="edge"><title>initial&#45;&gt;0</title>
<path fill="none" stroke="black" d="M54.195,-125C62.6538,-125 72.0513,-125 80.5951,-125"/>
<polygon fill="black" stroke="black" points="80.8257,-128.5 90.8257,-125 80.8257,-121.5 80.8257,-128.5"/>
</g>
</g>
</svg>
