<svg width="3280px" height="307px"
 viewBox="0.00 0.00 2460.00 230.00" xmlns="http://www.w3.org/2000/svg" xmlns:xlink="http://www.w3.org/1999/xlink">
<g id="graph0" class="graph" transform="scale(1.000022500562514 1.000022500562514) rotate(0) translate(4 226)">
<title>Automaton</title>
<polygon fill="white" stroke="none" points="-4,4 -4,-226 2456,-226 2456,4 -4,4"/>
<!-- 0 -->
<g id="node1" class="node"><title>0</title>
<ellipse fill="none" stroke="black" cx="109" cy="-91" rx="18" ry="18"/>
</g>
<!-- 1 -->
<g id="node2" class="node"><title>1</title>
<ellipse fill="none" stroke="black" cx="227" cy="-91" rx="18" ry="18"/>
</g>
<!-- 0&#45;&gt;1 -->
<g id="edge1" class="edge"><title>0&#45;&gt;1</title>
<path fill="none" stroke="black" d="M127.116,-91C145.964,-91 176.531,-91 198.696,-91"/>
<polygon fill="black" stroke="black" points="198.814,-94.5001 208.814,-91 198.814,-87.5001 198.814,-94.5001"/>
<text text-anchor="middle" x="168" y="-94.8" font-family="Times,serif" font-size="14.00">u0001</text>
</g>
<!-- 2 -->
<g id="node3" class="node"><title>2</title>
<ellipse fill="none" stroke="black" cx="345" cy="-91" rx="18" ry="18"/>
</g>
<!-- 1&#45;&gt;2 -->
<g id="edge2" class="edge"><title>1&#45;&gt;2</title>
<path fill="none" stroke="black" d="M245.116,-91C263.964,-91 294.531,-91 316.696,-91"/>
<polygon fill="black" stroke="black" points="316.814,-94.5001 326.814,-91 316.814,-87.5001 316.814,-94.5001"/>
<text text-anchor="middle" x="286" y="-94.8" font-family="Times,serif" font-size="14.00">u0003</text>
</g>
<!-- 3 -->
<g id="node4" class="node"><title>3</title>
<ellipse fill="none" stroke="black" cx="462" cy="-91" rx="18" ry="18"/>
</g>
<!-- 2&#45;&gt;3 -->
<g id="edge3" class="edge"><title>2&#45;&gt;3</title>
<path fill="none" stroke="black" d="M363.466,-91C382.064,-91 411.756,-91 433.499,-91"/>
<polygon fill="black" stroke="black" points="433.746,-94.5001 443.746,-91 433.746,-87.5001 433.746,-94.5001"/>
<text text-anchor="middle" x="403.5" y="-94.8" font-family="Times,serif" font-size="14.00">u000e</text>
</g>
<!-- 4 -->
<g id="node5" class="node"><title>4</title>
<ellipse fill="none" stroke="black" cx="576" cy="-91" rx="18" ry="18"/>
</g>
<!-- 3&#45;&gt;4 -->
<g id="edge4" class="edge"><title>3&#45;&gt;4</title>
<path fill="none" stroke="black" d="M480.01,-91C497.937,-91 526.445,-91 547.558,-91"/>
<polygon fill="black" stroke="black" points="547.83,-94.5001 557.83,-91 547.829,-87.5001 547.83,-94.5001"/>
<text text-anchor="middle" x="519" y="-94.8" font-family="Times,serif" font-size="14.00">u000f</text>
</g>
<!-- 5 -->
<g id="node6" class="node"><title>5</title>
<ellipse fill="none" stroke="black" cx="694" cy="-91" rx="18" ry="18"/>
</g>
<!-- 4&#45;&gt;5 -->
<g id="edge5" class="edge"><title>4&#45;&gt;5</title>
<path fill="none" stroke="black" d="M594.116,-91C612.964,-91 643.531,-91 665.696,-91"/>
<polygon fill="black" stroke="black" points="665.814,-94.5001 675.814,-91 665.814,-87.5001 665.814,-94.5001"/>
<text text-anchor="middle" x="635" y="-94.8" font-family="Times,serif" font-size="14.00">u0002</text>
</g>
<!-- 6 -->
<g id="node7" class="node"><title>6</title>
<ellipse fill="none" stroke="black" cx="812" cy="-156" rx="18" ry="18"/>
</g>
<!-- 5&#45;&gt;6 -->
<g id="edge6" class="edge"><title>5&#45;&gt;6</title>
<path fill="none" stroke="black" d="M705.27,-105.324C711.61,-113.265 720.36,-122.765 730,-129 746.438,-139.632 767.474,-146.48 783.988,-150.619"/>
<polygon fill="black" stroke="black" points="783.562,-154.113 794.094,-152.96 785.142,-147.293 783.562,-154.113"/>
<text text-anchor="middle" x="753" y="-151.8" font-family="Times,serif" font-size="14.00">u000d</text>
</g>
<!-- 7 -->
<g id="node13" class="node"><title>7</title>
<ellipse fill="none" stroke="black" cx="871" cy="-114" rx="18" ry="18"/>
</g>
<!-- 5&#45;&gt;7 -->
<g id="edge7" class="edge"><title>5&#45;&gt;7</title>
<path fill="none" stroke="black" d="M712.098,-93.2472C742.627,-97.2595 806.72,-105.683 843.164,-110.473"/>
<polygon fill="black" stroke="black" points="842.719,-113.945 853.09,-111.778 843.631,-107.004 842.719,-113.945"/>
<text text-anchor="middle" x="753" y="-104.8" font-family="Times,serif" font-size="14.00">u000c</text>
</g>
<!-- 8 -->
<g id="node22" class="node"><title>8</title>
<ellipse fill="none" stroke="black" cx="871" cy="-72" rx="18" ry="18"/>
</g>
<!-- 5&#45;&gt;8 -->
<g id="edge8" class="edge"><title>5&#45;&gt;8</title>
<path fill="none" stroke="black" d="M709.723,-81.4836C715.757,-78.1125 722.967,-74.7292 730,-73 768.301,-63.5834 814.297,-65.7027 842.843,-68.517"/>
<polygon fill="black" stroke="black" points="842.558,-72.0065 852.877,-69.607 843.314,-65.0474 842.558,-72.0065"/>
<text text-anchor="middle" x="753" y="-76.8" font-family="Times,serif" font-size="14.00">u0006</text>
</g>
<!-- 9 -->
<g id="node28" class="node"><title>9</title>
<ellipse fill="none" stroke="black" cx="812" cy="-24" rx="18" ry="18"/>
</g>
<!-- 5&#45;&gt;9 -->
<g id="edge9" class="edge"><title>5&#45;&gt;9</title>
<path fill="none" stroke="black" d="M700.933,-74.1625C706.405,-61.2527 715.844,-44.1455 730,-35 745.841,-24.766 767.063,-22.1929 783.81,-22.0848"/>
<polygon fill="black" stroke="black" points="783.992,-25.5896 794.068,-22.314 784.149,-18.5914 783.992,-25.5896"/>
<text text-anchor="middle" x="753" y="-38.8" font-family="Times,serif" font-size="14.00">u0000</text>
</g>
<!-- 10 -->
<g id="node8" class="node"><title>10</title>
<ellipse fill="none" stroke="black" cx="935" cy="-161" rx="18" ry="18"/>
</g>
<!-- 6&#45;&gt;10 -->
<g id="edge10" class="edge"><title>6&#45;&gt;10</title>
<path fill="none" stroke="black" d="M830.08,-156.706C850.078,-157.532 883.454,-158.911 906.976,-159.883"/>
<polygon fill="black" stroke="black" points="906.871,-163.382 917.007,-160.298 907.16,-156.388 906.871,-163.382"/>
<text text-anchor="middle" x="871" y="-162.8" font-family="Times,serif" font-size="14.00">u0006</text>
</g>
<!-- 14 -->
<g id="node9" class="node"><title>14</title>
<ellipse fill="none" stroke="black" cx="1063" cy="-184" rx="18" ry="18"/>
</g>
<!-- 10&#45;&gt;14 -->
<g id="edge11" class="edge"><title>10&#45;&gt;14</title>
<path fill="none" stroke="black" d="M952.993,-164.102C974.035,-167.943 1010.13,-174.532 1034.99,-179.069"/>
<polygon fill="black" stroke="black" points="1034.41,-182.521 1044.87,-180.874 1035.66,-175.635 1034.41,-182.521"/>
<text text-anchor="middle" x="999" y="-179.8" font-family="Times,serif" font-size="14.00">u0004</text>
</g>
<!-- 19 -->
<g id="node10" class="node"><title>19</title>
<ellipse fill="none" stroke="black" cx="1255" cy="-201" rx="18" ry="18"/>
</g>
<!-- 14&#45;&gt;19 -->
<g id="edge12" class="edge"><title>14&#45;&gt;19</title>
<path fill="none" stroke="black" d="M1081.2,-185.539C1114.33,-188.503 1187.25,-195.028 1226.95,-198.58"/>
<polygon fill="black" stroke="black" points="1226.71,-202.072 1236.98,-199.477 1227.33,-195.1 1226.71,-202.072"/>
<text text-anchor="middle" x="1127" y="-194.8" font-family="Times,serif" font-size="14.00">u0005</text>
</g>
<!-- 24 -->
<g id="node11" class="node"><title>24</title>
<ellipse fill="none" stroke="black" cx="2308" cy="-110" rx="18" ry="18"/>
</g>
<!-- 19&#45;&gt;24 -->
<g id="edge13" class="edge"><title>19&#45;&gt;24</title>
<path fill="none" stroke="black" d="M1273.11,-202.332C1297.33,-204.099 1343.02,-207 1382,-207 1382,-207 1382,-207 2186,-207 2232.85,-207 2271.91,-162.188 2292.13,-133.481"/>
<polygon fill="black" stroke="black" points="2295.06,-135.394 2297.79,-125.156 2289.27,-131.46 2295.06,-135.394"/>
<text text-anchor="middle" x="1747" y="-210.8" font-family="Times,serif" font-size="14.00">u000b</text>
</g>
<!-- 29 -->
<g id="node12" class="node"><title>29</title>
<ellipse fill="none" stroke="black" cx="2430" cy="-110" rx="18" ry="18"/>
<ellipse fill="none" stroke="black" cx="2430" cy="-110" rx="22" ry="22"/>
</g>
<!-- 24&#45;&gt;29 -->
<g id="edge14" class="edge"><title>24&#45;&gt;29</title>
<path fill="none" stroke="black" d="M2326.19,-110C2344.77,-110 2374.76,-110 2397.57,-110"/>
<polygon fill="black" stroke="black" points="2397.79,-113.5 2407.79,-110 2397.79,-106.5 2397.79,-113.5"/>
<text text-anchor="middle" x="2367" y="-113.8" font-family="Times,serif" font-size="14.00">u0007</text>
</g>
<!-- 11 -->
<g id="node14" class="node"><title>11</title>
<ellipse fill="none" stroke="black" cx="1688" cy="-115" rx="18" ry="18"/>
</g>
<!-- 7&#45;&gt;11 -->
<g id="edge15" class="edge"><title>7&#45;&gt;11</title>
<path fill="none" stroke="black" d="M889.119,-114.222C913.356,-114.517 959.061,-115 998,-115 998,-115 998,-115 1571,-115 1601.25,-115 1635.94,-115 1659.44,-115"/>
<polygon fill="black" stroke="black" points="1659.71,-118.5 1669.71,-115 1659.71,-111.5 1659.71,-118.5"/>
<text text-anchor="middle" x="1255" y="-118.8" font-family="Times,serif" font-size="14.00">u000d</text>
</g>
<!-- 15 -->
<g id="node15" class="node"><title>15</title>
<ellipse fill="none" stroke="black" cx="1865" cy="-163" rx="18" ry="18"/>
</g>
<!-- 11&#45;&gt;15 -->
<g id="edge16" class="edge"><title>11&#45;&gt;15</title>
<path fill="none" stroke="black" d="M1703.94,-123.788C1710.01,-127.059 1717.18,-130.564 1724,-133 1761.99,-146.567 1808.07,-154.989 1836.72,-159.336"/>
<polygon fill="black" stroke="black" points="1836.39,-162.826 1846.79,-160.805 1837.4,-155.899 1836.39,-162.826"/>
<text text-anchor="middle" x="1747" y="-149.8" font-family="Times,serif" font-size="14.00">u000c</text>
</g>
<!-- 16 -->
<g id="node18" class="node"><title>16</title>
<ellipse fill="none" stroke="black" cx="1806" cy="-112" rx="18" ry="18"/>
</g>
<!-- 11&#45;&gt;16 -->
<g id="edge17" class="edge"><title>11&#45;&gt;16</title>
<path fill="none" stroke="black" d="M1706.12,-114.557C1724.96,-114.07 1755.53,-113.279 1777.7,-112.706"/>
<polygon fill="black" stroke="black" points="1777.91,-116.202 1787.81,-112.444 1777.73,-109.204 1777.91,-116.202"/>
<text text-anchor="middle" x="1747" y="-117.8" font-family="Times,serif" font-size="14.00">u0006</text>
</g>
<!-- 20 -->
<g id="node16" class="node"><title>20</title>
<ellipse fill="none" stroke="black" cx="1993" cy="-164" rx="18" ry="18"/>
</g>
<!-- 15&#45;&gt;20 -->
<g id="edge18" class="edge"><title>15&#45;&gt;20</title>
<path fill="none" stroke="black" d="M1883.26,-163.137C1904.27,-163.304 1940.03,-163.588 1964.77,-163.784"/>
<polygon fill="black" stroke="black" points="1964.93,-167.285 1974.95,-163.865 1964.98,-160.285 1964.93,-167.285"/>
<text text-anchor="middle" x="1929" y="-166.8" font-family="Times,serif" font-size="14.00">u0006</text>
</g>
<!-- 25 -->
<g id="node17" class="node"><title>25</title>
<ellipse fill="none" stroke="black" cx="2121" cy="-164" rx="18" ry="18"/>
</g>
<!-- 20&#45;&gt;25 -->
<g id="edge19" class="edge"><title>20&#45;&gt;25</title>
<path fill="none" stroke="black" d="M2011.26,-164C2032.27,-164 2068.03,-164 2092.77,-164"/>
<polygon fill="black" stroke="black" points="2092.95,-167.5 2102.95,-164 2092.95,-160.5 2092.95,-167.5"/>
<text text-anchor="middle" x="2057" y="-167.8" font-family="Times,serif" font-size="14.00">u0004</text>
</g>
<!-- 25&#45;&gt;24 -->
<g id="edge20" class="edge"><title>25&#45;&gt;24</title>
<path fill="none" stroke="black" d="M2139.08,-161.545C2167.39,-157.142 2225.51,-146.675 2272,-129 2275.82,-127.549 2279.74,-125.756 2283.51,-123.856"/>
<polygon fill="black" stroke="black" points="2285.29,-126.873 2292.43,-119.048 2281.97,-120.71 2285.29,-126.873"/>
<text text-anchor="middle" x="2185" y="-160.8" font-family="Times,serif" font-size="14.00">u0005</text>
</g>
<!-- 21 -->
<g id="node19" class="node"><title>21</title>
<ellipse fill="none" stroke="black" cx="1929" cy="-110" rx="18" ry="18"/>
</g>
<!-- 16&#45;&gt;21 -->
<g id="edge21" class="edge"><title>16&#45;&gt;21</title>
<path fill="none" stroke="black" d="M1824.08,-111.718C1843.96,-111.389 1877.08,-110.842 1900.58,-110.453"/>
<polygon fill="black" stroke="black" points="1900.67,-113.952 1910.62,-110.287 1900.56,-106.953 1900.67,-113.952"/>
<text text-anchor="middle" x="1865" y="-114.8" font-family="Times,serif" font-size="14.00">u0004</text>
</g>
<!-- 26 -->
<g id="node20" class="node"><title>26</title>
<ellipse fill="none" stroke="black" cx="2057" cy="-110" rx="18" ry="18"/>
</g>
<!-- 21&#45;&gt;26 -->
<g id="edge22" class="edge"><title>21&#45;&gt;26</title>
<path fill="none" stroke="black" d="M1947.26,-110C1968.27,-110 2004.03,-110 2028.77,-110"/>
<polygon fill="black" stroke="black" points="2028.95,-113.5 2038.95,-110 2028.95,-106.5 2028.95,-113.5"/>
<text text-anchor="middle" x="1993" y="-113.8" font-family="Times,serif" font-size="14.00">u0005</text>
</g>
<!-- 30 -->
<g id="node21" class="node"><title>30</title>
<ellipse fill="none" stroke="black" cx="2185" cy="-110" rx="18" ry="18"/>
</g>
<!-- 26&#45;&gt;30 -->
<g id="edge23" class="edge"><title>26&#45;&gt;30</title>
<path fill="none" stroke="black" d="M2075.26,-110C2096.27,-110 2132.03,-110 2156.77,-110"/>
<polygon fill="black" stroke="black" points="2156.95,-113.5 2166.95,-110 2156.95,-106.5 2156.95,-113.5"/>
<text text-anchor="middle" x="2121" y="-113.8" font-family="Times,serif" font-size="14.00">u0008</text>
</g>
<!-- 30&#45;&gt;24 -->
<g id="edge24" class="edge"><title>30&#45;&gt;24</title>
<path fill="none" stroke="black" d="M2203.08,-110C2222.96,-110 2256.08,-110 2279.58,-110"/>
<polygon fill="black" stroke="black" points="2279.62,-113.5 2289.62,-110 2279.62,-106.5 2279.62,-113.5"/>
<text text-anchor="middle" x="2249" y="-113.8" font-family="Times,serif" font-size="14.00">u0010</text>
</g>
<!-- 12 -->
<g id="node23" class="node"><title>12</title>
<ellipse fill="none" stroke="black" cx="999" cy="-72" rx="18" ry="18"/>
</g>
<!-- 8&#45;&gt;12 -->
<g id="edge25" class="edge"><title>8&#45;&gt;12</title>
<path fill="none" stroke="black" d="M889.256,-72C910.274,-72 946.031,-72 970.775,-72"/>
<polygon fill="black" stroke="black" points="970.953,-75.5001 980.953,-72 970.953,-68.5001 970.953,-75.5001"/>
<text text-anchor="middle" x="935" y="-75.8" font-family="Times,serif" font-size="14.00">u0004</text>
</g>
<!-- 17 -->
<g id="node24" class="node"><title>17</title>
<ellipse fill="none" stroke="black" cx="1127" cy="-72" rx="18" ry="18"/>
</g>
<!-- 12&#45;&gt;17 -->
<g id="edge26" class="edge"><title>12&#45;&gt;17</title>
<path fill="none" stroke="black" d="M1017.26,-72C1038.27,-72 1074.03,-72 1098.77,-72"/>
<polygon fill="black" stroke="black" points="1098.95,-75.5001 1108.95,-72 1098.95,-68.5001 1098.95,-75.5001"/>
<text text-anchor="middle" x="1063" y="-75.8" font-family="Times,serif" font-size="14.00">u0005</text>
</g>
<!-- 22 -->
<g id="node25" class="node"><title>22</title>
<ellipse fill="none" stroke="black" cx="1255" cy="-72" rx="18" ry="18"/>
</g>
<!-- 17&#45;&gt;22 -->
<g id="edge27" class="edge"><title>17&#45;&gt;22</title>
<path fill="none" stroke="black" d="M1145.26,-72C1166.27,-72 1202.03,-72 1226.77,-72"/>
<polygon fill="black" stroke="black" points="1226.95,-75.5001 1236.95,-72 1226.95,-68.5001 1226.95,-75.5001"/>
<text text-anchor="middle" x="1191" y="-75.8" font-family="Times,serif" font-size="14.00">u0010</text>
</g>
<!-- 27 -->
<g id="node26" class="node"><title>27</title>
<ellipse fill="none" stroke="black" cx="1383" cy="-72" rx="18" ry="18"/>
</g>
<!-- 22&#45;&gt;27 -->
<g id="edge28" class="edge"><title>22&#45;&gt;27</title>
<path fill="none" stroke="black" d="M1273.26,-72C1294.27,-72 1330.03,-72 1354.77,-72"/>
<polygon fill="black" stroke="black" points="1354.95,-75.5001 1364.95,-72 1354.95,-68.5001 1354.95,-75.5001"/>
<text text-anchor="middle" x="1319" y="-75.8" font-family="Times,serif" font-size="14.00">u000b</text>
</g>
<!-- 31 -->
<g id="node27" class="node"><title>31</title>
<ellipse fill="none" stroke="black" cx="1511" cy="-68" rx="18" ry="18"/>
</g>
<!-- 27&#45;&gt;31 -->
<g id="edge29" class="edge"><title>27&#45;&gt;31</title>
<path fill="none" stroke="black" d="M1400.99,-71.4605C1421.94,-70.7955 1457.81,-69.6568 1482.65,-68.8681"/>
<polygon fill="black" stroke="black" points="1482.99,-72.3593 1492.87,-68.5437 1482.77,-65.3628 1482.99,-72.3593"/>
<text text-anchor="middle" x="1447" y="-74.8" font-family="Times,serif" font-size="14.00">u0009</text>
</g>
<!-- 31&#45;&gt;24 -->
<g id="edge30" class="edge"><title>31&#45;&gt;24</title>
<path fill="none" stroke="black" d="M1529.29,-67.0317C1551.95,-65.8479 1592.94,-64 1628,-64 1628,-64 1628,-64 2186,-64 2221.75,-64 2259.8,-81.7632 2283.48,-95.2129"/>
<polygon fill="black" stroke="black" points="2282.01,-98.4111 2292.4,-100.469 2285.56,-92.379 2282.01,-98.4111"/>
<text text-anchor="middle" x="1865" y="-67.8" font-family="Times,serif" font-size="14.00">u000a</text>
</g>
<!-- 13 -->
<g id="node29" class="node"><title>13</title>
<ellipse fill="none" stroke="black" cx="935" cy="-18" rx="18" ry="18"/>
</g>
<!-- 9&#45;&gt;13 -->
<g id="edge31" class="edge"><title>9&#45;&gt;13</title>
<path fill="none" stroke="black" d="M830.08,-23.1531C850.078,-22.1614 883.454,-20.5064 906.976,-19.34"/>
<polygon fill="black" stroke="black" points="907.193,-22.8337 917.007,-18.8426 906.846,-15.8423 907.193,-22.8337"/>
<text text-anchor="middle" x="871" y="-26.8" font-family="Times,serif" font-size="14.00">u000c</text>
</g>
<!-- 18 -->
<g id="node30" class="node"><title>18</title>
<ellipse fill="none" stroke="black" cx="1063" cy="-18" rx="18" ry="18"/>
</g>
<!-- 13&#45;&gt;18 -->
<g id="edge32" class="edge"><title>13&#45;&gt;18</title>
<path fill="none" stroke="black" d="M953.256,-18C974.274,-18 1010.03,-18 1034.77,-18"/>
<polygon fill="black" stroke="black" points="1034.95,-21.5001 1044.95,-18 1034.95,-14.5001 1034.95,-21.5001"/>
<text text-anchor="middle" x="999" y="-21.8" font-family="Times,serif" font-size="14.00">u0000</text>
</g>
<!-- 23 -->
<g id="node31" class="node"><title>23</title>
<ellipse fill="none" stroke="black" cx="1191" cy="-18" rx="18" ry="18"/>
</g>
<!-- 18&#45;&gt;23 -->
<g id="edge33" class="edge"><title>18&#45;&gt;23</title>
<path fill="none" stroke="black" d="M1081.26,-18C1102.27,-18 1138.03,-18 1162.77,-18"/>
<polygon fill="black" stroke="black" points="1162.95,-21.5001 1172.95,-18 1162.95,-14.5001 1162.95,-21.5001"/>
<text text-anchor="middle" x="1127" y="-21.8" font-family="Times,serif" font-size="14.00">u000d</text>
</g>
<!-- 28 -->
<g id="node32" class="node"><title>28</title>
<ellipse fill="none" stroke="black" cx="1319" cy="-18" rx="18" ry="18"/>
</g>
<!-- 23&#45;&gt;28 -->
<g id="edge34" class="edge"><title>23&#45;&gt;28</title>
<path fill="none" stroke="black" d="M1209.26,-18C1230.27,-18 1266.03,-18 1290.77,-18"/>
<polygon fill="black" stroke="black" points="1290.95,-21.5001 1300.95,-18 1290.95,-14.5001 1290.95,-21.5001"/>
<text text-anchor="middle" x="1255" y="-21.8" font-family="Times,serif" font-size="14.00">u000d</text>
</g>
<!-- 32 -->
<g id="node33" class="node"><title>32</title>
<ellipse fill="none" stroke="black" cx="1447" cy="-18" rx="18" ry="18"/>
</g>
<!-- 28&#45;&gt;32 -->
<g id="edge35" class="edge"><title>28&#45;&gt;32</title>
<path fill="none" stroke="black" d="M1337.26,-18C1358.27,-18 1394.03,-18 1418.77,-18"/>
<polygon fill="black" stroke="black" points="1418.95,-21.5001 1428.95,-18 1418.95,-14.5001 1418.95,-21.5001"/>
<text text-anchor="middle" x="1383" y="-21.8" font-family="Times,serif" font-size="14.00">u000d</text>
</g>
<!-- 33 -->
<g id="node34" class="node"><title>33</title>
<ellipse fill="none" stroke="black" cx="1570" cy="-18" rx="18" ry="18"/>
</g>
<!-- 32&#45;&gt;33 -->
<g id="edge36" class="edge"><title>32&#45;&gt;33</title>
<path fill="none" stroke="black" d="M1465.08,-18C1484.96,-18 1518.08,-18 1541.58,-18"/>
<polygon fill="black" stroke="black" points="1541.62,-21.5001 1551.62,-18 1541.62,-14.5001 1541.62,-21.5001"/>
<text text-anchor="middle" x="1511" y="-21.8" font-family="Times,serif" font-size="14.00">u000d</text>
</g>
<!-- 34 -->
<g id="node35" class="node"><title>34</title>
<ellipse fill="none" stroke="black" cx="1688" cy="-18" rx="18" ry="18"/>
</g>
<!-- 33&#45;&gt;34 -->
<g id="edge37" class="edge"><title>33&#45;&gt;34</title>
<path fill="none" stroke="black" d="M1588.12,-18C1606.96,-18 1637.53,-18 1659.7,-18"/>
<polygon fill="black" stroke="black" points="1659.81,-21.5001 1669.81,-18 1659.81,-14.5001 1659.81,-21.5001"/>
<text text-anchor="middle" x="1629" y="-21.8" font-family="Times,serif" font-size="14.00">u000d</text>
</g>
<!-- 35 -->
<g id="node36" class="node"><title>35</title>
<ellipse fill="none" stroke="black" cx="1806" cy="-18" rx="18" ry="18"/>
</g>
<!-- 34&#45;&gt;35 -->
<g id="edge38" class="edge"><title>34&#45;&gt;35</title>
<path fill="none" stroke="black" d="M1706.12,-18C1724.96,-18 1755.53,-18 1777.7,-18"/>
<polygon fill="black" stroke="black" points="1777.81,-21.5001 1787.81,-18 1777.81,-14.5001 1777.81,-21.5001"/>
<text text-anchor="middle" x="1747" y="-21.8" font-family="Times,serif" font-size="14.00">u000c</text>
</g>
<!-- 36 -->
<g id="node37" class="node"><title>36</title>
<ellipse fill="none" stroke="black" cx="1929" cy="-18" rx="18" ry="18"/>
</g>
<!-- 35&#45;&gt;36 -->
<g id="edge39" class="edge"><title>35&#45;&gt;36</title>
<path fill="none" stroke="black" d="M1824.08,-18C1843.96,-18 1877.08,-18 1900.58,-18"/>
<polygon fill="black" stroke="black" points="1900.62,-21.5001 1910.62,-18 1900.62,-14.5001 1900.62,-21.5001"/>
<text text-anchor="middle" x="1865" y="-21.8" font-family="Times,serif" font-size="14.00">u0006</text>
</g>
<!-- 37 -->
<g id="node38" class="node"><title>37</title>
<ellipse fill="none" stroke="black" cx="2057" cy="-18" rx="18" ry="18"/>
</g>
<!-- 36&#45;&gt;37 -->
<g id="edge40" class="edge"><title>36&#45;&gt;37</title>
<path fill="none" stroke="black" d="M1947.26,-18C1968.27,-18 2004.03,-18 2028.77,-18"/>
<polygon fill="black" stroke="black" points="2028.95,-21.5001 2038.95,-18 2028.95,-14.5001 2028.95,-21.5001"/>
<text text-anchor="middle" x="1993" y="-21.8" font-family="Times,serif" font-size="14.00">u0004</text>
</g>
<!-- 38 -->
<g id="node39" class="node"><title>38</title>
<ellipse fill="none" stroke="black" cx="2185" cy="-18" rx="18" ry="18"/>
</g>
<!-- 37&#45;&gt;38 -->
<g id="edge41" class="edge"><title>37&#45;&gt;38</title>
<path fill="none" stroke="black" d="M2075.26,-18C2096.27,-18 2132.03,-18 2156.77,-18"/>
<polygon fill="black" stroke="black" points="2156.95,-21.5001 2166.95,-18 2156.95,-14.5001 2156.95,-21.5001"/>
<text text-anchor="middle" x="2121" y="-21.8" font-family="Times,serif" font-size="14.00">u0005</text>
</g>
<!-- 38&#45;&gt;24 -->
<g id="edge42" class="edge"><title>38&#45;&gt;24</title>
<path fill="none" stroke="black" d="M2203.04,-17.0481C2221.86,-16.8953 2252.11,-19.4171 2272,-35 2286.84,-46.6322 2295.67,-66.0511 2300.74,-82.2147"/>
<polygon fill="black" stroke="black" points="2297.49,-83.5705 2303.56,-92.2518 2304.23,-81.6779 2297.49,-83.5705"/>
<text text-anchor="middle" x="2249" y="-38.8" font-family="Times,serif" font-size="14.00">u0008</text>
</g>
<!-- initial -->
<g id="node40" class="node"><title>initial</title>
</g>
<!-- initial&#45;&gt;0 -->
<g id="edge43" class="edge"><title>initial&#45;&gt;0</title>
<path fill="none" stroke="black" d="M54.195,-91C62.6538,-91 72.0513,-91 80.5951,-91"/>
<polygon fill="black" stroke="black" points="80.8257,-94.5001 90.8257,-91 80.8257,-87.5001 80.8257,-94.5001"/>
</g>
</g>
</svg>
