<svg width="2460px" height="756px"
 viewBox="0.00 0.00 1845.00 567.00" xmlns="http://www.w3.org/2000/svg" xmlns:xlink="http://www.w3.org/1999/xlink">
<g id="graph0" class="graph" transform="scale(1.000022500562514 1.000022500562514) rotate(0) translate(4 563)">
<title>Automaton</title>
<polygon fill="white" stroke="none" points="-4,4 -4,-563 1841,-563 1841,4 -4,4"/>
<!-- 0 -->
<g id="node1" class="node"><title>0</title>
<ellipse fill="none" stroke="black" cx="109" cy="-510" rx="18" ry="18"/>
</g>
<!-- 1 -->
<g id="node2" class="node"><title>1</title>
<ellipse fill="none" stroke="black" cx="227" cy="-510" rx="18" ry="18"/>
</g>
<!-- 0&#45;&gt;1 -->
<g id="edge1" class="edge"><title>0&#45;&gt;1</title>
<path fill="none" stroke="black" d="M127.116,-510C145.964,-510 176.531,-510 198.696,-510"/>
<polygon fill="black" stroke="black" points="198.814,-513.5 208.814,-510 198.814,-506.5 198.814,-513.5"/>
<text text-anchor="middle" x="168" y="-513.8" font-family="Times,serif" font-size="14.00">u0000</text>
</g>
<!-- 2 -->
<g id="node3" class="node"><title>2</title>
<ellipse fill="none" stroke="black" cx="1815" cy="-472" rx="18" ry="18"/>
<ellipse fill="none" stroke="black" cx="1815" cy="-472" rx="22" ry="22"/>
</g>
<!-- 1&#45;&gt;2 -->
<g id="edge2" class="edge"><title>1&#45;&gt;2</title>
<path fill="none" stroke="black" d="M243.71,-517.715C265.621,-527.747 306.855,-544 344,-544 344,-544 344,-544 1694,-544 1732.69,-544 1769.67,-516.146 1792.1,-495.088"/>
<polygon fill="black" stroke="black" points="1794.68,-497.461 1799.41,-487.979 1789.8,-492.443 1794.68,-497.461"/>
<text text-anchor="middle" x="1004" y="-547.8" font-family="Times,serif" font-size="14.00">u0002</text>
</g>
<!-- 3 -->
<g id="node4" class="node"><title>3</title>
<ellipse fill="none" stroke="black" cx="345" cy="-459" rx="18" ry="18"/>
</g>
<!-- 1&#45;&gt;3 -->
<g id="edge3" class="edge"><title>1&#45;&gt;3</title>
<path fill="none" stroke="black" d="M243.644,-503.122C262.93,-494.643 295.953,-480.124 318.824,-470.069"/>
<polygon fill="black" stroke="black" points="320.487,-473.161 328.233,-465.932 317.67,-466.753 320.487,-473.161"/>
<text text-anchor="middle" x="286" y="-497.8" font-family="Times,serif" font-size="14.00">u0001</text>
</g>
<!-- 4 -->
<g id="node5" class="node"><title>4</title>
<ellipse fill="none" stroke="black" cx="463" cy="-430" rx="18" ry="18"/>
</g>
<!-- 3&#45;&gt;4 -->
<g id="edge4" class="edge"><title>3&#45;&gt;4</title>
<path fill="none" stroke="black" d="M362.62,-454.845C381.657,-450.086 413.103,-442.224 435.523,-436.619"/>
<polygon fill="black" stroke="black" points="436.558,-439.968 445.411,-434.147 434.861,-433.177 436.558,-439.968"/>
<text text-anchor="middle" x="404" y="-453.8" font-family="Times,serif" font-size="14.00">u0004</text>
</g>
<!-- 5 -->
<g id="node12" class="node"><title>5</title>
<ellipse fill="none" stroke="black" cx="1693" cy="-316" rx="18" ry="18"/>
</g>
<!-- 3&#45;&gt;5 -->
<g id="edge5" class="edge"><title>3&#45;&gt;5</title>
<path fill="none" stroke="black" d="M360.259,-468.967C381.428,-482.764 422.888,-506 462,-506 462,-506 462,-506 1576,-506 1619.51,-506 1631.93,-486.567 1657,-451 1679.51,-419.062 1687.55,-373.742 1690.42,-344.604"/>
<polygon fill="black" stroke="black" points="1693.93,-344.548 1691.28,-334.291 1686.96,-343.963 1693.93,-344.548"/>
<text text-anchor="middle" x="1004" y="-509.8" font-family="Times,serif" font-size="14.00">u0003</text>
</g>
<!-- 6 -->
<g id="node21" class="node"><title>6</title>
<ellipse fill="none" stroke="black" cx="945" cy="-109" rx="18" ry="18"/>
</g>
<!-- 3&#45;&gt;6 -->
<g id="edge6" class="edge"><title>3&#45;&gt;6</title>
<path fill="none" stroke="black" d="M348.392,-441.064C357.971,-372.931 396.249,-134 462,-134 462,-134 462,-134 823,-134 856.26,-134 893.619,-124.829 917.91,-117.596"/>
<polygon fill="black" stroke="black" points="919.258,-120.843 927.78,-114.548 917.193,-114.155 919.258,-120.843"/>
<text text-anchor="middle" x="640" y="-137.8" font-family="Times,serif" font-size="14.00">u0005</text>
</g>
<!-- 7 -->
<g id="node6" class="node"><title>7</title>
<ellipse fill="none" stroke="black" cx="640" cy="-415" rx="18" ry="18"/>
</g>
<!-- 4&#45;&gt;7 -->
<g id="edge7" class="edge"><title>4&#45;&gt;7</title>
<path fill="none" stroke="black" d="M481.098,-428.534C511.418,-425.936 574.844,-420.499 611.412,-417.365"/>
<polygon fill="black" stroke="black" points="612.168,-420.813 621.832,-416.472 611.57,-413.838 612.168,-420.813"/>
<text text-anchor="middle" x="522" y="-430.8" font-family="Times,serif" font-size="14.00">u0004</text>
</g>
<!-- 4&#45;&gt;5 -->
<g id="edge8" class="edge"><title>4&#45;&gt;5</title>
<path fill="none" stroke="black" d="M479.383,-437.927C485.386,-440.781 492.4,-443.829 499,-446 533.942,-457.495 543.216,-463 580,-463 580,-463 580,-463 1005,-463 1117.9,-463 1146.1,-467 1259,-467 1259,-467 1259,-467 1576,-467 1619.02,-467 1630.38,-447.796 1657,-414 1673.16,-393.482 1682.23,-364.883 1687.07,-343.875"/>
<polygon fill="black" stroke="black" points="1690.52,-344.46 1689.17,-333.952 1683.67,-343.01 1690.52,-344.46"/>
<text text-anchor="middle" x="1068" y="-467.8" font-family="Times,serif" font-size="14.00">u0003</text>
</g>
<!-- 8 -->
<g id="node13" class="node"><title>8</title>
<ellipse fill="none" stroke="black" cx="581" cy="-337" rx="18" ry="18"/>
</g>
<!-- 4&#45;&gt;8 -->
<g id="edge9" class="edge"><title>4&#45;&gt;8</title>
<path fill="none" stroke="black" d="M472.471,-414.098C478.731,-403.459 488.046,-389.686 499,-380 515.351,-365.541 537.419,-354.237 554.391,-346.855"/>
<polygon fill="black" stroke="black" points="555.831,-350.046 563.714,-342.967 553.137,-343.586 555.831,-350.046"/>
<text text-anchor="middle" x="522" y="-383.8" font-family="Times,serif" font-size="14.00">u0005</text>
</g>
<!-- 11 -->
<g id="node7" class="node"><title>11</title>
<ellipse fill="none" stroke="black" cx="1068" cy="-409" rx="18" ry="18"/>
</g>
<!-- 7&#45;&gt;11 -->
<g id="edge10" class="edge"><title>7&#45;&gt;11</title>
<path fill="none" stroke="black" d="M658.288,-414.032C680.949,-412.848 721.938,-411 757,-411 757,-411 757,-411 946,-411 978.211,-411 1015.24,-410.283 1039.76,-409.707"/>
<polygon fill="black" stroke="black" points="1039.86,-413.206 1049.77,-409.464 1039.69,-406.208 1039.86,-413.206"/>
<text text-anchor="middle" x="822" y="-414.8" font-family="Times,serif" font-size="14.00">u0005</text>
</g>
<!-- 15 -->
<g id="node8" class="node"><title>15</title>
<ellipse fill="none" stroke="black" cx="1196" cy="-383" rx="18" ry="18"/>
</g>
<!-- 11&#45;&gt;15 -->
<g id="edge11" class="edge"><title>11&#45;&gt;15</title>
<path fill="none" stroke="black" d="M1085.72,-405.137C1092.88,-403.508 1101.34,-401.619 1109,-400 1128.67,-395.845 1150.93,-391.452 1167.88,-388.173"/>
<polygon fill="black" stroke="black" points="1169.01,-391.52 1178.16,-386.193 1167.68,-384.646 1169.01,-391.52"/>
<text text-anchor="middle" x="1132" y="-403.8" font-family="Times,serif" font-size="14.00">u0004</text>
</g>
<!-- 11&#45;&gt;5 -->
<g id="edge12" class="edge"><title>11&#45;&gt;5</title>
<path fill="none" stroke="black" d="M1085.58,-413.34C1109.55,-419.222 1155.35,-429 1195,-429 1195,-429 1195,-429 1576,-429 1625.9,-429 1662.36,-374.688 1680.04,-341.37"/>
<polygon fill="black" stroke="black" points="1683.29,-342.689 1684.72,-332.19 1677.06,-339.51 1683.29,-342.689"/>
<text text-anchor="middle" x="1388" y="-432.8" font-family="Times,serif" font-size="14.00">u0003</text>
</g>
<!-- 19 -->
<g id="node9" class="node"><title>19</title>
<ellipse fill="none" stroke="black" cx="1324" cy="-383" rx="18" ry="18"/>
</g>
<!-- 15&#45;&gt;19 -->
<g id="edge13" class="edge"><title>15&#45;&gt;19</title>
<path fill="none" stroke="black" d="M1214.26,-383C1235.27,-383 1271.03,-383 1295.77,-383"/>
<polygon fill="black" stroke="black" points="1295.95,-386.5 1305.95,-383 1295.95,-379.5 1295.95,-386.5"/>
<text text-anchor="middle" x="1260" y="-386.8" font-family="Times,serif" font-size="14.00">u0005</text>
</g>
<!-- 21 -->
<g id="node10" class="node"><title>21</title>
<ellipse fill="none" stroke="black" cx="1452" cy="-200" rx="18" ry="18"/>
</g>
<!-- 19&#45;&gt;21 -->
<g id="edge14" class="edge"><title>19&#45;&gt;21</title>
<path fill="none" stroke="black" d="M1334.89,-368.64C1356.64,-337.048 1408.8,-261.289 1435.17,-222.992"/>
<polygon fill="black" stroke="black" points="1438.2,-224.768 1440.98,-214.546 1432.43,-220.798 1438.2,-224.768"/>
<text text-anchor="middle" x="1388" y="-327.8" font-family="Times,serif" font-size="14.00">u0005</text>
</g>
<!-- 17 -->
<g id="node11" class="node"><title>17</title>
<ellipse fill="none" stroke="black" cx="1575" cy="-223" rx="18" ry="18"/>
</g>
<!-- 21&#45;&gt;17 -->
<g id="edge15" class="edge"><title>21&#45;&gt;17</title>
<path fill="none" stroke="black" d="M1469.82,-203.198C1489.76,-206.987 1523.24,-213.351 1546.86,-217.84"/>
<polygon fill="black" stroke="black" points="1546.45,-221.326 1556.93,-219.755 1547.76,-214.449 1546.45,-221.326"/>
<text text-anchor="middle" x="1516" y="-220.8" font-family="Times,serif" font-size="14.00">u0005</text>
</g>
<!-- 17&#45;&gt;5 -->
<g id="edge16" class="edge"><title>17&#45;&gt;5</title>
<path fill="none" stroke="black" d="M1592.9,-226.478C1610.58,-230.834 1638.31,-239.776 1657,-256 1667.53,-265.14 1675.69,-278.263 1681.47,-289.907"/>
<polygon fill="black" stroke="black" points="1678.4,-291.606 1685.77,-299.22 1684.75,-288.674 1678.4,-291.606"/>
<text text-anchor="middle" x="1634" y="-259.8" font-family="Times,serif" font-size="14.00">u0003</text>
</g>
<!-- 5&#45;&gt;2 -->
<g id="edge17" class="edge"><title>5&#45;&gt;2</title>
<path fill="none" stroke="black" d="M1704.65,-329.844C1724.76,-355.992 1768.62,-413.005 1794.26,-446.339"/>
<polygon fill="black" stroke="black" points="1791.8,-448.877 1800.67,-454.669 1797.35,-444.609 1791.8,-448.877"/>
<text text-anchor="middle" x="1752" y="-421.8" font-family="Times,serif" font-size="14.00">u0002</text>
</g>
<!-- 8&#45;&gt;5 -->
<g id="edge18" class="edge"><title>8&#45;&gt;5</title>
<path fill="none" stroke="black" d="M599.295,-337C621.962,-337 662.958,-337 698,-337 698,-337 698,-337 1261,-337 1327.68,-337 1344.38,-336.799 1411,-334 1504.28,-330.081 1614.78,-321.991 1664.88,-318.135"/>
<polygon fill="black" stroke="black" points="1665.21,-321.62 1674.91,-317.358 1664.67,-314.641 1665.21,-321.62"/>
<text text-anchor="middle" x="1132" y="-340.8" font-family="Times,serif" font-size="14.00">u0003</text>
</g>
<!-- 12 -->
<g id="node14" class="node"><title>12</title>
<ellipse fill="none" stroke="black" cx="699" cy="-291" rx="18" ry="18"/>
</g>
<!-- 8&#45;&gt;12 -->
<g id="edge19" class="edge"><title>8&#45;&gt;12</title>
<path fill="none" stroke="black" d="M594.235,-324.331C600.521,-318.523 608.613,-312.045 617,-308 633.88,-299.858 654.586,-295.6 670.837,-293.381"/>
<polygon fill="black" stroke="black" points="671.272,-296.854 680.788,-292.198 670.445,-289.903 671.272,-296.854"/>
<text text-anchor="middle" x="640" y="-311.8" font-family="Times,serif" font-size="14.00">u0005</text>
</g>
<!-- 12&#45;&gt;5 -->
<g id="edge21" class="edge"><title>12&#45;&gt;5</title>
<path fill="none" stroke="black" d="M717.229,-291.696C740.694,-292.582 784.016,-294 821,-294 821,-294 821,-294 1133,-294 1245.96,-294 1274.04,-285 1387,-285 1387,-285 1387,-285 1576,-285 1608.14,-285 1643.64,-296.245 1666.8,-305.19"/>
<polygon fill="black" stroke="black" points="1665.63,-308.493 1676.22,-308.966 1668.24,-301.996 1665.63,-308.493"/>
<text text-anchor="middle" x="1196" y="-297.8" font-family="Times,serif" font-size="14.00">u0003</text>
</g>
<!-- 16 -->
<g id="node15" class="node"><title>16</title>
<ellipse fill="none" stroke="black" cx="822" cy="-243" rx="18" ry="18"/>
</g>
<!-- 12&#45;&gt;16 -->
<g id="edge20" class="edge"><title>12&#45;&gt;16</title>
<path fill="none" stroke="black" d="M713.169,-279.302C719.417,-274.274 727.21,-268.712 735,-265 753.665,-256.106 776.385,-250.492 793.784,-247.163"/>
<polygon fill="black" stroke="black" points="794.612,-250.571 803.846,-245.376 793.388,-243.678 794.612,-250.571"/>
<text text-anchor="middle" x="758" y="-268.8" font-family="Times,serif" font-size="14.00">u0004</text>
</g>
<!-- 16&#45;&gt;17 -->
<g id="edge22" class="edge"><title>16&#45;&gt;17</title>
<path fill="none" stroke="black" d="M840.232,-243C863.701,-243 907.028,-243 944,-243 944,-243 944,-243 1133,-243 1313.51,-243 1360.24,-257.08 1539,-232 1541.76,-231.613 1544.61,-231.089 1547.45,-230.488"/>
<polygon fill="black" stroke="black" points="1548.52,-233.83 1557.42,-228.077 1546.88,-227.026 1548.52,-233.83"/>
<text text-anchor="middle" x="1196" y="-247.8" font-family="Times,serif" font-size="14.00">u0004</text>
</g>
<!-- 20 -->
<g id="node16" class="node"><title>20</title>
<ellipse fill="none" stroke="black" cx="945" cy="-193" rx="18" ry="18"/>
</g>
<!-- 16&#45;&gt;20 -->
<g id="edge23" class="edge"><title>16&#45;&gt;20</title>
<path fill="none" stroke="black" d="M836.264,-231.438C843.694,-225.481 853.379,-218.535 863,-214 880.139,-205.921 900.84,-200.623 917.024,-197.37"/>
<polygon fill="black" stroke="black" points="917.738,-200.797 926.924,-195.518 916.451,-193.916 917.738,-200.797"/>
<text text-anchor="middle" x="886" y="-217.8" font-family="Times,serif" font-size="14.00">u0005</text>
</g>
<!-- 22 -->
<g id="node17" class="node"><title>22</title>
<ellipse fill="none" stroke="black" cx="1068" cy="-192" rx="18" ry="18"/>
</g>
<!-- 20&#45;&gt;22 -->
<g id="edge24" class="edge"><title>20&#45;&gt;22</title>
<path fill="none" stroke="black" d="M963.08,-192.859C982.965,-192.695 1016.08,-192.421 1039.58,-192.227"/>
<polygon fill="black" stroke="black" points="1039.64,-195.726 1049.62,-192.144 1039.59,-188.727 1039.64,-195.726"/>
<text text-anchor="middle" x="1004" y="-196.8" font-family="Times,serif" font-size="14.00">u0004</text>
</g>
<!-- 23 -->
<g id="node18" class="node"><title>23</title>
<ellipse fill="none" stroke="black" cx="1196" cy="-189" rx="18" ry="18"/>
</g>
<!-- 22&#45;&gt;23 -->
<g id="edge25" class="edge"><title>22&#45;&gt;23</title>
<path fill="none" stroke="black" d="M1086.26,-191.589C1107.27,-191.089 1143.03,-190.237 1167.77,-189.648"/>
<polygon fill="black" stroke="black" points="1168.04,-193.143 1177.95,-189.406 1167.87,-186.145 1168.04,-193.143"/>
<text text-anchor="middle" x="1132" y="-195.8" font-family="Times,serif" font-size="14.00">u0005</text>
</g>
<!-- 24 -->
<g id="node19" class="node"><title>24</title>
<ellipse fill="none" stroke="black" cx="1324" cy="-200" rx="18" ry="18"/>
</g>
<!-- 23&#45;&gt;24 -->
<g id="edge26" class="edge"><title>23&#45;&gt;24</title>
<path fill="none" stroke="black" d="M1213.99,-190.484C1234.94,-192.312 1270.81,-195.444 1295.65,-197.613"/>
<polygon fill="black" stroke="black" points="1295.61,-201.122 1305.87,-198.505 1296.22,-194.148 1295.61,-201.122"/>
<text text-anchor="middle" x="1260" y="-200.8" font-family="Times,serif" font-size="14.00">u0004</text>
</g>
<!-- 13 -->
<g id="node20" class="node"><title>13</title>
<ellipse fill="none" stroke="black" cx="1452" cy="-146" rx="18" ry="18"/>
</g>
<!-- 24&#45;&gt;13 -->
<g id="edge27" class="edge"><title>24&#45;&gt;13</title>
<path fill="none" stroke="black" d="M1336.23,-186.354C1343.58,-178.324 1353.87,-168.664 1365,-163 1383.31,-153.681 1406.22,-149.463 1423.79,-147.558"/>
<polygon fill="black" stroke="black" points="1424.3,-151.026 1433.95,-146.645 1423.68,-144.054 1424.3,-151.026"/>
<text text-anchor="middle" x="1388" y="-166.8" font-family="Times,serif" font-size="14.00">u0005</text>
</g>
<!-- 13&#45;&gt;17 -->
<g id="edge28" class="edge"><title>13&#45;&gt;17</title>
<path fill="none" stroke="black" d="M1468.98,-152.54C1486.84,-160.214 1516.25,-173.95 1539,-190 1544.46,-193.855 1549.93,-198.526 1554.87,-203.126"/>
<polygon fill="black" stroke="black" points="1552.5,-205.707 1562.11,-210.169 1557.38,-200.688 1552.5,-205.707"/>
<text text-anchor="middle" x="1516" y="-193.8" font-family="Times,serif" font-size="14.00">u0004</text>
</g>
<!-- 6&#45;&gt;5 -->
<g id="edge30" class="edge"><title>6&#45;&gt;5</title>
<path fill="none" stroke="black" d="M954.202,-92.9167C970.944,-62.5965 1012.15,-0 1067,-0 1067,-0 1067,-0 1576,-0 1619.02,-0 1634.08,-16.5919 1657,-53 1681.31,-91.6238 1688.96,-228.043 1691.17,-287.71"/>
<polygon fill="black" stroke="black" points="1687.68,-288.044 1691.52,-297.917 1694.68,-287.802 1687.68,-288.044"/>
<text text-anchor="middle" x="1324" y="-3.8" font-family="Times,serif" font-size="14.00">u0003</text>
</g>
<!-- 9 -->
<g id="node22" class="node"><title>9</title>
<ellipse fill="none" stroke="black" cx="1324" cy="-92" rx="18" ry="18"/>
</g>
<!-- 6&#45;&gt;9 -->
<g id="edge29" class="edge"><title>6&#45;&gt;9</title>
<path fill="none" stroke="black" d="M963.179,-108.225C1022.92,-105.532 1221.95,-96.5566 1295.43,-93.2431"/>
<polygon fill="black" stroke="black" points="1295.89,-96.7262 1305.72,-92.7792 1295.57,-89.7333 1295.89,-96.7262"/>
<text text-anchor="middle" x="1132" y="-105.8" font-family="Times,serif" font-size="14.00">u0004</text>
</g>
<!-- 10 -->
<g id="node23" class="node"><title>10</title>
<ellipse fill="none" stroke="black" cx="1068" cy="-135" rx="18" ry="18"/>
</g>
<!-- 6&#45;&gt;10 -->
<g id="edge31" class="edge"><title>6&#45;&gt;10</title>
<path fill="none" stroke="black" d="M962.825,-112.615C982.872,-116.923 1016.62,-124.174 1040.26,-129.253"/>
<polygon fill="black" stroke="black" points="1039.81,-132.737 1050.32,-131.416 1041.28,-125.893 1039.81,-132.737"/>
<text text-anchor="middle" x="1004" y="-129.8" font-family="Times,serif" font-size="14.00">u0005</text>
</g>
<!-- 9&#45;&gt;5 -->
<g id="edge32" class="edge"><title>9&#45;&gt;5</title>
<path fill="none" stroke="black" d="M1342.16,-93.287C1379.91,-96.7293 1472.14,-108.521 1539,-145 1595.29,-175.709 1617.28,-177.67 1657,-228 1671.12,-245.885 1680.21,-270.192 1685.57,-288.729"/>
<polygon fill="black" stroke="black" points="1682.26,-289.879 1688.25,-298.619 1689.02,-288.052 1682.26,-289.879"/>
<text text-anchor="middle" x="1516" y="-148.8" font-family="Times,serif" font-size="14.00">u0003</text>
</g>
<!-- 9&#45;&gt;13 -->
<g id="edge33" class="edge"><title>9&#45;&gt;13</title>
<path fill="none" stroke="black" d="M1340.7,-98.73C1362.02,-107.865 1400.36,-124.296 1425.74,-135.176"/>
<polygon fill="black" stroke="black" points="1424.53,-138.463 1435.1,-139.185 1427.29,-132.029 1424.53,-138.463"/>
<text text-anchor="middle" x="1388" y="-132.8" font-family="Times,serif" font-size="14.00">u0005</text>
</g>
<!-- 14 -->
<g id="node24" class="node"><title>14</title>
<ellipse fill="none" stroke="black" cx="1196" cy="-135" rx="18" ry="18"/>
</g>
<!-- 10&#45;&gt;14 -->
<g id="edge34" class="edge"><title>10&#45;&gt;14</title>
<path fill="none" stroke="black" d="M1086.26,-135C1107.27,-135 1143.03,-135 1167.77,-135"/>
<polygon fill="black" stroke="black" points="1167.95,-138.5 1177.95,-135 1167.95,-131.5 1167.95,-138.5"/>
<text text-anchor="middle" x="1132" y="-138.8" font-family="Times,serif" font-size="14.00">u0004</text>
</g>
<!-- 14&#45;&gt;5 -->
<g id="edge35" class="edge"><title>14&#45;&gt;5</title>
<path fill="none" stroke="black" d="M1207.35,-120.701C1226.89,-95.5424 1271.85,-46 1323,-46 1323,-46 1323,-46 1576,-46 1680.36,-46 1692.01,-218.39 1692.47,-287.673"/>
<polygon fill="black" stroke="black" points="1688.97,-287.862 1692.46,-297.865 1695.97,-287.868 1688.97,-287.862"/>
<text text-anchor="middle" x="1452" y="-49.8" font-family="Times,serif" font-size="14.00">u0003</text>
</g>
<!-- 18 -->
<g id="node25" class="node"><title>18</title>
<ellipse fill="none" stroke="black" cx="1324" cy="-146" rx="18" ry="18"/>
</g>
<!-- 14&#45;&gt;18 -->
<g id="edge36" class="edge"><title>14&#45;&gt;18</title>
<path fill="none" stroke="black" d="M1213.99,-136.484C1234.94,-138.312 1270.81,-141.444 1295.65,-143.613"/>
<polygon fill="black" stroke="black" points="1295.61,-147.122 1305.87,-144.505 1296.22,-140.148 1295.61,-147.122"/>
<text text-anchor="middle" x="1260" y="-146.8" font-family="Times,serif" font-size="14.00">u0005</text>
</g>
<!-- 18&#45;&gt;21 -->
<g id="edge37" class="edge"><title>18&#45;&gt;21</title>
<path fill="none" stroke="black" d="M1337.36,-158.19C1344.81,-164.92 1354.81,-172.92 1365,-178 1383.62,-187.284 1406.51,-192.894 1424,-196.123"/>
<polygon fill="black" stroke="black" points="1423.65,-199.615 1434.1,-197.838 1424.82,-192.714 1423.65,-199.615"/>
<text text-anchor="middle" x="1388" y="-197.8" font-family="Times,serif" font-size="14.00">u0004</text>
</g>
<!-- initial -->
<g id="node26" class="node"><title>initial</title>
</g>
<!-- initial&#45;&gt;0 -->
<g id="edge38" class="edge"><title>initial&#45;&gt;0</title>
<path fill="none" stroke="black" d="M54.195,-510C62.6538,-510 72.0513,-510 80.5951,-510"/>
<polygon fill="black" stroke="black" points="80.8257,-513.5 90.8257,-510 80.8257,-506.5 80.8257,-513.5"/>
</g>
</g>
</svg>
