<svg width="2316px" height="863px"
 viewBox="0.00 0.00 1737.00 647.00" xmlns="http://www.w3.org/2000/svg" xmlns:xlink="http://www.w3.org/1999/xlink">
<g id="graph0" class="graph" transform="scale(1.000022500562514 1.000022500562514) rotate(0) translate(4 643)">
<title>Automaton</title>
<polygon fill="white" stroke="none" points="-4,4 -4,-643 1733,-643 1733,4 -4,4"/>
<!-- 0 -->
<g id="node1" class="node"><title>0</title>
<ellipse fill="none" stroke="black" cx="109" cy="-205" rx="18" ry="18"/>
</g>
<!-- 1 -->
<g id="node2" class="node"><title>1</title>
<ellipse fill="none" stroke="black" cx="227" cy="-205" rx="18" ry="18"/>
</g>
<!-- 0&#45;&gt;1 -->
<g id="edge1" class="edge"><title>0&#45;&gt;1</title>
<path fill="none" stroke="black" d="M127.116,-205C145.964,-205 176.531,-205 198.696,-205"/>
<polygon fill="black" stroke="black" points="198.814,-208.5 208.814,-205 198.814,-201.5 198.814,-208.5"/>
<text text-anchor="middle" x="168" y="-208.8" font-family="Times,serif" font-size="14.00">u0002</text>
</g>
<!-- 2 -->
<g id="node3" class="node"><title>2</title>
<ellipse fill="none" stroke="black" cx="345" cy="-205" rx="18" ry="18"/>
</g>
<!-- 1&#45;&gt;2 -->
<g id="edge2" class="edge"><title>1&#45;&gt;2</title>
<path fill="none" stroke="black" d="M245.116,-205C263.964,-205 294.531,-205 316.696,-205"/>
<polygon fill="black" stroke="black" points="316.814,-208.5 326.814,-205 316.814,-201.5 316.814,-208.5"/>
<text text-anchor="middle" x="286" y="-208.8" font-family="Times,serif" font-size="14.00">u0005</text>
</g>
<!-- 3 -->
<g id="node4" class="node"><title>3</title>
<ellipse fill="none" stroke="black" cx="699" cy="-328" rx="18" ry="18"/>
</g>
<!-- 2&#45;&gt;3 -->
<g id="edge3" class="edge"><title>2&#45;&gt;3</title>
<path fill="none" stroke="black" d="M362.506,-210.768C418.744,-230.419 603.187,-294.869 671.897,-318.879"/>
<polygon fill="black" stroke="black" points="670.935,-322.25 681.53,-322.245 673.244,-315.642 670.935,-322.25"/>
<text text-anchor="middle" x="522" y="-276.8" font-family="Times,serif" font-size="14.00">u0005</text>
</g>
<!-- 4 -->
<g id="node23" class="node"><title>4</title>
<ellipse fill="none" stroke="black" cx="463" cy="-174" rx="18" ry="18"/>
</g>
<!-- 2&#45;&gt;4 -->
<g id="edge4" class="edge"><title>2&#45;&gt;4</title>
<path fill="none" stroke="black" d="M361.822,-197.994C367.756,-195.547 374.61,-192.932 381,-191 398.656,-185.66 418.973,-181.401 434.843,-178.481"/>
<polygon fill="black" stroke="black" points="435.795,-181.867 445.031,-176.677 434.574,-174.974 435.795,-181.867"/>
<text text-anchor="middle" x="404" y="-194.8" font-family="Times,serif" font-size="14.00">u0000</text>
</g>
<!-- 5 -->
<g id="node5" class="node"><title>5</title>
<ellipse fill="none" stroke="black" cx="817" cy="-419" rx="18" ry="18"/>
</g>
<!-- 3&#45;&gt;5 -->
<g id="edge5" class="edge"><title>3&#45;&gt;5</title>
<path fill="none" stroke="black" d="M713.762,-338.796C733.646,-354.394 770.606,-383.389 794.217,-401.912"/>
<polygon fill="black" stroke="black" points="792.227,-404.799 802.256,-408.218 796.548,-399.292 792.227,-404.799"/>
<text text-anchor="middle" x="758" y="-392.8" font-family="Times,serif" font-size="14.00">u0005</text>
</g>
<!-- 6 -->
<g id="node18" class="node"><title>6</title>
<ellipse fill="none" stroke="black" cx="876" cy="-328" rx="18" ry="18"/>
</g>
<!-- 3&#45;&gt;6 -->
<g id="edge6" class="edge"><title>3&#45;&gt;6</title>
<path fill="none" stroke="black" d="M717.098,-328C747.418,-328 810.844,-328 847.412,-328"/>
<polygon fill="black" stroke="black" points="847.832,-331.5 857.832,-328 847.832,-324.5 847.832,-331.5"/>
<text text-anchor="middle" x="758" y="-331.8" font-family="Times,serif" font-size="14.00">u0000</text>
</g>
<!-- 8 -->
<g id="node6" class="node"><title>8</title>
<ellipse fill="none" stroke="black" cx="940" cy="-525" rx="18" ry="18"/>
</g>
<!-- 5&#45;&gt;8 -->
<g id="edge7" class="edge"><title>5&#45;&gt;8</title>
<path fill="none" stroke="black" d="M831.411,-430.749C852.418,-449.152 893.248,-484.919 918.123,-506.711"/>
<polygon fill="black" stroke="black" points="916.068,-509.564 925.896,-513.521 920.681,-504.299 916.068,-509.564"/>
<text text-anchor="middle" x="876" y="-490.8" font-family="Times,serif" font-size="14.00">u0005</text>
</g>
<!-- 9 -->
<g id="node15" class="node"><title>9</title>
<ellipse fill="none" stroke="black" cx="1004" cy="-419" rx="18" ry="18"/>
</g>
<!-- 5&#45;&gt;9 -->
<g id="edge8" class="edge"><title>5&#45;&gt;9</title>
<path fill="none" stroke="black" d="M835.073,-419C867.287,-419 937.268,-419 975.947,-419"/>
<polygon fill="black" stroke="black" points="975.969,-422.5 985.969,-419 975.968,-415.5 975.969,-422.5"/>
<text text-anchor="middle" x="876" y="-422.8" font-family="Times,serif" font-size="14.00">u0000</text>
</g>
<!-- 13 -->
<g id="node7" class="node"><title>13</title>
<ellipse fill="none" stroke="black" cx="1068" cy="-525" rx="18" ry="18"/>
</g>
<!-- 8&#45;&gt;13 -->
<g id="edge9" class="edge"><title>8&#45;&gt;13</title>
<path fill="none" stroke="black" d="M958.256,-525C979.274,-525 1015.03,-525 1039.77,-525"/>
<polygon fill="black" stroke="black" points="1039.95,-528.5 1049.95,-525 1039.95,-521.5 1039.95,-528.5"/>
<text text-anchor="middle" x="1004" y="-528.8" font-family="Times,serif" font-size="14.00">u0005</text>
</g>
<!-- 14 -->
<g id="node12" class="node"><title>14</title>
<ellipse fill="none" stroke="black" cx="1068" cy="-579" rx="18" ry="18"/>
</g>
<!-- 8&#45;&gt;14 -->
<g id="edge10" class="edge"><title>8&#45;&gt;14</title>
<path fill="none" stroke="black" d="M956.482,-532.606C963.861,-536.166 972.839,-540.404 981,-544 1001.22,-552.91 1024.45,-562.314 1041.66,-569.128"/>
<polygon fill="black" stroke="black" points="1040.45,-572.411 1051.04,-572.818 1043.01,-565.898 1040.45,-572.411"/>
<text text-anchor="middle" x="1004" y="-565.8" font-family="Times,serif" font-size="14.00">u0000</text>
</g>
<!-- 18 -->
<g id="node8" class="node"><title>18</title>
<ellipse fill="none" stroke="black" cx="1260" cy="-527" rx="18" ry="18"/>
</g>
<!-- 13&#45;&gt;18 -->
<g id="edge11" class="edge"><title>13&#45;&gt;18</title>
<path fill="none" stroke="black" d="M1086.2,-525.181C1119.33,-525.53 1192.25,-526.297 1231.95,-526.715"/>
<polygon fill="black" stroke="black" points="1231.94,-530.215 1241.98,-526.821 1232.02,-523.216 1231.94,-530.215"/>
<text text-anchor="middle" x="1132" y="-528.8" font-family="Times,serif" font-size="14.00">u0000</text>
</g>
<!-- 23 -->
<g id="node9" class="node"><title>23</title>
<ellipse fill="none" stroke="black" cx="1452" cy="-523" rx="18" ry="18"/>
</g>
<!-- 18&#45;&gt;23 -->
<g id="edge12" class="edge"><title>18&#45;&gt;23</title>
<path fill="none" stroke="black" d="M1278.2,-526.638C1311.33,-525.94 1384.25,-524.405 1423.95,-523.569"/>
<polygon fill="black" stroke="black" points="1424.06,-527.068 1433.98,-523.358 1423.91,-520.07 1424.06,-527.068"/>
<text text-anchor="middle" x="1324" y="-529.8" font-family="Times,serif" font-size="14.00">u0001</text>
</g>
<!-- 11 -->
<g id="node10" class="node"><title>11</title>
<ellipse fill="none" stroke="black" cx="1707" cy="-305" rx="18" ry="18"/>
<ellipse fill="none" stroke="black" cx="1707" cy="-305" rx="22" ry="22"/>
</g>
<!-- 23&#45;&gt;11 -->
<g id="edge13" class="edge"><title>23&#45;&gt;11</title>
<path fill="none" stroke="black" d="M1469.88,-526.231C1509.97,-532.841 1611.67,-543.201 1667,-491 1688.92,-470.319 1699.42,-384.437 1703.63,-336.94"/>
<polygon fill="black" stroke="black" points="1707.13,-337.127 1704.48,-326.868 1700.15,-336.538 1707.13,-337.127"/>
<text text-anchor="middle" x="1580" y="-534.8" font-family="Times,serif" font-size="14.00">u0004</text>
</g>
<!-- 27 -->
<g id="node11" class="node"><title>27</title>
<ellipse fill="none" stroke="black" cx="1580" cy="-389" rx="18" ry="18"/>
</g>
<!-- 23&#45;&gt;27 -->
<g id="edge14" class="edge"><title>23&#45;&gt;27</title>
<path fill="none" stroke="black" d="M1458.02,-505.704C1463.98,-487.609 1475.37,-459.214 1493,-440 1509.81,-421.675 1534.74,-407.889 1553.43,-399.3"/>
<polygon fill="black" stroke="black" points="1555.07,-402.401 1562.82,-395.177 1552.26,-395.992 1555.07,-402.401"/>
<text text-anchor="middle" x="1516" y="-443.8" font-family="Times,serif" font-size="14.00">u0003</text>
</g>
<!-- 27&#45;&gt;11 -->
<g id="edge15" class="edge"><title>27&#45;&gt;11</title>
<path fill="none" stroke="black" d="M1597.89,-385.709C1616.3,-381.48 1645.94,-372.735 1667,-357 1675.81,-350.414 1683.57,-341.302 1689.8,-332.543"/>
<polygon fill="black" stroke="black" points="1692.85,-334.269 1695.5,-324.009 1687.03,-330.381 1692.85,-334.269"/>
<text text-anchor="middle" x="1644" y="-381.8" font-family="Times,serif" font-size="14.00">u0004</text>
</g>
<!-- 19 -->
<g id="node13" class="node"><title>19</title>
<ellipse fill="none" stroke="black" cx="1196" cy="-579" rx="18" ry="18"/>
</g>
<!-- 14&#45;&gt;19 -->
<g id="edge16" class="edge"><title>14&#45;&gt;19</title>
<path fill="none" stroke="black" d="M1086.26,-579C1107.27,-579 1143.03,-579 1167.77,-579"/>
<polygon fill="black" stroke="black" points="1167.95,-582.5 1177.95,-579 1167.95,-575.5 1167.95,-582.5"/>
<text text-anchor="middle" x="1132" y="-582.8" font-family="Times,serif" font-size="14.00">u0001</text>
</g>
<!-- 19&#45;&gt;11 -->
<g id="edge17" class="edge"><title>19&#45;&gt;11</title>
<path fill="none" stroke="black" d="M1211.9,-588.106C1234.88,-601.256 1280.72,-624 1323,-624 1323,-624 1323,-624 1581,-624 1641.67,-624 1641.64,-573.109 1667,-518 1694.53,-458.183 1702.65,-380.508 1705.03,-337.413"/>
<polygon fill="black" stroke="black" points="1708.53,-337.391 1705.51,-327.234 1701.54,-337.054 1708.53,-337.391"/>
<text text-anchor="middle" x="1452" y="-627.8" font-family="Times,serif" font-size="14.00">u0004</text>
</g>
<!-- 24 -->
<g id="node14" class="node"><title>24</title>
<ellipse fill="none" stroke="black" cx="1324" cy="-578" rx="18" ry="18"/>
</g>
<!-- 19&#45;&gt;24 -->
<g id="edge18" class="edge"><title>19&#45;&gt;24</title>
<path fill="none" stroke="black" d="M1214.26,-578.863C1235.27,-578.696 1271.03,-578.412 1295.77,-578.216"/>
<polygon fill="black" stroke="black" points="1295.98,-581.715 1305.95,-578.135 1295.93,-574.715 1295.98,-581.715"/>
<text text-anchor="middle" x="1260" y="-581.8" font-family="Times,serif" font-size="14.00">u0003</text>
</g>
<!-- 24&#45;&gt;23 -->
<g id="edge19" class="edge"><title>24&#45;&gt;23</title>
<path fill="none" stroke="black" d="M1340.88,-571.259C1358.17,-563.902 1386.6,-551.737 1411,-541 1415.72,-538.924 1420.74,-536.687 1425.57,-534.52"/>
<polygon fill="black" stroke="black" points="1427.39,-537.541 1435.07,-530.243 1424.51,-531.158 1427.39,-537.541"/>
<text text-anchor="middle" x="1388" y="-563.8" font-family="Times,serif" font-size="14.00">u0003</text>
</g>
<!-- 15 -->
<g id="node16" class="node"><title>15</title>
<ellipse fill="none" stroke="black" cx="1196" cy="-419" rx="18" ry="18"/>
</g>
<!-- 9&#45;&gt;15 -->
<g id="edge20" class="edge"><title>9&#45;&gt;15</title>
<path fill="none" stroke="black" d="M1022.2,-419C1055.33,-419 1128.25,-419 1167.95,-419"/>
<polygon fill="black" stroke="black" points="1167.98,-422.5 1177.98,-419 1167.98,-415.5 1167.98,-422.5"/>
<text text-anchor="middle" x="1068" y="-422.8" font-family="Times,serif" font-size="14.00">u0001</text>
</g>
<!-- 15&#45;&gt;11 -->
<g id="edge21" class="edge"><title>15&#45;&gt;11</title>
<path fill="none" stroke="black" d="M1214.05,-419.156C1286.16,-419.779 1564.22,-421.781 1603,-416 1632.35,-411.625 1644.87,-416.77 1667,-397 1684.52,-381.35 1694.41,-356.519 1699.85,-336.596"/>
<polygon fill="black" stroke="black" points="1703.29,-337.248 1702.3,-326.7 1696.5,-335.564 1703.29,-337.248"/>
<text text-anchor="middle" x="1452" y="-422.8" font-family="Times,serif" font-size="14.00">u0004</text>
</g>
<!-- 20 -->
<g id="node17" class="node"><title>20</title>
<ellipse fill="none" stroke="black" cx="1324" cy="-464" rx="18" ry="18"/>
</g>
<!-- 15&#45;&gt;20 -->
<g id="edge22" class="edge"><title>15&#45;&gt;20</title>
<path fill="none" stroke="black" d="M1213.21,-424.791C1234.48,-432.385 1272.03,-445.797 1297.22,-454.792"/>
<polygon fill="black" stroke="black" points="1296.25,-458.164 1306.85,-458.231 1298.61,-451.572 1296.25,-458.164"/>
<text text-anchor="middle" x="1260" y="-452.8" font-family="Times,serif" font-size="14.00">u0003</text>
</g>
<!-- 20&#45;&gt;23 -->
<g id="edge24" class="edge"><title>20&#45;&gt;23</title>
<path fill="none" stroke="black" d="M1341.23,-469.419C1358.81,-475.517 1387.5,-486.133 1411,-498 1416.62,-500.837 1422.47,-504.225 1427.91,-507.577"/>
<polygon fill="black" stroke="black" points="1426.24,-510.663 1436.55,-513.08 1430,-504.757 1426.24,-510.663"/>
<text text-anchor="middle" x="1388" y="-501.8" font-family="Times,serif" font-size="14.00">u0003</text>
</g>
<!-- 20&#45;&gt;11 -->
<g id="edge23" class="edge"><title>20&#45;&gt;11</title>
<path fill="none" stroke="black" d="M1342.03,-465.788C1404,-471.919 1616.49,-489.561 1667,-449 1684.35,-435.066 1695.98,-374.953 1701.75,-336.936"/>
<polygon fill="black" stroke="black" points="1705.24,-337.257 1703.22,-326.856 1698.32,-336.245 1705.24,-337.257"/>
<text text-anchor="middle" x="1516" y="-477.8" font-family="Times,serif" font-size="14.00">u0004</text>
</g>
<!-- 10 -->
<g id="node19" class="node"><title>10</title>
<ellipse fill="none" stroke="black" cx="1068" cy="-328" rx="18" ry="18"/>
</g>
<!-- 6&#45;&gt;10 -->
<g id="edge25" class="edge"><title>6&#45;&gt;10</title>
<path fill="none" stroke="black" d="M894.196,-328C927.332,-328 1000.25,-328 1039.95,-328"/>
<polygon fill="black" stroke="black" points="1039.98,-331.5 1049.98,-328 1039.98,-324.5 1039.98,-331.5"/>
<text text-anchor="middle" x="940" y="-331.8" font-family="Times,serif" font-size="14.00">u0001</text>
</g>
<!-- 10&#45;&gt;11 -->
<g id="edge26" class="edge"><title>10&#45;&gt;11</title>
<path fill="none" stroke="black" d="M1085.49,-333.642C1109.35,-341.288 1155.02,-354 1195,-354 1195,-354 1195,-354 1389,-354 1513.53,-354 1545.89,-347.989 1667,-319 1670.22,-318.23 1673.54,-317.284 1676.82,-316.251"/>
<polygon fill="black" stroke="black" points="1678.08,-319.52 1686.42,-312.978 1675.82,-312.895 1678.08,-319.52"/>
<text text-anchor="middle" x="1388" y="-357.8" font-family="Times,serif" font-size="14.00">u0004</text>
</g>
<!-- 16 -->
<g id="node20" class="node"><title>16</title>
<ellipse fill="none" stroke="black" cx="1196" cy="-308" rx="18" ry="18"/>
</g>
<!-- 10&#45;&gt;16 -->
<g id="edge27" class="edge"><title>10&#45;&gt;16</title>
<path fill="none" stroke="black" d="M1085.99,-325.303C1107.03,-321.963 1143.13,-316.233 1167.99,-312.288"/>
<polygon fill="black" stroke="black" points="1168.55,-315.743 1177.87,-310.718 1167.45,-308.829 1168.55,-315.743"/>
<text text-anchor="middle" x="1132" y="-324.8" font-family="Times,serif" font-size="14.00">u0003</text>
</g>
<!-- 16&#45;&gt;11 -->
<g id="edge28" class="edge"><title>16&#45;&gt;11</title>
<path fill="none" stroke="black" d="M1214.23,-307.898C1288.05,-307.463 1578.31,-305.753 1674.7,-305.184"/>
<polygon fill="black" stroke="black" points="1674.98,-308.683 1684.96,-305.124 1674.94,-301.683 1674.98,-308.683"/>
<text text-anchor="middle" x="1452" y="-309.8" font-family="Times,serif" font-size="14.00">u0004</text>
</g>
<!-- 21 -->
<g id="node21" class="node"><title>21</title>
<ellipse fill="none" stroke="black" cx="1324" cy="-243" rx="18" ry="18"/>
</g>
<!-- 16&#45;&gt;21 -->
<g id="edge29" class="edge"><title>16&#45;&gt;21</title>
<path fill="none" stroke="black" d="M1211.12,-298.076C1218.64,-292.986 1228.14,-286.854 1237,-282 1256.83,-271.138 1280.26,-260.659 1297.65,-253.304"/>
<polygon fill="black" stroke="black" points="1299.24,-256.434 1307.12,-249.355 1296.54,-249.974 1299.24,-256.434"/>
<text text-anchor="middle" x="1260" y="-285.8" font-family="Times,serif" font-size="14.00">u0003</text>
</g>
<!-- 21&#45;&gt;11 -->
<g id="edge30" class="edge"><title>21&#45;&gt;11</title>
<path fill="none" stroke="black" d="M1341.87,-240.235C1362.4,-237.024 1398.13,-231.922 1429,-230 1537.99,-223.215 1563.56,-256.015 1667,-291 1670.13,-292.06 1673.4,-293.191 1676.65,-294.334"/>
<polygon fill="black" stroke="black" points="1675.61,-297.679 1686.21,-297.735 1677.96,-291.085 1675.61,-297.679"/>
<text text-anchor="middle" x="1516" y="-243.8" font-family="Times,serif" font-size="14.00">u0004</text>
</g>
<!-- 25 -->
<g id="node22" class="node"><title>25</title>
<ellipse fill="none" stroke="black" cx="1452" cy="-257" rx="18" ry="18"/>
</g>
<!-- 21&#45;&gt;25 -->
<g id="edge31" class="edge"><title>21&#45;&gt;25</title>
<path fill="none" stroke="black" d="M1341.99,-244.888C1362.94,-247.216 1398.81,-251.201 1423.65,-253.962"/>
<polygon fill="black" stroke="black" points="1423.55,-257.471 1433.87,-255.097 1424.32,-250.514 1423.55,-257.471"/>
<text text-anchor="middle" x="1388" y="-255.8" font-family="Times,serif" font-size="14.00">u0003</text>
</g>
<!-- 25&#45;&gt;27 -->
<g id="edge32" class="edge"><title>25&#45;&gt;27</title>
<path fill="none" stroke="black" d="M1465.08,-269.657C1486.95,-292.562 1533.25,-341.069 1559.59,-368.67"/>
<polygon fill="black" stroke="black" points="1557.33,-371.371 1566.77,-376.188 1562.4,-366.537 1557.33,-371.371"/>
<text text-anchor="middle" x="1516" y="-349.8" font-family="Times,serif" font-size="14.00">u0003</text>
</g>
<!-- 7 -->
<g id="node24" class="node"><title>7</title>
<ellipse fill="none" stroke="black" cx="581" cy="-66" rx="18" ry="18"/>
</g>
<!-- 4&#45;&gt;7 -->
<g id="edge33" class="edge"><title>4&#45;&gt;7</title>
<path fill="none" stroke="black" d="M476.857,-162.029C496.89,-143.378 535.727,-107.22 559.608,-84.9854"/>
<polygon fill="black" stroke="black" points="562.151,-87.4 567.085,-78.0242 557.381,-82.2767 562.151,-87.4"/>
<text text-anchor="middle" x="522" y="-143.8" font-family="Times,serif" font-size="14.00">u0001</text>
</g>
<!-- 7&#45;&gt;11 -->
<g id="edge34" class="edge"><title>7&#45;&gt;11</title>
<path fill="none" stroke="black" d="M594.249,-53.2745C614.093,-34.0957 655.366,-0 698,-0 698,-0 698,-0 1581,-0 1624.77,-0 1642.06,-12.0259 1667,-48 1691.86,-83.8627 1701.42,-212.203 1704.6,-272.836"/>
<polygon fill="black" stroke="black" points="1701.12,-273.178 1705.11,-282.991 1708.11,-272.829 1701.12,-273.178"/>
<text text-anchor="middle" x="1132" y="-3.8" font-family="Times,serif" font-size="14.00">u0004</text>
</g>
<!-- 12 -->
<g id="node25" class="node"><title>12</title>
<ellipse fill="none" stroke="black" cx="699" cy="-66" rx="18" ry="18"/>
</g>
<!-- 7&#45;&gt;12 -->
<g id="edge35" class="edge"><title>7&#45;&gt;12</title>
<path fill="none" stroke="black" d="M599.116,-66C617.964,-66 648.531,-66 670.696,-66"/>
<polygon fill="black" stroke="black" points="670.814,-69.5001 680.814,-66 670.814,-62.5001 670.814,-69.5001"/>
<text text-anchor="middle" x="640" y="-69.8" font-family="Times,serif" font-size="14.00">u0003</text>
</g>
<!-- 12&#45;&gt;11 -->
<g id="edge36" class="edge"><title>12&#45;&gt;11</title>
<path fill="none" stroke="black" d="M716.749,-61.2603C739.162,-55.346 780.237,-46 816,-46 816,-46 816,-46 1581,-46 1624.56,-46 1641.47,-57.7089 1667,-93 1687.47,-121.296 1698.82,-221.019 1703.47,-272.978"/>
<polygon fill="black" stroke="black" points="1699.99,-273.337 1704.34,-282.998 1706.96,-272.734 1699.99,-273.337"/>
<text text-anchor="middle" x="1196" y="-49.8" font-family="Times,serif" font-size="14.00">u0004</text>
</g>
<!-- 17 -->
<g id="node26" class="node"><title>17</title>
<ellipse fill="none" stroke="black" cx="817" cy="-92" rx="18" ry="18"/>
</g>
<!-- 12&#45;&gt;17 -->
<g id="edge37" class="edge"><title>12&#45;&gt;17</title>
<path fill="none" stroke="black" d="M716.62,-69.7252C735.549,-73.9678 766.746,-80.9604 789.14,-85.9797"/>
<polygon fill="black" stroke="black" points="788.51,-89.4253 799.034,-88.1972 790.041,-82.5947 788.51,-89.4253"/>
<text text-anchor="middle" x="758" y="-87.8" font-family="Times,serif" font-size="14.00">u0003</text>
</g>
<!-- 17&#45;&gt;11 -->
<g id="edge38" class="edge"><title>17&#45;&gt;11</title>
<path fill="none" stroke="black" d="M835.229,-91.3042C858.694,-90.418 902.016,-89 939,-89 939,-89 939,-89 1581,-89 1626.13,-89 1640.66,-106.351 1667,-143 1694.85,-181.745 1703,-237.811 1705.28,-272.796"/>
<polygon fill="black" stroke="black" points="1701.79,-273.132 1705.81,-282.934 1708.78,-272.764 1701.79,-273.132"/>
<text text-anchor="middle" x="1260" y="-92.8" font-family="Times,serif" font-size="14.00">u0004</text>
</g>
<!-- 22 -->
<g id="node27" class="node"><title>22</title>
<ellipse fill="none" stroke="black" cx="940" cy="-135" rx="18" ry="18"/>
</g>
<!-- 17&#45;&gt;22 -->
<g id="edge39" class="edge"><title>17&#45;&gt;22</title>
<path fill="none" stroke="black" d="M834.319,-97.7992C854.526,-104.98 889.191,-117.299 913.059,-125.781"/>
<polygon fill="black" stroke="black" points="911.959,-129.105 922.554,-129.155 914.303,-122.509 911.959,-129.105"/>
<text text-anchor="middle" x="876" y="-123.8" font-family="Times,serif" font-size="14.00">u0003</text>
</g>
<!-- 22&#45;&gt;11 -->
<g id="edge40" class="edge"><title>22&#45;&gt;11</title>
<path fill="none" stroke="black" d="M958.119,-135C982.357,-135 1028.06,-135 1067,-135 1067,-135 1067,-135 1581,-135 1649.06,-135 1684.17,-224.535 1698.31,-273.649"/>
<polygon fill="black" stroke="black" points="1694.98,-274.757 1701.01,-283.469 1701.73,-272.899 1694.98,-274.757"/>
<text text-anchor="middle" x="1324" y="-138.8" font-family="Times,serif" font-size="14.00">u0004</text>
</g>
<!-- 26 -->
<g id="node28" class="node"><title>26</title>
<ellipse fill="none" stroke="black" cx="1068" cy="-181" rx="18" ry="18"/>
</g>
<!-- 22&#45;&gt;26 -->
<g id="edge41" class="edge"><title>22&#45;&gt;26</title>
<path fill="none" stroke="black" d="M957.214,-140.92C978.478,-148.683 1016.03,-162.393 1041.22,-171.587"/>
<polygon fill="black" stroke="black" points="1040.25,-174.961 1050.85,-175.103 1042.65,-168.386 1040.25,-174.961"/>
<text text-anchor="middle" x="1004" y="-170.8" font-family="Times,serif" font-size="14.00">u0003</text>
</g>
<!-- 26&#45;&gt;11 -->
<g id="edge42" class="edge"><title>26&#45;&gt;11</title>
<path fill="none" stroke="black" d="M1086.16,-180.477C1153.85,-178.931 1408.23,-178.001 1603,-243 1632.28,-252.773 1640.93,-253.463 1667,-270 1672.65,-273.582 1678.27,-277.992 1683.41,-282.46"/>
<polygon fill="black" stroke="black" points="1681.28,-285.261 1691.03,-289.417 1686,-280.09 1681.28,-285.261"/>
<text text-anchor="middle" x="1388" y="-203.8" font-family="Times,serif" font-size="14.00">u0004</text>
</g>
<!-- 28 -->
<g id="node29" class="node"><title>28</title>
<ellipse fill="none" stroke="black" cx="1196" cy="-233" rx="18" ry="18"/>
</g>
<!-- 26&#45;&gt;28 -->
<g id="edge43" class="edge"><title>26&#45;&gt;28</title>
<path fill="none" stroke="black" d="M1084.96,-187.586C1106.35,-196.416 1144.57,-212.188 1169.86,-222.623"/>
<polygon fill="black" stroke="black" points="1168.59,-225.888 1179.17,-226.468 1171.26,-219.417 1168.59,-225.888"/>
<text text-anchor="middle" x="1132" y="-219.8" font-family="Times,serif" font-size="14.00">u0003</text>
</g>
<!-- 28&#45;&gt;21 -->
<g id="edge44" class="edge"><title>28&#45;&gt;21</title>
<path fill="none" stroke="black" d="M1213.99,-234.349C1234.94,-236.011 1270.81,-238.858 1295.65,-240.83"/>
<polygon fill="black" stroke="black" points="1295.63,-244.339 1305.87,-241.641 1296.18,-237.361 1295.63,-244.339"/>
<text text-anchor="middle" x="1260" y="-242.8" font-family="Times,serif" font-size="14.00">u0003</text>
</g>
<!-- initial -->
<g id="node30" class="node"><title>initial</title>
</g>
<!-- initial&#45;&gt;0 -->
<g id="edge45" class="edge"><title>initial&#45;&gt;0</title>
<path fill="none" stroke="black" d="M54.195,-205C62.6538,-205 72.0513,-205 80.5951,-205"/>
<polygon fill="black" stroke="black" points="80.8257,-208.5 90.8257,-205 80.8257,-201.5 80.8257,-208.5"/>
</g>
</g>
</svg>
