<svg width="4399px" height="1280px"
 viewBox="0.00 0.00 3299.00 960.00" xmlns="http://www.w3.org/2000/svg" xmlns:xlink="http://www.w3.org/1999/xlink">
<g id="graph0" class="graph" transform="scale(1.000022500562514 1.000022500562514) rotate(0) translate(4 956)">
<title>Automaton</title>
<polygon fill="white" stroke="none" points="-4,4 -4,-956 3295,-956 3295,4 -4,4"/>
<!-- 0 -->
<g id="node1" class="node"><title>0</title>
<ellipse fill="none" stroke="black" cx="109" cy="-351" rx="18" ry="18"/>
</g>
<!-- 1 -->
<g id="node2" class="node"><title>1</title>
<ellipse fill="none" stroke="black" cx="227" cy="-351" rx="18" ry="18"/>
</g>
<!-- 0&#45;&gt;1 -->
<g id="edge1" class="edge"><title>0&#45;&gt;1</title>
<path fill="none" stroke="black" d="M127.116,-351C145.964,-351 176.531,-351 198.696,-351"/>
<polygon fill="black" stroke="black" points="198.814,-354.5 208.814,-351 198.814,-347.5 198.814,-354.5"/>
<text text-anchor="middle" x="168" y="-354.8" font-family="Times,serif" font-size="14.00">u0007</text>
</g>
<!-- 2 -->
<g id="node3" class="node"><title>2</title>
<ellipse fill="none" stroke="black" cx="345" cy="-351" rx="18" ry="18"/>
</g>
<!-- 1&#45;&gt;2 -->
<g id="edge2" class="edge"><title>1&#45;&gt;2</title>
<path fill="none" stroke="black" d="M245.116,-351C263.964,-351 294.531,-351 316.696,-351"/>
<polygon fill="black" stroke="black" points="316.814,-354.5 326.814,-351 316.814,-347.5 316.814,-354.5"/>
<text text-anchor="middle" x="286" y="-354.8" font-family="Times,serif" font-size="14.00">u0009</text>
</g>
<!-- 3 -->
<g id="node4" class="node"><title>3</title>
<ellipse fill="none" stroke="black" cx="462" cy="-351" rx="18" ry="18"/>
</g>
<!-- 2&#45;&gt;3 -->
<g id="edge3" class="edge"><title>2&#45;&gt;3</title>
<path fill="none" stroke="black" d="M363.466,-351C382.064,-351 411.756,-351 433.499,-351"/>
<polygon fill="black" stroke="black" points="433.746,-354.5 443.746,-351 433.746,-347.5 433.746,-354.5"/>
<text text-anchor="middle" x="403.5" y="-354.8" font-family="Times,serif" font-size="14.00">u000a</text>
</g>
<!-- 4 -->
<g id="node5" class="node"><title>4</title>
<ellipse fill="none" stroke="black" cx="580" cy="-351" rx="18" ry="18"/>
</g>
<!-- 3&#45;&gt;4 -->
<g id="edge4" class="edge"><title>3&#45;&gt;4</title>
<path fill="none" stroke="black" d="M480.116,-351C498.964,-351 529.531,-351 551.696,-351"/>
<polygon fill="black" stroke="black" points="551.814,-354.5 561.814,-351 551.814,-347.5 551.814,-354.5"/>
<text text-anchor="middle" x="521" y="-354.8" font-family="Times,serif" font-size="14.00">u000b</text>
</g>
<!-- 5 -->
<g id="node6" class="node"><title>5</title>
<ellipse fill="none" stroke="black" cx="698" cy="-351" rx="18" ry="18"/>
</g>
<!-- 4&#45;&gt;5 -->
<g id="edge5" class="edge"><title>4&#45;&gt;5</title>
<path fill="none" stroke="black" d="M598.116,-351C616.964,-351 647.531,-351 669.696,-351"/>
<polygon fill="black" stroke="black" points="669.814,-354.5 679.814,-351 669.814,-347.5 669.814,-354.5"/>
<text text-anchor="middle" x="639" y="-354.8" font-family="Times,serif" font-size="14.00">u0005</text>
</g>
<!-- 6 -->
<g id="node7" class="node"><title>6</title>
<ellipse fill="none" stroke="black" cx="816" cy="-351" rx="18" ry="18"/>
</g>
<!-- 5&#45;&gt;6 -->
<g id="edge6" class="edge"><title>5&#45;&gt;6</title>
<path fill="none" stroke="black" d="M716.116,-351C734.964,-351 765.531,-351 787.696,-351"/>
<polygon fill="black" stroke="black" points="787.814,-354.5 797.814,-351 787.814,-347.5 787.814,-354.5"/>
<text text-anchor="middle" x="757" y="-354.8" font-family="Times,serif" font-size="14.00">u0001</text>
</g>
<!-- 7 -->
<g id="node8" class="node"><title>7</title>
<ellipse fill="none" stroke="black" cx="934" cy="-351" rx="18" ry="18"/>
</g>
<!-- 6&#45;&gt;7 -->
<g id="edge7" class="edge"><title>6&#45;&gt;7</title>
<path fill="none" stroke="black" d="M834.116,-351C852.964,-351 883.531,-351 905.696,-351"/>
<polygon fill="black" stroke="black" points="905.814,-354.5 915.814,-351 905.814,-347.5 905.814,-354.5"/>
<text text-anchor="middle" x="875" y="-354.8" font-family="Times,serif" font-size="14.00">u0003</text>
</g>
<!-- 8 -->
<g id="node9" class="node"><title>8</title>
<ellipse fill="none" stroke="black" cx="1051" cy="-351" rx="18" ry="18"/>
</g>
<!-- 7&#45;&gt;8 -->
<g id="edge8" class="edge"><title>7&#45;&gt;8</title>
<path fill="none" stroke="black" d="M952.466,-351C971.064,-351 1000.76,-351 1022.5,-351"/>
<polygon fill="black" stroke="black" points="1022.75,-354.5 1032.75,-351 1022.75,-347.5 1022.75,-354.5"/>
<text text-anchor="middle" x="992.5" y="-354.8" font-family="Times,serif" font-size="14.00">u000c</text>
</g>
<!-- 9 -->
<g id="node10" class="node"><title>9</title>
<ellipse fill="none" stroke="black" cx="1169" cy="-351" rx="18" ry="18"/>
</g>
<!-- 8&#45;&gt;9 -->
<g id="edge9" class="edge"><title>8&#45;&gt;9</title>
<path fill="none" stroke="black" d="M1069.12,-351C1087.96,-351 1118.53,-351 1140.7,-351"/>
<polygon fill="black" stroke="black" points="1140.81,-354.5 1150.81,-351 1140.81,-347.5 1140.81,-354.5"/>
<text text-anchor="middle" x="1110" y="-354.8" font-family="Times,serif" font-size="14.00">u0002</text>
</g>
<!-- 10 -->
<g id="node11" class="node"><title>10</title>
<ellipse fill="none" stroke="black" cx="1287" cy="-740" rx="18" ry="18"/>
</g>
<!-- 9&#45;&gt;10 -->
<g id="edge10" class="edge"><title>9&#45;&gt;10</title>
<path fill="none" stroke="black" d="M1175.06,-367.965C1193.3,-429.138 1255.79,-638.703 1278.05,-713.339"/>
<polygon fill="black" stroke="black" points="1274.7,-714.363 1280.91,-722.946 1281.41,-712.363 1274.7,-714.363"/>
<text text-anchor="middle" x="1228" y="-617.8" font-family="Times,serif" font-size="14.00">u0004</text>
</g>
<!-- 13 -->
<g id="node19" class="node"><title>13</title>
<ellipse fill="none" stroke="black" cx="3269" cy="-533" rx="18" ry="18"/>
<ellipse fill="none" stroke="black" cx="3269" cy="-533" rx="22" ry="22"/>
</g>
<!-- 9&#45;&gt;13 -->
<g id="edge13" class="edge"><title>9&#45;&gt;13</title>
<path fill="none" stroke="black" d="M1169.64,-369.18C1168.13,-468.091 1167.25,-937 1286,-937 1286,-937 1286,-937 3143,-937 3190.64,-937 3205.22,-914.285 3229,-873 3258.89,-821.108 3265.89,-640.116 3267.51,-565.52"/>
<polygon fill="black" stroke="black" points="3271.02,-565.381 3267.72,-555.314 3264.02,-565.242 3271.02,-565.381"/>
<text text-anchor="middle" x="2202" y="-940.8" font-family="Times,serif" font-size="14.00">u0000</text>
</g>
<!-- 11 -->
<g id="node47" class="node"><title>11</title>
<ellipse fill="none" stroke="black" cx="2522" cy="-335" rx="18" ry="18"/>
</g>
<!-- 9&#45;&gt;11 -->
<g id="edge11" class="edge"><title>9&#45;&gt;11</title>
<path fill="none" stroke="black" d="M1186.81,-347.208C1209.28,-342.477 1250.42,-335 1286,-335 1286,-335 1286,-335 2395,-335 2429.07,-335 2468.32,-335 2493.84,-335"/>
<polygon fill="black" stroke="black" points="2493.88,-338.5 2503.88,-335 2493.88,-331.5 2493.88,-338.5"/>
<text text-anchor="middle" x="1838" y="-338.8" font-family="Times,serif" font-size="14.00">u0008</text>
</g>
<!-- 12 -->
<g id="node55" class="node"><title>12</title>
<ellipse fill="none" stroke="black" cx="2394" cy="-184" rx="18" ry="18"/>
</g>
<!-- 9&#45;&gt;12 -->
<g id="edge12" class="edge"><title>9&#45;&gt;12</title>
<path fill="none" stroke="black" d="M1176.73,-334.175C1191.27,-300.928 1228.96,-230 1286,-230 1286,-230 1286,-230 2267,-230 2304.42,-230 2344.5,-211.88 2369.16,-198.385"/>
<polygon fill="black" stroke="black" points="2371.15,-201.282 2378.13,-193.309 2367.7,-195.191 2371.15,-201.282"/>
<text text-anchor="middle" x="1774" y="-233.8" font-family="Times,serif" font-size="14.00">u0006</text>
</g>
<!-- 14 -->
<g id="node12" class="node"><title>14</title>
<ellipse fill="none" stroke="black" cx="2015" cy="-502" rx="18" ry="18"/>
</g>
<!-- 10&#45;&gt;14 -->
<g id="edge14" class="edge"><title>10&#45;&gt;14</title>
<path fill="none" stroke="black" d="M1290.44,-722.284C1300.18,-654.99 1338.97,-419 1404,-419 1404,-419 1404,-419 1898,-419 1939.83,-419 1976.96,-455.132 1997.38,-479.717"/>
<polygon fill="black" stroke="black" points="1994.67,-481.926 2003.65,-487.543 2000.13,-477.549 1994.67,-481.926"/>
<text text-anchor="middle" x="1646" y="-422.8" font-family="Times,serif" font-size="14.00">u0004</text>
</g>
<!-- 10&#45;&gt;13 -->
<g id="edge17" class="edge"><title>10&#45;&gt;13</title>
<path fill="none" stroke="black" d="M1291.25,-757.608C1295.69,-777.89 1305.2,-811.441 1323,-835 1349.85,-870.533 1359.46,-894 1404,-894 1404,-894 1404,-894 3143,-894 3189.86,-894 3204.84,-873.155 3229,-833 3255.79,-788.464 3264.47,-633.487 3267.03,-565.449"/>
<polygon fill="black" stroke="black" points="3270.53,-565.424 3267.39,-555.306 3263.53,-565.176 3270.53,-565.424"/>
<text text-anchor="middle" x="2266" y="-897.8" font-family="Times,serif" font-size="14.00">u0000</text>
</g>
<!-- 15 -->
<g id="node30" class="node"><title>15</title>
<ellipse fill="none" stroke="black" cx="2266" cy="-745" rx="18" ry="18"/>
</g>
<!-- 10&#45;&gt;15 -->
<g id="edge15" class="edge"><title>10&#45;&gt;15</title>
<path fill="none" stroke="black" d="M1295.6,-756.378C1311.19,-787.255 1349.93,-851 1404,-851 1404,-851 1404,-851 1711,-851 1917.65,-851 2160.05,-778.973 2238.85,-753.665"/>
<polygon fill="black" stroke="black" points="2240.02,-756.964 2248.45,-750.55 2237.86,-750.306 2240.02,-756.964"/>
<text text-anchor="middle" x="1774" y="-852.8" font-family="Times,serif" font-size="14.00">u0008</text>
</g>
<!-- 16 -->
<g id="node37" class="node"><title>16</title>
<ellipse fill="none" stroke="black" cx="1405" cy="-740" rx="18" ry="18"/>
</g>
<!-- 10&#45;&gt;16 -->
<g id="edge16" class="edge"><title>10&#45;&gt;16</title>
<path fill="none" stroke="black" d="M1305.12,-740C1323.96,-740 1354.53,-740 1376.7,-740"/>
<polygon fill="black" stroke="black" points="1376.81,-743.5 1386.81,-740 1376.81,-736.5 1376.81,-743.5"/>
<text text-anchor="middle" x="1346" y="-743.8" font-family="Times,serif" font-size="14.00">u0006</text>
</g>
<!-- 23 -->
<g id="node13" class="node"><title>23</title>
<ellipse fill="none" stroke="black" cx="2202" cy="-597" rx="18" ry="18"/>
</g>
<!-- 14&#45;&gt;23 -->
<g id="edge18" class="edge"><title>14&#45;&gt;23</title>
<path fill="none" stroke="black" d="M2020.87,-519.147C2025.97,-533.865 2035.42,-554.474 2051,-566 2087.3,-592.86 2141.44,-597.727 2173.78,-597.959"/>
<polygon fill="black" stroke="black" points="2173.88,-601.458 2183.86,-597.885 2173.83,-594.458 2173.88,-601.458"/>
<text text-anchor="middle" x="2074" y="-590.8" font-family="Times,serif" font-size="14.00">u0004</text>
</g>
<!-- 24 -->
<g id="node20" class="node"><title>24</title>
<ellipse fill="none" stroke="black" cx="2330" cy="-552" rx="18" ry="18"/>
</g>
<!-- 14&#45;&gt;24 -->
<g id="edge19" class="edge"><title>14&#45;&gt;24</title>
<path fill="none" stroke="black" d="M2032.7,-506.453C2038.48,-507.952 2045.01,-509.6 2051,-511 2107.61,-524.243 2121.52,-529.284 2179,-538 2221.61,-544.46 2271.51,-548.404 2301.66,-550.395"/>
<polygon fill="black" stroke="black" points="2301.62,-553.899 2311.83,-551.041 2302.07,-546.913 2301.62,-553.899"/>
<text text-anchor="middle" x="2138" y="-538.8" font-family="Times,serif" font-size="14.00">u0008</text>
</g>
<!-- 25 -->
<g id="node22" class="node"><title>25</title>
<ellipse fill="none" stroke="black" cx="2138" cy="-470" rx="18" ry="18"/>
</g>
<!-- 14&#45;&gt;25 -->
<g id="edge20" class="edge"><title>14&#45;&gt;25</title>
<path fill="none" stroke="black" d="M2032.82,-497.551C2052.96,-492.225 2086.92,-483.244 2110.57,-476.989"/>
<polygon fill="black" stroke="black" points="2111.55,-480.352 2120.32,-474.412 2109.76,-473.585 2111.55,-480.352"/>
<text text-anchor="middle" x="2074" y="-495.8" font-family="Times,serif" font-size="14.00">u0006</text>
</g>
<!-- 37 -->
<g id="node14" class="node"><title>37</title>
<ellipse fill="none" stroke="black" cx="2645" cy="-598" rx="18" ry="18"/>
</g>
<!-- 23&#45;&gt;37 -->
<g id="edge21" class="edge"><title>23&#45;&gt;37</title>
<path fill="none" stroke="black" d="M2220.12,-597.222C2244.36,-597.517 2290.06,-598 2329,-598 2329,-598 2329,-598 2523,-598 2555.21,-598 2592.23,-598 2616.76,-598"/>
<polygon fill="black" stroke="black" points="2616.77,-601.5 2626.77,-598 2616.77,-594.5 2616.77,-601.5"/>
<text text-anchor="middle" x="2394" y="-601.8" font-family="Times,serif" font-size="14.00">u0008</text>
</g>
<!-- 46 -->
<g id="node15" class="node"><title>46</title>
<ellipse fill="none" stroke="black" cx="2763" cy="-598" rx="18" ry="18"/>
</g>
<!-- 37&#45;&gt;46 -->
<g id="edge22" class="edge"><title>37&#45;&gt;46</title>
<path fill="none" stroke="black" d="M2663.12,-598C2681.96,-598 2712.53,-598 2734.7,-598"/>
<polygon fill="black" stroke="black" points="2734.81,-601.5 2744.81,-598 2734.81,-594.5 2734.81,-601.5"/>
<text text-anchor="middle" x="2704" y="-601.8" font-family="Times,serif" font-size="14.00">u0008</text>
</g>
<!-- 37&#45;&gt;13 -->
<g id="edge23" class="edge"><title>37&#45;&gt;13</title>
<path fill="none" stroke="black" d="M2661.22,-606.545C2667.32,-609.897 2674.45,-613.719 2681,-617 2724.74,-638.904 2738.75,-638.34 2781,-663 2789.52,-667.974 2789.77,-672.5 2799,-676 2830.32,-687.882 2915.5,-691 2949,-691 2949,-691 2949,-691 3143,-694 3208.28,-694 3244.38,-610.406 3259.46,-563.689"/>
<polygon fill="black" stroke="black" points="3262.84,-564.636 3262.45,-554.048 3256.15,-562.566 3262.84,-564.636"/>
<text text-anchor="middle" x="2950" y="-694.8" font-family="Times,serif" font-size="14.00">u0000</text>
</g>
<!-- 50 -->
<g id="node16" class="node"><title>50</title>
<ellipse fill="none" stroke="black" cx="2886" cy="-502" rx="18" ry="18"/>
</g>
<!-- 46&#45;&gt;50 -->
<g id="edge24" class="edge"><title>46&#45;&gt;50</title>
<path fill="none" stroke="black" d="M2780.87,-595.632C2798.78,-592.316 2826.95,-584.702 2845,-568 2859.01,-555.036 2852.89,-545.194 2863,-529 2864.22,-527.041 2865.57,-525.066 2866.98,-523.123"/>
<polygon fill="black" stroke="black" points="2869.95,-525 2873.34,-514.96 2864.43,-520.699 2869.95,-525"/>
<text text-anchor="middle" x="2822" y="-594.8" font-family="Times,serif" font-size="14.00">u0006</text>
</g>
<!-- 41 -->
<g id="node17" class="node"><title>41</title>
<ellipse fill="none" stroke="black" cx="3014" cy="-580" rx="18" ry="18"/>
</g>
<!-- 50&#45;&gt;41 -->
<g id="edge25" class="edge"><title>50&#45;&gt;41</title>
<path fill="none" stroke="black" d="M2902.67,-509.018C2923.95,-518.654 2960.74,-535.729 2973,-544 2980.08,-548.776 2987.2,-554.732 2993.44,-560.415"/>
<polygon fill="black" stroke="black" points="2991.11,-563.035 3000.79,-567.359 2995.92,-557.947 2991.11,-563.035"/>
<text text-anchor="middle" x="2950" y="-547.8" font-family="Times,serif" font-size="14.00">u0004</text>
</g>
<!-- 26 -->
<g id="node18" class="node"><title>26</title>
<ellipse fill="none" stroke="black" cx="3142" cy="-462" rx="18" ry="18"/>
</g>
<!-- 41&#45;&gt;26 -->
<g id="edge26" class="edge"><title>41&#45;&gt;26</title>
<path fill="none" stroke="black" d="M3019.19,-562.601C3024.54,-543.831 3035.53,-514.195 3055,-496 3063.96,-487.626 3092.87,-477.136 3114.71,-470.039"/>
<polygon fill="black" stroke="black" points="3115.98,-473.308 3124.45,-466.944 3113.86,-466.636 3115.98,-473.308"/>
<text text-anchor="middle" x="3078" y="-499.8" font-family="Times,serif" font-size="14.00">u0006</text>
</g>
<!-- 26&#45;&gt;13 -->
<g id="edge27" class="edge"><title>26&#45;&gt;13</title>
<path fill="none" stroke="black" d="M3159,-468.744C3176.62,-476.417 3205.58,-489.744 3229,-504 3233.77,-506.907 3238.69,-510.251 3243.35,-513.612"/>
<polygon fill="black" stroke="black" points="3241.28,-516.43 3251.39,-519.589 3245.45,-510.813 3241.28,-516.43"/>
<text text-anchor="middle" x="3206" y="-507.8" font-family="Times,serif" font-size="14.00">u0000</text>
</g>
<!-- 38 -->
<g id="node21" class="node"><title>38</title>
<ellipse fill="none" stroke="black" cx="2886" cy="-381" rx="18" ry="18"/>
</g>
<!-- 24&#45;&gt;38 -->
<g id="edge28" class="edge"><title>24&#45;&gt;38</title>
<path fill="none" stroke="black" d="M2347.96,-553.404C2397.49,-557.004 2545.85,-564.216 2663,-533 2693.73,-524.812 2704.75,-523.725 2727,-501 2740.07,-487.646 2732.38,-476.779 2745,-463 2777.31,-427.732 2828.35,-403.174 2859.06,-390.634"/>
<polygon fill="black" stroke="black" points="2860.63,-393.778 2868.64,-386.844 2858.05,-387.269 2860.63,-393.778"/>
<text text-anchor="middle" x="2586" y="-553.8" font-family="Times,serif" font-size="14.00">u0008</text>
</g>
<!-- 38&#45;&gt;26 -->
<g id="edge29" class="edge"><title>38&#45;&gt;26</title>
<path fill="none" stroke="black" d="M2904.04,-378.124C2932.27,-373.988 2990.29,-368.178 3037,-381 3072.46,-390.734 3104.38,-420.156 3123.23,-440.719"/>
<polygon fill="black" stroke="black" points="3120.77,-443.218 3130.02,-448.372 3126,-438.57 3120.77,-443.218"/>
<text text-anchor="middle" x="3014" y="-384.8" font-family="Times,serif" font-size="14.00">u0008</text>
</g>
<!-- 39 -->
<g id="node23" class="node"><title>39</title>
<ellipse fill="none" stroke="black" cx="2266" cy="-452" rx="18" ry="18"/>
</g>
<!-- 25&#45;&gt;39 -->
<g id="edge30" class="edge"><title>25&#45;&gt;39</title>
<path fill="none" stroke="black" d="M2155.99,-467.572C2176.94,-464.58 2212.81,-459.456 2237.65,-455.907"/>
<polygon fill="black" stroke="black" points="2238.47,-459.326 2247.87,-454.447 2237.48,-452.396 2238.47,-459.326"/>
<text text-anchor="middle" x="2202" y="-467.8" font-family="Times,serif" font-size="14.00">u0008</text>
</g>
<!-- 47 -->
<g id="node24" class="node"><title>47</title>
<ellipse fill="none" stroke="black" cx="2394" cy="-452" rx="18" ry="18"/>
</g>
<!-- 39&#45;&gt;47 -->
<g id="edge31" class="edge"><title>39&#45;&gt;47</title>
<path fill="none" stroke="black" d="M2284.26,-452C2305.27,-452 2341.03,-452 2365.77,-452"/>
<polygon fill="black" stroke="black" points="2365.95,-455.5 2375.95,-452 2365.95,-448.5 2365.95,-455.5"/>
<text text-anchor="middle" x="2330" y="-455.8" font-family="Times,serif" font-size="14.00">u0004</text>
</g>
<!-- 51 -->
<g id="node25" class="node"><title>51</title>
<ellipse fill="none" stroke="black" cx="2522" cy="-506" rx="18" ry="18"/>
</g>
<!-- 47&#45;&gt;51 -->
<g id="edge32" class="edge"><title>47&#45;&gt;51</title>
<path fill="none" stroke="black" d="M2410.96,-458.182C2428.32,-464.975 2456.81,-476.342 2481,-487 2485.97,-489.191 2491.25,-491.621 2496.28,-493.99"/>
<polygon fill="black" stroke="black" points="2494.99,-497.249 2505.52,-498.394 2498,-490.931 2494.99,-497.249"/>
<text text-anchor="middle" x="2458" y="-490.8" font-family="Times,serif" font-size="14.00">u0004</text>
</g>
<!-- 54 -->
<g id="node26" class="node"><title>54</title>
<ellipse fill="none" stroke="black" cx="2645" cy="-506" rx="18" ry="18"/>
</g>
<!-- 51&#45;&gt;54 -->
<g id="edge33" class="edge"><title>51&#45;&gt;54</title>
<path fill="none" stroke="black" d="M2540.08,-506C2559.96,-506 2593.08,-506 2616.58,-506"/>
<polygon fill="black" stroke="black" points="2616.62,-509.5 2626.62,-506 2616.62,-502.5 2616.62,-509.5"/>
<text text-anchor="middle" x="2586" y="-509.8" font-family="Times,serif" font-size="14.00">u0008</text>
</g>
<!-- 57 -->
<g id="node27" class="node"><title>57</title>
<ellipse fill="none" stroke="black" cx="2763" cy="-398" rx="18" ry="18"/>
</g>
<!-- 54&#45;&gt;57 -->
<g id="edge34" class="edge"><title>54&#45;&gt;57</title>
<path fill="none" stroke="black" d="M2660.89,-497.251C2667.07,-493.683 2674.34,-489.566 2681,-486 2701.15,-475.214 2710.59,-478.916 2727,-463 2727.43,-462.585 2739.19,-440.677 2748.96,-422.411"/>
<polygon fill="black" stroke="black" points="2752.05,-424.054 2753.68,-413.585 2745.88,-420.754 2752.05,-424.054"/>
<text text-anchor="middle" x="2704" y="-489.8" font-family="Times,serif" font-size="14.00">u0004</text>
</g>
<!-- 59 -->
<g id="node28" class="node"><title>59</title>
<ellipse fill="none" stroke="black" cx="2886" cy="-327" rx="18" ry="18"/>
</g>
<!-- 57&#45;&gt;59 -->
<g id="edge35" class="edge"><title>57&#45;&gt;59</title>
<path fill="none" stroke="black" d="M2778.84,-389.294C2799.43,-377.211 2836.9,-355.226 2861.36,-340.87"/>
<polygon fill="black" stroke="black" points="2863.19,-343.857 2870.04,-335.777 2859.65,-337.819 2863.19,-343.857"/>
<text text-anchor="middle" x="2822" y="-380.8" font-family="Times,serif" font-size="14.00">u0008</text>
</g>
<!-- 20 -->
<g id="node29" class="node"><title>20</title>
<ellipse fill="none" stroke="black" cx="3014" cy="-273" rx="18" ry="18"/>
</g>
<!-- 59&#45;&gt;20 -->
<g id="edge36" class="edge"><title>59&#45;&gt;20</title>
<path fill="none" stroke="black" d="M2902.96,-320.818C2920.32,-314.025 2948.81,-302.658 2973,-292 2977.97,-289.809 2983.25,-287.379 2988.28,-285.01"/>
<polygon fill="black" stroke="black" points="2990,-288.069 2997.52,-280.606 2986.99,-281.751 2990,-288.069"/>
<text text-anchor="middle" x="2950" y="-314.8" font-family="Times,serif" font-size="14.00">u0004</text>
</g>
<!-- 20&#45;&gt;26 -->
<g id="edge37" class="edge"><title>20&#45;&gt;26</title>
<path fill="none" stroke="black" d="M3029.95,-281.47C3049.05,-293.023 3081.92,-315.466 3101,-343 3120.23,-370.746 3130.83,-408.475 3136.21,-433.952"/>
<polygon fill="black" stroke="black" points="3132.83,-434.923 3138.2,-444.056 3139.7,-433.568 3132.83,-434.923"/>
<text text-anchor="middle" x="3078" y="-346.8" font-family="Times,serif" font-size="14.00">u0004</text>
</g>
<!-- 15&#45;&gt;26 -->
<g id="edge38" class="edge"><title>15&#45;&gt;26</title>
<path fill="none" stroke="black" d="M2284.26,-744.869C2362.39,-744.155 2683.44,-739.857 2781,-717 2901.57,-688.753 2935.29,-677.644 3037,-607 3070.82,-583.508 3077.13,-573.559 3101,-540 3112.69,-523.567 3122.99,-503.25 3130.21,-487.471"/>
<polygon fill="black" stroke="black" points="3133.42,-488.867 3134.3,-478.308 3127.03,-486.017 3133.42,-488.867"/>
<text text-anchor="middle" x="2704" y="-733.8" font-family="Times,serif" font-size="14.00">u0004</text>
</g>
<!-- 27 -->
<g id="node31" class="node"><title>27</title>
<ellipse fill="none" stroke="black" cx="2394" cy="-682" rx="18" ry="18"/>
</g>
<!-- 15&#45;&gt;27 -->
<g id="edge39" class="edge"><title>15&#45;&gt;27</title>
<path fill="none" stroke="black" d="M2276.3,-729.8C2283.42,-719.489 2294.18,-706.428 2307,-699 2324.86,-688.653 2347.93,-684.498 2365.68,-682.878"/>
<polygon fill="black" stroke="black" points="2365.96,-686.367 2375.7,-682.177 2365.48,-679.384 2365.96,-686.367"/>
<text text-anchor="middle" x="2330" y="-702.8" font-family="Times,serif" font-size="14.00">u0008</text>
</g>
<!-- 28 -->
<g id="node36" class="node"><title>28</title>
<ellipse fill="none" stroke="black" cx="2886" cy="-762" rx="18" ry="18"/>
</g>
<!-- 15&#45;&gt;28 -->
<g id="edge40" class="edge"><title>15&#45;&gt;28</title>
<path fill="none" stroke="black" d="M2283.84,-747.625C2331.17,-754.763 2469.41,-774 2585,-774 2585,-774 2585,-774 2764,-774 2796.36,-774 2833.36,-769.696 2857.83,-766.243"/>
<polygon fill="black" stroke="black" points="2858.43,-769.693 2867.82,-764.783 2857.42,-762.767 2858.43,-769.693"/>
<text text-anchor="middle" x="2586" y="-777.8" font-family="Times,serif" font-size="14.00">u0006</text>
</g>
<!-- 40 -->
<g id="node32" class="node"><title>40</title>
<ellipse fill="none" stroke="black" cx="2522" cy="-687" rx="18" ry="18"/>
</g>
<!-- 27&#45;&gt;40 -->
<g id="edge41" class="edge"><title>27&#45;&gt;40</title>
<path fill="none" stroke="black" d="M2411.99,-682.674C2432.94,-683.506 2468.81,-684.929 2493.65,-685.915"/>
<polygon fill="black" stroke="black" points="2493.74,-689.421 2503.87,-686.32 2494.02,-682.427 2493.74,-689.421"/>
<text text-anchor="middle" x="2458" y="-688.8" font-family="Times,serif" font-size="14.00">u0004</text>
</g>
<!-- 48 -->
<g id="node33" class="node"><title>48</title>
<ellipse fill="none" stroke="black" cx="2645" cy="-689" rx="18" ry="18"/>
</g>
<!-- 40&#45;&gt;48 -->
<g id="edge42" class="edge"><title>40&#45;&gt;48</title>
<path fill="none" stroke="black" d="M2540.08,-687.282C2559.96,-687.611 2593.08,-688.158 2616.58,-688.547"/>
<polygon fill="black" stroke="black" points="2616.56,-692.047 2626.62,-688.713 2616.67,-685.048 2616.56,-692.047"/>
<text text-anchor="middle" x="2586" y="-691.8" font-family="Times,serif" font-size="14.00">u0004</text>
</g>
<!-- 52 -->
<g id="node34" class="node"><title>52</title>
<ellipse fill="none" stroke="black" cx="2763" cy="-690" rx="18" ry="18"/>
</g>
<!-- 48&#45;&gt;52 -->
<g id="edge43" class="edge"><title>48&#45;&gt;52</title>
<path fill="none" stroke="black" d="M2663.12,-689.148C2681.96,-689.31 2712.53,-689.574 2734.7,-689.765"/>
<polygon fill="black" stroke="black" points="2734.78,-693.265 2744.81,-689.852 2734.84,-686.266 2734.78,-693.265"/>
<text text-anchor="middle" x="2704" y="-692.8" font-family="Times,serif" font-size="14.00">u0006</text>
</g>
<!-- 55 -->
<g id="node35" class="node"><title>55</title>
<ellipse fill="none" stroke="black" cx="2886" cy="-610" rx="18" ry="18"/>
</g>
<!-- 52&#45;&gt;55 -->
<g id="edge44" class="edge"><title>52&#45;&gt;55</title>
<path fill="none" stroke="black" d="M2778.36,-680.509C2799.1,-666.796 2837.65,-641.306 2862.28,-625.023"/>
<polygon fill="black" stroke="black" points="2864.25,-627.914 2870.66,-619.479 2860.39,-622.074 2864.25,-627.914"/>
<text text-anchor="middle" x="2822" y="-669.8" font-family="Times,serif" font-size="14.00">u0004</text>
</g>
<!-- 55&#45;&gt;41 -->
<g id="edge45" class="edge"><title>55&#45;&gt;41</title>
<path fill="none" stroke="black" d="M2903.87,-606.539C2921.25,-602.91 2949.1,-596.921 2973,-591 2977.33,-589.928 2981.9,-588.732 2986.34,-587.534"/>
<polygon fill="black" stroke="black" points="2987.6,-590.819 2996.31,-584.793 2985.74,-584.069 2987.6,-590.819"/>
<text text-anchor="middle" x="2950" y="-604.8" font-family="Times,serif" font-size="14.00">u0008</text>
</g>
<!-- 28&#45;&gt;41 -->
<g id="edge46" class="edge"><title>28&#45;&gt;41</title>
<path fill="none" stroke="black" d="M2900.68,-751.222C2908.24,-745.495 2917.91,-738.518 2927,-733 2946.54,-721.141 2958.23,-727.441 2973,-710 2997.63,-680.923 3007.1,-636.843 3010.74,-608.232"/>
<polygon fill="black" stroke="black" points="3014.24,-608.413 3011.87,-598.087 3007.29,-607.639 3014.24,-608.413"/>
<text text-anchor="middle" x="2950" y="-736.8" font-family="Times,serif" font-size="14.00">u0004</text>
</g>
<!-- 28&#45;&gt;13 -->
<g id="edge47" class="edge"><title>28&#45;&gt;13</title>
<path fill="none" stroke="black" d="M2904.02,-765.228C2959.25,-774.631 3135.23,-796.065 3229,-708 3249.43,-688.814 3260.41,-610.039 3265.13,-564.994"/>
<polygon fill="black" stroke="black" points="3268.63,-565.158 3266.15,-554.858 3261.67,-564.459 3268.63,-565.158"/>
<text text-anchor="middle" x="3078" y="-775.8" font-family="Times,serif" font-size="14.00">u0000</text>
</g>
<!-- 16&#45;&gt;13 -->
<g id="edge50" class="edge"><title>16&#45;&gt;13</title>
<path fill="none" stroke="black" d="M1418.29,-752.533C1438.18,-771.421 1479.52,-805 1522,-805 1522,-805 1522,-805 1711,-805 2043.3,-805 2124.7,-855 2457,-855 2457,-855 2457,-855 3143,-855 3190.12,-855 3204.47,-833.231 3229,-793 3251.98,-755.317 3262.49,-626.194 3266.27,-565.288"/>
<polygon fill="black" stroke="black" points="3269.77,-565.28 3266.87,-555.089 3262.78,-564.863 3269.77,-565.28"/>
<text text-anchor="middle" x="2330" y="-856.8" font-family="Times,serif" font-size="14.00">u0000</text>
</g>
<!-- 29 -->
<g id="node38" class="node"><title>29</title>
<ellipse fill="none" stroke="black" cx="2886" cy="-273" rx="18" ry="18"/>
</g>
<!-- 16&#45;&gt;29 -->
<g id="edge48" class="edge"><title>16&#45;&gt;29</title>
<path fill="none" stroke="black" d="M1419.67,-729.105C1477.72,-683.448 1711,-506.048 1933,-423 2110.53,-356.59 2168.2,-391.119 2353,-349 2418.71,-334.023 2433.67,-324.563 2499,-308 2555.54,-293.666 2569.13,-286.326 2627,-279 2702.87,-269.395 2722.54,-275.556 2799,-274 2818.59,-273.601 2840.7,-273.349 2857.6,-273.197"/>
<polygon fill="black" stroke="black" points="2857.9,-276.695 2867.87,-273.111 2857.84,-269.695 2857.9,-276.695"/>
<text text-anchor="middle" x="2138" y="-382.8" font-family="Times,serif" font-size="14.00">u0004</text>
</g>
<!-- 30 -->
<g id="node39" class="node"><title>30</title>
<ellipse fill="none" stroke="black" cx="1523" cy="-740" rx="18" ry="18"/>
</g>
<!-- 16&#45;&gt;30 -->
<g id="edge49" class="edge"><title>16&#45;&gt;30</title>
<path fill="none" stroke="black" d="M1423.12,-740C1441.96,-740 1472.53,-740 1494.7,-740"/>
<polygon fill="black" stroke="black" points="1494.81,-743.5 1504.81,-740 1494.81,-736.5 1494.81,-743.5"/>
<text text-anchor="middle" x="1464" y="-743.8" font-family="Times,serif" font-size="14.00">u0006</text>
</g>
<!-- 29&#45;&gt;20 -->
<g id="edge51" class="edge"><title>29&#45;&gt;20</title>
<path fill="none" stroke="black" d="M2904.26,-273C2925.27,-273 2961.03,-273 2985.77,-273"/>
<polygon fill="black" stroke="black" points="2985.95,-276.5 2995.95,-273 2985.95,-269.5 2985.95,-276.5"/>
<text text-anchor="middle" x="2950" y="-276.8" font-family="Times,serif" font-size="14.00">u0008</text>
</g>
<!-- 30&#45;&gt;13 -->
<g id="edge53" class="edge"><title>30&#45;&gt;13</title>
<path fill="none" stroke="black" d="M1539.75,-746.912C1545.67,-749.228 1552.54,-751.58 1559,-753 1754.32,-795.942 2257.01,-812 2457,-812 2457,-812 2457,-812 3143,-812 3250,-812 3265.99,-639.001 3267.96,-565.457"/>
<polygon fill="black" stroke="black" points="3271.46,-565.427 3268.16,-555.36 3264.46,-565.29 3271.46,-565.427"/>
<text text-anchor="middle" x="2394" y="-814.8" font-family="Times,serif" font-size="14.00">u0000</text>
</g>
<!-- 42 -->
<g id="node40" class="node"><title>42</title>
<ellipse fill="none" stroke="black" cx="1646" cy="-721" rx="18" ry="18"/>
</g>
<!-- 30&#45;&gt;42 -->
<g id="edge52" class="edge"><title>30&#45;&gt;42</title>
<path fill="none" stroke="black" d="M1540.82,-737.358C1560.76,-734.228 1594.24,-728.971 1617.86,-725.262"/>
<polygon fill="black" stroke="black" points="1618.59,-728.69 1627.93,-723.681 1617.51,-721.774 1618.59,-728.69"/>
<text text-anchor="middle" x="1582" y="-737.8" font-family="Times,serif" font-size="14.00">u0008</text>
</g>
<!-- 49 -->
<g id="node41" class="node"><title>49</title>
<ellipse fill="none" stroke="black" cx="1774" cy="-703" rx="18" ry="18"/>
</g>
<!-- 42&#45;&gt;49 -->
<g id="edge54" class="edge"><title>42&#45;&gt;49</title>
<path fill="none" stroke="black" d="M1663.99,-718.572C1684.94,-715.58 1720.81,-710.456 1745.65,-706.907"/>
<polygon fill="black" stroke="black" points="1746.47,-710.326 1755.87,-705.447 1745.48,-703.396 1746.47,-710.326"/>
<text text-anchor="middle" x="1710" y="-718.8" font-family="Times,serif" font-size="14.00">u0008</text>
</g>
<!-- 53 -->
<g id="node42" class="node"><title>53</title>
<ellipse fill="none" stroke="black" cx="1897" cy="-685" rx="18" ry="18"/>
</g>
<!-- 49&#45;&gt;53 -->
<g id="edge55" class="edge"><title>49&#45;&gt;53</title>
<path fill="none" stroke="black" d="M1792.08,-700.459C1812.08,-697.484 1845.45,-692.519 1868.98,-689.02"/>
<polygon fill="black" stroke="black" points="1869.63,-692.461 1879.01,-687.528 1868.6,-685.537 1869.63,-692.461"/>
<text text-anchor="middle" x="1838" y="-699.8" font-family="Times,serif" font-size="14.00">u0006</text>
</g>
<!-- 56 -->
<g id="node43" class="node"><title>56</title>
<ellipse fill="none" stroke="black" cx="2015" cy="-653" rx="18" ry="18"/>
</g>
<!-- 53&#45;&gt;56 -->
<g id="edge56" class="edge"><title>53&#45;&gt;56</title>
<path fill="none" stroke="black" d="M1914.62,-680.415C1933.66,-675.164 1965.1,-666.489 1987.52,-660.304"/>
<polygon fill="black" stroke="black" points="1988.7,-663.61 1997.41,-657.576 1986.84,-656.862 1988.7,-663.61"/>
<text text-anchor="middle" x="1956" y="-677.8" font-family="Times,serif" font-size="14.00">u0008</text>
</g>
<!-- 58 -->
<g id="node44" class="node"><title>58</title>
<ellipse fill="none" stroke="black" cx="2138" cy="-644" rx="18" ry="18"/>
</g>
<!-- 56&#45;&gt;58 -->
<g id="edge57" class="edge"><title>56&#45;&gt;58</title>
<path fill="none" stroke="black" d="M2033.08,-651.73C2053.08,-650.242 2086.45,-647.76 2109.98,-646.01"/>
<polygon fill="black" stroke="black" points="2110.29,-649.496 2120.01,-645.264 2109.78,-642.515 2110.29,-649.496"/>
<text text-anchor="middle" x="2074" y="-653.8" font-family="Times,serif" font-size="14.00">u0008</text>
</g>
<!-- 60 -->
<g id="node45" class="node"><title>60</title>
<ellipse fill="none" stroke="black" cx="2266" cy="-506" rx="18" ry="18"/>
</g>
<!-- 58&#45;&gt;60 -->
<g id="edge58" class="edge"><title>58&#45;&gt;60</title>
<path fill="none" stroke="black" d="M2143.34,-626.451C2148.88,-607.055 2160.09,-575.811 2179,-555 2195.56,-536.782 2220.51,-523.61 2239.28,-515.54"/>
<polygon fill="black" stroke="black" points="2240.79,-518.707 2248.72,-511.685 2238.14,-512.227 2240.79,-518.707"/>
<text text-anchor="middle" x="2202" y="-558.8" font-family="Times,serif" font-size="14.00">u0008</text>
</g>
<!-- 61 -->
<g id="node46" class="node"><title>61</title>
<ellipse fill="none" stroke="black" cx="2394" cy="-506" rx="18" ry="18"/>
</g>
<!-- 60&#45;&gt;61 -->
<g id="edge59" class="edge"><title>60&#45;&gt;61</title>
<path fill="none" stroke="black" d="M2284.26,-506C2305.27,-506 2341.03,-506 2365.77,-506"/>
<polygon fill="black" stroke="black" points="2365.95,-509.5 2375.95,-506 2365.95,-502.5 2365.95,-509.5"/>
<text text-anchor="middle" x="2330" y="-509.8" font-family="Times,serif" font-size="14.00">u0008</text>
</g>
<!-- 61&#45;&gt;51 -->
<g id="edge60" class="edge"><title>61&#45;&gt;51</title>
<path fill="none" stroke="black" d="M2412.26,-506C2433.27,-506 2469.03,-506 2493.77,-506"/>
<polygon fill="black" stroke="black" points="2493.95,-509.5 2503.95,-506 2493.95,-502.5 2493.95,-509.5"/>
<text text-anchor="middle" x="2458" y="-509.8" font-family="Times,serif" font-size="14.00">u0008</text>
</g>
<!-- 11&#45;&gt;13 -->
<g id="edge64" class="edge"><title>11&#45;&gt;13</title>
<path fill="none" stroke="black" d="M2534.61,-322.012C2558.9,-295.73 2618.11,-236.342 2681,-208 2738.55,-182.061 2757.87,-184 2821,-184 2821,-184 2821,-184 3143,-184 3210.03,-184 3250.74,-415.085 3263.58,-501.18"/>
<polygon fill="black" stroke="black" points="3260.13,-501.78 3265.04,-511.168 3267.06,-500.767 3260.13,-501.78"/>
<text text-anchor="middle" x="2886" y="-187.8" font-family="Times,serif" font-size="14.00">u0000</text>
</g>
<!-- 17 -->
<g id="node48" class="node"><title>17</title>
<ellipse fill="none" stroke="black" cx="2886" cy="-447" rx="18" ry="18"/>
</g>
<!-- 11&#45;&gt;17 -->
<g id="edge61" class="edge"><title>11&#45;&gt;17</title>
<path fill="none" stroke="black" d="M2540.26,-336.616C2594.69,-341.822 2760.33,-358.533 2781,-371 2792.72,-378.071 2788.9,-386.758 2799,-396 2817.24,-412.687 2841.8,-426.59 2860,-435.643"/>
<polygon fill="black" stroke="black" points="2858.6,-438.853 2869.13,-440.042 2861.64,-432.547 2858.6,-438.853"/>
<text text-anchor="middle" x="2704" y="-361.8" font-family="Times,serif" font-size="14.00">u0004</text>
</g>
<!-- 18 -->
<g id="node50" class="node"><title>18</title>
<ellipse fill="none" stroke="black" cx="2645" cy="-306" rx="18" ry="18"/>
</g>
<!-- 11&#45;&gt;18 -->
<g id="edge62" class="edge"><title>11&#45;&gt;18</title>
<path fill="none" stroke="black" d="M2539.26,-329.782C2546.49,-327.55 2555.13,-325.002 2563,-323 2580.88,-318.451 2601.19,-314.19 2617.01,-311.071"/>
<polygon fill="black" stroke="black" points="2618,-314.444 2627.15,-309.105 2616.67,-307.572 2618,-314.444"/>
<text text-anchor="middle" x="2586" y="-326.8" font-family="Times,serif" font-size="14.00">u0008</text>
</g>
<!-- 19 -->
<g id="node52" class="node"><title>19</title>
<ellipse fill="none" stroke="black" cx="2645" cy="-398" rx="18" ry="18"/>
</g>
<!-- 11&#45;&gt;19 -->
<g id="edge63" class="edge"><title>11&#45;&gt;19</title>
<path fill="none" stroke="black" d="M2536.03,-346.624C2543.54,-352.926 2553.38,-360.521 2563,-366 2580.35,-375.884 2601.36,-384.086 2617.63,-389.712"/>
<polygon fill="black" stroke="black" points="2616.96,-393.178 2627.55,-393.028 2619.18,-386.539 2616.96,-393.178"/>
<text text-anchor="middle" x="2586" y="-389.8" font-family="Times,serif" font-size="14.00">u0006</text>
</g>
<!-- 17&#45;&gt;26 -->
<g id="edge66" class="edge"><title>17&#45;&gt;26</title>
<path fill="none" stroke="black" d="M2903.54,-452.547C2910.67,-454.677 2919.16,-456.867 2927,-458 2993.53,-467.616 3072.9,-465.638 3113.74,-463.651"/>
<polygon fill="black" stroke="black" points="3114.16,-467.134 3123.96,-463.113 3113.79,-460.144 3114.16,-467.134"/>
<text text-anchor="middle" x="3014" y="-468.8" font-family="Times,serif" font-size="14.00">u0006</text>
</g>
<!-- 17&#45;&gt;13 -->
<g id="edge67" class="edge"><title>17&#45;&gt;13</title>
<path fill="none" stroke="black" d="M2900.79,-457.888C2908.22,-463.334 2917.74,-469.669 2927,-474 3032.76,-523.475 3174.45,-531.834 3236.58,-532.991"/>
<polygon fill="black" stroke="black" points="3236.84,-536.495 3246.89,-533.129 3236.93,-529.496 3236.84,-536.495"/>
<text text-anchor="middle" x="3078" y="-524.8" font-family="Times,serif" font-size="14.00">u0000</text>
</g>
<!-- 31 -->
<g id="node49" class="node"><title>31</title>
<ellipse fill="none" stroke="black" cx="3014" cy="-423" rx="18" ry="18"/>
</g>
<!-- 17&#45;&gt;31 -->
<g id="edge65" class="edge"><title>17&#45;&gt;31</title>
<path fill="none" stroke="black" d="M2903.73,-443.813C2924.82,-439.796 2961.32,-432.844 2986.28,-428.089"/>
<polygon fill="black" stroke="black" points="2987.03,-431.51 2996.2,-426.2 2985.72,-424.633 2987.03,-431.51"/>
<text text-anchor="middle" x="2950" y="-442.8" font-family="Times,serif" font-size="14.00">u0008</text>
</g>
<!-- 31&#45;&gt;26 -->
<g id="edge68" class="edge"><title>31&#45;&gt;26</title>
<path fill="none" stroke="black" d="M3032.09,-422.479C3049.9,-422.503 3078.31,-424.16 3101,-433 3107.77,-435.636 3114.43,-439.7 3120.32,-443.959"/>
<polygon fill="black" stroke="black" points="3118.28,-446.807 3128.32,-450.196 3122.59,-441.287 3118.28,-446.807"/>
<text text-anchor="middle" x="3078" y="-436.8" font-family="Times,serif" font-size="14.00">u0004</text>
</g>
<!-- 31&#45;&gt;13 -->
<g id="edge69" class="edge"><title>31&#45;&gt;13</title>
<path fill="none" stroke="black" d="M3028.45,-411.331C3031.66,-407.961 3034.79,-404.081 3037,-400 3053.74,-369.097 3027.47,-344.84 3055,-323 3071.02,-310.295 3082.46,-314.376 3101,-323 3180.02,-359.765 3232.74,-454.971 3255.4,-503.549"/>
<polygon fill="black" stroke="black" points="3252.32,-505.24 3259.65,-512.891 3258.69,-502.34 3252.32,-505.24"/>
<text text-anchor="middle" x="3142" y="-369.8" font-family="Times,serif" font-size="14.00">u0000</text>
</g>
<!-- 32 -->
<g id="node51" class="node"><title>32</title>
<ellipse fill="none" stroke="black" cx="2763" cy="-306" rx="18" ry="18"/>
</g>
<!-- 18&#45;&gt;32 -->
<g id="edge70" class="edge"><title>18&#45;&gt;32</title>
<path fill="none" stroke="black" d="M2663.12,-306C2681.96,-306 2712.53,-306 2734.7,-306"/>
<polygon fill="black" stroke="black" points="2734.81,-309.5 2744.81,-306 2734.81,-302.5 2734.81,-309.5"/>
<text text-anchor="middle" x="2704" y="-309.8" font-family="Times,serif" font-size="14.00">u0008</text>
</g>
<!-- 32&#45;&gt;29 -->
<g id="edge71" class="edge"><title>32&#45;&gt;29</title>
<path fill="none" stroke="black" d="M2780.76,-310.352C2797.59,-313.878 2823.98,-317.066 2845,-309 2853.1,-305.893 2860.58,-300.307 2866.83,-294.448"/>
<polygon fill="black" stroke="black" points="2869.57,-296.652 2874.04,-287.047 2864.56,-291.767 2869.57,-296.652"/>
<text text-anchor="middle" x="2822" y="-318.8" font-family="Times,serif" font-size="14.00">u0006</text>
</g>
<!-- 33 -->
<g id="node53" class="node"><title>33</title>
<ellipse fill="none" stroke="black" cx="2763" cy="-544" rx="18" ry="18"/>
</g>
<!-- 19&#45;&gt;33 -->
<g id="edge72" class="edge"><title>19&#45;&gt;33</title>
<path fill="none" stroke="black" d="M2656.31,-412.363C2658.78,-416.314 2661.22,-420.699 2663,-425 2676.91,-458.685 2658.32,-476.472 2681,-505 2694.62,-522.135 2717.63,-532.201 2735.65,-537.8"/>
<polygon fill="black" stroke="black" points="2734.74,-541.18 2745.32,-540.534 2736.65,-534.444 2734.74,-541.18"/>
<text text-anchor="middle" x="2704" y="-537.8" font-family="Times,serif" font-size="14.00">u0006</text>
</g>
<!-- 43 -->
<g id="node54" class="node"><title>43</title>
<ellipse fill="none" stroke="black" cx="2886" cy="-556" rx="18" ry="18"/>
</g>
<!-- 33&#45;&gt;43 -->
<g id="edge73" class="edge"><title>33&#45;&gt;43</title>
<path fill="none" stroke="black" d="M2781.08,-545.694C2801.08,-547.677 2834.45,-550.987 2857.98,-553.32"/>
<polygon fill="black" stroke="black" points="2857.71,-556.811 2868.01,-554.315 2858.4,-549.845 2857.71,-556.811"/>
<text text-anchor="middle" x="2822" y="-554.8" font-family="Times,serif" font-size="14.00">u0004</text>
</g>
<!-- 43&#45;&gt;41 -->
<g id="edge74" class="edge"><title>43&#45;&gt;41</title>
<path fill="none" stroke="black" d="M2903.73,-559.187C2924.82,-563.204 2961.32,-570.156 2986.28,-574.911"/>
<polygon fill="black" stroke="black" points="2985.72,-578.367 2996.2,-576.8 2987.03,-571.49 2985.72,-578.367"/>
<text text-anchor="middle" x="2950" y="-575.8" font-family="Times,serif" font-size="14.00">u0006</text>
</g>
<!-- 12&#45;&gt;13 -->
<g id="edge78" class="edge"><title>12&#45;&gt;13</title>
<path fill="none" stroke="black" d="M2398.27,-166.357C2407.94,-120.304 2440.86,-0 2521,-0 2521,-0 2521,-0 3143,-0 3185.54,-0 3205.06,-6.84196 3229,-42 3254.74,-79.8002 3264.7,-397.304 3267.27,-500.639"/>
<polygon fill="black" stroke="black" points="3263.78,-500.872 3267.52,-510.784 3270.77,-500.702 3263.78,-500.872"/>
<text text-anchor="middle" x="2822" y="-3.8" font-family="Times,serif" font-size="14.00">u0000</text>
</g>
<!-- 12&#45;&gt;20 -->
<g id="edge75" class="edge"><title>12&#45;&gt;20</title>
<path fill="none" stroke="black" d="M2411.99,-185.217C2476.93,-190.047 2715.59,-209.4 2909,-246 2935.81,-251.074 2965.94,-259.165 2986.84,-265.169"/>
<polygon fill="black" stroke="black" points="2986,-268.57 2996.58,-268.008 2987.96,-261.85 2986,-268.57"/>
<text text-anchor="middle" x="2704" y="-221.8" font-family="Times,serif" font-size="14.00">u0004</text>
</g>
<!-- 21 -->
<g id="node56" class="node"><title>21</title>
<ellipse fill="none" stroke="black" cx="2522" cy="-432" rx="18" ry="18"/>
</g>
<!-- 12&#45;&gt;21 -->
<g id="edge76" class="edge"><title>12&#45;&gt;21</title>
<path fill="none" stroke="black" d="M2403.07,-199.891C2424.45,-241.973 2482.66,-356.541 2508.43,-407.266"/>
<polygon fill="black" stroke="black" points="2505.34,-408.912 2512.99,-416.242 2511.58,-405.741 2505.34,-408.912"/>
<text text-anchor="middle" x="2458" y="-354.8" font-family="Times,serif" font-size="14.00">u0008</text>
</g>
<!-- 22 -->
<g id="node59" class="node"><title>22</title>
<ellipse fill="none" stroke="black" cx="2645" cy="-113" rx="18" ry="18"/>
</g>
<!-- 12&#45;&gt;22 -->
<g id="edge77" class="edge"><title>12&#45;&gt;22</title>
<path fill="none" stroke="black" d="M2411.26,-178.017C2418.49,-175.432 2427.13,-172.447 2435,-170 2500.11,-149.754 2577.82,-129.596 2617.63,-119.556"/>
<polygon fill="black" stroke="black" points="2618.51,-122.944 2627.36,-117.114 2616.81,-116.154 2618.51,-122.944"/>
<text text-anchor="middle" x="2522" y="-154.8" font-family="Times,serif" font-size="14.00">u0006</text>
</g>
<!-- 34 -->
<g id="node57" class="node"><title>34</title>
<ellipse fill="none" stroke="black" cx="2645" cy="-452" rx="18" ry="18"/>
</g>
<!-- 21&#45;&gt;34 -->
<g id="edge79" class="edge"><title>21&#45;&gt;34</title>
<path fill="none" stroke="black" d="M2539.82,-434.781C2559.76,-438.076 2593.24,-443.61 2616.86,-447.513"/>
<polygon fill="black" stroke="black" points="2616.49,-451.001 2626.93,-449.178 2617.63,-444.094 2616.49,-451.001"/>
<text text-anchor="middle" x="2586" y="-449.8" font-family="Times,serif" font-size="14.00">u0004</text>
</g>
<!-- 44 -->
<g id="node58" class="node"><title>44</title>
<ellipse fill="none" stroke="black" cx="2763" cy="-490" rx="18" ry="18"/>
</g>
<!-- 34&#45;&gt;44 -->
<g id="edge80" class="edge"><title>34&#45;&gt;44</title>
<path fill="none" stroke="black" d="M2662.39,-446.865C2679.39,-442.497 2706.34,-438.325 2727,-448 2735.28,-451.877 2742.28,-458.782 2747.8,-465.887"/>
<polygon fill="black" stroke="black" points="2744.98,-467.962 2753.58,-474.151 2750.71,-463.95 2744.98,-467.962"/>
<text text-anchor="middle" x="2704" y="-451.8" font-family="Times,serif" font-size="14.00">u0008</text>
</g>
<!-- 44&#45;&gt;50 -->
<g id="edge81" class="edge"><title>44&#45;&gt;50</title>
<path fill="none" stroke="black" d="M2781.08,-491.694C2801.08,-493.677 2834.45,-496.987 2857.98,-499.32"/>
<polygon fill="black" stroke="black" points="2857.71,-502.811 2868.01,-500.315 2858.4,-495.845 2857.71,-502.811"/>
<text text-anchor="middle" x="2822" y="-500.8" font-family="Times,serif" font-size="14.00">u0008</text>
</g>
<!-- 22&#45;&gt;13 -->
<g id="edge84" class="edge"><title>22&#45;&gt;13</title>
<path fill="none" stroke="black" d="M2657.27,-99.2438C2676.37,-77.592 2717.39,-38 2762,-38 2762,-38 2762,-38 3143,-38 3188.13,-38 3205.44,-53.5036 3229,-92 3250.2,-126.641 3262.98,-404.677 3266.79,-500.601"/>
<polygon fill="black" stroke="black" points="3263.3,-501 3267.19,-510.856 3270.3,-500.727 3263.3,-501"/>
<text text-anchor="middle" x="2950" y="-41.8" font-family="Times,serif" font-size="14.00">u0000</text>
</g>
<!-- 35 -->
<g id="node60" class="node"><title>35</title>
<ellipse fill="none" stroke="black" cx="2763" cy="-138" rx="18" ry="18"/>
</g>
<!-- 22&#45;&gt;35 -->
<g id="edge82" class="edge"><title>22&#45;&gt;35</title>
<path fill="none" stroke="black" d="M2663.12,-116.689C2682.16,-120.793 2713.16,-127.475 2735.38,-132.263"/>
<polygon fill="black" stroke="black" points="2734.68,-135.692 2745.19,-134.377 2736.15,-128.849 2734.68,-135.692"/>
<text text-anchor="middle" x="2704" y="-133.8" font-family="Times,serif" font-size="14.00">u0004</text>
</g>
<!-- 36 -->
<g id="node61" class="node"><title>36</title>
<ellipse fill="none" stroke="black" cx="2763" cy="-84" rx="18" ry="18"/>
</g>
<!-- 22&#45;&gt;36 -->
<g id="edge83" class="edge"><title>22&#45;&gt;36</title>
<path fill="none" stroke="black" d="M2662.34,-108.157C2668.21,-106.464 2674.88,-104.59 2681,-103 2698.95,-98.3343 2719.26,-93.5701 2735.06,-89.9795"/>
<polygon fill="black" stroke="black" points="2736.2,-93.3097 2745.19,-87.6968 2734.66,-86.4809 2736.2,-93.3097"/>
<text text-anchor="middle" x="2704" y="-106.8" font-family="Times,serif" font-size="14.00">u0008</text>
</g>
<!-- 35&#45;&gt;13 -->
<g id="edge86" class="edge"><title>35&#45;&gt;13</title>
<path fill="none" stroke="black" d="M2773.18,-123.098C2779.38,-114.361 2788.35,-103.911 2799,-98 2832.86,-79.2078 2846.27,-84 2885,-84 2885,-84 2885,-84 3143,-84 3197.05,-84 3205.67,-121.238 3229,-170 3256.82,-228.159 3265.05,-423.111 3267.26,-500.724"/>
<polygon fill="black" stroke="black" points="3263.77,-500.968 3267.53,-510.87 3270.76,-500.78 3263.77,-500.968"/>
<text text-anchor="middle" x="3014" y="-87.8" font-family="Times,serif" font-size="14.00">u0000</text>
</g>
<!-- 35&#45;&gt;38 -->
<g id="edge85" class="edge"><title>35&#45;&gt;38</title>
<path fill="none" stroke="black" d="M2773.41,-153.008C2789.83,-179.7 2823.94,-237.557 2845,-290 2856.01,-317.419 2849.38,-327.777 2863,-354 2864.06,-356.049 2865.3,-358.088 2866.63,-360.074"/>
<polygon fill="black" stroke="black" points="2864.04,-362.447 2872.87,-368.308 2869.62,-358.222 2864.04,-362.447"/>
<text text-anchor="middle" x="2822" y="-293.8" font-family="Times,serif" font-size="14.00">u0008</text>
</g>
<!-- 45 -->
<g id="node62" class="node"><title>45</title>
<ellipse fill="none" stroke="black" cx="2886" cy="-130" rx="18" ry="18"/>
</g>
<!-- 36&#45;&gt;45 -->
<g id="edge87" class="edge"><title>36&#45;&gt;45</title>
<path fill="none" stroke="black" d="M2780.32,-90.2038C2800.64,-97.9287 2835.58,-111.212 2859.46,-120.29"/>
<polygon fill="black" stroke="black" points="2858.35,-123.612 2868.94,-123.895 2860.84,-117.069 2858.35,-123.612"/>
<text text-anchor="middle" x="2822" y="-117.8" font-family="Times,serif" font-size="14.00">u0004</text>
</g>
<!-- 45&#45;&gt;20 -->
<g id="edge88" class="edge"><title>45&#45;&gt;20</title>
<path fill="none" stroke="black" d="M2901.92,-139.043C2920.41,-150.814 2952.01,-172.873 2973,-198 2985.26,-212.68 2995.36,-231.719 3002.34,-246.942"/>
<polygon fill="black" stroke="black" points="2999.24,-248.572 3006.47,-256.31 3005.64,-245.747 2999.24,-248.572"/>
<text text-anchor="middle" x="2950" y="-201.8" font-family="Times,serif" font-size="14.00">u0006</text>
</g>
<!-- initial -->
<g id="node63" class="node"><title>initial</title>
</g>
<!-- initial&#45;&gt;0 -->
<g id="edge89" class="edge"><title>initial&#45;&gt;0</title>
<path fill="none" stroke="black" d="M54.195,-351C62.6538,-351 72.0513,-351 80.5951,-351"/>
<polygon fill="black" stroke="black" points="80.8257,-354.5 90.8257,-351 80.8257,-347.5 80.8257,-354.5"/>
</g>
</g>
</svg>
