<svg width="2447px" height="696px"
 viewBox="0.00 0.00 1835.00 522.00" xmlns="http://www.w3.org/2000/svg" xmlns:xlink="http://www.w3.org/1999/xlink">
<g id="graph0" class="graph" transform="scale(1.000022500562514 1.000022500562514) rotate(0) translate(4 518)">
<title>Automaton</title>
<polygon fill="white" stroke="none" points="-4,4 -4,-518 1831,-518 1831,4 -4,4"/>
<!-- 0 -->
<g id="node1" class="node"><title>0</title>
<ellipse fill="none" stroke="black" cx="109" cy="-18" rx="18" ry="18"/>
</g>
<!-- 1 -->
<g id="node2" class="node"><title>1</title>
<ellipse fill="none" stroke="black" cx="227" cy="-18" rx="18" ry="18"/>
</g>
<!-- 0&#45;&gt;1 -->
<g id="edge1" class="edge"><title>0&#45;&gt;1</title>
<path fill="none" stroke="black" d="M127.116,-18C145.964,-18 176.531,-18 198.696,-18"/>
<polygon fill="black" stroke="black" points="198.814,-21.5001 208.814,-18 198.814,-14.5001 198.814,-21.5001"/>
<text text-anchor="middle" x="168" y="-21.8" font-family="Times,serif" font-size="14.00">u0005</text>
</g>
<!-- 2 -->
<g id="node3" class="node"><title>2</title>
<ellipse fill="none" stroke="black" cx="345" cy="-182" rx="18" ry="18"/>
</g>
<!-- 1&#45;&gt;2 -->
<g id="edge2" class="edge"><title>1&#45;&gt;2</title>
<path fill="none" stroke="black" d="M238.091,-32.267C258.23,-60.7389 303.556,-124.82 327.868,-159.193"/>
<polygon fill="black" stroke="black" points="325.217,-161.506 333.849,-167.649 330.932,-157.464 325.217,-161.506"/>
<text text-anchor="middle" x="286" y="-131.8" font-family="Times,serif" font-size="14.00">u0004</text>
</g>
<!-- 3 -->
<g id="node7" class="node"><title>3</title>
<ellipse fill="none" stroke="black" cx="1805" cy="-63" rx="18" ry="18"/>
<ellipse fill="none" stroke="black" cx="1805" cy="-63" rx="22" ry="22"/>
</g>
<!-- 1&#45;&gt;3 -->
<g id="edge3" class="edge"><title>1&#45;&gt;3</title>
<path fill="none" stroke="black" d="M244.805,-14.2082C267.28,-9.47681 308.423,-2 344,-2 344,-2 344,-2 1684,-2 1720.43,-2 1756.98,-24.6108 1780,-42.3003"/>
<polygon fill="black" stroke="black" points="1777.84,-45.055 1787.85,-48.5439 1782.2,-39.578 1777.84,-45.055"/>
<text text-anchor="middle" x="1004" y="-5.8" font-family="Times,serif" font-size="14.00">u0000</text>
</g>
<!-- 4 -->
<g id="node4" class="node"><title>4</title>
<ellipse fill="none" stroke="black" cx="463" cy="-263" rx="18" ry="18"/>
</g>
<!-- 2&#45;&gt;4 -->
<g id="edge4" class="edge"><title>2&#45;&gt;4</title>
<path fill="none" stroke="black" d="M360.224,-191.932C379.965,-205.717 415.883,-230.798 439.34,-247.177"/>
<polygon fill="black" stroke="black" points="437.457,-250.131 447.66,-252.987 441.465,-244.392 437.457,-250.131"/>
<text text-anchor="middle" x="404" y="-239.8" font-family="Times,serif" font-size="14.00">u0003</text>
</g>
<!-- 5 -->
<g id="node6" class="node"><title>5</title>
<ellipse fill="none" stroke="black" cx="1683" cy="-214" rx="18" ry="18"/>
</g>
<!-- 2&#45;&gt;5 -->
<g id="edge5" class="edge"><title>2&#45;&gt;5</title>
<path fill="none" stroke="black" d="M348.548,-199.952C358.559,-267.011 397.829,-499 462,-499 462,-499 462,-499 1566,-499 1611.88,-499 1623.82,-474.596 1647,-435 1665.87,-402.762 1676.14,-294.234 1680.08,-242.236"/>
<polygon fill="black" stroke="black" points="1683.59,-242.275 1680.83,-232.047 1676.61,-241.764 1683.59,-242.275"/>
<text text-anchor="middle" x="1004" y="-502.8" font-family="Times,serif" font-size="14.00">u0002</text>
</g>
<!-- 6 -->
<g id="node16" class="node"><title>6</title>
<ellipse fill="none" stroke="black" cx="1068" cy="-109" rx="18" ry="18"/>
</g>
<!-- 2&#45;&gt;6 -->
<g id="edge6" class="edge"><title>2&#45;&gt;6</title>
<path fill="none" stroke="black" d="M362.318,-176.666C384.588,-169.871 425.866,-159 462,-159 462,-159 462,-159 946,-159 982.52,-159 1020.86,-139.304 1044.35,-124.636"/>
<polygon fill="black" stroke="black" points="1046.39,-127.488 1052.88,-119.118 1042.59,-121.611 1046.39,-127.488"/>
<text text-anchor="middle" x="704" y="-162.8" font-family="Times,serif" font-size="14.00">u0001</text>
</g>
<!-- 7 -->
<g id="node5" class="node"><title>7</title>
<ellipse fill="none" stroke="black" cx="1565" cy="-214" rx="18" ry="18"/>
</g>
<!-- 4&#45;&gt;7 -->
<g id="edge7" class="edge"><title>4&#45;&gt;7</title>
<path fill="none" stroke="black" d="M479.71,-255.285C501.621,-245.253 542.855,-229 580,-229 580,-229 580,-229 1443,-229 1475.64,-229 1512.85,-223.559 1537.29,-219.231"/>
<polygon fill="black" stroke="black" points="1538.04,-222.652 1547.25,-217.404 1536.78,-215.767 1538.04,-222.652"/>
<text text-anchor="middle" x="1004" y="-232.8" font-family="Times,serif" font-size="14.00">u0003</text>
</g>
<!-- 4&#45;&gt;5 -->
<g id="edge8" class="edge"><title>4&#45;&gt;5</title>
<path fill="none" stroke="black" d="M466.129,-280.811C472.929,-328.59 498.686,-456 580,-456 580,-456 580,-456 1566,-456 1659.81,-456 1677.81,-306.292 1681.22,-242.375"/>
<polygon fill="black" stroke="black" points="1684.73,-242.336 1681.68,-232.189 1677.74,-242.022 1684.73,-242.336"/>
<text text-anchor="middle" x="1068" y="-459.8" font-family="Times,serif" font-size="14.00">u0002</text>
</g>
<!-- 8 -->
<g id="node8" class="node"><title>8</title>
<ellipse fill="none" stroke="black" cx="581" cy="-303" rx="18" ry="18"/>
</g>
<!-- 4&#45;&gt;8 -->
<g id="edge9" class="edge"><title>4&#45;&gt;8</title>
<path fill="none" stroke="black" d="M480.129,-268.562C499.24,-275.152 531.337,-286.22 553.977,-294.027"/>
<polygon fill="black" stroke="black" points="553.039,-297.405 563.634,-297.356 555.321,-290.788 553.039,-297.405"/>
<text text-anchor="middle" x="522" y="-293.8" font-family="Times,serif" font-size="14.00">u0001</text>
</g>
<!-- 7&#45;&gt;5 -->
<g id="edge10" class="edge"><title>7&#45;&gt;5</title>
<path fill="none" stroke="black" d="M1583.12,-214C1601.96,-214 1632.53,-214 1654.7,-214"/>
<polygon fill="black" stroke="black" points="1654.81,-217.5 1664.81,-214 1654.81,-210.5 1654.81,-217.5"/>
<text text-anchor="middle" x="1624" y="-217.8" font-family="Times,serif" font-size="14.00">u0002</text>
</g>
<!-- 5&#45;&gt;3 -->
<g id="edge11" class="edge"><title>5&#45;&gt;3</title>
<path fill="none" stroke="black" d="M1694.86,-200.333C1714.99,-175.009 1758.35,-120.445 1783.94,-88.2386"/>
<polygon fill="black" stroke="black" points="1786.87,-90.1834 1790.35,-80.1769 1781.39,-85.8282 1786.87,-90.1834"/>
<text text-anchor="middle" x="1742" y="-172.8" font-family="Times,serif" font-size="14.00">u0000</text>
</g>
<!-- 8&#45;&gt;5 -->
<g id="edge13" class="edge"><title>8&#45;&gt;5</title>
<path fill="none" stroke="black" d="M590.281,-318.788C607.161,-348.552 648.598,-410 703,-410 703,-410 703,-410 1566,-410 1643.1,-410 1670.05,-296.278 1678.51,-242.082"/>
<polygon fill="black" stroke="black" points="1681.99,-242.488 1679.97,-232.088 1675.06,-241.479 1681.99,-242.488"/>
<text text-anchor="middle" x="1132" y="-413.8" font-family="Times,serif" font-size="14.00">u0002</text>
</g>
<!-- 10 -->
<g id="node9" class="node"><title>10</title>
<ellipse fill="none" stroke="black" cx="704" cy="-303" rx="18" ry="18"/>
</g>
<!-- 8&#45;&gt;10 -->
<g id="edge12" class="edge"><title>8&#45;&gt;10</title>
<path fill="none" stroke="black" d="M599.08,-303C618.965,-303 652.077,-303 675.577,-303"/>
<polygon fill="black" stroke="black" points="675.615,-306.5 685.615,-303 675.615,-299.5 675.615,-306.5"/>
<text text-anchor="middle" x="640" y="-306.8" font-family="Times,serif" font-size="14.00">u0003</text>
</g>
<!-- 12 -->
<g id="node10" class="node"><title>12</title>
<ellipse fill="none" stroke="black" cx="827" cy="-326" rx="18" ry="18"/>
</g>
<!-- 10&#45;&gt;12 -->
<g id="edge14" class="edge"><title>10&#45;&gt;12</title>
<path fill="none" stroke="black" d="M721.825,-306.198C741.759,-309.987 775.239,-316.351 798.856,-320.84"/>
<polygon fill="black" stroke="black" points="798.451,-324.326 808.928,-322.755 799.758,-317.449 798.451,-324.326"/>
<text text-anchor="middle" x="768" y="-322.8" font-family="Times,serif" font-size="14.00">u0003</text>
</g>
<!-- 13 -->
<g id="node11" class="node"><title>13</title>
<ellipse fill="none" stroke="black" cx="1442" cy="-292" rx="18" ry="18"/>
</g>
<!-- 10&#45;&gt;13 -->
<g id="edge15" class="edge"><title>10&#45;&gt;13</title>
<path fill="none" stroke="black" d="M721.165,-296.786C744.113,-288.537 787.62,-275 826,-275 826,-275 826,-275 1005,-275 1159.64,-275 1344.89,-285.81 1413.61,-290.189"/>
<polygon fill="black" stroke="black" points="1413.77,-293.707 1423.97,-290.858 1414.22,-286.722 1413.77,-293.707"/>
<text text-anchor="middle" x="1068" y="-278.8" font-family="Times,serif" font-size="14.00">u0001</text>
</g>
<!-- 12&#45;&gt;13 -->
<g id="edge16" class="edge"><title>12&#45;&gt;13</title>
<path fill="none" stroke="black" d="M842.29,-335.755C863.497,-349.258 905.004,-372 944,-372 944,-372 944,-372 1315,-372 1359,-372 1400.06,-336.803 1422.73,-313.101"/>
<polygon fill="black" stroke="black" points="1425.47,-315.29 1429.69,-305.571 1420.33,-310.539 1425.47,-315.29"/>
<text text-anchor="middle" x="1132" y="-375.8" font-family="Times,serif" font-size="14.00">u0003</text>
</g>
<!-- 15 -->
<g id="node12" class="node"><title>15</title>
<ellipse fill="none" stroke="black" cx="945" cy="-326" rx="18" ry="18"/>
</g>
<!-- 12&#45;&gt;15 -->
<g id="edge17" class="edge"><title>12&#45;&gt;15</title>
<path fill="none" stroke="black" d="M845.116,-326C863.964,-326 894.531,-326 916.696,-326"/>
<polygon fill="black" stroke="black" points="916.814,-329.5 926.814,-326 916.814,-322.5 916.814,-329.5"/>
<text text-anchor="middle" x="886" y="-329.8" font-family="Times,serif" font-size="14.00">u0001</text>
</g>
<!-- 13&#45;&gt;7 -->
<g id="edge18" class="edge"><title>13&#45;&gt;7</title>
<path fill="none" stroke="black" d="M1458.4,-284.268C1475.99,-275.199 1505.39,-259.32 1529,-243 1533.79,-239.69 1538.72,-235.881 1543.32,-232.134"/>
<polygon fill="black" stroke="black" points="1545.72,-234.689 1551.13,-225.579 1541.22,-229.326 1545.72,-234.689"/>
<text text-anchor="middle" x="1506" y="-274.8" font-family="Times,serif" font-size="14.00">u0001</text>
</g>
<!-- 16 -->
<g id="node13" class="node"><title>16</title>
<ellipse fill="none" stroke="black" cx="1068" cy="-326" rx="18" ry="18"/>
</g>
<!-- 15&#45;&gt;16 -->
<g id="edge19" class="edge"><title>15&#45;&gt;16</title>
<path fill="none" stroke="black" d="M963.08,-326C982.965,-326 1016.08,-326 1039.58,-326"/>
<polygon fill="black" stroke="black" points="1039.62,-329.5 1049.62,-326 1039.62,-322.5 1039.62,-329.5"/>
<text text-anchor="middle" x="1004" y="-329.8" font-family="Times,serif" font-size="14.00">u0003</text>
</g>
<!-- 17 -->
<g id="node14" class="node"><title>17</title>
<ellipse fill="none" stroke="black" cx="1191" cy="-325" rx="18" ry="18"/>
</g>
<!-- 16&#45;&gt;17 -->
<g id="edge20" class="edge"><title>16&#45;&gt;17</title>
<path fill="none" stroke="black" d="M1086.08,-325.859C1105.96,-325.695 1139.08,-325.421 1162.58,-325.227"/>
<polygon fill="black" stroke="black" points="1162.64,-328.726 1172.62,-325.144 1162.59,-321.727 1162.64,-328.726"/>
<text text-anchor="middle" x="1132" y="-328.8" font-family="Times,serif" font-size="14.00">u0001</text>
</g>
<!-- 18 -->
<g id="node15" class="node"><title>18</title>
<ellipse fill="none" stroke="black" cx="1314" cy="-325" rx="18" ry="18"/>
</g>
<!-- 17&#45;&gt;18 -->
<g id="edge21" class="edge"><title>17&#45;&gt;18</title>
<path fill="none" stroke="black" d="M1209.08,-325C1228.96,-325 1262.08,-325 1285.58,-325"/>
<polygon fill="black" stroke="black" points="1285.62,-328.5 1295.62,-325 1285.62,-321.5 1285.62,-328.5"/>
<text text-anchor="middle" x="1250" y="-328.8" font-family="Times,serif" font-size="14.00">u0001</text>
</g>
<!-- 18&#45;&gt;13 -->
<g id="edge22" class="edge"><title>18&#45;&gt;13</title>
<path fill="none" stroke="black" d="M1331.83,-320.789C1349.19,-316.425 1377.02,-309.364 1401,-303 1405.31,-301.857 1409.87,-300.624 1414.31,-299.411"/>
<polygon fill="black" stroke="black" points="1415.57,-302.696 1424.28,-296.67 1413.71,-295.946 1415.57,-302.696"/>
<text text-anchor="middle" x="1378" y="-317.8" font-family="Times,serif" font-size="14.00">u0003</text>
</g>
<!-- 6&#45;&gt;7 -->
<g id="edge25" class="edge"><title>6&#45;&gt;7</title>
<path fill="none" stroke="black" d="M1085.64,-114.219C1108.8,-121.005 1152.15,-132 1190,-132 1190,-132 1190,-132 1443,-132 1486.09,-132 1525.25,-168.077 1546.74,-192.372"/>
<polygon fill="black" stroke="black" points="1544.17,-194.757 1553.33,-200.09 1549.5,-190.212 1544.17,-194.757"/>
<text text-anchor="middle" x="1314" y="-135.8" font-family="Times,serif" font-size="14.00">u0001</text>
</g>
<!-- 6&#45;&gt;5 -->
<g id="edge24" class="edge"><title>6&#45;&gt;5</title>
<path fill="none" stroke="black" d="M1081.1,-96.3443C1101.53,-76.4246 1145.02,-40 1190,-40 1190,-40 1190,-40 1566,-40 1608.78,-40 1621.46,-57.6796 1647,-92 1667.7,-119.811 1676.17,-159.515 1679.63,-185.992"/>
<polygon fill="black" stroke="black" points="1676.18,-186.581 1680.8,-196.116 1683.13,-185.782 1676.18,-186.581"/>
<text text-anchor="middle" x="1378" y="-43.8" font-family="Times,serif" font-size="14.00">u0002</text>
</g>
<!-- 9 -->
<g id="node17" class="node"><title>9</title>
<ellipse fill="none" stroke="black" cx="1191" cy="-86" rx="18" ry="18"/>
</g>
<!-- 6&#45;&gt;9 -->
<g id="edge23" class="edge"><title>6&#45;&gt;9</title>
<path fill="none" stroke="black" d="M1085.82,-105.802C1105.76,-102.013 1139.24,-95.6487 1162.86,-91.1596"/>
<polygon fill="black" stroke="black" points="1163.76,-94.5509 1172.93,-89.245 1162.45,-87.6741 1163.76,-94.5509"/>
<text text-anchor="middle" x="1132" y="-103.8" font-family="Times,serif" font-size="14.00">u0003</text>
</g>
<!-- 9&#45;&gt;5 -->
<g id="edge27" class="edge"><title>9&#45;&gt;5</title>
<path fill="none" stroke="black" d="M1209.23,-86C1232.7,-86 1276.03,-86 1313,-86 1313,-86 1313,-86 1566,-86 1620.51,-86 1656.09,-150.523 1672.14,-187.948"/>
<polygon fill="black" stroke="black" points="1668.94,-189.351 1675.98,-197.266 1675.41,-186.687 1668.94,-189.351"/>
<text text-anchor="middle" x="1442" y="-89.8" font-family="Times,serif" font-size="14.00">u0002</text>
</g>
<!-- 11 -->
<g id="node18" class="node"><title>11</title>
<ellipse fill="none" stroke="black" cx="1314" cy="-183" rx="18" ry="18"/>
</g>
<!-- 9&#45;&gt;11 -->
<g id="edge26" class="edge"><title>9&#45;&gt;11</title>
<path fill="none" stroke="black" d="M1205.88,-97.1271C1226.76,-113.865 1266.43,-145.67 1291.2,-165.523"/>
<polygon fill="black" stroke="black" points="1289.29,-168.479 1299.28,-172.003 1293.67,-163.017 1289.29,-168.479"/>
<text text-anchor="middle" x="1250" y="-151.8" font-family="Times,serif" font-size="14.00">u0003</text>
</g>
<!-- 11&#45;&gt;13 -->
<g id="edge28" class="edge"><title>11&#45;&gt;13</title>
<path fill="none" stroke="black" d="M1328.48,-194.665C1350.37,-213.596 1393.78,-251.153 1419.82,-273.677"/>
<polygon fill="black" stroke="black" points="1417.76,-276.523 1427.61,-280.419 1422.34,-271.229 1417.76,-276.523"/>
<text text-anchor="middle" x="1378" y="-259.8" font-family="Times,serif" font-size="14.00">u0003</text>
</g>
<!-- 14 -->
<g id="node19" class="node"><title>14</title>
<ellipse fill="none" stroke="black" cx="1442" cy="-183" rx="18" ry="18"/>
</g>
<!-- 11&#45;&gt;14 -->
<g id="edge29" class="edge"><title>11&#45;&gt;14</title>
<path fill="none" stroke="black" d="M1332.26,-183C1353.27,-183 1389.03,-183 1413.77,-183"/>
<polygon fill="black" stroke="black" points="1413.95,-186.5 1423.95,-183 1413.95,-179.5 1413.95,-186.5"/>
<text text-anchor="middle" x="1378" y="-186.8" font-family="Times,serif" font-size="14.00">u0001</text>
</g>
<!-- 14&#45;&gt;7 -->
<g id="edge30" class="edge"><title>14&#45;&gt;7</title>
<path fill="none" stroke="black" d="M1460.03,-185.412C1477.55,-188.114 1505.5,-193.044 1529,-200 1532.2,-200.947 1535.51,-202.073 1538.77,-203.268"/>
<polygon fill="black" stroke="black" points="1537.6,-206.569 1548.19,-206.954 1540.15,-200.051 1537.6,-206.569"/>
<text text-anchor="middle" x="1506" y="-203.8" font-family="Times,serif" font-size="14.00">u0003</text>
</g>
<!-- initial -->
<g id="node20" class="node"><title>initial</title>
</g>
<!-- initial&#45;&gt;0 -->
<g id="edge31" class="edge"><title>initial&#45;&gt;0</title>
<path fill="none" stroke="black" d="M54.195,-18C62.6538,-18 72.0513,-18 80.5951,-18"/>
<polygon fill="black" stroke="black" points="80.8257,-21.5001 90.8257,-18 80.8257,-14.5001 80.8257,-21.5001"/>
</g>
</g>
</svg>
