<svg width="2775px" height="421px"
 viewBox="0.00 0.00 2081.00 316.00" xmlns="http://www.w3.org/2000/svg" xmlns:xlink="http://www.w3.org/1999/xlink">
<g id="graph0" class="graph" transform="scale(1.000022500562514 1.000022500562514) rotate(0) translate(4 312)">
<title>Automaton</title>
<polygon fill="white" stroke="none" points="-4,4 -4,-312 2077,-312 2077,4 -4,4"/>
<!-- 0 -->
<g id="node1" class="node"><title>0</title>
<ellipse fill="none" stroke="black" cx="109" cy="-108" rx="18" ry="18"/>
</g>
<!-- 1 -->
<g id="node2" class="node"><title>1</title>
<ellipse fill="none" stroke="black" cx="227" cy="-108" rx="18" ry="18"/>
</g>
<!-- 0&#45;&gt;1 -->
<g id="edge1" class="edge"><title>0&#45;&gt;1</title>
<path fill="none" stroke="black" d="M127.116,-108C145.964,-108 176.531,-108 198.696,-108"/>
<polygon fill="black" stroke="black" points="198.814,-111.5 208.814,-108 198.814,-104.5 198.814,-111.5"/>
<text text-anchor="middle" x="168" y="-111.8" font-family="Times,serif" font-size="14.00">u0005</text>
</g>
<!-- 2 -->
<g id="node3" class="node"><title>2</title>
<ellipse fill="none" stroke="black" cx="345" cy="-108" rx="18" ry="18"/>
</g>
<!-- 1&#45;&gt;2 -->
<g id="edge2" class="edge"><title>1&#45;&gt;2</title>
<path fill="none" stroke="black" d="M245.116,-108C263.964,-108 294.531,-108 316.696,-108"/>
<polygon fill="black" stroke="black" points="316.814,-111.5 326.814,-108 316.814,-104.5 316.814,-111.5"/>
<text text-anchor="middle" x="286" y="-111.8" font-family="Times,serif" font-size="14.00">u0002</text>
</g>
<!-- 3 -->
<g id="node4" class="node"><title>3</title>
<ellipse fill="none" stroke="black" cx="463" cy="-182" rx="18" ry="18"/>
</g>
<!-- 2&#45;&gt;3 -->
<g id="edge3" class="edge"><title>2&#45;&gt;3</title>
<path fill="none" stroke="black" d="M360.691,-117.372C380.39,-129.938 415.572,-152.382 438.851,-167.232"/>
<polygon fill="black" stroke="black" points="437.115,-170.276 447.428,-172.704 440.88,-164.375 437.115,-170.276"/>
<text text-anchor="middle" x="404" y="-161.8" font-family="Times,serif" font-size="14.00">u0002</text>
</g>
<!-- 4 -->
<g id="node21" class="node"><title>4</title>
<ellipse fill="none" stroke="black" cx="522" cy="-77" rx="18" ry="18"/>
</g>
<!-- 2&#45;&gt;4 -->
<g id="edge4" class="edge"><title>2&#45;&gt;4</title>
<path fill="none" stroke="black" d="M362.78,-105.028C393.146,-99.6484 457.455,-88.2566 494.047,-81.7745"/>
<polygon fill="black" stroke="black" points="494.778,-85.1997 504.014,-80.009 493.557,-78.307 494.778,-85.1997"/>
<text text-anchor="middle" x="404" y="-105.8" font-family="Times,serif" font-size="14.00">u0000</text>
</g>
<!-- 5 -->
<g id="node5" class="node"><title>5</title>
<ellipse fill="none" stroke="black" cx="581" cy="-182" rx="18" ry="18"/>
</g>
<!-- 3&#45;&gt;5 -->
<g id="edge5" class="edge"><title>3&#45;&gt;5</title>
<path fill="none" stroke="black" d="M481.116,-182C499.964,-182 530.531,-182 552.696,-182"/>
<polygon fill="black" stroke="black" points="552.814,-185.5 562.814,-182 552.814,-178.5 552.814,-185.5"/>
<text text-anchor="middle" x="522" y="-185.8" font-family="Times,serif" font-size="14.00">u0002</text>
</g>
<!-- 6 -->
<g id="node20" class="node"><title>6</title>
<ellipse fill="none" stroke="black" cx="640" cy="-274" rx="18" ry="18"/>
</g>
<!-- 3&#45;&gt;6 -->
<g id="edge6" class="edge"><title>3&#45;&gt;6</title>
<path fill="none" stroke="black" d="M479.303,-190.379C485.417,-193.708 492.53,-197.557 499,-201 539.263,-222.424 586.327,-246.836 614.344,-261.302"/>
<polygon fill="black" stroke="black" points="612.926,-264.508 623.418,-265.983 616.135,-258.287 612.926,-264.508"/>
<text text-anchor="middle" x="522" y="-227.8" font-family="Times,serif" font-size="14.00">u0000</text>
</g>
<!-- 8 -->
<g id="node6" class="node"><title>8</title>
<ellipse fill="none" stroke="black" cx="704" cy="-227" rx="18" ry="18"/>
</g>
<!-- 5&#45;&gt;8 -->
<g id="edge7" class="edge"><title>5&#45;&gt;8</title>
<path fill="none" stroke="black" d="M598.319,-188.069C618.638,-195.626 653.579,-208.62 677.458,-217.501"/>
<polygon fill="black" stroke="black" points="676.347,-220.822 686.94,-221.027 678.787,-214.261 676.347,-220.822"/>
<text text-anchor="middle" x="640" y="-214.8" font-family="Times,serif" font-size="14.00">u0002</text>
</g>
<!-- 9 -->
<g id="node18" class="node"><title>9</title>
<ellipse fill="none" stroke="black" cx="827" cy="-193" rx="18" ry="18"/>
</g>
<!-- 5&#45;&gt;9 -->
<g id="edge8" class="edge"><title>5&#45;&gt;9</title>
<path fill="none" stroke="black" d="M599.421,-182.024C626.66,-182.136 680.982,-182.667 727,-185 751.266,-186.23 778.812,-188.53 798.676,-190.349"/>
<polygon fill="black" stroke="black" points="798.569,-193.854 808.851,-191.3 799.22,-186.885 798.569,-193.854"/>
<text text-anchor="middle" x="704" y="-188.8" font-family="Times,serif" font-size="14.00">u0000</text>
</g>
<!-- 13 -->
<g id="node7" class="node"><title>13</title>
<ellipse fill="none" stroke="black" cx="827" cy="-247" rx="18" ry="18"/>
</g>
<!-- 8&#45;&gt;13 -->
<g id="edge9" class="edge"><title>8&#45;&gt;13</title>
<path fill="none" stroke="black" d="M721.825,-229.781C741.759,-233.076 775.239,-238.61 798.856,-242.513"/>
<polygon fill="black" stroke="black" points="798.491,-246.001 808.928,-244.178 799.633,-239.094 798.491,-246.001"/>
<text text-anchor="middle" x="768" y="-244.8" font-family="Times,serif" font-size="14.00">u0002</text>
</g>
<!-- 8&#45;&gt;9 -->
<g id="edge10" class="edge"><title>8&#45;&gt;9</title>
<path fill="none" stroke="black" d="M721.319,-221.999C728.56,-219.807 737.192,-217.231 745,-215 763.275,-209.778 783.954,-204.166 799.844,-199.918"/>
<polygon fill="black" stroke="black" points="800.758,-203.296 809.52,-197.34 798.957,-196.532 800.758,-203.296"/>
<text text-anchor="middle" x="768" y="-218.8" font-family="Times,serif" font-size="14.00">u0000</text>
</g>
<!-- 16 -->
<g id="node8" class="node"><title>16</title>
<ellipse fill="none" stroke="black" cx="945" cy="-247" rx="18" ry="18"/>
</g>
<!-- 13&#45;&gt;16 -->
<g id="edge11" class="edge"><title>13&#45;&gt;16</title>
<path fill="none" stroke="black" d="M845.116,-247C863.964,-247 894.531,-247 916.696,-247"/>
<polygon fill="black" stroke="black" points="916.814,-250.5 926.814,-247 916.814,-243.5 916.814,-250.5"/>
<text text-anchor="middle" x="886" y="-250.8" font-family="Times,serif" font-size="14.00">u0000</text>
</g>
<!-- 18 -->
<g id="node9" class="node"><title>18</title>
<ellipse fill="none" stroke="black" cx="1063" cy="-247" rx="18" ry="18"/>
</g>
<!-- 16&#45;&gt;18 -->
<g id="edge12" class="edge"><title>16&#45;&gt;18</title>
<path fill="none" stroke="black" d="M963.116,-247C981.964,-247 1012.53,-247 1034.7,-247"/>
<polygon fill="black" stroke="black" points="1034.81,-250.5 1044.81,-247 1034.81,-243.5 1034.81,-250.5"/>
<text text-anchor="middle" x="1004" y="-250.8" font-family="Times,serif" font-size="14.00">u0004</text>
</g>
<!-- 19 -->
<g id="node10" class="node"><title>19</title>
<ellipse fill="none" stroke="black" cx="1181" cy="-247" rx="18" ry="18"/>
</g>
<!-- 18&#45;&gt;19 -->
<g id="edge13" class="edge"><title>18&#45;&gt;19</title>
<path fill="none" stroke="black" d="M1081.12,-247C1099.96,-247 1130.53,-247 1152.7,-247"/>
<polygon fill="black" stroke="black" points="1152.81,-250.5 1162.81,-247 1152.81,-243.5 1152.81,-250.5"/>
<text text-anchor="middle" x="1122" y="-250.8" font-family="Times,serif" font-size="14.00">u0001</text>
</g>
<!-- 20 -->
<g id="node11" class="node"><title>20</title>
<ellipse fill="none" stroke="black" cx="1304" cy="-247" rx="18" ry="18"/>
</g>
<!-- 19&#45;&gt;20 -->
<g id="edge14" class="edge"><title>19&#45;&gt;20</title>
<path fill="none" stroke="black" d="M1199.08,-247C1218.96,-247 1252.08,-247 1275.58,-247"/>
<polygon fill="black" stroke="black" points="1275.62,-250.5 1285.62,-247 1275.62,-243.5 1275.62,-250.5"/>
<text text-anchor="middle" x="1240" y="-250.8" font-family="Times,serif" font-size="14.00">u0001</text>
</g>
<!-- 21 -->
<g id="node12" class="node"><title>21</title>
<ellipse fill="none" stroke="black" cx="1427" cy="-247" rx="18" ry="18"/>
</g>
<!-- 20&#45;&gt;21 -->
<g id="edge15" class="edge"><title>20&#45;&gt;21</title>
<path fill="none" stroke="black" d="M1322.08,-247C1341.96,-247 1375.08,-247 1398.58,-247"/>
<polygon fill="black" stroke="black" points="1398.62,-250.5 1408.62,-247 1398.62,-243.5 1398.62,-250.5"/>
<text text-anchor="middle" x="1368" y="-250.8" font-family="Times,serif" font-size="14.00">u0001</text>
</g>
<!-- 22 -->
<g id="node13" class="node"><title>22</title>
<ellipse fill="none" stroke="black" cx="1545" cy="-247" rx="18" ry="18"/>
</g>
<!-- 21&#45;&gt;22 -->
<g id="edge16" class="edge"><title>21&#45;&gt;22</title>
<path fill="none" stroke="black" d="M1445.12,-247C1463.96,-247 1494.53,-247 1516.7,-247"/>
<polygon fill="black" stroke="black" points="1516.81,-250.5 1526.81,-247 1516.81,-243.5 1516.81,-250.5"/>
<text text-anchor="middle" x="1486" y="-250.8" font-family="Times,serif" font-size="14.00">u0001</text>
</g>
<!-- 23 -->
<g id="node14" class="node"><title>23</title>
<ellipse fill="none" stroke="black" cx="1668" cy="-247" rx="18" ry="18"/>
</g>
<!-- 22&#45;&gt;23 -->
<g id="edge17" class="edge"><title>22&#45;&gt;23</title>
<path fill="none" stroke="black" d="M1563.08,-247C1582.96,-247 1616.08,-247 1639.58,-247"/>
<polygon fill="black" stroke="black" points="1639.62,-250.5 1649.62,-247 1639.62,-243.5 1639.62,-250.5"/>
<text text-anchor="middle" x="1604" y="-250.8" font-family="Times,serif" font-size="14.00">u0001</text>
</g>
<!-- 24 -->
<g id="node15" class="node"><title>24</title>
<ellipse fill="none" stroke="black" cx="1796" cy="-247" rx="18" ry="18"/>
</g>
<!-- 23&#45;&gt;24 -->
<g id="edge18" class="edge"><title>23&#45;&gt;24</title>
<path fill="none" stroke="black" d="M1686.26,-247C1707.27,-247 1743.03,-247 1767.77,-247"/>
<polygon fill="black" stroke="black" points="1767.95,-250.5 1777.95,-247 1767.95,-243.5 1767.95,-250.5"/>
<text text-anchor="middle" x="1732" y="-250.8" font-family="Times,serif" font-size="14.00">u0001</text>
</g>
<!-- 10 -->
<g id="node16" class="node"><title>10</title>
<ellipse fill="none" stroke="black" cx="1924" cy="-239" rx="18" ry="18"/>
</g>
<!-- 24&#45;&gt;10 -->
<g id="edge19" class="edge"><title>24&#45;&gt;10</title>
<path fill="none" stroke="black" d="M1813.99,-245.921C1834.94,-244.591 1870.81,-242.314 1895.65,-240.736"/>
<polygon fill="black" stroke="black" points="1896.12,-244.214 1905.87,-240.087 1895.67,-237.228 1896.12,-244.214"/>
<text text-anchor="middle" x="1860" y="-247.8" font-family="Times,serif" font-size="14.00">u0001</text>
</g>
<!-- 11 -->
<g id="node17" class="node"><title>11</title>
<ellipse fill="none" stroke="black" cx="2051" cy="-110" rx="18" ry="18"/>
<ellipse fill="none" stroke="black" cx="2051" cy="-110" rx="22" ry="22"/>
</g>
<!-- 10&#45;&gt;11 -->
<g id="edge20" class="edge"><title>10&#45;&gt;11</title>
<path fill="none" stroke="black" d="M1941.2,-233.645C1960.09,-226.686 1991.25,-212.896 2011,-192 2024.63,-177.58 2034.29,-157.516 2040.58,-140.844"/>
<polygon fill="black" stroke="black" points="2044.03,-141.577 2044.07,-130.982 2037.43,-139.242 2044.03,-141.577"/>
<text text-anchor="middle" x="1988" y="-226.8" font-family="Times,serif" font-size="14.00">u0003</text>
</g>
<!-- 14 -->
<g id="node19" class="node"><title>14</title>
<ellipse fill="none" stroke="black" cx="1796" cy="-186" rx="18" ry="18"/>
</g>
<!-- 9&#45;&gt;14 -->
<g id="edge21" class="edge"><title>9&#45;&gt;14</title>
<path fill="none" stroke="black" d="M845.293,-193.484C867.959,-194.076 908.953,-195 944,-195 944,-195 944,-195 1669,-195 1703.16,-195 1742.39,-191.669 1767.88,-189.06"/>
<polygon fill="black" stroke="black" points="1768.33,-192.531 1777.91,-187.997 1767.6,-185.57 1768.33,-192.531"/>
<text text-anchor="middle" x="1304" y="-198.8" font-family="Times,serif" font-size="14.00">u0004</text>
</g>
<!-- 14&#45;&gt;10 -->
<g id="edge23" class="edge"><title>14&#45;&gt;10</title>
<path fill="none" stroke="black" d="M1812.86,-192.609C1830.13,-199.811 1858.54,-211.684 1883,-222 1887.71,-223.985 1892.72,-226.109 1897.55,-228.159"/>
<polygon fill="black" stroke="black" points="1896.48,-231.506 1907.05,-232.197 1899.21,-225.063 1896.48,-231.506"/>
<text text-anchor="middle" x="1860" y="-225.8" font-family="Times,serif" font-size="14.00">u0001</text>
</g>
<!-- 14&#45;&gt;11 -->
<g id="edge22" class="edge"><title>14&#45;&gt;11</title>
<path fill="none" stroke="black" d="M1814.11,-185.951C1851.75,-185.193 1943.78,-179.735 2011,-146 2017.31,-142.835 2023.33,-138.341 2028.68,-133.597"/>
<polygon fill="black" stroke="black" points="2031.19,-136.041 2035.98,-126.593 2026.34,-130.99 2031.19,-136.041"/>
<text text-anchor="middle" x="1924" y="-181.8" font-family="Times,serif" font-size="14.00">u0003</text>
</g>
<!-- 6&#45;&gt;10 -->
<g id="edge24" class="edge"><title>6&#45;&gt;10</title>
<path fill="none" stroke="black" d="M657.593,-278.123C681.577,-283.711 727.401,-293 767,-293 767,-293 767,-293 1797,-293 1835.83,-293 1876.34,-271.066 1900.62,-255.156"/>
<polygon fill="black" stroke="black" points="1902.78,-257.92 1909.1,-249.412 1898.86,-252.126 1902.78,-257.92"/>
<text text-anchor="middle" x="1240" y="-296.8" font-family="Times,serif" font-size="14.00">u0004</text>
</g>
<!-- 7 -->
<g id="node22" class="node"><title>7</title>
<ellipse fill="none" stroke="black" cx="1304" cy="-65" rx="18" ry="18"/>
</g>
<!-- 4&#45;&gt;7 -->
<g id="edge25" class="edge"><title>4&#45;&gt;7</title>
<path fill="none" stroke="black" d="M540.28,-75.5476C562.932,-73.7719 603.911,-71 639,-71 639,-71 639,-71 1182,-71 1214.25,-71 1251.27,-68.8481 1275.78,-67.1217"/>
<polygon fill="black" stroke="black" points="1276.06,-70.6103 1285.78,-66.3916 1275.55,-63.6289 1276.06,-70.6103"/>
<text text-anchor="middle" x="886" y="-74.8" font-family="Times,serif" font-size="14.00">u0004</text>
</g>
<!-- 7&#45;&gt;11 -->
<g id="edge26" class="edge"><title>7&#45;&gt;11</title>
<path fill="none" stroke="black" d="M1317.58,-52.774C1338.34,-33.9451 1381.88,-0 1426,-0 1426,-0 1426,-0 1925,-0 1968.77,-0 1979.25,-17.8699 2011,-48 2020.95,-57.4369 2029.43,-69.9216 2035.92,-81.2133"/>
<polygon fill="black" stroke="black" points="2033.03,-83.2232 2040.89,-90.3246 2039.18,-79.87 2033.03,-83.2232"/>
<text text-anchor="middle" x="1668" y="-3.8" font-family="Times,serif" font-size="14.00">u0003</text>
</g>
<!-- 12 -->
<g id="node23" class="node"><title>12</title>
<ellipse fill="none" stroke="black" cx="1427" cy="-65" rx="18" ry="18"/>
</g>
<!-- 7&#45;&gt;12 -->
<g id="edge27" class="edge"><title>7&#45;&gt;12</title>
<path fill="none" stroke="black" d="M1322.08,-65C1341.96,-65 1375.08,-65 1398.58,-65"/>
<polygon fill="black" stroke="black" points="1398.62,-68.5001 1408.62,-65 1398.62,-61.5001 1398.62,-68.5001"/>
<text text-anchor="middle" x="1368" y="-68.8" font-family="Times,serif" font-size="14.00">u0001</text>
</g>
<!-- 12&#45;&gt;11 -->
<g id="edge28" class="edge"><title>12&#45;&gt;11</title>
<path fill="none" stroke="black" d="M1444.34,-59.8975C1466.62,-53.3984 1507.92,-43 1544,-43 1544,-43 1544,-43 1925,-43 1964.21,-43 2003,-68.9195 2026.72,-88.5157"/>
<polygon fill="black" stroke="black" points="2024.59,-91.2943 2034.46,-95.1305 2029.14,-85.9729 2024.59,-91.2943"/>
<text text-anchor="middle" x="1732" y="-46.8" font-family="Times,serif" font-size="14.00">u0003</text>
</g>
<!-- 15 -->
<g id="node24" class="node"><title>15</title>
<ellipse fill="none" stroke="black" cx="1545" cy="-89" rx="18" ry="18"/>
</g>
<!-- 12&#45;&gt;15 -->
<g id="edge29" class="edge"><title>12&#45;&gt;15</title>
<path fill="none" stroke="black" d="M1445.12,-68.5413C1464.16,-72.481 1495.16,-78.8957 1517.38,-83.4922"/>
<polygon fill="black" stroke="black" points="1516.69,-86.9235 1527.19,-85.5222 1518.11,-80.0687 1516.69,-86.9235"/>
<text text-anchor="middle" x="1486" y="-85.8" font-family="Times,serif" font-size="14.00">u0001</text>
</g>
<!-- 15&#45;&gt;11 -->
<g id="edge30" class="edge"><title>15&#45;&gt;11</title>
<path fill="none" stroke="black" d="M1563.23,-89C1586.7,-89 1630.03,-89 1667,-89 1667,-89 1667,-89 1925,-89 1957.54,-89 1994.2,-96.0069 2019.35,-101.926"/>
<polygon fill="black" stroke="black" points="2018.84,-105.404 2029.39,-104.372 2020.5,-98.6029 2018.84,-105.404"/>
<text text-anchor="middle" x="1796" y="-92.8" font-family="Times,serif" font-size="14.00">u0003</text>
</g>
<!-- 17 -->
<g id="node25" class="node"><title>17</title>
<ellipse fill="none" stroke="black" cx="1668" cy="-135" rx="18" ry="18"/>
</g>
<!-- 15&#45;&gt;17 -->
<g id="edge31" class="edge"><title>15&#45;&gt;17</title>
<path fill="none" stroke="black" d="M1562,-95.4939C1567.95,-97.8855 1574.77,-100.596 1581,-103 1601.06,-110.743 1623.88,-119.218 1640.96,-125.499"/>
<polygon fill="black" stroke="black" points="1640.19,-128.945 1650.79,-129.101 1642.6,-122.372 1640.19,-128.945"/>
<text text-anchor="middle" x="1604" y="-122.8" font-family="Times,serif" font-size="14.00">u0001</text>
</g>
<!-- 17&#45;&gt;11 -->
<g id="edge32" class="edge"><title>17&#45;&gt;11</title>
<path fill="none" stroke="black" d="M1686.36,-133.861C1745.87,-129.956 1942.15,-117.077 2018.87,-112.042"/>
<polygon fill="black" stroke="black" points="2019.13,-115.533 2028.88,-111.386 2018.67,-108.548 2019.13,-115.533"/>
<text text-anchor="middle" x="1860" y="-126.8" font-family="Times,serif" font-size="14.00">u0003</text>
</g>
<!-- 17&#45;&gt;14 -->
<g id="edge33" class="edge"><title>17&#45;&gt;14</title>
<path fill="none" stroke="black" d="M1685.39,-140.267C1702.86,-146.03 1731.22,-155.811 1755,-166 1760.04,-168.162 1765.35,-170.654 1770.4,-173.13"/>
<polygon fill="black" stroke="black" points="1769.12,-176.406 1779.62,-177.78 1772.27,-170.155 1769.12,-176.406"/>
<text text-anchor="middle" x="1732" y="-169.8" font-family="Times,serif" font-size="14.00">u0001</text>
</g>
<!-- initial -->
<g id="node26" class="node"><title>initial</title>
</g>
<!-- initial&#45;&gt;0 -->
<g id="edge34" class="edge"><title>initial&#45;&gt;0</title>
<path fill="none" stroke="black" d="M54.195,-108C62.6538,-108 72.0513,-108 80.5951,-108"/>
<polygon fill="black" stroke="black" points="80.8257,-111.5 90.8257,-108 80.8257,-104.5 80.8257,-111.5"/>
</g>
</g>
</svg>
