<svg width="2237px" height="752px"
 viewBox="0.00 0.00 1678.00 564.00" xmlns="http://www.w3.org/2000/svg" xmlns:xlink="http://www.w3.org/1999/xlink">
<g id="graph0" class="graph" transform="scale(1.000022500562514 1.000022500562514) rotate(0) translate(4 560)">
<title>Automaton</title>
<polygon fill="white" stroke="none" points="-4,4 -4,-560 1674,-560 1674,4 -4,4"/>
<!-- 0 -->
<g id="node1" class="node"><title>0</title>
<ellipse fill="none" stroke="black" cx="109" cy="-436" rx="18" ry="18"/>
</g>
<!-- 1 -->
<g id="node2" class="node"><title>1</title>
<ellipse fill="none" stroke="black" cx="227" cy="-436" rx="18" ry="18"/>
</g>
<!-- 0&#45;&gt;1 -->
<g id="edge1" class="edge"><title>0&#45;&gt;1</title>
<path fill="none" stroke="black" d="M127.116,-436C145.964,-436 176.531,-436 198.696,-436"/>
<polygon fill="black" stroke="black" points="198.814,-439.5 208.814,-436 198.814,-432.5 198.814,-439.5"/>
<text text-anchor="middle" x="168" y="-439.8" font-family="Times,serif" font-size="14.00">u0002</text>
</g>
<!-- 2 -->
<g id="node3" class="node"><title>2</title>
<ellipse fill="none" stroke="black" cx="345" cy="-436" rx="18" ry="18"/>
</g>
<!-- 1&#45;&gt;2 -->
<g id="edge2" class="edge"><title>1&#45;&gt;2</title>
<path fill="none" stroke="black" d="M245.116,-436C263.964,-436 294.531,-436 316.696,-436"/>
<polygon fill="black" stroke="black" points="316.814,-439.5 326.814,-436 316.814,-432.5 316.814,-439.5"/>
<text text-anchor="middle" x="286" y="-439.8" font-family="Times,serif" font-size="14.00">u0001</text>
</g>
<!-- 3 -->
<g id="node4" class="node"><title>3</title>
<ellipse fill="none" stroke="black" cx="463" cy="-436" rx="18" ry="18"/>
</g>
<!-- 2&#45;&gt;3 -->
<g id="edge3" class="edge"><title>2&#45;&gt;3</title>
<path fill="none" stroke="black" d="M363.116,-436C381.964,-436 412.531,-436 434.696,-436"/>
<polygon fill="black" stroke="black" points="434.814,-439.5 444.814,-436 434.814,-432.5 434.814,-439.5"/>
<text text-anchor="middle" x="404" y="-439.8" font-family="Times,serif" font-size="14.00">u0000</text>
</g>
<!-- 4 -->
<g id="node5" class="node"><title>4</title>
<ellipse fill="none" stroke="black" cx="709" cy="-436" rx="18" ry="18"/>
</g>
<!-- 3&#45;&gt;4 -->
<g id="edge4" class="edge"><title>3&#45;&gt;4</title>
<path fill="none" stroke="black" d="M481.158,-436C522.896,-436 630.011,-436 680.67,-436"/>
<polygon fill="black" stroke="black" points="680.861,-439.5 690.861,-436 680.861,-432.5 680.861,-439.5"/>
<text text-anchor="middle" x="586" y="-439.8" font-family="Times,serif" font-size="14.00">u0004</text>
</g>
<!-- 5 -->
<g id="node11" class="node"><title>5</title>
<ellipse fill="none" stroke="black" cx="1648" cy="-213" rx="18" ry="18"/>
<ellipse fill="none" stroke="black" cx="1648" cy="-213" rx="22" ry="22"/>
</g>
<!-- 3&#45;&gt;5 -->
<g id="edge5" class="edge"><title>3&#45;&gt;5</title>
<path fill="none" stroke="black" d="M472.359,-451.493C489.376,-480.701 531.042,-541 585,-541 585,-541 585,-541 1522,-541 1568.1,-541 1583.49,-522.049 1608,-483 1632.51,-443.94 1642.3,-308.073 1645.58,-245.279"/>
<polygon fill="black" stroke="black" points="1649.08,-245.309 1646.09,-235.147 1642.09,-244.96 1649.08,-245.309"/>
<text text-anchor="middle" x="1024" y="-544.8" font-family="Times,serif" font-size="14.00">u0003</text>
</g>
<!-- 6 -->
<g id="node17" class="node"><title>6</title>
<ellipse fill="none" stroke="black" cx="586" cy="-91" rx="18" ry="18"/>
</g>
<!-- 3&#45;&gt;6 -->
<g id="edge6" class="edge"><title>3&#45;&gt;6</title>
<path fill="none" stroke="black" d="M470,-418.891C489.64,-362.893 552.096,-184.816 575.777,-117.298"/>
<polygon fill="black" stroke="black" points="579.099,-118.4 579.106,-107.805 572.494,-116.083 579.099,-118.4"/>
<text text-anchor="middle" x="522" y="-338.8" font-family="Times,serif" font-size="14.00">u0005</text>
</g>
<!-- 7 -->
<g id="node6" class="node"><title>7</title>
<ellipse fill="none" stroke="black" cx="896" cy="-368" rx="18" ry="18"/>
</g>
<!-- 4&#45;&gt;7 -->
<g id="edge7" class="edge"><title>4&#45;&gt;7</title>
<path fill="none" stroke="black" d="M725.034,-427.06C731.111,-423.654 738.269,-419.898 745,-417 787.092,-398.878 838.221,-383.518 868.605,-375.047"/>
<polygon fill="black" stroke="black" points="869.723,-378.37 878.438,-372.345 867.868,-371.62 869.723,-378.37"/>
<text text-anchor="middle" x="768" y="-420.8" font-family="Times,serif" font-size="14.00">u0004</text>
</g>
<!-- 4&#45;&gt;5 -->
<g id="edge8" class="edge"><title>4&#45;&gt;5</title>
<path fill="none" stroke="black" d="M722.175,-448.289C742.7,-467.631 786.337,-503 831,-503 831,-503 831,-503 1522,-503 1633.04,-503 1646.62,-321.475 1647.45,-245.659"/>
<polygon fill="black" stroke="black" points="1650.95,-245.288 1647.49,-235.274 1643.95,-245.261 1650.95,-245.288"/>
<text text-anchor="middle" x="1152" y="-506.8" font-family="Times,serif" font-size="14.00">u0003</text>
</g>
<!-- 8 -->
<g id="node12" class="node"><title>8</title>
<ellipse fill="none" stroke="black" cx="832" cy="-436" rx="18" ry="18"/>
</g>
<!-- 4&#45;&gt;8 -->
<g id="edge9" class="edge"><title>4&#45;&gt;8</title>
<path fill="none" stroke="black" d="M727.08,-436C746.965,-436 780.077,-436 803.577,-436"/>
<polygon fill="black" stroke="black" points="803.615,-439.5 813.615,-436 803.615,-432.5 803.615,-439.5"/>
<text text-anchor="middle" x="768" y="-439.8" font-family="Times,serif" font-size="14.00">u0005</text>
</g>
<!-- 11 -->
<g id="node7" class="node"><title>11</title>
<ellipse fill="none" stroke="black" cx="1088" cy="-360" rx="18" ry="18"/>
</g>
<!-- 7&#45;&gt;11 -->
<g id="edge10" class="edge"><title>7&#45;&gt;11</title>
<path fill="none" stroke="black" d="M914.196,-367.276C947.332,-365.881 1020.25,-362.81 1059.95,-361.139"/>
<polygon fill="black" stroke="black" points="1060.14,-364.634 1069.98,-360.717 1059.84,-357.641 1060.14,-364.634"/>
<text text-anchor="middle" x="960" y="-370.8" font-family="Times,serif" font-size="14.00">u0004</text>
</g>
<!-- 16 -->
<g id="node8" class="node"><title>16</title>
<ellipse fill="none" stroke="black" cx="1240.5" cy="-314" rx="18" ry="18"/>
</g>
<!-- 11&#45;&gt;16 -->
<g id="edge11" class="edge"><title>11&#45;&gt;16</title>
<path fill="none" stroke="black" d="M1101.74,-348.339C1109.16,-342.198 1119,-335.109 1129,-331 1155.97,-319.916 1189.33,-315.986 1212.3,-314.631"/>
<polygon fill="black" stroke="black" points="1212.54,-318.124 1222.37,-314.163 1212.21,-311.132 1212.54,-318.124"/>
<text text-anchor="middle" x="1152" y="-334.8" font-family="Times,serif" font-size="14.00">u0004</text>
</g>
<!-- 11&#45;&gt;5 -->
<g id="edge12" class="edge"><title>11&#45;&gt;5</title>
<path fill="none" stroke="black" d="M1106.15,-360C1134.09,-360 1191.16,-360 1239.5,-360 1239.5,-360 1239.5,-360 1522,-360 1582.76,-360 1620.17,-286.213 1636.82,-243.193"/>
<polygon fill="black" stroke="black" points="1640.12,-244.343 1640.33,-233.75 1633.56,-241.902 1640.12,-244.343"/>
<text text-anchor="middle" x="1393" y="-363.8" font-family="Times,serif" font-size="14.00">u0003</text>
</g>
<!-- 20 -->
<g id="node9" class="node"><title>20</title>
<ellipse fill="none" stroke="black" cx="1393" cy="-252" rx="18" ry="18"/>
</g>
<!-- 16&#45;&gt;20 -->
<g id="edge13" class="edge"><title>16&#45;&gt;20</title>
<path fill="none" stroke="black" d="M1257.29,-307.017C1266.87,-302.277 1278.95,-295.36 1288,-287 1298.33,-277.465 1293.91,-268.163 1306,-261 1323.62,-250.56 1346.89,-248.693 1364.78,-249.225"/>
<polygon fill="black" stroke="black" points="1364.69,-252.725 1374.87,-249.79 1365.08,-245.736 1364.69,-252.725"/>
<text text-anchor="middle" x="1329" y="-264.8" font-family="Times,serif" font-size="14.00">u0005</text>
</g>
<!-- 18 -->
<g id="node10" class="node"><title>18</title>
<ellipse fill="none" stroke="black" cx="1521" cy="-240" rx="18" ry="18"/>
</g>
<!-- 20&#45;&gt;18 -->
<g id="edge14" class="edge"><title>20&#45;&gt;18</title>
<path fill="none" stroke="black" d="M1410.99,-250.382C1431.94,-248.387 1467.81,-244.97 1492.65,-242.604"/>
<polygon fill="black" stroke="black" points="1493.25,-246.063 1502.87,-241.631 1492.59,-239.095 1493.25,-246.063"/>
<text text-anchor="middle" x="1457" y="-252.8" font-family="Times,serif" font-size="14.00">u0005</text>
</g>
<!-- 18&#45;&gt;5 -->
<g id="edge15" class="edge"><title>18&#45;&gt;5</title>
<path fill="none" stroke="black" d="M1538.86,-236.359C1558.68,-232.076 1591.98,-224.884 1616.4,-219.609"/>
<polygon fill="black" stroke="black" points="1617.22,-223.013 1626.26,-217.48 1615.74,-216.171 1617.22,-223.013"/>
<text text-anchor="middle" x="1585" y="-235.8" font-family="Times,serif" font-size="14.00">u0003</text>
</g>
<!-- 8&#45;&gt;5 -->
<g id="edge16" class="edge"><title>8&#45;&gt;5</title>
<path fill="none" stroke="black" d="M849.522,-441.208C873.419,-448.266 919.14,-460 959,-460 959,-460 959,-460 1522,-460 1617.35,-460 1639.98,-311.665 1645.34,-244.9"/>
<polygon fill="black" stroke="black" points="1648.84,-245.146 1646.06,-234.92 1641.85,-244.642 1648.84,-245.146"/>
<text text-anchor="middle" x="1240.5" y="-463.8" font-family="Times,serif" font-size="14.00">u0003</text>
</g>
<!-- 12 -->
<g id="node13" class="node"><title>12</title>
<ellipse fill="none" stroke="black" cx="960" cy="-414" rx="18" ry="18"/>
</g>
<!-- 8&#45;&gt;12 -->
<g id="edge17" class="edge"><title>8&#45;&gt;12</title>
<path fill="none" stroke="black" d="M849.993,-433.033C871.035,-429.359 907.133,-423.056 931.987,-418.717"/>
<polygon fill="black" stroke="black" points="932.625,-422.158 941.874,-416.99 931.421,-415.263 932.625,-422.158"/>
<text text-anchor="middle" x="896" y="-432.8" font-family="Times,serif" font-size="14.00">u0005</text>
</g>
<!-- 17 -->
<g id="node14" class="node"><title>17</title>
<ellipse fill="none" stroke="black" cx="1088" cy="-414" rx="18" ry="18"/>
</g>
<!-- 12&#45;&gt;17 -->
<g id="edge18" class="edge"><title>12&#45;&gt;17</title>
<path fill="none" stroke="black" d="M978.256,-414C999.274,-414 1035.03,-414 1059.77,-414"/>
<polygon fill="black" stroke="black" points="1059.95,-417.5 1069.95,-414 1059.95,-410.5 1059.95,-417.5"/>
<text text-anchor="middle" x="1024" y="-417.8" font-family="Times,serif" font-size="14.00">u0004</text>
</g>
<!-- 21 -->
<g id="node15" class="node"><title>21</title>
<ellipse fill="none" stroke="black" cx="1240.5" cy="-406" rx="18" ry="18"/>
</g>
<!-- 17&#45;&gt;21 -->
<g id="edge19" class="edge"><title>17&#45;&gt;21</title>
<path fill="none" stroke="black" d="M1106.26,-413.082C1132.23,-411.702 1181.58,-409.079 1212.38,-407.441"/>
<polygon fill="black" stroke="black" points="1212.64,-410.933 1222.44,-406.907 1212.27,-403.943 1212.64,-410.933"/>
<text text-anchor="middle" x="1152" y="-415.8" font-family="Times,serif" font-size="14.00">u0005</text>
</g>
<!-- 23 -->
<g id="node16" class="node"><title>23</title>
<ellipse fill="none" stroke="black" cx="1393" cy="-306" rx="18" ry="18"/>
</g>
<!-- 21&#45;&gt;23 -->
<g id="edge20" class="edge"><title>21&#45;&gt;23</title>
<path fill="none" stroke="black" d="M1255.93,-396.412C1282.05,-379.059 1337.35,-342.312 1368.82,-321.402"/>
<polygon fill="black" stroke="black" points="1371,-324.156 1377.39,-315.706 1367.13,-318.325 1371,-324.156"/>
<text text-anchor="middle" x="1329" y="-365.8" font-family="Times,serif" font-size="14.00">u0004</text>
</g>
<!-- 23&#45;&gt;18 -->
<g id="edge21" class="edge"><title>23&#45;&gt;18</title>
<path fill="none" stroke="black" d="M1409.98,-300.023C1427.59,-293.19 1456.54,-281.228 1480,-268 1486.01,-264.612 1492.24,-260.549 1497.94,-256.582"/>
<polygon fill="black" stroke="black" points="1500.28,-259.212 1506.37,-250.538 1496.2,-253.525 1500.28,-259.212"/>
<text text-anchor="middle" x="1457" y="-294.8" font-family="Times,serif" font-size="14.00">u0004</text>
</g>
<!-- 6&#45;&gt;5 -->
<g id="edge23" class="edge"><title>6&#45;&gt;5</title>
<path fill="none" stroke="black" d="M596.731,-76.3793C615.15,-50.6557 657.796,-0 708,-0 708,-0 708,-0 1522,-0 1604.92,-0 1633.89,-121.552 1643.11,-181.009"/>
<polygon fill="black" stroke="black" points="1639.66,-181.615 1644.56,-191.008 1646.58,-180.608 1639.66,-181.615"/>
<text text-anchor="middle" x="1088" y="-3.8" font-family="Times,serif" font-size="14.00">u0003</text>
</g>
<!-- 9 -->
<g id="node18" class="node"><title>9</title>
<ellipse fill="none" stroke="black" cx="709" cy="-145" rx="18" ry="18"/>
</g>
<!-- 6&#45;&gt;9 -->
<g id="edge22" class="edge"><title>6&#45;&gt;9</title>
<path fill="none" stroke="black" d="M602.819,-98.0596C623.2,-107.155 658.867,-123.073 682.952,-133.822"/>
<polygon fill="black" stroke="black" points="681.619,-137.059 692.177,-137.939 684.472,-130.667 681.619,-137.059"/>
<text text-anchor="middle" x="650" y="-133.8" font-family="Times,serif" font-size="14.00">u0004</text>
</g>
<!-- 10 -->
<g id="node24" class="node"><title>10</title>
<ellipse fill="none" stroke="black" cx="1240.5" cy="-66" rx="18" ry="18"/>
</g>
<!-- 6&#45;&gt;10 -->
<g id="edge24" class="edge"><title>6&#45;&gt;10</title>
<path fill="none" stroke="black" d="M603.675,-86.2348C626.865,-80.0389 670.262,-70 708,-70 708,-70 708,-70 1089,-70 1132.07,-70 1182.04,-68.343 1212.19,-67.162"/>
<polygon fill="black" stroke="black" points="1212.5,-70.6524 1222.35,-66.7524 1212.22,-63.6581 1212.5,-70.6524"/>
<text text-anchor="middle" x="896" y="-73.8" font-family="Times,serif" font-size="14.00">u0005</text>
</g>
<!-- 9&#45;&gt;5 -->
<g id="edge26" class="edge"><title>9&#45;&gt;5</title>
<path fill="none" stroke="black" d="M725.677,-137.839C748.396,-128.134 792.024,-112 831,-112 831,-112 831,-112 1153,-112 1332.33,-112 1541,-176.681 1617.21,-202.52"/>
<polygon fill="black" stroke="black" points="1616.47,-205.967 1627.07,-205.898 1618.74,-199.345 1616.47,-205.967"/>
<text text-anchor="middle" x="1152" y="-115.8" font-family="Times,serif" font-size="14.00">u0003</text>
</g>
<!-- 13 -->
<g id="node19" class="node"><title>13</title>
<ellipse fill="none" stroke="black" cx="1024" cy="-158" rx="18" ry="18"/>
</g>
<!-- 9&#45;&gt;13 -->
<g id="edge25" class="edge"><title>9&#45;&gt;13</title>
<path fill="none" stroke="black" d="M727.274,-145.717C778.898,-147.862 932.338,-154.234 995.433,-156.855"/>
<polygon fill="black" stroke="black" points="995.643,-160.367 1005.78,-157.285 995.933,-153.373 995.643,-160.367"/>
<text text-anchor="middle" x="832" y="-154.8" font-family="Times,serif" font-size="14.00">u0004</text>
</g>
<!-- 14 -->
<g id="node20" class="node"><title>14</title>
<ellipse fill="none" stroke="black" cx="832" cy="-209" rx="18" ry="18"/>
</g>
<!-- 9&#45;&gt;14 -->
<g id="edge27" class="edge"><title>9&#45;&gt;14</title>
<path fill="none" stroke="black" d="M723.069,-156.343C729.421,-161.52 737.327,-167.487 745,-172 764.207,-183.297 787.506,-193.106 805.006,-199.78"/>
<polygon fill="black" stroke="black" points="803.972,-203.129 814.565,-203.335 806.412,-196.569 803.972,-203.129"/>
<text text-anchor="middle" x="768" y="-198.8" font-family="Times,serif" font-size="14.00">u0005</text>
</g>
<!-- 13&#45;&gt;18 -->
<g id="edge28" class="edge"><title>13&#45;&gt;18</title>
<path fill="none" stroke="black" d="M1042.07,-157.549C1084.19,-156.729 1196.28,-156.336 1288,-172 1364.83,-185.12 1452.26,-214.984 1494.5,-230.398"/>
<polygon fill="black" stroke="black" points="1493.4,-233.723 1503.99,-233.899 1495.82,-227.156 1493.4,-233.723"/>
<text text-anchor="middle" x="1240.5" y="-175.8" font-family="Times,serif" font-size="14.00">u0004&#45;u0005</text>
</g>
<!-- 14&#45;&gt;5 -->
<g id="edge29" class="edge"><title>14&#45;&gt;5</title>
<path fill="none" stroke="black" d="M850.119,-209C874.357,-209 920.062,-209 959,-209 959,-209 959,-209 1153,-209 1327.89,-209 1537.59,-211.538 1615.69,-212.571"/>
<polygon fill="black" stroke="black" points="1615.77,-216.072 1625.82,-212.706 1615.86,-209.073 1615.77,-216.072"/>
<text text-anchor="middle" x="1240.5" y="-213.8" font-family="Times,serif" font-size="14.00">u0003</text>
</g>
<!-- 19 -->
<g id="node21" class="node"><title>19</title>
<ellipse fill="none" stroke="black" cx="960" cy="-257" rx="18" ry="18"/>
</g>
<!-- 14&#45;&gt;19 -->
<g id="edge30" class="edge"><title>14&#45;&gt;19</title>
<path fill="none" stroke="black" d="M848.958,-215.079C870.143,-223.15 907.818,-237.502 933.103,-247.135"/>
<polygon fill="black" stroke="black" points="932.183,-250.529 942.774,-250.819 934.675,-243.988 932.183,-250.529"/>
<text text-anchor="middle" x="896" y="-245.8" font-family="Times,serif" font-size="14.00">u0005</text>
</g>
<!-- 22 -->
<g id="node22" class="node"><title>22</title>
<ellipse fill="none" stroke="black" cx="1088" cy="-259" rx="18" ry="18"/>
</g>
<!-- 19&#45;&gt;22 -->
<g id="edge31" class="edge"><title>19&#45;&gt;22</title>
<path fill="none" stroke="black" d="M978.256,-257.274C999.274,-257.608 1035.03,-258.175 1059.77,-258.568"/>
<polygon fill="black" stroke="black" points="1059.9,-262.07 1069.95,-258.729 1060.01,-255.071 1059.9,-262.07"/>
<text text-anchor="middle" x="1024" y="-262.8" font-family="Times,serif" font-size="14.00">u0005</text>
</g>
<!-- 24 -->
<g id="node23" class="node"><title>24</title>
<ellipse fill="none" stroke="black" cx="1240.5" cy="-260" rx="18" ry="18"/>
</g>
<!-- 22&#45;&gt;24 -->
<g id="edge32" class="edge"><title>22&#45;&gt;24</title>
<path fill="none" stroke="black" d="M1106.26,-259.115C1132.23,-259.287 1181.58,-259.615 1212.38,-259.82"/>
<polygon fill="black" stroke="black" points="1212.41,-263.32 1222.44,-259.887 1212.46,-256.32 1212.41,-263.32"/>
<text text-anchor="middle" x="1152" y="-263.8" font-family="Times,serif" font-size="14.00">u0004</text>
</g>
<!-- 24&#45;&gt;23 -->
<g id="edge33" class="edge"><title>24&#45;&gt;23</title>
<path fill="none" stroke="black" d="M1258.01,-264.797C1279.65,-271.112 1318.74,-282.631 1352,-293 1356.51,-294.407 1361.3,-295.934 1365.94,-297.431"/>
<polygon fill="black" stroke="black" points="1365.09,-300.834 1375.68,-300.598 1367.25,-294.177 1365.09,-300.834"/>
<text text-anchor="middle" x="1329" y="-296.8" font-family="Times,serif" font-size="14.00">u0005</text>
</g>
<!-- 10&#45;&gt;5 -->
<g id="edge34" class="edge"><title>10&#45;&gt;5</title>
<path fill="none" stroke="black" d="M1258.21,-61.4625C1315.77,-46.941 1507.81,-7.90192 1608,-103 1629.47,-123.383 1639.14,-156.336 1643.48,-180.869"/>
<polygon fill="black" stroke="black" points="1640.03,-181.466 1645.04,-190.806 1646.95,-180.385 1640.03,-181.466"/>
<text text-anchor="middle" x="1457" y="-49.8" font-family="Times,serif" font-size="14.00">u0003</text>
</g>
<!-- 15 -->
<g id="node25" class="node"><title>15</title>
<ellipse fill="none" stroke="black" cx="1393" cy="-84" rx="18" ry="18"/>
</g>
<!-- 10&#45;&gt;15 -->
<g id="edge35" class="edge"><title>10&#45;&gt;15</title>
<path fill="none" stroke="black" d="M1258.47,-68.0298C1284.33,-71.1223 1333.84,-77.0436 1364.76,-80.7426"/>
<polygon fill="black" stroke="black" points="1364.51,-84.2376 1374.86,-81.95 1365.35,-77.2871 1364.51,-84.2376"/>
<text text-anchor="middle" x="1329" y="-83.8" font-family="Times,serif" font-size="14.00">u0005</text>
</g>
<!-- 15&#45;&gt;18 -->
<g id="edge37" class="edge"><title>15&#45;&gt;18</title>
<path fill="none" stroke="black" d="M1405.16,-97.6971C1421.59,-117.873 1453.24,-156.783 1480,-190 1487.5,-199.315 1495.77,-209.634 1502.83,-218.466"/>
<polygon fill="black" stroke="black" points="1500.18,-220.768 1509.16,-226.398 1505.65,-216.4 1500.18,-220.768"/>
<text text-anchor="middle" x="1457" y="-193.8" font-family="Times,serif" font-size="14.00">u0005</text>
</g>
<!-- 15&#45;&gt;5 -->
<g id="edge36" class="edge"><title>15&#45;&gt;5</title>
<path fill="none" stroke="black" d="M1411.1,-83.1949C1450.35,-82.2556 1548.13,-85.2041 1608,-133 1623.3,-145.214 1633.01,-164.935 1638.91,-181.739"/>
<polygon fill="black" stroke="black" points="1635.73,-183.276 1642.11,-191.733 1642.4,-181.141 1635.73,-183.276"/>
<text text-anchor="middle" x="1521" y="-104.8" font-family="Times,serif" font-size="14.00">u0003</text>
</g>
<!-- initial -->
<g id="node26" class="node"><title>initial</title>
</g>
<!-- initial&#45;&gt;0 -->
<g id="edge38" class="edge"><title>initial&#45;&gt;0</title>
<path fill="none" stroke="black" d="M54.195,-436C62.6538,-436 72.0513,-436 80.5951,-436"/>
<polygon fill="black" stroke="black" points="80.8257,-439.5 90.8257,-436 80.8257,-432.5 80.8257,-439.5"/>
</g>
</g>
</svg>
