<svg width="2447px" height="1081px"
 viewBox="0.00 0.00 1835.00 811.00" xmlns="http://www.w3.org/2000/svg" xmlns:xlink="http://www.w3.org/1999/xlink">
<g id="graph0" class="graph" transform="scale(1.000022500562514 1.000022500562514) rotate(0) translate(4 807)">
<title>Automaton</title>
<polygon fill="white" stroke="none" points="-4,4 -4,-807 1831,-807 1831,4 -4,4"/>
<!-- 0 -->
<g id="node1" class="node"><title>0</title>
<ellipse fill="none" stroke="black" cx="109" cy="-18" rx="18" ry="18"/>
</g>
<!-- 1 -->
<g id="node2" class="node"><title>1</title>
<ellipse fill="none" stroke="black" cx="227" cy="-18" rx="18" ry="18"/>
</g>
<!-- 0&#45;&gt;1 -->
<g id="edge1" class="edge"><title>0&#45;&gt;1</title>
<path fill="none" stroke="black" d="M127.116,-18C145.964,-18 176.531,-18 198.696,-18"/>
<polygon fill="black" stroke="black" points="198.814,-21.5001 208.814,-18 198.814,-14.5001 198.814,-21.5001"/>
<text text-anchor="middle" x="168" y="-21.8" font-family="Times,serif" font-size="14.00">u0005</text>
</g>
<!-- 2 -->
<g id="node3" class="node"><title>2</title>
<ellipse fill="none" stroke="black" cx="345" cy="-621" rx="18" ry="18"/>
</g>
<!-- 1&#45;&gt;2 -->
<g id="edge2" class="edge"><title>1&#45;&gt;2</title>
<path fill="none" stroke="black" d="M231.409,-35.7201C247.8,-120.926 318.544,-488.673 338.651,-593.195"/>
<polygon fill="black" stroke="black" points="335.265,-594.12 340.591,-603.279 342.139,-592.798 335.265,-594.12"/>
<text text-anchor="middle" x="286" y="-428.8" font-family="Times,serif" font-size="14.00">u0004</text>
</g>
<!-- 3 -->
<g id="node8" class="node"><title>3</title>
<ellipse fill="none" stroke="black" cx="1805" cy="-125" rx="18" ry="18"/>
<ellipse fill="none" stroke="black" cx="1805" cy="-125" rx="22" ry="22"/>
</g>
<!-- 1&#45;&gt;3 -->
<g id="edge3" class="edge"><title>1&#45;&gt;3</title>
<path fill="none" stroke="black" d="M244.805,-14.2082C267.28,-9.47681 308.423,-2 344,-2 344,-2 344,-2 1684,-2 1736.17,-2 1773.06,-59.3946 1791.2,-95.7715"/>
<polygon fill="black" stroke="black" points="1788.13,-97.4632 1795.61,-104.964 1794.44,-94.4343 1788.13,-97.4632"/>
<text text-anchor="middle" x="994" y="-5.8" font-family="Times,serif" font-size="14.00">u0000</text>
</g>
<!-- 4 -->
<g id="node4" class="node"><title>4</title>
<ellipse fill="none" stroke="black" cx="463" cy="-375" rx="18" ry="18"/>
</g>
<!-- 2&#45;&gt;4 -->
<g id="edge4" class="edge"><title>2&#45;&gt;4</title>
<path fill="none" stroke="black" d="M353.611,-604.859C373.363,-562.971 426.375,-450.55 450.162,-400.104"/>
<polygon fill="black" stroke="black" points="453.412,-401.418 454.512,-390.88 447.081,-398.432 453.412,-401.418"/>
<text text-anchor="middle" x="404" y="-544.8" font-family="Times,serif" font-size="14.00">u0003</text>
</g>
<!-- 5 -->
<g id="node7" class="node"><title>5</title>
<ellipse fill="none" stroke="black" cx="1683" cy="-463" rx="18" ry="18"/>
</g>
<!-- 2&#45;&gt;5 -->
<g id="edge5" class="edge"><title>2&#45;&gt;5</title>
<path fill="none" stroke="black" d="M349.43,-638.556C358.932,-681.433 389.809,-788 462,-788 462,-788 462,-788 1561,-788 1608.12,-788 1622.81,-766.433 1647,-726 1670.44,-686.836 1678.56,-550.713 1681.04,-491.207"/>
<polygon fill="black" stroke="black" points="1684.54,-491.158 1681.44,-481.028 1677.55,-490.884 1684.54,-491.158"/>
<text text-anchor="middle" x="994" y="-791.8" font-family="Times,serif" font-size="14.00">u0002</text>
</g>
<!-- 6 -->
<g id="node30" class="node"><title>6</title>
<ellipse fill="none" stroke="black" cx="699" cy="-645" rx="18" ry="18"/>
</g>
<!-- 2&#45;&gt;6 -->
<g id="edge6" class="edge"><title>2&#45;&gt;6</title>
<path fill="none" stroke="black" d="M362.978,-622.158C419.422,-626.006 601.139,-638.396 670.628,-643.134"/>
<polygon fill="black" stroke="black" points="670.565,-646.637 680.78,-643.826 671.042,-639.654 670.565,-646.637"/>
<text text-anchor="middle" x="522" y="-637.8" font-family="Times,serif" font-size="14.00">u0001</text>
</g>
<!-- 7 -->
<g id="node5" class="node"><title>7</title>
<ellipse fill="none" stroke="black" cx="817" cy="-318" rx="18" ry="18"/>
</g>
<!-- 4&#45;&gt;7 -->
<g id="edge7" class="edge"><title>4&#45;&gt;7</title>
<path fill="none" stroke="black" d="M480.978,-372.251C537.553,-363.089 719.979,-333.549 789.107,-322.355"/>
<polygon fill="black" stroke="black" points="789.881,-325.775 799.193,-320.722 788.762,-318.865 789.881,-325.775"/>
<text text-anchor="middle" x="640" y="-352.8" font-family="Times,serif" font-size="14.00">u0003</text>
</g>
<!-- 4&#45;&gt;5 -->
<g id="edge8" class="edge"><title>4&#45;&gt;5</title>
<path fill="none" stroke="black" d="M465.047,-393.004C469.167,-445.546 488.893,-595 580,-595 580,-595 580,-595 818,-595 952.772,-595 986.228,-607 1121,-607 1121,-607 1121,-607 1561,-607 1607.35,-607 1617.85,-584.041 1647,-548 1660.67,-531.092 1669.71,-508.103 1675.17,-490.295"/>
<polygon fill="black" stroke="black" points="1678.58,-491.072 1677.98,-480.495 1671.86,-489.143 1678.58,-491.072"/>
<text text-anchor="middle" x="1058" y="-609.8" font-family="Times,serif" font-size="14.00">u0002</text>
</g>
<!-- 8 -->
<g id="node16" class="node"><title>8</title>
<ellipse fill="none" stroke="black" cx="581" cy="-170" rx="18" ry="18"/>
</g>
<!-- 4&#45;&gt;8 -->
<g id="edge9" class="edge"><title>4&#45;&gt;8</title>
<path fill="none" stroke="black" d="M471.58,-358.973C478.448,-344.668 488.996,-323.223 499,-305 520.884,-265.135 548.537,-220.063 565.216,-193.393"/>
<polygon fill="black" stroke="black" points="568.28,-195.096 570.631,-184.765 562.35,-191.375 568.28,-195.096"/>
<text text-anchor="middle" x="522" y="-308.8" font-family="Times,serif" font-size="14.00">u0001</text>
</g>
<!-- 11 -->
<g id="node6" class="node"><title>11</title>
<ellipse fill="none" stroke="black" cx="1309" cy="-306" rx="18" ry="18"/>
</g>
<!-- 7&#45;&gt;11 -->
<g id="edge10" class="edge"><title>7&#45;&gt;11</title>
<path fill="none" stroke="black" d="M834.839,-314.919C857.351,-311.075 898.536,-305 934,-305 934,-305 934,-305 1187,-305 1219.21,-305 1256.24,-305.359 1280.76,-305.646"/>
<polygon fill="black" stroke="black" points="1280.73,-309.146 1290.77,-305.768 1280.81,-302.147 1280.73,-309.146"/>
<text text-anchor="middle" x="1058" y="-308.8" font-family="Times,serif" font-size="14.00">u0003</text>
</g>
<!-- 7&#45;&gt;5 -->
<g id="edge11" class="edge"><title>7&#45;&gt;5</title>
<path fill="none" stroke="black" d="M830.832,-306.343C851.143,-289.149 892.653,-259 934,-259 934,-259 934,-259 1123,-259 1224.76,-259 1244.02,-215.54 1345,-203 1365.29,-200.481 1371.02,-198.684 1391,-203 1531.07,-233.253 1557.15,-287.368 1647,-399 1656.4,-410.677 1664.59,-425.237 1670.68,-437.518"/>
<polygon fill="black" stroke="black" points="1667.63,-439.26 1675.09,-446.78 1673.95,-436.247 1667.63,-439.26"/>
<text text-anchor="middle" x="1250" y="-241.8" font-family="Times,serif" font-size="14.00">u0002</text>
</g>
<!-- 12 -->
<g id="node11" class="node"><title>12</title>
<ellipse fill="none" stroke="black" cx="935" cy="-353" rx="18" ry="18"/>
</g>
<!-- 7&#45;&gt;12 -->
<g id="edge12" class="edge"><title>7&#45;&gt;12</title>
<path fill="none" stroke="black" d="M834.62,-323.015C853.743,-328.784 885.388,-338.333 907.827,-345.103"/>
<polygon fill="black" stroke="black" points="906.826,-348.457 917.411,-347.995 908.848,-341.755 906.826,-348.457"/>
<text text-anchor="middle" x="876" y="-344.8" font-family="Times,serif" font-size="14.00">u0001</text>
</g>
<!-- 11&#45;&gt;5 -->
<g id="edge13" class="edge"><title>11&#45;&gt;5</title>
<path fill="none" stroke="black" d="M1326.44,-311.161C1390.17,-331.238 1618.75,-403.962 1647,-423 1653.99,-427.714 1660.46,-434.161 1665.87,-440.503"/>
<polygon fill="black" stroke="black" points="1663.16,-442.716 1672.14,-448.341 1668.63,-438.345 1663.16,-442.716"/>
<text text-anchor="middle" x="1496" y="-376.8" font-family="Times,serif" font-size="14.00">u0002</text>
</g>
<!-- 10 -->
<g id="node9" class="node"><title>10</title>
<ellipse fill="none" stroke="black" cx="1432" cy="-399" rx="18" ry="18"/>
</g>
<!-- 11&#45;&gt;10 -->
<g id="edge14" class="edge"><title>11&#45;&gt;10</title>
<path fill="none" stroke="black" d="M1321.21,-319.828C1327.73,-327.42 1336.34,-336.739 1345,-344 1364.37,-360.236 1388.84,-375.449 1406.72,-385.742"/>
<polygon fill="black" stroke="black" points="1405.48,-389.058 1415.91,-390.928 1408.92,-382.963 1405.48,-389.058"/>
<text text-anchor="middle" x="1368" y="-378.8" font-family="Times,serif" font-size="14.00">u0001</text>
</g>
<!-- 5&#45;&gt;3 -->
<g id="edge15" class="edge"><title>5&#45;&gt;3</title>
<path fill="none" stroke="black" d="M1689.95,-446.239C1709.02,-392.534 1768.77,-224.218 1793.32,-155.091"/>
<polygon fill="black" stroke="black" points="1796.63,-156.232 1796.67,-145.638 1790.03,-153.89 1796.63,-156.232"/>
<text text-anchor="middle" x="1742" y="-366.8" font-family="Times,serif" font-size="14.00">u0000</text>
</g>
<!-- 10&#45;&gt;5 -->
<g id="edge16" class="edge"><title>10&#45;&gt;5</title>
<path fill="none" stroke="black" d="M1450.22,-399.647C1467.65,-400.478 1495.32,-402.283 1519,-406 1547.86,-410.531 1555.23,-411.929 1583,-421 1608.96,-429.48 1637.58,-441.983 1657.34,-451.142"/>
<polygon fill="black" stroke="black" points="1656,-454.381 1666.54,-455.463 1658.98,-448.044 1656,-454.381"/>
<text text-anchor="middle" x="1560" y="-424.8" font-family="Times,serif" font-size="14.00">u0002</text>
</g>
<!-- 17 -->
<g id="node10" class="node"><title>17</title>
<ellipse fill="none" stroke="black" cx="1560" cy="-463" rx="18" ry="18"/>
</g>
<!-- 10&#45;&gt;17 -->
<g id="edge17" class="edge"><title>10&#45;&gt;17</title>
<path fill="none" stroke="black" d="M1443.34,-413.469C1450.63,-422.655 1461.19,-434.076 1473,-441 1490.95,-451.519 1513.88,-457.061 1531.55,-459.951"/>
<polygon fill="black" stroke="black" points="1531.38,-463.463 1541.78,-461.428 1532.38,-456.535 1531.38,-463.463"/>
<text text-anchor="middle" x="1496" y="-460.8" font-family="Times,serif" font-size="14.00">u0001</text>
</g>
<!-- 17&#45;&gt;5 -->
<g id="edge18" class="edge"><title>17&#45;&gt;5</title>
<path fill="none" stroke="black" d="M1578.08,-463C1597.96,-463 1631.08,-463 1654.58,-463"/>
<polygon fill="black" stroke="black" points="1654.62,-466.5 1664.62,-463 1654.62,-459.5 1654.62,-466.5"/>
<text text-anchor="middle" x="1624" y="-466.8" font-family="Times,serif" font-size="14.00">u0002</text>
</g>
<!-- 18 -->
<g id="node12" class="node"><title>18</title>
<ellipse fill="none" stroke="black" cx="1058" cy="-356" rx="18" ry="18"/>
</g>
<!-- 12&#45;&gt;18 -->
<g id="edge19" class="edge"><title>12&#45;&gt;18</title>
<path fill="none" stroke="black" d="M953.08,-353.423C972.965,-353.916 1006.08,-354.737 1029.58,-355.32"/>
<polygon fill="black" stroke="black" points="1029.53,-358.82 1039.62,-355.569 1029.71,-351.822 1029.53,-358.82"/>
<text text-anchor="middle" x="994" y="-357.8" font-family="Times,serif" font-size="14.00">u0001</text>
</g>
<!-- 24 -->
<g id="node13" class="node"><title>24</title>
<ellipse fill="none" stroke="black" cx="1186" cy="-359" rx="18" ry="18"/>
</g>
<!-- 18&#45;&gt;24 -->
<g id="edge20" class="edge"><title>18&#45;&gt;24</title>
<path fill="none" stroke="black" d="M1076.26,-356.411C1097.27,-356.911 1133.03,-357.763 1157.77,-358.352"/>
<polygon fill="black" stroke="black" points="1157.87,-361.855 1167.95,-358.594 1158.04,-354.857 1157.87,-361.855"/>
<text text-anchor="middle" x="1122" y="-361.8" font-family="Times,serif" font-size="14.00">u0001</text>
</g>
<!-- 28 -->
<g id="node14" class="node"><title>28</title>
<ellipse fill="none" stroke="black" cx="1309" cy="-360" rx="18" ry="18"/>
</g>
<!-- 24&#45;&gt;28 -->
<g id="edge21" class="edge"><title>24&#45;&gt;28</title>
<path fill="none" stroke="black" d="M1204.08,-359.141C1223.96,-359.305 1257.08,-359.579 1280.58,-359.773"/>
<polygon fill="black" stroke="black" points="1280.59,-363.273 1290.62,-359.856 1280.64,-356.274 1280.59,-363.273"/>
<text text-anchor="middle" x="1250" y="-362.8" font-family="Times,serif" font-size="14.00">u0001</text>
</g>
<!-- 20 -->
<g id="node15" class="node"><title>20</title>
<ellipse fill="none" stroke="black" cx="1432" cy="-259" rx="18" ry="18"/>
</g>
<!-- 28&#45;&gt;20 -->
<g id="edge22" class="edge"><title>28&#45;&gt;20</title>
<path fill="none" stroke="black" d="M1321.93,-347.284C1328.53,-340.457 1336.99,-332.026 1345,-325 1365.6,-306.929 1390.59,-288.062 1408.31,-275.151"/>
<polygon fill="black" stroke="black" points="1410.8,-277.672 1416.86,-268.978 1406.7,-271.999 1410.8,-277.672"/>
<text text-anchor="middle" x="1368" y="-328.8" font-family="Times,serif" font-size="14.00">u0001</text>
</g>
<!-- 20&#45;&gt;17 -->
<g id="edge23" class="edge"><title>20&#45;&gt;17</title>
<path fill="none" stroke="black" d="M1439.14,-275.816C1446.2,-294.329 1458.68,-324.69 1473,-349 1493.3,-383.475 1522.19,-419.788 1540.76,-441.921"/>
<polygon fill="black" stroke="black" points="1538.2,-444.312 1547.34,-449.676 1543.54,-439.785 1538.2,-444.312"/>
<text text-anchor="middle" x="1496" y="-415.8" font-family="Times,serif" font-size="14.00">u0001</text>
</g>
<!-- 8&#45;&gt;5 -->
<g id="edge25" class="edge"><title>8&#45;&gt;5</title>
<path fill="none" stroke="black" d="M587.84,-153.271C601.285,-118.16 637.957,-40 698,-40 698,-40 698,-40 1561,-40 1611.42,-40 1623.71,-69.2763 1647,-114 1675.96,-169.611 1680.98,-361.583 1681.83,-434.551"/>
<polygon fill="black" stroke="black" points="1678.33,-434.848 1681.93,-444.813 1685.33,-434.779 1678.33,-434.848"/>
<text text-anchor="middle" x="1122" y="-43.8" font-family="Times,serif" font-size="14.00">u0002</text>
</g>
<!-- 13 -->
<g id="node17" class="node"><title>13</title>
<ellipse fill="none" stroke="black" cx="699" cy="-141" rx="18" ry="18"/>
</g>
<!-- 8&#45;&gt;13 -->
<g id="edge24" class="edge"><title>8&#45;&gt;13</title>
<path fill="none" stroke="black" d="M598.296,-164.559C604.161,-162.686 610.847,-160.647 617,-159 634.864,-154.217 655.18,-149.705 670.998,-146.394"/>
<polygon fill="black" stroke="black" points="672.055,-149.75 681.144,-144.306 670.643,-142.894 672.055,-149.75"/>
<text text-anchor="middle" x="640" y="-162.8" font-family="Times,serif" font-size="14.00">u0003</text>
</g>
<!-- 14 -->
<g id="node23" class="node"><title>14</title>
<ellipse fill="none" stroke="black" cx="699" cy="-195" rx="18" ry="18"/>
</g>
<!-- 8&#45;&gt;14 -->
<g id="edge26" class="edge"><title>8&#45;&gt;14</title>
<path fill="none" stroke="black" d="M599.116,-173.689C618.158,-177.793 649.163,-184.475 671.379,-189.263"/>
<polygon fill="black" stroke="black" points="670.678,-192.692 681.191,-191.377 672.153,-185.849 670.678,-192.692"/>
<text text-anchor="middle" x="640" y="-189.8" font-family="Times,serif" font-size="14.00">u0001</text>
</g>
<!-- 13&#45;&gt;20 -->
<g id="edge28" class="edge"><title>13&#45;&gt;20</title>
<path fill="none" stroke="black" d="M716.792,-136.971C739.253,-131.944 780.38,-124 816,-124 816,-124 816,-124 995,-124 1142.94,-124 1191.97,-87.5615 1327,-148 1367.32,-166.047 1399.35,-207.902 1416.71,-234.747"/>
<polygon fill="black" stroke="black" points="1413.95,-236.937 1422.23,-243.552 1419.89,-233.22 1413.95,-236.937"/>
<text text-anchor="middle" x="1058" y="-126.8" font-family="Times,serif" font-size="14.00">u0001</text>
</g>
<!-- 19 -->
<g id="node18" class="node"><title>19</title>
<ellipse fill="none" stroke="black" cx="817" cy="-175" rx="18" ry="18"/>
</g>
<!-- 13&#45;&gt;19 -->
<g id="edge27" class="edge"><title>13&#45;&gt;19</title>
<path fill="none" stroke="black" d="M716.62,-145.871C735.657,-151.451 767.103,-160.668 789.523,-167.24"/>
<polygon fill="black" stroke="black" points="788.83,-170.684 799.411,-170.138 790.799,-163.966 788.83,-170.684"/>
<text text-anchor="middle" x="758" y="-167.8" font-family="Times,serif" font-size="14.00">u0003</text>
</g>
<!-- 19&#45;&gt;20 -->
<g id="edge29" class="edge"><title>19&#45;&gt;20</title>
<path fill="none" stroke="black" d="M832.29,-184.755C853.497,-198.258 895.004,-221 934,-221 934,-221 934,-221 1123,-221 1170.07,-221 1180.38,-234.479 1227,-241 1290.08,-249.825 1364.78,-255.114 1403.94,-257.494"/>
<polygon fill="black" stroke="black" points="1403.82,-260.992 1414.01,-258.088 1404.23,-254.004 1403.82,-260.992"/>
<text text-anchor="middle" x="1122" y="-224.8" font-family="Times,serif" font-size="14.00">u0003</text>
</g>
<!-- 25 -->
<g id="node19" class="node"><title>25</title>
<ellipse fill="none" stroke="black" cx="935" cy="-175" rx="18" ry="18"/>
</g>
<!-- 19&#45;&gt;25 -->
<g id="edge30" class="edge"><title>19&#45;&gt;25</title>
<path fill="none" stroke="black" d="M835.116,-175C853.964,-175 884.531,-175 906.696,-175"/>
<polygon fill="black" stroke="black" points="906.814,-178.5 916.814,-175 906.814,-171.5 906.814,-178.5"/>
<text text-anchor="middle" x="876" y="-178.8" font-family="Times,serif" font-size="14.00">u0001</text>
</g>
<!-- 29 -->
<g id="node20" class="node"><title>29</title>
<ellipse fill="none" stroke="black" cx="1058" cy="-175" rx="18" ry="18"/>
</g>
<!-- 25&#45;&gt;29 -->
<g id="edge31" class="edge"><title>25&#45;&gt;29</title>
<path fill="none" stroke="black" d="M953.08,-175C972.965,-175 1006.08,-175 1029.58,-175"/>
<polygon fill="black" stroke="black" points="1029.62,-178.5 1039.62,-175 1029.62,-171.5 1029.62,-178.5"/>
<text text-anchor="middle" x="994" y="-178.8" font-family="Times,serif" font-size="14.00">u0003</text>
</g>
<!-- 31 -->
<g id="node21" class="node"><title>31</title>
<ellipse fill="none" stroke="black" cx="1186" cy="-175" rx="18" ry="18"/>
</g>
<!-- 29&#45;&gt;31 -->
<g id="edge32" class="edge"><title>29&#45;&gt;31</title>
<path fill="none" stroke="black" d="M1076.26,-175C1097.27,-175 1133.03,-175 1157.77,-175"/>
<polygon fill="black" stroke="black" points="1157.95,-178.5 1167.95,-175 1157.95,-171.5 1157.95,-178.5"/>
<text text-anchor="middle" x="1122" y="-178.8" font-family="Times,serif" font-size="14.00">u0001</text>
</g>
<!-- 33 -->
<g id="node22" class="node"><title>33</title>
<ellipse fill="none" stroke="black" cx="1309" cy="-175" rx="18" ry="18"/>
</g>
<!-- 31&#45;&gt;33 -->
<g id="edge33" class="edge"><title>31&#45;&gt;33</title>
<path fill="none" stroke="black" d="M1204.08,-175C1223.96,-175 1257.08,-175 1280.58,-175"/>
<polygon fill="black" stroke="black" points="1280.62,-178.5 1290.62,-175 1280.62,-171.5 1280.62,-178.5"/>
<text text-anchor="middle" x="1250" y="-178.8" font-family="Times,serif" font-size="14.00">u0001</text>
</g>
<!-- 33&#45;&gt;20 -->
<g id="edge34" class="edge"><title>33&#45;&gt;20</title>
<path fill="none" stroke="black" d="M1322.24,-187.76C1328.66,-194.023 1336.86,-201.404 1345,-207 1363.84,-219.947 1371.46,-218.141 1391,-230 1396.97,-233.621 1403.18,-237.871 1408.88,-241.983"/>
<polygon fill="black" stroke="black" points="1407.19,-245.086 1417.32,-248.222 1411.36,-239.46 1407.19,-245.086"/>
<text text-anchor="middle" x="1368" y="-233.8" font-family="Times,serif" font-size="14.00">u0003</text>
</g>
<!-- 14&#45;&gt;5 -->
<g id="edge36" class="edge"><title>14&#45;&gt;5</title>
<path fill="none" stroke="black" d="M709.575,-180.027C716.182,-170.19 725.463,-157.285 735,-147 767.153,-112.321 768.709,-78 816,-78 816,-78 816,-78 995,-78 1107.94,-78 1136.06,-86 1249,-86 1249,-86 1249,-86 1561,-86 1634.25,-86 1669.4,-347.261 1679.12,-434.801"/>
<polygon fill="black" stroke="black" points="1675.65,-435.252 1680.2,-444.817 1682.6,-434.498 1675.65,-435.252"/>
<text text-anchor="middle" x="1186" y="-88.8" font-family="Times,serif" font-size="14.00">u0002</text>
</g>
<!-- 21 -->
<g id="node24" class="node"><title>21</title>
<ellipse fill="none" stroke="black" cx="817" cy="-397" rx="18" ry="18"/>
</g>
<!-- 14&#45;&gt;21 -->
<g id="edge35" class="edge"><title>14&#45;&gt;21</title>
<path fill="none" stroke="black" d="M708.719,-210.183C728.705,-244.986 777.959,-330.756 802.146,-372.875"/>
<polygon fill="black" stroke="black" points="799.165,-374.712 807.18,-381.641 805.235,-371.226 799.165,-374.712"/>
<text text-anchor="middle" x="758" y="-334.8" font-family="Times,serif" font-size="14.00">u0003</text>
</g>
<!-- 26 -->
<g id="node25" class="node"><title>26</title>
<ellipse fill="none" stroke="black" cx="935" cy="-408" rx="18" ry="18"/>
</g>
<!-- 21&#45;&gt;26 -->
<g id="edge37" class="edge"><title>21&#45;&gt;26</title>
<path fill="none" stroke="black" d="M835.116,-398.623C853.964,-400.41 884.531,-403.309 906.696,-405.411"/>
<polygon fill="black" stroke="black" points="906.528,-408.91 916.814,-406.37 907.189,-401.942 906.528,-408.91"/>
<text text-anchor="middle" x="876" y="-407.8" font-family="Times,serif" font-size="14.00">u0001</text>
</g>
<!-- 30 -->
<g id="node26" class="node"><title>30</title>
<ellipse fill="none" stroke="black" cx="1058" cy="-410" rx="18" ry="18"/>
</g>
<!-- 26&#45;&gt;30 -->
<g id="edge38" class="edge"><title>26&#45;&gt;30</title>
<path fill="none" stroke="black" d="M953.08,-408.282C972.965,-408.611 1006.08,-409.158 1029.58,-409.547"/>
<polygon fill="black" stroke="black" points="1029.56,-413.047 1039.62,-409.713 1029.67,-406.048 1029.56,-413.047"/>
<text text-anchor="middle" x="994" y="-412.8" font-family="Times,serif" font-size="14.00">u0003</text>
</g>
<!-- 32 -->
<g id="node27" class="node"><title>32</title>
<ellipse fill="none" stroke="black" cx="1186" cy="-453" rx="18" ry="18"/>
</g>
<!-- 30&#45;&gt;32 -->
<g id="edge39" class="edge"><title>30&#45;&gt;32</title>
<path fill="none" stroke="black" d="M1075.21,-415.533C1096.48,-422.79 1134.03,-435.606 1159.22,-444.201"/>
<polygon fill="black" stroke="black" points="1158.25,-447.57 1168.85,-447.488 1160.51,-440.945 1158.25,-447.57"/>
<text text-anchor="middle" x="1122" y="-442.8" font-family="Times,serif" font-size="14.00">u0003</text>
</g>
<!-- 34 -->
<g id="node28" class="node"><title>34</title>
<ellipse fill="none" stroke="black" cx="1309" cy="-461" rx="18" ry="18"/>
</g>
<!-- 32&#45;&gt;34 -->
<g id="edge40" class="edge"><title>32&#45;&gt;34</title>
<path fill="none" stroke="black" d="M1204.08,-454.129C1224.08,-455.451 1257.45,-457.658 1280.98,-459.213"/>
<polygon fill="black" stroke="black" points="1280.8,-462.709 1291.01,-459.877 1281.26,-455.724 1280.8,-462.709"/>
<text text-anchor="middle" x="1250" y="-461.8" font-family="Times,serif" font-size="14.00">u0001</text>
</g>
<!-- 23 -->
<g id="node29" class="node"><title>23</title>
<ellipse fill="none" stroke="black" cx="1432" cy="-501" rx="18" ry="18"/>
</g>
<!-- 34&#45;&gt;23 -->
<g id="edge41" class="edge"><title>34&#45;&gt;23</title>
<path fill="none" stroke="black" d="M1327.05,-460.926C1343.88,-461.396 1370.05,-463.606 1391,-472 1397.74,-474.701 1404.4,-478.787 1410.29,-483.047"/>
<polygon fill="black" stroke="black" points="1408.25,-485.895 1418.29,-489.27 1412.55,-480.369 1408.25,-485.895"/>
<text text-anchor="middle" x="1368" y="-475.8" font-family="Times,serif" font-size="14.00">u0001</text>
</g>
<!-- 23&#45;&gt;17 -->
<g id="edge42" class="edge"><title>23&#45;&gt;17</title>
<path fill="none" stroke="black" d="M1449.67,-497.413C1467.13,-493.499 1495.27,-486.746 1519,-479 1523.81,-477.429 1528.88,-475.571 1533.72,-473.686"/>
<polygon fill="black" stroke="black" points="1535.24,-476.847 1543.21,-469.865 1532.63,-470.353 1535.24,-476.847"/>
<text text-anchor="middle" x="1496" y="-494.8" font-family="Times,serif" font-size="14.00">u0003</text>
</g>
<!-- 6&#45;&gt;5 -->
<g id="edge44" class="edge"><title>6&#45;&gt;5</title>
<path fill="none" stroke="black" d="M708.553,-660.625C725.224,-688.75 764.949,-745 816,-745 816,-745 816,-745 1561,-745 1670.71,-745 1682.21,-562.525 1682.51,-491.144"/>
<polygon fill="black" stroke="black" points="1686.01,-491.059 1682.48,-481.069 1679.01,-491.08 1686.01,-491.059"/>
<text text-anchor="middle" x="1186" y="-748.8" font-family="Times,serif" font-size="14.00">u0002</text>
</g>
<!-- 6&#45;&gt;10 -->
<g id="edge45" class="edge"><title>6&#45;&gt;10</title>
<path fill="none" stroke="black" d="M702.689,-627.315C710.717,-581.771 738.928,-464 816,-464 816,-464 816,-464 995,-464 1035.06,-464 1045.19,-454.959 1081,-437 1089.82,-432.576 1089.73,-427.387 1099,-424 1206.36,-384.77 1345.97,-391.231 1403.94,-396.201"/>
<polygon fill="black" stroke="black" points="1403.82,-399.705 1414.1,-397.131 1404.46,-392.734 1403.82,-399.705"/>
<text text-anchor="middle" x="1058" y="-461.8" font-family="Times,serif" font-size="14.00">u0001</text>
</g>
<!-- 9 -->
<g id="node31" class="node"><title>9</title>
<ellipse fill="none" stroke="black" cx="817" cy="-656" rx="18" ry="18"/>
</g>
<!-- 6&#45;&gt;9 -->
<g id="edge43" class="edge"><title>6&#45;&gt;9</title>
<path fill="none" stroke="black" d="M717.116,-646.623C735.964,-648.41 766.531,-651.309 788.696,-653.411"/>
<polygon fill="black" stroke="black" points="788.528,-656.91 798.814,-654.37 789.189,-649.942 788.528,-656.91"/>
<text text-anchor="middle" x="758" y="-655.8" font-family="Times,serif" font-size="14.00">u0003</text>
</g>
<!-- 9&#45;&gt;5 -->
<g id="edge47" class="edge"><title>9&#45;&gt;5</title>
<path fill="none" stroke="black" d="M833.297,-663.872C839.289,-666.602 846.318,-669.381 853,-671 1024.48,-712.553 1072.56,-699 1249,-699 1249,-699 1249,-699 1561,-699 1606.37,-699 1621.52,-681.537 1647,-644 1663.65,-619.476 1674.53,-535.684 1679.27,-491.228"/>
<polygon fill="black" stroke="black" points="1682.77,-491.397 1680.32,-481.09 1675.81,-490.677 1682.77,-491.397"/>
<text text-anchor="middle" x="1250" y="-702.8" font-family="Times,serif" font-size="14.00">u0002</text>
</g>
<!-- 15 -->
<g id="node32" class="node"><title>15</title>
<ellipse fill="none" stroke="black" cx="935" cy="-553" rx="18" ry="18"/>
</g>
<!-- 9&#45;&gt;15 -->
<g id="edge46" class="edge"><title>9&#45;&gt;15</title>
<path fill="none" stroke="black" d="M831.307,-644.185C851.323,-626.412 889.358,-592.639 913.1,-571.558"/>
<polygon fill="black" stroke="black" points="915.695,-573.934 920.849,-564.678 911.047,-568.7 915.695,-573.934"/>
<text text-anchor="middle" x="876" y="-625.8" font-family="Times,serif" font-size="14.00">u0003</text>
</g>
<!-- 16 -->
<g id="node35" class="node"><title>16</title>
<ellipse fill="none" stroke="black" cx="1309" cy="-653" rx="18" ry="18"/>
</g>
<!-- 9&#45;&gt;16 -->
<g id="edge48" class="edge"><title>9&#45;&gt;16</title>
<path fill="none" stroke="black" d="M835.293,-656.484C857.959,-657.076 898.953,-658 934,-658 934,-658 934,-658 1187,-658 1219.23,-658 1256.26,-656.207 1280.77,-654.768"/>
<polygon fill="black" stroke="black" points="1281.01,-658.26 1290.78,-654.16 1280.58,-651.273 1281.01,-658.26"/>
<text text-anchor="middle" x="1058" y="-661.8" font-family="Times,serif" font-size="14.00">u0001</text>
</g>
<!-- 15&#45;&gt;23 -->
<g id="edge50" class="edge"><title>15&#45;&gt;23</title>
<path fill="none" stroke="black" d="M950.597,-543.469C972.678,-529.995 1016.32,-507 1057,-507 1057,-507 1057,-507 1251,-507 1305.03,-507 1368.13,-504.266 1403.44,-502.489"/>
<polygon fill="black" stroke="black" points="1404.08,-505.961 1413.88,-501.951 1403.71,-498.971 1404.08,-505.961"/>
<text text-anchor="middle" x="1186" y="-510.8" font-family="Times,serif" font-size="14.00">u0001</text>
</g>
<!-- 22 -->
<g id="node33" class="node"><title>22</title>
<ellipse fill="none" stroke="black" cx="1058" cy="-553" rx="18" ry="18"/>
</g>
<!-- 15&#45;&gt;22 -->
<g id="edge49" class="edge"><title>15&#45;&gt;22</title>
<path fill="none" stroke="black" d="M953.08,-553C972.965,-553 1006.08,-553 1029.58,-553"/>
<polygon fill="black" stroke="black" points="1029.62,-556.5 1039.62,-553 1029.62,-549.5 1029.62,-556.5"/>
<text text-anchor="middle" x="994" y="-556.8" font-family="Times,serif" font-size="14.00">u0003</text>
</g>
<!-- 27 -->
<g id="node34" class="node"><title>27</title>
<ellipse fill="none" stroke="black" cx="1186" cy="-558" rx="18" ry="18"/>
</g>
<!-- 22&#45;&gt;27 -->
<g id="edge51" class="edge"><title>22&#45;&gt;27</title>
<path fill="none" stroke="black" d="M1075.99,-553.674C1096.94,-554.506 1132.81,-555.929 1157.65,-556.915"/>
<polygon fill="black" stroke="black" points="1157.74,-560.421 1167.87,-557.32 1158.02,-553.427 1157.74,-560.421"/>
<text text-anchor="middle" x="1122" y="-559.8" font-family="Times,serif" font-size="14.00">u0001</text>
</g>
<!-- 27&#45;&gt;5 -->
<g id="edge52" class="edge"><title>27&#45;&gt;5</title>
<path fill="none" stroke="black" d="M1204.22,-559.392C1227.67,-561.164 1270.98,-564 1308,-564 1308,-564 1308,-564 1561,-564 1608.86,-564 1647.8,-516.853 1667.67,-486.984"/>
<polygon fill="black" stroke="black" points="1670.77,-488.647 1673.22,-478.34 1664.87,-484.868 1670.77,-488.647"/>
<text text-anchor="middle" x="1432" y="-567.8" font-family="Times,serif" font-size="14.00">u0002</text>
</g>
<!-- 27&#45;&gt;28 -->
<g id="edge53" class="edge"><title>27&#45;&gt;28</title>
<path fill="none" stroke="black" d="M1198.17,-544.383C1202.13,-538.951 1206.27,-532.458 1209,-526 1224.88,-488.425 1207.18,-471.654 1227,-436 1241.07,-410.682 1266.52,-388.91 1285.15,-375.238"/>
<polygon fill="black" stroke="black" points="1287.28,-378.014 1293.41,-369.371 1283.23,-372.306 1287.28,-378.014"/>
<text text-anchor="middle" x="1250" y="-439.8" font-family="Times,serif" font-size="14.00">u0001</text>
</g>
<!-- 16&#45;&gt;5 -->
<g id="edge55" class="edge"><title>16&#45;&gt;5</title>
<path fill="none" stroke="black" d="M1327.32,-653.918C1389.34,-656.828 1599.11,-663.322 1647,-621 1666.08,-604.135 1675.69,-531.913 1679.67,-491.201"/>
<polygon fill="black" stroke="black" points="1683.17,-491.383 1680.61,-481.103 1676.2,-490.738 1683.17,-491.383"/>
<text text-anchor="middle" x="1496" y="-658.8" font-family="Times,serif" font-size="14.00">u0002</text>
</g>
<!-- 16&#45;&gt;23 -->
<g id="edge54" class="edge"><title>16&#45;&gt;23</title>
<path fill="none" stroke="black" d="M1320.95,-639.243C1342.01,-612.791 1388.3,-554.646 1413.61,-522.84"/>
<polygon fill="black" stroke="black" points="1416.67,-524.62 1420.16,-514.616 1411.19,-520.26 1416.67,-524.62"/>
<text text-anchor="middle" x="1368" y="-611.8" font-family="Times,serif" font-size="14.00">u0003</text>
</g>
<!-- initial -->
<g id="node36" class="node"><title>initial</title>
</g>
<!-- initial&#45;&gt;0 -->
<g id="edge56" class="edge"><title>initial&#45;&gt;0</title>
<path fill="none" stroke="black" d="M54.195,-18C62.6538,-18 72.0513,-18 80.5951,-18"/>
<polygon fill="black" stroke="black" points="80.8257,-21.5001 90.8257,-18 80.8257,-14.5001 80.8257,-21.5001"/>
</g>
</g>
</svg>
