<svg width="1791px" height="159px"
 viewBox="0.00 0.00 1343.00 118.93" xmlns="http://www.w3.org/2000/svg" xmlns:xlink="http://www.w3.org/1999/xlink">
<g id="graph0" class="graph" transform="scale(1.000022500562514 1.000022500562514) rotate(0) translate(4 114.929)">
<title>Automaton</title>
<polygon fill="white" stroke="none" points="-4,4 -4,-114.929 1339,-114.929 1339,4 -4,4"/>
<!-- 0 -->
<g id="node1" class="node"><title>0</title>
<ellipse fill="none" stroke="black" cx="109" cy="-49.9288" rx="18" ry="18"/>
</g>
<!-- 1 -->
<g id="node2" class="node"><title>1</title>
<ellipse fill="none" stroke="black" cx="227" cy="-49.9288" rx="18" ry="18"/>
</g>
<!-- 0&#45;&gt;1 -->
<g id="edge1" class="edge"><title>0&#45;&gt;1</title>
<path fill="none" stroke="black" d="M127.116,-49.9288C145.964,-49.9288 176.531,-49.9288 198.696,-49.9288"/>
<polygon fill="black" stroke="black" points="198.814,-53.4289 208.814,-49.9288 198.814,-46.4289 198.814,-53.4289"/>
<text text-anchor="middle" x="168" y="-53.7288" font-family="Times,serif" font-size="14.00">u0002</text>
</g>
<!-- 2 -->
<g id="node3" class="node"><title>2</title>
<ellipse fill="none" stroke="black" cx="345" cy="-49.9288" rx="18" ry="18"/>
</g>
<!-- 1&#45;&gt;2 -->
<g id="edge2" class="edge"><title>1&#45;&gt;2</title>
<path fill="none" stroke="black" d="M245.116,-49.9288C263.964,-49.9288 294.531,-49.9288 316.696,-49.9288"/>
<polygon fill="black" stroke="black" points="316.814,-53.4289 326.814,-49.9288 316.814,-46.4289 316.814,-53.4289"/>
<text text-anchor="middle" x="286" y="-53.7288" font-family="Times,serif" font-size="14.00">u0005</text>
</g>
<!-- 3 -->
<g id="node4" class="node"><title>3</title>
<ellipse fill="none" stroke="black" cx="463" cy="-76.9288" rx="18" ry="18"/>
</g>
<!-- 2&#45;&gt;3 -->
<g id="edge3" class="edge"><title>2&#45;&gt;3</title>
<path fill="none" stroke="black" d="M362.62,-53.7973C381.657,-58.2282 413.103,-65.5477 435.523,-70.7661"/>
<polygon fill="black" stroke="black" points="434.878,-74.2094 445.411,-73.0676 436.465,-67.3916 434.878,-74.2094"/>
<text text-anchor="middle" x="404" y="-71.7288" font-family="Times,serif" font-size="14.00">u0005</text>
</g>
<!-- 4 -->
<g id="node12" class="node"><title>4</title>
<ellipse fill="none" stroke="black" cx="522" cy="-30.9288" rx="18" ry="18"/>
</g>
<!-- 2&#45;&gt;4 -->
<g id="edge4" class="edge"><title>2&#45;&gt;4</title>
<path fill="none" stroke="black" d="M362.171,-43.9288C368.023,-42.0031 374.734,-40.0741 381,-38.9288 419.478,-31.8953 464.805,-30.5393 493.226,-30.5047"/>
<polygon fill="black" stroke="black" points="493.579,-34.0062 503.595,-30.5506 493.61,-27.0063 493.579,-34.0062"/>
<text text-anchor="middle" x="404" y="-42.7288" font-family="Times,serif" font-size="14.00">u0000</text>
</g>
<!-- 5 -->
<g id="node5" class="node"><title>5</title>
<ellipse fill="none" stroke="black" cx="581" cy="-78.9288" rx="18" ry="18"/>
</g>
<!-- 3&#45;&gt;5 -->
<g id="edge5" class="edge"><title>3&#45;&gt;5</title>
<path fill="none" stroke="black" d="M481.116,-77.2239C499.964,-77.5489 530.531,-78.0759 552.696,-78.4581"/>
<polygon fill="black" stroke="black" points="552.755,-81.9595 562.814,-78.6325 552.875,-74.9605 552.755,-81.9595"/>
<text text-anchor="middle" x="522" y="-81.7288" font-family="Times,serif" font-size="14.00">u0000</text>
</g>
<!-- 7 -->
<g id="node6" class="node"><title>7</title>
<ellipse fill="none" stroke="black" cx="704" cy="-82.9288" rx="18" ry="18"/>
</g>
<!-- 5&#45;&gt;7 -->
<g id="edge6" class="edge"><title>5&#45;&gt;7</title>
<path fill="none" stroke="black" d="M599.08,-79.4934C619.078,-80.1545 652.454,-81.2579 675.976,-82.0355"/>
<polygon fill="black" stroke="black" points="675.897,-85.5347 686.007,-82.3671 676.128,-78.5385 675.897,-85.5347"/>
<text text-anchor="middle" x="640" y="-84.7288" font-family="Times,serif" font-size="14.00">u0001</text>
</g>
<!-- 10 -->
<g id="node7" class="node"><title>10</title>
<ellipse fill="none" stroke="black" cx="827" cy="-83.9288" rx="18" ry="18"/>
</g>
<!-- 7&#45;&gt;10 -->
<g id="edge7" class="edge"><title>7&#45;&gt;10</title>
<path fill="none" stroke="black" d="M722.08,-83.07C741.965,-83.2343 775.077,-83.508 798.577,-83.7022"/>
<polygon fill="black" stroke="black" points="798.587,-87.2023 808.615,-83.7852 798.645,-80.2025 798.587,-87.2023"/>
<text text-anchor="middle" x="768" y="-86.7288" font-family="Times,serif" font-size="14.00">u0003</text>
</g>
<!-- 12 -->
<g id="node8" class="node"><title>12</title>
<ellipse fill="none" stroke="black" cx="945" cy="-84.9288" rx="18" ry="18"/>
</g>
<!-- 10&#45;&gt;12 -->
<g id="edge8" class="edge"><title>10&#45;&gt;12</title>
<path fill="none" stroke="black" d="M845.116,-84.0764C863.964,-84.2389 894.531,-84.5024 916.696,-84.6934"/>
<polygon fill="black" stroke="black" points="916.784,-88.1942 926.814,-84.7807 916.844,-81.1945 916.784,-88.1942"/>
<text text-anchor="middle" x="886" y="-87.7288" font-family="Times,serif" font-size="14.00">u0003</text>
</g>
<!-- 13 -->
<g id="node9" class="node"><title>13</title>
<ellipse fill="none" stroke="black" cx="1063" cy="-92.9288" rx="18" ry="18"/>
</g>
<!-- 12&#45;&gt;13 -->
<g id="edge9" class="edge"><title>12&#45;&gt;13</title>
<path fill="none" stroke="black" d="M963.116,-86.1093C981.964,-87.4091 1012.53,-89.5171 1034.7,-91.0458"/>
<polygon fill="black" stroke="black" points="1034.6,-94.5471 1044.81,-91.7436 1035.08,-87.5637 1034.6,-94.5471"/>
<text text-anchor="middle" x="1004" y="-93.7288" font-family="Times,serif" font-size="14.00">u0003</text>
</g>
<!-- 11 -->
<g id="node10" class="node"><title>11</title>
<ellipse fill="none" stroke="black" cx="1186" cy="-77.9288" rx="18" ry="18"/>
</g>
<!-- 13&#45;&gt;11 -->
<g id="edge10" class="edge"><title>13&#45;&gt;11</title>
<path fill="none" stroke="black" d="M1081.08,-90.8115C1101.08,-88.3324 1134.45,-84.1949 1157.98,-81.2789"/>
<polygon fill="black" stroke="black" points="1158.51,-84.7391 1168.01,-80.0354 1157.65,-77.7923 1158.51,-84.7391"/>
<text text-anchor="middle" x="1122" y="-91.7288" font-family="Times,serif" font-size="14.00">u0003</text>
</g>
<!-- 8 -->
<g id="node11" class="node"><title>8</title>
<ellipse fill="none" stroke="black" cx="1313" cy="-26.9288" rx="18" ry="18"/>
<ellipse fill="none" stroke="black" cx="1313" cy="-26.9288" rx="22" ry="22"/>
</g>
<!-- 11&#45;&gt;8 -->
<g id="edge11" class="edge"><title>11&#45;&gt;8</title>
<path fill="none" stroke="black" d="M1202.83,-71.4696C1222.9,-63.2824 1257.88,-49.0112 1282.83,-38.8291"/>
<polygon fill="black" stroke="black" points="1284.25,-42.0327 1292.18,-35.0143 1281.6,-35.5514 1284.25,-42.0327"/>
<text text-anchor="middle" x="1250" y="-64.7288" font-family="Times,serif" font-size="14.00">u0004</text>
</g>
<!-- 6 -->
<g id="node13" class="node"><title>6</title>
<ellipse fill="none" stroke="black" cx="945" cy="-30.9288" rx="18" ry="18"/>
</g>
<!-- 4&#45;&gt;6 -->
<g id="edge12" class="edge"><title>4&#45;&gt;6</title>
<path fill="none" stroke="black" d="M540.295,-30.9288C562.962,-30.9288 603.958,-30.9288 639,-30.9288 639,-30.9288 639,-30.9288 828,-30.9288 858.251,-30.9288 892.939,-30.9288 916.442,-30.9288"/>
<polygon fill="black" stroke="black" points="916.706,-34.4289 926.705,-30.9288 916.705,-27.4289 916.706,-34.4289"/>
<text text-anchor="middle" x="704" y="-34.7288" font-family="Times,serif" font-size="14.00">u0001</text>
</g>
<!-- 6&#45;&gt;8 -->
<g id="edge13" class="edge"><title>6&#45;&gt;8</title>
<path fill="none" stroke="black" d="M962.191,-25.078C981.572,-18.4118 1015.16,-7.92512 1045,-3.92883 1130.28,7.49161 1231.68,-9.5902 1281.41,-19.9547"/>
<polygon fill="black" stroke="black" points="1280.98,-23.4427 1291.49,-22.1138 1282.45,-16.5978 1280.98,-23.4427"/>
<text text-anchor="middle" x="1122" y="-5.72883" font-family="Times,serif" font-size="14.00">u0004</text>
</g>
<!-- 9 -->
<g id="node14" class="node"><title>9</title>
<ellipse fill="none" stroke="black" cx="1063" cy="-30.9288" rx="18" ry="18"/>
</g>
<!-- 6&#45;&gt;9 -->
<g id="edge14" class="edge"><title>6&#45;&gt;9</title>
<path fill="none" stroke="black" d="M963.116,-30.9288C981.964,-30.9288 1012.53,-30.9288 1034.7,-30.9288"/>
<polygon fill="black" stroke="black" points="1034.81,-34.4289 1044.81,-30.9288 1034.81,-27.4289 1034.81,-34.4289"/>
<text text-anchor="middle" x="1004" y="-34.7288" font-family="Times,serif" font-size="14.00">u0003</text>
</g>
<!-- 9&#45;&gt;11 -->
<g id="edge16" class="edge"><title>9&#45;&gt;11</title>
<path fill="none" stroke="black" d="M1080.32,-37.2675C1100.64,-45.1603 1135.58,-58.7321 1159.46,-68.0076"/>
<polygon fill="black" stroke="black" points="1158.35,-71.3323 1168.94,-71.6906 1160.89,-64.8073 1158.35,-71.3323"/>
<text text-anchor="middle" x="1122" y="-64.7288" font-family="Times,serif" font-size="14.00">u0003</text>
</g>
<!-- 9&#45;&gt;8 -->
<g id="edge15" class="edge"><title>9&#45;&gt;8</title>
<path fill="none" stroke="black" d="M1081.05,-30.6539C1122.2,-29.9901 1227.51,-28.2916 1280.52,-27.4366"/>
<polygon fill="black" stroke="black" points="1280.75,-30.9334 1290.69,-27.2725 1280.64,-23.9343 1280.75,-30.9334"/>
<text text-anchor="middle" x="1186" y="-33.7288" font-family="Times,serif" font-size="14.00">u0004</text>
</g>
<!-- initial -->
<g id="node15" class="node"><title>initial</title>
</g>
<!-- initial&#45;&gt;0 -->
<g id="edge17" class="edge"><title>initial&#45;&gt;0</title>
<path fill="none" stroke="black" d="M54.195,-49.9288C62.6538,-49.9288 72.0513,-49.9288 80.5951,-49.9288"/>
<polygon fill="black" stroke="black" points="80.8257,-53.4289 90.8257,-49.9288 80.8257,-46.4289 80.8257,-53.4289"/>
</g>
</g>
</svg>
