<svg width="833px" height="112px"
 viewBox="0.00 0.00 625.00 84.00" xmlns="http://www.w3.org/2000/svg" xmlns:xlink="http://www.w3.org/1999/xlink">
<g id="graph0" class="graph" transform="scale(1.000022500562514 1.000022500562514) rotate(0) translate(4 80)">
<title>Automaton</title>
<polygon fill="white" stroke="none" points="-4,4 -4,-80 621,-80 621,4 -4,4"/>
<!-- 0 -->
<g id="node1" class="node"><title>0</title>
<ellipse fill="none" stroke="black" cx="109" cy="-57" rx="18" ry="18"/>
</g>
<!-- 1 -->
<g id="node2" class="node"><title>1</title>
<ellipse fill="none" stroke="black" cx="227" cy="-57" rx="18" ry="18"/>
</g>
<!-- 0&#45;&gt;1 -->
<g id="edge1" class="edge"><title>0&#45;&gt;1</title>
<path fill="none" stroke="black" d="M127.116,-57C145.964,-57 176.531,-57 198.696,-57"/>
<polygon fill="black" stroke="black" points="198.814,-60.5001 208.814,-57 198.814,-53.5001 198.814,-60.5001"/>
<text text-anchor="middle" x="168" y="-60.8" font-family="Times,serif" font-size="14.00">u0003</text>
</g>
<!-- 2 -->
<g id="node3" class="node"><title>2</title>
<ellipse fill="none" stroke="black" cx="473" cy="-51" rx="18" ry="18"/>
</g>
<!-- 1&#45;&gt;2 -->
<g id="edge2" class="edge"><title>1&#45;&gt;2</title>
<path fill="none" stroke="black" d="M245.124,-58.2755C280.88,-60.6767 366.047,-65.0258 437,-58 439.738,-57.7289 442.58,-57.3411 445.406,-56.8855"/>
<polygon fill="black" stroke="black" points="446.179,-60.3017 455.366,-55.0241 444.893,-53.4208 446.179,-60.3017"/>
<text text-anchor="middle" x="350" y="-64.8" font-family="Times,serif" font-size="14.00">u0002</text>
</g>
<!-- 3 -->
<g id="node5" class="node"><title>3</title>
<ellipse fill="none" stroke="black" cx="350" cy="-18" rx="18" ry="18"/>
</g>
<!-- 1&#45;&gt;3 -->
<g id="edge3" class="edge"><title>1&#45;&gt;3</title>
<path fill="none" stroke="black" d="M243.907,-50.2565C249.85,-47.838 256.689,-45.1739 263,-43 282.722,-36.207 305.392,-29.6681 322.503,-24.9825"/>
<polygon fill="black" stroke="black" points="323.622,-28.3058 332.363,-22.3188 321.796,-21.548 323.622,-28.3058"/>
<text text-anchor="middle" x="286" y="-46.8" font-family="Times,serif" font-size="14.00">u0001</text>
</g>
<!-- 4 -->
<g id="node4" class="node"><title>4</title>
<ellipse fill="none" stroke="black" cx="595" cy="-51" rx="18" ry="18"/>
<ellipse fill="none" stroke="black" cx="595" cy="-51" rx="22" ry="22"/>
</g>
<!-- 2&#45;&gt;4 -->
<g id="edge4" class="edge"><title>2&#45;&gt;4</title>
<path fill="none" stroke="black" d="M491.193,-51C509.767,-51 539.762,-51 562.57,-51"/>
<polygon fill="black" stroke="black" points="562.793,-54.5001 572.792,-51 562.792,-47.5001 562.793,-54.5001"/>
<text text-anchor="middle" x="532" y="-54.8" font-family="Times,serif" font-size="14.00">u0000</text>
</g>
<!-- 3&#45;&gt;2 -->
<g id="edge5" class="edge"><title>3&#45;&gt;2</title>
<path fill="none" stroke="black" d="M367.825,-22.5885C387.962,-28.0805 421.922,-37.3425 445.574,-43.7929"/>
<polygon fill="black" stroke="black" points="444.75,-47.1959 455.318,-46.4505 446.592,-40.4425 444.75,-47.1959"/>
<text text-anchor="middle" x="414" y="-45.8" font-family="Times,serif" font-size="14.00">u0002</text>
</g>
<!-- initial -->
<g id="node6" class="node"><title>initial</title>
</g>
<!-- initial&#45;&gt;0 -->
<g id="edge6" class="edge"><title>initial&#45;&gt;0</title>
<path fill="none" stroke="black" d="M54.195,-57C62.6538,-57 72.0513,-57 80.5951,-57"/>
<polygon fill="black" stroke="black" points="80.8257,-60.5001 90.8257,-57 80.8257,-53.5001 80.8257,-60.5001"/>
</g>
</g>
</svg>
