<svg width="3517px" height="347px"
 viewBox="0.00 0.00 2638.00 260.00" xmlns="http://www.w3.org/2000/svg" xmlns:xlink="http://www.w3.org/1999/xlink">
<g id="graph0" class="graph" transform="scale(1.000022500562514 1.000022500562514) rotate(0) translate(4 256)">
<title>Automaton</title>
<polygon fill="white" stroke="none" points="-4,4 -4,-256 2634,-256 2634,4 -4,4"/>
<!-- 0 -->
<g id="node1" class="node"><title>0</title>
<ellipse fill="none" stroke="black" cx="109" cy="-130" rx="18" ry="18"/>
</g>
<!-- 1 -->
<g id="node2" class="node"><title>1</title>
<ellipse fill="none" stroke="black" cx="227" cy="-130" rx="18" ry="18"/>
</g>
<!-- 0&#45;&gt;1 -->
<g id="edge1" class="edge"><title>0&#45;&gt;1</title>
<path fill="none" stroke="black" d="M127.116,-130C145.964,-130 176.531,-130 198.696,-130"/>
<polygon fill="black" stroke="black" points="198.814,-133.5 208.814,-130 198.814,-126.5 198.814,-133.5"/>
<text text-anchor="middle" x="168" y="-133.8" font-family="Times,serif" font-size="14.00">u0005</text>
</g>
<!-- 2 -->
<g id="node3" class="node"><title>2</title>
<ellipse fill="none" stroke="black" cx="344" cy="-130" rx="18" ry="18"/>
</g>
<!-- 1&#45;&gt;2 -->
<g id="edge2" class="edge"><title>1&#45;&gt;2</title>
<path fill="none" stroke="black" d="M245.466,-130C264.064,-130 293.756,-130 315.499,-130"/>
<polygon fill="black" stroke="black" points="315.746,-133.5 325.746,-130 315.746,-126.5 315.746,-133.5"/>
<text text-anchor="middle" x="285.5" y="-133.8" font-family="Times,serif" font-size="14.00">u000c</text>
</g>
<!-- 3 -->
<g id="node4" class="node"><title>3</title>
<ellipse fill="none" stroke="black" cx="462" cy="-130" rx="18" ry="18"/>
</g>
<!-- 2&#45;&gt;3 -->
<g id="edge3" class="edge"><title>2&#45;&gt;3</title>
<path fill="none" stroke="black" d="M362.116,-130C380.964,-130 411.531,-130 433.696,-130"/>
<polygon fill="black" stroke="black" points="433.814,-133.5 443.814,-130 433.814,-126.5 433.814,-133.5"/>
<text text-anchor="middle" x="403" y="-133.8" font-family="Times,serif" font-size="14.00">u0001</text>
</g>
<!-- 4 -->
<g id="node5" class="node"><title>4</title>
<ellipse fill="none" stroke="black" cx="580" cy="-130" rx="18" ry="18"/>
</g>
<!-- 3&#45;&gt;4 -->
<g id="edge4" class="edge"><title>3&#45;&gt;4</title>
<path fill="none" stroke="black" d="M480.116,-130C498.964,-130 529.531,-130 551.696,-130"/>
<polygon fill="black" stroke="black" points="551.814,-133.5 561.814,-130 551.814,-126.5 551.814,-133.5"/>
<text text-anchor="middle" x="521" y="-133.8" font-family="Times,serif" font-size="14.00">u0008</text>
</g>
<!-- 5 -->
<g id="node6" class="node"><title>5</title>
<ellipse fill="none" stroke="black" cx="698" cy="-130" rx="18" ry="18"/>
</g>
<!-- 4&#45;&gt;5 -->
<g id="edge5" class="edge"><title>4&#45;&gt;5</title>
<path fill="none" stroke="black" d="M598.116,-130C616.964,-130 647.531,-130 669.696,-130"/>
<polygon fill="black" stroke="black" points="669.814,-133.5 679.814,-130 669.814,-126.5 669.814,-133.5"/>
<text text-anchor="middle" x="639" y="-133.8" font-family="Times,serif" font-size="14.00">u0009</text>
</g>
<!-- 6 -->
<g id="node7" class="node"><title>6</title>
<ellipse fill="none" stroke="black" cx="816" cy="-176" rx="18" ry="18"/>
</g>
<!-- 5&#45;&gt;6 -->
<g id="edge6" class="edge"><title>5&#45;&gt;6</title>
<path fill="none" stroke="black" d="M715.024,-136.426C720.98,-138.811 727.797,-141.534 734,-144 752.441,-151.331 773.265,-159.556 789.18,-165.832"/>
<polygon fill="black" stroke="black" points="788.268,-169.235 798.855,-169.645 790.835,-162.722 788.268,-169.235"/>
<text text-anchor="middle" x="757" y="-164.8" font-family="Times,serif" font-size="14.00">u0003</text>
</g>
<!-- 7 -->
<g id="node18" class="node"><title>7</title>
<ellipse fill="none" stroke="black" cx="1287" cy="-130" rx="18" ry="18"/>
</g>
<!-- 5&#45;&gt;7 -->
<g id="edge7" class="edge"><title>5&#45;&gt;7</title>
<path fill="none" stroke="black" d="M716.295,-130C738.962,-130 779.958,-130 815,-130 815,-130 815,-130 1171,-130 1200.99,-130 1235.38,-130 1258.68,-130"/>
<polygon fill="black" stroke="black" points="1258.85,-133.5 1268.85,-130 1258.85,-126.5 1258.85,-133.5"/>
<text text-anchor="middle" x="993" y="-133.8" font-family="Times,serif" font-size="14.00">u0002</text>
</g>
<!-- 8 -->
<g id="node35" class="node"><title>8</title>
<ellipse fill="none" stroke="black" cx="816" cy="-72" rx="18" ry="18"/>
</g>
<!-- 5&#45;&gt;8 -->
<g id="edge8" class="edge"><title>5&#45;&gt;8</title>
<path fill="none" stroke="black" d="M711.493,-117.823C717.841,-112.131 725.909,-105.609 734,-101 751.14,-91.2347 772.154,-83.8268 788.482,-78.943"/>
<polygon fill="black" stroke="black" points="789.792,-82.2089 798.447,-76.0988 787.871,-75.4777 789.792,-82.2089"/>
<text text-anchor="middle" x="757" y="-104.8" font-family="Times,serif" font-size="14.00">u0000</text>
</g>
<!-- 9 -->
<g id="node8" class="node"><title>9</title>
<ellipse fill="none" stroke="black" cx="934" cy="-176" rx="18" ry="18"/>
</g>
<!-- 6&#45;&gt;9 -->
<g id="edge9" class="edge"><title>6&#45;&gt;9</title>
<path fill="none" stroke="black" d="M834.116,-176C852.964,-176 883.531,-176 905.696,-176"/>
<polygon fill="black" stroke="black" points="905.814,-179.5 915.814,-176 905.814,-172.5 905.814,-179.5"/>
<text text-anchor="middle" x="875" y="-179.8" font-family="Times,serif" font-size="14.00">u0003</text>
</g>
<!-- 14 -->
<g id="node9" class="node"><title>14</title>
<ellipse fill="none" stroke="black" cx="1052" cy="-176" rx="18" ry="18"/>
</g>
<!-- 9&#45;&gt;14 -->
<g id="edge10" class="edge"><title>9&#45;&gt;14</title>
<path fill="none" stroke="black" d="M952.116,-176C970.964,-176 1001.53,-176 1023.7,-176"/>
<polygon fill="black" stroke="black" points="1023.81,-179.5 1033.81,-176 1023.81,-172.5 1023.81,-179.5"/>
<text text-anchor="middle" x="993" y="-179.8" font-family="Times,serif" font-size="14.00">u000d</text>
</g>
<!-- 19 -->
<g id="node10" class="node"><title>19</title>
<ellipse fill="none" stroke="black" cx="1170" cy="-191" rx="18" ry="18"/>
</g>
<!-- 14&#45;&gt;19 -->
<g id="edge11" class="edge"><title>14&#45;&gt;19</title>
<path fill="none" stroke="black" d="M1070.12,-178.213C1088.96,-180.65 1119.53,-184.603 1141.7,-187.469"/>
<polygon fill="black" stroke="black" points="1141.45,-190.966 1151.81,-188.778 1142.35,-184.024 1141.45,-190.966"/>
<text text-anchor="middle" x="1111" y="-189.8" font-family="Times,serif" font-size="14.00">u0011</text>
</g>
<!-- 24 -->
<g id="node11" class="node"><title>24</title>
<ellipse fill="none" stroke="black" cx="1287" cy="-212" rx="18" ry="18"/>
</g>
<!-- 19&#45;&gt;24 -->
<g id="edge12" class="edge"><title>19&#45;&gt;24</title>
<path fill="none" stroke="black" d="M1187.97,-194.099C1206.65,-197.511 1236.96,-203.044 1258.93,-207.057"/>
<polygon fill="black" stroke="black" points="1258.5,-210.535 1268.96,-208.889 1259.75,-203.649 1258.5,-210.535"/>
<text text-anchor="middle" x="1228.5" y="-208.8" font-family="Times,serif" font-size="14.00">u000f</text>
</g>
<!-- 29 -->
<g id="node12" class="node"><title>29</title>
<ellipse fill="none" stroke="black" cx="1405" cy="-234" rx="18" ry="18"/>
</g>
<!-- 24&#45;&gt;29 -->
<g id="edge13" class="edge"><title>24&#45;&gt;29</title>
<path fill="none" stroke="black" d="M1305.12,-215.246C1324.07,-218.841 1354.88,-224.685 1377.08,-228.894"/>
<polygon fill="black" stroke="black" points="1376.71,-232.387 1387.19,-230.812 1378.02,-225.51 1376.71,-232.387"/>
<text text-anchor="middle" x="1346" y="-229.8" font-family="Times,serif" font-size="14.00">u000e</text>
</g>
<!-- 34 -->
<g id="node13" class="node"><title>34</title>
<ellipse fill="none" stroke="black" cx="1523" cy="-234" rx="18" ry="18"/>
</g>
<!-- 29&#45;&gt;34 -->
<g id="edge14" class="edge"><title>29&#45;&gt;34</title>
<path fill="none" stroke="black" d="M1423.12,-234C1441.96,-234 1472.53,-234 1494.7,-234"/>
<polygon fill="black" stroke="black" points="1494.81,-237.5 1504.81,-234 1494.81,-230.5 1494.81,-237.5"/>
<text text-anchor="middle" x="1464" y="-237.8" font-family="Times,serif" font-size="14.00">u0006</text>
</g>
<!-- 39 -->
<g id="node14" class="node"><title>39</title>
<ellipse fill="none" stroke="black" cx="1641" cy="-234" rx="18" ry="18"/>
</g>
<!-- 34&#45;&gt;39 -->
<g id="edge15" class="edge"><title>34&#45;&gt;39</title>
<path fill="none" stroke="black" d="M1541.12,-234C1559.96,-234 1590.53,-234 1612.7,-234"/>
<polygon fill="black" stroke="black" points="1612.81,-237.5 1622.81,-234 1612.81,-230.5 1612.81,-237.5"/>
<text text-anchor="middle" x="1582" y="-237.8" font-family="Times,serif" font-size="14.00">u0004</text>
</g>
<!-- 44 -->
<g id="node15" class="node"><title>44</title>
<ellipse fill="none" stroke="black" cx="1818" cy="-228" rx="18" ry="18"/>
</g>
<!-- 39&#45;&gt;44 -->
<g id="edge16" class="edge"><title>39&#45;&gt;44</title>
<path fill="none" stroke="black" d="M1659.1,-233.414C1689.42,-232.374 1752.84,-230.2 1789.41,-228.946"/>
<polygon fill="black" stroke="black" points="1789.96,-232.429 1799.83,-228.589 1789.72,-225.433 1789.96,-232.429"/>
<text text-anchor="middle" x="1700" y="-235.8" font-family="Times,serif" font-size="14.00">u0010</text>
</g>
<!-- 46 -->
<g id="node16" class="node"><title>46</title>
<ellipse fill="none" stroke="black" cx="2486" cy="-153" rx="18" ry="18"/>
</g>
<!-- 44&#45;&gt;46 -->
<g id="edge17" class="edge"><title>44&#45;&gt;46</title>
<path fill="none" stroke="black" d="M1836.29,-227.516C1858.96,-226.924 1899.95,-226 1935,-226 1935,-226 1935,-226 2365,-226 2405.79,-226 2444.51,-194.831 2466.45,-173.227"/>
<polygon fill="black" stroke="black" points="2468.98,-175.642 2473.48,-166.051 2463.98,-170.741 2468.98,-175.642"/>
<text text-anchor="middle" x="2118" y="-229.8" font-family="Times,serif" font-size="14.00">u0004</text>
</g>
<!-- 50 -->
<g id="node17" class="node"><title>50</title>
<ellipse fill="none" stroke="black" cx="2608" cy="-153" rx="18" ry="18"/>
<ellipse fill="none" stroke="black" cx="2608" cy="-153" rx="22" ry="22"/>
</g>
<!-- 46&#45;&gt;50 -->
<g id="edge18" class="edge"><title>46&#45;&gt;50</title>
<path fill="none" stroke="black" d="M2504.19,-153C2522.77,-153 2552.76,-153 2575.57,-153"/>
<polygon fill="black" stroke="black" points="2575.79,-156.5 2585.79,-153 2575.79,-149.5 2575.79,-156.5"/>
<text text-anchor="middle" x="2545" y="-156.8" font-family="Times,serif" font-size="14.00">u000b</text>
</g>
<!-- 10 -->
<g id="node19" class="node"><title>10</title>
<ellipse fill="none" stroke="black" cx="1405" cy="-126" rx="18" ry="18"/>
</g>
<!-- 7&#45;&gt;10 -->
<g id="edge19" class="edge"><title>7&#45;&gt;10</title>
<path fill="none" stroke="black" d="M1305.12,-129.41C1323.96,-128.76 1354.53,-127.706 1376.7,-126.942"/>
<polygon fill="black" stroke="black" points="1376.94,-130.435 1386.81,-126.593 1376.7,-123.439 1376.94,-130.435"/>
<text text-anchor="middle" x="1346" y="-132.8" font-family="Times,serif" font-size="14.00">u000d</text>
</g>
<!-- 11 -->
<g id="node28" class="node"><title>11</title>
<ellipse fill="none" stroke="black" cx="1405" cy="-180" rx="18" ry="18"/>
</g>
<!-- 7&#45;&gt;11 -->
<g id="edge20" class="edge"><title>7&#45;&gt;11</title>
<path fill="none" stroke="black" d="M1303.17,-138.217C1309.27,-141.409 1316.4,-145.009 1323,-148 1341.07,-156.194 1361.91,-164.397 1377.92,-170.447"/>
<polygon fill="black" stroke="black" points="1377.07,-173.867 1387.67,-174.089 1379.52,-167.31 1377.07,-173.867"/>
<text text-anchor="middle" x="1346" y="-169.8" font-family="Times,serif" font-size="14.00">u0000</text>
</g>
<!-- 15 -->
<g id="node20" class="node"><title>15</title>
<ellipse fill="none" stroke="black" cx="1523" cy="-126" rx="18" ry="18"/>
</g>
<!-- 10&#45;&gt;15 -->
<g id="edge21" class="edge"><title>10&#45;&gt;15</title>
<path fill="none" stroke="black" d="M1423.12,-126C1441.96,-126 1472.53,-126 1494.7,-126"/>
<polygon fill="black" stroke="black" points="1494.81,-129.5 1504.81,-126 1494.81,-122.5 1494.81,-129.5"/>
<text text-anchor="middle" x="1464" y="-129.8" font-family="Times,serif" font-size="14.00">u0011</text>
</g>
<!-- 20 -->
<g id="node21" class="node"><title>20</title>
<ellipse fill="none" stroke="black" cx="1641" cy="-126" rx="18" ry="18"/>
</g>
<!-- 15&#45;&gt;20 -->
<g id="edge22" class="edge"><title>15&#45;&gt;20</title>
<path fill="none" stroke="black" d="M1541.12,-126C1559.96,-126 1590.53,-126 1612.7,-126"/>
<polygon fill="black" stroke="black" points="1612.81,-129.5 1622.81,-126 1612.81,-122.5 1612.81,-129.5"/>
<text text-anchor="middle" x="1582" y="-129.8" font-family="Times,serif" font-size="14.00">u000f</text>
</g>
<!-- 25 -->
<g id="node22" class="node"><title>25</title>
<ellipse fill="none" stroke="black" cx="1759" cy="-126" rx="18" ry="18"/>
</g>
<!-- 20&#45;&gt;25 -->
<g id="edge23" class="edge"><title>20&#45;&gt;25</title>
<path fill="none" stroke="black" d="M1659.12,-126C1677.96,-126 1708.53,-126 1730.7,-126"/>
<polygon fill="black" stroke="black" points="1730.81,-129.5 1740.81,-126 1730.81,-122.5 1730.81,-129.5"/>
<text text-anchor="middle" x="1700" y="-129.8" font-family="Times,serif" font-size="14.00">u0004</text>
</g>
<!-- 30 -->
<g id="node23" class="node"><title>30</title>
<ellipse fill="none" stroke="black" cx="1877" cy="-126" rx="18" ry="18"/>
</g>
<!-- 25&#45;&gt;30 -->
<g id="edge24" class="edge"><title>25&#45;&gt;30</title>
<path fill="none" stroke="black" d="M1777.12,-126C1795.96,-126 1826.53,-126 1848.7,-126"/>
<polygon fill="black" stroke="black" points="1848.81,-129.5 1858.81,-126 1848.81,-122.5 1848.81,-129.5"/>
<text text-anchor="middle" x="1818" y="-129.8" font-family="Times,serif" font-size="14.00">u000e</text>
</g>
<!-- 35 -->
<g id="node24" class="node"><title>35</title>
<ellipse fill="none" stroke="black" cx="1995" cy="-126" rx="18" ry="18"/>
</g>
<!-- 30&#45;&gt;35 -->
<g id="edge25" class="edge"><title>30&#45;&gt;35</title>
<path fill="none" stroke="black" d="M1895.12,-126C1913.96,-126 1944.53,-126 1966.7,-126"/>
<polygon fill="black" stroke="black" points="1966.81,-129.5 1976.81,-126 1966.81,-122.5 1966.81,-129.5"/>
<text text-anchor="middle" x="1936" y="-129.8" font-family="Times,serif" font-size="14.00">u000a</text>
</g>
<!-- 40 -->
<g id="node25" class="node"><title>40</title>
<ellipse fill="none" stroke="black" cx="2118" cy="-126" rx="18" ry="18"/>
</g>
<!-- 35&#45;&gt;40 -->
<g id="edge26" class="edge"><title>35&#45;&gt;40</title>
<path fill="none" stroke="black" d="M2013.08,-126C2032.96,-126 2066.08,-126 2089.58,-126"/>
<polygon fill="black" stroke="black" points="2089.62,-129.5 2099.62,-126 2089.62,-122.5 2089.62,-129.5"/>
<text text-anchor="middle" x="2054" y="-129.8" font-family="Times,serif" font-size="14.00">u0010</text>
</g>
<!-- 45 -->
<g id="node26" class="node"><title>45</title>
<ellipse fill="none" stroke="black" cx="2241" cy="-126" rx="18" ry="18"/>
</g>
<!-- 40&#45;&gt;45 -->
<g id="edge27" class="edge"><title>40&#45;&gt;45</title>
<path fill="none" stroke="black" d="M2136.08,-126C2155.96,-126 2189.08,-126 2212.58,-126"/>
<polygon fill="black" stroke="black" points="2212.62,-129.5 2222.62,-126 2212.62,-122.5 2212.62,-129.5"/>
<text text-anchor="middle" x="2182" y="-129.8" font-family="Times,serif" font-size="14.00">u000e</text>
</g>
<!-- 49 -->
<g id="node27" class="node"><title>49</title>
<ellipse fill="none" stroke="black" cx="2364" cy="-126" rx="18" ry="18"/>
</g>
<!-- 45&#45;&gt;49 -->
<g id="edge28" class="edge"><title>45&#45;&gt;49</title>
<path fill="none" stroke="black" d="M2259.08,-126C2278.96,-126 2312.08,-126 2335.58,-126"/>
<polygon fill="black" stroke="black" points="2335.62,-129.5 2345.62,-126 2335.62,-122.5 2335.62,-129.5"/>
<text text-anchor="middle" x="2300" y="-129.8" font-family="Times,serif" font-size="14.00">u0006</text>
</g>
<!-- 49&#45;&gt;46 -->
<g id="edge29" class="edge"><title>49&#45;&gt;46</title>
<path fill="none" stroke="black" d="M2381.98,-129.372C2399.17,-132.839 2426.5,-138.493 2450,-144 2452.71,-144.636 2455.54,-145.322 2458.35,-146.021"/>
<polygon fill="black" stroke="black" points="2457.75,-149.478 2468.3,-148.55 2459.47,-142.694 2457.75,-149.478"/>
<text text-anchor="middle" x="2427.5" y="-147.8" font-family="Times,serif" font-size="14.00">u000e</text>
</g>
<!-- 16 -->
<g id="node29" class="node"><title>16</title>
<ellipse fill="none" stroke="black" cx="1523" cy="-180" rx="18" ry="18"/>
</g>
<!-- 11&#45;&gt;16 -->
<g id="edge30" class="edge"><title>11&#45;&gt;16</title>
<path fill="none" stroke="black" d="M1423.12,-180C1441.96,-180 1472.53,-180 1494.7,-180"/>
<polygon fill="black" stroke="black" points="1494.81,-183.5 1504.81,-180 1494.81,-176.5 1494.81,-183.5"/>
<text text-anchor="middle" x="1464" y="-183.8" font-family="Times,serif" font-size="14.00">u0002</text>
</g>
<!-- 21 -->
<g id="node30" class="node"><title>21</title>
<ellipse fill="none" stroke="black" cx="1641" cy="-180" rx="18" ry="18"/>
</g>
<!-- 16&#45;&gt;21 -->
<g id="edge31" class="edge"><title>16&#45;&gt;21</title>
<path fill="none" stroke="black" d="M1541.12,-180C1559.96,-180 1590.53,-180 1612.7,-180"/>
<polygon fill="black" stroke="black" points="1612.81,-183.5 1622.81,-180 1612.81,-176.5 1612.81,-183.5"/>
<text text-anchor="middle" x="1582" y="-183.8" font-family="Times,serif" font-size="14.00">u0000</text>
</g>
<!-- 26 -->
<g id="node31" class="node"><title>26</title>
<ellipse fill="none" stroke="black" cx="1759" cy="-180" rx="18" ry="18"/>
</g>
<!-- 21&#45;&gt;26 -->
<g id="edge32" class="edge"><title>21&#45;&gt;26</title>
<path fill="none" stroke="black" d="M1659.12,-180C1677.96,-180 1708.53,-180 1730.7,-180"/>
<polygon fill="black" stroke="black" points="1730.81,-183.5 1740.81,-180 1730.81,-176.5 1730.81,-183.5"/>
<text text-anchor="middle" x="1700" y="-183.8" font-family="Times,serif" font-size="14.00">u0003</text>
</g>
<!-- 31 -->
<g id="node32" class="node"><title>31</title>
<ellipse fill="none" stroke="black" cx="1877" cy="-180" rx="18" ry="18"/>
</g>
<!-- 26&#45;&gt;31 -->
<g id="edge33" class="edge"><title>26&#45;&gt;31</title>
<path fill="none" stroke="black" d="M1777.12,-180C1795.96,-180 1826.53,-180 1848.7,-180"/>
<polygon fill="black" stroke="black" points="1848.81,-183.5 1858.81,-180 1848.81,-176.5 1848.81,-183.5"/>
<text text-anchor="middle" x="1818" y="-183.8" font-family="Times,serif" font-size="14.00">u000d</text>
</g>
<!-- 36 -->
<g id="node33" class="node"><title>36</title>
<ellipse fill="none" stroke="black" cx="1995" cy="-180" rx="18" ry="18"/>
</g>
<!-- 31&#45;&gt;36 -->
<g id="edge34" class="edge"><title>31&#45;&gt;36</title>
<path fill="none" stroke="black" d="M1895.12,-180C1913.96,-180 1944.53,-180 1966.7,-180"/>
<polygon fill="black" stroke="black" points="1966.81,-183.5 1976.81,-180 1966.81,-176.5 1966.81,-183.5"/>
<text text-anchor="middle" x="1936" y="-183.8" font-family="Times,serif" font-size="14.00">u0011</text>
</g>
<!-- 41 -->
<g id="node34" class="node"><title>41</title>
<ellipse fill="none" stroke="black" cx="2182" cy="-175" rx="18" ry="18"/>
</g>
<!-- 36&#45;&gt;41 -->
<g id="edge35" class="edge"><title>36&#45;&gt;41</title>
<path fill="none" stroke="black" d="M2013.07,-179.539C2045.29,-178.668 2115.27,-176.777 2153.95,-175.731"/>
<polygon fill="black" stroke="black" points="2154.07,-179.229 2163.97,-175.46 2153.88,-172.232 2154.07,-179.229"/>
<text text-anchor="middle" x="2054" y="-182.8" font-family="Times,serif" font-size="14.00">u000f</text>
</g>
<!-- 41&#45;&gt;46 -->
<g id="edge36" class="edge"><title>41&#45;&gt;46</title>
<path fill="none" stroke="black" d="M2200.24,-174.623C2242.78,-173.551 2356.12,-169.826 2450,-159 2452.57,-158.703 2455.24,-158.343 2457.91,-157.947"/>
<polygon fill="black" stroke="black" points="2458.66,-161.371 2467.96,-156.307 2457.53,-154.462 2458.66,-161.371"/>
<text text-anchor="middle" x="2300" y="-174.8" font-family="Times,serif" font-size="14.00">u000a</text>
</g>
<!-- 12 -->
<g id="node36" class="node"><title>12</title>
<ellipse fill="none" stroke="black" cx="934" cy="-18" rx="18" ry="18"/>
</g>
<!-- 8&#45;&gt;12 -->
<g id="edge37" class="edge"><title>8&#45;&gt;12</title>
<path fill="none" stroke="black" d="M832.179,-63.3759C838.276,-60.0133 845.409,-56.205 852,-53 870.368,-44.0681 891.575,-34.9462 907.68,-28.2551"/>
<polygon fill="black" stroke="black" points="909.064,-31.4704 916.979,-24.4264 906.399,-24.9976 909.064,-31.4704"/>
<text text-anchor="middle" x="875" y="-56.8" font-family="Times,serif" font-size="14.00">u000d</text>
</g>
<!-- 13 -->
<g id="node48" class="node"><title>13</title>
<ellipse fill="none" stroke="black" cx="934" cy="-72" rx="18" ry="18"/>
</g>
<!-- 8&#45;&gt;13 -->
<g id="edge38" class="edge"><title>8&#45;&gt;13</title>
<path fill="none" stroke="black" d="M834.116,-72C852.964,-72 883.531,-72 905.696,-72"/>
<polygon fill="black" stroke="black" points="905.814,-75.5001 915.814,-72 905.814,-68.5001 905.814,-75.5001"/>
<text text-anchor="middle" x="875" y="-75.8" font-family="Times,serif" font-size="14.00">u0003</text>
</g>
<!-- 17 -->
<g id="node37" class="node"><title>17</title>
<ellipse fill="none" stroke="black" cx="1052" cy="-18" rx="18" ry="18"/>
</g>
<!-- 12&#45;&gt;17 -->
<g id="edge39" class="edge"><title>12&#45;&gt;17</title>
<path fill="none" stroke="black" d="M952.116,-18C970.964,-18 1001.53,-18 1023.7,-18"/>
<polygon fill="black" stroke="black" points="1023.81,-21.5001 1033.81,-18 1023.81,-14.5001 1023.81,-21.5001"/>
<text text-anchor="middle" x="993" y="-21.8" font-family="Times,serif" font-size="14.00">u0011</text>
</g>
<!-- 22 -->
<g id="node38" class="node"><title>22</title>
<ellipse fill="none" stroke="black" cx="1170" cy="-18" rx="18" ry="18"/>
</g>
<!-- 17&#45;&gt;22 -->
<g id="edge40" class="edge"><title>17&#45;&gt;22</title>
<path fill="none" stroke="black" d="M1070.12,-18C1088.96,-18 1119.53,-18 1141.7,-18"/>
<polygon fill="black" stroke="black" points="1141.81,-21.5001 1151.81,-18 1141.81,-14.5001 1141.81,-21.5001"/>
<text text-anchor="middle" x="1111" y="-21.8" font-family="Times,serif" font-size="14.00">u000f</text>
</g>
<!-- 27 -->
<g id="node39" class="node"><title>27</title>
<ellipse fill="none" stroke="black" cx="1287" cy="-18" rx="18" ry="18"/>
</g>
<!-- 22&#45;&gt;27 -->
<g id="edge41" class="edge"><title>22&#45;&gt;27</title>
<path fill="none" stroke="black" d="M1188.47,-18C1207.06,-18 1236.76,-18 1258.5,-18"/>
<polygon fill="black" stroke="black" points="1258.75,-21.5001 1268.75,-18 1258.75,-14.5001 1258.75,-21.5001"/>
<text text-anchor="middle" x="1228.5" y="-21.8" font-family="Times,serif" font-size="14.00">u000a</text>
</g>
<!-- 32 -->
<g id="node40" class="node"><title>32</title>
<ellipse fill="none" stroke="black" cx="1405" cy="-18" rx="18" ry="18"/>
</g>
<!-- 27&#45;&gt;32 -->
<g id="edge42" class="edge"><title>27&#45;&gt;32</title>
<path fill="none" stroke="black" d="M1305.12,-18C1323.96,-18 1354.53,-18 1376.7,-18"/>
<polygon fill="black" stroke="black" points="1376.81,-21.5001 1386.81,-18 1376.81,-14.5001 1376.81,-21.5001"/>
<text text-anchor="middle" x="1346" y="-21.8" font-family="Times,serif" font-size="14.00">u000e</text>
</g>
<!-- 37 -->
<g id="node41" class="node"><title>37</title>
<ellipse fill="none" stroke="black" cx="1523" cy="-18" rx="18" ry="18"/>
</g>
<!-- 32&#45;&gt;37 -->
<g id="edge43" class="edge"><title>32&#45;&gt;37</title>
<path fill="none" stroke="black" d="M1423.12,-18C1441.96,-18 1472.53,-18 1494.7,-18"/>
<polygon fill="black" stroke="black" points="1494.81,-21.5001 1504.81,-18 1494.81,-14.5001 1494.81,-21.5001"/>
<text text-anchor="middle" x="1464" y="-21.8" font-family="Times,serif" font-size="14.00">u0010</text>
</g>
<!-- 42 -->
<g id="node42" class="node"><title>42</title>
<ellipse fill="none" stroke="black" cx="1641" cy="-18" rx="18" ry="18"/>
</g>
<!-- 37&#45;&gt;42 -->
<g id="edge44" class="edge"><title>37&#45;&gt;42</title>
<path fill="none" stroke="black" d="M1541.12,-18C1559.96,-18 1590.53,-18 1612.7,-18"/>
<polygon fill="black" stroke="black" points="1612.81,-21.5001 1622.81,-18 1612.81,-14.5001 1612.81,-21.5001"/>
<text text-anchor="middle" x="1582" y="-21.8" font-family="Times,serif" font-size="14.00">u0006</text>
</g>
<!-- 47 -->
<g id="node43" class="node"><title>47</title>
<ellipse fill="none" stroke="black" cx="1759" cy="-18" rx="18" ry="18"/>
</g>
<!-- 42&#45;&gt;47 -->
<g id="edge45" class="edge"><title>42&#45;&gt;47</title>
<path fill="none" stroke="black" d="M1659.12,-18C1677.96,-18 1708.53,-18 1730.7,-18"/>
<polygon fill="black" stroke="black" points="1730.81,-21.5001 1740.81,-18 1730.81,-14.5001 1730.81,-21.5001"/>
<text text-anchor="middle" x="1700" y="-21.8" font-family="Times,serif" font-size="14.00">u000a</text>
</g>
<!-- 51 -->
<g id="node44" class="node"><title>51</title>
<ellipse fill="none" stroke="black" cx="1877" cy="-18" rx="18" ry="18"/>
</g>
<!-- 47&#45;&gt;51 -->
<g id="edge46" class="edge"><title>47&#45;&gt;51</title>
<path fill="none" stroke="black" d="M1777.12,-18C1795.96,-18 1826.53,-18 1848.7,-18"/>
<polygon fill="black" stroke="black" points="1848.81,-21.5001 1858.81,-18 1848.81,-14.5001 1848.81,-21.5001"/>
<text text-anchor="middle" x="1818" y="-21.8" font-family="Times,serif" font-size="14.00">u0007</text>
</g>
<!-- 53 -->
<g id="node45" class="node"><title>53</title>
<ellipse fill="none" stroke="black" cx="1995" cy="-18" rx="18" ry="18"/>
</g>
<!-- 51&#45;&gt;53 -->
<g id="edge47" class="edge"><title>51&#45;&gt;53</title>
<path fill="none" stroke="black" d="M1895.12,-18C1913.96,-18 1944.53,-18 1966.7,-18"/>
<polygon fill="black" stroke="black" points="1966.81,-21.5001 1976.81,-18 1966.81,-14.5001 1966.81,-21.5001"/>
<text text-anchor="middle" x="1936" y="-21.8" font-family="Times,serif" font-size="14.00">u000e</text>
</g>
<!-- 55 -->
<g id="node46" class="node"><title>55</title>
<ellipse fill="none" stroke="black" cx="2118" cy="-18" rx="18" ry="18"/>
</g>
<!-- 53&#45;&gt;55 -->
<g id="edge48" class="edge"><title>53&#45;&gt;55</title>
<path fill="none" stroke="black" d="M2013.08,-18C2032.96,-18 2066.08,-18 2089.58,-18"/>
<polygon fill="black" stroke="black" points="2089.62,-21.5001 2099.62,-18 2089.62,-14.5001 2089.62,-21.5001"/>
<text text-anchor="middle" x="2054" y="-21.8" font-family="Times,serif" font-size="14.00">u0007</text>
</g>
<!-- 57 -->
<g id="node47" class="node"><title>57</title>
<ellipse fill="none" stroke="black" cx="2300" cy="-29" rx="18" ry="18"/>
</g>
<!-- 55&#45;&gt;57 -->
<g id="edge49" class="edge"><title>55&#45;&gt;57</title>
<path fill="none" stroke="black" d="M2136.26,-19.0547C2167.57,-20.9684 2233.98,-25.0265 2271.57,-27.3235"/>
<polygon fill="black" stroke="black" points="2271.6,-30.8319 2281.79,-27.9485 2272.03,-23.8449 2271.6,-30.8319"/>
<text text-anchor="middle" x="2182" y="-27.8" font-family="Times,serif" font-size="14.00">u0006</text>
</g>
<!-- 57&#45;&gt;46 -->
<g id="edge50" class="edge"><title>57&#45;&gt;46</title>
<path fill="none" stroke="black" d="M2315.74,-38.146C2332.97,-48.9041 2362.28,-67.4045 2387,-84 2413.22,-101.601 2442.79,-122.582 2462.53,-136.75"/>
<polygon fill="black" stroke="black" points="2460.69,-139.743 2470.86,-142.744 2464.78,-134.062 2460.69,-139.743"/>
<text text-anchor="middle" x="2364" y="-87.8" font-family="Times,serif" font-size="14.00">u0007</text>
</g>
<!-- 18 -->
<g id="node49" class="node"><title>18</title>
<ellipse fill="none" stroke="black" cx="1052" cy="-72" rx="18" ry="18"/>
</g>
<!-- 13&#45;&gt;18 -->
<g id="edge51" class="edge"><title>13&#45;&gt;18</title>
<path fill="none" stroke="black" d="M952.116,-72C970.964,-72 1001.53,-72 1023.7,-72"/>
<polygon fill="black" stroke="black" points="1023.81,-75.5001 1033.81,-72 1023.81,-68.5001 1023.81,-75.5001"/>
<text text-anchor="middle" x="993" y="-75.8" font-family="Times,serif" font-size="14.00">u000d</text>
</g>
<!-- 23 -->
<g id="node50" class="node"><title>23</title>
<ellipse fill="none" stroke="black" cx="1170" cy="-72" rx="18" ry="18"/>
</g>
<!-- 18&#45;&gt;23 -->
<g id="edge52" class="edge"><title>18&#45;&gt;23</title>
<path fill="none" stroke="black" d="M1070.12,-72C1088.96,-72 1119.53,-72 1141.7,-72"/>
<polygon fill="black" stroke="black" points="1141.81,-75.5001 1151.81,-72 1141.81,-68.5001 1141.81,-75.5001"/>
<text text-anchor="middle" x="1111" y="-75.8" font-family="Times,serif" font-size="14.00">u0011</text>
</g>
<!-- 28 -->
<g id="node51" class="node"><title>28</title>
<ellipse fill="none" stroke="black" cx="1287" cy="-72" rx="18" ry="18"/>
</g>
<!-- 23&#45;&gt;28 -->
<g id="edge53" class="edge"><title>23&#45;&gt;28</title>
<path fill="none" stroke="black" d="M1188.47,-72C1207.06,-72 1236.76,-72 1258.5,-72"/>
<polygon fill="black" stroke="black" points="1258.75,-75.5001 1268.75,-72 1258.75,-68.5001 1258.75,-75.5001"/>
<text text-anchor="middle" x="1228.5" y="-75.8" font-family="Times,serif" font-size="14.00">u000f</text>
</g>
<!-- 33 -->
<g id="node52" class="node"><title>33</title>
<ellipse fill="none" stroke="black" cx="1405" cy="-72" rx="18" ry="18"/>
</g>
<!-- 28&#45;&gt;33 -->
<g id="edge54" class="edge"><title>28&#45;&gt;33</title>
<path fill="none" stroke="black" d="M1305.12,-72C1323.96,-72 1354.53,-72 1376.7,-72"/>
<polygon fill="black" stroke="black" points="1376.81,-75.5001 1386.81,-72 1376.81,-68.5001 1376.81,-75.5001"/>
<text text-anchor="middle" x="1346" y="-75.8" font-family="Times,serif" font-size="14.00">u0006</text>
</g>
<!-- 38 -->
<g id="node53" class="node"><title>38</title>
<ellipse fill="none" stroke="black" cx="1523" cy="-72" rx="18" ry="18"/>
</g>
<!-- 33&#45;&gt;38 -->
<g id="edge55" class="edge"><title>33&#45;&gt;38</title>
<path fill="none" stroke="black" d="M1423.12,-72C1441.96,-72 1472.53,-72 1494.7,-72"/>
<polygon fill="black" stroke="black" points="1494.81,-75.5001 1504.81,-72 1494.81,-68.5001 1494.81,-75.5001"/>
<text text-anchor="middle" x="1464" y="-75.8" font-family="Times,serif" font-size="14.00">u000a</text>
</g>
<!-- 43 -->
<g id="node54" class="node"><title>43</title>
<ellipse fill="none" stroke="black" cx="1641" cy="-72" rx="18" ry="18"/>
</g>
<!-- 38&#45;&gt;43 -->
<g id="edge56" class="edge"><title>38&#45;&gt;43</title>
<path fill="none" stroke="black" d="M1541.12,-72C1559.96,-72 1590.53,-72 1612.7,-72"/>
<polygon fill="black" stroke="black" points="1612.81,-75.5001 1622.81,-72 1612.81,-68.5001 1612.81,-75.5001"/>
<text text-anchor="middle" x="1582" y="-75.8" font-family="Times,serif" font-size="14.00">u000a</text>
</g>
<!-- 48 -->
<g id="node55" class="node"><title>48</title>
<ellipse fill="none" stroke="black" cx="1759" cy="-72" rx="18" ry="18"/>
</g>
<!-- 43&#45;&gt;48 -->
<g id="edge57" class="edge"><title>43&#45;&gt;48</title>
<path fill="none" stroke="black" d="M1659.12,-72C1677.96,-72 1708.53,-72 1730.7,-72"/>
<polygon fill="black" stroke="black" points="1730.81,-75.5001 1740.81,-72 1730.81,-68.5001 1730.81,-75.5001"/>
<text text-anchor="middle" x="1700" y="-75.8" font-family="Times,serif" font-size="14.00">u0007</text>
</g>
<!-- 52 -->
<g id="node56" class="node"><title>52</title>
<ellipse fill="none" stroke="black" cx="1877" cy="-72" rx="18" ry="18"/>
</g>
<!-- 48&#45;&gt;52 -->
<g id="edge58" class="edge"><title>48&#45;&gt;52</title>
<path fill="none" stroke="black" d="M1777.12,-72C1795.96,-72 1826.53,-72 1848.7,-72"/>
<polygon fill="black" stroke="black" points="1848.81,-75.5001 1858.81,-72 1848.81,-68.5001 1848.81,-75.5001"/>
<text text-anchor="middle" x="1818" y="-75.8" font-family="Times,serif" font-size="14.00">u0007</text>
</g>
<!-- 54 -->
<g id="node57" class="node"><title>54</title>
<ellipse fill="none" stroke="black" cx="1995" cy="-72" rx="18" ry="18"/>
</g>
<!-- 52&#45;&gt;54 -->
<g id="edge59" class="edge"><title>52&#45;&gt;54</title>
<path fill="none" stroke="black" d="M1895.12,-72C1913.96,-72 1944.53,-72 1966.7,-72"/>
<polygon fill="black" stroke="black" points="1966.81,-75.5001 1976.81,-72 1966.81,-68.5001 1966.81,-75.5001"/>
<text text-anchor="middle" x="1936" y="-75.8" font-family="Times,serif" font-size="14.00">u000a</text>
</g>
<!-- 56 -->
<g id="node58" class="node"><title>56</title>
<ellipse fill="none" stroke="black" cx="2118" cy="-72" rx="18" ry="18"/>
</g>
<!-- 54&#45;&gt;56 -->
<g id="edge60" class="edge"><title>54&#45;&gt;56</title>
<path fill="none" stroke="black" d="M2013.08,-72C2032.96,-72 2066.08,-72 2089.58,-72"/>
<polygon fill="black" stroke="black" points="2089.62,-75.5001 2099.62,-72 2089.62,-68.5001 2089.62,-75.5001"/>
<text text-anchor="middle" x="2054" y="-75.8" font-family="Times,serif" font-size="14.00">u0006</text>
</g>
<!-- 58 -->
<g id="node59" class="node"><title>58</title>
<ellipse fill="none" stroke="black" cx="2241" cy="-72" rx="18" ry="18"/>
</g>
<!-- 56&#45;&gt;58 -->
<g id="edge61" class="edge"><title>56&#45;&gt;58</title>
<path fill="none" stroke="black" d="M2136.08,-72C2155.96,-72 2189.08,-72 2212.58,-72"/>
<polygon fill="black" stroke="black" points="2212.62,-75.5001 2222.62,-72 2212.62,-68.5001 2212.62,-75.5001"/>
<text text-anchor="middle" x="2182" y="-75.8" font-family="Times,serif" font-size="14.00">u000a</text>
</g>
<!-- 58&#45;&gt;49 -->
<g id="edge62" class="edge"><title>58&#45;&gt;49</title>
<path fill="none" stroke="black" d="M2257.9,-78.6749C2274.29,-85.5981 2300.54,-96.8158 2323,-107 2327.95,-109.244 2333.22,-111.697 2338.25,-114.073"/>
<polygon fill="black" stroke="black" points="2336.95,-117.333 2347.48,-118.472 2339.96,-111.013 2336.95,-117.333"/>
<text text-anchor="middle" x="2300" y="-110.8" font-family="Times,serif" font-size="14.00">u0010</text>
</g>
<!-- initial -->
<g id="node60" class="node"><title>initial</title>
</g>
<!-- initial&#45;&gt;0 -->
<g id="edge63" class="edge"><title>initial&#45;&gt;0</title>
<path fill="none" stroke="black" d="M54.195,-130C62.6538,-130 72.0513,-130 80.5951,-130"/>
<polygon fill="black" stroke="black" points="80.8257,-133.5 90.8257,-130 80.8257,-126.5 80.8257,-133.5"/>
</g>
</g>
</svg>
