<svg width="2447px" height="483px"
 viewBox="0.00 0.00 1835.00 362.00" xmlns="http://www.w3.org/2000/svg" xmlns:xlink="http://www.w3.org/1999/xlink">
<g id="graph0" class="graph" transform="scale(1.000022500562514 1.000022500562514) rotate(0) translate(4 358)">
<title>Automaton</title>
<polygon fill="white" stroke="none" points="-4,4 -4,-358 1831,-358 1831,4 -4,4"/>
<!-- 0 -->
<g id="node1" class="node"><title>0</title>
<ellipse fill="none" stroke="black" cx="109" cy="-324" rx="18" ry="18"/>
</g>
<!-- 1 -->
<g id="node2" class="node"><title>1</title>
<ellipse fill="none" stroke="black" cx="227" cy="-324" rx="18" ry="18"/>
</g>
<!-- 0&#45;&gt;1 -->
<g id="edge1" class="edge"><title>0&#45;&gt;1</title>
<path fill="none" stroke="black" d="M127.116,-324C145.964,-324 176.531,-324 198.696,-324"/>
<polygon fill="black" stroke="black" points="198.814,-327.5 208.814,-324 198.814,-320.5 198.814,-327.5"/>
<text text-anchor="middle" x="168" y="-327.8" font-family="Times,serif" font-size="14.00">u0000</text>
</g>
<!-- 2 -->
<g id="node3" class="node"><title>2</title>
<ellipse fill="none" stroke="black" cx="345" cy="-324" rx="18" ry="18"/>
</g>
<!-- 1&#45;&gt;2 -->
<g id="edge2" class="edge"><title>1&#45;&gt;2</title>
<path fill="none" stroke="black" d="M245.116,-324C263.964,-324 294.531,-324 316.696,-324"/>
<polygon fill="black" stroke="black" points="316.814,-327.5 326.814,-324 316.814,-320.5 316.814,-327.5"/>
<text text-anchor="middle" x="286" y="-327.8" font-family="Times,serif" font-size="14.00">u0004</text>
</g>
<!-- 3 -->
<g id="node4" class="node"><title>3</title>
<ellipse fill="none" stroke="black" cx="463" cy="-324" rx="18" ry="18"/>
</g>
<!-- 2&#45;&gt;3 -->
<g id="edge3" class="edge"><title>2&#45;&gt;3</title>
<path fill="none" stroke="black" d="M363.116,-324C381.964,-324 412.531,-324 434.696,-324"/>
<polygon fill="black" stroke="black" points="434.814,-327.5 444.814,-324 434.814,-320.5 434.814,-327.5"/>
<text text-anchor="middle" x="404" y="-327.8" font-family="Times,serif" font-size="14.00">u0005</text>
</g>
<!-- 4 -->
<g id="node5" class="node"><title>4</title>
<ellipse fill="none" stroke="black" cx="1683" cy="-182" rx="18" ry="18"/>
</g>
<!-- 3&#45;&gt;4 -->
<g id="edge4" class="edge"><title>3&#45;&gt;4</title>
<path fill="none" stroke="black" d="M480.817,-327.555C503.305,-331.99 544.464,-339 580,-339 580,-339 580,-339 1561,-339 1607.86,-339 1618.58,-315.256 1647,-278 1662.39,-257.823 1671.51,-230.216 1676.56,-209.786"/>
<polygon fill="black" stroke="black" points="1680.02,-210.362 1678.84,-199.833 1673.2,-208.798 1680.02,-210.362"/>
<text text-anchor="middle" x="1058" y="-342.8" font-family="Times,serif" font-size="14.00">u0002</text>
</g>
<!-- 5 -->
<g id="node7" class="node"><title>5</title>
<ellipse fill="none" stroke="black" cx="581" cy="-293" rx="18" ry="18"/>
</g>
<!-- 3&#45;&gt;5 -->
<g id="edge5" class="edge"><title>3&#45;&gt;5</title>
<path fill="none" stroke="black" d="M479.822,-316.994C485.756,-314.547 492.61,-311.932 499,-310 516.656,-304.66 536.973,-300.401 552.843,-297.481"/>
<polygon fill="black" stroke="black" points="553.795,-300.867 563.031,-295.677 552.574,-293.974 553.795,-300.867"/>
<text text-anchor="middle" x="522" y="-313.8" font-family="Times,serif" font-size="14.00">u0001</text>
</g>
<!-- 6 -->
<g id="node6" class="node"><title>6</title>
<ellipse fill="none" stroke="black" cx="1805" cy="-182" rx="18" ry="18"/>
<ellipse fill="none" stroke="black" cx="1805" cy="-182" rx="22" ry="22"/>
</g>
<!-- 4&#45;&gt;6 -->
<g id="edge6" class="edge"><title>4&#45;&gt;6</title>
<path fill="none" stroke="black" d="M1701.19,-182C1719.77,-182 1749.76,-182 1772.57,-182"/>
<polygon fill="black" stroke="black" points="1772.79,-185.5 1782.79,-182 1772.79,-178.5 1772.79,-185.5"/>
<text text-anchor="middle" x="1742" y="-185.8" font-family="Times,serif" font-size="14.00">u0003</text>
</g>
<!-- 5&#45;&gt;4 -->
<g id="edge7" class="edge"><title>5&#45;&gt;4</title>
<path fill="none" stroke="black" d="M599.295,-293C621.962,-293 662.958,-293 698,-293 698,-293 698,-293 1561,-293 1605.21,-293 1615.83,-274.352 1647,-243 1656.95,-232.989 1665.06,-219.577 1670.95,-207.879"/>
<polygon fill="black" stroke="black" points="1674.24,-209.102 1675.37,-198.568 1667.92,-206.099 1674.24,-209.102"/>
<text text-anchor="middle" x="1122" y="-296.8" font-family="Times,serif" font-size="14.00">u0002</text>
</g>
<!-- 7 -->
<g id="node8" class="node"><title>7</title>
<ellipse fill="none" stroke="black" cx="699" cy="-247" rx="18" ry="18"/>
</g>
<!-- 5&#45;&gt;7 -->
<g id="edge8" class="edge"><title>5&#45;&gt;7</title>
<path fill="none" stroke="black" d="M594.235,-280.331C600.521,-274.523 608.613,-268.045 617,-264 633.88,-255.858 654.586,-251.6 670.837,-249.381"/>
<polygon fill="black" stroke="black" points="671.272,-252.854 680.788,-248.198 670.445,-245.903 671.272,-252.854"/>
<text text-anchor="middle" x="640" y="-267.8" font-family="Times,serif" font-size="14.00">u0001</text>
</g>
<!-- 7&#45;&gt;4 -->
<g id="edge9" class="edge"><title>7&#45;&gt;4</title>
<path fill="none" stroke="black" d="M717.291,-247.726C739.955,-248.614 780.947,-250 816,-250 816,-250 816,-250 1561,-250 1600.92,-250 1639.84,-221.526 1662.34,-201.429"/>
<polygon fill="black" stroke="black" points="1664.9,-203.833 1669.86,-194.472 1660.14,-198.695 1664.9,-203.833"/>
<text text-anchor="middle" x="1186" y="-253.8" font-family="Times,serif" font-size="14.00">u0002</text>
</g>
<!-- 8 -->
<g id="node9" class="node"><title>8</title>
<ellipse fill="none" stroke="black" cx="817" cy="-204" rx="18" ry="18"/>
</g>
<!-- 7&#45;&gt;8 -->
<g id="edge10" class="edge"><title>7&#45;&gt;8</title>
<path fill="none" stroke="black" d="M713.096,-235.145C719.33,-230.085 727.131,-224.541 735,-221 751.928,-213.382 772.398,-209.123 788.525,-206.774"/>
<polygon fill="black" stroke="black" points="789.429,-210.186 798.899,-205.434 788.533,-203.244 789.429,-210.186"/>
<text text-anchor="middle" x="758" y="-224.8" font-family="Times,serif" font-size="14.00">u0001</text>
</g>
<!-- 8&#45;&gt;4 -->
<g id="edge11" class="edge"><title>8&#45;&gt;4</title>
<path fill="none" stroke="black" d="M835.295,-204C857.962,-204 898.958,-204 934,-204 934,-204 934,-204 1561,-204 1593.92,-204 1631.08,-196.02 1655.43,-189.672"/>
<polygon fill="black" stroke="black" points="1656.6,-192.98 1665.34,-186.992 1654.77,-186.223 1656.6,-192.98"/>
<text text-anchor="middle" x="1250" y="-207.8" font-family="Times,serif" font-size="14.00">u0002</text>
</g>
<!-- 9 -->
<g id="node10" class="node"><title>9</title>
<ellipse fill="none" stroke="black" cx="935" cy="-158" rx="18" ry="18"/>
</g>
<!-- 8&#45;&gt;9 -->
<g id="edge12" class="edge"><title>8&#45;&gt;9</title>
<path fill="none" stroke="black" d="M830.235,-191.331C836.521,-185.523 844.613,-179.045 853,-175 869.88,-166.858 890.586,-162.6 906.837,-160.381"/>
<polygon fill="black" stroke="black" points="907.272,-163.854 916.788,-159.198 906.445,-156.903 907.272,-163.854"/>
<text text-anchor="middle" x="876" y="-178.8" font-family="Times,serif" font-size="14.00">u0001</text>
</g>
<!-- 9&#45;&gt;4 -->
<g id="edge13" class="edge"><title>9&#45;&gt;4</title>
<path fill="none" stroke="black" d="M953.229,-158.696C976.694,-159.582 1020.02,-161 1057,-161 1057,-161 1057,-161 1561,-161 1593.87,-161 1631.04,-168.618 1655.4,-174.677"/>
<polygon fill="black" stroke="black" points="1654.77,-178.127 1665.32,-177.235 1656.52,-171.349 1654.77,-178.127"/>
<text text-anchor="middle" x="1314" y="-164.8" font-family="Times,serif" font-size="14.00">u0002</text>
</g>
<!-- 10 -->
<g id="node11" class="node"><title>10</title>
<ellipse fill="none" stroke="black" cx="1058" cy="-115" rx="18" ry="18"/>
</g>
<!-- 9&#45;&gt;10 -->
<g id="edge14" class="edge"><title>9&#45;&gt;10</title>
<path fill="none" stroke="black" d="M948.751,-146.368C955.033,-141.228 962.972,-135.557 971,-132 989.668,-123.73 1012.39,-119.459 1029.79,-117.267"/>
<polygon fill="black" stroke="black" points="1030.29,-120.732 1039.85,-116.153 1029.52,-113.775 1030.29,-120.732"/>
<text text-anchor="middle" x="994" y="-135.8" font-family="Times,serif" font-size="14.00">u0001</text>
</g>
<!-- 10&#45;&gt;4 -->
<g id="edge15" class="edge"><title>10&#45;&gt;4</title>
<path fill="none" stroke="black" d="M1076.12,-115C1100.36,-115 1146.06,-115 1185,-115 1185,-115 1185,-115 1561,-115 1601.78,-115 1612.68,-124.965 1647,-147 1653.02,-150.868 1658.83,-155.926 1663.93,-160.988"/>
<polygon fill="black" stroke="black" points="1661.41,-163.419 1670.83,-168.272 1666.5,-158.605 1661.41,-163.419"/>
<text text-anchor="middle" x="1378" y="-118.8" font-family="Times,serif" font-size="14.00">u0002</text>
</g>
<!-- 11 -->
<g id="node12" class="node"><title>11</title>
<ellipse fill="none" stroke="black" cx="1186" cy="-69" rx="18" ry="18"/>
</g>
<!-- 10&#45;&gt;11 -->
<g id="edge16" class="edge"><title>10&#45;&gt;11</title>
<path fill="none" stroke="black" d="M1072.16,-103.212C1079.56,-97.1885 1089.25,-90.2517 1099,-86 1117.72,-77.8382 1140.43,-73.5621 1157.82,-71.3405"/>
<polygon fill="black" stroke="black" points="1158.33,-74.8055 1167.87,-70.2065 1157.54,-67.8497 1158.33,-74.8055"/>
<text text-anchor="middle" x="1122" y="-89.8" font-family="Times,serif" font-size="14.00">u0001</text>
</g>
<!-- 12 -->
<g id="node13" class="node"><title>12</title>
<ellipse fill="none" stroke="black" cx="1314" cy="-69" rx="18" ry="18"/>
</g>
<!-- 11&#45;&gt;12 -->
<g id="edge17" class="edge"><title>11&#45;&gt;12</title>
<path fill="none" stroke="black" d="M1204.26,-69C1225.27,-69 1261.03,-69 1285.77,-69"/>
<polygon fill="black" stroke="black" points="1285.95,-72.5001 1295.95,-69 1285.95,-65.5001 1285.95,-72.5001"/>
<text text-anchor="middle" x="1250" y="-72.8" font-family="Times,serif" font-size="14.00">u0001</text>
</g>
<!-- 13 -->
<g id="node14" class="node"><title>13</title>
<ellipse fill="none" stroke="black" cx="1437" cy="-69" rx="18" ry="18"/>
</g>
<!-- 12&#45;&gt;13 -->
<g id="edge18" class="edge"><title>12&#45;&gt;13</title>
<path fill="none" stroke="black" d="M1332.08,-69C1351.96,-69 1385.08,-69 1408.58,-69"/>
<polygon fill="black" stroke="black" points="1408.62,-72.5001 1418.62,-69 1408.62,-65.5001 1408.62,-72.5001"/>
<text text-anchor="middle" x="1378" y="-72.8" font-family="Times,serif" font-size="14.00">u0001</text>
</g>
<!-- 13&#45;&gt;4 -->
<g id="edge19" class="edge"><title>13&#45;&gt;4</title>
<path fill="none" stroke="black" d="M1454.96,-66.2414C1493.84,-60.9323 1590.41,-53.6618 1647,-101 1663.11,-114.474 1672,-136.747 1676.79,-154.53"/>
<polygon fill="black" stroke="black" points="1673.42,-155.475 1679.15,-164.381 1680.22,-153.84 1673.42,-155.475"/>
<text text-anchor="middle" x="1560" y="-74.8" font-family="Times,serif" font-size="14.00">u0002</text>
</g>
<!-- 14 -->
<g id="node15" class="node"><title>14</title>
<ellipse fill="none" stroke="black" cx="1560" cy="-18" rx="18" ry="18"/>
</g>
<!-- 13&#45;&gt;14 -->
<g id="edge20" class="edge"><title>13&#45;&gt;14</title>
<path fill="none" stroke="black" d="M1451.23,-57.4183C1457.49,-52.4136 1465.27,-46.838 1473,-43 1491.8,-33.6653 1514.68,-27.2239 1532.12,-23.22"/>
<polygon fill="black" stroke="black" points="1533.15,-26.5771 1542.18,-21.038 1531.67,-19.736 1533.15,-26.5771"/>
<text text-anchor="middle" x="1496" y="-46.8" font-family="Times,serif" font-size="14.00">u0001</text>
</g>
<!-- 14&#45;&gt;4 -->
<g id="edge21" class="edge"><title>14&#45;&gt;4</title>
<path fill="none" stroke="black" d="M1578.07,-18.1661C1597.5,-19.3068 1628.87,-24.1976 1647,-43 1675.74,-72.8031 1681.91,-122.582 1682.7,-153.781"/>
<polygon fill="black" stroke="black" points="1679.2,-154.008 1682.79,-163.978 1686.2,-153.949 1679.2,-154.008"/>
<text text-anchor="middle" x="1624" y="-46.8" font-family="Times,serif" font-size="14.00">u0002</text>
</g>
<!-- initial -->
<g id="node16" class="node"><title>initial</title>
</g>
<!-- initial&#45;&gt;0 -->
<g id="edge22" class="edge"><title>initial&#45;&gt;0</title>
<path fill="none" stroke="black" d="M54.195,-324C62.6538,-324 72.0513,-324 80.5951,-324"/>
<polygon fill="black" stroke="black" points="80.8257,-327.5 90.8257,-324 80.8257,-320.5 80.8257,-327.5"/>
</g>
</g>
</svg>
